<svg viewBox="0 0 86 86" xmlns="http://www.w3.org/2000/svg" xmlns:xlink="http://www.w3.org/1999/xlink"><linearGradient id="a" gradientUnits="userSpaceOnUse" x1="58.95" x2="84.05" y1="48.38" y2="64.15"><stop offset=".37" stop-color="#fff" stop-opacity="0"/><stop offset=".41" stop-color="#fafbfb" stop-opacity=".12"/><stop offset=".49" stop-color="#f2f2f3" stop-opacity=".35"/><stop offset=".57" stop-color="#eaebec" stop-opacity=".55"/><stop offset=".66" stop-color="#e4e5e6" stop-opacity=".71"/><stop offset=".74" stop-color="#dfe1e2" stop-opacity=".84"/><stop offset=".83" stop-color="#dcdedf" stop-opacity=".93"/><stop offset=".91" stop-color="#dadcdd" stop-opacity=".98"/><stop offset="1" stop-color="#d9dbdc"/></linearGradient><linearGradient id="b" gradientTransform="matrix(-1 0 0 1 -4339.44 0)" x1="-4366.69" x2="-4341.59" xlink:href="#a" y1="48.74" y2="64.51"/><linearGradient id="c" gradientUnits="userSpaceOnUse" x1="12.6" x2="30.73" y1="17.93" y2="31.59"><stop offset="0" stop-color="#d9dbdc"/><stop offset=".09" stop-color="#dadcdd" stop-opacity=".98"/><stop offset=".17" stop-color="#dcdedf" stop-opacity=".93"/><stop offset=".26" stop-color="#dfe1e2" stop-opacity=".84"/><stop offset=".34" stop-color="#e4e5e6" stop-opacity=".71"/><stop offset=".43" stop-color="#eaebec" stop-opacity=".55"/><stop offset=".51" stop-color="#f2f2f3" stop-opacity=".35"/><stop offset=".59" stop-color="#fafbfb" stop-opacity=".12"/><stop offset=".63" stop-color="#fff" stop-opacity="0"/></linearGradient><linearGradient id="d" gradientTransform="matrix(-1 0 0 1 -4406.78 0)" x1="-4479.84" x2="-4461.61" xlink:href="#c" y1="18.14" y2="31.87"/><path d="m79.98 59.25-33.3-33.77-14.1 21.54 43.19 19.74z" fill="url(#a)"/><path d="m5.97 59.16 33.55-33.32 14.1 21.54-43.19 19.74z" fill="url(#b)"/><path d="m6.29 27.68-.42-6.18 33.48 2.09-9.16 18.51z" fill="url(#c)"/><path d="m79.18 28.08.8-6.14-33.84 1.91 9.16 18.52z" fill="url(#d)"/><circle cx="43" cy="42.93" fill="#2b393f" r="27.14"/><rect fill="#d9dbdc" height=".93" rx=".46" width=".93" x="29.73" y="38.49"/><rect fill="#d9dbdc" height=".93" rx=".46" width=".93" x="29.73" y="45.19"/><rect fill="#02e49b" height="2.18" rx=".5" width="2.18" x="41.99" y="24.31"/><rect fill="#d9dbdc" height="3.1" rx="1" width="3.1" x="59.41" y="30.05"/><rect fill="#d9dbdc" height="3.1" rx="1" width="3.1" x="53.17" y="23.59"/><rect fill="#02e49b" height="2.18" rx=".5" width="2.18" x="35.3" y="17.72"/><rect fill="#02e49b" height="1.54" rx=".5" width="1.54" x="48.25" y="24.63"/><rect fill="#02e49b" height="1.54" rx=".5" width="1.54" x="42.31" y="18.04"/><rect fill="#02e49b" height="1.54" rx=".5" width="1.54" x="29.42" y="24.63"/><rect fill="#02e49b" height="1.54" rx=".5" width="1.54" x="60.19" y="24.63"/><rect fill="#02e49b" height=".93" rx=".46" width=".93" x="29.73" y="31.14"/><path d="m22.96 51.43h.53v.53h-.53z" fill="#02e49b"/><rect fill="#02e49b" height=".93" rx=".46" width=".93" x="54.26" y="31.14"/><g fill="#d9dbdc"><rect height=".93" rx=".46" width=".93" x="54.26" y="57.9"/><rect height=".93" rx=".46" width=".93" x="42.62" y="31.14"/><rect height=".93" rx=".46" width=".93" x="48.56" y="31.14"/><rect height=".93" rx=".46" width=".93" x="54.26" y="38.49"/><rect height=".53" rx=".1" width=".53" x="36.12" y="31.34"/><rect height=".53" rx=".1" width=".53" x="36.12" y="25.14"/><rect height=".53" rx=".1" width=".53" x="22.96" y="25.14"/><rect height=".53" rx=".1" width=".53" x="22.96" y="31.34"/><rect height=".53" rx=".1" width=".53" x="16.59" y="45.39"/></g><rect fill="#02e49b" height="1.54" rx=".5" width="1.54" x="22.46" y="38.18"/><rect fill="#d9dbdc" height="1.54" rx=".5" width="1.54" x="42.31" y="57.56"/><rect fill="#02e49b" height="1.54" rx=".5" width="1.54" x="16.09" y="38.18"/><rect fill="#d9dbdc" height="2.18" rx=".5" width="2.18" x="22.14" y="44.3"/><rect fill="#d9dbdc" height=".93" rx=".46" width=".93" x="29.73" y="51.23"/><rect fill="#02e49b" height=".93" rx=".46" width=".93" x="29.73" y="57.9"/><rect fill="#02e49b" height="2.18" rx=".5" width="2.18" x="22.14" y="57.27"/><path d="m60.7 51.43h.53v.53h-.53z" fill="#d9dbdc"/><path d="m54.46 51.43h.53v.53h-.53z" fill="#d9dbdc"/><rect fill="#d9dbdc" height=".53" rx=".1" width=".53" x="48.5" y="51.39"/><rect fill="#d9dbdc" height="1.54" rx=".5" width="1.54" x="60.19" y="38.18"/><rect fill="#02e49b" height="2.18" rx=".5" width="2.18" x="59.87" y="44.3"/><rect fill="#d9dbdc" height="2.18" rx=".5" width="2.18" x="59.87" y="57.27"/><rect fill="#d9dbdc" height="2.18" rx=".5" width="2.18" x="35.3" y="57.27"/><rect fill="#d9dbdc" height="2.18" rx=".5" width="2.18" x="47.94" y="57.27"/><rect fill="#d9dbdc" height=".93" rx=".46" width=".93" x="35.93" y="64.12"/><rect fill="#02e49b" height=".93" rx=".46" width=".93" x="42.62" y="64.12"/><rect fill="#d9dbdc" height=".53" rx=".1" width=".53" x="29.92" y="64.59"/><rect fill="#d9dbdc" height=".53" rx=".1" width=".53" x="42.81" y="71.06"/><rect fill="#d9dbdc" height="1.54" rx=".5" width="1.54" x="48.25" y="63.84"/><rect fill="#d9dbdc" height="1.54" rx=".5" width="1.54" x="53.95" y="63.84"/><rect fill="#d9dbdc" height=".53" rx=".1" width=".53" x="67" y="38.69"/><rect fill="#d9dbdc" height=".53" rx=".1" width=".53" x="48.76" y="18.55"/><rect fill="#02e49b" height=".93" rx=".46" width=".93" x="66.8" y="44.98"/><rect fill="#d9dbdc" height=".93" rx=".46" width=".93" x="66.8" y="51.19"/><path d="m76.09 67 3.78-2.19a1 1 0 0 0 .5-.87v-4.4a.5.5 0 0 0 -.75-.44l-3.78 2.19a1 1 0 0 0 -.5.87v4.38a.5.5 0 0 0 .75.46z" fill="#02e49b"/><path d="m10.07 67-3.78-2.22a1 1 0 0 1 -.5-.87v-4.37a.5.5 0 0 1 .75-.44l3.79 2.19a1 1 0 0 1 .5.87v4.38a.51.51 0 0 1 -.76.46z" fill="#02e49b"/><path d="m76.09 29.87 3.78-2.19a1 1 0 0 0 .5-.86v-4.38a.49.49 0 0 0 -.75-.43l-3.78 2.19a1 1 0 0 0 -.5.86v4.38a.5.5 0 0 0 .75.43z" fill="#02e49b"/><path d="m10.07 29.87-3.78-2.19a1 1 0 0 1 -.5-.86v-4.38a.5.5 0 0 1 .75-.44l3.79 2.19a1 1 0 0 1 .5.86v4.38a.51.51 0 0 1 -.76.44z" fill="#02e49b"/><path d="m34.81 37.35.1 11.77 7.66 2.68-.09-11.87 8.23-3.1-7.51-2.63z" fill="#02e49b"/><path d="m43.1 40.27.05 6.44 7.66 2.67-.09-12z" fill="#02e49b"/></svg>