<svg id="Layer_1" data-name="Layer 1" xmlns="http://www.w3.org/2000/svg" xmlns:xlink="http://www.w3.org/1999/xlink" viewBox="0 0 86 86"><defs><style>.cls-1{fill:url(#linear-gradient);}.cls-2{fill:url(#linear-gradient-2);}.cls-3{fill:url(#linear-gradient-3);}.cls-4{fill:url(#linear-gradient-4);}.cls-5{fill:#2b393f;}.cls-6{fill:#d9dbdc;}.cls-7{fill:#02e49b;}</style><linearGradient id="linear-gradient" x1="58.95" y1="48.38" x2="84.05" y2="64.15" gradientUnits="userSpaceOnUse"><stop offset="0.37" stop-color="#fff" stop-opacity="0"/><stop offset="0.41" stop-color="#fafbfb" stop-opacity="0.12"/><stop offset="0.49" stop-color="#f2f2f3" stop-opacity="0.35"/><stop offset="0.57" stop-color="#eaebec" stop-opacity="0.55"/><stop offset="0.66" stop-color="#e4e5e6" stop-opacity="0.71"/><stop offset="0.74" stop-color="#dfe1e2" stop-opacity="0.84"/><stop offset="0.83" stop-color="#dcdedf" stop-opacity="0.93"/><stop offset="0.91" stop-color="#dadcdd" stop-opacity="0.98"/><stop offset="1" stop-color="#d9dbdc"/></linearGradient><linearGradient id="linear-gradient-2" x1="-4366.69" y1="48.74" x2="-4341.59" y2="64.51" gradientTransform="matrix(-1, 0, 0, 1, -4339.44, 0)" xlink:href="#linear-gradient"/><linearGradient id="linear-gradient-3" x1="12.6" y1="17.93" x2="30.73" y2="31.59" gradientUnits="userSpaceOnUse"><stop offset="0" stop-color="#d9dbdc"/><stop offset="0.09" stop-color="#dadcdd" stop-opacity="0.98"/><stop offset="0.17" stop-color="#dcdedf" stop-opacity="0.93"/><stop offset="0.26" stop-color="#dfe1e2" stop-opacity="0.84"/><stop offset="0.34" stop-color="#e4e5e6" stop-opacity="0.71"/><stop offset="0.43" stop-color="#eaebec" stop-opacity="0.55"/><stop offset="0.51" stop-color="#f2f2f3" stop-opacity="0.35"/><stop offset="0.59" stop-color="#fafbfb" stop-opacity="0.12"/><stop offset="0.63" stop-color="#fff" stop-opacity="0"/></linearGradient><linearGradient id="linear-gradient-4" x1="-4479.84" y1="18.14" x2="-4461.61" y2="31.87" gradientTransform="matrix(-1, 0, 0, 1, -4406.78, 0)" xlink:href="#linear-gradient-3"/></defs><title>Artboard 76</title><polygon class="cls-1" points="79.98 59.25 46.68 25.48 32.58 47.02 75.77 66.76 79.98 59.25"/><polygon class="cls-2" points="5.97 59.16 39.52 25.84 53.62 47.38 10.43 67.12 5.97 59.16"/><polygon class="cls-3" points="6.29 27.68 5.87 21.5 39.35 23.59 30.19 42.1 6.29 27.68"/><polygon class="cls-4" points="79.18 28.08 79.98 21.94 46.14 23.85 55.3 42.37 79.18 28.08"/><circle class="cls-5" cx="43" cy="42.93" r="27.14"/><rect class="cls-6" x="29.73" y="38.49" width="0.93" height="0.93" rx="0.46"/><rect class="cls-6" x="29.73" y="45.19" width="0.93" height="0.93" rx="0.46"/><rect class="cls-7" x="41.99" y="24.31" width="2.18" height="2.18" rx="0.5"/><rect class="cls-6" x="59.41" y="30.05" width="3.1" height="3.1" rx="1"/><rect class="cls-6" x="53.17" y="23.59" width="3.1" height="3.1" rx="1"/><rect class="cls-7" x="35.3" y="17.72" width="2.18" height="2.18" rx="0.5"/><rect class="cls-7" x="48.25" y="24.63" width="1.54" height="1.54" rx="0.5"/><rect class="cls-7" x="42.31" y="18.04" width="1.54" height="1.54" rx="0.5"/><rect class="cls-7" x="29.42" y="24.63" width="1.54" height="1.54" rx="0.5"/><rect class="cls-7" x="60.19" y="24.63" width="1.54" height="1.54" rx="0.5"/><rect class="cls-7" x="29.73" y="31.14" width="0.93" height="0.93" rx="0.46"/><rect class="cls-7" x="22.96" y="51.43" width="0.53" height="0.53"/><rect class="cls-7" x="54.26" y="31.14" width="0.93" height="0.93" rx="0.46"/><rect class="cls-6" x="54.26" y="57.9" width="0.93" height="0.93" rx="0.46"/><rect class="cls-6" x="42.62" y="31.14" width="0.93" height="0.93" rx="0.46"/><rect class="cls-6" x="48.56" y="31.14" width="0.93" height="0.93" rx="0.46"/><rect class="cls-6" x="54.26" y="38.49" width="0.93" height="0.93" rx="0.46"/><rect class="cls-6" x="36.12" y="31.34" width="0.53" height="0.53" rx="0.1"/><rect class="cls-6" x="36.12" y="25.14" width="0.53" height="0.53" rx="0.1"/><rect class="cls-6" x="22.96" y="25.14" width="0.53" height="0.53" rx="0.1"/><rect class="cls-6" x="22.96" y="31.34" width="0.53" height="0.53" rx="0.1"/><rect class="cls-6" x="16.59" y="45.39" width="0.53" height="0.53" rx="0.1"/><rect class="cls-7" x="22.46" y="38.18" width="1.54" height="1.54" rx="0.5"/><rect class="cls-6" x="42.31" y="57.56" width="1.54" height="1.54" rx="0.5"/><rect class="cls-7" x="16.09" y="38.18" width="1.54" height="1.54" rx="0.5"/><rect class="cls-6" x="22.14" y="44.3" width="2.18" height="2.18" rx="0.5"/><rect class="cls-6" x="29.73" y="51.23" width="0.93" height="0.93" rx="0.46"/><rect class="cls-7" x="29.73" y="57.9" width="0.93" height="0.93" rx="0.46"/><rect class="cls-7" x="22.14" y="57.27" width="2.18" height="2.18" rx="0.5"/><rect class="cls-6" x="60.7" y="51.43" width="0.53" height="0.53"/><rect class="cls-6" x="54.46" y="51.43" width="0.53" height="0.53"/><rect class="cls-6" x="48.5" y="51.39" width="0.53" height="0.53" rx="0.1"/><rect class="cls-6" x="60.19" y="38.18" width="1.54" height="1.54" rx="0.5"/><rect class="cls-7" x="59.87" y="44.3" width="2.18" height="2.18" rx="0.5"/><rect class="cls-6" x="59.87" y="57.27" width="2.18" height="2.18" rx="0.5"/><rect class="cls-6" x="35.3" y="57.27" width="2.18" height="2.18" rx="0.5"/><rect class="cls-6" x="47.94" y="57.27" width="2.18" height="2.18" rx="0.5"/><rect class="cls-6" x="35.93" y="64.12" width="0.93" height="0.93" rx="0.46"/><rect class="cls-7" x="42.62" y="64.12" width="0.93" height="0.93" rx="0.46"/><rect class="cls-6" x="29.92" y="64.59" width="0.53" height="0.53" rx="0.1"/><rect class="cls-6" x="42.81" y="71.06" width="0.53" height="0.53" rx="0.1"/><rect class="cls-6" x="48.25" y="63.84" width="1.54" height="1.54" rx="0.5"/><rect class="cls-6" x="53.95" y="63.84" width="1.54" height="1.54" rx="0.5"/><rect class="cls-6" x="67" y="38.69" width="0.53" height="0.53" rx="0.1"/><rect class="cls-6" x="48.76" y="18.55" width="0.53" height="0.53" rx="0.1"/><rect class="cls-7" x="66.8" y="44.98" width="0.93" height="0.93" rx="0.46"/><rect class="cls-6" x="66.8" y="51.19" width="0.93" height="0.93" rx="0.46"/><path class="cls-7" d="M76.09,67l3.78-2.19a1,1,0,0,0,.5-.87V59.54a.5.5,0,0,0-.75-.44l-3.78,2.19a1,1,0,0,0-.5.87v4.38A.5.5,0,0,0,76.09,67Z"/><path class="cls-7" d="M10.07,67,6.29,64.78a1,1,0,0,1-.5-.87V59.54a.5.5,0,0,1,.75-.44l3.79,2.19a1,1,0,0,1,.5.87v4.38A.51.51,0,0,1,10.07,67Z"/><path class="cls-7" d="M76.09,29.87l3.78-2.19a1,1,0,0,0,.5-.86V22.44a.49.49,0,0,0-.75-.43L75.84,24.2a1,1,0,0,0-.5.86v4.38A.5.5,0,0,0,76.09,29.87Z"/><path class="cls-7" d="M10.07,29.87,6.29,27.68a1,1,0,0,1-.5-.86V22.44A.5.5,0,0,1,6.54,22l3.79,2.19a1,1,0,0,1,.5.86v4.38A.51.51,0,0,1,10.07,29.87Z"/><polygon class="cls-7" points="34.81 37.35 34.91 49.12 42.57 51.8 42.48 39.93 50.71 36.83 43.2 34.2 34.81 37.35"/><polygon class="cls-7" points="43.1 40.27 43.15 46.71 50.81 49.38 50.72 37.38 43.1 40.27"/></svg>