<svg id="Layer_1" data-name="Layer 1" xmlns="http://www.w3.org/2000/svg" xmlns:xlink="http://www.w3.org/1999/xlink" viewBox="0 0 1440 578"><defs><style>.cls-1{fill:url(#linear-gradient);}.cls-2{fill:#fff;}.cls-3{fill:url(#linear-gradient-2);}.cls-4{fill:url(#linear-gradient-3);}.cls-5{fill:#02e49b;}.cls-6,.cls-7,.cls-8,.cls-9{opacity:0.38;}.cls-6{fill:url(#linear-gradient-4);}.cls-7{fill:url(#linear-gradient-5);}.cls-8{fill:url(#linear-gradient-6);}.cls-9{fill:url(#linear-gradient-7);}.cls-10{fill:url(#linear-gradient-8);}.cls-11{fill:#d9dbdc;}.cls-12{fill:#f9fafa;}.cls-13{fill:#f9f9f9;}.cls-14{fill:#eeeff0;}.cls-15{fill:url(#linear-gradient-9);}.cls-16{fill:#53edbb;}.cls-17{fill:#f9fbfb;}.cls-18{fill:#9ff5d9;}.cls-19{fill:#d1faed;}.cls-20{fill:url(#linear-gradient-10);}</style><linearGradient id="linear-gradient" x1="665.69" y1="-265.77" x2="-21.06" y2="577.51" gradientUnits="userSpaceOnUse"><stop offset="0.04" stop-color="#f9fbfb"/><stop offset="0.33" stop-color="#f6f8f8"/><stop offset="0.53" stop-color="#edf0f0"/><stop offset="0.7" stop-color="#dde1e2"/><stop offset="0.86" stop-color="#c7cccd"/><stop offset="1" stop-color="#aeb4b6"/></linearGradient><linearGradient id="linear-gradient-2" x1="230.39" y1="162.05" x2="77.61" y2="277.61" xlink:href="#linear-gradient"/><linearGradient id="linear-gradient-3" x1="404.72" y1="341.45" x2="284.21" y2="421.41" xlink:href="#linear-gradient"/><linearGradient id="linear-gradient-4" x1="591.47" y1="-5102.24" x2="639.24" y2="-5132.26" gradientTransform="matrix(1, 0, 0, -1, 0, -4872.09)" gradientUnits="userSpaceOnUse"><stop offset="0" stop-color="#aeb4b6"/><stop offset="1" stop-color="#f2faf6"/></linearGradient><linearGradient id="linear-gradient-5" x1="-2428.58" y1="-5102.9" x2="-2380.78" y2="-5132.88" gradientTransform="translate(-1897.44 -4872.09) rotate(180)" xlink:href="#linear-gradient-4"/><linearGradient id="linear-gradient-6" x1="503.26" y1="-5044.28" x2="537.76" y2="-5070.28" xlink:href="#linear-gradient-4"/><linearGradient id="linear-gradient-7" x1="-2583.1" y1="-5044.66" x2="-2548.41" y2="-5070.8" gradientTransform="translate(-1964.78 -4872.09) rotate(180)" xlink:href="#linear-gradient-4"/><linearGradient id="linear-gradient-8" x1="607.69" y1="181.82" x2="493.66" y2="274.74" xlink:href="#linear-gradient"/><linearGradient id="linear-gradient-9" x1="407.53" y1="273.94" x2="280.26" y2="355.03" xlink:href="#linear-gradient"/><linearGradient id="linear-gradient-10" x1="288.61" y1="134.39" x2="467.69" y2="65.69" gradientUnits="userSpaceOnUse"><stop offset="0" stop-color="#f9fbfb"/><stop offset="0.24" stop-color="#f5f7f8"/><stop offset="0.47" stop-color="#eaeded"/><stop offset="0.69" stop-color="#d7dbdc"/><stop offset="0.9" stop-color="#bcc2c3"/><stop offset="1" stop-color="#aeb4b6"/></linearGradient></defs><title>Banner_EcoBoost_DT</title><path class="cls-1" d="M356.53-297.07,15.21-93.8a30.4,30.4,0,0,0-15,26.2V302.63A30.4,30.4,0,0,0,15.43,329L335.74,513.89a30.41,30.41,0,0,0,30.65-.14L706.84,310.5a30.41,30.41,0,0,0,14.95-26.11l.89-366.57a30.43,30.43,0,0,0-15-26.27L387.37-297.06A30.41,30.41,0,0,0,356.53-297.07Z"/><path class="cls-2" d="M145.31,110.35,53.18,165.21a8.2,8.2,0,0,0-4,7.07v99.93a8.19,8.19,0,0,0,4.1,7.1l86.46,49.92a8.21,8.21,0,0,0,8.27,0l91.88-54.86a8.2,8.2,0,0,0,4-7.05l.24-98.93a8.21,8.21,0,0,0-4-7.1l-86.46-50.9A8.21,8.21,0,0,0,145.31,110.35Z"/><path class="cls-3" d="M126.64,242.94a1.13,1.13,0,0,0-1.53.48,1.11,1.11,0,0,0-.13.54v24.13a1.38,1.38,0,0,1-1.36,1.4,1.34,1.34,0,0,1-.71-.18l-9.71-5.53a2.78,2.78,0,0,1-1.38-2.38V237.88a5.52,5.52,0,0,0-2.76-4.81l-9.62-5.53A28.56,28.56,0,0,1,85,202.66h0a20,20,0,0,1,29.86-17.38l10.5,6,3.9,2.13a1.21,1.21,0,0,0,1,0l54.21-26.1a2.77,2.77,0,0,1,3.68,1.31,2.68,2.68,0,0,1,.27,1.18v102a2.77,2.77,0,0,1-2.75,2.78,2.91,2.91,0,0,1-1.26-.29Z"/><path class="cls-2" d="M559.94,111.22l-92.12,54.86a8.2,8.2,0,0,0-4,7.07v99.93a8.19,8.19,0,0,0,4.1,7.1l86.45,49.92a8.23,8.23,0,0,0,8.28,0l91.88-54.86a8.2,8.2,0,0,0,4-7.05l.24-98.93a8.2,8.2,0,0,0-4-7.09l-86.46-50.91A8.23,8.23,0,0,0,559.94,111.22Z"/><path class="cls-2" d="M351.32.66,259.2,55.52a8.22,8.22,0,0,0-4,7.08v99.92a8.23,8.23,0,0,0,4.1,7.11l86.46,49.91a8.19,8.19,0,0,0,8.27,0l91.89-54.85a8.21,8.21,0,0,0,4-7.05l.24-98.94a8.2,8.2,0,0,0-4-7.09L359.64.66A8.21,8.21,0,0,0,351.32.66Z"/><path class="cls-2" d="M352.12,232.42,260,287.29a8.18,8.18,0,0,0-4,7.07v99.92a8.21,8.21,0,0,0,4.1,7.11l86.45,49.91a8.19,8.19,0,0,0,8.27,0l91.89-54.85a8.22,8.22,0,0,0,4-7.05l.24-98.94a8.23,8.23,0,0,0-4.05-7.09l-86.45-50.9A8.2,8.2,0,0,0,352.12,232.42Z"/><ellipse class="cls-4" cx="353.1" cy="375.7" rx="46.86" ry="40.97"/><ellipse class="cls-2" cx="353.1" cy="335.2" rx="46.86" ry="40.97"/><path class="cls-2" d="M638.35,176.76l84.33-48.82V23.37l-86.37,50a8.13,8.13,0,0,0-4.06,7v92.83A4.06,4.06,0,0,0,638.35,176.76Z"/><path class="cls-5" d="M874.67,185l80.27-46.46a8.15,8.15,0,0,0,4.06-7V38.68a4.07,4.07,0,0,0-6.11-3.52L872.63,81.62a8.15,8.15,0,0,0-4.06,7v92.83A4.06,4.06,0,0,0,874.67,185Z"/><polygon class="cls-6" points="631.5 250.83 568.12 186.56 541.29 227.55 623.49 265.13 631.5 250.83"/><polygon class="cls-7" points="490.64 250.66 554.5 187.24 581.33 228.24 499.13 265.81 490.64 250.66"/><polygon class="cls-8" points="491.25 190.74 490.45 178.98 554.17 182.96 536.74 218.19 491.25 190.74"/><polygon class="cls-9" points="629.98 191.5 631.5 179.82 567.1 183.45 584.53 218.7 629.98 191.5"/><circle class="cls-10" cx="561.12" cy="219.77" r="51.66"/><path class="cls-11" d="M624.1,265.58l7.2-4.17a1.9,1.9,0,0,0,1-1.65v-8.38a1,1,0,0,0-.94-1,1,1,0,0,0-.49.13l-7.19,4.16a1.92,1.92,0,0,0-1,1.66v8.34a1,1,0,0,0,.9,1A.89.89,0,0,0,624.1,265.58Z"/><path class="cls-11" d="M498.44,265.58l-7.19-4.22a1.9,1.9,0,0,1-.95-1.66v-8.32a1,1,0,0,1,.94-1,.89.89,0,0,1,.48.13l7.22,4.16a1.93,1.93,0,0,1,.95,1.66v8.34a1,1,0,0,1-.94,1A1,1,0,0,1,498.44,265.58Z"/><path class="cls-11" d="M624.1,194.91l7.2-4.17a1.91,1.91,0,0,0,1-1.63v-8.34a.94.94,0,0,0-.91-1,.89.89,0,0,0-.52.14l-7.19,4.17a1.92,1.92,0,0,0-1,1.64v8.33a1,1,0,0,0,1,.95A1,1,0,0,0,624.1,194.91Z"/><path class="cls-11" d="M498.44,194.91l-7.19-4.17a1.87,1.87,0,0,1-.95-1.63v-8.34a.94.94,0,0,1,.94-1,.88.88,0,0,1,.48.12l7.22,4.17a1.91,1.91,0,0,1,.95,1.64v8.33a1,1,0,0,1-1,1A1,1,0,0,1,498.44,194.91Z"/><path class="cls-11" d="M184.92,148.64l8.88-3.76a2.75,2.75,0,0,1,2.31.13l32.44,18.71a1.29,1.29,0,0,0,1.76-.5,1.26,1.26,0,0,0,.16-.63V119.1a2.57,2.57,0,0,0-1.29-2.23l-50.4-29.16a1.27,1.27,0,0,0-1.74.42,1.24,1.24,0,0,0-.18.68v43.6a2.75,2.75,0,0,0,1.29,2.26l3.66,2.12A2.57,2.57,0,0,1,183.1,139v8.41a1.33,1.33,0,0,0,1.34,1.31A1.15,1.15,0,0,0,184.92,148.64Z"/><path class="cls-12" d="M114.66,99.29l-8.88-3.77a2.78,2.78,0,0,0-2.31.14L71,114.37a1.31,1.31,0,0,1-1.76-.5,1.26,1.26,0,0,1-.16-.63V69.75a2.57,2.57,0,0,1,1.29-2.23l50.4-29.16a1.26,1.26,0,0,1,1.74.42,1.24,1.24,0,0,1,.18.68v43.6a2.75,2.75,0,0,1-1.29,2.26l-3.66,2.11a2.57,2.57,0,0,0-1.29,2.23v8.42a1.33,1.33,0,0,1-1.34,1.31A1.65,1.65,0,0,1,114.66,99.29Z"/><path class="cls-13" d="M326.67,138.9l9-5.19-5.45-9.43-25.41,14.58a1.09,1.09,0,0,0-.38,1.5,1,1,0,0,0,.38.38l11.88,6.87a1.08,1.08,0,0,1,0,1.88L298,160.24l6.17,9,34.58-19.54a1.09,1.09,0,0,0,.41-1.49,1.08,1.08,0,0,0-.41-.41l-12.1-7a1.29,1.29,0,0,1,.1-1.69S326.8,139.06,326.67,138.9Z"/><ellipse class="cls-14" cx="301.26" cy="164.86" rx="5.3" ry="5.84"/><polygon class="cls-13" points="362.16 144.09 367.61 153.52 342.86 167.81 338.2 157.83 362.16 144.09"/><ellipse class="cls-11" cx="340.94" cy="162.67" rx="5.3" ry="5.84"/><path class="cls-13" d="M358,166l8.18,4.64a2.2,2.2,0,0,0,2.19,0l21.43-12.3,5.4,9.45-24.75,14.27h0l-2.19,1.27a2.2,2.2,0,0,1-2.19,0L358,178.6a2.2,2.2,0,0,0-2.19,0l-18.15,10.48-4.68-10L355.88,166A2.21,2.21,0,0,1,358,166Z"/><ellipse class="cls-14" cx="334.96" cy="184.47" rx="5.3" ry="5.84"/><polygon class="cls-13" points="350.39 34.18 361.31 34.2 361.22 64.32 350.24 63.33 350.39 34.18"/><ellipse class="cls-14" cx="355.84" cy="34.18" rx="5.47" ry="6.06"/><path class="cls-13" d="M403.37,61.78l-.19-17.2H392.23v9a1.1,1.1,0,0,1-1.13,1.09,1,1,0,0,1-.51-.13l-17.51-10a1.09,1.09,0,0,0-1.49.4,1.15,1.15,0,0,0-.15.54V76.75l10.95,1V64.32a1.08,1.08,0,0,1,1.1-1.09,1,1,0,0,1,.54.15l8.23,4.79h0l9.39,5.45a1.09,1.09,0,0,0,1.5-.37,1.14,1.14,0,0,0,.16-.57Z"/><ellipse class="cls-11" cx="397.79" cy="45.19" rx="5.47" ry="6.06"/><ellipse class="cls-15" cx="353.45" cy="308.4" rx="47.42" ry="41.44"/><path class="cls-16" d="M1298.85,427.06l48.69-28.19a4.93,4.93,0,0,0,2.47-4.27V338.29a2.47,2.47,0,0,0-3.71-2.14l-48.69,28.19a4.94,4.94,0,0,0-2.46,4.27v56.31A2.47,2.47,0,0,0,1298.85,427.06Z"/><path class="cls-17" d="M170.36,387.3l-48.69-28.19a4.92,4.92,0,0,1-2.46-4.27V298.53a2.47,2.47,0,0,1,3.7-2.14l48.69,28.19a4.92,4.92,0,0,1,2.46,4.27v56.31A2.47,2.47,0,0,1,170.36,387.3Z"/><path class="cls-16" d="M201.36,666.2,121.1,619.74a8.15,8.15,0,0,1-4.06-7V519.87a4.06,4.06,0,0,1,6.1-3.52l80.27,46.47a8.12,8.12,0,0,1,4.06,7v92.83A4.07,4.07,0,0,1,201.36,666.2Z"/><path class="cls-2" d="M487.13,441.22l53.63-31A2.48,2.48,0,0,0,542,408V350.31a2.47,2.47,0,0,0-3.71-2.14l-48.69,28.19a4.94,4.94,0,0,0-2.46,4.27Z"/><path class="cls-18" d="M72.87,387.3l-48.7-28.19a4.94,4.94,0,0,1-2.46-4.27V298.53a2.47,2.47,0,0,1,3.7-2.14l48.7,28.19a4.94,4.94,0,0,1,2.46,4.27v56.31A2.47,2.47,0,0,1,72.87,387.3Z"/><path class="cls-19" d="M671.57,620.72l48.7-28.18a5,5,0,0,0,2.46-4.27V532a2.46,2.46,0,0,0-3.7-2.13L670.33,558a4.93,4.93,0,0,0-2.46,4.27v56.31A2.46,2.46,0,0,0,671.57,620.72Z"/><path class="cls-20" d="M403.16,174.9,317,125.46a4.37,4.37,0,0,1-2.19-3.74V40.53A2.19,2.19,0,0,1,317,38.4a2.13,2.13,0,0,1,1,.27l86.16,49.46a4.36,4.36,0,0,1,2.19,3.76v81.17a2.19,2.19,0,0,1-2.28,2.1A2,2,0,0,1,403.16,174.9Z"/><path class="cls-11" d="M391.25,156.8,328.7,120.89a4.38,4.38,0,0,1-2.19-3.79V58.49a2.19,2.19,0,0,1,2.18-2.19,2.27,2.27,0,0,1,1.11.29l62.52,35.89a4.38,4.38,0,0,1,2.19,3.81V154.9a2.17,2.17,0,0,1-2.19,2.18A2.11,2.11,0,0,1,391.25,156.8Z"/></svg>