<svg viewBox="0 0 376 610" xmlns="http://www.w3.org/2000/svg" xmlns:xlink="http://www.w3.org/1999/xlink"><linearGradient id="a" gradientUnits="userSpaceOnUse" x1="327.46" x2="11.11" y1="223.21" y2="611.67"><stop offset=".04" stop-color="#f9fbfb"/><stop offset=".33" stop-color="#f6f8f8"/><stop offset=".53" stop-color="#edf0f0"/><stop offset=".7" stop-color="#dde1e2"/><stop offset=".86" stop-color="#c7cccd"/><stop offset="1" stop-color="#aeb4b6"/></linearGradient><linearGradient id="b" x1="126.94" x2="56.56" xlink:href="#a" y1="420.28" y2="473.52"/><linearGradient id="c" x1="207.25" x2="151.73" xlink:href="#a" y1="502.92" y2="539.76"/><linearGradient id="d" gradientTransform="matrix(1 0 0 -1 0 -4872.09)" gradientUnits="userSpaceOnUse" x1="293.27" x2="315.28" y1="-5323.75" y2="-5337.57"><stop offset="0" stop-color="#aeb4b6"/><stop offset="1" stop-color="#f2faf6"/></linearGradient><linearGradient id="e" gradientTransform="matrix(-1 0 0 -1 -5114.83 -4872.09)" x1="-5380.31" x2="-5358.29" xlink:href="#d" y1="-5324.05" y2="-5337.86"/><linearGradient id="f" x1="252.64" x2="268.53" xlink:href="#d" y1="-5297.05" y2="-5309.02"/><linearGradient id="g" gradientTransform="matrix(-1 0 0 -1 -5182.17 -4872.09)" x1="-5487.8" x2="-5471.82" xlink:href="#d" y1="-5297.22" y2="-5309.26"/><linearGradient id="h" x1="300.74" x2="248.22" xlink:href="#a" y1="429.39" y2="472.19"/><linearGradient id="i" x1="208.54" x2="149.92" xlink:href="#a" y1="471.83" y2="509.18"/><linearGradient id="j" gradientUnits="userSpaceOnUse" x1="153.76" x2="236.25" y1="407.54" y2="375.9"><stop offset="0" stop-color="#f9fbfb"/><stop offset=".24" stop-color="#f5f7f8"/><stop offset=".47" stop-color="#eaeded"/><stop offset=".69" stop-color="#d7dbdc"/><stop offset=".9" stop-color="#bcc2c3"/><stop offset="1" stop-color="#aeb4b6"/></linearGradient><path d="m185.05 208.8-157.23 93.63a14 14 0 0 0 -6.9 12.07v170.5a14 14 0 0 0 7 12.13l147.55 85.19a14 14 0 0 0 14.12-.07l156.82-93.62a14 14 0 0 0 6.89-12l.41-168.86a14 14 0 0 0 -6.9-12.1l-147.56-86.87a14 14 0 0 0 -14.2 0z" fill="url(#a)"/><path d="m87.75 396.47-42.44 25.27a3.79 3.79 0 0 0 -1.86 3.26v46a3.77 3.77 0 0 0 1.89 3.27l39.82 23a3.77 3.77 0 0 0 3.81 0l42.33-25.27a3.77 3.77 0 0 0 1.86-3.25l.11-45.57a3.79 3.79 0 0 0 -1.86-3.27l-39.83-23.44a3.76 3.76 0 0 0 -3.83 0z" fill="#fff"/><path d="m79.15 457.55a.52.52 0 0 0 -.71.22.51.51 0 0 0 -.06.25v11.11a.64.64 0 0 1 -.62.65.63.63 0 0 1 -.33-.09l-4.43-2.54a1.31 1.31 0 0 1 -.64-1.1v-10.83a2.54 2.54 0 0 0 -1.31-2.22l-4.43-2.55a13.12 13.12 0 0 1 -6.62-11.45 9.19 9.19 0 0 1 13.75-8l4.84 2.75 1.79 1a.55.55 0 0 0 .47 0l25-12a1.27 1.27 0 0 1 1.82 1.14v47a1.27 1.27 0 0 1 -1.26 1.28 1.3 1.3 0 0 1 -.58-.14z" fill="url(#b)"/><path d="m278.75 396.87-42.44 25.27a3.79 3.79 0 0 0 -1.86 3.26v46a3.77 3.77 0 0 0 1.89 3.27l39.82 23a3.79 3.79 0 0 0 3.81 0l42.33-25.27a3.77 3.77 0 0 0 1.86-3.25l.11-45.57a3.77 3.77 0 0 0 -1.86-3.27l-39.83-23.45a3.76 3.76 0 0 0 -3.83.01z" fill="#fff"/><path d="m182.65 345.94-42.44 25.28a3.76 3.76 0 0 0 -1.86 3.25v46a3.8 3.8 0 0 0 1.89 3.28l39.82 23a3.79 3.79 0 0 0 3.81 0l42.33-25.27a3.8 3.8 0 0 0 1.86-3.25l.11-45.57a3.81 3.81 0 0 0 -1.86-3.27l-39.83-23.45a3.8 3.8 0 0 0 -3.83 0z" fill="#fff"/><path d="m183 452.7-42.42 25.3a3.79 3.79 0 0 0 -1.86 3.26v46a3.8 3.8 0 0 0 1.89 3.28l39.82 23a3.79 3.79 0 0 0 3.81 0l42.33-25.27a3.77 3.77 0 0 0 1.86-3.25l.11-45.57a3.81 3.81 0 0 0 -1.86-3.27l-39.83-23.48a3.8 3.8 0 0 0 -3.85 0z" fill="#fff"/><ellipse cx="183.47" cy="518.7" fill="url(#c)" rx="21.59" ry="18.87"/><ellipse cx="183.47" cy="500.05" fill="#fff" rx="21.59" ry="18.87"/><path d="m314.87 427.06 38.84-22.49v-48.16l-39.79 23a3.75 3.75 0 0 0 -1.87 3.24v42.76a1.88 1.88 0 0 0 2.82 1.65z" fill="#fff"/><path d="m311.71 461.18-29.19-29.61-12.37 18.89 37.87 17.31z" fill="url(#d)" opacity=".38"/><path d="m246.82 461.1 29.42-29.21 12.36 18.88-37.87 17.31z" fill="url(#e)" opacity=".38"/><path d="m247.1 433.5-.36-5.42 29.35 1.84-8.03 16.23z" fill="url(#f)" opacity=".38"/><path d="m311.01 433.85.7-5.38-29.67 1.67 8.03 16.24z" fill="url(#g)" opacity=".38"/><circle cx="279.29" cy="446.87" fill="url(#h)" r="23.8"/><g fill="#d9dbdc"><path d="m308.3 468 3.32-1.92a.86.86 0 0 0 .43-.77v-3.85a.44.44 0 0 0 -.43-.45.43.43 0 0 0 -.22.06l-3.32 1.93a.89.89 0 0 0 -.44.76v3.84a.45.45 0 0 0 .42.47.5.5 0 0 0 .24-.07z"/><path d="m250.42 468-3.32-2a.86.86 0 0 1 -.43-.76v-3.83a.44.44 0 0 1 .43-.45.43.43 0 0 1 .22.06l3.33 1.92a.86.86 0 0 1 .43.76v3.84a.43.43 0 0 1 -.43.46.37.37 0 0 1 -.23 0z"/><path d="m308.3 435.42 3.32-1.92a.85.85 0 0 0 .43-.75v-3.84a.41.41 0 0 0 -.41-.44.39.39 0 0 0 -.24.06l-3.32 1.92a.9.9 0 0 0 -.44.76v3.84a.44.44 0 0 0 .45.43.39.39 0 0 0 .21-.06z"/><path d="m250.42 435.42-3.32-1.92a.85.85 0 0 1 -.43-.75v-3.84a.44.44 0 0 1 .43-.45.43.43 0 0 1 .22.06l3.33 1.92a.88.88 0 0 1 .43.76v3.8a.45.45 0 0 1 -.45.44.39.39 0 0 1 -.21-.02z"/><path d="m106 414.11 4.1-1.74a1.27 1.27 0 0 1 1.06.07l14.94 8.61a.59.59 0 0 0 .81-.22.61.61 0 0 0 .08-.3v-20a1.21 1.21 0 0 0 -.6-1l-23.22-13.53a.58.58 0 0 0 -.8.19.62.62 0 0 0 -.09.32v20.08a1.25 1.25 0 0 0 .6 1l1.68 1a1.18 1.18 0 0 1 .6 1v3.87a.6.6 0 0 0 .61.6.54.54 0 0 0 .23.05z"/></g><path d="m73.63 391.38-4.09-1.74a1.29 1.29 0 0 0 -1.07.06l-14.94 8.62a.59.59 0 0 1 -.88-.52v-20a1.19 1.19 0 0 1 .59-1l23.22-13.43a.58.58 0 0 1 .8.19.48.48 0 0 1 .08.31v20.03a1.27 1.27 0 0 1 -.59 1l-1.69 1a1.22 1.22 0 0 0 -.59 1v3.88a.62.62 0 0 1 -.62.6.85.85 0 0 1 -.22 0z" fill="#f9fafa"/><path d="m171.29 409.62 4.13-2.39-2.51-4.34-11.7 6.71a.51.51 0 0 0 -.18.69.52.52 0 0 0 .18.18l5.47 3.16a.52.52 0 0 1 .18.7.42.42 0 0 1 -.18.17l-8.59 4.95 2.85 4.15 15.92-9a.49.49 0 0 0 .19-.68.44.44 0 0 0 -.19-.19l-5.57-3.23a.6.6 0 0 1 .05-.78s.01-.02-.05-.1z" fill="#f9f9f9"/><ellipse cx="159.59" cy="421.58" fill="#eeeff0" rx="2.44" ry="2.69"/><path d="m187.64 412.01 2.51 4.35-11.4 6.58-2.15-4.6z" fill="#f9f9f9"/><ellipse cx="177.86" cy="420.57" fill="#d9dbdc" rx="2.44" ry="2.69"/><path d="m185.73 422.11 3.77 2.14a1 1 0 0 0 1 0l9.86-5.67 2.49 4.36-11.4 6.57-1 .59a1 1 0 0 1 -1 0l-3.72-2.19a1 1 0 0 0 -1 0l-8.36 4.83-2.16-4.6 10.55-6.05a1 1 0 0 1 .97.02z" fill="#f9f9f9"/><ellipse cx="175.11" cy="430.61" fill="#eeeff0" rx="2.44" ry="2.69"/><path d="m182.22 361.38 5.03.01-.04 13.87-5.06-.45z" fill="#f9f9f9"/><ellipse cx="184.73" cy="361.38" fill="#eeeff0" rx="2.52" ry="2.79"/><path d="m206.63 374.1-.1-7.93h-5v4.15a.51.51 0 0 1 -.52.5.46.46 0 0 1 -.23-.06l-8.07-4.61a.5.5 0 0 0 -.75.43v14.42l5 .44v-6.16a.51.51 0 0 1 .5-.51.52.52 0 0 1 .25.07l3.79 2.16 4.33 2.51a.5.5 0 0 0 .69-.17.41.41 0 0 0 .07-.26z" fill="#f9f9f9"/><ellipse cx="204.05" cy="366.45" fill="#d9dbdc" rx="2.52" ry="2.79"/><ellipse cx="183.63" cy="487.7" fill="url(#i)" rx="21.84" ry="19.09"/><path d="m99.29 524-22.43-13a2.29 2.29 0 0 1 -1.14-2v-25.85a1.14 1.14 0 0 1 1.71-1l22.43 13a2.28 2.28 0 0 1 1.13 2v25.94a1.13 1.13 0 0 1 -1.7.91z" fill="#f9fbfb"/><path d="m113.57 652.52-37-21.4a3.75 3.75 0 0 1 -1.87-3.25v-42.76a1.87 1.87 0 0 1 2.81-1.62l37 21.41a3.73 3.73 0 0 1 1.87 3.24v42.76a1.87 1.87 0 0 1 -2.81 1.62z" fill="#53edbb"/><path d="m245.21 548.88 24.7-14.3a1.13 1.13 0 0 0 .57-1v-26.58a1.14 1.14 0 0 0 -1.71-1l-22.43 13a2.26 2.26 0 0 0 -1.13 2z" fill="#fff"/><path d="m54.38 524-22.38-12.94a2.29 2.29 0 0 1 -1.14-2v-25.91a1.14 1.14 0 0 1 1.71-1l22.43 13a2.28 2.28 0 0 1 1.13 2v25.94a1.13 1.13 0 0 1 -1.75.91z" fill="#9ff5d9"/><path d="m323.56 625 22.44-13a2.26 2.26 0 0 0 1.13-2v-25.93a1.13 1.13 0 0 0 -1.7-1l-22.43 13a2.24 2.24 0 0 0 -1.14 2v25.93a1.14 1.14 0 0 0 1.7 1z" fill="#d1faed"/><path d="m206.52 426.21-39.7-22.78a2 2 0 0 1 -1-1.72v-37.4a1 1 0 0 1 1-1 .93.93 0 0 1 .46.12l39.72 22.8a2 2 0 0 1 1 1.74v37.39a1 1 0 0 1 -1 1 1 1 0 0 1 -.48-.15z" fill="url(#j)"/><path d="m201 417.87-28.81-16.54a2 2 0 0 1 -1-1.75v-27a1 1 0 0 1 1.51-.87l28.8 16.53a2 2 0 0 1 1 1.75v27a1 1 0 0 1 -1 1 1.05 1.05 0 0 1 -.5-.12z" fill="#d9dbdc"/><path d="m293.07 61.29-35.82-20.56a3.56 3.56 0 0 0 -3.52 0l-35.81 20.56a1.77 1.77 0 0 0 0 3.07l35.81 20.56a3.51 3.51 0 0 0 3.52 0l35.82-20.56a1.77 1.77 0 0 0 0-3.07z" fill="#02e49b"/><path d="m295.74 263-40.25-23.11-37.57 21.57a1.77 1.77 0 0 0 0 3.07l35.81 20.56a3.51 3.51 0 0 0 3.52 0z" fill="#fefefe"/><path d="m127.06 302.07-22.27-12.78a2.18 2.18 0 0 0 -2.18 0l-22.27 12.78a1.1 1.1 0 0 0 0 1.91l22.27 12.78a2.18 2.18 0 0 0 2.18 0l22.27-12.76a1.1 1.1 0 0 0 0-1.93z" fill="#fefefe"/><path d="m127.06 158.84-22.27-12.78a2.18 2.18 0 0 0 -2.18 0l-22.27 12.78a1.09 1.09 0 0 0 0 1.9l22.27 12.79a2.18 2.18 0 0 0 2.18 0l22.27-12.79a1.09 1.09 0 0 0 0-1.9z" fill="#53edbb"/></svg>