<svg viewBox="0 0 1440 578" xmlns="http://www.w3.org/2000/svg" xmlns:xlink="http://www.w3.org/1999/xlink"><linearGradient id="a" gradientUnits="userSpaceOnUse" x1="665.69" x2="-21.06" y1="-265.77" y2="577.51"><stop offset=".04" stop-color="#f9fbfb"/><stop offset=".33" stop-color="#f6f8f8"/><stop offset=".53" stop-color="#edf0f0"/><stop offset=".7" stop-color="#dde1e2"/><stop offset=".86" stop-color="#c7cccd"/><stop offset="1" stop-color="#aeb4b6"/></linearGradient><linearGradient id="b" x1="230.39" x2="77.61" xlink:href="#a" y1="162.05" y2="277.61"/><linearGradient id="c" x1="404.72" x2="284.21" xlink:href="#a" y1="341.45" y2="421.41"/><linearGradient id="d" gradientTransform="matrix(1 0 0 -1 0 -4872.09)" gradientUnits="userSpaceOnUse" x1="591.47" x2="639.24" y1="-5102.24" y2="-5132.26"><stop offset="0" stop-color="#aeb4b6"/><stop offset="1" stop-color="#f2faf6"/></linearGradient><linearGradient id="e" gradientTransform="matrix(-1 0 0 -1 -1897.44 -4872.09)" x1="-2428.58" x2="-2380.78" xlink:href="#d" y1="-5102.9" y2="-5132.88"/><linearGradient id="f" x1="503.26" x2="537.76" xlink:href="#d" y1="-5044.28" y2="-5070.28"/><linearGradient id="g" gradientTransform="matrix(-1 0 0 -1 -1964.78 -4872.09)" x1="-2583.1" x2="-2548.41" xlink:href="#d" y1="-5044.66" y2="-5070.8"/><linearGradient id="h" x1="607.69" x2="493.66" xlink:href="#a" y1="181.82" y2="274.74"/><linearGradient id="i" x1="407.53" x2="280.26" xlink:href="#a" y1="273.94" y2="355.03"/><linearGradient id="j" gradientUnits="userSpaceOnUse" x1="288.61" x2="467.69" y1="134.39" y2="65.69"><stop offset="0" stop-color="#f9fbfb"/><stop offset=".24" stop-color="#f5f7f8"/><stop offset=".47" stop-color="#eaeded"/><stop offset=".69" stop-color="#d7dbdc"/><stop offset=".9" stop-color="#bcc2c3"/><stop offset="1" stop-color="#aeb4b6"/></linearGradient><path d="m356.53-297.07-341.32 203.27a30.4 30.4 0 0 0 -15 26.2v370.23a30.4 30.4 0 0 0 15.22 26.37l320.31 184.89a30.41 30.41 0 0 0 30.65-.14l340.45-203.25a30.41 30.41 0 0 0 14.95-26.11l.89-366.57a30.43 30.43 0 0 0 -15-26.27l-320.31-188.61a30.41 30.41 0 0 0 -30.84-.01z" fill="url(#a)"/><path d="m145.31 110.35-92.13 54.86a8.2 8.2 0 0 0 -4 7.07v99.93a8.19 8.19 0 0 0 4.1 7.1l86.46 49.92a8.21 8.21 0 0 0 8.27 0l91.88-54.86a8.2 8.2 0 0 0 4-7.05l.24-98.93a8.21 8.21 0 0 0 -4-7.1l-86.46-50.9a8.21 8.21 0 0 0 -8.36-.04z" fill="#fff"/><path d="m126.64 242.94a1.13 1.13 0 0 0 -1.53.48 1.11 1.11 0 0 0 -.13.54v24.13a1.38 1.38 0 0 1 -1.36 1.4 1.34 1.34 0 0 1 -.71-.18l-9.71-5.53a2.78 2.78 0 0 1 -1.38-2.38v-23.52a5.52 5.52 0 0 0 -2.76-4.81l-9.62-5.53a28.56 28.56 0 0 1 -14.44-24.88 20 20 0 0 1 29.86-17.38l10.5 6 3.9 2.13a1.21 1.21 0 0 0 1 0l54.21-26.1a2.77 2.77 0 0 1 3.68 1.31 2.68 2.68 0 0 1 .27 1.18v102a2.77 2.77 0 0 1 -2.75 2.78 2.91 2.91 0 0 1 -1.26-.29z" fill="url(#b)"/><path d="m559.94 111.22-92.12 54.86a8.2 8.2 0 0 0 -4 7.07v99.93a8.19 8.19 0 0 0 4.1 7.1l86.45 49.92a8.23 8.23 0 0 0 8.28 0l91.88-54.86a8.2 8.2 0 0 0 4-7.05l.24-98.93a8.2 8.2 0 0 0 -4-7.09l-86.46-50.91a8.23 8.23 0 0 0 -8.37-.04z" fill="#fff"/><path d="m351.32.66-92.12 54.86a8.22 8.22 0 0 0 -4 7.08v99.92a8.23 8.23 0 0 0 4.1 7.11l86.46 49.91a8.19 8.19 0 0 0 8.27 0l91.89-54.85a8.21 8.21 0 0 0 4-7.05l.24-98.94a8.2 8.2 0 0 0 -4-7.09l-86.52-50.95a8.21 8.21 0 0 0 -8.32 0z" fill="#fff"/><path d="m352.12 232.42-92.12 54.87a8.18 8.18 0 0 0 -4 7.07v99.92a8.21 8.21 0 0 0 4.1 7.11l86.45 49.91a8.19 8.19 0 0 0 8.27 0l91.89-54.85a8.22 8.22 0 0 0 4-7.05l.24-98.94a8.23 8.23 0 0 0 -4.05-7.09l-86.45-50.9a8.2 8.2 0 0 0 -8.33-.05z" fill="#fff"/><ellipse cx="353.1" cy="375.7" fill="url(#c)" rx="46.86" ry="40.97"/><ellipse cx="353.1" cy="335.2" fill="#fff" rx="46.86" ry="40.97"/><path d="m638.35 176.76 84.33-48.82v-104.57l-86.37 50a8.13 8.13 0 0 0 -4.06 7v92.83a4.06 4.06 0 0 0 6.1 3.56z" fill="#fff"/><path d="m874.67 185 80.27-46.46a8.15 8.15 0 0 0 4.06-7v-92.86a4.07 4.07 0 0 0 -6.11-3.52l-80.26 46.46a8.15 8.15 0 0 0 -4.06 7v92.83a4.06 4.06 0 0 0 6.1 3.55z" fill="#02e49b"/><path d="m631.5 250.83-63.38-64.27-26.83 40.99 82.2 37.58z" fill="url(#d)" opacity=".38"/><path d="m490.64 250.66 63.86-63.42 26.83 41-82.2 37.57z" fill="url(#e)" opacity=".38"/><path d="m491.25 190.74-.8-11.76 63.72 3.98-17.43 35.23z" fill="url(#f)" opacity=".38"/><path d="m629.98 191.5 1.52-11.68-64.4 3.63 17.43 35.25z" fill="url(#g)" opacity=".38"/><circle cx="561.12" cy="219.77" fill="url(#h)" r="51.66"/><g fill="#d9dbdc"><path d="m624.1 265.58 7.2-4.17a1.9 1.9 0 0 0 1-1.65v-8.38a1 1 0 0 0 -.94-1 1 1 0 0 0 -.49.13l-7.19 4.16a1.92 1.92 0 0 0 -1 1.66v8.34a1 1 0 0 0 .9 1 .89.89 0 0 0 .52-.09z"/><path d="m498.44 265.58-7.19-4.22a1.9 1.9 0 0 1 -.95-1.66v-8.32a1 1 0 0 1 .94-1 .89.89 0 0 1 .48.13l7.22 4.16a1.93 1.93 0 0 1 .95 1.66v8.34a1 1 0 0 1 -.94 1 1 1 0 0 1 -.51-.09z"/><path d="m624.1 194.91 7.2-4.17a1.91 1.91 0 0 0 1-1.63v-8.34a.94.94 0 0 0 -.91-1 .89.89 0 0 0 -.52.14l-7.19 4.17a1.92 1.92 0 0 0 -1 1.64v8.33a1 1 0 0 0 1 .95 1 1 0 0 0 .42-.09z"/><path d="m498.44 194.91-7.19-4.17a1.87 1.87 0 0 1 -.95-1.63v-8.34a.94.94 0 0 1 .94-1 .88.88 0 0 1 .48.12l7.22 4.17a1.91 1.91 0 0 1 .95 1.64v8.33a1 1 0 0 1 -1 1 1 1 0 0 1 -.45-.12z"/><path d="m184.92 148.64 8.88-3.76a2.75 2.75 0 0 1 2.31.13l32.44 18.71a1.29 1.29 0 0 0 1.76-.5 1.26 1.26 0 0 0 .16-.63v-43.49a2.57 2.57 0 0 0 -1.29-2.23l-50.4-29.16a1.27 1.27 0 0 0 -1.74.42 1.24 1.24 0 0 0 -.18.68v43.6a2.75 2.75 0 0 0 1.29 2.26l3.66 2.12a2.57 2.57 0 0 1 1.29 2.21v8.41a1.33 1.33 0 0 0 1.34 1.31 1.15 1.15 0 0 0 .48-.08z"/></g><path d="m114.66 99.29-8.88-3.77a2.78 2.78 0 0 0 -2.31.14l-32.47 18.71a1.31 1.31 0 0 1 -1.76-.5 1.26 1.26 0 0 1 -.16-.63v-43.49a2.57 2.57 0 0 1 1.29-2.23l50.4-29.16a1.26 1.26 0 0 1 1.74.42 1.24 1.24 0 0 1 .18.68v43.6a2.75 2.75 0 0 1 -1.29 2.26l-3.66 2.11a2.57 2.57 0 0 0 -1.29 2.23v8.42a1.33 1.33 0 0 1 -1.34 1.31 1.65 1.65 0 0 1 -.45-.1z" fill="#f9fafa"/><path d="m326.67 138.9 9-5.19-5.45-9.43-25.41 14.58a1.09 1.09 0 0 0 -.38 1.5 1 1 0 0 0 .38.38l11.88 6.87a1.08 1.08 0 0 1 0 1.88l-18.69 10.75 6.17 9 34.58-19.54a1.09 1.09 0 0 0 .41-1.49 1.08 1.08 0 0 0 -.41-.41l-12.1-7a1.29 1.29 0 0 1 .1-1.69s.05-.05-.08-.21z" fill="#f9f9f9"/><ellipse cx="301.26" cy="164.86" fill="#eeeff0" rx="5.3" ry="5.84"/><path d="m362.16 144.09 5.45 9.43-24.75 14.29-4.66-9.98z" fill="#f9f9f9"/><ellipse cx="340.94" cy="162.67" fill="#d9dbdc" rx="5.3" ry="5.84"/><path d="m358 166 8.18 4.64a2.2 2.2 0 0 0 2.19 0l21.43-12.3 5.4 9.45-24.75 14.27-2.19 1.27a2.2 2.2 0 0 1 -2.19 0l-8.07-4.73a2.2 2.2 0 0 0 -2.19 0l-18.15 10.48-4.68-10 22.9-13.08a2.21 2.21 0 0 1 2.12 0z" fill="#f9f9f9"/><ellipse cx="334.96" cy="184.47" fill="#eeeff0" rx="5.3" ry="5.84"/><path d="m350.39 34.18 10.92.02-.09 30.12-10.98-.99z" fill="#f9f9f9"/><ellipse cx="355.84" cy="34.18" fill="#eeeff0" rx="5.47" ry="6.06"/><path d="m403.37 61.78-.19-17.2h-10.95v9a1.1 1.1 0 0 1 -1.13 1.09 1 1 0 0 1 -.51-.13l-17.51-10a1.09 1.09 0 0 0 -1.49.4 1.15 1.15 0 0 0 -.15.54v31.27l10.95 1v-13.43a1.08 1.08 0 0 1 1.1-1.09 1 1 0 0 1 .54.15l8.23 4.79 9.39 5.45a1.09 1.09 0 0 0 1.5-.37 1.14 1.14 0 0 0 .16-.57z" fill="#f9f9f9"/><ellipse cx="397.79" cy="45.19" fill="#d9dbdc" rx="5.47" ry="6.06"/><ellipse cx="353.45" cy="308.4" fill="url(#i)" rx="47.42" ry="41.44"/><path d="m1298.85 427.06 48.69-28.19a4.93 4.93 0 0 0 2.47-4.27v-56.31a2.47 2.47 0 0 0 -3.71-2.14l-48.69 28.19a4.94 4.94 0 0 0 -2.46 4.27v56.31a2.47 2.47 0 0 0 3.7 2.14z" fill="#53edbb"/><path d="m170.36 387.3-48.69-28.19a4.92 4.92 0 0 1 -2.46-4.27v-56.31a2.47 2.47 0 0 1 3.7-2.14l48.69 28.19a4.92 4.92 0 0 1 2.46 4.27v56.31a2.47 2.47 0 0 1 -3.7 2.14z" fill="#f9fbfb"/><path d="m201.36 666.2-80.26-46.46a8.15 8.15 0 0 1 -4.06-7v-92.87a4.06 4.06 0 0 1 6.1-3.52l80.27 46.47a8.12 8.12 0 0 1 4.06 7v92.83a4.07 4.07 0 0 1 -6.11 3.55z" fill="#53edbb"/><path d="m487.13 441.22 53.63-31a2.48 2.48 0 0 0 1.24-2.22v-57.69a2.47 2.47 0 0 0 -3.71-2.14l-48.69 28.19a4.94 4.94 0 0 0 -2.46 4.27z" fill="#fff"/><path d="m72.87 387.3-48.7-28.19a4.94 4.94 0 0 1 -2.46-4.27v-56.31a2.47 2.47 0 0 1 3.7-2.14l48.7 28.19a4.94 4.94 0 0 1 2.46 4.27v56.31a2.47 2.47 0 0 1 -3.7 2.14z" fill="#9ff5d9"/><path d="m671.57 620.72 48.7-28.18a5 5 0 0 0 2.46-4.27v-56.27a2.46 2.46 0 0 0 -3.7-2.13l-48.7 28.13a4.93 4.93 0 0 0 -2.46 4.27v56.31a2.46 2.46 0 0 0 3.7 2.14z" fill="#d1faed"/><path d="m403.16 174.9-86.16-49.44a4.37 4.37 0 0 1 -2.19-3.74v-81.19a2.19 2.19 0 0 1 2.19-2.13 2.13 2.13 0 0 1 1 .27l86.16 49.46a4.36 4.36 0 0 1 2.19 3.76v81.17a2.19 2.19 0 0 1 -2.28 2.1 2 2 0 0 1 -.91-.26z" fill="url(#j)"/><path d="m391.25 156.8-62.55-35.91a4.38 4.38 0 0 1 -2.19-3.79v-58.61a2.19 2.19 0 0 1 2.18-2.19 2.27 2.27 0 0 1 1.11.29l62.52 35.89a4.38 4.38 0 0 1 2.19 3.81v58.61a2.17 2.17 0 0 1 -2.19 2.18 2.11 2.11 0 0 1 -1.07-.28z" fill="#d9dbdc"/></svg>