<svg id="Layer_1" data-name="Layer 1" xmlns="http://www.w3.org/2000/svg" xmlns:xlink="http://www.w3.org/1999/xlink" viewBox="0 0 376 610"><defs><style>.cls-1{fill:url(#linear-gradient);}.cls-2{fill:#fff;}.cls-3{fill:url(#linear-gradient-2);}.cls-4{fill:url(#linear-gradient-3);}.cls-5,.cls-6,.cls-7,.cls-8{opacity:0.38;}.cls-5{fill:url(#linear-gradient-4);}.cls-6{fill:url(#linear-gradient-5);}.cls-7{fill:url(#linear-gradient-6);}.cls-8{fill:url(#linear-gradient-7);}.cls-9{fill:url(#linear-gradient-8);}.cls-10{fill:#d9dbdc;}.cls-11{fill:#f9fafa;}.cls-12{fill:#f9f9f9;}.cls-13{fill:#eeeff0;}.cls-14{fill:url(#linear-gradient-9);}.cls-15{fill:#f9fbfb;}.cls-16{fill:#53edbb;}.cls-17{fill:#9ff5d9;}.cls-18{fill:#d1faed;}.cls-19{fill:url(#linear-gradient-10);}.cls-20{fill:#02e49b;}.cls-21{fill:#fefefe;}</style><linearGradient id="linear-gradient" x1="327.46" y1="223.21" x2="11.11" y2="611.67" gradientUnits="userSpaceOnUse"><stop offset="0.04" stop-color="#f9fbfb"/><stop offset="0.33" stop-color="#f6f8f8"/><stop offset="0.53" stop-color="#edf0f0"/><stop offset="0.7" stop-color="#dde1e2"/><stop offset="0.86" stop-color="#c7cccd"/><stop offset="1" stop-color="#aeb4b6"/></linearGradient><linearGradient id="linear-gradient-2" x1="126.94" y1="420.28" x2="56.56" y2="473.52" xlink:href="#linear-gradient"/><linearGradient id="linear-gradient-3" x1="207.25" y1="502.92" x2="151.73" y2="539.76" xlink:href="#linear-gradient"/><linearGradient id="linear-gradient-4" x1="293.27" y1="-5323.75" x2="315.28" y2="-5337.57" gradientTransform="matrix(1, 0, 0, -1, 0, -4872.09)" gradientUnits="userSpaceOnUse"><stop offset="0" stop-color="#aeb4b6"/><stop offset="1" stop-color="#f2faf6"/></linearGradient><linearGradient id="linear-gradient-5" x1="-5380.31" y1="-5324.05" x2="-5358.29" y2="-5337.86" gradientTransform="translate(-5114.83 -4872.09) rotate(180)" xlink:href="#linear-gradient-4"/><linearGradient id="linear-gradient-6" x1="252.64" y1="-5297.05" x2="268.53" y2="-5309.02" xlink:href="#linear-gradient-4"/><linearGradient id="linear-gradient-7" x1="-5487.8" y1="-5297.22" x2="-5471.82" y2="-5309.26" gradientTransform="translate(-5182.17 -4872.09) rotate(180)" xlink:href="#linear-gradient-4"/><linearGradient id="linear-gradient-8" x1="300.74" y1="429.39" x2="248.22" y2="472.19" xlink:href="#linear-gradient"/><linearGradient id="linear-gradient-9" x1="208.54" y1="471.83" x2="149.92" y2="509.18" xlink:href="#linear-gradient"/><linearGradient id="linear-gradient-10" x1="153.76" y1="407.54" x2="236.25" y2="375.9" gradientUnits="userSpaceOnUse"><stop offset="0" stop-color="#f9fbfb"/><stop offset="0.24" stop-color="#f5f7f8"/><stop offset="0.47" stop-color="#eaeded"/><stop offset="0.69" stop-color="#d7dbdc"/><stop offset="0.9" stop-color="#bcc2c3"/><stop offset="1" stop-color="#aeb4b6"/></linearGradient></defs><title>Banner_EcoBoost_MB</title><path class="cls-1" d="M185.05,208.8,27.82,302.43a14,14,0,0,0-6.9,12.07V485a14,14,0,0,0,7,12.13l147.55,85.19a14,14,0,0,0,14.12-.07l156.82-93.62a14,14,0,0,0,6.89-12l.41-168.86a14,14,0,0,0-6.9-12.1L199.25,208.8A14,14,0,0,0,185.05,208.8Z"/><path class="cls-2" d="M87.75,396.47,45.31,421.74A3.79,3.79,0,0,0,43.45,425v46a3.77,3.77,0,0,0,1.89,3.27l39.82,23a3.77,3.77,0,0,0,3.81,0L131.3,472a3.77,3.77,0,0,0,1.86-3.25l.11-45.57a3.79,3.79,0,0,0-1.86-3.27L91.58,396.47A3.76,3.76,0,0,0,87.75,396.47Z"/><path class="cls-3" d="M79.15,457.55a.52.52,0,0,0-.71.22.51.51,0,0,0-.06.25v11.11a.64.64,0,0,1-.62.65.63.63,0,0,1-.33-.09L73,467.15a1.31,1.31,0,0,1-.64-1.1V455.22A2.54,2.54,0,0,0,71.05,453l-4.43-2.55A13.12,13.12,0,0,1,60,439h0a9.19,9.19,0,0,1,13.75-8l4.84,2.75,1.79,1a.55.55,0,0,0,.47,0l25-12a1.27,1.27,0,0,1,1.82,1.14v47a1.27,1.27,0,0,1-1.26,1.28,1.3,1.3,0,0,1-.58-.14Z"/><path class="cls-2" d="M278.75,396.87l-42.44,25.27a3.79,3.79,0,0,0-1.86,3.26v46a3.77,3.77,0,0,0,1.89,3.27l39.82,23a3.79,3.79,0,0,0,3.81,0l42.33-25.27a3.77,3.77,0,0,0,1.86-3.25l.11-45.57a3.77,3.77,0,0,0-1.86-3.27l-39.83-23.45A3.76,3.76,0,0,0,278.75,396.87Z"/><path class="cls-2" d="M182.65,345.94l-42.44,25.28a3.76,3.76,0,0,0-1.86,3.25v46a3.8,3.8,0,0,0,1.89,3.28l39.82,23a3.79,3.79,0,0,0,3.81,0l42.33-25.27a3.8,3.8,0,0,0,1.86-3.25l.11-45.57a3.81,3.81,0,0,0-1.86-3.27l-39.83-23.45A3.8,3.8,0,0,0,182.65,345.94Z"/><path class="cls-2" d="M183,452.7,140.58,478a3.79,3.79,0,0,0-1.86,3.26v46a3.8,3.8,0,0,0,1.89,3.28l39.82,23a3.79,3.79,0,0,0,3.81,0l42.33-25.27a3.77,3.77,0,0,0,1.86-3.25l.11-45.57a3.81,3.81,0,0,0-1.86-3.27L186.85,452.7A3.8,3.8,0,0,0,183,452.7Z"/><ellipse class="cls-4" cx="183.47" cy="518.7" rx="21.59" ry="18.87"/><ellipse class="cls-2" cx="183.47" cy="500.05" rx="21.59" ry="18.87"/><path class="cls-2" d="M314.87,427.06l38.84-22.49V356.41l-39.79,23a3.75,3.75,0,0,0-1.87,3.24v42.76A1.88,1.88,0,0,0,314.87,427.06Z"/><polygon class="cls-5" points="311.71 461.18 282.52 431.57 270.15 450.46 308.02 467.77 311.71 461.18"/><polygon class="cls-6" points="246.82 461.1 276.24 431.89 288.6 450.77 250.73 468.08 246.82 461.1"/><polygon class="cls-7" points="247.1 433.5 246.74 428.08 276.09 429.92 268.06 446.15 247.1 433.5"/><polygon class="cls-8" points="311.01 433.85 311.71 428.47 282.04 430.14 290.07 446.38 311.01 433.85"/><circle class="cls-9" cx="279.29" cy="446.87" r="23.8"/><path class="cls-10" d="M308.3,468l3.32-1.92a.86.86,0,0,0,.43-.77v-3.85a.44.44,0,0,0-.43-.45.43.43,0,0,0-.22.06L308.08,463a.89.89,0,0,0-.44.76v3.84a.45.45,0,0,0,.42.47A.5.5,0,0,0,308.3,468Z"/><path class="cls-10" d="M250.42,468l-3.32-2a.86.86,0,0,1-.43-.76v-3.83a.44.44,0,0,1,.43-.45.43.43,0,0,1,.22.06l3.33,1.92a.86.86,0,0,1,.43.76v3.84a.43.43,0,0,1-.43.46A.37.37,0,0,1,250.42,468Z"/><path class="cls-10" d="M308.3,435.42l3.32-1.92a.85.85,0,0,0,.43-.75v-3.84a.41.41,0,0,0-.41-.44.39.39,0,0,0-.24.06l-3.32,1.92a.9.9,0,0,0-.44.76v3.84a.44.44,0,0,0,.45.43A.39.39,0,0,0,308.3,435.42Z"/><path class="cls-10" d="M250.42,435.42l-3.32-1.92a.85.85,0,0,1-.43-.75v-3.84a.44.44,0,0,1,.43-.45.43.43,0,0,1,.22.06l3.33,1.92a.88.88,0,0,1,.43.76V435a.45.45,0,0,1-.45.44A.39.39,0,0,1,250.42,435.42Z"/><path class="cls-10" d="M106,414.11l4.1-1.74a1.27,1.27,0,0,1,1.06.07l14.94,8.61a.59.59,0,0,0,.81-.22.61.61,0,0,0,.08-.3v-20a1.21,1.21,0,0,0-.6-1L103.17,386a.58.58,0,0,0-.8.19.62.62,0,0,0-.09.32v20.08a1.25,1.25,0,0,0,.6,1l1.68,1a1.18,1.18,0,0,1,.6,1v3.87a.6.6,0,0,0,.61.6A.54.54,0,0,0,106,414.11Z"/><path class="cls-11" d="M73.63,391.38l-4.09-1.74a1.29,1.29,0,0,0-1.07.06l-14.94,8.62a.59.59,0,0,1-.88-.52v-20a1.19,1.19,0,0,1,.59-1l23.22-13.43a.58.58,0,0,1,.8.19.48.48,0,0,1,.08.31V383.9a1.27,1.27,0,0,1-.59,1l-1.69,1a1.22,1.22,0,0,0-.59,1v3.88a.62.62,0,0,1-.62.6A.85.85,0,0,1,73.63,391.38Z"/><path class="cls-12" d="M171.29,409.62l4.13-2.39-2.51-4.34-11.7,6.71a.51.51,0,0,0-.18.69.52.52,0,0,0,.18.18l5.47,3.16a.52.52,0,0,1,.18.7.42.42,0,0,1-.18.17l-8.59,4.95,2.85,4.15,15.92-9a.49.49,0,0,0,.19-.68.44.44,0,0,0-.19-.19l-5.57-3.23a.6.6,0,0,1,.05-.78S171.35,409.7,171.29,409.62Z"/><ellipse class="cls-13" cx="159.59" cy="421.58" rx="2.44" ry="2.69"/><polygon class="cls-12" points="187.64 412.01 190.15 416.36 178.75 422.94 176.6 418.34 187.64 412.01"/><ellipse class="cls-10" cx="177.86" cy="420.57" rx="2.44" ry="2.69"/><path class="cls-12" d="M185.73,422.11l3.77,2.14a1,1,0,0,0,1,0l9.86-5.67,2.49,4.36-11.4,6.57h0l-1,.59a1,1,0,0,1-1,0l-3.72-2.19a1,1,0,0,0-1,0l-8.36,4.83-2.16-4.6,10.55-6.05A1,1,0,0,1,185.73,422.11Z"/><ellipse class="cls-13" cx="175.11" cy="430.61" rx="2.44" ry="2.69"/><polygon class="cls-12" points="182.22 361.38 187.25 361.39 187.21 375.26 182.15 374.81 182.22 361.38"/><ellipse class="cls-13" cx="184.73" cy="361.38" rx="2.52" ry="2.79"/><path class="cls-12" d="M206.63,374.1l-.1-7.93h-5v4.15a.51.51,0,0,1-.52.5.46.46,0,0,1-.23-.06l-8.07-4.61a.5.5,0,0,0-.75.43V381l5,.44v-6.16a.51.51,0,0,1,.5-.51.52.52,0,0,1,.25.07L201.5,377h0l4.33,2.51a.5.5,0,0,0,.69-.17.41.41,0,0,0,.07-.26Z"/><ellipse class="cls-10" cx="204.05" cy="366.45" rx="2.52" ry="2.79"/><ellipse class="cls-14" cx="183.63" cy="487.7" rx="21.84" ry="19.09"/><path class="cls-15" d="M99.29,524l-22.43-13a2.29,2.29,0,0,1-1.14-2V483.15a1.14,1.14,0,0,1,1.71-1l22.43,13a2.28,2.28,0,0,1,1.13,2v25.94A1.13,1.13,0,0,1,99.29,524Z"/><path class="cls-16" d="M113.57,652.52l-37-21.4a3.75,3.75,0,0,1-1.87-3.25V585.11a1.87,1.87,0,0,1,2.81-1.62l37,21.41a3.73,3.73,0,0,1,1.87,3.24V650.9A1.87,1.87,0,0,1,113.57,652.52Z"/><path class="cls-2" d="M245.21,548.88l24.7-14.3a1.13,1.13,0,0,0,.57-1V507a1.14,1.14,0,0,0-1.71-1l-22.43,13a2.26,2.26,0,0,0-1.13,2Z"/><path class="cls-17" d="M54.38,524,32,511.06a2.29,2.29,0,0,1-1.14-2V483.15a1.14,1.14,0,0,1,1.71-1l22.43,13a2.28,2.28,0,0,1,1.13,2v25.94A1.13,1.13,0,0,1,54.38,524Z"/><path class="cls-18" d="M323.56,625,346,612a2.26,2.26,0,0,0,1.13-2V584.07a1.13,1.13,0,0,0-1.7-1l-22.43,13a2.24,2.24,0,0,0-1.14,2V624A1.14,1.14,0,0,0,323.56,625Z"/><path class="cls-19" d="M206.52,426.21l-39.7-22.78a2,2,0,0,1-1-1.72v-37.4a1,1,0,0,1,1-1,.93.93,0,0,1,.46.12L207,386.23a2,2,0,0,1,1,1.74v37.39a1,1,0,0,1-1,1A1,1,0,0,1,206.52,426.21Z"/><path class="cls-10" d="M201,417.87l-28.81-16.54a2,2,0,0,1-1-1.75v-27a1,1,0,0,1,1.51-.87l28.8,16.53a2,2,0,0,1,1,1.75v27a1,1,0,0,1-1,1A1.05,1.05,0,0,1,201,417.87Z"/><path class="cls-20" d="M293.07,61.29,257.25,40.73a3.56,3.56,0,0,0-3.52,0L217.92,61.29a1.77,1.77,0,0,0,0,3.07l35.81,20.56a3.51,3.51,0,0,0,3.52,0l35.82-20.56A1.77,1.77,0,0,0,293.07,61.29Z"/><path class="cls-21" d="M295.74,263l-40.25-23.11-37.57,21.57a1.77,1.77,0,0,0,0,3.07l35.81,20.56a3.51,3.51,0,0,0,3.52,0Z"/><path class="cls-21" d="M127.06,302.07l-22.27-12.78a2.18,2.18,0,0,0-2.18,0L80.34,302.07a1.1,1.1,0,0,0,0,1.91l22.27,12.78a2.18,2.18,0,0,0,2.18,0L127.06,304A1.1,1.1,0,0,0,127.06,302.07Z"/><path class="cls-16" d="M127.06,158.84l-22.27-12.78a2.18,2.18,0,0,0-2.18,0L80.34,158.84a1.09,1.09,0,0,0,0,1.9l22.27,12.79a2.18,2.18,0,0,0,2.18,0l22.27-12.79A1.09,1.09,0,0,0,127.06,158.84Z"/></svg>