<svg id="Layer_1" data-name="Layer 1" xmlns="http://www.w3.org/2000/svg" viewBox="0 0 86 86"><defs><style>.cls-1{fill:#d9dbdc;}.cls-2{fill:#2b393f;}.cls-3{fill:#02e49b;}</style></defs><title>Artboard 75</title><path class="cls-1" d="M42.23,24.08l-25,14.42a2,2,0,0,0-1,1.74V69.09a2,2,0,0,0,1,1.73l25,14.43a2,2,0,0,0,2,0l25-14.43a2,2,0,0,0,1-1.73V40.24a2,2,0,0,0-1-1.74l-25-14.42A2,2,0,0,0,42.23,24.08Z"/><ellipse class="cls-2" cx="43.23" cy="17.2" rx="16.1" ry="14.07"/><ellipse class="cls-2" cx="43.11" cy="63.21" rx="15.91" ry="13.91"/><ellipse class="cls-3" cx="43.11" cy="47.82" rx="15.91" ry="13.91"/></svg>