<svg id="Layer_1" data-name="Layer 1" xmlns="http://www.w3.org/2000/svg" xmlns:xlink="http://www.w3.org/1999/xlink" viewBox="0 0 86 86"><defs><style>.cls-1{fill:url(#linear-gradient);}.cls-2{fill:#02e49b;}.cls-3{fill:#fff;}.cls-4{fill:#2b393f;}</style><linearGradient id="linear-gradient" x1="39.65" y1="42.58" x2="80.22" y2="43.29" gradientUnits="userSpaceOnUse"><stop offset="0" stop-color="#d9dbdc"/><stop offset="0.09" stop-color="#dadcdd" stop-opacity="0.98"/><stop offset="0.17" stop-color="#dcdedf" stop-opacity="0.93"/><stop offset="0.26" stop-color="#dfe1e2" stop-opacity="0.84"/><stop offset="0.34" stop-color="#e4e5e6" stop-opacity="0.71"/><stop offset="0.43" stop-color="#eaebec" stop-opacity="0.55"/><stop offset="0.51" stop-color="#f2f2f3" stop-opacity="0.35"/><stop offset="0.59" stop-color="#fafbfb" stop-opacity="0.12"/><stop offset="0.63" stop-color="#fff" stop-opacity="0"/></linearGradient></defs><title>Artboard 77</title><polygon class="cls-1" points="41.82 24.13 61.32 10.68 80.17 21.54 80.17 64.54 61.61 75.25 41.8 62.83 41.82 24.13"/><path class="cls-2" d="M63.55,32.83l3.23-1.37a1,1,0,0,1,.84.05l11.79,6.8a.47.47,0,0,0,.7-.41V22.09a.94.94,0,0,0-.47-.81L61.32,10.68a.46.46,0,0,0-.7.4V26.93a1,1,0,0,0,.47.82l1.33.77a.94.94,0,0,1,.47.81v3.06A.48.48,0,0,0,63.55,32.83Z"/><path class="cls-2" d="M56.66,62.13l13.43,7.6a.5.5,0,0,0,.75-.44L70.66,57.5a1,1,0,0,0-.51-.86L56.89,49.2a.5.5,0,0,0-.74.44V61.26A1,1,0,0,0,56.66,62.13Z"/><path class="cls-3" d="M61.61,55.9v5.87a.15.15,0,0,0,.23.13l3.48-2a.15.15,0,0,0,0-.23L61.87,55.8A.15.15,0,0,0,61.61,55.9Z"/><path class="cls-4" d="M20.93,51.45a.41.41,0,0,0-.6.37v8.73a.5.5,0,0,1-.75.44l-3.51-2a1,1,0,0,1-.5-.86V49.62a2,2,0,0,0-1-1.74l-3.48-2a10.33,10.33,0,0,1-5.24-9h0a7.23,7.23,0,0,1,10.8-6.29l3.8,2.16,1.41.77a.43.43,0,0,0,.37,0l19.61-9.44a1,1,0,0,1,1.43.9v36.9a1,1,0,0,1-1.45.9Z"/><path class="cls-3" d="M72.05,23.87l-8.26-4.76A.16.16,0,0,1,63.7,19V16.24a.18.18,0,0,1,.26-.15l8.26,4.76a.18.18,0,0,1,.09.16v2.71A.17.17,0,0,1,72.05,23.87Z"/><path class="cls-3" d="M75.8,26l-2.16-1.25a.16.16,0,0,1-.09-.15V21.91a.17.17,0,0,1,.26-.15L76,23a.19.19,0,0,1,.09.15v2.72A.18.18,0,0,1,75.8,26Z"/><path class="cls-3" d="M69.33,27.11l-5.54-3.23a.16.16,0,0,1-.09-.15V21a.17.17,0,0,1,.26-.15l5.54,3.22a.19.19,0,0,1,.09.15V27A.17.17,0,0,1,69.33,27.11Z"/></svg>