<svg viewBox="0 0 86 86" xmlns="http://www.w3.org/2000/svg" xmlns:xlink="http://www.w3.org/1999/xlink"><linearGradient id="a" gradientUnits="userSpaceOnUse" x1="39.65" x2="80.22" y1="42.58" y2="43.29"><stop offset="0" stop-color="#d9dbdc"/><stop offset=".09" stop-color="#dadcdd" stop-opacity=".98"/><stop offset=".17" stop-color="#dcdedf" stop-opacity=".93"/><stop offset=".26" stop-color="#dfe1e2" stop-opacity=".84"/><stop offset=".34" stop-color="#e4e5e6" stop-opacity=".71"/><stop offset=".43" stop-color="#eaebec" stop-opacity=".55"/><stop offset=".51" stop-color="#f2f2f3" stop-opacity=".35"/><stop offset=".59" stop-color="#fafbfb" stop-opacity=".12"/><stop offset=".63" stop-color="#fff" stop-opacity="0"/></linearGradient><path d="m41.82 24.13 19.5-13.45 18.85 10.86v43l-18.56 10.71-19.81-12.42z" fill="url(#a)"/><path d="m63.55 32.83 3.23-1.37a1 1 0 0 1 .84.05l11.79 6.8a.47.47 0 0 0 .7-.41v-15.81a.94.94 0 0 0 -.47-.81l-18.32-10.6a.46.46 0 0 0 -.7.4v15.85a1 1 0 0 0 .47.82l1.33.77a.94.94 0 0 1 .47.81v3.06a.48.48 0 0 0 .66.44z" fill="#02e49b"/><path d="m56.66 62.13 13.43 7.6a.5.5 0 0 0 .75-.44l-.18-11.79a1 1 0 0 0 -.51-.86l-13.26-7.44a.5.5 0 0 0 -.74.44v11.62a1 1 0 0 0 .51.87z" fill="#02e49b"/><path d="m61.61 55.9v5.87a.15.15 0 0 0 .23.13l3.48-2a.15.15 0 0 0 0-.23l-3.45-3.87a.15.15 0 0 0 -.26.1z" fill="#fff"/><path d="m20.93 51.45a.41.41 0 0 0 -.6.37v8.73a.5.5 0 0 1 -.75.44l-3.51-2a1 1 0 0 1 -.5-.86v-8.51a2 2 0 0 0 -1-1.74l-3.48-2a10.33 10.33 0 0 1 -5.24-9 7.23 7.23 0 0 1 10.8-6.29l3.8 2.16 1.41.77a.43.43 0 0 0 .37 0l19.61-9.44a1 1 0 0 1 1.43.9v36.9a1 1 0 0 1 -1.45.9z" fill="#2b393f"/><g fill="#fff"><path d="m72.05 23.87-8.26-4.76a.16.16 0 0 1 -.09-.11v-2.76a.18.18 0 0 1 .26-.15l8.26 4.76a.18.18 0 0 1 .09.16v2.71a.17.17 0 0 1 -.26.15z"/><path d="m75.8 26-2.16-1.25a.16.16 0 0 1 -.09-.15v-2.69a.17.17 0 0 1 .26-.15l2.19 1.24a.19.19 0 0 1 .09.15v2.72a.18.18 0 0 1 -.29.13z"/><path d="m69.33 27.11-5.54-3.23a.16.16 0 0 1 -.09-.15v-2.73a.17.17 0 0 1 .26-.15l5.54 3.22a.19.19 0 0 1 .09.15v2.78a.17.17 0 0 1 -.26.11z"/></g></svg>