<svg viewBox="0 0 86 86" xmlns="http://www.w3.org/2000/svg"><path d="m64.63 73-39.38-22.59a2 2 0 0 1 -1-1.71v-37.1a1 1 0 0 1 1.48-.85l39.37 22.6a2 2 0 0 1 1 1.72v37.09a1 1 0 0 1 -1.47.84z" fill="#d9dbdc"/><path d="m59.19 64.73-28.58-16.41a2 2 0 0 1 -1-1.73v-26.78a1 1 0 0 1 1.5-.87l28.57 16.4a2 2 0 0 1 1 1.74v26.78a1 1 0 0 1 -1.49.87z" fill="#2b393f"/><g fill="#02e49b"><path d="m55.88 42.56-11.24-6.56a.68.68 0 0 1 -.34-.59v-2.5a.34.34 0 0 1 .51-.3l11.24 6.52a.7.7 0 0 1 .34.6v2.5a.34.34 0 0 1 -.51.33z"/><path d="m38.93 48.77-4.62-2.77a.67.67 0 0 1 -.34-.58v-2.48a.35.35 0 0 1 .52-.29l4.62 2.74a.68.68 0 0 1 .34.59v2.5a.34.34 0 0 1 -.52.29z"/><path d="m41.73 34.61-7.42-4.46a.67.67 0 0 1 -.34-.58v-2.51a.35.35 0 0 1 .52-.29l7.42 4.46a.67.67 0 0 1 .34.58v2.5a.35.35 0 0 1 -.52.3z"/><path d="m45.25 44.4-10.94-6.29a.7.7 0 0 1 -.34-.59v-2.52a.34.34 0 0 1 .51-.3l10.94 6.3a.7.7 0 0 1 .34.6v2.5a.34.34 0 0 1 -.51.3z"/></g><path d="m29.68 56.55 4.1-2.37-2.49-4.31-11.61 6.66a.5.5 0 0 0 0 .86l5.43 3.14a.5.5 0 0 1 0 .86l-8.52 4.91 2.82 4.11 15.8-8.93a.5.5 0 0 0 0-.87l-5.53-3.2a.5.5 0 0 1 0-.86z" fill="#d9dbdc"/><ellipse cx="18.07" cy="68.41" fill="#02e49b" rx="2.42" ry="2.67"/><path d="m45.9 58.92 2.49 4.31-11.31 6.53-2.13-4.56z" fill="#d9dbdc"/><ellipse cx="36.2" cy="67.41" fill="#02e49b" rx="2.42" ry="2.67"/><path d="m44 68.94 3.74 2.12a1 1 0 0 0 1 0l9.79-5.62 2.47 4.32-11.31 6.52-1 .58a1 1 0 0 1 -1 0l-3.69-2.17a1 1 0 0 0 -1 0l-8.29 4.79-2.14-4.56 10.46-6a1 1 0 0 1 .97.02z" fill="#d9dbdc"/><ellipse cx="33.47" cy="77.37" fill="#02e49b" rx="2.42" ry="2.67"/><path d="m40.52 8.7 4.99.01-.04 13.76-5.02-.45z" fill="#d9dbdc"/><ellipse cx="43.01" cy="8.7" fill="#02e49b" rx="2.5" ry="2.77"/><path d="m64.73 21.31-.09-7.86h-5v4.11a.51.51 0 0 1 -.75.44l-8-4.57a.5.5 0 0 0 -.75.43v2.2 12.09l5 .44v-6.12a.5.5 0 0 1 .75-.43l3.76 2.19 4.29 2.49a.5.5 0 0 0 .76-.43z" fill="#d9dbdc"/><ellipse cx="62.18" cy="13.73" fill="#02e49b" rx="2.5" ry="2.77"/></svg>