<svg id="Layer_1" data-name="Layer 1" xmlns="http://www.w3.org/2000/svg" viewBox="0 0 86 86"><defs><style>.cls-1{fill:#d9dbdc;}.cls-2{fill:#2b393f;}.cls-3{fill:#02e49b;}</style></defs><title>Artboard 78</title><path class="cls-1" d="M64.63,73,25.25,50.41a2,2,0,0,1-1-1.71V11.6a1,1,0,0,1,1.48-.85l39.37,22.6a2,2,0,0,1,1,1.72V72.16A1,1,0,0,1,64.63,73Z"/><path class="cls-2" d="M59.19,64.73,30.61,48.32a2,2,0,0,1-1-1.73V19.81a1,1,0,0,1,1.5-.87l28.57,16.4a2,2,0,0,1,1,1.74V63.86A1,1,0,0,1,59.19,64.73Z"/><path class="cls-3" d="M55.88,42.56,44.64,36a.68.68,0,0,1-.34-.59v-2.5a.34.34,0,0,1,.51-.3l11.24,6.52a.7.7,0,0,1,.34.6v2.5A.34.34,0,0,1,55.88,42.56Z"/><path class="cls-3" d="M38.93,48.77,34.31,46a.67.67,0,0,1-.34-.58V42.94a.35.35,0,0,1,.52-.29l4.62,2.74a.68.68,0,0,1,.34.59v2.5A.34.34,0,0,1,38.93,48.77Z"/><path class="cls-3" d="M41.73,34.61l-7.42-4.46a.67.67,0,0,1-.34-.58V27.06a.35.35,0,0,1,.52-.29l7.42,4.46a.67.67,0,0,1,.34.58v2.5A.35.35,0,0,1,41.73,34.61Z"/><path class="cls-3" d="M45.25,44.4,34.31,38.11a.7.7,0,0,1-.34-.59V35a.34.34,0,0,1,.51-.3L45.42,41a.7.7,0,0,1,.34.6v2.5A.34.34,0,0,1,45.25,44.4Z"/><path class="cls-1" d="M29.68,56.55l4.1-2.37-2.49-4.31L19.68,56.53a.5.5,0,0,0,0,.86l5.43,3.14a.5.5,0,0,1,0,.86L16.59,66.3l2.82,4.11,15.8-8.93a.5.5,0,0,0,0-.87l-5.53-3.2A.5.5,0,0,1,29.68,56.55Z"/><ellipse class="cls-3" cx="18.07" cy="68.41" rx="2.42" ry="2.67"/><polygon class="cls-1" points="45.9 58.92 48.39 63.23 37.08 69.76 34.95 65.2 45.9 58.92"/><ellipse class="cls-3" cx="36.2" cy="67.41" rx="2.42" ry="2.67"/><path class="cls-1" d="M44,68.94l3.74,2.12a1,1,0,0,0,1,0l9.79-5.62L61,69.76,49.69,76.28h0l-1,.58a1,1,0,0,1-1,0L44,74.69a1,1,0,0,0-1,0l-8.29,4.79-2.14-4.56,10.46-6A1,1,0,0,1,44,68.94Z"/><ellipse class="cls-3" cx="33.47" cy="77.37" rx="2.42" ry="2.67"/><polygon class="cls-1" points="40.52 8.7 45.51 8.71 45.47 22.47 40.45 22.02 40.52 8.7"/><ellipse class="cls-3" cx="43.01" cy="8.7" rx="2.5" ry="2.77"/><path class="cls-1" d="M64.73,21.31l-.09-7.86h-5v4.11a.51.51,0,0,1-.75.44l-8-4.57a.5.5,0,0,0-.75.43v2.2l0,12.09,5,.44,0-6.12a.5.5,0,0,1,.75-.43l3.76,2.19h0l4.29,2.49a.5.5,0,0,0,.76-.43Z"/><ellipse class="cls-3" cx="62.18" cy="13.73" rx="2.5" ry="2.77"/></svg>