<svg id="Layer_1" data-name="Layer 1" xmlns="http://www.w3.org/2000/svg" viewBox="0 0 86 86"><defs><style>.cls-1{fill:#2b393f;}.cls-2{fill:#02e49b;}</style></defs><title>Artboard 75</title><path class="cls-1" d="M42,17.78,21.66,29.52a2,2,0,0,0-1,1.73v23.5a2,2,0,0,0,1,1.73L42,68.22a2,2,0,0,0,2,0L64.34,56.48a2,2,0,0,0,1-1.73V31.25a2,2,0,0,0-1-1.73L44,17.78A2,2,0,0,0,42,17.78Z"/><path class="cls-2" d="M64.4,17.57,44.14,5.94a2,2,0,0,0-2,0L21.88,17.57a1,1,0,0,0,0,1.74L42.15,30.94a2,2,0,0,0,2,0L64.4,19.31A1,1,0,0,0,64.4,17.57Z"/></svg>