<svg xmlns="http://www.w3.org/2000/svg" width="2800" height="211"><path data-name="Find NEO’s next event" d="M1.1 207.25V14.86h109.2V31.5H18.78v67.6h88.4v15.6h-88.4v92.55H1.1zM167.9 73.1v134.15h-15.6V73.1h15.6zm1.05-38.48h-18.72V14.86h18.72v19.76zm63.85 172.63h-16.64V85.58a65.58 65.58 0 0 0-1.04-12.48h16.64l1.04 19.76v1.04q13.5-23.91 42.64-23.92 45.75 1.05 46.8 54.08v83.2h-16.65v-86.32q-1.04-35.35-34.31-36.4-36.42 1.04-38.48 45.75v76.95zM419.36 84.54q-38.48 1.05-40.56 53.03 1.03 58.26 38.48 59.28 44.7-1.02 45.76-59.28-2.1-51.98-43.68-53.03zm43.68 102.95v-1.04q-17.7 22.89-45.76 22.88-52.01-2.1-55.12-69.68 2.08-67.58 55.12-69.67 31.2 1.05 45.76 23.92V14.86h15.6V177.1a211.48 211.48 0 0 0 2.08 30.16h-16.64zM609.46 14.86h18.72l106.07 169.51h1.04V14.87h17.68v192.38h-21.84l-104-166.39h-1.03v166.39h-16.64V14.86zm200.08 192.39V14.86h114.4V31.5h-96.72v68.63h92.55v15.6h-92.55v75.92h100.87v15.6H809.54zm245.84-12.48q63.42-2.07 66.55-83.2-3.12-82.13-66.55-84.23-64.5 3.12-67.6 84.24 4.14 80.09 67.6 83.19zm0 14.56q-83.21-2.1-86.32-97.75 3.12-97.74 86.32-100.88 82.14 3.12 85.27 100.87-3.12 95.7-85.27 97.76zm164.72-185.1q-2.1 38.48-37.44 48.87c-2.78 0-4.51-.68-5.2-2.08q-2.08-4.14 1.04-5.2 27.03-12.48 28.08-28.08-20.8 2.1-21.84-18.72 1.03-15.6 17.68-17.68 17.67 1.05 17.68 22.88zm141.43 82.15q-1.05-21.84-32.24-21.84-30.16 1.05-30.16 20.8-2.09 15.6 33.28 22.88 17.67 5.21 28.08 8.32 21.84 8.33 22.88 31.2-2.1 39.53-56.16 41.6-48.89-2.1-49.91-38.48h16.64q3.1 24.96 37.43 26 34.32-2.07 35.36-27.04 2.07-18.72-36.4-26a14.36 14.36 0 0 1-6.24-1.04q-43.68-8.31-42.63-36.4 1.02-34.32 48.87-36.4 46.8 0 48.88 36.4h-17.68zm160.98 100.87h-16.64V85.58a65.83 65.83 0 0 0-1.04-12.48h16.64l1.04 19.76v1.04q13.5-23.91 42.64-23.92 45.75 1.05 46.79 54.08v83.2h-16.64v-86.32q-1.03-35.35-34.31-36.4-36.42 1.04-38.48 45.75v76.95zm147.04-63.44q3.12 52.02 46.8 53.04 30.15-2.07 38.48-32.24h16.64q-11.46 45.77-60.32 44.72-55.13-2.1-58.23-68.64 4.14-67.58 59.27-70.71 60.3 1.05 61.36 73.83h-104zm86.32-14.56q-4.17-43.67-43.68-44.71-35.37 2.1-41.6 44.71h85.28zm144.96-56.15h17.68l-48.87 65.52 53.03 68.63h-21.84l-42.63-58.23-41.6 58.23h-18.72a.92.92 0 0 0 1.04-1.04l50.96-67.6L1801 73.1h20.8l39.52 54.08zm64.89 15.6h-25.99V73.1h25.99V45.02l16.64-7.28V73.1h30.16v15.6h-30.16v89.43q0 18.72 18.72 18.72a42.25 42.25 0 0 0 13.52-2.08v12.48a68.73 68.73 0 0 1-16.64 2.08q-18.72 0-26-8.32-7.28-7.26-6.24-29.12V88.7zm173.46 55.12q3.12 52 46.8 53.03 30.15-2.07 38.48-32.24h16.64q-11.46 45.78-60.32 44.72-55.13-2.1-58.24-68.63 4.16-67.59 59.28-70.72 60.3 1.05 61.36 73.84h-104zm86.32-14.56q-4.17-43.68-43.68-44.72-35.37 2.1-41.6 44.72h85.28zm58.65-56.16l46.8 112.31 44.71-112.31h16.64l-53.04 134.15h-17.67L2267.51 73.1h16.64zm149.12 70.72q3.12 52 46.8 53.03 30.15-2.07 38.48-32.24h16.64q-11.46 45.78-60.32 44.72-55.13-2.1-58.24-68.64 4.16-67.58 59.28-70.7 60.3 1.04 61.36 73.83h-104zm86.32-14.56q-4.17-43.68-43.68-44.72-35.37 2.1-41.6 44.72h85.28zm75.29 77.99h-16.64V85.58a65.83 65.83 0 0 0-1.04-12.48h16.64l1.04 19.76v1.04q13.5-23.91 42.63-23.92 45.75 1.05 46.8 54.08v83.2h-16.64v-86.32q-1.05-35.35-34.32-36.4-36.4 1.04-38.47 45.75v76.95zM2744 88.7h-26V73.1h26V45.02l16.64-7.28V73.1h30.16v15.6h-30.16v89.43q0 18.72 18.72 18.72a42.25 42.25 0 0 0 13.52-2.08v12.48a68.73 68.73 0 0 1-16.64 2.08q-18.72 0-26-8.32-7.29-7.26-6.24-29.12V88.7z" fill="#4a4a4a" fill-rule="evenodd"/></svg>