<svg xmlns="http://www.w3.org/2000/svg" width="2800" height="211" viewBox="0 0 2800 211">
  <defs>
    <style>
      .cls-1 {
        fill: #4a4a4a;
        fill-rule: evenodd;
      }
    </style>
  </defs>
  <path id="Find_NEO_s_next_event" data-name="Find NEO’s next event" class="cls-1" d="M1.1,207.248V14.863H110.3V31.5H18.783V99.1h88.393v15.6H18.783v92.553H1.1ZM167.908,73.1v134.15h-15.6V73.1h15.6Zm1.04-38.477H150.229V14.863h18.719V34.621ZM232.8,207.248H216.16V85.578A65.581,65.581,0,0,0,215.12,73.1h16.639l1.04,19.758V93.9q13.5-23.91,42.637-23.918,45.749,1.048,46.8,54.076v83.193H305.593V120.935q-1.047-35.341-34.317-36.4-36.414,1.048-38.477,45.756v76.954ZM419.361,84.538q-38.485,1.048-40.557,53.036,1.023,58.251,38.477,59.275,44.7-1.023,45.756-59.275-2.1-51.989-43.676-53.036h0ZM463.037,187.49v-1.04q-17.694,22.887-45.756,22.878-52.012-2.1-55.116-69.675,2.071-67.586,55.116-69.674,31.2,1.048,45.756,23.918V14.863h15.6V177.091a211.482,211.482,0,0,0,2.08,30.157H464.077ZM609.459,14.863h18.718L734.249,184.37h1.04V14.863h17.679V207.248H731.129L627.137,40.861H626.1V207.248H609.459V14.863Zm200.08,192.385V14.863H923.931V31.5H827.218v68.634h92.553v15.6H827.218V191.65H928.091v15.6H809.539Zm245.841-12.479q63.42-2.072,66.55-83.193-3.12-82.138-66.55-84.234-64.5,3.12-67.6,84.234,4.143,80.09,67.6,83.193h0Zm0,14.559q-83.214-2.1-86.316-97.752Q972.183,13.839,1055.38,10.7q82.14,3.12,85.27,100.873-3.12,95.688-85.27,97.752h0ZM1220.1,24.222Q1218,62.707,1182.66,73.1c-2.78,0-4.51-.682-5.2-2.08q-2.085-4.143,1.04-5.2,27.03-12.479,28.08-28.078-20.8,2.1-21.84-18.719,1.035-15.6,17.68-17.679,17.67,1.048,17.68,22.878h0Zm141.43,82.154q-1.05-21.839-32.24-21.838-30.165,1.048-30.16,20.8-2.085,15.6,33.28,22.878,17.67,5.217,28.08,8.32,21.84,8.336,22.88,31.2-2.1,39.534-56.16,41.6-48.885-2.1-49.91-38.477h16.64q3.105,24.959,37.43,26,34.32-2.072,35.36-27.038,2.07-18.719-36.4-26a14.359,14.359,0,0,1-6.24-1.04q-43.68-8.311-42.63-36.4,1.02-34.317,48.87-36.4,46.8,0,48.88,36.4h-17.68Zm160.98,100.872h-16.64V85.578a65.828,65.828,0,0,0-1.04-12.479h16.64l1.04,19.758V93.9q13.5-23.91,42.64-23.918,45.75,1.048,46.79,54.076v83.193H1595.3V120.935q-1.035-35.341-34.31-36.4-36.42,1.048-38.48,45.756v76.954Zm147.04-63.435q3.12,52.013,46.8,53.036,30.15-2.072,38.48-32.237h16.64q-11.46,45.773-60.32,44.716-55.125-2.1-58.23-68.635,4.14-67.586,59.27-70.714,60.3,1.048,61.36,73.834h-104Zm86.32-14.559q-4.17-43.677-43.68-44.716-35.37,2.1-41.6,44.716h85.28ZM1900.83,73.1h17.68l-48.87,65.516,53.03,68.634h-21.84l-42.63-58.235-41.6,58.235h-18.72a0.922,0.922,0,0,0,1.04-1.04l50.96-67.594L1801,73.1h20.8l39.52,54.076Zm64.89,15.6h-25.99V73.1h25.99V45.021l16.64-7.279V73.1h30.16V88.7h-30.16v89.434q0,18.719,18.72,18.718a42.25,42.25,0,0,0,13.52-2.08v12.479a68.732,68.732,0,0,1-16.64,2.08q-18.72,0-26-8.319-7.275-7.263-6.24-29.118V88.7Zm173.46,55.116q3.12,52.013,46.8,53.036,30.15-2.072,38.48-32.237h16.64q-11.46,45.773-60.32,44.716-55.125-2.1-58.24-68.635,4.155-67.586,59.28-70.714,60.3,1.048,61.36,73.834h-104Zm86.32-14.559q-4.17-43.677-43.68-44.716-35.37,2.1-41.6,44.716h85.28ZM2284.15,73.1l46.8,112.312L2375.66,73.1h16.64l-53.04,134.15h-17.67L2267.51,73.1h16.64Zm149.12,70.715q3.12,52.013,46.8,53.036,30.15-2.072,38.48-32.237h16.64q-11.46,45.773-60.32,44.716-55.125-2.1-58.24-68.635,4.155-67.586,59.28-70.714,60.3,1.048,61.36,73.834h-104Zm86.32-14.559q-4.17-43.677-43.68-44.716-35.37,2.1-41.6,44.716h85.28Zm75.29,77.994h-16.64V85.578A65.828,65.828,0,0,0,2577.2,73.1h16.64l1.04,19.758V93.9q13.5-23.91,42.63-23.918,45.75,1.048,46.8,54.076v83.193h-16.64V120.935q-1.05-35.341-34.32-36.4-36.405,1.048-38.47,45.756v76.954ZM2744,88.7h-26V73.1h26V45.021l16.64-7.279V73.1h30.16V88.7h-30.16v89.434q0,18.719,18.72,18.718a42.25,42.25,0,0,0,13.52-2.08v12.479a68.732,68.732,0,0,1-16.64,2.08q-18.72,0-26-8.319-7.29-7.263-6.24-29.118V88.7Z"/>
</svg>
