<?xml version="1.0" encoding="UTF-8"?>
<svg width="1433px" height="668px" viewBox="0 0 1433 668" version="1.1" xmlns="http://www.w3.org/2000/svg" xmlns:xlink="http://www.w3.org/1999/xlink">
    <!-- Generator: Sketch 50.2 (55047) - http://www.bohemiancoding.com/sketch -->
    <title>Group 3</title>
    <desc>Created with Sketch.</desc>
    <defs></defs>
    <g id="Page-1" stroke="none" stroke-width="1" fill="none" fill-rule="evenodd" stroke-dasharray="10" stroke-linecap="square">
        <g id="Artboard-9" transform="translate(-2005.000000, -4539.000000)" stroke="#B1BAC9" stroke-width="2">
            <g id="Group-3" transform="translate(1772.000000, 1354.000000)">
                <g id="Group" transform="translate(306.400915, 1968.591838) scale(-1, 1) rotate(90.000000) translate(-306.400915, -1968.591838) translate(-1578.599085, 1662.591838)">
                    <g id="Group-10" transform="translate(2758.059575, 305.500000) scale(-1, -1) translate(-2758.059575, -305.500000) translate(1746.559575, 0.000000)">
                        <g id="Group-8" transform="translate(0.000000, 303.698820)">
                            <g id="Group-7" transform="translate(902.822089, 153.762379) rotate(90.000000) translate(-902.822089, -153.762379) translate(749.822089, -174.237621)">
                                <path d="M1.40940239,0.893890495 L1.40940239,584.604384" id="Line-4"></path>
                            </g>
                            <g id="Group-7" transform="translate(328.318304, 153.762379) rotate(90.000000) translate(-328.318304, -153.762379) translate(175.318304, -174.237621)">
                                <path d="M1.40940239,0.893890495 L1.40940239,584.604384" id="Line-4"></path>
                                <path d="M0.515511891,0.599736047 L151.067494,71.5112396" id="Line-6"></path>
                                <path d="M1.85634763,292.804965 L151.067494,362.919541" id="Line-6"></path>
                            </g>
                        </g>
                        <g id="Group-8" transform="translate(1113.285882, 152.132831) scale(-1, 1) translate(-1113.285882, -152.132831) translate(204.285882, 0.132831)">
                            <g id="Group-7" transform="translate(1489.832431, 152.393890) rotate(90.000000) translate(-1489.832431, -152.393890) translate(1338.332431, -175.606110)">
                                <path d="M1.40940239,0.893890495 L1.40940239,584.604384" id="Line-4"></path>
                                <path d="M152.320209,73.2990206 L152.320209,654.327842" id="Line-4"></path>
                                <path d="M0.515511891,0.599736047 L151.067494,71.5112396" id="Line-6"></path>
                                <path d="M1.85634763,292.804965 L151.067494,362.919541" id="Line-6"></path>
                                <path d="M151.426318,0.599736047 L301.9783,71.5112396" id="Line-6" transform="translate(226.513120, 35.908411) scale(-1, 1) translate(-226.513120, -35.908411) "></path>
                                <path d="M152.767154,292.804965 L301.9783,362.919541" id="Line-6" transform="translate(227.407010, 327.666694) scale(-1, 1) translate(-227.407010, -327.666694) "></path>
                            </g>
                        </g>
                    </g>
                </g>
                <g id="Group" transform="translate(1829.320911, 1907.000000) rotate(90.000000) translate(-1829.320911, -1907.000000) translate(-55.679089, 1601.000000)">
                    <g id="Group-10" transform="translate(2758.059575, 305.500000) scale(-1, -1) translate(-2758.059575, -305.500000) translate(1746.559575, 0.000000)">
                        <g id="Group-8" transform="translate(1113.285882, 152.132831) scale(-1, 1) translate(-1113.285882, -152.132831) translate(204.285882, 0.132831)">
                            <g id="Group-7" transform="translate(1489.832431, 152.393890) rotate(90.000000) translate(-1489.832431, -152.393890) translate(1338.332431, -175.606110)">
                                <path d="M0.515511891,0.599736047 L151.067494,71.5112396" id="Line-6"></path>
                                <path d="M1.85634763,292.804965 L151.067494,362.919541" id="Line-6"></path>
                            </g>
                        </g>
                    </g>
                </g>
                <g id="Group" transform="translate(913.311921, 1891.821257) scale(-1, 1) rotate(90.000000) translate(-913.311921, -1891.821257) translate(-971.688079, 1585.821257)">
                    <g id="Group-10" transform="translate(2758.059575, 305.500000) scale(-1, -1) translate(-2758.059575, -305.500000) translate(1746.559575, 0.000000)">
                        <g id="Group-8" transform="translate(0.000000, 303.698820)">
                            <g id="Group-7" transform="translate(902.822089, 153.762379) rotate(90.000000) translate(-902.822089, -153.762379) translate(749.822089, -174.237621)">
                                <path d="M152.320209,73.2990206 L152.320209,654.327842" id="Line-4"></path>
                            </g>
                            <g id="Group-7" transform="translate(328.318304, 152.262379) rotate(90.000000) translate(-328.318304, -152.262379) translate(176.818304, -175.737621)">
                                <path d="M1.40940239,0.893890495 L1.40940239,584.604384" id="Line-4"></path>
                                <path d="M152.320209,73.2990206 L152.320209,654.327842" id="Line-4"></path>
                                <path d="M0.515511891,0.599736047 L151.067494,71.5112396" id="Line-6"></path>
                                <path d="M1.85634763,292.804965 L151.067494,362.919541" id="Line-6"></path>
                                <path d="M151.426318,0.599736047 L301.9783,71.5112396" id="Line-6" transform="translate(226.513120, 35.908411) scale(-1, 1) translate(-226.513120, -35.908411) "></path>
                                <path d="M152.767154,292.804965 L301.9783,362.919541" id="Line-6" transform="translate(227.407010, 327.666694) scale(-1, 1) translate(-227.407010, -327.666694) "></path>
                            </g>
                        </g>
                    </g>
                </g>
                <g id="Group" transform="translate(1215.320911, 1885.285794) rotate(90.000000) translate(-1215.320911, -1885.285794) translate(-669.679089, 1579.285794)">
                    <g id="Group-10" transform="translate(2758.059575, 305.500000) scale(-1, -1) translate(-2758.059575, -305.500000) translate(1746.559575, 0.000000)">
                        <g id="Group-8" transform="translate(0.000000, 303.698820)">
                            <g id="Group-7" transform="translate(902.822089, 153.762379) rotate(90.000000) translate(-902.822089, -153.762379) translate(749.822089, -174.237621)">
                                <path d="M152.320209,73.2990206 L152.320209,654.327842" id="Line-4"></path>
                            </g>
                            <g id="Group-7" transform="translate(328.318304, 153.762379) rotate(90.000000) translate(-328.318304, -153.762379) translate(175.318304, -174.237621)">
                                <path d="M1.40940239,0.893890495 L1.40940239,584.604384" id="Line-4"></path>
                                <path d="M304.231783,0.893890495 L304.231783,584.604384" id="Line-4"></path>
                                <path d="M152.320209,73.2990206 L152.320209,654.327842" id="Line-4"></path>
                                <path d="M0.515511891,0.599736047 L151.067494,71.5112396" id="Line-6"></path>
                                <path d="M1.85634763,292.804965 L151.067494,362.919541" id="Line-6"></path>
                                <path d="M151.426318,0.599736047 L301.9783,71.5112396" id="Line-6" transform="translate(226.513120, 35.908411) scale(-1, 1) translate(-226.513120, -35.908411) "></path>
                                <path d="M152.767154,292.804965 L301.9783,362.919541" id="Line-6" transform="translate(227.407010, 327.666694) scale(-1, 1) translate(-227.407010, -327.666694) "></path>
                            </g>
                        </g>
                        <g id="Group-8" transform="translate(1113.285882, 152.132831) scale(-1, 1) translate(-1113.285882, -152.132831) translate(204.285882, 0.132831)">
                            <g id="Group-7" transform="translate(1489.832431, 152.393890) rotate(90.000000) translate(-1489.832431, -152.393890) translate(1338.332431, -175.606110)">
                                <path d="M152.320209,73.2990206 L152.320209,654.327842" id="Line-4"></path>
                                <path d="M0.515511891,0.599736047 L151.067494,71.5112396" id="Line-6"></path>
                                <path d="M1.85634763,292.804965 L151.067494,362.919541" id="Line-6"></path>
                                <path d="M151.426318,0.599736047 L301.9783,71.5112396" id="Line-6" transform="translate(226.513120, 35.908411) scale(-1, 1) translate(-226.513120, -35.908411) "></path>
                                <path d="M152.767154,292.804965 L301.9783,362.919541" id="Line-6" transform="translate(227.407010, 327.666694) scale(-1, 1) translate(-227.407010, -327.666694) "></path>
                            </g>
                        </g>
                    </g>
                </g>
            </g>
        </g>
    </g>
</svg>