<svg width="1433" height="668" xmlns="http://www.w3.org/2000/svg"><g stroke="#B1BAC9" stroke-width="2" fill="none" fill-rule="evenodd" stroke-dasharray="10" stroke-linecap="square"><path d="M72.53-561.78V21.93M72.53 12.73v583.7M73.42 12.43L-77.13 83.34M72.08 304.64l-149.2 70.11"/><g><path d="M375.96 462.8v-583.7M225.05 390.4v-581.03M376.86 463.1L226.3 392.19M375.52 170.9L226.3 100.77M75.77 463.1l150.56-70.91M75.33 170.9l149.2-70.12"/></g><g><path d="M1292.86 401.5l150.56-70.9M1294.2 109.3l149.22-70.11"/></g><g><path d="M528.53-566.14V14.89M679.44-64.04v583.7M528.53 8.36V589.4M680.34-64.34L529.78 6.57M679 227.87l-149.22 70.11M379.25-64.34L529.8 6.57M378.8 227.87l149.22 70.11"/></g><g><path d="M1134.1-572.68V8.35M983.2-70.58v583.71M1286.01-70.58v583.71M1134.1 1.83v581.02M982.3-70.87L1132.85.03M983.64 221.33l149.21 70.12M1283.38-70.87L1132.83.03M1283.83 221.33l-149.21 70.12"/><g><path d="M830.67 307.1v-581.04M678.86 379.8l150.56-70.92M680.2 87.59l149.22-70.12M979.95 379.8L829.4 308.87M980.4 87.59L831.17 17.47"/></g></g></g></svg>