<svg viewBox="0 0 990.52 426.8" xmlns="http://www.w3.org/2000/svg" xmlns:xlink="http://www.w3.org/1999/xlink"><clipPath id="a"><path clip-path="url(#k)" d="m710.11 376.41a13.67 13.67 0 0 0 -4.05-3.07 11.25 11.25 0 0 0 -5-1.08 10 10 0 0 0 -4.21.89 10.36 10.36 0 0 0 -3.35 2.41 11.39 11.39 0 0 0 -2.22 3.51 11.19 11.19 0 0 0 -.8 4.16 11.43 11.43 0 0 0 3 7.73 10.86 10.86 0 0 0 3.32 2.44 9.59 9.59 0 0 0 4.19.91 11.33 11.33 0 0 0 5.21-1.24 13.42 13.42 0 0 0 4.21-3.36v3.38a14.08 14.08 0 0 1 -4.32 2.64 13.83 13.83 0 0 1 -5 .91 12.89 12.89 0 0 1 -9.39-3.91 13.15 13.15 0 0 1 -2.75-4.24 14.34 14.34 0 0 1 .05-10.49 13.14 13.14 0 0 1 2.77-4.24 12.89 12.89 0 0 1 4.23-2.76 13.09 13.09 0 0 1 5.23-1 14.28 14.28 0 0 1 4.74.78 13.32 13.32 0 0 1 4.19 2.38z"/></clipPath><clipPath id="b"><path clip-path="url(#a)" d="m736.81 369.93a13.57 13.57 0 0 1 5.3 1 13 13 0 0 1 7.12 7 13.88 13.88 0 0 1 0 10.59 13.26 13.26 0 0 1 -2.86 4.24 13.42 13.42 0 0 1 -4.26 2.8 13.75 13.75 0 0 1 -5.3 1 12.86 12.86 0 0 1 -5.18-1.05 13.36 13.36 0 0 1 -4.21-2.88 14 14 0 0 1 -2.85-4.24 12.57 12.57 0 0 1 -1.06-5.13 13.41 13.41 0 0 1 3.86-9.47 13.42 13.42 0 0 1 4.23-2.79 13.07 13.07 0 0 1 5.21-1.07zm-.16 2.33a10.36 10.36 0 0 0 -7.62 3.3 11.3 11.3 0 0 0 -2.22 3.54 11.49 11.49 0 0 0 -.8 4.24 11.15 11.15 0 0 0 .8 4.16 11.27 11.27 0 0 0 2.25 3.52 10.75 10.75 0 0 0 3.38 2.41 10 10 0 0 0 4.21.88 11.46 11.46 0 0 0 4.38-.83 10.67 10.67 0 0 0 3.54-2.32 11.25 11.25 0 0 0 2.36-3.5 10.85 10.85 0 0 0 .86-4.32 11.14 11.14 0 0 0 -.86-4.4 11 11 0 0 0 -2.36-3.52 10.56 10.56 0 0 0 -3.52-2.33 11.53 11.53 0 0 0 -4.4-.83z"/></clipPath><clipPath id="c"><path clip-path="url(#b)" d="m767.9 374.47h.1a8.43 8.43 0 0 1 7.59-4.54 9.69 9.69 0 0 1 4.1.75 6.42 6.42 0 0 1 2.58 2.13 8.72 8.72 0 0 1 1.36 3.35 23.17 23.17 0 0 1 .39 4.47v15.46h-2.5v-15.46a30.35 30.35 0 0 0 -.16-3.25 6.93 6.93 0 0 0 -.81-2.65 4.61 4.61 0 0 0 -1.85-1.81 7.08 7.08 0 0 0 -3.33-.66 6.7 6.7 0 0 0 -3.9 1 6.76 6.76 0 0 0 -2.25 2.64 11.81 11.81 0 0 0 -1.05 3.6 27.75 27.75 0 0 0 -.28 3.93v12.64h-2.49v-25.6h2.49z"/></clipPath><clipPath id="d"><path clip-path="url(#c)" d="m812.45 369.93a13.57 13.57 0 0 1 5.3 1 13 13 0 0 1 7.12 7 13.88 13.88 0 0 1 0 10.59 13.26 13.26 0 0 1 -2.86 4.24 13.42 13.42 0 0 1 -4.26 2.8 13.75 13.75 0 0 1 -5.3 1 12.86 12.86 0 0 1 -5.18-1.05 13.36 13.36 0 0 1 -4.21-2.88 14 14 0 0 1 -2.85-4.24 12.57 12.57 0 0 1 -1.06-5.13 13.41 13.41 0 0 1 3.86-9.47 13.42 13.42 0 0 1 4.23-2.89 13.07 13.07 0 0 1 5.21-.97zm-.16 2.33a10.36 10.36 0 0 0 -7.62 3.3 11.3 11.3 0 0 0 -2.22 3.54 11.49 11.49 0 0 0 -.8 4.24 11.15 11.15 0 0 0 .8 4.16 11.27 11.27 0 0 0 2.25 3.5 10.75 10.75 0 0 0 3.38 2.41 10 10 0 0 0 4.21.88 11.46 11.46 0 0 0 4.38-.83 10.67 10.67 0 0 0 3.54-2.32 11.25 11.25 0 0 0 2.36-3.5 10.85 10.85 0 0 0 .86-4.32 11.14 11.14 0 0 0 -.86-4.4 11 11 0 0 0 -2.36-3.52 10.56 10.56 0 0 0 -3.52-2.33 11.53 11.53 0 0 0 -4.4-.81z"/></clipPath><clipPath id="e"><path clip-path="url(#d)" d="m843.54 373.7h.11a6.45 6.45 0 0 1 2.63-2.77 7.5 7.5 0 0 1 3.8-1 7.92 7.92 0 0 1 4.35 1.19 7.59 7.59 0 0 1 2.85 3.47 7.48 7.48 0 0 1 3-3.49 8.56 8.56 0 0 1 4.46-1.17 8.82 8.82 0 0 1 4 .78 6 6 0 0 1 2.41 2.16 8.39 8.39 0 0 1 1.19 3.21 23.23 23.23 0 0 1 .31 3.94v16.07h-2.5v-16.41a22.92 22.92 0 0 0 -.16-2.82 6.3 6.3 0 0 0 -.75-2.36 4.27 4.27 0 0 0 -1.66-1.63 5.88 5.88 0 0 0 -2.91-.61 5.67 5.67 0 0 0 -5.29 2.88 8.59 8.59 0 0 0 -1 2.91 20.23 20.23 0 0 0 -.28 3.3v14.74h-2.49v-15.8a21.85 21.85 0 0 0 -.19-2.93 7.51 7.51 0 0 0 -.81-2.58 4.77 4.77 0 0 0 -1.71-1.83 5.65 5.65 0 0 0 -3-.69 5.21 5.21 0 0 0 -3.24.94 6.44 6.44 0 0 0 -1.94 2.38 11.06 11.06 0 0 0 -.94 3.16 22.37 22.37 0 0 0 -.25 3.27v14.08h-2.49v-25.6h2.49z"/></clipPath><clipPath id="f"><path d="m472.11 375.14a4.9 4.9 0 0 0 -4.49-2.88 4.42 4.42 0 0 0 -1.61.3 4.63 4.63 0 0 0 -1.39.86 4.94 4.94 0 0 0 -1 1.28 3.19 3.19 0 0 0 -.39 1.55 3.14 3.14 0 0 0 .91 2.41 8.27 8.27 0 0 0 2.3 1.47c.93.4 1.93.79 3 1.16a14.67 14.67 0 0 1 3 1.41 7.48 7.48 0 0 1 2.3 2.25 6.64 6.64 0 0 1 .92 3.71 8.14 8.14 0 0 1 -.64 3.24 7.7 7.7 0 0 1 -1.77 2.53 8.3 8.3 0 0 1 -2.64 1.63 8.72 8.72 0 0 1 -3.21.58 9.12 9.12 0 0 1 -5.62-1.8 8.49 8.49 0 0 1 -3.19-5l2.44-.77a8.42 8.42 0 0 0 2.27 3.76 5.78 5.78 0 0 0 4.1 1.44 5.67 5.67 0 0 0 5.76-5.76 4.47 4.47 0 0 0 -.41-2 4.12 4.12 0 0 0 -1.11-1.39 6.82 6.82 0 0 0 -1.61-.94c-.61-.26-1.23-.5-1.85-.72-.89-.34-1.78-.69-2.66-1.05a11.49 11.49 0 0 1 -2.41-1.36 6.59 6.59 0 0 1 -1.75-1.94 5.38 5.38 0 0 1 -.66-2.75 5.93 5.93 0 0 1 .58-2.63 6.58 6.58 0 0 1 3.74-3.38 7.68 7.68 0 0 1 2.66-.47 7.18 7.18 0 0 1 3.82 1.17 6.87 6.87 0 0 1 2.72 2.93z"/></clipPath><clipPath id="g"><path clip-path="url(#f)" d="m493.72 373.7h.11a6.45 6.45 0 0 1 2.63-2.77 7.46 7.46 0 0 1 3.79-1 7.88 7.88 0 0 1 4.35 1.19 7.67 7.67 0 0 1 2.86 3.47 7.48 7.48 0 0 1 3-3.49 8.56 8.56 0 0 1 4.46-1.17 8.88 8.88 0 0 1 4 .78 6.07 6.07 0 0 1 2.41 2.16 8.56 8.56 0 0 1 1.19 3.21 24.35 24.35 0 0 1 .3 3.94v16.07h-2.49v-16.41a22.86 22.86 0 0 0 -.17-2.82 6.3 6.3 0 0 0 -.75-2.36 4.2 4.2 0 0 0 -1.66-1.63 5.88 5.88 0 0 0 -2.91-.61 5.67 5.67 0 0 0 -5.29 2.88 8.38 8.38 0 0 0 -1 2.91 19.18 19.18 0 0 0 -.28 3.3v14.74h-2.47v-15.8a21.85 21.85 0 0 0 -.2-2.93 7.72 7.72 0 0 0 -.8-2.58 4.8 4.8 0 0 0 -1.72-1.83 5.63 5.63 0 0 0 -3-.69 5.21 5.21 0 0 0 -3.24.94 6.44 6.44 0 0 0 -1.94 2.38 10.75 10.75 0 0 0 -.94 3.16 22.37 22.37 0 0 0 -.25 3.27v14.08h-2.5v-25.6h2.5z"/></clipPath><clipPath id="h"><path clip-path="url(#g)" d="m563 396.09h-2.49v-4.6h-.11a9.39 9.39 0 0 1 -1.8 2.19 11.41 11.41 0 0 1 -2.38 1.63 12.06 12.06 0 0 1 -2.75 1 13.18 13.18 0 0 1 -8.09-.72 11.69 11.69 0 0 1 -4-2.88 12.88 12.88 0 0 1 -2.52-4.3 15.54 15.54 0 0 1 -.89-5.29 15.13 15.13 0 0 1 .89-5.24 12.69 12.69 0 0 1 2.49-4.18 11.15 11.15 0 0 1 3.94-2.77 13 13 0 0 1 5.21-1 12.72 12.72 0 0 1 5.62 1.28 10.42 10.42 0 0 1 4.24 3.71h.11v-4.43h2.53zm-12.6-23.83a8.91 8.91 0 0 0 -4 .91 10 10 0 0 0 -3.13 2.44 11.32 11.32 0 0 0 -2 3.49 11.6 11.6 0 0 0 -.72 4 13 13 0 0 0 .69 4.24 10.82 10.82 0 0 0 2 3.57 9.89 9.89 0 0 0 3.19 2.47 9.3 9.3 0 0 0 4.18.91 9.73 9.73 0 0 0 4.32-.91 9.11 9.11 0 0 0 3.16-2.49 11.26 11.26 0 0 0 1.94-3.66 14.53 14.53 0 0 0 .67-4.41 11.83 11.83 0 0 0 -.72-4.15 9.72 9.72 0 0 0 -2.08-3.36 10.15 10.15 0 0 0 -3.24-2.24 10.42 10.42 0 0 0 -4.26-.81z"/></clipPath><clipPath id="i"><path clip-path="url(#h)" d="m583.1 373.81h.11a7.24 7.24 0 0 1 2.13-2.83 5.41 5.41 0 0 1 3.41-1.05 5.56 5.56 0 0 1 1.41.17 10.62 10.62 0 0 1 1.31.44l-1.34 2.22a2.9 2.9 0 0 0 -.85-.39 3.8 3.8 0 0 0 -.92-.11 4.15 4.15 0 0 0 -3.18 1.16 6.79 6.79 0 0 0 -1.55 2.83 13 13 0 0 0 -.5 3.52q0 1.86 0 3.24v13.08h-2.5v-25.6h2.5z"/></clipPath><clipPath id="j"><path clip-path="url(#i)" d="m609 396.09h-2.49v-23.28h-2.82v-2.32h2.82v-9.15h2.49v9.15h4.49v2.32h-4.49z"/></clipPath><clipPath id="k"><path clip-path="url(#j)" d="m653.14 383.51a11.68 11.68 0 0 0 .69 4.43 9.56 9.56 0 0 0 2.14 3.41 9.68 9.68 0 0 0 3.29 2.19 10.84 10.84 0 0 0 4.13.77 9.13 9.13 0 0 0 5.32-1.6 11.67 11.67 0 0 0 3.71-4.22l2.11 1.22a13 13 0 0 1 -4.71 5.13 12.68 12.68 0 0 1 -6.76 1.8 11.93 11.93 0 0 1 -5.13-1.08 12.13 12.13 0 0 1 -3.93-2.91 12.54 12.54 0 0 1 -2.49-4.27 15.17 15.17 0 0 1 -.86-5.15 14.61 14.61 0 0 1 .88-5.07 13.18 13.18 0 0 1 2.52-4.24 12.27 12.27 0 0 1 3.95-2.92 11.73 11.73 0 0 1 5.1-1.08 12 12 0 0 1 5.18 1.08 11.35 11.35 0 0 1 3.88 2.94 13 13 0 0 1 2.41 4.32 16.39 16.39 0 0 1 .83 5.24zm19.73-2.33a10.48 10.48 0 0 0 -3.13-6.23 9.87 9.87 0 0 0 -3-2 9.12 9.12 0 0 0 -3.66-.72 9.54 9.54 0 0 0 -3.68.72 10.33 10.33 0 0 0 -5.26 4.76 8.86 8.86 0 0 0 -1 3.44z"/></clipPath><clipPath id="l"><path d="m459.78 146.48h19.68l105.81 168.82h.53v-168.82l17.28-.11v192.06h-21.8l-103.68-165.9h-.54v165.69l-17.28.21z"/></clipPath><clipPath id="m"><path d="m659.71 338.43v-192h114l-7.26 16h-89.45v68.86h93l-7.27 16h-85.73v75.23h100.75l-7.27 15.95z"/></clipPath><clipPath id="n"><path d="m989.37 242.46a140.76 140.76 0 0 1 -5.58 40.81 89.52 89.52 0 0 1 -16.48 31.63 73.42 73.42 0 0 1 -26.86 20.34q-15.94 7.18-36.68 7.18t-36.69-7.18a73.3 73.3 0 0 1 -26.85-20.34 89.53 89.53 0 0 1 -16.49-31.63 140.76 140.76 0 0 1 -5.58-40.81 140.76 140.76 0 0 1 5.58-40.81 89.58 89.58 0 0 1 16.49-31.65 73.52 73.52 0 0 1 26.85-20.34q15.95-7.18 36.69-7.18t36.68 7.18a73.64 73.64 0 0 1 26.86 20.34 89.57 89.57 0 0 1 16.48 31.64 140.76 140.76 0 0 1 5.58 40.82zm-152.6 0a128.92 128.92 0 0 0 3.72 30.84 81.56 81.56 0 0 0 11.83 27 61.79 61.79 0 0 0 20.74 19q12.63 7.18 30.71 7.18 17.81 0 30.57-7.18a61.38 61.38 0 0 0 20.87-19 81.76 81.76 0 0 0 11.83-27 129.7 129.7 0 0 0 0-61.68 81.81 81.81 0 0 0 -11.83-27 61.58 61.58 0 0 0 -20.87-19q-12.76-7.17-30.57-7.18-18.09 0-30.71 7.18a62 62 0 0 0 -20.74 19 81.61 81.61 0 0 0 -11.83 27 128.86 128.86 0 0 0 -3.72 30.84z"/></clipPath><clipPath id="o"><path clip-path="url(#e)" d="m885.65 370.49h2.61l10.92 23.16 9.8-23.16h2.55l-17.18 40.56h-2.54l6.19-14.52z"/></clipPath><path d="m459.78 146.48h19.68l105.81 168.82h.53v-168.82l17.28-.11v192.06h-21.8l-103.68-165.9h-.54v165.69l-17.28.21z" fill="#fff"/><g clip-path="url(#l)"><path d="m-396.19-22.38h1573.87v587.63h-1573.87z" fill="#fff"/></g><path d="m659.71 338.43v-192h114l-7.26 16h-89.45v68.86h93l-7.27 16h-85.73v75.23h100.75l-7.27 15.95z" fill="#fff"/><g clip-path="url(#m)"><path d="m-396.19-22.38h1573.87v587.63h-1573.87z" fill="#fff"/></g><path d="m989.37 242.46a140.76 140.76 0 0 1 -5.58 40.81 89.52 89.52 0 0 1 -16.48 31.63 73.42 73.42 0 0 1 -26.86 20.34q-15.94 7.18-36.68 7.18t-36.69-7.18a73.3 73.3 0 0 1 -26.85-20.34 89.53 89.53 0 0 1 -16.49-31.63 140.76 140.76 0 0 1 -5.58-40.81 140.76 140.76 0 0 1 5.58-40.81 89.58 89.58 0 0 1 16.49-31.65 73.52 73.52 0 0 1 26.85-20.34q15.95-7.18 36.69-7.18t36.68 7.18a73.64 73.64 0 0 1 26.86 20.34 89.57 89.57 0 0 1 16.48 31.64 140.76 140.76 0 0 1 5.58 40.82zm-152.6 0a128.92 128.92 0 0 0 3.72 30.84 81.56 81.56 0 0 0 11.83 27 61.79 61.79 0 0 0 20.74 19q12.63 7.18 30.71 7.18 17.81 0 30.57-7.18a61.38 61.38 0 0 0 20.87-19 81.76 81.76 0 0 0 11.83-27 129.7 129.7 0 0 0 0-61.68 81.81 81.81 0 0 0 -11.83-27 61.58 61.58 0 0 0 -20.87-19q-12.76-7.17-30.57-7.18-18.09 0-30.71 7.18a62 62 0 0 0 -20.74 19 81.61 81.61 0 0 0 -11.83 27 128.86 128.86 0 0 0 -3.72 30.84z" fill="#fff"/><g clip-path="url(#n)"><path d="m-396.19-22.38h1573.87v587.63h-1573.87z" fill="#fff"/></g><g fill="#fff"><path d="m472.11 375.14a4.9 4.9 0 0 0 -4.49-2.88 4.42 4.42 0 0 0 -1.61.3 4.63 4.63 0 0 0 -1.39.86 4.94 4.94 0 0 0 -1 1.28 3.19 3.19 0 0 0 -.39 1.55 3.14 3.14 0 0 0 .91 2.41 8.27 8.27 0 0 0 2.3 1.47c.93.4 1.93.79 3 1.16a14.67 14.67 0 0 1 3 1.41 7.48 7.48 0 0 1 2.3 2.25 6.64 6.64 0 0 1 .92 3.71 8.14 8.14 0 0 1 -.64 3.24 7.7 7.7 0 0 1 -1.77 2.53 8.3 8.3 0 0 1 -2.64 1.63 8.72 8.72 0 0 1 -3.21.58 9.12 9.12 0 0 1 -5.62-1.8 8.49 8.49 0 0 1 -3.19-5l2.44-.77a8.42 8.42 0 0 0 2.27 3.76 5.78 5.78 0 0 0 4.1 1.44 5.67 5.67 0 0 0 5.76-5.76 4.47 4.47 0 0 0 -.41-2 4.12 4.12 0 0 0 -1.11-1.39 6.82 6.82 0 0 0 -1.61-.94c-.61-.26-1.23-.5-1.85-.72-.89-.34-1.78-.69-2.66-1.05a11.49 11.49 0 0 1 -2.41-1.36 6.59 6.59 0 0 1 -1.75-1.94 5.38 5.38 0 0 1 -.66-2.75 5.93 5.93 0 0 1 .58-2.63 6.58 6.58 0 0 1 3.74-3.38 7.68 7.68 0 0 1 2.66-.47 7.18 7.18 0 0 1 3.82 1.17 6.87 6.87 0 0 1 2.72 2.93z"/><path d="m493.72 373.7h.11a6.45 6.45 0 0 1 2.63-2.77 7.46 7.46 0 0 1 3.79-1 7.88 7.88 0 0 1 4.35 1.19 7.67 7.67 0 0 1 2.86 3.47 7.48 7.48 0 0 1 3-3.49 8.56 8.56 0 0 1 4.46-1.17 8.88 8.88 0 0 1 4 .78 6.07 6.07 0 0 1 2.41 2.16 8.56 8.56 0 0 1 1.19 3.21 24.35 24.35 0 0 1 .3 3.94v16.07h-2.49v-16.41a22.86 22.86 0 0 0 -.17-2.82 6.3 6.3 0 0 0 -.75-2.36 4.2 4.2 0 0 0 -1.66-1.63 5.88 5.88 0 0 0 -2.91-.61 5.67 5.67 0 0 0 -5.29 2.88 8.38 8.38 0 0 0 -1 2.91 19.18 19.18 0 0 0 -.28 3.3v14.74h-2.47v-15.8a21.85 21.85 0 0 0 -.2-2.93 7.72 7.72 0 0 0 -.8-2.58 4.8 4.8 0 0 0 -1.72-1.83 5.63 5.63 0 0 0 -3-.69 5.21 5.21 0 0 0 -3.24.94 6.44 6.44 0 0 0 -1.94 2.38 10.75 10.75 0 0 0 -.94 3.16 22.37 22.37 0 0 0 -.25 3.27v14.08h-2.5v-25.6h2.5z"/><path d="m563 396.09h-2.49v-4.6h-.11a9.39 9.39 0 0 1 -1.8 2.19 11.41 11.41 0 0 1 -2.38 1.63 12.06 12.06 0 0 1 -2.75 1 13.18 13.18 0 0 1 -8.09-.72 11.69 11.69 0 0 1 -4-2.88 12.88 12.88 0 0 1 -2.52-4.3 15.54 15.54 0 0 1 -.89-5.29 15.13 15.13 0 0 1 .89-5.24 12.69 12.69 0 0 1 2.49-4.18 11.15 11.15 0 0 1 3.94-2.77 13 13 0 0 1 5.21-1 12.72 12.72 0 0 1 5.62 1.28 10.42 10.42 0 0 1 4.24 3.71h.11v-4.43h2.53zm-12.6-23.83a8.91 8.91 0 0 0 -4 .91 10 10 0 0 0 -3.13 2.44 11.32 11.32 0 0 0 -2 3.49 11.6 11.6 0 0 0 -.72 4 13 13 0 0 0 .69 4.24 10.82 10.82 0 0 0 2 3.57 9.89 9.89 0 0 0 3.19 2.47 9.3 9.3 0 0 0 4.18.91 9.73 9.73 0 0 0 4.32-.91 9.11 9.11 0 0 0 3.16-2.49 11.26 11.26 0 0 0 1.94-3.66 14.53 14.53 0 0 0 .67-4.41 11.83 11.83 0 0 0 -.72-4.15 9.72 9.72 0 0 0 -2.08-3.36 10.15 10.15 0 0 0 -3.24-2.24 10.42 10.42 0 0 0 -4.26-.81z"/><path d="m583.1 373.81h.11a7.24 7.24 0 0 1 2.13-2.83 5.41 5.41 0 0 1 3.41-1.05 5.56 5.56 0 0 1 1.41.17 10.62 10.62 0 0 1 1.31.44l-1.34 2.22a2.9 2.9 0 0 0 -.85-.39 3.8 3.8 0 0 0 -.92-.11 4.15 4.15 0 0 0 -3.18 1.16 6.79 6.79 0 0 0 -1.55 2.83 13 13 0 0 0 -.5 3.52q0 1.86 0 3.24v13.08h-2.5v-25.6h2.5z"/><path d="m609 396.09h-2.49v-23.28h-2.82v-2.32h2.82v-9.15h2.49v9.15h4.49v2.32h-4.49z"/><path d="m653.14 383.51a11.68 11.68 0 0 0 .69 4.43 9.56 9.56 0 0 0 2.14 3.41 9.68 9.68 0 0 0 3.29 2.19 10.84 10.84 0 0 0 4.13.77 9.13 9.13 0 0 0 5.32-1.6 11.67 11.67 0 0 0 3.71-4.22l2.11 1.22a13 13 0 0 1 -4.71 5.13 12.68 12.68 0 0 1 -6.76 1.8 11.93 11.93 0 0 1 -5.13-1.08 12.13 12.13 0 0 1 -3.93-2.91 12.54 12.54 0 0 1 -2.49-4.27 15.17 15.17 0 0 1 -.86-5.15 14.61 14.61 0 0 1 .88-5.07 13.18 13.18 0 0 1 2.52-4.24 12.27 12.27 0 0 1 3.95-2.92 11.73 11.73 0 0 1 5.1-1.08 12 12 0 0 1 5.18 1.08 11.35 11.35 0 0 1 3.88 2.94 13 13 0 0 1 2.41 4.32 16.39 16.39 0 0 1 .83 5.24zm19.73-2.33a10.48 10.48 0 0 0 -3.13-6.23 9.87 9.87 0 0 0 -3-2 9.12 9.12 0 0 0 -3.66-.72 9.54 9.54 0 0 0 -3.68.72 10.33 10.33 0 0 0 -5.26 4.76 8.86 8.86 0 0 0 -1 3.44z"/><path d="m710.11 376.41a13.67 13.67 0 0 0 -4.05-3.07 11.25 11.25 0 0 0 -5-1.08 10 10 0 0 0 -4.21.89 10.36 10.36 0 0 0 -3.35 2.41 11.39 11.39 0 0 0 -2.22 3.51 11.19 11.19 0 0 0 -.8 4.16 11.43 11.43 0 0 0 3 7.73 10.86 10.86 0 0 0 3.32 2.44 9.59 9.59 0 0 0 4.19.91 11.33 11.33 0 0 0 5.21-1.24 13.42 13.42 0 0 0 4.21-3.36v3.38a14.08 14.08 0 0 1 -4.32 2.64 13.83 13.83 0 0 1 -5 .91 12.89 12.89 0 0 1 -9.39-3.91 13.15 13.15 0 0 1 -2.75-4.24 14.34 14.34 0 0 1 .05-10.49 13.14 13.14 0 0 1 2.77-4.24 12.89 12.89 0 0 1 4.23-2.76 13.09 13.09 0 0 1 5.23-1 14.28 14.28 0 0 1 4.74.78 13.32 13.32 0 0 1 4.19 2.38z"/><path d="m736.81 369.93a13.57 13.57 0 0 1 5.3 1 13 13 0 0 1 7.12 7 13.88 13.88 0 0 1 0 10.59 13.26 13.26 0 0 1 -2.86 4.24 13.42 13.42 0 0 1 -4.26 2.8 13.75 13.75 0 0 1 -5.3 1 12.86 12.86 0 0 1 -5.18-1.05 13.36 13.36 0 0 1 -4.21-2.88 14 14 0 0 1 -2.85-4.24 12.57 12.57 0 0 1 -1.06-5.13 13.41 13.41 0 0 1 3.86-9.47 13.42 13.42 0 0 1 4.23-2.79 13.07 13.07 0 0 1 5.21-1.07zm-.16 2.33a10.36 10.36 0 0 0 -7.62 3.3 11.3 11.3 0 0 0 -2.22 3.54 11.49 11.49 0 0 0 -.8 4.24 11.15 11.15 0 0 0 .8 4.16 11.27 11.27 0 0 0 2.25 3.52 10.75 10.75 0 0 0 3.38 2.41 10 10 0 0 0 4.21.88 11.46 11.46 0 0 0 4.38-.83 10.67 10.67 0 0 0 3.54-2.32 11.25 11.25 0 0 0 2.36-3.5 10.85 10.85 0 0 0 .86-4.32 11.14 11.14 0 0 0 -.86-4.4 11 11 0 0 0 -2.36-3.52 10.56 10.56 0 0 0 -3.52-2.33 11.53 11.53 0 0 0 -4.4-.83z"/><path d="m767.9 374.47h.1a8.43 8.43 0 0 1 7.59-4.54 9.69 9.69 0 0 1 4.1.75 6.42 6.42 0 0 1 2.58 2.13 8.72 8.72 0 0 1 1.36 3.35 23.17 23.17 0 0 1 .39 4.47v15.46h-2.5v-15.46a30.35 30.35 0 0 0 -.16-3.25 6.93 6.93 0 0 0 -.81-2.65 4.61 4.61 0 0 0 -1.85-1.81 7.08 7.08 0 0 0 -3.33-.66 6.7 6.7 0 0 0 -3.9 1 6.76 6.76 0 0 0 -2.25 2.64 11.81 11.81 0 0 0 -1.05 3.6 27.75 27.75 0 0 0 -.28 3.93v12.64h-2.49v-25.6h2.49z"/><path d="m812.45 369.93a13.57 13.57 0 0 1 5.3 1 13 13 0 0 1 7.12 7 13.88 13.88 0 0 1 0 10.59 13.26 13.26 0 0 1 -2.86 4.24 13.42 13.42 0 0 1 -4.26 2.8 13.75 13.75 0 0 1 -5.3 1 12.86 12.86 0 0 1 -5.18-1.05 13.36 13.36 0 0 1 -4.21-2.88 14 14 0 0 1 -2.85-4.24 12.57 12.57 0 0 1 -1.06-5.13 13.41 13.41 0 0 1 3.86-9.47 13.42 13.42 0 0 1 4.23-2.89 13.07 13.07 0 0 1 5.21-.97zm-.16 2.33a10.36 10.36 0 0 0 -7.62 3.3 11.3 11.3 0 0 0 -2.22 3.54 11.49 11.49 0 0 0 -.8 4.24 11.15 11.15 0 0 0 .8 4.16 11.27 11.27 0 0 0 2.25 3.5 10.75 10.75 0 0 0 3.38 2.41 10 10 0 0 0 4.21.88 11.46 11.46 0 0 0 4.38-.83 10.67 10.67 0 0 0 3.54-2.32 11.25 11.25 0 0 0 2.36-3.5 10.85 10.85 0 0 0 .86-4.32 11.14 11.14 0 0 0 -.86-4.4 11 11 0 0 0 -2.36-3.52 10.56 10.56 0 0 0 -3.52-2.33 11.53 11.53 0 0 0 -4.4-.81z"/><path d="m843.54 373.7h.11a6.45 6.45 0 0 1 2.63-2.77 7.5 7.5 0 0 1 3.8-1 7.92 7.92 0 0 1 4.35 1.19 7.59 7.59 0 0 1 2.85 3.47 7.48 7.48 0 0 1 3-3.49 8.56 8.56 0 0 1 4.46-1.17 8.82 8.82 0 0 1 4 .78 6 6 0 0 1 2.41 2.16 8.39 8.39 0 0 1 1.19 3.21 23.23 23.23 0 0 1 .31 3.94v16.07h-2.5v-16.41a22.92 22.92 0 0 0 -.16-2.82 6.3 6.3 0 0 0 -.75-2.36 4.27 4.27 0 0 0 -1.66-1.63 5.88 5.88 0 0 0 -2.91-.61 5.67 5.67 0 0 0 -5.29 2.88 8.59 8.59 0 0 0 -1 2.91 20.23 20.23 0 0 0 -.28 3.3v14.74h-2.49v-15.8a21.85 21.85 0 0 0 -.19-2.93 7.51 7.51 0 0 0 -.81-2.58 4.77 4.77 0 0 0 -1.71-1.83 5.65 5.65 0 0 0 -3-.69 5.21 5.21 0 0 0 -3.24.94 6.44 6.44 0 0 0 -1.94 2.38 11.06 11.06 0 0 0 -.94 3.16 22.37 22.37 0 0 0 -.25 3.27v14.08h-2.49v-25.6h2.49z"/><path d="m885.65 370.49h2.61l10.92 23.16 9.8-23.16h2.55l-17.18 40.56h-2.54l6.19-14.52z"/></g><g clip-path="url(#o)"><path d="m-396.19-22.38h1573.87v587.63h-1573.87z" fill="#fff"/></g><path d="m356.18 74.91v276.58l-145.49-68.61v-155.72z" fill="#fff"/><path d="m2.37 356.58 142.01 66.97v-275.29l-142.01-67z" fill="#fff"/><path d="m350.36 69.57 2.33-.84 1.29-.45-140.05-66.07-1.29.46-3.7 1.32-1.74.63-199.21 71.54 140.05 66.07 59.16-21.24 3.49-1.26z" fill="#fff"/></svg>