<svg viewBox="0 0 281 473" xmlns="http://www.w3.org/2000/svg" xmlns:xlink="http://www.w3.org/1999/xlink"><clipPath id="a"><path d="m0 0h280.45v473.42h-280.45z"/></clipPath><g clip-path="url(#a)"><g fill="#4eab47" opacity=".6"><path d="m222.22 320.23a2 2 0 0 1 -.93-.23l-53.81-28.42a2 2 0 0 1 -1.07-1.76l-.87-136.82a2 2 0 0 1 .94-1.71 2 2 0 0 1 1.94-.09l56.45 28.42a2 2 0 0 1 1.1 1.82l-1.77 136.82a2 2 0 0 1 -1 1.69 1.93 1.93 0 0 1 -.98.28zm-51.84-31.64 49.89 26.35 1.73-132.34-52.44-26.4z"/><path d="m224 183.37a2 2 0 0 1 -.89-.21l-56.45-28.42a2 2 0 0 1 -.08-3.53l56.45-32a2 2 0 0 1 1.92 0l52.92 29a2 2 0 0 1 .06 3.48l-52.93 31.41a2 2 0 0 1 -1 .27zm-52.22-30.52 52.12 26.25 49-29-48.9-26.84z"/><path d="m64.54 412.51-59.54-38.96v-174.83l59.53 30zm-55.54-41.13 51.61 33.76v-174l-51.61-25.95z"/><path d="m114.16 371.45v-172.91l-51.61 31.39v120.9z"/></g><path d="m168.13 226.21.09-194.49-53.71-26.98-.35 194.23z" fill="#9ecd5e" opacity=".6"/></g></svg>