<svg id="DESIGN" xmlns="http://www.w3.org/2000/svg" xmlns:xlink="http://www.w3.org/1999/xlink" viewBox="0 0 281 473"><defs><style>.cls-1{fill:none;}.cls-2{clip-path:url(#clip-path);}.cls-3{opacity:0.6;}.cls-4{fill:#4eab47;}.cls-5{fill:#9ecd5e;}</style><clipPath id="clip-path"><rect class="cls-1" width="280.45" height="473.42"/></clipPath></defs><title>right</title><g class="cls-2"><g class="cls-3"><path class="cls-4" d="M222.22,320.23a2,2,0,0,1-.93-.23l-53.81-28.42a2,2,0,0,1-1.07-1.76L165.54,153a2,2,0,0,1,.94-1.71,2,2,0,0,1,1.94-.09l56.45,28.42a2,2,0,0,1,1.1,1.82L224.2,318.26a2,2,0,0,1-1,1.69A1.93,1.93,0,0,1,222.22,320.23Zm-51.84-31.64,49.89,26.35L222,182.6l-52.44-26.4Z"/><path class="cls-4" d="M224,183.37a2,2,0,0,1-.89-.21l-56.45-28.42a2,2,0,0,1-.08-3.53l56.45-32a2,2,0,0,1,1.92,0l52.92,29a2,2,0,0,1,.06,3.48L225,183.1A2,2,0,0,1,224,183.37Zm-52.22-30.52L223.9,179.1l49-29L224,123.26Z"/><path class="cls-4" d="M64.54,412.51,5,373.55,5,198.72l59.53,30ZM9,371.38l51.61,33.76v-174L9,205.19Z"/><polygon class="cls-4" points="114.16 371.45 114.16 198.54 62.55 229.93 62.55 350.83 114.16 371.45"/></g><g class="cls-3"><polygon class="cls-5" points="168.13 226.21 168.22 31.72 114.51 4.74 114.16 198.97 168.13 226.21"/></g></g></svg>