<svg height="260pt" preserveAspectRatio="xMidYMid meet" viewBox="0 0 260 260" width="260pt" xmlns="http://www.w3.org/2000/svg"><g transform="matrix(.1 0 0 -.1 0 260)"><path d="m1340 2353c-49-19-65-24-65-23s-22-7-50-18c-27-11-169-63-315-117-146-53-278-102-295-109-16-7-92-35-167-62l-138-49v-175c-2-814 1-1295 7-1300 4-4 73-31 153-60 80-28 181-65 226-81 44-17 87-31 95-33 8-1 31-10 53-19 21-9 42-17 46-17s29-9 56-19c27-11 103-39 169-62s124-46 130-51c5-4 13-8 17-8s8 335 8 745v745l28 12c15 6 41 16 57 23 17 7 41 16 55 20 14 3 34 10 45 15s133 50 270 100c138 50 257 94 265 97 8 4 17 7 20 8s12 5 20 8c8 4 49 18 90 32 41 15 89 32 105 40 17 7 41 16 55 20 22 7 18 10-40 32-36 13-72 26-80 30-8 3-20 7-26 8-11 3-378 135-449 162-22 8-60 21-85 29s-54 19-65 24c-31 14-168 60-174 59-3 0-13-3-21-6z"/><path d="m2160 1891c-69-26-138-53-153-59-16-7-34-12-41-12s-15-3-19-6c-3-4-34-16-69-29-121-43-453-166-473-175-11-5-29-11-40-14-20-6-20-14-20-403-1-390 0-398 20-407 11-5 25-10 30-11 6-2 37-13 70-25 68-24 78-28 85-27 3 0 15-5 28-12s31-14 40-16 49-16 87-31c39-14 126-46 195-71 69-24 143-51 165-59s47-17 55-19 47-16 85-30c39-15 77-28 85-28 13-2 15 92 15 741 0 489-3 742-10 741-5 0-66-22-135-48z"/></g></svg>