<svg viewBox="0 0 236.82 272.28" xmlns="http://www.w3.org/2000/svg" xmlns:xlink="http://www.w3.org/1999/xlink"><linearGradient id="a" gradientUnits="userSpaceOnUse" x1="181.65" x2="69.99" y1="34.58" y2="194.63"><stop offset=".13" stop-color="#02e49b" stop-opacity="0"/><stop offset=".43" stop-color="#02e49b" stop-opacity=".38"/><stop offset="1" stop-color="#02e49b"/></linearGradient><path d="m238 0v151.36l-82.62 46.52-.1-38.44-87.36-50.64.04-108.8z" fill="url(#a)" opacity=".38"/><path d="m142.94 127.1a30.71 30.71 0 1 0 -52.79-30.51z" fill="#00bd9b" fill-rule="evenodd"/><circle cx="118.9" cy="38.52" fill="#02e49b" r="30.71"/><path d="m154.5 197.88 50.39-28.2a2 2 0 0 0 -.52-3.13l-49.87-26.49z" fill="#d9dbdc"/><path d="m115.29 176.93 25.07 14.37 11.38 6.51a1.84 1.84 0 0 0 2.76-1.6v-61.52a3.49 3.49 0 0 0 -1.74-3l-83-47.95a1.84 1.84 0 0 0 -2.76 1.57v61.94a3.5 3.5 0 0 0 1.75 3l11.44 6.55a1 1 0 0 0 1.5-.86v-14.75a1 1 0 0 1 1.5-.86l13.28 7.67a2 2 0 0 1 1 1.72l.09 15.88" fill="#2b393f"/><path d="m1.2 203.57 13.35 7.71a1 1 0 0 0 1.5-.87l-.05-15.41a2 2 0 0 0 -1-1.72l-13.3-7.73a1 1 0 0 0 -1.5.87v15.42a2 2 0 0 0 1 1.73z" fill="#2b393f"/><path d="m82 178.2 13.35 7.71a1 1 0 0 0 1.5-.87l-.06-15.43a2 2 0 0 0 -1-1.72l-13.29-7.71a1 1 0 0 0 -1.5.87v15.42a2 2 0 0 0 1 1.73z" fill="#2b393f"/><path d="m89.65 256.07 26.35 15.2a2 2 0 0 0 3-1.72l-.13-30.4a3.92 3.92 0 0 0 -2-3.39l-26.19-15.2a2 2 0 0 0 -3 1.7v30.4a3.94 3.94 0 0 0 1.97 3.41z" fill="#2b393f"/><path d="m97.49 148.63.07 17a2 2 0 0 0 1 1.73l15.28 8.76 8.16 4.67a1 1 0 0 0 1.5-.87v-14.6" fill="#2b393f"/><path d="m133.22 147.19 21.18 12.25a.72.72 0 0 1 .36.61v12.52a.38.38 0 0 1 -.57.33l-21.19-12.16a.72.72 0 0 1 -.36-.62v-12.6a.38.38 0 0 1 .58-.33z" fill="#00bd9b"/><path d="m146.62 158.9 4.16 2.41a.63.63 0 0 1 .31.54v4.83a.31.31 0 0 1 -.47.27l-4.18-2.41a.63.63 0 0 1 -.31-.54v-4.83a.31.31 0 0 1 .49-.27z" fill="#fff"/><g fill="#2b393f"><path d="m153.42 219.31 13.35 7.69a1 1 0 0 0 1.5-.87l-.06-15.43a2 2 0 0 0 -1-1.72l-13.28-7.71a1 1 0 0 0 -1.51.86v15.43a2 2 0 0 0 1 1.75z"/><path d="m103.84 216.22 13.35 7.71a1 1 0 0 0 1.5-.87l-.07-15.43a2 2 0 0 0 -1-1.72l-13.29-7.71a1 1 0 0 0 -1.5.87v15.42a2 2 0 0 0 1.01 1.73z"/><path d="m49.18 171.89 13.35 7.71a1 1 0 0 0 1.5-.87l-.03-15.42a2 2 0 0 0 -1-1.73l-13.29-7.7a1 1 0 0 0 -1.5.86v15.42a2 2 0 0 0 .97 1.73z"/><path d="m.71 203.19 13.48 7.81a2.06 2.06 0 0 0 2.08 0l12.22-7a1 1 0 0 0 0-1.74l-13.82-7.73a2.06 2.06 0 0 0 -2 0l-11.96 6.87a1 1 0 0 0 0 1.79z" opacity=".18"/><path d="m48.69 171.57 13.48 7.85a2.09 2.09 0 0 0 2.08 0l12.22-7a1 1 0 0 0 0-1.74l-13.84-7.78a2.06 2.06 0 0 0 -2 0l-11.93 6.88a1 1 0 0 0 -.01 1.79z" opacity=".18"/><path d="m81.54 177.9 13.46 7.85a2.06 2.06 0 0 0 2.08 0l12.22-7.06a1 1 0 0 0 0-1.74l-13.82-7.73a2.06 2.06 0 0 0 -2 0l-11.89 6.86a1 1 0 0 0 -.05 1.82z" opacity=".18"/><path d="m103.35 215.93 13.48 7.85a2 2 0 0 0 2.07 0l12.22-7.05a1 1 0 0 0 0-1.74l-13.82-7.73a2.08 2.08 0 0 0 -2.05 0l-11.89 6.87a1 1 0 0 0 -.01 1.8z" opacity=".18"/><path d="m89.28 255.69 25.94 15.11a4 4 0 0 0 4 0l23.41-13.51a2 2 0 0 0 0-3.48l-26.52-14.81a4 4 0 0 0 -3.94 0l-22.89 13.24a2 2 0 0 0 0 3.45z" opacity=".18"/><path d="m152.94 219 13.47 7.85a2.09 2.09 0 0 0 2.08 0l12.22-7.05a1 1 0 0 0 0-1.74l-13.82-7.73a2.08 2.08 0 0 0 -2 0l-11.89 6.87a1 1 0 0 0 -.06 1.8z" opacity=".18"/><path d="m209 204.24 13.38 7.76a1 1 0 0 0 1.5-.87l-.06-15.43a2 2 0 0 0 -1-1.72l-13.29-7.71a1 1 0 0 0 -1.5.87v15.42a2 2 0 0 0 .97 1.68z"/><path d="m208.55 204 13.45 7.8a2.06 2.06 0 0 0 2.08 0l12.22-7.06a1 1 0 0 0 0-1.74l-13.82-7.73a2.08 2.08 0 0 0 -2.05 0l-11.89 6.86a1 1 0 0 0 .01 1.87z" opacity=".18"/></g><path d="m106.38 29.53v18.52l12.03 4.32v-18.67l13-4.8-11.8-4.22z" fill="#fff"/><path d="m119.39 34.23v10.13l12.02 4.31v-18.89z" fill="#fff"/><path d="m106.41 104.89v-4.68l12.7-4.66 10.79 3.87-12.06 4.44a.27.27 0 0 0 -.17.24v7.29l.52.3v-7.4l12.56-4.63a.27.27 0 0 0 .17-.25.26.26 0 0 0 -.18-.24l-11.55-4.17a.25.25 0 0 0 -.17 0l-13 4.76a.25.25 0 0 0 -.17.24v4.56z" fill="#fff"/><path d="m120 112.74v-7.07l10.39-3.85v16.93l.52.3v-17.6a.26.26 0 0 0 -.11-.21.26.26 0 0 0 -.24 0l-10.91 4a.25.25 0 0 0 -.17.24v7z" fill="#fff"/></svg>