<svg id="Layer_1" data-name="Layer 1" xmlns="http://www.w3.org/2000/svg" xmlns:xlink="http://www.w3.org/1999/xlink" viewBox="0 0 236.82 272.28"><defs><style>.cls-1{opacity:0.38;fill:url(#linear-gradient);}.cls-2,.cls-6{fill:#00bd9b;}.cls-2{fill-rule:evenodd;}.cls-3{fill:#02e49b;}.cls-4{fill:#d9dbdc;}.cls-5,.cls-8{fill:#2b393f;}.cls-7{fill:#fff;}.cls-8{opacity:0.18;}</style><linearGradient id="linear-gradient" x1="181.65" y1="34.58" x2="69.99" y2="194.63" gradientUnits="userSpaceOnUse"><stop offset="0.13" stop-color="#02e49b" stop-opacity="0"/><stop offset="0.43" stop-color="#02e49b" stop-opacity="0.38"/><stop offset="1" stop-color="#02e49b"/></linearGradient></defs><title>Artboard 22</title><polygon class="cls-1" points="238 0 238 151.36 155.38 197.88 155.28 159.44 67.92 108.8 67.96 0 238 0"/><path class="cls-2" d="M142.94,127.1A30.71,30.71,0,1,0,90.15,96.59Z"/><circle class="cls-3" cx="118.9" cy="38.52" r="30.71"/><path class="cls-4" d="M154.5,197.88l50.39-28.2a2,2,0,0,0-.52-3.13L154.5,140.06Z"/><path class="cls-5" d="M115.29,176.93l25.07,14.37h0l11.38,6.51a1.84,1.84,0,0,0,2.76-1.6V134.69a3.49,3.49,0,0,0-1.74-3l-83-47.95A1.84,1.84,0,0,0,67,85.31v61.94a3.5,3.5,0,0,0,1.75,3l11.44,6.55a1,1,0,0,0,1.5-.86V141.19a1,1,0,0,1,1.5-.86L96.47,148a2,2,0,0,1,1,1.72l.09,15.88"/><path class="cls-5" d="M1.2,203.57l13.35,7.71a1,1,0,0,0,1.5-.87L16,195a2,2,0,0,0-1-1.72L1.7,185.55a1,1,0,0,0-1.5.87v15.42A2,2,0,0,0,1.2,203.57Z"/><path class="cls-5" d="M82,178.2l13.35,7.71a1,1,0,0,0,1.5-.87l-.06-15.43a2,2,0,0,0-1-1.72l-13.29-7.71a1,1,0,0,0-1.5.87v15.42A2,2,0,0,0,82,178.2Z"/><path class="cls-5" d="M89.65,256.07,116,271.27a2,2,0,0,0,3-1.72l-.13-30.4a3.92,3.92,0,0,0-2-3.39l-26.19-15.2a2,2,0,0,0-3,1.7v30.4A3.94,3.94,0,0,0,89.65,256.07Z"/><path class="cls-5" d="M97.49,148.63l.07,17a2,2,0,0,0,1,1.73l15.28,8.76,8.16,4.67a1,1,0,0,0,1.5-.87v-14.6"/><path class="cls-6" d="M133.22,147.19l21.18,12.25a.72.72,0,0,1,.36.61v12.52a.38.38,0,0,1-.57.33L133,160.74a.72.72,0,0,1-.36-.62v-12.6A.38.38,0,0,1,133.22,147.19Z"/><path class="cls-7" d="M146.62,158.9l4.16,2.41a.63.63,0,0,1,.31.54l0,4.83a.31.31,0,0,1-.47.27l-4.18-2.41a.63.63,0,0,1-.31-.54v-4.83A.31.31,0,0,1,146.62,158.9Z"/><path class="cls-5" d="M153.42,219.31,166.77,227a1,1,0,0,0,1.5-.87l-.06-15.43a2,2,0,0,0-1-1.72l-13.28-7.71a1,1,0,0,0-1.51.86v15.43A2,2,0,0,0,153.42,219.31Z"/><path class="cls-5" d="M103.84,216.22l13.35,7.71a1,1,0,0,0,1.5-.87l-.07-15.43a2,2,0,0,0-1-1.72l-13.29-7.71a1,1,0,0,0-1.5.87v15.42A2,2,0,0,0,103.84,216.22Z"/><path class="cls-5" d="M49.18,171.89l13.35,7.71a1,1,0,0,0,1.5-.87L64,163.31a2,2,0,0,0-1-1.73l-13.29-7.7a1,1,0,0,0-1.5.86v15.42A2,2,0,0,0,49.18,171.89Z"/><path class="cls-8" d="M.71,203.19,14.19,211a2.06,2.06,0,0,0,2.08,0L28.49,204a1,1,0,0,0,0-1.74l-13.82-7.73a2.06,2.06,0,0,0-2,0L.71,201.4A1,1,0,0,0,.71,203.19Z"/><path class="cls-8" d="M48.69,171.57l13.48,7.85a2.09,2.09,0,0,0,2.08,0l12.22-7a1,1,0,0,0,0-1.74L62.63,162.9a2.06,2.06,0,0,0-2,0L48.7,169.78A1,1,0,0,0,48.69,171.57Z"/><path class="cls-8" d="M81.54,177.9,95,185.75a2.06,2.06,0,0,0,2.08,0l12.22-7.06a1,1,0,0,0,0-1.74l-13.82-7.73a2.06,2.06,0,0,0-2,0l-11.89,6.86A1,1,0,0,0,81.54,177.9Z"/><path class="cls-8" d="M103.35,215.93l13.48,7.85a2,2,0,0,0,2.07,0l12.22-7.05a1,1,0,0,0,0-1.74l-13.82-7.73a2.08,2.08,0,0,0-2.05,0l-11.89,6.87A1,1,0,0,0,103.35,215.93Z"/><path class="cls-8" d="M89.28,255.69l25.94,15.11a4,4,0,0,0,4,0l23.41-13.51a2,2,0,0,0,0-3.48L116.11,239a4,4,0,0,0-3.94,0L89.28,252.24A2,2,0,0,0,89.28,255.69Z"/><path class="cls-8" d="M152.94,219l13.47,7.85a2.09,2.09,0,0,0,2.08,0l12.22-7.05a1,1,0,0,0,0-1.74l-13.82-7.73a2.08,2.08,0,0,0-2,0l-11.89,6.87A1,1,0,0,0,152.94,219Z"/><path class="cls-5" d="M209,204.24,222.38,212a1,1,0,0,0,1.5-.87l-.06-15.43a2,2,0,0,0-1-1.72l-13.29-7.71a1,1,0,0,0-1.5.87v15.42A2,2,0,0,0,209,204.24Z"/><path class="cls-8" d="M208.55,204,222,211.8a2.06,2.06,0,0,0,2.08,0l12.22-7.06a1,1,0,0,0,0-1.74l-13.82-7.73a2.08,2.08,0,0,0-2.05,0l-11.89,6.86A1,1,0,0,0,208.55,204Z"/><polygon class="cls-7" points="106.38 29.53 106.38 48.05 118.41 52.37 118.41 33.7 131.41 28.9 119.61 24.68 106.38 29.53"/><polygon class="cls-7" points="119.39 34.23 119.39 44.36 131.41 48.67 131.41 29.78 119.39 34.23"/><path class="cls-7" d="M106.41,104.89v-4.68l12.7-4.66,10.79,3.87-12.06,4.44a.27.27,0,0,0-.17.24v7.29l.52.3v-7.4l12.56-4.63a.27.27,0,0,0,.17-.25.26.26,0,0,0-.18-.24L119.19,95a.25.25,0,0,0-.17,0l-13,4.76a.25.25,0,0,0-.17.24v4.56Z"/><path class="cls-7" d="M120,112.74v-7.07l10.39-3.85v16.93l.52.3v-17.6a.26.26,0,0,0-.11-.21.26.26,0,0,0-.24,0l-10.91,4a.25.25,0,0,0-.17.24v7Z"/></svg>