<svg id="Layer_1" data-name="Layer 1" xmlns="http://www.w3.org/2000/svg" xmlns:xlink="http://www.w3.org/1999/xlink" viewBox="0 0 236.82 272.28"><defs><style>.cls-1,.cls-5{fill:#2b393f;}.cls-1{opacity:0.18;}.cls-10,.cls-11,.cls-2,.cls-3,.cls-7,.cls-8{opacity:0.38;}.cls-2{fill:url(#linear-gradient);}.cls-3{fill:url(#linear-gradient-2);}.cls-4{fill:#00bd9b;}.cls-6{fill:#02e49b;}.cls-7{fill:url(#linear-gradient-3);}.cls-8{fill:url(#linear-gradient-4);}.cls-9{fill:#fff;}.cls-10{fill:url(#linear-gradient-5);}.cls-12{fill:url(#linear-gradient-6);}.cls-13{fill:url(#linear-gradient-7);}.cls-14{fill:url(#linear-gradient-8);}.cls-15{fill:url(#linear-gradient-9);}</style><linearGradient id="linear-gradient" x1="95.07" y1="88.43" x2="95.07" y2="210.79" gradientUnits="userSpaceOnUse"><stop offset="0" stop-color="#02e49b"/><stop offset="1" stop-color="#02e49b" stop-opacity="0.38"/></linearGradient><linearGradient id="linear-gradient-2" x1="118.41" y1="178.66" x2="118.41" y2="248.45" xlink:href="#linear-gradient"/><linearGradient id="linear-gradient-3" x1="181.7" y1="119.99" x2="181.7" y2="214.66" xlink:href="#linear-gradient"/><linearGradient id="linear-gradient-4" x1="165.5" y1="97.55" x2="197.54" y2="97.55" xlink:href="#linear-gradient"/><linearGradient id="linear-gradient-5" x1="113.97" y1="144.5" x2="134.52" y2="156.75" xlink:href="#linear-gradient"/><linearGradient id="linear-gradient-6" x1="109.13" y1="149.32" x2="136.91" y2="159.57" xlink:href="#linear-gradient"/><linearGradient id="linear-gradient-7" x1="110.29" y1="146.19" x2="138.06" y2="156.43" xlink:href="#linear-gradient"/><linearGradient id="linear-gradient-8" x1="123.92" y1="178.73" x2="101.99" y2="167.17" xlink:href="#linear-gradient"/><linearGradient id="linear-gradient-9" x1="124.28" y1="178.04" x2="102.35" y2="166.48" xlink:href="#linear-gradient"/></defs><title>Artboard 14</title><path class="cls-1" d="M137.08,261.6l98-56.51a1,1,0,0,0,0-1.74L119.67,136.72a2,2,0,0,0-2,0L2.26,203.35a1,1,0,0,0,0,1.74L100,261.43l18.52,10.29a2,2,0,0,0,2,0Zm66.71-56.44-84.12,48.46a2,2,0,0,1-2,0L33.55,205.16a1,1,0,0,1,0-1.73l84.12-48.56a2,2,0,0,1,2,0l84.12,48.56A1,1,0,0,1,203.79,205.16Z"/><polyline class="cls-2" points="71.58 77.99 118.56 104.31 118.56 220.86 87.51 202.43 71.58 192.4"/><polyline class="cls-3" points="94.92 172.71 141.9 199.02 141.9 240.81 118.67 254.19 94.92 240.85"/><path class="cls-4" d="M120.17.87l13.29,7.71a2,2,0,0,1,1,1.73l.06,15.42a1,1,0,0,1-1.5.87l-13.35-7.71a2,2,0,0,1-1-1.73V1.74A1,1,0,0,1,120.17.87Z"/><path class="cls-5" d="M73.57,191.2l43.78,25.43a2.65,2.65,0,0,1,1.32,2.28v35.28L71.48,227V192.4A1.39,1.39,0,0,1,73.57,191.2Z"/><path class="cls-5" d="M140.16,202.25,96.51,177a2.63,2.63,0,0,1-1.33-2.3V124.2a1.34,1.34,0,0,1,2-1.16l43.65,25.27a2.68,2.68,0,0,1,1.33,2.31V201.1A1.33,1.33,0,0,1,140.16,202.25Z"/><path class="cls-5" d="M116.67,106,73,80.77a2.63,2.63,0,0,1-1.33-2.3V28a1.34,1.34,0,0,1,2-1.16L117.34,52.1a2.68,2.68,0,0,1,1.33,2.31v50.48A1.33,1.33,0,0,1,116.67,106Z"/><path class="cls-6" d="M40.24,95.14l-14.6-8.45a.89.89,0,0,1-.44-.77V69a.45.45,0,0,1,.67-.38l14.59,8.45a.87.87,0,0,1,.44.77V94.75A.44.44,0,0,1,40.24,95.14Z"/><path class="cls-6" d="M159.85,213.65l13.83,8a.88.88,0,0,1,.45.77l-7.85,4.32-7.49,4.58a.89.89,0,0,1-.44-.77V214.52A1,1,0,0,1,159.85,213.65Z"/><polyline class="cls-7" points="158.21 111.91 205.19 138.23 205.19 204.22 174.13 222.45 158.21 218.24"/><path class="cls-5" d="M203.19,139.38l-43.65-25.27a2.66,2.66,0,0,1-1.33-2.31V61.32a1.33,1.33,0,0,1,2-1.15l43.65,25.27a2.65,2.65,0,0,1,1.33,2.3v50.49A1.33,1.33,0,0,1,203.19,139.38Z"/><path class="cls-8" d="M196.29,111.88,166,104a.59.59,0,0,1-.45-.58V83.78a.6.6,0,0,1,.75-.58l30.54,7.92a1,1,0,0,1,.75,1v18.82A1,1,0,0,1,196.29,111.88Z"/><path class="cls-6" d="M166.37,83.25l26.2,15.14a1.1,1.1,0,0,1,.55,1v19.43a.58.58,0,0,1-.87.5l-26.2-15a1.12,1.12,0,0,1-.55-1V83.76A.58.58,0,0,1,166.37,83.25Z"/><path class="cls-4" d="M186.3,103.07,193,107a.21.21,0,0,1,.11.19v4a.12.12,0,0,1-.18.1l-6.7-3.85a.22.22,0,0,1-.11-.2v-4A.12.12,0,0,1,186.3,103.07Z"/><path class="cls-9" d="M190.54,106.78l1.32.76a.21.21,0,0,1,.1.17v1.53a.1.1,0,0,1-.15.09l-1.33-.77a.19.19,0,0,1-.09-.17v-1.53A.09.09,0,0,1,190.54,106.78Z"/><polygon class="cls-10" points="128.5 156.95 118.38 151.09 118.38 143.43 135 153.08 128.5 156.95 128.5 156.95"/><ellipse class="cls-6" cx="106.49" cy="156.14" rx="4.6" ry="5.1" transform="translate(-63.8 74.17) rotate(-30)"/><ellipse class="cls-4" cx="130.33" cy="169.06" rx="4.6" ry="5.1" transform="matrix(0.87, -0.5, 0.5, 0.87, -67.07, 87.81)"/><g class="cls-11"><polygon class="cls-12" points="128.5 156.95 128.5 156.95 128.5 161.22 131.75 163.45 135 161.22 135 153.08 128.5 156.95"/><polygon class="cls-13" points="114.41 153.46 118.39 151.09 118.39 143.43 107.78 149.63 114.41 153.46"/></g><g class="cls-11"><polygon class="cls-14" points="122.35 171.84 118.38 174.2 108.27 168.34 108.27 168.34 101.76 172.22 118.37 181.86 118.37 181.87 118.38 181.87 118.38 181.87 118.38 181.86 128.99 175.67 122.35 171.84"/><polygon class="cls-15" points="108.27 168.34 108.27 164.07 105.01 161.85 101.76 164.07 101.76 172.22 108.27 168.34 108.27 168.34"/></g><path class="cls-4" d="M49.2,159.84l13.29,7.71a2,2,0,0,1,1,1.72l.07,15.43a1,1,0,0,1-1.5.87L48.7,177.86a2,2,0,0,1-1-1.73V160.71A1,1,0,0,1,49.2,159.84Z"/><path class="cls-6" d="M145.42,129.69l13.29,7.7a2,2,0,0,1,1,1.73l.06,15.42a1,1,0,0,1-1.5.87l-13.35-7.71a2,2,0,0,1-1-1.73V130.55A1,1,0,0,1,145.42,129.69Z"/><path class="cls-6" d="M104.74,88.59,84.33,76.78a1.54,1.54,0,0,1-.76-1.33V44.92a.77.77,0,0,1,1.15-.66l15.9,9.21,5.5,11.61V87.8A.92.92,0,0,1,104.74,88.59Z"/><path class="cls-9" d="M100.62,53.47l-.11,7.67a1.21,1.21,0,0,0,.6,1l5,2.9"/><path class="cls-4" d="M95.11,60.68l-8.75-5A.75.75,0,0,1,86,55V53.21a.38.38,0,0,1,.57-.33l8.75,5a.76.76,0,0,1,.38.66v1.77A.39.39,0,0,1,95.11,60.68Z"/><path class="cls-4" d="M89.91,63.67l-3.56-2.1a.77.77,0,0,1-.37-.66V59.14a.37.37,0,0,1,.57-.32l3.56,2.1a.77.77,0,0,1,.37.66v1.76A.38.38,0,0,1,89.91,63.67Z"/><path class="cls-4" d="M94.79,72.4l-8.74-5a.57.57,0,0,1-.28-.49V64.83a.28.28,0,0,1,.42-.24l8.75,5a.56.56,0,0,1,.28.48v2.06A.29.29,0,0,1,94.79,72.4Z"/><ellipse class="cls-4" cx="99.55" cy="77.99" rx="2.82" ry="3.13" transform="translate(-25.66 60.23) rotate(-30)"/><path class="cls-6" d="M109.35,248.82a9,9,0,0,0,2.79-6.53V227.82a1.12,1.12,0,0,0-.57-1L88.7,214.29a1.12,1.12,0,0,0-.86-.09l-5.09,1.59a.76.76,0,0,0-.2.06l-.07,0h0l-.09,0a1.1,1.1,0,0,0-.38.5l-6.46,12.94,11.71,6.75"/><polygon class="cls-4" points="88.89 226.95 86.36 225.52 87.53 222.9 85.61 221.77 84.42 224.42 81.92 223 80.92 225.03 83.49 226.48 82.28 229.18 84.26 230.22 85.44 227.58 87.96 228.99 88.89 226.95"/><ellipse class="cls-4" cx="103.78" cy="231.47" rx="1.18" ry="1.31"/><ellipse class="cls-4" cx="101.42" cy="238.71" rx="1.18" ry="1.31"/><ellipse class="cls-4" cx="99.14" cy="233.29" rx="1.18" ry="1.31"/><ellipse class="cls-4" cx="106.15" cy="236.42" rx="1.18" ry="1.31"/></svg>