<svg viewBox="0 0 236.82 272.28" xmlns="http://www.w3.org/2000/svg" xmlns:xlink="http://www.w3.org/1999/xlink"><linearGradient id="a" gradientUnits="userSpaceOnUse" x1="95.07" x2="95.07" y1="88.43" y2="210.79"><stop offset="0" stop-color="#02e49b"/><stop offset="1" stop-color="#02e49b" stop-opacity=".38"/></linearGradient><linearGradient id="b" x1="118.41" x2="118.41" xlink:href="#a" y1="178.66" y2="248.45"/><linearGradient id="c" x1="181.7" x2="181.7" xlink:href="#a" y1="119.99" y2="214.66"/><linearGradient id="d" x1="165.5" x2="197.54" xlink:href="#a" y1="97.55" y2="97.55"/><linearGradient id="e" x1="113.97" x2="134.52" xlink:href="#a" y1="144.5" y2="156.75"/><linearGradient id="f" x1="109.13" x2="136.91" xlink:href="#a" y1="149.32" y2="159.57"/><linearGradient id="g" x1="110.29" x2="138.06" xlink:href="#a" y1="146.19" y2="156.43"/><linearGradient id="h" x1="123.92" x2="101.99" xlink:href="#a" y1="178.73" y2="167.17"/><linearGradient id="i" x1="124.28" x2="102.35" xlink:href="#a" y1="178.04" y2="166.48"/><path d="m137.08 261.6 98-56.51a1 1 0 0 0 0-1.74l-115.41-66.63a2 2 0 0 0 -2 0l-115.41 66.63a1 1 0 0 0 0 1.74l97.74 56.34 18.52 10.29a2 2 0 0 0 2 0zm66.71-56.44-84.12 48.46a2 2 0 0 1 -2 0l-84.12-48.46a1 1 0 0 1 0-1.73l84.12-48.56a2 2 0 0 1 2 0l84.12 48.56a1 1 0 0 1 0 1.73z" fill="#2b393f" opacity=".18"/><path d="m71.58 77.99 46.98 26.32v116.55l-31.05-18.43-15.93-10.03" fill="url(#a)" opacity=".38"/><path d="m94.92 172.71 46.98 26.31v41.79l-23.23 13.38-23.75-13.34" fill="url(#b)" opacity=".38"/><path d="m120.17.87 13.29 7.71a2 2 0 0 1 1 1.73l.06 15.42a1 1 0 0 1 -1.5.87l-13.35-7.71a2 2 0 0 1 -1-1.73v-15.42a1 1 0 0 1 1.5-.87z" fill="#00bd9b"/><path d="m73.57 191.2 43.78 25.43a2.65 2.65 0 0 1 1.32 2.28v35.28l-47.19-27.19v-34.6a1.39 1.39 0 0 1 2.09-1.2z" fill="#2b393f"/><path d="m140.16 202.25-43.65-25.25a2.63 2.63 0 0 1 -1.33-2.3v-50.5a1.34 1.34 0 0 1 2-1.16l43.65 25.27a2.68 2.68 0 0 1 1.33 2.31v50.48a1.33 1.33 0 0 1 -2 1.15z" fill="#2b393f"/><path d="m116.67 106-43.67-25.23a2.63 2.63 0 0 1 -1.33-2.3v-50.47a1.34 1.34 0 0 1 2-1.16l43.67 25.26a2.68 2.68 0 0 1 1.33 2.31v50.48a1.33 1.33 0 0 1 -2 1.11z" fill="#2b393f"/><path d="m40.24 95.14-14.6-8.45a.89.89 0 0 1 -.44-.77v-16.92a.45.45 0 0 1 .67-.38l14.59 8.45a.87.87 0 0 1 .44.77v16.91a.44.44 0 0 1 -.66.39z" fill="#02e49b"/><path d="m159.85 213.65 13.83 8a.88.88 0 0 1 .45.77l-7.85 4.32-7.49 4.58a.89.89 0 0 1 -.44-.77v-16.03a1 1 0 0 1 1.5-.87z" fill="#02e49b"/><path d="m158.21 111.91 46.98 26.32v65.99l-31.06 18.23-15.92-4.21" fill="url(#c)" opacity=".38"/><path d="m203.19 139.38-43.65-25.27a2.66 2.66 0 0 1 -1.33-2.31v-50.48a1.33 1.33 0 0 1 2-1.15l43.65 25.27a2.65 2.65 0 0 1 1.33 2.3v50.49a1.33 1.33 0 0 1 -2 1.15z" fill="#2b393f"/><path d="m196.29 111.88-30.29-7.88a.59.59 0 0 1 -.45-.58v-19.64a.6.6 0 0 1 .75-.58l30.54 7.92a1 1 0 0 1 .75 1v18.82a1 1 0 0 1 -1.3.94z" fill="url(#d)" opacity=".38"/><path d="m166.37 83.25 26.2 15.14a1.1 1.1 0 0 1 .55 1v19.43a.58.58 0 0 1 -.87.5l-26.2-15a1.12 1.12 0 0 1 -.55-1v-19.56a.58.58 0 0 1 .87-.51z" fill="#02e49b"/><path d="m186.3 103.07 6.7 3.93a.21.21 0 0 1 .11.19v4a.12.12 0 0 1 -.18.1l-6.7-3.85a.22.22 0 0 1 -.11-.2v-4a.12.12 0 0 1 .18-.17z" fill="#00bd9b"/><path d="m190.54 106.78 1.32.76a.21.21 0 0 1 .1.17v1.53a.1.1 0 0 1 -.15.09l-1.33-.77a.19.19 0 0 1 -.09-.17v-1.53a.09.09 0 0 1 .15-.08z" fill="#fff"/><path d="m128.5 156.95-10.12-5.86v-7.66l16.62 9.65z" fill="url(#e)" opacity=".38"/><ellipse cx="106.49" cy="156.14" fill="#02e49b" rx="4.6" ry="5.1" transform="matrix(.8660254 -.5 .5 .8660254 -63.8 74.17)"/><ellipse cx="130.33" cy="169.06" fill="#00bd9b" rx="4.6" ry="5.1" transform="matrix(.87 -.5 .5 .87 -67.07 87.81)"/><g opacity=".38"><path d="m128.5 156.95v4.27l3.25 2.23 3.25-2.23v-8.14z" fill="url(#f)"/><path d="m114.41 153.46 3.98-2.37v-7.66l-10.61 6.2z" fill="url(#g)"/></g><g opacity=".38"><path d="m122.35 171.84-3.97 2.36-10.11-5.86-6.51 3.88 16.61 9.64v.01h.01v-.01l10.61-6.19z" fill="url(#h)"/><path d="m108.27 168.34v-4.27l-3.26-2.22-3.25 2.22v8.15z" fill="url(#i)"/></g><path d="m49.2 159.84 13.29 7.71a2 2 0 0 1 1 1.72l.07 15.43a1 1 0 0 1 -1.5.87l-13.36-7.71a2 2 0 0 1 -1-1.73v-15.42a1 1 0 0 1 1.5-.87z" fill="#00bd9b"/><path d="m145.42 129.69 13.29 7.7a2 2 0 0 1 1 1.73l.06 15.42a1 1 0 0 1 -1.5.87l-13.35-7.71a2 2 0 0 1 -1-1.73v-15.42a1 1 0 0 1 1.5-.86z" fill="#02e49b"/><path d="m104.74 88.59-20.41-11.81a1.54 1.54 0 0 1 -.76-1.33v-30.53a.77.77 0 0 1 1.15-.66l15.9 9.21 5.5 11.61v22.72a.92.92 0 0 1 -1.38.79z" fill="#02e49b"/><path d="m100.62 53.47-.11 7.67a1.21 1.21 0 0 0 .6 1l5 2.9" fill="#fff"/><path d="m95.11 60.68-8.75-5a.75.75 0 0 1 -.36-.68v-1.79a.38.38 0 0 1 .57-.33l8.75 5a.76.76 0 0 1 .38.66v1.77a.39.39 0 0 1 -.59.37z" fill="#00bd9b"/><path d="m89.91 63.67-3.56-2.1a.77.77 0 0 1 -.37-.66v-1.77a.37.37 0 0 1 .57-.32l3.56 2.1a.77.77 0 0 1 .37.66v1.76a.38.38 0 0 1 -.57.33z" fill="#00bd9b"/><path d="m94.79 72.4-8.74-5a.57.57 0 0 1 -.28-.49v-2.08a.28.28 0 0 1 .42-.24l8.75 5a.56.56 0 0 1 .28.48v2.06a.29.29 0 0 1 -.43.27z" fill="#00bd9b"/><ellipse cx="99.55" cy="77.99" fill="#00bd9b" rx="2.82" ry="3.13" transform="matrix(.8660254 -.5 .5 .8660254 -25.66 60.23)"/><path d="m109.35 248.82a9 9 0 0 0 2.79-6.53v-14.47a1.12 1.12 0 0 0 -.57-1l-22.87-12.53a1.12 1.12 0 0 0 -.86-.09l-5.09 1.59a.76.76 0 0 0 -.2.06h-.07-.09a1.1 1.1 0 0 0 -.38.5l-6.46 12.94 11.71 6.75" fill="#02e49b"/><g fill="#00bd9b"><path d="m88.89 226.95-2.53-1.43 1.17-2.62-1.92-1.13-1.19 2.65-2.5-1.42-1 2.03 2.57 1.45-1.21 2.7 1.98 1.04 1.18-2.64 2.52 1.41z"/><ellipse cx="103.78" cy="231.47" rx="1.18" ry="1.31"/><ellipse cx="101.42" cy="238.71" rx="1.18" ry="1.31"/><ellipse cx="99.14" cy="233.29" rx="1.18" ry="1.31"/><ellipse cx="106.15" cy="236.42" rx="1.18" ry="1.31"/></g></svg>