<svg viewBox="0 0 236.82 272.28" xmlns="http://www.w3.org/2000/svg" xmlns:xlink="http://www.w3.org/1999/xlink"><linearGradient id="a" gradientUnits="userSpaceOnUse" x1="-4.47" x2="195.63" y1="168.8" y2="86.59"><stop offset=".09" stop-color="#02e49b" stop-opacity="0"/><stop offset=".43" stop-color="#02e49b" stop-opacity=".38"/><stop offset="1" stop-color="#02e49b"/></linearGradient><linearGradient id="b" gradientUnits="userSpaceOnUse" x1="175.14" x2="207.23" y1="96.89" y2="96.89"><stop offset="0" stop-color="#02e49b"/><stop offset="1" stop-color="#02e49b" stop-opacity=".38"/></linearGradient><linearGradient id="c" x1="144.43" x2="168.43" xlink:href="#b" y1="122.28" y2="122.28"/><linearGradient id="d" x1="171.49" x2="184.54" xlink:href="#b" y1="121.65" y2="121.65"/><path d="m149 35.63-13.29-7.71a1 1 0 0 0 -1.5.86v15.39a2 2 0 0 0 1 1.74l-.95.47a2 2 0 0 0 -1-1.68l-13.35-7.7a1 1 0 0 0 -1.5.86l.38 97.45a2 2 0 0 1 -1 1.73l-54.34 31.37a1 1 0 0 0 0 1.74l12.75 7.13a1 1 0 0 1 0 1.74l-11.16 6.45a1 1 0 0 0 0 1.73l99.96 57.65a2 2 0 0 0 2 0l68.85-39.67a2 2 0 0 0 1-1.74v-119.11z" fill="#2b393f" opacity=".18"/><path d="m135.14 45.91 86.11 50.75-102.46 174.7-118.79-68.14.07-189.48z" fill="url(#a)" opacity=".38"/><path d="m119.41 18.89 13.35 7.71a1 1 0 0 0 1.5-.87l-.06-15.42a2 2 0 0 0 -1-1.73l-13.29-7.71a1 1 0 0 0 -1.5.87v15.42a2 2 0 0 0 1 1.73z" fill="#2b393f" opacity=".18"/><path d="m221.25 96.66-.08 79.25a1 1 0 0 1 -1.5.87l-84.51-48.78a2 2 0 0 1 -1-1.73v-80.95l86.08 49.61a2 2 0 0 1 1.01 1.73z" fill="#2b393f"/><path d="m94.65 90.56-27.73-16a2.92 2.92 0 0 1 -1.45-2.56v-41.33a1.45 1.45 0 0 1 2.18-1.25l21.54 12.46 7.64 16.12v31.3a1.45 1.45 0 0 1 -2.18 1.26z" fill="#02e49b"/><path d="m89.19 41.88-.19 10.66a1.63 1.63 0 0 0 .86 1.46l7 4" fill="#00bd9b"/><path d="m209.18 188.31-19.08-11.05a2 2 0 0 1 -1-1.73v-28.44a1 1 0 0 1 1.5-.87l14.82 8.58 5.26 11.11v21.53a1 1 0 0 1 -1.5.87z" fill="#00bd9b"/><path d="m205.42 154.8-.11 7.34a1.14 1.14 0 0 0 .57 1l4.8 2.78" fill="#02e49b"/><path d="m161 82.21-16-9.22a1 1 0 0 1 -.51-.87v-3.67a.5.5 0 0 1 .75-.43l16 9.22a1 1 0 0 1 .5.86v3.67a.5.5 0 0 1 -.74.44z" fill="#02e49b"/><path d="m171.69 88.4-6.78-4a1 1 0 0 1 -.49-.86v-3.68a.5.5 0 0 1 .76-.43l6.78 4a1 1 0 0 1 .49.86v3.71a.5.5 0 0 1 -.76.4z" fill="#00bd9b"/><path d="m206.48 108.32-30.84-17.9a1 1 0 0 1 -.5-.87v-3.67a.5.5 0 0 1 .75-.43l30.84 17.9a1 1 0 0 1 .5.87v3.67a.5.5 0 0 1 -.75.43z" fill="url(#b)" opacity=".38"/><path d="m151.7 87.12-6.78-4a1 1 0 0 1 -.49-.86v-3.68a.51.51 0 0 1 .76-.43l6.78 4a1 1 0 0 1 .49.86v3.66a.5.5 0 0 1 -.76.45z" fill="#02e49b"/><path d="m171.7 98.54-16-9.22a1 1 0 0 1 -.5-.87v-3.67a.5.5 0 0 1 .75-.43l16 9.21a1 1 0 0 1 .51.87v3.67a.5.5 0 0 1 -.76.44z" fill="#02e49b"/><path d="m147.69 107.35-2.77-1.64a1 1 0 0 1 -.49-.86v-3.66a.5.5 0 0 1 .76-.43l2.76 1.63a1 1 0 0 1 .5.86v3.67a.5.5 0 0 1 -.76.43z" fill="#00bd9b"/><path d="m167.68 118.67-16-9.21a1 1 0 0 1 -.5-.87v-3.67a.5.5 0 0 1 .75-.44l16 9.22a1 1 0 0 1 .5.87v3.67a.5.5 0 0 1 -.75.43z" fill="#02e49b"/><path d="m175.77 112.15-30.84-17.9a1 1 0 0 1 -.5-.86v-3.67a.5.5 0 0 1 .75-.44l30.82 17.91a1 1 0 0 1 .49.86v3.67a.49.49 0 0 1 -.72.43z" fill="#02e49b"/><path d="m168.43 131.96-24-14.26v-5.11l24 14.26z" fill="url(#c)" opacity=".38"/><path d="m171.49 115.28 13.05 7.62v5.11l-13.05-7.62" fill="url(#d)" opacity=".38"/><path d="m33.9 187.08 13 7.58a2 2 0 0 0 2 0l11.75-6.78a1 1 0 0 0 0-1.74l-13.3-7.43a2 2 0 0 0 -2 0l-11.45 6.64a1 1 0 0 0 0 1.73z" fill="#2b393f" opacity=".18"/><path d="m116.91 166.33-19.08-11.05a2 2 0 0 1 -1-1.73v-28.45a1 1 0 0 1 1.5-.86l14.82 8.58 5.26 11.11v21.53a1 1 0 0 1 -1.5.87z" fill="#02e49b"/><path d="m113.15 132.82-.11 7.34a1.15 1.15 0 0 0 .57 1l4.8 2.78" fill="#00bd9b"/><path d="m116.91 271.22-19.08-11.05a2 2 0 0 1 -1-1.73v-28.44a1 1 0 0 1 1.5-.87l14.82 8.58 5.26 11.11v21.54a1 1 0 0 1 -1.5.86z" fill="#00bd9b"/><path d="m113.15 237.71-.11 7.34a1.14 1.14 0 0 0 .57 1l4.8 2.78" fill="#02e49b"/><path d="m29.7 220.66-27.7-16.05a2.93 2.93 0 0 1 -1.45-2.52v-41.32a1.46 1.46 0 0 1 2.19-1.26l21.5 12.49 7.64 16.14v31.26a1.45 1.45 0 0 1 -2.18 1.26z" fill="#02e49b"/><path d="m24.24 172-.16 10.66a1.66 1.66 0 0 0 .83 1.44l7 4" fill="#00bd9b"/><g fill="#fff"><path d="m77.54 66 3.77-8.15a.5.5 0 0 1 .7-.23l2.08 1.21a.5.5 0 0 1 .21.64l-3.77 8.16a.49.49 0 0 1 -.7.22l-2.09-1.21a.5.5 0 0 1 -.2-.64z"/><path d="m70 58.69 1.82 6.16a.49.49 0 0 0 .63.33l1.83-.59a.48.48 0 0 0 .32-.61l-1.38-4.67a.5.5 0 0 1 .32-.61l4.6-1.57a.51.51 0 0 0 .32-.63l-.57-1.83a.5.5 0 0 0 -.64-.32l-6.08 2.08-1.17.39a.49.49 0 0 0 -.32.62z"/><path d="m91.1 68.85-6.1 2.08a.49.49 0 0 1 -.63-.33l-.58-1.83a.5.5 0 0 1 .32-.62l4.6-1.57a.52.52 0 0 0 .29-.58l-1.34-4.7a.49.49 0 0 1 .32-.62l1.83-.59a.49.49 0 0 1 .63.33l1.83 6.17.38 1.21a.51.51 0 0 1 -.32.63z"/><path d="m108.74 153v-2.35a.5.5 0 0 1 .75-.43l5.34 3a.5.5 0 0 1 .25.44v2.43a.5.5 0 0 1 -.75.44l-5.33-3.07a.52.52 0 0 1 -.26-.46z"/><path d="m11.79 196.86 3.76-8.16a.51.51 0 0 1 .71-.22l2.08 1.21a.5.5 0 0 1 .2.64l-3.76 8.16a.51.51 0 0 1 -.71.22l-2.07-1.21a.5.5 0 0 1 -.21-.64z"/><path d="m4.28 189.53 1.83 6.17a.49.49 0 0 0 .63.33l1.83-.59a.5.5 0 0 0 .32-.62l-1.38-4.66a.5.5 0 0 1 .32-.62l4.6-1.57a.49.49 0 0 0 .32-.62l-.58-1.83a.5.5 0 0 0 -.64-.32l-6.08 2.07-1.21.4a.49.49 0 0 0 -.33.61z"/><path d="m25.34 199.7-6.08 2.07a.5.5 0 0 1 -.64-.32l-.57-1.83a.5.5 0 0 1 .31-.62l4.64-1.58a.49.49 0 0 0 .31-.61l-1.38-4.66a.5.5 0 0 1 .33-.62l1.82-.59a.5.5 0 0 1 .64.33l1.82 6.16.38 1.22a.48.48 0 0 1 -.31.62z"/><path d="m108.13 146.36-1.82-6.16a.51.51 0 0 0 -.64-.34l-1.82.59a.51.51 0 0 0 -.33.62l1.38 4.67a.49.49 0 0 1 -.31.61l-4.59 1.57a.51.51 0 0 0 -.31.63l.57 1.83a.51.51 0 0 0 .64.32l6.08-2.08 1.22-.39a.49.49 0 0 0 .32-.62z"/><path d="m201.18 174.79v-2.35a.51.51 0 0 1 .75-.44l5.34 3a.48.48 0 0 1 .25.43v2.44a.49.49 0 0 1 -.75.43l-5.34-3.09a.5.5 0 0 1 -.25-.42z"/><path d="m200.57 168.13-1.82-6.13a.5.5 0 0 0 -.64-.33l-1.82.59a.51.51 0 0 0 -.33.62l1.38 4.66a.5.5 0 0 1 -.31.62l-4.61 1.57a.5.5 0 0 0 -.31.62l.57 1.83a.5.5 0 0 0 .64.33l6.08-2.08 1.22-.39a.51.51 0 0 0 .32-.62z"/><path d="m108.74 258.3v-2.3a.51.51 0 0 1 .75-.44l5.34 3a.48.48 0 0 1 .25.43v2.44a.49.49 0 0 1 -.75.43l-5.33-3.13a.5.5 0 0 1 -.26-.43z"/><path d="m108.13 251.64-1.82-6.17a.51.51 0 0 0 -.64-.33l-1.82.59a.51.51 0 0 0 -.33.62l1.38 4.65a.5.5 0 0 1 -.31.62l-4.59 1.58a.5.5 0 0 0 -.31.62l.57 1.83a.5.5 0 0 0 .64.33l6.1-2.08 1.22-.39a.5.5 0 0 0 .32-.62z"/></g></svg>