<svg id="Layer_1" data-name="Layer 1" xmlns="http://www.w3.org/2000/svg" xmlns:xlink="http://www.w3.org/1999/xlink" viewBox="0 0 236.82 272.28"><defs><style>.cls-1,.cls-3{fill:#2b393f;}.cls-1{opacity:0.18;}.cls-2,.cls-6,.cls-7,.cls-8{opacity:0.38;}.cls-2{fill:url(#linear-gradient);}.cls-4{fill:#02e49b;}.cls-5{fill:#00bd9b;}.cls-6{fill:url(#linear-gradient-2);}.cls-7{fill:url(#linear-gradient-3);}.cls-8{fill:url(#linear-gradient-4);}.cls-9{fill:#fff;}</style><linearGradient id="linear-gradient" x1="-4.47" y1="168.8" x2="195.63" y2="86.59" gradientUnits="userSpaceOnUse"><stop offset="0.09" stop-color="#02e49b" stop-opacity="0"/><stop offset="0.43" stop-color="#02e49b" stop-opacity="0.38"/><stop offset="1" stop-color="#02e49b"/></linearGradient><linearGradient id="linear-gradient-2" x1="175.14" y1="96.89" x2="207.23" y2="96.89" gradientUnits="userSpaceOnUse"><stop offset="0" stop-color="#02e49b"/><stop offset="1" stop-color="#02e49b" stop-opacity="0.38"/></linearGradient><linearGradient id="linear-gradient-3" x1="144.43" y1="122.28" x2="168.43" y2="122.28" xlink:href="#linear-gradient-2"/><linearGradient id="linear-gradient-4" x1="171.49" y1="121.65" x2="184.54" y2="121.65" xlink:href="#linear-gradient-2"/></defs><title>Artboard 15</title><path class="cls-1" d="M149,35.63l0,0-13.29-7.71a1,1,0,0,0-1.5.86V44.17a2,2,0,0,0,1,1.74l-.95.47a2,2,0,0,0-1-1.68L119.91,37a1,1,0,0,0-1.5.86l.38,97.45a2,2,0,0,1-1,1.73L63.45,168.41a1,1,0,0,0,0,1.74l12.75,7.13a1,1,0,0,1,0,1.74l-11.16,6.45a1,1,0,0,0,0,1.73L165,244.85a2,2,0,0,0,2,0l68.85-39.67a2,2,0,0,0,1-1.74V84.33Z"/><polygon class="cls-2" points="135.14 45.91 221.25 96.66 118.79 271.36 0 203.22 0.07 13.74 135.14 45.91"/><path class="cls-1" d="M119.41,18.89l13.35,7.71a1,1,0,0,0,1.5-.87l-.06-15.42a2,2,0,0,0-1-1.73L119.91.87a1,1,0,0,0-1.5.87V17.16A2,2,0,0,0,119.41,18.89Z"/><path class="cls-3" d="M221.25,96.66l-.08,79.25a1,1,0,0,1-1.5.87L135.16,128a2,2,0,0,1-1-1.73V45.32l86.08,49.61A2,2,0,0,1,221.25,96.66Z"/><path class="cls-4" d="M94.65,90.56l-27.73-16A2.92,2.92,0,0,1,65.47,72V30.67a1.45,1.45,0,0,1,2.18-1.25L89.19,41.88,96.83,58V89.3A1.45,1.45,0,0,1,94.65,90.56Z"/><path class="cls-5" d="M89.19,41.88,89,52.54A1.63,1.63,0,0,0,89.86,54l7,4"/><path class="cls-5" d="M209.18,188.31,190.1,177.26a2,2,0,0,1-1-1.73V147.09a1,1,0,0,1,1.5-.87l14.82,8.58,5.26,11.11v21.53A1,1,0,0,1,209.18,188.31Z"/><path class="cls-4" d="M205.42,154.8l-.11,7.34a1.14,1.14,0,0,0,.57,1l4.8,2.78"/><path class="cls-4" d="M161,82.21l-16-9.22a1,1,0,0,1-.51-.87V68.45a.5.5,0,0,1,.75-.43l16,9.22a1,1,0,0,1,.5.86v3.67A.5.5,0,0,1,161,82.21Z"/><path class="cls-5" d="M171.69,88.4l-6.78-4a1,1,0,0,1-.49-.86V79.86a.5.5,0,0,1,.76-.43l6.78,4a1,1,0,0,1,.49.86V88A.5.5,0,0,1,171.69,88.4Z"/><path class="cls-6" d="M206.48,108.32l-30.84-17.9a1,1,0,0,1-.5-.87V85.88a.5.5,0,0,1,.75-.43l30.84,17.9a1,1,0,0,1,.5.87v3.67A.5.5,0,0,1,206.48,108.32Z"/><path class="cls-4" d="M151.7,87.12l-6.78-4a1,1,0,0,1-.49-.86V78.58a.51.51,0,0,1,.76-.43l6.78,4a1,1,0,0,1,.49.86v3.66A.5.5,0,0,1,151.7,87.12Z"/><path class="cls-4" d="M171.7,98.54l-16-9.22a1,1,0,0,1-.5-.87V84.78a.5.5,0,0,1,.75-.43l16,9.21a1,1,0,0,1,.51.87V98.1A.5.5,0,0,1,171.7,98.54Z"/><path class="cls-5" d="M147.69,107.35l-2.77-1.64a1,1,0,0,1-.49-.86v-3.66a.5.5,0,0,1,.76-.43l2.76,1.63a1,1,0,0,1,.5.86v3.67A.5.5,0,0,1,147.69,107.35Z"/><path class="cls-4" d="M167.68,118.67l-16-9.21a1,1,0,0,1-.5-.87v-3.67a.5.5,0,0,1,.75-.44l16,9.22a1,1,0,0,1,.5.87v3.67A.5.5,0,0,1,167.68,118.67Z"/><path class="cls-4" d="M175.77,112.15l-30.84-17.9a1,1,0,0,1-.5-.86V89.72a.5.5,0,0,1,.75-.44L176,107.19a1,1,0,0,1,.49.86v3.67A.49.49,0,0,1,175.77,112.15Z"/><polygon class="cls-7" points="168.43 131.96 144.43 117.7 144.43 112.59 168.43 126.85 168.43 131.96"/><polyline class="cls-8" points="171.49 115.28 184.54 122.9 184.54 128.01 171.49 120.39"/><path class="cls-1" d="M33.9,187.08l13,7.58a2,2,0,0,0,2,0l11.75-6.78a1,1,0,0,0,0-1.74l-13.3-7.43a2,2,0,0,0-2,0L33.9,185.35A1,1,0,0,0,33.9,187.08Z"/><path class="cls-4" d="M116.91,166.33,97.83,155.28a2,2,0,0,1-1-1.73V125.1a1,1,0,0,1,1.5-.86l14.82,8.58,5.26,11.11v21.53A1,1,0,0,1,116.91,166.33Z"/><path class="cls-5" d="M113.15,132.82l-.11,7.34a1.15,1.15,0,0,0,.57,1l4.8,2.78"/><path class="cls-5" d="M116.91,271.22,97.83,260.17a2,2,0,0,1-1-1.73V230a1,1,0,0,1,1.5-.87l14.82,8.58,5.26,11.11v21.54A1,1,0,0,1,116.91,271.22Z"/><path class="cls-4" d="M113.15,237.71l-.11,7.34a1.14,1.14,0,0,0,.57,1l4.8,2.78"/><path class="cls-4" d="M29.7,220.66,2,204.61a2.93,2.93,0,0,1-1.45-2.52V160.77a1.46,1.46,0,0,1,2.19-1.26L24.24,172l7.64,16.14V219.4A1.45,1.45,0,0,1,29.7,220.66Z"/><path class="cls-5" d="M24.24,172l-.16,10.66a1.66,1.66,0,0,0,.83,1.44l7,4"/><path class="cls-9" d="M77.54,66l3.77-8.15a.5.5,0,0,1,.7-.23l2.08,1.21a.5.5,0,0,1,.21.64l-3.77,8.16a.49.49,0,0,1-.7.22l-2.09-1.21A.5.5,0,0,1,77.54,66Z"/><path class="cls-9" d="M70,58.69l1.82,6.16a.49.49,0,0,0,.63.33l1.83-.59a.48.48,0,0,0,.32-.61l-1.38-4.67a.5.5,0,0,1,.32-.61l4.6-1.57a.51.51,0,0,0,.32-.63l-.57-1.83a.5.5,0,0,0-.64-.32l-6.08,2.08L70,56.82a.49.49,0,0,0-.32.62Z"/><path class="cls-9" d="M91.1,68.85,85,70.93a.49.49,0,0,1-.63-.33l-.58-1.83a.5.5,0,0,1,.32-.62l4.6-1.57A.52.52,0,0,0,89,66L87.66,61.3a.49.49,0,0,1,.32-.62l1.83-.59a.49.49,0,0,1,.63.33l1.83,6.17.38,1.21a.51.51,0,0,1-.32.63Z"/><path class="cls-9" d="M108.74,153v-2.35a.5.5,0,0,1,.75-.43l5.34,3a.5.5,0,0,1,.25.44v2.43a.5.5,0,0,1-.75.44L109,153.46A.52.52,0,0,1,108.74,153Z"/><path class="cls-9" d="M11.79,196.86l3.76-8.16a.51.51,0,0,1,.71-.22l2.08,1.21a.5.5,0,0,1,.2.64l-3.76,8.16a.51.51,0,0,1-.71.22L12,197.5A.5.5,0,0,1,11.79,196.86Z"/><path class="cls-9" d="M4.28,189.53l1.83,6.17a.49.49,0,0,0,.63.33l1.83-.59a.5.5,0,0,0,.32-.62l-1.38-4.66a.5.5,0,0,1,.32-.62l4.6-1.57a.49.49,0,0,0,.32-.62l-.58-1.83a.5.5,0,0,0-.64-.32l-6.08,2.07-1.21.4a.49.49,0,0,0-.33.61Z"/><path class="cls-9" d="M25.34,199.7l-6.08,2.07a.5.5,0,0,1-.64-.32l-.57-1.83a.5.5,0,0,1,.31-.62L23,197.42a.49.49,0,0,0,.31-.61l-1.38-4.66a.5.5,0,0,1,.33-.62l1.82-.59a.5.5,0,0,1,.64.33l1.82,6.16.38,1.22a.48.48,0,0,1-.31.62Z"/><path class="cls-9" d="M108.13,146.36l-1.82-6.16a.51.51,0,0,0-.64-.34l-1.82.59a.51.51,0,0,0-.33.62l1.38,4.67a.49.49,0,0,1-.31.61L100,147.92a.51.51,0,0,0-.31.63l.57,1.83a.51.51,0,0,0,.64.32l6.08-2.08,1.22-.39a.49.49,0,0,0,.32-.62Z"/><path class="cls-9" d="M201.18,174.79v-2.35a.51.51,0,0,1,.75-.44l5.34,3a.48.48,0,0,1,.25.43v2.44a.49.49,0,0,1-.75.43l-5.34-3.09A.5.5,0,0,1,201.18,174.79Z"/><path class="cls-9" d="M200.57,168.13,198.75,162a.5.5,0,0,0-.64-.33l-1.82.59a.51.51,0,0,0-.33.62l1.38,4.66a.5.5,0,0,1-.31.62l-4.61,1.57a.5.5,0,0,0-.31.62l.57,1.83a.5.5,0,0,0,.64.33l6.08-2.08,1.22-.39a.51.51,0,0,0,.32-.62Z"/><path class="cls-9" d="M108.74,258.3V256a.51.51,0,0,1,.75-.44l5.34,3a.48.48,0,0,1,.25.43v2.44a.49.49,0,0,1-.75.43L109,258.73A.5.5,0,0,1,108.74,258.3Z"/><path class="cls-9" d="M108.13,251.64l-1.82-6.17a.51.51,0,0,0-.64-.33l-1.82.59a.51.51,0,0,0-.33.62L104.9,251a.5.5,0,0,1-.31.62L100,253.2a.5.5,0,0,0-.31.62l.57,1.83a.5.5,0,0,0,.64.33L107,253.9l1.22-.39a.5.5,0,0,0,.32-.62Z"/></svg>