<svg viewBox="0 0 440 440" xmlns="http://www.w3.org/2000/svg" xmlns:xlink="http://www.w3.org/1999/xlink"><linearGradient id="a" gradientTransform="matrix(.97171423 .23615982 -.23615982 .97171423 -5553.16 1247.16)" gradientUnits="userSpaceOnUse" x1="5271.74" x2="5303.32" y1="-2411.39" y2="-2519.09"><stop offset="0" stop-color="#02e49b" stop-opacity=".38"/><stop offset="1" stop-color="#02e49b"/></linearGradient><linearGradient id="b" gradientTransform="matrix(-.97 .24 .24 .97 -10740.13 1247.16)" x1="-10991.96" x2="-10959.3" xlink:href="#a" y1="1543.04" y2="1431.65"/><linearGradient id="c" gradientTransform="matrix(-2.13 .52 .14 .6 -14783.18 681.76)" gradientUnits="userSpaceOnUse" x1="-6693.46" x2="-6624.75" y1="5283.77" y2="5283.93"><stop offset=".07" stop-color="#02e49b" stop-opacity="0"/><stop offset=".31" stop-color="#02e49b" stop-opacity=".38"/><stop offset="1" stop-color="#02e49b"/></linearGradient><linearGradient id="d" gradientTransform="matrix(.97 -.02 -.02 .9 -361.04 -460.12)" gradientUnits="userSpaceOnUse" x1="609.63" x2="783.71" y1="954.97" y2="954.87"><stop offset=".06" stop-color="#02e49b" stop-opacity="0"/><stop offset=".31" stop-color="#02e49b" stop-opacity=".38"/><stop offset="1" stop-color="#02e49b"/></linearGradient><linearGradient id="e" gradientTransform="matrix(-.45 .11 -.55 -2.24 -8711.03 -14697.76)" x1="-10678.75" x2="-10608.41" xlink:href="#a" y1="-7203.39" y2="-7203.4"/><linearGradient id="f" gradientTransform="matrix(-.44 .11 -.55 -2.24 -9073.69 -14680.1)" x1="-12419.39" x2="-12347.14" xlink:href="#a" y1="-7260.62" y2="-7260.63"/><linearGradient id="g" gradientUnits="userSpaceOnUse" x1="371.89" x2="371.89" y1="147.4" y2="190.03"><stop offset="0" stop-color="#02e49b"/><stop offset="1" stop-color="#02e49b" stop-opacity=".38"/></linearGradient><linearGradient id="h" x1="380.02" x2="380.02" xlink:href="#g" y1="178.83" y2="203.14"/><linearGradient id="i" x1="402.07" x2="402.07" xlink:href="#g" y1="158.39" y2="191.37"/><linearGradient id="j" gradientUnits="userSpaceOnUse" x1="338.97" x2="407.79" y1="361.87" y2="333.6"><stop offset=".09" stop-color="#02e49b" stop-opacity="0"/><stop offset=".43" stop-color="#02e49b" stop-opacity=".38"/><stop offset="1" stop-color="#02e49b"/></linearGradient><linearGradient id="k" gradientUnits="userSpaceOnUse" x1="181.72" x2="197.4" y1="46.88" y2="58.69"><stop offset="0" stop-color="#02e49b"/><stop offset="1" stop-color="#02e49b" stop-opacity="0"/></linearGradient><linearGradient id="l" x1="258.12" x2="239.48" xlink:href="#k" y1="45.54" y2="52.51"/><linearGradient id="m" x1="220.12" x2="220.12" xlink:href="#k" y1="26.95" y2="50.76"/><linearGradient id="n" gradientTransform="matrix(1 0 0 -1 0 2674.36)" x1="219.55" x2="219.55" xlink:href="#k" y1="2563.85" y2="2588.39"/><linearGradient id="o" x1="181.62" x2="203.45" xlink:href="#k" y1="89.49" y2="76.4"/><linearGradient id="p" x1="258.23" x2="239.43" xlink:href="#k" y1="89.7" y2="77.58"/><linearGradient id="q" gradientUnits="userSpaceOnUse" x1="79.75" x2="41.36" y1="317.06" y2="372.09"><stop offset=".13" stop-color="#02e49b" stop-opacity="0"/><stop offset=".43" stop-color="#02e49b" stop-opacity=".38"/><stop offset="1" stop-color="#02e49b"/></linearGradient><linearGradient id="r" gradientUnits="userSpaceOnUse" x1="62.2" x2="62.2" y1="135.21" y2="150.07"><stop offset="0" stop-color="#02e49b" stop-opacity="0"/><stop offset="1" stop-color="#02e49b"/></linearGradient><linearGradient id="s" x1="33.21" x2="33.21" xlink:href="#r" y1="142.87" y2="177.64"/><linearGradient id="t" x1="74.01" x2="74.01" xlink:href="#r" y1="158.73" y2="193.5"/><path d="m114.59 132.28 104.9-63.47" fill="none" opacity=".38" stroke="url(#a)" stroke-miterlimit="10" stroke-width="10"/><path d="m333.04 131.3-113.56-62.49" fill="none" opacity=".38" stroke="url(#b)" stroke-miterlimit="10" stroke-width="10"/><path d="m161 36.7-.34 63.13a4.64 4.64 0 0 0 2.29 4l53.75 31.45a4.65 4.65 0 0 0 4.58.05l54.57-30.33a4.62 4.62 0 0 0 2.38-4l.11-63.64a4.61 4.61 0 0 0 -2.3-4l-53.9-31.36a4.6 4.6 0 0 0 -4.61 0l-54.23 30.7a4.64 4.64 0 0 0 -2.3 4z" fill="#2b393f"/><path d="m214.78 436.61-155.87-89.35" fill="none" opacity=".38" stroke="url(#c)" stroke-miterlimit="10" stroke-width="10"/><path d="m214.78 436.61 165.17-89.39" fill="none" opacity=".38" stroke="url(#d)" stroke-miterlimit="10" stroke-width="10"/><path d="m58.86 220.34.05 126.92" fill="none" opacity=".38" stroke="url(#e)" stroke-miterlimit="10" stroke-width="10"/><path d="m380.09 220.34-.14 126.88" fill="none" opacity=".38" stroke="url(#f)" stroke-miterlimit="10" stroke-width="10"/><path d="m322.12 127.72-.34 63.13a4.62 4.62 0 0 0 2.29 4l53.75 31.45a4.65 4.65 0 0 0 4.58.05l54.6-30.35a4.62 4.62 0 0 0 2.38-4l.11-63.64a4.61 4.61 0 0 0 -2.3-4l-53.9-31.36a4.61 4.61 0 0 0 -4.6 0l-54.23 30.75a4.61 4.61 0 0 0 -2.34 3.97z" fill="#2b393f"/><path d="m.34 315.28-.34 63.13a4.6 4.6 0 0 0 2.29 4l53.71 31.46a4.65 4.65 0 0 0 4.58.05l54.62-30.34a4.62 4.62 0 0 0 2.38-4l.11-63.64a4.63 4.63 0 0 0 -2.3-4l-53.88-31.38a4.63 4.63 0 0 0 -4.6 0l-54.23 30.73a4.59 4.59 0 0 0 -2.34 3.99z" fill="#2b393f"/><path d="m322.12 315.33-.34 63.12a4.63 4.63 0 0 0 2.29 4l53.75 31.44a4.62 4.62 0 0 0 4.58.06l54.6-30.33a4.59 4.59 0 0 0 2.38-4l.11-63.65a4.59 4.59 0 0 0 -2.3-4l-53.91-31.33a4.61 4.61 0 0 0 -4.6 0l-54.23 30.75a4.63 4.63 0 0 0 -2.33 3.94z" fill="#2b393f"/><path d="m.39 127.08-.34 63.12a4.65 4.65 0 0 0 2.29 4l53.74 31.44a4.61 4.61 0 0 0 4.59.05l54.61-30.34a4.61 4.61 0 0 0 2.38-4l.11-63.65a4.6 4.6 0 0 0 -2.3-4l-53.91-31.34a4.61 4.61 0 0 0 -4.6 0l-54.23 30.72a4.63 4.63 0 0 0 -2.34 4z" fill="#2b393f"/><path d="m363.71 143.76 16.36 9.17v40.6l-10.81-6.42-5.55-3.49" fill="url(#g)" opacity=".38"/><path d="m371.84 176.76 16.36 9.17v14.55l-8.09 4.67-8.27-4.65" fill="url(#h)" opacity=".38"/><path d="m380.63 116.9 4.63 2.68a.7.7 0 0 1 .35.6v5.38a.34.34 0 0 1 -.52.3l-4.65-2.68a.71.71 0 0 1 -.35-.61v-5.37a.34.34 0 0 1 .54-.3z" fill="#00bd9b"/><path d="m364.4 183.2 15.25 8.86a.91.91 0 0 1 .46.8v12.28l-16.44-9.46v-12.06a.49.49 0 0 1 .73-.42z" fill="#02e49b"/><path d="m379.41 153.54-15.2-8.81a.92.92 0 0 1 -.47-.8v-17.59a.47.47 0 0 1 .7-.4l15.21 8.8a.94.94 0 0 1 .46.81v17.58a.47.47 0 0 1 -.7.41z" fill="#02e49b"/><path d="m352.79 149.74-5.09-3a.3.3 0 0 1 -.15-.26v-5.88a.16.16 0 0 1 .23-.14l5.09 3a.3.3 0 0 1 .15.26v5.88a.16.16 0 0 1 -.23.14z" fill="#00bd9b"/><path d="m394.46 191 4.82 2.8a.33.33 0 0 1 .15.27l-2.73 1.5-2.61 1.6a.32.32 0 0 1 -.16-.27v-5.6a.36.36 0 0 1 .53-.3z" fill="#00bd9b"/><path d="m393.88 155.58 16.37 9.17v22.99l-10.82 6.35-5.55-1.47" fill="url(#i)" opacity=".38"/><path d="m409.55 165.15-15.2-8.8a.94.94 0 0 1 -.47-.81v-17.54a.46.46 0 0 1 .7-.4l15.21 8.8a.93.93 0 0 1 .46.8v17.59a.47.47 0 0 1 -.7.36z" fill="#02e49b"/><path d="m386.53 207.72 34.13-19.72a.34.34 0 0 0 0-.6l-40.2-23.22a.73.73 0 0 0 -.7 0l-40.2 23.22a.35.35 0 0 0 0 .6l34 19.63 6.46 3.58a.7.7 0 0 0 .7 0zm23.23-19.65-29.3 16.87a.68.68 0 0 1 -.7 0l-29.3-16.87a.36.36 0 0 1 0-.61l29.3-16.92a.73.73 0 0 1 .7 0l29.3 16.92a.35.35 0 0 1 0 .61z" fill="#d9dbdc"/><path d="m355.91 172.28 4.63 2.68a.72.72 0 0 1 .35.6v5.38a.35.35 0 0 1 -.52.3l-4.65-2.69a.68.68 0 0 1 -.35-.6v-5.37a.34.34 0 0 1 .54-.3z" fill="#00bd9b"/><path d="m389.43 161.77 4.63 2.69a.68.68 0 0 1 .35.6v5.37a.34.34 0 0 1 -.52.3l-4.65-2.68a.71.71 0 0 1 -.35-.61v-5.37a.35.35 0 0 1 .54-.3z" fill="#00bd9b"/><path d="m387.6 187.05-15.21-8.8a.92.92 0 0 1 -.46-.81v-17.58a.46.46 0 0 1 .7-.4l15.2 8.8a.92.92 0 0 1 .46.8v17.59a.46.46 0 0 1 -.69.4z" fill="#02e49b"/><path d="m391.74 316.07-4.57-2.65a.34.34 0 0 0 -.51.29v5.29a.68.68 0 0 0 .34.59l-.32.17a.71.71 0 0 0 -.34-.58l-4.57-2.65a.34.34 0 0 0 -.52.29l.13 33.52a.7.7 0 0 1 -.34.6l-18.69 10.79a.34.34 0 0 0 0 .6l4.38 2.45a.34.34 0 0 1 0 .6l-3.84 2.21a.35.35 0 0 0 0 .6l34.35 19.81a.71.71 0 0 0 .69 0l23.68-13.65a.68.68 0 0 0 .34-.59v-41z" fill="#d9dbdc"/><path d="m386.98 319.6 29.62 17.46-35.24 60.09-40.86-23.44.03-65.17z" fill="url(#j)" opacity=".38"/><path d="m381.57 310.31 4.59 2.65a.34.34 0 0 0 .52-.3v-5.3a.68.68 0 0 0 -.34-.59l-4.57-2.65a.34.34 0 0 0 -.52.29v5.31a.68.68 0 0 0 .32.59z" fill="#d9dbdc"/><path d="m416.6 337.06v27.26a.34.34 0 0 1 -.51.3l-29.09-16.78a.71.71 0 0 1 -.35-.6v-27.84l29.61 17.06a.69.69 0 0 1 .34.6z" fill="#00bd9b"/><path d="m373.06 335-9.54-5.52a1 1 0 0 1 -.5-.86v-14.25a.5.5 0 0 1 .75-.44l7.41 4.29 2.63 5.55v10.76a.5.5 0 0 1 -.75.47z" fill="#02e49b"/><path d="m371.18 318.22-.06 3.67a.56.56 0 0 0 .29.49l2.4 1.39" fill="#02e49b"/><path d="m412.45 368.58-6.57-3.8a.68.68 0 0 1 -.34-.59v-9.79a.34.34 0 0 1 .52-.29l5.1 2.95 1.8 3.82v7.4a.34.34 0 0 1 -.51.3z" fill="#02e49b"/><path d="m411.16 357.06v2.52a.39.39 0 0 0 .19.34l1.65 1" fill="#02e49b"/><path d="m399.55 334.22-2.33-1.38a.36.36 0 0 1 -.17-.3v-1.26a.18.18 0 0 1 .26-.15l2.34 1.38a.37.37 0 0 1 .16.3v1.26a.17.17 0 0 1 -.26.15z" fill="#00bd9b"/><path d="m391.3 340.74-.95-.57a.32.32 0 0 1 -.17-.29v-1.26a.17.17 0 0 1 .26-.15l.95.56a.34.34 0 0 1 .17.3v1.26a.17.17 0 0 1 -.26.15z" fill="#00bd9b"/><path d="m352.16 368.16 4.48 2.61a.71.71 0 0 0 .69 0l4-2.34a.34.34 0 0 0 0-.59l-4.57-2.56a.69.69 0 0 0 -.68 0l-3.95 2.28a.35.35 0 0 0 .03.6z" fill="#d9dbdc"/><path d="m380.71 361-6.56-3.8a.68.68 0 0 1 -.34-.59v-9.79a.34.34 0 0 1 .51-.29l5.1 2.95 1.81 3.82v7.4a.35.35 0 0 1 -.52.3z" fill="#02e49b"/><path d="m379.42 349.5v2.52a.4.4 0 0 0 .2.34l1.65 1" fill="#02e49b"/><path d="m380.71 397.1-6.56-3.8a.69.69 0 0 1 -.34-.6v-9.78a.34.34 0 0 1 .51-.3l5.1 2.95 1.81 3.82v7.41a.35.35 0 0 1 -.52.3z" fill="#02e49b"/><path d="m379.42 385.57v2.53a.4.4 0 0 0 .2.34l1.65.95" fill="#02e49b"/><path d="m350.72 379.71-9.54-5.52a1 1 0 0 1 -.5-.87v-14.21a.5.5 0 0 1 .75-.43l7.41 4.29 2.63 5.55v10.75a.5.5 0 0 1 -.75.44z" fill="#02e49b"/><path d="m348.84 363-.06 3.66a.57.57 0 0 0 .29.5l2.4 1.39" fill="#02e49b"/><path d="m179.22 45.57 4.37-.35 18.6 8.52-4.82 13.48z" fill="url(#k)" opacity=".38"/><path d="m260.15 45.44-4.64 8.82-13.02 5.15-10.76-12.03z" fill="url(#l)" opacity=".38"/><circle cx="220.08" cy="68.69" fill="#d9dbdc" r="24.29"/><path d="m214.75 24.92 10.8.29 3.03 27.51h-16.92z" fill="url(#m)" opacity=".38"/><path d="m214.25 112.49 10.56.12 3.19-28.65h-16.91z" fill="url(#n)" opacity=".38"/><path d="m184.33 95.24-5.17-8.97 22.35-17.5 7.74 12.94z" fill="url(#o)" opacity=".38"/><path d="m184.06 95.21-4.66-2.7a.69.69 0 0 1 -.35-.6v-5.39a.35.35 0 0 1 .52-.3l4.66 2.7a.68.68 0 0 1 .35.6v5.39a.35.35 0 0 1 -.52.3z" fill="#00bd9b"/><path d="m214.44 112.74 4.95 2.88a.76.76 0 0 0 .76 0l4.47-2.58a.39.39 0 0 0 0-.67l-5.06-2.82a.75.75 0 0 0 -.75 0l-4.37 2.52a.38.38 0 0 0 0 .67z" fill="#02e49b"/><path d="m255.64 54.21 4.43-2.56a.85.85 0 0 0 .42-.74v-5.12a.34.34 0 0 0 -.51-.3l-4.43 2.57a.83.83 0 0 0 -.43.73v5.13a.34.34 0 0 0 .52.29z" fill="#00bd9b"/><path d="m179.36 45.73 1.95 1.14a.71.71 0 0 0 .69 0l1.71-1a.35.35 0 0 0 0-.6l-2-1.11a.71.71 0 0 0 -.69 0l-1.67 1a.34.34 0 0 0 .01.57z" fill="#02e49b"/><path d="m260.27 89.24-19.69-19.97-8.34 12.74 25.55 11.68z" fill="url(#p)" opacity=".38"/><path d="m214.87 25.22 5.15 3a.71.71 0 0 0 .69 0l4.66-2.69a.34.34 0 0 0 0-.6l-5.26-2.93a.69.69 0 0 0 -.68 0l-4.56 2.63a.35.35 0 0 0 0 .59z" fill="#02e49b"/><path d="m258.13 93.69 2-1.18a.69.69 0 0 0 .34-.6v-2.34a.34.34 0 0 0 -.52-.3l-2 1.17a.69.69 0 0 0 -.35.6v2.35a.35.35 0 0 0 .53.3z" fill="#02e49b"/><path d="m189.09 232.07v45.92l29.82 10.7v-46.3l32.23-11.88-29.25-10.48z" fill="#00e599"/><path d="m221.33 243.71v25.12l29.82 10.68-.01-46.82z" fill="#00af92"/><path d="m99.12 305.17v52.04l-28.4 15.99-.04-13.21-30.03-17.41.01-37.41z" fill="url(#q)" opacity=".38"/><path d="m70.72 373.2 17.28-9.69a.69.69 0 0 0 -.18-1.08l-17.14-9.1z" fill="#d9dbdc"/><path d="m17.84 375 4.64 2.7a.7.7 0 0 0 .71 0l4.2-2.42a.35.35 0 0 0 0-.6l-4.75-2.66a.75.75 0 0 0 -.71 0l-4.09 2.37a.36.36 0 0 0 0 .61z" fill="#d9dbdc"/><path d="m34.34 364.16 4.63 2.7a.71.71 0 0 0 .72 0l4.2-2.43a.34.34 0 0 0 0-.59l-4.75-2.66a.73.73 0 0 0 -.7 0l-4.09 2.36a.36.36 0 0 0 -.01.62z" fill="#d9dbdc"/><path d="m45.63 366.34 4.63 2.7a.76.76 0 0 0 .72 0l4.2-2.43a.35.35 0 0 0 0-.6l-4.76-2.65a.68.68 0 0 0 -.7 0l-4.09 2.36a.36.36 0 0 0 0 .62z" fill="#d9dbdc"/><path d="m53.13 379.41 4.63 2.7a.71.71 0 0 0 .72 0l4.2-2.42a.34.34 0 0 0 0-.6l-4.75-2.66a.73.73 0 0 0 -.7 0l-4.09 2.36a.36.36 0 0 0 -.01.62z" fill="#d9dbdc"/><path d="m48.29 393.08 8.92 5.19a1.39 1.39 0 0 0 1.38 0l8-4.65a.69.69 0 0 0 0-1.2l-9.11-5.09a1.37 1.37 0 0 0 -1.36 0l-7.87 4.54a.69.69 0 0 0 .04 1.21z" fill="#d9dbdc"/><path d="m70.18 380.47 4.63 2.7a.71.71 0 0 0 .72 0l4.2-2.42a.34.34 0 0 0 0-.6l-4.73-2.66a.7.7 0 0 0 -.7 0l-4.09 2.36a.35.35 0 0 0 -.03.62z" fill="#d9dbdc"/><path d="m89.3 375.29 4.63 2.7a.7.7 0 0 0 .71 0l4.2-2.42a.34.34 0 0 0 0-.6l-4.75-2.66a.7.7 0 0 0 -.7 0l-4.09 2.36a.35.35 0 0 0 0 .62z" fill="#d9dbdc"/><circle cx="58.48" cy="342.14" fill="#02e49b" r="10.56"/><g fill="#00bd9b"><circle cx="58.86" cy="315.73" r="10.56"/><path d="m57.24 366 8.61 4.94 3.91 2.24a.63.63 0 0 0 1-.55v-21.15a1.23 1.23 0 0 0 -.6-1l-28.57-16.48a.63.63 0 0 0 -1 .55v21.25a1.2 1.2 0 0 0 .6 1l3.93 2.25a.34.34 0 0 0 .52-.29v-5.08a.35.35 0 0 1 .52-.3l4.55 2.64a.69.69 0 0 1 .35.59v5.47"/><path d="m18 375.16 4.59 2.65a.35.35 0 0 0 .52-.3v-5.3a.68.68 0 0 0 -.34-.59l-4.59-2.62a.34.34 0 0 0 -.51.29v5.31a.68.68 0 0 0 .33.56z"/><path d="m45.8 366.44 4.59 2.65a.34.34 0 0 0 .51-.3v-5.3a.67.67 0 0 0 -.34-.59l-4.56-2.66a.35.35 0 0 0 -.52.3v5.3a.68.68 0 0 0 .32.6z"/><path d="m48.42 393.21 9 5.23a.68.68 0 0 0 1-.59v-10.46a1.34 1.34 0 0 0 -.68-1.16l-9-5.23a.68.68 0 0 0 -1 .59v10.41a1.35 1.35 0 0 0 .68 1.21z"/><path d="m51.12 356.27v5.85a.67.67 0 0 0 .35.59l5.25 3 2.8 1.61a.35.35 0 0 0 .52-.3v-5"/><path d="m70.35 380.57 4.59 2.65a.34.34 0 0 0 .51-.3v-5.3a.68.68 0 0 0 -.34-.59l-4.57-2.65a.34.34 0 0 0 -.52.29v5.33a.67.67 0 0 0 .33.57z"/><path d="m53.3 379.51 4.59 2.65a.34.34 0 0 0 .51-.3v-5.3a.67.67 0 0 0 -.4-.56l-4.57-2.65a.34.34 0 0 0 -.52.29v5.3a.68.68 0 0 0 .39.57z"/><path d="m34.51 364.27 4.59 2.65a.34.34 0 0 0 .51-.3v-5.3a.67.67 0 0 0 -.34-.59l-4.57-2.65a.34.34 0 0 0 -.52.29v5.31a.67.67 0 0 0 .33.59z"/><path d="m89.46 375.39 4.59 2.61a.35.35 0 0 0 .52-.3v-5.3a.67.67 0 0 0 -.35-.59l-4.56-2.65a.34.34 0 0 0 -.52.29v5.31a.68.68 0 0 0 .32.63z"/></g><path d="m46.61 156.81 12.58-7.28.53.93-11 6.36a.35.35 0 0 0 0 .6l5.21 3-.54.94-6.77-3.84a.41.41 0 0 1 0-.71z" fill="#d9dbdc"/><path d="m70.94 141.54a1.75 1.75 0 0 1 1.71.1.33.33 0 0 0 .37 0l3.54-2.34a.71.71 0 0 1 .73 0l7.41 4.3-.55.94-6.84-4a.65.65 0 0 0 -.72 0l-3.18 2.09a.37.37 0 0 0 -.15.28 1.88 1.88 0 0 1 -.86 1.41 1.8 1.8 0 0 1 -1.94.09.34.34 0 0 0 -.34 0l-6.38 3.68-.54-.93 6.4-3.69a.33.33 0 0 0 .17-.28 1.53 1.53 0 0 1 0-.3.34.34 0 0 0 -.17-.35l-13.9-8 .54-.94 14 7.89a.7.7 0 0 0 .7.05z" fill="#d9dbdc"/><path d="m46.45 161.24h1.07v14.54h-1.07z" fill="#d9dbdc" transform="matrix(-.5 -.8660254 .8660254 -.5 -75.46 293.45)"/><path d="m61.76 121.95h1.07v13.42h-1.07z" fill="#d9dbdc" transform="matrix(-.5 -.8660254 .8660254 -.5 -17.97 246.93)"/><path d="m37.16 134.52h1.07v13.42h-1.07z" fill="#d9dbdc" transform="matrix(-.5 -.8660254 .8660254 -.5 -65.77 244.49)"/><path d="m63.33 125.44 4.84 2.81a.63.63 0 0 0 .65 0l4.38-2.53a.32.32 0 0 0 0-.56l-4.86-2.81a.64.64 0 0 0 -.64 0l-4.37 2.53a.31.31 0 0 0 0 .56z" fill="#00bd9b"/><path d="m30.8 132.12 16.2 9.45a1.38 1.38 0 0 0 1.39 0l14.77-8.52a.7.7 0 0 0 0-1.21l-16.56-9.26a1.39 1.39 0 0 0 -1.37 0l-14.43 8.35a.69.69 0 0 0 0 1.19z" fill="#02e49b"/><path d="m56.86 149 5.19 3a.68.68 0 0 0 .7 0l4.69-2.71a.34.34 0 0 0 0-.6l-5.3-3a.71.71 0 0 0 -.69 0l-4.59 2.65a.35.35 0 0 0 0 .66z" fill="#02e49b"/><path d="m76.75 145.84 10 5.85a1.38 1.38 0 0 0 1.39 0l9.09-5.25a.7.7 0 0 0 0-1.21l-10.23-5.73a1.39 1.39 0 0 0 -1.37 0l-8.88 5.13a.69.69 0 0 0 0 1.21z" fill="#00bd9b"/><path d="m37 187.72 6.56-3.79a.69.69 0 0 0 0-1.19l-4.45-2.59-1 .64 3.9 2.28a.35.35 0 0 1 0 .6l-6.55 3.79a.69.69 0 0 0 0 1.2l11.21 6.61 1.09-.63-10.76-6.32a.35.35 0 0 1 0-.6z" fill="#d9dbdc"/><path d="m16.52 174.13 16.21 9.44a1.4 1.4 0 0 0 1.4 0l14.76-8.52a.7.7 0 0 0 0-1.21l-16.55-9.26a1.42 1.42 0 0 0 -1.37 0l-14.44 8.34a.69.69 0 0 0 -.01 1.21z" fill="#02e49b"/><path d="m67.27 195.2-1.06-.63-9.15 5.36a.33.33 0 0 1 -.36 0l-4.88-2.87-1.08.62 5.77 3.4a.7.7 0 0 0 .7 0l.73-.43z" fill="#d9dbdc"/><path d="m57.48 190.43 16.21 9.45a1.38 1.38 0 0 0 1.39 0l14.77-8.53a.69.69 0 0 0 0-1.2l-16.55-9.26a1.37 1.37 0 0 0 -1.37 0l-14.44 8.33a.69.69 0 0 0 -.01 1.21z" fill="#02e49b"/><path d="m62.42 134a.62.62 0 0 1 -.63 0l-2.44 1.23.11 13.45a.36.36 0 0 0 .17.31l2.44 1.41a.35.35 0 0 0 .36 0l2.45-1.4a.38.38 0 0 0 .17-.3l-.05-13.41z" fill="url(#r)" opacity=".38"/><ellipse cx="31.14" cy="145.02" fill="none" rx="1.39" ry="1.22" stroke="#d9dbdc" stroke-miterlimit="10" stroke-width="3" transform="matrix(.83561567 -.54931454 .54931454 .83561567 -74.55 40.95)"/><path d="m63.43 163.78h1.09v7.41h-1.09z" fill="#d9dbdc" transform="matrix(-.5 .8660254 -.8660254 -.5 241.01 195.84)"/><path d="m46.77 163.15 10 5.86a1.38 1.38 0 0 0 1.39 0l9.09-5.25a.69.69 0 0 0 0-1.2l-10.25-5.74a1.39 1.39 0 0 0 -1.37 0l-8.86 5.18a.69.69 0 0 0 0 1.15z" fill="#00bd9b"/><ellipse cx="68.27" cy="169.97" fill="none" rx="1.39" ry="1.22" stroke="#d9dbdc" stroke-miterlimit="10" stroke-width="3" transform="matrix(.83561567 -.54931454 .54931454 .83561567 -82.15 65.45)"/><path d="m33.73 140.07a1.51 1.51 0 0 1 -1.5 0l-5.68 2.86.23 31.49a.81.81 0 0 0 .41.7l5.7 3.31a.82.82 0 0 0 .85 0l5.72-3.24a.79.79 0 0 0 .41-.7l-.24-31.4z" fill="url(#s)" opacity=".38"/><path d="m74.53 155.93a1.47 1.47 0 0 1 -1.49 0l-5.69 2.87.24 31.49a.8.8 0 0 0 .4.7l5.71 3.31a.81.81 0 0 0 .84 0l5.73-3.3a.82.82 0 0 0 .41-.7l-.24-31.4z" fill="url(#t)" opacity=".38"/><path d="m43.94 196.17 5.2 3a.71.71 0 0 0 .69 0l4.7-2.71a.36.36 0 0 0 0-.61l-5.31-3a.69.69 0 0 0 -.68 0l-4.54 2.72a.35.35 0 0 0 -.06.6z" fill="#00bd9b"/></svg>