<svg id="Layer_1" data-name="Layer 1" xmlns="http://www.w3.org/2000/svg" xmlns:xlink="http://www.w3.org/1999/xlink" viewBox="0 0 440 440"><defs><style>.cls-1,.cls-2,.cls-25,.cls-4,.cls-5,.cls-6,.cls-7{fill:none;stroke-miterlimit:10;}.cls-1,.cls-2,.cls-4,.cls-5,.cls-6,.cls-7{stroke-width:10px;}.cls-1,.cls-12,.cls-14,.cls-15,.cls-16,.cls-17,.cls-18,.cls-19,.cls-2,.cls-20,.cls-23,.cls-24,.cls-26,.cls-27,.cls-4,.cls-5,.cls-6,.cls-7,.cls-8,.cls-9{opacity:0.38;}.cls-1{stroke:url(#linear-gradient);}.cls-2{stroke:url(#linear-gradient-2);}.cls-3{fill:#2b393f;}.cls-4{stroke:url(#linear-gradient-3);}.cls-5{stroke:url(#linear-gradient-4);}.cls-6{stroke:url(#linear-gradient-5);}.cls-7{stroke:url(#linear-gradient-6);}.cls-8{fill:url(#linear-gradient-7);}.cls-9{fill:url(#linear-gradient-8);}.cls-10{fill:#00bd9b;}.cls-11{fill:#02e49b;}.cls-12{fill:url(#linear-gradient-9);}.cls-13{fill:#d9dbdc;}.cls-14{fill:url(#linear-gradient-10);}.cls-15{fill:url(#linear-gradient-11);}.cls-16{fill:url(#linear-gradient-12);}.cls-17{fill:url(#linear-gradient-13);}.cls-18{fill:url(#linear-gradient-14);}.cls-19{fill:url(#linear-gradient-15);}.cls-20{fill:url(#linear-gradient-16);}.cls-21{fill:#00e599;}.cls-22{fill:#00af92;}.cls-23{fill:url(#linear-gradient-17);}.cls-24{fill:url(#linear-gradient-18);}.cls-25{stroke:#d9dbdc;stroke-width:3px;}.cls-26{fill:url(#linear-gradient-19);}.cls-27{fill:url(#linear-gradient-20);}</style><linearGradient id="linear-gradient" x1="5271.74" y1="-2411.39" x2="5303.32" y2="-2519.09" gradientTransform="translate(-5553.16 1247.16) rotate(13.66)" gradientUnits="userSpaceOnUse"><stop offset="0" stop-color="#02e49b" stop-opacity="0.38"/><stop offset="1" stop-color="#02e49b"/></linearGradient><linearGradient id="linear-gradient-2" x1="-10991.96" y1="1543.04" x2="-10959.3" y2="1431.65" gradientTransform="matrix(-0.97, 0.24, 0.24, 0.97, -10740.13, 1247.16)" xlink:href="#linear-gradient"/><linearGradient id="linear-gradient-3" x1="-6693.46" y1="5283.77" x2="-6624.75" y2="5283.93" gradientTransform="matrix(-2.13, 0.52, 0.14, 0.6, -14783.18, 681.76)" gradientUnits="userSpaceOnUse"><stop offset="0.07" stop-color="#02e49b" stop-opacity="0"/><stop offset="0.31" stop-color="#02e49b" stop-opacity="0.38"/><stop offset="1" stop-color="#02e49b"/></linearGradient><linearGradient id="linear-gradient-4" x1="609.63" y1="954.97" x2="783.71" y2="954.87" gradientTransform="matrix(0.97, -0.02, -0.02, 0.9, -361.04, -460.12)" gradientUnits="userSpaceOnUse"><stop offset="0.06" stop-color="#02e49b" stop-opacity="0"/><stop offset="0.31" stop-color="#02e49b" stop-opacity="0.38"/><stop offset="1" stop-color="#02e49b"/></linearGradient><linearGradient id="linear-gradient-5" x1="-10678.75" y1="-7203.39" x2="-10608.41" y2="-7203.4" gradientTransform="matrix(-0.45, 0.11, -0.55, -2.24, -8711.03, -14697.76)" xlink:href="#linear-gradient"/><linearGradient id="linear-gradient-6" x1="-12419.39" y1="-7260.62" x2="-12347.14" y2="-7260.63" gradientTransform="matrix(-0.44, 0.11, -0.55, -2.24, -9073.69, -14680.1)" xlink:href="#linear-gradient"/><linearGradient id="linear-gradient-7" x1="371.89" y1="147.4" x2="371.89" y2="190.03" gradientUnits="userSpaceOnUse"><stop offset="0" stop-color="#02e49b"/><stop offset="1" stop-color="#02e49b" stop-opacity="0.38"/></linearGradient><linearGradient id="linear-gradient-8" x1="380.02" y1="178.83" x2="380.02" y2="203.14" xlink:href="#linear-gradient-7"/><linearGradient id="linear-gradient-9" x1="402.07" y1="158.39" x2="402.07" y2="191.37" xlink:href="#linear-gradient-7"/><linearGradient id="linear-gradient-10" x1="338.97" y1="361.87" x2="407.79" y2="333.6" gradientUnits="userSpaceOnUse"><stop offset="0.09" stop-color="#02e49b" stop-opacity="0"/><stop offset="0.43" stop-color="#02e49b" stop-opacity="0.38"/><stop offset="1" stop-color="#02e49b"/></linearGradient><linearGradient id="linear-gradient-11" x1="181.72" y1="46.88" x2="197.4" y2="58.69" gradientUnits="userSpaceOnUse"><stop offset="0" stop-color="#02e49b"/><stop offset="1" stop-color="#02e49b" stop-opacity="0"/></linearGradient><linearGradient id="linear-gradient-12" x1="258.12" y1="45.54" x2="239.48" y2="52.51" xlink:href="#linear-gradient-11"/><linearGradient id="linear-gradient-13" x1="220.12" y1="26.95" x2="220.12" y2="50.76" xlink:href="#linear-gradient-11"/><linearGradient id="linear-gradient-14" x1="219.55" y1="2563.85" x2="219.55" y2="2588.39" gradientTransform="matrix(1, 0, 0, -1, 0, 2674.36)" xlink:href="#linear-gradient-11"/><linearGradient id="linear-gradient-15" x1="181.62" y1="89.49" x2="203.45" y2="76.4" xlink:href="#linear-gradient-11"/><linearGradient id="linear-gradient-16" x1="258.23" y1="89.7" x2="239.43" y2="77.58" xlink:href="#linear-gradient-11"/><linearGradient id="linear-gradient-17" x1="79.75" y1="317.06" x2="41.36" y2="372.09" gradientUnits="userSpaceOnUse"><stop offset="0.13" stop-color="#02e49b" stop-opacity="0"/><stop offset="0.43" stop-color="#02e49b" stop-opacity="0.38"/><stop offset="1" stop-color="#02e49b"/></linearGradient><linearGradient id="linear-gradient-18" x1="62.2" y1="135.21" x2="62.2" y2="150.07" gradientUnits="userSpaceOnUse"><stop offset="0" stop-color="#02e49b" stop-opacity="0"/><stop offset="1" stop-color="#02e49b"/></linearGradient><linearGradient id="linear-gradient-19" x1="33.21" y1="142.87" x2="33.21" y2="177.64" xlink:href="#linear-gradient-18"/><linearGradient id="linear-gradient-20" x1="74.01" y1="158.73" x2="74.01" y2="193.5" xlink:href="#linear-gradient-18"/></defs><title>Artboard 30</title><line class="cls-1" x1="114.59" y1="132.28" x2="219.49" y2="68.81"/><line class="cls-2" x1="333.04" y1="131.3" x2="219.48" y2="68.81"/><path class="cls-3" d="M161,36.7l-.34,63.13a4.64,4.64,0,0,0,2.29,4l53.75,31.45a4.65,4.65,0,0,0,4.58.05L275.85,105a4.62,4.62,0,0,0,2.38-4l.11-63.64a4.61,4.61,0,0,0-2.3-4L222.14,2a4.6,4.6,0,0,0-4.61,0L163.3,32.7A4.64,4.64,0,0,0,161,36.7Z"/><line class="cls-4" x1="214.78" y1="436.61" x2="58.91" y2="347.26"/><line class="cls-5" x1="214.78" y1="436.61" x2="379.95" y2="347.22"/><line class="cls-6" x1="58.86" y1="220.34" x2="58.91" y2="347.26"/><line class="cls-7" x1="380.09" y1="220.34" x2="379.95" y2="347.22"/><path class="cls-3" d="M322.12,127.72l-.34,63.13a4.62,4.62,0,0,0,2.29,4l53.75,31.45a4.65,4.65,0,0,0,4.58.05L437,196a4.62,4.62,0,0,0,2.38-4l.11-63.64a4.61,4.61,0,0,0-2.3-4L383.29,93a4.61,4.61,0,0,0-4.6,0l-54.23,30.75A4.61,4.61,0,0,0,322.12,127.72Z"/><path class="cls-3" d="M.34,315.28,0,378.41a4.6,4.6,0,0,0,2.29,4L56,413.87a4.65,4.65,0,0,0,4.58.05l54.62-30.34a4.62,4.62,0,0,0,2.38-4l.11-63.64a4.63,4.63,0,0,0-2.3-4L61.51,280.56a4.63,4.63,0,0,0-4.6,0L2.68,311.29A4.59,4.59,0,0,0,.34,315.28Z"/><path class="cls-3" d="M322.12,315.33l-.34,63.12a4.63,4.63,0,0,0,2.29,4l53.75,31.44a4.62,4.62,0,0,0,4.58.06L437,383.62a4.59,4.59,0,0,0,2.38-4l.11-63.65a4.59,4.59,0,0,0-2.3-4l-53.91-31.33a4.61,4.61,0,0,0-4.6,0l-54.23,30.75A4.63,4.63,0,0,0,322.12,315.33Z"/><path class="cls-3" d="M.39,127.08.05,190.2a4.65,4.65,0,0,0,2.29,4l53.74,31.44a4.61,4.61,0,0,0,4.59.05l54.61-30.34a4.61,4.61,0,0,0,2.38-4l.11-63.65a4.6,4.6,0,0,0-2.3-4L61.56,92.36a4.61,4.61,0,0,0-4.6,0L2.73,123.08A4.63,4.63,0,0,0,.39,127.08Z"/><polyline class="cls-8" points="363.71 143.76 380.07 152.93 380.07 193.53 369.26 187.11 363.71 183.62"/><polyline class="cls-9" points="371.84 176.76 388.2 185.93 388.2 200.48 380.11 205.15 371.84 200.5"/><path class="cls-10" d="M380.63,116.9l4.63,2.68a.7.7,0,0,1,.35.6l0,5.38a.34.34,0,0,1-.52.3l-4.65-2.68a.71.71,0,0,1-.35-.61V117.2A.34.34,0,0,1,380.63,116.9Z"/><path class="cls-11" d="M364.4,183.2l15.25,8.86a.91.91,0,0,1,.46.8v12.28l-16.44-9.46V183.62A.49.49,0,0,1,364.4,183.2Z"/><path class="cls-11" d="M379.41,153.54l-15.2-8.81a.92.92,0,0,1-.47-.8V126.34a.47.47,0,0,1,.7-.4l15.21,8.8a.94.94,0,0,1,.46.81v17.58A.47.47,0,0,1,379.41,153.54Z"/><path class="cls-10" d="M352.79,149.74l-5.09-3a.3.3,0,0,1-.15-.26v-5.88a.16.16,0,0,1,.23-.14l5.09,3a.3.3,0,0,1,.15.26v5.88A.16.16,0,0,1,352.79,149.74Z"/><path class="cls-10" d="M394.46,191l4.82,2.8a.33.33,0,0,1,.15.27l-2.73,1.5-2.61,1.6a.32.32,0,0,1-.16-.27v-5.6A.36.36,0,0,1,394.46,191Z"/><polyline class="cls-12" points="393.88 155.58 410.25 164.75 410.25 187.74 399.43 194.09 393.88 192.62"/><path class="cls-11" d="M409.55,165.15l-15.2-8.8a.94.94,0,0,1-.47-.81V138a.46.46,0,0,1,.7-.4l15.21,8.8a.93.93,0,0,1,.46.8v17.59A.47.47,0,0,1,409.55,165.15Z"/><path class="cls-13" d="M386.53,207.72,420.66,188a.34.34,0,0,0,0-.6l-40.2-23.22a.73.73,0,0,0-.7,0l-40.2,23.22a.35.35,0,0,0,0,.6l34,19.63,6.46,3.58a.7.7,0,0,0,.7,0Zm23.23-19.65-29.3,16.87a.68.68,0,0,1-.7,0l-29.3-16.87a.36.36,0,0,1,0-.61l29.3-16.92a.73.73,0,0,1,.7,0l29.3,16.92A.35.35,0,0,1,409.76,188.07Z"/><path class="cls-10" d="M355.91,172.28l4.63,2.68a.72.72,0,0,1,.35.6l0,5.38a.35.35,0,0,1-.52.3l-4.65-2.69a.68.68,0,0,1-.35-.6v-5.37A.34.34,0,0,1,355.91,172.28Z"/><path class="cls-10" d="M389.43,161.77l4.63,2.69a.68.68,0,0,1,.35.6l0,5.37a.34.34,0,0,1-.52.3l-4.65-2.68a.71.71,0,0,1-.35-.61v-5.37A.35.35,0,0,1,389.43,161.77Z"/><path class="cls-11" d="M387.6,187.05l-15.21-8.8a.92.92,0,0,1-.46-.81V159.86a.46.46,0,0,1,.7-.4l15.2,8.8a.92.92,0,0,1,.46.8v17.59A.46.46,0,0,1,387.6,187.05Z"/><path class="cls-13" d="M391.74,316.07h0l-4.57-2.65a.34.34,0,0,0-.51.29V319a.68.68,0,0,0,.34.59l-.32.17a.71.71,0,0,0-.34-.58l-4.57-2.65a.34.34,0,0,0-.52.29l.13,33.52a.7.7,0,0,1-.34.6l-18.69,10.79a.34.34,0,0,0,0,.6l4.38,2.45a.34.34,0,0,1,0,.6l-3.84,2.21a.35.35,0,0,0,0,.6L397.24,388a.71.71,0,0,0,.69,0l23.68-13.65a.68.68,0,0,0,.34-.59v-41Z"/><polygon class="cls-14" points="386.98 319.6 416.6 337.06 381.36 397.15 340.5 373.71 340.53 308.54 386.98 319.6"/><path class="cls-13" d="M381.57,310.31l4.59,2.65a.34.34,0,0,0,.52-.3l0-5.3a.68.68,0,0,0-.34-.59l-4.57-2.65a.34.34,0,0,0-.52.29v5.31A.68.68,0,0,0,381.57,310.31Z"/><path class="cls-10" d="M416.6,337.06l0,27.26a.34.34,0,0,1-.51.3L387,347.84a.71.71,0,0,1-.35-.6V319.4l29.61,17.06A.69.69,0,0,1,416.6,337.06Z"/><path class="cls-11" d="M373.06,335l-9.54-5.52a1,1,0,0,1-.5-.86V314.37a.5.5,0,0,1,.75-.44l7.41,4.29,2.63,5.55v10.76A.5.5,0,0,1,373.06,335Z"/><path class="cls-11" d="M371.18,318.22l-.06,3.67a.56.56,0,0,0,.29.49l2.4,1.39"/><path class="cls-11" d="M412.45,368.58l-6.57-3.8a.68.68,0,0,1-.34-.59V354.4a.34.34,0,0,1,.52-.29l5.1,2.95,1.8,3.82v7.4A.34.34,0,0,1,412.45,368.58Z"/><path class="cls-11" d="M411.16,357.06l0,2.52a.39.39,0,0,0,.19.34l1.65,1"/><path class="cls-10" d="M399.55,334.22l-2.33-1.38a.36.36,0,0,1-.17-.3v-1.26a.18.18,0,0,1,.26-.15l2.34,1.38a.37.37,0,0,1,.16.3v1.26A.17.17,0,0,1,399.55,334.22Z"/><path class="cls-10" d="M391.3,340.74l-.95-.57a.32.32,0,0,1-.17-.29v-1.26a.17.17,0,0,1,.26-.15l.95.56a.34.34,0,0,1,.17.3v1.26A.17.17,0,0,1,391.3,340.74Z"/><path class="cls-13" d="M352.16,368.16l4.48,2.61a.71.71,0,0,0,.69,0l4-2.34a.34.34,0,0,0,0-.59l-4.57-2.56a.69.69,0,0,0-.68,0l-3.95,2.28A.35.35,0,0,0,352.16,368.16Z"/><path class="cls-11" d="M380.71,361l-6.56-3.8a.68.68,0,0,1-.34-.59v-9.79a.34.34,0,0,1,.51-.29l5.1,2.95,1.81,3.82v7.4A.35.35,0,0,1,380.71,361Z"/><path class="cls-11" d="M379.42,349.5l0,2.52a.4.4,0,0,0,.2.34l1.65,1"/><path class="cls-11" d="M380.71,397.1l-6.56-3.8a.69.69,0,0,1-.34-.6v-9.78a.34.34,0,0,1,.51-.3l5.1,2.95,1.81,3.82v7.41A.35.35,0,0,1,380.71,397.1Z"/><path class="cls-11" d="M379.42,385.57l0,2.53a.4.4,0,0,0,.2.34l1.65.95"/><path class="cls-11" d="M350.72,379.71l-9.54-5.52a1,1,0,0,1-.5-.87V359.11a.5.5,0,0,1,.75-.43l7.41,4.29,2.63,5.55v10.75A.5.5,0,0,1,350.72,379.71Z"/><path class="cls-11" d="M348.84,363l-.06,3.66a.57.57,0,0,0,.29.5l2.4,1.39"/><polygon class="cls-15" points="179.22 45.57 183.59 45.22 202.19 53.74 197.37 67.22 179.22 45.57"/><polygon class="cls-16" points="260.15 45.44 255.51 54.26 242.49 59.41 231.73 47.38 260.15 45.44"/><circle class="cls-13" cx="220.08" cy="68.69" r="24.29"/><polygon class="cls-17" points="214.75 24.92 225.55 25.21 228.58 52.72 211.66 52.72 214.75 24.92"/><polygon class="cls-18" points="214.25 112.49 224.81 112.61 228 83.96 211.09 83.96 214.25 112.49"/><polygon class="cls-19" points="184.33 95.24 179.16 86.27 201.51 68.77 209.25 81.71 184.33 95.24"/><path class="cls-10" d="M184.06,95.21l-4.66-2.7a.69.69,0,0,1-.35-.6V86.52a.35.35,0,0,1,.52-.3l4.66,2.7a.68.68,0,0,1,.35.6v5.39A.35.35,0,0,1,184.06,95.21Z"/><path class="cls-11" d="M214.44,112.74l4.95,2.88a.76.76,0,0,0,.76,0l4.47-2.58a.39.39,0,0,0,0-.67l-5.06-2.82a.75.75,0,0,0-.75,0l-4.37,2.52A.38.38,0,0,0,214.44,112.74Z"/><path class="cls-10" d="M255.64,54.21l4.43-2.56a.85.85,0,0,0,.42-.74V45.79a.34.34,0,0,0-.51-.3l-4.43,2.57a.83.83,0,0,0-.43.73v5.13A.34.34,0,0,0,255.64,54.21Z"/><path class="cls-11" d="M179.36,45.73l1.95,1.14a.71.71,0,0,0,.69,0l1.71-1a.35.35,0,0,0,0-.6l-2-1.11a.71.71,0,0,0-.69,0l-1.67,1A.34.34,0,0,0,179.36,45.73Z"/><polygon class="cls-20" points="260.27 89.24 240.58 69.27 232.24 82.01 257.79 93.69 260.27 89.24"/><path class="cls-11" d="M214.87,25.22l5.15,3a.71.71,0,0,0,.69,0l4.66-2.69a.34.34,0,0,0,0-.6L220.11,22a.69.69,0,0,0-.68,0l-4.56,2.63A.35.35,0,0,0,214.87,25.22Z"/><path class="cls-11" d="M258.13,93.69l2-1.18a.69.69,0,0,0,.34-.6V89.57a.34.34,0,0,0-.52-.3l-2,1.17a.69.69,0,0,0-.35.6v2.35A.35.35,0,0,0,258.13,93.69Z"/><polygon class="cls-21" points="189.09 232.07 189.09 277.99 218.91 288.69 218.91 242.39 251.14 230.51 221.89 220.03 189.09 232.07"/><polygon class="cls-22" points="221.33 243.71 221.33 268.83 251.15 279.51 251.14 232.69 221.33 243.71"/><polygon class="cls-23" points="99.12 305.17 99.12 357.21 70.72 373.2 70.68 359.99 40.65 342.58 40.66 305.17 99.12 305.17"/><path class="cls-13" d="M70.72,373.2,88,363.51a.69.69,0,0,0-.18-1.08l-17.14-9.1Z"/><path class="cls-13" d="M17.84,375l4.64,2.7a.7.7,0,0,0,.71,0l4.2-2.42a.35.35,0,0,0,0-.6l-4.75-2.66a.75.75,0,0,0-.71,0l-4.09,2.37A.36.36,0,0,0,17.84,375Z"/><path class="cls-13" d="M34.34,364.16l4.63,2.7a.71.71,0,0,0,.72,0l4.2-2.43a.34.34,0,0,0,0-.59l-4.75-2.66a.73.73,0,0,0-.7,0l-4.09,2.36A.36.36,0,0,0,34.34,364.16Z"/><path class="cls-13" d="M45.63,366.34l4.63,2.7a.76.76,0,0,0,.72,0l4.2-2.43a.35.35,0,0,0,0-.6l-4.76-2.65a.68.68,0,0,0-.7,0l-4.09,2.36A.36.36,0,0,0,45.63,366.34Z"/><path class="cls-13" d="M53.13,379.41l4.63,2.7a.71.71,0,0,0,.72,0l4.2-2.42a.34.34,0,0,0,0-.6l-4.75-2.66a.73.73,0,0,0-.7,0l-4.09,2.36A.36.36,0,0,0,53.13,379.41Z"/><path class="cls-13" d="M48.29,393.08l8.92,5.19a1.39,1.39,0,0,0,1.38,0l8-4.65a.69.69,0,0,0,0-1.2l-9.11-5.09a1.37,1.37,0,0,0-1.36,0l-7.87,4.54A.69.69,0,0,0,48.29,393.08Z"/><path class="cls-13" d="M70.18,380.47l4.63,2.7a.71.71,0,0,0,.72,0l4.2-2.42a.34.34,0,0,0,0-.6L75,377.49a.7.7,0,0,0-.7,0l-4.09,2.36A.35.35,0,0,0,70.18,380.47Z"/><path class="cls-13" d="M89.3,375.29l4.63,2.7a.7.7,0,0,0,.71,0l4.2-2.42a.34.34,0,0,0,0-.6l-4.75-2.66a.7.7,0,0,0-.7,0l-4.09,2.36A.35.35,0,0,0,89.3,375.29Z"/><circle class="cls-11" cx="58.48" cy="342.14" r="10.56"/><circle class="cls-10" cx="58.86" cy="315.73" r="10.56"/><path class="cls-10" d="M57.24,366l8.61,4.94h0l3.91,2.24a.63.63,0,0,0,1-.55V351.48a1.23,1.23,0,0,0-.6-1L41.59,334a.63.63,0,0,0-1,.55V355.8a1.2,1.2,0,0,0,.6,1l3.93,2.25a.34.34,0,0,0,.52-.29v-5.08a.35.35,0,0,1,.52-.3l4.55,2.64a.69.69,0,0,1,.35.59l0,5.47"/><path class="cls-10" d="M18,375.16l4.59,2.65a.35.35,0,0,0,.52-.3l0-5.3a.68.68,0,0,0-.34-.59L18.18,369a.34.34,0,0,0-.51.29v5.31A.68.68,0,0,0,18,375.16Z"/><path class="cls-10" d="M45.8,366.44l4.59,2.65a.34.34,0,0,0,.51-.3l0-5.3a.67.67,0,0,0-.34-.59L46,360.24a.35.35,0,0,0-.52.3v5.3A.68.68,0,0,0,45.8,366.44Z"/><path class="cls-10" d="M48.42,393.21l9,5.23a.68.68,0,0,0,1-.59l0-10.46a1.34,1.34,0,0,0-.68-1.16l-9-5.23a.68.68,0,0,0-1,.59V392A1.35,1.35,0,0,0,48.42,393.21Z"/><path class="cls-10" d="M51.12,356.27l0,5.85a.67.67,0,0,0,.35.59l5.25,3,2.8,1.61a.35.35,0,0,0,.52-.3v-5"/><path class="cls-10" d="M70.35,380.57l4.59,2.65a.34.34,0,0,0,.51-.3l0-5.3a.68.68,0,0,0-.34-.59l-4.57-2.65a.34.34,0,0,0-.52.29V380A.67.67,0,0,0,70.35,380.57Z"/><path class="cls-10" d="M53.3,379.51l4.59,2.65a.34.34,0,0,0,.51-.3l0-5.3A.67.67,0,0,0,58,376l-4.57-2.65a.34.34,0,0,0-.52.29v5.3A.68.68,0,0,0,53.3,379.51Z"/><path class="cls-10" d="M34.51,364.27l4.59,2.65a.34.34,0,0,0,.51-.3l0-5.3a.67.67,0,0,0-.34-.59l-4.57-2.65a.34.34,0,0,0-.52.29v5.31A.67.67,0,0,0,34.51,364.27Z"/><path class="cls-10" d="M89.46,375.39,94.05,378a.35.35,0,0,0,.52-.3l0-5.3a.67.67,0,0,0-.35-.59l-4.56-2.65a.34.34,0,0,0-.52.29v5.31A.68.68,0,0,0,89.46,375.39Z"/><path class="cls-13" d="M46.61,156.81l12.58-7.28.53.93-11,6.36a.35.35,0,0,0,0,.6l5.21,3-.54.94-6.77-3.84a.41.41,0,0,1,0-.71Z"/><path class="cls-13" d="M70.94,141.54a1.75,1.75,0,0,1,1.71.1.33.33,0,0,0,.37,0l3.54-2.34a.71.71,0,0,1,.73,0l7.41,4.3-.55.94-6.84-4a.65.65,0,0,0-.72,0l-3.18,2.09a.37.37,0,0,0-.15.28,1.88,1.88,0,0,1-.86,1.41,1.8,1.8,0,0,1-1.94.09.34.34,0,0,0-.34,0l-6.38,3.68-.54-.93,6.4-3.69a.33.33,0,0,0,.17-.28,1.53,1.53,0,0,1,0-.3.34.34,0,0,0-.17-.35l-13.9-8,.54-.94,14,7.89A.7.7,0,0,0,70.94,141.54Z"/><rect class="cls-13" x="46.45" y="161.24" width="1.07" height="14.54" transform="translate(-75.46 293.45) rotate(-120)"/><rect class="cls-13" x="61.76" y="121.95" width="1.07" height="13.42" transform="translate(-17.97 246.93) rotate(-120)"/><rect class="cls-13" x="37.16" y="134.52" width="1.07" height="13.42" transform="translate(-65.77 244.49) rotate(-120)"/><path class="cls-10" d="M63.33,125.44l4.84,2.81a.63.63,0,0,0,.65,0l4.38-2.53a.32.32,0,0,0,0-.56l-4.86-2.81a.64.64,0,0,0-.64,0l-4.37,2.53A.31.31,0,0,0,63.33,125.44Z"/><path class="cls-11" d="M30.8,132.12,47,141.57a1.38,1.38,0,0,0,1.39,0l14.77-8.52a.7.7,0,0,0,0-1.21L46.6,122.58a1.39,1.39,0,0,0-1.37,0L30.8,130.93A.69.69,0,0,0,30.8,132.12Z"/><path class="cls-11" d="M56.86,149l5.19,3a.68.68,0,0,0,.7,0l4.69-2.71a.34.34,0,0,0,0-.6l-5.3-3a.71.71,0,0,0-.69,0l-4.59,2.65A.35.35,0,0,0,56.86,149Z"/><path class="cls-10" d="M76.75,145.84l10,5.85a1.38,1.38,0,0,0,1.39,0l9.09-5.25a.7.7,0,0,0,0-1.21L87,139.5a1.39,1.39,0,0,0-1.37,0l-8.88,5.13A.69.69,0,0,0,76.75,145.84Z"/><path class="cls-13" d="M37,187.72l6.56-3.79a.69.69,0,0,0,0-1.19l0,0h0l-4.45-2.59-1,.64,3.9,2.28a.35.35,0,0,1,0,.6l-6.55,3.79a.69.69,0,0,0,0,1.2l11.21,6.61,1.09-.63L37,188.32A.35.35,0,0,1,37,187.72Z"/><path class="cls-11" d="M16.52,174.13l16.21,9.44a1.4,1.4,0,0,0,1.4,0l14.76-8.52a.7.7,0,0,0,0-1.21l-16.55-9.26a1.42,1.42,0,0,0-1.37,0l-14.44,8.34A.69.69,0,0,0,16.52,174.13Z"/><path class="cls-13" d="M67.27,195.2l-1.06-.63-9.15,5.36a.33.33,0,0,1-.36,0l-4.88-2.87-1.08.62,5.77,3.4a.7.7,0,0,0,.7,0l.73-.43h0Z"/><path class="cls-11" d="M57.48,190.43l16.21,9.45a1.38,1.38,0,0,0,1.39,0l14.77-8.53a.69.69,0,0,0,0-1.2l-16.55-9.26a1.37,1.37,0,0,0-1.37,0l-14.44,8.33A.69.69,0,0,0,57.48,190.43Z"/><path class="cls-24" d="M62.42,134a.62.62,0,0,1-.63,0l-2.44,1.23.11,13.45a.36.36,0,0,0,.17.31l2.44,1.41a.35.35,0,0,0,.36,0L64.88,149a.38.38,0,0,0,.17-.3L65,135.29Z"/><ellipse class="cls-25" cx="31.14" cy="145.02" rx="1.39" ry="1.22" transform="translate(-74.55 40.95) rotate(-33.32)"/><rect class="cls-13" x="63.43" y="163.78" width="1.09" height="7.41" transform="translate(241.01 195.84) rotate(120)"/><path class="cls-10" d="M46.77,163.15l10,5.86a1.38,1.38,0,0,0,1.39,0l9.09-5.25a.69.69,0,0,0,0-1.2L57,156.82a1.39,1.39,0,0,0-1.37,0L46.77,162A.69.69,0,0,0,46.77,163.15Z"/><ellipse class="cls-25" cx="68.27" cy="169.97" rx="1.39" ry="1.22" transform="translate(-82.15 65.45) rotate(-33.32)"/><path class="cls-26" d="M33.73,140.07a1.51,1.51,0,0,1-1.5,0l-5.68,2.86.23,31.49a.81.81,0,0,0,.41.7l5.7,3.31a.82.82,0,0,0,.85,0l5.72-3.24a.79.79,0,0,0,.41-.7l-.24-31.4Z"/><path class="cls-27" d="M74.53,155.93a1.47,1.47,0,0,1-1.49,0l-5.69,2.87.24,31.49a.8.8,0,0,0,.4.7l5.71,3.31a.81.81,0,0,0,.84,0L80.27,191a.82.82,0,0,0,.41-.7l-.24-31.4Z"/><path class="cls-10" d="M43.94,196.17l5.2,3a.71.71,0,0,0,.69,0l4.7-2.71a.36.36,0,0,0,0-.61l-5.31-3a.69.69,0,0,0-.68,0L44,195.57A.35.35,0,0,0,43.94,196.17Z"/></svg>