<svg id="Layer_1" data-name="Layer 1" xmlns="http://www.w3.org/2000/svg" xmlns:xlink="http://www.w3.org/1999/xlink" viewBox="0 0 236.82 272.28"><defs><style>.cls-1,.cls-12,.cls-2,.cls-6,.cls-7,.cls-8,.cls-9{opacity:0.38;}.cls-1{fill:url(#linear-gradient);}.cls-2{fill:url(#linear-gradient-2);}.cls-3{fill:#2b393f;}.cls-4{fill:#d9dbdc;}.cls-5{fill:#02e49b;}.cls-6{fill:url(#linear-gradient-3);}.cls-7{fill:url(#linear-gradient-4);}.cls-8{fill:url(#linear-gradient-5);}.cls-9{fill:url(#linear-gradient-6);}.cls-10{fill:#00bd9b;}.cls-11{fill:#d1f3ed;}.cls-12{fill:url(#linear-gradient-7);}</style><linearGradient id="linear-gradient" x1="8.74" y1="72.63" x2="54.14" y2="106.82" gradientUnits="userSpaceOnUse"><stop offset="0" stop-color="#02e49b"/><stop offset="1" stop-color="#02e49b" stop-opacity="0"/></linearGradient><linearGradient id="linear-gradient-2" x1="229.93" y1="68.74" x2="175.97" y2="88.91" xlink:href="#linear-gradient"/><linearGradient id="linear-gradient-3" x1="-11.06" y1="-44" x2="7.24" y2="-3.45" gradientUnits="userSpaceOnUse"><stop offset="0" stop-color="#02e49b"/><stop offset="1" stop-color="#02e49b" stop-opacity="0"/></linearGradient><linearGradient id="linear-gradient-4" x1="119.93" y1="14.92" x2="119.93" y2="83.85" xlink:href="#linear-gradient"/><linearGradient id="linear-gradient-5" x1="118.26" y1="-158.6" x2="118.26" y2="-87.56" gradientTransform="matrix(1, 0, 0, -1, 0, 98.26)" xlink:href="#linear-gradient"/><linearGradient id="linear-gradient-6" x1="8.47" y1="195.99" x2="71.66" y2="158.08" xlink:href="#linear-gradient"/><linearGradient id="linear-gradient-7" x1="230.26" y1="196.58" x2="175.82" y2="161.51" xlink:href="#linear-gradient"/></defs><title>Artboard 19</title><polygon class="cls-1" points="1.5 68.82 14.17 67.8 68 92.49 54.05 131.51 1.5 68.82"/><polygon class="cls-2" points="235.83 68.46 222.4 93.97 184.7 108.88 153.54 74.05 235.83 68.46"/><circle class="cls-3" cx="119.81" cy="135.75" r="70.33"/><rect class="cls-4" x="92.9" y="115.71" width="1.91" height="1.91" rx="0.5"/><path class="cls-5" d="M230,208.14l5.88-3.4a2,2,0,0,0,1-1.73v-6.8a1,1,0,0,0-1.5-.87l-5.87,3.4a2,2,0,0,0-1,1.74v6.79A1,1,0,0,0,230,208.14Z"/><path class="cls-5" d="M104.72,9.91l14.91,8.68a2,2,0,0,0,2,0l13.49-7.8a1,1,0,0,0,0-1.73L119.89.55a2,2,0,0,0-2,0L104.72,8.18A1,1,0,0,0,104.72,9.91Z"/><polygon class="cls-6" points="-19.14 -46.07 -4.41 -46.59 19.41 -9.1 -4.13 3.96 -19.14 -46.07"/><polygon class="cls-7" points="104.37 9.04 135.63 9.88 144.41 89.53 95.44 89.53 104.37 9.04"/><polygon class="cls-8" points="102.93 262.58 133.51 262.92 142.75 179.97 93.78 179.97 102.93 262.58"/><polygon class="cls-9" points="16.3 212.64 1.33 186.66 66.05 135.99 88.46 173.46 16.3 212.64"/><rect class="cls-5" x="118.16" y="86.49" width="4.49" height="4.49" rx="0.5"/><rect class="cls-10" x="154.06" y="98.31" width="6.4" height="6.4" rx="1"/><rect class="cls-10" x="141.21" y="84.99" width="6.4" height="6.4" rx="1"/><rect class="cls-5" x="104.37" y="72.91" width="4.49" height="4.49" rx="0.5"/><rect class="cls-5" x="131.07" y="87.14" width="3.18" height="3.18" rx="0.5"/><rect class="cls-5" x="118.81" y="73.56" width="3.18" height="3.18" rx="0.5"/><rect class="cls-5" x="92.26" y="87.14" width="3.18" height="3.18" rx="0.5"/><rect class="cls-5" x="155.67" y="87.14" width="3.18" height="3.18" rx="0.5"/><rect class="cls-5" x="92.9" y="100.56" width="1.91" height="1.91" rx="0.5"/><rect class="cls-5" x="65.22" y="100.56" width="1.91" height="1.91" rx="0.5"/><rect class="cls-5" x="92.9" y="74.2" width="1.91" height="1.91" rx="0.5"/><rect class="cls-5" x="78.95" y="142.38" width="1.09" height="1.09"/><rect class="cls-5" x="143.45" y="100.56" width="1.91" height="1.91" rx="0.5"/><path class="cls-10" d="M15.52,212.54,2,204.73A2,2,0,0,1,1,203V187.38a1,1,0,0,1,1.5-.86L16,194.33a2,2,0,0,1,1,1.73v15.62A1,1,0,0,1,15.52,212.54Z"/><path class="cls-5" d="M103.48,263.31l14.33,8.34a2.21,2.21,0,0,0,2.21,0L133,264.19a1.1,1.1,0,0,0,0-1.92l-14.64-8.19a2.2,2.2,0,0,0-2.18,0l-12.65,7.3A1.11,1.11,0,0,0,103.48,263.31Z"/><path class="cls-10" d="M222.76,93.85l12.83-7.42a2.46,2.46,0,0,0,1.23-2.13V69.46a1,1,0,0,0-1.5-.86L222.49,76a2.46,2.46,0,0,0-1.23,2.13V93A1,1,0,0,0,222.76,93.85Z"/><path class="cls-5" d="M1.91,69.3l5.64,3.29a2,2,0,0,0,2,0l5-2.86a1,1,0,0,0,0-1.74L8.73,64.76a2,2,0,0,0-2,0L1.91,67.57A1,1,0,0,0,1.91,69.3Z"/><rect class="cls-4" x="118.16" y="114.42" width="4.49" height="4.49" rx="0.5"/><rect class="cls-11" x="130.42" y="114.42" width="4.49" height="4.49" rx="0.5"/><rect class="cls-4" x="104.37" y="114.42" width="4.49" height="4.49" rx="0.5"/><rect class="cls-4" x="118.16" y="140.68" width="4.49" height="4.49" rx="0.5"/><rect class="cls-4" x="104.37" y="127.8" width="4.49" height="4.49" rx="0.5"/><rect class="cls-4" x="131.71" y="128.97" width="1.91" height="1.91" rx="0.5"/><rect class="cls-4" x="143.45" y="155.7" width="1.91" height="1.91" rx="0.5"/><rect class="cls-4" x="131.71" y="141.97" width="1.91" height="1.91" rx="0.5"/><rect class="cls-4" x="119.45" y="100.56" width="1.91" height="1.91" rx="0.5"/><rect class="cls-4" x="131.71" y="100.56" width="1.91" height="1.91" rx="0.5"/><rect class="cls-4" x="117.21" y="126.85" width="6.4" height="6.4" rx="1"/><rect class="cls-4" x="141.21" y="140.27" width="6.4" height="6.4" rx="1"/><rect class="cls-4" x="90.65" y="126.85" width="6.4" height="6.4" rx="1"/><rect class="cls-4" x="143.45" y="115.71" width="1.91" height="1.91" rx="0.5"/><rect class="cls-4" x="141.21" y="126.85" width="6.4" height="6.4" rx="1"/><rect class="cls-4" x="103.42" y="139.72" width="6.4" height="6.4" rx="1"/><rect class="cls-4" x="106.07" y="100.98" width="1.09" height="1.09" rx="0.1"/><rect class="cls-4" x="106.07" y="88.19" width="1.09" height="1.09" rx="0.1"/><rect class="cls-4" x="78.95" y="88.19" width="1.09" height="1.09" rx="0.1"/><rect class="cls-4" x="78.95" y="100.98" width="1.09" height="1.09" rx="0.1"/><rect class="cls-4" x="55.91" y="116.11" width="1.09" height="1.09" rx="0.1"/><rect class="cls-4" x="55.91" y="129.93" width="1.09" height="1.09" rx="0.1"/><rect class="cls-4" x="55.91" y="142.38" width="1.09" height="1.09" rx="0.1"/><rect class="cls-4" x="55.91" y="156.11" width="1.09" height="1.09" rx="0.1"/><rect class="cls-4" x="66.17" y="169.43" width="1.09" height="1.09" rx="0.1"/><rect class="cls-4" x="65.82" y="129.93" width="1.09" height="1.09" rx="0.1"/><rect class="cls-4" x="77.91" y="115.07" width="3.18" height="3.18" rx="0.5"/><rect class="cls-4" x="118.81" y="155.01" width="3.18" height="3.18" rx="0.5"/><rect class="cls-5" x="64.78" y="115.07" width="3.18" height="3.18" rx="0.5"/><rect class="cls-4" x="77.25" y="127.68" width="4.49" height="4.49" rx="0.5"/><rect class="cls-4" x="92.9" y="141.97" width="1.91" height="1.91" rx="0.5"/><rect class="cls-4" x="65.42" y="141.97" width="1.91" height="1.91" rx="0.5"/><rect class="cls-4" x="65.42" y="155.7" width="1.91" height="1.91" rx="0.5"/><rect class="cls-4" x="78.54" y="169.02" width="1.91" height="1.91" rx="0.5"/><rect class="cls-4" x="78.54" y="182.21" width="1.91" height="1.91" rx="0.5"/><rect class="cls-11" x="92.9" y="155.7" width="1.91" height="1.91" rx="0.5"/><rect class="cls-11" x="77.25" y="154.41" width="4.49" height="4.49" rx="0.5"/><rect class="cls-4" x="156.71" y="142.38" width="1.09" height="1.09"/><rect class="cls-4" x="155.67" y="115.07" width="3.18" height="3.18" rx="0.5"/><rect class="cls-4" x="155.02" y="127.68" width="4.49" height="4.49" rx="0.5"/><rect class="cls-4" x="156.31" y="169.02" width="1.91" height="1.91" rx="0.5"/><rect class="cls-4" x="155.02" y="154.41" width="4.49" height="4.49" rx="0.5"/><rect class="cls-4" x="104.37" y="154.41" width="4.49" height="4.49" rx="0.5"/><rect class="cls-5" x="104.37" y="181.13" width="4.49" height="4.49" rx="0.5"/><rect class="cls-4" x="130.42" y="154.41" width="4.49" height="4.49" rx="0.5"/><rect class="cls-4" x="92.9" y="182.21" width="1.91" height="1.91" rx="0.5"/><rect class="cls-4" x="105.66" y="168.53" width="1.91" height="1.91" rx="0.5"/><rect class="cls-5" x="119.45" y="168.53" width="1.91" height="1.91" rx="0.5"/><rect class="cls-4" x="93.29" y="169.49" width="1.09" height="1.09" rx="0.1"/><rect class="cls-4" x="131.71" y="195.56" width="1.91" height="1.91" rx="0.5"/><rect class="cls-4" x="132.1" y="182.83" width="1.09" height="1.09" rx="0.1"/><rect class="cls-4" x="119.86" y="182.83" width="1.09" height="1.09" rx="0.1"/><rect class="cls-5" x="119.86" y="195.96" width="1.09" height="1.09" rx="0.1"/><rect class="cls-4" x="106.07" y="195.96" width="1.09" height="1.09" rx="0.1"/><rect class="cls-4" x="93.29" y="195.42" width="1.09" height="1.09" rx="0.1"/><rect class="cls-4" x="131.07" y="167.94" width="3.18" height="3.18" rx="0.5"/><rect class="cls-4" x="142.82" y="167.94" width="3.18" height="3.18" rx="0.5"/><polygon class="cls-12" points="236.18 195.27 179.17 137.44 155.02 174.32 228.98 208.14 236.18 195.27"/><rect class="cls-5" x="169.65" y="156.01" width="1.09" height="1.09" rx="0.1"/><rect class="cls-4" x="169.7" y="116.11" width="1.09" height="1.09" rx="0.1"/><rect class="cls-4" x="182.19" y="129.5" width="1.09" height="1.09" rx="0.1"/><rect class="cls-4" x="182.19" y="156.11" width="1.09" height="1.09" rx="0.1"/><rect class="cls-4" x="132.12" y="74.61" width="1.09" height="1.09" rx="0.1"/><rect class="cls-4" x="143.86" y="74.61" width="1.09" height="1.09" rx="0.1"/><rect class="cls-11" x="168.66" y="100.87" width="3.18" height="3.18" rx="0.5"/><rect class="cls-5" x="168.66" y="168.44" width="3.18" height="3.18" rx="0.5"/><rect class="cls-4" x="169.3" y="129.09" width="1.91" height="1.91" rx="0.5"/><rect class="cls-4" x="181.78" y="141.97" width="1.91" height="1.91" rx="0.5"/><rect class="cls-4" x="169.3" y="141.88" width="1.91" height="1.91" rx="0.5"/><rect class="cls-4" x="143.81" y="195.96" width="1.09" height="1.09" rx="0.1"/><rect class="cls-4" x="143.45" y="182.21" width="1.91" height="1.91" rx="0.5"/><rect class="cls-4" x="156.31" y="182.21" width="1.91" height="1.91" rx="0.5"/></svg>