<svg viewBox="0 0 236.82 272.28" xmlns="http://www.w3.org/2000/svg" xmlns:xlink="http://www.w3.org/1999/xlink"><linearGradient id="a"><stop offset="0" stop-color="#02e49b"/><stop offset="1" stop-color="#02e49b" stop-opacity="0"/></linearGradient><linearGradient id="b" gradientUnits="userSpaceOnUse" x1="8.74" x2="54.14" xlink:href="#a" y1="72.63" y2="106.82"/><linearGradient id="c" x1="229.93" x2="175.97" xlink:href="#b" y1="68.74" y2="88.91"/><linearGradient id="d" gradientUnits="userSpaceOnUse" x1="-11.06" x2="7.24" xlink:href="#a" y1="-44" y2="-3.45"/><linearGradient id="e" x1="119.93" x2="119.93" xlink:href="#b" y1="14.92" y2="83.85"/><linearGradient id="f" gradientTransform="matrix(1 0 0 -1 0 98.26)" x1="118.26" x2="118.26" xlink:href="#b" y1="-158.6" y2="-87.56"/><linearGradient id="g" x1="8.47" x2="71.66" xlink:href="#b" y1="195.99" y2="158.08"/><linearGradient id="h" x1="230.26" x2="175.82" xlink:href="#b" y1="196.58" y2="161.51"/><path d="m1.5 68.82 12.67-1.02 53.83 24.69-13.95 39.02z" fill="url(#b)" opacity=".38"/><path d="m235.83 68.46-13.43 25.51-37.7 14.91-31.16-34.83z" fill="url(#c)" opacity=".38"/><circle cx="119.81" cy="135.75" fill="#2b393f" r="70.33"/><rect fill="#d9dbdc" height="1.91" rx=".5" width="1.91" x="92.9" y="115.71"/><path d="m230 208.14 5.88-3.4a2 2 0 0 0 1-1.73v-6.8a1 1 0 0 0 -1.5-.87l-5.87 3.4a2 2 0 0 0 -1 1.74v6.79a1 1 0 0 0 1.49.87z" fill="#02e49b"/><path d="m104.72 9.91 14.91 8.68a2 2 0 0 0 2 0l13.49-7.8a1 1 0 0 0 0-1.73l-15.23-8.51a2 2 0 0 0 -2 0l-13.17 7.63a1 1 0 0 0 0 1.73z" fill="#02e49b"/><path d="m-19.14-46.07 14.73-.52 23.82 37.49-23.54 13.06z" fill="url(#d)" opacity=".38"/><path d="m104.37 9.04 31.26.84 8.78 79.65h-48.97z" fill="url(#e)" opacity=".38"/><path d="m102.93 262.58 30.58.34 9.24-82.95h-48.97z" fill="url(#f)" opacity=".38"/><path d="m16.3 212.64-14.97-25.98 64.72-50.67 22.41 37.47z" fill="url(#g)" opacity=".38"/><rect fill="#02e49b" height="4.49" rx=".5" width="4.49" x="118.16" y="86.49"/><rect fill="#00bd9b" height="6.4" rx="1" width="6.4" x="154.06" y="98.31"/><rect fill="#00bd9b" height="6.4" rx="1" width="6.4" x="141.21" y="84.99"/><rect fill="#02e49b" height="4.49" rx=".5" width="4.49" x="104.37" y="72.91"/><rect fill="#02e49b" height="3.18" rx=".5" width="3.18" x="131.07" y="87.14"/><rect fill="#02e49b" height="3.18" rx=".5" width="3.18" x="118.81" y="73.56"/><rect fill="#02e49b" height="3.18" rx=".5" width="3.18" x="92.26" y="87.14"/><rect fill="#02e49b" height="3.18" rx=".5" width="3.18" x="155.67" y="87.14"/><rect fill="#02e49b" height="1.91" rx=".5" width="1.91" x="92.9" y="100.56"/><rect fill="#02e49b" height="1.91" rx=".5" width="1.91" x="65.22" y="100.56"/><rect fill="#02e49b" height="1.91" rx=".5" width="1.91" x="92.9" y="74.2"/><path d="m78.95 142.38h1.09v1.09h-1.09z" fill="#02e49b"/><rect fill="#02e49b" height="1.91" rx=".5" width="1.91" x="143.45" y="100.56"/><path d="m15.52 212.54-13.52-7.81a2 2 0 0 1 -1-1.73v-15.62a1 1 0 0 1 1.5-.86l13.5 7.81a2 2 0 0 1 1 1.73v15.62a1 1 0 0 1 -1.48.86z" fill="#00bd9b"/><path d="m103.48 263.31 14.33 8.34a2.21 2.21 0 0 0 2.21 0l12.98-7.46a1.1 1.1 0 0 0 0-1.92l-14.64-8.19a2.2 2.2 0 0 0 -2.18 0l-12.65 7.3a1.11 1.11 0 0 0 -.05 1.93z" fill="#02e49b"/><path d="m222.76 93.85 12.83-7.42a2.46 2.46 0 0 0 1.23-2.13v-14.84a1 1 0 0 0 -1.5-.86l-12.83 7.4a2.46 2.46 0 0 0 -1.23 2.13v14.87a1 1 0 0 0 1.5.85z" fill="#00bd9b"/><path d="m1.91 69.3 5.64 3.29a2 2 0 0 0 2 0l5-2.86a1 1 0 0 0 0-1.74l-5.82-3.23a2 2 0 0 0 -2 0l-4.82 2.81a1 1 0 0 0 0 1.73z" fill="#02e49b"/><rect fill="#d9dbdc" height="4.49" rx=".5" width="4.49" x="118.16" y="114.42"/><rect fill="#d1f3ed" height="4.49" rx=".5" width="4.49" x="130.42" y="114.42"/><g fill="#d9dbdc"><rect height="4.49" rx=".5" width="4.49" x="104.37" y="114.42"/><rect height="4.49" rx=".5" width="4.49" x="118.16" y="140.68"/><rect height="4.49" rx=".5" width="4.49" x="104.37" y="127.8"/><rect height="1.91" rx=".5" width="1.91" x="131.71" y="128.97"/><rect height="1.91" rx=".5" width="1.91" x="143.45" y="155.7"/><rect height="1.91" rx=".5" width="1.91" x="131.71" y="141.97"/><rect height="1.91" rx=".5" width="1.91" x="119.45" y="100.56"/><rect height="1.91" rx=".5" width="1.91" x="131.71" y="100.56"/><rect height="6.4" rx="1" width="6.4" x="117.21" y="126.85"/><rect height="6.4" rx="1" width="6.4" x="141.21" y="140.27"/><rect height="6.4" rx="1" width="6.4" x="90.65" y="126.85"/><rect height="1.91" rx=".5" width="1.91" x="143.45" y="115.71"/><rect height="6.4" rx="1" width="6.4" x="141.21" y="126.85"/><rect height="6.4" rx="1" width="6.4" x="103.42" y="139.72"/><rect height="1.09" rx=".1" width="1.09" x="106.07" y="100.98"/><rect height="1.09" rx=".1" width="1.09" x="106.07" y="88.19"/><rect height="1.09" rx=".1" width="1.09" x="78.95" y="88.19"/><rect height="1.09" rx=".1" width="1.09" x="78.95" y="100.98"/><rect height="1.09" rx=".1" width="1.09" x="55.91" y="116.11"/><rect height="1.09" rx=".1" width="1.09" x="55.91" y="129.93"/><rect height="1.09" rx=".1" width="1.09" x="55.91" y="142.38"/><rect height="1.09" rx=".1" width="1.09" x="55.91" y="156.11"/><rect height="1.09" rx=".1" width="1.09" x="66.17" y="169.43"/><rect height="1.09" rx=".1" width="1.09" x="65.82" y="129.93"/><rect height="3.18" rx=".5" width="3.18" x="77.91" y="115.07"/><rect height="3.18" rx=".5" width="3.18" x="118.81" y="155.01"/></g><rect fill="#02e49b" height="3.18" rx=".5" width="3.18" x="64.78" y="115.07"/><rect fill="#d9dbdc" height="4.49" rx=".5" width="4.49" x="77.25" y="127.68"/><rect fill="#d9dbdc" height="1.91" rx=".5" width="1.91" x="92.9" y="141.97"/><rect fill="#d9dbdc" height="1.91" rx=".5" width="1.91" x="65.42" y="141.97"/><rect fill="#d9dbdc" height="1.91" rx=".5" width="1.91" x="65.42" y="155.7"/><rect fill="#d9dbdc" height="1.91" rx=".5" width="1.91" x="78.54" y="169.02"/><rect fill="#d9dbdc" height="1.91" rx=".5" width="1.91" x="78.54" y="182.21"/><rect fill="#d1f3ed" height="1.91" rx=".5" width="1.91" x="92.9" y="155.7"/><rect fill="#d1f3ed" height="4.49" rx=".5" width="4.49" x="77.25" y="154.41"/><path d="m156.71 142.38h1.09v1.09h-1.09z" fill="#d9dbdc"/><rect fill="#d9dbdc" height="3.18" rx=".5" width="3.18" x="155.67" y="115.07"/><rect fill="#d9dbdc" height="4.49" rx=".5" width="4.49" x="155.02" y="127.68"/><rect fill="#d9dbdc" height="1.91" rx=".5" width="1.91" x="156.31" y="169.02"/><rect fill="#d9dbdc" height="4.49" rx=".5" width="4.49" x="155.02" y="154.41"/><rect fill="#d9dbdc" height="4.49" rx=".5" width="4.49" x="104.37" y="154.41"/><rect fill="#02e49b" height="4.49" rx=".5" width="4.49" x="104.37" y="181.13"/><rect fill="#d9dbdc" height="4.49" rx=".5" width="4.49" x="130.42" y="154.41"/><rect fill="#d9dbdc" height="1.91" rx=".5" width="1.91" x="92.9" y="182.21"/><rect fill="#d9dbdc" height="1.91" rx=".5" width="1.91" x="105.66" y="168.53"/><rect fill="#02e49b" height="1.91" rx=".5" width="1.91" x="119.45" y="168.53"/><rect fill="#d9dbdc" height="1.09" rx=".1" width="1.09" x="93.29" y="169.49"/><rect fill="#d9dbdc" height="1.91" rx=".5" width="1.91" x="131.71" y="195.56"/><rect fill="#d9dbdc" height="1.09" rx=".1" width="1.09" x="132.1" y="182.83"/><rect fill="#d9dbdc" height="1.09" rx=".1" width="1.09" x="119.86" y="182.83"/><rect fill="#02e49b" height="1.09" rx=".1" width="1.09" x="119.86" y="195.96"/><rect fill="#d9dbdc" height="1.09" rx=".1" width="1.09" x="106.07" y="195.96"/><rect fill="#d9dbdc" height="1.09" rx=".1" width="1.09" x="93.29" y="195.42"/><rect fill="#d9dbdc" height="3.18" rx=".5" width="3.18" x="131.07" y="167.94"/><rect fill="#d9dbdc" height="3.18" rx=".5" width="3.18" x="142.82" y="167.94"/><path d="m236.18 195.27-57.01-57.83-24.15 36.88 73.96 33.82z" fill="url(#h)" opacity=".38"/><rect fill="#02e49b" height="1.09" rx=".1" width="1.09" x="169.65" y="156.01"/><rect fill="#d9dbdc" height="1.09" rx=".1" width="1.09" x="169.7" y="116.11"/><rect fill="#d9dbdc" height="1.09" rx=".1" width="1.09" x="182.19" y="129.5"/><rect fill="#d9dbdc" height="1.09" rx=".1" width="1.09" x="182.19" y="156.11"/><rect fill="#d9dbdc" height="1.09" rx=".1" width="1.09" x="132.12" y="74.61"/><rect fill="#d9dbdc" height="1.09" rx=".1" width="1.09" x="143.86" y="74.61"/><rect fill="#d1f3ed" height="3.18" rx=".5" width="3.18" x="168.66" y="100.87"/><rect fill="#02e49b" height="3.18" rx=".5" width="3.18" x="168.66" y="168.44"/><rect fill="#d9dbdc" height="1.91" rx=".5" width="1.91" x="169.3" y="129.09"/><rect fill="#d9dbdc" height="1.91" rx=".5" width="1.91" x="181.78" y="141.97"/><rect fill="#d9dbdc" height="1.91" rx=".5" width="1.91" x="169.3" y="141.88"/><rect fill="#d9dbdc" height="1.09" rx=".1" width="1.09" x="143.81" y="195.96"/><rect fill="#d9dbdc" height="1.91" rx=".5" width="1.91" x="143.45" y="182.21"/><rect fill="#d9dbdc" height="1.91" rx=".5" width="1.91" x="156.31" y="182.21"/></svg>