<svg viewBox="0 0 236.82 272.28" xmlns="http://www.w3.org/2000/svg" xmlns:xlink="http://www.w3.org/1999/xlink"><linearGradient id="a" gradientUnits="userSpaceOnUse" x1="133.83" x2="133.83" y1="63.93" y2="106.8"><stop offset="0" stop-color="#02e49b" stop-opacity="0"/><stop offset="1" stop-color="#02e49b"/></linearGradient><linearGradient id="b" x1="50.17" x2="50.17" xlink:href="#a" y1="86.04" y2="186.36"/><linearGradient id="c" x1="167.9" x2="167.9" xlink:href="#a" y1="131.81" y2="232.12"/><g fill="#d9dbdc"><path d="m88.82 126.27 36.31-21 1.55 2.68-31.81 18.35a1 1 0 0 0 0 1.73l15 8.68-1.56 2.71-19.5-11.09a1.18 1.18 0 0 1 0-2.05z"/><path d="m159 82.19a5.1 5.1 0 0 1 4.93.3 1 1 0 0 0 1.08 0l10.2-6.73a2 2 0 0 1 2.11-.06l21.38 12.38-1.57 2.73-19.7-11.45a2 2 0 0 0 -2.1.06l-9.16 6a1.05 1.05 0 0 0 -.44.8 5.44 5.44 0 0 1 -2.49 4.09 5.24 5.24 0 0 1 -5.59.26 1 1 0 0 0 -1 0l-18.41 10.63-1.55-2.68 18.45-10.65a1 1 0 0 0 .5-.81 5 5 0 0 1 .08-.86 1 1 0 0 0 -.48-1l-40.09-23.14 1.57-2.71 40.51 22.77a2 2 0 0 0 1.77.07z"/><path d="m88.36 139.04h3.1v41.94h-3.1z" transform="matrix(-.5 -.8660254 .8660254 -.5 -3.71 317.88)"/><path d="m132.56 25.66h3.1v38.71h-3.1z" transform="matrix(-.5 -.8660254 .8660254 -.5 162.18 183.67)"/><path d="m61.56 61.95h3.1v38.71h-3.1z" transform="matrix(-.5 -.8660254 .8660254 -.5 24.25 176.62)"/></g><path d="m137.07 35.76 14 8.1a1.87 1.87 0 0 0 1.87 0l12.65-7.31a.93.93 0 0 0 0-1.62l-14-8.11a1.88 1.88 0 0 0 -1.84 0l-12.62 7.3a.94.94 0 0 0 -.06 1.64z" fill="#02e49b"/><path d="m43.2 55 46.8 27.28a4 4 0 0 0 4 0l42.61-24.6a2 2 0 0 0 0-3.48l-47.79-26.7a4 4 0 0 0 -4 0l-41.61 24.07a2 2 0 0 0 -.01 3.43z" fill="#2b393f"/><path d="m118.4 103.58 15 8.72a2 2 0 0 0 2 0l13.6-7.82a1 1 0 0 0 0-1.74l-15.3-8.56a2 2 0 0 0 -2 0l-13.25 7.65a1 1 0 0 0 -.05 1.75z" fill="#2b393f"/><path d="m175.81 94.61 29 16.89a4 4 0 0 0 4 0l26.23-15.15a2 2 0 0 0 0-3.47l-29.63-16.56a4 4 0 0 0 -3.95 0l-25.64 14.8a2 2 0 0 0 -.01 3.49z" fill="#02e49b"/><path d="m61.11 215.46 18.89-10.93a2 2 0 0 0 0-3.46l-.1-.06-12.82-7.49-3 1.86 11.24 6.62a1 1 0 0 1 0 1.73l-18.9 10.94a2 2 0 0 0 0 3.45l32.36 19.07 3.13-1.8-30.81-18.21a1 1 0 0 1 .01-1.72z" fill="#d9dbdc"/><path d="m2 176.23 46.8 27.25a4 4 0 0 0 4 0l42.61-24.6a2 2 0 0 0 0-3.48l-47.78-26.71a4 4 0 0 0 -4 0l-41.63 24.08a2 2 0 0 0 0 3.46z" fill="#2b393f"/><path d="m148.46 237-3.08-1.79-26.38 15.49a1 1 0 0 1 -1 0l-14.08-8.3-3.13 1.81 16.6 9.79a2 2 0 0 0 2 0l2.12-1.22z" fill="#d9dbdc"/><path d="m120.2 223.28 46.8 27.25a4 4 0 0 0 4 0l42.6-24.6a2 2 0 0 0 0-3.48l-47.77-26.72a4 4 0 0 0 -3.95 0l-41.66 24a2 2 0 0 0 -.02 3.55z" fill="#2b393f"/><path d="m134.46 60.47a1.83 1.83 0 0 1 -1.84 0l-7 3.53.29 38.84a1 1 0 0 0 .5.87l7 4.07a1 1 0 0 0 1 0l7.06-4a1 1 0 0 0 .51-.86l-.3-38.72z" fill="url(#a)" opacity=".38"/><ellipse cx="44.18" cy="92.24" fill="none" rx="4.01" ry="3.52" stroke="#d9dbdc" stroke-miterlimit="10" stroke-width="3" transform="matrix(.84 -.55 .55 .84 -43.41 39.44)"/><path d="m137.36 146.39h3.13v21.39h-3.13z" fill="#d9dbdc" transform="matrix(-.5 .8660254 -.8660254 -.5 344.43 115.31)"/><path d="m89.3 144.57 29 16.88a4 4 0 0 0 4 0l26.22-15.14a2 2 0 0 0 0-3.48l-29.62-16.56a4 4 0 0 0 -4 0l-25.63 14.8a2 2 0 0 0 .03 3.5z" fill="#02e49b"/><ellipse cx="151.32" cy="164.24" fill="none" rx="4.01" ry="3.52" stroke="#d9dbdc" stroke-miterlimit="10" stroke-width="3" transform="matrix(.84 -.55 .55 .84 -65.35 110.14)"/><path d="m51.66 78a4.31 4.31 0 0 1 -4.31 0l-16.41 8.17.69 90.83a2.32 2.32 0 0 0 1.16 2l16.46 9.54a2.28 2.28 0 0 0 2.44-.05l16.52-9.35a2.37 2.37 0 0 0 1.19-2l-.69-90.59z" fill="url(#b)" opacity=".38"/><path d="m169.4 123.72a4.31 4.31 0 0 1 -4.31 0l-16.42 8.25.69 90.87a2.37 2.37 0 0 0 1.17 2l16.47 9.53a2.28 2.28 0 0 0 2.44-.05l16.56-9.32a2.33 2.33 0 0 0 1.18-2l-.69-90.59z" fill="url(#c)" opacity=".38"/><path d="m81.14 239.85 15 8.72a2 2 0 0 0 2 0l13.56-7.83a1 1 0 0 0 0-1.74l-15.3-8.56a2 2 0 0 0 -2 0l-13.25 7.66a1 1 0 0 0 -.01 1.75z" fill="#02e49b"/></svg>