<svg id="Layer_1" data-name="Layer 1" xmlns="http://www.w3.org/2000/svg" xmlns:xlink="http://www.w3.org/1999/xlink" viewBox="0 0 236.82 272.28"><defs><style>.cls-1{fill:#d9dbdc;}.cls-2{fill:#02e49b;}.cls-3{fill:#2b393f;}.cls-4,.cls-6,.cls-7{opacity:0.38;}.cls-4{fill:url(#linear-gradient);}.cls-5{fill:none;stroke:#d9dbdc;stroke-miterlimit:10;stroke-width:3px;}.cls-6{fill:url(#linear-gradient-2);}.cls-7{fill:url(#linear-gradient-3);}</style><linearGradient id="linear-gradient" x1="133.83" y1="63.93" x2="133.83" y2="106.8" gradientUnits="userSpaceOnUse"><stop offset="0" stop-color="#02e49b" stop-opacity="0"/><stop offset="1" stop-color="#02e49b"/></linearGradient><linearGradient id="linear-gradient-2" x1="50.17" y1="86.04" x2="50.17" y2="186.36" xlink:href="#linear-gradient"/><linearGradient id="linear-gradient-3" x1="167.9" y1="131.81" x2="167.9" y2="232.12" xlink:href="#linear-gradient"/></defs><title>Artboard 24</title><path class="cls-1" d="M88.82,126.27l36.31-21,1.55,2.68L94.87,126.3a1,1,0,0,0,0,1.73l15,8.68-1.56,2.71L88.81,128.33a1.18,1.18,0,0,1,0-2.05Z"/><path class="cls-1" d="M159,82.19a5.1,5.1,0,0,1,4.93.3,1,1,0,0,0,1.08,0l10.2-6.73a2,2,0,0,1,2.11-.06l21.38,12.38-1.57,2.73L177.43,79.36a2,2,0,0,0-2.1.06l-9.16,6a1.05,1.05,0,0,0-.44.8,5.44,5.44,0,0,1-2.49,4.09,5.24,5.24,0,0,1-5.59.26,1,1,0,0,0-1,0l-18.41,10.63-1.55-2.68,18.45-10.65a1,1,0,0,0,.5-.81,5,5,0,0,1,.08-.86,1,1,0,0,0-.48-1L115.15,62.06l1.57-2.71,40.51,22.77A2,2,0,0,0,159,82.19Z"/><rect class="cls-1" x="88.36" y="139.04" width="3.1" height="41.94" transform="translate(-3.71 317.88) rotate(-120)"/><rect class="cls-1" x="132.56" y="25.66" width="3.1" height="38.71" transform="translate(162.18 183.67) rotate(-120)"/><rect class="cls-1" x="61.56" y="61.95" width="3.1" height="38.71" transform="translate(24.25 176.62) rotate(-120)"/><path class="cls-2" d="M137.07,35.76l14,8.1a1.87,1.87,0,0,0,1.87,0l12.65-7.31a.93.93,0,0,0,0-1.62l-14-8.11a1.88,1.88,0,0,0-1.84,0l-12.62,7.3A.94.94,0,0,0,137.07,35.76Z"/><path class="cls-3" d="M43.2,55,90,82.28a4,4,0,0,0,4,0l42.61-24.6a2,2,0,0,0,0-3.48L88.82,27.5a4,4,0,0,0-4,0L43.21,51.57A2,2,0,0,0,43.2,55Z"/><path class="cls-3" d="M118.4,103.58l15,8.72a2,2,0,0,0,2,0L149,104.48a1,1,0,0,0,0-1.74l-15.3-8.56a2,2,0,0,0-2,0l-13.25,7.65A1,1,0,0,0,118.4,103.58Z"/><path class="cls-2" d="M175.81,94.61l29,16.89a4,4,0,0,0,4,0l26.23-15.15a2,2,0,0,0,0-3.47L205.41,76.32a4,4,0,0,0-3.95,0l-25.64,14.8A2,2,0,0,0,175.81,94.61Z"/><path class="cls-1" d="M61.11,215.46,80,204.53a2,2,0,0,0,0-3.46l-.1-.06h0l-12.82-7.49-3,1.86L75.32,202a1,1,0,0,1,0,1.73l-18.9,10.94a2,2,0,0,0,0,3.45l32.36,19.07,3.13-1.8L61.1,217.18A1,1,0,0,1,61.11,215.46Z"/><path class="cls-3" d="M2,176.23,48.8,203.48a4,4,0,0,0,4,0l42.61-24.6a2,2,0,0,0,0-3.48L47.63,148.69a4,4,0,0,0-4,0L2,172.77A2,2,0,0,0,2,176.23Z"/><path class="cls-1" d="M148.46,237l-3.08-1.79L119,250.7a1,1,0,0,1-1,0l-14.08-8.3-3.13,1.81L117.39,254a2,2,0,0,0,2,0l2.12-1.22,0,0Z"/><path class="cls-3" d="M120.2,223.28,167,250.53a4,4,0,0,0,4,0l42.6-24.6a2,2,0,0,0,0-3.48l-47.77-26.72a4,4,0,0,0-3.95,0l-41.66,24A2,2,0,0,0,120.2,223.28Z"/><path class="cls-4" d="M134.46,60.47a1.83,1.83,0,0,1-1.84,0l-7,3.53.29,38.84a1,1,0,0,0,.5.87l7,4.07a1,1,0,0,0,1,0l7.06-4a1,1,0,0,0,.51-.86l-.3-38.72Z"/><ellipse class="cls-5" cx="44.18" cy="92.24" rx="4.01" ry="3.52" transform="matrix(0.84, -0.55, 0.55, 0.84, -43.41, 39.44)"/><rect class="cls-1" x="137.36" y="146.39" width="3.13" height="21.39" transform="translate(344.43 115.31) rotate(120)"/><path class="cls-2" d="M89.3,144.57l29,16.88a4,4,0,0,0,4,0l26.22-15.14a2,2,0,0,0,0-3.48l-29.62-16.56a4,4,0,0,0-4,0l-25.63,14.8A2,2,0,0,0,89.3,144.57Z"/><ellipse class="cls-5" cx="151.32" cy="164.24" rx="4.01" ry="3.52" transform="matrix(0.84, -0.55, 0.55, 0.84, -65.35, 110.14)"/><path class="cls-6" d="M51.66,78a4.31,4.31,0,0,1-4.31,0L30.94,86.17,31.63,177a2.32,2.32,0,0,0,1.16,2l16.46,9.54a2.28,2.28,0,0,0,2.44-.05l16.52-9.35a2.37,2.37,0,0,0,1.19-2l-.69-90.59Z"/><path class="cls-7" d="M169.4,123.72a4.31,4.31,0,0,1-4.31,0l-16.42,8.25.69,90.87a2.37,2.37,0,0,0,1.17,2L167,234.37a2.28,2.28,0,0,0,2.44-.05L186,225a2.33,2.33,0,0,0,1.18-2l-.69-90.59Z"/><path class="cls-2" d="M81.14,239.85l15,8.72a2,2,0,0,0,2,0l13.56-7.83a1,1,0,0,0,0-1.74l-15.3-8.56a2,2,0,0,0-2,0l-13.25,7.66A1,1,0,0,0,81.14,239.85Z"/></svg>