<svg xmlns="http://www.w3.org/2000/svg" xmlns:xlink="http://www.w3.org/1999/xlink" viewBox="0 0 1366 586"><defs><style>.cls-1{fill:none}.cls-6{fill:url(#未命名的渐变_111-5)}.cls-13{fill:url(#未命名的渐变_111-12)}</style><linearGradient id="未命名的渐变_111" x1="998.53" y1="527.64" x2="1035.52" y2="527.64" gradientUnits="userSpaceOnUse"><stop offset="0" stop-color="#58bf00"/><stop offset=".23" stop-color="#58bf00"/><stop offset=".42" stop-color="#58bf00"/><stop offset=".61" stop-color="#29b800"/><stop offset=".78" stop-color="#00ae1d"/><stop offset=".99" stop-color="#00a62c"/></linearGradient><clipPath id="clip-path"><path d="M980 518.14a18.7 18.7 0 0 0-5.59-4.25 15.59 15.59 0 0 0-6.89-1.49 13.89 13.89 0 0 0-5.82 1.22 14.38 14.38 0 0 0-4.64 3.34 15.65 15.65 0 0 0-3.06 4.86 15.23 15.23 0 0 0-1.11 5.74 15.91 15.91 0 0 0 4.17 10.69 15.11 15.11 0 0 0 4.6 3.37 13.26 13.26 0 0 0 5.78 1.26 15.6 15.6 0 0 0 7.2-1.72 18.55 18.55 0 0 0 5.82-4.63v4.67a19.75 19.75 0 0 1-6 3.64 19.18 19.18 0 0 1-6.9 1.26 17.94 17.94 0 0 1-13-5.4 18.21 18.21 0 0 1-3.79-5.86 19.68 19.68 0 0 1 0-14.48 17.94 17.94 0 0 1 3.83-5.85 17.68 17.68 0 0 1 5.78-3.91 18.23 18.23 0 0 1 7.24-1.42 20 20 0 0 1 6.55 1.07 18.63 18.63 0 0 1 5.78 3.3z" clip-path="url(#clip-path-10)" fill="url(#未命名的渐变_111-11)"/></clipPath><linearGradient id="未命名的渐变_111-2" x1="1056.43" y1="527.26" x2="1082.17" y2="527.26" xlink:href="#未命名的渐变_111"/><clipPath id="clip-path-2"><path d="M1016.91 509.18a18.75 18.75 0 0 1 7.31 1.42 17.9 17.9 0 0 1 9.85 9.73 19.18 19.18 0 0 1 0 14.63 17.92 17.92 0 0 1-9.85 9.72 18.75 18.75 0 0 1-7.31 1.42 17.67 17.67 0 0 1-7.16-1.46 18.41 18.41 0 0 1-5.83-4 19.36 19.36 0 0 1-3.94-5.86 17.49 17.49 0 0 1-1.45-7.08 18.51 18.51 0 0 1 5.32-13.1 18.21 18.21 0 0 1 5.86-4 17.93 17.93 0 0 1 7.2-1.42zm-.23 3.22a14.21 14.21 0 0 0-10.53 4.56 15.52 15.52 0 0 0-3.07 4.9 15.73 15.73 0 0 0-1.11 5.86 15.23 15.23 0 0 0 1.11 5.74 15.56 15.56 0 0 0 3.1 4.87 15 15 0 0 0 4.68 3.33 13.89 13.89 0 0 0 5.82 1.22 15.89 15.89 0 0 0 6.05-1.15 14.48 14.48 0 0 0 4.9-3.21 15.47 15.47 0 0 0 3.26-4.83 15 15 0 0 0 1.18-6 15.24 15.24 0 0 0-4.44-11 14.61 14.61 0 0 0-4.86-3.21 15.84 15.84 0 0 0-6.09-1.08z" clip-path="url(#clip-path)" fill="url(#未命名的渐变_111)"/></clipPath><linearGradient id="未命名的渐变_111-3" x1="1103.08" y1="527.64" x2="1140.07" y2="527.64" xlink:href="#未命名的渐变_111"/><clipPath id="clip-path-3"><path d="M1059.88 515.46h.15a11.64 11.64 0 0 1 10.49-6.28 13.62 13.62 0 0 1 5.67 1 8.81 8.81 0 0 1 3.56 2.95 12.05 12.05 0 0 1 1.88 4.64 31.8 31.8 0 0 1 .54 6.16v21.37h-3.45V524a42.31 42.31 0 0 0-.23-4.48 9.58 9.58 0 0 0-1.11-3.67 6.36 6.36 0 0 0-2.57-2.49 9.53 9.53 0 0 0-4.59-.92 8.67 8.67 0 0 0-8.5 5.05 16.63 16.63 0 0 0-1.46 5 38.78 38.78 0 0 0-.38 5.44v17.46h-3.45V510h3.45z" clip-path="url(#clip-path-2)" fill="url(#未命名的渐变_111-2)"/></clipPath><linearGradient id="未命名的渐变_111-4" x1="1160.98" y1="527.26" x2="1204.72" y2="527.26" xlink:href="#未命名的渐变_111"/><clipPath id="clip-path-4"><path d="M1121.46 509.18a18.75 18.75 0 0 1 7.31 1.42 18.21 18.21 0 0 1 5.9 3.87 18 18 0 0 1 3.95 5.86 19.18 19.18 0 0 1 0 14.63 18 18 0 0 1-3.95 5.85 18.21 18.21 0 0 1-5.9 3.87 18.75 18.75 0 0 1-7.31 1.42 17.7 17.7 0 0 1-7.16-1.46 18.26 18.26 0 0 1-5.82-4 19.21 19.21 0 0 1-4-5.86 17.49 17.49 0 0 1-1.45-7.08 18.51 18.51 0 0 1 5.32-13.1 18.21 18.21 0 0 1 5.86-4 18 18 0 0 1 7.25-1.42zm-.23 3.22a14.21 14.21 0 0 0-10.53 4.6 15.52 15.52 0 0 0-3.07 4.9 15.73 15.73 0 0 0-1.11 5.86 15.23 15.23 0 0 0 1.11 5.74 15.41 15.41 0 0 0 3.11 4.87 14.86 14.86 0 0 0 4.67 3.33 13.89 13.89 0 0 0 5.82 1.22 15.89 15.89 0 0 0 6-1.15 14.48 14.48 0 0 0 4.9-3.21 15.3 15.3 0 0 0 3.26-4.83 15 15 0 0 0 1.19-6 15.42 15.42 0 0 0-1.19-6.09 15.26 15.26 0 0 0-3.26-4.87 14.61 14.61 0 0 0-4.86-3.21 15.84 15.84 0 0 0-6.04-1.16z" clip-path="url(#clip-path-3)" fill="url(#未命名的渐变_111-3)"/></clipPath><linearGradient id="未命名的渐变_111-5" x1="632.41" y1="527.64" x2="656" y2="527.64" xlink:href="#未命名的渐变_111"/><linearGradient id="未命名的渐变_111-6" x1="677.45" y1="527.26" x2="721.18" y2="527.26" xlink:href="#未命名的渐变_111"/><clipPath id="clip-path-5"><path class="cls-6" d="M651 516.38a6.79 6.79 0 0 0-2.49-2.91 6.66 6.66 0 0 0-3.71-1.07 6 6 0 0 0-2.22.42 6.13 6.13 0 0 0-1.92 1.19 6.56 6.56 0 0 0-1.38 1.76 4.52 4.52 0 0 0-.53 2.14 4.39 4.39 0 0 0 1.26 3.34 11.05 11.05 0 0 0 3.18 2c1.28.57 2.67 1.1 4.17 1.61a20.29 20.29 0 0 1 4.18 2 10.22 10.22 0 0 1 3.18 3.1 9.21 9.21 0 0 1 1.26 5.13 11.06 11.06 0 0 1-.88 4.48 10.3 10.3 0 0 1-2.45 3.49 11.25 11.25 0 0 1-3.64 2.25 12.08 12.08 0 0 1-4.44.81 12.67 12.67 0 0 1-7.78-2.49 11.71 11.71 0 0 1-4.4-6.86l3.37-1.07a11.58 11.58 0 0 0 3.14 5.21 8 8 0 0 0 5.67 2 7.84 7.84 0 0 0 8-8 6.15 6.15 0 0 0-.57-2.76 5.44 5.44 0 0 0-1.53-1.91 9.29 9.29 0 0 0-2.22-1.31c-.85-.36-1.7-.69-2.57-1-1.22-.46-2.45-1-3.68-1.46a15.83 15.83 0 0 1-3.33-1.87 9 9 0 0 1-2.41-2.69 7.39 7.39 0 0 1-.92-3.79 8.22 8.22 0 0 1 .8-3.63 9.16 9.16 0 0 1 5.17-4.68 10.68 10.68 0 0 1 3.68-.65 10 10 0 0 1 5.29 1.61 9.52 9.52 0 0 1 3.75 4.06z"/></clipPath><linearGradient id="未命名的渐变_111-7" x1="742.09" y1="527.64" x2="776.64" y2="527.64" xlink:href="#未命名的渐变_111"/><clipPath id="clip-path-6"><path d="M680.89 514.39h.16a8.94 8.94 0 0 1 3.63-3.83 10.4 10.4 0 0 1 5.25-1.38 10.86 10.86 0 0 1 6 1.65 10.54 10.54 0 0 1 3.95 4.79 10.36 10.36 0 0 1 4.17-4.83 11.9 11.9 0 0 1 6.17-1.61 12.32 12.32 0 0 1 5.55 1.07 8.39 8.39 0 0 1 3.33 3 11.7 11.7 0 0 1 1.65 4.44 33.28 33.28 0 0 1 .42 5.44v22.21h-3.44v-22.68a30.3 30.3 0 0 0-.24-3.91 8.62 8.62 0 0 0-1-3.25 5.88 5.88 0 0 0-2.3-2.26 8.18 8.18 0 0 0-4-.84 7.85 7.85 0 0 0-7.31 4 11.92 11.92 0 0 0-1.42 4 26.81 26.81 0 0 0-.46 4.6v20.37h-3.45V523.5a30.2 30.2 0 0 0-.27-4.06 10.53 10.53 0 0 0-1.11-3.56 6.59 6.59 0 0 0-2.37-2.52 7.73 7.73 0 0 0-4.14-1 7.22 7.22 0 0 0-4.48 1.3 9 9 0 0 0-2.68 3.29 15 15 0 0 0-1.3 4.37 31.48 31.48 0 0 0-.35 4.52v19.45h-3.44V510h3.44z" clip-path="url(#clip-path-5)" fill="url(#未命名的渐变_111-6)"/></clipPath><linearGradient id="未命名的渐变_111-8" x1="800.99" y1="527.26" x2="816" y2="527.26" xlink:href="#未命名的渐变_111"/><clipPath id="clip-path-7"><path d="M776.64 545.33h-3.45V539H773a13.06 13.06 0 0 1-2.49 3 15.2 15.2 0 0 1-3.3 2.26 16.68 16.68 0 0 1-3.79 1.38 17.14 17.14 0 0 1-3.9.46 17.46 17.46 0 0 1-7.28-1.46 16.23 16.23 0 0 1-5.48-4 17.79 17.79 0 0 1-3.48-5.93 21.47 21.47 0 0 1-1.23-7.32 20.77 20.77 0 0 1 1.23-7.24 17.2 17.2 0 0 1 3.45-5.78 15.5 15.5 0 0 1 5.43-3.83 18.13 18.13 0 0 1 7.2-1.38 17.7 17.7 0 0 1 7.78 1.76 14.6 14.6 0 0 1 5.86 5.13h.15V510h3.45zm-17.39-32.93a12.34 12.34 0 0 0-5.59 1.26 13.79 13.79 0 0 0-4.33 3.37 15.88 15.88 0 0 0-2.8 4.83 16.08 16.08 0 0 0-1 5.55 17.91 17.91 0 0 0 1 5.86 14.83 14.83 0 0 0 2.79 4.94 13.66 13.66 0 0 0 4.41 3.41 12.92 12.92 0 0 0 5.78 1.26 13.51 13.51 0 0 0 6-1.26 12.46 12.46 0 0 0 4.37-3.45 15.47 15.47 0 0 0 2.68-5 20 20 0 0 0 .92-6.09 16.28 16.28 0 0 0-1-5.75 13.25 13.25 0 0 0-2.87-4.63 13.82 13.82 0 0 0-4.48-3.1 14.23 14.23 0 0 0-5.88-1.2z" clip-path="url(#clip-path-6)" fill="url(#未命名的渐变_111-7)"/></clipPath><linearGradient id="未命名的渐变_111-9" x1="832.85" y1="521.32" x2="846.41" y2="521.32" xlink:href="#未命名的渐变_111"/><clipPath id="clip-path-8"><path d="M804.44 514.54h.15a9.85 9.85 0 0 1 2.95-3.9 7.46 7.46 0 0 1 4.71-1.46 7.79 7.79 0 0 1 2 .23 13.65 13.65 0 0 1 1.8.61l-1.83 3.07a4.28 4.28 0 0 0-1.19-.54 5 5 0 0 0-1.26-.15 5.7 5.7 0 0 0-4.41 1.61 9.39 9.39 0 0 0-2.14 3.9 18.36 18.36 0 0 0-.69 4.87v22.55H801V510h3.45z" clip-path="url(#clip-path-7)" fill="url(#未命名的渐变_111-8)"/></clipPath><linearGradient id="未命名的渐变_111-10" x1="897.81" y1="527.64" x2="931.97" y2="527.64" xlink:href="#未命名的渐变_111"/><clipPath id="clip-path-9"><path d="M840.21 545.33h-3.45v-32.17h-3.91V510h3.91v-12.69h3.45V510h6.2v3.21h-6.2z" clip-path="url(#clip-path-8)" fill="url(#未命名的渐变_111-9)"/></clipPath><linearGradient id="未命名的渐变_111-11" x1="949.43" y1="527.64" x2="980.45" y2="527.64" xlink:href="#未命名的渐变_111"/><clipPath id="clip-path-10"><path d="M901.25 528a16.23 16.23 0 0 0 1 6.12 13.36 13.36 0 0 0 2.95 4.72 13.13 13.13 0 0 0 4.56 3 14.9 14.9 0 0 0 5.7 1.07 12.66 12.66 0 0 0 7.36-2.22 16.24 16.24 0 0 0 5.13-5.82l2.91 1.69a18.16 18.16 0 0 1-6.51 7.08 17.52 17.52 0 0 1-9.35 2.46 16.53 16.53 0 0 1-7.08-1.49 16.82 16.82 0 0 1-5.44-4 17.34 17.34 0 0 1-3.45-5.89 21.33 21.33 0 0 1-1.18-7.13 20 20 0 0 1 1.22-7 17.9 17.9 0 0 1 3.49-5.86 16.6 16.6 0 0 1 5.4-4 16.12 16.12 0 0 1 7-1.5 16.53 16.53 0 0 1 7.16 1.5 15.69 15.69 0 0 1 5.37 4.05 18.28 18.28 0 0 1 3.33 6A22.64 22.64 0 0 1 932 528zm27.27-3.22a14.47 14.47 0 0 0-4.33-8.62 13.92 13.92 0 0 0-4.09-2.72 12.69 12.69 0 0 0-5.06-1 13.26 13.26 0 0 0-5.09 1 14.58 14.58 0 0 0-4.26 2.68 14.78 14.78 0 0 0-3 3.91 12.52 12.52 0 0 0-1.42 4.75z" clip-path="url(#clip-path-9)" fill="url(#未命名的渐变_111-10)"/></clipPath><clipPath id="clip-path-11"><path class="cls-1" d="M634 200.32h27.2l146.24 233.35h.74V200.32l23.88-.15v265.47h-30.13L658.61 236.33h-.73v229l-23.89.29z"/></clipPath><linearGradient id="未命名的渐变_111-12" x1="538.56" y1="-34.32" x2="538.56" y2="777.92" xlink:href="#未命名的渐变_111"/><clipPath id="clip-path-12"><path class="cls-1" d="M910.33 465.64V200.32H1068l-10 22.05H934.22v95.18h128.61l-10 22.05H934.22v104h139.27l-10 22.05z"/></clipPath><clipPath id="clip-path-13"><path class="cls-1" d="M1366 333q0 30.86-7.72 56.4t-22.78 43.73a101.61 101.61 0 0 1-37.12 28.11q-22 9.93-50.7 9.93t-50.68-9.94a101.41 101.41 0 0 1-37.11-28.11q-15.07-18.18-22.79-43.73t-7.72-56.4q0-30.89 7.72-56.42t22.79-43.73a101.63 101.63 0 0 1 37.11-28.11q22.05-9.91 50.72-9.92t50.7 9.92a101.83 101.83 0 0 1 37.12 28.11q15.07 18.19 22.78 43.73T1366 333zm-210.93 0a177.49 177.49 0 0 0 5.15 42.62 112.83 112.83 0 0 0 16.34 37.3 85.63 85.63 0 0 0 28.67 26.28q17.44 9.92 42.45 9.92 24.6 0 42.25-9.92a85.09 85.09 0 0 0 28.85-26.28 113.27 113.27 0 0 0 16.36-37.3 179.31 179.31 0 0 0 0-85.25 113.18 113.18 0 0 0-16.36-37.3 85 85 0 0 0-28.85-26.28q-17.64-9.92-42.25-9.92-25 0-42.45 9.92a85.53 85.53 0 0 0-28.67 26.28 112.73 112.73 0 0 0-16.34 37.3 177.51 177.51 0 0 0-5.15 42.63z"/></clipPath><linearGradient id="未命名的渐变_111-26" x1="1222.64" y1="537.98" x2="1258.41" y2="537.98" xlink:href="#未命名的渐变_111"/><linearGradient id="未命名的渐变_112" x1="26.42" y1="533.56" x2="1161.37" y2="-105.66" gradientUnits="userSpaceOnUse"><stop offset="0" stop-color="#beeb00"/><stop offset=".23" stop-color="#58bf00"/><stop offset=".42" stop-color="#58bf00"/><stop offset=".61" stop-color="#29b800"/><stop offset=".78" stop-color="#00ae1d"/><stop offset=".99" stop-color="#00a62c"/></linearGradient><linearGradient id="未命名的渐变_112-2" x1="-35.77" y1="423.14" x2="1099.18" y2="-216.09" xlink:href="#未命名的渐变_112"/><linearGradient id="未命名的渐变_112-3" x1="-106.44" y1="297.67" x2="1028.51" y2="-341.56" xlink:href="#未命名的渐变_112"/></defs><g id="图层_1" data-name="图层 1"><g clip-path="url(#clip-path-11)"><path class="cls-13" d="M-549.15-33.08h2175.43v812.24H-549.15z"/></g><g clip-path="url(#clip-path-12)"><path class="cls-13" d="M-549.15-33.08h2175.43v812.24H-549.15z"/></g><g clip-path="url(#clip-path-13)"><path class="cls-13" d="M-549.15-33.08h2175.43v812.24H-549.15z"/></g><path class="cls-6" d="M651 516.38a6.79 6.79 0 0 0-2.49-2.91 6.66 6.66 0 0 0-3.71-1.07 6 6 0 0 0-2.22.42 6.13 6.13 0 0 0-1.92 1.19 6.56 6.56 0 0 0-1.38 1.76 4.52 4.52 0 0 0-.53 2.14 4.39 4.39 0 0 0 1.26 3.34 11.05 11.05 0 0 0 3.18 2c1.28.57 2.67 1.1 4.17 1.61a20.29 20.29 0 0 1 4.18 2 10.22 10.22 0 0 1 3.18 3.1 9.21 9.21 0 0 1 1.26 5.13 11.06 11.06 0 0 1-.88 4.48 10.3 10.3 0 0 1-2.45 3.49 11.25 11.25 0 0 1-3.64 2.25 12.08 12.08 0 0 1-4.44.81 12.67 12.67 0 0 1-7.78-2.49 11.71 11.71 0 0 1-4.4-6.86l3.37-1.07a11.58 11.58 0 0 0 3.14 5.21 8 8 0 0 0 5.67 2 7.84 7.84 0 0 0 8-8 6.15 6.15 0 0 0-.57-2.76 5.44 5.44 0 0 0-1.53-1.91 9.29 9.29 0 0 0-2.22-1.31c-.85-.36-1.7-.69-2.57-1-1.22-.46-2.45-1-3.68-1.46a15.83 15.83 0 0 1-3.33-1.87 9 9 0 0 1-2.41-2.69 7.39 7.39 0 0 1-.92-3.79 8.22 8.22 0 0 1 .8-3.63 9.16 9.16 0 0 1 5.17-4.68 10.68 10.68 0 0 1 3.68-.65 10 10 0 0 1 5.29 1.61 9.52 9.52 0 0 1 3.75 4.06z"/><path d="M680.89 514.39h.16a8.94 8.94 0 0 1 3.63-3.83 10.4 10.4 0 0 1 5.25-1.38 10.86 10.86 0 0 1 6 1.65 10.54 10.54 0 0 1 3.95 4.79 10.36 10.36 0 0 1 4.17-4.83 11.9 11.9 0 0 1 6.17-1.61 12.32 12.32 0 0 1 5.55 1.07 8.39 8.39 0 0 1 3.33 3 11.7 11.7 0 0 1 1.65 4.44 33.28 33.28 0 0 1 .42 5.44v22.21h-3.44v-22.68a30.3 30.3 0 0 0-.24-3.91 8.62 8.62 0 0 0-1-3.25 5.88 5.88 0 0 0-2.3-2.26 8.18 8.18 0 0 0-4-.84 7.85 7.85 0 0 0-7.31 4 11.92 11.92 0 0 0-1.42 4 26.81 26.81 0 0 0-.46 4.6v20.37h-3.45V523.5a30.2 30.2 0 0 0-.27-4.06 10.53 10.53 0 0 0-1.11-3.56 6.59 6.59 0 0 0-2.37-2.52 7.73 7.73 0 0 0-4.14-1 7.22 7.22 0 0 0-4.48 1.3 9 9 0 0 0-2.68 3.29 15 15 0 0 0-1.3 4.37 31.48 31.48 0 0 0-.35 4.52v19.45h-3.44V510h3.44z" fill="url(#未命名的渐变_111-6)"/><path d="M776.64 545.33h-3.45V539H773a13.06 13.06 0 0 1-2.49 3 15.2 15.2 0 0 1-3.3 2.26 16.68 16.68 0 0 1-3.79 1.38 17.14 17.14 0 0 1-3.9.46 17.46 17.46 0 0 1-7.28-1.46 16.23 16.23 0 0 1-5.48-4 17.79 17.79 0 0 1-3.48-5.93 21.47 21.47 0 0 1-1.23-7.32 20.77 20.77 0 0 1 1.23-7.24 17.2 17.2 0 0 1 3.45-5.78 15.5 15.5 0 0 1 5.43-3.83 18.13 18.13 0 0 1 7.2-1.38 17.7 17.7 0 0 1 7.78 1.76 14.6 14.6 0 0 1 5.86 5.13h.15V510h3.45zm-17.39-32.93a12.34 12.34 0 0 0-5.59 1.26 13.79 13.79 0 0 0-4.33 3.37 15.88 15.88 0 0 0-2.8 4.83 16.08 16.08 0 0 0-1 5.55 17.91 17.91 0 0 0 1 5.86 14.83 14.83 0 0 0 2.79 4.94 13.66 13.66 0 0 0 4.41 3.41 12.92 12.92 0 0 0 5.78 1.26 13.51 13.51 0 0 0 6-1.26 12.46 12.46 0 0 0 4.37-3.45 15.47 15.47 0 0 0 2.68-5 20 20 0 0 0 .92-6.09 16.28 16.28 0 0 0-1-5.75 13.25 13.25 0 0 0-2.87-4.63 13.82 13.82 0 0 0-4.48-3.1 14.23 14.23 0 0 0-5.88-1.2z" fill="url(#未命名的渐变_111-7)"/><path d="M804.44 514.54h.15a9.85 9.85 0 0 1 2.95-3.9 7.46 7.46 0 0 1 4.71-1.46 7.79 7.79 0 0 1 2 .23 13.65 13.65 0 0 1 1.8.61l-1.83 3.07a4.28 4.28 0 0 0-1.19-.54 5 5 0 0 0-1.26-.15 5.7 5.7 0 0 0-4.41 1.61 9.39 9.39 0 0 0-2.14 3.9 18.36 18.36 0 0 0-.69 4.87v22.55H801V510h3.45z" fill="url(#未命名的渐变_111-8)"/><path d="M840.21 545.33h-3.45v-32.17h-3.91V510h3.91v-12.69h3.45V510h6.2v3.21h-6.2z" fill="url(#未命名的渐变_111-9)"/><path d="M901.25 528a16.23 16.23 0 0 0 1 6.12 13.36 13.36 0 0 0 2.95 4.72 13.13 13.13 0 0 0 4.56 3 14.9 14.9 0 0 0 5.7 1.07 12.66 12.66 0 0 0 7.36-2.22 16.24 16.24 0 0 0 5.13-5.82l2.91 1.69a18.16 18.16 0 0 1-6.51 7.08 17.52 17.52 0 0 1-9.35 2.46 16.53 16.53 0 0 1-7.08-1.49 16.82 16.82 0 0 1-5.44-4 17.34 17.34 0 0 1-3.45-5.89 21.33 21.33 0 0 1-1.18-7.13 20 20 0 0 1 1.22-7 17.9 17.9 0 0 1 3.49-5.86 16.6 16.6 0 0 1 5.4-4 16.12 16.12 0 0 1 7-1.5 16.53 16.53 0 0 1 7.16 1.5 15.69 15.69 0 0 1 5.37 4.05 18.28 18.28 0 0 1 3.33 6A22.64 22.64 0 0 1 932 528zm27.27-3.22a14.47 14.47 0 0 0-4.33-8.62 13.92 13.92 0 0 0-4.09-2.72 12.69 12.69 0 0 0-5.06-1 13.26 13.26 0 0 0-5.09 1 14.58 14.58 0 0 0-4.26 2.68 14.78 14.78 0 0 0-3 3.91 12.52 12.52 0 0 0-1.42 4.75z" fill="url(#未命名的渐变_111-10)"/><path d="M980 518.14a18.7 18.7 0 0 0-5.59-4.25 15.59 15.59 0 0 0-6.89-1.49 13.89 13.89 0 0 0-5.82 1.22 14.38 14.38 0 0 0-4.64 3.34 15.65 15.65 0 0 0-3.06 4.86 15.23 15.23 0 0 0-1.11 5.74 15.91 15.91 0 0 0 4.17 10.69 15.11 15.11 0 0 0 4.6 3.37 13.26 13.26 0 0 0 5.78 1.26 15.6 15.6 0 0 0 7.2-1.72 18.55 18.55 0 0 0 5.82-4.63v4.67a19.75 19.75 0 0 1-6 3.64 19.18 19.18 0 0 1-6.9 1.26 17.94 17.94 0 0 1-13-5.4 18.21 18.21 0 0 1-3.79-5.86 19.68 19.68 0 0 1 0-14.48 17.94 17.94 0 0 1 3.83-5.85 17.68 17.68 0 0 1 5.78-3.91 18.23 18.23 0 0 1 7.24-1.42 20 20 0 0 1 6.55 1.07 18.63 18.63 0 0 1 5.78 3.3z" fill="url(#未命名的渐变_111-11)"/><path d="M1016.91 509.18a18.75 18.75 0 0 1 7.31 1.42 17.9 17.9 0 0 1 9.85 9.73 19.18 19.18 0 0 1 0 14.63 17.92 17.92 0 0 1-9.85 9.72 18.75 18.75 0 0 1-7.31 1.42 17.67 17.67 0 0 1-7.16-1.46 18.41 18.41 0 0 1-5.83-4 19.36 19.36 0 0 1-3.94-5.86 17.49 17.49 0 0 1-1.45-7.08 18.51 18.51 0 0 1 5.32-13.1 18.21 18.21 0 0 1 5.86-4 17.93 17.93 0 0 1 7.2-1.42zm-.23 3.22a14.21 14.21 0 0 0-10.53 4.56 15.52 15.52 0 0 0-3.07 4.9 15.73 15.73 0 0 0-1.11 5.86 15.23 15.23 0 0 0 1.11 5.74 15.56 15.56 0 0 0 3.1 4.87 15 15 0 0 0 4.68 3.33 13.89 13.89 0 0 0 5.82 1.22 15.89 15.89 0 0 0 6.05-1.15 14.48 14.48 0 0 0 4.9-3.21 15.47 15.47 0 0 0 3.26-4.83 15 15 0 0 0 1.18-6 15.24 15.24 0 0 0-4.44-11 14.61 14.61 0 0 0-4.86-3.21 15.84 15.84 0 0 0-6.09-1.08z" fill="url(#未命名的渐变_111)"/><path d="M1059.88 515.46h.15a11.64 11.64 0 0 1 10.49-6.28 13.62 13.62 0 0 1 5.67 1 8.81 8.81 0 0 1 3.56 2.95 12.05 12.05 0 0 1 1.88 4.64 31.8 31.8 0 0 1 .54 6.16v21.37h-3.45V524a42.31 42.31 0 0 0-.23-4.48 9.58 9.58 0 0 0-1.11-3.67 6.36 6.36 0 0 0-2.57-2.49 9.53 9.53 0 0 0-4.59-.92 8.67 8.67 0 0 0-8.5 5.05 16.63 16.63 0 0 0-1.46 5 38.78 38.78 0 0 0-.38 5.44v17.46h-3.45V510h3.45z" fill="url(#未命名的渐变_111-2)"/><path d="M1121.46 509.18a18.75 18.75 0 0 1 7.31 1.42 18.21 18.21 0 0 1 5.9 3.87 18 18 0 0 1 3.95 5.86 19.18 19.18 0 0 1 0 14.63 18 18 0 0 1-3.95 5.85 18.21 18.21 0 0 1-5.9 3.87 18.75 18.75 0 0 1-7.31 1.42 17.7 17.7 0 0 1-7.16-1.46 18.26 18.26 0 0 1-5.82-4 19.21 19.21 0 0 1-4-5.86 17.49 17.49 0 0 1-1.45-7.08 18.51 18.51 0 0 1 5.32-13.1 18.21 18.21 0 0 1 5.86-4 18 18 0 0 1 7.25-1.42zm-.23 3.22a14.21 14.21 0 0 0-10.53 4.6 15.52 15.52 0 0 0-3.07 4.9 15.73 15.73 0 0 0-1.11 5.86 15.23 15.23 0 0 0 1.11 5.74 15.41 15.41 0 0 0 3.11 4.87 14.86 14.86 0 0 0 4.67 3.33 13.89 13.89 0 0 0 5.82 1.22 15.89 15.89 0 0 0 6-1.15 14.48 14.48 0 0 0 4.9-3.21 15.3 15.3 0 0 0 3.26-4.83 15 15 0 0 0 1.19-6 15.42 15.42 0 0 0-1.19-6.09 15.26 15.26 0 0 0-3.26-4.87 14.61 14.61 0 0 0-4.86-3.21 15.84 15.84 0 0 0-6.04-1.16z" fill="url(#未命名的渐变_111-3)"/><path d="M1164.43 514.39h.15a9 9 0 0 1 3.64-3.83 10.4 10.4 0 0 1 5.25-1.38 10.88 10.88 0 0 1 6 1.65 10.52 10.52 0 0 1 3.94 4.79 10.32 10.32 0 0 1 4.18-4.83 11.89 11.89 0 0 1 6.16-1.61 12.4 12.4 0 0 1 5.56 1.07 8.53 8.53 0 0 1 3.33 3 11.87 11.87 0 0 1 1.65 4.44 33.28 33.28 0 0 1 .42 5.44v22.21h-3.45v-22.68a32.26 32.26 0 0 0-.23-3.91 8.63 8.63 0 0 0-1-3.25 5.92 5.92 0 0 0-2.29-2.26 8.23 8.23 0 0 0-4-.84 7.88 7.88 0 0 0-7.32 4 11.7 11.7 0 0 0-1.41 4 26.82 26.82 0 0 0-.39 4.56v20.37h-3.44V523.5a30.2 30.2 0 0 0-.27-4.06 10.53 10.53 0 0 0-1.11-3.56 6.69 6.69 0 0 0-2.38-2.52 7.72 7.72 0 0 0-4.13-1 7.22 7.22 0 0 0-4.48 1.3 9 9 0 0 0-2.69 3.29 15.32 15.32 0 0 0-1.3 4.37 31.42 31.42 0 0 0-.34 4.52v19.45H1161V510h3.45z" fill="url(#未命名的渐变_111-4)"/><path d="M1222.64 510h3.6l15.09 32 13.55-32h3.53l-23.75 56h-3.52l8.5-20.06z" fill="url(#未命名的渐变_111-26)"/><path fill="url(#未命名的渐变_112)" d="M490.79 101.39v382.3l-201.1-94.84V173.62l201.1-72.23z"/><path fill="url(#未命名的渐变_112-2)" d="M1.75 490.73l196.28 92.57V202.79L1.75 110.17v380.56z"/><path fill="url(#未命名的渐变_112-3)" d="M482.74 94.02l3.23-1.16 1.78-.63L294.17.92l-1.78.62-5.11 1.83-2.41.87L9.51 103.13l193.58 91.32 81.78-29.36 4.82-1.74 193.05-69.33z"/></g></svg>