<?xml version="1.0" encoding="UTF-8"?>
<svg width="112px" height="108px" viewBox="0 0 112 108" version="1.1" xmlns="http://www.w3.org/2000/svg" xmlns:xlink="http://www.w3.org/1999/xlink">
    <title>Group 74</title>
    <defs>
        <polygon id="path-1" points="0 107 111 107 111 0 0 0"></polygon>
    </defs>
    <g id="Page-1" stroke="none" stroke-width="1" fill="none" fill-rule="evenodd">
        <g id="HOMEPAGE-1440px-Desktop---LaunchPad-banner" transform="translate(-663.000000, -511.000000)">
            <g id="Hero-Panel" transform="translate(-591.000000, -1.000000)">
                <g id="Hero-copy" transform="translate(846.500000, 186.000000)">
                    <g id="Group-70" transform="translate(0.000000, 227.000000)">
                        <g id="Group-74" transform="translate(408.000000, 99.500000)">
                            <path d="M47.6299468,36.5481824 C48.8532551,36.5481824 49.8442896,37.5371262 49.8442896,38.7573052 C49.8442896,39.9774843 48.8532551,40.966428 47.6299468,40.966428 C46.4076708,40.966428 45.4166363,39.9774843 45.4166363,38.7573052 C45.4166363,37.5371262 46.4076708,36.5481824 47.6299468,36.5481824" id="Fill-1" fill="#00E599"></path>
                            <path d="M59.9261049,36.5481824 C61.1494132,36.5481824 62.1404477,37.5371262 62.1404477,38.7573052 C62.1404477,39.9774843 61.1494132,40.966428 59.9261049,40.966428 C58.7038289,40.966428 57.7127944,39.9774843 57.7127944,38.7573052 C57.7127944,37.5371262 58.7038289,36.5481824 59.9261049,36.5481824" id="Fill-3" fill="#00E599"></path>
                            <path d="M72.7142703,36.5481824 C73.9375786,36.5481824 74.9286131,37.5371262 74.9286131,38.7573052 C74.9286131,39.9774843 73.9375786,40.966428 72.7142703,40.966428 C71.4919943,40.966428 70.5009598,39.9774843 70.5009598,38.7573052 C70.5009598,37.5371262 71.4919943,36.5481824 72.7142703,36.5481824" id="Fill-5" fill="#00E599"></path>
                            <mask id="mask-2" fill="white">
                                <use xlink:href="#path-1"></use>
                            </mask>
                            <g id="Clip-8"></g>
                            <polygon id="Fill-7" fill="#00E599" mask="url(#mask-2)" points="45.9086437 52.2571103 58.6971188 52.2571103 58.6971188 46.365772 45.9086437 46.365772"></polygon>
                            <polygon id="Fill-9" fill="#00E599" mask="url(#mask-2)" points="23.2831182 63.7930672 31.6449723 63.7930672 31.6449723 47.1028345 23.2831182 47.1028345"></polygon>
                            <path d="M43.6447491,69.438718 L21.1214241,69.438718 C20.6868141,69.438718 20.3327257,69.0887682 20.3327257,68.6582989 L20.3327257,36.8386717 C20.3327257,36.4082024 20.6868141,36.0572203 21.1214241,36.0572203 L43.6447491,36.0572203 C44.079359,36.0572203 44.4334474,36.4082024 44.4334474,36.8386717 L44.4334474,68.6582989 C44.4334474,69.0887682 44.079359,69.438718 43.6447491,69.438718 L43.6447491,69.438718 Z M21.1214241,36.5238201 C20.9459284,36.5238201 20.8034671,36.6652452 20.8034671,36.8386717 L20.8034671,68.6582989 C20.8034671,68.8317254 20.9459284,68.9731505 21.1214241,68.9731505 L43.6447491,68.9731505 C43.8202448,68.9731505 43.962706,68.8317254 43.962706,68.6582989 L43.962706,36.8386717 C43.962706,36.6652452 43.8202448,36.5238201 43.6447491,36.5238201 L21.1214241,36.5238201 Z" id="Fill-10" fill="#00E599" mask="url(#mask-2)"></path>
                            <path d="M21.8089543,66.00219 L42.9572189,66.00219 L42.9572189,38.0206557 L21.8089543,38.0206557 L21.8089543,66.00219 Z M22.2642108,65.5407517 L42.50093,65.5407517 L42.50093,38.4841585 L22.2642108,38.4841585 L22.2642108,65.5407517 Z" id="Fill-11" fill="#00E599" mask="url(#mask-2)"></path>
                            <polygon id="Fill-12" fill="#00E599" mask="url(#mask-2)" points="21.8089543 45.8392988 42.9572189 45.8392988 42.9572189 45.4212171 21.8089543 45.4212171"></polygon>
                            <polygon id="Fill-13" fill="#00E599" mask="url(#mask-2)" points="40.9904282 40.9662216 33.1209944 40.9662216 33.1209944 39.9845039 33.5896711 39.9845039 33.5896711 40.2745803 40.5217514 40.2745803 40.5217514 39.9845039 40.9904282 39.9845039"></polygon>
                            <polygon id="Fill-14" fill="#00E599" mask="url(#mask-2)" points="39.5145093 42.9300698 33.1213041 42.9300698 33.1213041 41.9483522 33.6044334 41.9483522 33.6044334 42.2384286 39.0303476 42.2384286 39.0303476 41.9483522 39.5145093 41.9483522"></polygon>
                            <path d="M25.7433615,43.4209287 L23.7757449,41.4574933 L25.7433615,39.494058 L27.7099457,41.4574933 L25.7433615,43.4209287 Z M24.4188851,41.4574933 L25.7433615,42.7788378 L27.0668056,41.4574933 L25.7433615,40.1351165 L24.4188851,41.4574933 Z" id="Fill-15" fill="#00E599" mask="url(#mask-2)"></path>
                            <path d="M84.9681029,69.438718 L73.7405072,69.438718 C73.3100266,69.438718 72.9600675,69.0918651 72.9600675,68.6644927 L72.9600675,47.6324046 C72.9600675,47.2050322 73.3100266,46.857147 73.7405072,46.857147 L84.9681029,46.857147 C85.3985836,46.857147 85.7485427,47.2050322 85.7485427,47.6324046 L85.7485427,68.6644927 C85.7485427,69.0918651 85.3985836,69.438718 84.9681029,69.438718 L84.9681029,69.438718 Z M73.7405072,47.3196176 C73.5670762,47.3196176 73.4256473,47.4600104 73.4256473,47.6324046 L73.4256473,68.6644927 C73.4256473,68.8368869 73.5670762,68.9772797 73.7405072,68.9772797 L84.9681029,68.9772797 C85.141534,68.9772797 85.2829629,68.8368869 85.2829629,68.6644927 L85.2829629,47.6324046 C85.2829629,47.4600104 85.141534,47.3196176 84.9681029,47.3196176 L73.7405072,47.3196176 Z" id="Fill-16" fill="#00E599" mask="url(#mask-2)"></path>
                            <path d="M73.9441855,67.4753859 L73.9441855,48.3489243 L84.7640118,48.3303429 L84.7640118,67.4557722 L73.9441855,67.4753859 Z M74.4149269,48.8093303 L74.4149269,67.011883 L84.2932703,66.9953662 L84.2932703,48.7928135 L74.4149269,48.8093303 Z" id="Fill-17" fill="#00E599" mask="url(#mask-2)"></path>
                            <polygon id="Fill-18" fill="#00E599" mask="url(#mask-2)" points="73.9445984 53.2026975 84.7644247 53.2026975 84.7644247 52.7846158 73.9445984 52.7846158"></polygon>
                            <path d="M76.6489872,58.6387913 C75.7002781,58.6387913 74.928097,57.8686952 74.928097,56.9210435 C74.928097,55.9733917 75.7002781,55.2022633 76.6489872,55.2022633 C77.5987287,55.2022633 78.3709098,55.9733917 78.3709098,56.9210435 C78.3709098,57.8686952 77.5987287,58.6387913 76.6489872,58.6387913 M76.6489872,55.7173812 C75.9841682,55.7173812 75.4432285,56.2572743 75.4432285,56.9210435 C75.4432285,57.5848126 75.9841682,58.1236734 76.6489872,58.1236734 C77.3148385,58.1236734 77.8547459,57.5848126 77.8547459,56.9210435 C77.8547459,56.2572743 77.3148385,55.7173812 76.6489872,55.7173812" id="Fill-19" fill="#00E599" mask="url(#mask-2)"></path>
                            <polygon id="Fill-20" fill="#00E599" mask="url(#mask-2)" points="82.797634 56.1846004 78.862401 56.1846004 78.862401 55.2028827 79.3248837 55.2028827 79.3248837 55.496056 82.3351512 55.496056 82.3351512 55.2028827 82.797634 55.2028827"></polygon>
                            <polygon id="Fill-21" fill="#00E599" mask="url(#mask-2)" points="78.8626074 58.1112858 83.2892285 58.1112858 83.2892285 57.6932042 78.8626074 57.6932042"></polygon>
                            <path d="M76.6489872,63.5477926 C75.7002781,63.5477926 74.928097,62.7776965 74.928097,61.8300448 C74.928097,60.882393 75.7002781,60.1112646 76.6489872,60.1112646 C77.5987287,60.1112646 78.3709098,60.882393 78.3709098,61.8300448 C78.3709098,62.7776965 77.5987287,63.5477926 76.6489872,63.5477926 M76.6489872,60.6263825 C75.9841682,60.6263825 75.4432285,61.1662756 75.4432285,61.8300448 C75.4432285,62.4938139 75.9841682,63.033707 76.6489872,63.033707 C77.3148385,63.033707 77.8547459,62.4938139 77.8547459,61.8300448 C77.8547459,61.1662756 77.3148385,60.6263825 76.6489872,60.6263825" id="Fill-22" fill="#00E599" mask="url(#mask-2)"></path>
                            <polygon id="Fill-23" fill="#00E599" mask="url(#mask-2)" points="82.797634 61.5845637 78.862401 61.5845637 78.862401 60.6028461 79.3248837 60.6028461 79.3248837 60.8960194 82.3351512 60.8960194 82.3351512 60.6028461 82.797634 60.6028461"></polygon>
                            <polygon id="Fill-24" fill="#00E599" mask="url(#mask-2)" points="78.8626074 63.5112492 83.2892285 63.5112492 83.2892285 63.0931675 78.8626074 63.0931675"></polygon>
                            <path d="M79.6008249,51.766045 L78.3713227,50.5396722 L79.6008249,49.312267 L80.8292949,50.5396722 L79.6008249,51.766045 Z M79.0031072,50.5396722 L79.6008249,51.1353095 L80.1975103,50.5396722 L79.6008249,49.9430025 L79.0031072,50.5396722 Z" id="Fill-25" fill="#00E599" mask="url(#mask-2)"></path>
                            <polygon id="Fill-26" fill="#00E599" mask="url(#mask-2)" points="68.0416456 67.966348 50.8275817 67.966348 50.8275817 59.6212316 51.2879999 59.6212316 51.2879999 67.4832314 67.5812274 67.4832314 67.5812274 59.6212316 68.0416456 59.6212316"></polygon>
                            <polygon id="Fill-27" fill="#00E599" mask="url(#mask-2)" points="51.319073 65.4746845 68.0417488 65.4746845 68.0417488 65.0576352 51.319073 65.0576352"></polygon>
                            <polygon id="Fill-28" fill="#00E599" mask="url(#mask-2)" points="44.43417 59.6177218 44.4331377 59.1996401 72.9594481 59.1325406 72.9604805 59.5506223"></polygon>
                            <polygon id="Fill-29" fill="#00E599" mask="url(#mask-2)" points="84.790749 47.1025248 84.7876521 24.7387692 35.5549133 24.8636775 35.5549133 36.233434 35.0883012 36.233434 35.0883012 24.4022392 85.2542642 24.2752663 85.2563288 47.1025248"></polygon>
                            <path d="M59.6801012,58.1479325 C59.1381292,58.1479325 58.6973252,57.7071402 58.6973252,57.1662148 C58.6973252,56.6252894 59.1381292,56.1844972 59.6801012,56.1844972 C60.2220732,56.1844972 60.6639095,56.6252894 60.6639095,57.1662148 C60.6639095,57.7071402 60.2220732,58.1479325 59.6801012,58.1479325 M59.6801012,56.6129018 C59.3745322,56.6129018 59.1257412,56.8616862 59.1257412,57.1662148 C59.1257412,57.4717757 59.3745322,57.7195278 59.6801012,57.7195278 C59.9867025,57.7195278 60.2354935,57.4717757 60.2354935,57.1662148 C60.2354935,56.8616862 59.9867025,56.6129018 59.6801012,56.6129018" id="Fill-30" fill="#00E599" mask="url(#mask-2)"></path>
                            <path d="M47.6299468,40.9662216 C46.4097355,40.9662216 45.4166363,39.9752132 45.4166363,38.7570988 C45.4166363,37.5389843 46.4097355,36.5479759 47.6299468,36.5479759 C48.8511904,36.5479759 49.8442896,37.5389843 49.8442896,38.7570988 C49.8442896,39.9752132 48.8511904,40.9662216 47.6299468,40.9662216 M47.6299468,36.9836067 C46.6502678,36.9836067 45.8522786,37.7795103 45.8522786,38.7570988 C45.8522786,39.7357195 46.6502678,40.5316231 47.6299468,40.5316231 C48.6106581,40.5316231 49.4086474,39.7357195 49.4086474,38.7570988 C49.4086474,37.7795103 48.6106581,36.9836067 47.6299468,36.9836067" id="Fill-31" fill="#00E599" mask="url(#mask-2)"></path>
                            <path d="M59.9261049,40.9662216 C58.7048612,40.9662216 57.7127944,39.9752132 57.7127944,38.7570988 C57.7127944,37.5389843 58.7048612,36.5479759 59.9261049,36.5479759 C61.1473485,36.5479759 62.1404477,37.5389843 62.1404477,38.7570988 C62.1404477,39.9752132 61.1473485,40.9662216 59.9261049,40.9662216 M59.9261049,36.9836067 C58.9464259,36.9836067 58.1474043,37.7795103 58.1474043,38.7570988 C58.1474043,39.7357195 58.9464259,40.5316231 59.9261049,40.5316231 C60.9068162,40.5316231 61.7058378,39.7357195 61.7058378,38.7570988 C61.7058378,37.7795103 60.9068162,36.9836067 59.9261049,36.9836067" id="Fill-32" fill="#00E599" mask="url(#mask-2)"></path>
                            <path d="M72.7153026,40.9662216 C71.4930267,40.9662216 70.5009598,39.9752132 70.5009598,38.7570988 C70.5009598,37.5389843 71.4930267,36.5479759 72.7153026,36.5479759 C73.9355139,36.5479759 74.9286131,37.5389843 74.9286131,38.7570988 C74.9286131,39.9752132 73.9355139,40.9662216 72.7153026,40.9662216 M72.7153026,36.9836067 C71.7345913,36.9836067 70.9355697,37.7795103 70.9355697,38.7570988 C70.9355697,39.7357195 71.7345913,40.5316231 72.7153026,40.5316231 C73.6949816,40.5316231 74.4929709,39.7357195 74.4929709,38.7570988 C74.4929709,37.7795103 73.6949816,36.9836067 72.7153026,36.9836067" id="Fill-33" fill="#00E599" mask="url(#mask-2)"></path>
                            <path d="M46.6469644,34.0939914 L44.4326216,31.8848686 L46.6469644,29.6757458 L48.8602749,31.8848686 L46.6469644,34.0939914 Z M45.0592444,31.8848686 L46.6469644,33.4694497 L48.2346843,31.8848686 L46.6469644,30.3002875 L45.0592444,31.8848686 Z" id="Fill-34" fill="#00E599" mask="url(#mask-2)"></path>
                            <polygon id="Fill-35" fill="#00E599" mask="url(#mask-2)" points="44.4334474 53.6940725 72.9607901 53.6940725 72.9607901 53.2759908 44.4334474 53.2759908"></polygon>
                            <polygon id="Fill-36" fill="#00E599" mask="url(#mask-2)" points="83.7815455 47.1025248 83.3139011 47.1025248 83.3139011 26.7053014 37.5229428 26.7053014 37.5229428 36.1560115 37.0552984 36.1560115 37.0552984 26.2397339 83.7815455 26.2397339"></polygon>
                            <polygon id="Fill-37" fill="#00E599" mask="url(#mask-2)" points="37.0554016 35.5297148 83.2892285 35.5297148 83.2892285 35.1116332 37.0554016 35.1116332"></polygon>
                            <polygon id="Fill-38" fill="#00E599" mask="url(#mask-2)" points="37.0554016 28.6576911 83.2892285 28.6576911 83.2892285 28.2396095 37.0554016 28.2396095"></polygon>
                            <polygon id="Fill-39" fill="#00E599" mask="url(#mask-2)" points="71.4853874 42.9300698 48.3674417 42.9300698 48.3674417 41.9483522 48.8340538 41.9483522 48.8340538 42.3416586 71.0198077 42.3416586 71.0198077 41.9483522 71.4853874 41.9483522"></polygon>
                            <polygon id="Fill-40" fill="#00E599" mask="url(#mask-2)" points="69.0255571 44.4028528 50.827685 44.4028528 50.827685 43.4211351 51.2932648 43.4211351 51.2932648 43.8165062 68.5599773 43.8165062 68.5599773 43.4211351 69.0255571 43.4211351"></polygon>
                            <polygon id="Fill-41" fill="#00E599" mask="url(#mask-2)" points="74.9282002 32.1301432 63.6149213 32.1301432 63.6149213 31.1484255 64.0835981 31.1484255 64.0835981 31.5603134 74.4605558 31.5603134 74.4605558 31.1484255 74.9282002 31.1484255"></polygon>
                            <polygon id="Fill-42" fill="#00E599" mask="url(#mask-2)" points="60.172315 48.7844518 72.9607901 48.7844518 72.9607901 48.3674025 60.172315 48.3674025"></polygon>
                            <polygon id="Fill-43" fill="#00E599" mask="url(#mask-2)" points="60.172315 50.7478872 72.9607901 50.7478872 72.9607901 50.3298055 60.172315 50.3298055"></polygon>
                            <polygon id="Fill-44" fill="#00E599" mask="url(#mask-2)" points="44.4334474 55.6564755 72.9607901 55.6564755 72.9607901 55.2383939 44.4334474 55.2383939"></polygon>
                            <polygon id="Fill-45" fill="#00E599" mask="url(#mask-2)" points="30.169776 67.9294948 34.1050091 67.9294948 34.1050091 67.5114132 30.169776 67.5114132"></polygon>
                            <polygon id="Fill-46" fill="#00E599" mask="url(#mask-2)" points="78.3712194 68.4208698 80.3378037 68.4208698 80.3378037 68.0027882 78.3712194 68.0027882"></polygon>
                            <polygon id="Fill-47" fill="#00E599" mask="url(#mask-2)" points="33.1212008 52.2209798 40.4982144 52.2209798 40.4982144 51.8028982 33.1212008 51.8028982"></polygon>
                            <polygon id="Fill-48" fill="#00E599" mask="url(#mask-2)" points="33.1212008 53.2026975 40.4982144 53.2026975 40.4982144 52.7846158 33.1212008 52.7846158"></polygon>
                            <polygon id="Fill-49" fill="#00E599" mask="url(#mask-2)" points="33.1212008 59.5843785 40.4982144 59.5843785 40.4982144 59.1673291 33.1212008 59.1673291"></polygon>
                            <polygon id="Fill-50" fill="#00E599" mask="url(#mask-2)" points="33.1212008 61.0564389 40.4982144 61.0564389 40.4982144 60.6383572 33.1212008 60.6383572"></polygon>
                            <path d="M16.3969765,95.3761944 L1.51390852,49.6607716 C-0.602363193,43.1583115 1.71418009,36.0333742 7.25055336,32.018758 L46.2446663,3.74198568 C51.7655547,-0.261275229 59.2344453,-0.261275229 64.7553337,3.74198568 L103.749447,32.018758 C109.284788,36.0333742 111.602363,43.1583115 109.485059,49.6607716 L94.6030235,95.3761944 C92.4898488,101.867299 86.4393763,106.26077 79.6115611,106.26077 L31.3874065,106.26077 C24.5606237,106.26077 18.5101512,101.867299 16.3969765,95.3761944 Z" id="Stroke-51" stroke="#00E599" stroke-width="1.4743872" mask="url(#mask-2)"></path>
                            <path d="M19.595747,94.9200208 L4.36891392,48.1475225 C2.78119397,43.2709354 4.51963376,37.9267163 8.6706233,34.9154961 L48.558732,5.99147146 C52.6983659,2.98850963 58.3008082,2.98850963 62.4414745,5.99147146 L102.329583,34.9154961 C106.480573,37.9267163 108.219012,43.2709354 106.631293,48.1475225 L91.4044595,94.9200208 C89.8188042,99.7883495 85.2806918,103.083452 80.1613789,103.083452 L30.8388276,103.083452 C25.7195147,103.083452 21.18037,99.7883495 19.595747,94.9200208 Z" id="Stroke-52" stroke="#00E599" stroke-width="0.9822384" mask="url(#mask-2)"></path>
                            <line x1="14.92209" y1="80.2385415" x2="95.5861091" y2="80.2385415" id="Stroke-53" stroke="#00E599" stroke-width="0.864864" stroke-linecap="round" mask="url(#mask-2)"></line>
                            <line x1="11.4792772" y1="69.438718" x2="99.5203099" y2="69.438718" id="Stroke-54" stroke="#00E599" stroke-width="0.864864" stroke-linecap="round" mask="url(#mask-2)"></line>
                            <text id="GENERAL" mask="url(#mask-2)" font-family="WorkSans-Bold, Work Sans" font-size="7.86181968" font-weight="bold" letter-spacing="-0.00823680002" fill="#00E599">
                                <tspan x="38.6210297" y="77.1586065">GENERAL</tspan>
                            </text>
                            <text id="N3" mask="url(#mask-2)" font-family="WorkSans-Bold, Work Sans" font-size="9.87139296" font-weight="bold" fill="#00E599">
                                <tspan x="49.4085441" y="93.955871">N3</tspan>
                            </text>
                            <polygon id="Stroke-55" stroke="#00E599" stroke-width="0.8102952" mask="url(#mask-2)" points="47.6295339 99.3836877 63.8608218 99.3836877 63.8608218 83.1837977 47.6295339 83.1837977"></polygon>
                            <path d="M59.0379934,83.1907141 L59.4901529,80.3291774 M55.8780384,103.173985 L56.4726591,99.4153793" id="Stroke-56" stroke="#00E599" stroke-width="0.633204" mask="url(#mask-2)"></path>
                            <path d="M84.1697007,24.5859887 L84.8758128,22.4718375 M63.0379534,83.1659389 L64.0630548,80.2703363 M55.9912847,103.065594 L57.2465952,99.5227386" id="Stroke-57" stroke="#00E599" stroke-width="0.633204" mask="url(#mask-2)"></path>
                            <path d="M85.6930034,53.3216185 L98.2079117,32.1274592 M63.6548724,90.6413422 L69.6692134,80.4587311 M56.2541154,103.173469 L58.5624,99.2662119" id="Stroke-58" stroke="#00E599" stroke-width="0.633204" mask="url(#mask-2)"></path>
                            <path d="M20.5202997,45.3898352 L12.6518982,32.069031 M47.6395474,91.3850114 L41.1534327,80.3693339 M54.5169144,103.06549 L52.3366383,99.3646934" id="Stroke-59" stroke="#00E599" stroke-width="0.633204" mask="url(#mask-2)"></path>
                            <path d="M100.500402,50.7741076 L107.075297,43.053533 M85.5584911,68.3201173 L94.4045069,57.9320785 M63.7794743,93.8953595 L75.3590938,80.2968664 M55.8780384,103.173675 L59.0204438,99.4832015" id="Stroke-60" stroke="#00E599" stroke-width="0.633204" mask="url(#mask-2)"></path>
                            <path d="M96.8812674,69.4815585 L100.450024,66.5240179 M63.8251032,96.549507 L79.6011346,83.4300014 M55.9918009,103.065387 L60.3317064,99.4564649" id="Stroke-61" stroke="#00E599" stroke-width="0.633204" mask="url(#mask-2)"></path>
                            <line x1="56.4833953" y1="103.065594" x2="80.0927291" y2="89.8118888" id="Stroke-62" stroke="#00E599" stroke-width="0.633204" mask="url(#mask-2)"></line>
                            <line x1="85.9944431" y1="86.3748447" x2="95.855237" y2="80.8386177" id="Stroke-63" stroke="#00E599" stroke-width="0.633204" mask="url(#mask-2)"></line>
                            <line x1="56.4833953" y1="103.065594" x2="85.502126" y2="95.7021948" id="Stroke-64" stroke="#00E599" stroke-width="0.633204" mask="url(#mask-2)"></line>
                            <path d="M56.0256612,11.2961535 L56.0256612,3.91727029 M56.0256612,24.5839241 L56.0256612,17.4858266 M56.0256612,83.2485229 L56.0256612,80.2620779 M56.0256612,103.173985 L56.0256612,99.4349931" id="Stroke-65" stroke="#00E599" stroke-width="0.633204" mask="url(#mask-2)"></path>
                            <path d="M42.7041953,24.6253193 L40.6705098,11.7690503 M51.9755301,83.2610138 L51.5099503,80.3106993 M55.1251618,103.174088 L54.5150562,99.3184463" id="Stroke-66" stroke="#00E599" stroke-width="0.633204" mask="url(#mask-2)"></path>
                            <path d="M68.3399883,24.6253193 L70.3736738,11.7690503 M55.9179895,103.174088 L56.5280951,99.3184463" id="Stroke-67" stroke="#00E599" stroke-width="0.633204" mask="url(#mask-2)"></path>
                            <path d="M31.0441576,36.2715259 L26.1240839,22.2435959 M47.9536848,83.2535812 L46.9048398,80.3073959 M55.008612,103.06549 L53.7471076,99.5257323" id="Stroke-68" stroke="#00E599" stroke-width="0.633204" mask="url(#mask-2)"></path>
                            <path d="M6.93166735,46.5798711 L3.97611324,43.1092772 M20.4995499,62.5123953 L9.28537443,49.3443716 M47.610539,94.3495716 L35.6974778,80.3598368 M55.1258845,103.173675 L52.0185782,99.5255258" id="Stroke-69" stroke="#00E599" stroke-width="0.633204" mask="url(#mask-2)"></path>
                            <path d="M14.095402,69.3812189 L10.1622335,66.1119236 M47.6119843,97.2409418 L27.0769224,80.1728872 M54.7494978,103.173572 L50.2950039,99.4717429" id="Stroke-70" stroke="#00E599" stroke-width="0.633204" mask="url(#mask-2)"></path>
                            <line x1="55.0085088" y1="103.065594" x2="26.972554" y2="87.3570785" id="Stroke-71" stroke="#00E599" stroke-width="0.633204" mask="url(#mask-2)"></line>
                            <line x1="20.9789628" y1="84.0930479" x2="15.4136844" y2="80.9744684" id="Stroke-72" stroke="#00E599" stroke-width="0.633204" mask="url(#mask-2)"></line>
                            <line x1="55.0085088" y1="103.065594" x2="24.0211292" y2="95.2118522" id="Stroke-73" stroke="#00E599" stroke-width="0.633204" mask="url(#mask-2)"></line>
                        </g>
                    </g>
                </g>
            </g>
        </g>
    </g>
</svg>