<?xml version="1.0" encoding="UTF-8"?>
<svg width="109px" height="108px" viewBox="0 0 109 108" version="1.1" xmlns="http://www.w3.org/2000/svg" xmlns:xlink="http://www.w3.org/1999/xlink">
    <title>Group 9</title>
    <g id="Page-1" stroke="none" stroke-width="1" fill="none" fill-rule="evenodd">
        <g id="HOMEPAGE-1440px-Desktop---LaunchPad-banner" transform="translate(-460.000000, -511.000000)">
            <g id="Hero-Panel" transform="translate(-591.000000, -1.000000)">
                <g id="Hero-copy" transform="translate(846.500000, 186.000000)">
                    <g id="Group-70" transform="translate(0.000000, 227.000000)">
                        <g id="Group-69" transform="translate(204.500000, 99.305485)">
                            <g id="Group-21" transform="translate(0.775237, 0.000000)">
                                <path d="M56.9475835,20.3128521 L56.9475835,18.9474087 L57.7286886,18.9474087 C58.2176247,18.9474087 58.5932706,18.8371 58.8556266,18.6164825 C59.1179825,18.395865 59.2491604,18.0848143 59.2491604,17.6833302 C59.2491604,17.2619707 59.1179825,16.9389947 58.8556266,16.7144021 C58.5932706,16.4898095 58.2176247,16.3775133 57.7286886,16.3775133 L57.7286886,16.3775133 L55.9220104,16.3775133 L55.9220104,20.3128521 L56.9475835,20.3128521 Z M57.5676975,18.1961168 L56.9475835,18.1961168 L56.9475835,17.1526557 L57.5676975,17.1526557 C57.7903025,17.1526557 57.954275,17.195388 58.0596148,17.2808524 C58.1649547,17.3663168 58.2176247,17.496501 58.2176247,17.671405 C58.2176247,17.850284 58.1649547,17.9824557 58.0596148,18.0679201 C57.954275,18.1533846 57.7903025,18.1961168 57.5676975,18.1961168 L57.5676975,18.1961168 Z M62.3199173,20.3128521 L62.3199173,18.8758571 L62.9340686,18.8758571 L63.7748001,20.3128521 L64.9077007,20.3128521 L63.9059781,18.7685297 C64.1564087,18.6771026 64.347213,18.535987 64.478391,18.3451827 C64.6095689,18.1543784 64.6751579,17.915873 64.6751579,17.6296665 C64.6751579,17.2242074 64.5469613,16.9141504 64.290568,16.6994955 C64.0341747,16.4848407 63.6674727,16.3775133 63.1904619,16.3775133 L63.1904619,16.3775133 L61.312232,16.3775133 L61.312232,20.3128521 L62.3199173,20.3128521 Z M63.0175455,18.1484157 L62.3199173,18.1484157 L62.3199173,17.1526557 L63.0175455,17.1526557 C63.2361754,17.1526557 63.395179,17.1924066 63.4945563,17.2719084 C63.5939335,17.3514102 63.6436221,17.4766256 63.6436221,17.6475544 C63.6436221,17.8224584 63.5939335,17.9496612 63.4945563,18.029163 C63.395179,18.1086648 63.2361754,18.1484157 63.0175455,18.1484157 L63.0175455,18.1484157 Z M68.556833,20.3724784 C68.954342,20.3724784 69.2971935,20.2919828 69.5853875,20.1309917 C69.8735815,19.9700006 70.0951928,19.7374578 70.2502212,19.4333635 C70.4052497,19.1292691 70.482764,18.7665422 70.482764,18.3451827 C70.482764,17.9238231 70.4052497,17.5610962 70.2502212,17.2570019 C70.0951928,16.9529075 69.8735815,16.7203647 69.5853875,16.5593736 C69.2971935,16.3983825 68.954342,16.3178869 68.556833,16.3178869 C68.1593241,16.3178869 67.8154788,16.3983825 67.5252973,16.5593736 C67.2351157,16.7203647 67.0125107,16.9529075 66.8574822,17.2570019 C66.7024537,17.5610962 66.6249394,17.9238231 66.6249394,18.3451827 C66.6249394,18.7665422 66.7024537,19.1292691 66.8574822,19.4333635 C67.0125107,19.7374578 67.2351157,19.9700006 67.5252973,20.1309917 C67.8154788,20.2919828 68.1593241,20.3724784 68.556833,20.3724784 Z M68.556833,19.5675227 C68.2706266,19.5675227 68.0519966,19.4641704 67.9009432,19.2574657 C67.7498898,19.0507611 67.6743631,18.7466667 67.6743631,18.3451827 C67.6743631,17.9436986 67.7498898,17.6396042 67.9009432,17.4328996 C68.0519966,17.2261949 68.2706266,17.1228426 68.556833,17.1228426 C68.8430395,17.1228426 69.0606757,17.2261949 69.2097415,17.4328996 C69.3588074,17.6396042 69.4333403,17.9436986 69.4333403,18.3451827 C69.4333403,18.7466667 69.3588074,19.0507611 69.2097415,19.2574657 C69.0606757,19.4641704 68.8430395,19.5675227 68.556833,19.5675227 Z M73.8337647,20.3724784 C74.3624516,20.3724784 74.770892,20.234344 75.0590861,19.9580753 C75.3472801,19.6818066 75.4913771,19.2952291 75.4913771,18.7983429 L75.4913771,18.7983429 L75.4913771,16.3775133 L74.4658039,16.3775133 L74.4658039,18.6910155 C74.4658039,18.9970974 74.4210842,19.2197024 74.3316446,19.3588305 C74.2422051,19.4979587 74.0921455,19.5675227 73.8814657,19.5675227 C73.7025867,19.5675227 73.570415,19.5188279 73.4849505,19.4214382 C73.3994861,19.3240485 73.3567539,19.1660387 73.3567539,18.9474087 C73.3567539,18.8520066 73.3666916,18.7287788 73.3865671,18.5777254 L73.3865671,18.5777254 L72.3729192,18.7566044 C72.3490687,18.8877824 72.3371434,19.0110102 72.3371434,19.1262878 C72.3371434,19.5118715 72.4633525,19.8159658 72.7157707,20.0385709 C72.9681889,20.2611759 73.3408535,20.3724784 73.8337647,20.3724784 Z M80.8458229,20.3128521 L80.8458229,19.5198217 L78.7290877,19.5198217 L78.7290877,18.714866 L80.3509243,18.714866 L80.3509243,17.9695367 L78.7290877,17.9695367 L78.7290877,17.1705437 L80.7683087,17.1705437 L80.7683087,16.3775133 L77.7035145,16.3775133 L77.7035145,20.3128521 L80.8458229,20.3128521 Z M84.6022827,20.3724784 C85.0355675,20.3724784 85.4032633,20.2740949 85.7053701,20.077328 C86.0074769,19.8805611 86.2141816,19.5834231 86.3254841,19.1859141 L86.3254841,19.1859141 L85.3953131,18.9235582 C85.347612,19.1461632 85.2601601,19.3091419 85.1329572,19.4124942 C85.0057543,19.5158466 84.8328379,19.5675227 84.614208,19.5675227 C84.3240264,19.5675227 84.1024152,19.4631766 83.9493742,19.2544844 C83.7963333,19.0457922 83.7198128,18.7426916 83.7198128,18.3451827 C83.7198128,17.9476737 83.7993146,17.6445731 83.9583182,17.4358809 C84.1173218,17.2271887 84.3419144,17.1228426 84.6320959,17.1228426 C84.8427757,17.1228426 85.0057543,17.1705437 85.1210319,17.2659458 C85.2363095,17.361348 85.321774,17.5283017 85.3774252,17.7668071 L85.3774252,17.7668071 L86.277783,17.4030864 C86.1823809,17.0413532 85.9856139,16.7700534 85.6874822,16.5891868 C85.3893505,16.4083202 85.0256298,16.3178869 84.5963201,16.3178869 C84.2027862,16.3178869 83.8609285,16.3983825 83.5707469,16.5593736 C83.2805654,16.7203647 83.0579604,16.9539013 82.9029319,17.2599832 C82.7479034,17.5660651 82.6703891,17.9277982 82.6703891,18.3451827 C82.6703891,18.7665422 82.7479034,19.1292691 82.9029319,19.4333635 C83.0579604,19.7374578 83.2805654,19.9700006 83.5707469,20.1309917 C83.8609285,20.2919828 84.2047738,20.3724784 84.6022827,20.3724784 Z M90.3323746,20.3128521 L90.3323746,17.1705437 L91.614341,17.1705437 L91.614341,16.3775133 L88.0188724,16.3775133 L88.0188724,17.1705437 L89.3068014,17.1705437 L89.3068014,20.3128521 L90.3323746,20.3128521 Z" id="PROJECT" fill="#00E599" fill-rule="nonzero" transform="translate(73.768176, 18.345183) rotate(31.000000) translate(-73.768176, -18.345183) "></path>
                                <path d="M19.9204505,91.039918 L19.9204505,89.0543607 L19.8966,88.3149941 L19.9025626,88.3149941 L20.2006944,88.9112575 L21.4230344,91.039918 L22.5618976,91.039918 L22.5618976,87.1045792 L21.6555772,87.1045792 L21.6555772,89.0901365 L21.6794277,89.8295032 L21.6734651,89.8295032 L21.3753334,89.2332398 L20.1529933,87.1045792 L19.0141301,87.1045792 L19.0141301,91.039918 L19.9204505,91.039918 Z M27.9819325,91.039918 L27.9819325,90.2468876 L25.8651972,90.2468876 L25.8651972,89.441932 L27.4870338,89.441932 L27.4870338,88.6966027 L25.8651972,88.6966027 L25.8651972,87.8976096 L27.9044182,87.8976096 L27.9044182,87.1045792 L24.8396241,87.1045792 L24.8396241,91.039918 L27.9819325,91.039918 Z M31.7383923,91.0995444 C32.1359012,91.0995444 32.4787527,91.0190488 32.7669467,90.8580577 C33.0551407,90.6970666 33.276752,90.4645238 33.4317805,90.1604294 C33.586809,89.8563351 33.6643232,89.4936081 33.6643232,89.0722486 C33.6643232,88.6508891 33.586809,88.2881622 33.4317805,87.9840678 C33.276752,87.6799735 33.0551407,87.4474307 32.7669467,87.2864396 C32.4787527,87.1254485 32.1359012,87.0449529 31.7383923,87.0449529 C31.3408833,87.0449529 30.9970381,87.1254485 30.7068565,87.2864396 C30.416675,87.4474307 30.1940699,87.6799735 30.0390414,87.9840678 C29.8840129,88.2881622 29.8064987,88.6508891 29.8064987,89.0722486 C29.8064987,89.4936081 29.8840129,89.8563351 30.0390414,90.1604294 C30.1940699,90.4645238 30.416675,90.6970666 30.7068565,90.8580577 C30.9970381,91.0190488 31.3408833,91.0995444 31.7383923,91.0995444 Z M31.7383923,90.2945887 C31.4521858,90.2945887 31.2335559,90.1912364 31.0825025,89.9845317 C30.9314491,89.7778271 30.8559224,89.4737327 30.8559224,89.0722486 C30.8559224,88.6707646 30.9314491,88.3666702 31.0825025,88.1599656 C31.2335559,87.9532609 31.4521858,87.8499086 31.7383923,87.8499086 C32.0245987,87.8499086 32.2422349,87.9532609 32.3913008,88.1599656 C32.5403666,88.3666702 32.6148996,88.6707646 32.6148996,89.0722486 C32.6148996,89.4737327 32.5403666,89.7778271 32.3913008,89.9845317 C32.2422349,90.1912364 32.0245987,90.2945887 31.7383923,90.2945887 Z M39.7939116,91.039918 L39.7939116,89.0543607 L39.7700611,88.3149941 L39.7760237,88.3149941 L40.0741555,88.9112575 L41.2964955,91.039918 L42.4353587,91.039918 L42.4353587,87.1045792 L41.5290383,87.1045792 L41.5290383,89.0901365 L41.5528888,89.8295032 L41.5469262,89.8295032 L41.2487945,89.2332398 L40.0264544,87.1045792 L38.8875912,87.1045792 L38.8875912,91.039918 L39.7939116,91.039918 Z M46.0129395,91.0995444 C46.3070961,91.0995444 46.5694521,91.0518433 46.8000073,90.9564412 C47.0305625,90.861039 47.211429,90.7278735 47.342607,90.5569446 C47.473785,90.3860158 47.5393739,90.1892488 47.5393739,89.9666438 C47.5393739,89.751989 47.4936604,89.5780788 47.4022334,89.4449133 C47.3108063,89.3117478 47.2024851,89.2163456 47.0772698,89.1587068 C46.9520544,89.101068 46.8337955,89.0722486 46.722493,89.0722486 L46.722493,89.0722486 L46.722493,89.0543607 C46.809945,89.0543607 46.9123036,89.02256 47.0295687,88.9589586 C47.1468338,88.8953571 47.2481986,88.7949861 47.3336631,88.6578455 C47.4191275,88.5207049 47.4618597,88.3507699 47.4618597,88.1480403 C47.4618597,87.8101577 47.3386319,87.5418391 47.0921764,87.3430846 C46.8457208,87.1443301 46.5018755,87.0449529 46.0606406,87.0449529 C45.6551814,87.0449529 45.3182926,87.127436 45.049974,87.2924022 C44.7816555,87.4573685 44.6156955,87.7147555 44.552094,88.0645634 L44.552094,88.0645634 L45.4524519,88.3686578 C45.4842526,88.0148748 45.6671067,87.8379833 46.0010142,87.8379833 C46.1480926,87.8379833 46.2623764,87.8767404 46.3438657,87.9542547 C46.4253551,88.0317689 46.4660997,88.1420777 46.4660997,88.2851809 C46.4660997,88.4441845 46.4223737,88.5624434 46.3349218,88.6399576 C46.2474698,88.7174719 46.1083417,88.756229 45.9175374,88.756229 L45.9175374,88.756229 L45.744621,88.756229 L45.744621,89.4061562 L45.9652384,89.4061562 C46.167968,89.4061562 46.3160401,89.4399444 46.4094547,89.507521 C46.5028693,89.5750975 46.5495766,89.6864 46.5495766,89.8414285 C46.5495766,89.9885068 46.5008818,90.1027906 46.4034921,90.18428 C46.3061024,90.2657693 46.1719431,90.306514 46.0010142,90.306514 C45.8181601,90.306514 45.6760507,90.2608005 45.5746859,90.1693734 C45.4733211,90.0779463 45.412701,89.9288805 45.3928255,89.7221758 L45.3928255,89.7221758 L44.4626545,90.1216723 C44.5699819,90.46353 44.7498548,90.7119731 45.002273,90.8670016 C45.2546911,91.0220301 45.59158,91.0995444 46.0129395,91.0995444 Z" id="NEON3" fill="#00E599" fill-rule="nonzero" transform="translate(33.276752, 89.072249) rotate(31.000000) translate(-33.276752, -89.072249) "></path>
                                <path d="M17.774701,20.2775945 L17.774701,19.4964894 L16.8504927,19.4964894 C16.5841617,19.4964894 16.3198182,19.5044396 16.0574623,19.5203399 L16.0574623,19.5203399 C16.6179499,19.1943826 17.0363281,18.8763754 17.3125969,18.5663184 C17.5888656,18.2562614 17.727,17.9163912 17.727,17.5467079 C17.727,17.3280779 17.6733362,17.1233608 17.5660088,16.9325565 C17.4586814,16.7417522 17.2937152,16.5857299 17.0711102,16.4644897 C16.8485051,16.3432495 16.5722364,16.2826294 16.242304,16.2826294 C15.7891437,16.2826294 15.4204542,16.3998945 15.1362352,16.6344248 C14.8520163,16.8689551 14.7059318,17.1988875 14.6979816,17.6242221 L14.6979816,17.6242221 L15.5744889,17.8925407 C15.578464,17.6301848 15.6331215,17.4304365 15.7384613,17.2932959 C15.8438012,17.1561553 15.9898858,17.087585 16.176715,17.087585 C16.3476438,17.087585 16.4788218,17.1362799 16.5702489,17.2336696 C16.6616759,17.3310593 16.7073894,17.4592559 16.7073894,17.6182595 C16.7073894,17.9004909 16.5593174,18.2016039 16.2631732,18.5215986 C15.967029,18.8415933 15.4870369,19.2082954 14.8231969,19.6217047 L14.8231969,19.6217047 L14.8231969,20.2775945 L17.774701,20.2775945 Z M21.3463192,20.3372208 C22.4354937,20.3372208 22.980081,19.6614556 22.980081,18.3099251 C22.980081,16.9583946 22.4354937,16.2826294 21.3463192,16.2826294 C20.2571446,16.2826294 19.7125573,16.9583946 19.7125573,18.3099251 C19.7125573,19.6614556 20.2571446,20.3372208 21.3463192,20.3372208 Z M21.3463192,19.5382278 C21.1276892,19.5382278 20.9696794,19.4428257 20.8722897,19.2520214 C20.7749,19.0612171 20.7262052,18.747185 20.7262052,18.3099251 C20.7262052,17.8726652 20.7749,17.5586332 20.8722897,17.3678288 C20.9696794,17.1770245 21.1276892,17.0816224 21.3463192,17.0816224 C21.5649491,17.0816224 21.7229589,17.1770245 21.8203486,17.3678288 C21.9177383,17.5586332 21.9664332,17.8726652 21.9664332,18.3099251 C21.9664332,18.747185 21.9177383,19.0612171 21.8203486,19.2520214 C21.7229589,19.4428257 21.5649491,19.5382278 21.3463192,19.5382278 Z M27.9827315,20.2775945 L27.9827315,19.4964894 L27.0585231,19.4964894 C26.7921921,19.4964894 26.5278486,19.5044396 26.2654927,19.5203399 L26.2654927,19.5203399 C26.8259804,19.1943826 27.2443585,18.8763754 27.5206273,18.5663184 C27.796896,18.2562614 27.9350304,17.9163912 27.9350304,17.5467079 C27.9350304,17.3280779 27.8813667,17.1233608 27.7740392,16.9325565 C27.6667118,16.7417522 27.5017456,16.5857299 27.2791406,16.4644897 C27.0565356,16.3432495 26.7802668,16.2826294 26.4503344,16.2826294 C25.9971742,16.2826294 25.6284846,16.3998945 25.3442657,16.6344248 C25.0600468,16.8689551 24.9139622,17.1988875 24.906012,17.6242221 L24.906012,17.6242221 L25.7825193,17.8925407 C25.7864944,17.6301848 25.8411519,17.4304365 25.9464918,17.2932959 C26.0518316,17.1561553 26.1979162,17.087585 26.3847454,17.087585 C26.5556743,17.087585 26.6868522,17.1362799 26.7782793,17.2336696 C26.8697063,17.3310593 26.9154199,17.4592559 26.9154199,17.6182595 C26.9154199,17.9004909 26.7673478,18.2016039 26.4712036,18.5215986 C26.1750594,18.8415933 25.6950673,19.2082954 25.0312274,19.6217047 L25.0312274,19.6217047 L25.0312274,20.2775945 L27.9827315,20.2775945 Z M31.8107429,20.2775945 L31.8107429,16.3422557 L30.9938619,16.3422557 C30.8944847,16.4853589 30.7205745,16.6254808 30.4721314,16.7626214 C30.2236883,16.899762 29.998102,16.9802576 29.7953724,17.0041081 L29.7953724,17.0041081 L29.8907746,17.8508022 C30.2048066,17.795151 30.5148636,17.6281972 30.8209455,17.3499409 L30.8209455,17.3499409 L30.8209455,20.2775945 L31.8107429,20.2775945 Z M38.1132477,20.2775945 L38.1132477,18.2920372 L38.0893971,17.5526705 L38.0953598,17.5526705 L38.3934915,18.148934 L39.6158316,20.2775945 L40.7546948,20.2775945 L40.7546948,16.3422557 L39.8483743,16.3422557 L39.8483743,18.327813 L39.8722249,19.0671797 L39.8662622,19.0671797 L39.5681305,18.4709162 L38.3457904,16.3422557 L37.2069272,16.3422557 L37.2069272,20.2775945 L38.1132477,20.2775945 Z M44.0579944,20.2775945 L44.0579944,18.7630853 L45.679831,18.7630853 L45.679831,17.9700549 L44.0579944,17.9700549 L44.0579944,17.1352861 L46.0912527,17.1352861 L46.0912527,16.3422557 L43.0324212,16.3422557 L43.0324212,20.2775945 L44.0579944,20.2775945 Z M50.1160311,20.2775945 L50.1160311,17.1352861 L51.3979975,17.1352861 L51.3979975,16.3422557 L47.8025289,16.3422557 L47.8025289,17.1352861 L49.090458,17.1352861 L49.090458,20.2775945 L50.1160311,20.2775945 Z" id="2021NFT" fill="#00E599" fill-rule="nonzero" transform="translate(33.047990, 18.309925) rotate(-30.000000) translate(-33.047990, -18.309925) "></path>
                                <path d="M58.4484559,91.1337381 L59.8437123,87.1983993 L58.8002513,87.1983993 L58.0668473,89.5894158 L57.858155,90.352633 L57.6435002,89.5774905 L56.9220214,87.1983993 L55.8427846,87.1983993 L57.2440037,91.1337381 L58.4484559,91.1337381 Z M64.8642507,91.1337381 L64.8642507,90.3407077 L62.7475154,90.3407077 L62.7475154,89.5357521 L64.369352,89.5357521 L64.369352,88.7904228 L62.7475154,88.7904228 L62.7475154,87.9914297 L64.7867364,87.9914297 L64.7867364,87.1983993 L61.7219423,87.1983993 L61.7219423,91.1337381 L64.8642507,91.1337381 Z M67.7978669,91.1337381 L67.7978669,89.1481808 L67.7740164,88.4088142 L67.779979,88.4088142 L68.0781107,89.0050776 L69.3004508,91.1337381 L70.439314,91.1337381 L70.439314,87.1983993 L69.5329936,87.1983993 L69.5329936,89.1839566 L69.5568441,89.9233233 L69.5508815,89.9233233 L69.2527497,89.3270599 L68.0304097,87.1983993 L66.8915465,87.1983993 L66.8915465,91.1337381 L67.7978669,91.1337381 Z M74.7443362,91.1337381 L74.7443362,87.9914297 L76.0263026,87.9914297 L76.0263026,87.1983993 L72.430834,87.1983993 L72.430834,87.9914297 L73.7187631,87.9914297 L73.7187631,91.1337381 L74.7443362,91.1337381 Z M79.7052482,91.1933645 C80.2895864,91.1933645 80.7288338,91.0542363 81.0229904,90.7759801 C81.3171471,90.4977238 81.4642254,90.0823269 81.4642254,89.5297894 L81.4642254,89.5297894 L81.4642254,87.1983993 L80.4446149,87.1983993 L80.4446149,89.5476774 C80.4446149,90.108165 80.1981593,90.3884088 79.7052482,90.3884088 C79.4587926,90.3884088 79.2759385,90.3188448 79.1566858,90.1797166 C79.0374331,90.0405885 78.9778068,89.8299087 78.9778068,89.5476774 L78.9778068,89.5476774 L78.9778068,87.1983993 L77.946271,87.1983993 L77.946271,89.5297894 C77.946271,90.0823269 78.0943431,90.4977238 78.3904873,90.7759801 C78.6866315,91.0542363 79.1248851,91.1933645 79.7052482,91.1933645 Z M84.6840481,91.1337381 L84.6840481,89.6967432 L85.2981994,89.6967432 L86.1389309,91.1337381 L87.2718315,91.1337381 L86.2701089,89.5894158 C86.5205395,89.4979887 86.7113438,89.356873 86.8425218,89.1660687 C86.9736997,88.9752644 87.0392887,88.7367591 87.0392887,88.4505526 C87.0392887,88.0450934 86.9110921,87.7350364 86.6546988,87.5203816 C86.3983055,87.3057268 86.0316035,87.1983993 85.5545927,87.1983993 L85.5545927,87.1983993 L83.6763628,87.1983993 L83.6763628,91.1337381 L84.6840481,91.1337381 Z M85.3816763,88.9693018 L84.6840481,88.9693018 L84.6840481,87.9735418 L85.3816763,87.9735418 C85.6003062,87.9735418 85.7593098,88.0132927 85.8586871,88.0927945 C85.9580643,88.1722963 86.0077529,88.2975116 86.0077529,88.4684405 C86.0077529,88.6433444 85.9580643,88.7705473 85.8586871,88.8500491 C85.7593098,88.9295509 85.6003062,88.9693018 85.3816763,88.9693018 L85.3816763,88.9693018 Z M92.3341082,91.1337381 L92.3341082,90.3407077 L90.217373,90.3407077 L90.217373,89.5357521 L91.8392096,89.5357521 L91.8392096,88.7904228 L90.217373,88.7904228 L90.217373,87.9914297 L92.256594,87.9914297 L92.256594,87.1983993 L89.1917998,87.1983993 L89.1917998,91.1337381 L92.3341082,91.1337381 Z" id="VENTURE" fill="#00E599" fill-rule="nonzero" transform="translate(74.088446, 89.195882) rotate(-30.000000) translate(-74.088446, -89.195882) "></path>
                                <line x1="33.2791935" y1="83.1011817" x2="74.3882524" y2="83.1011817" id="Line-4" stroke="#00E599" stroke-width="0.86592" stroke-linecap="round"></line>
                                <line x1="18.5664777" y1="72.3035343" x2="89.5336951" y2="72.3035343" id="Line-4" stroke="#00E599" stroke-width="0.86592" stroke-linecap="round"></line>
                                <line x1="38.2555533" y1="83.9649934" x2="38.2555533" y2="85.692617" id="Line-3" stroke="#00E599" stroke-width="0.86592" stroke-linecap="square"></line>
                                <line x1="39.986461" y1="83.9649934" x2="39.986461" y2="86.5564288" id="Line-3" stroke="#00E599" stroke-width="0.86592" stroke-linecap="square"></line>
                                <line x1="41.7173687" y1="83.9649934" x2="41.7173687" y2="87.8521465" id="Line-3" stroke="#00E599" stroke-width="0.86592" stroke-linecap="square"></line>
                                <line x1="43.4482765" y1="83.9649934" x2="43.4482765" y2="88.7159583" id="Line-3" stroke="#00E599" stroke-width="0.86592" stroke-linecap="square"></line>
                                <line x1="45.1791842" y1="83.9649934" x2="45.1791842" y2="89.5797701" id="Line-3" stroke="#00E599" stroke-width="0.86592" stroke-linecap="square"></line>
                                <line x1="46.910092" y1="83.9649934" x2="46.910092" y2="90.8754878" id="Line-3" stroke="#00E599" stroke-width="0.86592" stroke-linecap="square"></line>
                                <line x1="48.6409997" y1="83.9649934" x2="48.6409997" y2="91.7392996" id="Line-3" stroke="#00E599" stroke-width="0.86592" stroke-linecap="square"></line>
                                <line x1="50.3719074" y1="83.9649934" x2="50.3719074" y2="92.6031114" id="Line-3" stroke="#00E599" stroke-width="0.86592" stroke-linecap="square"></line>
                                <line x1="52.1028152" y1="83.9649934" x2="52.1028152" y2="93.4669231" id="Line-3" stroke="#00E599" stroke-width="0.86592" stroke-linecap="square"></line>
                                <line x1="53.8337229" y1="83.9649934" x2="53.8337229" y2="93.4669231" id="Line-3" stroke="#00E599" stroke-width="0.86592" stroke-linecap="square"></line>
                                <line x1="69.4118926" y1="83.7490405" x2="69.4118926" y2="85.4766641" id="Line-3" stroke="#00E599" stroke-width="0.86592" stroke-linecap="square" transform="translate(69.411893, 84.612852) scale(-1, 1) translate(-69.411893, -84.612852) "></line>
                                <line x1="67.6809849" y1="83.7490405" x2="67.6809849" y2="86.7723818" id="Line-3" stroke="#00E599" stroke-width="0.86592" stroke-linecap="square" transform="translate(67.680985, 85.260711) scale(-1, 1) translate(-67.680985, -85.260711) "></line>
                                <line x1="65.9500771" y1="83.7490405" x2="65.9500771" y2="87.6361936" id="Line-3" stroke="#00E599" stroke-width="0.86592" stroke-linecap="square" transform="translate(65.950077, 85.692617) scale(-1, 1) translate(-65.950077, -85.692617) "></line>
                                <line x1="64.2191694" y1="83.7490405" x2="64.2191694" y2="88.5000053" id="Line-3" stroke="#00E599" stroke-width="0.86592" stroke-linecap="square" transform="translate(64.219169, 86.124523) scale(-1, 1) translate(-64.219169, -86.124523) "></line>
                                <line x1="62.4882616" y1="83.7490405" x2="62.4882616" y2="89.3638171" id="Line-3" stroke="#00E599" stroke-width="0.86592" stroke-linecap="square" transform="translate(62.488262, 86.556429) scale(-1, 1) translate(-62.488262, -86.556429) "></line>
                                <line x1="60.7573539" y1="83.7490405" x2="60.7573539" y2="90.6595348" id="Line-3" stroke="#00E599" stroke-width="0.86592" stroke-linecap="square" transform="translate(60.757354, 87.204288) scale(-1, 1) translate(-60.757354, -87.204288) "></line>
                                <line x1="59.0264462" y1="83.7490405" x2="59.0264462" y2="91.5233466" id="Line-3" stroke="#00E599" stroke-width="0.86592" stroke-linecap="square" transform="translate(59.026446, 87.636194) scale(-1, 1) translate(-59.026446, -87.636194) "></line>
                                <line x1="57.2955384" y1="83.7490405" x2="57.2955384" y2="92.3871584" id="Line-3" stroke="#00E599" stroke-width="0.86592" stroke-linecap="square" transform="translate(57.295538, 88.068099) scale(-1, 1) translate(-57.295538, -88.068099) "></line>
                                <line x1="55.5646307" y1="83.7490405" x2="55.5646307" y2="93.2509702" id="Line-3" stroke="#00E599" stroke-width="0.86592" stroke-linecap="square" transform="translate(55.564631, 88.500005) scale(-1, 1) translate(-55.564631, -88.500005) "></line>
                                <line x1="53.8337229" y1="83.7490405" x2="53.8337229" y2="93.2509702" id="Line-3" stroke="#00E599" stroke-width="0.86592" stroke-linecap="square" transform="translate(53.833723, 88.500005) scale(-1, 1) translate(-53.833723, -88.500005) "></line>
                                <path d="M46.544019,80.970295 L46.544019,77.693575 L46.504659,76.473415 L46.514499,76.473415 L47.006499,77.457415 L49.023699,80.970295 L50.903139,80.970295 L50.903139,74.475895 L49.407459,74.475895 L49.407459,77.752615 L49.446819,78.972775 L49.436979,78.972775 L48.944979,77.988775 L46.927779,74.475895 L45.048339,74.475895 L45.048339,80.970295 L46.544019,80.970295 Z M53.952259,80.970295 L53.952259,78.470935 L56.628739,78.470935 L56.628739,77.162215 L53.952259,77.162215 L53.952259,75.784615 L57.307699,75.784615 L57.307699,74.475895 L52.259779,74.475895 L52.259779,80.970295 L53.952259,80.970295 Z M61.547459,80.970295 L61.547459,75.784615 L63.663059,75.784615 L63.663059,74.475895 L57.729539,74.475895 L57.729539,75.784615 L59.854979,75.784615 L59.854979,80.970295 L61.547459,80.970295 Z" id="NFT" fill="#00E599" fill-rule="nonzero"></path>
                                <path d="M58.8056726,2.86510999 L95.4689642,23.9925087 C98.5539999,25.7702754 100.455095,29.0599449 100.455095,32.6205487 L100.455095,74.8426129 C100.455095,78.4032167 98.5539999,81.6928861 95.4689642,83.4706528 L58.8056726,104.598052 C55.7282377,106.371438 51.9392081,106.371438 48.8617733,104.598052 L12.1984816,83.4706528 C9.11344596,81.6928861 7.21235129,78.4032167 7.21235129,74.8426129 L7.21235129,32.6205487 C7.21235129,29.0599449 9.11344596,25.7702754 12.1984816,23.9925087 L48.8617733,2.86510999 C51.9392081,1.09172329 55.7282377,1.09172329 58.8056726,2.86510999 Z" id="Polygon" stroke="#00E599" stroke-width="1.73184"></path>
                                <path d="M67.7881163,25.8736505 L74.2716987,29.6098462 L74.2716987,37.0822375 L67.7881163,40.8184332 L61.3045339,37.0822375 L61.3045339,29.6098462 L67.7881163,25.8736505 Z M67.8140892,28.4763335 C66.568723,28.4763335 66.568723,28.4763335 65.506499,29.0990166 C64.4686938,29.7094902 64.4686938,29.7094902 63.8582202,30.7472953 C63.2355372,31.8095194 63.2355372,31.8095194 63.2355372,33.0548855 C63.2355372,34.3002516 63.2355372,34.3002516 63.8582202,35.3624757 C64.4686938,36.4002808 64.4686938,36.4002808 65.506499,37.0107544 C66.568723,37.6334375 66.568723,37.6334375 67.8140892,37.6334375 C68.1315354,37.6334375 68.1315354,37.6334375 68.3574107,37.413667 C68.5832859,37.1938965 68.5832859,37.1938965 68.5832859,36.8642408 C68.5832859,36.7299366 68.5832859,36.7299366 68.5283433,36.5834229 C68.4734006,36.4369092 68.4734006,36.4369092 68.3879343,36.3392335 C68.1925828,36.119463 68.1925828,36.119463 68.1925828,35.8386451 C68.1925828,35.5211988 68.1925828,35.5211988 68.418458,35.3014284 C68.5991582,35.125612 68.5991582,35.125612 68.8384639,35.0904487 L68.9617795,35.0816579 L69.8408615,35.0816579 C70.5368014,35.0816579 70.5368014,35.0816579 71.1228561,34.7458974 C71.7089107,34.4101369 71.7089107,34.4101369 72.0507759,33.8240822 C72.3926412,33.2380276 72.3926412,33.2380276 72.3926412,32.5542972 C72.3926412,31.4432352 72.3926412,31.4432352 71.7699581,30.5031059 C71.1594845,29.575186 71.1594845,29.575186 70.1216794,29.0379692 C69.0594553,28.4763335 69.0594553,28.4763335 67.8140892,28.4763335 Z M70.6100582,31.5287015 C70.9275045,31.5287015 70.9275045,31.5287015 71.147275,31.7423673 C71.3670455,31.956033 71.3670455,31.956033 71.3670455,32.2856888 C71.3670455,32.6153445 71.3670455,32.6153445 71.147275,32.835115 C70.9275045,33.0548855 70.9275045,33.0548855 70.6100582,33.0548855 C70.2804025,33.0548855 70.2804025,33.0548855 70.060632,32.8290103 C69.8408615,32.603135 69.8408615,32.603135 69.8408615,32.2856888 C69.8408615,31.9682425 69.8408615,31.9682425 70.0667367,31.748472 C70.292612,31.5287015 70.292612,31.5287015 70.6100582,31.5287015 Z M65.0303295,31.5287015 C65.3477758,31.5287015 65.3477758,31.5287015 65.5675463,31.7423673 C65.7873168,31.956033 65.7873168,31.956033 65.7873168,32.2856888 C65.7873168,32.6153445 65.7873168,32.6153445 65.5675463,32.835115 C65.3477758,33.0548855 65.3477758,33.0548855 65.0303295,33.0548855 C64.7006738,33.0548855 64.7006738,33.0548855 64.4809033,32.8290103 C64.2611328,32.603135 64.2611328,32.603135 64.2611328,32.2856888 C64.2611328,31.9682425 64.2611328,31.9682425 64.487008,31.748472 C64.7128833,31.5287015 64.7128833,31.5287015 65.0303295,31.5287015 Z M69.0838742,29.5019292 C69.4013205,29.5019292 69.4013205,29.5019292 69.621091,29.7155949 C69.8408615,29.9292607 69.8408615,29.9292607 69.8408615,30.2589164 C69.8408615,30.5885722 69.8408615,30.5885722 69.621091,30.8083427 C69.4013205,31.0281132 69.4013205,31.0281132 69.0838742,31.0281132 C68.7542185,31.0281132 68.7542185,31.0281132 68.534448,30.8022379 C68.3146775,30.5763627 68.3146775,30.5763627 68.3146775,30.2589164 C68.3146775,29.9414701 68.3146775,29.9414701 68.5405527,29.7216996 C68.766428,29.5019292 68.766428,29.5019292 69.0838742,29.5019292 Z M66.5565135,29.5019292 C66.8739598,29.5019292 66.8739598,29.5019292 67.0937303,29.7155949 C67.3135008,29.9292607 67.3135008,29.9292607 67.3135008,30.2589164 C67.3135008,30.5885722 67.3135008,30.5885722 67.0937303,30.8083427 C66.8739598,31.0281132 66.8739598,31.0281132 66.5565135,31.0281132 C66.2268578,31.0281132 66.2268578,31.0281132 66.0070873,30.8022379 C65.7873168,30.5763627 65.7873168,30.5763627 65.7873168,30.2589164 C65.7873168,29.9414701 65.7873168,29.9414701 66.013192,29.7216996 C66.2390673,29.5019292 66.2390673,29.5019292 66.5565135,29.5019292 Z" id="Combined-Shape" stroke="#00E599" stroke-width="0.615"></path>
                                <path d="M30.6828319,55.3984021 L37.1664143,59.1345977 L37.1664143,66.606989 L30.6828319,70.3431847 L24.1992495,66.606989 L24.1992495,59.1345977 L30.6828319,55.3984021 Z M30.5869406,58.4587841 C28.1314166,58.4587841 26.1391991,60.4510016 26.1391991,62.9065256 C26.1391991,65.3620496 28.1314166,67.3542671 30.5869406,67.3542671 C33.0424646,67.3542671 35.0346821,65.3620496 35.0346821,62.9065256 C35.0346821,60.4510016 33.0424646,58.4587841 30.5869406,58.4587841 Z M30.5869406,59.756042 C32.3243396,59.756042 33.7374242,61.1691266 33.7374242,62.9065256 C33.7374242,64.6439246 32.3243396,66.0570092 30.5869406,66.0570092 C28.8495416,66.0570092 27.436457,64.6439246 27.436457,62.9065256 C27.436457,61.1691266 28.8495416,59.756042 30.5869406,59.756042 Z M29.2896826,60.7289855 C29.173856,60.7984814 29.1043601,60.9200994 29.1043601,61.0533 L29.1043601,64.7597512 C29.1043601,64.8929518 29.173856,65.0145698 29.2896826,65.0840657 C29.3475959,65.1130224 29.4113006,65.1303964 29.4750052,65.1303964 C29.5387098,65.1303964 29.6024145,65.1130224 29.6603278,65.0782744 L32.8108114,63.2250488 C32.926638,63.1613441 32.9961339,63.0397262 32.9961339,62.9065256 C32.9961339,62.773325 32.926638,62.6517071 32.8108114,62.5880024 L29.6603278,60.7347768 C29.5502925,60.6652808 29.4055092,60.6652808 29.2896826,60.7289855 Z" id="Combined-Shape" stroke="#00E599" stroke-width="0.615"></path>
                                <path d="M34.6613989,31.228445 L41.1449814,34.9646406 L41.1449814,42.437032 L34.6613989,46.1732276 L28.1778165,42.437032 L28.1778165,34.9646406 L34.6613989,31.228445 Z M36.8787087,33.6592042 L33.3257524,33.6592042 L33.3257524,38.3842699 C32.9838872,38.2377562 32.9838872,38.2377562 32.5687651,38.2377562 C31.9460821,38.2377562 31.9460821,38.2377562 31.41497,38.542993 C30.883858,38.8482298 30.883858,38.8482298 30.5786212,39.3732371 C30.2733844,39.8982444 30.2733844,39.8982444 30.2733844,40.5209275 C30.2733844,41.1436106 30.2733844,41.1436106 30.5847259,41.6686179 C30.8960675,42.1936252 30.8960675,42.1936252 31.4210748,42.5049667 C31.9460821,42.8163082 31.9460821,42.8163082 32.5687651,42.8163082 C33.1426103,42.8163082 33.1426103,42.8163082 33.6370939,42.5476999 C34.1315775,42.2790915 34.1315775,42.2790915 34.4490238,41.8151315 C34.7135624,41.4284983 34.7135624,41.4284983 34.8000461,40.9740346 L34.8275174,40.7895359 L34.8519364,40.7895359 L34.8519364,35.1853882 L36.8787087,35.1853882 L36.8787087,33.6592042 Z" id="Combined-Shape" stroke="#00E599" stroke-width="0.615"></path>
                                <path d="M74.0857636,54.9203703 L80.5693461,58.656566 L80.5693461,66.1289573 L74.0857636,69.8651529 L67.6021812,66.1289573 L67.6021812,58.656566 L74.0857636,54.9203703 Z M73.5374911,58.4837942 L73.4620238,58.4994578 L70.1048087,59.303839 C69.7552575,59.3852429 69.7552575,59.3852429 69.564689,59.6917179 C69.4058819,59.9471138 69.4058819,59.9471138 69.4430717,60.2335525 L69.4657874,60.3493696 L70.7807437,65.7968799 C70.856251,66.0508121 70.856251,66.0508121 71.0387559,66.227006 C71.2212609,66.4031998 71.2212609,66.4031998 71.4573124,66.4405867 C71.5667855,66.4579256 71.5667855,66.4579256 71.6851548,66.4486186 L71.8057481,66.4326501 L75.1834894,65.63152 C75.4374216,65.5560127 75.4374216,65.5560127 75.6136155,65.3735077 C75.7898093,65.1910028 75.7898093,65.1910028 75.8271962,64.9549513 C75.844535,64.8454781 75.844535,64.8454781 75.8352281,64.7271088 L75.8192596,64.6065156 L74.5091799,59.1282159 C74.4439357,58.8759093 74.4439357,58.8759093 74.2554865,58.7040342 C74.0670372,58.5321591 74.0670372,58.5321591 73.8104595,58.4915212 C73.6565129,58.4671385 73.6565129,58.4671385 73.5374911,58.4837942 Z M75.0349923,64.3770942 C75.2094651,64.4047279 75.2094651,64.4047279 75.3114907,64.5576546 C75.4135163,64.7105812 75.4135163,64.7105812 75.3858825,64.885054 C75.3582487,65.0595269 75.3582487,65.0595269 75.2207168,65.1639908 C75.0831848,65.2684546 75.0831848,65.2684546 74.8984489,65.2391953 C74.7137129,65.209936 74.7137129,65.209936 74.6143806,65.0732168 C74.5150483,64.9364976 74.5150483,64.9364976 74.5443076,64.7517617 C74.5735669,64.5670257 74.5735669,64.5670257 74.7119116,64.4574303 C74.8502563,64.3478349 74.8502563,64.3478349 75.0349923,64.3770942 Z M77.5140399,59.7514269 L76.9044711,63.6000928 L78.3376712,61.2600714 C78.5231081,60.9527836 78.5231081,60.9527836 78.4400787,60.6134955 C78.3708876,60.3307555 78.3708876,60.3307555 78.1459614,60.1548564 L78.0497616,60.0887705 L77.5140399,59.7514269 Z M75.2883472,58.7255956 L76.2124437,62.5225944 L76.6399546,59.8233967 C76.6952222,59.474451 76.6952222,59.474451 76.4792824,59.1772354 C76.2993325,58.9295557 76.2993325,58.9295557 76.0270175,58.8498955 L75.9143968,58.8247522 L75.2883472,58.7255956 Z" id="Combined-Shape" stroke="#00E599" stroke-width="0.615"></path>
                                <path d="M55.9941156,13.7258308 L87.0204212,31.6048891 C88.4958731,32.4551253 89.4050922,34.0284455 89.4050922,35.731343 L89.4050922,71.4738045 C89.4050922,73.176702 88.4958731,74.7500222 87.0204212,75.6002584 L55.9941156,93.4793168 C54.522299,94.3274582 52.7101544,94.3274582 51.2383377,93.4793168 L20.2120321,75.6002584 C18.7365803,74.7500222 17.8273611,73.176702 17.8273611,71.4738045 L17.8273611,35.731343 C17.8273611,34.0284455 18.7365803,32.4551253 20.2120321,31.6048891 L51.2383377,13.7258308 C52.7101544,12.8776893 54.522299,12.8776893 55.9941156,13.7258308 Z" id="Polygon" stroke="#00E599" stroke-width="0.86592"></path>
                                <line x1="53.6173595" y1="72.3035343" x2="53.6173595" y2="13.3112297" id="Path-3" stroke="#00E599" stroke-width="0.615"></line>
                                <line x1="53.8337229" y1="72.3035343" x2="62.4882616" y2="17.5748967" id="Path-4" stroke="#00E599" stroke-width="0.615"></line>
                                <path d="M54.0500864,72.3035343 L65.6183199,39.6460202 M70.0141989,27.2363053 L71.5019447,23.0363486" id="Shape" stroke="#00E599" stroke-width="0.615"></path>
                                <line x1="54.0500864" y1="72.3035343" x2="80.4464295" y2="27.6012741" id="Path-6" stroke="#00E599" stroke-width="0.615"></line>
                                <path d="M26.7882895,72.3035343 L42.9665217,44.9056654 M49.5840581,33.6988542 L53.1846325,27.6012741" id="Shape" stroke="#00E599" stroke-width="0.615" transform="translate(39.986461, 49.952404) scale(-1, 1) translate(-39.986461, -49.952404) "></path>
                                <line x1="53.8337229" y1="72.3035343" x2="87.827984" y2="32.3829632" id="Path-7" stroke="#00E599" stroke-width="0.615"></line>
                                <path d="M54.0500864,72.3035343 L67.5751453,61.0606756 M74.5794062,55.2383043 L89.5336951,42.807382" id="Shape" stroke="#00E599" stroke-width="0.615"></path>
                                <path d="M54.0500864,72.3035343 L67.617016,64.6718474 M79.4953985,57.9900043 L89.5336951,52.3432488" id="Shape" stroke="#00E599" stroke-width="0.615"></path>
                                <path d="M54.0500864,72.3035343 L70.8034047,67.9298409 M80.6531791,65.3584164 L89.5336951,63.0400307" id="Shape" stroke="#00E599" stroke-width="0.615"></path>
                                <line x1="53.6173595" y1="72.3035343" x2="53.6173595" y2="13.3112297" id="Path-3" stroke="#00E599" stroke-width="0.615" transform="translate(53.617359, 42.807382) scale(-1, 1) translate(-53.617359, -42.807382) "></line>
                                <line x1="44.7464573" y1="72.3035343" x2="53.400996" y2="17.5748967" id="Path-4" stroke="#00E599" stroke-width="0.615" transform="translate(49.073727, 44.939215) scale(-1, 1) translate(-49.073727, -44.939215) "></line>
                                <path d="M35.7327742,72.3035343 L47.7994766,38.2388257 M49.2048475,34.2714163 L53.1846325,23.0363486" id="Shape" stroke="#00E599" stroke-width="0.615" transform="translate(44.458703, 47.669941) scale(-1, 1) translate(-44.458703, -47.669941) "></path>
                                <line x1="19.4067349" y1="72.3035343" x2="53.400996" y2="32.3829632" id="Path-7" stroke="#00E599" stroke-width="0.615" transform="translate(36.403865, 52.343249) scale(-1, 1) translate(-36.403865, -52.343249) "></line>
                                <line x1="17.7010238" y1="72.3035343" x2="53.1846325" y2="42.807382" id="Path-8" stroke="#00E599" stroke-width="0.615" transform="translate(35.442828, 57.555458) scale(-1, 1) translate(-35.442828, -57.555458) "></line>
                                <path d="M17.7010238,72.3035343 L33.7980616,63.2486077 M43.8940806,57.5693821 L53.1846325,52.3432488" id="Shape" stroke="#00E599" stroke-width="0.615" transform="translate(35.442828, 62.323392) scale(-1, 1) translate(-35.442828, -62.323392) "></path>
                                <path d="M17.7010238,72.3035343 L35.4130203,67.6795642 M46.6973717,64.7336229 L53.1846325,63.0400307" id="Shape" stroke="#00E599" stroke-width="0.615" transform="translate(35.442828, 67.671782) scale(-1, 1) translate(-35.442828, -67.671782) "></path>
                                <polygon id="Polygon-Copy" fill="#00E599" points="43.231913 52.651816 45.4804281 53.9475337 45.4804281 56.5389691 43.231913 57.8346868 40.9833979 56.5389691 40.9833979 53.9475337"></polygon>
                                <polygon id="Polygon-Copy-3" fill="#00E599" points="47.9919093 61.9377928 49.4909194 62.8016046 49.4909194 64.5292282 47.9919093 65.39304 46.4928992 64.5292282 46.4928992 62.8016046"></polygon>
                                <polygon id="Polygon-Copy-3" fill="#00E599" points="58.5937192 57.6187338 60.0927293 58.4825456 60.0927293 60.2101692 58.5937192 61.073981 57.0947091 60.2101692 57.0947091 58.4825456"></polygon>
                                <polyline id="Path" fill="#00E599" points="89.5059514 47.6006616 88.2355143 48.3327571 83.5511078 45.6333452 83.5511078 40.2345216 88.2355143 37.5351097 89.4950313 38.2609125"></polyline>
                                <polyline id="Path" fill="#00E599" points="48.0101378 16.092903 49.61824 17.0195797 49.61824 22.6343563 44.7464573 25.4417446 39.8746745 22.6343563 39.8746745 20.8803449"></polyline>
                                <polygon id="Polygon-Copy" fill="#00E599" points="61.6228078 65.39304 63.8713229 66.6887576 63.8713229 69.280193 61.6228078 70.5759107 59.3742927 69.280193 59.3742927 66.6887576"></polygon>
                                <polygon id="Polygon-Copy" fill="#00E599" points="43.231913 65.8249458 45.1056756 66.9047106 45.1056756 69.0642401 43.231913 70.1440048 41.3581504 69.0642401 41.3581504 66.9047106"></polygon>
                            </g>
                        </g>
                    </g>
                </g>
            </g>
        </g>
    </g>
</svg>