<?xml version="1.0" encoding="UTF-8"?>
<svg width="51px" height="79px" viewBox="0 0 51 79" version="1.1" xmlns="http://www.w3.org/2000/svg" xmlns:xlink="http://www.w3.org/1999/xlink">
    <!-- Generator: Sketch 63.1 (92452) - https://sketch.com -->
    <title>Innovative ideas</title>
    <desc>Created with Sketch.</desc>
    <defs>
        <polygon id="path-1" points="0 0.59310912 50.4876674 0.59310912 50.4876674 64.8045921 0 64.8045921"></polygon>
        <path d="M26.0340859,0.59302318 C19.4878099,0.615123422 13.763847,3.47710486 11.2213982,8.67894949 L11.2213982,8.67894949 C10.1743992,10.85214 9.73976114,13.2675124 9.95984272,15.6681512 L9.95984272,15.6681512 L0.171276881,29.6189295 C0.0580131371,29.7782354 0.00184168689,29.9614832 0,30.1438102 L0,30.1438102 L0,30.1640688 C0.00276253034,30.4476886 0.137205674,30.7267041 0.385833404,30.9035061 L0.385833404,30.9035061 C0.396883526,30.9117937 0.40885449,30.9200813 0.419904612,30.927448 L0.419904612,30.927448 L4.36111456,33.4588466 C4.90717473,33.8133714 5.22578656,34.4294156 5.20000294,35.0804519 L5.20000294,35.0804519 L4.95137521,41.8201051 C4.83995316,44.8773054 8.4036173,45.1167247 10.181766,45.0522656 L10.181766,45.0522656 C10.6882299,45.0274029 11.1210263,45.4187613 11.1468099,45.9270669 L11.1468099,45.9270669 C11.1477308,45.9418004 11.1477308,45.9583756 11.1477308,45.9731091 L11.1477308,45.9731091 L11.0841926,51.396877 C11.0805092,52.0580426 11.4322714,52.6685618 12.0041152,52.9991446 L12.0041152,52.9991446 L31.5167878,64.6763603 C31.9541884,64.9351173 32.5186655,64.7905449 32.7792642,64.3531443 L32.7792642,64.3531443 C32.8612192,64.2140969 32.9054197,64.054791 32.9072614,63.8927226 L32.9072614,63.8927226 L32.9809289,57.5121983 C33.0159209,56.1392207 33.1632559,54.7717682 33.4229337,53.4227326 L33.4229337,53.4227326 C34.1973631,50.8020121 35.7913431,48.497141 37.9719004,46.8488312 L37.9719004,46.8488312 L38.1560691,46.6922878 C42.585326,43.8284647 46.0495391,39.6994027 48.1011783,34.8401118 L48.1011783,34.8401118 C50.255952,30.1346018 50.973289,24.8959234 50.1638676,19.7852423 L50.1638676,19.7852423 C49.4916519,13.4120848 44.6848491,6.89343404 37.2729802,3.25610243 L37.2729802,3.25610243 C33.5942106,1.46506192 29.7690269,0.604073301 26.1851043,0.59302318 L26.1851043,0.59302318 L26.0340859,0.59302318 Z" id="path-3"></path>
    </defs>
    <g id="Career" stroke="none" stroke-width="1" fill="none" fill-rule="evenodd">
        <g id="DT_Deverloper-Cn" transform="translate(-390.000000, -1816.000000)">
            <g id="provide" transform="translate(0.000000, 1580.000000)">
                <g id="Innovative-ideas" transform="translate(373.000000, 232.500000)">
                    <rect id="矩形" fill="#D8D8D8" opacity="0" x="0" y="0" width="86" height="86"></rect>
                    <g id="编组" transform="translate(17.500000, 3.000000)">
                        <g transform="translate(0.000000, 0.327912)">
                            <g>
                                <mask id="mask-2" fill="white">
                                    <use xlink:href="#path-1"></use>
                                </mask>
                                <g id="Clip-2"></g>
                                <path d="M50.1641439,19.7850581 C49.4919281,13.4119006 44.6851254,6.89324987 37.2723356,3.25591826 C26.8115541,-1.836346 15.1720929,0.593759855 11.2216745,8.67876532 C10.1746755,10.8519559 9.73911655,13.2673282 9.96011897,15.6679671 L0.171553134,29.6196661 C-0.124037612,30.0331248 -0.0282698938,30.608652 0.386109657,30.9033219 C0.397159779,30.9116095 0.4082099,30.9198971 0.420180865,30.9272638 L4.36139082,33.4595833 C4.90745098,33.8131872 5.22606281,34.4292315 5.19935835,35.0793469 L4.95073062,41.8208418 C4.84022941,44.8780421 8.40389355,45.1174614 10.1811214,45.0520815 C10.6885061,45.0272187 11.1213026,45.4185772 11.1461653,45.9268827 C11.1470862,45.9416162 11.148007,45.9581914 11.148007,45.9729249 L11.083548,51.3966928 C11.0807854,52.0578584 11.4316268,52.6692985 12.0043914,52.9989604 L31.5170641,64.6761762 C31.9544647,64.9349332 32.5189417,64.7903607 32.7786196,64.3529601 C32.8614955,64.2139128 32.905696,64.0546068 32.9075377,63.8925384 L32.9812051,57.5120141 C33.0161972,56.1390366 33.164453,54.771584 33.42321,53.4225484 C34.1967185,50.8018279 35.7916193,48.4969568 37.9721766,46.848647 L38.1563453,46.6921036 C42.5846815,43.8282805 46.0498153,39.6992185 48.1014545,34.8408485 C50.2562282,30.1344176 50.9735653,24.8966601 50.1641439,19.7850581" id="Fill-1" fill="#2B393F" mask="url(#mask-2)"></path>
                            </g>
                            <path d="M17.9907947,32.7613998 L15.3525782,33.6297552 C15.1969557,33.7163145 15.1011879,33.8811454 15.1038923,34.0588682 L15.1038923,37.7809174 C15.1011879,37.9595611 15.1969557,38.1234712 15.3525782,38.2109513 L17.9907947,41.065566 C18.1464172,41.1484419 18.3333484,41.1484419 18.488971,41.065566 L21.1271875,40.1014429 C21.28281,40.0148836 21.3776569,39.8491318 21.3758415,39.6723299 L21.3758415,35.9907978 C21.3776569,35.8121542 21.28281,35.648244 21.1271875,35.5616847 L18.488971,32.7613998 C18.3333484,32.6776031 18.1464172,32.6776031 17.9907947,32.7613998" id="Fill-3" fill="#02E49B"></path>
                            <path d="M26.3610774,25.2732851 L23.722861,26.1416404 C23.5672384,26.2281997 23.4714707,26.3930307 23.474175,26.5707535 L23.474175,30.2928027 C23.4714707,30.4714463 23.5672384,30.6353565 23.722861,30.7219157 L26.3610774,33.5765304 C26.5167,33.6594063 26.7036312,33.6594063 26.8592537,33.5765304 L29.4974702,32.6124073 C29.6530928,32.5258481 29.7479396,32.3610171 29.7461243,32.1832943 L29.7461243,28.502683 C29.7479396,28.3240394 29.6530928,28.1601293 29.4974702,28.07357 L26.8592537,25.2732851 C26.7036312,25.1894883 26.5167,25.1894883 26.3610774,25.2732851" id="Fill-5" fill="#02E49B"></path>
                            <path d="M44.8777658,26.6572207 C44.8777658,16.1273759 35.1030126,6.9548543 24.5731678,6.9548543" id="Stroke-7" stroke="#D9DBDC" stroke-width="1.7" stroke-linecap="round"></path>
                        </g>
                        <g transform="translate(0.000000, 0.327912)">
                            <mask id="mask-4" fill="white">
                                <use xlink:href="#path-3"></use>
                            </mask>
                            <g id="Clip-10"></g>
                            <polygon id="Fill-9" fill="#00E599" mask="url(#mask-4)" points="17.5347009 59.9579585 18.9970003 59.9579585 18.9970003 39.6146851 17.5347009 39.6146851"></polygon>
                            <polygon id="Fill-11" fill="#00E599" mask="url(#mask-4)" points="25.8075584 62.3788559 27.2698578 62.3788559 27.2698578 32.245175 25.8075584 32.245175"></polygon>
                        </g>
                        <g transform="translate(11.050121, 55.319523)" fill="#2B393F">
                            <path d="M1.22407719,0.188367777 L21.4973665,12.3656015 C21.7367858,12.5101739 21.8841208,12.7698518 21.8841208,13.0497882 L21.8841208,15.7432553 C21.8841208,16.3639038 21.20638,16.7469746 20.6750533,16.427442 L0.420180865,4.25481244 C0.185365786,4.11392339 0.0417142081,3.85884976 0.0417142081,3.58535925 L0.0417142081,0.857820963 C0.0417142081,0.250064288 0.703800646,-0.123798152 1.22407719,0.188367777" id="Fill-12"></path>
                            <path d="M1.22407719,6.92562677 L21.4973665,19.1037814 C21.7367858,19.2474329 21.8841208,19.5071108 21.8841208,19.787968 L21.8841208,22.4814351 C21.8841208,23.1011628 21.20638,23.4842336 20.6750533,23.164701 L0.420180865,10.9920714 C0.185365786,10.8511824 0.0417142081,10.5970296 0.0417142081,10.3226182 L0.0417142081,7.59507996 C0.0417142081,6.98732328 0.703800646,6.61346084 1.22407719,6.92562677" id="Fill-14"></path>
                        </g>
                    </g>
                </g>
            </g>
        </g>
    </g>
</svg>