<?xml version="1.0" encoding="UTF-8"?>
<svg width="77px" height="68px" viewBox="0 0 77 68" version="1.1" xmlns="http://www.w3.org/2000/svg" xmlns:xlink="http://www.w3.org/1999/xlink">
    <!-- Generator: Sketch 63.1 (92452) - https://sketch.com -->
    <title>编组 3</title>
    <desc>Created with Sketch.</desc>
    <defs>
        <polygon id="path-1" points="0.379983566 0.273487017 15.6624459 0.273487017 15.6624459 13.7529391 0.379983566 13.7529391"></polygon>
        <polygon id="path-3" points="0.109139395 0.273421429 15.4122312 0.273421429 15.4122312 13.7529391 0.109139395 13.7529391"></polygon>
        <polygon id="path-5" points="0 0.273421429 15.3027971 0.273421429 15.3027971 13.7529391 0 13.7529391"></polygon>
    </defs>
    <g id="Career" stroke="none" stroke-width="1" fill="none" fill-rule="evenodd">
        <g id="DT_Deverloper-Cn" transform="translate(-678.000000, -1821.000000)">
            <g id="provide" transform="translate(0.000000, 1580.000000)">
                <g id="编组-3" transform="translate(674.000000, 232.500000)">
                    <g id="challenge" opacity="0" fill="#D8D8D8">
                        <rect id="矩形" x="0" y="0" width="86" height="86"></rect>
                    </g>
                    <g id="编组" transform="translate(4.500000, 8.500000)">
                        <g id="编组-2" transform="translate(0.000000, 0.376045)">
                            <polygon id="Fill-1" fill="#2B393F" points="43.7205933 63.0972169 61.9766376 63.0972169 61.9766376 58.6216176 43.7205933 58.6216176"></polygon>
                            <polygon id="Fill-2" fill="#2B393F" points="6.64856369 63.0972169 32.2467127 63.0972169 32.2467127 58.6216176 6.64856369 58.6216176"></polygon>
                            <polygon id="Fill-3" fill="#D9DBDC" points="27.6885958 36.2632681 47.0704163 36.2632681 47.0704163 31.7857041 27.6885958 31.7857041"></polygon>
                            <polygon id="Fill-4" fill="#D9DBDC" points="22.7642577 40.5180345 26.6406218 38.2802348 35.7706086 54.0902206 31.8922798 56.329985"></polygon>
                            <polygon id="Fill-5" fill="#2B393F" points="53.341953 39.4973699 57.2183171 37.2595703 67.4721156 55.018544 63.5957514 57.2583084"></polygon>
                            <polygon id="Fill-6" fill="#2B393F" points="10.8992042 57.2602731 7.0228401 55.0205087 17.2766385 37.2595703 21.1530026 39.4993346"></polygon>
                            <polygon id="Fill-7" fill="#2B393F" points="37.8046683 12.3808964 41.6810324 10.1430968 51.9348309 27.9020705 48.0584668 30.1418349"></polygon>
                            <polygon id="Fill-8" fill="#2B393F" points="26.0883431 30.3913525 22.2100142 28.1535528 32.4657774 10.3926144 36.3421415 12.6323787"></polygon>
                            <polygon id="Fill-9" fill="#D9DBDC" points="42.4399982 56.3295921 38.5636341 54.0898277 47.6916562 38.2778772 51.5680203 40.5176415"></polygon>
                            <g id="编组">
                                <g transform="translate(60.081964, 53.870959)">
                                    <mask id="mask-2" fill="white">
                                        <use xlink:href="#path-1"></use>
                                    </mask>
                                    <g id="Clip-11"></g>
                                    <path d="M15.5489842,6.57429782 L12.17362,0.72143989 C12.0085847,0.450310519 11.7158436,0.279381134 11.3975613,0.273487017 L4.64486821,0.273487017 C4.3265859,0.279381134 4.03384477,0.450310519 3.8688095,0.72143989 L0.493445313,6.57429782 C0.342162984,6.85721542 0.342162984,7.19318008 0.493445313,7.47609768 L3.76860952,13.3034144 C3.93364479,13.5745438 4.22638592,13.7454732 4.54466822,13.753332 L11.2718201,13.753332 C11.5901024,13.7454732 11.8848083,13.5745438 12.0478788,13.3034144 L15.5489842,7.47609768 C15.7002665,7.19318008 15.7002665,6.85721542 15.5489842,6.57429782" id="Fill-10" fill="#02E49B" mask="url(#mask-2)"></path>
                                </g>
                                <path d="M60.3498614,33.6358673 L56.9744972,27.8085505 C56.8173207,27.5275976 56.5206502,27.3547036 56.1984385,27.3585674 L49.4712865,27.3585674 C49.1451454,27.3625624 48.8425808,27.5315271 48.6716514,27.8085505 L45.3198637,33.6358673 C45.1410754,33.9109261 45.1410754,34.2626084 45.3198637,34.5357025 L48.6716514,40.3630192 C48.8425808,40.6400427 49.1451454,40.8109721 49.4712865,40.8130024 L56.1984385,40.8130024 C56.5206502,40.8168662 56.8173207,40.6439721 56.9744972,40.3630192 L60.3498614,34.5357025 C60.5011437,34.2547496 60.5011437,33.9168202 60.3498614,33.6358673" id="Fill-12" fill="#02E49B"></path>
                                <path d="M44.9045249,6.72470554 L41.527196,0.897388781 C41.3719843,0.618400588 41.073349,0.445506497 40.753102,0.449370321 L34.0239854,0.449370321 C33.6978443,0.451400614 33.3972443,0.62233 33.2243502,0.897388781 L29.8745272,6.72470554 C29.695739,6.99976432 29.695739,7.35144662 29.8745272,7.6265054 L33.2243502,13.4538222 C33.3972443,13.7288809 33.6978443,13.8998103 34.0239854,13.9018406 L40.753102,13.9018406 C41.073349,13.9057044 41.3719843,13.7328103 41.527196,13.4538222 L44.9045249,7.6265054 C45.0558072,7.34358779 45.0558072,7.00762314 44.9045249,6.72470554" id="Fill-14" fill="#02E49B"></path>
                                <path d="M29.1629108,33.4362532 L25.7875466,27.6089365 C25.6303702,27.3279836 25.3336997,27.1550895 25.0114879,27.1589533 L18.284336,27.1589533 C17.9581949,27.1609836 17.6556302,27.331913 17.4847009,27.6089365 L14.1329131,33.4362532 C13.9541249,33.7093473 13.9541249,34.0610296 14.1329131,34.3360884 L17.4847009,40.1889463 C17.6556302,40.4659698 17.9581949,40.6349345 18.284336,40.6389295 L25.0114879,40.6389295 C25.3336997,40.6427933 25.6303702,40.4698992 25.7875466,40.1889463 L29.1629108,34.3360884 C29.3141932,34.0531708 29.3141932,33.7172061 29.1629108,33.4362532" id="Fill-16" fill="#02E49B"></path>
                                <g transform="translate(29.470584, 53.870959)">
                                    <mask id="mask-4" fill="white">
                                        <use xlink:href="#path-3"></use>
                                    </mask>
                                    <g id="Clip-19"></g>
                                    <path d="M15.2987694,6.57429782 L11.8723229,0.72143989 C11.7151464,0.442451697 11.4184759,0.269557606 11.0962642,0.273421429 L4.36911227,0.273421429 C4.05082997,0.283310545 3.76005354,0.452275225 3.59305357,0.72143989 L0.243230551,6.57429782 C0.0644423431,6.8493566 0.0644423431,7.2010389 0.243230551,7.47609768 L3.59305357,13.3034144 C3.76005354,13.5745438 4.05082997,13.7415438 4.36911227,13.7533486 L11.1218054,13.7533486 C11.4440171,13.7552967 11.7406876,13.5824026 11.8978641,13.3034144 L15.2987694,7.47609768 C15.4500518,7.19318008 15.4500518,6.85721542 15.2987694,6.57429782" id="Fill-18" fill="#02E49B" mask="url(#mask-4)"></path>
                                </g>
                                <g transform="translate(0.000000, 53.870959)">
                                    <mask id="mask-6" fill="white">
                                        <use xlink:href="#path-5"></use>
                                    </mask>
                                    <g id="Clip-21"></g>
                                    <path d="M15.1893353,6.57429782 L11.7628888,0.72143989 C11.607677,0.442451697 11.3090418,0.269557606 10.9868301,0.273421429 L4.25967817,0.273421429 C3.94336057,0.283310545 3.65061944,0.452275225 3.48361947,0.72143989 L0.13379645,6.57429782 C-0.0449917578,6.8493566 -0.0449917578,7.2010389 0.13379645,7.47609768 L3.48361947,13.3034144 C3.65061944,13.5745438 3.94336057,13.7415438 4.25967817,13.7533486 L11.0123713,13.7533486 C11.334583,13.7552967 11.6312535,13.5824026 11.78843,13.3034144 L15.1893353,7.47609768 C15.3406177,7.19318008 15.3406177,6.85721542 15.1893353,6.57429782" id="Fill-20" fill="#02E49B" mask="url(#mask-6)"></path>
                                </g>
                            </g>
                        </g>
                    </g>
                </g>
            </g>
        </g>
    </g>
</svg>