<?xml version="1.0" encoding="UTF-8"?>
<svg width="60px" height="66px" viewBox="0 0 60 66" version="1.1" xmlns="http://www.w3.org/2000/svg" xmlns:xlink="http://www.w3.org/1999/xlink">
    <!-- Generator: Sketch 63.1 (92452) - https://sketch.com -->
    <title>开放的讨论</title>
    <desc>Created with Sketch.</desc>
    <defs>
        <polygon id="path-1" points="0.25425641 0.459840879 46.9212044 0.459840879 46.9212044 65.3802198 0.25425641 65.3802198"></polygon>
        <polygon id="path-3" points="0.31320794 0.589947516 1.26982916 0.589947516 1.26982916 1.5161673 0.31320794 1.5161673"></polygon>
    </defs>
    <g id="Career" stroke="none" stroke-width="1" fill="none" fill-rule="evenodd">
        <g id="DT_Deverloper-Cn" transform="translate(-987.000000, -1822.000000)">
            <g id="provide" transform="translate(0.000000, 1580.000000)">
                <g id="开放的讨论" transform="translate(975.000000, 232.500000)">
                    <rect id="矩形" fill="#613434" opacity="0" x="0" y="0" width="86" height="86"></rect>
                    <g id="编组" transform="translate(12.500000, 9.500000)">
                        <g transform="translate(5.085128, 0.266243)">
                            <mask id="mask-2" fill="white">
                                <use xlink:href="#path-1"></use>
                            </mask>
                            <g id="Clip-2"></g>
                            <path d="M46.9212044,63.282895 L46.9212044,28.3473378 C46.9168457,26.8501307 46.1177541,25.4669759 44.8217729,24.7151033 L3.41430037,0.742356073 C2.40671853,0.160472117 1.11800176,0.506260835 0.536117802,1.51384267 C0.351600293,1.8334793 0.25425641,2.19670274 0.25425641,2.56646421 L0.25425641,37.5957331 C0.26587956,39.100931 1.08022652,40.4855388 2.39001026,41.2279675 L4.83087179,42.6154811 C5.67863531,43.094936 6.39418549,43.7756167 6.91577436,44.5979546 L14.1802432,56.1128642 L14.3182681,49.3852396 C14.3117301,48.9842409 14.6320932,48.6537076 15.0330919,48.647896 C15.1703903,48.6457167 15.3055095,48.682039 15.4224674,48.7539572 L43.753896,65.0990122 C44.7658365,65.6808961 46.0589119,65.3314752 46.6400695,64.3195347 C46.8209547,64.0035303 46.9182986,63.6468449 46.9212044,63.282895" id="Fill-1" fill="#2B393F" mask="url(#mask-2)"></path>
                        </g>
                        <path d="M40.0416071,36.9025575 L11.5430957,20.550238 C11.0992367,20.3076048 10.8210075,19.8441317 10.8166488,19.3370717 L10.8166488,16.0825897 C10.8377158,15.6823175 11.1798723,15.374304 11.5801445,15.3953709 C11.6811206,15.4004561 11.7799174,15.4273346 11.8699968,15.4723743 L40.3612437,31.8246937 C40.7992912,32.0774972 41.0746146,32.5395175 41.0876906,33.0451245 L41.0876906,36.2923421 C41.0651708,36.6933407 40.7215614,36.9991749 40.3212891,36.976655 C40.2239453,36.9708435 40.1287807,36.9461443 40.0416071,36.9025575" id="Fill-3" fill="#D9DBDC"></path>
                        <path d="M19.2218573,36.3286644 L0.726519531,25.5409281 C0.285566271,25.2982949 0.00806356044,24.838454 7.26446886e-05,24.3350263 L7.26446886e-05,21.0885352 C0.0225924982,20.6875365 0.366201875,20.3817024 0.76647411,20.4042222 C0.868903121,20.4100338 0.969879238,20.4376388 1.0606851,20.4848578 L19.5560228,31.2725941 C19.9831736,31.5246712 20.2454209,31.9830591 20.2461474,32.4784959 L20.2461474,35.718449 C20.2178159,36.1187213 19.8698479,36.4201967 19.4695756,36.3918653 C19.3838549,36.3853273 19.3003135,36.3642603 19.2218573,36.3286644" id="Fill-5" fill="#D9DBDC"></path>
                        <path d="M52.4993721,24.3982998 L52.4993721,24.3982998 C52.7311087,24.3982998 52.9635717,24.6293099 52.9635717,24.861773 C52.9635717,25.0927831 52.7311087,25.3245196 52.4993721,25.3245196 C52.268362,25.3245196 52.035899,25.0927831 52.035899,24.861773 C51.9203939,24.6293099 52.1521305,24.3982998 52.4993721,24.3982998" id="Fill-7" fill="#D9DBDC"></path>
                        <path d="M40.4509599,17.9709884 L41.7244213,17.9709884 C42.0723894,17.9709884 42.3041259,18.2019985 42.3041259,18.5499665 L42.3041259,19.8241544 C42.3041259,20.171396 42.0723894,20.4031325 41.7244213,20.4031325 L40.4509599,20.4031325 C40.1029919,20.4031325 39.8719817,20.171396 39.8719817,19.8241544 L39.8719817,18.5499665 C39.9874868,18.2019985 40.2192234,17.9709884 40.4509599,17.9709884" id="Fill-9" fill="#02E49B"></path>
                        <path d="M38.0186704,12.6865231 L39.2921318,12.6865231 C39.6400999,12.6865231 39.8718365,12.9175332 39.8718365,13.2655013 L39.8718365,14.5396891 C39.8718365,14.8869308 39.6400999,15.1186673 39.2921318,15.1186673 L38.0186704,15.1186673 C37.6707024,15.1186673 37.4396923,14.8869308 37.4396923,14.5396891 L37.4396923,13.2655013 C37.5551973,12.9175332 37.7869339,12.6865231 38.0186704,12.6865231" id="Fill-11" fill="#02E49B"></path>
                        <g transform="translate(58.115751, 26.418331)">
                            <mask id="mask-4" fill="white">
                                <use xlink:href="#path-3"></use>
                            </mask>
                            <g id="Clip-14"></g>
                            <path d="M0.806719267,0.589947516 L0.806719267,0.589947516 C1.03772938,0.589947516 1.27019238,0.821684073 1.27019238,1.05342063 C1.27019238,1.28515719 1.03772938,1.5161673 0.806719267,1.5161673 C0.574982711,1.5161673 0.343246154,1.28515719 0.343246154,1.05342063 C0.227741099,0.821684073 0.458751209,0.589947516 0.806719267,0.589947516" id="Fill-13" fill="#D9DBDC" mask="url(#mask-4)"></path>
                        </g>
                        <path d="M44.7361975,23.819467 L45.1996706,23.819467 C45.3151756,23.819467 45.3151756,23.819467 45.3151756,23.934972 L45.3151756,24.2829401 C45.3151756,24.3984451 45.3151756,24.3984451 45.1996706,24.3984451 L44.852429,24.3984451 C44.7361975,24.3984451 44.7361975,24.3984451 44.7361975,24.2829401 L44.7361975,23.819467 C44.6206924,23.819467 44.7361975,23.819467 44.7361975,23.819467" id="Fill-15" fill="#D9DBDC"></path>
                        <path d="M47.2738217,19.1869152 L48.5472831,19.1869152 C48.8952512,19.1869152 49.1269877,19.4179253 49.1269877,19.7658933 L49.1269877,21.0400812 C49.1269877,21.3873228 48.8952512,21.6190593 48.5472831,21.6190593 L47.2738217,21.6190593 C46.9258537,21.6190593 46.6948435,21.3873228 46.6948435,21.0400812 L46.6948435,19.7658933 C46.6948435,19.4179253 46.9258537,19.1869152 47.2738217,19.1869152" id="Fill-17" fill="#D9DBDC"></path>
                        <path d="M51.1529028,43.7732921 L51.1529028,43.7732921 C51.3839129,43.7732921 51.6163759,44.0043022 51.6163759,44.2367652 C51.6163759,44.4677753 51.3839129,44.6995119 51.1529028,44.6995119 C50.9211662,44.6995119 50.6894297,44.4677753 50.6894297,44.2367652 C50.5731982,44.0043022 50.8049347,43.7732921 51.1529028,43.7732921" id="Fill-19" fill="#02E49B"></path>
                        <path d="M53.0641119,45.9938223 L54.3375733,45.9938223 C54.6848149,45.9938223 54.9172779,46.2255589 54.9172779,46.5735269 L54.9172779,47.8477148 C54.9172779,48.1942299 54.6848149,48.4266929 54.3375733,48.4266929 L53.0641119,48.4266929 C52.7161439,48.4266929 52.4844073,48.1942299 52.4844073,47.8477148 L52.4844073,46.5735269 C52.4844073,46.2255589 52.7161439,45.9938223 53.0641119,45.9938223" id="Fill-21" fill="#02E49B"></path>
                        <path d="M53.6188994,30.1800906 L54.8930872,30.1800906 C55.2403288,30.1800906 55.4720654,30.4118272 55.4720654,30.7597952 L55.4720654,32.0332566 C55.4720654,32.3804982 55.2403288,32.6129612 54.8930872,32.6129612 L53.6188994,32.6129612 C53.2716578,32.6129612 53.0399212,32.3804982 53.0399212,32.0332566 L53.0399212,30.7597952 C53.0399212,30.4118272 53.2716578,30.1800906 53.6188994,30.1800906" id="Fill-23" fill="#02E49B"></path>
                        <path d="M45.0150078,15.711448 L45.0150078,15.711448 C45.2467443,15.711448 45.4784809,15.9431845 45.4784809,16.1749211 C45.4784809,16.4066576 45.2467443,16.6376678 45.0150078,16.6376678 C44.7832712,16.6376678 44.5515347,16.4066576 44.5515347,16.1749211 C44.4360296,15.9431845 44.6677662,15.711448 45.0150078,15.711448" id="Fill-25" fill="#02E49B"></path>
                        <path d="M51.7169162,36.8926051 L52.2958943,36.8926051 C52.6431359,36.8926051 52.8748725,37.1243417 52.8748725,37.4715833 L52.8748725,38.0512879 C52.8748725,38.3978031 52.6431359,38.6302661 52.2958943,38.6302661 L51.7169162,38.6302661 C51.3689481,38.6302661 51.137938,38.3978031 51.137938,38.0512879 L51.137938,37.4715833 C51.137938,37.1243417 51.3689481,36.8926051 51.7169162,36.8926051" id="Fill-27" fill="#D9DBDC"></path>
                        <path d="M56.1671298,17.2175903 L56.5150978,17.2175903 C56.6306029,17.2175903 56.6306029,17.2175903 56.6306029,17.3330954 L56.6306029,17.6810634 C56.6306029,17.7965685 56.6306029,17.7965685 56.5150978,17.7965685 L56.1671298,17.7965685 C56.0516247,17.7965685 56.0516247,17.7965685 56.0516247,17.6810634 L56.1671298,17.2175903 C56.0516247,17.2175903 56.1671298,17.2175903 56.1671298,17.2175903" id="Fill-29" fill="#D9DBDC"></path>
                        <path d="M56.6452771,36.5144895 L56.6452771,36.5144895 C56.8770137,36.5144895 57.1087502,36.7454996 57.1087502,36.9779626 C57.1087502,37.2089727 56.8770137,37.4407093 56.6452771,37.4407093 C56.414267,37.4407093 56.181804,37.2089727 56.181804,36.9779626 C56.066299,36.7454996 56.2973091,36.5144895 56.6452771,36.5144895" id="Fill-31" fill="#02E49B"></path>
                        <path d="M55.4874661,41.9763531 L55.4874661,41.9763531 C55.7184762,41.9763531 55.9509392,42.2080896 55.9509392,42.4398262 C55.9509392,42.6715628 55.7184762,42.9025729 55.4874661,42.9025729 C55.2557295,42.9025729 55.023993,42.6715628 55.023993,42.4398262 C54.9077615,42.2080896 55.139498,41.9763531 55.4874661,41.9763531" id="Fill-33" fill="#D9DBDC"></path>
                    </g>
                </g>
            </g>
        </g>
    </g>
</svg>