<?xml version="1.0" encoding="UTF-8"?>
<svg width="71px" height="82px" viewBox="0 0 71 82" version="1.1" xmlns="http://www.w3.org/2000/svg" xmlns:xlink="http://www.w3.org/1999/xlink">
    <!-- Generator: Sketch 63.1 (92452) - https://sketch.com -->
    <title>紧密的合作伙伴</title>
    <desc>Created with Sketch.</desc>
    <defs>
        <polygon id="path-1" points="0 0.230383381 5.07085461 0.230383381 5.07085461 5.30135324 0 5.30135324"></polygon>
        <polygon id="path-3" points="0.115249315 0.115595063 5.18621918 0.115595063 5.18621918 5.18541243 0.115249315 5.18541243"></polygon>
        <polygon id="path-5" points="0 0.115595063 5.07085461 0.115595063 5.07085461 5.18541243 0 5.18541243"></polygon>
        <polygon id="path-7" points="0 80.8020137 70.8783288 80.8020137 70.8783288 0.0122438356 0 0.0122438356"></polygon>
    </defs>
    <g id="Career" stroke="none" stroke-width="1" fill="none" fill-rule="evenodd">
        <g id="DT_Deverloper-Cn" transform="translate(-380.000000, -1992.000000)">
            <g id="provide" transform="translate(0.000000, 1580.000000)">
                <g id="紧密的合作伙伴" transform="translate(373.000000, 410.500000)">
                    <rect id="矩形" fill="#D8D8D8" opacity="0" x="0" y="0" width="86" height="86"></rect>
                    <g id="编组" transform="translate(7.000000, 2.000000)">
                        <polygon id="Fill-1" fill="#2B393F" points="1.36213165 23.3045914 3.72474261 19.2120882 24.6839831 31.3132663 22.3213721 35.4057695"></polygon>
                        <polygon id="Fill-2" fill="#2B393F" points="45.1337063 32.1384514 67.1912727 19.4034021 69.5527311 23.4959053 47.4963172 36.2309546"></polygon>
                        <g transform="translate(0.000000, 0.115249)">
                            <path d="M68.2274793,18.7977669 C69.6277584,18.7977669 70.7629642,19.9329727 70.7629642,21.3332519 C70.7629642,22.7335311 69.6277584,23.8687368 68.2274793,23.8687368 C66.8272001,23.8687368 65.6919943,22.7335311 65.6919943,21.3332519 C65.6919943,19.9329727 66.8272001,18.7977669 68.2274793,18.7977669" id="Fill-3" fill="#02E49B"></path>
                            <g transform="translate(0.000000, 18.567384)">
                                <mask id="mask-2" fill="white">
                                    <use xlink:href="#path-1"></use>
                                </mask>
                                <g id="Clip-6"></g>
                                <path d="M2.53536968,0.230383381 C3.93564886,0.230383381 5.07085461,1.36558913 5.07085461,2.76586831 C5.07085461,4.16614749 3.93564886,5.30135324 2.53536968,5.30135324 C1.1350905,5.30135324 -0.000115249315,4.16614749 -0.000115249315,2.76586831 C-0.000115249315,1.36558913 1.1350905,0.230383381 2.53536968,0.230383381" id="Fill-5" fill="#02E49B" mask="url(#mask-2)"></path>
                            </g>
                            <polygon id="Fill-7" fill="#2B393F" points="1.47749622 57.317315 22.4367367 45.2161369 24.7993476 49.3086401 3.84010718 61.4098182"></polygon>
                            <polygon id="Fill-9" fill="#2B393F" points="45.2097708 48.4879497 47.5723818 44.3954466 69.6287957 57.1304959 67.2673372 61.2229991"></polygon>
                            <g transform="translate(65.692110, 56.599658)">
                                <mask id="mask-4" fill="white">
                                    <use xlink:href="#path-3"></use>
                                </mask>
                                <g id="Clip-12"></g>
                                <path d="M2.65073425,0.115595063 C4.05101342,0.115595063 5.18621918,1.24964832 5.18621918,2.65107999 C5.18621918,4.05135917 4.05101342,5.18541243 2.65073425,5.18541243 C1.25045507,5.18541243 0.115249315,4.05135917 0.115249315,2.65107999 C0.115249315,1.24964832 1.25045507,0.115595063 2.65073425,0.115595063" id="Fill-11" fill="#02E49B" mask="url(#mask-4)"></path>
                            </g>
                            <g transform="translate(0.000000, 56.599658)">
                                <mask id="mask-6" fill="white">
                                    <use xlink:href="#path-5"></use>
                                </mask>
                                <g id="Clip-14"></g>
                                <path d="M2.53536968,0.115595063 C3.93564886,0.115595063 5.07085461,1.24964832 5.07085461,2.65107999 C5.07085461,4.05135917 3.93564886,5.18541243 2.53536968,5.18541243 C1.1350905,5.18541243 -0.000115249315,4.05135917 -0.000115249315,2.65107999 C-0.000115249315,1.24964832 1.1350905,0.115595063 2.53536968,0.115595063" id="Fill-13" fill="#02E49B" mask="url(#mask-6)"></path>
                            </g>
                            <mask id="mask-8" fill="white">
                                <use xlink:href="#path-7"></use>
                            </mask>
                            <g id="Clip-16"></g>
                            <polygon id="Fill-15" fill="#2B393F" mask="url(#mask-8)" points="33.0765534 21.9096137 37.8017753 21.9096137 37.8017753 2.54772877 33.0765534 2.54772877"></polygon>
                            <polygon id="Fill-17" fill="#2B393F" mask="url(#mask-8)" points="33.0765534 78.2676813 37.8017753 78.2676813 37.8017753 58.9046438 33.0765534 58.9046438"></polygon>
                            <path d="M35.496789,75.7313896 C36.8970682,75.7313896 38.032274,76.8654428 38.032274,78.2668745 C38.032274,79.6671537 36.8970682,80.801207 35.496789,80.801207 C34.0965099,80.801207 32.9613041,79.6671537 32.9613041,78.2668745 C32.9613041,76.8654428 34.0965099,75.7313896 35.496789,75.7313896" id="Fill-18" fill="#02E49B" mask="url(#mask-8)"></path>
                            <path d="M35.496789,0.0123590849 C36.8970682,0.0123590849 38.032274,1.14756484 38.032274,2.54784402 C38.032274,3.94812319 36.8970682,5.08332895 35.496789,5.08332895 C34.0965099,5.08332895 32.9613041,3.94812319 32.9613041,2.54784402 C32.9613041,1.14756484 34.0965099,0.0123590849 35.496789,0.0123590849" id="Fill-19" fill="#02E49B" mask="url(#mask-8)"></path>
                            <path d="M49.679024,52.9099507 L31.1238843,42.3070137 C30.2018898,41.7307672 29.6256432,40.8087726 29.6256432,39.7715288 L29.6256432,18.1046576 C29.6256432,17.2979124 30.3171391,16.6064165 31.1238843,16.6064165 C31.3543829,16.6064165 31.5848815,16.7216658 31.8153802,16.8369151 L50.4857692,27.4386996 C51.4077637,28.0149462 51.9840103,28.9380932 51.9840103,29.975337 L51.9840103,51.6410558 C51.9840103,52.4489535 51.4077637,53.1404493 50.4857692,53.1404493 C50.2552706,53.1404493 49.9095226,53.0252 49.679024,52.9099507" id="Fill-20" fill="#02E49B" mask="url(#mask-8)"></path>
                            <path d="M38.4759838,26.1404161 C40.376445,25.2449289 42.7517334,26.2936976 43.7820623,28.4811296 C44.8135437,30.6697141 44.1082179,33.1694718 42.2077567,34.0638065 C40.3072955,34.9581412 37.9320071,33.9105249 36.9016782,31.7230929 C35.8701968,29.5345084 36.5755226,27.0347507 38.4759838,26.1404161" id="Fill-21" fill="#2B393F" mask="url(#mask-8)"></path>
                            <path d="M45.9908154,47.3782141 L34.5811332,40.8090031 C34.3506346,40.6926013 34.2353853,40.4632552 34.2353853,40.2327566 L34.2353853,39.8870086 C34.2353853,37.4656205 36.309873,35.3922853 38.7301086,35.5063821 C39.4216045,35.5063821 40.2283497,35.7368808 40.8045962,36.0826287 C44.723073,38.2735182 46.9128099,42.3072442 46.9128099,46.8019675 C46.9128099,47.1477155 46.567062,47.4934634 46.2213141,47.4934634 C46.2213141,47.3782141 46.1060647,47.3782141 45.9908154,47.3782141" id="Fill-22" fill="#2B393F" mask="url(#mask-8)"></path>
                            <path d="M39.0629486,63.9779187 L20.5078089,53.3749817 C19.5858144,52.7987351 19.0095678,51.8767406 19.0095678,50.8394968 L19.0095678,29.1726255 C19.0095678,28.3658803 19.7010637,27.6743844 20.5078089,27.6743844 C20.7383075,27.6743844 20.9688061,27.7896338 21.1993048,27.9048831 L39.8696938,38.5066676 C40.7916883,39.0829141 41.3679349,40.0060612 41.3679349,41.043305 L41.3679349,62.7090237 C41.3679349,63.5169214 40.7916883,64.2084173 39.8696938,64.2084173 C39.6391952,64.2084173 39.2934472,64.093168 39.0629486,63.9779187" id="Fill-23" fill="#D9DBDC" mask="url(#mask-8)"></path>
                            <path d="M35.3753163,58.4461821 L23.9656341,51.8769711 C23.7351354,51.7605693 23.6198861,51.5312232 23.6198861,51.3007245 L23.6198861,50.9549766 C23.6198861,48.5335885 25.6943738,46.4602533 28.1146094,46.5743501 C28.8061053,46.5743501 29.6128505,46.8048487 30.1890971,47.1505967 C34.1075738,49.3414862 36.2973108,53.3752122 36.2973108,57.8699355 C36.2973108,58.2156834 35.9515628,58.5614314 35.6058149,58.5614314 C35.6058149,58.4461821 35.4905656,58.4461821 35.3753163,58.4461821" id="Fill-24" fill="#2B393F" mask="url(#mask-8)"></path>
                            <path d="M27.8599084,37.208384 C29.7603696,36.3128968 32.135658,37.3616656 33.1671394,39.5490976 C34.1974683,41.7376821 33.4921425,44.2374398 31.5916812,45.1317744 C29.6923725,46.0261091 27.3159317,44.9784928 26.2856028,42.7910608 C25.2552739,40.6024764 25.9594472,38.1027187 27.8599084,37.208384" id="Fill-25" fill="#2B393F" mask="url(#mask-8)"></path>
                        </g>
                    </g>
                </g>
            </g>
        </g>
    </g>
</svg>