<svg xmlns="http://www.w3.org/2000/svg" xmlns:xlink="http://www.w3.org/1999/xlink" viewBox="0 0 1655.5 800.36"><defs><style>.cls-1,.cls-2,.cls-3,.cls-4{opacity:0.5;}.cls-1{fill:url(#未命名的渐变_3);}.cls-2{fill:url(#未命名的渐变_2);}.cls-3{fill:url(#未命名的渐变_3-2);}.cls-4,.cls-5,.cls-6,.cls-7,.cls-8{isolation:isolate;}.cls-4{fill:url(#未命名的渐变_4);}.cls-5,.cls-6,.cls-7,.cls-8{opacity:0.2;}.cls-5{fill:url(#未命名的渐变_7);}.cls-6{fill:url(#未命名的渐变_7-2);}.cls-7{fill:url(#未命名的渐变_9);}.cls-8{fill:url(#未命名的渐变_9-2);}.cls-9{fill:#d9dbdc;}.cls-10{fill:#fff;}.cls-11{fill:url(#未命名的渐变_24);}.cls-12{fill:#53edbb;}.cls-13{fill:#d1faed;}.cls-14{fill:#eeeff0;}.cls-15{fill:url(#未命名的渐变_24-2);}.cls-16{fill:url(#未命名的渐变_24-3);}.cls-17{fill:#f9f9f9;}</style><linearGradient id="未命名的渐变_3" x1="473.14" y1="261.49" x2="-15.09" y2="861" gradientTransform="translate(0 -20)" gradientUnits="userSpaceOnUse"><stop offset="0.04" stop-color="#f9fbfb"/><stop offset="0.33" stop-color="#f6f8f8"/><stop offset="0.53" stop-color="#edf0f0"/><stop offset="0.7" stop-color="#dde1e2"/><stop offset="0.86" stop-color="#c7cccd"/><stop offset="1" stop-color="#aeb4b6"/></linearGradient><linearGradient id="未命名的渐变_2" x1="580.34" y1="27.08" x2="354.82" y2="304" gradientTransform="translate(0 -20)" gradientUnits="userSpaceOnUse"><stop offset="0.04" stop-color="#f9fbfb"/><stop offset="0.33" stop-color="#f6f8f8"/><stop offset="0.53" stop-color="#edf0f0"/><stop offset="0.7" stop-color="#e0e0e0"/><stop offset="0.86" stop-color="#dbdbdb"/><stop offset="1" stop-color="#d6d6d6"/></linearGradient><linearGradient id="未命名的渐变_3-2" x1="1333.62" y1="485.23" x2="1040" y2="845.78" xlink:href="#未命名的渐变_3"/><linearGradient id="未命名的渐变_4" x1="1619.07" y1="75.43" x2="1240.98" y2="539.7" gradientTransform="translate(0 -20)" gradientUnits="userSpaceOnUse"><stop offset="0" stop-color="#d1d1d1"/><stop offset="0.14" stop-color="#c7cccd"/><stop offset="0.3" stop-color="#dde1e2"/><stop offset="0.47" stop-color="#edf0f0"/><stop offset="0.67" stop-color="#f6f8f8"/><stop offset="0.96" stop-color="#f9fbfb"/></linearGradient><linearGradient id="未命名的渐变_7" x1="1267.29" y1="-5253.58" x2="1343.32" y2="-5301.36" gradientTransform="matrix(1, 0, 0, -1, 0, -4611.39)" gradientUnits="userSpaceOnUse"><stop offset="0" stop-color="#f2faf6"/><stop offset="1" stop-color="#aeb4b6"/></linearGradient><linearGradient id="未命名的渐变_7-2" x1="-4911.41" y1="-5254.62" x2="-4835.33" y2="-5302.34" gradientTransform="translate(-3740.13 -4611.39) rotate(180)" xlink:href="#未命名的渐变_7"/><linearGradient id="未命名的渐变_9" x1="1126.9" y1="-5161.32" x2="1181.81" y2="-5202.7" gradientTransform="matrix(1, 0, 0, -1, 0, -4611.39)" gradientUnits="userSpaceOnUse"><stop offset="0" stop-color="#aeb4b6"/><stop offset="1" stop-color="#f2faf6"/></linearGradient><linearGradient id="未命名的渐变_9-2" x1="-5117.5" y1="-5161.92" x2="-5062.29" y2="-5203.52" gradientTransform="translate(-3807.47 -4611.39) rotate(180)" xlink:href="#未命名的渐变_9"/><linearGradient id="未命名的渐变_24" x1="277.21" y1="422.42" x2="90.57" y2="563.59" gradientTransform="translate(0 -20)" gradientUnits="userSpaceOnUse"><stop offset="0" stop-color="#1eb898"/><stop offset="0.16" stop-color="#1ec79c"/><stop offset="0.42" stop-color="#1ed9a2"/><stop offset="0.69" stop-color="#1ee4a5"/><stop offset="1" stop-color="#1ee7a6"/></linearGradient><linearGradient id="未命名的渐变_24-2" x1="1544.19" y1="423.95" x2="1462.9" y2="490.19" gradientTransform="matrix(1, 0, 0, -1, 0, 860.7)" xlink:href="#未命名的渐变_24"/><linearGradient id="未命名的渐变_24-3" x1="1495.75" y1="311.03" x2="1356.64" y2="424.38" xlink:href="#未命名的渐变_24"/></defs><g id="图层_2" data-name="图层 2"><g id="Layer_1" data-name="Layer 1"><path class="cls-1" d="M253.4,219.25,10.7,363.75A21.7,21.7,0,0,0,0,382.35v263.2a21.5,21.5,0,0,0,10.8,18.7l227.8,131.5a21.53,21.53,0,0,0,21.8-.1l242-144.5a21.49,21.49,0,0,0,10.6-18.6l.6-260.6a21.53,21.53,0,0,0-10.7-18.7l-227.6-134A21.48,21.48,0,0,0,253.4,219.25Z"/><path class="cls-2" d="M478.8,1.35l-115,64.5a9.62,9.62,0,0,0-5.1,8.3v117.4a9.77,9.77,0,0,0,5.1,8.4l107.9,58.7a11,11,0,0,0,10.3,0l114.7-64.5a9.52,9.52,0,0,0,5-8.3l.3-116.3a9.42,9.42,0,0,0-5.1-8.3L489.2,1.35A10.69,10.69,0,0,0,478.8,1.35Z"/><path class="cls-3" d="M1201.4,451.85l-145.9,86.9a12.89,12.89,0,0,0-6.4,11.2v158.3a13,13,0,0,0,6.5,11.3l136.9,79.1a13.05,13.05,0,0,0,13.1-.1l145.6-86.9a12.89,12.89,0,0,0,6.4-11.2l.4-156.7a12.89,12.89,0,0,0-6.4-11.2l-137-80.7A13,13,0,0,0,1201.4,451.85Z"/><path class="cls-4" d="M1448.9,45.85,1256.1,154a16.11,16.11,0,0,0-8.5,13.9v196.9a16,16,0,0,0,8.6,14l180.9,98.3a18,18,0,0,0,17.3-.1l192.2-108.1A16,16,0,0,0,1655,355l.5-195a16.06,16.06,0,0,0-8.5-14L1466.3,45.85A17.94,17.94,0,0,0,1448.9,45.85Z"/><polygon class="cls-5" points="1331 675.05 1230.1 572.75 1187.4 638.05 1318.3 697.85 1331 675.05"/><polygon class="cls-6" points="1106.8 674.85 1208.5 573.85 1251.2 639.15 1120.3 698.95 1106.8 674.85"/><polygon class="cls-7" points="1107.8 579.45 1106.5 560.75 1207.9 567.05 1180.2 623.15 1107.8 579.45"/><polygon class="cls-8" points="1328.6 580.65 1331 562.05 1228.5 567.85 1256.3 623.95 1328.6 580.65"/><path class="cls-9" d="M1319.2,698.55l11.5-6.6a2.88,2.88,0,0,0,1.6-2.6v-13.3a1.71,1.71,0,0,0-1.5-1.6,2.35,2.35,0,0,0-.8.2l-11.4,6.6a2.88,2.88,0,0,0-1.6,2.6v13.3a1.62,1.62,0,0,0,1.4,1.6A1.88,1.88,0,0,0,1319.2,698.55Z"/><path class="cls-9" d="M1119.2,698.55l-11.4-6.7a3.11,3.11,0,0,1-1.5-2.6v-13.2a1.71,1.71,0,0,1,1.5-1.6,2.35,2.35,0,0,1,.8.2l11.5,6.6a3.25,3.25,0,0,1,1.5,2.6v13.3a1.71,1.71,0,0,1-1.5,1.6A2.92,2.92,0,0,1,1119.2,698.55Z"/><path class="cls-9" d="M1319.2,586.05l11.5-6.6a2.88,2.88,0,0,0,1.6-2.6v-13.3a1.54,1.54,0,0,0-1.4-1.6h-.1a1.88,1.88,0,0,0-.8.2l-11.4,6.6a2.88,2.88,0,0,0-1.6,2.6v13.3a1.56,1.56,0,0,0,1.6,1.5A.66.66,0,0,0,1319.2,586.05Z"/><path class="cls-9" d="M1119.2,586.05l-11.4-6.6a3,3,0,0,1-1.5-2.6v-13.3a1.54,1.54,0,0,1,1.4-1.6h.1a2.35,2.35,0,0,1,.8.2l11.5,6.6a3,3,0,0,1,1.5,2.6v13.3a1.58,1.58,0,0,1-1.6,1.6A1.2,1.2,0,0,1,1119.2,586.05Z"/><path class="cls-10" d="M190.4,331.75,51.9,414.25a12.42,12.42,0,0,0-6,10.6v150.3a12.22,12.22,0,0,0,6.2,10.7l130,75.1a12.47,12.47,0,0,0,12.4,0l138.1-82.5a12.42,12.42,0,0,0,6-10.6l.4-148.8a12.59,12.59,0,0,0-6-10.7l-130-76.5A12.61,12.61,0,0,0,190.4,331.75Z"/><path class="cls-11" d="M150.5,501.35a1.37,1.37,0,0,0-1.9.6h0a1.45,1.45,0,0,0-.2.7v29.5a1.69,1.69,0,0,1-1.7,1.7h0a2.92,2.92,0,0,1-.9-.2l-11.9-6.8a3.45,3.45,0,0,1-1.7-2.9v-28.7a6.84,6.84,0,0,0-3.4-5.9l-11.8-6.8a34.71,34.71,0,0,1-17.6-30.4h0a24.45,24.45,0,0,1,24.5-24.4,24,24,0,0,1,12,3.2l12.8,7.3,4.8,2.6a1.27,1.27,0,0,0,1.2,0L220.9,409a3.36,3.36,0,0,1,4.5,1.6,3.19,3.19,0,0,1,.3,1.4v124.6a3.37,3.37,0,0,1-3.4,3.4,2.6,2.6,0,0,1-1.5-.4Z"/><path class="cls-12" d="M297.8,435.65l10.5-4.4a2.87,2.87,0,0,1,2.7.2l38.3,22.1a1.52,1.52,0,0,0,2.1-.6h0a1.85,1.85,0,0,0,.2-.7V401a3,3,0,0,0-1.5-2.6l-59.5-34.6a1.6,1.6,0,0,0-2.1.5,1.88,1.88,0,0,0-.2.8v51.4a3.28,3.28,0,0,0,1.5,2.7l4.3,2.5a3,3,0,0,1,1.5,2.6v9.9a1.44,1.44,0,0,0,1.6,1.5Q297.65,435.8,297.8,435.65Z"/><path class="cls-13" d="M120.4,323.15l-8.7-3.7a3.06,3.06,0,0,0-2.3.1L77.6,338a1.28,1.28,0,0,1-1.7-.5,1.42,1.42,0,0,1-.2-.6v-42.7A2.61,2.61,0,0,1,77,292l49.4-28.6a1.19,1.19,0,0,1,1.7.4h0a1.45,1.45,0,0,1,.2.7v42.8a2.61,2.61,0,0,1-1.3,2.2l-3.6,2.1a2.48,2.48,0,0,0-1.3,2.2v8.3a1.32,1.32,0,0,1-1.3,1.3A.52.52,0,0,0,120.4,323.15Z"/><path class="cls-10" d="M1451.5,189.75l-141.7,84.4a12.76,12.76,0,0,0-6.2,10.9v153.7a12.52,12.52,0,0,0,6.3,10.9l133,76.8a12.55,12.55,0,0,0,12.7,0l141.3-84.4a12.72,12.72,0,0,0,6.2-10.8l.4-152.2a12.55,12.55,0,0,0-6.2-10.9l-133-78.3A12.5,12.5,0,0,0,1451.5,189.75Z"/><ellipse class="cls-14" cx="1395.7" cy="411.65" rx="8.2" ry="9"/><ellipse class="cls-9" cx="1508.9" cy="268.95" rx="8.2" ry="9"/><ellipse class="cls-14" cx="1481.5" cy="237.05" rx="8.2" ry="9"/><ellipse class="cls-14" cx="1438.2" cy="451.65" rx="8.4" ry="9.3"/><ellipse class="cls-9" cx="1356" cy="416.65" rx="8.4" ry="9.3"/><path class="cls-15" d="M1543.6,428l-50.8-50.8a45.72,45.72,0,0,1-14.4,14.3l50.9,50.9Z"/><circle class="cls-16" cx="1438.9" cy="337.35" r="63"/><rect class="cls-12" x="1397.3" y="361.65" width="78.5" height="9.6"/><rect class="cls-12" x="1411.1" y="341.35" width="78.5" height="9.6"/><rect class="cls-12" x="1368.6" y="321.05" width="57.6" height="9.6"/><rect class="cls-12" x="1430.5" y="321.05" width="22.9" height="9.6"/><path class="cls-9" d="M506.1,169.65,466,146.55a2.48,2.48,0,0,1-1.3-2.2v-9.2a1.24,1.24,0,0,1,1.2-1.3,1.85,1.85,0,0,1,.7.2l40.1,23.1a2.48,2.48,0,0,1,1.3,2.2v9.2a1.24,1.24,0,0,1-1.2,1.3A1.45,1.45,0,0,1,506.1,169.65Z"/><path class="cls-14" d="M472.9,124.25l-17-10.1a2.4,2.4,0,0,1-1.2-2.2v-9.2a1.24,1.24,0,0,1,1.2-1.3,1.85,1.85,0,0,1,.7.2l17,10.1a2.51,2.51,0,0,1,1.2,2.2v9.2a1.24,1.24,0,0,1-1.2,1.3A1.45,1.45,0,0,1,472.9,124.25Z"/><path class="cls-14" d="M560,174.15l-77.2-44.8a2.7,2.7,0,0,1-1.3-2.2V118a1.24,1.24,0,0,1,1.2-1.3,1.85,1.85,0,0,1,.7.2l77.2,44.8a2.4,2.4,0,0,1,1.2,2.2v9.2a1.24,1.24,0,0,1-1.2,1.3C560.4,174.25,560.2,174.25,560,174.15Z"/><path class="cls-17" d="M422.8,121.05l-17-10.1a2.51,2.51,0,0,1-1.2-2.2v-9.2a1.24,1.24,0,0,1,1.2-1.3,1.85,1.85,0,0,1,.7.2l17,10.1a2.51,2.51,0,0,1,1.2,2.2V120a1.24,1.24,0,0,1-1.2,1.3A1.85,1.85,0,0,1,422.8,121.05Z"/><path class="cls-14" d="M412.8,171.65l-6.9-4.1a2.35,2.35,0,0,1-1.2-2.1v-9.2a1.24,1.24,0,0,1,1.2-1.3,1.85,1.85,0,0,1,.7.2l6.9,4.1a2.51,2.51,0,0,1,1.2,2.2v9.2a1.24,1.24,0,0,1-1.2,1.3C413.2,171.85,413,171.85,412.8,171.65Z"/><path class="cls-14" d="M501.3,194.25l-77.2-44.8a2.7,2.7,0,0,1-1.3-2.2v-9.2a1.24,1.24,0,0,1,1.2-1.3,1.85,1.85,0,0,1,.7.2l77.2,44.8a2.4,2.4,0,0,1,1.2,2.2v9.2a1.24,1.24,0,0,1-1.2,1.3A1.42,1.42,0,0,1,501.3,194.25Z"/></g></g></svg>