<svg id="Layer_1" data-name="Layer 1" xmlns="http://www.w3.org/2000/svg" xmlns:xlink="http://www.w3.org/1999/xlink" viewBox="0 0 376 610"><defs><style>.cls-1,.cls-2,.cls-3,.cls-4{opacity:0.5;}.cls-1{fill:url(#未命名的渐变_6);}.cls-2{fill:url(#未命名的渐变_8);}.cls-3{fill:url(#未命名的渐变_6-2);}.cls-4,.cls-5,.cls-6,.cls-7,.cls-8{isolation:isolate;}.cls-4{fill:url(#未命名的渐变_5);}.cls-5,.cls-6,.cls-7,.cls-8{opacity:0.2;}.cls-5{fill:url(#未命名的渐变_7);}.cls-6{fill:url(#未命名的渐变_7-2);}.cls-7{fill:url(#未命名的渐变_9);}.cls-8{fill:url(#未命名的渐变_9-2);}.cls-9{fill:#d9dbdc;}.cls-10{fill:#fff;}.cls-11{fill:url(#未命名的渐变_3);}.cls-12{fill:#53edbb;}.cls-13{fill:#d1faed;}.cls-14{fill:#eeeff0;}.cls-15{fill:url(#未命名的渐变_3-2);}.cls-16{fill:url(#未命名的渐变_3-3);}.cls-17{fill:#f9f9f9;}</style><linearGradient id="未命名的渐变_6" x1="158.25" y1="151.44" x2="-5.62" y2="352.65" gradientTransform="translate(0 -20)" gradientUnits="userSpaceOnUse"><stop offset="0.04" stop-color="#f9fbfb"/><stop offset="0.33" stop-color="#f6f8f8"/><stop offset="0.53" stop-color="#edf0f0"/><stop offset="0.7" stop-color="#dde1e2"/><stop offset="0.86" stop-color="#c7cccd"/><stop offset="1" stop-color="#aeb4b6"/></linearGradient><linearGradient id="未命名的渐变_8" x1="93.3" y1="22.93" x2="0.05" y2="137.43" gradientTransform="translate(0 -20)" gradientUnits="userSpaceOnUse"><stop offset="0.04" stop-color="#f9fbfb"/><stop offset="0.33" stop-color="#f6f8f8"/><stop offset="0.53" stop-color="#edf0f0"/><stop offset="0.7" stop-color="#e0e0e0"/><stop offset="0.86" stop-color="#dbdbdb"/><stop offset="1" stop-color="#d6d6d6"/></linearGradient><linearGradient id="未命名的渐变_6-2" x1="358.85" y1="419.96" x2="174.82" y2="645.93" xlink:href="#未命名的渐变_6"/><linearGradient id="未命名的渐变_5" x1="363.59" y1="289.87" x2="256.3" y2="421.62" gradientTransform="translate(0 -20)" gradientUnits="userSpaceOnUse"><stop offset="0" stop-color="#d1d1d1"/><stop offset="0.14" stop-color="#c7cccd"/><stop offset="0.3" stop-color="#dde1e2"/><stop offset="0.47" stop-color="#edf0f0"/><stop offset="0.67" stop-color="#f6f8f8"/><stop offset="0.96" stop-color="#f9fbfb"/></linearGradient><linearGradient id="未命名的渐变_7" x1="317.27" y1="-5406.98" x2="364.92" y2="-5436.92" gradientTransform="matrix(1, 0, 0, -1, 0, -4896.11)" gradientUnits="userSpaceOnUse"><stop offset="0" stop-color="#f2faf6"/><stop offset="1" stop-color="#aeb4b6"/></linearGradient><linearGradient id="未命名的渐变_7-2" x1="-7019.16" y1="-5407.63" x2="-6971.47" y2="-5437.54" gradientTransform="translate(-6762.06 -4896.11) rotate(180)" xlink:href="#未命名的渐变_7"/><linearGradient id="未命名的渐变_9" x1="229.28" y1="-5349.15" x2="263.7" y2="-5375.09" gradientTransform="matrix(1, 0, 0, -1, 0, -4896.11)" gradientUnits="userSpaceOnUse"><stop offset="0" stop-color="#aeb4b6"/><stop offset="1" stop-color="#f2faf6"/></linearGradient><linearGradient id="未命名的渐变_9-2" x1="-7173.46" y1="-5349.53" x2="-7138.85" y2="-5375.6" gradientTransform="translate(-6829.4 -4896.11) rotate(180)" xlink:href="#未命名的渐变_9"/><linearGradient id="未命名的渐变_3" x1="92.49" y1="205.45" x2="29.85" y2="252.83" gradientTransform="translate(0 -20)" gradientUnits="userSpaceOnUse"><stop offset="0" stop-color="#1eb898"/><stop offset="0.16" stop-color="#1ec79c"/><stop offset="0.42" stop-color="#1ed9a2"/><stop offset="0.69" stop-color="#1ee4a5"/><stop offset="1" stop-color="#1ee7a6"/></linearGradient><linearGradient id="未命名的渐变_3-2" x1="342.34" y1="197.9" x2="319.27" y2="216.69" gradientTransform="matrix(1, 0, 0, -1, 0, 575.98)" xlink:href="#未命名的渐变_3"/><linearGradient id="未命名的渐变_3-3" x1="328.59" y1="356.73" x2="289.12" y2="388.89" xlink:href="#未命名的渐变_3"/></defs><path class="cls-1" d="M84.5,124,3,172.47a7.27,7.27,0,0,0-3.59,6.25v88.33a7.22,7.22,0,0,0,3.62,6.28l76.46,44.14a7.26,7.26,0,0,0,7.32,0l81.22-48.5a7.22,7.22,0,0,0,3.56-6.24l.2-87.46a7.24,7.24,0,0,0-3.59-6.28L91.85,124A7.22,7.22,0,0,0,84.5,124Z"/><path class="cls-2" d="M51.32.56,3.76,27.23a4,4,0,0,0-2.11,3.43V79.21a4,4,0,0,0,2.11,3.47L48.38,107a4.53,4.53,0,0,0,4.26,0l47.43-26.67a3.93,3.93,0,0,0,2.07-3.43l.12-48.09a3.89,3.89,0,0,0-2.11-3.43L55.62.56A4.39,4.39,0,0,0,51.32.56Z"/><path class="cls-3" d="M276,391.57,184.53,446a8.08,8.08,0,0,0-4,7v99.22a8.17,8.17,0,0,0,4.07,7.08l85.81,49.58a8.17,8.17,0,0,0,8.21-.07l91.25-54.46a8.07,8.07,0,0,0,4-7l.25-98.21a8.07,8.07,0,0,0-4-7l-85.86-50.58A8.18,8.18,0,0,0,276,391.57Z"/><path class="cls-4" d="M315.3,267.15l-54.71,30.68a4.56,4.56,0,0,0-2.41,3.94v55.88a4.54,4.54,0,0,0,2.44,4L312,389.51a5.1,5.1,0,0,0,4.91,0l54.54-30.68a4.55,4.55,0,0,0,2.38-3.94l.14-55.34a4.53,4.53,0,0,0-2.41-4l-51.27-28.41A5.1,5.1,0,0,0,315.3,267.15Z"/><polygon class="cls-5" points="357.2 531.46 293.96 467.34 267.2 508.27 349.24 545.75 357.2 531.46"/><polygon class="cls-6" points="216.68 531.34 280.42 468.03 307.19 508.96 225.14 546.44 216.68 531.34"/><polygon class="cls-7" points="217.31 471.54 216.5 459.82 280.05 463.77 262.69 498.93 217.31 471.54"/><polygon class="cls-8" points="355.7 472.3 357.2 460.64 292.96 464.27 310.38 499.43 355.7 472.3"/><path class="cls-9" d="M349.8,546.19l7.21-4.14a1.8,1.8,0,0,0,1-1.63v-8.33a1.09,1.09,0,0,0-.94-1,1.6,1.6,0,0,0-.51.13l-7.14,4.14a1.79,1.79,0,0,0-1,1.63v8.33a1,1,0,0,0,.87,1A1.19,1.19,0,0,0,349.8,546.19Z"/><path class="cls-9" d="M224.46,546.19l-7.15-4.2a2,2,0,0,1-.94-1.63v-8.27a1.09,1.09,0,0,1,.94-1,1.54,1.54,0,0,1,.5.13l7.21,4.14A2,2,0,0,1,226,537v8.33a1.07,1.07,0,0,1-.94,1A1.81,1.81,0,0,1,224.46,546.19Z"/><path class="cls-9" d="M349.8,475.68l7.21-4.14a1.8,1.8,0,0,0,1-1.63v-8.33a1,1,0,0,0-.88-1h-.06a1.27,1.27,0,0,0-.51.13l-7.14,4.14a1.79,1.79,0,0,0-1,1.63v8.33a1,1,0,0,0,1,.94A.42.42,0,0,0,349.8,475.68Z"/><path class="cls-9" d="M224.46,475.68l-7.15-4.14a1.87,1.87,0,0,1-.94-1.63v-8.33a1,1,0,0,1,.88-1h.06a1.54,1.54,0,0,1,.5.13l7.21,4.14a1.87,1.87,0,0,1,.94,1.63v8.33a1,1,0,0,1-1,1A.84.84,0,0,1,224.46,475.68Z"/><path class="cls-10" d="M63.35,161.73,16.87,189.42a4.17,4.17,0,0,0-2,3.56v50.45A4.11,4.11,0,0,0,16.93,247l43.64,25.2a4.18,4.18,0,0,0,4.16,0l46.35-27.69a4.16,4.16,0,0,0,2-3.55l.14-49.95a4.24,4.24,0,0,0-2-3.59L67.58,161.77A4.21,4.21,0,0,0,63.35,161.73Z"/><path class="cls-11" d="M50,218.66a.46.46,0,0,0-.64.2h0a.48.48,0,0,0-.07.23V229a.56.56,0,0,1-.57.57h0a1.07,1.07,0,0,1-.3-.06l-4-2.29a1.14,1.14,0,0,1-.57-1v-9.63a2.3,2.3,0,0,0-1.14-2l-4-2.28a11.66,11.66,0,0,1-5.91-10.21h0A8.21,8.21,0,0,1,41,194a8,8,0,0,1,4,1.08l4.3,2.45,1.61.87a.41.41,0,0,0,.4,0l22.22-10.71a1.13,1.13,0,0,1,1.51.54,1,1,0,0,1,.1.47v41.82a1.13,1.13,0,0,1-1.14,1.14.9.9,0,0,1-.51-.13Z"/><path class="cls-12" d="M99.4,196.6l3.52-1.47a1,1,0,0,1,.91.07l12.85,7.41a.51.51,0,0,0,.71-.2h0a.75.75,0,0,0,.07-.23V185a1,1,0,0,0-.51-.87L97,172.47a.54.54,0,0,0-.7.17.57.57,0,0,0-.07.27v17.25a1.11,1.11,0,0,0,.5.91l1.45.84a1,1,0,0,1,.5.87v3.32a.48.48,0,0,0,.54.5C99.3,196.64,99.36,196.64,99.4,196.6Z"/><path class="cls-13" d="M39.86,158.85l-2.92-1.25a1,1,0,0,0-.77,0l-10.68,6.17a.43.43,0,0,1-.57-.16.58.58,0,0,1-.07-.21V149.11a.88.88,0,0,1,.44-.74l16.58-9.59a.39.39,0,0,1,.57.13h0a.52.52,0,0,1,.07.23v14.37a.88.88,0,0,1-.44.74l-1.21.7a.86.86,0,0,0-.43.74v2.79a.44.44,0,0,1-.44.43A.18.18,0,0,0,39.86,158.85Z"/><path class="cls-10" d="M316,308l-40.21,23.95a3.61,3.61,0,0,0-1.76,3.09v43.62a3.56,3.56,0,0,0,1.79,3.09l37.74,21.79a3.57,3.57,0,0,0,3.6,0l40.1-23.95a3.62,3.62,0,0,0,1.76-3.06l.11-43.19a3.54,3.54,0,0,0-1.76-3.09L319.67,308A3.55,3.55,0,0,0,316,308Z"/><ellipse class="cls-14" cx="300.2" cy="370.96" rx="2.33" ry="2.55"/><ellipse class="cls-9" cx="332.32" cy="330.46" rx="2.33" ry="2.55"/><ellipse class="cls-14" cx="324.55" cy="321.41" rx="2.33" ry="2.55"/><ellipse class="cls-14" cx="312.26" cy="382.31" rx="2.38" ry="2.64"/><ellipse class="cls-9" cx="288.94" cy="372.37" rx="2.38" ry="2.64"/><path class="cls-15" d="M342.17,375.58l-14.41-14.41a13,13,0,0,1-4.09,4.05l14.44,14.45Z"/><circle class="cls-16" cx="312.46" cy="349.87" r="17.88"/><rect class="cls-12" x="300.66" y="356.77" width="22.28" height="2.72"/><rect class="cls-12" x="304.57" y="351.01" width="22.28" height="2.72"/><rect class="cls-12" x="292.51" y="345.25" width="16.34" height="2.72"/><rect class="cls-12" x="310.08" y="345.25" width="6.5" height="2.72"/><path class="cls-9" d="M62.61,70.15,46,60.6a1,1,0,0,1-.53-.91v-3.8a.51.51,0,0,1,.49-.54.79.79,0,0,1,.29.08L62.85,65a1,1,0,0,1,.54.91V69.7a.51.51,0,0,1-.5.53A.58.58,0,0,1,62.61,70.15Z"/><path class="cls-14" d="M48.88,51.38l-7-4.18a1,1,0,0,1-.5-.91v-3.8a.52.52,0,0,1,.5-.54.84.84,0,0,1,.29.08l7,4.18a1,1,0,0,1,.49.91v3.8a.51.51,0,0,1-.49.54A.59.59,0,0,1,48.88,51.38Z"/><path class="cls-14" d="M84.89,72,53,53.49a1.13,1.13,0,0,1-.54-.91V48.77a.51.51,0,0,1,.5-.53.79.79,0,0,1,.29.08L85.14,66.84a1,1,0,0,1,.5.91v3.81a.51.51,0,0,1-.5.53C85.06,72.05,85,72.05,84.89,72Z"/><path class="cls-17" d="M28.16,50.05l-7-4.17a1,1,0,0,1-.5-.91V41.16a.51.51,0,0,1,.5-.53.79.79,0,0,1,.29.08l7,4.18a1,1,0,0,1,.5.91v3.8a.52.52,0,0,1-.5.54A.65.65,0,0,1,28.16,50.05Z"/><path class="cls-14" d="M24,71l-2.86-1.7a1,1,0,0,1-.49-.87v-3.8a.51.51,0,0,1,.49-.54.65.65,0,0,1,.29.09l2.85,1.69a1,1,0,0,1,.5.91v3.8a.52.52,0,0,1-.5.54C24.19,71.06,24.11,71.06,24,71Z"/><path class="cls-14" d="M60.62,80.32,28.7,61.8a1.13,1.13,0,0,1-.54-.91V57.08a.51.51,0,0,1,.5-.53.84.84,0,0,1,.29.08L60.87,75.15a1,1,0,0,1,.49.91v3.81a.51.51,0,0,1-.49.54A.63.63,0,0,1,60.62,80.32Z"/></svg>