<svg id="Layer_1" data-name="Layer 1" xmlns="http://www.w3.org/2000/svg" viewBox="0 0 640 256"><defs><style>.cls-1{fill:#003;}.cls-2{fill:#00e599;}.cls-3{fill:#00af92;}</style></defs><title>logo files</title><path class="cls-1" d="M334.8,106.3c4.2,3.7,6.3,9.2,6.3,16.3v36.9h-9.2V125.8c0-6-1.3-10.4-3.9-13.1s-6-4-10.3-4a19.8,19.8,0,0,0-8.7,2,16.1,16.1,0,0,0-6.6,6.6c-1.8,3-2.6,6.9-2.6,11.5v30.7h-9.3v-56L299,107l.2,3.8a17.5,17.5,0,0,1,8-7.7,24.8,24.8,0,0,1,11.4-2.5Q328.4,100.6,334.8,106.3Z"/><path class="cls-1" d="M406.8,134.1H363.3c.5,5.9,2.5,10.4,5.8,13.6s7.7,4.9,13,4.9a23.5,23.5,0,0,0,10.6-2.2,11.5,11.5,0,0,0,5.7-6.4l7.7,4.1a22.9,22.9,0,0,1-9.2,9.3c-3.8,2.2-8.8,3.3-14.8,3.3-8.7,0-15.5-2.7-20.5-8s-7.4-12.7-7.4-22.1,2.3-16.7,7.1-22,11.4-8,20.1-8a26.3,26.3,0,0,1,14,3.6,23.1,23.1,0,0,1,8.9,9.7,30.9,30.9,0,0,1,3,13.7A47.4,47.4,0,0,1,406.8,134.1Zm-37.7-20.9c-3.1,3-5,7.2-5.7,12.7h35c-.6-5.4-2.4-9.6-5.3-12.6s-6.8-4.6-11.7-4.6S372.2,110.2,369.1,113.2Z"/><path class="cls-1" d="M468.4,108.6c5,5.3,7.5,12.6,7.5,22s-2.5,16.8-7.5,22.1-11.8,8-20.5,8-15.5-2.7-20.5-8S420,140,420,130.6s2.5-16.7,7.4-22,11.8-8,20.5-8S463.5,103.3,468.4,108.6Zm-34.2,5.9c-3.3,3.9-5,9.3-5,16.1s1.7,12.3,5,16.2,7.9,5.9,13.7,5.9,10.5-2,13.8-5.9,4.9-9.3,4.9-16.2-1.6-12.2-4.9-16.1-7.9-5.9-13.8-5.9S437.5,110.5,434.2,114.5Z"/><polygon class="cls-2" points="165 89.5 165 169.8 217.2 188.5 217.2 107.5 273.5 86.8 222.4 68.5 165 89.5"/><polygon class="cls-3" points="221.4 110.5 221.4 153.8 273.5 172.4 273.5 91.2 221.4 110.5"/></svg>