<svg height="21" viewBox="0 0 21 21" width="21" xmlns="http://www.w3.org/2000/svg"><path d="m20.3085775 29.4082081c0 .109375-.0751949.1708983-.2255854.1845699s-.2255854-.0341794-.2255854-.1435544c0-.1093749.0683594-.1640621.2050777-.1640621.082031 0 .1435543.0136717.1845698.0410156.0410156.0273439.0615233.0546871.0615233.082031zm-1.2714813-.1640621c.0273439-.1093749.1093749-.1435543.2460931-.1025388.1367183.0410155.1982415.0957027.1845699.1640621s-.0478516.1162104-.1025388.1435543-.109375.0273439-.1640621 0c-.0546872-.0273439-.1025388-.0615233-.1435544-.1025388-.0410155-.0410155-.0478516-.0751949-.0205077-.1025388zm1.8046832-.0820311c.1367182 0 .2119137.0410156.2255854.1230466.0136716.0820311-.0478517.1503905-.1845699.2050777-.0546872 0-.1025388-.0068362-.1435543-.0205078-.0410156-.0136716-.0683595-.0615233-.0820311-.1435543-.0136716-.0820311.0478517-.1367183.1845699-.1640622zm2.7070248-15.7089469c1.8593703 0 3.5820225.4374992 5.1679564 1.3124969s2.8300714 2.064448 3.732413 3.5683509c.9296855 1.55859 1.3945279 3.2675705 1.3945279 5.1269409 0 2.2695256-.6357407 4.2997942-1.907222 6.0908058-1.2714814 1.7910115-2.9326102 3.0283128-4.9833866 3.7119052-.2187492.0546871-.3896475.0273439-.5126941-.0820311-.1230465-.1093749-.1845698-.2460931-.1845698-.4101553v-3.4453042c0-.8749977-.2324216-1.5039029-.697264-1.8867143 1.0117165-.1093749 1.7636677-.2460932 2.255854-.4101553.7656234-.273437 1.3535124-.6835923 1.7636677-1.2304658.4648424-.7109356.6972639-1.6816366.6972639-2.9121024 0-.5195302-.0957027-.970701-.2871087-1.3535124-.1367182-.2734371-.3964836-.6152329-.779295-1.0253882.109375-.273437.1777338-.6015613.2050777-.9843726.0273439-.6015613-.0683595-1.203122-.2871087-1.8046832-.2734371-.0820311-.6562485-.0273439-1.1484348.1640621-.3281242.1367182-.7109356.3281242-1.1484348.5742173l-.5332018.3691398c-.8476544-.2460932-1.715816-.3691398-2.604486-.3691398s-1.7431599.1230466-2.5634704.3691398l-.5332019-.3691398c-.4374992-.2460931-.8339822-.4374991-1.1894503-.5742173-.4921863-.191406-.8613261-.2460932-1.1074192-.1640621-.2460932.6015612-.3417959 1.2031219-.2871087 1.8046832 0 .3828113.0546872.6972639.1640621.9433571-.3281242.4101553-.5673812.7861311-.7177717 1.127927-.1503905.3417958-.2255854.7724589-.2255854 1.2919891 0 1.2304658.2187492 2.1874946.6562484 2.8710869.3828114.5742174.9570288.9980443 1.7226522 1.2714813.4921863.1640621 1.2304658.3007804 2.2148384.4101553-.3554681.3281242-.5742174.7929667-.6562484 1.3945279-.4648424.2187493-.9160132.3007804-1.3535124.2460932-.7109356-.0546872-1.2578097-.4238269-1.6406211-1.1074192-.1640621-.3007804-.3828114-.5468735-.6562484-.7382795-.191406-.109375-.3964837-.2050777-.6152329-.2871087l-.2871087-.0410155c-.3007804 0-.458007.0478516-.4716786.1435543s.0478517.1982415.1845699.3076165l.2050776.1640621c.191406.1093749.3828114.2871087.5742174.5332018.1640621.191406.3007803.4101553.4101553.6562484l.1640621.3281243c.1367182.4101552.3964836.7246078.779295.9433571.3281242.191406.7246078.3144526 1.1894503.3691397.3281242.0273439.6699201.0136717 1.0253882-.0410155l.4511708-.0410155.0410155 2.5019471c0 .1640622-.0615233.3007804-.1845699.4101553-.1230466.109375-.2939448.1367182-.5126941.0820311-2.0781202-.6835924-3.7597568-1.9208937-5.0449098-3.7119052-1.285153-1.7910116-1.9277298-3.8212802-1.9277298-6.0908058 0-1.8593704.4374992-3.5546793 1.3124969-5.0859254s2.0781202-2.7343687 3.6093664-3.6093664c1.5312461-.8749977 3.2402266-1.3124969 5.1269409-1.3124969zm-6.0702981 14.1503569c.0546872-.0546871.1230466-.0410155.2050777.0410155.082031.0820311.0957027.1503905.0410155.2050777-.0546872.0546871-.1230466.0410155-.2050776-.0410155-.0820311-.0820311-.0957027-.1503905-.0410156-.2050777zm-.4511708-.3281242c.0546872-.0546872.1230466-.0615233.2050777-.0205078.082031.0410156.1093749.0957027.082031.1640621-.0273439.0683595-.0888672.075195-.1845698.0205078-.0957027-.0546872-.1298828-.1093749-.1025389-.1640621zm1.3535124 1.4355434c.0273439-.0273438.0683595-.0341793.1230466-.0205077.0546872.0136716.1025388.0410155.1435544.082031.0410155.0410156.0683594.0888672.082031.1435544.0136717.0546871.0068361.0957027-.0205077.1230466-.0820311.082031-.1777338.0683594-.2871087-.0410156-.0546872-.0546871-.0820311-.1093749-.0820311-.1640621 0-.0546871.0136716-.0957027.0410155-.1230466zm-.4921863-.5742173c.0546872-.0273439.1025388-.0341794.1435544-.0205078.0410155.0136716.0751949.0478517.1025388.1025388.082031.109375.082031.191406 0 .2460932-.0273439.0273439-.0615233.0273439-.1025388 0-.0410156-.0273439-.0888672-.0546872-.1435544-.0820311-.0546871-.1367182-.0546871-.2187492 0-.2460931z" fill="#eef0f2" fill-rule="evenodd" transform="translate(-13 -13)"/></svg>