<svg height="107" viewBox="0 0 116 107" width="116" xmlns="http://www.w3.org/2000/svg"><g fill="none" fill-rule="evenodd"><path d="m33.4999213 51.5001037c-.8749988 0-1.5937462-.2812493-2.1562448-.843748-.5624987-.5624986-.843748-1.281246-.843748-2.1562448v-2.9999929c0-.8749989.2812493-1.5937462.843748-2.1562448.5624986-.5624987 1.281246-.843748 2.1562448-.843748h29.9999285c.8749989 0 1.5937462.2812493 2.1562449.843748.5624986.5624986.8437479 1.2812459.8437479 2.1562448v2.9999929c0 .8749988-.2812493 1.5937462-.8437479 2.1562448-.5624987.5624987-1.281246.843748-2.1562449.843748zm-2.9999928 14.9999642v-2.9999928c0-.8749989.2812493-1.5937462.843748-2.1562449.5624986-.5624986 1.281246-.8437479 2.1562448-.8437479h29.9999285c.8749989 0 1.5937462.2812493 2.1562449.8437479.5624986.5624987.8437479 1.281246.8437479 2.1562449v2.9999928c0 .8749989-.2812493 1.5937462-.8437479 2.1562449-.5624987.5624987-1.281246.843748-2.1562449.843748h-29.9999285c-.8749988 0-1.5937462-.2812493-2.1562448-.843748-.5624987-.5624987-.843748-1.281246-.843748-2.1562449zm17.9999571 22.687446c3.2499913 0 6.1874852-.9374978 8.8124789-2.8124933l39.1874066-28.3124325v39.9374047c0 2.4999932-.8749988 4.6249902-2.6249937 6.3749852s-3.8749917 2.624993-6.3749848 2.624993h-77.99981406c-2.49999308 0-4.62498992-.874998-6.3749848-2.624993-1.74999487-1.749995-2.62499374-3.874992-2.62499374-6.3749852v-39.9374047l39.1874066 28.3124325c2.6249937 1.8749955 5.5624877 2.8124933 8.812479 2.8124933zm44.6248936-47.6248865c2.2499946 1.7499949 3.3749919 4.1249902 3.3749919 7.124983v1.8749955l-17.9999571 13.1249688v-34.6874173h-59.9998569v34.6874173l-17.9999571-13.1249688v-1.8749955c0-2.9999928 1.12499732-5.3749881 3.37499195-7.124983l5.62498659-4.3124897v-8.2499803c0-2.4999931.87499886-4.62499 2.62499376-6.3749848 1.7499949-1.7499949 3.8749917-2.6249938 6.3749848-2.6249938h14.6249651l3.374992-2.6249937c2.4999931-1.9999962 4.4999892-3.374992 5.9999857-4.1249902 2.3749953-1.4999964 4.3749886-2.2499946 5.9999857-2.2499946 1.624997 0 3.6249904.7499982 5.9999857 2.2499946 1.4999964.8749989 3.4999926 2.2499946 5.9999856 4.1249902l3.374992 2.6249937h14.6249651c2.4999931 0 4.62499.8749989 6.3749848 2.6249938 1.7499949 1.7499948 2.6249938 3.8749917 2.6249938 6.3749848v8.2499803c1.7499948 1.3749958 3.6249904 2.8124933 5.6249866 4.3124897z" fill="#0b132b" opacity=".704567"/><circle cx="95" cy="21" fill="#95c93b" r="18"/><path d="m95 42c-11.5979797 0-21-9.4020203-21-21 0-11.59797975 9.4020203-21 21-21 11.59798 0 21 9.40202025 21 21 0 11.5979797-9.40202 21-21 21zm0-6c8.284271 0 15-6.7157288 15-15s-6.715729-15-15-15c-8.2842712 0-15 6.7157288-15 15s6.7157288 15 15 15z" fill="#eef0f2" fill-rule="nonzero"/><path d="m91.7968588 28.6484383-6.523422-6.4843595c-.1822914-.1822914-.2734368-.4166659-.2734368-.7031233 0-.2864575.0911454-.5208319.2734368-.7031233l1.4453091-1.4062467c.1822914-.2083326.4101553-.3124993.6835921-.3124993.2734369 0 .5143219.1041667.7226545.3124993l4.3749896 4.3749896 9.3749779-9.3749777c.208332-.2083326.449217-.3124992.722654-.3124992s.501301.1041666.683592.3124992l1.445309 1.4062467c.182292.1822914.273437.4166658.273437.7031233 0 .2864574-.091145.5208319-.273437.7031233l-11.5234096 11.4843476c-.1822914.2083327-.4166658.3124993-.7031233.3124993-.2864574 0-.5208319-.1041666-.7031233-.3124993z" fill="#fff"/></g></svg>