<svg height="12" viewBox="0 0 20 12" width="20" xmlns="http://www.w3.org/2000/svg"><path d="m801.024579 139.928552c0 .160715-.080357.341519-.200893.462054l-9.361618 9.361619c-.120536.120536-.30134.200893-.462054.200893-.160715 0-.341518-.080357-.462054-.200893l-9.361619-9.361619c-.120535-.120535-.200893-.301339-.200893-.462054 0-.160714.080358-.341518.200893-.462054l1.004466-1.004465c.120536-.120536.28125-.200893.462054-.200893.160714 0 .341518.080357.462054.200893l7.895099 7.895098 7.895098-7.895098c.120536-.120536.30134-.200893.462055-.200893.160714 0 .341518.080357.462054.200893l1.004465 1.004465c.120536.120536.200893.30134.200893.462054z" fill="#0b132b" fill-rule="evenodd" opacity=".202358" transform="translate(-781 -138)"/></svg>