<svg height="18" viewBox="0 0 22 18" width="22" xmlns="http://www.w3.org/2000/svg"><path d="m32.326127 19.3594039c.0273439.109375.0410155.2871087.0410155.5332019 0 1.9687453-.4785147 3.8691312-1.4355434 5.7011583-.9843727 1.9414014-2.365229 3.4863198-4.1425683 4.6347546-1.9414014 1.2851529-4.1699121 1.9277297-6.6855309 1.9277297-2.4062445 0-4.6074107-.6425768-6.6034999-1.9277297.3007803.0273438.6425768.0410155 1.0253882.0410155 1.9960892 0 3.7871001-.6152329 5.373034-1.8456987-.9570287 0-1.797847-.2802726-2.5224549-.8408183-.7246078-.5605458-1.2236297-1.2646453-1.4970667-2.1122997.273437.0273439.5332018.0410155.779295.0410155.3828114 0 .7656234-.0410155 1.1484348-.1230466-.9843727-.2187492-1.8046832-.7246078-2.4609317-1.5175745-.6562484-.7929666-.9843726-1.6953082-.9843726-2.7070248v-.082031c.6015612.3554681 1.2441374.5468735 1.9277298.5742174-.5742174-.4101553-1.0390599-.9296855-1.394528-1.5585901-.3554681-.6289045-.5332018-1.319333-.5332018-2.0712841s.2050776-1.4697228.6152329-2.1533152c1.0664037 1.3398408 2.3720644 2.4062445 3.9169828 3.1992112 1.5449184.7929666 3.192375 1.2304658 4.9423711 1.3124968-.0546872-.3281242-.0820311-.6562484-.0820311-.9843726 0-.7656234.191406-1.4833951.5742174-2.1533152s.9023416-1.1962864 1.55859-1.5790978c.6562485-.3828114 1.367184-.5742174 2.1328074-.5742174.6289046 0 1.2099581.1230466 1.7431599.3691398.5332019.2460931 1.0048805.5742173 1.4150357.9843726.9843727-.191406 1.9003859-.5332018 2.7480404-1.0253882-.3281243 1.0117166-.9570288 1.8046832-1.8867143 2.3789006.8203105-.1093749 1.6406211-.3417958 2.4609316-.697264-.6015612.8749978-1.3261685 1.6269495-2.1738229 2.255854z" fill="#eef0f2" fill-rule="evenodd" transform="translate(-13 -15)"/></svg>