<svg height="31" viewBox="0 0 30 31" width="30" xmlns="http://www.w3.org/2000/svg"><path d="m53.5714531 46.4285564c0-4.4107195-3.58929-8.0000095-8.0000095-8.0000095-4.4107196 0-8.0000096 3.58929-8.0000096 8.0000095 0 4.4107196 3.58929 8.0000096 8.0000096 8.0000096 4.4107195 0 8.0000095-3.58929 8.0000095-8.0000096zm9.142868 14.8571606c0 1.2500015-1.0357155 2.285717-2.285717 2.285717-.6071436 0-1.19643-.2500003-1.6071447-.6785722l-6.1250073-6.1071502c-2.0892883 1.4464303-4.5892912 2.2142884-7.1250085 2.2142884-6.9464369 0-12.5714436-5.6250067-12.5714436-12.5714436 0-6.9464368 5.6250067-12.5714435 12.5714436-12.5714435 6.9464368 0 12.5714435 5.6250067 12.5714435 12.5714435 0 2.5357174-.767858 5.0357203-2.2142883 7.1250085l6.1250073 6.1250073c.4107147.4107148.660715 1.0000012.660715 1.6071448z" fill="#f3f8f2" fill-rule="evenodd" transform="translate(-33 -33)"/></svg>