<svg height="69" viewBox="0 0 74 69" width="74" xmlns="http://www.w3.org/2000/svg" xmlns:xlink="http://www.w3.org/1999/xlink"><defs><path id="a" d="m24 0 20.7846097 12v24l-20.7846097 12-20.78460969-12v-24z"/><filter id="b" height="187.5%" width="174.1%" x="-37.1%" y="-43.8%"><feOffset dx="0" dy="0" in="SourceAlpha" result="shadowOffsetOuter1"/><feGaussianBlur in="shadowOffsetOuter1" result="shadowBlurOuter1" stdDeviation="7"/><feColorMatrix in="shadowBlurOuter1" type="matrix" values="0 0 0 0 0   0 0 0 0 0   0 0 0 0 0  0 0 0 0.27 0"/></filter></defs><g fill="none" fill-rule="evenodd" transform="translate(13 11)"><g transform="matrix(0 1 -1 0 48 0)"><use fill="#000" filter="url(#b)" xlink:href="#a"/><use fill="#4aad3e" fill-rule="evenodd" xlink:href="#a"/></g><path d="m32.3839493 28.1339252c0 .3348218-.1339287.6696436-.3750005.9107153l-1.8214307 1.8214308c-.2410717.2410717-.5758935.3750004-.9107154.3750004-.3348218 0-.6696436-.1339287-.9107153-.3750004l-3.9375047-3.9375047-3.9375047 3.9375047c-.2410717.2410717-.5758936.3750004-.9107154.3750004s-.6696437-.1339287-.9107154-.3750004l-1.8214307-1.8214308c-.2410717-.2410717-.3750005-.5758935-.3750005-.9107153 0-.3348219.1339288-.6696437.3750005-.9107154l3.9375047-3.9375047-3.9375047-3.9375047c-.2410717-.2410717-.3750005-.5758935-.3750005-.9107154 0-.3348218.1339288-.6696436.3750005-.9107153l1.8214307-1.8214308c.2410717-.2410717.5758936-.3750004.9107154-.3750004s.6696437.1339287.9107154.3750004l3.9375047 3.9375047 3.9375047-3.9375047c.2410717-.2410717.5758935-.3750004.9107153-.3750004.3348219 0 .6696437.1339287.9107154.3750004l1.8214307 1.8214308c.2410718.2410717.3750005.5758935.3750005.9107153 0 .3348219-.1339287.6696437-.3750005.9107154l-3.9375046 3.9375047 3.9375046 3.9375047c.2410718.2410717.3750005.5758935.3750005.9107154z" fill="#fff"/></g></svg>