<svg height="17" viewBox="0 0 17 17" width="17" xmlns="http://www.w3.org/2000/svg"><path d="m32.3839493 28.1339252c0 .3348218-.1339287.6696436-.3750005.9107153l-1.8214307 1.8214308c-.2410717.2410717-.5758935.3750004-.9107154.3750004-.3348218 0-.6696436-.1339287-.9107153-.3750004l-3.9375047-3.9375047-3.9375047 3.9375047c-.2410717.2410717-.5758936.3750004-.9107154.3750004s-.6696437-.1339287-.9107154-.3750004l-1.8214307-1.8214308c-.2410717-.2410717-.3750005-.5758935-.3750005-.9107153 0-.3348219.1339288-.6696437.3750005-.9107154l3.9375047-3.9375047-3.9375047-3.9375047c-.2410717-.2410717-.3750005-.5758935-.3750005-.9107154 0-.3348218.1339288-.6696436.3750005-.9107153l1.8214307-1.8214308c.2410717-.2410717.5758936-.3750004.9107154-.3750004s.6696437.1339287.9107154.3750004l3.9375047 3.9375047 3.9375047-3.9375047c.2410717-.2410717.5758935-.3750004.9107153-.3750004.3348219 0 .6696437.1339287.9107154.3750004l1.8214307 1.8214308c.2410718.2410717.3750005.5758935.3750005.9107153 0 .3348219-.1339287.6696437-.3750005.9107154l-3.9375046 3.9375047 3.9375046 3.9375047c.2410718.2410717.3750005.5758935.3750005.9107154z" fill="#fff" fill-rule="evenodd" transform="translate(-16 -15)"/></svg>