<svg height="17" viewBox="0 0 24 17" width="24" xmlns="http://www.w3.org/2000/svg"><path d="m34.55854 18.2109692c.191406.7382795.3281242 1.8593703.4101552 3.3632732l.0410156 2.0507764-.0410156 2.0507763c-.082031 1.5312462-.2187492 2.6660093-.4101552 3.4042888-.1367182.4648424-.3828114.8749977-.7382795 1.2304658s-.779295.6015613-1.2714814.7382795c-.7109356.191406-2.3789005.3281242-5.0038943.4101553l-3.732413.0410155-3.7324129-.0410155c-2.6249938-.0820311-4.2929588-.2187493-5.0038944-.4101553-.4921863-.1367182-.9160132-.3828114-1.2714813-.7382795s-.6015613-.7656234-.7382795-1.2304658c-.191406-.7382795-.3281242-1.8730426-.4101553-3.4042888l-.0410155-2.0507763c0-.6015613.0136716-1.285153.0410155-2.0507764.0820311-1.5039029.2187493-2.6249937.4101553-3.3632732.1367182-.4921863.3828114-.9160132.7382795-1.2714814.3554681-.3554681.779295-.6015612 1.2714813-.7382794.7109356-.1914061 2.3789006-.3281243 5.0038944-.4101553l3.7324129-.0410155 3.732413.0410155c2.6249938.082031 4.2929587.2187492 5.0038943.4101553.4921864.1367182.9160133.3828113 1.2714814.7382794.3554681.3554682.6015613.7792951.7382795 1.2714814zm-13.0429377 8.7773228 5.8652204-3.3632732-5.8652204-3.3222577z" fill="#eef0f2" fill-rule="evenodd" transform="translate(-12 -15)"/></svg>