<svg height="14" viewBox="0 0 10 14" width="10" xmlns="http://www.w3.org/2000/svg"><path d="m1.09374739 15.4687656 6.06248555-6.06248557c.14583314-.14583315.32291574-.21874948.53124873-.21874948.208333 0 .38541559.07291633.53124873.21874948l.68749837.68749837c.14583314.1458331.22395795.3229157.23437444.5312487.01041648.208333-.05729137.3854156-.20312452.5312488l-4.84373845 4.8437384 4.84373845 4.8437385c.14583315.1458331.213541.3229157.20312452.5312487-.01041649.208333-.0885413.3854156-.23437444.5312487l-.68749837.6874984c-.14583314.1458331-.32291573.2187495-.53124873.2187495-.20833299 0-.38541559-.0729164-.53124873-.2187495l-6.06248555-6.0624856c-.16666611-.1458331-.2499994-.3229157-.2499994-.5312487s.08333329-.3854156.2499994-.5312487z" fill="#fff" fill-rule="evenodd" transform="matrix(-1 0 0 1 9.985392 -9)"/></svg>