<svg height="17" viewBox="0 0 20 17" width="20" xmlns="http://www.w3.org/2000/svg"><path d="m16.453118 18.9492487c0-.2460932-.0957027-.4648425-.2871087-.6562485l-1.8456988-2.2148384v-.3281242h5.7831894l4.4296769 9.7616954 3.8964751-9.7616954h5.4960807v.3281242l-1.5996056 1.5175745c-.1367182.1093749-.191406.2597648-.1640621.4511708v11.1562234c-.0273439.191406.0273439.3417958.1640621.4511708l1.55859 1.5175745v.3281242h-7.7929501v-.3281242l1.5996055-1.5585901c.0820311-.082031.1298827-.1435543.1435544-.1845698.0136716-.0410156.0205077-.1298827.0205077-.266601v-9.0234159l-4.4296769 11.3202855h-.6152329l-5.208972-11.3202855v7.5878725c-.0273439.3281242.0683594.6152329.2871087.8613261l2.0917919 2.5429627v.3281242h-5.9062359v-.3281242l2.0917919-2.5429627c.2460931-.2460932.3417958-.5332019.2871087-.8613261z" fill="#eef0f2" fill-rule="evenodd" transform="translate(-14 -15)"/></svg>