<svg height="33" viewBox="0 0 26 33" width="26" xmlns="http://www.w3.org/2000/svg"><path d="m30.4285851 16.7142544v11.428585c0 1.4464303-.9285726 2.7500033-2.2857171 3.2321467v13.9107309c0 1.2500015-1.0357155 2.285717-2.285717 2.285717h-2.285717c-1.2500015 0-2.285717-1.0357155-2.285717-2.285717v-13.9107309c-1.3571445-.4821434-2.285717-1.7857164-2.285717-3.2321467v-11.428585c0-.6250008.5178578-1.1428585 1.1428585-1.1428585.6250008 0 1.1428585.5178577 1.1428585 1.1428585v7.4285803c0 .6250007.5178578 1.1428585 1.1428585 1.1428585.6250008 0 1.1428585-.5178578 1.1428585-1.1428585v-7.4285803c0-.6250008.5178578-1.1428585 1.1428585-1.1428585.6250008 0 1.1428585.5178577 1.1428585 1.1428585v7.4285803c0 .6250007.5178578 1.1428585 1.1428585 1.1428585.6250008 0 1.1428585-.5178578 1.1428585-1.1428585v-7.4285803c0-.6250008.5178578-1.1428585 1.1428585-1.1428585.6250008 0 1.1428586.5178577 1.1428586 1.1428585zm13.714302 0v28.5714626c0 1.2500015-1.0357155 2.285717-2.285717 2.285717h-2.285717c-1.2500015 0-2.285717-1.0357155-2.285717-2.285717v-9.142868h-4.0000048c-.3035718 0-.5714292-.2678575-.5714292-.5714293v-14.2857313c0-3.1428609 2.5714316-5.7142925 5.7142925-5.7142925h4.571434c.6250008 0 1.1428585.5178577 1.1428585 1.1428585z" fill="#f3f8f2" fill-rule="evenodd" transform="translate(-19 -15)"/></svg>