<svg height="23" viewBox="0 0 28 23" width="28" xmlns="http://www.w3.org/2000/svg"><path d="m27.1015027 70.8125386c.0364585.1458333.0546873.3828116.0546873.7109358 0 2.6249937-.6380196 5.1588416-1.9140579 7.6015444-1.3124969 2.5885352-3.1536386 4.6484264-5.5234243 6.1796727-2.5885353 1.7135373-5.5598829 2.5703064-8.9140413 2.5703064-3.20832595 0-6.14321423-.8567691-8.8046665-2.5703064.40104043.0364586.85676907.0546874 1.36718424.0546874 2.66145227 0 5.04946685-.8203105 7.16404546-2.4609316-1.27603839 0-2.39712946-.3736968-3.36327327-1.1210911s-1.63150625-1.6861936-1.99608899-2.8163995c.36458274.0364585.7109358.0546873 1.03906002.0546873.51041517 0 1.02083118-.0546873 1.53124635-.1640621-1.31249687-.2916657-2.40624426-.9661438-3.28124218-2.0234326-.87499791-1.0572889-1.31249687-2.260411-1.31249687-3.6093664v-.1093748c.8020817.4739575 1.65884994.7291647 2.57030637.7656232-.76562317-.5468737-1.38541308-1.2395807-1.85937056-2.0781201-.47395748-.8385393-.71093581-1.7591106-.71093581-2.7617121s.27343685-1.9596305.82031055-2.8710869c1.42187161 1.7864543 3.16275259 3.2083259 5.22264379 4.2656148s4.2565 1.6406211 6.589828 1.7499958c-.0729162-.4374989-.1093747-.8749979-.1093747-1.3124968 0-1.0208312.255208-1.9778602.7656232-2.8710869.5104151-.8932268 1.2031221-1.5950486 2.07812-2.1054638.8749979-.5104151 1.8229121-.7656231 2.8437432-.7656231.8385394 0 1.6132774.1640621 2.3242133.4921863.7109358.3281242 1.3398405.7656232 1.8867142 1.3124969 1.3124969-.2552081 2.5338479-.7109359 3.6640538-1.3671843-.437499 1.3489554-1.2760384 2.4062443-2.515619 3.1718674 1.0937474-.1458332 2.1874948-.4557278 3.2812421-.9296852-.8020817 1.1666636-1.7682246 2.1692659-2.8984305 3.0078053z" fill="#00aced" fill-rule="evenodd" transform="translate(-2 -65)"/></svg>