<svg height="29" viewBox="0 0 30 29" width="30" xmlns="http://www.w3.org/2000/svg"><path d="m47.7143211 27.1249811c0 .3214289-.2321431.6250007-.4642862.8571439l-6.4821506 6.3214361 1.5357161 8.928582c.0178572.1250002.0178572.2321432.0178572.3571433 0 .4642863-.214286.8928582-.7321438.8928582-.2500003 0-.5000006-.0892858-.7142865-.2142859l-8.0178667-4.2142908-8.0178667 4.2142908c-.2321432.1250001-.4642863.2142859-.7142866.2142859-.5178578 0-.7500009-.4285719-.7500009-.8928582 0-.1250001.0178572-.2321431.0357143-.3571433l1.5357162-8.928582-6.5000078-6.3214361c-.214286-.2321432-.4464291-.535715-.4464291-.8571439 0-.5357149.5535721-.7500009 1.0000012-.8214296l8.9642964-1.303573 4.0178619-8.1250096c.1607145-.3392862.4642863-.7321438.8750011-.7321438.4107147 0 .7142865.3928576.875001.7321438l4.0178619 8.1250096 8.9642964 1.303573c.428572.0714287 1.0000012.2857147 1.0000012.8214296z" fill="#f3f8f2" fill-rule="evenodd" transform="translate(-18 -16)"/></svg>