<svg height="26" viewBox="0 0 34 26" width="34" xmlns="http://www.w3.org/2000/svg"><path d="m44.7143211 26.9999809c0-1.8928594-1.5357161-3.4285755-3.4285755-3.4285755h-1.1428585v6.857151h1.1428585c1.8928594 0 3.4285755-1.5357161 3.4285755-3.4285755zm-29.7143211 13.7143021h32.0000381c0 2.5178601-2.0535738 4.571434-4.571434 4.571434h-22.8571701c-2.5178601 0-4.571434-2.0535739-4.571434-4.571434zm33.1428967-13.7143021c0 3.7857188-3.0714323 6.8571511-6.8571511 6.8571511h-1.1428585v.5714292c0 2.1964312-1.8035736 4.0000048-4.0000048 4.0000048h-12.5714435c-2.1964312 0-4.0000048-1.8035736-4.0000048-4.0000048v-13.1428728c0-.6250007.5178578-1.1428585 1.1428585-1.1428585h20.5714531c3.7857188 0 6.8571511 3.0714322 6.8571511 6.857151z" fill="#f3f8f2" fill-rule="evenodd" transform="translate(-15 -20)"/></svg>