<svg id="Layer_1" data-name="Layer 1" xmlns="http://www.w3.org/2000/svg" xmlns:xlink="http://www.w3.org/1999/xlink" viewBox="0 0 1440 525"><defs><style>.cls-1{fill:url(#linear-gradient);}.cls-2{fill:#02e49b;}.cls-3{fill:url(#linear-gradient-2);}.cls-4{fill:url(#linear-gradient-3);}.cls-5{fill:#d1faed;}.cls-6{fill:url(#linear-gradient-4);}.cls-7{fill:url(#linear-gradient-5);}.cls-8{fill:url(#linear-gradient-6);}.cls-9{fill:url(#linear-gradient-7);}.cls-10{fill:url(#linear-gradient-8);}.cls-11{fill:url(#linear-gradient-9);}.cls-12{fill:url(#linear-gradient-10);}.cls-13{fill:url(#linear-gradient-11);}.cls-14{fill:url(#linear-gradient-12);}.cls-15{fill:#9ff5d9;}.cls-16{fill:url(#linear-gradient-13);}</style><linearGradient id="linear-gradient" x1="443.02" y1="344.11" x2="320.54" y2="239.36" gradientUnits="userSpaceOnUse"><stop offset="0" stop-color="#d9dbdc" stop-opacity="0"/><stop offset="1" stop-color="#eeeff0"/></linearGradient><linearGradient id="linear-gradient-2" x1="147.63" y1="310.81" x2="73.29" y2="373.32" gradientUnits="userSpaceOnUse"><stop offset="0.18" stop-color="#d9dbdc" stop-opacity="0"/><stop offset="1" stop-color="#eeeff0"/></linearGradient><linearGradient id="linear-gradient-3" x1="160.22" y1="299.62" x2="9.86" y2="466.87" gradientUnits="userSpaceOnUse"><stop offset="0" stop-color="#aeb4b6"/><stop offset="0.01" stop-color="#afb5b7"/><stop offset="0.39" stop-color="#d7dbdc"/><stop offset="0.69" stop-color="#f0f2f3"/><stop offset="0.87" stop-color="#f9fbfb"/></linearGradient><linearGradient id="linear-gradient-4" x1="464.89" y1="419.49" x2="464.89" y2="478.61" gradientUnits="userSpaceOnUse"><stop offset="0" stop-color="#eeeff0"/><stop offset="0.12" stop-color="#e9eaeb" stop-opacity="0.75"/><stop offset="0.24" stop-color="#e4e5e6" stop-opacity="0.52"/><stop offset="0.36" stop-color="#e0e2e3" stop-opacity="0.34"/><stop offset="0.47" stop-color="#dddfe0" stop-opacity="0.19"/><stop offset="0.57" stop-color="#dbddde" stop-opacity="0.08"/><stop offset="0.67" stop-color="#d9dbdc" stop-opacity="0.02"/><stop offset="0.75" stop-color="#d9dbdc" stop-opacity="0"/></linearGradient><linearGradient id="linear-gradient-5" x1="421.66" y1="377.75" x2="113.35" y2="438.56" gradientTransform="translate(705.64 233.54) rotate(100.44)" gradientUnits="userSpaceOnUse"><stop offset="0" stop-color="#d9dbdc" stop-opacity="0"/><stop offset="0.15" stop-color="#d9dbdc" stop-opacity="0.01"/><stop offset="0.28" stop-color="#dadcdd" stop-opacity="0.06"/><stop offset="0.4" stop-color="#dcdedf" stop-opacity="0.14"/><stop offset="0.52" stop-color="#dee0e1" stop-opacity="0.25"/><stop offset="0.65" stop-color="#e1e3e4" stop-opacity="0.38"/><stop offset="0.76" stop-color="#e5e6e7" stop-opacity="0.56"/><stop offset="0.88" stop-color="#e9eaeb" stop-opacity="0.76"/><stop offset="0.99" stop-color="#eeeff0" stop-opacity="0.99"/><stop offset="1" stop-color="#eeeff0"/></linearGradient><linearGradient id="linear-gradient-6" x1="1307.23" y1="229.67" x2="1134.6" y2="375.04" gradientTransform="translate(73.77 -292.12) rotate(15)" gradientUnits="userSpaceOnUse"><stop offset="0" stop-color="#eeeff0"/><stop offset="0.82" stop-color="#d9dbdc" stop-opacity="0"/></linearGradient><linearGradient id="linear-gradient-7" x1="1457.22" y1="476.45" x2="1334.67" y2="371.78" gradientUnits="userSpaceOnUse"><stop offset="0" stop-color="#eeeff0"/><stop offset="1" stop-color="#d9dbdc" stop-opacity="0"/></linearGradient><linearGradient id="linear-gradient-8" x1="1198.14" y1="36.74" x2="1024.8" y2="182.71" gradientTransform="matrix(0.97, 0.26, -0.26, 0.97, 28.85, -271.54)" xlink:href="#linear-gradient-6"/><linearGradient id="linear-gradient-9" x1="339.94" y1="87.7" x2="186.77" y2="275.78" gradientUnits="userSpaceOnUse"><stop offset="0.2" stop-color="#f9fbfb"/><stop offset="0.49" stop-color="#f7f9f9"/><stop offset="0.65" stop-color="#eff1f2"/><stop offset="0.77" stop-color="#e1e5e5"/><stop offset="0.88" stop-color="#ced2d4"/><stop offset="0.98" stop-color="#b6bbbd"/><stop offset="1" stop-color="#aeb4b6"/></linearGradient><linearGradient id="linear-gradient-10" x1="1645.65" y1="341.45" x2="1566.59" y2="273.93" gradientTransform="matrix(-1, 0, 0, 1, 2123.42, 0)" xlink:href="#linear-gradient-7"/><linearGradient id="linear-gradient-11" x1="-63.21" y1="160.44" x2="56.13" y2="62.42" gradientUnits="userSpaceOnUse"><stop offset="0.23" stop-color="#f9fbfb"/><stop offset="0.4" stop-color="#f5f7f7"/><stop offset="0.58" stop-color="#e9ecec"/><stop offset="0.77" stop-color="#d4d8d9"/><stop offset="0.95" stop-color="#b8bebf"/><stop offset="1" stop-color="#aeb4b6"/></linearGradient><linearGradient id="linear-gradient-12" x1="1253.27" y1="42.33" x2="891.7" y2="113.55" gradientTransform="matrix(-0.18, -0.98, -0.98, 0.18, 1453.23, 1107.95)" gradientUnits="userSpaceOnUse"><stop offset="0.44" stop-color="#eeeff0"/><stop offset="0.44" stop-color="#eeeff0" stop-opacity="0.99"/><stop offset="0.51" stop-color="#e9eaeb" stop-opacity="0.76"/><stop offset="0.57" stop-color="#e5e6e7" stop-opacity="0.56"/><stop offset="0.64" stop-color="#e1e3e4" stop-opacity="0.38"/><stop offset="0.71" stop-color="#dee0e1" stop-opacity="0.25"/><stop offset="0.77" stop-color="#dcdedf" stop-opacity="0.14"/><stop offset="0.84" stop-color="#dadcdd" stop-opacity="0.06"/><stop offset="0.92" stop-color="#d9dbdc" stop-opacity="0.01"/><stop offset="1" stop-color="#d9dbdc" stop-opacity="0"/></linearGradient><linearGradient id="linear-gradient-13" x1="1217.17" y1="135.25" x2="1107.92" y2="20.38" gradientUnits="userSpaceOnUse"><stop offset="0" stop-color="#aeb4b6"/><stop offset="0.11" stop-color="#c2c7c8"/><stop offset="0.27" stop-color="#dadede"/><stop offset="0.45" stop-color="#ebeeee"/><stop offset="0.64" stop-color="#f6f8f8"/><stop offset="0.87" stop-color="#f9fbfb"/></linearGradient></defs><title>Banner_About_DT</title><polygon class="cls-1" points="435 326.8 423.17 335.73 308.42 239.44 320.25 230.51 435 326.8"/><path class="cls-2" d="M155.82,262.55l-33.28,19.82a3,3,0,0,0-1.46,2.55V321a3,3,0,0,0,1.49,2.57l31.22,18a3,3,0,0,0,3,0L190,321.78a3,3,0,0,0,1.46-2.54l.08-35.74a2.94,2.94,0,0,0-1.46-2.56l-31.22-18.39A3,3,0,0,0,155.82,262.55Z"/><polygon class="cls-3" points="64.33 370.84 76.16 379.77 135.33 331.17 122.02 323.48 64.33 370.84"/><path class="cls-4" d="M29.67,353.3l-76.13,45.34a6.78,6.78,0,0,0-3.34,5.84v82.58a6.77,6.77,0,0,0,3.39,5.87L25,534.18a6.78,6.78,0,0,0,6.84,0l75.93-45.33a6.76,6.76,0,0,0,3.33-5.82l.2-81.76a6.78,6.78,0,0,0-3.34-5.86L36.55,353.3A6.78,6.78,0,0,0,29.67,353.3Z"/><path class="cls-5" d="M719.46,16.4,686.19,36.21a3,3,0,0,0-1.47,2.56V74.86a3,3,0,0,0,1.49,2.57l31.22,18a3,3,0,0,0,3,0l33.19-19.81a3,3,0,0,0,1.46-2.55l.09-35.73a3,3,0,0,0-1.46-2.56L722.47,16.4A3,3,0,0,0,719.46,16.4Z"/><rect class="cls-6" x="457.28" y="419.49" width="15.2" height="57.01"/><rect class="cls-7" x="247.79" y="245.25" width="15.63" height="330.51" transform="translate(-101.77 736.28) rotate(-100.44)"/><polygon class="cls-8" points="1057.51 360.35 1079.73 366.31 1233.69 298.88 1222.82 288 1057.51 360.35"/><path class="cls-2" d="M1048.9,331.32l-33.28,19.81a3,3,0,0,0-1.46,2.56v36.09a3,3,0,0,0,1.48,2.57l31.23,18a3,3,0,0,0,3,0l33.19-19.81a3,3,0,0,0,1.46-2.55l.08-35.73a3,3,0,0,0-1.46-2.56l-31.23-18.39A2.93,2.93,0,0,0,1048.9,331.32Z"/><polygon class="cls-9" points="1449.15 459.18 1437.32 468.11 1322.58 371.82 1334.41 362.9 1449.15 459.18"/><path class="cls-5" d="M1286.2,211.65,1210.08,257a6.78,6.78,0,0,0-3.34,5.84v82.58a6.77,6.77,0,0,0,3.39,5.87l71.44,41.24a6.75,6.75,0,0,0,6.84,0l75.93-45.33a6.77,6.77,0,0,0,3.33-5.82l.2-81.76a6.8,6.8,0,0,0-3.34-5.86l-71.45-42.07A6.78,6.78,0,0,0,1286.2,211.65Z"/><polygon class="cls-10" points="956.27 166.75 978.49 172.71 1133.15 104.97 1122.28 94.1 956.27 166.75"/><path class="cls-11" d="M271,80.72l-76.12,45.33a6.8,6.8,0,0,0-3.35,5.85v82.57a6.78,6.78,0,0,0,3.4,5.87l71.44,41.25a6.78,6.78,0,0,0,6.83,0l75.93-45.33a6.78,6.78,0,0,0,3.34-5.83l.2-81.75a6.8,6.8,0,0,0-3.34-5.86L277.86,80.72A6.78,6.78,0,0,0,271,80.72Z"/><polygon class="cls-12" points="480.82 327.8 492.65 336.73 566.77 276.48 554.94 267.55 480.82 327.8"/><path class="cls-5" d="M464.16,310.71l-50.63,30.15a4.5,4.5,0,0,0-2.22,3.88v54.92a4.5,4.5,0,0,0,2.25,3.9L461.07,431a4.49,4.49,0,0,0,4.55,0l50.5-30.14a4.5,4.5,0,0,0,2.21-3.88l.14-54.37a4.54,4.54,0,0,0-2.23-3.9l-47.51-28A4.51,4.51,0,0,0,464.16,310.71Z"/><path class="cls-13" d="M1.24,67.63-32,87.44A3,3,0,0,0-33.5,90v36.09A3,3,0,0,0-32,128.66l31.22,18a3,3,0,0,0,3,0l33.19-19.81a3,3,0,0,0,1.46-2.55l.08-35.74A3,3,0,0,0,35.47,86L4.25,67.63A3,3,0,0,0,1.24,67.63Z"/><rect class="cls-14" x="1174.19" y="-112.24" width="15.63" height="387.63" transform="translate(520.36 1064.44) rotate(-60)"/><path class="cls-15" d="M1367.39,124l-33.28,19.81a3,3,0,0,0-1.46,2.56v36.09a3,3,0,0,0,1.49,2.57l31.22,18a3,3,0,0,0,3,0l33.19-19.81a3,3,0,0,0,1.46-2.55l.08-35.74a3,3,0,0,0-1.46-2.56L1370.4,124A3,3,0,0,0,1367.39,124Z"/><path class="cls-16" d="M1152,7.08l-50.63,30.15a4.5,4.5,0,0,0-2.22,3.89V96a4.53,4.53,0,0,0,2.25,3.91l47.51,27.43a4.54,4.54,0,0,0,4.55,0L1204,97.2a4.5,4.5,0,0,0,2.21-3.87l.14-54.37a4.52,4.52,0,0,0-2.23-3.9l-47.51-28A4.51,4.51,0,0,0,1152,7.08Z"/></svg>