<svg id="Layer_1" data-name="Layer 1" xmlns="http://www.w3.org/2000/svg" xmlns:xlink="http://www.w3.org/1999/xlink" viewBox="0 0 1440 308"><defs><style>.cls-1{fill:#f9fafa;}.cls-2,.cls-4{fill:#2b393f;}.cls-2{opacity:0.03;}.cls-3,.cls-6,.cls-8,.cls-9{opacity:0.5;}.cls-3{fill:url(#linear-gradient);}.cls-5{fill:#02e49b;}.cls-6{fill:url(#linear-gradient-2);}.cls-7{fill:#d9dbdc;}.cls-8{fill:url(#linear-gradient-3);}.cls-9{fill:url(#linear-gradient-4);}</style><linearGradient id="linear-gradient" x1="1241.61" y1="-4698.54" x2="1187.58" y2="-4730.83" gradientTransform="matrix(1.05, 0.5, 0.61, -0.87, 2726.13, -4599.88)" gradientUnits="userSpaceOnUse"><stop offset="0" stop-color="#fff" stop-opacity="0"/><stop offset="0.03" stop-color="#fafbfb" stop-opacity="0.12"/><stop offset="0.09" stop-color="#f2f2f3" stop-opacity="0.35"/><stop offset="0.16" stop-color="#eaebec" stop-opacity="0.55"/><stop offset="0.22" stop-color="#e4e5e6" stop-opacity="0.71"/><stop offset="0.28" stop-color="#dfe1e2" stop-opacity="0.84"/><stop offset="0.35" stop-color="#dcdedf" stop-opacity="0.93"/><stop offset="0.41" stop-color="#dadcdd" stop-opacity="0.98"/><stop offset="0.48" stop-color="#d9dbdc"/><stop offset="0.54" stop-color="#dadcdd" stop-opacity="0.98"/><stop offset="0.61" stop-color="#dcdedf" stop-opacity="0.91"/><stop offset="0.68" stop-color="#e1e2e3" stop-opacity="0.8"/><stop offset="0.76" stop-color="#e7e8e8" stop-opacity="0.64"/><stop offset="0.85" stop-color="#eeefef" stop-opacity="0.45"/><stop offset="0.93" stop-color="#f7f8f8" stop-opacity="0.21"/><stop offset="1" stop-color="#fff" stop-opacity="0"/></linearGradient><linearGradient id="linear-gradient-2" x1="1110.12" y1="-4755.11" x2="1178.79" y2="-4793.37" gradientTransform="matrix(0.5, 0.93, 0.87, -0.54, 4861.6, -3444.88)" gradientUnits="userSpaceOnUse"><stop offset="0" stop-color="#fff" stop-opacity="0"/><stop offset="0.08" stop-color="#f5f6f6" stop-opacity="0.25"/><stop offset="0.15" stop-color="#edeeee" stop-opacity="0.48"/><stop offset="0.23" stop-color="#e6e7e8" stop-opacity="0.67"/><stop offset="0.31" stop-color="#e0e2e3" stop-opacity="0.81"/><stop offset="0.38" stop-color="#dcdedf" stop-opacity="0.92"/><stop offset="0.45" stop-color="#dadcdd" stop-opacity="0.98"/><stop offset="0.51" stop-color="#d9dbdc"/><stop offset="0.56" stop-color="#dadcdd" stop-opacity="0.98"/><stop offset="0.63" stop-color="#dcdedf" stop-opacity="0.91"/><stop offset="0.7" stop-color="#e1e2e3" stop-opacity="0.8"/><stop offset="0.78" stop-color="#e6e8e8" stop-opacity="0.65"/><stop offset="0.86" stop-color="#eeefef" stop-opacity="0.45"/><stop offset="0.94" stop-color="#f7f7f8" stop-opacity="0.21"/><stop offset="1" stop-color="#fff" stop-opacity="0"/></linearGradient><linearGradient id="linear-gradient-3" x1="292.61" y1="-4768.12" x2="362.23" y2="-4810.74" gradientTransform="matrix(0.5, 0.87, 0.87, -0.5, 4309.88, -2553.97)" gradientUnits="userSpaceOnUse"><stop offset="0" stop-color="#fff" stop-opacity="0"/><stop offset="0.06" stop-color="#f8f8f9" stop-opacity="0.18"/><stop offset="0.14" stop-color="#eff0f0" stop-opacity="0.43"/><stop offset="0.23" stop-color="#e7e8e9" stop-opacity="0.63"/><stop offset="0.31" stop-color="#e1e2e3" stop-opacity="0.79"/><stop offset="0.38" stop-color="#dddedf" stop-opacity="0.91"/><stop offset="0.45" stop-color="#dadcdd" stop-opacity="0.98"/><stop offset="0.51" stop-color="#d9dbdc"/><stop offset="0.56" stop-color="#dadcdd" stop-opacity="0.98"/><stop offset="0.63" stop-color="#dcdedf" stop-opacity="0.91"/><stop offset="0.7" stop-color="#e1e2e3" stop-opacity="0.8"/><stop offset="0.78" stop-color="#e6e8e8" stop-opacity="0.65"/><stop offset="0.86" stop-color="#eeefef" stop-opacity="0.45"/><stop offset="0.94" stop-color="#f7f7f8" stop-opacity="0.21"/><stop offset="1" stop-color="#fff" stop-opacity="0"/></linearGradient><linearGradient id="linear-gradient-4" x1="375.24" y1="-4817.22" x2="303.68" y2="-4860.79" gradientTransform="matrix(0.87, 0.5, 0.5, -0.87, 2464.72, -4188.31)" gradientUnits="userSpaceOnUse"><stop offset="0" stop-color="#fff" stop-opacity="0"/><stop offset="0.04" stop-color="#fbfbfb" stop-opacity="0.11"/><stop offset="0.13" stop-color="#f1f1f2" stop-opacity="0.38"/><stop offset="0.23" stop-color="#e8e9ea" stop-opacity="0.6"/><stop offset="0.32" stop-color="#e2e3e4" stop-opacity="0.77"/><stop offset="0.4" stop-color="#dddfe0" stop-opacity="0.9"/><stop offset="0.47" stop-color="#dadcdd" stop-opacity="0.97"/><stop offset="0.52" stop-color="#d9dbdc"/><stop offset="0.58" stop-color="#dadcdd" stop-opacity="0.98"/><stop offset="0.65" stop-color="#dcdedf" stop-opacity="0.92"/><stop offset="0.71" stop-color="#e0e2e2" stop-opacity="0.82"/><stop offset="0.78" stop-color="#e5e7e7" stop-opacity="0.68"/><stop offset="0.85" stop-color="#ecedee" stop-opacity="0.49"/><stop offset="0.93" stop-color="#f5f5f6" stop-opacity="0.27"/><stop offset="1" stop-color="#fff" stop-opacity="0.01"/><stop offset="1" stop-color="#fff" stop-opacity="0"/></linearGradient></defs><title>website module bg</title><rect class="cls-1" x="-19" y="-98" width="1483" height="568"/><rect class="cls-2" x="-30" y="-93" width="1520" height="541"/><rect class="cls-3" x="1101.8" y="101.3" width="57.8" height="15.58" transform="translate(96.9 580) rotate(-30)"/><path class="cls-4" d="M1109.7,111.5l-19.5-11.2a5.3,5.3,0,0,0-5.2,0l-19.5,11.2a2.5,2.5,0,0,0-.9,3.6,2.8,2.8,0,0,0,.9,1l19.5,11.2a5.3,5.3,0,0,0,5.2,0l19.5-11.2a2.7,2.7,0,0,0,1-3.6A3.2,3.2,0,0,0,1109.7,111.5Z"/><path class="cls-4" d="M1086.2,131.6a2.6,2.6,0,0,0,2.7,0l20.1-11.5a1.3,1.3,0,0,1,1.8.5,1.4,1.4,0,0,1,.2.7v5.2a1.5,1.5,0,0,1-.7,1.2l-21.9,12.5a2.4,2.4,0,0,1-2.3-.3l-21.5-11.8a1.5,1.5,0,0,1-.7-1.2v-5.6a1.4,1.4,0,0,1,1.4-1.4l.6.2Z"/><path class="cls-4" d="M1086.2,144.2a2.6,2.6,0,0,0,2.7,0l20.1-11.5a1.3,1.3,0,0,1,1.8.5,1.4,1.4,0,0,1,.2.7v5.3a1.5,1.5,0,0,1-.7,1.2l-21.9,12.5c-.8.5-1.5,0-2.3-.3l-21.5-11.8a1.4,1.4,0,0,1-.7-1.2v-5.7a1.4,1.4,0,0,1,1.4-1.4l.6.2Z"/><path class="cls-5" d="M1188.9,60.7l-19.5-11.2a4.9,4.9,0,0,0-5.2,0l-19.5,11.2a2.6,2.6,0,0,0,0,4.5l19.5,11.2a5.3,5.3,0,0,0,5.2,0l19.5-11.2a2.6,2.6,0,0,0,1-3.6A2.8,2.8,0,0,0,1188.9,60.7Z"/><path class="cls-5" d="M1165.5,80.8a3.2,3.2,0,0,0,2.7,0l20-11.6a1.4,1.4,0,0,1,1.8.5,1.9,1.9,0,0,1,.2.7v5.2a1.5,1.5,0,0,1-.7,1.2l-21.9,12.5c-.8.5-1.5,0-2.4-.3l-21.1-11.7a1.4,1.4,0,0,1-.7-1.2V70.4a1.2,1.2,0,0,1,1.4-1.3h.6Z"/><path class="cls-5" d="M1165.5,93.4a3.2,3.2,0,0,0,2.7,0l20-11.6a1.3,1.3,0,0,1,1.8.5,1.4,1.4,0,0,1,.2.7v5.2a1.2,1.2,0,0,1-.7,1.1l-21.9,12.6c-.8.4-1.5,0-2.4-.4l-21.1-11.6a1.5,1.5,0,0,1-.7-1.2V83a1.4,1.4,0,0,1,1.4-1.4l.6.2Z"/><rect class="cls-6" x="1272.2" y="163.5" width="16.1" height="70.93" transform="translate(467.8 1208.2) rotate(-60)"/><path class="cls-7" d="M1343.8,204.4l-20.2-11.6a5.7,5.7,0,0,0-5.4,0L1298,204.4a2.6,2.6,0,0,0-.9,3.7,2.2,2.2,0,0,0,.9,1l20.3,11.6a5.1,5.1,0,0,0,5.3,0l20.2-11.6a2.8,2.8,0,0,0,1-3.7A3.2,3.2,0,0,0,1343.8,204.4Z"/><path class="cls-7" d="M1319.6,225.2a2.2,2.2,0,0,0,2.7,0l20.8-12a1.4,1.4,0,0,1,1.9.6,1.4,1.4,0,0,1,.2.7v5.3a1.5,1.5,0,0,1-.7,1.3L1321.9,234a2.3,2.3,0,0,1-2.5-.3l-22-12.1a1.2,1.2,0,0,1-.7-1.2v-5.9a1.4,1.4,0,0,1,1.2-1.5,1.8,1.8,0,0,1,1,.2Z"/><path class="cls-7" d="M1319.6,238.2a2.2,2.2,0,0,0,2.7,0l20.8-12a1.3,1.3,0,0,1,1.9.5,1.9,1.9,0,0,1,.2.7v5.4a1.4,1.4,0,0,1-.7,1.2l-22.6,13a2.5,2.5,0,0,1-2.5-.4l-22.2-12.2a1.4,1.4,0,0,1-.7-1.2v-5.7a1.4,1.4,0,0,1,1-1.7,1.5,1.5,0,0,1,1.4.4Z"/><path class="cls-5" d="M1262.7,148l-20.1-11.6a5.2,5.2,0,0,0-5.4,0L1217,148a2.7,2.7,0,0,0-1,3.7,4.7,4.7,0,0,0,1,1l20.2,11.5a5.2,5.2,0,0,0,5.4,0l20.1-11.5a2.8,2.8,0,0,0,1-3.8A2.2,2.2,0,0,0,1262.7,148Z"/><path class="cls-5" d="M1238.5,168.8a2.8,2.8,0,0,0,2.8,0l20.7-12a1.5,1.5,0,0,1,1.9.6,1.4,1.4,0,0,1,.2.6v5.4a1.4,1.4,0,0,1-.7,1.2l-22.7,13c-.8.5-1.6,0-2.5-.3l-21.8-12.1a1.4,1.4,0,0,1-.8-1.2v-6a1.3,1.3,0,0,1,1.4-1.3h.7Z"/><path class="cls-5" d="M1238.5,181.8a2.8,2.8,0,0,0,2.8,0l20.7-12a1.5,1.5,0,0,1,1.9.6,1.4,1.4,0,0,1,.2.6v5.5a1.2,1.2,0,0,1-.7,1.1l-22.7,13c-.8.5-1.6,0-2.5-.3l-21.8-12.1a1.3,1.3,0,0,1-.8-1.2v-6a1.4,1.4,0,0,1,1.4-1.3h.7Z"/><rect class="cls-8" x="317.4" y="88.1" width="16.9" height="68.77" transform="translate(56.9 343.4) rotate(-60)"/><rect class="cls-9" x="306.6" y="163.7" width="68.8" height="16.87" transform="translate(-40.4 193.5) rotate(-30)"/><path class="cls-7" d="M397.1,124.8l-21.2-12.1a5.6,5.6,0,0,0-5.6,0l-21.1,12.1a2.9,2.9,0,0,0-1,3.9,2.4,2.4,0,0,0,1,1l21.2,12.1a5.2,5.2,0,0,0,5.6,0l21.2-12.1a2.9,2.9,0,0,0,.9-3.9A2.4,2.4,0,0,0,397.1,124.8Z"/><path class="cls-7" d="M371.7,146.6a3,3,0,0,0,2.9,0L396.4,134a1.5,1.5,0,0,1,2,.6,1.9,1.9,0,0,1,.2.7v5.6a1.6,1.6,0,0,1-.7,1.3l-23.7,13.6a2.5,2.5,0,0,1-2.6-.4l-23.1-12.6a1.4,1.4,0,0,1-.7-1.2v-6.2a1.5,1.5,0,0,1,1.3-1.6,1.2,1.2,0,0,1,1,.2Z"/><path class="cls-7" d="M371.7,160.2a2.6,2.6,0,0,0,2.9,0l21.8-12.6a1.5,1.5,0,0,1,2,.5,2.4,2.4,0,0,1,.2.8v5.6a1.7,1.7,0,0,1-.7,1.3l-23.7,13.5a2.4,2.4,0,0,1-2.6-.3l-23.3-12.8a1.4,1.4,0,0,1-.7-1.2v-6a1.5,1.5,0,0,1,2.5-1.4Z"/><path class="cls-5" d="M308.4,66.3,287.3,54.2a6,6,0,0,0-5.8,0l-21,12.1a2.9,2.9,0,0,0-1,3.9,3.6,3.6,0,0,0,1,1.1l21,12.1a5.8,5.8,0,0,0,5.7,0l21.1-12.1a2.8,2.8,0,0,0,1.1-3.9A3.5,3.5,0,0,0,308.4,66.3Z"/><path class="cls-5" d="M283.1,88.1a3,3,0,0,0,2.9,0l21.7-12.5a1.5,1.5,0,0,1,2,.5,1.2,1.2,0,0,1,.2.8v5.6a1.6,1.6,0,0,1-.7,1.3L285.6,97.3c-.8.5-1.6,0-2.5-.3L259.8,84.4a1.7,1.7,0,0,1-.7-1.3V76.9a1.4,1.4,0,0,1,1.5-1.4h.6Z"/><path class="cls-5" d="M283.1,101.7a3,3,0,0,0,2.9,0l21.7-12.5a1.6,1.6,0,0,1,2,.5,1.2,1.2,0,0,1,.2.8v5.7a1.4,1.4,0,0,1-.7,1.2L285.6,111c-.8.5-1.6,0-2.5-.4L259.8,97.8a1.4,1.4,0,0,1-.7-1.2V90.5a1.5,1.5,0,0,1,1.5-1.5l.7.2Z"/><path class="cls-4" d="M312.8,181.3l-21.2-12.1a5.6,5.6,0,0,0-5.6,0l-21.1,12.1a2.8,2.8,0,0,0-1,3.9,1.9,1.9,0,0,0,1,1l21.2,12.2a6.1,6.1,0,0,0,5.6,0l21.2-12.2a2.9,2.9,0,0,0,.9-3.9A3.2,3.2,0,0,0,312.8,181.3Z"/><path class="cls-4" d="M287.4,203.1a3,3,0,0,0,2.9,0l21.8-12.5a1.5,1.5,0,0,1,2,.6,1.4,1.4,0,0,1,.2.7v5.6a1.7,1.7,0,0,1-.7,1.3l-23.8,13.5c-.8.5-1.6,0-2.5-.3l-23.2-12.8a1.4,1.4,0,0,1-.8-1.2v-6.1a1.5,1.5,0,0,1,1.5-1.5l.7.2Z"/><path class="cls-4" d="M287.4,216.7a3,3,0,0,0,2.9,0l21.8-12.5a1.5,1.5,0,0,1,2,.6,1.4,1.4,0,0,1,.2.7v5.6a1.6,1.6,0,0,1-.7,1.3l-23.8,13.5c-.8.5-1.6,0-2.5-.3l-23.2-12.8a1.3,1.3,0,0,1-.8-1.2v-6.1a1.5,1.5,0,0,1,1.5-1.5l.7.2Z"/><path class="cls-5" d="M137.5,138.4l-21.1-12.2a6.1,6.1,0,0,0-5.6,0L89.7,138.4a2.9,2.9,0,0,0-1.1,3.9,3.6,3.6,0,0,0,1.1,1l21.1,12.1a5.8,5.8,0,0,0,5.7,0l21.1-12.1a2.8,2.8,0,0,0,1-3.9A2.7,2.7,0,0,0,137.5,138.4Z"/><path class="cls-5" d="M112.2,160.2a3,3,0,0,0,2.9,0l21.8-12.6a1.3,1.3,0,0,1,1.9.6.8.8,0,0,1,.2.7v5.6a1.5,1.5,0,0,1-.7,1.3l-23.7,13.5a2.5,2.5,0,0,1-2.6-.3L89,156.4a1.4,1.4,0,0,1-.8-1.3v-6.2a1.5,1.5,0,0,1,1.3-1.6,1.7,1.7,0,0,1,1,.3Z"/><path class="cls-5" d="M112.2,173.8a3,3,0,0,0,2.9,0l21.8-12.7a1.5,1.5,0,0,1,1.9.6,1,1,0,0,1,.2.7v5.7a1.2,1.2,0,0,1-.7,1.2l-23.7,13.6a2.5,2.5,0,0,1-2.6-.3L88.8,169.8a1.5,1.5,0,0,1-.7-1.3v-5.9a1.5,1.5,0,0,1,2.4-1.5Z"/></svg>