<svg id="Layer_1" data-name="Layer 1" xmlns="http://www.w3.org/2000/svg" xmlns:xlink="http://www.w3.org/1999/xlink" viewBox="0 0 1440 308"><defs><style>.cls-1{opacity:0.18;fill:url(#linear-gradient);}.cls-14,.cls-2,.cls-3,.cls-4{opacity:0.38;}.cls-2{fill:url(#linear-gradient-2);}.cls-3{fill:url(#linear-gradient-3);}.cls-4{fill:url(#linear-gradient-4);}.cls-5{opacity:0.68;fill:url(#linear-gradient-5);}.cls-6{fill:url(#linear-gradient-6);}.cls-7{fill:url(#linear-gradient-7);}.cls-8{fill:#02e49b;}.cls-9{fill:#9ff5d9;}.cls-10{fill:#53edbb;}.cls-11{fill:url(#linear-gradient-8);}.cls-12{fill:url(#linear-gradient-9);}.cls-13{fill:#d1faed;}.cls-14{fill:url(#linear-gradient-10);}.cls-15{fill:url(#linear-gradient-11);}</style><linearGradient id="linear-gradient" x1="799.97" y1="110.59" x2="1012.74" y2="238.06" gradientTransform="matrix(-1, 0, 0, 1, 1942.83, 0)" gradientUnits="userSpaceOnUse"><stop offset="0" stop-color="#ebfdf7"/><stop offset="1" stop-color="#9ff5d9"/></linearGradient><linearGradient id="linear-gradient-2" x1="1309.77" y1="-18.63" x2="1305.26" y2="160.45" gradientTransform="matrix(1, 0, 0, 1, 0, 0)" xlink:href="#linear-gradient"/><linearGradient id="linear-gradient-3" x1="1176.99" y1="102.11" x2="1302" y2="177.01" gradientTransform="matrix(1, 0, 0, 1, 0, 0)" xlink:href="#linear-gradient"/><linearGradient id="linear-gradient-4" x1="154.92" y1="188.74" x2="320.13" y2="287.26" gradientTransform="matrix(1, 0, 0, 1, 0, 0)" xlink:href="#linear-gradient"/><linearGradient id="linear-gradient-5" x1="58.82" y1="30.04" x2="251.06" y2="144.68" gradientTransform="matrix(1, 0, 0, 1, 0, 0)" xlink:href="#linear-gradient"/><linearGradient id="linear-gradient-6" x1="130.09" y1="-28.97" x2="-33.48" y2="70.99" gradientUnits="userSpaceOnUse"><stop offset="0.04" stop-color="#f9fbfb"/><stop offset="0.33" stop-color="#f6f8f8"/><stop offset="0.53" stop-color="#edf0f0"/><stop offset="0.7" stop-color="#dde1e2"/><stop offset="0.86" stop-color="#c7cccd"/><stop offset="1" stop-color="#aeb4b6"/></linearGradient><linearGradient id="linear-gradient-7" x1="208.28" y1="125.31" x2="61.49" y2="262.32" xlink:href="#linear-gradient-6"/><linearGradient id="linear-gradient-8" x1="1224.28" y1="36.52" x2="1077.48" y2="173.53" xlink:href="#linear-gradient-6"/><linearGradient id="linear-gradient-9" x1="1370.31" y1="-87.36" x2="1223.51" y2="49.65" xlink:href="#linear-gradient-6"/><linearGradient id="linear-gradient-10" x1="1827.16" y1="111.04" x2="2102.5" y2="275.25" gradientTransform="matrix(-1, 0, 0, 1, 2290.07, 0)" xlink:href="#linear-gradient"/><linearGradient id="linear-gradient-11" x1="523.39" y1="52.63" x2="376.6" y2="189.64" xlink:href="#linear-gradient-6"/></defs><title>Banner_Contributor_DT</title><path class="cls-1" d="M1122.56,69.94l41.9,25a3.75,3.75,0,0,1,1.83,3.22v45.44a3.75,3.75,0,0,1-1.86,3.24L965,272.2a3.74,3.74,0,0,1-3.76,0l-41.79-25a3.74,3.74,0,0,1-1.84-3.21l-.11-45a3.74,3.74,0,0,1,1.84-3.23L1118.77,69.94A3.73,3.73,0,0,1,1122.56,69.94Z"/><rect class="cls-2" x="1263.17" y="-19.73" width="88.67" height="182.3"/><path class="cls-3" d="M1205.21,69.94l-41.89,25a3.74,3.74,0,0,0-1.84,3.22v45.44a3.75,3.75,0,0,0,1.86,3.24l100.51,58.26a3.74,3.74,0,0,0,3.77,0l41.79-24.95a3.71,3.71,0,0,0,1.83-3.2l.11-45a3.74,3.74,0,0,0-1.84-3.22L1209,69.94A3.73,3.73,0,0,0,1205.21,69.94Z"/><path class="cls-4" d="M182.84,156.22l-41.9,24.95a3.73,3.73,0,0,0-1.84,3.22v45.44a3.72,3.72,0,0,0,1.87,3.23l100.51,58.27a3.74,3.74,0,0,0,3.76,0L287,266.36a3.76,3.76,0,0,0,1.84-3.2l.1-45a3.73,3.73,0,0,0-1.83-3.23L186.62,156.22A3.71,3.71,0,0,0,182.84,156.22Z"/><path class="cls-5" d="M84.15-3.37l-41.9,25a3.74,3.74,0,0,0-1.84,3.22V70.24a3.73,3.73,0,0,0,1.87,3.24l125,71.54a3.72,3.72,0,0,0,3.76,0l41.79-24.95a3.74,3.74,0,0,0,1.83-3.21l.11-45a3.7,3.7,0,0,0-1.84-3.23l-125-72A3.73,3.73,0,0,0,84.15-3.37Z"/><path class="cls-6" d="M44-26.44,2.07-1.49A3.73,3.73,0,0,0,.23,1.73V47.17A3.73,3.73,0,0,0,2.09,50.4L41.41,73.1a3.72,3.72,0,0,0,3.76,0L87,48.14a3.72,3.72,0,0,0,1.84-3.21l.11-45a3.74,3.74,0,0,0-1.84-3.23L47.75-26.44A3.73,3.73,0,0,0,44-26.44Z"/><path class="cls-7" d="M144.88,134.2l-41.9,25a3.74,3.74,0,0,0-1.84,3.22v45.45a3.73,3.73,0,0,0,1.87,3.23l39.32,22.7a3.72,3.72,0,0,0,3.76,0l41.79-24.95a3.76,3.76,0,0,0,1.84-3.2l.1-45a3.71,3.71,0,0,0-1.83-3.22L148.67,134.2A3.78,3.78,0,0,0,144.88,134.2Z"/><path class="cls-8" d="M190.15,57.31l-41.89,25a3.74,3.74,0,0,0-1.84,3.22v45.44a3.75,3.75,0,0,0,1.86,3.24l39.32,22.7a3.74,3.74,0,0,0,3.76,0l41.79-25a3.72,3.72,0,0,0,1.84-3.2l.11-45a3.76,3.76,0,0,0-1.84-3.23L193.94,57.31A3.73,3.73,0,0,0,190.15,57.31Z"/><path class="cls-9" d="M1395.59,179.82l-41.9,25a3.73,3.73,0,0,0-1.84,3.22v45.44a3.72,3.72,0,0,0,1.87,3.23l39.32,22.7a3.72,3.72,0,0,0,3.76,0l41.79-25c1.13-.67,1.83,11.13,1.83,9.82l.11-45c0-1.33-.69-15.58-1.84-16.25l-39.32-23.15A3.71,3.71,0,0,0,1395.59,179.82Z"/><path class="cls-10" d="M1306.91,129.54l-41.9,25a3.72,3.72,0,0,0-1.84,3.21v45.45a3.72,3.72,0,0,0,1.87,3.23l39.31,22.7a3.74,3.74,0,0,0,3.77,0l41.79-24.95a3.74,3.74,0,0,0,1.83-3.21l.11-45a3.74,3.74,0,0,0-1.84-3.22l-39.32-23.15A3.71,3.71,0,0,0,1306.91,129.54Z"/><path class="cls-11" d="M1160.87,45.42l-41.89,25a3.74,3.74,0,0,0-1.84,3.22V119a3.74,3.74,0,0,0,1.86,3.23l39.32,22.7a3.74,3.74,0,0,0,3.76,0L1203.87,120a3.72,3.72,0,0,0,1.84-3.2l.11-45a3.76,3.76,0,0,0-1.84-3.23l-39.32-23.15A3.73,3.73,0,0,0,1160.87,45.42Z"/><path class="cls-9" d="M1102.45,245.21l-41.89,25a3.74,3.74,0,0,0-1.84,3.22v45.44a3.75,3.75,0,0,0,1.86,3.24l39.32,22.7a3.74,3.74,0,0,0,3.76,0l41.79-24.95a3.72,3.72,0,0,0,1.84-3.2l.11-45a3.76,3.76,0,0,0-1.84-3.23l-39.32-23.15A3.73,3.73,0,0,0,1102.45,245.21Z"/><path class="cls-12" d="M1306.91-78.46,1265-53.51a3.72,3.72,0,0,0-1.84,3.21V-4.85A3.72,3.72,0,0,0,1265-1.62l39.31,22.7a3.74,3.74,0,0,0,3.77,0l41.79-24.95a3.74,3.74,0,0,0,1.83-3.21l.11-45a3.74,3.74,0,0,0-1.84-3.22l-39.32-23.15A3.71,3.71,0,0,0,1306.91-78.46Z"/><path class="cls-13" d="M961.26,171.46l-41.9,24.95a3.72,3.72,0,0,0-1.84,3.21v45.45a3.73,3.73,0,0,0,1.87,3.23L958.71,271a3.7,3.7,0,0,0,3.76,0L1004.26,246a3.74,3.74,0,0,0,1.84-3.21l.1-45a3.71,3.71,0,0,0-1.83-3.22l-39.32-23.15A3.73,3.73,0,0,0,961.26,171.46Z"/><path class="cls-14" d="M445.07,74.12,487,99.07a3.73,3.73,0,0,1,1.84,3.22v40a3.74,3.74,0,0,1-1.87,3.23L286.18,267.37a3.74,3.74,0,0,1-3.77,0l-38.83-25a3.74,3.74,0,0,1-1.84-3.21l-.11-45a3.74,3.74,0,0,1,1.84-3.23L441.28,74.12A3.73,3.73,0,0,1,445.07,74.12Z"/><path class="cls-13" d="M244,191.78l-41.9,24.95a3.74,3.74,0,0,0-1.84,3.22V265.4a3.73,3.73,0,0,0,1.87,3.23l39.32,22.7a3.74,3.74,0,0,0,3.76,0L287,266.36a3.76,3.76,0,0,0,1.84-3.2l.1-45a3.73,3.73,0,0,0-1.83-3.23l-39.32-23.15A3.73,3.73,0,0,0,244,191.78Z"/><path class="cls-15" d="M460,61.52l-41.9,24.95a3.74,3.74,0,0,0-1.84,3.22v45.45a3.73,3.73,0,0,0,1.87,3.23l39.32,22.7a3.74,3.74,0,0,0,3.76,0l41.79-25a3.74,3.74,0,0,0,1.84-3.2l.1-45a3.71,3.71,0,0,0-1.83-3.22L463.78,61.52A3.78,3.78,0,0,0,460,61.52Z"/></svg>