<svg viewBox="0 0 1440 308" xmlns="http://www.w3.org/2000/svg" xmlns:xlink="http://www.w3.org/1999/xlink"><linearGradient id="a" gradientTransform="matrix(-1 0 0 1 1942.83 0)" gradientUnits="userSpaceOnUse" x1="799.97" x2="1012.74" y1="110.59" y2="238.06"><stop offset="0" stop-color="#ebfdf7"/><stop offset="1" stop-color="#9ff5d9"/></linearGradient><linearGradient id="b" x1="1309.77" x2="1305.26" xlink:href="#a" y1="-18.63" y2="160.45"/><linearGradient id="c" x1="1176.99" x2="1302" xlink:href="#a" y1="102.11" y2="177.01"/><linearGradient id="d" x1="154.92" x2="320.13" xlink:href="#a" y1="188.74" y2="287.26"/><linearGradient id="e" x1="58.82" x2="251.06" xlink:href="#a" y1="30.04" y2="144.68"/><linearGradient id="f" gradientUnits="userSpaceOnUse" x1="130.09" x2="-33.48" y1="-28.97" y2="70.99"><stop offset=".04" stop-color="#f9fbfb"/><stop offset=".33" stop-color="#f6f8f8"/><stop offset=".53" stop-color="#edf0f0"/><stop offset=".7" stop-color="#dde1e2"/><stop offset=".86" stop-color="#c7cccd"/><stop offset="1" stop-color="#aeb4b6"/></linearGradient><linearGradient id="g" x1="208.28" x2="61.49" xlink:href="#f" y1="125.31" y2="262.32"/><linearGradient id="h" x1="1224.28" x2="1077.48" xlink:href="#f" y1="36.52" y2="173.53"/><linearGradient id="i" x1="1370.31" x2="1223.51" xlink:href="#f" y1="-87.36" y2="49.65"/><linearGradient id="j" gradientTransform="matrix(-1 0 0 1 2290.07 0)" x1="1827.16" x2="2102.5" xlink:href="#a" y1="111.04" y2="275.25"/><linearGradient id="k" x1="523.39" x2="376.6" xlink:href="#f" y1="52.63" y2="189.64"/><path d="m1122.56 69.94 41.9 25a3.75 3.75 0 0 1 1.83 3.22v45.44a3.75 3.75 0 0 1 -1.86 3.24l-199.43 125.36a3.74 3.74 0 0 1 -3.76 0l-41.79-25a3.74 3.74 0 0 1 -1.84-3.21l-.11-45a3.74 3.74 0 0 1 1.84-3.23l199.43-125.82a3.73 3.73 0 0 1 3.79 0z" fill="url(#a)" opacity=".18"/><path d="m1263.17-19.73h88.67v182.3h-88.67z" fill="url(#b)" opacity=".38"/><path d="m1205.21 69.94-41.89 25a3.74 3.74 0 0 0 -1.84 3.22v45.44a3.75 3.75 0 0 0 1.86 3.24l100.51 58.26a3.74 3.74 0 0 0 3.77 0l41.79-24.95a3.71 3.71 0 0 0 1.83-3.2l.11-45a3.74 3.74 0 0 0 -1.84-3.22l-100.51-58.79a3.73 3.73 0 0 0 -3.79 0z" fill="url(#c)" opacity=".38"/><path d="m182.84 156.22-41.9 24.95a3.73 3.73 0 0 0 -1.84 3.22v45.44a3.72 3.72 0 0 0 1.87 3.23l100.51 58.27a3.74 3.74 0 0 0 3.76 0l41.76-24.97a3.76 3.76 0 0 0 1.84-3.2l.1-45a3.73 3.73 0 0 0 -1.83-3.23l-100.49-58.71a3.71 3.71 0 0 0 -3.78 0z" fill="url(#d)" opacity=".38"/><path d="m84.15-3.37-41.9 25a3.74 3.74 0 0 0 -1.84 3.22v45.39a3.73 3.73 0 0 0 1.87 3.24l125 71.54a3.72 3.72 0 0 0 3.76 0l41.79-24.95a3.74 3.74 0 0 0 1.83-3.21l.11-45a3.7 3.7 0 0 0 -1.84-3.23l-125-72a3.73 3.73 0 0 0 -3.78 0z" fill="url(#e)" opacity=".68"/><path d="m44-26.44-41.93 24.95a3.73 3.73 0 0 0 -1.84 3.22v45.44a3.73 3.73 0 0 0 1.86 3.23l39.32 22.7a3.72 3.72 0 0 0 3.76 0l41.83-24.96a3.72 3.72 0 0 0 1.84-3.21l.11-45a3.74 3.74 0 0 0 -1.84-3.23l-39.36-23.14a3.73 3.73 0 0 0 -3.75 0z" fill="url(#f)"/><path d="m144.88 134.2-41.9 25a3.74 3.74 0 0 0 -1.84 3.22v45.45a3.73 3.73 0 0 0 1.87 3.23l39.32 22.7a3.72 3.72 0 0 0 3.76 0l41.79-24.95a3.76 3.76 0 0 0 1.84-3.2l.1-45a3.71 3.71 0 0 0 -1.83-3.22l-39.32-23.23a3.78 3.78 0 0 0 -3.79 0z" fill="url(#g)"/><path d="m190.15 57.31-41.89 25a3.74 3.74 0 0 0 -1.84 3.22v45.44a3.75 3.75 0 0 0 1.86 3.24l39.32 22.7a3.74 3.74 0 0 0 3.76 0l41.79-25a3.72 3.72 0 0 0 1.84-3.2l.11-45a3.76 3.76 0 0 0 -1.84-3.23l-39.32-23.17a3.73 3.73 0 0 0 -3.79 0z" fill="#02e49b"/><path d="m1395.59 179.82-41.9 25a3.73 3.73 0 0 0 -1.84 3.22v45.44a3.72 3.72 0 0 0 1.87 3.23l39.32 22.7a3.72 3.72 0 0 0 3.76 0l41.79-25c1.13-.67 1.83 11.13 1.83 9.82l.11-45c0-1.33-.69-15.58-1.84-16.25l-39.32-23.15a3.71 3.71 0 0 0 -3.78-.01z" fill="#9ff5d9"/><path d="m1306.91 129.54-41.9 25a3.72 3.72 0 0 0 -1.84 3.21v45.45a3.72 3.72 0 0 0 1.87 3.23l39.31 22.7a3.74 3.74 0 0 0 3.77 0l41.79-24.95a3.74 3.74 0 0 0 1.83-3.21l.11-45a3.74 3.74 0 0 0 -1.84-3.22l-39.32-23.15a3.71 3.71 0 0 0 -3.78-.06z" fill="#53edbb"/><path d="m1160.87 45.42-41.89 25a3.74 3.74 0 0 0 -1.84 3.22v45.36a3.74 3.74 0 0 0 1.86 3.23l39.32 22.7a3.74 3.74 0 0 0 3.76 0l41.79-24.93a3.72 3.72 0 0 0 1.84-3.2l.11-45a3.76 3.76 0 0 0 -1.84-3.23l-39.32-23.15a3.73 3.73 0 0 0 -3.79 0z" fill="url(#h)"/><path d="m1102.45 245.21-41.89 25a3.74 3.74 0 0 0 -1.84 3.22v45.44a3.75 3.75 0 0 0 1.86 3.24l39.32 22.7a3.74 3.74 0 0 0 3.76 0l41.79-24.95a3.72 3.72 0 0 0 1.84-3.2l.11-45a3.76 3.76 0 0 0 -1.84-3.23l-39.32-23.15a3.73 3.73 0 0 0 -3.79-.07z" fill="#9ff5d9"/><path d="m1306.91-78.46-41.91 24.95a3.72 3.72 0 0 0 -1.84 3.21v45.45a3.72 3.72 0 0 0 1.84 3.23l39.31 22.7a3.74 3.74 0 0 0 3.77 0l41.79-24.95a3.74 3.74 0 0 0 1.83-3.21l.11-45a3.74 3.74 0 0 0 -1.84-3.22l-39.32-23.15a3.71 3.71 0 0 0 -3.74-.01z" fill="url(#i)"/><path d="m961.26 171.46-41.9 24.95a3.72 3.72 0 0 0 -1.84 3.21v45.45a3.73 3.73 0 0 0 1.87 3.23l39.32 22.7a3.7 3.7 0 0 0 3.76 0l41.79-25a3.74 3.74 0 0 0 1.84-3.21l.1-45a3.71 3.71 0 0 0 -1.83-3.22l-39.32-23.15a3.73 3.73 0 0 0 -3.79.04z" fill="#d1faed"/><path d="m445.07 74.12 41.93 24.95a3.73 3.73 0 0 1 1.84 3.22v40a3.74 3.74 0 0 1 -1.87 3.23l-200.79 121.85a3.74 3.74 0 0 1 -3.77 0l-38.83-25a3.74 3.74 0 0 1 -1.84-3.21l-.11-45a3.74 3.74 0 0 1 1.84-3.23l197.81-116.81a3.73 3.73 0 0 1 3.79 0z" fill="url(#j)" opacity=".38"/><path d="m244 191.78-41.9 24.95a3.74 3.74 0 0 0 -1.84 3.22v45.45a3.73 3.73 0 0 0 1.87 3.23l39.32 22.7a3.74 3.74 0 0 0 3.76 0l41.79-24.97a3.76 3.76 0 0 0 1.84-3.2l.1-45a3.73 3.73 0 0 0 -1.83-3.23l-39.32-23.15a3.73 3.73 0 0 0 -3.79 0z" fill="#d1faed"/><path d="m460 61.52-41.9 24.95a3.74 3.74 0 0 0 -1.84 3.22v45.45a3.73 3.73 0 0 0 1.87 3.23l39.32 22.7a3.74 3.74 0 0 0 3.76 0l41.79-25a3.74 3.74 0 0 0 1.84-3.2l.1-45a3.71 3.71 0 0 0 -1.83-3.22l-39.33-23.13a3.78 3.78 0 0 0 -3.78 0z" fill="url(#k)"/></svg>