<svg id="Layer_1" data-name="Layer 1" xmlns="http://www.w3.org/2000/svg" xmlns:xlink="http://www.w3.org/1999/xlink" viewBox="0 0 1440 525"><defs><style>.cls-1{fill:#f9fafa;}.cls-2{fill:url(#linear-gradient);}.cls-3{fill:url(#linear-gradient-2);}.cls-4{fill:url(#linear-gradient-3);}.cls-5{fill:url(#linear-gradient-4);}.cls-6{fill:url(#linear-gradient-5);}.cls-7{fill:url(#linear-gradient-6);}.cls-8{fill:url(#linear-gradient-7);}.cls-9{fill:url(#linear-gradient-8);}</style><linearGradient id="linear-gradient" x1="257.25" y1="428.13" x2="151.91" y2="350.75" gradientUnits="userSpaceOnUse"><stop offset="0" stop-color="#f9fafa"/><stop offset="1" stop-color="#02e49b"/></linearGradient><linearGradient id="linear-gradient-2" x1="175.83" y1="286.51" x2="203.69" y2="379.36" xlink:href="#linear-gradient"/><linearGradient id="linear-gradient-3" x1="-2454.6" y1="4586.99" x2="-2509.89" y2="4546.37" gradientTransform="translate(-1187.5 -4881.3) rotate(-45)" gradientUnits="userSpaceOnUse"><stop offset="0" stop-color="#f9fafa"/><stop offset="1" stop-color="#d9dbdc"/></linearGradient><linearGradient id="linear-gradient-4" x1="-2497.34" y1="4512.64" x2="-2482.72" y2="4561.39" xlink:href="#linear-gradient-3"/><linearGradient id="linear-gradient-5" x1="776.16" y1="1031.56" x2="720.86" y2="990.93" gradientTransform="translate(482.6 -587.1)" xlink:href="#linear-gradient-3"/><linearGradient id="linear-gradient-6" x1="733.41" y1="957.21" x2="748.04" y2="1005.95" gradientTransform="translate(482.6 -587.1)" xlink:href="#linear-gradient-3"/><linearGradient id="linear-gradient-7" x1="-9330.15" y1="-6441.55" x2="-9447.47" y2="-6527.72" gradientTransform="translate(-10031.6 2209.8) rotate(135)" xlink:href="#linear-gradient"/><linearGradient id="linear-gradient-8" x1="-9420.84" y1="-6599.28" x2="-9389.81" y2="-6495.87" gradientTransform="translate(-10031.6 2209.8) rotate(135)" xlink:href="#linear-gradient"/></defs><title>website module bg</title><rect class="cls-1" x="-21" y="-28.5" width="1483" height="568"/><polygon class="cls-2" points="268 423.8 268 333.7 190 288.7 112 333.7 112 423.8 190 468.8 268 423.8"/><polygon class="cls-3" points="190 378.7 267.8 333.7 190 288.8 112.2 333.7 190 378.7"/><polygon class="cls-4" points="322.7 92.3 289.3 58.8 243.6 71.1 231.4 116.8 264.8 150.2 310.5 137.9 322.7 92.3"/><polygon class="cls-5" points="277 104.5 289.3 58.9 243.7 71.1 231.5 116.7 277 104.5"/><polygon class="cls-6" points="1264.4 442.2 1264.4 394.9 1223.5 371.2 1182.5 394.9 1182.5 442.2 1223.5 465.8 1264.4 442.2"/><polygon class="cls-7" points="1223.5 418.5 1264.3 394.9 1223.5 371.3 1182.6 394.9 1223.5 418.5"/><polygon class="cls-8" points="1115.6 179.2 1186.5 250.1 1283.4 224.2 1309.4 127.3 1238.5 56.3 1141.6 82.3 1115.6 179.2"/><polygon class="cls-9" points="1212.5 153.3 1186.6 250 1283.3 224.1 1309.2 127.3 1212.5 153.3"/></svg>