<svg id="Layer_1" data-name="Layer 1" xmlns="http://www.w3.org/2000/svg" xmlns:xlink="http://www.w3.org/1999/xlink" viewBox="0 0 376 610"><defs><style>.cls-1{fill:url(#linear-gradient);}.cls-2{fill:#02e49b;}.cls-3{fill:url(#linear-gradient-2);}.cls-4{fill:url(#linear-gradient-3);}.cls-5{fill:#d1faed;}.cls-6{fill:url(#linear-gradient-4);}.cls-7{fill:url(#linear-gradient-5);}.cls-8{fill:#9ff5d9;}.cls-9{fill:url(#linear-gradient-6);}.cls-10{fill:url(#linear-gradient-7);}.cls-11{fill:url(#linear-gradient-8);}</style><linearGradient id="linear-gradient" x1="337.83" y1="417.86" x2="229.95" y2="325.6" gradientUnits="userSpaceOnUse"><stop offset="0" stop-color="#d9dbdc" stop-opacity="0"/><stop offset="1" stop-color="#eeeff0"/></linearGradient><linearGradient id="linear-gradient-2" x1="135.67" y1="436.43" x2="70.2" y2="491.48" gradientUnits="userSpaceOnUse"><stop offset="0.18" stop-color="#d9dbdc" stop-opacity="0"/><stop offset="1" stop-color="#eeeff0"/></linearGradient><linearGradient id="linear-gradient-3" x1="146.76" y1="426.57" x2="14.33" y2="573.88" gradientUnits="userSpaceOnUse"><stop offset="0" stop-color="#aeb4b6"/><stop offset="0.01" stop-color="#afb5b7"/><stop offset="0.39" stop-color="#d7dbdc"/><stop offset="0.69" stop-color="#f0f2f3"/><stop offset="0.87" stop-color="#f9fbfb"/></linearGradient><linearGradient id="linear-gradient-4" x1="357.09" y1="484.26" x2="357.09" y2="614.66" gradientUnits="userSpaceOnUse"><stop offset="0" stop-color="#eeeff0"/><stop offset="0.12" stop-color="#e9eaeb" stop-opacity="0.75"/><stop offset="0.24" stop-color="#e4e5e6" stop-opacity="0.52"/><stop offset="0.36" stop-color="#e0e2e3" stop-opacity="0.34"/><stop offset="0.47" stop-color="#dddfe0" stop-opacity="0.19"/><stop offset="0.57" stop-color="#dbddde" stop-opacity="0.08"/><stop offset="0.67" stop-color="#d9dbdc" stop-opacity="0.02"/><stop offset="0.75" stop-color="#d9dbdc" stop-opacity="0"/></linearGradient><linearGradient id="linear-gradient-5" x1="312.11" y1="-138.88" x2="160.05" y2="-10.83" gradientTransform="translate(6.4 122.59) rotate(15)" gradientUnits="userSpaceOnUse"><stop offset="0" stop-color="#eeeff0"/><stop offset="0.82" stop-color="#d9dbdc" stop-opacity="0"/></linearGradient><linearGradient id="linear-gradient-6" x1="305.06" y1="239.9" x2="170.15" y2="405.57" gradientUnits="userSpaceOnUse"><stop offset="0.2" stop-color="#f9fbfb"/><stop offset="0.49" stop-color="#f7f9f9"/><stop offset="0.65" stop-color="#eff1f2"/><stop offset="0.77" stop-color="#e1e5e5"/><stop offset="0.88" stop-color="#ced2d4"/><stop offset="0.98" stop-color="#b6bbbd"/><stop offset="1" stop-color="#aeb4b6"/></linearGradient><linearGradient id="linear-gradient-7" x1="-1462.4" y1="415.53" x2="-1532.04" y2="356.05" gradientTransform="matrix(-1, 0, 0, 1, -1093.97, 0)" gradientUnits="userSpaceOnUse"><stop offset="0" stop-color="#eeeff0"/><stop offset="1" stop-color="#d9dbdc" stop-opacity="0"/></linearGradient><linearGradient id="linear-gradient-8" x1="-50.04" y1="303.98" x2="55.08" y2="217.64" gradientUnits="userSpaceOnUse"><stop offset="0.23" stop-color="#f9fbfb"/><stop offset="0.4" stop-color="#f5f7f7"/><stop offset="0.58" stop-color="#e9ecec"/><stop offset="0.77" stop-color="#d4d8d9"/><stop offset="0.95" stop-color="#b8bebf"/><stop offset="1" stop-color="#aeb4b6"/></linearGradient></defs><title>Banner_About_MB</title><polygon class="cls-1" points="330.76 402.62 320.34 410.48 219.27 325.67 229.69 317.81 330.76 402.62"/><path class="cls-2" d="M142.89,393.92l-29.31,17.45a2.61,2.61,0,0,0-1.29,2.25v31.79a2.59,2.59,0,0,0,1.31,2.26l27.5,15.89a2.62,2.62,0,0,0,2.64,0L173,446.09a2.61,2.61,0,0,0,1.28-2.24l.08-31.48a2.62,2.62,0,0,0-1.29-2.26l-27.5-16.19A2.62,2.62,0,0,0,142.89,393.92Z"/><polygon class="cls-3" points="62.3 489.3 72.72 497.17 124.84 454.35 113.12 447.58 62.3 489.3"/><path class="cls-4" d="M31.77,473.86l-67.06,39.93a6,6,0,0,0-2.94,5.15v72.73a6,6,0,0,0,3,5.17l62.92,36.33a6,6,0,0,0,6,0l66.88-39.92a6,6,0,0,0,2.94-5.13l.17-72a6,6,0,0,0-2.94-5.16L37.83,473.86A6,6,0,0,0,31.77,473.86Z"/><path class="cls-5" d="M61.88,25.05,32.57,42.51a2.6,2.6,0,0,0-1.29,2.25V76.55a2.6,2.6,0,0,0,1.31,2.26l27.5,15.88a2.61,2.61,0,0,0,2.63,0L92,77.23A2.61,2.61,0,0,0,93.24,75l.08-31.48A2.62,2.62,0,0,0,92,41.25L64.53,25.06A2.6,2.6,0,0,0,61.88,25.05Z"/><rect class="cls-6" x="350.39" y="484.26" width="13.39" height="125.74"/><polygon class="cls-7" points="150.48 150.52 170.05 155.76 305.66 96.37 296.09 86.8 150.48 150.52"/><path class="cls-8" d="M142.89,125,113.58,142.4a2.61,2.61,0,0,0-1.29,2.25v31.79a2.59,2.59,0,0,0,1.31,2.26l27.5,15.88a2.6,2.6,0,0,0,2.64,0L173,177.12a2.61,2.61,0,0,0,1.28-2.24l.08-31.48a2.62,2.62,0,0,0-1.29-2.26L145.54,125A2.62,2.62,0,0,0,142.89,125Z"/><path class="cls-5" d="M351.92,19.54,284.86,59.47a6,6,0,0,0-2.94,5.15v72.73a6,6,0,0,0,3,5.18l62.92,36.33a6,6,0,0,0,6,0l66.88-39.93a6,6,0,0,0,2.94-5.13l.17-72a6,6,0,0,0-2.94-5.16L358,19.54A6,6,0,0,0,351.92,19.54Z"/><path class="cls-9" d="M244.33,233.75l-67.06,39.94a6,6,0,0,0-2.94,5.14v72.74a6,6,0,0,0,3,5.17l62.92,36.33a6,6,0,0,0,6,0l66.88-39.93a6,6,0,0,0,2.94-5.13l.17-72a6,6,0,0,0-2.94-5.16l-62.93-37.05A6,6,0,0,0,244.33,233.75Z"/><polygon class="cls-10" points="371.13 403.5 381.55 411.36 446.83 358.3 436.41 350.43 371.13 403.5"/><path class="cls-5" d="M356.44,388.44,311.85,415a4,4,0,0,0-2,3.42v48.37a4,4,0,0,0,2,3.44l41.85,24.17a4,4,0,0,0,4,0l44.48-26.56a4,4,0,0,0,2-3.41l.11-47.89a4,4,0,0,0-1.95-3.43l-41.86-24.65A4,4,0,0,0,356.44,388.44Z"/><path class="cls-11" d="M6.73,222.22l-29.31,17.46a2.59,2.59,0,0,0-1.29,2.25v31.79A2.62,2.62,0,0,0-22.56,276l27.5,15.88a2.65,2.65,0,0,0,2.64,0l29.23-17.46a2.61,2.61,0,0,0,1.28-2.24l.08-31.48a2.61,2.61,0,0,0-1.29-2.25l-27.5-16.2A2.62,2.62,0,0,0,6.73,222.22Z"/></svg>