<svg id="Layer_1" data-name="Layer 1" xmlns="http://www.w3.org/2000/svg" xmlns:xlink="http://www.w3.org/1999/xlink" viewBox="0 0 376 208"><defs><style>.cls-1{opacity:0.18;fill:url(#linear-gradient);}.cls-14,.cls-2,.cls-3,.cls-9{opacity:0.38;}.cls-2{fill:url(#linear-gradient-2);}.cls-3{fill:url(#linear-gradient-3);}.cls-4{fill:#9ff5d9;}.cls-5{fill:#53edbb;}.cls-6{fill:url(#linear-gradient-4);}.cls-7{fill:url(#linear-gradient-5);}.cls-8{fill:#d1faed;}.cls-9{fill:url(#linear-gradient-6);}.cls-10{opacity:0.68;fill:url(#linear-gradient-7);}.cls-11{fill:url(#linear-gradient-8);}.cls-12{fill:url(#linear-gradient-9);}.cls-13{fill:#02e49b;}.cls-14{fill:url(#linear-gradient-10);}.cls-15{fill:url(#linear-gradient-11);}</style><linearGradient id="linear-gradient" x1="-1550.18" y1="134.91" x2="-1465.97" y2="185.36" gradientTransform="matrix(-1, 0, 0, 1, -1274.56, 0)" gradientUnits="userSpaceOnUse"><stop offset="0" stop-color="#ebfdf7"/><stop offset="1" stop-color="#9ff5d9"/></linearGradient><linearGradient id="linear-gradient-2" x1="341.67" y1="83.78" x2="339.89" y2="154.64" gradientTransform="matrix(1, 0, 0, 1, 0, 0)" xlink:href="#linear-gradient"/><linearGradient id="linear-gradient-3" x1="289.12" y1="131.56" x2="338.6" y2="161.2" gradientTransform="matrix(1, 0, 0, 1, 0, 0)" xlink:href="#linear-gradient"/><linearGradient id="linear-gradient-4" x1="307.84" y1="105.6" x2="249.75" y2="159.82" gradientUnits="userSpaceOnUse"><stop offset="0.04" stop-color="#f9fbfb"/><stop offset="0.33" stop-color="#f6f8f8"/><stop offset="0.53" stop-color="#edf0f0"/><stop offset="0.7" stop-color="#dde1e2"/><stop offset="0.86" stop-color="#c7cccd"/><stop offset="1" stop-color="#aeb4b6"/></linearGradient><linearGradient id="linear-gradient-5" x1="365.63" y1="56.58" x2="307.54" y2="110.8" xlink:href="#linear-gradient-4"/><linearGradient id="linear-gradient-6" x1="46.12" y1="85.04" x2="111.5" y2="124.02" gradientTransform="matrix(1, 0, 0, 1, 0, 0)" xlink:href="#linear-gradient"/><linearGradient id="linear-gradient-7" x1="8.09" y1="22.23" x2="84.17" y2="67.6" gradientTransform="matrix(1, 0, 0, 1, 0, 0)" xlink:href="#linear-gradient"/><linearGradient id="linear-gradient-8" x1="36.3" y1="-1.12" x2="-28.43" y2="38.44" xlink:href="#linear-gradient-4"/><linearGradient id="linear-gradient-9" x1="67.24" y1="59.93" x2="9.15" y2="114.15" xlink:href="#linear-gradient-4"/><linearGradient id="linear-gradient-10" x1="-1095.32" y1="54.29" x2="-986.36" y2="119.27" gradientTransform="matrix(-1, 0, 0, 1, -927.31, 0)" xlink:href="#linear-gradient"/><linearGradient id="linear-gradient-11" x1="191.94" y1="31.17" x2="133.85" y2="85.39" xlink:href="#linear-gradient-4"/></defs><title>Banner_Contributor_MB</title><path class="cls-1" d="M267.58,118.83l16.58,9.87a1.47,1.47,0,0,1,.73,1.28v18a1.47,1.47,0,0,1-.74,1.28l-78.91,49.63a1.5,1.5,0,0,1-1.49,0L187.21,189a1.5,1.5,0,0,1-.72-1.27l0-17.81a1.44,1.44,0,0,1,.72-1.27l78.92-49.81A1.47,1.47,0,0,1,267.58,118.83Z"/><rect class="cls-2" x="323.23" y="83.34" width="35.09" height="72.14"/><path class="cls-3" d="M300.29,118.83l-16.58,9.87A1.48,1.48,0,0,0,283,130v18a1.48,1.48,0,0,0,.73,1.28L323.5,172.3a1.5,1.5,0,0,0,1.49,0l16.54-9.87a1.48,1.48,0,0,0,.72-1.27l.05-17.81a1.47,1.47,0,0,0-.73-1.27l-39.78-23.24A1.49,1.49,0,0,0,300.29,118.83Z"/><path class="cls-4" d="M375.63,162.31l-16.58,9.87a1.49,1.49,0,0,0-.73,1.28v18a1.49,1.49,0,0,0,.74,1.28l15.56,9a1.47,1.47,0,0,0,1.49,0l16.54-9.88c.45-.26.72,4.41.73,3.89l0-17.81c0-.52-.28-6.16-.73-6.43l-15.56-9.16A1.49,1.49,0,0,0,375.63,162.31Z"/><path class="cls-5" d="M340.54,142.41,324,152.29a1.47,1.47,0,0,0-.73,1.27v18a1.47,1.47,0,0,0,.74,1.28l15.56,9a1.5,1.5,0,0,0,1.49,0l16.53-9.87a1.49,1.49,0,0,0,.73-1.27l0-17.81a1.44,1.44,0,0,0-.72-1.27L342,142.41A1.49,1.49,0,0,0,340.54,142.41Z"/><path class="cls-6" d="M282.75,109.13,266.17,119a1.47,1.47,0,0,0-.73,1.27v18a1.49,1.49,0,0,0,.74,1.28l15.56,9a1.47,1.47,0,0,0,1.49,0l16.53-9.87a1.49,1.49,0,0,0,.73-1.27l0-17.81a1.46,1.46,0,0,0-.72-1.27l-15.56-9.16A1.44,1.44,0,0,0,282.75,109.13Z"/><path class="cls-4" d="M259.63,188.19l-16.58,9.87a1.49,1.49,0,0,0-.73,1.28v18a1.47,1.47,0,0,0,.74,1.28l15.56,9a1.47,1.47,0,0,0,1.49,0l16.54-9.88a1.47,1.47,0,0,0,.72-1.27l0-17.8a1.46,1.46,0,0,0-.72-1.28l-15.56-9.16A1.49,1.49,0,0,0,259.63,188.19Z"/><path class="cls-7" d="M340.54,60.1,324,70a1.49,1.49,0,0,0-.73,1.28v18a1.47,1.47,0,0,0,.74,1.28l15.56,9a1.47,1.47,0,0,0,1.49,0l16.53-9.88a1.46,1.46,0,0,0,.73-1.26l0-17.81a1.46,1.46,0,0,0-.72-1.28L342,60.1A1.49,1.49,0,0,0,340.54,60.1Z"/><path class="cls-8" d="M203.75,159l-16.58,9.88a1.46,1.46,0,0,0-.72,1.27v18a1.48,1.48,0,0,0,.73,1.28l15.56,9a1.5,1.5,0,0,0,1.49,0l16.54-9.87a1.49,1.49,0,0,0,.73-1.27l0-17.81a1.5,1.5,0,0,0-.73-1.28L205.25,159A1.49,1.49,0,0,0,203.75,159Z"/><path class="cls-9" d="M57.17,72.17,40.59,82a1.49,1.49,0,0,0-.73,1.27v18a1.48,1.48,0,0,0,.74,1.28l39.78,23a1.47,1.47,0,0,0,1.49,0l16.53-9.88a1.46,1.46,0,0,0,.73-1.26l0-17.81a1.48,1.48,0,0,0-.72-1.28L58.67,72.17A1.44,1.44,0,0,0,57.17,72.17Z"/><path class="cls-10" d="M18.12,9,1.54,18.89a1.47,1.47,0,0,0-.73,1.27v18a1.47,1.47,0,0,0,.74,1.28L51,67.74a1.5,1.5,0,0,0,1.49,0L69,57.86a1.49,1.49,0,0,0,.73-1.27l0-17.81a1.5,1.5,0,0,0-.73-1.28L19.61,9A1.47,1.47,0,0,0,18.12,9Z"/><path class="cls-11" d="M2.21-.12-14.37,9.76A1.47,1.47,0,0,0-15.1,11V29a1.49,1.49,0,0,0,.74,1.28l15.56,9a1.5,1.5,0,0,0,1.49,0L19.23,29.4A1.51,1.51,0,0,0,20,28.13l0-17.81A1.5,1.5,0,0,0,19.27,9L3.71-.12A1.49,1.49,0,0,0,2.21-.12Z"/><path class="cls-12" d="M42.15,63.45,25.57,73.33a1.47,1.47,0,0,0-.73,1.27v18a1.46,1.46,0,0,0,.74,1.27l15.56,9a1.5,1.5,0,0,0,1.49,0L59.17,93a1.48,1.48,0,0,0,.72-1.27l0-17.81a1.47,1.47,0,0,0-.73-1.27L43.65,63.45A1.49,1.49,0,0,0,42.15,63.45Z"/><path class="cls-13" d="M60.07,33,43.49,42.9a1.46,1.46,0,0,0-.73,1.27v18a1.49,1.49,0,0,0,.74,1.28l15.56,9a1.45,1.45,0,0,0,1.48,0l16.54-9.87a1.49,1.49,0,0,0,.73-1.27l0-17.81a1.45,1.45,0,0,0-.73-1.27L61.56,33A1.43,1.43,0,0,0,60.07,33Z"/><path class="cls-14" d="M160.94,39.68l16.59,9.87a1.48,1.48,0,0,1,.72,1.27V66.66a1.46,1.46,0,0,1-.74,1.27L98.07,116.16a1.5,1.5,0,0,1-1.49,0l-15.37-9.87a1.49,1.49,0,0,1-.73-1.27l0-17.81a1.48,1.48,0,0,1,.73-1.28l78.28-46.24A1.47,1.47,0,0,1,160.94,39.68Z"/><path class="cls-8" d="M81.39,86.24,64.81,96.11a1.49,1.49,0,0,0-.73,1.28v18a1.47,1.47,0,0,0,.74,1.28l15.56,9a1.47,1.47,0,0,0,1.49,0l16.53-9.88a1.46,1.46,0,0,0,.73-1.26l0-17.81a1.48,1.48,0,0,0-.72-1.28L82.88,86.24A1.47,1.47,0,0,0,81.39,86.24Z"/><path class="cls-15" d="M166.85,34.69l-16.58,9.88a1.47,1.47,0,0,0-.73,1.27v18a1.47,1.47,0,0,0,.74,1.28l15.56,9a1.5,1.5,0,0,0,1.49,0l16.54-9.87a1.48,1.48,0,0,0,.72-1.27l0-17.81a1.5,1.5,0,0,0-.73-1.28l-15.56-9.16A1.49,1.49,0,0,0,166.85,34.69Z"/></svg>