<svg viewBox="0 0 1440 525" xmlns="http://www.w3.org/2000/svg" xmlns:xlink="http://www.w3.org/1999/xlink"><linearGradient id="a" gradientUnits="userSpaceOnUse" x1="443.02" x2="320.54" y1="344.11" y2="239.36"><stop offset="0" stop-color="#d9dbdc" stop-opacity="0"/><stop offset="1" stop-color="#eeeff0"/></linearGradient><linearGradient id="b" gradientUnits="userSpaceOnUse" x1="147.63" x2="73.29" y1="310.81" y2="373.32"><stop offset=".18" stop-color="#d9dbdc" stop-opacity="0"/><stop offset="1" stop-color="#eeeff0"/></linearGradient><linearGradient id="c" gradientUnits="userSpaceOnUse" x1="160.22" x2="9.86" y1="299.62" y2="466.87"><stop offset="0" stop-color="#aeb4b6"/><stop offset=".01" stop-color="#afb5b7"/><stop offset=".39" stop-color="#d7dbdc"/><stop offset=".69" stop-color="#f0f2f3"/><stop offset=".87" stop-color="#f9fbfb"/></linearGradient><linearGradient id="d" gradientUnits="userSpaceOnUse" x1="464.89" x2="464.89" y1="419.49" y2="478.61"><stop offset="0" stop-color="#eeeff0"/><stop offset=".12" stop-color="#e9eaeb" stop-opacity=".75"/><stop offset=".24" stop-color="#e4e5e6" stop-opacity=".52"/><stop offset=".36" stop-color="#e0e2e3" stop-opacity=".34"/><stop offset=".47" stop-color="#dddfe0" stop-opacity=".19"/><stop offset=".57" stop-color="#dbddde" stop-opacity=".08"/><stop offset=".67" stop-color="#d9dbdc" stop-opacity=".02"/><stop offset=".75" stop-color="#d9dbdc" stop-opacity="0"/></linearGradient><linearGradient id="e" gradientTransform="matrix(-.18120576 .9834452 -.9834452 -.18120576 705.64 233.54)" gradientUnits="userSpaceOnUse" x1="421.66" x2="113.35" y1="377.75" y2="438.56"><stop offset="0" stop-color="#d9dbdc" stop-opacity="0"/><stop offset=".15" stop-color="#d9dbdc" stop-opacity=".01"/><stop offset=".28" stop-color="#dadcdd" stop-opacity=".06"/><stop offset=".4" stop-color="#dcdedf" stop-opacity=".14"/><stop offset=".52" stop-color="#dee0e1" stop-opacity=".25"/><stop offset=".65" stop-color="#e1e3e4" stop-opacity=".38"/><stop offset=".76" stop-color="#e5e6e7" stop-opacity=".56"/><stop offset=".88" stop-color="#e9eaeb" stop-opacity=".76"/><stop offset=".99" stop-color="#eeeff0" stop-opacity=".99"/><stop offset="1" stop-color="#eeeff0"/></linearGradient><linearGradient id="f" gradientTransform="matrix(.96592583 .25881905 -.25881905 .96592583 73.77 -292.12)" gradientUnits="userSpaceOnUse" x1="1307.23" x2="1134.6" y1="229.67" y2="375.04"><stop offset="0" stop-color="#eeeff0"/><stop offset=".82" stop-color="#d9dbdc" stop-opacity="0"/></linearGradient><linearGradient id="g" gradientUnits="userSpaceOnUse" x1="1457.22" x2="1334.67" y1="476.45" y2="371.78"><stop offset="0" stop-color="#eeeff0"/><stop offset="1" stop-color="#d9dbdc" stop-opacity="0"/></linearGradient><linearGradient id="h" gradientTransform="matrix(.97 .26 -.26 .97 28.85 -271.54)" x1="1198.14" x2="1024.8" xlink:href="#f" y1="36.74" y2="182.71"/><linearGradient id="i" gradientUnits="userSpaceOnUse" x1="339.94" x2="186.77" y1="87.7" y2="275.78"><stop offset=".2" stop-color="#f9fbfb"/><stop offset=".49" stop-color="#f7f9f9"/><stop offset=".65" stop-color="#eff1f2"/><stop offset=".77" stop-color="#e1e5e5"/><stop offset=".88" stop-color="#ced2d4"/><stop offset=".98" stop-color="#b6bbbd"/><stop offset="1" stop-color="#aeb4b6"/></linearGradient><linearGradient id="j" gradientTransform="matrix(-1 0 0 1 2123.42 0)" x1="1645.65" x2="1566.59" xlink:href="#g" y1="341.45" y2="273.93"/><linearGradient id="k" gradientUnits="userSpaceOnUse" x1="-63.21" x2="56.13" y1="160.44" y2="62.42"><stop offset=".23" stop-color="#f9fbfb"/><stop offset=".4" stop-color="#f5f7f7"/><stop offset=".58" stop-color="#e9ecec"/><stop offset=".77" stop-color="#d4d8d9"/><stop offset=".95" stop-color="#b8bebf"/><stop offset="1" stop-color="#aeb4b6"/></linearGradient><linearGradient id="l" gradientTransform="matrix(-.18 -.98 -.98 .18 1453.23 1107.95)" gradientUnits="userSpaceOnUse" x1="1253.27" x2="891.7" y1="42.33" y2="113.55"><stop offset=".44" stop-color="#eeeff0"/><stop offset=".44" stop-color="#eeeff0" stop-opacity=".99"/><stop offset=".51" stop-color="#e9eaeb" stop-opacity=".76"/><stop offset=".57" stop-color="#e5e6e7" stop-opacity=".56"/><stop offset=".64" stop-color="#e1e3e4" stop-opacity=".38"/><stop offset=".71" stop-color="#dee0e1" stop-opacity=".25"/><stop offset=".77" stop-color="#dcdedf" stop-opacity=".14"/><stop offset=".84" stop-color="#dadcdd" stop-opacity=".06"/><stop offset=".92" stop-color="#d9dbdc" stop-opacity=".01"/><stop offset="1" stop-color="#d9dbdc" stop-opacity="0"/></linearGradient><linearGradient id="m" gradientUnits="userSpaceOnUse" x1="1217.17" x2="1107.92" y1="135.25" y2="20.38"><stop offset="0" stop-color="#aeb4b6"/><stop offset=".11" stop-color="#c2c7c8"/><stop offset=".27" stop-color="#dadede"/><stop offset=".45" stop-color="#ebeeee"/><stop offset=".64" stop-color="#f6f8f8"/><stop offset=".87" stop-color="#f9fbfb"/></linearGradient><path d="m435 326.8-11.83 8.93-114.75-96.29 11.83-8.93z" fill="url(#a)"/><path d="m155.82 262.55-33.28 19.82a3 3 0 0 0 -1.46 2.55v36.08a3 3 0 0 0 1.49 2.57l31.22 18a3 3 0 0 0 3 0l33.21-19.79a3 3 0 0 0 1.46-2.54l.08-35.74a2.94 2.94 0 0 0 -1.46-2.56l-31.22-18.39a3 3 0 0 0 -3.04 0z" fill="#02e49b"/><path d="m64.33 370.84 11.83 8.93 59.17-48.6-13.31-7.69z" fill="url(#b)"/><path d="m29.67 353.3-76.13 45.34a6.78 6.78 0 0 0 -3.34 5.84v82.58a6.77 6.77 0 0 0 3.39 5.87l71.41 41.25a6.78 6.78 0 0 0 6.84 0l75.93-45.33a6.76 6.76 0 0 0 3.33-5.82l.2-81.76a6.78 6.78 0 0 0 -3.34-5.86l-71.41-42.11a6.78 6.78 0 0 0 -6.88 0z" fill="url(#c)"/><path d="m719.46 16.4-33.27 19.81a3 3 0 0 0 -1.47 2.56v36.09a3 3 0 0 0 1.49 2.57l31.22 18a3 3 0 0 0 3 0l33.19-19.81a3 3 0 0 0 1.46-2.55l.09-35.73a3 3 0 0 0 -1.46-2.56l-31.24-18.38a3 3 0 0 0 -3.01 0z" fill="#d1faed"/><path d="m457.28 419.49h15.2v57.01h-15.2z" fill="url(#d)"/><path d="m247.79 245.25h15.63v330.51h-15.63z" fill="url(#e)" transform="matrix(-.18120576 -.9834452 .9834452 -.18120576 -101.77 736.28)"/><path d="m1057.51 360.35 22.22 5.96 153.96-67.43-10.87-10.88z" fill="url(#f)"/><path d="m1048.9 331.32-33.28 19.81a3 3 0 0 0 -1.46 2.56v36.09a3 3 0 0 0 1.48 2.57l31.23 18a3 3 0 0 0 3 0l33.19-19.81a3 3 0 0 0 1.46-2.55l.08-35.73a3 3 0 0 0 -1.46-2.56l-31.23-18.39a2.93 2.93 0 0 0 -3.01.01z" fill="#02e49b"/><path d="m1449.15 459.18-11.83 8.93-114.74-96.29 11.83-8.92z" fill="url(#g)"/><path d="m1286.2 211.65-76.12 45.35a6.78 6.78 0 0 0 -3.34 5.84v82.58a6.77 6.77 0 0 0 3.39 5.87l71.44 41.24a6.75 6.75 0 0 0 6.84 0l75.93-45.33a6.77 6.77 0 0 0 3.33-5.82l.2-81.76a6.8 6.8 0 0 0 -3.34-5.86l-71.45-42.07a6.78 6.78 0 0 0 -6.88-.04z" fill="#d1faed"/><path d="m956.27 166.75 22.22 5.96 154.66-67.74-10.87-10.87z" fill="url(#h)"/><path d="m271 80.72-76.12 45.33a6.8 6.8 0 0 0 -3.35 5.85v82.57a6.78 6.78 0 0 0 3.4 5.87l71.44 41.25a6.78 6.78 0 0 0 6.83 0l75.93-45.33a6.78 6.78 0 0 0 3.34-5.83l.2-81.75a6.8 6.8 0 0 0 -3.34-5.86l-71.47-42.1a6.78 6.78 0 0 0 -6.86 0z" fill="url(#i)"/><path d="m480.82 327.8 11.83 8.93 74.12-60.25-11.83-8.93z" fill="url(#j)"/><path d="m464.16 310.71-50.63 30.15a4.5 4.5 0 0 0 -2.22 3.88v54.92a4.5 4.5 0 0 0 2.25 3.9l47.51 27.44a4.49 4.49 0 0 0 4.55 0l50.5-30.14a4.5 4.5 0 0 0 2.21-3.88l.14-54.37a4.54 4.54 0 0 0 -2.23-3.9l-47.51-28a4.51 4.51 0 0 0 -4.57 0z" fill="#d1faed"/><path d="m1.24 67.63-33.24 19.81a3 3 0 0 0 -1.5 2.56v36.09a3 3 0 0 0 1.5 2.57l31.22 18a3 3 0 0 0 3 0l33.19-19.81a3 3 0 0 0 1.46-2.55l.08-35.74a3 3 0 0 0 -1.48-2.56l-31.22-18.37a3 3 0 0 0 -3.01 0z" fill="url(#k)"/><path d="m1174.19-112.24h15.63v387.63h-15.63z" fill="url(#l)" transform="matrix(.5 -.8660254 .8660254 .5 520.36 1064.44)"/><path d="m1367.39 124-33.28 19.81a3 3 0 0 0 -1.46 2.56v36.09a3 3 0 0 0 1.49 2.57l31.22 18a3 3 0 0 0 3 0l33.19-19.81a3 3 0 0 0 1.46-2.55l.08-35.74a3 3 0 0 0 -1.46-2.56l-31.23-18.37a3 3 0 0 0 -3.01 0z" fill="#9ff5d9"/><path d="m1152 7.08-50.63 30.15a4.5 4.5 0 0 0 -2.22 3.89v54.88a4.53 4.53 0 0 0 2.25 3.91l47.51 27.43a4.54 4.54 0 0 0 4.55 0l50.54-30.14a4.5 4.5 0 0 0 2.21-3.87l.14-54.37a4.52 4.52 0 0 0 -2.23-3.9l-47.51-28a4.51 4.51 0 0 0 -4.61.02z" fill="url(#m)"/></svg>