<svg id="Layer_1" data-name="Layer 1" xmlns="http://www.w3.org/2000/svg" xmlns:xlink="http://www.w3.org/1999/xlink" viewBox="0 0 375 533"><defs><style>.cls-1{fill:#f9fafa;}.cls-2{fill:url(#linear-gradient);}.cls-3{fill:url(#linear-gradient-2);}.cls-4{fill:url(#linear-gradient-3);}.cls-5{fill:url(#linear-gradient-4);}.cls-6{fill:url(#linear-gradient-5);}.cls-7{fill:url(#linear-gradient-6);}</style><linearGradient id="linear-gradient" x1="-3318.25" y1="6319.13" x2="-3350.73" y2="6295.27" gradientTransform="translate(-1796.5 -6343.5) rotate(-45)" gradientUnits="userSpaceOnUse"><stop offset="0" stop-color="#f9fafa"/><stop offset="1" stop-color="#d9dbdc"/></linearGradient><linearGradient id="linear-gradient-2" x1="-3343.36" y1="6275.46" x2="-3334.77" y2="6304.09" xlink:href="#linear-gradient"/><linearGradient id="linear-gradient-3" x1="-402.25" y1="756.97" x2="-435.76" y2="732.36" gradientTransform="translate(482.6 -587.1)" xlink:href="#linear-gradient"/><linearGradient id="linear-gradient-4" x1="-428.15" y1="711.92" x2="-419.29" y2="741.45" gradientTransform="translate(482.6 -587.1)" xlink:href="#linear-gradient"/><linearGradient id="linear-gradient-5" x1="-12279.49" y1="-7281.14" x2="-12328.3" y2="-7316.99" gradientTransform="translate(-13561.7 3680) rotate(135)" gradientUnits="userSpaceOnUse"><stop offset="0" stop-color="#f9fafa"/><stop offset="1" stop-color="#02e49b"/></linearGradient><linearGradient id="linear-gradient-6" x1="-12317.22" y1="-7346.76" x2="-12304.31" y2="-7303.74" xlink:href="#linear-gradient-5"/></defs><title>website module bg</title><rect class="cls-1" x="-22.5" y="-17.5" width="424" height="568"/><polygon class="cls-2" points="326.9 467.9 307.2 448.3 280.4 455.5 273.2 482.3 292.9 501.9 319.7 494.7 326.9 467.9"/><polygon class="cls-3" points="300 475.1 307.2 448.3 280.4 455.5 273.3 482.3 300 475.1"/><polygon class="cls-4" points="83.8 168.5 83.8 139.8 59 125.5 34.1 139.8 34.1 168.5 59 182.8 83.8 168.5"/><polygon class="cls-5" points="59 154.1 83.7 139.8 59 125.5 34.2 139.8 59 154.1"/><polygon class="cls-6" points="267.7 150.6 297.2 180.1 337.5 169.3 348.3 129 318.8 99.5 278.5 110.3 267.7 150.6"/><polygon class="cls-7" points="308 139.8 297.2 180.1 337.5 169.3 348.3 129 308 139.8"/></svg>