<svg id="Layer_1" data-name="Layer 1" xmlns="http://www.w3.org/2000/svg" xmlns:xlink="http://www.w3.org/1999/xlink" viewBox="0 0 375 202"><defs><style>.cls-1{fill:#f9fafa;}.cls-2,.cls-4{fill:#2b393f;}.cls-2{opacity:0.03;}.cls-3,.cls-7,.cls-8{opacity:0.5;}.cls-3{fill:url(#linear-gradient);}.cls-5{fill:#02e49b;}.cls-6{fill:#d9dbdc;}.cls-7{fill:url(#linear-gradient-2);}.cls-8{fill:url(#linear-gradient-3);}</style><linearGradient id="linear-gradient" x1="31.69" y1="-4981.54" x2="10.2" y2="-4994.38" gradientTransform="matrix(1.05, 0.5, 0.61, -0.87, 3075.3, -4213.77)" gradientUnits="userSpaceOnUse"><stop offset="0" stop-color="#fff" stop-opacity="0"/><stop offset="0.03" stop-color="#fafbfb" stop-opacity="0.12"/><stop offset="0.09" stop-color="#f2f2f3" stop-opacity="0.35"/><stop offset="0.16" stop-color="#eaebec" stop-opacity="0.55"/><stop offset="0.22" stop-color="#e4e5e6" stop-opacity="0.71"/><stop offset="0.28" stop-color="#dfe1e2" stop-opacity="0.84"/><stop offset="0.35" stop-color="#dcdedf" stop-opacity="0.93"/><stop offset="0.41" stop-color="#dadcdd" stop-opacity="0.98"/><stop offset="0.48" stop-color="#d9dbdc"/><stop offset="0.54" stop-color="#dadcdd" stop-opacity="0.98"/><stop offset="0.61" stop-color="#dcdedf" stop-opacity="0.91"/><stop offset="0.68" stop-color="#e1e2e3" stop-opacity="0.8"/><stop offset="0.76" stop-color="#e7e8e8" stop-opacity="0.64"/><stop offset="0.85" stop-color="#eeefef" stop-opacity="0.45"/><stop offset="0.93" stop-color="#f7f8f8" stop-opacity="0.21"/><stop offset="1" stop-color="#fff" stop-opacity="0"/></linearGradient><linearGradient id="linear-gradient-2" x1="305.01" y1="-4965.82" x2="328.98" y2="-4980.5" gradientTransform="matrix(0.5, 0.87, 0.87, -0.5, 4464.83, -2631.65)" gradientUnits="userSpaceOnUse"><stop offset="0" stop-color="#fff" stop-opacity="0"/><stop offset="0.06" stop-color="#f8f8f9" stop-opacity="0.18"/><stop offset="0.14" stop-color="#eff0f0" stop-opacity="0.43"/><stop offset="0.23" stop-color="#e7e8e9" stop-opacity="0.63"/><stop offset="0.31" stop-color="#e1e2e3" stop-opacity="0.79"/><stop offset="0.38" stop-color="#dddedf" stop-opacity="0.91"/><stop offset="0.45" stop-color="#dadcdd" stop-opacity="0.98"/><stop offset="0.51" stop-color="#d9dbdc"/><stop offset="0.56" stop-color="#dadcdd" stop-opacity="0.98"/><stop offset="0.63" stop-color="#dcdedf" stop-opacity="0.91"/><stop offset="0.7" stop-color="#e1e2e3" stop-opacity="0.8"/><stop offset="0.78" stop-color="#e6e8e8" stop-opacity="0.65"/><stop offset="0.86" stop-color="#eeefef" stop-opacity="0.45"/><stop offset="0.94" stop-color="#f7f7f8" stop-opacity="0.21"/><stop offset="1" stop-color="#fff" stop-opacity="0"/></linearGradient><linearGradient id="linear-gradient-3" x1="333.46" y1="-4982.73" x2="308.82" y2="-4997.74" gradientTransform="matrix(0.87, 0.5, 0.5, -0.87, 2538.05, -4336.31)" gradientUnits="userSpaceOnUse"><stop offset="0" stop-color="#fff" stop-opacity="0"/><stop offset="0.04" stop-color="#fbfbfb" stop-opacity="0.11"/><stop offset="0.13" stop-color="#f1f1f2" stop-opacity="0.38"/><stop offset="0.23" stop-color="#e8e9ea" stop-opacity="0.6"/><stop offset="0.32" stop-color="#e2e3e4" stop-opacity="0.77"/><stop offset="0.4" stop-color="#dddfe0" stop-opacity="0.9"/><stop offset="0.47" stop-color="#dadcdd" stop-opacity="0.97"/><stop offset="0.52" stop-color="#d9dbdc"/><stop offset="0.58" stop-color="#dadcdd" stop-opacity="0.98"/><stop offset="0.65" stop-color="#dcdedf" stop-opacity="0.92"/><stop offset="0.71" stop-color="#e0e2e2" stop-opacity="0.82"/><stop offset="0.78" stop-color="#e5e7e7" stop-opacity="0.68"/><stop offset="0.85" stop-color="#ecedee" stop-opacity="0.49"/><stop offset="0.93" stop-color="#f5f5f6" stop-opacity="0.27"/><stop offset="1" stop-color="#fff" stop-opacity="0.01"/><stop offset="1" stop-color="#fff" stop-opacity="0"/></linearGradient></defs><title>website module bg</title><rect class="cls-1" x="-28.3" y="-34" width="431.2" height="261.98"/><rect class="cls-2" x="-31.5" y="-31.7" width="442" height="249.52"/><rect class="cls-3" x="45.2" y="133.1" width="23" height="6.2" transform="translate(-60.5 46.6) rotate(-30)"/><path class="cls-4" d="M48.4,137.1l-7.8-4.4a2,2,0,0,0-2.1,0l-7.7,4.4a1.1,1.1,0,0,0-.4,1.5l.4.4,7.7,4.4a2,2,0,0,0,2.1,0l7.8-4.4a1.1,1.1,0,0,0,.3-1.5Z"/><path class="cls-4" d="M39,145.1a1.1,1.1,0,0,0,1.1,0l8-4.5a.4.4,0,0,1,.7.2v2.3a.5.5,0,0,1-.3.5l-8.7,4.9a.8.8,0,0,1-.9-.1l-8.6-4.7a.5.5,0,0,1-.2-.4V141a.5.5,0,0,1,.5-.5H31Z"/><path class="cls-4" d="M39,150.2a2,2,0,0,0,1.1,0l8-4.6a.4.4,0,0,1,.7.2v2.4c0,.2-.1.3-.3.4l-8.7,5c-.3.2-.6,0-.9-.1l-8.6-4.7a.8.8,0,0,1-.2-.5V146a.5.5,0,0,1,.5-.5H31Z"/><path class="cls-5" d="M79.9,116.9l-7.8-4.4a2,2,0,0,0-2.1,0l-7.7,4.4a1.1,1.1,0,0,0-.4,1.5l.4.3,7.7,4.5a2.6,2.6,0,0,0,2.1,0l7.8-4.5a1,1,0,0,0,.3-1.4Z"/><path class="cls-5" d="M70.6,124.9a.9.9,0,0,0,1,0l8-4.6a.6.6,0,0,1,.7.2v2.4c0,.2-.1.3-.3.4l-8.7,5c-.3.2-.6,0-1-.1L62,123.5a.5.5,0,0,1-.2-.4v-2.3a.5.5,0,0,1,.5-.5h.3Z"/><path class="cls-5" d="M70.6,129.9a.9.9,0,0,0,1,0l8-4.6a.6.6,0,0,1,.7.2v2.4c0,.2-.1.3-.3.4l-8.7,5c-.3.2-.6,0-1-.1L62,128.5c-.1,0-.2-.2-.2-.4v-2.3a.5.5,0,0,1,.5-.5h.3Z"/><path class="cls-6" d="M338.9,26.7l-7.2-4.1a1.7,1.7,0,0,0-1.9,0l-7.2,4.1a1.1,1.1,0,0,0-.4,1.4l.4.3,7.2,4.2a2.1,2.1,0,0,0,1.9,0l7.3-4.2a1,1,0,0,0,.3-1.3A.8.8,0,0,0,338.9,26.7Z"/><path class="cls-6" d="M330.3,34.2a.9.9,0,0,0,1,0l7.4-4.3a.4.4,0,0,1,.7.2.3.3,0,0,1,.1.2v1.9a.5.5,0,0,1-.3.5l-8.1,4.6a1,1,0,0,1-.9-.1l-7.9-4.3a.8.8,0,0,1-.2-.4V30.3c0-.2.2-.5.4-.5h.4Z"/><path class="cls-6" d="M330.3,38.8a.9.9,0,0,0,1,0l7.4-4.3a.6.6,0,0,1,.7.2v2.2c0,.2-.1.3-.3.4l-8.1,4.6a.8.8,0,0,1-.9-.1l-7.9-4.3a.5.5,0,0,1-.3-.5V35a.5.5,0,0,1,.4-.6c.2-.1.3,0,.5.1Z"/><path class="cls-5" d="M42,38.5l-7.3-4.1a1.7,1.7,0,0,0-1.9,0l-7.2,4.1a1.1,1.1,0,0,0-.4,1.4l.4.3,7.2,4.2a2.1,2.1,0,0,0,1.9,0L42,40.2a1,1,0,0,0,.3-1.3Z"/><path class="cls-5" d="M33.3,46a1.7,1.7,0,0,0,1,0l7.4-4.3a.5.5,0,0,1,.7.2v2.2a.8.8,0,0,1-.2.4l-8.1,4.6c-.3.2-.6,0-.9-.1l-7.8-4.3a.5.5,0,0,1-.3-.4V42.1a.5.5,0,0,1,.5-.5h.2Z"/><path class="cls-5" d="M33.3,50.6a.9.9,0,0,0,1,0l7.4-4.2a.5.5,0,0,1,.7.1v2.2c0,.2-.1.4-.2.4l-8.1,4.7c-.3.2-.6,0-.9-.1l-7.8-4.4c-.2,0-.3-.2-.3-.4V46.8a.5.5,0,0,1,.5-.5c.1,0,.2,0,.2.1Z"/><rect class="cls-7" x="313.6" y="117" width="5.8" height="23.68" transform="translate(46.7 338.5) rotate(-60)"/><rect class="cls-8" x="309.8" y="143" width="23.7" height="5.81" transform="translate(-29.9 180.4) rotate(-30)"/><path class="cls-6" d="M341,129.6l-7.3-4.1a1.7,1.7,0,0,0-1.9,0l-7.3,4.1a1,1,0,0,0-.3,1.4l.3.3,7.3,4.2a1.7,1.7,0,0,0,1.9,0l7.3-4.2a.9.9,0,0,0,.3-1.3C341.3,129.8,341.1,129.7,341,129.6Z"/><path class="cls-6" d="M332.3,137.1a.9.9,0,0,0,1,0l7.5-4.3a.5.5,0,0,1,.6.2.4.4,0,0,1,.1.3v1.9a.5.5,0,0,1-.2.4l-8.2,4.7a.9.9,0,0,1-.9-.1l-7.9-4.4c-.2,0-.3-.2-.3-.4v-2.1a.6.6,0,0,1,.5-.6h.3Z"/><path class="cls-6" d="M332.3,141.8a.9.9,0,0,0,1,0l7.5-4.3c.2-.2.5-.1.6.2s.1.1.1.2v2l-.2.4-8.2,4.7a.8.8,0,0,1-.9-.2l-8-4.3a.4.4,0,0,1-.2-.5v-2a.5.5,0,0,1,.3-.7c.2,0,.4,0,.5.2Z"/><path class="cls-5" d="M310.4,109.5l-7.2-4.2a2.3,2.3,0,0,0-2,0l-7.2,4.2a.9.9,0,0,0-.4,1.3.8.8,0,0,0,.4.4l7.2,4.2a2.1,2.1,0,0,0,1.9,0l7.3-4.2a.9.9,0,0,0,.4-1.3A.8.8,0,0,0,310.4,109.5Z"/><path class="cls-5" d="M301.7,117a.9.9,0,0,0,1,0l7.5-4.3c.3-.1.6-.1.7.2v2.2c0,.2-.1.3-.3.4l-8.1,4.7c-.3.2-.6,0-.9-.1l-8-4.4a.5.5,0,0,1-.2-.4v-2.2a.5.5,0,0,1,.5-.5h.2Z"/><path class="cls-5" d="M301.7,121.7a.9.9,0,0,0,1,0l7.5-4.3a.4.4,0,0,1,.7.2v2.2a.5.5,0,0,1-.3.4l-8.1,4.7a1.4,1.4,0,0,1-.9-.1l-8-4.4a.8.8,0,0,1-.2-.5v-2.1a.5.5,0,0,1,.5-.5c.1,0,.2,0,.2.1Z"/><path class="cls-4" d="M312,149.1l-7.3-4.2a2.3,2.3,0,0,0-2,0l-7.2,4.2a.9.9,0,0,0-.4,1.3.8.8,0,0,0,.4.4l7.3,4.2a2.1,2.1,0,0,0,1.9,0l7.3-4.2a1.1,1.1,0,0,0,.3-1.4Z"/><path class="cls-4" d="M303.2,156.6a.9.9,0,0,0,1,0l7.5-4.3c.3-.1.6-.1.7.2v2.2c0,.2-.1.3-.3.4l-8.1,4.7a1.4,1.4,0,0,1-.9-.1l-8-4.4a.5.5,0,0,1-.3-.5v-2.1a.5.5,0,0,1,.5-.5h.3Z"/><path class="cls-4" d="M303.2,161.3a.9.9,0,0,0,1,0l7.5-4.3a.4.4,0,0,1,.7.2v2.2a.5.5,0,0,1-.3.4l-8.1,4.7a1,1,0,0,1-.9-.2l-8-4.4c-.2,0-.3-.2-.3-.4v-2.1a.5.5,0,0,1,.5-.5h.3Z"/></svg>