<svg viewBox="0 0 376 208" xmlns="http://www.w3.org/2000/svg" xmlns:xlink="http://www.w3.org/1999/xlink"><linearGradient id="a" gradientTransform="matrix(-1 0 0 1 -1274.56 0)" gradientUnits="userSpaceOnUse" x1="-1550.18" x2="-1465.97" y1="134.91" y2="185.36"><stop offset="0" stop-color="#ebfdf7"/><stop offset="1" stop-color="#9ff5d9"/></linearGradient><linearGradient id="b" x1="341.67" x2="339.89" xlink:href="#a" y1="83.78" y2="154.64"/><linearGradient id="c" x1="289.12" x2="338.6" xlink:href="#a" y1="131.56" y2="161.2"/><linearGradient id="d" gradientUnits="userSpaceOnUse" x1="307.84" x2="249.75" y1="105.6" y2="159.82"><stop offset=".04" stop-color="#f9fbfb"/><stop offset=".33" stop-color="#f6f8f8"/><stop offset=".53" stop-color="#edf0f0"/><stop offset=".7" stop-color="#dde1e2"/><stop offset=".86" stop-color="#c7cccd"/><stop offset="1" stop-color="#aeb4b6"/></linearGradient><linearGradient id="e" x1="365.63" x2="307.54" xlink:href="#d" y1="56.58" y2="110.8"/><linearGradient id="f" x1="46.12" x2="111.5" xlink:href="#a" y1="85.04" y2="124.02"/><linearGradient id="g" x1="8.09" x2="84.17" xlink:href="#a" y1="22.23" y2="67.6"/><linearGradient id="h" x1="36.3" x2="-28.43" xlink:href="#d" y1="-1.12" y2="38.44"/><linearGradient id="i" x1="67.24" x2="9.15" xlink:href="#d" y1="59.93" y2="114.15"/><linearGradient id="j" gradientTransform="matrix(-1 0 0 1 -927.31 0)" x1="-1095.32" x2="-986.36" xlink:href="#a" y1="54.29" y2="119.27"/><linearGradient id="k" x1="191.94" x2="133.85" xlink:href="#d" y1="31.17" y2="85.39"/><path d="m267.58 118.83 16.58 9.87a1.47 1.47 0 0 1 .73 1.28v18a1.47 1.47 0 0 1 -.74 1.28l-78.91 49.63a1.5 1.5 0 0 1 -1.49 0l-16.54-9.89a1.5 1.5 0 0 1 -.72-1.27v-17.81a1.44 1.44 0 0 1 .72-1.27l78.92-49.81a1.47 1.47 0 0 1 1.45-.01z" fill="url(#a)" opacity=".18"/><path d="m323.23 83.34h35.09v72.14h-35.09z" fill="url(#b)" opacity=".38"/><path d="m300.29 118.83-16.58 9.87a1.48 1.48 0 0 0 -.71 1.3v18a1.48 1.48 0 0 0 .73 1.28l39.77 23.02a1.5 1.5 0 0 0 1.49 0l16.54-9.87a1.48 1.48 0 0 0 .72-1.27l.05-17.81a1.47 1.47 0 0 0 -.73-1.27l-39.78-23.24a1.49 1.49 0 0 0 -1.5-.01z" fill="url(#c)" opacity=".38"/><path d="m375.63 162.31-16.58 9.87a1.49 1.49 0 0 0 -.73 1.28v18a1.49 1.49 0 0 0 .74 1.28l15.56 9a1.47 1.47 0 0 0 1.49 0l16.54-9.88c.45-.26.72 4.41.73 3.89v-17.81c0-.52-.28-6.16-.73-6.43l-15.56-9.16a1.49 1.49 0 0 0 -1.46-.04z" fill="#9ff5d9"/><path d="m340.54 142.41-16.54 9.88a1.47 1.47 0 0 0 -.73 1.27v18a1.47 1.47 0 0 0 .74 1.28l15.56 9a1.5 1.5 0 0 0 1.49 0l16.53-9.87a1.49 1.49 0 0 0 .73-1.27v-17.81a1.44 1.44 0 0 0 -.72-1.27l-15.6-9.21a1.49 1.49 0 0 0 -1.46 0z" fill="#53edbb"/><path d="m282.75 109.13-16.58 9.87a1.47 1.47 0 0 0 -.73 1.27v18a1.49 1.49 0 0 0 .74 1.28l15.56 9a1.47 1.47 0 0 0 1.49 0l16.53-9.87a1.49 1.49 0 0 0 .73-1.27v-17.81a1.46 1.46 0 0 0 -.72-1.27l-15.56-9.16a1.44 1.44 0 0 0 -1.46-.04z" fill="url(#d)"/><path d="m259.63 188.19-16.58 9.87a1.49 1.49 0 0 0 -.73 1.28v18a1.47 1.47 0 0 0 .74 1.28l15.56 9a1.47 1.47 0 0 0 1.49 0l16.54-9.88a1.47 1.47 0 0 0 .72-1.27v-17.8a1.46 1.46 0 0 0 -.72-1.28l-15.56-9.16a1.49 1.49 0 0 0 -1.46-.04z" fill="#9ff5d9"/><path d="m340.54 60.1-16.54 9.9a1.49 1.49 0 0 0 -.73 1.28v18a1.47 1.47 0 0 0 .74 1.28l15.56 9a1.47 1.47 0 0 0 1.49 0l16.53-9.88a1.46 1.46 0 0 0 .73-1.26v-17.81a1.46 1.46 0 0 0 -.72-1.28l-15.6-9.23a1.49 1.49 0 0 0 -1.46 0z" fill="url(#e)"/><path d="m203.75 159-16.58 9.88a1.46 1.46 0 0 0 -.72 1.27v18a1.48 1.48 0 0 0 .73 1.28l15.56 9a1.5 1.5 0 0 0 1.49 0l16.54-9.87a1.49 1.49 0 0 0 .73-1.27v-17.81a1.5 1.5 0 0 0 -.73-1.28l-15.52-9.2a1.49 1.49 0 0 0 -1.5 0z" fill="#d1faed"/><path d="m57.17 72.17-16.58 9.83a1.49 1.49 0 0 0 -.73 1.27v18a1.48 1.48 0 0 0 .74 1.28l39.78 23a1.47 1.47 0 0 0 1.49 0l16.53-9.88a1.46 1.46 0 0 0 .73-1.26v-17.81a1.48 1.48 0 0 0 -.72-1.28l-39.74-23.15a1.44 1.44 0 0 0 -1.5 0z" fill="url(#f)" opacity=".38"/><path d="m18.12 9-16.58 9.89a1.47 1.47 0 0 0 -.73 1.27v18a1.47 1.47 0 0 0 .74 1.28l49.45 28.3a1.5 1.5 0 0 0 1.49 0l16.51-9.88a1.49 1.49 0 0 0 .73-1.27v-17.81a1.5 1.5 0 0 0 -.73-1.28l-49.39-28.5a1.47 1.47 0 0 0 -1.49 0z" fill="url(#g)" opacity=".68"/><path d="m2.21-.12-16.58 9.88a1.47 1.47 0 0 0 -.73 1.24v18a1.49 1.49 0 0 0 .74 1.28l15.56 9a1.5 1.5 0 0 0 1.49 0l16.54-9.88a1.51 1.51 0 0 0 .77-1.27v-17.81a1.5 1.5 0 0 0 -.73-1.32l-15.56-9.12a1.49 1.49 0 0 0 -1.5 0z" fill="url(#h)"/><path d="m42.15 63.45-16.58 9.88a1.47 1.47 0 0 0 -.73 1.27v18a1.46 1.46 0 0 0 .74 1.27l15.56 9a1.5 1.5 0 0 0 1.49 0l16.54-9.87a1.48 1.48 0 0 0 .72-1.27v-17.81a1.47 1.47 0 0 0 -.73-1.27l-15.51-9.2a1.49 1.49 0 0 0 -1.5 0z" fill="url(#i)"/><path d="m60.07 33-16.58 9.9a1.46 1.46 0 0 0 -.73 1.27v18a1.49 1.49 0 0 0 .74 1.28l15.56 9a1.45 1.45 0 0 0 1.48 0l16.54-9.87a1.49 1.49 0 0 0 .73-1.27v-17.81a1.45 1.45 0 0 0 -.73-1.27l-15.52-9.23a1.43 1.43 0 0 0 -1.49 0z" fill="#02e49b"/><path d="m160.94 39.68 16.59 9.87a1.48 1.48 0 0 1 .72 1.27v15.84a1.46 1.46 0 0 1 -.74 1.27l-79.44 48.23a1.5 1.5 0 0 1 -1.49 0l-15.37-9.87a1.49 1.49 0 0 1 -.73-1.27v-17.81a1.48 1.48 0 0 1 .73-1.28l78.28-46.24a1.47 1.47 0 0 1 1.45-.01z" fill="url(#j)" opacity=".38"/><path d="m81.39 86.24-16.58 9.87a1.49 1.49 0 0 0 -.73 1.28v18a1.47 1.47 0 0 0 .74 1.28l15.56 9a1.47 1.47 0 0 0 1.49 0l16.53-9.88a1.46 1.46 0 0 0 .73-1.26v-17.81a1.48 1.48 0 0 0 -.72-1.28l-15.53-9.2a1.47 1.47 0 0 0 -1.49 0z" fill="#d1faed"/><path d="m166.85 34.69-16.58 9.88a1.47 1.47 0 0 0 -.73 1.27v18a1.47 1.47 0 0 0 .74 1.28l15.56 9a1.5 1.5 0 0 0 1.49 0l16.54-9.87a1.48 1.48 0 0 0 .72-1.27v-17.81a1.5 1.5 0 0 0 -.73-1.28l-15.56-9.16a1.49 1.49 0 0 0 -1.45-.04z" fill="url(#k)"/></svg>