<svg viewBox="0 0 376 610" xmlns="http://www.w3.org/2000/svg" xmlns:xlink="http://www.w3.org/1999/xlink"><linearGradient id="a" gradientUnits="userSpaceOnUse" x1="337.83" x2="229.95" y1="417.86" y2="325.6"><stop offset="0" stop-color="#d9dbdc" stop-opacity="0"/><stop offset="1" stop-color="#eeeff0"/></linearGradient><linearGradient id="b" gradientUnits="userSpaceOnUse" x1="135.67" x2="70.2" y1="436.43" y2="491.48"><stop offset=".18" stop-color="#d9dbdc" stop-opacity="0"/><stop offset="1" stop-color="#eeeff0"/></linearGradient><linearGradient id="c" gradientUnits="userSpaceOnUse" x1="146.76" x2="14.33" y1="426.57" y2="573.88"><stop offset="0" stop-color="#aeb4b6"/><stop offset=".01" stop-color="#afb5b7"/><stop offset=".39" stop-color="#d7dbdc"/><stop offset=".69" stop-color="#f0f2f3"/><stop offset=".87" stop-color="#f9fbfb"/></linearGradient><linearGradient id="d" gradientUnits="userSpaceOnUse" x1="357.09" x2="357.09" y1="484.26" y2="614.66"><stop offset="0" stop-color="#eeeff0"/><stop offset=".12" stop-color="#e9eaeb" stop-opacity=".75"/><stop offset=".24" stop-color="#e4e5e6" stop-opacity=".52"/><stop offset=".36" stop-color="#e0e2e3" stop-opacity=".34"/><stop offset=".47" stop-color="#dddfe0" stop-opacity=".19"/><stop offset=".57" stop-color="#dbddde" stop-opacity=".08"/><stop offset=".67" stop-color="#d9dbdc" stop-opacity=".02"/><stop offset=".75" stop-color="#d9dbdc" stop-opacity="0"/></linearGradient><linearGradient id="e" gradientTransform="matrix(.96592583 .25881905 -.25881905 .96592583 6.4 122.59)" gradientUnits="userSpaceOnUse" x1="312.11" x2="160.05" y1="-138.88" y2="-10.83"><stop offset="0" stop-color="#eeeff0"/><stop offset=".82" stop-color="#d9dbdc" stop-opacity="0"/></linearGradient><linearGradient id="f" gradientUnits="userSpaceOnUse" x1="305.06" x2="170.15" y1="239.9" y2="405.57"><stop offset=".2" stop-color="#f9fbfb"/><stop offset=".49" stop-color="#f7f9f9"/><stop offset=".65" stop-color="#eff1f2"/><stop offset=".77" stop-color="#e1e5e5"/><stop offset=".88" stop-color="#ced2d4"/><stop offset=".98" stop-color="#b6bbbd"/><stop offset="1" stop-color="#aeb4b6"/></linearGradient><linearGradient id="g" gradientTransform="matrix(-1 0 0 1 -1093.97 0)" gradientUnits="userSpaceOnUse" x1="-1462.4" x2="-1532.04" y1="415.53" y2="356.05"><stop offset="0" stop-color="#eeeff0"/><stop offset="1" stop-color="#d9dbdc" stop-opacity="0"/></linearGradient><linearGradient id="h" gradientUnits="userSpaceOnUse" x1="-50.04" x2="55.08" y1="303.98" y2="217.64"><stop offset=".23" stop-color="#f9fbfb"/><stop offset=".4" stop-color="#f5f7f7"/><stop offset=".58" stop-color="#e9ecec"/><stop offset=".77" stop-color="#d4d8d9"/><stop offset=".95" stop-color="#b8bebf"/><stop offset="1" stop-color="#aeb4b6"/></linearGradient><path d="m330.76 402.62-10.42 7.86-101.07-84.81 10.42-7.86z" fill="url(#a)"/><path d="m142.89 393.92-29.31 17.45a2.61 2.61 0 0 0 -1.29 2.25v31.79a2.59 2.59 0 0 0 1.31 2.26l27.5 15.89a2.62 2.62 0 0 0 2.64 0l29.26-17.47a2.61 2.61 0 0 0 1.28-2.24l.08-31.48a2.62 2.62 0 0 0 -1.29-2.26l-27.5-16.19a2.62 2.62 0 0 0 -2.68 0z" fill="#02e49b"/><path d="m62.3 489.3 10.42 7.87 52.12-42.82-11.72-6.77z" fill="url(#b)"/><path d="m31.77 473.86-67.06 39.93a6 6 0 0 0 -2.94 5.15v72.73a6 6 0 0 0 3 5.17l62.92 36.33a6 6 0 0 0 6 0l66.88-39.92a6 6 0 0 0 2.94-5.13l.17-72a6 6 0 0 0 -2.94-5.16l-62.91-37.1a6 6 0 0 0 -6.06 0z" fill="url(#c)"/><path d="m61.88 25.05-29.31 17.46a2.6 2.6 0 0 0 -1.29 2.25v31.79a2.6 2.6 0 0 0 1.31 2.26l27.5 15.88a2.61 2.61 0 0 0 2.63 0l29.28-17.46a2.61 2.61 0 0 0 1.24-2.23l.08-31.48a2.62 2.62 0 0 0 -1.32-2.27l-27.47-16.19a2.6 2.6 0 0 0 -2.65-.01z" fill="#d1faed"/><path d="m350.39 484.26h13.39v125.74h-13.39z" fill="url(#d)"/><path d="m150.48 150.52 19.57 5.24 135.61-59.39-9.57-9.57z" fill="url(#e)"/><path d="m142.89 125-29.31 17.4a2.61 2.61 0 0 0 -1.29 2.25v31.79a2.59 2.59 0 0 0 1.31 2.26l27.5 15.88a2.6 2.6 0 0 0 2.64 0l29.26-17.46a2.61 2.61 0 0 0 1.28-2.24l.08-31.48a2.62 2.62 0 0 0 -1.29-2.26l-27.53-16.14a2.62 2.62 0 0 0 -2.65 0z" fill="#9ff5d9"/><path d="m351.92 19.54-67.06 39.93a6 6 0 0 0 -2.94 5.15v72.73a6 6 0 0 0 3 5.18l62.92 36.33a6 6 0 0 0 6 0l66.88-39.93a6 6 0 0 0 2.94-5.13l.17-72a6 6 0 0 0 -2.94-5.16l-62.89-37.1a6 6 0 0 0 -6.08 0z" fill="#d1faed"/><path d="m244.33 233.75-67.06 39.94a6 6 0 0 0 -2.94 5.14v72.74a6 6 0 0 0 3 5.17l62.92 36.33a6 6 0 0 0 6 0l66.88-39.93a6 6 0 0 0 2.94-5.13l.17-72a6 6 0 0 0 -2.94-5.16l-62.93-37.05a6 6 0 0 0 -6.04-.05z" fill="url(#f)"/><path d="m371.13 403.5 10.42 7.86 65.28-53.06-10.42-7.87z" fill="url(#g)"/><path d="m356.44 388.44-44.59 26.56a4 4 0 0 0 -2 3.42v48.37a4 4 0 0 0 2 3.44l41.85 24.17a4 4 0 0 0 4 0l44.48-26.56a4 4 0 0 0 2-3.41l.11-47.89a4 4 0 0 0 -1.95-3.43l-41.86-24.65a4 4 0 0 0 -4.04-.02z" fill="#d1faed"/><path d="m6.73 222.22-29.31 17.46a2.59 2.59 0 0 0 -1.29 2.25v31.79a2.62 2.62 0 0 0 1.31 2.28l27.5 15.88a2.65 2.65 0 0 0 2.64 0l29.23-17.46a2.61 2.61 0 0 0 1.28-2.24l.08-31.48a2.61 2.61 0 0 0 -1.29-2.25l-27.5-16.2a2.62 2.62 0 0 0 -2.65-.03z" fill="url(#h)"/></svg>