<svg id="Layer_1" data-name="Layer 1" xmlns="http://www.w3.org/2000/svg" xmlns:xlink="http://www.w3.org/1999/xlink" viewBox="0 0 86 86"><defs><style>.cls-1{fill:#d9dbdc;}.cls-2{fill:#2b393f;}.cls-3{fill:#02e49b;}.cls-4{fill:url(#linear-gradient);}.cls-5{fill:url(#linear-gradient-2);}</style><linearGradient id="linear-gradient" x1="35.97" y1="78.57" x2="18.66" y2="68.57" gradientTransform="translate(77.77 12.9) rotate(60)" gradientUnits="userSpaceOnUse"><stop offset="0" stop-color="#d9dbdc" stop-opacity="0"/><stop offset="1" stop-color="#d9dbdc"/></linearGradient><linearGradient id="linear-gradient-2" x1="-3385.13" y1="78.57" x2="-3402.45" y2="68.57" gradientTransform="matrix(0.5, -0.87, -0.87, -0.5, 1818.31, -2828.05)" xlink:href="#linear-gradient"/></defs><title>Artboard 63</title><rect class="cls-1" x="40.28" y="20.7" width="4.98" height="20.3"/><path class="cls-2" d="M42.27,5.29,35.79,9a1,1,0,0,0-.5.86v7.49a1,1,0,0,0,.5.86L42.27,22a1,1,0,0,0,1,0l6.48-3.74a1,1,0,0,0,.5-.86V9.9a1,1,0,0,0-.5-.86L43.27,5.29A1,1,0,0,0,42.27,5.29Z"/><rect class="cls-1" x="25.22" y="46.5" width="4.98" height="20.3" transform="translate(-7.48 108.97) rotate(-120)"/><rect class="cls-1" x="55.21" y="46.5" width="4.98" height="20.3" transform="translate(-20.2 78.29) rotate(-60)"/><path class="cls-3" d="M42.27,39.72l-6.48,3.74a1,1,0,0,0-.5.87v7.48a1,1,0,0,0,.5.87l6.48,3.74a1,1,0,0,0,1,0l6.48-3.74a1,1,0,0,0,.5-.87V44.33a1,1,0,0,0-.5-.87l-6.48-3.74A1,1,0,0,0,42.27,39.72Z"/><rect class="cls-4" x="25.22" y="63.66" width="4.98" height="20.3" transform="translate(-50.06 60.9) rotate(-60)"/><rect class="cls-5" x="55.21" y="63.66" width="4.98" height="20.3" transform="translate(22.63 160.68) rotate(-120)"/><path class="cls-2" d="M72.1,56.88l-6.49,3.74a1,1,0,0,0-.5.87V69a1,1,0,0,0,.5.87l6.49,3.74a1,1,0,0,0,1,0l6.48-3.74a1,1,0,0,0,.5-.87V61.49a1,1,0,0,0-.5-.87L73.1,56.88A1,1,0,0,0,72.1,56.88Z"/><path class="cls-2" d="M12.51,56.88,6,60.62a1,1,0,0,0-.5.87V69a1,1,0,0,0,.5.87l6.48,3.74a1,1,0,0,0,1,0L20,69.84a1,1,0,0,0,.5-.87V61.49a1,1,0,0,0-.5-.87l-6.49-3.74A1,1,0,0,0,12.51,56.88Z"/></svg>