<?xml version="1.0" encoding="utf-8"?>
<!-- Generator: Adobe Illustrator 23.0.6, SVG Export Plug-In . SVG Version: 6.00 Build 0)  -->
<svg version="1.1" id="Layer_1" xmlns="http://www.w3.org/2000/svg" xmlns:xlink="http://www.w3.org/1999/xlink" x="0px" y="0px"
	 viewBox="0 0 86 86" style="enable-background:new 0 0 86 86;" xml:space="preserve">
<style type="text/css">
	.st0{fill:#D9DBDC;}
	.st1{fill:#2B393F;}
	.st2{fill:#02E49B;}
	.st3{fill:url(#SVGID_1_);}
	.st4{fill:url(#SVGID_2_);}
</style>
<title>Artboard 63</title>
<rect x="40.5" y="22.4" class="st0" width="4.6" height="18.7"/>
<path class="st1" d="M42.3,8.2l-6,3.4c-0.3,0.2-0.5,0.5-0.5,0.8v6.9c0,0.3,0.2,0.6,0.5,0.8l6,3.5c0.3,0.2,0.6,0.2,0.9,0l6-3.5
	c0.3-0.2,0.5-0.5,0.5-0.8v-6.9c0-0.3-0.2-0.6-0.5-0.8l-6-3.5C42.9,8.1,42.6,8.1,42.3,8.2z"/>
<rect x="19.5" y="53.3" transform="matrix(0.866 -0.5 0.5 0.866 -23.9275 21.8952)" class="st0" width="18.7" height="4.6"/>
<rect x="54.3" y="46.2" transform="matrix(0.5 -0.866 0.866 0.5 -19.8699 76.7744)" class="st0" width="4.6" height="18.7"/>
<path class="st2" d="M42.3,40l-6,3.5c-0.3,0.2-0.5,0.5-0.5,0.8v6.9c0,0.3,0.2,0.6,0.5,0.8l6,3.5c0.3,0.2,0.6,0.2,0.9,0l6-3.5
	c0.3-0.2,0.5-0.5,0.5-0.8v-6.9c0-0.3-0.2-0.6-0.5-0.8l-6-3.5C42.9,39.8,42.6,39.8,42.3,40z"/>
<linearGradient id="SVGID_1_" gradientUnits="userSpaceOnUse" x1="36.4972" y1="12.1768" x2="20.5291" y2="21.4016" gradientTransform="matrix(1 0 0 -1 -3.275874e-03 87.9992)">
	<stop  offset="0" style="stop-color:#D9DBDC;stop-opacity:0"/>
	<stop  offset="1" style="stop-color:#D9DBDC"/>
</linearGradient>
<polygon class="st3" points="19.6,68.7 21.9,64.8 38.1,74.1 35.8,78.1 "/>
<linearGradient id="SVGID_2_" gradientUnits="userSpaceOnUse" x1="-4658.6963" y1="11.8348" x2="-4674.6733" y2="21.0595" gradientTransform="matrix(-1.0034 1.987308e-03 -1.987308e-03 -1.0034 -4615.0371 90.7454)">
	<stop  offset="0" style="stop-color:#D9DBDC;stop-opacity:0"/>
	<stop  offset="1" style="stop-color:#D9DBDC"/>
</linearGradient>
<polygon class="st4" points="49.6,78.1 47.3,74.1 63.5,64.8 65.8,68.7 "/>
<path class="st1" d="M69.8,55.8l-6,3.5c-0.3,0.2-0.5,0.5-0.5,0.8V67c0,0.3,0.2,0.6,0.5,0.8l6,3.5c0.3,0.2,0.6,0.2,0.9,0l6-3.5
	c0.3-0.2,0.5-0.5,0.5-0.8v-6.9c0-0.3-0.2-0.6-0.5-0.8l-6-3.5C70.5,55.6,70.1,55.6,69.8,55.8z"/>
<path class="st1" d="M14.9,55.8l-6,3.5c-0.3,0.2-0.5,0.5-0.5,0.8V67c0,0.3,0.2,0.6,0.5,0.8l6,3.5c0.3,0.2,0.6,0.2,0.9,0l6-3.5
	c0.3-0.2,0.5-0.5,0.5-0.8v-6.9c0-0.3-0.2-0.6-0.5-0.8l-6-3.5C15.5,55.6,15.1,55.6,14.9,55.8z"/>
</svg>
