<svg enable-background="new 0 0 86 86" viewBox="0 0 86 86" xmlns="http://www.w3.org/2000/svg" xmlns:xlink="http://www.w3.org/1999/xlink"><linearGradient id="a"><stop offset="0" stop-color="#d9dbdc" stop-opacity="0"/><stop offset="1" stop-color="#d9dbdc"/></linearGradient><linearGradient id="b" gradientTransform="matrix(1 0 0 -1 -.003276 87.9992)" gradientUnits="userSpaceOnUse" x1="36.4972" x2="20.5291" xlink:href="#a" y1="12.1768" y2="21.4016"/><linearGradient id="c" gradientTransform="matrix(-1.0034 .00198731 -.00198731 -1.0034 -4615.0371 90.7454)" gradientUnits="userSpaceOnUse" x1="-4658.6963" x2="-4674.6733" xlink:href="#a" y1="11.8348" y2="21.0595"/><path d="m40.5 22.4h4.6v18.7h-4.6z" fill="#d9dbdc"/><path d="m42.3 8.2-6 3.4c-.3.2-.5.5-.5.8v6.9c0 .3.2.6.5.8l6 3.5c.3.2.6.2.9 0l6-3.5c.3-.2.5-.5.5-.8v-6.9c0-.3-.2-.6-.5-.8l-6-3.5c-.3 0-.6 0-.9.1z" fill="#2b393f"/><path d="m19.5 53.3h18.7v4.6h-18.7z" fill="#d9dbdc" transform="matrix(.866 -.5 .5 .866 -23.9275 21.8952)"/><path d="m54.3 46.2h4.6v18.7h-4.6z" fill="#d9dbdc" transform="matrix(.5 -.866 .866 .5 -19.8699 76.7744)"/><path d="m42.3 40-6 3.5c-.3.2-.5.5-.5.8v6.9c0 .3.2.6.5.8l6 3.5c.3.2.6.2.9 0l6-3.5c.3-.2.5-.5.5-.8v-6.9c0-.3-.2-.6-.5-.8l-6-3.5c-.3-.2-.6-.2-.9 0z" fill="#02e49b"/><path d="m19.6 68.7 2.3-3.9 16.2 9.3-2.3 4z" fill="url(#b)"/><path d="m49.6 78.1-2.3-4 16.2-9.3 2.3 3.9z" fill="url(#c)"/><g fill="#2b393f"><path d="m69.8 55.8-6 3.5c-.3.2-.5.5-.5.8v6.9c0 .3.2.6.5.8l6 3.5c.3.2.6.2.9 0l6-3.5c.3-.2.5-.5.5-.8v-6.9c0-.3-.2-.6-.5-.8l-6-3.5c-.2-.2-.6-.2-.9 0z"/><path d="m14.9 55.8-6 3.5c-.3.2-.5.5-.5.8v6.9c0 .3.2.6.5.8l6 3.5c.3.2.6.2.9 0l6-3.5c.3-.2.5-.5.5-.8v-6.9c0-.3-.2-.6-.5-.8l-6-3.5c-.3-.2-.7-.2-.9 0z"/></g></svg>