<?xml version="1.0" encoding="utf-8"?>
<!-- Generator: Adobe Illustrator 23.0.6, SVG Export Plug-In . SVG Version: 6.00 Build 0)  -->
<svg version="1.1" id="Layer_1" xmlns="http://www.w3.org/2000/svg" xmlns:xlink="http://www.w3.org/1999/xlink" x="0px" y="0px"
	 viewBox="0 0 86 86" style="enable-background:new 0 0 86 86;" xml:space="preserve">
<style type="text/css">
	.st0{fill:#2B393F;}
	.st1{fill:#D9DBDC;}
	.st2{fill:#02E49B;}
</style>
<title>Artboard 64</title>
<ellipse transform="matrix(0.8149 -0.5796 0.5796 0.8149 -3.7192 28.8543)" class="st0" cx="43.3" cy="20.3" rx="11" ry="11.9"/>
<path class="st1" d="M41.7,43.1l-29.2,17c-0.4,0.2-0.5,0.7-0.3,1.1c0.1,0.1,0.2,0.2,0.3,0.3l29.2,16.9c0.5,0.3,1.2,0.3,1.7,0
	l29.2-16.9c0.4-0.2,0.5-0.7,0.3-1.1c-0.1-0.1-0.2-0.2-0.3-0.3l-29.2-17C42.9,42.8,42.3,42.8,41.7,43.1z M41.7,73.7l-21-12.1
	c-0.4-0.2-0.5-0.7-0.3-1.1c0.1-0.1,0.2-0.2,0.3-0.3l21-12.2c0.5-0.3,1.2-0.3,1.7,0l21.3,12.3c0.4,0.2,0.5,0.7,0.3,1.1
	c-0.1,0.1-0.2,0.2-0.3,0.3l-21.3,12C42.9,73.9,42.3,73.9,41.7,73.7L41.7,73.7z"/>
<ellipse transform="matrix(0.5796 -0.8149 0.8149 0.5796 -25.41 58.268)" class="st0" cx="43.8" cy="53.8" rx="14" ry="12.9"/>
<polygon class="st2" points="41.4,49.2 38.1,55.1 41.1,58.6 44.5,52.7 49.4,53.5 46.5,50.1 "/>
<polygon class="st2" points="44.7,53 42.9,56.2 45.9,59.8 49.3,53.8 "/>
<polygon class="st2" points="38.9,18.4 40.5,24 44.5,24.3 42.9,18.7 46.4,16.2 42.5,15.9 "/>
<polygon class="st2" points="43.3,18.8 44.1,21.8 48.1,22.2 46.5,16.4 "/>
</svg>
