<svg enable-background="new 0 0 86 86" viewBox="0 0 86 86" xmlns="http://www.w3.org/2000/svg"><ellipse cx="43.3" cy="20.3" fill="#2b393f" rx="11" ry="11.9" transform="matrix(.8149 -.5796 .5796 .8149 -3.7192 28.8543)"/><path d="m41.7 43.1-29.2 17c-.4.2-.5.7-.3 1.1.1.1.2.2.3.3l29.2 16.9c.5.3 1.2.3 1.7 0l29.2-16.9c.4-.2.5-.7.3-1.1-.1-.1-.2-.2-.3-.3l-29.2-17c-.5-.3-1.1-.3-1.7 0zm0 30.6-21-12.1c-.4-.2-.5-.7-.3-1.1.1-.1.2-.2.3-.3l21-12.2c.5-.3 1.2-.3 1.7 0l21.3 12.3c.4.2.5.7.3 1.1-.1.1-.2.2-.3.3l-21.3 12c-.5.2-1.1.2-1.7 0z" fill="#d9dbdc"/><ellipse cx="43.8" cy="53.8" fill="#2b393f" rx="14" ry="12.9" transform="matrix(.5796 -.8149 .8149 .5796 -25.41 58.268)"/><g fill="#02e49b"><path d="m41.4 49.2-3.3 5.9 3 3.5 3.4-5.9 4.9.8-2.9-3.4z"/><path d="m44.7 53-1.8 3.2 3 3.6 3.4-6z"/><path d="m38.9 18.4 1.6 5.6 4 .3-1.6-5.6 3.5-2.5-3.9-.3z"/><path d="m43.3 18.8.8 3 4 .4-1.6-5.8z"/></g></svg>