<svg id="Layer_1" data-name="Layer 1" xmlns="http://www.w3.org/2000/svg" xmlns:xlink="http://www.w3.org/1999/xlink" viewBox="0 0 86 86"><defs><style>.cls-1{fill:#d9dbdc;}.cls-2{fill:url(#linear-gradient);}.cls-3{fill:url(#linear-gradient-2);}.cls-4{fill:url(#linear-gradient-3);}.cls-5{fill:url(#linear-gradient-4);}.cls-6{fill:#2b393f;}.cls-7{fill:#02e49b;}</style><linearGradient id="linear-gradient" x1="35.98" y1="46.89" x2="18.71" y2="57.21" gradientTransform="matrix(-0.5, 1.05, -0.87, -0.61, 85.7, 53.63)" gradientUnits="userSpaceOnUse"><stop offset="0" stop-color="#fff" stop-opacity="0"/><stop offset="0.03" stop-color="#fafbfb" stop-opacity="0.12"/><stop offset="0.09" stop-color="#f2f2f3" stop-opacity="0.35"/><stop offset="0.16" stop-color="#eaebec" stop-opacity="0.55"/><stop offset="0.22" stop-color="#e4e5e6" stop-opacity="0.71"/><stop offset="0.28" stop-color="#dfe1e2" stop-opacity="0.84"/><stop offset="0.35" stop-color="#dcdedf" stop-opacity="0.93"/><stop offset="0.41" stop-color="#dadcdd" stop-opacity="0.98"/><stop offset="0.48" stop-color="#d9dbdc"/><stop offset="0.54" stop-color="#dadcdd" stop-opacity="0.98"/><stop offset="0.61" stop-color="#dcdedf" stop-opacity="0.91"/><stop offset="0.68" stop-color="#e1e2e3" stop-opacity="0.8"/><stop offset="0.76" stop-color="#e7e8e8" stop-opacity="0.64"/><stop offset="0.85" stop-color="#eeefef" stop-opacity="0.45"/><stop offset="0.93" stop-color="#f7f8f8" stop-opacity="0.21"/><stop offset="1" stop-color="#fff" stop-opacity="0"/></linearGradient><linearGradient id="linear-gradient-2" x1="46.59" y1="45.38" x2="67.8" y2="57.2" gradientTransform="matrix(0.5, 0.93, -0.87, 0.54, 73.86, -29.55)" gradientUnits="userSpaceOnUse"><stop offset="0" stop-color="#fff" stop-opacity="0"/><stop offset="0.08" stop-color="#f5f6f6" stop-opacity="0.25"/><stop offset="0.15" stop-color="#edeeee" stop-opacity="0.48"/><stop offset="0.23" stop-color="#e6e7e8" stop-opacity="0.67"/><stop offset="0.31" stop-color="#e0e2e3" stop-opacity="0.81"/><stop offset="0.38" stop-color="#dcdedf" stop-opacity="0.92"/><stop offset="0.45" stop-color="#dadcdd" stop-opacity="0.98"/><stop offset="0.51" stop-color="#d9dbdc"/><stop offset="0.56" stop-color="#dadcdd" stop-opacity="0.98"/><stop offset="0.63" stop-color="#dcdedf" stop-opacity="0.91"/><stop offset="0.7" stop-color="#e1e2e3" stop-opacity="0.8"/><stop offset="0.78" stop-color="#e6e8e8" stop-opacity="0.65"/><stop offset="0.86" stop-color="#eeefef" stop-opacity="0.45"/><stop offset="0.94" stop-color="#f7f7f8" stop-opacity="0.21"/><stop offset="1" stop-color="#fff" stop-opacity="0"/></linearGradient><linearGradient id="linear-gradient-3" x1="17.53" y1="27.9" x2="38.08" y2="40.48" gradientTransform="translate(11.66 74.56) rotate(-120)" gradientUnits="userSpaceOnUse"><stop offset="0" stop-color="#fff" stop-opacity="0"/><stop offset="0.06" stop-color="#f8f8f9" stop-opacity="0.18"/><stop offset="0.14" stop-color="#eff0f0" stop-opacity="0.43"/><stop offset="0.23" stop-color="#e7e8e9" stop-opacity="0.63"/><stop offset="0.31" stop-color="#e1e2e3" stop-opacity="0.79"/><stop offset="0.38" stop-color="#dddedf" stop-opacity="0.91"/><stop offset="0.45" stop-color="#dadcdd" stop-opacity="0.98"/><stop offset="0.51" stop-color="#d9dbdc"/><stop offset="0.56" stop-color="#dadcdd" stop-opacity="0.98"/><stop offset="0.63" stop-color="#dcdedf" stop-opacity="0.91"/><stop offset="0.7" stop-color="#e1e2e3" stop-opacity="0.8"/><stop offset="0.78" stop-color="#e6e8e8" stop-opacity="0.65"/><stop offset="0.86" stop-color="#eeefef" stop-opacity="0.45"/><stop offset="0.94" stop-color="#f7f7f8" stop-opacity="0.21"/><stop offset="1" stop-color="#fff" stop-opacity="0"/></linearGradient><linearGradient id="linear-gradient-4" x1="67.45" y1="28.41" x2="46.33" y2="41.27" gradientTransform="translate(-1.26 66.94) rotate(-60)" gradientUnits="userSpaceOnUse"><stop offset="0" stop-color="#fff" stop-opacity="0"/><stop offset="0.04" stop-color="#fbfbfb" stop-opacity="0.11"/><stop offset="0.13" stop-color="#f1f1f2" stop-opacity="0.38"/><stop offset="0.23" stop-color="#e8e9ea" stop-opacity="0.6"/><stop offset="0.32" stop-color="#e2e3e4" stop-opacity="0.77"/><stop offset="0.4" stop-color="#dddfe0" stop-opacity="0.9"/><stop offset="0.47" stop-color="#dadcdd" stop-opacity="0.97"/><stop offset="0.52" stop-color="#d9dbdc"/><stop offset="0.58" stop-color="#dadcdd" stop-opacity="0.98"/><stop offset="0.65" stop-color="#dcdedf" stop-opacity="0.92"/><stop offset="0.71" stop-color="#e0e2e2" stop-opacity="0.82"/><stop offset="0.78" stop-color="#e5e7e7" stop-opacity="0.68"/><stop offset="0.85" stop-color="#ecedee" stop-opacity="0.49"/><stop offset="0.93" stop-color="#f5f5f6" stop-opacity="0.27"/><stop offset="1" stop-color="#fff" stop-opacity="0.01"/><stop offset="1" stop-color="#fff" stop-opacity="0"/></linearGradient></defs><title>Artboard 54</title><rect class="cls-1" x="40.41" y="15.79" width="4.98" height="22.82"/><rect class="cls-1" x="40.41" y="50.24" width="4.98" height="19.97"/><rect class="cls-2" x="24.48" y="43.01" width="4.98" height="18.47" transform="translate(-4.8 101.72) rotate(-120)"/><rect class="cls-3" x="55.55" y="40.82" width="4.98" height="21.91" transform="translate(-15.82 76.15) rotate(-60)"/><rect class="cls-4" x="24.86" y="23.77" width="4.98" height="20.3" transform="translate(70.4 27.18) rotate(120)"/><rect class="cls-5" x="54.85" y="24.42" width="4.98" height="20.3" transform="translate(58.6 -32.38) rotate(60)"/><path class="cls-6" d="M50,38.14l-6.24-3.58a1.69,1.69,0,0,0-1.66,0l-6.24,3.58a.84.84,0,0,0,0,1.45l6.24,3.58a1.64,1.64,0,0,0,1.66,0L50,39.59A.84.84,0,0,0,50,38.14Z"/><path class="cls-6" d="M42.48,44.57a.81.81,0,0,0,.85,0l6.43-3.69a.43.43,0,0,1,.64.38v1.67a.44.44,0,0,1-.21.37l-7,4c-.26.15-.49.05-.75-.1l-6.86-3.77a.42.42,0,0,1-.22-.37V41.26a.43.43,0,0,1,.64-.38Z"/><path class="cls-6" d="M42.48,48.6a.86.86,0,0,0,.85,0l6.43-3.69a.43.43,0,0,1,.64.37V47a.44.44,0,0,1-.21.37l-7,4c-.26.15-.49,0-.75-.1l-6.86-3.77a.42.42,0,0,1-.22-.37V45.28a.43.43,0,0,1,.64-.37Z"/><path class="cls-6" d="M20.23,21.28,14,17.7a1.71,1.71,0,0,0-1.67,0L6.1,21.28a.84.84,0,0,0,0,1.45l6.23,3.58a1.66,1.66,0,0,0,1.67,0l6.23-3.58A.84.84,0,0,0,20.23,21.28Z"/><path class="cls-6" d="M12.75,27.71a.83.83,0,0,0,.86,0L20,24a.43.43,0,0,1,.64.38v1.66a.45.45,0,0,1-.22.38l-7,4c-.26.15-.49.05-.76-.1L5.9,26.6a.4.4,0,0,1-.22-.37V24.4A.43.43,0,0,1,6.33,24Z"/><path class="cls-6" d="M12.75,31.73a.83.83,0,0,0,.86,0L20,28a.43.43,0,0,1,.64.38v1.67a.45.45,0,0,1-.22.37l-7,4c-.26.15-.49,0-.76-.1L5.9,30.62a.4.4,0,0,1-.22-.37V28.42A.43.43,0,0,1,6.33,28Z"/><path class="cls-6" d="M79.88,21.28,73.64,17.7a1.69,1.69,0,0,0-1.66,0l-6.23,3.58a.84.84,0,0,0,0,1.45L72,26.31a1.64,1.64,0,0,0,1.66,0l6.24-3.58A.84.84,0,0,0,79.88,21.28Z"/><path class="cls-6" d="M72.4,27.71a.81.81,0,0,0,.85,0L79.68,24a.43.43,0,0,1,.64.38v1.66a.44.44,0,0,1-.21.38l-7,4a.71.71,0,0,1-.76-.1L65.54,26.6a.41.41,0,0,1-.21-.37V24.4A.43.43,0,0,1,66,24Z"/><path class="cls-6" d="M72.4,31.73a.81.81,0,0,0,.85,0L79.68,28a.43.43,0,0,1,.64.38v1.67a.44.44,0,0,1-.21.37l-7,4a.71.71,0,0,1-.76-.1l-6.86-3.77a.41.41,0,0,1-.21-.37V28.42A.43.43,0,0,1,66,28Z"/><path class="cls-6" d="M49.94,72.56,43.71,69a1.69,1.69,0,0,0-1.66,0l-6.24,3.58a.84.84,0,0,0,0,1.45l6.24,3.58a1.64,1.64,0,0,0,1.66,0L49.94,74A.84.84,0,0,0,49.94,72.56Z"/><path class="cls-6" d="M42.47,79a.86.86,0,0,0,.85,0l6.43-3.69a.43.43,0,0,1,.64.37v1.67a.4.4,0,0,1-.22.37l-7,4c-.26.15-.49,0-.75-.1l-6.86-3.77a.41.41,0,0,1-.22-.37V75.67A.43.43,0,0,1,36,75.3Z"/><path class="cls-6" d="M42.47,83a.86.86,0,0,0,.85,0l6.43-3.69a.43.43,0,0,1,.64.37v1.67a.4.4,0,0,1-.22.37l-7,4c-.26.15-.49,0-.75-.1L35.61,81.9a.41.41,0,0,1-.22-.37V79.69a.43.43,0,0,1,.64-.37Z"/><path class="cls-7" d="M49.93,3.8,43.7.22A1.71,1.71,0,0,0,42,.22L35.8,3.8a.84.84,0,0,0,0,1.45L42,8.83a1.71,1.71,0,0,0,1.67,0l6.23-3.58A.84.84,0,0,0,49.93,3.8Z"/><path class="cls-7" d="M42.45,10.23a.88.88,0,0,0,.86,0l6.42-3.69a.43.43,0,0,1,.65.37V8.58a.42.42,0,0,1-.22.37l-6.95,4c-.26.15-.49,0-.76-.1L35.59,9.12a.44.44,0,0,1-.21-.37V6.91A.43.43,0,0,1,36,6.54Z"/><path class="cls-7" d="M42.45,14.25a.88.88,0,0,0,.86,0l6.42-3.69a.43.43,0,0,1,.65.37V12.6a.42.42,0,0,1-.22.37l-6.95,4c-.26.15-.49,0-.76-.1l-6.86-3.77a.44.44,0,0,1-.21-.37V10.93a.43.43,0,0,1,.65-.37Z"/><path class="cls-7" d="M20.23,55.32,14,51.74a1.71,1.71,0,0,0-1.67,0L6.1,55.32a.84.84,0,0,0,0,1.45l6.23,3.58a1.71,1.71,0,0,0,1.67,0l6.23-3.58A.84.84,0,0,0,20.23,55.32Z"/><path class="cls-7" d="M12.75,61.75a.88.88,0,0,0,.86,0L20,58.06a.43.43,0,0,1,.64.37V60.1a.42.42,0,0,1-.22.37l-7,4c-.26.15-.49,0-.76-.1L5.9,60.64a.42.42,0,0,1-.22-.37V58.43a.43.43,0,0,1,.64-.37Z"/><path class="cls-7" d="M12.75,65.77a.88.88,0,0,0,.86,0L20,62.08a.43.43,0,0,1,.64.37v1.67a.42.42,0,0,1-.22.37l-7,4c-.26.15-.49,0-.76-.1L5.9,64.66a.42.42,0,0,1-.22-.37V62.45a.43.43,0,0,1,.64-.37Z"/><path class="cls-7" d="M79.87,55.32l-6.24-3.58a1.69,1.69,0,0,0-1.66,0l-6.24,3.58a.84.84,0,0,0,0,1.45L72,60.35a1.69,1.69,0,0,0,1.66,0l6.24-3.58A.84.84,0,0,0,79.87,55.32Z"/><path class="cls-7" d="M72.39,61.75a.86.86,0,0,0,.85,0l6.43-3.69a.43.43,0,0,1,.64.37V60.1a.41.41,0,0,1-.21.37l-7,4c-.26.15-.49,0-.75-.1l-6.86-3.77a.45.45,0,0,1-.22-.37V58.43a.43.43,0,0,1,.64-.37Z"/><path class="cls-7" d="M72.39,65.77a.86.86,0,0,0,.85,0l6.43-3.69a.43.43,0,0,1,.64.37v1.67a.41.41,0,0,1-.21.37l-7,4c-.26.15-.49,0-.75-.1l-6.86-3.77a.45.45,0,0,1-.22-.37V62.45a.43.43,0,0,1,.64-.37Z"/></svg>