<svg enable-background="new 0 0 86 86" viewBox="0 0 86 86" xmlns="http://www.w3.org/2000/svg" xmlns:xlink="http://www.w3.org/1999/xlink"><linearGradient id="a" gradientTransform="matrix(1.1593 -.09198728 .09327549 -1.0584 60.6827 54.92)" gradientUnits="userSpaceOnUse" x1="-20.9751" x2="-35.0665" y1="10.1491" y2="1.7285"><stop offset="0" stop-color="#fff" stop-opacity="0"/><stop offset=".03" stop-color="#fafbfb" stop-opacity=".12"/><stop offset=".09" stop-color="#f2f2f3" stop-opacity=".35"/><stop offset=".16" stop-color="#eaebec" stop-opacity=".55"/><stop offset=".22" stop-color="#e4e5e6" stop-opacity=".71"/><stop offset=".28" stop-color="#dfe1e2" stop-opacity=".84"/><stop offset=".35" stop-color="#dcdedf" stop-opacity=".93"/><stop offset=".41" stop-color="#dadcdd" stop-opacity=".98"/><stop offset=".48" stop-color="#d9dbdc"/><stop offset=".54" stop-color="#dadcdd" stop-opacity=".98"/><stop offset=".61" stop-color="#dcdedf" stop-opacity=".91"/><stop offset=".68" stop-color="#e1e2e3" stop-opacity=".8"/><stop offset=".76" stop-color="#e7e8e8" stop-opacity=".64"/><stop offset=".85" stop-color="#eeefef" stop-opacity=".45"/><stop offset=".93" stop-color="#f7f8f8" stop-opacity=".21"/><stop offset="1" stop-color="#fff" stop-opacity="0"/></linearGradient><linearGradient id="b" gradientTransform="matrix(1.0554 .03198731 -.03265373 -1.0234 44.8977 115.8835)" gradientUnits="userSpaceOnUse" x1="2.8818" x2="20.1881" y1="69.5942" y2="59.9497"><stop offset="0" stop-color="#fff" stop-opacity="0"/><stop offset=".08" stop-color="#f5f6f6" stop-opacity=".25"/><stop offset=".15" stop-color="#edeeee" stop-opacity=".48"/><stop offset=".23" stop-color="#e6e7e8" stop-opacity=".67"/><stop offset=".31" stop-color="#e0e2e3" stop-opacity=".81"/><stop offset=".38" stop-color="#dcdedf" stop-opacity=".92"/><stop offset=".45" stop-color="#dadcdd" stop-opacity=".98"/><stop offset=".51" stop-color="#d9dbdc"/><stop offset=".56" stop-color="#dadcdd" stop-opacity=".98"/><stop offset=".63" stop-color="#dcdedf" stop-opacity=".91"/><stop offset=".7" stop-color="#e1e2e3" stop-opacity=".8"/><stop offset=".78" stop-color="#e6e8e8" stop-opacity=".65"/><stop offset=".86" stop-color="#eeefef" stop-opacity=".45"/><stop offset=".94" stop-color="#f7f7f8" stop-opacity=".21"/><stop offset="1" stop-color="#fff" stop-opacity="0"/></linearGradient><linearGradient id="c" gradientTransform="matrix(1 0 0 -1 -.000849 87.9979)" gradientUnits="userSpaceOnUse" x1="22.219" x2="38.9867" y1="57.3431" y2="47.0785"><stop offset="0" stop-color="#fff" stop-opacity="0"/><stop offset=".06" stop-color="#f8f8f9" stop-opacity=".18"/><stop offset=".14" stop-color="#eff0f0" stop-opacity=".43"/><stop offset=".23" stop-color="#e7e8e9" stop-opacity=".63"/><stop offset=".31" stop-color="#e1e2e3" stop-opacity=".79"/><stop offset=".38" stop-color="#dddedf" stop-opacity=".91"/><stop offset=".45" stop-color="#dadcdd" stop-opacity=".98"/><stop offset=".51" stop-color="#d9dbdc"/><stop offset=".56" stop-color="#dadcdd" stop-opacity=".98"/><stop offset=".63" stop-color="#dcdedf" stop-opacity=".91"/><stop offset=".7" stop-color="#e1e2e3" stop-opacity=".8"/><stop offset=".78" stop-color="#e6e8e8" stop-opacity=".65"/><stop offset=".86" stop-color="#eeefef" stop-opacity=".45"/><stop offset=".94" stop-color="#f7f7f8" stop-opacity=".21"/><stop offset="1" stop-color="#fff" stop-opacity="0"/></linearGradient><linearGradient id="d" gradientTransform="matrix(1 0 0 -1 -.001743 87.9988)" gradientUnits="userSpaceOnUse" x1="62.9478" x2="45.715" y1="56.9286" y2="46.4355"><stop offset="0" stop-color="#fff" stop-opacity="0"/><stop offset=".04" stop-color="#fbfbfb" stop-opacity=".11"/><stop offset=".13" stop-color="#f1f1f2" stop-opacity=".38"/><stop offset=".23" stop-color="#e8e9ea" stop-opacity=".6"/><stop offset=".32" stop-color="#e2e3e4" stop-opacity=".77"/><stop offset=".4" stop-color="#dddfe0" stop-opacity=".9"/><stop offset=".47" stop-color="#dadcdd" stop-opacity=".97"/><stop offset=".52" stop-color="#d9dbdc"/><stop offset=".58" stop-color="#dadcdd" stop-opacity=".98"/><stop offset=".65" stop-color="#dcdedf" stop-opacity=".92"/><stop offset=".71" stop-color="#e0e2e2" stop-opacity=".82"/><stop offset=".78" stop-color="#e5e7e7" stop-opacity=".68"/><stop offset=".85" stop-color="#ecedee" stop-opacity=".49"/><stop offset=".93" stop-color="#f5f5f6" stop-opacity=".27"/><stop offset="1" stop-color="#fff" stop-opacity=".01"/><stop offset="1" stop-color="#fff" stop-opacity="0"/></linearGradient><path d="m40.9 20.8h4.1v18.6h-4.1z" fill="#d9dbdc"/><path d="m40.9 48.9h4.1v16.3h-4.1z" fill="#d9dbdc"/><path d="m24.4 56-2-3.5 13-7.5 2.1 3.5z" fill="url(#a)"/><path d="m46.5 47.4 2-3.5 15.5 8.9-2 3.6z" fill="url(#b)"/><path d="m38.4 37.9-2 3.6-14.4-8.3 2.1-3.5z" fill="url(#c)"/><path d="m60.8 30.2 2.1 3.5-14.4 8.3-2-3.5z" fill="url(#d)"/><g fill="#2b393f"><path d="m48.7 39-5.1-2.9c-.4-.2-.9-.2-1.4 0l-5 2.9c-.3.2-.4.6-.2.9.1.1.1.2.2.2l5.1 2.9c.4.2.9.2 1.4 0l5.1-2.9c.3-.2.4-.6.2-.9-.1 0-.2-.1-.3-.2z"/><path d="m42.6 44.3c.2.1.5.1.7 0l5.2-3c.2-.1.4 0 .5.1v.2 1.4c0 .1-.1.2-.2.3l-5.7 3.3c-.2.1-.4 0-.6-.1l-5.6-3.1c-.1-.1-.2-.2-.2-.3v-1.5c0-.2.2-.4.3-.4h.2z"/><path d="m42.6 47.5c.2.1.5.1.7 0l5.2-3c.2-.1.4 0 .5.1v.2 1.4c0 .1-.1.2-.2.3l-5.7 3.3c-.2.1-.4 0-.6-.1l-5.6-3.1c-.1-.1-.2-.2-.2-.3v-1.5c0-.2.2-.3.4-.3h.2z"/><path d="m24.4 25.3-5.1-2.9c-.4-.2-.9-.2-1.4 0l-5.1 2.9c-.3.2-.4.6-.2.9.1.1.1.2.2.2l5.1 2.9c.4.2.9.2 1.4 0l5.1-2.9c.3-.2.4-.6.2-.9 0-.1-.1-.2-.2-.2z"/><path d="m18.3 30.5c.2.1.5.1.7 0l5.2-3c.2-.1.4 0 .5.1v.2 1.4c0 .1-.1.2-.2.3l-5.7 3.3c-.2.1-.4 0-.6-.1l-5.5-3c-.1-.1-.2-.2-.2-.3v-1.5c0-.2.1-.4.3-.4h.2z"/><path d="m18.3 33.8c.2.1.5.1.7 0l5.2-3c.2-.1.4 0 .5.1v.2 1.4c0 .1-.1.2-.2.3l-5.6 3.2c-.2.1-.4 0-.6-.1l-5.5-3c-.1-.1-.2-.2-.2-.3v-1.5c0-.2.1-.4.3-.4h.2z"/><path d="m73.1 25.3-5.1-3c-.4-.2-.9-.2-1.4 0l-5.1 2.9c-.3.2-.4.6-.2.9.1.1.1.2.2.2l5.1 2.9c.4.2.9.2 1.4 0l5.1-2.9c.3-.2.4-.6.2-.9 0 0-.1-.1-.2-.1z"/><path d="m67 30.5c.2.1.5.1.7 0l5.2-3c.2-.1.4 0 .5.1v.2 1.4c0 .1-.1.2-.2.3l-5.7 3.3c-.2.1-.4.1-.6-.1l-5.6-3c-.1-.1-.2-.2-.2-.3v-1.5c0-.2.1-.4.3-.4.1 0 .2 0 .2.1z"/><path d="m67 33.8c.2.1.5.1.7 0l5.2-3c.2-.1.4 0 .5.1v.2 1.4c0 .1-.1.2-.2.3l-5.6 3.2c-.2.1-.4.1-.6-.1l-5.6-3.1c-.1-.1-.2-.2-.2-.3v-1.4c-.1-.2.1-.4.2-.4s.3 0 .3.1z"/><path d="m48.7 67.1-5.1-2.9c-.4-.2-.9-.2-1.4 0l-5.1 2.9c-.3.2-.4.6-.2.9.1.1.1.2.2.2l5.1 2.9c.4.2.9.2 1.4 0l5.1-2.9c.3-.2.4-.6.2-.9-.1-.1-.1-.1-.2-.2z"/><path d="m42.6 72.4c.2.1.5.1.7 0l5.2-3c.2-.1.4 0 .5.1v.2 1.3c0 .1-.1.2-.2.3l-5.7 3.3c-.2.1-.4 0-.6-.1l-5.6-3.1c-.1-.1-.2-.2-.2-.3v-1.5c0-.2.2-.4.3-.4s.1 0 .2.1z"/><path d="m42.6 75.6c.2.1.5.1.7 0l5.2-3c.2-.1.4 0 .5.1v.2 1.4c0 .1-.1.2-.2.3l-5.7 3.3c-.2.1-.4 0-.6-.1l-5.6-3c-.1-.1-.2-.2-.2-.3v-1.5c0-.2.2-.3.4-.3h.2z"/></g><path d="m48.7 11-5.1-2.9c-.4-.2-1-.2-1.4 0l-5.1 2.9c-.3.2-.4.6-.2.9.1.1.1.2.2.2l5.1 2.9c.4.2.9.2 1.4 0l5.1-2.9c.3-.2.4-.6.3-.9-.2-.1-.2-.1-.3-.2z" fill="#02e49b"/><path d="m42.6 16.2c.2.1.5.1.7 0l5.2-3c.2-.1.4 0 .5.1v.2 1.4c0 .1-.1.2-.2.3l-5.7 3.3c-.2.1-.4 0-.6-.1l-5.6-3c-.1-.1-.2-.2-.2-.3v-1.5c0-.2.2-.3.4-.3h.1z" fill="#02e49b"/><path d="m42.6 19.5c.2.1.5.1.7 0l5.2-3c.2-.1.4 0 .5.1v.2 1.4c0 .1-.1.2-.2.3l-5.7 3.3c-.2.1-.4 0-.6-.1l-5.5-3.1c-.1-.1-.2-.2-.2-.3v-1.5c0-.2.2-.4.4-.4h.2z" fill="#02e49b"/><path d="m24.4 53-5.1-2.9c-.4-.2-.9-.2-1.4 0l-5 2.9c-.3.2-.4.6-.2.9.1.1.1.2.2.2l5.1 2.9c.4.2.9.2 1.4 0l5.1-2.9c.3-.2.4-.6.2-.9-.1 0-.2-.1-.3-.2z" fill="#02e49b"/><path d="m18.3 58.3c.2.1.5.1.7 0l5.2-3c.2-.1.4 0 .5.1v.2 1.4c0 .1-.1.2-.2.3l-5.7 3.3c-.2.1-.4 0-.6-.1l-5.5-3c-.1-.1-.2-.2-.2-.3v-1.5c0-.2.2-.3.4-.3h.2z" fill="#02e49b"/><path d="m18.3 61.6c.2.1.5.1.7 0l5.2-3c.2-.1.4 0 .5.1v.2 1.4c0 .1-.1.2-.2.3l-5.7 3.3c-.2.1-.4 0-.6-.1l-5.5-3c-.1-.1-.2-.2-.2-.3v-1.5c0-.2.2-.3.4-.3h.2z" fill="#02e49b"/><path d="m73.1 53-5.1-2.9c-.4-.2-.9-.2-1.4 0l-5.1 2.9c-.3.2-.4.6-.2.9.1.1.1.2.2.2l5.1 2.9c.4.2.9.2 1.4 0l5.1-2.9c.3-.2.4-.6.2-.9 0 0-.1-.1-.2-.2z" fill="#02e49b"/><path d="m67 58.3c.2.1.5.1.7 0l5.2-3c.2-.1.4 0 .5.1v.2 1.4c0 .1-.1.2-.2.3l-5.7 3.3c-.2.1-.4 0-.6-.1l-5.6-3.1c-.1-.1-.2-.2-.2-.3v-1.5c0-.2.2-.3.4-.3h.2z" fill="#02e49b"/><path d="m67 61.6c.2.1.5.1.7 0l5.2-3c.2-.1.4 0 .5.1v.2 1.4c0 .1-.1.2-.2.3l-5.7 3.3c-.2.1-.4 0-.6-.1l-5.6-3.1c-.1-.1-.2-.2-.2-.3v-1.5c0-.2.2-.3.4-.3h.2z" fill="#02e49b"/></svg>