<?xml version="1.0" encoding="utf-8"?>
<!-- Generator: Adobe Illustrator 23.0.6, SVG Export Plug-In . SVG Version: 6.00 Build 0)  -->
<svg version="1.1" id="Layer_1" xmlns="http://www.w3.org/2000/svg" xmlns:xlink="http://www.w3.org/1999/xlink" x="0px" y="0px"
	 viewBox="0 0 86 86" style="enable-background:new 0 0 86 86;" xml:space="preserve">
<style type="text/css">
	.st0{fill:#D9DBDC;}
	.st1{fill:url(#SVGID_1_);}
	.st2{fill:url(#SVGID_2_);}
	.st3{fill:url(#SVGID_3_);}
	.st4{fill:url(#SVGID_4_);}
	.st5{fill:#2B393F;}
	.st6{fill:#02E49B;}
</style>
<title>Artboard 54</title>
<rect x="40.9" y="20.8" class="st0" width="4.1" height="18.6"/>
<rect x="40.9" y="48.9" class="st0" width="4.1" height="16.3"/>
<linearGradient id="SVGID_1_" gradientUnits="userSpaceOnUse" x1="-20.9751" y1="10.1491" x2="-35.0665" y2="1.7285" gradientTransform="matrix(1.1593 -9.198728e-02 9.327549e-02 -1.0584 60.6827 54.92)">
	<stop  offset="0" style="stop-color:#FFFFFF;stop-opacity:0"/>
	<stop  offset="3.000000e-02" style="stop-color:#FAFBFB;stop-opacity:0.12"/>
	<stop  offset="9.000000e-02" style="stop-color:#F2F2F3;stop-opacity:0.35"/>
	<stop  offset="0.16" style="stop-color:#EAEBEC;stop-opacity:0.55"/>
	<stop  offset="0.22" style="stop-color:#E4E5E6;stop-opacity:0.71"/>
	<stop  offset="0.28" style="stop-color:#DFE1E2;stop-opacity:0.84"/>
	<stop  offset="0.35" style="stop-color:#DCDEDF;stop-opacity:0.93"/>
	<stop  offset="0.41" style="stop-color:#DADCDD;stop-opacity:0.98"/>
	<stop  offset="0.48" style="stop-color:#D9DBDC"/>
	<stop  offset="0.54" style="stop-color:#DADCDD;stop-opacity:0.98"/>
	<stop  offset="0.61" style="stop-color:#DCDEDF;stop-opacity:0.91"/>
	<stop  offset="0.68" style="stop-color:#E1E2E3;stop-opacity:0.8"/>
	<stop  offset="0.76" style="stop-color:#E7E8E8;stop-opacity:0.64"/>
	<stop  offset="0.85" style="stop-color:#EEEFEF;stop-opacity:0.45"/>
	<stop  offset="0.93" style="stop-color:#F7F8F8;stop-opacity:0.21"/>
	<stop  offset="1" style="stop-color:#FFFFFF;stop-opacity:0"/>
</linearGradient>
<polygon class="st1" points="24.4,56 22.4,52.5 35.4,45 37.5,48.5 "/>
<linearGradient id="SVGID_2_" gradientUnits="userSpaceOnUse" x1="2.8818" y1="69.5942" x2="20.1881" y2="59.9497" gradientTransform="matrix(1.0554 3.198731e-02 -3.265373e-02 -1.0234 44.8977 115.8835)">
	<stop  offset="0" style="stop-color:#FFFFFF;stop-opacity:0"/>
	<stop  offset="8.000000e-02" style="stop-color:#F5F6F6;stop-opacity:0.25"/>
	<stop  offset="0.15" style="stop-color:#EDEEEE;stop-opacity:0.48"/>
	<stop  offset="0.23" style="stop-color:#E6E7E8;stop-opacity:0.67"/>
	<stop  offset="0.31" style="stop-color:#E0E2E3;stop-opacity:0.81"/>
	<stop  offset="0.38" style="stop-color:#DCDEDF;stop-opacity:0.92"/>
	<stop  offset="0.45" style="stop-color:#DADCDD;stop-opacity:0.98"/>
	<stop  offset="0.51" style="stop-color:#D9DBDC"/>
	<stop  offset="0.56" style="stop-color:#DADCDD;stop-opacity:0.98"/>
	<stop  offset="0.63" style="stop-color:#DCDEDF;stop-opacity:0.91"/>
	<stop  offset="0.7" style="stop-color:#E1E2E3;stop-opacity:0.8"/>
	<stop  offset="0.78" style="stop-color:#E6E8E8;stop-opacity:0.65"/>
	<stop  offset="0.86" style="stop-color:#EEEFEF;stop-opacity:0.45"/>
	<stop  offset="0.94" style="stop-color:#F7F7F8;stop-opacity:0.21"/>
	<stop  offset="1" style="stop-color:#FFFFFF;stop-opacity:0"/>
</linearGradient>
<polygon class="st2" points="46.5,47.4 48.5,43.9 64,52.8 62,56.4 "/>
<linearGradient id="SVGID_3_" gradientUnits="userSpaceOnUse" x1="22.219" y1="57.3431" x2="38.9867" y2="47.0785" gradientTransform="matrix(1 0 0 -1 -8.492307e-04 87.9979)">
	<stop  offset="0" style="stop-color:#FFFFFF;stop-opacity:0"/>
	<stop  offset="6.000000e-02" style="stop-color:#F8F8F9;stop-opacity:0.18"/>
	<stop  offset="0.14" style="stop-color:#EFF0F0;stop-opacity:0.43"/>
	<stop  offset="0.23" style="stop-color:#E7E8E9;stop-opacity:0.63"/>
	<stop  offset="0.31" style="stop-color:#E1E2E3;stop-opacity:0.79"/>
	<stop  offset="0.38" style="stop-color:#DDDEDF;stop-opacity:0.91"/>
	<stop  offset="0.45" style="stop-color:#DADCDD;stop-opacity:0.98"/>
	<stop  offset="0.51" style="stop-color:#D9DBDC"/>
	<stop  offset="0.56" style="stop-color:#DADCDD;stop-opacity:0.98"/>
	<stop  offset="0.63" style="stop-color:#DCDEDF;stop-opacity:0.91"/>
	<stop  offset="0.7" style="stop-color:#E1E2E3;stop-opacity:0.8"/>
	<stop  offset="0.78" style="stop-color:#E6E8E8;stop-opacity:0.65"/>
	<stop  offset="0.86" style="stop-color:#EEEFEF;stop-opacity:0.45"/>
	<stop  offset="0.94" style="stop-color:#F7F7F8;stop-opacity:0.21"/>
	<stop  offset="1" style="stop-color:#FFFFFF;stop-opacity:0"/>
</linearGradient>
<polygon class="st3" points="38.4,37.9 36.4,41.5 22,33.2 24.1,29.7 "/>
<linearGradient id="SVGID_4_" gradientUnits="userSpaceOnUse" x1="62.9478" y1="56.9286" x2="45.715" y2="46.4355" gradientTransform="matrix(1 0 0 -1 -1.743124e-03 87.9988)">
	<stop  offset="0" style="stop-color:#FFFFFF;stop-opacity:0"/>
	<stop  offset="4.000000e-02" style="stop-color:#FBFBFB;stop-opacity:0.11"/>
	<stop  offset="0.13" style="stop-color:#F1F1F2;stop-opacity:0.38"/>
	<stop  offset="0.23" style="stop-color:#E8E9EA;stop-opacity:0.6"/>
	<stop  offset="0.32" style="stop-color:#E2E3E4;stop-opacity:0.77"/>
	<stop  offset="0.4" style="stop-color:#DDDFE0;stop-opacity:0.9"/>
	<stop  offset="0.47" style="stop-color:#DADCDD;stop-opacity:0.97"/>
	<stop  offset="0.52" style="stop-color:#D9DBDC"/>
	<stop  offset="0.58" style="stop-color:#DADCDD;stop-opacity:0.98"/>
	<stop  offset="0.65" style="stop-color:#DCDEDF;stop-opacity:0.92"/>
	<stop  offset="0.71" style="stop-color:#E0E2E2;stop-opacity:0.82"/>
	<stop  offset="0.78" style="stop-color:#E5E7E7;stop-opacity:0.68"/>
	<stop  offset="0.85" style="stop-color:#ECEDEE;stop-opacity:0.49"/>
	<stop  offset="0.93" style="stop-color:#F5F5F6;stop-opacity:0.27"/>
	<stop  offset="1" style="stop-color:#FFFFFF;stop-opacity:1.000000e-02"/>
	<stop  offset="1" style="stop-color:#FFFFFF;stop-opacity:0"/>
</linearGradient>
<polygon class="st4" points="60.8,30.2 62.9,33.7 48.5,42 46.5,38.5 "/>
<path class="st5" d="M48.7,39l-5.1-2.9c-0.4-0.2-0.9-0.2-1.4,0L37.2,39c-0.3,0.2-0.4,0.6-0.2,0.9c0.1,0.1,0.1,0.2,0.2,0.2l5.1,2.9
	c0.4,0.2,0.9,0.2,1.4,0l5.1-2.9c0.3-0.2,0.4-0.6,0.2-0.9C48.9,39.2,48.8,39.1,48.7,39z"/>
<path class="st5" d="M42.6,44.3c0.2,0.1,0.5,0.1,0.7,0l5.2-3c0.2-0.1,0.4,0,0.5,0.1c0,0.1,0,0.1,0,0.2v1.4c0,0.1-0.1,0.2-0.2,0.3
	l-5.7,3.3c-0.2,0.1-0.4,0-0.6-0.1l-5.6-3.1c-0.1-0.1-0.2-0.2-0.2-0.3v-1.5c0-0.2,0.2-0.4,0.3-0.4c0.1,0,0.1,0,0.2,0L42.6,44.3z"/>
<path class="st5" d="M42.6,47.5c0.2,0.1,0.5,0.1,0.7,0l5.2-3c0.2-0.1,0.4,0,0.5,0.1c0,0.1,0,0.1,0,0.2v1.4c0,0.1-0.1,0.2-0.2,0.3
	l-5.7,3.3c-0.2,0.1-0.4,0-0.6-0.1l-5.6-3.1c-0.1-0.1-0.2-0.2-0.2-0.3v-1.5c0-0.2,0.2-0.3,0.4-0.3c0.1,0,0.1,0,0.2,0L42.6,47.5z"/>
<path class="st5" d="M24.4,25.3l-5.1-2.9c-0.4-0.2-0.9-0.2-1.4,0l-5.1,2.9c-0.3,0.2-0.4,0.6-0.2,0.9c0.1,0.1,0.1,0.2,0.2,0.2
	l5.1,2.9c0.4,0.2,0.9,0.2,1.4,0l5.1-2.9c0.3-0.2,0.4-0.6,0.2-0.9C24.6,25.4,24.5,25.3,24.4,25.3z"/>
<path class="st5" d="M18.3,30.5c0.2,0.1,0.5,0.1,0.7,0l5.2-3c0.2-0.1,0.4,0,0.5,0.1c0,0.1,0,0.1,0,0.2v1.4c0,0.1-0.1,0.2-0.2,0.3
	l-5.7,3.3c-0.2,0.1-0.4,0-0.6-0.1l-5.5-3c-0.1-0.1-0.2-0.2-0.2-0.3v-1.5c0-0.2,0.1-0.4,0.3-0.4c0.1,0,0.1,0,0.2,0L18.3,30.5z"/>
<path class="st5" d="M18.3,33.8c0.2,0.1,0.5,0.1,0.7,0l5.2-3c0.2-0.1,0.4,0,0.5,0.1c0,0.1,0,0.1,0,0.2v1.4c0,0.1-0.1,0.2-0.2,0.3
	L18.9,36c-0.2,0.1-0.4,0-0.6-0.1l-5.5-3c-0.1-0.1-0.2-0.2-0.2-0.3v-1.5c0-0.2,0.1-0.4,0.3-0.4c0.1,0,0.2,0,0.2,0L18.3,33.8z"/>
<path class="st5" d="M73.1,25.3L68,22.3c-0.4-0.2-0.9-0.2-1.4,0l-5.1,2.9c-0.3,0.2-0.4,0.6-0.2,0.9c0.1,0.1,0.1,0.2,0.2,0.2l5.1,2.9
	c0.4,0.2,0.9,0.2,1.4,0l5.1-2.9c0.3-0.2,0.4-0.6,0.2-0.9C73.3,25.4,73.2,25.3,73.1,25.3z"/>
<path class="st5" d="M67,30.5c0.2,0.1,0.5,0.1,0.7,0l5.2-3c0.2-0.1,0.4,0,0.5,0.1c0,0.1,0,0.1,0,0.2v1.4c0,0.1-0.1,0.2-0.2,0.3
	l-5.7,3.3c-0.2,0.1-0.4,0.1-0.6-0.1l-5.6-3c-0.1-0.1-0.2-0.2-0.2-0.3v-1.5c0-0.2,0.1-0.4,0.3-0.4c0.1,0,0.2,0,0.2,0.1L67,30.5z"/>
<path class="st5" d="M67,33.8c0.2,0.1,0.5,0.1,0.7,0l5.2-3c0.2-0.1,0.4,0,0.5,0.1c0,0.1,0,0.1,0,0.2v1.4c0,0.1-0.1,0.2-0.2,0.3
	L67.6,36c-0.2,0.1-0.4,0.1-0.6-0.1l-5.6-3.1c-0.1-0.1-0.2-0.2-0.2-0.3v-1.4c-0.1-0.2,0.1-0.4,0.2-0.4c0.1,0,0.3,0,0.3,0.1L67,33.8z"
	/>
<path class="st5" d="M48.7,67.1l-5.1-2.9c-0.4-0.2-0.9-0.2-1.4,0l-5.1,2.9c-0.3,0.2-0.4,0.6-0.2,0.9c0.1,0.1,0.1,0.2,0.2,0.2
	l5.1,2.9c0.4,0.2,0.9,0.2,1.4,0l5.1-2.9c0.3-0.2,0.4-0.6,0.2-0.9C48.8,67.2,48.8,67.2,48.7,67.1z"/>
<path class="st5" d="M42.6,72.4c0.2,0.1,0.5,0.1,0.7,0l5.2-3c0.2-0.1,0.4,0,0.5,0.1c0,0.1,0,0.1,0,0.2V71c0,0.1-0.1,0.2-0.2,0.3
	l-5.7,3.3c-0.2,0.1-0.4,0-0.6-0.1l-5.6-3.1c-0.1-0.1-0.2-0.2-0.2-0.3v-1.5c0-0.2,0.2-0.4,0.3-0.4c0.1,0,0.1,0,0.2,0.1L42.6,72.4z"/>
<path class="st5" d="M42.6,75.6c0.2,0.1,0.5,0.1,0.7,0l5.2-3c0.2-0.1,0.4,0,0.5,0.1c0,0.1,0,0.1,0,0.2v1.4c0,0.1-0.1,0.2-0.2,0.3
	l-5.7,3.3c-0.2,0.1-0.4,0-0.6-0.1l-5.6-3c-0.1-0.1-0.2-0.2-0.2-0.3v-1.5c0-0.2,0.2-0.3,0.4-0.3c0.1,0,0.1,0,0.2,0L42.6,75.6z"/>
<path class="st6" d="M48.7,11l-5.1-2.9c-0.4-0.2-1-0.2-1.4,0L37.1,11c-0.3,0.2-0.4,0.6-0.2,0.9c0.1,0.1,0.1,0.2,0.2,0.2l5.1,2.9
	c0.4,0.2,0.9,0.2,1.4,0l5.1-2.9c0.3-0.2,0.4-0.6,0.3-0.9C48.8,11.1,48.8,11.1,48.7,11z"/>
<path class="st6" d="M42.6,16.2c0.2,0.1,0.5,0.1,0.7,0l5.2-3c0.2-0.1,0.4,0,0.5,0.1c0,0.1,0,0.1,0,0.2v1.4c0,0.1-0.1,0.2-0.2,0.3
	l-5.7,3.3c-0.2,0.1-0.4,0-0.6-0.1l-5.6-3c-0.1-0.1-0.2-0.2-0.2-0.3v-1.5c0-0.2,0.2-0.3,0.4-0.3c0,0,0.1,0,0.1,0L42.6,16.2z"/>
<path class="st6" d="M42.6,19.5c0.2,0.1,0.5,0.1,0.7,0l5.2-3c0.2-0.1,0.4,0,0.5,0.1c0,0.1,0,0.1,0,0.2v1.4c0,0.1-0.1,0.2-0.2,0.3
	l-5.7,3.3c-0.2,0.1-0.4,0-0.6-0.1L37,18.6c-0.1-0.1-0.2-0.2-0.2-0.3v-1.5c0-0.2,0.2-0.4,0.4-0.4c0.1,0,0.1,0,0.2,0L42.6,19.5z"/>
<path class="st6" d="M24.4,53l-5.1-2.9c-0.4-0.2-0.9-0.2-1.4,0L12.9,53c-0.3,0.2-0.4,0.6-0.2,0.9c0.1,0.1,0.1,0.2,0.2,0.2l5.1,2.9
	c0.4,0.2,0.9,0.2,1.4,0l5.1-2.9c0.3-0.2,0.4-0.6,0.2-0.9C24.6,53.2,24.5,53.1,24.4,53z"/>
<path class="st6" d="M18.3,58.3c0.2,0.1,0.5,0.1,0.7,0l5.2-3c0.2-0.1,0.4,0,0.5,0.1c0,0.1,0,0.1,0,0.2v1.4c0,0.1-0.1,0.2-0.2,0.3
	l-5.7,3.3c-0.2,0.1-0.4,0-0.6-0.1l-5.5-3c-0.1-0.1-0.2-0.2-0.2-0.3v-1.5c0-0.2,0.2-0.3,0.4-0.3c0.1,0,0.1,0,0.2,0L18.3,58.3z"/>
<path class="st6" d="M18.3,61.6c0.2,0.1,0.5,0.1,0.7,0l5.2-3c0.2-0.1,0.4,0,0.5,0.1c0,0.1,0,0.1,0,0.2v1.4c0,0.1-0.1,0.2-0.2,0.3
	l-5.7,3.3c-0.2,0.1-0.4,0-0.6-0.1l-5.5-3c-0.1-0.1-0.2-0.2-0.2-0.3v-1.5c0-0.2,0.2-0.3,0.4-0.3c0.1,0,0.1,0,0.2,0L18.3,61.6z"/>
<path class="st6" d="M73.1,53L68,50.1c-0.4-0.2-0.9-0.2-1.4,0L61.5,53c-0.3,0.2-0.4,0.6-0.2,0.9c0.1,0.1,0.1,0.2,0.2,0.2l5.1,2.9
	c0.4,0.2,0.9,0.2,1.4,0l5.1-2.9c0.3-0.2,0.4-0.6,0.2-0.9C73.3,53.2,73.2,53.1,73.1,53z"/>
<path class="st6" d="M67,58.3c0.2,0.1,0.5,0.1,0.7,0l5.2-3c0.2-0.1,0.4,0,0.5,0.1c0,0.1,0,0.1,0,0.2v1.4c0,0.1-0.1,0.2-0.2,0.3
	l-5.7,3.3c-0.2,0.1-0.4,0-0.6-0.1l-5.6-3.1c-0.1-0.1-0.2-0.2-0.2-0.3v-1.5c0-0.2,0.2-0.3,0.4-0.3c0.1,0,0.1,0,0.2,0L67,58.3z"/>
<path class="st6" d="M67,61.6c0.2,0.1,0.5,0.1,0.7,0l5.2-3c0.2-0.1,0.4,0,0.5,0.1c0,0.1,0,0.1,0,0.2v1.4c0,0.1-0.1,0.2-0.2,0.3
	l-5.7,3.3c-0.2,0.1-0.4,0-0.6-0.1l-5.6-3.1c-0.1-0.1-0.2-0.2-0.2-0.3v-1.5c0-0.2,0.2-0.3,0.4-0.3c0.1,0,0.1,0,0.2,0L67,61.6z"/>
</svg>
