<?xml version="1.0" encoding="utf-8"?>
<!-- Generator: Adobe Illustrator 23.0.6, SVG Export Plug-In . SVG Version: 6.00 Build 0)  -->
<svg version="1.1" id="Layer_1" xmlns="http://www.w3.org/2000/svg" xmlns:xlink="http://www.w3.org/1999/xlink" x="0px" y="0px"
	 viewBox="0 0 86 86" style="enable-background:new 0 0 86 86;" xml:space="preserve">
<style type="text/css">
	.st0{fill:#2B393F;}
	.st1{fill:#D9DBDC;}
	.st2{fill:#02E49B;}
</style>
<title>Artboard 61</title>
<path class="st0" d="M66.4,79L23.2,54.2c-1.1-0.6-1.7-1.7-1.7-2.9V10.9c0-0.9,0.7-1.7,1.7-1.7c0.3,0,0.7,0.1,0.9,0.3l43.1,24.8
	c1.1,0.6,1.7,1.7,1.7,2.9v40.4c0,0.9-0.7,1.7-1.7,1.7C66.9,79.2,66.6,79.2,66.4,79z"/>
<path class="st1" d="M25.4,41.4L9.3,32.2C8.5,31.7,8,30.9,8,30V11.2c0-0.7,0.6-1.3,1.3-1.3c0.2,0,0.4,0.1,0.6,0.2l16.2,9.2
	c0.8,0.5,1.3,1.3,1.3,2.2v18.8c0,0.7-0.5,1.3-1.3,1.3C25.9,41.6,25.6,41.5,25.4,41.4z"/>
<path class="st0" d="M22.2,36.6l-9.9-5.7c-0.2-0.1-0.3-0.3-0.3-0.5v-0.3c0-2.1,1.8-3.9,3.9-3.8c0.6,0,1.3,0.2,1.8,0.5l0,0
	c3.4,1.9,5.3,5.4,5.3,9.3l0,0c0,0.3-0.3,0.6-0.6,0.6C22.4,36.6,22.3,36.6,22.2,36.6z"/>
<path class="st2" d="M76.6,56.2L49.9,40.9c-0.3-0.2-0.4-0.4-0.4-0.8v-3.3c0-0.2,0.2-0.4,0.4-0.4c0.1,0,0.1,0,0.2,0.1l26.7,15.3
	c0.3,0.2,0.4,0.4,0.4,0.8v3.2c0,0.2-0.2,0.4-0.4,0.5C76.7,56.3,76.7,56.2,76.6,56.2z"/>
<path class="st2" d="M39.1,55.2l-5.9-3.5c-0.3-0.2-0.4-0.5-0.4-0.8v-3.2c0-0.2,0.2-0.4,0.4-0.4c0.1,0,0.1,0,0.2,0.1l5.9,3.5
	c0.3,0.2,0.4,0.4,0.4,0.8V55c0,0.2-0.2,0.4-0.4,0.4C39.2,55.2,39.2,55.2,39.1,55.2z"/>
<path class="st2" d="M42.7,37.1l-9.5-5.7c-0.3-0.2-0.4-0.5-0.4-0.8v-3.2c0-0.2,0.2-0.4,0.4-0.4c0.1,0,0.1,0,0.2,0.1l9.5,5.7
	c0.3,0.2,0.4,0.5,0.4,0.8v3.2c0,0.2-0.1,0.5-0.4,0.5C42.9,37.1,42.8,37.1,42.7,37.1z"/>
<path class="st2" d="M47.2,49.5l-14-8c-0.3-0.2-0.4-0.4-0.4-0.8v-3.2c0-0.2,0.2-0.4,0.4-0.4c0.1,0,0.2,0,0.2,0.1l14,8
	c0.3,0.2,0.4,0.4,0.4,0.8v3.3c0,0.2-0.2,0.4-0.4,0.4C47.3,49.5,47.2,49.5,47.2,49.5z"/>
<ellipse transform="matrix(0.9047 -0.4261 0.4261 0.9047 -7.5566 9.4401)" class="st0" cx="17.3" cy="21.6" rx="3.3" ry="3.8"/>
</svg>
