<svg id="Layer_1" data-name="Layer 1" xmlns="http://www.w3.org/2000/svg" viewBox="0 0 86 86"><defs><style>.cls-1{fill:#2b393f;}.cls-2{fill:#d9dbdc;}.cls-3{fill:#02e49b;}</style></defs><title>Artboard 61</title><path class="cls-1" d="M61.56,68.79,27.79,49.41a2.62,2.62,0,0,1-1.31-2.27V15.57a1.31,1.31,0,0,1,2-1.14L62.2,33.82a2.6,2.6,0,0,1,1.31,2.26V67.66A1.3,1.3,0,0,1,61.56,68.79Z"/><path class="cls-2" d="M29.57,39.4,17,32.16a2,2,0,0,1-1-1.73V15.77a1,1,0,0,1,1.5-.86l12.61,7.24a2,2,0,0,1,1,1.73V38.53A1,1,0,0,1,29.57,39.4Z"/><path class="cls-1" d="M27,35.6l-7.74-4.44a.45.45,0,0,1-.23-.39v-.2A3,3,0,0,1,23.49,28h0a8.34,8.34,0,0,1,4.19,7.23h0A.45.45,0,0,1,27,35.6Z"/><path class="cls-3" d="M69.53,51,48.7,39a.68.68,0,0,1-.34-.59V35.88a.34.34,0,0,1,.51-.29l20.83,12a.68.68,0,0,1,.34.59v2.51A.34.34,0,0,1,69.53,51Z"/><path class="cls-3" d="M40.28,50.12l-4.63-2.74a.7.7,0,0,1-.33-.59v-2.5a.34.34,0,0,1,.51-.29l4.63,2.74a.66.66,0,0,1,.33.58v2.51A.34.34,0,0,1,40.28,50.12Z"/><path class="cls-3" d="M43.08,36,35.65,31.5a.7.7,0,0,1-.33-.59v-2.5a.34.34,0,0,1,.51-.29l7.43,4.45a.7.7,0,0,1,.33.59v2.5A.34.34,0,0,1,43.08,36Z"/><path class="cls-3" d="M46.6,45.74,35.66,39.45a.67.67,0,0,1-.34-.59v-2.5a.34.34,0,0,1,.51-.3l10.94,6.29a.68.68,0,0,1,.34.59v2.51A.34.34,0,0,1,46.6,45.74Z"/><ellipse class="cls-1" cx="23.25" cy="23.91" rx="2.55" ry="2.93" transform="translate(-7.97 12.19) rotate(-25.22)"/></svg>