<svg enable-background="new 0 0 86 86" viewBox="0 0 86 86" xmlns="http://www.w3.org/2000/svg"><path d="m66.4 79-43.2-24.8c-1.1-.6-1.7-1.7-1.7-2.9v-40.4c0-.9.7-1.7 1.7-1.7.3 0 .7.1.9.3l43.1 24.8c1.1.6 1.7 1.7 1.7 2.9v40.4c0 .9-.7 1.7-1.7 1.7-.3-.1-.6-.1-.8-.3z" fill="#2b393f"/><path d="m25.4 41.4-16.1-9.2c-.8-.5-1.3-1.3-1.3-2.2v-18.8c0-.7.6-1.3 1.3-1.3.2 0 .4.1.6.2l16.2 9.2c.8.5 1.3 1.3 1.3 2.2v18.8c0 .7-.5 1.3-1.3 1.3-.2 0-.5-.1-.7-.2z" fill="#d9dbdc"/><path d="m22.2 36.6-9.9-5.7c-.2-.1-.3-.3-.3-.5v-.3c0-2.1 1.8-3.9 3.9-3.8.6 0 1.3.2 1.8.5 3.4 1.9 5.3 5.4 5.3 9.3 0 .3-.3.6-.6.6 0-.1-.1-.1-.2-.1z" fill="#2b393f"/><g fill="#02e49b"><path d="m76.6 56.2-26.7-15.3c-.3-.2-.4-.4-.4-.8v-3.3c0-.2.2-.4.4-.4.1 0 .1 0 .2.1l26.7 15.3c.3.2.4.4.4.8v3.2c0 .2-.2.4-.4.5-.1 0-.1-.1-.2-.1z"/><path d="m39.1 55.2-5.9-3.5c-.3-.2-.4-.5-.4-.8v-3.2c0-.2.2-.4.4-.4.1 0 .1 0 .2.1l5.9 3.5c.3.2.4.4.4.8v3.3c0 .2-.2.4-.4.4-.1-.2-.1-.2-.2-.2z"/><path d="m42.7 37.1-9.5-5.7c-.3-.2-.4-.5-.4-.8v-3.2c0-.2.2-.4.4-.4.1 0 .1 0 .2.1l9.5 5.7c.3.2.4.5.4.8v3.2c0 .2-.1.5-.4.5 0-.2-.1-.2-.2-.2z"/><path d="m47.2 49.5-14-8c-.3-.2-.4-.4-.4-.8v-3.2c0-.2.2-.4.4-.4.1 0 .2 0 .2.1l14 8c.3.2.4.4.4.8v3.3c0 .2-.2.4-.4.4-.1-.2-.2-.2-.2-.2z"/></g><ellipse cx="17.3" cy="21.6" fill="#2b393f" rx="3.3" ry="3.8" transform="matrix(.9047 -.4261 .4261 .9047 -7.5566 9.4401)"/></svg>