<svg id="Layer_1" data-name="Layer 1" xmlns="http://www.w3.org/2000/svg" viewBox="0 0 86 86"><defs><style>.cls-1{fill:#2b393f;}.cls-2{fill:#d9dbdc;}.cls-3{fill:#02e49b;}</style></defs><title>Artboard 60</title><path class="cls-1" d="M55.23,66.51,29.88,52a2.43,2.43,0,0,1-1.23-2.11V20.4a1.22,1.22,0,0,1,1.83-1.06L55.83,33.89A2.45,2.45,0,0,1,57.05,36V65.45A1.22,1.22,0,0,1,55.23,66.51Z"/><path class="cls-2" d="M45,47.83l-4.54-2.6a1.22,1.22,0,0,1-.61-1.06V38.89a.61.61,0,0,1,.91-.53L45.31,41A1.21,1.21,0,0,1,45.92,42V47.3A.61.61,0,0,1,45,47.83Z"/><path class="cls-1" d="M45.27,27.81l-5-2.86V20A.5.5,0,0,1,41,19.6l3.73,2.14a1,1,0,0,1,.51.87Z"/><path class="cls-1" d="M52.15,31.77l-5-2.86V24a.5.5,0,0,1,.75-.43l3.73,2.14a1,1,0,0,1,.51.87Z"/><path class="cls-1" d="M38.44,23.9l-5-2.86V16.12a.5.5,0,0,1,.75-.43l3.73,2.14a1,1,0,0,1,.51.87Z"/><path class="cls-3" d="M44.52,17.94,40.79,15.8a1,1,0,0,1-.51-.87V10.59a.5.5,0,0,1,.75-.43l3.73,2.14a1,1,0,0,1,.51.87v4.34A.5.5,0,0,1,44.52,17.94Z"/><path class="cls-1" d="M28.65,28.83l-4.48-2.57a1,1,0,0,1-.5-.87V21.05a.5.5,0,0,1,.75-.43l4.23,2.43Z"/><path class="cls-1" d="M28.65,37.43l-4.48-2.58a1,1,0,0,1-.5-.86V29.65a.5.5,0,0,1,.75-.44l4.23,2.43Z"/><path class="cls-1" d="M28.65,45.75l-4.48-2.57a1,1,0,0,1-.5-.87V38a.5.5,0,0,1,.75-.43L28.65,40Z"/><path class="cls-3" d="M51.4,22.1,47.67,20a1,1,0,0,1-.51-.87V14.75a.5.5,0,0,1,.75-.43l3.73,2.14a1,1,0,0,1,.51.87v4.34A.5.5,0,0,1,51.4,22.1Z"/><path class="cls-3" d="M37.69,14.17,34,12a1,1,0,0,1-.51-.87V6.82a.5.5,0,0,1,.75-.43l3.73,2.14a1,1,0,0,1,.51.87v4.34A.5.5,0,0,1,37.69,14.17Z"/><path class="cls-2" d="M44.62,9.52,40.89,7.38a1,1,0,0,1-.5-.87V2.17a.5.5,0,0,1,.75-.43l3.73,2.14a1,1,0,0,1,.5.87V9.09A.5.5,0,0,1,44.62,9.52Z"/><path class="cls-3" d="M19.8,24.7l-3.73-2.14a1,1,0,0,1-.5-.87V17.36a.5.5,0,0,1,.75-.44l3.73,2.14a1,1,0,0,1,.5.87v4.34A.5.5,0,0,1,19.8,24.7Z"/><path class="cls-2" d="M12.31,28.16,8.58,26a1,1,0,0,1-.5-.87V20.81a.5.5,0,0,1,.75-.43l3.73,2.14a1,1,0,0,1,.5.87v4.34A.5.5,0,0,1,12.31,28.16Z"/><path class="cls-3" d="M19.78,33.31l-3.73-2.14a1,1,0,0,1-.51-.87V26a.5.5,0,0,1,.75-.43L20,27.67a1,1,0,0,1,.51.87v4.34A.5.5,0,0,1,19.78,33.31Z"/><path class="cls-3" d="M19.78,42.31l-3.73-2.14a1,1,0,0,1-.51-.87V35a.5.5,0,0,1,.75-.43L20,36.67a1,1,0,0,1,.51.87v4.33A.5.5,0,0,1,19.78,42.31Z"/><path class="cls-1" d="M61.28,56.35l-4.23-2.43V48.14l4.48,2.57a1,1,0,0,1,.5.87v4.34A.49.49,0,0,1,61.28,56.35Z"/><path class="cls-1" d="M61.28,47.75l-4.23-2.43V39.53l4.48,2.58A1,1,0,0,1,62,43v4.34A.5.5,0,0,1,61.28,47.75Z"/><path class="cls-1" d="M61.28,64.63,57.05,62.2V56.42L61.53,59a1,1,0,0,1,.5.87V64.2A.5.5,0,0,1,61.28,64.63Z"/><path class="cls-3" d="M69.49,61l-3.73-2.14a1,1,0,0,1-.5-.87V53.68a.5.5,0,0,1,.75-.43l3.73,2.14a1,1,0,0,1,.5.87V60.6A.5.5,0,0,1,69.49,61Z"/><path class="cls-1" d="M44.62,66.19l-3.73-2.14a1,1,0,0,1-.5-.87V58l5,2.86v4.92A.5.5,0,0,1,44.62,66.19Z"/><path class="cls-1" d="M37.2,61.92l-3.73-2.14a1,1,0,0,1-.51-.87v-5.2l5,2.86v4.92A.5.5,0,0,1,37.2,61.92Z"/><path class="cls-1" d="M52.16,70.52l-3.74-2.14a1,1,0,0,1-.5-.87v-5.2l5,2.86v4.92A.49.49,0,0,1,52.16,70.52Z"/><path class="cls-3" d="M44.62,75.26l-3.73-2.14a1,1,0,0,1-.5-.87V67.91a.5.5,0,0,1,.75-.43l3.73,2.14a1,1,0,0,1,.5.87v4.34A.5.5,0,0,1,44.62,75.26Z"/><path class="cls-2" d="M44.62,84.22l-3.73-2.14a1,1,0,0,1-.5-.87V76.87a.5.5,0,0,1,.75-.43l3.73,2.14a1,1,0,0,1,.5.86v4.34A.5.5,0,0,1,44.62,84.22Z"/><path class="cls-3" d="M37.2,71.11,33.47,69A1,1,0,0,1,33,68.1V63.76a.5.5,0,0,1,.75-.43l3.73,2.14a1,1,0,0,1,.51.87v4.34A.5.5,0,0,1,37.2,71.11Z"/><path class="cls-3" d="M52.16,79.56l-3.74-2.14a1,1,0,0,1-.5-.87V72.21a.5.5,0,0,1,.75-.43l3.73,2.14a1,1,0,0,1,.5.87v4.34A.49.49,0,0,1,52.16,79.56Z"/><path class="cls-3" d="M69.49,51.52l-3.73-2.14a1,1,0,0,1-.5-.87V44.17a.5.5,0,0,1,.75-.43l3.73,2.14a1,1,0,0,1,.5.87v4.34A.5.5,0,0,1,69.49,51.52Z"/><path class="cls-2" d="M77,65.53l-3.73-2.14a1,1,0,0,1-.5-.87V58.18a.5.5,0,0,1,.75-.43l3.73,2.14a1,1,0,0,1,.5.87V65.1A.5.5,0,0,1,77,65.53Z"/><path class="cls-3" d="M69.49,68.67l-3.73-2.15a1,1,0,0,1-.5-.86V61.32a.5.5,0,0,1,.75-.44L69.74,63a1,1,0,0,1,.5.86v4.34A.5.5,0,0,1,69.49,68.67Z"/></svg>