<svg enable-background="new 0 0 86 86" viewBox="0 0 86 86" xmlns="http://www.w3.org/2000/svg"><path d="m53.3 62.9-21.4-12.3c-.6-.4-1-1-1-1.8v-25c0-.6.5-1 1-1 .2 0 .4 0 .5.1l21.5 12.3c.6.4 1 1.1 1 1.8v25c0 .6-.5 1-1 1-.2.1-.4 0-.6-.1z" fill="#2b393f"/><path d="m44.7 47.1-3.8-2.2c-.3-.2-.5-.5-.5-.9v-4.5c0-.3.2-.5.5-.5.1 0 .2 0 .3.1l3.9 2.2c.3.2.5.5.5.8v4.5c0 .3-.2.5-.5.5-.2.1-.3 0-.4 0z" fill="#d9dbdc"/><g fill="#2b393f"><path d="m44.9 30.1-4.2-2.4v-4.2c0-.2.2-.4.5-.4h.2l3.2 1.8c.3.1.4.4.4.7z"/><path d="m50.7 33.5-4.2-2.4v-4.2c0-.2.2-.4.4-.4.1 0 .1 0 .2.1l3.2 1.8c.3.1.4.4.4.7z"/><path d="m39.1 26.8-4.2-2.4v-4.2c0-.2.2-.4.4-.4.1 0 .1 0 .2.1l3.2 1.8c.3.1.4.4.4.7z"/></g><path d="m44.3 21.8-3.2-1.8c-.3-.1-.4-.4-.4-.7v-3.7c0-.2.2-.4.4-.4.1 0 .1 0 .2.1l3.2 1.8c.3.1.4.4.4.7v3.7c0 .2-.2.4-.4.4-.1-.1-.2-.1-.2-.1z" fill="#02e49b"/><path d="m30.8 31-3.8-2.2c-.3-.2-.4-.4-.4-.7v-3.7c0-.2.2-.4.4-.4.1 0 .1 0 .2.1l3.6 2.1z" fill="#2b393f"/><path d="m30.8 38.3-3.8-2.2c-.3-.2-.4-.4-.4-.7v-3.7c0-.2.2-.4.4-.4.1 0 .2 0 .2.1l3.6 2.1z" fill="#2b393f"/><path d="m30.8 45.3-3.8-2.2c-.3-.2-.4-.4-.4-.7v-3.7c0-.2.2-.4.4-.4.1 0 .1 0 .2.1l3.6 2.1z" fill="#2b393f"/><path d="m50.1 25.3-3.2-1.8c-.3-.1-.4-.4-.4-.7v-3.7c0-.2.2-.4.4-.4.1 0 .1 0 .2.1l3.2 1.8c.3.1.4.4.4.7v3.7c0 .2-.2.4-.4.4-.1-.1-.1-.1-.2-.1z" fill="#02e49b"/><path d="m38.5 18.6-3.1-1.8c-.3-.1-.4-.4-.4-.7v-3.7c0-.2.2-.4.4-.4.1 0 .1 0 .2.1l3.2 1.8c.3.1.4.4.4.7v3.7c0 .2-.2.4-.4.4-.1 0-.2-.1-.3-.1z" fill="#02e49b"/><path d="m44.4 14.6-3.2-1.8c-.3-.2-.4-.4-.4-.7v-3.7c0-.2.2-.4.4-.4.1 0 .1 0 .2.1l3.2 1.8c.3.2.4.4.4.7v3.7c0 .2-.2.4-.4.4-.1 0-.2 0-.2-.1z" fill="#d9dbdc"/><path d="m23.3 27.5-3.2-1.8c-.3-.2-.4-.4-.4-.7v-3.7c0-.2.2-.4.4-.4.1 0 .2 0 .2.1l3.2 1.8c.3.2.4.4.4.7v3.7c0 .2-.2.4-.4.4 0-.1-.1-.1-.2-.1z" fill="#02e49b"/><path d="m17 30.4-3.2-1.8c-.3-.2-.4-.4-.4-.7v-3.7c0-.2.2-.4.4-.4.1 0 .1 0 .2.1l3.2 1.8c.3.2.4.4.4.7v3.7c0 .2-.2.4-.4.4-.1 0-.2 0-.2-.1z" fill="#d9dbdc"/><path d="m23.3 34.8-3.1-1.8c-.3-.1-.4-.4-.4-.7v-3.6c0-.2.2-.4.4-.4.1 0 .1 0 .2.1l3.1 1.8c.3.1.4.4.4.7v3.7c0 .2-.2.4-.4.4-.1-.2-.1-.2-.2-.2z" fill="#02e49b"/><path d="m23.3 42.4-3.2-1.8c-.3-.1-.4-.4-.4-.7v-3.6c0-.2.2-.4.4-.4.1 0 .1 0 .2.1l3.1 1.8c.3.1.4.4.4.7v3.5c0 .2-.2.4-.4.4 0 .1 0 0-.1 0z" fill="#02e49b"/><path d="m58.5 54.3-3.6-2.1v-4.9l3.8 2.2c.3.2.4.4.4.7v3.7c0 .2-.2.4-.4.4-.1.1-.2.1-.2 0z" fill="#2b393f"/><path d="m58.5 47-3.6-2v-4.9l3.8 2.2c.3.2.4.4.4.8v3.7c0 .2-.2.4-.5.4 0-.1-.1-.2-.1-.2z" fill="#2b393f"/><path d="m58.5 61.3-3.6-2.1v-4.9l3.8 2.2c.3.2.4.4.4.7v3.8c0 .2-.2.4-.4.4-.1 0-.2 0-.2-.1z" fill="#2b393f"/><path d="m65.4 58.2-3.2-1.8c-.3-.2-.4-.4-.4-.7v-3.7c0-.2.2-.4.4-.4.1 0 .1 0 .2.1l3.2 1.8c.3.2.4.4.4.7v3.7c0 .2-.2.4-.5.4.1 0 0 0-.1-.1z" fill="#02e49b"/><path d="m44.4 62.6-3.2-1.8c-.3-.2-.4-.4-.4-.7v-4.4l4.2 2.4v4.2c0 .2-.2.4-.4.4-.1 0-.2 0-.2-.1z" fill="#2b393f"/><path d="m38.1 59-3.2-1.8c-.3-.1-.4-.4-.4-.7v-4.4l4.2 2.4v4.2c0 .2-.2.4-.4.4-.1 0-.2 0-.2-.1z" fill="#2b393f"/><path d="m50.7 66.3-3.2-1.8c-.3-.2-.4-.4-.4-.7v-4.4l4.2 2.4v4.2c0 .2-.2.4-.4.4 0 0-.1 0-.2-.1z" fill="#2b393f"/><path d="m44.4 70.3-3.2-1.8c-.3-.2-.4-.4-.4-.7v-3.7c0-.2.2-.4.4-.4.1 0 .1 0 .2.1l3.2 1.8c.3.2.4.4.4.7v3.7c0 .2-.2.4-.4.4-.1 0-.2 0-.2-.1z" fill="#02e49b"/><path d="m44.4 77.9-3.2-1.8c-.3-.2-.4-.4-.4-.7v-3.7c0-.2.2-.4.4-.4.1 0 .1 0 .2.1l3.2 1.8c.3.2.4.4.4.7v3.7c0 .2-.2.4-.4.4-.1 0-.2 0-.2-.1z" fill="#d9dbdc"/><path d="m38.1 66.8-3.2-1.8c-.3-.2-.4-.5-.4-.8v-3.7c0-.2.2-.4.4-.4.1 0 .1 0 .2.1l3.2 1.8c.3.1.4.4.4.7v3.7c0 .2-.2.4-.4.4-.1.1-.2.1-.2 0z" fill="#02e49b"/><path d="m50.7 74-3.2-1.8c-.3-.2-.4-.4-.4-.7v-3.7c0-.2.2-.4.4-.4.1 0 .1 0 .2.1l3.2 1.8c.3.2.4.4.4.7v3.7c0 .2-.2.4-.4.4 0-.1-.1-.1-.2-.1z" fill="#02e49b"/><path d="m65.4 50.2-3.2-1.8c-.3-.2-.4-.4-.4-.7v-3.7c0-.2.2-.4.4-.4.1 0 .1 0 .2.1l3.2 1.8c.3.2.4.4.4.7v3.7c0 .2-.2.4-.4.4 0 0-.1 0-.2-.1z" fill="#02e49b"/><path d="m71.8 62.1-3.2-1.8c-.3-.2-.4-.4-.4-.7v-3.7c0-.2.2-.4.4-.4.1 0 .1 0 .2.1l3.2 1.8c.3.2.4.4.4.7v3.7c0 .2-.2.4-.4.4-.1-.1-.1-.1-.2-.1z" fill="#d9dbdc"/><path d="m65.4 64.7-3.2-1.8c-.3-.2-.4-.4-.4-.7v-3.7c0-.2.2-.4.4-.4.1 0 .2 0 .2.1l3.2 1.8c.3.2.4.4.4.7v3.7c0 .2-.2.4-.4.5 0-.1-.1-.1-.2-.2z" fill="#02e49b"/></svg>