<?xml version="1.0" encoding="utf-8"?>
<!-- Generator: Adobe Illustrator 23.0.6, SVG Export Plug-In . SVG Version: 6.00 Build 0)  -->
<svg version="1.1" id="Layer_1" xmlns="http://www.w3.org/2000/svg" xmlns:xlink="http://www.w3.org/1999/xlink" x="0px" y="0px"
	 viewBox="0 0 86 86" style="enable-background:new 0 0 86 86;" xml:space="preserve">
<style type="text/css">
	.st0{fill:#2B393F;}
	.st1{fill:#D9DBDC;}
	.st2{fill:#02E49B;}
</style>
<title>Artboard 60</title>
<path class="st0" d="M53.3,62.9L31.9,50.6c-0.6-0.4-1-1-1-1.8v-25c0-0.6,0.5-1,1-1c0.2,0,0.4,0,0.5,0.1l21.5,12.3
	c0.6,0.4,1,1.1,1,1.8v25c0,0.6-0.5,1-1,1C53.7,63.1,53.5,63,53.3,62.9z"/>
<path class="st1" d="M44.7,47.1l-3.8-2.2c-0.3-0.2-0.5-0.5-0.5-0.9v-4.5c0-0.3,0.2-0.5,0.5-0.5c0.1,0,0.2,0,0.3,0.1l3.9,2.2
	c0.3,0.2,0.5,0.5,0.5,0.8v4.5c0,0.3-0.2,0.5-0.5,0.5C44.9,47.2,44.8,47.1,44.7,47.1z"/>
<path class="st0" d="M44.9,30.1l-4.2-2.4v-4.2c0-0.2,0.2-0.4,0.5-0.4c0.1,0,0.1,0,0.2,0l3.2,1.8c0.3,0.1,0.4,0.4,0.4,0.7L44.9,30.1z
	"/>
<path class="st0" d="M50.7,33.5l-4.2-2.4v-4.2c0-0.2,0.2-0.4,0.4-0.4c0.1,0,0.1,0,0.2,0.1l3.2,1.8c0.3,0.1,0.4,0.4,0.4,0.7
	L50.7,33.5z"/>
<path class="st0" d="M39.1,26.8l-4.2-2.4v-4.2c0-0.2,0.2-0.4,0.4-0.4c0.1,0,0.1,0,0.2,0.1l3.2,1.8c0.3,0.1,0.4,0.4,0.4,0.7
	L39.1,26.8z"/>
<path class="st2" d="M44.3,21.8L41.1,20c-0.3-0.1-0.4-0.4-0.4-0.7v-3.7c0-0.2,0.2-0.4,0.4-0.4c0.1,0,0.1,0,0.2,0.1l3.2,1.8
	c0.3,0.1,0.4,0.4,0.4,0.7v3.7c0,0.2-0.2,0.4-0.4,0.4C44.4,21.8,44.3,21.8,44.3,21.8z"/>
<path class="st0" d="M30.8,31L27,28.8c-0.3-0.2-0.4-0.4-0.4-0.7v-3.7c0-0.2,0.2-0.4,0.4-0.4c0.1,0,0.1,0,0.2,0.1l3.6,2.1V31z"/>
<path class="st0" d="M30.8,38.3L27,36.1c-0.3-0.2-0.4-0.4-0.4-0.7v-3.7c0-0.2,0.2-0.4,0.4-0.4c0.1,0,0.2,0,0.2,0.1l3.6,2.1V38.3z"/>
<path class="st0" d="M30.8,45.3L27,43.1c-0.3-0.2-0.4-0.4-0.4-0.7v-3.7c0-0.2,0.2-0.4,0.4-0.4c0.1,0,0.1,0,0.2,0.1l3.6,2.1V45.3z"/>
<path class="st2" d="M50.1,25.3l-3.2-1.8c-0.3-0.1-0.4-0.4-0.4-0.7v-3.7c0-0.2,0.2-0.4,0.4-0.4c0.1,0,0.1,0,0.2,0.1l3.2,1.8
	c0.3,0.1,0.4,0.4,0.4,0.7v3.7c0,0.2-0.2,0.4-0.4,0.4C50.2,25.3,50.2,25.3,50.1,25.3z"/>
<path class="st2" d="M38.5,18.6l-3.1-1.8c-0.3-0.1-0.4-0.4-0.4-0.7v-3.7c0-0.2,0.2-0.4,0.4-0.4c0.1,0,0.1,0,0.2,0.1l3.2,1.8
	c0.3,0.1,0.4,0.4,0.4,0.7v3.7c0,0.2-0.2,0.4-0.4,0.4C38.7,18.7,38.6,18.6,38.5,18.6z"/>
<path class="st1" d="M44.4,14.6l-3.2-1.8c-0.3-0.2-0.4-0.4-0.4-0.7V8.4C40.8,8.2,41,8,41.2,8c0.1,0,0.1,0,0.2,0.1l3.2,1.8
	c0.3,0.2,0.4,0.4,0.4,0.7v3.7c0,0.2-0.2,0.4-0.4,0.4C44.5,14.7,44.4,14.7,44.4,14.6z"/>
<path class="st2" d="M23.3,27.5l-3.2-1.8c-0.3-0.2-0.4-0.4-0.4-0.7v-3.7c0-0.2,0.2-0.4,0.4-0.4c0.1,0,0.2,0,0.2,0.1l3.2,1.8
	c0.3,0.2,0.4,0.4,0.4,0.7v3.7c0,0.2-0.2,0.4-0.4,0.4C23.5,27.5,23.4,27.5,23.3,27.5z"/>
<path class="st1" d="M17,30.4l-3.2-1.8c-0.3-0.2-0.4-0.4-0.4-0.7v-3.7c0-0.2,0.2-0.4,0.4-0.4c0.1,0,0.1,0,0.2,0.1l3.2,1.8
	c0.3,0.2,0.4,0.4,0.4,0.7v3.7c0,0.2-0.2,0.4-0.4,0.4C17.1,30.5,17,30.5,17,30.4z"/>
<path class="st2" d="M23.3,34.8L20.2,33c-0.3-0.1-0.4-0.4-0.4-0.7v-3.6c0-0.2,0.2-0.4,0.4-0.4c0.1,0,0.1,0,0.2,0.1l3.1,1.8
	c0.3,0.1,0.4,0.4,0.4,0.7v3.7c0,0.2-0.2,0.4-0.4,0.4C23.4,34.8,23.4,34.8,23.3,34.8z"/>
<path class="st2" d="M23.3,42.4l-3.2-1.8c-0.3-0.1-0.4-0.4-0.4-0.7v-3.6c0-0.2,0.2-0.4,0.4-0.4c0.1,0,0.1,0,0.2,0.1l3.1,1.8
	c0.3,0.1,0.4,0.4,0.4,0.7V42c0,0.2-0.2,0.4-0.4,0.4C23.4,42.5,23.4,42.4,23.3,42.4z"/>
<path class="st0" d="M58.5,54.3l-3.6-2.1v-4.9l3.8,2.2c0.3,0.2,0.4,0.4,0.4,0.7v3.7c0,0.2-0.2,0.4-0.4,0.4
	C58.6,54.4,58.5,54.4,58.5,54.3z"/>
<path class="st0" d="M58.5,47L54.9,45v-4.9l3.8,2.2c0.3,0.2,0.4,0.4,0.4,0.8v3.7c0,0.2-0.2,0.4-0.5,0.4C58.6,47.1,58.5,47,58.5,47z"
	/>
<path class="st0" d="M58.5,61.3l-3.6-2.1v-4.9l3.8,2.2c0.3,0.2,0.4,0.4,0.4,0.7V61c0,0.2-0.2,0.4-0.4,0.4
	C58.6,61.4,58.5,61.4,58.5,61.3z"/>
<path class="st2" d="M65.4,58.2l-3.2-1.8c-0.3-0.2-0.4-0.4-0.4-0.7V52c0-0.2,0.2-0.4,0.4-0.4c0.1,0,0.1,0,0.2,0.1l3.2,1.8
	c0.3,0.2,0.4,0.4,0.4,0.7v3.7c0,0.2-0.2,0.4-0.5,0.4C65.6,58.3,65.5,58.3,65.4,58.2z"/>
<path class="st0" d="M44.4,62.6l-3.2-1.8c-0.3-0.2-0.4-0.4-0.4-0.7v-4.4l4.2,2.4v4.2c0,0.2-0.2,0.4-0.4,0.4
	C44.5,62.7,44.4,62.7,44.4,62.6z"/>
<path class="st0" d="M38.1,59l-3.2-1.8c-0.3-0.1-0.4-0.4-0.4-0.7v-4.4l4.2,2.4v4.2c0,0.2-0.2,0.4-0.4,0.4
	C38.2,59.1,38.1,59.1,38.1,59z"/>
<path class="st0" d="M50.7,66.3l-3.2-1.8c-0.3-0.2-0.4-0.4-0.4-0.7v-4.4l4.2,2.4V66c0,0.2-0.2,0.4-0.4,0.4
	C50.9,66.4,50.8,66.4,50.7,66.3z"/>
<path class="st2" d="M44.4,70.3l-3.2-1.8c-0.3-0.2-0.4-0.4-0.4-0.7v-3.7c0-0.2,0.2-0.4,0.4-0.4c0.1,0,0.1,0,0.2,0.1l3.2,1.8
	c0.3,0.2,0.4,0.4,0.4,0.7V70c0,0.2-0.2,0.4-0.4,0.4C44.5,70.4,44.4,70.4,44.4,70.3z"/>
<path class="st1" d="M44.4,77.9l-3.2-1.8c-0.3-0.2-0.4-0.4-0.4-0.7v-3.7c0-0.2,0.2-0.4,0.4-0.4c0.1,0,0.1,0,0.2,0.1l3.2,1.8
	c0.3,0.2,0.4,0.4,0.4,0.7v3.7c0,0.2-0.2,0.4-0.4,0.4C44.5,78,44.4,78,44.4,77.9z"/>
<path class="st2" d="M38.1,66.8L34.9,65c-0.3-0.2-0.4-0.5-0.4-0.8v-3.7c0-0.2,0.2-0.4,0.4-0.4c0.1,0,0.1,0,0.2,0.1l3.2,1.8
	c0.3,0.1,0.4,0.4,0.4,0.7v3.7c0,0.2-0.2,0.4-0.4,0.4C38.2,66.9,38.1,66.9,38.1,66.8z"/>
<path class="st2" d="M50.7,74l-3.2-1.8c-0.3-0.2-0.4-0.4-0.4-0.7v-3.7c0-0.2,0.2-0.4,0.4-0.4c0.1,0,0.1,0,0.2,0.1l3.2,1.8
	c0.3,0.2,0.4,0.4,0.4,0.7v3.7c0,0.2-0.2,0.4-0.4,0.4C50.9,74,50.8,74,50.7,74z"/>
<path class="st2" d="M65.4,50.2l-3.2-1.8c-0.3-0.2-0.4-0.4-0.4-0.7V44c0-0.2,0.2-0.4,0.4-0.4c0.1,0,0.1,0,0.2,0.1l3.2,1.8
	c0.3,0.2,0.4,0.4,0.4,0.7v3.7c0,0.2-0.2,0.4-0.4,0.4C65.6,50.3,65.5,50.3,65.4,50.2z"/>
<path class="st1" d="M71.8,62.1l-3.2-1.8c-0.3-0.2-0.4-0.4-0.4-0.7v-3.7c0-0.2,0.2-0.4,0.4-0.4c0.1,0,0.1,0,0.2,0.1l3.2,1.8
	c0.3,0.2,0.4,0.4,0.4,0.7v3.7c0,0.2-0.2,0.4-0.4,0.4C71.9,62.1,71.9,62.1,71.8,62.1z"/>
<path class="st2" d="M65.4,64.7l-3.2-1.8c-0.3-0.2-0.4-0.4-0.4-0.7v-3.7c0-0.2,0.2-0.4,0.4-0.4c0.1,0,0.2,0,0.2,0.1l3.2,1.8
	c0.3,0.2,0.4,0.4,0.4,0.7v3.7c0,0.2-0.2,0.4-0.4,0.5C65.6,64.8,65.5,64.8,65.4,64.7z"/>
</svg>
