<svg id="Layer_1" data-name="Layer 1" xmlns="http://www.w3.org/2000/svg" viewBox="0 0 86 86"><defs><style>.cls-1{fill:#d9dbdc;}.cls-2{fill:#02e49b;}.cls-3{fill:#2b393f;}</style></defs><title>Artboard 65</title><rect class="cls-1" x="16.81" y="16.28" width="4.98" height="25.56" transform="translate(54.12 26.88) rotate(120)"/><rect class="cls-1" x="63.53" y="16.11" width="4.98" height="26.87" transform="translate(58.6 -42.41) rotate(60)"/><circle class="cls-2" cx="77.59" cy="22.8" r="2.63"/><circle class="cls-2" cx="8.16" cy="22.8" r="2.63"/><rect class="cls-1" x="16.91" y="43.8" width="4.98" height="25.56" transform="translate(-19.89 101.67) rotate(-120)"/><rect class="cls-1" x="63.64" y="42.66" width="4.98" height="26.87" transform="translate(-15.51 85.32) rotate(-60)"/><circle class="cls-2" cx="77.7" cy="62.84" r="2.63"/><circle class="cls-2" cx="8.27" cy="62.84" r="2.63"/><rect class="cls-1" x="40.49" y="2.98" width="4.98" height="20.45" transform="translate(85.97 26.41) rotate(180)"/><rect class="cls-1" x="40.51" y="62.44" width="4.98" height="20.45" transform="translate(86 145.33) rotate(180)"/><circle class="cls-2" cx="42.98" cy="82.89" r="2.63"/><circle class="cls-2" cx="43" cy="2.98" r="2.63"/><path class="cls-3" d="M55.93,71.9,29.24,56.45a2,2,0,0,1-1-1.73V14.8a1,1,0,0,1,1.5-.86l20.8,12,7.19,15.18v29.7A1.2,1.2,0,0,1,55.93,71.9Z"/><path class="cls-1" d="M50.54,26l-.15,10a1.58,1.58,0,0,0,.78,1.36l6.56,3.8"/><path class="cls-2" d="M44.59,35.68,33.15,29.11a1,1,0,0,1-.5-.87V25.93a.5.5,0,0,1,.75-.44l11.44,6.58a1,1,0,0,1,.5.87v2.31A.5.5,0,0,1,44.59,35.68Z"/><path class="cls-2" d="M38.89,40.27l-4.65-2.75a1,1,0,0,1-.49-.86V34.35a.5.5,0,0,1,.75-.43l4.65,2.76a1,1,0,0,1,.49.86v2.3A.5.5,0,0,1,38.89,40.27Z"/><path class="cls-2" d="M53.57,48.66,42.14,42.08a1,1,0,0,1-.51-.87V38.9a.5.5,0,0,1,.75-.43l11.44,6.58a1,1,0,0,1,.5.86v2.32A.5.5,0,0,1,53.57,48.66Z"/><ellipse class="cls-1" cx="48.87" cy="60.59" rx="2.55" ry="2.93" transform="matrix(0.9, -0.43, 0.43, 0.9, -21.16, 26.6)"/></svg>