<?xml version="1.0" encoding="utf-8"?>
<!-- Generator: Adobe Illustrator 23.0.6, SVG Export Plug-In . SVG Version: 6.00 Build 0)  -->
<svg version="1.1" id="Layer_1" xmlns="http://www.w3.org/2000/svg" xmlns:xlink="http://www.w3.org/1999/xlink" x="0px" y="0px"
	 viewBox="0 0 86 86" style="enable-background:new 0 0 86 86;" xml:space="preserve">
<style type="text/css">
	.st0{fill:#D9DBDC;}
	.st1{fill:#02E49B;}
	.st2{fill:#2B393F;}
</style>
<title>Artboard 65</title>
<rect x="21.5" y="21" transform="matrix(0.5 -0.866 0.866 0.5 -15.5542 36.129)" class="st0" width="4.1" height="21"/>
<rect x="50.9" y="29.9" transform="matrix(0.866 -0.5 0.5 0.866 -7.6675 35.232)" class="st0" width="22.1" height="4.1"/>
<circle class="st1" cx="71.4" cy="26.4" r="2.2"/>
<circle class="st1" cx="14.4" cy="26.4" r="2.2"/>
<rect x="13.1" y="52.1" transform="matrix(0.866 -0.5 0.5 0.866 -23.9128 19.0541)" class="st0" width="21" height="4.1"/>
<rect x="60" y="42.7" transform="matrix(0.5 -0.866 0.866 0.5 -15.5505 80.5714)" class="st0" width="4.1" height="22.1"/>
<circle class="st1" cx="71.5" cy="59.3" r="2.2"/>
<circle class="st1" cx="14.4" cy="59.3" r="2.2"/>
<rect x="40.9" y="10.1" class="st0" width="4.1" height="16.8"/>
<rect x="40.9" y="59" class="st0" width="4.1" height="16.8"/>
<circle class="st1" cx="43" cy="75.8" r="2.2"/>
<circle class="st1" cx="43" cy="10.1" r="2.2"/>
<path class="st2" d="M53.6,66.7L31.7,54c-0.5-0.3-0.8-0.8-0.8-1.4V19.8c0-0.5,0.4-0.8,0.8-0.8c0.1,0,0.3,0,0.4,0.1L49.2,29l5.9,12.5
	v24.4c0,0.5-0.4,1-1,1C54,66.9,53.8,66.8,53.6,66.7z"/>
<path class="st0" d="M49.2,29l-0.1,8.2c0,0.5,0.2,0.9,0.6,1.1l5.4,3.1"/>
<path class="st1" d="M44.3,37l-9.4-5.4c-0.3-0.1-0.4-0.4-0.4-0.7V29c0-0.2,0.2-0.4,0.4-0.4c0.1,0,0.1,0,0.2,0.1l9.4,5.4
	c0.3,0.1,0.4,0.4,0.4,0.7v1.9c0,0.2-0.2,0.4-0.4,0.4C44.4,37,44.4,37,44.3,37z"/>
<path class="st1" d="M39.6,40.7l-3.8-2.3c-0.2-0.1-0.4-0.4-0.4-0.7v-1.9c0-0.2,0.2-0.4,0.4-0.4c0.1,0,0.1,0,0.2,0.1l3.8,2.3
	c0.2,0.1,0.4,0.4,0.4,0.7v1.9c0,0.2-0.2,0.4-0.4,0.4C39.7,40.8,39.7,40.8,39.6,40.7z"/>
<path class="st1" d="M51.7,47.6l-9.4-5.4c-0.3-0.1-0.4-0.4-0.4-0.7v-1.9c0-0.2,0.2-0.4,0.4-0.4c0.1,0,0.1,0,0.2,0.1l9.4,5.4
	c0.3,0.1,0.4,0.4,0.4,0.7v1.9c0,0.2-0.2,0.4-0.4,0.4C51.8,47.7,51.7,47.7,51.7,47.6z"/>
<ellipse transform="matrix(0.9023 -0.4311 0.4311 0.9023 -19.9255 26.1884)" class="st0" cx="47.8" cy="57.1" rx="2.1" ry="2.4"/>
</svg>
