<svg enable-background="new 0 0 86 86" viewBox="0 0 86 86" xmlns="http://www.w3.org/2000/svg"><path d="m21.5 21h4.1v21h-4.1z" fill="#d9dbdc" transform="matrix(.5 -.866 .866 .5 -15.5542 36.129)"/><path d="m50.9 29.9h22.1v4.1h-22.1z" fill="#d9dbdc" transform="matrix(.866 -.5 .5 .866 -7.6675 35.232)"/><circle cx="71.4" cy="26.4" fill="#02e49b" r="2.2"/><circle cx="14.4" cy="26.4" fill="#02e49b" r="2.2"/><path d="m13.1 52.1h21v4.1h-21z" fill="#d9dbdc" transform="matrix(.866 -.5 .5 .866 -23.9128 19.0541)"/><path d="m60 42.7h4.1v22.1h-4.1z" fill="#d9dbdc" transform="matrix(.5 -.866 .866 .5 -15.5505 80.5714)"/><circle cx="71.5" cy="59.3" fill="#02e49b" r="2.2"/><circle cx="14.4" cy="59.3" fill="#02e49b" r="2.2"/><path d="m40.9 10.1h4.1v16.8h-4.1z" fill="#d9dbdc"/><path d="m40.9 59h4.1v16.8h-4.1z" fill="#d9dbdc"/><circle cx="43" cy="75.8" fill="#02e49b" r="2.2"/><circle cx="43" cy="10.1" fill="#02e49b" r="2.2"/><path d="m53.6 66.7-21.9-12.7c-.5-.3-.8-.8-.8-1.4v-32.8c0-.5.4-.8.8-.8.1 0 .3 0 .4.1l17.1 9.9 5.9 12.5v24.4c0 .5-.4 1-1 1-.1 0-.3-.1-.5-.2z" fill="#2b393f"/><path d="m49.2 29-.1 8.2c0 .5.2.9.6 1.1l5.4 3.1" fill="#d9dbdc"/><g fill="#02e49b"><path d="m44.3 37-9.4-5.4c-.3-.1-.4-.4-.4-.7v-1.9c0-.2.2-.4.4-.4.1 0 .1 0 .2.1l9.4 5.4c.3.1.4.4.4.7v1.9c0 .2-.2.4-.4.4-.1-.1-.1-.1-.2-.1z"/><path d="m39.6 40.7-3.8-2.3c-.2-.1-.4-.4-.4-.7v-1.9c0-.2.2-.4.4-.4.1 0 .1 0 .2.1l3.8 2.3c.2.1.4.4.4.7v1.9c0 .2-.2.4-.4.4-.1 0-.1 0-.2-.1z"/><path d="m51.7 47.6-9.4-5.4c-.3-.1-.4-.4-.4-.7v-1.9c0-.2.2-.4.4-.4.1 0 .1 0 .2.1l9.4 5.4c.3.1.4.4.4.7v1.9c0 .2-.2.4-.4.4-.1 0-.2 0-.2-.1z"/></g><ellipse cx="47.8" cy="57.1" fill="#d9dbdc" rx="2.1" ry="2.4" transform="matrix(.9023 -.4311 .4311 .9023 -19.9255 26.1884)"/></svg>