<?xml version="1.0" encoding="utf-8"?>
<!-- Generator: Adobe Illustrator 23.1.1, SVG Export Plug-In . SVG Version: 6.00 Build 0)  -->
<svg version="1.1" id="Layer_1" xmlns="http://www.w3.org/2000/svg" xmlns:xlink="http://www.w3.org/1999/xlink" x="0px" y="0px"
	 viewBox="0 0 300 1007" style="enable-background:new 0 0 300 1007;" xml:space="preserve">
<style type="text/css">
	.st0{opacity:0.38;}
	.st1{fill:#1B1B1B;}
	.st2{fill:none;stroke:#00E599;stroke-width:1.914;stroke-miterlimit:10;}
	.st3{fill:#2B393F;}
</style>
<g class="st0">
	<path d="M59.6,73.7c0-0.5-0.2-0.9-0.5-1.2s-0.7-0.4-1.3-0.4c-0.4,0-0.8,0.1-1.1,0.3s-0.7,0.5-1.1,0.8v-1.1c0.3-0.3,0.6-0.5,1-0.7
		s0.8-0.2,1.3-0.2c0.8,0,1.5,0.2,2,0.7s0.8,1,0.8,1.8c0,0.7-0.2,1.2-0.5,1.7s-0.8,1-1.6,1.5c-0.8,0.5-1.3,0.9-1.5,1.1
		s-0.4,0.4-0.5,0.7s-0.2,0.5-0.2,0.8H61v1h-5.7v-0.4c0-0.5,0.1-1,0.2-1.3s0.4-0.7,0.7-1.1s0.8-0.8,1.5-1.2c0.7-0.5,1.2-0.9,1.5-1.3
		S59.6,74.2,59.6,73.7z"/>
	<path d="M62.1,76c0-1.6,0.3-2.8,0.8-3.6s1.3-1.2,2.3-1.2c1.9,0,2.9,1.6,2.9,4.7c0,1.5-0.3,2.7-0.8,3.5S66,80.5,65,80.5
		c-0.9,0-1.6-0.4-2.1-1.2S62.1,77.5,62.1,76z M63.3,76c0,2.4,0.6,3.6,1.8,3.6c1.2,0,1.8-1.2,1.8-3.7c0-2.5-0.6-3.8-1.8-3.8
		C63.9,72.1,63.3,73.4,63.3,76z"/>
	<path d="M72,80.4v-7.8c-0.2,0.2-0.5,0.4-0.9,0.6s-0.8,0.4-1.2,0.5v-1.1c0.5-0.1,1-0.3,1.5-0.6s1-0.6,1.3-0.8h0.4v9.3L72,80.4
		L72,80.4z"/>
	<path d="M81.1,71.3v6h1.4v0.9h-1.4v2.1H80v-2.1h-4.2v-0.9c0.8-0.8,1.5-1.8,2.3-2.9s1.4-2.1,1.9-3.1L81.1,71.3L81.1,71.3z
		 M77.1,77.3H80V73c-0.4,0.7-0.8,1.4-1.3,2.1S77.7,76.5,77.1,77.3z"/>
	<path d="M82.9,78h1.9v-3.3H89v-2.1h-3.4c-0.5,0.9-1.1,1.8-1.8,2.6c-0.2-0.2-0.4-0.4-0.7-0.7c1.1-1.2,1.9-2.7,2.5-4.2l1,0.3
		c-0.2,0.4-0.3,0.8-0.5,1.1H94v0.8h-4.1v2.1h3.9v0.8h-3.9V78h4.6v0.8h-4.6V82H89v-3.2h-6L82.9,78L82.9,78z M85.8,78H89v-2.5h-3.2V78
		z"/>
	<path d="M100.7,72.5c-0.5-0.2-1-0.4-1.5-0.4c-0.8,0-1.4,0.3-1.9,1s-0.7,1.6-0.7,2.8h0c0.4-0.8,1.1-1.2,2.1-1.2
		c0.8,0,1.4,0.3,1.9,0.8s0.7,1.2,0.7,2c0,0.9-0.3,1.6-0.8,2.2s-1.2,0.9-2.1,0.9c-0.9,0-1.6-0.4-2.2-1.1s-0.8-1.7-0.8-3.1
		c0-1.6,0.3-2.9,1-3.8s1.6-1.4,2.7-1.4c0.6,0,1.2,0.1,1.5,0.3L100.7,72.5L100.7,72.5z M96.7,77.4c0,0.6,0.2,1.1,0.5,1.5
		s0.7,0.6,1.3,0.6c0.5,0,0.9-0.2,1.2-0.6s0.5-0.8,0.5-1.4c0-0.6-0.2-1.1-0.4-1.5s-0.7-0.5-1.3-0.5c-0.5,0-0.9,0.2-1.2,0.5
		S96.7,76.9,96.7,77.4z"/>
	<path d="M104.8,78c-0.2,1.5-0.8,2.9-1.8,4.1c-0.2-0.2-0.5-0.5-0.8-0.7c0.8-0.8,1.3-1.8,1.5-2.9c0.2-0.8,0.3-2,0.3-3.5v-4.1h7.8V80
		c0,1.2-0.6,1.7-1.7,1.7c-0.5,0-1.1,0-1.8,0c0-0.3-0.1-0.6-0.2-1c0.7,0.1,1.3,0.1,1.7,0.1c0.6,0,0.9-0.3,0.9-0.9V78L104.8,78
		L104.8,78z M104.9,77.1h6v-2.2h-5.9C104.9,75.6,104.9,76.4,104.9,77.1z M104.9,71.8V74h5.9v-2.2L104.9,71.8L104.9,71.8z"/>
</g>
<g>
	<path class="st1" d="M56.6,93.4l1.8,0.4c-0.6,2.1-1.2,4-1.8,5.8l-1.7-0.7C55.5,97.1,56.1,95.3,56.6,93.4z M59.8,90.9h1.8v8.9
		c0,0.8-0.1,1.3-0.4,1.7s-0.5,0.6-0.9,0.7s-1.2,0.1-2.6,0.1c-0.1-0.7-0.3-1.3-0.4-1.8c0.6,0.1,1.2,0.1,1.6,0.1c0.5,0,0.8-0.3,0.8-1
		C59.8,99.5,59.8,90.9,59.8,90.9z M64.3,93.4c0.7,1.7,1.5,3.5,2.2,5.4l-1.8,0.7c-0.6-2-1.3-3.9-2-5.6L64.3,93.4z"/>
	<path class="st1" d="M78.2,92.1c-0.3,2.7-1,4.9-2.1,6.7c0.7,0.8,1.5,1.5,2.4,1.9c-0.2,0.2-0.4,0.8-0.9,1.7c-1-0.5-1.9-1.2-2.6-2.1
		c-0.8,0.9-1.8,1.6-2.8,2.2c-0.1-0.3-0.3-0.5-0.4-0.8l-0.5,0.1c-0.1-0.2-0.1-0.5-0.1-0.7c-1,0.2-2.4,0.5-4.1,0.8l-0.3-1.6
		c0.7-0.1,1.4-0.2,2-0.3v-2.2h-0.6v0.6h-1.1v-5.9h1.6v-1.8h1.3v1.8h1.6v5.3h-1.6v1.9c0.2,0,0.5-0.1,0.7-0.1c-0.1-0.4-0.2-0.7-0.3-1
		l1.1-0.3c0.1,0.4,0.3,1.1,0.5,1.9c0.7-0.5,1.3-1,1.8-1.6c-1-1.7-1.7-3.9-2-6.5l1.5-0.3c0.3,2.1,0.8,3.9,1.6,5.3
		c0.8-1.5,1.4-3.3,1.6-5.4L78.2,92.1z M68.2,96.6h0.6v-2.7h-0.6V96.6z M70.7,96.6v-2.7h-0.6v2.7H70.7z M75,90.7
		c0.4,0.9,0.7,1.8,1,2.7l-1.4,0.5c-0.4-1.2-0.7-2.1-0.9-2.8L75,90.7z"/>
	<path class="st1" d="M79.1,100.9l-0.3-1.8l1.2-0.3v-5.8h-1.1v-1.6h3.8v1.6h-1.1v5.4c0.4-0.1,0.8-0.2,1.2-0.3c0,0.6,0,1.1,0,1.8
		C81.4,100.3,80.2,100.6,79.1,100.9z M85.8,95.9h1.6c0,1-0.2,1.9-0.4,2.7c1.2,0.7,2.4,1.5,3.6,2.4l-1,1.3c-0.8-0.7-1.9-1.5-3.2-2.4
		c-0.7,1.1-1.8,1.9-3.4,2.5c-0.3-0.6-0.6-1.1-0.9-1.6c1.4-0.3,2.4-0.9,3-1.7S85.8,97.3,85.8,95.9z M83.2,91.2h7.1v1.4h-3.1l-0.2,1.1
		h2.8v5.4h-1.6v-3.9h-3.6v4h-1.6v-5.4h2.1l0.2-1.1h-2.2L83.2,91.2L83.2,91.2z"/>
	<path class="st1" d="M92,102.3V91.5h9.2v10.8h-1.7v-0.8h-5.9v0.8C93.6,102.3,92,102.3,92,102.3z M99.5,93h-5.9v1.3h5.9V93z
		 M93.6,97.1h5.9v-1.3h-5.9C93.6,95.8,93.6,97.1,93.6,97.1z M93.6,100h5.9v-1.4h-5.9C93.6,98.6,93.6,100,93.6,100z"/>
	<path class="st1" d="M103.9,92h4c-0.1-0.3-0.2-0.6-0.3-0.9l1.8-0.4c0.2,0.4,0.3,0.8,0.5,1.2h3.8v4.2h-8.2c0,2.6-0.5,4.6-1.5,6.1
		c-0.3-0.4-0.7-0.8-1.2-1.4c0.8-1.3,1.1-2.9,1.1-4.9C103.9,96,103.9,92,103.9,92z M112,94.7v-1.3h-6.6v1.3H112z M105.8,102.3v-5h7.7
		v5H112v-0.6h-4.6v0.6L105.8,102.3L105.8,102.3z M112,98.7h-4.6v1.5h4.6C112,100.2,112,98.7,112,98.7z"/>
	<path class="st1" d="M119.2,96.7l1.2,2.9c0.5-1,0.8-2.7,0.8-5.3h-1.2v-1.6h1.2l0-2h1.6l0,2h3.1l-0.1,6.6c0,0.9-0.1,1.4-0.1,1.7
		s-0.2,0.4-0.3,0.6s-0.4,0.3-0.6,0.4s-1,0.1-2.1,0.1c-0.1-0.6-0.3-1.2-0.4-1.8c0.5,0,0.9,0.1,1.3,0.1c0.2,0,0.4,0,0.5-0.1
		s0.2-0.2,0.2-0.4s0.1-0.8,0.1-1.8s0.1-2.3,0.1-3.8h-1.5c0,1.7-0.1,3-0.2,3.7s-0.3,1.5-0.7,2.3s-0.8,1.4-1.3,2.1
		c-0.4-0.3-0.9-0.7-1.4-1c0.2-0.2,0.4-0.5,0.6-0.7l-3.2,0.3c-0.5,0.1-0.9,0.1-1.1,0.2l-0.7-1.4c0.4-0.3,0.9-1.6,1.5-3.7h-1.5v-1.5
		h5.4v1.5H118c-0.4,1.1-0.8,2.2-1.2,3.3c0.7,0,1.3,0,1.9-0.1c-0.3-0.8-0.6-1.5-0.8-2.2L119.2,96.7z M119.8,93.1h-4.5v-1.5h4.5V93.1z
		"/>
</g>
<g class="st0">
	<g>
		<path d="M59.6,135.8c0-0.5-0.2-0.9-0.5-1.1s-0.7-0.4-1.3-0.4c-0.4,0-0.8,0.1-1.1,0.3s-0.7,0.5-1.1,0.8v-1.1c0.3-0.3,0.6-0.5,1-0.7
			s0.8-0.2,1.3-0.2c0.8,0,1.5,0.2,2,0.7s0.8,1,0.8,1.8c0,0.7-0.2,1.2-0.5,1.7s-0.8,1-1.6,1.5c-0.8,0.5-1.3,0.9-1.5,1.1
			s-0.4,0.4-0.5,0.6s-0.2,0.5-0.2,0.8H61v1h-5.7v-0.4c0-0.5,0.1-1,0.2-1.3s0.4-0.7,0.7-1.1s0.8-0.8,1.5-1.2c0.7-0.5,1.2-0.9,1.5-1.3
			S59.6,136.3,59.6,135.8z"/>
		<path d="M62.1,138.2c0-1.6,0.3-2.8,0.8-3.6s1.3-1.2,2.3-1.2c1.9,0,2.9,1.6,2.9,4.6c0,1.5-0.3,2.7-0.8,3.5s-1.3,1.2-2.3,1.2
			c-0.9,0-1.6-0.4-2.1-1.1S62.1,139.6,62.1,138.2z M63.3,138.1c0,2.4,0.6,3.6,1.8,3.6c1.2,0,1.8-1.2,1.8-3.7c0-2.5-0.6-3.8-1.8-3.8
			C63.9,134.2,63.3,135.5,63.3,138.1z"/>
		<path d="M72,142.5v-7.8c-0.2,0.2-0.5,0.4-0.9,0.6s-0.8,0.4-1.2,0.5v-1.1c0.5-0.1,1-0.3,1.5-0.6s1-0.6,1.3-0.8h0.4v9.3L72,142.5
			L72,142.5z"/>
		<path d="M81.9,139.7c0,0.9-0.3,1.6-0.9,2.1s-1.4,0.8-2.4,0.8c-0.8,0-1.5-0.1-1.9-0.4v-1.2c0.6,0.4,1.2,0.6,1.9,0.6
			c0.6,0,1.1-0.2,1.5-0.5s0.6-0.8,0.6-1.4s-0.2-1-0.6-1.4s-1-0.5-1.7-0.5c-0.6,0-1.1,0-1.5,0.1l0.3-4.6h4.2v1h-3.3l-0.2,2.6l0.8,0
			c1,0,1.7,0.2,2.3,0.7S81.9,138.9,81.9,139.7z"/>
		<path d="M82.9,140.1h1.9v-3.4H89v-2.1h-3.4c-0.5,0.9-1.1,1.8-1.8,2.6c-0.2-0.2-0.4-0.4-0.7-0.7c1.1-1.2,1.9-2.6,2.5-4.2l1,0.3
			c-0.2,0.4-0.3,0.8-0.5,1.1H94v0.8h-4.1v2.1h3.9v0.8h-3.9v2.5h4.6v0.8h-4.6v3.2H89v-3.2h-6L82.9,140.1L82.9,140.1z M85.8,140.1H89
			v-2.5h-3.2V140.1z"/>
		<path d="M100.7,134.6c-0.5-0.2-1-0.4-1.5-0.4c-0.8,0-1.4,0.3-1.9,1s-0.7,1.6-0.7,2.8h0c0.4-0.8,1.1-1.2,2.1-1.2
			c0.8,0,1.4,0.3,1.9,0.8s0.7,1.2,0.7,2c0,0.9-0.3,1.6-0.8,2.2s-1.2,0.9-2.1,0.9c-0.9,0-1.7-0.4-2.2-1.1s-0.8-1.7-0.8-3.1
			c0-1.6,0.3-2.9,1-3.8s1.6-1.4,2.7-1.4c0.6,0,1.2,0.1,1.5,0.3L100.7,134.6L100.7,134.6z M96.7,139.6c0,0.6,0.2,1.1,0.5,1.5
			s0.7,0.6,1.3,0.6c0.5,0,0.9-0.2,1.2-0.6s0.5-0.8,0.5-1.4c0-0.6-0.2-1.1-0.4-1.5s-0.7-0.5-1.3-0.5c-0.5,0-0.9,0.2-1.2,0.5
			S96.7,139.1,96.7,139.6z"/>
		<path d="M104.8,140.1c-0.2,1.5-0.8,2.9-1.8,4.1c-0.2-0.2-0.5-0.5-0.8-0.7c0.8-0.8,1.3-1.8,1.5-2.9c0.2-0.8,0.3-2,0.3-3.5v-4.1h7.8
			v9.1c0,1.2-0.6,1.7-1.7,1.7c-0.5,0-1.1,0-1.8,0c0-0.3-0.1-0.6-0.2-1c0.7,0.1,1.3,0.1,1.7,0.1c0.6,0,0.9-0.3,0.9-0.9v-1.9
			L104.8,140.1L104.8,140.1z M104.9,139.3h6V137h-5.9C104.9,137.8,104.9,138.5,104.9,139.3z M104.9,133.9v2.2h5.9v-2.2H104.9z"/>
	</g>
</g>
<g>
	<g>
		<path class="st1" d="M63,162.3c-0.9,0.5-2,0.8-3.3,0.8c-1.5,0-2.6-0.4-3.4-1.2s-1.2-1.9-1.2-3.3c0-1.4,0.5-2.6,1.4-3.5
			s2.1-1.3,3.6-1.3c1,0,1.8,0.1,2.5,0.4v1.8c-0.7-0.4-1.6-0.6-2.6-0.6c-0.9,0-1.6,0.3-2.1,0.9s-0.8,1.3-0.8,2.3
			c0,0.9,0.2,1.7,0.7,2.2s1.2,0.8,2,0.8c0.5,0,0.9-0.1,1.2-0.2v-1.9h-1.8v-1.6H63V162.3z"/>
		<path class="st1" d="M64.4,154.3c0-0.3,0.1-0.5,0.3-0.7s0.5-0.3,0.8-0.3c0.3,0,0.6,0.1,0.8,0.3s0.3,0.4,0.3,0.7
			c0,0.3-0.1,0.5-0.3,0.7s-0.5,0.3-0.8,0.3s-0.6-0.1-0.8-0.3S64.4,154.6,64.4,154.3z M64.6,162.9v-6.5h1.9v6.5H64.6z"/>
		<path class="st1" d="M72,162.8c-0.3,0.2-0.7,0.2-1.3,0.2c-1.4,0-2.1-0.7-2.1-2.2v-3.1h-1.1v-1.4h1.1V155l1.9-0.5v2H72v1.4h-1.5
			v2.7c0,0.7,0.3,1,0.8,1c0.2,0,0.4-0.1,0.7-0.2L72,162.8L72,162.8z"/>
		<path class="st1" d="M81.1,162.9h-1.9v-3.7h-3.9v3.7h-1.9v-9.1h1.9v3.7h3.9v-3.7h1.9V162.9z"/>
		<path class="st1" d="M89.1,162.9h-1.9v-1h0c-0.5,0.8-1.2,1.1-2,1.1c-1.5,0-2.3-0.9-2.3-2.7v-3.9h1.9v3.7c0,1,0.4,1.4,1.1,1.4
			c0.4,0,0.7-0.1,0.9-0.4s0.3-0.6,0.3-1.1v-3.7h1.9V162.9z"/>
		<path class="st1" d="M92.7,162.1v0.8h-1.9v-9.6h1.9v4.1h0c0.5-0.8,1.2-1.1,2.1-1.1c0.8,0,1.5,0.3,1.9,0.9s0.7,1.4,0.7,2.4
			c0,1.1-0.3,1.9-0.8,2.6s-1.2,1-2.1,1C93.7,163.1,93.1,162.7,92.7,162.1L92.7,162.1L92.7,162.1z M92.6,160.1c0,0.4,0.1,0.8,0.4,1.1
			s0.6,0.4,1,0.4c0.5,0,0.8-0.2,1.1-0.6s0.4-0.9,0.4-1.6c0-0.6-0.1-1-0.4-1.3s-0.6-0.5-1-0.5c-0.4,0-0.8,0.2-1.1,0.5
			s-0.4,0.7-0.4,1.2C92.6,159.4,92.6,160.1,92.6,160.1z"/>
		<path class="st1" d="M98.1,158h2.7v-2.9h-2.1v-1.5h10.5v1.5h-1.9v2.9h2.4v1.5h-2.4v4.8h-1.7v-4.8h-3.1c-0.1,1.4-0.3,2.5-0.8,3.2
			s-1.2,1.3-2.1,1.8c-0.4-0.4-0.9-0.8-1.5-1.2c0.7-0.4,1.3-0.9,1.8-1.4s0.8-1.4,0.8-2.5h-2.7V158z M102.5,158h3.1v-2.9h-3.1V158z"/>
		<path class="st1" d="M111,156c0.6,0.4,1.2,0.9,1.8,1.5l-1.1,1.3c-0.6-0.6-1.2-1.1-1.8-1.6L111,156z M111.4,159.4
			c0.6,0.3,1.1,0.4,1.4,0.6l-1.1,4.4c-0.5-0.2-1-0.4-1.6-0.5C110.6,162.7,111,161.2,111.4,159.4z M111.2,153
			c0.9,0.6,1.5,1.1,1.9,1.4l-1.1,1.2c-0.6-0.5-1.2-1.1-1.8-1.6L111.2,153z M116.1,160.9l1.2,0.7c-0.3,0.4-0.6,0.9-0.9,1.3
			c0.2,0,0.5,0.1,0.8,0.1c0.3-0.1,0.5-0.2,0.5-0.5v-1.9h-2.1v-5h1.3c0.1-0.3,0.3-0.7,0.4-1h-2.3v3.5c0,2.9-0.4,5.1-1.3,6.3
			c-0.5-0.5-0.9-0.9-1.3-1.1c0.8-1.1,1.1-2.9,1.1-5.4v-4.6h8.2v1.3h-2.9c-0.1,0.2-0.2,0.6-0.5,1h2.8v5h-2v2.2c0,0.4-0.1,0.8-0.3,1
			s-0.5,0.4-0.8,0.5s-0.9,0.1-1.5,0.1c-0.1-0.4-0.2-0.9-0.3-1.4c-0.2,0.3-0.5,0.6-0.7,0.9l-1.1-0.9
			C115,162.5,115.5,161.8,116.1,160.9z M119.7,156.9H117v0.7h2.7V156.9z M119.7,159.5v-0.8H117v0.8H119.7z M120.3,160.9
			c0.5,0.6,1,1.4,1.5,2.2l-1.2,0.7c-0.4-0.7-0.8-1.5-1.4-2.3L120.3,160.9z"/>
	</g>
</g>
<g class="st0">
	<g>
		<path d="M59.6,197.8c0-0.5-0.2-0.9-0.5-1.1s-0.7-0.4-1.3-0.4c-0.4,0-0.8,0.1-1.1,0.3s-0.7,0.5-1.1,0.8v-1.1c0.3-0.3,0.6-0.5,1-0.7
			s0.8-0.2,1.3-0.2c0.8,0,1.5,0.2,2,0.7s0.8,1,0.8,1.8c0,0.7-0.2,1.2-0.5,1.7s-0.8,1-1.6,1.5c-0.8,0.5-1.3,0.9-1.5,1.1
			s-0.4,0.4-0.5,0.6s-0.2,0.5-0.2,0.8H61v1h-5.7v-0.4c0-0.5,0.1-1,0.2-1.3s0.4-0.7,0.7-1.1s0.8-0.8,1.5-1.2c0.7-0.5,1.2-0.9,1.5-1.3
			S59.6,198.3,59.6,197.8z"/>
		<path d="M62.1,200.2c0-1.6,0.3-2.8,0.8-3.6s1.3-1.2,2.3-1.2c1.9,0,2.9,1.6,2.9,4.6c0,1.5-0.3,2.7-0.8,3.5s-1.3,1.2-2.3,1.2
			c-0.9,0-1.6-0.4-2.1-1.1S62.1,201.6,62.1,200.2z M63.3,200.1c0,2.4,0.6,3.6,1.8,3.6c1.2,0,1.8-1.2,1.8-3.7c0-2.5-0.6-3.8-1.8-3.8
			C63.9,196.2,63.3,197.5,63.3,200.1z"/>
		<path d="M72,204.5v-7.8c-0.2,0.2-0.5,0.4-0.9,0.6s-0.8,0.4-1.2,0.5v-1.1c0.5-0.1,1-0.3,1.5-0.6s1-0.6,1.3-0.8h0.4v9.3L72,204.5
			L72,204.5z"/>
		<path d="M81.9,201.7c0,0.9-0.3,1.6-0.9,2.1s-1.4,0.8-2.4,0.8c-0.8,0-1.5-0.1-1.9-0.4v-1.2c0.6,0.4,1.2,0.6,1.9,0.6
			c0.6,0,1.1-0.2,1.5-0.5s0.6-0.8,0.6-1.4s-0.2-1-0.6-1.4s-1-0.5-1.7-0.5c-0.6,0-1.1,0-1.5,0.1l0.3-4.6h4.2v1h-3.3l-0.2,2.6l0.8,0
			c1,0,1.7,0.2,2.3,0.7S81.9,200.9,81.9,201.7z"/>
		<path d="M82.9,202.1h1.9v-3.4H89v-2.1h-3.4c-0.5,0.9-1.1,1.8-1.8,2.6c-0.2-0.2-0.4-0.4-0.7-0.7c1.1-1.2,1.9-2.6,2.5-4.2l1,0.3
			c-0.2,0.4-0.3,0.8-0.5,1.1H94v0.8h-4.1v2.1h3.9v0.8h-3.9v2.5h4.6v0.8h-4.6v3.2H89v-3.2h-6L82.9,202.1L82.9,202.1z M85.8,202.1H89
			v-2.5h-3.2V202.1z"/>
		<path d="M98.1,204.5v-7.8c-0.2,0.2-0.5,0.4-0.9,0.6s-0.8,0.4-1.2,0.5v-1.1c0.5-0.1,1-0.3,1.5-0.6s1-0.6,1.3-0.8h0.4v9.3
			L98.1,204.5L98.1,204.5z"/>
		<path d="M102.3,200.2c0-1.6,0.3-2.8,0.8-3.6s1.3-1.2,2.3-1.2c1.9,0,2.9,1.6,2.9,4.6c0,1.5-0.3,2.7-0.8,3.5s-1.3,1.2-2.3,1.2
			c-0.9,0-1.6-0.4-2.1-1.1S102.3,201.6,102.3,200.2z M103.5,200.1c0,2.4,0.6,3.6,1.8,3.6c1.2,0,1.8-1.2,1.8-3.7
			c0-2.5-0.6-3.8-1.8-3.8C104.1,196.2,103.5,197.5,103.5,200.1z"/>
		<path d="M111.8,202.1c-0.2,1.5-0.8,2.9-1.8,4.1c-0.2-0.2-0.5-0.5-0.8-0.7c0.8-0.8,1.3-1.8,1.5-2.9c0.2-0.8,0.3-2,0.3-3.5v-4.1h7.8
			v9.1c0,1.2-0.6,1.7-1.7,1.7c-0.5,0-1.1,0-1.8,0c0-0.3-0.1-0.6-0.2-1c0.7,0.1,1.3,0.1,1.7,0.1c0.6,0,0.9-0.3,0.9-0.9v-1.9
			L111.8,202.1L111.8,202.1z M111.9,201.3h6V199H112C112,199.8,112,200.5,111.9,201.3z M112,195.9v2.2h5.9v-2.2H112z"/>
	</g>
</g>
<g>
	<g>
		<path class="st1" d="M55.7,218.1c0.6,0.4,1.2,0.9,1.8,1.5l-1,1.3c-0.5-0.4-1-1-1.8-1.6L55.7,218.1z M56.1,221.4
			c0.5,0.2,1,0.4,1.5,0.6l-1.1,4.4c-0.5-0.2-1-0.4-1.5-0.5C55.4,224.7,55.7,223.2,56.1,221.4z M57.8,222.9v-6.4l-1,1.1
			c-0.5-0.5-1.1-1-1.7-1.6l1-1.1c0.5,0.4,1.2,0.9,1.8,1.4v-0.9h4.5v7.3h-1.2v-6H59v6.1L57.8,222.9L57.8,222.9z M59.5,217.6h1.1v3
			c0,1.3-0.2,2.4-0.5,3.2l0.8-0.6c0.7,0.7,1.3,1.4,1.8,2l-1.2,0.9c-0.5-0.7-1-1.4-1.6-2.1c-0.4,0.9-1,1.7-1.9,2.5
			c-0.4-0.5-0.7-0.9-1-1.3c0.9-0.6,1.5-1.3,1.8-2s0.5-1.7,0.5-2.8L59.5,217.6L59.5,217.6z M64.6,215.1H66v9.7c0,0.4-0.1,0.7-0.3,1
			s-0.4,0.4-0.7,0.4s-0.9,0.1-1.8,0.1c-0.1-0.5-0.2-1.1-0.4-1.6c0.4,0.1,0.8,0.1,1.2,0.1c0.3,0,0.5-0.2,0.5-0.6
			C64.6,224.1,64.6,215.1,64.6,215.1z M62.8,215.9H64v7.8h-1.2V215.9z"/>
		<path class="st1" d="M70.1,219.9H74v1.5h-1.2v2.4l1.4-0.2c0,0.7,0,1.3,0,1.6c-0.5,0.1-1.8,0.3-4,0.6l-0.2-1
			c-0.7,0.5-1.3,1-1.7,1.4l-0.8-1.1c0.2-0.3,0.3-0.6,0.3-1v-4.1h-1v-1.5h2.5v4.9c0.3-0.2,0.7-0.5,1.1-0.8c0,0.2,0.1,0.7,0.2,1.4
			l0.7-0.1v-2.7h-1.2L70.1,219.9L70.1,219.9z M68.3,215c0.5,0.7,1,1.4,1.5,2.1l-1.4,0.8c-0.4-0.8-0.9-1.5-1.4-2.2L68.3,215z
			 M69.9,217.2h4.3l-0.1-2.2h1.6l0,2.2h1.2c-0.5-0.7-0.9-1.1-1.1-1.4l1-0.8c0.5,0.5,0.9,1,1.3,1.5l-0.9,0.7h1.1v1.6h-2.4
			c0.1,1.2,0.1,2.3,0.2,3.1s0.2,1.5,0.3,1.9s0.2,0.7,0.2,0.8s0.1,0.1,0.2,0.1c0.1,0,0.3-0.6,0.4-1.9c0.5,0.2,1,0.4,1.4,0.5
			c-0.2,1.3-0.4,2.2-0.7,2.6s-0.6,0.6-1.1,0.6c-0.5,0-0.9-0.2-1.2-0.5s-0.6-1-0.8-2s-0.4-2.8-0.5-5.3h-4.3L69.9,217.2L69.9,217.2z"
			/>
		<path class="st1" d="M81.9,217.3l1,2.1c0.3-0.7,0.6-1.4,0.9-2.2l0.8,0.4l0.6-0.3l0.9,2.1c0.3-0.7,0.6-1.4,0.8-2.2l1.3,0.5
			c-0.4,1.2-0.8,2.3-1.3,3.4l1.2,2.7l-1.3,0.7l-0.7-1.7c-0.4,0.8-0.8,1.5-1.2,2.2c-0.2-0.1-0.3-0.3-0.5-0.4l-0.6,0.3l-0.9-2.2
			c-0.4,0.9-0.9,1.6-1.4,2.4c-0.2-0.2-0.4-0.4-0.7-0.6v1.9h-1.6v-11h10.6v9c0,0.6-0.1,1.1-0.3,1.4s-0.6,0.5-1,0.6s-1.2,0.1-2.3,0.1
			c-0.1-0.6-0.2-1.2-0.4-1.6c0.6,0.1,1.1,0.1,1.7,0.1c0.5,0,0.8-0.2,0.8-0.7v-7.3h-7.5v1L81.9,217.3z M80.8,218.1v5.4
			c0.5-0.8,0.9-1.6,1.4-2.4C81.7,220,81.3,219,80.8,218.1z M84.6,219.1c-0.3,0.7-0.6,1.4-0.9,2l0.8,1.8c0.3-0.6,0.6-1.2,0.9-1.8
			L84.6,219.1z"/>
		<path class="st1" d="M90.9,224.2h4.3V215h1.9v3.2h4.3v1.7h-4.3v4.3h5.1v1.6H90.9V224.2z"/>
		<path class="st1" d="M103,225.9l-0.3-1.6c1.4-0.2,2.8-0.4,4.3-0.6c0,0.2,0,0.5,0,0.8c0.9-0.3,1.7-0.6,2.5-1
			c-0.2-0.6-0.3-1.2-0.4-2l-2,0.2l-0.2-1.4l2-0.2l-0.1-1.2l-1.5,0.2l-0.1-0.6c-0.8,1.3-1.5,2.4-2.1,3.2c0.7-0.1,1.3-0.2,1.8-0.3
			c0,0.3-0.1,0.8-0.1,1.5c-1.7,0.2-2.8,0.4-3.4,0.6l-0.4-1.3c0.5-0.5,1-1.1,1.6-2.1c-0.4,0-0.9,0.1-1.5,0.1l-0.4-1.3
			c0.7-0.8,1.4-2.1,2.1-3.8l1.5,0.6c-0.7,1.2-1.3,2.2-1.8,3.1c0.3,0,0.6,0,1,0c0.2-0.4,0.4-0.8,0.7-1.2l1.1,0.5l0-0.4l1.6-0.2
			l-0.1-2.4h1.6c0,0.8,0,1.6,0.1,2.3l2-0.2c-0.5-0.3-1-0.7-1.6-1.1l0.8-1c0.6,0.3,1.3,0.7,1.9,1.1l-0.7,0.9l1.1-0.1l0.1,1.4
			l-3.6,0.4l0.1,1.1l3.6-0.4l0.2,1.4l-1.4,0.2l1,0.8c-0.8,0.8-1.6,1.6-2.4,2.2c0.3,0.5,0.6,0.8,0.9,0.8c0.1,0,0.3-0.1,0.3-0.3
			s0.2-0.7,0.4-1.5c0.5,0.3,1,0.5,1.4,0.7c-0.3,1.2-0.6,2-0.9,2.3s-0.6,0.5-1,0.5c-1,0-1.8-0.6-2.4-1.7c-0.9,0.5-1.9,0.9-3,1.2
			c-0.1-0.2-0.2-0.5-0.4-0.8C105.3,225.4,104.1,225.7,103,225.9z M112.7,221l-2.1,0.2c0.1,0.4,0.2,0.9,0.3,1.3
			C111.6,222.1,112.2,221.5,112.7,221z"/>
	</g>
</g>
<g class="st0">
	<g>
		<path d="M59.6,259.8c0-0.5-0.2-0.9-0.5-1.1s-0.7-0.4-1.3-0.4c-0.4,0-0.8,0.1-1.1,0.3s-0.7,0.5-1.1,0.8v-1.1c0.3-0.3,0.6-0.5,1-0.7
			s0.8-0.2,1.3-0.2c0.8,0,1.5,0.2,2,0.7s0.8,1,0.8,1.8c0,0.7-0.2,1.2-0.5,1.7s-0.8,1-1.6,1.5c-0.8,0.5-1.3,0.9-1.5,1.1
			s-0.4,0.4-0.5,0.6s-0.2,0.5-0.2,0.8H61v1h-5.7v-0.5c0-0.5,0.1-1,0.2-1.3s0.4-0.7,0.7-1.1s0.8-0.8,1.5-1.2c0.7-0.5,1.2-0.9,1.5-1.3
			S59.6,260.3,59.6,259.8z"/>
		<path d="M62.1,262.2c0-1.6,0.3-2.8,0.8-3.6s1.3-1.2,2.3-1.2c1.9,0,2.9,1.5,2.9,4.6c0,1.5-0.3,2.7-0.8,3.5s-1.3,1.2-2.3,1.2
			c-0.9,0-1.6-0.4-2.1-1.1S62.1,263.6,62.1,262.2z M63.3,262.1c0,2.4,0.6,3.6,1.8,3.6c1.2,0,1.8-1.2,1.8-3.7c0-2.5-0.6-3.8-1.8-3.8
			C63.9,258.2,63.3,259.5,63.3,262.1z"/>
		<path d="M72,266.5v-7.8c-0.2,0.2-0.5,0.4-0.9,0.6s-0.8,0.4-1.2,0.5v-1.1c0.5-0.1,1-0.3,1.5-0.6s1-0.6,1.3-0.8h0.4v9.3L72,266.5
			L72,266.5z"/>
		<path d="M81.7,258.6c-0.5-0.2-1-0.4-1.5-0.4c-0.8,0-1.4,0.3-1.9,1s-0.7,1.6-0.7,2.8h0c0.4-0.8,1.1-1.2,2.1-1.2
			c0.8,0,1.4,0.3,1.9,0.8s0.7,1.2,0.7,2c0,0.9-0.3,1.6-0.8,2.2s-1.2,0.9-2.1,0.9c-0.9,0-1.6-0.4-2.2-1.1s-0.8-1.7-0.8-3.1
			c0-1.6,0.3-2.9,1-3.8s1.6-1.4,2.7-1.4c0.6,0,1.2,0.1,1.5,0.3L81.7,258.6L81.7,258.6z M77.6,263.5c0,0.6,0.2,1.1,0.5,1.5
			s0.7,0.6,1.3,0.6c0.5,0,0.9-0.2,1.2-0.5s0.5-0.8,0.5-1.4c0-0.6-0.2-1.1-0.4-1.5s-0.7-0.5-1.3-0.5c-0.5,0-0.9,0.2-1.2,0.5
			S77.6,263.1,77.6,263.5z"/>
		<path d="M82.9,264.1h1.9v-3.4H89v-2.1h-3.4c-0.5,1-1.1,1.8-1.8,2.6c-0.2-0.2-0.4-0.4-0.7-0.7c1.1-1.2,1.9-2.6,2.5-4.2l1,0.3
			c-0.2,0.4-0.3,0.8-0.5,1.1H94v0.8h-4.1v2.1h3.9v0.8h-3.9v2.5h4.6v0.8h-4.6v3.2H89v-3.2h-6L82.9,264.1L82.9,264.1z M85.8,264.1H89
			v-2.5h-3.2V264.1z"/>
		<path d="M98.1,266.5v-7.8c-0.2,0.2-0.5,0.4-0.9,0.6s-0.8,0.4-1.2,0.5v-1.1c0.5-0.1,1-0.3,1.5-0.6s1-0.6,1.3-0.8h0.4v9.3
			L98.1,266.5L98.1,266.5z"/>
		<path d="M102.3,262.2c0-1.6,0.3-2.8,0.8-3.6s1.3-1.2,2.3-1.2c1.9,0,2.9,1.5,2.9,4.6c0,1.5-0.3,2.7-0.8,3.5s-1.3,1.2-2.3,1.2
			c-0.9,0-1.6-0.4-2.1-1.1S102.3,263.6,102.3,262.2z M103.5,262.1c0,2.4,0.6,3.6,1.8,3.6c1.2,0,1.8-1.2,1.8-3.7
			c0-2.5-0.6-3.8-1.8-3.8C104.1,258.2,103.5,259.5,103.5,262.1z"/>
		<path d="M111.8,264.1c-0.2,1.5-0.8,2.9-1.8,4.1c-0.2-0.2-0.5-0.5-0.8-0.7c0.8-0.8,1.3-1.8,1.5-2.9c0.2-0.8,0.3-2,0.3-3.5v-4h7.8
			v9.1c0,1.2-0.6,1.7-1.7,1.7c-0.5,0-1.1,0-1.8,0c0-0.3-0.1-0.6-0.2-1c0.7,0,1.3,0.1,1.7,0.1c0.6,0,0.9-0.3,0.9-0.9v-2L111.8,264.1
			L111.8,264.1z M111.9,263.3h6V261H112C112,261.8,112,262.5,111.9,263.3z M112,257.9v2.2h5.9v-2.2H112z"/>
	</g>
</g>
<g>
	<g>
		<path class="st1" d="M54.8,286.4h4.8v-2.2h-3.6v-1.5h3.6v-2.1h-4.2v-1.5h4.5c-0.3-0.5-0.6-1-0.9-1.5l1.6-0.7
			c0.3,0.5,0.7,1.1,1,1.7l-1.1,0.5h5v1.5h-4.2v2.1h3.7v1.5h-3.7v2.2h4.9v1.6H54.8V286.4z"/>
		<path class="st1" d="M69.9,279.3l1,2.1c0.3-0.7,0.6-1.4,0.9-2.2l0.8,0.4l0.6-0.3l0.9,2.1c0.3-0.7,0.6-1.4,0.8-2.2l1.3,0.5
			c-0.4,1.2-0.8,2.3-1.3,3.4l1.2,2.7l-1.3,0.7l-0.7-1.7c-0.4,0.8-0.8,1.5-1.2,2.2c-0.2-0.1-0.3-0.3-0.5-0.4l-0.6,0.3l-0.9-2.2
			c-0.4,0.9-0.9,1.6-1.4,2.4c-0.2-0.2-0.4-0.4-0.7-0.6v2h-1.6v-11h10.6v9c0,0.6-0.1,1.1-0.3,1.4s-0.6,0.5-1,0.6s-1.2,0.1-2.3,0.1
			c-0.1-0.6-0.2-1.2-0.4-1.6c0.6,0,1.1,0.1,1.7,0.1c0.5,0,0.8-0.2,0.8-0.7v-7.3h-7.5v1L69.9,279.3z M68.8,280.1v5.4
			c0.5-0.8,0.9-1.6,1.4-2.4C69.7,282,69.3,281,68.8,280.1z M72.6,281.1c-0.3,0.7-0.6,1.4-0.9,2l0.8,1.8c0.3-0.6,0.6-1.2,0.9-1.8
			L72.6,281.1z"/>
		<path class="st1" d="M78.9,286.2h4.3V277h1.9v3.2h4.3v1.7h-4.3v4.3h5.1v1.6H78.9V286.2z"/>
		<path class="st1" d="M91,287.9l-0.3-1.6c1.4-0.2,2.8-0.4,4.3-0.6c0,0.2,0,0.5,0,0.8c0.9-0.3,1.7-0.6,2.5-1c-0.2-0.5-0.3-1.2-0.4-2
			l-2,0.2l-0.2-1.4l2-0.2l-0.1-1.2l-1.5,0.2l-0.1-0.6c-0.8,1.3-1.5,2.4-2.1,3.2c0.7-0.1,1.3-0.2,1.8-0.3c0,0.3-0.1,0.8-0.1,1.5
			c-1.7,0.2-2.8,0.4-3.4,0.6l-0.4-1.3c0.5-0.5,1-1.1,1.6-2c-0.4,0-0.9,0.1-1.5,0.1l-0.4-1.3c0.7-0.8,1.4-2.1,2.1-3.8l1.5,0.6
			c-0.7,1.2-1.3,2.2-1.8,3.1c0.3,0,0.6,0,1,0c0.2-0.4,0.4-0.8,0.7-1.2l1.1,0.5l0-0.4l1.6-0.2l-0.1-2.4h1.6c0,0.8,0,1.5,0.1,2.3
			l2-0.2c-0.5-0.3-1-0.7-1.6-1.1l0.8-1c0.6,0.3,1.3,0.7,1.9,1.1l-0.7,0.9l1.1-0.1l0.1,1.4l-3.6,0.4l0.1,1.1l3.6-0.4l0.2,1.4
			l-1.4,0.2l1,0.8c-0.8,0.8-1.6,1.5-2.4,2.2c0.3,0.5,0.6,0.8,0.9,0.8c0.1,0,0.3-0.1,0.3-0.3s0.2-0.7,0.4-1.5c0.5,0.3,1,0.5,1.4,0.7
			c-0.3,1.2-0.6,2-0.9,2.3s-0.6,0.5-1,0.5c-1,0-1.8-0.6-2.4-1.7c-0.9,0.5-1.9,0.9-3,1.2c-0.1-0.2-0.2-0.5-0.4-0.8
			C93.3,287.5,92.1,287.7,91,287.9z M100.7,283l-2.1,0.2c0.1,0.5,0.2,0.9,0.3,1.3C99.6,284.1,100.2,283.5,100.7,283z"/>
	</g>
</g>
<g class="st0">
	<g>
		<path d="M59.6,321.8c0-0.5-0.2-0.9-0.5-1.1s-0.7-0.4-1.3-0.4c-0.4,0-0.8,0.1-1.1,0.3s-0.7,0.5-1.1,0.8v-1.1c0.3-0.3,0.6-0.5,1-0.7
			s0.8-0.2,1.3-0.2c0.8,0,1.5,0.2,2,0.7s0.8,1,0.8,1.8c0,0.7-0.2,1.2-0.5,1.7s-0.8,1-1.6,1.5c-0.8,0.5-1.3,0.9-1.5,1.1
			s-0.4,0.4-0.5,0.6s-0.2,0.5-0.2,0.8H61v1h-5.7v-0.5c0-0.5,0.1-1,0.2-1.3s0.4-0.7,0.7-1.1s0.8-0.8,1.5-1.2c0.7-0.5,1.2-0.9,1.5-1.3
			S59.6,322.3,59.6,321.8z"/>
		<path d="M62.1,324.2c0-1.6,0.3-2.8,0.8-3.6s1.3-1.2,2.3-1.2c1.9,0,2.9,1.5,2.9,4.6c0,1.5-0.3,2.7-0.8,3.5s-1.3,1.2-2.3,1.2
			c-0.9,0-1.6-0.4-2.1-1.1S62.1,325.6,62.1,324.2z M63.3,324.1c0,2.4,0.6,3.6,1.8,3.6c1.2,0,1.8-1.2,1.8-3.7c0-2.5-0.6-3.8-1.8-3.8
			C63.9,320.2,63.3,321.5,63.3,324.1z"/>
		<path d="M72,328.5v-7.8c-0.2,0.2-0.5,0.4-0.9,0.6s-0.8,0.4-1.2,0.5v-1.1c0.5-0.1,1-0.3,1.5-0.6s1-0.6,1.3-0.8h0.4v9.3L72,328.5
			L72,328.5z"/>
		<path d="M82.1,320.2c-0.9,1.7-1.7,3.2-2.2,4.6s-0.9,2.7-1,3.8h-1.2c0.1-1.1,0.5-2.3,1-3.6s1.3-2.8,2.2-4.4h-4.5v-1h5.8V320.2z"/>
		<path d="M82.9,326.1h1.9v-3.4H89v-2.1h-3.4c-0.5,1-1.1,1.8-1.8,2.6c-0.2-0.2-0.4-0.4-0.7-0.7c1.1-1.2,1.9-2.6,2.5-4.2l1,0.3
			c-0.2,0.4-0.3,0.8-0.5,1.1H94v0.8h-4.1v2.1h3.9v0.8h-3.9v2.5h4.6v0.8h-4.6v3.2H89v-3.2h-6L82.9,326.1L82.9,326.1z M85.8,326.1H89
			v-2.5h-3.2V326.1z"/>
		<path d="M100.7,320.6c-0.5-0.2-1-0.4-1.5-0.4c-0.8,0-1.4,0.3-1.9,1s-0.7,1.6-0.7,2.8h0c0.4-0.8,1.1-1.2,2.1-1.2
			c0.8,0,1.4,0.3,1.9,0.8s0.7,1.2,0.7,2c0,0.9-0.3,1.6-0.8,2.2s-1.2,0.9-2.1,0.9c-0.9,0-1.7-0.4-2.2-1.1s-0.8-1.7-0.8-3.1
			c0-1.6,0.3-2.9,1-3.8s1.6-1.4,2.7-1.4c0.6,0,1.2,0.1,1.5,0.3L100.7,320.6L100.7,320.6z M96.7,325.5c0,0.6,0.2,1.1,0.5,1.5
			s0.7,0.6,1.3,0.6c0.5,0,0.9-0.2,1.2-0.5s0.5-0.8,0.5-1.4c0-0.6-0.2-1.1-0.4-1.5s-0.7-0.5-1.3-0.5c-0.5,0-0.9,0.2-1.2,0.5
			S96.7,325.1,96.7,325.5z"/>
		<path d="M104.8,326.1c-0.2,1.5-0.8,2.9-1.8,4.1c-0.2-0.2-0.5-0.5-0.8-0.7c0.8-0.8,1.3-1.8,1.5-2.9c0.2-0.8,0.3-2,0.3-3.5v-4h7.8
			v9.1c0,1.2-0.6,1.7-1.7,1.7c-0.5,0-1.1,0-1.8,0c0-0.3-0.1-0.6-0.2-1c0.7,0,1.3,0.1,1.7,0.1c0.6,0,0.9-0.3,0.9-0.9v-2L104.8,326.1
			L104.8,326.1z M104.9,325.3h6V323h-5.9C104.9,323.8,104.9,324.5,104.9,325.3z M104.9,319.9v2.2h5.9v-2.2H104.9z"/>
	</g>
</g>
<g>
	<g>
		<path class="st1" d="M56.6,341.5l1.8,0.4c-0.6,2.1-1.2,4-1.8,5.8l-1.7-0.7C55.5,345.3,56.1,343.5,56.6,341.5z M59.8,339h1.8v8.9
			c0,0.8-0.1,1.3-0.4,1.7s-0.5,0.6-0.9,0.6s-1.2,0.1-2.6,0.1c-0.1-0.7-0.3-1.3-0.4-1.9c0.6,0.1,1.2,0.1,1.6,0.1c0.5,0,0.8-0.3,0.8-1
			C59.8,347.6,59.8,339,59.8,339z M64.3,341.5c0.7,1.7,1.5,3.5,2.2,5.4l-1.8,0.7c-0.6-2-1.3-3.9-2-5.6L64.3,341.5z"/>
		<path class="st1" d="M78.2,340.2c-0.3,2.7-1,4.9-2.1,6.7c0.7,0.8,1.5,1.5,2.4,1.9c-0.2,0.2-0.4,0.8-0.9,1.7
			c-1-0.5-1.9-1.2-2.6-2.1c-0.8,0.9-1.8,1.6-2.8,2.2c-0.1-0.3-0.3-0.5-0.4-0.8l-0.5,0.1c-0.1-0.2-0.1-0.5-0.1-0.7
			c-1,0.2-2.4,0.5-4.1,0.8l-0.3-1.5c0.7-0.1,1.4-0.2,2-0.3v-2.1h-0.6v0.6h-1.1v-5.9h1.6V339h1.3v1.8h1.6v5.3h-1.6v1.9
			c0.2,0,0.5-0.1,0.7-0.1c-0.1-0.4-0.2-0.7-0.3-1l1.1-0.3c0.1,0.4,0.3,1.1,0.5,2c0.7-0.5,1.3-1,1.8-1.6c-1-1.7-1.7-3.9-2-6.5
			l1.5-0.3c0.3,2.1,0.8,3.9,1.6,5.3c0.8-1.5,1.4-3.3,1.6-5.4L78.2,340.2z M68.2,344.7h0.6v-2.6h-0.6V344.7z M70.7,344.7v-2.6h-0.6
			v2.6H70.7z M75,338.9c0.4,0.9,0.7,1.8,1,2.7l-1.4,0.5c-0.4-1.2-0.7-2.1-0.9-2.8L75,338.9z"/>
		<path class="st1" d="M82.5,349.7h-1.6v0.5h-1.6v-5.5h4.9v5.5h-1.6C82.5,350.3,82.5,349.7,82.5,349.7z M80.4,339.4h8.4v4.5h-8.4
			V339.4z M80.9,348.3h1.6v-2.1h-1.6V348.3z M87.1,340.9h-5v1.5h5V340.9z M86.6,349.7v0.5H85v-5.5h4.9v5.5h-1.6v-0.5H86.6z
			 M88.3,348.3v-2.1h-1.7v2.1H88.3z"/>
		<path class="st1" d="M93.5,339h1.3v3.5h0.5v1.3h-2.6v1.2h2.1v5.3h-1.3v-4h-0.8c-0.1,1.6-0.3,3-0.8,4.2c-0.4-0.3-0.8-0.7-1.2-1
			c0.5-1,0.7-2.6,0.7-4.7v-5.5h1.3v3.3h0.8L93.5,339L93.5,339z M98.9,345.7h1.5v1.2h1.9v1.3h-1.9v2.2h-1.5v-2.2h-3.8v-1.3h1.5
			c-0.2-0.2-0.5-0.4-0.7-0.6c0.5-0.3,0.9-0.6,1.2-0.9h-1.5v-5.5h1.6c0.1-0.3,0.2-0.7,0.2-1l1.8,0.2c-0.1,0.3-0.2,0.5-0.3,0.8h3.1
			v5.5h-3.2c-0.3,0.6-0.8,1.1-1.3,1.6h1.5L98.9,345.7L98.9,345.7z M97,342.1h1.1v-1H97V342.1z M98.1,343.1H97v1h0.9
			C98,343.8,98.1,343.5,98.1,343.1z M100.6,344.1v-1h-1.2c0,0.3-0.1,0.7-0.1,1H100.6z M100.6,341.1h-1.1v1h1.1V341.1z"/>
		<path class="st1" d="M102.8,349h5v-0.6h-4.3v-1h4.3v-0.6h-3.9v-4.1h3.9v-0.6h-5v-1h5v-0.6l-4,0.1c-0.1-0.3-0.1-0.7-0.2-1
			c3.3,0,6.6-0.1,9.7-0.3c0,0,0.1,0.4,0.2,1.1l-4.2,0.1v0.6h5.1v1h-5.1v0.6h3.9v4.1h-3.9v0.6h4.3v1h-4.3v0.6h5.1v1h-11.6V349z
			 M105.5,344.4h2.3v-0.7h-2.3V344.4z M105.5,345.9h2.3v-0.7h-2.3V345.9z M111.7,343.7h-2.4v0.7h2.4V343.7z M111.7,345.9v-0.7h-2.4
			v0.7H111.7z"/>
		<path class="st1" d="M119.2,338.9l1.4,0.6c-0.2,0.3-0.4,0.5-0.7,0.8h1.1v1.2h-2.2c0,1.2,0,1.8,0,2h0.7V342h1.3v2.6h-2.1
			c-0.2,0.8-0.7,1.5-1.3,2h2.5v-0.7h1.3c-0.3-0.2-0.6-0.4-0.8-0.6c0.7-0.6,1-1.5,1-2.8v-3.1h4.6v5.2c0,0.9-0.4,1.4-1.1,1.4
			c-0.4,0-0.9,0-1.5,0c-0.1-0.3-0.2-0.7-0.3-1.3c0.3,0,0.7,0,1.1,0c0.3,0,0.5-0.2,0.5-0.5v-0.3h-2c-0.2,0.9-0.5,1.6-1,2.2
			c0,0-0.1,0-0.1-0.1v0.4h4.1v1.2h-4.1v1h5v1.3h-11.6v-1.3h5v-1h-4.1v-1.2h1.3c-0.3-0.3-0.7-0.6-1.1-1c0.5-0.3,0.8-0.6,1.1-1h-1.7
			V342h1.3v1.5h0.7c0-0.1,0-0.7,0-2H115v-1.2h1.2c-0.2-0.3-0.4-0.5-0.6-0.8l1.1-0.7c0.3,0.4,0.7,0.8,1,1.2l-0.4,0.2h1
			C118.6,339.9,118.9,339.4,119.2,338.9z M122.6,342.3c0,0.2,0,0.5,0,0.8h1.9v-0.8H122.6z M124.5,340.6h-1.9v0.8h1.9V340.6z"/>
		<path class="st1" d="M132.6,350.3c-0.1-0.5-0.2-1-0.4-1.8c1,0.1,1.7,0.1,2.3,0.1c0.4,0,0.7,0,0.9-0.1s0.3-0.2,0.4-0.4
			s0.1-0.7,0.2-1.6s0.1-2.1,0.2-3.5h-3.4c-0.1,0.7-0.2,1.4-0.4,2l1.1-1c0.6,0.5,1.2,1.1,2,1.8l-1.2,1.2c-0.7-0.8-1.3-1.4-1.8-1.9
			c-0.7,2.3-2.1,4.1-4.2,5.4c-0.6-0.5-1-0.9-1.4-1.2c2.5-1.5,3.9-3.6,4.2-6.2h-4v-1.5h2.1c-0.4-0.5-0.9-1.1-1.4-1.6l1.1-1
			c0.6,0.6,1.2,1.1,1.6,1.6l-1.1,1h1.7l0.2-2.6h1.8l-0.2,2.6h5l-0.3,4.5c-0.1,1.5-0.2,2.4-0.2,2.6s-0.2,0.6-0.4,0.8
			s-0.5,0.5-0.8,0.6s-0.9,0.2-1.7,0.2S133,350.3,132.6,350.3z"/>
		<path class="st1" d="M147.7,348.9h-2l-3.8-5.9c-0.2-0.3-0.3-0.5-0.4-0.7h0c0,0.3,0.1,0.8,0.1,1.5v5.2h-1.8v-9.1h2.1l3.7,5.7
			c0.2,0.4,0.4,0.6,0.4,0.7h0c0-0.2-0.1-0.6-0.1-1.2v-5.2h1.8L147.7,348.9L147.7,348.9z"/>
		<path class="st1" d="M155.4,346.2h-4.3c0.1,1,0.7,1.5,1.8,1.5c0.7,0,1.4-0.2,1.9-0.5v1.4c-0.6,0.3-1.4,0.5-2.3,0.5
			c-1,0-1.8-0.3-2.4-0.9s-0.9-1.4-0.9-2.4c0-1,0.3-1.9,0.9-2.5s1.4-1,2.3-1s1.6,0.3,2.1,0.8s0.8,1.3,0.8,2.3L155.4,346.2
			L155.4,346.2z M153.6,345c0-1-0.4-1.5-1.2-1.5c-0.3,0-0.6,0.1-0.9,0.4s-0.4,0.6-0.5,1L153.6,345L153.6,345z"/>
		<path class="st1" d="M156.2,345.7c0-1.1,0.3-1.9,1-2.5s1.5-0.9,2.6-0.9c1,0,1.9,0.3,2.5,0.9s0.9,1.4,0.9,2.4
			c0,1.1-0.3,1.9-0.9,2.5s-1.5,0.9-2.6,0.9c-1.1,0-1.9-0.3-2.5-0.9S156.2,346.7,156.2,345.7z M158.1,345.7c0,1.3,0.5,1.9,1.6,1.9
			c1,0,1.5-0.7,1.5-2c0-1.3-0.5-1.9-1.5-1.9c-0.5,0-0.9,0.2-1.2,0.5S158.1,345,158.1,345.7z"/>
	</g>
</g>
<g class="st0">
	<g>
		<path d="M59.6,383.8c0-0.5-0.2-0.9-0.5-1.1s-0.7-0.4-1.3-0.4c-0.4,0-0.8,0.1-1.1,0.3s-0.7,0.5-1.1,0.8v-1.1c0.3-0.3,0.6-0.5,1-0.7
			s0.8-0.2,1.3-0.2c0.8,0,1.5,0.2,2,0.7s0.8,1,0.8,1.8c0,0.7-0.2,1.2-0.5,1.7s-0.8,1-1.6,1.5c-0.8,0.5-1.3,0.9-1.5,1.1
			s-0.4,0.4-0.5,0.6s-0.2,0.5-0.2,0.8H61v1h-5.7v-0.5c0-0.5,0.1-1,0.2-1.3s0.4-0.7,0.7-1.1s0.8-0.8,1.5-1.2c0.7-0.5,1.2-0.9,1.5-1.3
			S59.6,384.3,59.6,383.8z"/>
		<path d="M62.1,386.2c0-1.6,0.3-2.8,0.8-3.6s1.3-1.2,2.3-1.2c1.9,0,2.9,1.5,2.9,4.6c0,1.5-0.3,2.7-0.8,3.5s-1.3,1.2-2.3,1.2
			c-0.9,0-1.6-0.4-2.1-1.1S62.1,387.6,62.1,386.2z M63.3,386.1c0,2.4,0.6,3.6,1.8,3.6c1.2,0,1.8-1.2,1.8-3.7c0-2.5-0.6-3.8-1.8-3.8
			C63.9,382.2,63.3,383.5,63.3,386.1z"/>
		<path d="M72,390.5v-7.8c-0.2,0.2-0.5,0.4-0.9,0.6s-0.8,0.4-1.2,0.5v-1.1c0.5-0.1,1-0.3,1.5-0.6s1-0.6,1.3-0.8h0.4v9.3L72,390.5
			L72,390.5z"/>
		<path d="M82.1,382.2c-0.9,1.7-1.7,3.2-2.2,4.6s-0.9,2.7-1,3.8h-1.2c0.1-1.1,0.5-2.3,1-3.6s1.3-2.8,2.2-4.4h-4.5v-1h5.8V382.2z"/>
		<path d="M82.9,388.1h1.9v-3.4H89v-2.1h-3.4c-0.5,1-1.1,1.8-1.8,2.6c-0.2-0.2-0.4-0.4-0.7-0.7c1.1-1.2,1.9-2.6,2.5-4.2l1,0.3
			c-0.2,0.4-0.3,0.8-0.5,1.1H94v0.8h-4.1v2.1h3.9v0.8h-3.9v2.5h4.6v0.8h-4.6v3.2H89v-3.2h-6L82.9,388.1L82.9,388.1z M85.8,388.1H89
			v-2.5h-3.2V388.1z"/>
		<path d="M98.1,390.5v-7.8c-0.2,0.2-0.5,0.4-0.9,0.6s-0.8,0.4-1.2,0.5v-1.1c0.5-0.1,1-0.3,1.5-0.6s1-0.6,1.3-0.8h0.4v9.3
			L98.1,390.5L98.1,390.5z"/>
		<path d="M102.3,386.2c0-1.6,0.3-2.8,0.8-3.6s1.3-1.2,2.3-1.2c1.9,0,2.9,1.5,2.9,4.6c0,1.5-0.3,2.7-0.8,3.5s-1.3,1.2-2.3,1.2
			c-0.9,0-1.6-0.4-2.1-1.1S102.3,387.6,102.3,386.2z M103.5,386.1c0,2.4,0.6,3.6,1.8,3.6c1.2,0,1.8-1.2,1.8-3.7
			c0-2.5-0.6-3.8-1.8-3.8C104.1,382.2,103.5,383.5,103.5,386.1z"/>
		<path d="M111.8,388.1c-0.2,1.5-0.8,2.9-1.8,4.1c-0.2-0.2-0.5-0.5-0.8-0.7c0.8-0.8,1.3-1.8,1.5-2.9c0.2-0.8,0.3-2,0.3-3.5v-4h7.8
			v9.1c0,1.2-0.6,1.7-1.7,1.7c-0.5,0-1.1,0-1.8,0c0-0.3-0.1-0.6-0.2-1c0.7,0,1.3,0.1,1.7,0.1c0.6,0,0.9-0.3,0.9-0.9v-2L111.8,388.1
			L111.8,388.1z M111.9,387.3h6V385H112C112,385.8,112,386.5,111.9,387.3z M112,381.9v2.2h5.9v-2.2H112z"/>
	</g>
</g>
<g>
	<g>
		<path class="st1" d="M65.2,407c-0.6,1-1.4,2-2.3,2.7c0.9,0.4,2.1,0.7,3.6,0.9c-0.3,0.6-0.7,1.1-1,1.7c-1.6-0.4-3-0.9-4.1-1.6
			c-1.2,0.7-2.5,1.2-4.1,1.7c-0.3-0.5-0.6-1-0.9-1.5c1.3-0.4,2.5-0.8,3.5-1.3c-0.6-0.5-1.1-1.1-1.5-1.8c-0.9,1.5-2,2.7-3.1,3.7
			c-0.2-0.7-0.3-1.4-0.5-2c1.5-1.4,2.7-3.1,3.4-5h-2.9v-1.4c0.2-0.6,0.4-1.3,0.6-2l1.6,0.2c-0.1,0.5-0.3,1.1-0.5,1.8h1.7
			c0.2-0.7,0.4-1.4,0.5-2.3l1.7,0.1l-0.5,2.2h3.3c-0.4-0.4-0.9-0.9-1.3-1.3l1-1c0.7,0.5,1.3,1.1,1.8,1.5l-0.7,0.8h2v1.4h-6.5
			c-0.1,0.3-0.2,0.7-0.4,1.1h5.7L65.2,407L65.2,407z M61.3,408.9c0.8-0.6,1.5-1.2,1.9-1.8h-3.6C60.1,407.8,60.7,408.4,61.3,408.9z"
			/>
		<path class="st1" d="M73.9,412.5h-1.6v-5.4h-1.8v4.5h-1.6v-3.8c-0.5,0.5-1,1-1.5,1.5c-0.2-0.7-0.4-1.2-0.5-1.6
			c1.3-1.2,2.3-2.4,3-3.7H67v-1.6h3.6c0.2-0.5,0.3-1,0.5-1.4l1.6,0.2c-0.1,0.4-0.3,0.8-0.4,1.2h6v1.6h-6.7c-0.3,0.6-0.7,1.2-1.1,1.8
			h1.8v-1.5h1.6v1.5h3.5v3.8c0,0.5-0.1,0.9-0.3,1.2s-0.5,0.5-0.8,0.5s-0.9,0.1-1.6,0.1c-0.1-0.6-0.2-1.1-0.3-1.5c0.4,0,0.6,0,0.7,0
			c0.5,0,0.8-0.3,0.8-0.8v-1.9H74L73.9,412.5L73.9,412.5z"/>
		<path class="st1" d="M87.7,410.9h-2l-3.8-5.9c-0.2-0.3-0.3-0.5-0.4-0.7h0c0,0.3,0.1,0.8,0.1,1.5v5.2h-1.8v-9.1h2.1l3.7,5.7
			c0.2,0.4,0.4,0.6,0.4,0.7h0c0-0.2-0.1-0.6-0.1-1.2v-5.2h1.8V410.9z"/>
		<path class="st1" d="M95.2,410.9h-5.4v-9.1H95v1.6h-3.2v2.1h3v1.6h-3v2.2h3.4L95.2,410.9L95.2,410.9z"/>
		<path class="st1" d="M98.6,407.7v3.2h-1.9v-9.1h3.1c2.3,0,3.4,1,3.4,2.9c0,0.9-0.3,1.7-1,2.2s-1.5,0.8-2.6,0.8H98.6z M98.6,403.3
			v2.9h0.8c1.1,0,1.7-0.5,1.7-1.5c0-1-0.6-1.5-1.7-1.5L98.6,403.3L98.6,403.3z"/>
		<path class="st1" d="M107.9,408.1h-3.5v-1.3h3.5V408.1z"/>
		<path class="st1" d="M109.8,410.7V409c0.6,0.4,1.3,0.6,2,0.6c0.5,0,0.9-0.1,1.3-0.4s0.4-0.6,0.4-1.1c0-0.9-0.6-1.4-1.9-1.4
			c-0.5,0-1,0-1.7,0.1l0.3-5h4.8v1.6h-3.3l-0.1,1.9c0.3,0,0.6,0,0.9,0c0.9,0,1.6,0.2,2.1,0.7s0.8,1.1,0.8,2c0,0.9-0.3,1.7-0.9,2.2
			s-1.5,0.9-2.5,0.9C111.1,411,110.3,410.9,109.8,410.7z"/>
		<path class="st1" d="M128,410.8c-0.2,0.6-0.4,1.1-0.6,1.5l-6.2,0c-0.7,0-1.3-0.1-1.8-0.3s-0.9-0.5-1.2-0.8l-1.3,1.5l-0.7-1.8
			l1.1-1v-3.2h-1V405h2.5v4.8c0.5,0.6,1.3,1,2.5,1l2.7,0C125.2,410.8,126.5,410.8,128,410.8z M117.8,400.9c0.7,0.8,1.2,1.5,1.6,2.1
			l-1.4,0.9c-0.5-0.8-1-1.6-1.5-2.2L117.8,400.9z M127.3,401.3v1.4l-2.4,1.4h2.4v5c0,0.4-0.1,0.7-0.2,0.9s-0.3,0.4-0.6,0.4
			s-0.8,0.1-1.8,0.1c-0.1-0.4-0.2-0.8-0.3-1.2c0.4,0,0.7,0,0.9,0c0.3,0,0.5-0.2,0.5-0.5v-0.2h-1.6v1.8h-1.4v-1.8h-1.5v1.8h-1.5V404
			h2.2l-1.3-0.8l0.6-0.7h-1.7v-1.2L127.3,401.3L127.3,401.3z M121.3,405.8h1.5v-0.7h-1.5V405.8z M121.3,407.5h1.5v-0.7h-1.5V407.5z
			 M125.3,402.5h-3.4c0.5,0.3,1,0.6,1.6,1L125.3,402.5z M125.8,405.1h-1.6v0.7h1.6V405.1z M124.2,407.5h1.6v-0.7h-1.6V407.5z"/>
		<path class="st1" d="M131.9,408.3c0,0.3,0.1,0.9,0.3,1.6c-0.7,0.5-1.6,1.2-2.5,2l-0.7-1.3c0.2-0.2,0.3-0.5,0.3-0.9V406h-0.9v-1.5
			h2.5v4.7L131.9,408.3z M130,400.9c0.4,0.6,0.9,1.4,1.4,2.2c-0.4,0.2-0.8,0.5-1.4,0.8c-0.4-0.8-0.9-1.5-1.3-2.2L130,400.9z
			 M131.7,410.4h1v-5.9h1.6v5.9h1.3v-7.1H132v-1.5h7.8v1.5h-2.8v2.6h2.5v1.5h-2.5v3h2.9v1.6h-8.3L131.7,410.4L131.7,410.4z"/>
		<path class="st1" d="M140.3,407.7c0.6-1,1.1-2.1,1.3-3.2h-1.2V403h1.4v-2h1.4v2h1.1v1.5h-1.1v1.4c0.5,0.3,1,0.6,1.4,0.8l-0.7,1.3
			c-0.2-0.1-0.4-0.3-0.7-0.5v5h-1.4v-4.8c-0.3,0.8-0.6,1.5-1.1,2.2C140.5,409,140.4,408.3,140.3,407.7z M145.2,406.8l1.4,0.4
			c-0.5,1.5-1,2.8-1.5,3.9c-0.5-0.2-0.9-0.4-1.4-0.6C144.3,409.5,144.8,408.2,145.2,406.8z M144.3,404.5h7.5v1.5h-2.9v5
			c0,0.4-0.1,0.7-0.4,1s-0.6,0.4-1,0.4s-1,0-1.8,0c-0.1-0.6-0.2-1.2-0.3-1.6c0.4,0,0.8,0.1,1.1,0.1c0.4,0,0.7-0.2,0.7-0.6V406h-2.9
			L144.3,404.5L144.3,404.5z M144.8,401.6h6.6v1.5h-6.6V401.6z M150.6,406.9c0.5,1.2,1,2.4,1.4,3.7l-1.4,0.5
			c-0.4-1.4-0.9-2.6-1.4-3.8L150.6,406.9z"/>
		<path class="st1" d="M153.5,401.5c0.6,0.8,1.2,1.6,1.8,2.5l-1.4,1c-0.5-0.9-1.1-1.7-1.7-2.6L153.5,401.5z M153.9,406.3
			c0.5,0.3,1,0.5,1.5,0.8l-1.7,5c-0.4-0.3-0.9-0.6-1.5-0.9C152.8,409.8,153.3,408.1,153.9,406.3z M157,400.9l1.5,0.4
			c-0.2,0.5-0.4,1.1-0.6,1.6h2.4c-0.3-0.4-0.7-0.8-1.1-1.3l1.2-0.8c0.5,0.5,1,1,1.4,1.6l-0.7,0.5h2.6v1.3h-2.4v1.3h2.3v1.2h-2.3v1.3
			h2.3v1.2h-2.3v1.3h2.5v1.2h-6.2v0.8h-1.6V406c-0.2,0.3-0.4,0.6-0.7,0.9c-0.3-0.6-0.5-1.1-0.8-1.6
			C155.7,404.1,156.5,402.6,157,400.9z M157.7,405.4h2.1v-1.3h-2.1V405.4z M157.7,407.9h2.1v-1.3h-2.1V407.9z M157.7,410.4h2.1v-1.3
			h-2.1V410.4z"/>
	</g>
</g>
<g class="st0">
	<g>
		<path d="M59.6,444.8c0-0.5-0.2-0.9-0.5-1.1s-0.7-0.4-1.3-0.4c-0.4,0-0.8,0.1-1.1,0.3s-0.7,0.5-1.1,0.8v-1.1c0.3-0.3,0.6-0.5,1-0.7
			s0.8-0.2,1.3-0.2c0.8,0,1.5,0.2,2,0.7s0.8,1,0.8,1.8c0,0.7-0.2,1.2-0.5,1.7s-0.8,1-1.6,1.5c-0.8,0.5-1.3,0.9-1.5,1.1
			c-0.2,0.2-0.4,0.4-0.5,0.7s-0.2,0.5-0.2,0.8H61v1h-5.7v-0.5c0-0.5,0.1-1,0.2-1.3s0.4-0.7,0.7-1.1s0.8-0.8,1.5-1.2
			c0.7-0.5,1.2-0.9,1.5-1.3S59.6,445.3,59.6,444.8z"/>
		<path d="M62.1,447.2c0-1.6,0.3-2.8,0.8-3.6s1.3-1.2,2.3-1.2c1.9,0,2.9,1.5,2.9,4.6c0,1.5-0.3,2.7-0.8,3.5s-1.3,1.2-2.3,1.2
			c-0.9,0-1.6-0.4-2.1-1.2S62.1,448.6,62.1,447.2z M63.3,447.1c0,2.4,0.6,3.6,1.8,3.6c1.2,0,1.8-1.2,1.8-3.7c0-2.5-0.6-3.8-1.8-3.8
			C63.9,443.3,63.3,444.6,63.3,447.1z"/>
		<path d="M72,451.5v-7.8c-0.2,0.2-0.5,0.4-0.9,0.6s-0.8,0.4-1.2,0.5v-1.1c0.5-0.1,1-0.4,1.5-0.6s1-0.6,1.3-0.8h0.4v9.3L72,451.5
			L72,451.5z"/>
		<path d="M76.3,449c0-0.5,0.2-1,0.5-1.5s0.7-0.8,1.2-0.9c-0.4-0.2-0.7-0.5-0.9-0.9s-0.3-0.7-0.3-1.1c0-0.4,0.1-0.8,0.3-1.2
			s0.5-0.6,0.9-0.8s0.8-0.3,1.3-0.3c0.5,0,0.9,0.1,1.3,0.3s0.7,0.5,0.9,0.8s0.3,0.8,0.3,1.2c0,0.4-0.1,0.8-0.3,1.1s-0.5,0.6-0.9,0.9
			c0.5,0.2,0.9,0.5,1.2,1s0.5,0.9,0.5,1.4c0,0.5-0.1,1-0.4,1.4s-0.6,0.7-1.1,1s-1,0.3-1.5,0.3c-0.6,0-1.1-0.1-1.5-0.3
			s-0.8-0.5-1.1-1S76.3,449.5,76.3,449z M77.4,449c0,0.5,0.2,1,0.5,1.3s0.8,0.5,1.3,0.5c0.5,0,1-0.2,1.3-0.5s0.5-0.8,0.5-1.3
			c0-0.5-0.2-0.9-0.5-1.3s-0.8-0.5-1.3-0.5s-1,0.2-1.3,0.5S77.4,448.4,77.4,449z M77.7,444.7c0,0.4,0.1,0.8,0.4,1s0.6,0.4,1.1,0.4
			c0.4,0,0.8-0.1,1.1-0.4s0.4-0.6,0.4-1c0-0.4-0.1-0.8-0.4-1s-0.7-0.4-1.1-0.4s-0.8,0.1-1.1,0.4S77.7,444.3,77.7,444.7z"/>
		<path d="M82.9,449.1h1.9v-3.4H89v-2.1h-3.4c-0.5,1-1.1,1.8-1.8,2.6c-0.2-0.2-0.4-0.4-0.7-0.7c1.1-1.2,1.9-2.6,2.5-4.2l1,0.3
			c-0.2,0.4-0.3,0.8-0.5,1.1H94v0.8h-4.1v2.1h3.9v0.8h-3.9v2.5h4.6v0.8h-4.6v3.2H89V450h-6L82.9,449.1L82.9,449.1z M85.8,449.1H89
			v-2.5h-3.2V449.1z"/>
		<path d="M98.1,451.5v-7.8c-0.2,0.2-0.5,0.4-0.9,0.6s-0.8,0.4-1.2,0.5v-1.1c0.5-0.1,1-0.4,1.5-0.6s1-0.6,1.3-0.8h0.4v9.3
			L98.1,451.5L98.1,451.5z"/>
		<path d="M104.8,449.1c-0.2,1.5-0.8,2.9-1.8,4.1c-0.2-0.2-0.5-0.5-0.8-0.7c0.8-0.8,1.3-1.8,1.5-2.9c0.2-0.8,0.3-2,0.3-3.5v-4h7.8
			v9.1c0,1.2-0.6,1.7-1.7,1.7c-0.5,0-1.1,0-1.8,0c0-0.3-0.1-0.6-0.2-1c0.7,0,1.3,0.1,1.7,0.1c0.6,0,0.9-0.3,0.9-0.9v-2H104.8z
			 M104.9,448.3h6V446h-5.9C104.9,446.8,104.9,447.6,104.9,448.3z M104.9,442.9v2.2h5.9v-2.2H104.9z"/>
	</g>
</g>
<g>
	<g>
		<path class="st1" d="M56.7,461.9h1.6c-0.1,0.3-0.3,0.5-0.4,0.8h2.9v1.1c0.5-0.6,0.8-1.2,1.1-1.9h1.6c-0.1,0.3-0.2,0.5-0.3,0.8h3.1
			v1.1h-2c0.2,0.2,0.5,0.4,0.7,0.7l-0.7,0.6h1.3v3.2h-4.1v0.7h4.6c0,1.9-0.2,3-0.3,3.2s-0.4,0.4-0.6,0.6s-1.2,0.2-2.8,0.2
			c-0.1-0.5-0.2-0.9-0.4-1.4c1,0,1.6,0.1,1.6,0.1c0.3,0,0.5,0,0.6-0.1s0.2-0.2,0.3-0.3s0.1-0.4,0.1-0.8h-3v3.2h-1.6v-2.9
			c-1,1.1-2.4,2.1-4.2,2.8c-0.2-0.4-0.5-0.9-0.9-1.4c1.4-0.5,2.6-1,3.5-1.7h-2.8L56,467h3.9v-0.7h-4v-1c-0.1,0.1-0.2,0.2-0.3,0.2
			c-0.3-0.4-0.6-0.7-0.9-1.1C55.5,463.7,56.2,462.8,56.7,461.9z M57.7,464.2l0.5-0.4h-1c-0.3,0.5-0.7,0.9-1.1,1.2h2.4
			C58.3,464.8,58,464.5,57.7,464.2z M57.2,469h2.7v-0.7h-2.5L57.2,469z M59,463.8c0.3,0.2,0.5,0.5,0.8,0.7l-0.6,0.5h2.4
			c-0.4-0.3-0.8-0.5-1.2-0.8c0.1-0.1,0.2-0.3,0.3-0.4H59z M64,467v-0.7h-2.5v0.7H64z M61.7,465h2.2c-0.3-0.3-0.6-0.6-0.9-0.9
			l0.4-0.3h-0.8C62.3,464.2,62,464.7,61.7,465z"/>
		<path class="st1" d="M66.9,466.8h11.3v1.7H66.9V466.8z"/>
		<path class="st1" d="M79.9,462.4h9.9v3.7h-8.2c0,2.2-0.2,3.8-0.4,4.8s-0.6,1.8-1.1,2.5c-0.5-0.6-0.9-1-1.3-1.4
			c0.3-0.5,0.6-1.1,0.8-1.8s0.3-2.1,0.3-4L79.9,462.4L79.9,462.4z M88.1,464.7v-1h-6.6v1H88.1z M81.8,473.5V467H85v-0.8h1.6v0.8h3.2
			v6.5h-1.6v-0.6h-4.8v0.6H81.8z M83.4,469.4H85v-1h-1.6V469.4z M83.4,471.6H85v-1h-1.6V471.6z M88.2,468.3h-1.6v1h1.6V468.3z
			 M86.6,471.6h1.6v-1h-1.6V471.6z"/>
		<path class="st1" d="M90.8,467h2.7v-2.9h-2.1v-1.5h10.5v1.5H100v2.9h2.4v1.5H100v4.8h-1.7v-4.8h-3.1c-0.1,1.4-0.3,2.5-0.8,3.2
			s-1.2,1.3-2.1,1.8c-0.4-0.4-0.9-0.8-1.5-1.2c0.7-0.4,1.3-0.8,1.8-1.4s0.8-1.4,0.8-2.5h-2.7V467z M95.2,467h3.1v-2.9h-3.1V467z"/>
		<path class="st1" d="M113.2,468c-0.6,1-1.4,2-2.3,2.7c0.9,0.4,2.1,0.7,3.6,0.9c-0.3,0.6-0.7,1.1-1,1.7c-1.6-0.4-2.9-0.9-4.1-1.6
			c-1.2,0.7-2.5,1.2-4.1,1.7c-0.3-0.5-0.6-1-0.9-1.5c1.3-0.4,2.5-0.8,3.5-1.3c-0.6-0.5-1.1-1.1-1.6-1.8c-0.9,1.5-1.9,2.7-3.1,3.7
			c-0.2-0.7-0.3-1.4-0.5-2c1.5-1.4,2.7-3.1,3.4-5h-2.9v-1.4c0.2-0.6,0.4-1.3,0.6-2l1.6,0.2c-0.1,0.5-0.3,1.1-0.5,1.8h1.7
			c0.2-0.7,0.4-1.4,0.5-2.3l1.7,0.1l-0.5,2.2h3.3c-0.4-0.4-0.9-0.9-1.3-1.3l1-1c0.7,0.5,1.3,1.1,1.8,1.5l-0.7,0.8h2v1.4h-6.5
			c-0.1,0.3-0.2,0.7-0.4,1.1h5.7C113.2,466.7,113.2,468,113.2,468z M109.3,469.9c0.8-0.6,1.4-1.2,1.9-1.8h-3.6
			C108.1,468.8,108.7,469.4,109.3,469.9z"/>
		<path class="st1" d="M114.8,465.2h4v-0.9h-3.1v-1.4h3.1v-1h1.6v1h2.8v1.3c0.5-0.5,1.1-1.1,1.5-1.7l1.2,0.9
			c-0.6,0.7-1.1,1.3-1.7,1.8h2.2v1.4h-3.9c-0.5,0.3-1,0.6-1.5,0.9h4.1v6h-1.6V473h-5.5v0.5h-1.6v-4.2c-0.4,0.1-0.8,0.2-1.2,0.4
			c-0.1-0.4-0.3-0.9-0.5-1.5c2.2-0.4,3.9-0.9,5.3-1.6h-5.2V465.2z M123.5,468.8h-5.5v0.8h5.5V468.8z M118.1,471.7h5.5v-0.8h-5.5
			V471.7z M123.2,464.3h-2.7v0.9h1.7C122.5,464.9,122.9,464.6,123.2,464.3z"/>
		<path class="st1" d="M127,464.9h4.6c0.1-0.8,0.1-1.8,0.1-3h1.8c0,1.2-0.1,2.1-0.1,3h4.8v1.6h-4.7c0.7,2.6,2.3,4.4,4.9,5.3
			c-0.6,0.6-1,1.2-1.3,1.6c-2.1-1-3.6-2.6-4.4-4.8c-0.6,2-2.1,3.7-4.5,4.9c-0.3-0.4-0.8-0.9-1.3-1.5c2.8-1.3,4.4-3.1,4.7-5.5H127
			V464.9z"/>
		<path class="st1" d="M145.9,461.9l-0.3,0.4c1,1.5,2.6,2.7,4.9,3.8c-0.4,0.5-0.8,1-1.1,1.4c-0.6-0.3-1.1-0.6-1.6-1v0.8h-6.3v-0.9
			c-0.5,0.3-1.1,0.7-1.6,1c-0.2-0.3-0.6-0.8-1.1-1.4c2.6-1.3,4.3-2.7,5.1-4.2L145.9,461.9L145.9,461.9z M139.2,468.3H150v1.5h-2.9
			c0.7,0.9,1.5,1.9,2.4,3l-1.4,0.9c-0.2-0.2-0.4-0.5-0.5-0.8c-1.5,0-3.3,0.2-5.6,0.3c-0.3,0-0.8,0.1-1.2,0.2l-0.7-1.4
			c0.7-0.5,1.4-1.2,2.1-2.2h-2.9L139.2,468.3L139.2,468.3z M144.6,463.6c-0.6,0.7-1.3,1.5-2.3,2.2h4.6
			C145.9,465.2,145.2,464.4,144.6,463.6z M145.6,470.4l1-0.6h-2.5c-0.4,0.5-0.9,1.1-1.6,1.8c0.9,0,2.2,0,3.8-0.1
			C146.2,471.1,145.9,470.7,145.6,470.4z"/>
		<path class="st1" d="M154.9,469.1h-3.5v-1.3h3.5V469.1z"/>
		<path class="st1" d="M158.4,473.5h-1.7v-11.2h1.7V473.5z M159.7,473.4v-11h7.4v11h-1.7v-0.7h-4v0.7H159.7z M165.3,463.9h-4v2.8h4
			V463.9z M161.4,471.1h4v-2.9h-4V471.1z"/>
		<path class="st1" d="M168.3,471.7h2.5c-0.3-0.4-0.7-0.9-1.2-1.5l1.4-0.8c0.4,0.5,0.8,1,1.3,1.6l-1.1,0.7h1.8v-2.3h-3.7V468h3.7v-1
			h-2.2v-1c-0.6,0.4-1.2,0.7-1.8,1.1c-0.3-0.5-0.6-1-1-1.5c2.4-1,4.1-2.2,5.2-3.6h2.4l-0.5,0.5c1.2,1.3,2.8,2.2,4.8,2.9
			c-0.4,0.6-0.7,1.1-0.9,1.6c-0.6-0.3-1.2-0.6-1.8-0.9v1h-2.3v1h3.7v1.4h-1.8l1.4,0.8c-0.4,0.5-0.8,1.1-1.2,1.5h2.5v1.4h-11
			L168.3,471.7L168.3,471.7z M173.8,463.5c-0.7,0.7-1.5,1.4-2.4,2.1h4.9C175.3,465,174.5,464.3,173.8,463.5z M176.6,469.4h-1.9v2.3
			h1.8l-1.1-0.6C175.8,470.5,176.2,470,176.6,469.4z"/>
		<path class="st1" d="M189.2,473.5v-0.9h-8.5v-8.4h1.7v6.8h2.5v-9h1.8v9h2.5v-6.8h1.7v9.3L189.2,473.5L189.2,473.5z"/>
	</g>
</g>
<g class="st0">
	<g>
		<path d="M59.6,506.8c0-0.5-0.2-0.9-0.5-1.2s-0.7-0.4-1.3-0.4c-0.4,0-0.8,0.1-1.1,0.3s-0.7,0.5-1.1,0.8v-1.1c0.3-0.3,0.6-0.5,1-0.7
			s0.8-0.2,1.3-0.2c0.8,0,1.5,0.2,2,0.7s0.8,1,0.8,1.8c0,0.7-0.2,1.2-0.5,1.7s-0.8,1-1.6,1.5c-0.8,0.5-1.3,0.9-1.5,1.1
			s-0.4,0.4-0.5,0.7s-0.2,0.5-0.2,0.8H61v1h-5.7v-0.5c0-0.5,0.1-1,0.2-1.3s0.4-0.7,0.7-1.1s0.8-0.8,1.5-1.2c0.7-0.5,1.2-0.9,1.5-1.3
			S59.6,507.3,59.6,506.8z"/>
		<path d="M62.1,509.2c0-1.6,0.3-2.8,0.8-3.6s1.3-1.2,2.3-1.2c1.9,0,2.9,1.5,2.9,4.7c0,1.5-0.3,2.7-0.8,3.5s-1.3,1.2-2.3,1.2
			c-0.9,0-1.6-0.4-2.1-1.2S62.1,510.6,62.1,509.2z M63.3,509.1c0,2.4,0.6,3.6,1.8,3.6c1.2,0,1.8-1.2,1.8-3.7c0-2.5-0.6-3.8-1.8-3.8
			C63.9,505.3,63.3,506.5,63.3,509.1z"/>
		<path d="M72,513.5v-7.8c-0.2,0.2-0.5,0.4-0.9,0.6s-0.8,0.4-1.2,0.5v-1.1c0.5-0.1,1-0.3,1.5-0.6s1-0.6,1.3-0.8h0.4v9.3L72,513.5
			L72,513.5z"/>
		<path d="M76.3,511c0-0.5,0.2-1,0.5-1.5s0.7-0.8,1.2-0.9c-0.4-0.2-0.7-0.5-0.9-0.9s-0.3-0.7-0.3-1.1c0-0.4,0.1-0.8,0.3-1.2
			s0.5-0.6,0.9-0.8s0.8-0.3,1.3-0.3c0.5,0,0.9,0.1,1.3,0.3s0.7,0.5,0.9,0.8s0.3,0.8,0.3,1.2c0,0.4-0.1,0.8-0.3,1.1s-0.5,0.6-0.9,0.9
			c0.5,0.2,0.9,0.5,1.2,1s0.5,0.9,0.5,1.4s-0.1,1-0.4,1.4s-0.6,0.7-1.1,1s-1,0.3-1.5,0.3c-0.6,0-1.1-0.1-1.5-0.3s-0.8-0.5-1.1-1
			S76.3,511.5,76.3,511z M77.4,511c0,0.5,0.2,1,0.5,1.3s0.8,0.5,1.3,0.5c0.5,0,1-0.2,1.3-0.5s0.5-0.8,0.5-1.3c0-0.5-0.2-0.9-0.5-1.3
			s-0.8-0.5-1.3-0.5s-1,0.2-1.3,0.5S77.4,510.4,77.4,511z M77.7,506.7c0,0.4,0.1,0.8,0.4,1s0.6,0.4,1.1,0.4c0.4,0,0.8-0.2,1.1-0.4
			s0.4-0.6,0.4-1c0-0.4-0.1-0.8-0.4-1s-0.7-0.4-1.1-0.4s-0.8,0.1-1.1,0.4S77.7,506.3,77.7,506.7z"/>
		<path d="M82.9,511.1h1.9v-3.3H89v-2.1h-3.4c-0.5,1-1.1,1.8-1.8,2.6c-0.2-0.2-0.4-0.4-0.7-0.7c1.1-1.2,1.9-2.7,2.5-4.2l1,0.3
			c-0.2,0.4-0.3,0.8-0.5,1.1H94v0.8h-4.1v2.1h3.9v0.8h-3.9v2.5h4.6v0.8h-4.6v3.2H89V512h-6L82.9,511.1L82.9,511.1z M85.8,511.1H89
			v-2.5h-3.2V511.1z"/>
		<path d="M100.9,510.7c0,0.9-0.3,1.6-0.9,2.1s-1.4,0.8-2.4,0.8c-0.8,0-1.5-0.1-1.9-0.4v-1.2c0.6,0.4,1.2,0.6,1.9,0.6
			c0.6,0,1.1-0.2,1.5-0.5s0.6-0.8,0.6-1.4s-0.2-1-0.6-1.3s-1-0.5-1.7-0.5c-0.6,0-1.1,0-1.5,0.1l0.3-4.6h4.2v1h-3.3L97,508l0.8,0
			c1,0,1.7,0.2,2.3,0.7S100.9,509.9,100.9,510.7z"/>
		<path d="M104.8,511.1c-0.2,1.5-0.8,2.9-1.8,4.1c-0.2-0.2-0.5-0.5-0.8-0.7c0.8-0.8,1.3-1.8,1.5-2.9c0.2-0.8,0.3-2,0.3-3.5v-4h7.8
			v9.1c0,1.2-0.6,1.7-1.7,1.7c-0.5,0-1.1,0-1.8,0c0-0.3-0.1-0.6-0.2-1c0.7,0,1.3,0.1,1.7,0.1c0.6,0,0.9-0.3,0.9-0.9v-2L104.8,511.1
			L104.8,511.1z M104.9,510.3h6V508h-5.9C104.9,508.8,104.9,509.5,104.9,510.3z M104.9,504.9v2.2h5.9v-2.2H104.9z"/>
	</g>
</g>
<g>
	<g>
		<path class="st1" d="M63.7,533.9h-2l-3.8-5.9c-0.2-0.3-0.3-0.5-0.4-0.7h0c0,0.3,0,0.8,0,1.5v5.2h-1.8v-9.1h2.1l3.7,5.7
			c0.2,0.4,0.4,0.6,0.5,0.7h0c0-0.2-0.1-0.6-0.1-1.2v-5.2h1.8V533.9z"/>
		<path class="st1" d="M71.4,531.2h-4.3c0.1,1,0.7,1.5,1.8,1.5c0.7,0,1.3-0.2,1.9-0.5v1.4c-0.6,0.3-1.4,0.5-2.3,0.5
			c-1,0-1.8-0.3-2.4-0.9s-0.9-1.4-0.9-2.4s0.3-1.9,0.9-2.5s1.4-1,2.3-1c0.9,0,1.6,0.3,2.2,0.8s0.8,1.3,0.8,2.3L71.4,531.2
			L71.4,531.2z M69.6,530c0-1-0.4-1.5-1.2-1.5c-0.3,0-0.6,0.1-0.9,0.4s-0.4,0.6-0.5,1H69.6z"/>
		<path class="st1" d="M72.2,530.7c0-1.1,0.3-1.9,1-2.5s1.5-0.9,2.6-0.9c1,0,1.9,0.3,2.5,0.9s0.9,1.4,0.9,2.4c0,1.1-0.3,1.9-0.9,2.5
			s-1.5,0.9-2.6,0.9c-1.1,0-1.9-0.3-2.5-0.9S72.2,531.7,72.2,530.7z M74.1,530.7c0,1.3,0.5,1.9,1.6,1.9c1,0,1.5-0.7,1.5-2
			c0-1.3-0.5-1.9-1.5-1.9c-0.5,0-0.9,0.2-1.2,0.5S74.1,530,74.1,530.7z"/>
		<path class="st1" d="M84.4,528h2.5v-1.3h-2.6l0.4,0.2c-1,1.5-1.8,2.7-2.5,3.6c0.6-0.1,1.2-0.1,1.8-0.2c-0.1,0.5-0.1,1-0.1,1.5
			c-1.7,0.2-2.9,0.4-3.5,0.5l-0.5-1.3c0.5-0.4,1.1-1.2,1.8-2.2c-0.6,0-1.1,0.1-1.5,0.2l-0.4-1.3c0.6-0.8,1.3-2,2-3.8l1.6,0.6
			c-0.6,1.2-1.2,2.2-1.8,3.1l1.1,0l0.7-1.2l0.8,0.4v-1.3h2.8v-1.5h1.6v1.5h2.9v1.4h-2.9v1.3h2.6v1.4h-6.7V528z M80.1,534.9l-0.3-1.6
			c1.3-0.2,2.8-0.4,4.3-0.6c-0.1,0.7-0.1,1.2-0.1,1.6C82.7,534.5,81.3,534.7,80.1,534.9z M84.5,535.5v-5h6.4v5h-1.6v-0.7h-3.3v0.7
			H84.5z M89.3,531.9h-3.3v1.5h3.3V531.9z"/>
		<path class="st1" d="M91.8,530.7c0.6-0.9,1.1-2,1.4-3.1h-1.3v-1.4h1.4V524h1.5v2.3H96v0.6c0.6-0.8,1.1-1.8,1.5-2.8l1.6,0.1
			c-0.1,0.4-0.3,0.8-0.5,1.1h4.4c0,1.7,0,3.2,0,4.5s0,2.3-0.1,3.1s-0.2,1.3-0.5,1.8s-0.8,0.6-1.2,0.7s-1.3,0.1-2.6,0
			c-0.1-0.6-0.2-1.2-0.3-1.6c0.8,0.1,1.5,0.1,2.1,0.1c0.3,0,0.6-0.1,0.8-0.3s0.3-0.6,0.3-1.2l-0.8,0.4l-0.2-0.5
			c-1.9,0.1-3.2,0.3-4.1,0.5l-0.5-1.3c0.6-0.5,1.3-1.8,2.2-4l1.5,0.6l-1.8,3.1l2.1-0.1c-0.3-0.5-0.5-1-0.8-1.5l1.2-0.6
			c0.4,0.7,0.9,1.5,1.3,2.3c0-1.2,0-2.7,0-4.4h-3.6c-0.4,0.7-0.8,1.3-1.3,1.9c-0.3-0.4-0.7-0.7-1-1h-0.7v0.7c0.6,0.5,1.1,1,1.6,1.5
			l-1,1c-0.2-0.3-0.4-0.6-0.6-0.8v5.5h-1.5v-5c-0.3,0.8-0.7,1.6-1.2,2.3C92.1,532.3,91.9,531.6,91.8,530.7z"/>
		<path class="st1" d="M103.8,534h5v-0.6h-4.3v-1h4.3v-0.6H105v-4.1h3.9v-0.6h-5v-1h5v-0.6l-4,0.1c-0.1-0.3-0.1-0.7-0.2-1
			c3.3,0,6.6-0.1,9.7-0.3c0,0,0.1,0.4,0.2,1.1l-4.2,0.1v0.6h5.1v1h-5.1v0.6h3.9v4.1h-3.9v0.6h4.3v1h-4.3v0.6h5.1v1h-11.6V534z
			 M106.5,529.4h2.3v-0.7h-2.3V529.4z M106.5,530.9h2.3v-0.7h-2.3V530.9z M112.8,528.7h-2.4v0.7h2.4V528.7z M112.8,530.9v-0.7h-2.4
			v0.7H112.8z"/>
		<path class="st1" d="M116.1,535l-0.3-1.6c1.4-0.2,2.8-0.3,4.3-0.5c0,0.2,0,0.5,0,0.7h0.6v-6.7c-0.9,1.4-1.7,2.7-2.5,3.8l2.1-0.2
			c-0.1,0.6-0.1,1-0.1,1.4c-2,0.2-3.2,0.4-3.6,0.5l-0.6-1.4c0.4-0.2,1-1,1.8-2.2c-0.8,0-1.3,0.1-1.5,0.2l-0.5-1.4
			c0.4-0.3,1.1-1.5,2.2-3.8l1.5,0.6c-0.6,1.1-1.3,2.2-1.8,3.1l1,0c0.3-0.4,0.5-0.9,0.8-1.4l1.3,0.6v-2.3h6v9.1h0.7v1.5h-7.6v-0.6
			L116.1,535z M125.1,525.9h-2.8v1.5h2.8V525.9z M122.3,530.5h2.8v-1.5h-2.8V530.5z M122.3,533.5h2.8V532h-2.8V533.5z"/>
		<path class="st1" d="M140.3,533.9h-2l-3.8-5.9c-0.2-0.3-0.3-0.5-0.4-0.7h0c0,0.3,0.1,0.8,0.1,1.5v5.2h-1.8v-9.1h2.1l3.7,5.7
			c0.2,0.4,0.4,0.6,0.4,0.7h0c0-0.2-0.1-0.6-0.1-1.2v-5.2h1.8L140.3,533.9L140.3,533.9z"/>
		<path class="st1" d="M149.8,533.3c-0.9,0.5-2,0.8-3.3,0.8c-1.4,0-2.6-0.4-3.4-1.2s-1.2-1.9-1.2-3.3c0-1.4,0.5-2.6,1.4-3.5
			s2.1-1.3,3.6-1.3c1,0,1.8,0.1,2.5,0.4v1.8c-0.7-0.4-1.6-0.6-2.6-0.6c-0.9,0-1.6,0.3-2.1,0.9s-0.8,1.3-0.8,2.3c0,1,0.2,1.7,0.7,2.2
			s1.2,0.8,2,0.8c0.5,0,0.9-0.1,1.2-0.2v-1.9h-1.8v-1.5h3.8L149.8,533.3L149.8,533.3z"/>
		<path class="st1" d="M151.6,533.9v-9.1h3.1c3.2,0,4.8,1.5,4.8,4.4c0,1.4-0.4,2.5-1.4,3.4s-2.1,1.3-3.5,1.3H151.6z M153.5,526.4
			v5.9h1.1c0.9,0,1.6-0.3,2.2-0.8s0.8-1.3,0.8-2.2c0-0.9-0.3-1.6-0.8-2.1s-1.3-0.8-2.1-0.8H153.5z"/>
		<path class="st1" d="M163.1,533.9c-0.1-0.7-0.2-1.2-0.3-1.7c0.4,0.1,0.7,0.1,0.9,0.1c0.4,0,0.7-0.2,0.7-0.6s0.1-1,0.1-1.6h-1.7
			c0,2.4-0.4,4.2-1.1,5.5c-0.4-0.4-0.9-0.8-1.4-1.2c0.6-1,1-2.6,1-4.5v-4h5.5l-0.1-1.9h1.7l0,1.9h1.6c-0.2-0.3-0.5-0.7-1-1.2
			l1.2-0.7c0.3,0.3,0.7,0.8,1.2,1.4l-0.9,0.5h1.3v1.4h-3.4c0,1.2,0.1,2.3,0.2,3.2c0.5-0.8,1-1.7,1.4-2.6l1.4,0.7
			c-0.7,1.5-1.5,2.9-2.3,4c0.3,0.8,0.6,1.1,0.8,1.1c0.1,0,0.2-0.1,0.2-0.2s0.1-0.4,0.2-0.8s0.1-0.8,0.1-1.2c0.4,0.2,0.9,0.4,1.5,0.7
			c0,0.4-0.1,1-0.3,1.7s-0.4,1.1-0.7,1.3s-0.6,0.3-0.9,0.3c-0.9,0-1.6-0.5-2.1-1.6c-0.6,0.6-1.2,1.2-1.8,1.6
			c-0.4-0.5-0.8-0.9-1.2-1.2c0.9-0.6,1.6-1.3,2.4-2.2c-0.3-1.2-0.5-2.8-0.6-4.8h-4v1.4h3.3c0,0.1,0,0.8-0.1,2s-0.1,2-0.3,2.3
			s-0.4,0.5-0.6,0.7S164.1,533.9,163.1,533.9z"/>
		<path class="st1" d="M172.3,533.5h5.9c0.9-1.8,1.8-3.8,2.5-5.8l1.7,0.6c-0.7,1.8-1.5,3.5-2.4,5.3h3.7v1.6h-11.5V533.5z
			 M172.6,525.9h4.8c-0.2-0.4-0.5-0.9-0.8-1.4l1.6-0.7c0.4,0.6,0.8,1.2,1.1,1.7l-0.8,0.4h5v1.5h-10.9L172.6,525.9L172.6,525.9z
			 M175.2,527.6c0.8,1.8,1.5,3.4,2.1,5l-1.7,0.6c-0.6-1.7-1.2-3.4-1.9-5L175.2,527.6z"/>
	</g>
</g>
<g class="st0">
	<g>
		<path d="M59.6,568.8c0-0.5-0.2-0.9-0.5-1.2s-0.7-0.4-1.3-0.4c-0.4,0-0.8,0.1-1.1,0.3s-0.7,0.5-1.1,0.8v-1.1c0.3-0.3,0.6-0.5,1-0.7
			s0.8-0.2,1.3-0.2c0.8,0,1.5,0.2,2,0.7s0.8,1,0.8,1.8c0,0.7-0.2,1.2-0.5,1.7s-0.8,1-1.6,1.5c-0.8,0.5-1.3,0.9-1.5,1.1
			s-0.4,0.4-0.5,0.7s-0.2,0.5-0.2,0.8H61v1h-5.7v-0.5c0-0.5,0.1-1,0.2-1.3s0.4-0.7,0.7-1.1s0.8-0.8,1.5-1.2c0.7-0.5,1.2-0.9,1.5-1.3
			S59.6,569.3,59.6,568.8z"/>
		<path d="M62.1,571.2c0-1.6,0.3-2.8,0.8-3.6s1.3-1.2,2.3-1.2c1.9,0,2.9,1.5,2.9,4.7c0,1.5-0.3,2.7-0.8,3.5s-1.3,1.2-2.3,1.2
			c-0.9,0-1.6-0.4-2.1-1.2S62.1,572.6,62.1,571.2z M63.3,571.1c0,2.4,0.6,3.6,1.8,3.6c1.2,0,1.8-1.2,1.8-3.7c0-2.5-0.6-3.8-1.8-3.8
			C63.9,567.3,63.3,568.5,63.3,571.1z"/>
		<path d="M72,575.5v-7.8c-0.2,0.2-0.5,0.4-0.9,0.6s-0.8,0.4-1.2,0.5v-1.1c0.5-0.1,1-0.3,1.5-0.6s1-0.6,1.3-0.8h0.4v9.3L72,575.5
			L72,575.5z"/>
		<path d="M76.3,573c0-0.5,0.2-1,0.5-1.5s0.7-0.8,1.2-0.9c-0.4-0.2-0.7-0.5-0.9-0.9s-0.3-0.7-0.3-1.1c0-0.4,0.1-0.8,0.3-1.2
			s0.5-0.6,0.9-0.8s0.8-0.3,1.3-0.3c0.5,0,0.9,0.1,1.3,0.3s0.7,0.5,0.9,0.8s0.3,0.8,0.3,1.2c0,0.4-0.1,0.8-0.3,1.1s-0.5,0.6-0.9,0.9
			c0.5,0.2,0.9,0.5,1.2,1s0.5,0.9,0.5,1.4s-0.1,1-0.4,1.4s-0.6,0.7-1.1,1s-1,0.3-1.5,0.3c-0.6,0-1.1-0.1-1.5-0.3s-0.8-0.5-1.1-1
			S76.3,573.5,76.3,573z M77.4,573c0,0.5,0.2,1,0.5,1.3s0.8,0.5,1.3,0.5c0.5,0,1-0.2,1.3-0.5s0.5-0.8,0.5-1.3c0-0.5-0.2-0.9-0.5-1.3
			s-0.8-0.5-1.3-0.5c-0.5,0-1,0.2-1.3,0.5S77.4,572.4,77.4,573z M77.7,568.7c0,0.4,0.1,0.8,0.4,1s0.6,0.4,1.1,0.4
			c0.4,0,0.8-0.2,1.1-0.4s0.4-0.6,0.4-1c0-0.4-0.1-0.8-0.4-1s-0.7-0.4-1.1-0.4s-0.8,0.1-1.1,0.4S77.7,568.3,77.7,568.7z"/>
		<path d="M82.9,573.1h1.9v-3.3H89v-2.1h-3.4c-0.5,1-1.1,1.8-1.8,2.6c-0.2-0.2-0.4-0.4-0.7-0.7c1.1-1.2,1.9-2.7,2.5-4.2l1,0.3
			c-0.2,0.4-0.3,0.8-0.5,1.1H94v0.8h-4.1v2.1h3.9v0.8h-3.9v2.5h4.6v0.8h-4.6v3.2H89V574h-6L82.9,573.1L82.9,573.1z M85.8,573.1H89
			v-2.5h-3.2V573.1z"/>
		<path d="M100.7,567.6c-0.5-0.2-1-0.4-1.5-0.4c-0.8,0-1.4,0.3-1.9,1s-0.7,1.6-0.7,2.8h0c0.4-0.8,1.1-1.2,2.1-1.2
			c0.8,0,1.4,0.3,1.9,0.8s0.7,1.2,0.7,2c0,0.9-0.3,1.6-0.8,2.2s-1.2,0.9-2.1,0.9c-0.9,0-1.7-0.4-2.2-1.1s-0.8-1.7-0.8-3.1
			c0-1.6,0.3-2.9,1-3.8s1.6-1.4,2.7-1.4c0.6,0,1.2,0.1,1.5,0.3L100.7,567.6L100.7,567.6z M96.7,572.6c0,0.6,0.2,1.1,0.5,1.5
			s0.7,0.6,1.3,0.6c0.5,0,0.9-0.2,1.2-0.5s0.5-0.8,0.5-1.4c0-0.6-0.2-1.1-0.4-1.5s-0.7-0.5-1.3-0.5c-0.5,0-0.9,0.2-1.2,0.5
			S96.7,572.1,96.7,572.6z"/>
		<path d="M104.8,573.1c-0.2,1.5-0.8,2.9-1.8,4.1c-0.2-0.2-0.5-0.5-0.8-0.7c0.8-0.8,1.3-1.8,1.5-2.9c0.2-0.8,0.3-2,0.3-3.5v-4h7.8
			v9.1c0,1.2-0.6,1.7-1.7,1.7c-0.5,0-1.1,0-1.8,0c0-0.3-0.1-0.6-0.2-1c0.7,0,1.3,0.1,1.7,0.1c0.6,0,0.9-0.3,0.9-0.9v-2L104.8,573.1
			L104.8,573.1z M104.9,572.3h6V570h-5.9C104.9,570.8,104.9,571.5,104.9,572.3z M104.9,566.9v2.2h5.9v-2.2H104.9z"/>
	</g>
</g>
<g>
	<g>
		<path class="st1" d="M63.7,595.9h-2l-3.8-5.9c-0.2-0.3-0.3-0.5-0.4-0.7h0c0,0.3,0,0.8,0,1.5v5.2h-1.8v-9.1h2.1l3.7,5.7
			c0.2,0.4,0.4,0.6,0.5,0.7h0c0-0.2-0.1-0.6-0.1-1.2v-5.2h1.8V595.9z"/>
		<path class="st1" d="M71.4,593.2h-4.3c0.1,1,0.7,1.5,1.8,1.5c0.7,0,1.3-0.2,1.9-0.5v1.4c-0.6,0.3-1.4,0.5-2.3,0.5
			c-1,0-1.8-0.3-2.4-0.9s-0.9-1.4-0.9-2.4s0.3-1.9,0.9-2.5s1.4-1,2.3-1c0.9,0,1.6,0.3,2.2,0.8s0.8,1.3,0.8,2.3L71.4,593.2
			L71.4,593.2z M69.6,592c0-1-0.4-1.5-1.2-1.5c-0.3,0-0.6,0.1-0.9,0.4s-0.4,0.6-0.5,1H69.6z"/>
		<path class="st1" d="M72.2,592.7c0-1.1,0.3-1.9,1-2.5s1.5-0.9,2.6-0.9c1,0,1.9,0.3,2.5,0.9s0.9,1.4,0.9,2.4c0,1.1-0.3,1.9-0.9,2.5
			s-1.5,0.9-2.6,0.9c-1.1,0-1.9-0.3-2.5-0.9S72.2,593.7,72.2,592.7z M74.1,592.7c0,1.3,0.5,1.9,1.6,1.9c1,0,1.5-0.7,1.5-2
			c0-1.3-0.5-1.9-1.5-1.9c-0.5,0-0.9,0.2-1.2,0.5S74.1,592,74.1,592.7z"/>
		<path class="st1" d="M80.6,593.9c0.6,0.5,1.3,0.7,2.1,0.7c0.5,0,0.9-0.1,1.2-0.3s0.4-0.5,0.4-1c0-0.4-0.2-0.8-0.5-1
			s-0.9-0.3-1.5-0.3h-0.8v-1.5h0.7c1.2,0,1.8-0.4,1.8-1.2c0-0.8-0.5-1.2-1.4-1.2c-0.6,0-1.2,0.2-1.8,0.6v-1.6
			c0.6-0.3,1.4-0.5,2.2-0.5c0.9,0,1.6,0.2,2.1,0.6s0.8,1,0.8,1.7c0,1.2-0.6,1.9-1.8,2.2v0c0.6,0.1,1.1,0.3,1.5,0.7s0.6,0.9,0.6,1.4
			c0,0.9-0.3,1.5-0.9,2s-1.5,0.7-2.5,0.7c-0.9,0-1.7-0.2-2.3-0.5C80.5,595.6,80.5,593.9,80.6,593.9z"/>
		<path class="st1" d="M88.3,587.1h4c-0.1-0.3-0.2-0.6-0.3-0.9l1.8-0.4c0.2,0.4,0.3,0.8,0.5,1.2h3.8v4.2h-8.2c0,2.6-0.5,4.6-1.5,6.1
			c-0.3-0.4-0.7-0.8-1.2-1.4c0.8-1.3,1.1-2.9,1.1-4.9C88.3,591.1,88.3,587.1,88.3,587.1z M96.5,589.8v-1.3h-6.6v1.3H96.5z
			 M90.2,597.4v-5H98v5h-1.6v-0.6h-4.6v0.6L90.2,597.4L90.2,597.4z M96.4,593.8h-4.6v1.5h4.6V593.8z"/>
		<path class="st1" d="M103.7,591.8l1.2,3c0.5-1,0.8-2.7,0.8-5.3h-1.2v-1.5h1.2l0-2h1.6l0,2h3.1l-0.1,6.6c0,0.9-0.1,1.5-0.1,1.7
			s-0.2,0.4-0.3,0.6s-0.4,0.3-0.6,0.4s-1,0.1-2.1,0.1c-0.1-0.6-0.3-1.2-0.4-1.8c0.5,0,0.9,0,1.3,0c0.2,0,0.4,0,0.5-0.1
			s0.2-0.2,0.2-0.4s0.1-0.8,0.1-1.8s0.1-2.3,0.1-3.8h-1.5c0,1.7-0.1,3-0.2,3.7s-0.3,1.5-0.7,2.3s-0.8,1.5-1.3,2
			c-0.4-0.3-0.9-0.7-1.4-1c0.2-0.2,0.4-0.5,0.6-0.7l-3.2,0.3c-0.5,0.1-0.9,0.1-1.1,0.2l-0.7-1.4c0.4-0.3,0.9-1.6,1.5-3.7h-1.5v-1.5
			h5.4v1.5h-2.2c-0.4,1.1-0.8,2.2-1.2,3.3c0.7,0,1.3,0,1.9-0.1c-0.3-0.8-0.6-1.5-0.8-2.2L103.7,591.8z M104.2,588.3h-4.5v-1.5h4.5
			V588.3z"/>
	</g>
</g>
<g class="st0">
	<g>
		<path d="M59.6,630.8c0-0.5-0.2-0.9-0.5-1.2s-0.7-0.4-1.3-0.4c-0.4,0-0.8,0.1-1.1,0.3s-0.7,0.5-1.1,0.8v-1.1c0.3-0.3,0.6-0.5,1-0.7
			s0.8-0.2,1.3-0.2c0.8,0,1.5,0.2,2,0.7s0.8,1,0.8,1.8c0,0.7-0.2,1.2-0.5,1.7s-0.8,1-1.6,1.5c-0.8,0.5-1.3,0.9-1.5,1.1
			s-0.4,0.4-0.5,0.7s-0.2,0.5-0.2,0.8H61v1h-5.7v-0.5c0-0.5,0.1-1,0.2-1.3s0.4-0.7,0.7-1.1s0.8-0.8,1.5-1.2c0.7-0.5,1.2-0.9,1.5-1.3
			S59.6,631.3,59.6,630.8z"/>
		<path d="M62.1,633.2c0-1.6,0.3-2.8,0.8-3.6s1.3-1.2,2.3-1.2c1.9,0,2.9,1.5,2.9,4.7c0,1.5-0.3,2.7-0.8,3.5s-1.3,1.2-2.3,1.2
			c-0.9,0-1.6-0.4-2.1-1.2S62.1,634.6,62.1,633.2z M63.3,633.1c0,2.4,0.6,3.6,1.8,3.6c1.2,0,1.8-1.2,1.8-3.7c0-2.5-0.6-3.8-1.8-3.8
			C63.9,629.3,63.3,630.5,63.3,633.1z"/>
		<path d="M72,637.5v-7.8c-0.2,0.2-0.5,0.4-0.9,0.6s-0.8,0.4-1.2,0.5v-1.1c0.5-0.1,1-0.3,1.5-0.6s1-0.6,1.3-0.8h0.4v9.3L72,637.5
			L72,637.5z"/>
		<path d="M76.8,636.3c0.5,0.3,1,0.4,1.6,0.4c0.8,0,1.4-0.3,1.9-1s0.7-1.5,0.7-2.7l0,0l0,0c-0.4,0.8-1.1,1.1-2,1.1
			c-0.8,0-1.4-0.3-1.9-0.8s-0.8-1.2-0.8-2c0-0.9,0.3-1.6,0.8-2.2s1.3-0.9,2.1-0.9c0.9,0,1.6,0.3,2.1,1.1s0.8,1.7,0.8,3.1
			c0,1.7-0.3,3-1,3.9s-1.6,1.3-2.7,1.3c-0.6,0-1.2-0.1-1.6-0.3L76.8,636.3L76.8,636.3z M77.4,631.2c0,0.6,0.2,1.1,0.5,1.5
			s0.7,0.5,1.3,0.5c0.5,0,0.9-0.2,1.2-0.5s0.5-0.7,0.5-1.2c0-0.7-0.2-1.2-0.5-1.6s-0.8-0.6-1.3-0.6c-0.5,0-0.9,0.2-1.2,0.6
			S77.4,630.7,77.4,631.2z"/>
		<path d="M82.9,635.1h1.9v-3.3H89v-2.1h-3.4c-0.5,1-1.1,1.8-1.8,2.6c-0.2-0.2-0.4-0.4-0.7-0.7c1.1-1.2,1.9-2.7,2.5-4.2l1,0.3
			c-0.2,0.4-0.3,0.8-0.5,1.1H94v0.8h-4.1v2.1h3.9v0.8h-3.9v2.5h4.6v0.8h-4.6v3.2H89V636h-6L82.9,635.1L82.9,635.1z M85.8,635.1H89
			v-2.5h-3.2V635.1z"/>
		<path d="M99.7,630.8c0-0.5-0.2-0.9-0.5-1.2s-0.7-0.4-1.3-0.4c-0.4,0-0.8,0.1-1.1,0.3s-0.7,0.5-1.1,0.8v-1.1c0.3-0.3,0.6-0.5,1-0.7
			s0.8-0.2,1.3-0.2c0.8,0,1.5,0.2,2,0.7s0.8,1,0.8,1.8c0,0.7-0.2,1.2-0.5,1.7s-0.8,1-1.6,1.5c-0.8,0.5-1.3,0.9-1.5,1.1
			s-0.4,0.4-0.5,0.7s-0.2,0.5-0.2,0.8h4.5v1h-5.7v-0.5c0-0.5,0.1-1,0.2-1.3s0.4-0.7,0.7-1.1s0.8-0.8,1.5-1.2
			c0.7-0.5,1.2-0.9,1.5-1.3S99.7,631.3,99.7,630.8z"/>
		<path d="M104.8,635.1c-0.2,1.5-0.8,2.9-1.8,4.1c-0.2-0.2-0.5-0.5-0.8-0.7c0.8-0.8,1.3-1.8,1.5-2.9c0.2-0.8,0.3-2,0.3-3.5v-4h7.8
			v9.1c0,1.2-0.6,1.7-1.7,1.7c-0.5,0-1.1,0-1.8,0c0-0.3-0.1-0.6-0.2-1c0.7,0,1.3,0.1,1.7,0.1c0.6,0,0.9-0.3,0.9-0.9v-2L104.8,635.1
			L104.8,635.1z M104.9,634.3h6V632h-5.9C104.9,632.8,104.9,633.5,104.9,634.3z M104.9,628.9v2.2h5.9v-2.2H104.9z"/>
	</g>
</g>
<g>
	<g>
		<path class="st1" d="M56.7,647.9h1.6c-0.1,0.3-0.3,0.5-0.4,0.8h2.9v1.1c0.5-0.6,0.8-1.2,1.1-1.9h1.6c-0.1,0.3-0.2,0.5-0.3,0.8h3.1
			v1.1h-2c0.2,0.2,0.5,0.4,0.7,0.7l-0.7,0.6h1.3v3.2h-4.1v0.7h4.6c0,1.9-0.2,3-0.3,3.2s-0.4,0.4-0.6,0.6s-1.2,0.2-2.8,0.2
			c-0.1-0.5-0.2-0.9-0.4-1.4c1,0,1.6,0.1,1.6,0.1c0.3,0,0.5,0,0.6-0.1s0.2-0.2,0.3-0.3s0.1-0.4,0.1-0.8h-3v3.2h-1.6v-2.9
			c-1,1.1-2.4,2.1-4.2,2.8c-0.2-0.4-0.5-0.9-0.9-1.4c1.4-0.5,2.6-1,3.5-1.7h-2.8L56,653h3.9v-0.7h-4v-1c-0.1,0.1-0.2,0.2-0.3,0.2
			c-0.3-0.4-0.6-0.7-0.9-1.1C55.5,649.7,56.2,648.8,56.7,647.9z M57.7,650.2l0.5-0.4h-1c-0.3,0.5-0.7,0.9-1.1,1.2h2.4
			C58.3,650.8,58,650.5,57.7,650.2z M57.2,655h2.7v-0.7h-2.5L57.2,655z M59,649.8c0.3,0.2,0.5,0.5,0.8,0.7l-0.6,0.5h2.4
			c-0.4-0.3-0.8-0.5-1.2-0.8c0.1-0.1,0.2-0.3,0.3-0.4H59z M64,653v-0.7h-2.5v0.7H64z M61.7,651h2.2c-0.3-0.3-0.6-0.6-0.9-0.9
			l0.4-0.3h-0.8C62.3,650.2,62,650.7,61.7,651z"/>
		<path class="st1" d="M66.9,656.5h11.3v1.8H66.9V656.5z M67.8,649.2h9.6v1.8h-9.6V649.2z"/>
		<path class="st1" d="M79.9,648.4h9.9v3.7h-8.2c0,2.2-0.2,3.8-0.4,4.8s-0.6,1.8-1.1,2.5c-0.5-0.6-0.9-1-1.3-1.4
			c0.3-0.5,0.6-1.1,0.8-1.8s0.3-2.1,0.3-4L79.9,648.4L79.9,648.4z M88.1,650.7v-1h-6.6v1H88.1z M81.8,659.5V653H85v-0.8h1.6v0.8h3.2
			v6.5h-1.6v-0.6h-4.8v0.6H81.8z M83.4,655.4H85v-1h-1.6V655.4z M83.4,657.6H85v-1h-1.6V657.6z M88.2,654.3h-1.6v1h1.6V654.3z
			 M86.6,657.6h1.6v-1h-1.6V657.6z"/>
		<path class="st1" d="M90.8,653h2.7v-2.9h-2.1v-1.5h10.5v1.5H100v2.9h2.4v1.5H100v4.8h-1.7v-4.8h-3.1c-0.1,1.4-0.3,2.5-0.8,3.2
			s-1.2,1.3-2.1,1.8c-0.4-0.4-0.9-0.8-1.5-1.2c0.7-0.4,1.3-0.8,1.8-1.4s0.8-1.4,0.8-2.5h-2.7V653z M95.2,653h3.1v-2.9h-3.1V653z"/>
		<path class="st1" d="M113.2,654c-0.6,1-1.4,2-2.3,2.7c0.9,0.4,2.1,0.7,3.6,0.9c-0.3,0.6-0.7,1.1-1,1.7c-1.6-0.4-2.9-0.9-4.1-1.6
			c-1.2,0.7-2.5,1.2-4.1,1.7c-0.3-0.5-0.6-1-0.9-1.5c1.3-0.4,2.5-0.8,3.5-1.3c-0.6-0.5-1.1-1.1-1.6-1.8c-0.9,1.5-1.9,2.7-3.1,3.7
			c-0.2-0.7-0.3-1.4-0.5-2c1.5-1.4,2.7-3.1,3.4-5h-2.9v-1.4c0.2-0.6,0.4-1.3,0.6-2l1.6,0.2c-0.1,0.5-0.3,1.1-0.5,1.8h1.7
			c0.2-0.7,0.4-1.4,0.5-2.3l1.7,0.1l-0.5,2.2h3.3c-0.4-0.4-0.9-0.9-1.3-1.3l1-1c0.7,0.5,1.3,1.1,1.8,1.5l-0.7,0.8h2v1.4h-6.5
			c-0.1,0.3-0.2,0.7-0.4,1.1h5.7C113.2,652.7,113.2,654,113.2,654z M109.3,655.9c0.8-0.6,1.4-1.2,1.9-1.8h-3.6
			C108.1,654.8,108.7,655.4,109.3,655.9z"/>
		<path class="st1" d="M114.8,651.2h4v-0.9h-3.1v-1.4h3.1v-1h1.6v1h2.8v1.3c0.5-0.5,1.1-1.1,1.5-1.7l1.2,0.9
			c-0.6,0.7-1.1,1.3-1.7,1.8h2.2v1.4h-3.9c-0.5,0.3-1,0.6-1.5,0.9h4.1v6h-1.6V659h-5.5v0.5h-1.6v-4.2c-0.4,0.1-0.8,0.2-1.2,0.4
			c-0.1-0.4-0.3-0.9-0.5-1.5c2.2-0.4,3.9-0.9,5.3-1.6h-5.2V651.2z M123.5,654.8h-5.5v0.8h5.5V654.8z M118.1,657.7h5.5v-0.8h-5.5
			V657.7z M123.2,650.3h-2.7v0.9h1.7C122.5,650.9,122.9,650.6,123.2,650.3z"/>
		<path class="st1" d="M127,650.9h4.6c0.1-0.8,0.1-1.8,0.1-3h1.8c0,1.2-0.1,2.1-0.1,3h4.8v1.6h-4.7c0.7,2.6,2.3,4.4,4.9,5.3
			c-0.6,0.6-1,1.2-1.3,1.6c-2.1-1-3.6-2.6-4.4-4.8c-0.6,2-2.1,3.7-4.5,4.9c-0.3-0.4-0.8-0.9-1.3-1.5c2.8-1.3,4.4-3.1,4.7-5.5H127
			V650.9z"/>
		<path class="st1" d="M145.9,647.9l-0.3,0.4c1,1.5,2.6,2.7,4.9,3.8c-0.4,0.5-0.8,1-1.1,1.4c-0.6-0.3-1.1-0.6-1.6-1v0.8h-6.3v-0.9
			c-0.5,0.3-1.1,0.7-1.6,1c-0.2-0.3-0.6-0.8-1.1-1.4c2.6-1.3,4.3-2.7,5.1-4.2L145.9,647.9L145.9,647.9z M139.2,654.3H150v1.5h-2.9
			c0.7,0.9,1.5,1.9,2.4,3l-1.4,0.9c-0.2-0.2-0.4-0.5-0.5-0.8c-1.5,0-3.3,0.2-5.6,0.3c-0.3,0-0.8,0.1-1.2,0.2l-0.7-1.4
			c0.7-0.5,1.4-1.2,2.1-2.2h-2.9L139.2,654.3L139.2,654.3z M144.6,649.6c-0.6,0.7-1.3,1.5-2.3,2.2h4.6
			C145.9,651.2,145.2,650.4,144.6,649.6z M145.6,656.4l1-0.6h-2.5c-0.4,0.5-0.9,1.1-1.6,1.8c0.9,0,2.2,0,3.8-0.1
			C146.2,657.1,145.9,656.7,145.6,656.4z"/>
		<path class="st1" d="M154.9,655.1h-3.5v-1.3h3.5V655.1z"/>
		<path class="st1" d="M156.5,659.4v-8.1h3.1V650h-3.5v-1.5h11.4v1.5h-3.7v1.3h3.2v8h-1.6v-0.8h-7.3v0.8H156.5z M162.3,654.6v-1.8
			h-1.2c0,1.7-0.6,3-1.7,3.9c-0.4-0.4-0.9-0.7-1.3-1v1.4h7.3V656h-1.8C162.8,656,162.3,655.5,162.3,654.6z M158.2,655.7
			c0.9-0.7,1.4-1.6,1.4-2.8h-1.4V655.7z M161.1,651.4h1.2V650h-1.2V651.4z M165.4,652.8h-1.6v1.1c0,0.4,0.2,0.6,0.6,0.6h1V652.8z"/>
		<path class="st1" d="M167.9,656.6c0.8-0.8,1.4-1.7,1.9-2.7h-1.7v-1.2l0.5-2.4h1.4l-0.4,2.3h1v-2.9h-2.4v-1.3h4.6v1.3H172v1.6
			c0.9-1,1.6-2.1,2.2-3.5l1.3,0.4c-0.2,0.5-0.4,1-0.8,1.6h1.8c-0.3-0.6-0.5-1.1-0.8-1.4l1.2-0.6c0.4,0.5,0.7,1,1,1.6l-0.9,0.4h2.4
			v1.3h-1.9v1.3h1.8v1.2h-1.8v1.3h1.8v1.2h-1.8v1.4h2v1.2h-5v0.8h-1.4v-7.2c-0.1,0.1-0.2,0.2-0.2,0.3c-0.3-0.5-0.6-0.8-0.8-1.1v1.2
			h0.7v1.3H172v4.1c0,0.5-0.2,0.9-0.5,1.1s-0.8,0.3-1.5,0.3h-0.7c-0.1-0.6-0.2-1.1-0.3-1.5c0.4,0,0.8,0.1,1.1,0.1
			c0.4,0,0.5-0.2,0.5-0.6V655c-0.5,1.2-1.2,2.3-2.1,3.2C168.5,657.9,168.3,657.4,167.9,656.6z M174.5,652.4h1.6v-1.3h-1.6V652.4z
			 M174.5,654.9h1.6v-1.3h-1.6V654.9z M174.5,657.5h1.6v-1.4h-1.6V657.5z"/>
		<path class="st1" d="M180.5,659.5v-11.1h10.6v11.1h-1.6V659h-7.4v0.5H180.5z M184.3,649.8h-2.2v2
			C183.1,651.2,183.8,650.5,184.3,649.8z M182.9,652.8c-0.2-0.2-0.5-0.5-0.8-0.8v1.4c0.9-0.2,1.7-0.3,2.4-0.5
			c-0.3-0.2-0.6-0.5-0.8-0.7C183.5,652.4,183.2,652.6,182.9,652.8z M182.9,655.5c2.1,0.3,4,0.6,5.8,0.9l-0.3,1.3h1v-4.2
			c-0.2,0.3-0.4,0.6-0.6,1.1c-1.2-0.2-2.2-0.5-3-0.8c-0.4,0.2-0.9,0.3-1.4,0.5c1.3,0.2,2.6,0.3,3.8,0.6l-0.2,1.1
			c-1.3-0.2-2.7-0.5-4.3-0.7l0.2-0.8c-0.4,0.1-0.8,0.2-1.2,0.3c-0.1-0.3-0.3-0.7-0.6-1v4.1h6.3c-1.6-0.3-3.5-0.6-5.8-0.9
			L182.9,655.5z M185.9,652.4c0.6-0.2,1-0.5,1.3-0.9h-2.5C185,651.8,185.4,652.1,185.9,652.4z M189,650.5v1c-0.4,0.5-0.9,1-1.6,1.5
			c0.6,0.2,1.4,0.3,2.2,0.4v-3.5h-3.6c-0.1,0.2-0.3,0.4-0.5,0.6L189,650.5L189,650.5z"/>
	</g>
</g>
<g class="st0">
	<g>
		<path d="M59.6,692.8c0-0.5-0.2-0.9-0.5-1.2s-0.7-0.4-1.3-0.4c-0.4,0-0.8,0.1-1.1,0.3s-0.7,0.5-1.1,0.8v-1.1c0.3-0.3,0.6-0.5,1-0.7
			s0.8-0.2,1.3-0.2c0.8,0,1.5,0.2,2,0.7s0.8,1,0.8,1.8c0,0.7-0.2,1.2-0.5,1.7s-0.8,1-1.6,1.5c-0.8,0.5-1.3,0.9-1.5,1.1
			s-0.4,0.4-0.5,0.7s-0.2,0.5-0.2,0.8H61v1h-5.7v-0.5c0-0.5,0.1-1,0.2-1.3s0.4-0.7,0.7-1.1s0.8-0.8,1.5-1.2c0.7-0.5,1.2-0.9,1.5-1.3
			S59.6,693.3,59.6,692.8z"/>
		<path d="M62.1,695.2c0-1.6,0.3-2.8,0.8-3.6s1.3-1.2,2.3-1.2c1.9,0,2.9,1.5,2.9,4.7c0,1.5-0.3,2.7-0.8,3.5s-1.3,1.2-2.3,1.2
			c-0.9,0-1.6-0.4-2.1-1.2S62.1,696.6,62.1,695.2z M63.3,695.1c0,2.4,0.6,3.6,1.8,3.6c1.2,0,1.8-1.2,1.8-3.7c0-2.5-0.6-3.8-1.8-3.8
			C63.9,691.3,63.3,692.5,63.3,695.1z"/>
		<path d="M72,699.5v-7.8c-0.2,0.2-0.5,0.4-0.9,0.6s-0.8,0.4-1.2,0.5v-1.1c0.5-0.1,1-0.3,1.5-0.6s1-0.6,1.3-0.8h0.4v9.3L72,699.5
			L72,699.5z"/>
		<path d="M76.8,698.3c0.5,0.3,1,0.4,1.6,0.4c0.8,0,1.4-0.3,1.9-1s0.7-1.5,0.7-2.7l0,0l0,0c-0.4,0.8-1.1,1.1-2,1.1
			c-0.8,0-1.4-0.3-1.9-0.8s-0.8-1.2-0.8-2c0-0.9,0.3-1.6,0.8-2.2s1.3-0.9,2.1-0.9c0.9,0,1.6,0.3,2.1,1.1s0.8,1.7,0.8,3.1
			c0,1.7-0.3,3-1,3.9s-1.6,1.3-2.7,1.3c-0.6,0-1.2-0.1-1.6-0.3L76.8,698.3L76.8,698.3z M77.4,693.2c0,0.6,0.2,1.1,0.5,1.5
			s0.7,0.5,1.3,0.5c0.5,0,0.9-0.2,1.2-0.5s0.5-0.7,0.5-1.2c0-0.7-0.2-1.2-0.5-1.6s-0.8-0.6-1.3-0.6c-0.5,0-0.9,0.2-1.2,0.6
			S77.4,692.7,77.4,693.2z"/>
		<path d="M82.9,697.1h1.9v-3.3H89v-2.1h-3.4c-0.5,1-1.1,1.8-1.8,2.6c-0.2-0.2-0.4-0.4-0.7-0.7c1.1-1.2,1.9-2.7,2.5-4.2l1,0.3
			c-0.2,0.4-0.3,0.8-0.5,1.1H94v0.8h-4.1v2.1h3.9v0.8h-3.9v2.5h4.6v0.8h-4.6v3.2H89V698h-6L82.9,697.1L82.9,697.1z M85.8,697.1H89
			v-2.5h-3.2V697.1z"/>
		<path d="M95.8,698.3c0.5,0.3,1,0.4,1.6,0.4c0.8,0,1.4-0.3,1.9-1s0.7-1.5,0.7-2.7l0,0l0,0c-0.4,0.8-1.1,1.1-2,1.1
			c-0.8,0-1.4-0.3-1.9-0.8s-0.8-1.2-0.8-2c0-0.9,0.3-1.6,0.8-2.2s1.3-0.9,2.1-0.9c0.9,0,1.6,0.3,2.1,1.1s0.8,1.7,0.8,3.1
			c0,1.7-0.3,3-1,3.9s-1.6,1.3-2.7,1.3c-0.6,0-1.2-0.1-1.6-0.3L95.8,698.3L95.8,698.3z M96.5,693.2c0,0.6,0.2,1.1,0.5,1.5
			s0.7,0.5,1.3,0.5c0.5,0,0.9-0.2,1.2-0.5s0.5-0.7,0.5-1.2c0-0.7-0.2-1.2-0.5-1.6s-0.8-0.6-1.3-0.6c-0.5,0-0.9,0.2-1.2,0.6
			S96.5,692.7,96.5,693.2z"/>
		<path d="M104.8,697.1c-0.2,1.5-0.8,2.9-1.8,4.1c-0.2-0.2-0.5-0.5-0.8-0.7c0.8-0.8,1.3-1.8,1.5-2.9c0.2-0.8,0.3-2,0.3-3.5v-4h7.8
			v9.1c0,1.2-0.6,1.7-1.7,1.7c-0.5,0-1.1,0-1.8,0c0-0.3-0.1-0.6-0.2-1c0.7,0,1.3,0.1,1.7,0.1c0.6,0,0.9-0.3,0.9-0.9v-2L104.8,697.1
			L104.8,697.1z M104.9,696.3h6V694h-5.9C104.9,694.8,104.9,695.5,104.9,696.3z M104.9,690.9v2.2h5.9v-2.2H104.9z"/>
	</g>
</g>
<g>
	<g>
		<path class="st1" d="M56.7,709.9h1.6c-0.1,0.3-0.3,0.5-0.4,0.8h2.9v1.1c0.5-0.6,0.8-1.2,1.1-1.9h1.6c-0.1,0.3-0.2,0.5-0.3,0.8h3.1
			v1.1h-2c0.2,0.2,0.5,0.4,0.7,0.7l-0.7,0.6h1.3v3.2h-4.1v0.7h4.6c0,1.9-0.2,3-0.3,3.2s-0.4,0.4-0.6,0.6s-1.2,0.2-2.8,0.2
			c-0.1-0.5-0.2-0.9-0.4-1.4c1,0,1.6,0.1,1.6,0.1c0.3,0,0.5,0,0.6-0.1s0.2-0.2,0.3-0.3s0.1-0.4,0.1-0.8h-3v3.2h-1.6v-2.9
			c-1,1.1-2.4,2.1-4.2,2.8c-0.2-0.4-0.5-0.9-0.9-1.4c1.4-0.5,2.6-1,3.5-1.7h-2.8L56,715h3.9v-0.7h-4v-1c-0.1,0.1-0.2,0.2-0.3,0.2
			c-0.3-0.4-0.6-0.7-0.9-1.1C55.5,711.7,56.2,710.8,56.7,709.9z M57.7,712.2l0.5-0.4h-1c-0.3,0.5-0.7,0.9-1.1,1.2h2.4
			C58.3,712.8,58,712.5,57.7,712.2z M57.2,717h2.7v-0.7h-2.5L57.2,717z M59,711.8c0.3,0.2,0.5,0.5,0.8,0.7l-0.6,0.5h2.4
			c-0.4-0.3-0.8-0.5-1.2-0.8c0.1-0.1,0.2-0.3,0.3-0.4H59z M64,715v-0.7h-2.5v0.7H64z M61.7,713h2.2c-0.3-0.3-0.6-0.6-0.9-0.9
			l0.4-0.3h-0.8C62.3,712.2,62,712.7,61.7,713z"/>
		<path class="st1" d="M66.9,714.8h11.3v1.7H66.9V714.8z"/>
		<path class="st1" d="M79.9,710.4h9.9v3.7h-8.2c0,2.2-0.2,3.8-0.4,4.8s-0.6,1.8-1.1,2.5c-0.5-0.6-0.9-1-1.3-1.4
			c0.3-0.5,0.6-1.1,0.8-1.8s0.3-2.1,0.3-4L79.9,710.4L79.9,710.4z M88.1,712.7v-1h-6.6v1H88.1z M81.8,721.5V715H85v-0.8h1.6v0.8h3.2
			v6.5h-1.6v-0.6h-4.8v0.6H81.8z M83.4,717.4H85v-1h-1.6V717.4z M83.4,719.6H85v-1h-1.6V719.6z M88.2,716.3h-1.6v1h1.6V716.3z
			 M86.6,719.6h1.6v-1h-1.6V719.6z"/>
		<path class="st1" d="M99.7,719.9h-2l-3.8-5.9c-0.2-0.3-0.3-0.5-0.4-0.7h0c0,0.3,0.1,0.8,0.1,1.5v5.2h-1.8v-9.1h2.1l3.7,5.7
			c0.2,0.4,0.4,0.6,0.4,0.7h0c0-0.2-0.1-0.6-0.1-1.2v-5.2h1.8V719.9z"/>
		<path class="st1" d="M107.4,717.2h-4.3c0.1,1,0.7,1.5,1.8,1.5c0.7,0,1.3-0.2,1.9-0.5v1.4c-0.6,0.3-1.4,0.5-2.3,0.5
			c-1,0-1.8-0.3-2.4-0.9s-0.9-1.4-0.9-2.4s0.3-1.9,0.9-2.5s1.4-1,2.3-1c0.9,0,1.6,0.3,2.2,0.8s0.8,1.3,0.8,2.3L107.4,717.2
			L107.4,717.2z M105.6,716c0-1-0.4-1.5-1.2-1.5c-0.3,0-0.6,0.1-0.9,0.4s-0.4,0.6-0.5,1H105.6z"/>
		<path class="st1" d="M108.2,716.7c0-1.1,0.3-1.9,1-2.5s1.5-0.9,2.6-0.9c1,0,1.9,0.3,2.5,0.9s0.9,1.4,0.9,2.4
			c0,1.1-0.3,1.9-0.9,2.5s-1.5,0.9-2.6,0.9c-1.1,0-1.9-0.3-2.5-0.9S108.2,717.7,108.2,716.7z M110.1,716.7c0,1.3,0.5,1.9,1.6,1.9
			c1,0,1.5-0.7,1.5-2c0-1.3-0.5-1.9-1.5-1.9c-0.5,0-0.9,0.2-1.2,0.5S110.1,716,110.1,716.7z"/>
		<path class="st1" d="M118.3,709.9c0.3,0.4,0.7,0.9,1.1,1.5l-1.2,0.6h1.8v1.3c-0.3,0.7-0.7,1.4-1.1,2v0.5l0.6-0.6
			c0.4,0.4,0.9,0.9,1.5,1.5l-1.2,1c-0.4-0.5-0.7-0.9-1-1.2v4.9h-1.6v-4c-0.3,0.4-0.7,0.7-1.1,1c-0.2-0.8-0.3-1.4-0.5-1.9
			c1-0.9,1.8-1.9,2.4-3H116V712h2c-0.4-0.6-0.7-1.1-1-1.5L118.3,709.9z M119.8,719.5h3.1v-4.8h-2.3v-1.5h2.3V710h1.7v3.2h2.4v1.5
			h-2.4v4.8h2.8v1.5h-7.6L119.8,719.5L119.8,719.5z"/>
		<path class="st1" d="M130.2,719.4h9.1v1.6h-10.8v-10.4h10.4v1.6h-8.7L130.2,719.4L130.2,719.4z M130.6,713.5l1.1-1.2l2.6,2.3
			c0.7-0.8,1.3-1.5,1.9-2.4l1.4,1c-0.6,0.9-1.3,1.7-2.1,2.5l2.6,2.4l-1.4,1.2c-0.8-0.8-1.6-1.6-2.4-2.4c-0.9,0.9-1.8,1.7-2.8,2.4
			c-0.2-0.2-0.6-0.7-1.2-1.2c1-0.7,1.9-1.5,2.7-2.3C132.4,715,131.5,714.2,130.6,713.5z"/>
		<path class="st1" d="M140,712.9h4.6c0.1-0.8,0.1-1.8,0.1-3h1.8c0,1.2-0.1,2.1-0.1,3h4.8v1.6h-4.7c0.7,2.6,2.3,4.4,4.9,5.3
			c-0.6,0.6-1,1.2-1.3,1.6c-2.1-1-3.6-2.6-4.4-4.8c-0.6,2-2.1,3.7-4.5,4.9c-0.3-0.4-0.8-0.9-1.3-1.5c2.8-1.3,4.4-3.1,4.7-5.5H140
			L140,712.9L140,712.9z"/>
		<path class="st1" d="M158.9,709.9l-0.3,0.4c1,1.5,2.6,2.7,4.9,3.8c-0.4,0.5-0.8,1-1.1,1.4c-0.6-0.3-1.1-0.6-1.6-1v0.8h-6.3v-0.9
			c-0.5,0.3-1.1,0.7-1.6,1c-0.2-0.3-0.6-0.8-1.1-1.4c2.6-1.3,4.3-2.7,5.1-4.2L158.9,709.9L158.9,709.9z M152.3,716.3H163v1.5h-2.9
			c0.7,0.9,1.5,1.9,2.4,3l-1.4,0.9c-0.2-0.2-0.4-0.5-0.5-0.8c-1.5,0-3.3,0.2-5.6,0.3c-0.3,0-0.8,0.1-1.2,0.2l-0.7-1.4
			c0.7-0.5,1.4-1.2,2.1-2.2h-2.9L152.3,716.3L152.3,716.3z M157.6,711.6c-0.6,0.7-1.3,1.5-2.3,2.2h4.6
			C159,713.2,158.2,712.4,157.6,711.6z M158.7,718.4l1-0.6h-2.5c-0.4,0.5-0.9,1.1-1.6,1.8c0.9,0,2.2,0,3.8-0.1
			C159.2,719.1,158.9,718.7,158.7,718.4z"/>
		<path class="st1" d="M168,717.1h-3.5v-1.3h3.5V717.1z"/>
		<path class="st1" d="M169.2,719.2h4.4V710h1.9v3.2h4.3v1.7h-4.3v4.3h5.1v1.7h-11.3L169.2,719.2L169.2,719.2z"/>
		<path class="st1" d="M182,713.1c0.6,0.4,1.2,0.9,1.9,1.5l-1.1,1.3c-0.2-0.2-0.8-0.8-1.8-1.6L182,713.1z M182.4,716.6
			c0.5,0.2,1,0.4,1.5,0.5c-0.4,1.3-0.7,2.8-1.1,4.3c-0.5-0.2-1-0.3-1.6-0.5C181.7,719.7,182.1,718.2,182.4,716.6z M182.4,710
			c0.6,0.5,1.2,1,1.9,1.5l-1.1,1.2c-0.5-0.5-1.1-1.1-1.8-1.6L182.4,710z M183.7,715.7h1.1l0.2-1.9c-0.2,0.2-0.4,0.4-0.6,0.6
			c-0.3-0.4-0.6-0.8-1-1.2c1.1-1,1.8-2.1,2.4-3.2l1.6,0.2c-0.1,0.2-0.2,0.5-0.3,0.7h5.4v1.2h-6.1c-0.2,0.3-0.4,0.5-0.6,0.8h6.1
			l-0.1,2.8h0.9v1.2h-1l0,1.6h0.9v1.2h-0.9c0,0.6-0.1,1-0.4,1.2s-0.6,0.4-1,0.4s-1.3,0.1-2.5,0.1c-0.1-0.4-0.2-0.8-0.4-1.2
			c0.8,0,1.3,0,1.8,0c0.2,0,0.4,0,0.6-0.1s0.3-0.2,0.3-0.5h-5.7l0.3-2.8h-0.9L183.7,715.7L183.7,715.7z M187,717.6l0.7-0.7h-1.6
			l-0.1,1.6h2.2C187.8,718.2,187.4,717.9,187,717.6z M187,714.7l0.7-0.7h-1.3l-0.2,1.7h2L187,714.7z M189.4,717.8l-0.7,0.7h1.5
			l0-1.6H188C188.4,717.1,188.8,717.4,189.4,717.8z M189.4,714.9l-0.8,0.8h1.6l0-1.7h-2.1C188.4,714.3,188.8,714.6,189.4,714.9z"/>
	</g>
</g>
<g class="st0">
	<g>
		<path d="M59.6,754.8c0-0.5-0.2-0.9-0.5-1.2s-0.7-0.4-1.3-0.4c-0.4,0-0.8,0.1-1.1,0.3s-0.7,0.5-1.1,0.8v-1.1c0.3-0.3,0.6-0.5,1-0.7
			s0.8-0.2,1.3-0.2c0.8,0,1.5,0.2,2,0.7s0.8,1,0.8,1.8c0,0.7-0.2,1.2-0.5,1.7s-0.8,1-1.6,1.5c-0.8,0.5-1.3,0.9-1.5,1.1
			s-0.4,0.4-0.5,0.7s-0.2,0.5-0.2,0.8H61v1h-5.7v-0.5c0-0.5,0.1-1,0.2-1.3s0.4-0.7,0.7-1.1s0.8-0.8,1.5-1.2c0.7-0.5,1.2-0.9,1.5-1.3
			S59.6,755.3,59.6,754.8z"/>
		<path d="M62.1,757.2c0-1.6,0.3-2.8,0.8-3.6s1.3-1.2,2.3-1.2c1.9,0,2.9,1.5,2.9,4.7c0,1.5-0.3,2.7-0.8,3.5s-1.3,1.2-2.3,1.2
			c-0.9,0-1.6-0.4-2.1-1.2S62.1,758.6,62.1,757.2z M63.3,757.1c0,2.4,0.6,3.6,1.8,3.6c1.2,0,1.8-1.2,1.8-3.7c0-2.5-0.6-3.8-1.8-3.8
			C63.9,753.3,63.3,754.5,63.3,757.1z"/>
		<path d="M72,761.5v-7.8c-0.2,0.2-0.5,0.4-0.9,0.6s-0.8,0.4-1.2,0.5v-1.1c0.5-0.1,1-0.3,1.5-0.6s1-0.6,1.3-0.8h0.4v9.3L72,761.5
			L72,761.5z"/>
		<path d="M76.8,760.3c0.5,0.3,1,0.4,1.6,0.4c0.8,0,1.4-0.3,1.9-1s0.7-1.5,0.7-2.7l0,0l0,0c-0.4,0.8-1.1,1.1-2,1.1
			c-0.8,0-1.4-0.3-1.9-0.8s-0.8-1.2-0.8-2c0-0.9,0.3-1.6,0.8-2.2s1.3-0.9,2.1-0.9c0.9,0,1.6,0.3,2.1,1.1s0.8,1.7,0.8,3.1
			c0,1.7-0.3,3-1,3.9s-1.6,1.3-2.7,1.3c-0.6,0-1.2-0.1-1.6-0.3L76.8,760.3L76.8,760.3z M77.4,755.2c0,0.6,0.2,1.1,0.5,1.5
			s0.7,0.5,1.3,0.5c0.5,0,0.9-0.2,1.2-0.5s0.5-0.7,0.5-1.2c0-0.7-0.2-1.2-0.5-1.6s-0.8-0.6-1.3-0.6c-0.5,0-0.9,0.2-1.2,0.6
			S77.4,754.7,77.4,755.2z"/>
		<path d="M82.9,759.1h1.9v-3.3H89v-2.1h-3.4c-0.5,1-1.1,1.8-1.8,2.6c-0.2-0.2-0.4-0.4-0.7-0.7c1.1-1.2,1.9-2.7,2.5-4.2l1,0.3
			c-0.2,0.4-0.3,0.8-0.5,1.1H94v0.8h-4.1v2.1h3.9v0.8h-3.9v2.5h4.6v0.8h-4.6v3.2H89V760h-6L82.9,759.1L82.9,759.1z M85.8,759.1H89
			v-2.5h-3.2V759.1z"/>
		<path d="M95.8,760.3c0.5,0.3,1,0.4,1.6,0.4c0.8,0,1.4-0.3,1.9-1s0.7-1.5,0.7-2.7l0,0l0,0c-0.4,0.8-1.1,1.1-2,1.1
			c-0.8,0-1.4-0.3-1.9-0.8s-0.8-1.2-0.8-2c0-0.9,0.3-1.6,0.8-2.2s1.3-0.9,2.1-0.9c0.9,0,1.6,0.3,2.1,1.1s0.8,1.7,0.8,3.1
			c0,1.7-0.3,3-1,3.9s-1.6,1.3-2.7,1.3c-0.6,0-1.2-0.1-1.6-0.3L95.8,760.3L95.8,760.3z M96.5,755.2c0,0.6,0.2,1.1,0.5,1.5
			s0.7,0.5,1.3,0.5c0.5,0,0.9-0.2,1.2-0.5s0.5-0.7,0.5-1.2c0-0.7-0.2-1.2-0.5-1.6s-0.8-0.6-1.3-0.6c-0.5,0-0.9,0.2-1.2,0.6
			S96.5,754.7,96.5,755.2z"/>
		<path d="M104.8,759.1c-0.2,1.5-0.8,2.9-1.8,4.1c-0.2-0.2-0.5-0.5-0.8-0.7c0.8-0.8,1.3-1.8,1.5-2.9c0.2-0.8,0.3-2,0.3-3.5v-4h7.8
			v9.1c0,1.2-0.6,1.7-1.7,1.7c-0.5,0-1.1,0-1.8,0c0-0.3-0.1-0.6-0.2-1c0.7,0,1.3,0.1,1.7,0.1c0.6,0,0.9-0.3,0.9-0.9v-2L104.8,759.1
			L104.8,759.1z M104.9,758.3h6V756h-5.9C104.9,756.8,104.9,757.5,104.9,758.3z M104.9,752.9v2.2h5.9v-2.2H104.9z"/>
	</g>
</g>
<g>
	<g>
		<path class="st1" d="M63.7,781.9h-2l-3.8-5.9c-0.2-0.3-0.3-0.5-0.4-0.7h0c0,0.3,0,0.8,0,1.5v5.2h-1.8v-9.1h2.1l3.7,5.7
			c0.2,0.4,0.4,0.6,0.5,0.7h0c0-0.2-0.1-0.6-0.1-1.2v-5.2h1.8V781.9z"/>
		<path class="st1" d="M71.4,779.2h-4.3c0.1,1,0.7,1.5,1.8,1.5c0.7,0,1.3-0.2,1.9-0.5v1.4c-0.6,0.3-1.4,0.5-2.3,0.5
			c-1,0-1.8-0.3-2.4-0.9s-0.9-1.4-0.9-2.4s0.3-1.9,0.9-2.5s1.4-1,2.3-1c0.9,0,1.6,0.3,2.2,0.8s0.8,1.3,0.8,2.3L71.4,779.2
			L71.4,779.2z M69.6,778c0-1-0.4-1.5-1.2-1.5c-0.3,0-0.6,0.1-0.9,0.4s-0.4,0.6-0.5,1H69.6z"/>
		<path class="st1" d="M72.2,778.7c0-1.1,0.3-1.9,1-2.5s1.5-0.9,2.6-0.9c1,0,1.9,0.3,2.5,0.9s0.9,1.4,0.9,2.4c0,1.1-0.3,1.9-0.9,2.5
			s-1.5,0.9-2.6,0.9c-1.1,0-1.9-0.3-2.5-0.9S72.2,779.7,72.2,778.7z M74.1,778.7c0,1.3,0.5,1.9,1.6,1.9c1,0,1.5-0.7,1.5-2
			c0-1.3-0.5-1.9-1.5-1.9c-0.5,0-0.9,0.2-1.2,0.5S74.1,778,74.1,778.7z"/>
		<path class="st1" d="M80.6,779.9c0.6,0.5,1.3,0.7,2.1,0.7c0.5,0,0.9-0.1,1.2-0.3s0.4-0.5,0.4-1c0-0.4-0.2-0.8-0.5-1
			s-0.9-0.3-1.5-0.3h-0.8v-1.5h0.7c1.2,0,1.8-0.4,1.8-1.2c0-0.8-0.5-1.2-1.4-1.2c-0.6,0-1.2,0.2-1.8,0.6v-1.6
			c0.6-0.3,1.4-0.5,2.2-0.5c0.9,0,1.6,0.2,2.1,0.6s0.8,1,0.8,1.7c0,1.2-0.6,1.9-1.8,2.2v0c0.6,0.1,1.1,0.3,1.5,0.7s0.6,0.9,0.6,1.4
			c0,0.9-0.3,1.5-0.9,2s-1.5,0.7-2.5,0.7c-0.9,0-1.7-0.2-2.3-0.5C80.5,781.6,80.5,779.9,80.6,779.9z"/>
		<path class="st1" d="M93.6,778.7v3.2h-1.9v-9.1h3.1c2.3,0,3.4,1,3.4,2.9c0,0.9-0.3,1.7-1,2.2s-1.5,0.8-2.6,0.8L93.6,778.7
			L93.6,778.7z M93.6,774.3v2.9h0.8c1.1,0,1.7-0.5,1.7-1.5c0-1-0.6-1.5-1.7-1.5H93.6z"/>
		<path class="st1" d="M103.5,777.1c-0.2-0.1-0.5-0.2-0.8-0.2c-0.4,0-0.8,0.2-1,0.5s-0.4,0.8-0.4,1.3v3.1h-1.9v-6.5h1.9v1.2h0
			c0.3-0.9,0.9-1.3,1.7-1.3c0.2,0,0.4,0,0.5,0.1C103.5,775.4,103.5,777.1,103.5,777.1z"/>
		<path class="st1" d="M110.1,779.2h-4.3c0.1,1,0.7,1.5,1.8,1.5c0.7,0,1.3-0.2,1.9-0.5v1.4c-0.6,0.3-1.4,0.5-2.3,0.5
			c-1,0-1.8-0.3-2.4-0.9s-0.9-1.4-0.9-2.4s0.3-1.9,0.9-2.5s1.4-1,2.3-1c0.9,0,1.6,0.3,2.2,0.8s0.8,1.3,0.8,2.3L110.1,779.2
			L110.1,779.2z M108.4,778c0-1-0.4-1.5-1.2-1.5c-0.3,0-0.6,0.1-0.9,0.4s-0.4,0.6-0.5,1H108.4z"/>
		<path class="st1" d="M117.4,775.4l-2.4,6.5h-2.1l-2.3-6.5h2l1.2,4.1c0.1,0.5,0.2,0.8,0.2,1.1h0c0-0.3,0.1-0.7,0.2-1.1l1.2-4.1
			L117.4,775.4L117.4,775.4z"/>
		<path class="st1" d="M118.1,773.3c0-0.3,0.1-0.5,0.3-0.7s0.5-0.3,0.8-0.3c0.3,0,0.6,0.1,0.8,0.3s0.3,0.4,0.3,0.7
			c0,0.3-0.1,0.5-0.3,0.7s-0.5,0.3-0.8,0.3s-0.6-0.1-0.8-0.3S118.1,773.6,118.1,773.3z M118.3,781.9v-6.5h1.9v6.5H118.3z"/>
		<path class="st1" d="M127.6,779.2h-4.3c0.1,1,0.7,1.5,1.8,1.5c0.7,0,1.3-0.2,1.9-0.5v1.4c-0.6,0.3-1.4,0.5-2.3,0.5
			c-1,0-1.8-0.3-2.4-0.9s-0.9-1.4-0.9-2.4s0.3-1.9,0.9-2.5s1.4-1,2.3-1c0.9,0,1.6,0.3,2.2,0.8s0.8,1.3,0.8,2.3L127.6,779.2
			L127.6,779.2z M125.8,778c0-1-0.4-1.5-1.2-1.5c-0.3,0-0.6,0.1-0.9,0.4s-0.4,0.6-0.5,1H125.8z"/>
		<path class="st1" d="M138.1,775.4l-1.9,6.5h-2l-1-3.9c-0.1-0.3-0.1-0.5-0.1-0.8h0c0,0.3-0.1,0.6-0.1,0.8l-1.1,3.9h-2l-1.9-6.5h1.9
			l0.9,4.3c0,0.2,0.1,0.4,0.1,0.7h0c0-0.3,0.1-0.5,0.1-0.7l1.2-4.3h1.8l1,4.3c0,0.1,0.1,0.4,0.1,0.7h0.1c0-0.2,0-0.5,0.1-0.7
			l0.9-4.3H138.1z"/>
		<path class="st1" d="M143.3,772.6v9.3h-1.9v-7.1c-0.2,0.2-0.6,0.4-1,0.5s-0.8,0.3-1.1,0.3V774c1.1-0.3,2-0.8,2.8-1.4L143.3,772.6
			L143.3,772.6z"/>
		<path class="st1" d="M159.8,778c-0.6,1-1.4,2-2.3,2.7c0.9,0.4,2.1,0.7,3.6,0.9c-0.3,0.6-0.7,1.1-1,1.7c-1.6-0.4-2.9-0.9-4.1-1.6
			c-1.1,0.7-2.5,1.2-4.1,1.7c-0.3-0.5-0.6-1-0.9-1.5c1.3-0.4,2.5-0.8,3.5-1.3c-0.6-0.5-1.1-1.1-1.6-1.8c-0.9,1.5-1.9,2.7-3.1,3.7
			c-0.2-0.7-0.3-1.4-0.5-2c1.5-1.4,2.7-3.1,3.4-5h-2.9v-1.4c0.2-0.6,0.4-1.3,0.6-2l1.6,0.2c-0.1,0.5-0.3,1.1-0.5,1.8h1.7
			c0.2-0.7,0.4-1.4,0.5-2.3l1.7,0.1l-0.5,2.2h3.3c-0.4-0.4-0.9-0.9-1.4-1.3l1-1c0.7,0.5,1.3,1.1,1.8,1.5l-0.7,0.8h2v1.4h-6.5
			c-0.1,0.3-0.2,0.7-0.4,1.1h5.7L159.8,778L159.8,778z M155.9,779.9c0.8-0.6,1.4-1.2,1.9-1.8h-3.6
			C154.7,778.8,155.2,779.4,155.9,779.9z"/>
		<path class="st1" d="M168.5,783.5h-1.6v-5.4H165v4.5h-1.6v-3.8c-0.5,0.5-1,1-1.5,1.5c-0.2-0.7-0.4-1.2-0.5-1.6
			c1.3-1.2,2.3-2.4,3-3.7h-2.9v-1.6h3.6c0.2-0.5,0.4-1,0.5-1.4l1.6,0.2c-0.1,0.4-0.3,0.8-0.4,1.2h6v1.6h-6.7
			c-0.3,0.6-0.7,1.2-1.1,1.8h1.8v-1.5h1.6v1.5h3.5v3.8c0,0.5-0.1,0.9-0.3,1.2s-0.5,0.5-0.8,0.5s-0.9,0.1-1.6,0.1
			c-0.1-0.6-0.2-1.2-0.3-1.5c0.4,0,0.6,0,0.7,0c0.5,0,0.8-0.3,0.8-0.8v-1.9h-1.9L168.5,783.5L168.5,783.5z"/>
	</g>
</g>
<g class="st0">
	<g>
		<path d="M59.6,815.8c0-0.5-0.2-0.9-0.5-1.2s-0.7-0.4-1.3-0.4c-0.4,0-0.8,0.1-1.1,0.3s-0.7,0.5-1.1,0.8v-1.1c0.3-0.3,0.6-0.5,1-0.7
			s0.8-0.2,1.3-0.2c0.8,0,1.5,0.2,2,0.7s0.8,1,0.8,1.8c0,0.7-0.2,1.2-0.5,1.7s-0.8,1-1.6,1.5c-0.8,0.5-1.3,0.9-1.5,1.1
			s-0.4,0.4-0.5,0.7s-0.2,0.5-0.2,0.8H61v1h-5.7v-0.5c0-0.5,0.1-1,0.2-1.3s0.4-0.7,0.7-1.1s0.8-0.8,1.5-1.2c0.7-0.5,1.2-0.9,1.5-1.3
			S59.6,816.3,59.6,815.8z"/>
		<path d="M62.1,818.2c0-1.6,0.3-2.8,0.8-3.6s1.3-1.2,2.3-1.2c1.9,0,2.9,1.5,2.9,4.7c0,1.5-0.3,2.7-0.8,3.5s-1.3,1.2-2.3,1.2
			c-0.9,0-1.6-0.4-2.1-1.2S62.1,819.6,62.1,818.2z M63.3,818.1c0,2.4,0.6,3.6,1.8,3.6c1.2,0,1.8-1.2,1.8-3.7c0-2.5-0.6-3.8-1.8-3.8
			C63.9,814.3,63.3,815.5,63.3,818.1z"/>
		<path d="M72,822.5v-7.8c-0.2,0.2-0.5,0.4-0.9,0.6s-0.8,0.4-1.2,0.5v-1.1c0.5-0.1,1-0.3,1.5-0.6s1-0.6,1.3-0.8h0.4v9.3L72,822.5
			L72,822.5z"/>
		<path d="M76.8,821.3c0.5,0.3,1,0.4,1.6,0.4c0.8,0,1.4-0.3,1.9-1s0.7-1.5,0.7-2.7l0,0l0,0c-0.4,0.8-1.1,1.1-2,1.1
			c-0.8,0-1.4-0.3-1.9-0.8s-0.8-1.2-0.8-2c0-0.9,0.3-1.6,0.8-2.2s1.3-0.9,2.1-0.9c0.9,0,1.6,0.3,2.1,1.1s0.8,1.7,0.8,3.1
			c0,1.7-0.3,3-1,3.9s-1.6,1.3-2.7,1.3c-0.6,0-1.2-0.1-1.6-0.3L76.8,821.3L76.8,821.3z M77.4,816.2c0,0.6,0.2,1.1,0.5,1.5
			s0.7,0.5,1.3,0.5c0.5,0,0.9-0.2,1.2-0.5s0.5-0.7,0.5-1.2c0-0.7-0.2-1.2-0.5-1.6s-0.8-0.6-1.3-0.6c-0.5,0-0.9,0.2-1.2,0.6
			S77.4,815.7,77.4,816.2z"/>
		<path d="M82.9,820.1h1.9v-3.3H89v-2.1h-3.4c-0.5,1-1.1,1.8-1.8,2.6c-0.2-0.2-0.4-0.4-0.7-0.7c1.1-1.2,1.9-2.7,2.5-4.2l1,0.3
			c-0.2,0.4-0.3,0.8-0.5,1.1H94v0.8h-4.1v2.1h3.9v0.8h-3.9v2.5h4.6v0.8h-4.6v3.2H89V821h-6L82.9,820.1L82.9,820.1z M85.8,820.1H89
			v-2.5h-3.2V820.1z"/>
		<path d="M98.1,822.5v-7.8c-0.2,0.2-0.5,0.4-0.9,0.6s-0.8,0.4-1.2,0.5v-1.1c0.5-0.1,1-0.3,1.5-0.6s1-0.6,1.3-0.8h0.4v9.3
			L98.1,822.5L98.1,822.5z"/>
		<path d="M102.3,818.2c0-1.6,0.3-2.8,0.8-3.6s1.3-1.2,2.3-1.2c1.9,0,2.9,1.5,2.9,4.7c0,1.5-0.3,2.7-0.8,3.5s-1.3,1.2-2.3,1.2
			c-0.9,0-1.6-0.4-2.1-1.2S102.3,819.6,102.3,818.2z M103.5,818.1c0,2.4,0.6,3.6,1.8,3.6c1.2,0,1.8-1.2,1.8-3.7
			c0-2.5-0.6-3.8-1.8-3.8C104.1,814.3,103.5,815.5,103.5,818.1z"/>
		<path d="M111.8,820.1c-0.2,1.5-0.8,2.9-1.8,4.1c-0.2-0.2-0.5-0.5-0.8-0.7c0.8-0.8,1.3-1.8,1.5-2.9c0.2-0.8,0.3-2,0.3-3.5v-4h7.8
			v9.1c0,1.2-0.6,1.7-1.7,1.7c-0.5,0-1.1,0-1.8,0c0-0.3-0.1-0.6-0.2-1c0.7,0,1.3,0.1,1.7,0.1c0.6,0,0.9-0.3,0.9-0.9v-2L111.8,820.1
			L111.8,820.1z M111.9,819.3h6V817H112C112,817.8,112,818.5,111.9,819.3z M112,813.9v2.2h5.9v-2.2H112z"/>
	</g>
</g>
<g>
	<g>
		<path class="st1" d="M63.7,842.9h-2l-3.8-5.9c-0.2-0.3-0.3-0.5-0.4-0.7h0c0,0.3,0,0.8,0,1.5v5.2h-1.8v-9.1h2.1l3.7,5.7
			c0.2,0.4,0.4,0.6,0.5,0.7h0c0-0.2-0.1-0.6-0.1-1.2v-5.2h1.8V842.9z"/>
		<path class="st1" d="M71.4,840.2h-4.3c0.1,1,0.7,1.5,1.8,1.5c0.7,0,1.3-0.2,1.9-0.5v1.4c-0.6,0.3-1.4,0.5-2.3,0.5
			c-1,0-1.8-0.3-2.4-0.9s-0.9-1.4-0.9-2.4s0.3-1.9,0.9-2.5s1.4-1,2.3-1c0.9,0,1.6,0.3,2.2,0.8s0.8,1.3,0.8,2.3L71.4,840.2
			L71.4,840.2z M69.6,839c0-1-0.4-1.5-1.2-1.5c-0.3,0-0.6,0.1-0.9,0.4s-0.4,0.6-0.5,1H69.6z"/>
		<path class="st1" d="M72.2,839.7c0-1.1,0.3-1.9,1-2.5s1.5-0.9,2.6-0.9c1,0,1.9,0.3,2.5,0.9s0.9,1.4,0.9,2.4c0,1.1-0.3,1.9-0.9,2.5
			s-1.5,0.9-2.6,0.9c-1.1,0-1.9-0.3-2.5-0.9S72.2,840.7,72.2,839.7z M74.1,839.7c0,1.3,0.5,1.9,1.6,1.9c1,0,1.5-0.7,1.5-2
			c0-1.3-0.5-1.9-1.5-1.9c-0.5,0-0.9,0.2-1.2,0.5S74.1,839,74.1,839.7z"/>
		<path class="st1" d="M79.9,842.5h4.8v-2.2h-3.6v-1.5h3.6v-2.1h-4.2v-1.5h4.5c-0.3-0.5-0.6-1-0.9-1.5l1.6-0.7
			c0.3,0.5,0.7,1.1,1.1,1.7l-1.1,0.5h5v1.5h-4.2v2.1h3.7v1.5h-3.7v2.2h4.9v1.6H79.9V842.5z"/>
		<path class="st1" d="M95,835.3l1,2.1c0.3-0.7,0.6-1.4,0.9-2.2l0.8,0.4l0.6-0.3l0.9,2.1c0.3-0.7,0.6-1.4,0.8-2.2l1.3,0.5
			c-0.4,1.2-0.8,2.3-1.3,3.4l1.2,2.7l-1.3,0.7l-0.7-1.7c-0.4,0.8-0.8,1.5-1.2,2.2c-0.2-0.1-0.3-0.3-0.5-0.4l-0.6,0.3l-0.9-2.2
			c-0.4,0.8-0.9,1.6-1.4,2.4c-0.2-0.2-0.4-0.4-0.7-0.6v2h-1.6v-11H103v9c0,0.6-0.1,1.1-0.3,1.4s-0.6,0.5-1,0.6s-1.2,0.1-2.3,0.1
			c-0.1-0.6-0.2-1.2-0.4-1.6c0.6,0,1.1,0.1,1.7,0.1c0.5,0,0.8-0.2,0.8-0.7v-7.3h-7.5v1L95,835.3z M93.9,836.1v5.3
			c0.5-0.8,0.9-1.6,1.4-2.4C94.8,838,94.3,837,93.9,836.1z M97.7,837.1c-0.3,0.7-0.6,1.4-0.9,2l0.8,1.8c0.3-0.6,0.6-1.2,0.9-1.8
			L97.7,837.1z"/>
		<path class="st1" d="M104,842.2h4.3V833h1.9v3.2h4.3v1.7h-4.3v4.3h5.1v1.7H104L104,842.2L104,842.2z"/>
		<path class="st1" d="M116.1,843.9l-0.3-1.6c1.4-0.2,2.8-0.4,4.3-0.6c0,0.2,0,0.5,0,0.8c0.9-0.3,1.7-0.6,2.5-1
			c-0.2-0.5-0.3-1.2-0.4-2l-2,0.2l-0.2-1.4l2-0.2l-0.1-1.2l-1.5,0.2l-0.1-0.6c-0.8,1.3-1.5,2.4-2.1,3.2c0.7-0.1,1.3-0.2,1.8-0.3
			c0,0.3-0.1,0.8-0.1,1.5c-1.7,0.2-2.8,0.4-3.4,0.6L116,840c0.5-0.5,1-1.2,1.6-2c-0.4,0-0.9,0.1-1.5,0.1l-0.4-1.3
			c0.7-0.8,1.4-2.1,2.1-3.8l1.5,0.6c-0.7,1.2-1.3,2.2-1.8,3.1c0.3,0,0.6,0,1,0c0.2-0.4,0.4-0.8,0.7-1.2l1.1,0.5l0-0.4l1.6-0.2
			l-0.1-2.4h1.6c0,0.8,0,1.5,0.1,2.3l2-0.2c-0.5-0.3-1-0.7-1.6-1.1l0.8-1c0.6,0.3,1.3,0.7,1.9,1.1l-0.7,0.9l1.1-0.1l0.1,1.4
			l-3.6,0.4l0.1,1.2l3.6-0.4l0.2,1.4l-1.4,0.2l1,0.8c-0.8,0.8-1.6,1.5-2.4,2.2c0.3,0.5,0.6,0.8,0.9,0.8c0.1,0,0.3-0.1,0.3-0.3
			s0.2-0.7,0.4-1.5c0.5,0.3,1,0.5,1.4,0.7c-0.3,1.2-0.6,2-0.9,2.3s-0.6,0.5-1,0.5c-1,0-1.8-0.6-2.4-1.7c-0.9,0.5-1.9,0.9-3,1.2
			c-0.1-0.2-0.2-0.5-0.4-0.8C118.4,843.5,117.1,843.7,116.1,843.9z M125.8,839l-2.1,0.2c0.1,0.5,0.2,0.9,0.3,1.3
			C124.6,840.1,125.2,839.5,125.8,839z"/>
		<path class="st1" d="M128,842h11.3v1.7H128V842z M128.7,833.9h9.8v1.7h-9.8L128.7,833.9L128.7,833.9z M129.2,837.9h8.8v1.7h-8.8
			V837.9z"/>
		<path class="st1" d="M142.7,837.5h2.3v-0.8h-2v-1.1h2v-0.8h-2.7v3.9c0,2.6-0.4,4.5-1.4,5.9c-0.4-0.4-0.9-0.8-1.4-1.1
			c0.7-1.1,1.1-2.7,1.1-5v-5.1h10v8.6c0,0.8-0.1,1.3-0.4,1.7s-0.7,0.6-1.3,0.6s-1.2,0-1.9,0c-0.1-0.6-0.2-1.1-0.4-1.6
			c0.4,0,0.8,0,1.2,0c0.6,0,0.9-0.1,1-0.3s0.1-0.4,0.1-0.6v-7.2h-2.6v0.8h2v1.1h-2v0.8h2.3v1.2h-6.2L142.7,837.5L142.7,837.5z
			 M143.3,839.3h5v3.2h-3.5v0.6h-1.5V839.3z M146.8,841.4v-1h-2v1H146.8z"/>
		<path class="st1" d="M162.5,837.2v1.5h-3.3v1.8h4.1v1.5h-4.1v2.5h-1.7V842H152v-1.5h1.6v-2.9c-0.2,0.2-0.4,0.4-0.7,0.7
			c-0.3-0.5-0.6-1-1.1-1.5c1.2-1,2.1-2.3,2.7-3.9l1.8,0.3c-0.1,0.3-0.3,0.7-0.4,1h7v1.5h-3.8v1.5L162.5,837.2L162.5,837.2z
			 M154,837.2h3.5v-1.5h-2.3C154.8,836.2,154.4,836.7,154,837.2z M155.2,840.5h2.3v-1.8h-2.3V840.5z"/>
	</g>
</g>
<line class="st2" x1="18" y1="75" x2="18" y2="880"/>
<rect x="12" y="69" class="st3" width="12" height="12"/>
<rect x="12" y="131" class="st3" width="12" height="12"/>
<rect x="12" y="193" class="st3" width="12" height="12"/>
<rect x="12" y="255" class="st3" width="12" height="12"/>
<rect x="12" y="317" class="st3" width="12" height="12"/>
<rect x="12" y="379" class="st3" width="12" height="12"/>
<rect x="12" y="441" class="st3" width="12" height="12"/>
<rect x="12" y="503" class="st3" width="12" height="12"/>
<rect x="12" y="565" class="st3" width="12" height="12"/>
<rect x="12" y="627" class="st3" width="12" height="12"/>
<rect x="12" y="689" class="st3" width="12" height="12"/>
<rect x="12" y="751" class="st3" width="12" height="12"/>
<rect x="12" y="813" class="st3" width="12" height="12"/>
</svg>
