<svg id="Layer_1" data-name="Layer 1" xmlns="http://www.w3.org/2000/svg" viewBox="0 0 300 1827"><defs><style>.cls-1{opacity:0.18;}.cls-2{fill:#00e599;}.cls-3{fill:none;stroke:#00e599;stroke-miterlimit:10;stroke-width:2px;}.cls-4{opacity:0.38;}.cls-5{fill:#1b1b1b;}</style></defs><title>milestone-outline</title><g class="cls-1"><rect class="cls-2" x="18" y="184" width="20" height="20"/></g><line class="cls-3" x1="28" y1="84.1" x2="28" y2="1782"/><g class="cls-1"><rect class="cls-2" x="18" y="64.1" width="20" height="20"/></g><rect class="cls-2" x="23" y="69.1" width="10" height="10" transform="translate(102.1 46.1) rotate(90)"/><rect class="cls-2" x="23" y="189" width="10" height="10" transform="translate(222 166) rotate(90)"/><g class="cls-1"><rect class="cls-2" x="18" y="304" width="20" height="20"/></g><rect class="cls-2" x="23" y="309" width="10" height="10" transform="translate(342 286) rotate(90)"/><g class="cls-1"><rect class="cls-2" x="18" y="664" width="20" height="20"/></g><rect class="cls-2" x="23" y="669" width="10" height="10" transform="translate(702 646) rotate(90)"/><g class="cls-1"><rect class="cls-2" x="18" y="424" width="20" height="20"/></g><rect class="cls-2" x="23" y="429" width="10" height="10" transform="translate(462 406) rotate(90)"/><g class="cls-1"><rect class="cls-2" x="18" y="544" width="20" height="20"/></g><rect class="cls-2" x="23" y="549" width="10" height="10" transform="translate(582 526) rotate(90)"/><g class="cls-1"><rect class="cls-2" x="18" y="784" width="20" height="20"/></g><rect class="cls-2" x="23" y="789" width="10" height="10" transform="translate(822 766) rotate(90)"/><g class="cls-1"><rect class="cls-2" x="18" y="904" width="20" height="20"/></g><rect class="cls-2" x="23" y="909" width="10" height="10" transform="translate(942 886) rotate(90)"/><g class="cls-1"><rect class="cls-2" x="18" y="1024" width="20" height="20"/></g><rect class="cls-2" x="23" y="1029" width="10" height="10" transform="translate(1062 1006) rotate(90)"/><g class="cls-1"><rect class="cls-2" x="18" y="1144" width="20" height="20"/></g><rect class="cls-2" x="23" y="1149" width="10" height="10" transform="translate(1182 1126) rotate(90)"/><g class="cls-1"><rect class="cls-2" x="18" y="1264" width="20" height="20"/></g><rect class="cls-2" x="23" y="1269" width="10" height="10" transform="translate(1302 1246) rotate(90)"/><g class="cls-1"><rect class="cls-2" x="18" y="1384" width="20" height="20"/></g><rect class="cls-2" x="23" y="1389" width="10" height="10" transform="translate(1422 1366) rotate(90)"/><g class="cls-1"><rect class="cls-2" x="18" y="1504" width="20" height="20"/></g><g class="cls-1"><rect class="cls-2" x="18" y="1629" width="20" height="20"/></g><rect class="cls-2" x="23" y="1509" width="10" height="10" transform="translate(1542 1486) rotate(90)"/><rect class="cls-2" x="23" y="1634" width="10" height="10" transform="translate(1667 1611) rotate(90)"/><g class="cls-4"><path d="M73.6,65.7a1.7,1.7,0,0,0-.5-1.2,1.6,1.6,0,0,0-1.2-.4,2.7,2.7,0,0,0-1.2.3l-1.1.8V64.1a4.1,4.1,0,0,1,1.1-.7,2.5,2.5,0,0,1,1.3-.3,3.2,3.2,0,0,1,2,.7,2.1,2.1,0,0,1,.7,1.8,3.1,3.1,0,0,1-.4,1.7,7.8,7.8,0,0,1-1.6,1.5l-1.5,1.1-.6.7a1.9,1.9,0,0,0-.1.8H75v1H69.3v-.5a2.7,2.7,0,0,1,.2-1.3,3.4,3.4,0,0,1,.7-1.1l1.5-1.2A11.6,11.6,0,0,0,73.2,67,2.8,2.8,0,0,0,73.6,65.7Z"/><path d="M76.1,68a6.9,6.9,0,0,1,.8-3.6,2.8,2.8,0,0,1,2.3-1.3c2,0,2.9,1.6,2.9,4.7a5.9,5.9,0,0,1-.8,3.5A2.6,2.6,0,0,1,79,72.5a2.5,2.5,0,0,1-2.1-1.1A6.3,6.3,0,0,1,76.1,68Zm1.2,0q0,3.6,1.8,3.6c1.3,0,1.9-1.2,1.9-3.7s-.6-3.8-1.8-3.8S77.3,65.4,77.3,68Z"/><path d="M86,72.4V64.6l-.9.6-1.2.5V64.6l1.5-.7a4.9,4.9,0,0,0,1.3-.8h.4v9.3Z"/><path d="M95.1,63.3v6h1.4v.9H95.1v2.2H94V70.2H89.8v-.9l2.3-2.9a20.5,20.5,0,0,0,1.8-3.1Zm-4,6H94V65a23.9,23.9,0,0,1-1.3,2.1A23.9,23.9,0,0,1,91.1,69.3Z"/><path d="M96.9,70h1.9V66.6H103V64.5H99.5a17.8,17.8,0,0,1-1.7,2.7,2.7,2.7,0,0,0-.8-.7,10,10,0,0,0,2.5-4.2l1,.3-.5,1.1h8v.8h-4.1v2.1h3.9v.8h-3.9V70h4.7v.8h-4.7V74H103V70.8H96.9Zm2.9,0H103V67.4H99.8Z"/><path d="M114.7,64.5a2.8,2.8,0,0,0-1.5-.4,2.2,2.2,0,0,0-1.9,1,4.7,4.7,0,0,0-.7,2.8h0a2.1,2.1,0,0,1,2.1-1.2,2.5,2.5,0,0,1,1.9.7,3.5,3.5,0,0,1,.7,2.1,2.9,2.9,0,0,1-.9,2.2,2.8,2.8,0,0,1-2,.8,2.4,2.4,0,0,1-2.2-1.1,5.1,5.1,0,0,1-.8-3,6.1,6.1,0,0,1,1.1-3.8,2.9,2.9,0,0,1,2.7-1.5,3.3,3.3,0,0,1,1.5.3Zm-4,4.9a2.4,2.4,0,0,0,.4,1.5,1.6,1.6,0,0,0,1.3.7,1.4,1.4,0,0,0,1.2-.6,2,2,0,0,0,.5-1.4,3.3,3.3,0,0,0-.4-1.5,1.9,1.9,0,0,0-1.3-.5,1.8,1.8,0,0,0-1.3.6A1.6,1.6,0,0,0,110.7,69.4Z"/><path d="M118.8,70a8.4,8.4,0,0,1-1.8,4.1,2.7,2.7,0,0,0-.8-.7,5.7,5.7,0,0,0,1.5-3A15.2,15.2,0,0,0,118,67V62.9h7.8V72c0,1.2-.5,1.8-1.6,1.8h-1.8c-.1-.3-.1-.7-.2-1h1.7c.6,0,1-.3,1-.9V70Zm.1-.9h6V66.9H119C119,67.6,118.9,68.4,118.9,69.1Zm.1-5.3V66h5.9V63.8Z"/></g><path class="cls-5" d="M71.2,86l2.4.5c-.8,2.8-1.6,5.4-2.4,7.7l-2.3-.9A61.8,61.8,0,0,0,71.2,86Zm4.3-3.4H78V94.4a4.6,4.6,0,0,1-.5,2.3,2,2,0,0,1-1.2.8,21.8,21.8,0,0,1-3.5.2,9.2,9.2,0,0,0-.6-2.5h2.2c.8,0,1.1-.4,1.1-1.3Zm6.1,3.3c1,2.3,1.9,4.7,2.9,7.2l-2.5,1c-.9-2.7-1.7-5.2-2.6-7.4Z"/><path class="cls-5" d="M100.1,84.2a21.3,21.3,0,0,1-2.9,8.9,10,10,0,0,0,3.3,2.5l-1.2,2.3A12.1,12.1,0,0,1,95.8,95,15.7,15.7,0,0,1,92,98a9.3,9.3,0,0,1-.5-1h-.7a2.9,2.9,0,0,0-.2-.9l-5.4,1-.4-2,2.7-.4V92h-.7v.8H85.3V84.9h2.2V82.5h1.8v2.4h2.1V92H89.3v2.5h.9L89.9,93l1.4-.4c.2.6.4,1.5.7,2.6a12.1,12.1,0,0,0,2.4-2.1,24.8,24.8,0,0,1-2.7-8.7l2-.4a18.6,18.6,0,0,0,2.2,7A18,18,0,0,0,98,83.8Zm-13.3,6h.7V86.7h-.7Zm3.2,0V86.7h-.7v3.5Zm5.8-7.8c.5,1.2,1,2.4,1.4,3.6l-1.9.7a29,29,0,0,0-1.2-3.8Z"/><path class="cls-5" d="M101.2,96l-.4-2.3,1.6-.4V85.6H101V83.5h5v2.1h-1.5v7.2l1.6-.4c0,.7-.1,1.5-.1,2.3Zm8.9-6.7h2.1a10.6,10.6,0,0,1-.6,3.7c1.6,1,3.2,2,4.8,3.2l-1.3,1.7-4.3-3.2a9.2,9.2,0,0,1-4.6,3.3,11.3,11.3,0,0,0-1.1-2.2,6.7,6.7,0,0,0,4-2.2A7.4,7.4,0,0,0,110.1,89.3Zm-3.4-6.2h9.4V85H112l-.3,1.5h3.8v7.1h-2.1V88.4h-4.7v5.3h-2.2V86.5h2.9l.3-1.5h-3Z"/><path class="cls-5" d="M118.4,97.8V83.4h12.3V97.8h-2.2v-1h-7.9v1Zm10.1-12.3h-7.9v1.7h7.9Zm-7.9,5.4h7.9V89.2h-7.9Zm0,3.8h7.9V92.9h-7.9Z"/><path class="cls-5" d="M134.3,84h5.3c-.1-.4-.3-.8-.4-1.1l2.4-.5.6,1.6h5.1v5.6H136.4a13.9,13.9,0,0,1-2.1,8.1l-1.5-1.8a12.5,12.5,0,0,0,1.5-6.5Zm10.9,3.7V85.9h-8.8v1.8Zm-8.3,10.1V91.1h10.3v6.6h-2.1v-.8H139v.9Zm8.2-4.8H139v2h6.1Z"/><path class="cls-5" d="M154.8,90.3l1.6,3.9c.7-1.3,1.1-3.6,1.1-7.1h-1.6v-2h1.6V82.4h2.1v2.7h4.1l-.2,8.8a8.2,8.2,0,0,1-.2,2.2,1.2,1.2,0,0,1-.4.8,1.3,1.3,0,0,1-.9.5,12.1,12.1,0,0,1-2.8.2,15.5,15.5,0,0,0-.5-2.3h1.7a.8.8,0,0,0,.7-.2c.2-.1.2-.2.3-.5s0-1,.1-2.4,0-3,.1-5.1h-2.1c0,2.4-.1,4-.2,5a21.2,21.2,0,0,1-.9,3.1,9.5,9.5,0,0,1-1.7,2.7l-1.9-1.3a3.9,3.9,0,0,0,.8-1l-4.3.4-1.5.3-1-1.9c.6-.4,1.2-2.1,2-4.9h-1.9v-2h7.2v2h-3c-.5,1.5-1,3-1.6,4.4h2.6c-.4-1.1-.7-2-1.1-2.9Zm.7-4.7h-6v-2h6Z"/><g class="cls-4"><path d="M73.6,180.8a1.4,1.4,0,0,0-.5-1.1,1.6,1.6,0,0,0-1.2-.4l-1.2.2a4.4,4.4,0,0,0-1.1.9v-1.1a2.8,2.8,0,0,1,1.1-.8l1.3-.2a2.7,2.7,0,0,1,2,.7,2.1,2.1,0,0,1,.7,1.7,3.4,3.4,0,0,1-.4,1.8,7.8,7.8,0,0,1-1.6,1.5l-1.5,1.1-.6.6a2.2,2.2,0,0,0-.1.8H75v1H69.3v-.4a3.2,3.2,0,0,1,.2-1.4,3,3,0,0,1,.7-1,6.9,6.9,0,0,1,1.5-1.3,6.9,6.9,0,0,0,1.5-1.3A2.8,2.8,0,0,0,73.6,180.8Z"/><path d="M76.1,183.2a7.5,7.5,0,0,1,.8-3.7,2.7,2.7,0,0,1,2.3-1.2c2,0,2.9,1.5,2.9,4.6a6,6,0,0,1-.8,3.6,2.6,2.6,0,0,1-2.3,1.2,2.4,2.4,0,0,1-2.1-1.2A5.9,5.9,0,0,1,76.1,183.2Zm1.2-.1q0,3.6,1.8,3.6c1.3,0,1.9-1.2,1.9-3.6s-.6-3.8-1.8-3.8S77.3,180.5,77.3,183.1Z"/><path d="M86,187.5v-7.7l-.9.6-1.2.4v-1.1a4.7,4.7,0,0,0,1.5-.6,4.8,4.8,0,0,0,1.3-.9h.4v9.3Z"/><path d="M95.9,184.7a2.9,2.9,0,0,1-.9,2.2,3.6,3.6,0,0,1-2.4.8,3.4,3.4,0,0,1-1.9-.4v-1.2a3.3,3.3,0,0,0,1.9.6,2,2,0,0,0,1.5-.5,1.7,1.7,0,0,0,.6-1.4,1.5,1.5,0,0,0-.6-1.3,2.3,2.3,0,0,0-1.7-.5H90.8l.4-4.7h4.2v1.1H92.1V182h.8a3.1,3.1,0,0,1,2.2.7A2.5,2.5,0,0,1,95.9,184.7Z"/><path d="M96.9,185.1h1.9v-3.3H103v-2.1H99.5a23.3,23.3,0,0,1-1.7,2.6l-.8-.6a11.4,11.4,0,0,0,2.5-4.2l1,.2a11.7,11.7,0,0,1-.5,1.1h8v.9h-4.1v2.1h3.9v.8h-3.9v2.5h4.7v.9h-4.7v3.1H103V186H96.9Zm2.9,0H103v-2.5H99.8Z"/><path d="M114.7,179.6l-1.5-.3a2.2,2.2,0,0,0-1.9,1,4.7,4.7,0,0,0-.7,2.8h0a2.1,2.1,0,0,1,2.1-1.3,2.6,2.6,0,0,1,1.9.8,3.2,3.2,0,0,1,.7,2,2.8,2.8,0,0,1-.9,2.2,2.5,2.5,0,0,1-2,.9,2.7,2.7,0,0,1-2.2-1.1,5.2,5.2,0,0,1-.8-3.1,6.3,6.3,0,0,1,1.1-3.8,3.1,3.1,0,0,1,2.7-1.4,3.3,3.3,0,0,1,1.5.3Zm-4,5a2.4,2.4,0,0,0,.4,1.5,1.8,1.8,0,0,0,1.3.6,1.7,1.7,0,0,0,1.2-.5,2.4,2.4,0,0,0,.5-1.4,2.7,2.7,0,0,0-.4-1.5,1.9,1.9,0,0,0-1.3-.5,2.1,2.1,0,0,0-1.3.5A2,2,0,0,0,110.7,184.6Z"/><path d="M118.8,185.1a8,8,0,0,1-1.8,4.1l-.8-.7a5.4,5.4,0,0,0,1.5-2.9,16.2,16.2,0,0,0,.3-3.5v-4h7.8v9.1c0,1.1-.5,1.7-1.6,1.7h-1.8c-.1-.3-.1-.6-.2-1h1.7c.6,0,1-.3,1-.9v-2Zm.1-.8h6V182H119C119,182.8,118.9,183.5,118.9,184.3Zm.1-5.4v2.3h5.9v-2.3Z"/></g><path class="cls-5" d="M79.8,210.1a8.3,8.3,0,0,1-4.3,1,5.7,5.7,0,0,1-6.3-6.1,5.9,5.9,0,0,1,1.9-4.6,6.5,6.5,0,0,1,4.8-1.8,11.6,11.6,0,0,1,3.4.5v2.5a6.1,6.1,0,0,0-3.4-.8,3.6,3.6,0,0,0-2.9,1.1,4.4,4.4,0,0,0-1.1,3,4.5,4.5,0,0,0,1,3,3.6,3.6,0,0,0,2.7,1,3.5,3.5,0,0,0,1.6-.3v-2.5H74.8v-2h5Z"/><path class="cls-5" d="M81.7,199.5a1.4,1.4,0,0,1,.5-1,1.5,1.5,0,0,1,1-.3,2,2,0,0,1,1.1.3,1.8,1.8,0,0,1,.4,1,1.4,1.4,0,0,1-1.5,1.3,1.2,1.2,0,0,1-1-.4A1.2,1.2,0,0,1,81.7,199.5Zm.2,11.4v-8.6h2.5v8.6Z"/><path class="cls-5" d="M91.8,210.8a4,4,0,0,1-1.7.3c-1.9,0-2.8-1-2.8-2.9v-4.1H85.9v-1.8h1.4v-1.9l2.5-.8v2.7h2v1.8h-2v3.7c0,.9.4,1.4,1.1,1.4l.9-.3Z"/><path class="cls-5" d="M101.5,210.9H99V206c0-1.4-.5-2-1.5-2a1.7,1.7,0,0,0-1.2.5,2.4,2.4,0,0,0-.4,1.5v4.9H93.3V198.1h2.6v5.5h0a2.9,2.9,0,0,1,2.7-1.6c1.9,0,2.9,1.2,2.9,3.6Z"/><path class="cls-5" d="M111.7,210.9h-2.5v-1.3h0a3.1,3.1,0,0,1-2.7,1.5q-3,0-3-3.6v-5.2H106v4.9c0,1.3.6,2,1.6,2a1.4,1.4,0,0,0,1.2-.6,2,2,0,0,0,.4-1.4v-4.9h2.5Z"/><path class="cls-5" d="M116.5,209.9v1H114V198.1h2.5v5.5h.1a3.2,3.2,0,0,1,2.8-1.6,3.2,3.2,0,0,1,2.6,1.2,4.8,4.8,0,0,1,.9,3.1,5.4,5.4,0,0,1-1.1,3.5,3.3,3.3,0,0,1-2.8,1.3,2.6,2.6,0,0,1-2.4-1.2Zm0-2.7a2.4,2.4,0,0,0,.5,1.4,1.8,1.8,0,0,0,1.3.6,1.9,1.9,0,0,0,1.5-.8,3.7,3.7,0,0,0,.5-2,3,3,0,0,0-.5-1.8,1.6,1.6,0,0,0-1.3-.6,1.7,1.7,0,0,0-1.4.6,2.3,2.3,0,0,0-.6,1.6Z"/><path class="cls-5" d="M123.8,204.3h3.7v-3.8h-2.8v-2h13.9v2h-2.5v3.8h3.2v2.1h-3.2v6.4h-2.2v-6.4h-4.2a8.5,8.5,0,0,1-1.1,4.2,6.9,6.9,0,0,1-2.8,2.5l-1.9-1.6a8.8,8.8,0,0,0,2.4-1.9,5.5,5.5,0,0,0,1.1-3.2h-3.6Zm5.9,0h4.2v-3.8h-4.2Z"/><path class="cls-5" d="M141,201.7l2.5,2-1.4,1.7-2.4-2.2Zm.5,4.5a7.6,7.6,0,0,0,1.9.7l-1.4,5.9-2.1-.6A42.2,42.2,0,0,0,141.5,206.2Zm-.2-8.5,2.6,1.9-1.5,1.6-2.4-2.1Zm6.4,10.6,1.6.9-1.2,1.7h1c.5,0,.7-.2.7-.6v-2.5h-2.7v-6.6h1.7l.4-1.3h-3v4.7c0,3.9-.6,6.7-1.7,8.4a10.1,10.1,0,0,0-1.8-1.5q1.5-2.2,1.5-7.2v-6.2h11V200h-3.9l-.6,1.3h3.8v6.6h-2.7v3a2.9,2.9,0,0,1-.3,1.4,2.3,2.3,0,0,1-1.2.6h-2a16.8,16.8,0,0,0-.3-1.8,14.7,14.7,0,0,0-1,1.3l-1.5-1.2A16.9,16.9,0,0,0,147.7,208.3Zm4.8-5.4H149v1h3.5Zm0,3.4v-1H149v1Zm1,1.9c.6.9,1.3,1.8,1.9,2.9l-1.6,1a23.8,23.8,0,0,0-1.8-3Z"/><g class="cls-4"><path d="M73.6,299.8a1.4,1.4,0,0,0-.5-1.1,1.6,1.6,0,0,0-1.2-.4l-1.2.2a4.4,4.4,0,0,0-1.1.9v-1.1a2.8,2.8,0,0,1,1.1-.8l1.3-.2a2.7,2.7,0,0,1,2,.7,2.1,2.1,0,0,1,.7,1.7,3.4,3.4,0,0,1-.4,1.8,7.8,7.8,0,0,1-1.6,1.5l-1.5,1.1-.6.6a2.2,2.2,0,0,0-.1.8H75v1H69.3v-.4a3.2,3.2,0,0,1,.2-1.4,3,3,0,0,1,.7-1,6.9,6.9,0,0,1,1.5-1.3,6.9,6.9,0,0,0,1.5-1.3A2.8,2.8,0,0,0,73.6,299.8Z"/><path d="M76.1,302.2a7.5,7.5,0,0,1,.8-3.7,2.7,2.7,0,0,1,2.3-1.2c2,0,2.9,1.5,2.9,4.6a6,6,0,0,1-.8,3.6,2.6,2.6,0,0,1-2.3,1.2,2.4,2.4,0,0,1-2.1-1.2A5.9,5.9,0,0,1,76.1,302.2Zm1.2-.1q0,3.6,1.8,3.6c1.3,0,1.9-1.2,1.9-3.6s-.6-3.8-1.8-3.8S77.3,299.5,77.3,302.1Z"/><path d="M86,306.5v-7.7l-.9.6-1.2.4v-1.1a4.7,4.7,0,0,0,1.5-.6,4.8,4.8,0,0,0,1.3-.9h.4v9.3Z"/><path d="M95.9,303.7a2.9,2.9,0,0,1-.9,2.2,3.6,3.6,0,0,1-2.4.8,3.4,3.4,0,0,1-1.9-.4v-1.2a3.3,3.3,0,0,0,1.9.6,2,2,0,0,0,1.5-.5,1.7,1.7,0,0,0,.6-1.4,1.5,1.5,0,0,0-.6-1.3,2.3,2.3,0,0,0-1.7-.5H90.8l.4-4.7h4.2v1.1H92.1V301h.8a3.1,3.1,0,0,1,2.2.7A2.5,2.5,0,0,1,95.9,303.7Z"/><path d="M96.9,304.1h1.9v-3.3H103v-2.1H99.5a23.3,23.3,0,0,1-1.7,2.6l-.8-.6a11.4,11.4,0,0,0,2.5-4.2l1,.2a11.7,11.7,0,0,1-.5,1.1h8v.9h-4.1v2.1h3.9v.8h-3.9v2.5h4.7v.9h-4.7v3.1H103V305H96.9Zm2.9,0H103v-2.5H99.8Z"/><path d="M112.1,306.5v-7.7l-.9.6-1.2.4v-1.1l1.5-.6a4.8,4.8,0,0,0,1.3-.9h.4v9.3Z"/><path d="M116.3,302.2a7.5,7.5,0,0,1,.8-3.7,2.6,2.6,0,0,1,2.3-1.2c1.9,0,2.9,1.5,2.9,4.6a6.9,6.9,0,0,1-.8,3.6,2.7,2.7,0,0,1-2.3,1.2,2.4,2.4,0,0,1-2.1-1.2A5.2,5.2,0,0,1,116.3,302.2Zm1.2-.1q0,3.6,1.8,3.6t1.8-3.6c0-2.6-.6-3.8-1.8-3.8S117.5,299.5,117.5,302.1Z"/><path d="M125.8,304.1a8,8,0,0,1-1.8,4.1l-.8-.7a6.4,6.4,0,0,0,1.6-2.9,30.1,30.1,0,0,0,.2-3.5v-4h7.9v9.1a1.5,1.5,0,0,1-1.7,1.7h-1.8a4.4,4.4,0,0,0-.2-1h1.7c.7,0,1-.3,1-.9v-2Zm.1-.8h6V301H126A17.7,17.7,0,0,1,125.9,303.3Zm.1-5.4v2.3h5.9v-2.3Z"/></g><path class="cls-5" d="M70.1,320.8l2.4,2-1.4,1.7-2.3-2.2Zm.5,4.5a9.6,9.6,0,0,0,2,.7l-1.5,5.9-2-.6Q69.9,328.8,70.6,325.3Zm2.2,1.9v-8.5l-1.4,1.5-2.2-2.1,1.3-1.4,2.3,1.9v-1.2h6.1v9.7H77.2v-8H74.5v8.1Zm2.3-7.1h1.5v4.1a12.5,12.5,0,0,1-.6,4.2l1-.8,2.5,2.6-1.6,1.2c-.7-.9-1.3-1.8-2.1-2.7a10.3,10.3,0,0,1-2.5,3.3,14.7,14.7,0,0,0-1.3-1.7,7,7,0,0,0,2.5-2.7,10.1,10.1,0,0,0,.6-3.8Zm6.8-3.3h1.9v12.9a2.9,2.9,0,0,1-.4,1.4,1.8,1.8,0,0,1-.9.6H80.1a17.4,17.4,0,0,0-.5-2.2h1.6c.5,0,.7-.3.7-.9ZM79.6,318h1.6v10.4H79.6Z"/><path class="cls-5" d="M89.3,323.3h5.2v2H92.9v3.3l1.9-.3a15.7,15.7,0,0,0,0,2.2l-5.3.8-.3-1.3a12.2,12.2,0,0,0-2.3,1.9l-1.1-1.5a2.8,2.8,0,0,0,.4-1.3v-5.5H84.8v-2.1h3.4v6.6l1.5-1c0,.3.1.9.2,1.9h1v-3.6H89.3Zm-2.4-6.6c.7,1,1.4,1.9,2,2.9l-1.8,1.1c-.6-1-1.2-2-1.9-3Zm2.2,2.9h5.7v-3h2.1v3h1.5a12.5,12.5,0,0,0-1.5-1.9l1.3-1,1.8,2-1.2.9h1.4v2.1H96.9c.1,1.6.2,3,.3,4.1s.3,2,.4,2.6l.3,1c.1.1.1.2.2.2s.4-.9.5-2.5l1.8.7a10.3,10.3,0,0,1-.8,3.4,1.7,1.7,0,0,1-1.5.8,2.1,2.1,0,0,1-1.6-.6,6,6,0,0,1-1-2.7,52.9,52.9,0,0,1-.7-7H89.1Z"/><path class="cls-5" d="M105,319.7l1.4,2.9,1.2-2.9,1,.5.9-.4,1.2,2.7,1.2-2.9,1.6.7a47,47,0,0,1-1.7,4.5l1.6,3.7-1.7.9-1-2.3-1.6,2.9a1.8,1.8,0,0,0-.7-.5l-.8.4-1.2-2.9a33.7,33.7,0,0,1-1.9,3.2,7.6,7.6,0,0,0-.9-.9v2.6h-2.1V317.2h14.2v12a3.6,3.6,0,0,1-.5,1.9,1.6,1.6,0,0,1-1.3.7h-3.1a14.2,14.2,0,0,0-.5-2.2l2.3.2a.9.9,0,0,0,1-1v-9.7h-10v1.3Zm-1.4,1.1V328l1.8-3.3Zm5,1.4a20.3,20.3,0,0,1-1.1,2.6l1.1,2.4,1.2-2.4Z"/><path class="cls-5" d="M117,329h5.8V316.7h2.6V321h5.7v2.3h-5.7V329h6.8v2.2H117Z"/><path class="cls-5" d="M133.1,331.2l-.4-2.2,5.8-.8v1.1a25.2,25.2,0,0,0,3.3-1.4c-.2-.8-.4-1.6-.6-2.7l-2.6.4-.3-1.9,2.7-.4v-1.5l-2,.2v-.8c-1,1.7-2,3.1-2.8,4.2l2.3-.3c0,.4-.1,1.1-.1,1.9a35.8,35.8,0,0,0-4.5.8l-.6-1.8a17.8,17.8,0,0,0,2.2-2.7l-2,.2-.6-1.8a26.9,26.9,0,0,0,2.9-5.1l1.9.8-2.4,4.1h1.3l.9-1.6,1.4.7v-.5l2.1-.2v-3.3h2.1c0,1.1.1,2.1.1,3.1l2.7-.3-2.1-1.5,1-1.3,2.5,1.5-1,1.3,1.5-.2.2,1.9-4.7.5v1.5l4.9-.6.2,1.9-1.9.2,1.4,1.1a18.1,18.1,0,0,1-3.3,2.9c.4.7.8,1,1.2,1s.3-.1.4-.3a6.8,6.8,0,0,0,.5-2l1.9.9a8.9,8.9,0,0,1-1.2,3.1,1.7,1.7,0,0,1-1.4.7,3.8,3.8,0,0,1-3.2-2.2,27.8,27.8,0,0,1-4,1.6l-.5-1.1Zm13-6.5-2.7.3.3,1.7A15.9,15.9,0,0,0,146.1,324.7Z"/><g class="cls-4"><path d="M73.6,418.8a1.4,1.4,0,0,0-.5-1.1,1.6,1.6,0,0,0-1.2-.4l-1.2.2a4.4,4.4,0,0,0-1.1.9v-1.1a2.8,2.8,0,0,1,1.1-.8l1.3-.2a2.7,2.7,0,0,1,2,.7,2.1,2.1,0,0,1,.7,1.7,3.4,3.4,0,0,1-.4,1.8,7.8,7.8,0,0,1-1.6,1.5l-1.5,1.1-.6.6a2.2,2.2,0,0,0-.1.8H75v1H69.3v-.4a3.2,3.2,0,0,1,.2-1.4,3,3,0,0,1,.7-1,6.9,6.9,0,0,1,1.5-1.3,6.9,6.9,0,0,0,1.5-1.3A2.8,2.8,0,0,0,73.6,418.8Z"/><path d="M76.1,421.2a7.5,7.5,0,0,1,.8-3.7,2.7,2.7,0,0,1,2.3-1.2c2,0,2.9,1.5,2.9,4.6a6,6,0,0,1-.8,3.6,2.6,2.6,0,0,1-2.3,1.2,2.4,2.4,0,0,1-2.1-1.2A5.9,5.9,0,0,1,76.1,421.2Zm1.2-.1q0,3.6,1.8,3.6c1.3,0,1.9-1.2,1.9-3.6s-.6-3.8-1.8-3.8S77.3,418.5,77.3,421.1Z"/><path d="M86,425.5v-7.7l-.9.6-1.2.4v-1.1a4.7,4.7,0,0,0,1.5-.6,4.8,4.8,0,0,0,1.3-.9h.4v9.3Z"/><path d="M95.7,417.6a4,4,0,0,0-1.5-.3,2.2,2.2,0,0,0-1.9,1,4.7,4.7,0,0,0-.7,2.8h0a2,2,0,0,1,2-1.3,2.4,2.4,0,0,1,1.9.8,3.3,3.3,0,0,1-.1,4.2,2.6,2.6,0,0,1-2.1.9,2.5,2.5,0,0,1-2.1-1.1,4.6,4.6,0,0,1-.8-3.1,6.3,6.3,0,0,1,1-3.8,3.3,3.3,0,0,1,2.7-1.4,3.5,3.5,0,0,1,1.6.3Zm-4.1,5a2.5,2.5,0,0,0,.5,1.5,1.5,1.5,0,0,0,1.3.6,1.7,1.7,0,0,0,1.2-.5,2.4,2.4,0,0,0,.5-1.4,2.1,2.1,0,0,0-.5-1.5,1.7,1.7,0,0,0-1.2-.5,1.7,1.7,0,0,0-1.3.5A2.1,2.1,0,0,0,91.6,422.6Z"/><path d="M96.9,423.1h1.9v-3.3H103v-2.1H99.5a23.3,23.3,0,0,1-1.7,2.6l-.8-.6a11.4,11.4,0,0,0,2.5-4.2l1,.2a11.7,11.7,0,0,1-.5,1.1h8v.9h-4.1v2.1h3.9v.8h-3.9v2.5h4.7v.9h-4.7v3.1H103V424H96.9Zm2.9,0H103v-2.5H99.8Z"/><path d="M112.1,425.5v-7.7l-.9.6-1.2.4v-1.1l1.5-.6a4.8,4.8,0,0,0,1.3-.9h.4v9.3Z"/><path d="M116.3,421.2a7.5,7.5,0,0,1,.8-3.7,2.6,2.6,0,0,1,2.3-1.2c1.9,0,2.9,1.5,2.9,4.6a6.9,6.9,0,0,1-.8,3.6,2.7,2.7,0,0,1-2.3,1.2,2.4,2.4,0,0,1-2.1-1.2A5.2,5.2,0,0,1,116.3,421.2Zm1.2-.1q0,3.6,1.8,3.6t1.8-3.6c0-2.6-.6-3.8-1.8-3.8S117.5,418.5,117.5,421.1Z"/><path d="M125.8,423.1a8,8,0,0,1-1.8,4.1l-.8-.7a6.4,6.4,0,0,0,1.6-2.9,30.1,30.1,0,0,0,.2-3.5v-4h7.9v9.1a1.5,1.5,0,0,1-1.7,1.7h-1.8a4.4,4.4,0,0,0-.2-1h1.7c.7,0,1-.3,1-.9v-2Zm.1-.8h6V420H126A17.7,17.7,0,0,1,125.9,422.3Zm.1-5.4v2.3h5.9v-2.3Z"/></g><path class="cls-5" d="M68.9,448.3h6.5v-2.9H70.6v-2.1h4.8v-2.8H69.8v-2.1h6.1l-1.2-2,2.1-1a17.6,17.6,0,0,1,1.4,2.3l-1.5.7h6.7v2.1H77.8v2.8h4.9v2.1H77.8v2.9h6.4v2.1H68.9Z"/><path class="cls-5" d="M89,438.7l1.4,2.9,1.2-2.9,1,.5.9-.4,1.2,2.7,1.2-2.9,1.6.7a47,47,0,0,1-1.7,4.5l1.6,3.7-1.7.9-1-2.3L93.1,449a1.8,1.8,0,0,0-.7-.5l-.8.4L90.4,446a33.7,33.7,0,0,1-1.9,3.2,7.6,7.6,0,0,0-.9-.9v2.6H85.5V436.2H99.7v12a3.6,3.6,0,0,1-.5,1.9,1.6,1.6,0,0,1-1.3.7H94.8a14.2,14.2,0,0,0-.5-2.2l2.3.2a.9.9,0,0,0,1-1v-9.7h-10v1.3Zm-1.4,1.1V447l1.8-3.3Zm5,1.4a20.3,20.3,0,0,1-1.1,2.6l1.1,2.4,1.2-2.4Z"/><path class="cls-5" d="M101,448h5.8V435.7h2.6V440h5.7v2.3h-5.7V448h6.8v2.2H101Z"/><path class="cls-5" d="M117.1,450.2l-.4-2.2,5.8-.8v1.1a25.2,25.2,0,0,0,3.3-1.4c-.2-.8-.4-1.6-.6-2.7l-2.6.4-.3-1.9,2.7-.4v-1.5l-2,.2v-.8c-1,1.7-2,3.1-2.8,4.2l2.3-.3c0,.4-.1,1.1-.1,1.9a35.8,35.8,0,0,0-4.5.8l-.6-1.8a17.8,17.8,0,0,0,2.2-2.7l-2,.2-.6-1.8a26.9,26.9,0,0,0,2.9-5.1l1.9.8-2.4,4.1h1.3l.9-1.6,1.4.7v-.5l2.1-.2v-3.3h2.1c0,1.1.1,2.1.1,3.1l2.7-.3-2.1-1.5,1-1.3,2.5,1.5-1,1.3,1.5-.2.2,1.9-4.7.5v1.5l4.9-.6.2,1.9-1.9.2,1.4,1.1a18.1,18.1,0,0,1-3.3,2.9c.4.7.8,1,1.2,1s.3-.1.4-.3a6.8,6.8,0,0,0,.5-2l1.9.9a8.9,8.9,0,0,1-1.2,3.1,1.7,1.7,0,0,1-1.4.7,3.8,3.8,0,0,1-3.2-2.2,27.8,27.8,0,0,1-4,1.6l-.5-1.1Zm13-6.5-2.7.3.3,1.7A15.9,15.9,0,0,0,130.1,443.7Z"/><g class="cls-4"><path d="M73.6,540.8a1.4,1.4,0,0,0-.5-1.1,1.6,1.6,0,0,0-1.2-.4l-1.2.2a4.4,4.4,0,0,0-1.1.9v-1.1a2.8,2.8,0,0,1,1.1-.8l1.3-.2a2.7,2.7,0,0,1,2,.7,2.1,2.1,0,0,1,.7,1.7,3.4,3.4,0,0,1-.4,1.8,7.8,7.8,0,0,1-1.6,1.5l-1.5,1.1a1.3,1.3,0,0,0-.6.7,1.5,1.5,0,0,0-.1.7H75v1H69.3v-.4a3.2,3.2,0,0,1,.2-1.4,3,3,0,0,1,.7-1,6.9,6.9,0,0,1,1.5-1.3,6.9,6.9,0,0,0,1.5-1.3A2.8,2.8,0,0,0,73.6,540.8Z"/><path d="M76.1,543.2a7.5,7.5,0,0,1,.8-3.7,2.7,2.7,0,0,1,2.3-1.2c2,0,2.9,1.5,2.9,4.6a6,6,0,0,1-.8,3.6,2.6,2.6,0,0,1-2.3,1.2,2.4,2.4,0,0,1-2.1-1.2A5.9,5.9,0,0,1,76.1,543.2Zm1.2-.1q0,3.6,1.8,3.6c1.3,0,1.9-1.2,1.9-3.6s-.6-3.8-1.8-3.8S77.3,540.5,77.3,543.1Z"/><path d="M86,547.5v-7.7l-.9.6-1.2.4v-1.1a4.7,4.7,0,0,0,1.5-.6,4.8,4.8,0,0,0,1.3-.9h.4v9.3Z"/><path d="M96.1,539.2a31.5,31.5,0,0,0-2.2,4.6,16.6,16.6,0,0,0-1.1,3.7H91.7a11.6,11.6,0,0,1,1-3.6,24.9,24.9,0,0,1,2.1-4.4H90.3v-1.1h5.8Z"/><path d="M96.9,545.1h1.9v-3.3H103v-2.1H99.5a23.3,23.3,0,0,1-1.7,2.6l-.8-.6a11.4,11.4,0,0,0,2.5-4.2l1,.2a11.7,11.7,0,0,1-.5,1.1h8v.9h-4.1v2.1h3.9v.8h-3.9v2.5h4.7v.9h-4.7v3.1H103V546H96.9Zm2.9,0H103v-2.5H99.8Z"/><path d="M114.7,539.6a4,4,0,0,0-1.5-.3,2.2,2.2,0,0,0-1.9,1,4.7,4.7,0,0,0-.7,2.8h0a2.1,2.1,0,0,1,2.1-1.3,2.6,2.6,0,0,1,1.9.8,3.2,3.2,0,0,1,.7,2,2.8,2.8,0,0,1-.9,2.2,2.5,2.5,0,0,1-2,.9,2.7,2.7,0,0,1-2.2-1.1,5.2,5.2,0,0,1-.8-3.1,6.3,6.3,0,0,1,1.1-3.8,3.1,3.1,0,0,1,2.7-1.4,3.3,3.3,0,0,1,1.5.3Zm-4,5a2.4,2.4,0,0,0,.4,1.5,1.8,1.8,0,0,0,1.3.6,1.7,1.7,0,0,0,1.2-.5,2.4,2.4,0,0,0,.5-1.4,2.7,2.7,0,0,0-.4-1.5,1.9,1.9,0,0,0-1.3-.5,2.1,2.1,0,0,0-1.3.5A2,2,0,0,0,110.7,544.6Z"/><path d="M118.8,545.1a8,8,0,0,1-1.8,4.1l-.8-.7a5.4,5.4,0,0,0,1.5-2.9,16.2,16.2,0,0,0,.3-3.5v-4h7.8v9.1c0,1.1-.5,1.7-1.6,1.7h-1.8c-.1-.3-.1-.6-.2-1h1.7c.6,0,1-.3,1-.9v-2Zm.1-.8h6V542H119C119,542.8,118.9,543.5,118.9,544.3Zm.1-5.4v2.3h5.9v-2.3Z"/></g><path class="cls-5" d="M71.2,561.1l2.4.6c-.8,2.8-1.6,5.3-2.4,7.6l-2.3-.8A63.4,63.4,0,0,0,71.2,561.1Zm4.3-3.4H78v11.8a4.4,4.4,0,0,1-.5,2.3,1.8,1.8,0,0,1-1.2.9H72.8a10.2,10.2,0,0,0-.6-2.5l2.2.2c.8,0,1.1-.5,1.1-1.3Zm6.1,3.4c1,2.3,1.9,4.7,2.9,7.2l-2.5.9c-.9-2.7-1.7-5.1-2.6-7.4Z"/><path class="cls-5" d="M100.1,559.3a20.3,20.3,0,0,1-2.9,8.9,10.3,10.3,0,0,0,3.3,2.6L99.3,573a11.7,11.7,0,0,1-3.5-2.8,15.7,15.7,0,0,1-3.8,3,5.4,5.4,0,0,1-.5-1.1l-.7.2a3.6,3.6,0,0,0-.2-1l-5.4,1.1-.4-2.1,2.7-.4v-2.8h-.7v.8H85.3v-7.8h2.2v-2.4h1.8v2.4h2.1v7H89.3v2.6l.9-.2-.3-1.3,1.4-.4c.2.6.4,1.4.7,2.6a10,10,0,0,0,2.4-2.2,23.5,23.5,0,0,1-2.7-8.7l2-.3a19.2,19.2,0,0,0,2.2,7A19,19,0,0,0,98,559Zm-13.3,6.1h.7v-3.6h-.7Zm3.2,0v-3.6h-.7v3.6Zm5.8-7.9c.5,1.3,1,2.5,1.4,3.7l-1.9.6a27,27,0,0,0-1.2-3.7Z"/><path class="cls-5" d="M105.9,572h-2.2v.7h-2.2v-7.3H108v7.3h-2.1ZM103,558.2h11.2v6H103Zm.7,11.9h2.2v-2.8h-2.2Zm8.2-9.9h-6.6v2h6.6Zm-.6,11.8v.7h-2.1v-7.3h6.5v7.3h-2.2V572Zm2.2-1.9v-2.8h-2.2v2.8Z"/><path class="cls-5" d="M120.5,557.7h1.8v4.7h.6v1.8h-3.4v1.6h2.8v7.1h-1.8v-5.4h-1.1a16,16,0,0,1-1,5.6l-1.6-1.3a16.8,16.8,0,0,0,.9-6.3v-7.4h1.8v4.3h1Zm7.2,9h2v1.6h2.6v1.8h-2.6v2.8h-2v-2.8h-5.1v-1.8h2l-1-.9a7.4,7.4,0,0,0,1.7-1.2h-2v-7.3h2.1l.3-1.4,2.3.2a5.6,5.6,0,0,1-.4,1.2h4.2v7.3h-4.3a6,6,0,0,1-1.8,2.1h2Zm-2.5-4.9h1.4v-1.3h-1.4Zm1.4,1.4h-1.4v1.3h1.1A2.8,2.8,0,0,0,126.6,563.2Zm3.3,1.3v-1.3h-1.6a5.3,5.3,0,0,1-.1,1.3Zm0-4h-1.5v1.3h1.5Z"/><path class="cls-5" d="M132.8,571.1h6.7v-.8h-5.6V569h5.6v-.8h-5.1v-5.5h5.1v-.8h-6.6v-1.4h6.6v-.7h-5.3a4,4,0,0,0-.3-1.5c4.5,0,8.8-.1,13-.3l.3,1.5h-5.6v.8h6.8v1.4h-6.8v.8h5.2v5.5h-5.2v.8h5.8v1.3h-5.8v.8h6.8v1.4H132.8Zm3.6-6.2h3.1V564h-3.1Zm0,2h3.1V566h-3.1Zm8.4-2.9h-3.2v.9h3.2Zm0,2.9V566h-3.2v.9Z"/><path class="cls-5" d="M154.7,557.5l1.8.9-.9,1.1H157v1.6h-2.9v2.6h.9v-2h1.7v3.6h-2.8a4.4,4.4,0,0,1-1.8,2.6h3.4V567h1.7l-1.1-.8a4.6,4.6,0,0,0,1.3-3.7v-4.1h6.2v6.9c0,1.2-.5,1.9-1.5,1.9h-2l-.5-1.7h1.5a.6.6,0,0,0,.7-.7v-.4h-2.7a5.2,5.2,0,0,1-1.3,2.9h-.1v.5h5.4v1.7h-5.4v1.3h6.6v1.7H148.8v-1.7h6.7v-1.3H150v-1.7h1.8l-1.4-1.2a3.4,3.4,0,0,0,1.5-1.4h-2.3v-3.6h1.7v2h.9a11.7,11.7,0,0,0,.1-2.6h-3.2v-1.6h1.6l-.8-1.1,1.5-.9,1.3,1.7-.6.3h1.4Zm4.6,4.7v1h2.5v-1Zm2.5-2.4h-2.5v1h2.5Z"/><path class="cls-5" d="M172.6,572.8a17.3,17.3,0,0,0-.5-2.4l3,.2a2.9,2.9,0,0,0,1.2-.2,1.2,1.2,0,0,0,.5-.5,13.7,13.7,0,0,0,.2-2.1c.1-1.2.2-2.7.3-4.7h-4.5a21.6,21.6,0,0,1-.5,2.7l1.4-1.4,2.6,2.4-1.6,1.6a29.1,29.1,0,0,0-2.5-2.5,12.6,12.6,0,0,1-5.5,7.2l-1.9-1.7a10.9,10.9,0,0,0,5.7-8.3h-5.3v-2H168l-1.9-2.2,1.5-1.3,2.2,2.1-1.4,1.4h2.2l.2-3.5h2.4l-.2,3.5h6.6l-.4,6a29.2,29.2,0,0,1-.3,3.6,2.1,2.1,0,0,1-.5,1.1l-1,.7a6,6,0,0,1-2.3.3Z"/><path class="cls-5" d="M192.7,570.9h-2.6l-5.1-7.8a6.4,6.4,0,0,1-.6-1h0v8.8H182V558.8h2.8l4.9,7.6c.4.5.6.8.6,1h.1a7.2,7.2,0,0,1-.1-1.7v-6.9h2.4Z"/><path class="cls-5" d="M202.7,570.9h-7.2V558.8h6.9v2.1h-4.3v2.9h4v2.1h-4v2.9h4.6Z"/><path class="cls-5" d="M203.9,565a6.5,6.5,0,0,1,1.7-4.6,6.2,6.2,0,0,1,8.6-.1,6.6,6.6,0,0,1,1.5,4.5,6.2,6.2,0,0,1-1.6,4.5,5.5,5.5,0,0,1-4.3,1.8,5.6,5.6,0,0,1-4.2-1.7A6,6,0,0,1,203.9,565Zm2.7-.1a4.8,4.8,0,0,0,.9,2.9,2.8,2.8,0,0,0,2.3,1.1,3,3,0,0,0,2.4-1.1,4.3,4.3,0,0,0,.8-2.9,4.6,4.6,0,0,0-.8-3,2.7,2.7,0,0,0-2.3-1.1,3,3,0,0,0-2.4,1.1A4.9,4.9,0,0,0,206.6,564.9Z"/><g class="cls-4"><path d="M73.6,660.8a1.4,1.4,0,0,0-.5-1.1,1.6,1.6,0,0,0-1.2-.4l-1.2.2a4.4,4.4,0,0,0-1.1.9v-1.1a2.8,2.8,0,0,1,1.1-.8l1.3-.2a2.7,2.7,0,0,1,2,.7,2.1,2.1,0,0,1,.7,1.7,3.4,3.4,0,0,1-.4,1.8,7.8,7.8,0,0,1-1.6,1.5l-1.5,1.1a1.3,1.3,0,0,0-.6.7,1.5,1.5,0,0,0-.1.7H75v1H69.3v-.4a3.2,3.2,0,0,1,.2-1.4,3,3,0,0,1,.7-1,6.9,6.9,0,0,1,1.5-1.3,6.9,6.9,0,0,0,1.5-1.3A2.8,2.8,0,0,0,73.6,660.8Z"/><path d="M76.1,663.2a7.5,7.5,0,0,1,.8-3.7,2.7,2.7,0,0,1,2.3-1.2c2,0,2.9,1.5,2.9,4.6a6,6,0,0,1-.8,3.6,2.6,2.6,0,0,1-2.3,1.2,2.4,2.4,0,0,1-2.1-1.2A5.9,5.9,0,0,1,76.1,663.2Zm1.2-.1q0,3.6,1.8,3.6c1.3,0,1.9-1.2,1.9-3.6s-.6-3.8-1.8-3.8S77.3,660.5,77.3,663.1Z"/><path d="M86,667.5v-7.7l-.9.6-1.2.4v-1.1a4.7,4.7,0,0,0,1.5-.6,4.8,4.8,0,0,0,1.3-.9h.4v9.3Z"/><path d="M96.1,659.2a31.5,31.5,0,0,0-2.2,4.6,16.6,16.6,0,0,0-1.1,3.7H91.7a11.6,11.6,0,0,1,1-3.6,24.9,24.9,0,0,1,2.1-4.4H90.3v-1.1h5.8Z"/><path d="M96.9,665.1h1.9v-3.3H103v-2.1H99.5a23.3,23.3,0,0,1-1.7,2.6l-.8-.6a11.4,11.4,0,0,0,2.5-4.2l1,.2a11.7,11.7,0,0,1-.5,1.1h8v.9h-4.1v2.1h3.9v.8h-3.9v2.5h4.7v.9h-4.7v3.1H103V666H96.9Zm2.9,0H103v-2.5H99.8Z"/><path d="M112.1,667.5v-7.7l-.9.6-1.2.4v-1.1l1.5-.6a4.8,4.8,0,0,0,1.3-.9h.4v9.3Z"/><path d="M116.3,663.2a7.5,7.5,0,0,1,.8-3.7,2.6,2.6,0,0,1,2.3-1.2c1.9,0,2.9,1.5,2.9,4.6a6.9,6.9,0,0,1-.8,3.6,2.7,2.7,0,0,1-2.3,1.2,2.4,2.4,0,0,1-2.1-1.2A5.2,5.2,0,0,1,116.3,663.2Zm1.2-.1q0,3.6,1.8,3.6t1.8-3.6c0-2.6-.6-3.8-1.8-3.8S117.5,660.5,117.5,663.1Z"/><path d="M125.8,665.1a8,8,0,0,1-1.8,4.1l-.8-.7a6.4,6.4,0,0,0,1.6-2.9,30.1,30.1,0,0,0,.2-3.5v-4h7.9v9.1a1.5,1.5,0,0,1-1.7,1.7h-1.8a4.4,4.4,0,0,0-.2-1h1.7c.7,0,1-.3,1-.9v-2Zm.1-.8h6V662H126A17.7,17.7,0,0,1,125.9,664.3Zm.1-5.4v2.3h5.9v-2.3Z"/></g><path class="cls-5" d="M82.7,685.7a13.6,13.6,0,0,1-3.1,3.7,20.8,20.8,0,0,0,4.8,1.2L83,692.9a19,19,0,0,1-5.4-2.1,27.4,27.4,0,0,1-5.4,2.3l-1.2-2a42.4,42.4,0,0,0,4.7-1.7,16.4,16.4,0,0,1-2.1-2.5,22.2,22.2,0,0,1-4.1,4.9c-.3-1-.5-1.8-.7-2.6a18.5,18.5,0,0,0,4.5-6.6H69.4v-1.9a27.6,27.6,0,0,0,.8-2.7l2.1.2a17.6,17.6,0,0,1-.6,2.5h2.2c.3-.9.5-2,.8-3.1h2.2l-.6,3h4.3a15.3,15.3,0,0,0-1.8-1.8l1.4-1.3a30.4,30.4,0,0,1,2.5,2.1l-1,1h2.6v1.9H75.7l-.6,1.4h7.6Zm-5.1,2.6a9.9,9.9,0,0,0,2.5-2.5H75.4A7.5,7.5,0,0,0,77.6,688.3Z"/><path class="cls-5" d="M94.4,693H92.2v-7.2H89.7v6H87.6v-5a18,18,0,0,1-2,1.9l-.7-2.2a18.3,18.3,0,0,0,4-4.9H85.1v-2.1h4.8a10.7,10.7,0,0,0,.7-1.9l2.2.3-.6,1.6h8v2.1h-9c-.4.8-.9,1.6-1.4,2.4h2.4v-2h2.2v2h4.7v5a2.5,2.5,0,0,1-.5,1.6,1.4,1.4,0,0,1-1.1.7H95.3c-.1-.8-.2-1.5-.3-2h.9a1,1,0,0,0,1.1-1.1v-2.5H94.4Z"/><path class="cls-5" d="M112.7,690.9h-2.6l-5.1-7.8a6.4,6.4,0,0,1-.6-1h0v8.8H102V678.8h2.8l4.9,7.6c.4.5.6.8.6,1h.1a7.2,7.2,0,0,1-.1-1.7v-6.9h2.4Z"/><path class="cls-5" d="M122.7,690.9h-7.2V678.8h6.9v2.1h-4.3v2.9h4v2.1h-4v2.9h4.6Z"/><path class="cls-5" d="M127.3,686.7v4.2h-2.6V678.8h4.2c3,0,4.5,1.3,4.5,3.8a3.6,3.6,0,0,1-1.4,3,5.3,5.3,0,0,1-3.4,1.1Zm0-5.9v3.9h1.1c1.5,0,2.3-.7,2.3-2s-.8-1.9-2.3-1.9Z"/><path class="cls-5" d="M139.6,687.2H135v-1.8h4.6Z"/><path class="cls-5" d="M142.1,690.6v-2.2a5.6,5.6,0,0,0,2.7.8,2.4,2.4,0,0,0,1.7-.6,1.7,1.7,0,0,0,.6-1.4c0-1.2-.9-1.9-2.6-1.9l-2.2.2.5-6.7h6.4v2.1h-4.4v2.5h1.2a4.3,4.3,0,0,1,2.8.9,4.1,4.1,0,0,1,1,2.7,3.5,3.5,0,0,1-1.3,2.9,4.5,4.5,0,0,1-3.3,1.2A8.5,8.5,0,0,1,142.1,690.6Z"/><path class="cls-5" d="M166.4,690.7l-.7,2h-8.2a5.4,5.4,0,0,1-2.4-.5,3.7,3.7,0,0,1-1.6-1l-1.7,1.9-.9-2.4,1.5-1.3v-4.3H151v-2h3.4v6.3c.6.9,1.7,1.3,3.3,1.3h8.7Zm-13.5-13.1a32.4,32.4,0,0,1,2.2,2.8l-1.8,1.3a31.1,31.1,0,0,0-2-3Zm12.6.5v1.8l-3.2,1.8h3.2v6.8a1.8,1.8,0,0,1-.3,1.1,1,1,0,0,1-.8.6h-2.3a12.4,12.4,0,0,0-.4-1.6h1.2c.5,0,.7-.2.7-.6v-.3h-2.1v2.3h-1.9v-2.3h-2.1v2.4h-1.9v-8.5h2.9l-1.6-1,.7-.9h-2.2v-1.7Zm-8,6h2.1v-1h-2.1Zm0,2.3h2.1v-.9h-2.1Zm5.3-6.6h-4.6a17.9,17.9,0,0,1,2.2,1.3Zm.8,3.3h-2.1v1h2.1Zm-2.1,3.3h2.1v-.9h-2.1Z"/><path class="cls-5" d="M171.7,687.4l.4,2.2a30.8,30.8,0,0,0-3.3,2.6l-1-1.7a2.5,2.5,0,0,0,.4-1.2v-5h-1.3v-2h3.4v6.2Zm-2.6-9.8a33.9,33.9,0,0,1,2,2.8l-1.9,1.2c-.6-1.1-1.2-2-1.8-3Zm2.3,12.6h1.2v-7.8h2.1v7.8h1.7v-9.5h-4.5v-2.1h10.3v2.1h-3.7v3.5h3.4v2h-3.4v4h3.9v2.1h-11Z"/><path class="cls-5" d="M182.8,686.6a19,19,0,0,0,1.8-4.2h-1.7v-2h1.8v-2.8h2v2.8h1.5v2h-1.5v1.8l1.9,1.1-1,1.8-.9-.7V693h-2v-6.4a15.5,15.5,0,0,1-1.4,2.9A21.8,21.8,0,0,0,182.8,686.6Zm6.7-1.2,1.8.5a49.4,49.4,0,0,1-1.9,5.2l-1.9-.7A34.6,34.6,0,0,0,189.5,685.4Zm-1.3-3h10.1v2h-4v6.7a1.8,1.8,0,0,1-.4,1.3,2.6,2.6,0,0,1-1.4.5h-2.3c-.2-.8-.3-1.6-.4-2.2h1.4c.6,0,.9-.3.9-.8v-5.6h-3.9Zm.6-4h8.9v2.1h-8.9Zm7.8,7.1c.7,1.6,1.3,3.2,1.9,4.9l-1.9.8a40.4,40.4,0,0,0-1.9-5Z"/><path class="cls-5" d="M200.5,678.3q1.2,1.5,2.4,3.3l-1.8,1.3-2.3-3.4Zm.5,6.4,2,1-2.3,6.7-1.9-1.2C199.5,689.4,200.2,687.2,201,684.7Zm4.1-7.1,2.1.5-.9,2.1h3.2l-1.4-1.7,1.6-1.1,1.9,2.1-1,.7h3.5v1.7h-3.2v1.7H214v1.6h-3.1v1.7H214v1.6h-3.1v1.7h3.4v1.7h-8.2V693h-2.2v-8.6l-.8,1.2-1-2.1A16.5,16.5,0,0,0,205.1,677.6Zm1,6h2.7v-1.7h-2.7Zm0,3.3h2.7v-1.7h-2.7Zm0,3.3h2.7v-1.7h-2.7Z"/><g class="cls-4"><path d="M73.6,775.8a1.4,1.4,0,0,0-.5-1.1,1.6,1.6,0,0,0-1.2-.4l-1.2.2a4.4,4.4,0,0,0-1.1.9v-1.1a2.8,2.8,0,0,1,1.1-.8l1.3-.2a2.7,2.7,0,0,1,2,.7,2.1,2.1,0,0,1,.7,1.7,3.4,3.4,0,0,1-.4,1.8,7.8,7.8,0,0,1-1.6,1.5l-1.5,1.1a1.3,1.3,0,0,0-.6.7,1.5,1.5,0,0,0-.1.7H75v1H69.3v-.4a3.2,3.2,0,0,1,.2-1.4,3,3,0,0,1,.7-1,6.9,6.9,0,0,1,1.5-1.3,6.9,6.9,0,0,0,1.5-1.3A2.8,2.8,0,0,0,73.6,775.8Z"/><path d="M76.1,778.2a7.5,7.5,0,0,1,.8-3.7,2.7,2.7,0,0,1,2.3-1.2c2,0,2.9,1.5,2.9,4.6a6,6,0,0,1-.8,3.6,2.6,2.6,0,0,1-2.3,1.2,2.4,2.4,0,0,1-2.1-1.2A5.9,5.9,0,0,1,76.1,778.2Zm1.2-.1q0,3.6,1.8,3.6c1.3,0,1.9-1.2,1.9-3.6s-.6-3.8-1.8-3.8S77.3,775.5,77.3,778.1Z"/><path d="M86,782.5v-7.7l-.9.6-1.2.4v-1.1a4.7,4.7,0,0,0,1.5-.6,4.8,4.8,0,0,0,1.3-.9h.4v9.3Z"/><path d="M96.1,774.2a31.5,31.5,0,0,0-2.2,4.6,16.6,16.6,0,0,0-1.1,3.7H91.7a11.6,11.6,0,0,1,1-3.6,24.9,24.9,0,0,1,2.1-4.4H90.3v-1.1h5.8Z"/><path d="M96.9,780.1h1.9v-3.3H103v-2.1H99.5a23.3,23.3,0,0,1-1.7,2.6l-.8-.6a11.4,11.4,0,0,0,2.5-4.2l1,.2a11.7,11.7,0,0,1-.5,1.1h8v.9h-4.1v2.1h3.9v.8h-3.9v2.5h4.7v.9h-4.7v3.1H103V781H96.9Zm2.9,0H103v-2.5H99.8Z"/><path d="M112.1,782.5v-7.7l-.9.6-1.2.4v-1.1l1.5-.6a4.8,4.8,0,0,0,1.3-.9h.4v9.3Z"/><path d="M119.1,782.5v-7.7l-.9.6-1.2.4v-1.1a4.7,4.7,0,0,0,1.5-.6,4.8,4.8,0,0,0,1.3-.9h.4v9.3Z"/><path d="M125.8,780.1a8,8,0,0,1-1.8,4.1l-.8-.7a6.4,6.4,0,0,0,1.6-2.9,30.1,30.1,0,0,0,.2-3.5v-4h7.9v9.1a1.5,1.5,0,0,1-1.7,1.7h-1.8a4.4,4.4,0,0,0-.2-1h1.7c.7,0,1-.3,1-.9v-2Zm.1-.8h6V777H126A17.7,17.7,0,0,1,125.9,779.3Zm.1-5.4v2.3h5.9v-2.3Z"/></g><path class="cls-5" d="M80.7,805.9H78.1L73,798.1a6.4,6.4,0,0,1-.6-1h0v8.8H70V793.8h2.8l4.9,7.6c.4.5.6.8.6,1h.1a7.2,7.2,0,0,1-.1-1.7v-6.9h2.4Z"/><path class="cls-5" d="M90.7,805.9H83.5V793.8h6.9v2.1H86.1v2.9h4v2.1h-4v2.9h4.6Z"/><path class="cls-5" d="M91.9,800a6.5,6.5,0,0,1,1.7-4.6,6.2,6.2,0,0,1,8.6-.1,6.6,6.6,0,0,1,1.5,4.5,6.2,6.2,0,0,1-1.6,4.5,5.5,5.5,0,0,1-4.3,1.8,5.6,5.6,0,0,1-4.2-1.7A6,6,0,0,1,91.9,800Zm2.7-.1a4.8,4.8,0,0,0,.9,2.9,2.8,2.8,0,0,0,2.3,1.1,3,3,0,0,0,2.4-1.1,4.3,4.3,0,0,0,.8-2.9,4.6,4.6,0,0,0-.8-3,2.7,2.7,0,0,0-2.3-1.1,3,3,0,0,0-2.4,1.1A4.9,4.9,0,0,0,94.6,799.9Z"/><path class="cls-5" d="M105.4,807.9V793.3h14v14.6h-2.2v-.7h-9.6v.7Zm11.8-2.6V795.2h-9.6v10.1Zm-8.3-8.4h7v6.7h-7Zm4.8,4.8v-3H111v3Z"/><path class="cls-5" d="M126,794.9v1.5l-.8,2.3-1.2-.2v5.7l1.4-1.1c.1.7.1,1.5.2,2.3a26.6,26.6,0,0,0-2.7,2.4l-1.1-1.5a2,2,0,0,0,.4-1.3v-6.4a10.9,10.9,0,0,1-.8,1.5c-.2-.5-.6-1.1-.9-1.7a23.3,23.3,0,0,0,1.6-5.8l1.8.3c-.1.7-.3,1.3-.4,2Zm-3.5,2.9H124l.5-1.4H123A5.8,5.8,0,0,1,122.5,797.8Zm7.5,4.8h2a9,9,0,0,1-.2,1.8l4.3,2-1.2,1.7-3.9-2.2c-.7.9-2.2,1.6-4.6,2.3a14.5,14.5,0,0,0-1-1.8A7.8,7.8,0,0,0,129,805,2.7,2.7,0,0,0,130,802.6Zm6.2-2.6H125.5v-1.6h4.4v-.7h-3.5v-3.9h3.5v-1.1h2v1.1h3.5v3.9h-3.5v.7h4.3Zm-9.7,5.1v-4.4h8.9v4.4h-1.9v-2.9h-5v2.9Zm1.8-8.9h1.6v-1h-1.6Zm5.2,0v-1h-1.6v1Z"/><path class="cls-5" d="M142.6,802.5q.2,1.5.3,2.4a29.2,29.2,0,0,0-3.9,2.8l-1.1-1.5a1.8,1.8,0,0,0,.4-1.3v-5.1h-1.6v-2h3.7V804Zm-3.2-9.9a30.9,30.9,0,0,1,2,2.9l-2,1.2a29,29,0,0,0-1.9-3.1Zm2.4,4.7h4v-4.7h2.3v4.7h4v2.1h-4V808h-2.3v-8.6h-4Z"/><path class="cls-5" d="M159.3,798.7l1.9.9a20.3,20.3,0,0,1-3.3,4.4,3.6,3.6,0,0,0,.8,1.2,1.2,1.2,0,0,0,.8.4h.2a2.3,2.3,0,0,0,.3-1,7.8,7.8,0,0,0,.2-1.4l1.9.8a10.6,10.6,0,0,1-.9,3.2,1.7,1.7,0,0,1-1.4.7,3.9,3.9,0,0,1-3.6-2.3,14.3,14.3,0,0,1-2.4,1.6l-1.2-1.9a14.5,14.5,0,0,0,2.9-1.9,29.7,29.7,0,0,1-.7-4.6l-1.8.3-.3-1.9,2-.4-.2-4.1h2.2c0,1.3.1,2.6.1,3.8l4.2-.6.3,1.9-4.4.7c.1,1,.3,2.1.4,3.2A12.1,12.1,0,0,0,159.3,798.7Zm-.8-6.1a21.1,21.1,0,0,1,2.3,1.9l-1.3,1.3-2.2-2Zm5.5,11.1h-2.1v-9.5H164Zm3.5-11v13.2a2.6,2.6,0,0,1-.4,1.4,2.6,2.6,0,0,1-1.5.5h-1.9a11.7,11.7,0,0,0-.5-2h2c.1-.1.1-.3.1-.6V792.7Z"/><path class="cls-5" d="M170.1,794.2h5.3c-.1-.4-.3-.8-.4-1.2l2.4-.5c.2.5.4,1.1.7,1.7h5v5.5H172.2a14.8,14.8,0,0,1-2,8.2l-1.6-1.8a12.8,12.8,0,0,0,1.5-6.5Zm10.9,3.6v-1.7h-8.8v1.7Zm-8.3,10.1v-6.7H183v6.7h-2.1v-.8h-6.1v.8Zm8.2-4.8h-6.1v2.1h6.1Z"/><path class="cls-5" d="M190.6,800.4l1.6,4c.7-1.3,1.1-3.7,1.1-7.1h-1.6v-2.1h1.6v-2.6h2.1v2.6h4.1l-.2,8.9c0,1.1-.1,1.9-.1,2.2a3.5,3.5,0,0,1-.5.8l-.8.5-2.8.2-.6-2.4h1.7l.7-.2a.5.5,0,0,0,.3-.5c0-.2.1-1,.1-2.4s.1-3.1.1-5.1h-2c-.1,2.3-.2,4-.3,5a17.1,17.1,0,0,1-.9,3,10,10,0,0,1-1.7,2.8l-1.9-1.4.8-.9-4.3.3a3.9,3.9,0,0,0-1.5.4l-1-1.9c.6-.5,1.2-2.1,2-4.9h-1.9v-2h7.2v2h-3l-1.5,4.3h2.5a24.9,24.9,0,0,0-1.1-2.9Zm.8-4.7h-6v-2h6Z"/><g class="cls-4"><path d="M73.6,890.8a1.4,1.4,0,0,0-.5-1.1,1.6,1.6,0,0,0-1.2-.4l-1.2.2a4.4,4.4,0,0,0-1.1.9v-1.1a2.8,2.8,0,0,1,1.1-.8l1.3-.2a2.7,2.7,0,0,1,2,.7,2.1,2.1,0,0,1,.7,1.7,3.4,3.4,0,0,1-.4,1.8,7.8,7.8,0,0,1-1.6,1.5l-1.5,1.1a1.3,1.3,0,0,0-.6.7,1.5,1.5,0,0,0-.1.7H75v1H69.3v-.4a3.2,3.2,0,0,1,.2-1.4,3,3,0,0,1,.7-1,6.9,6.9,0,0,1,1.5-1.3,6.9,6.9,0,0,0,1.5-1.3A2.8,2.8,0,0,0,73.6,890.8Z"/><path d="M76.1,893.2a7.5,7.5,0,0,1,.8-3.7,2.7,2.7,0,0,1,2.3-1.2c2,0,2.9,1.5,2.9,4.6a6,6,0,0,1-.8,3.6,2.6,2.6,0,0,1-2.3,1.2,2.4,2.4,0,0,1-2.1-1.2A5.9,5.9,0,0,1,76.1,893.2Zm1.2-.1q0,3.6,1.8,3.6c1.3,0,1.9-1.2,1.9-3.6s-.6-3.8-1.8-3.8S77.3,890.5,77.3,893.1Z"/><path d="M86,897.5v-7.7l-.9.6-1.2.4v-1.1a4.7,4.7,0,0,0,1.5-.6,4.8,4.8,0,0,0,1.3-.9h.4v9.3Z"/><path d="M90.3,895a2.8,2.8,0,0,1,.4-1.5,2.7,2.7,0,0,1,1.2-.9,2,2,0,0,1-.9-.9,2,2,0,0,1-.3-1.1,2.7,2.7,0,0,1,.3-1.2,2.4,2.4,0,0,1,.9-.8,3,3,0,0,1,2.6,0,2.4,2.4,0,0,1,.9.8,1.9,1.9,0,0,1,.4,1.2,2.1,2.1,0,0,1-.4,1.1,2,2,0,0,1-.9.9,2.3,2.3,0,0,1,1.2,1,2.4,2.4,0,0,1,.5,1.4,3.3,3.3,0,0,1-.4,1.4,2.4,2.4,0,0,1-1.1.9,3,3,0,0,1-3,0,2.4,2.4,0,0,1-1.1-.9A3.2,3.2,0,0,1,90.3,895Zm1.1-.1a1.7,1.7,0,0,0,.5,1.3,1.5,1.5,0,0,0,1.3.5,1.7,1.7,0,0,0,1.8-1.8,1.3,1.3,0,0,0-.5-1.2,1.9,1.9,0,0,0-2.6,0A1.7,1.7,0,0,0,91.4,894.9Zm.3-4.2a1.6,1.6,0,0,0,.5,1.1,1.5,1.5,0,0,0,1,.4,2.1,2.1,0,0,0,1.1-.4,1.5,1.5,0,0,0,.4-1.1,1.3,1.3,0,0,0-.4-1,1.5,1.5,0,0,0-2.2,0A1.5,1.5,0,0,0,91.7,890.7Z"/><path d="M96.9,895.1h1.9v-3.3H103v-2.1H99.5a23.3,23.3,0,0,1-1.7,2.6l-.8-.6a11.4,11.4,0,0,0,2.5-4.2l1,.2a11.7,11.7,0,0,1-.5,1.1h8v.9h-4.1v2.1h3.9v.8h-3.9v2.5h4.7v.9h-4.7v3.1H103V896H96.9Zm2.9,0H103v-2.5H99.8Z"/><path d="M112.1,897.5v-7.7l-.9.6-1.2.4v-1.1l1.5-.6a4.8,4.8,0,0,0,1.3-.9h.4v9.3Z"/><path d="M118.8,895.1a8,8,0,0,1-1.8,4.1l-.8-.7a5.4,5.4,0,0,0,1.5-2.9,16.2,16.2,0,0,0,.3-3.5v-4h7.8v9.1c0,1.1-.5,1.7-1.6,1.7h-1.8c-.1-.3-.1-.6-.2-1h1.7c.6,0,1-.3,1-.9v-2Zm.1-.8h6V892H119C119,892.8,118.9,893.5,118.9,894.3Zm.1-5.4v2.3h5.9v-2.3Z"/></g><path class="cls-5" d="M71.4,907.5h2.1l-.5,1.1h3.8V910a6.4,6.4,0,0,0,1.5-2.5h2.2a11.7,11.7,0,0,1-.5,1.1h4.2v1.5H81.5l1,.9-1,.7h1.7V916H77.8v1h6.1a12.5,12.5,0,0,1-.4,4.2l-.9.8a11.2,11.2,0,0,1-3.7.3,14.6,14.6,0,0,0-.5-2h2.9l.4-.5c0-.2.1-.6.1-1.1h-4V923H75.6v-3.9a14.9,14.9,0,0,1-5.6,3.8L68.8,921a15.2,15.2,0,0,0,4.6-2.3H69.7l.8-4.3h5.1v-1H70.3v-1.3l-.4.3a8.6,8.6,0,0,0-1.3-1.4A11.4,11.4,0,0,0,71.4,907.5Zm1.3,3.1.6-.5H72a10.7,10.7,0,0,1-1.4,1.6h3.2Zm-.6,6.4h3.5v-1H72.2Zm2.3-6.9a5.2,5.2,0,0,1,1.1,1l-.8.6h3.2l-1.6-1,.5-.6Zm6.7,4.3v-1H77.8v1ZM78,911.7h2.9l-1.2-1.1.6-.5H79.2A6.1,6.1,0,0,1,78,911.7Z"/><path class="cls-5" d="M85,914.1h15.1v2.3H85Z"/><path class="cls-5" d="M102.3,908.2h13.2v4.9h-11a30.7,30.7,0,0,1-.5,6.4,15.2,15.2,0,0,1-1.5,3.4,17.2,17.2,0,0,0-1.7-1.9,9.9,9.9,0,0,0,1.1-2.3,22.4,22.4,0,0,0,.4-5.4Zm11,3.1V910h-8.8v1.3ZM104.9,923v-8.6h4.2v-1.1h2.1v1.1h4.3V923h-2.1v-.8H107v.8Zm2.1-5.5h2.1v-1.4H107Zm0,3h2.1v-1.3H107Zm6.4-4.4h-2.2v1.4h2.2Zm-2.2,4.4h2.2v-1.3h-2.2Z"/><path class="cls-5" d="M116.9,914.3h3.6v-3.8h-2.8v-2h14v2h-2.5v3.8h3.1v2.1h-3.1v6.4h-2.3v-6.4h-4.2a6.7,6.7,0,0,1-3.8,6.7l-2-1.6a6.5,6.5,0,0,0,2.4-1.9,5.5,5.5,0,0,0,1.1-3.2h-3.5Zm5.9,0h4.1v-3.8h-4.1Z"/><path class="cls-5" d="M146.7,915.7a13.6,13.6,0,0,1-3.1,3.7,20.8,20.8,0,0,0,4.8,1.2l-1.4,2.3a19,19,0,0,1-5.4-2.1,27.4,27.4,0,0,1-5.4,2.3l-1.2-2a42.4,42.4,0,0,0,4.7-1.7,16.4,16.4,0,0,1-2.1-2.5,22.2,22.2,0,0,1-4.1,4.9c-.3-1-.5-1.8-.7-2.6a18.5,18.5,0,0,0,4.5-6.6h-3.9v-1.9a27.6,27.6,0,0,0,.8-2.7l2.1.2a17.6,17.6,0,0,1-.6,2.5h2.2c.3-.9.5-2,.8-3.1h2.2l-.6,3h4.3a15.3,15.3,0,0,0-1.8-1.8l1.4-1.3a30.4,30.4,0,0,1,2.5,2.1l-1,1h2.6v1.9h-8.6l-.6,1.4h7.6Zm-5.1,2.6a9.9,9.9,0,0,0,2.5-2.5h-4.7A7.5,7.5,0,0,0,141.6,918.3Z"/><path class="cls-5" d="M148.9,911.9h5.4v-1.2h-4.1v-1.8h4.1v-1.4h2.1v1.4h3.8v1.7a22,22,0,0,0,2-2.3l1.6,1.2a17.5,17.5,0,0,1-2.3,2.4h2.9v1.9h-5.2l-2,1.2h5.5v8h-2.2v-.6h-7.3v.6h-2.1v-5.6l-1.6.5c-.2-.6-.4-1.3-.7-2a27.3,27.3,0,0,0,7.1-2.1h-7Zm11.6,4.8h-7.3v1.1h7.3Zm-7.3,3.9h7.3v-1.1h-7.3Zm6.8-9.9h-3.6v1.2h2.3A4.9,4.9,0,0,0,160,910.7Z"/><path class="cls-5" d="M165.1,911.6h6.2c.1-1.2.1-2.5.1-4h2.4c-.1,1.6-.1,2.9-.2,4h6.5v2.1h-6.3a9.6,9.6,0,0,0,6.5,7l-1.8,2.2a11.3,11.3,0,0,1-5.9-6.4,11.4,11.4,0,0,1-6,6.5l-1.8-2c3.8-1.7,5.9-4.1,6.3-7.3h-6Z"/><path class="cls-5" d="M190.3,907.6l-.4.5a15.1,15.1,0,0,0,6.5,5.1A9.8,9.8,0,0,0,195,915a11.6,11.6,0,0,1-2.2-1.3v1.1h-8.4v-1.2l-2.2,1.4-1.4-1.9c3.4-1.8,5.7-3.6,6.8-5.5Zm-8.9,8.5h14.4V918h-3.9l3.2,4.1-1.9,1.1a3.6,3.6,0,0,1-.7-1l-7.5.4-1.6.2-1-1.9a13.2,13.2,0,0,0,2.9-2.9h-3.9Zm7.2-6.2a22.3,22.3,0,0,1-3.1,2.9h6.1A16.6,16.6,0,0,1,188.6,909.9Zm1.4,9,1.3-.9H188a19.9,19.9,0,0,1-2.1,2.4H191Z"/><path class="cls-5" d="M72.1,942.2H69.8v-15h2.3Zm1.6-.1V927.4h9.8v14.7H81.3v-1H76v1Zm7.6-12.7H76v3.7h5.3ZM76,939.1h5.3v-3.9H76Z"/><path class="cls-5" d="M85.2,939.8h3.4a20.2,20.2,0,0,0-1.6-1.9l1.8-1.1a19.3,19.3,0,0,1,1.7,2.1l-1.5.9h2.4v-3H86.5v-1.9h4.9v-1.3h-3v-1.3a13.8,13.8,0,0,1-2.4,1.4l-1.3-2a18.2,18.2,0,0,0,6.9-4.8h3.2l-.7.7a16,16,0,0,0,6.4,3.8c-.5.8-1,1.5-1.3,2.1a13.6,13.6,0,0,1-2.4-1.3v1.4H93.7v1.3h5v1.9H96.3l1.9,1-1.6,2H100v1.9H85.2Zm7.4-10.9a14.9,14.9,0,0,1-3.3,2.7h6.6A14.9,14.9,0,0,1,92.6,928.9Zm3.6,7.9H93.7v3h2.5l-1.5-.8C95.2,938.3,95.8,937.5,96.2,936.8Z"/><path class="cls-5" d="M113.1,942.2V941H101.8V929.8h2.3v9h3.3V926.9h2.4v11.9h3.3v-9h2.3v12.4Z"/><g class="cls-4"><path d="M73.6,1015.8a1.4,1.4,0,0,0-.5-1.1,1.6,1.6,0,0,0-1.2-.4l-1.2.2a4.4,4.4,0,0,0-1.1.9v-1.1a2.8,2.8,0,0,1,1.1-.8l1.3-.2a2.7,2.7,0,0,1,2,.7,2.1,2.1,0,0,1,.7,1.7,3.4,3.4,0,0,1-.4,1.8,7.8,7.8,0,0,1-1.6,1.5l-1.5,1.1a1.3,1.3,0,0,0-.6.7,1.5,1.5,0,0,0-.1.7H75v1H69.3v-.4a3.2,3.2,0,0,1,.2-1.4,3,3,0,0,1,.7-1,6.9,6.9,0,0,1,1.5-1.3,6.9,6.9,0,0,0,1.5-1.3A2.8,2.8,0,0,0,73.6,1015.8Z"/><path d="M76.1,1018.2a7.5,7.5,0,0,1,.8-3.7,2.7,2.7,0,0,1,2.3-1.2c2,0,2.9,1.5,2.9,4.6a6,6,0,0,1-.8,3.6,2.6,2.6,0,0,1-2.3,1.2,2.4,2.4,0,0,1-2.1-1.2A5.9,5.9,0,0,1,76.1,1018.2Zm1.2-.1q0,3.6,1.8,3.6c1.3,0,1.9-1.2,1.9-3.6s-.6-3.8-1.8-3.8S77.3,1015.5,77.3,1018.1Z"/><path d="M86,1022.5v-7.7l-.9.6-1.2.4v-1.1a4.7,4.7,0,0,0,1.5-.6,4.8,4.8,0,0,0,1.3-.9h.4v9.3Z"/><path d="M90.3,1020a2.8,2.8,0,0,1,.4-1.5,2.7,2.7,0,0,1,1.2-.9,2,2,0,0,1-.9-.9,2,2,0,0,1-.3-1.1,2.7,2.7,0,0,1,.3-1.2,2.4,2.4,0,0,1,.9-.8,3,3,0,0,1,2.6,0,2.4,2.4,0,0,1,.9.8,1.9,1.9,0,0,1,.4,1.2,2.1,2.1,0,0,1-.4,1.1,2,2,0,0,1-.9.9,2.3,2.3,0,0,1,1.2,1,2.4,2.4,0,0,1,.5,1.4,3.3,3.3,0,0,1-.4,1.4,2.4,2.4,0,0,1-1.1.9,3,3,0,0,1-3,0,2.4,2.4,0,0,1-1.1-.9A3.2,3.2,0,0,1,90.3,1020Zm1.1-.1a1.7,1.7,0,0,0,.5,1.3,1.5,1.5,0,0,0,1.3.5,1.7,1.7,0,0,0,1.8-1.8,1.3,1.3,0,0,0-.5-1.2,1.9,1.9,0,0,0-2.6,0A1.7,1.7,0,0,0,91.4,1019.9Zm.3-4.2a1.6,1.6,0,0,0,.5,1.1,1.5,1.5,0,0,0,1,.4,2.1,2.1,0,0,0,1.1-.4,1.5,1.5,0,0,0,.4-1.1,1.3,1.3,0,0,0-.4-1,1.5,1.5,0,0,0-2.2,0A1.5,1.5,0,0,0,91.7,1015.7Z"/><path d="M96.9,1020.1h1.9v-3.3H103v-2.1H99.5a23.3,23.3,0,0,1-1.7,2.6l-.8-.6a11.4,11.4,0,0,0,2.5-4.2l1,.2a11.7,11.7,0,0,1-.5,1.1h8v.9h-4.1v2.1h3.9v.8h-3.9v2.5h4.7v.9h-4.7v3.1H103V1021H96.9Zm2.9,0H103v-2.5H99.8Z"/><path d="M114.9,1019.7a2.9,2.9,0,0,1-.9,2.2,3.6,3.6,0,0,1-2.3.8,3.7,3.7,0,0,1-2-.4v-1.2a3.8,3.8,0,0,0,1.9.6,2.1,2.1,0,0,0,1.6-.5,2,2,0,0,0,.5-1.4,1.5,1.5,0,0,0-.6-1.3,2.2,2.2,0,0,0-1.7-.5h-1.5l.3-4.7h4.3v1.1h-3.3l-.2,2.5h.8a3.3,3.3,0,0,1,2.3.7A2.8,2.8,0,0,1,114.9,1019.7Z"/><path d="M118.8,1020.1a8,8,0,0,1-1.8,4.1l-.8-.7a5.4,5.4,0,0,0,1.5-2.9,16.2,16.2,0,0,0,.3-3.5v-4h7.8v9.1c0,1.1-.5,1.7-1.6,1.7h-1.8c-.1-.3-.1-.6-.2-1h1.7c.6,0,1-.3,1-.9v-2Zm.1-.8h6V1017H119C119,1017.8,118.9,1018.5,118.9,1019.3Zm.1-5.4v2.3h5.9v-2.3Z"/></g><path class="cls-5" d="M80.7,1045.9H78.1l-5.1-7.8a6.4,6.4,0,0,1-.6-1h0v8.8H70v-12.1h2.8l4.9,7.6c.4.5.6.8.6,1h.1a7.2,7.2,0,0,1-.1-1.7v-6.9h2.4Z"/><path class="cls-5" d="M90.7,1045.9H83.5v-12.1h6.9v2.1H86.1v2.9h4v2.1h-4v2.9h4.6Z"/><path class="cls-5" d="M91.9,1040a6.5,6.5,0,0,1,1.7-4.6,6.2,6.2,0,0,1,8.6-.1,6.6,6.6,0,0,1,1.5,4.5,6.2,6.2,0,0,1-1.6,4.5,5.5,5.5,0,0,1-4.3,1.8,5.6,5.6,0,0,1-4.2-1.7A6,6,0,0,1,91.9,1040Zm2.7-.1a4.8,4.8,0,0,0,.9,2.9,2.8,2.8,0,0,0,2.3,1.1,3,3,0,0,0,2.4-1.1,4.3,4.3,0,0,0,.8-2.9,4.6,4.6,0,0,0-.8-3,2.7,2.7,0,0,0-2.3-1.1,3,3,0,0,0-2.4,1.1A4.9,4.9,0,0,0,94.6,1039.9Z"/><path class="cls-5" d="M110.7,1038.1H114v-1.7h-3.4l.5.2q-1.9,3-3.3,4.8l2.4-.2c-.1.7-.1,1.3-.2,1.9l-4.6.7-.6-1.7a22.4,22.4,0,0,0,2.3-2.9l-2,.2-.6-1.8a16.6,16.6,0,0,0,2.7-5.1l2.1.7a39.2,39.2,0,0,1-2.4,4.2h1.4l.9-1.6,1.1.5v-1.7H114v-2h2.2v2h3.9v1.9h-3.9v1.7h3.4v1.8h-8.9Zm-5.7,9.1-.4-2.2,5.8-.8a18.6,18.6,0,0,0-.1,2.2Zm5.9.8v-6.7h8.6v6.7h-2.1v-.9H113v.9Zm6.5-4.8H113v2h4.4Z"/><path class="cls-5" d="M120.6,1041.6a17.2,17.2,0,0,0,1.9-4.1h-1.8v-1.8h1.9v-3.1h2.1v3.1h1.5v.8a12.3,12.3,0,0,0,1.9-3.8l2.2.2-.6,1.5h5.8v6c0,1.7-.1,3.1-.1,4.1a3.7,3.7,0,0,1-.7,2.3,2.8,2.8,0,0,1-1.7.9h-3.4c-.2-.9-.3-1.6-.5-2.2h2.8a1.5,1.5,0,0,0,1-.3,2.2,2.2,0,0,0,.5-1.6l-1.1.6-.3-.7-5.5.6-.6-1.7c.8-.6,1.8-2.4,3-5.3l2,.8-2.5,4.2,2.8-.2-1.1-2.1,1.6-.8c.6.9,1.1,1.9,1.7,3,.1-1.6.1-3.5.1-5.9h-4.8l-1.8,2.5-1.3-1.3h-.9v.9l2.1,2-1.3,1.3a7.6,7.6,0,0,1-.8-1.1v7.3h-2.1v-6.5a17.7,17.7,0,0,1-1.5,3.1C121,1043.8,120.8,1042.8,120.6,1041.6Z"/><path class="cls-5" d="M136.7,1046.1h6.7v-.8h-5.7V1044h5.7v-.8h-5.2v-5.5h5.2v-.8h-6.7v-1.4h6.7v-.7H138a7.7,7.7,0,0,0-.2-1.5q6.6,0,12.9-.3l.3,1.5h-5.6v.8h6.8v1.4h-6.8v.8h5.2v5.5h-5.2v.8h5.8v1.3h-5.8v.8h6.8v1.4H136.7Zm3.5-6.2h3.2v-.9h-3.2Zm0,2h3.2v-.9h-3.2Zm8.4-2.9h-3.2v.9h3.2Zm0,2.9v-.9h-3.2v.9Z"/><path class="cls-5" d="M153,1047.3l-.4-2.1,5.8-.7a2.8,2.8,0,0,0-.1.9h.8v-8.9a56.5,56.5,0,0,1-3.3,5.1l2.7-.4c0,.8-.1,1.4-.1,1.9a31.8,31.8,0,0,0-4.8.7l-.8-1.9a7.9,7.9,0,0,0,2.4-2.8l-2,.2-.6-1.8c.5-.4,1.5-2,2.9-5l2,.7-2.5,4.2h1.4a16.2,16.2,0,0,1,1-1.8l1.7.8v-3.1h8.1v12.2h1v2H158v-.8Zm12-12h-3.7v2H165Zm-3.7,6H165v-2h-3.7Zm0,4.1H165v-2.1h-3.7Z"/><path class="cls-5" d="M80.7,1065.1H78.1l-5.1-7.8a6.4,6.4,0,0,1-.6-1h0v8.8H70V1053h2.8l4.9,7.6c.4.5.6.8.6,1h.1a7.2,7.2,0,0,1-.1-1.7V1053h2.4Z"/><path class="cls-5" d="M93.4,1064.3a8.7,8.7,0,0,1-4.4,1,6.1,6.1,0,0,1-4.5-1.6,5.7,5.7,0,0,1-1.7-4.5,6.2,6.2,0,0,1,1.8-4.6,6.9,6.9,0,0,1,4.9-1.8,11.6,11.6,0,0,1,3.4.5v2.5a6.5,6.5,0,0,0-3.5-.8,3.6,3.6,0,0,0-2.8,1.1,4.4,4.4,0,0,0-1.1,3,4,4,0,0,0,1,3,3.3,3.3,0,0,0,2.7,1,3.8,3.8,0,0,0,1.6-.3v-2.5H88.4v-2h5Z"/><path class="cls-5" d="M95.8,1065.1V1053H100c4.3,0,6.4,2,6.4,5.9a5.8,5.8,0,0,1-1.8,4.5,6.5,6.5,0,0,1-4.6,1.7Zm2.6-10v7.9h1.4a3.7,3.7,0,0,0,3.9-4.1,3.8,3.8,0,0,0-1.1-2.8,3.9,3.9,0,0,0-2.8-1Z"/><path class="cls-5" d="M111.1,1065.1c-.1-.9-.3-1.7-.4-2.3h1.2a.8.8,0,0,0,.9-.8,12.8,12.8,0,0,0,.1-2.1h-2.3q0,4.8-1.5,7.2l-1.8-1.5a12.1,12.1,0,0,0,1.3-6v-5.3h7.3v-2.6h2.2v2.6h2.1a19.6,19.6,0,0,0-1.3-1.7l1.6-.8a17.4,17.4,0,0,1,1.6,1.8l-1.2.7h1.7v1.8h-4.5a42.3,42.3,0,0,0,.4,4.3,23.1,23.1,0,0,0,1.8-3.5l1.9.9a28.2,28.2,0,0,1-3.1,5.4c.4,1,.8,1.5,1.1,1.5l.3-.2a7.1,7.1,0,0,0,.2-1.2,10.4,10.4,0,0,0,.2-1.5,21.6,21.6,0,0,0,2,.9,11.5,11.5,0,0,1-.4,2.2,2.7,2.7,0,0,1-.9,1.8,1.9,1.9,0,0,1-1.1.4c-1.2,0-2.1-.7-2.9-2.1a15.1,15.1,0,0,1-2.3,2.1,12.9,12.9,0,0,0-1.7-1.6,17.5,17.5,0,0,0,3.2-2.9,31.7,31.7,0,0,1-.8-6.5h-5.4v1.9h4.5c0,.1,0,1.1-.1,2.7a11.2,11.2,0,0,1-.4,3.1,2.6,2.6,0,0,1-.9.9A6.4,6.4,0,0,1,111.1,1065.1Z"/><path class="cls-5" d="M123.4,1064.5h7.9a55.4,55.4,0,0,0,3.3-7.8l2.3.8c-1,2.3-2,4.7-3.2,7h5v2.1H123.4Zm.4-10.1h6.4a12.5,12.5,0,0,0-1.1-1.8l2.2-1,1.4,2.3-1,.5h6.7v2.1H123.8Zm3.5,2.3c1.1,2.4,2,4.6,2.8,6.7l-2.3.8a54.6,54.6,0,0,0-2.6-6.7Z"/><g class="cls-4"><path d="M73.6,1140.8a1.4,1.4,0,0,0-.5-1.1,1.6,1.6,0,0,0-1.2-.4l-1.2.2a4.4,4.4,0,0,0-1.1.9v-1.1a2.8,2.8,0,0,1,1.1-.8l1.3-.2a2.7,2.7,0,0,1,2,.7,2.1,2.1,0,0,1,.7,1.7,3.4,3.4,0,0,1-.4,1.8,7.8,7.8,0,0,1-1.6,1.5l-1.5,1.1a1.3,1.3,0,0,0-.6.7,1.5,1.5,0,0,0-.1.7H75v1H69.3v-.4a3.2,3.2,0,0,1,.2-1.4,3,3,0,0,1,.7-1,6.9,6.9,0,0,1,1.5-1.3,6.9,6.9,0,0,0,1.5-1.3A2.8,2.8,0,0,0,73.6,1140.8Z"/><path d="M76.1,1143.2a7.5,7.5,0,0,1,.8-3.7,2.7,2.7,0,0,1,2.3-1.2c2,0,2.9,1.5,2.9,4.6a6,6,0,0,1-.8,3.6,2.6,2.6,0,0,1-2.3,1.2,2.4,2.4,0,0,1-2.1-1.2A5.9,5.9,0,0,1,76.1,1143.2Zm1.2-.1q0,3.6,1.8,3.6c1.3,0,1.9-1.2,1.9-3.6s-.6-3.8-1.8-3.8S77.3,1140.5,77.3,1143.1Z"/><path d="M86,1147.5v-7.7l-.9.6-1.2.4v-1.1a4.7,4.7,0,0,0,1.5-.6,4.8,4.8,0,0,0,1.3-.9h.4v9.3Z"/><path d="M90.3,1145a2.8,2.8,0,0,1,.4-1.5,2.7,2.7,0,0,1,1.2-.9,2,2,0,0,1-.9-.9,2,2,0,0,1-.3-1.1,2.7,2.7,0,0,1,.3-1.2,2.4,2.4,0,0,1,.9-.8,3,3,0,0,1,2.6,0,2.4,2.4,0,0,1,.9.8,1.9,1.9,0,0,1,.4,1.2,2.1,2.1,0,0,1-.4,1.1,2,2,0,0,1-.9.9,2.3,2.3,0,0,1,1.2,1,2.4,2.4,0,0,1,.5,1.4,3.3,3.3,0,0,1-.4,1.4,2.4,2.4,0,0,1-1.1.9,3,3,0,0,1-3,0,2.4,2.4,0,0,1-1.1-.9A3.2,3.2,0,0,1,90.3,1145Zm1.1-.1a1.7,1.7,0,0,0,.5,1.3,1.5,1.5,0,0,0,1.3.5,1.7,1.7,0,0,0,1.8-1.8,1.3,1.3,0,0,0-.5-1.2,1.9,1.9,0,0,0-2.6,0A1.7,1.7,0,0,0,91.4,1144.9Zm.3-4.2a1.6,1.6,0,0,0,.5,1.1,1.5,1.5,0,0,0,1,.4,2.1,2.1,0,0,0,1.1-.4,1.5,1.5,0,0,0,.4-1.1,1.3,1.3,0,0,0-.4-1,1.5,1.5,0,0,0-2.2,0A1.5,1.5,0,0,0,91.7,1140.7Z"/><path d="M96.9,1145.1h1.9v-3.3H103v-2.1H99.5a23.3,23.3,0,0,1-1.7,2.6l-.8-.6a11.4,11.4,0,0,0,2.5-4.2l1,.2a11.7,11.7,0,0,1-.5,1.1h8v.9h-4.1v2.1h3.9v.8h-3.9v2.5h4.7v.9h-4.7v3.1H103V1146H96.9Zm2.9,0H103v-2.5H99.8Z"/><path d="M114.7,1139.6l-1.5-.3a2.2,2.2,0,0,0-1.9,1,4.7,4.7,0,0,0-.7,2.8h0a2.1,2.1,0,0,1,2.1-1.3,2.6,2.6,0,0,1,1.9.8,3.2,3.2,0,0,1,.7,2,2.8,2.8,0,0,1-.9,2.2,2.5,2.5,0,0,1-2,.9,2.7,2.7,0,0,1-2.2-1.1,5.2,5.2,0,0,1-.8-3.1,6.3,6.3,0,0,1,1.1-3.8,3.1,3.1,0,0,1,2.7-1.4,3.3,3.3,0,0,1,1.5.3Zm-4,5a2.4,2.4,0,0,0,.4,1.5,1.8,1.8,0,0,0,1.3.6,1.7,1.7,0,0,0,1.2-.5,2.4,2.4,0,0,0,.5-1.4,2.7,2.7,0,0,0-.4-1.5,1.9,1.9,0,0,0-1.3-.5,2.1,2.1,0,0,0-1.3.5A2,2,0,0,0,110.7,1144.6Z"/><path d="M118.8,1145.1a8,8,0,0,1-1.8,4.1l-.8-.7a5.4,5.4,0,0,0,1.5-2.9,16.2,16.2,0,0,0,.3-3.5v-4h7.8v9.1c0,1.1-.5,1.7-1.6,1.7h-1.8c-.1-.3-.1-.6-.2-1h1.7c.6,0,1-.3,1-.9v-2Zm.1-.8h6V1142H119C119,1142.8,118.9,1143.5,118.9,1144.3Zm.1-5.4v2.3h5.9v-2.3Z"/></g><path class="cls-5" d="M80.7,1170.9H78.1l-5.1-7.8a6.4,6.4,0,0,1-.6-1h0v8.8H70v-12.1h2.8l4.9,7.6c.4.5.6.8.6,1h.1a7.2,7.2,0,0,1-.1-1.7v-6.9h2.4Z"/><path class="cls-5" d="M90.7,1170.9H83.5v-12.1h6.9v2.1H86.1v2.9h4v2.1h-4v2.9h4.6Z"/><path class="cls-5" d="M91.9,1165a6.5,6.5,0,0,1,1.7-4.6,6.2,6.2,0,0,1,8.6-.1,6.6,6.6,0,0,1,1.5,4.5,6.2,6.2,0,0,1-1.6,4.5,5.5,5.5,0,0,1-4.3,1.8,5.6,5.6,0,0,1-4.2-1.7A6,6,0,0,1,91.9,1165Zm2.7-.1a4.8,4.8,0,0,0,.9,2.9,2.8,2.8,0,0,0,2.3,1.1,3,3,0,0,0,2.4-1.1,4.3,4.3,0,0,0,.8-2.9,4.6,4.6,0,0,0-.8-3,2.7,2.7,0,0,0-2.3-1.1,3,3,0,0,0-2.4,1.1A4.9,4.9,0,0,0,94.6,1164.9Z"/><path class="cls-5" d="M105.6,1168.3a4.8,4.8,0,0,0,2.9.9,2.8,2.8,0,0,0,1.6-.5,1.5,1.5,0,0,0,.6-1.3,1.7,1.7,0,0,0-.7-1.3,4,4,0,0,0-2-.4h-1.1v-2h1c1.6,0,2.4-.5,2.4-1.6s-.6-1.6-1.9-1.6a4,4,0,0,0-2.3.8v-2.1a6.5,6.5,0,0,1,2.9-.6,4.7,4.7,0,0,1,2.8.8,2.5,2.5,0,0,1,1.1,2.2,2.8,2.8,0,0,1-2.4,3h0a3.4,3.4,0,0,1,2,.9,2.9,2.9,0,0,1,.8,1.9,3.2,3.2,0,0,1-1.3,2.7,5.1,5.1,0,0,1-3.4,1,6.7,6.7,0,0,1-3-.6Z"/><path class="cls-5" d="M116,1159.2h5.3l-.5-1.2,2.4-.5a8.7,8.7,0,0,1,.7,1.7H129v5.5H118.1c0,3.5-.7,6.2-2.1,8.2a11.9,11.9,0,0,0-1.5-1.8,12.8,12.8,0,0,0,1.5-6.5Zm10.9,3.6v-1.7h-8.8v1.7Zm-8.3,10.1v-6.7h10.3v6.7h-2.1v-.8h-6.2v.8Zm8.2-4.8h-6.2v2.1h6.2Z"/><path class="cls-5" d="M136.4,1165.4l1.7,4c.7-1.3,1.1-3.7,1-7.1h-1.5v-2.1h1.6v-2.6h2.1v2.6h4.1l-.2,8.9a20.8,20.8,0,0,1-.2,2.2,3,3,0,0,1-.4.8,1.9,1.9,0,0,1-.9.5l-2.8.2a20.5,20.5,0,0,0-.5-2.4h1.7l.7-.2.3-.5c0-.2,0-1,.1-2.4v-5.1h-2a29.1,29.1,0,0,1-.3,5,11.1,11.1,0,0,1-.8,3,13.1,13.1,0,0,1-1.7,2.8l-1.9-1.4.8-.9-4.3.3a3.9,3.9,0,0,0-1.5.4l-1-1.9c.5-.5,1.2-2.1,2-4.9h-1.9v-2h7.2v2h-3c-.5,1.5-1,2.9-1.6,4.3h2.6c-.4-1-.7-2-1.1-2.9Zm.8-4.7h-6v-2h6Z"/><g class="cls-4"><path d="M73.6,1249.8a1.4,1.4,0,0,0-.5-1.1,1.6,1.6,0,0,0-1.2-.4l-1.2.2a4.4,4.4,0,0,0-1.1.9v-1.1a2.8,2.8,0,0,1,1.1-.8l1.3-.2a2.7,2.7,0,0,1,2,.7,2.1,2.1,0,0,1,.7,1.7,3.4,3.4,0,0,1-.4,1.8,7.8,7.8,0,0,1-1.6,1.5l-1.5,1.1a1.3,1.3,0,0,0-.6.7,1.5,1.5,0,0,0-.1.7H75v1H69.3v-.4a3.2,3.2,0,0,1,.2-1.4,3,3,0,0,1,.7-1,6.9,6.9,0,0,1,1.5-1.3,6.9,6.9,0,0,0,1.5-1.3A2.8,2.8,0,0,0,73.6,1249.8Z"/><path d="M76.1,1252.2a7.5,7.5,0,0,1,.8-3.7,2.7,2.7,0,0,1,2.3-1.2c2,0,2.9,1.5,2.9,4.6a6,6,0,0,1-.8,3.6,2.6,2.6,0,0,1-2.3,1.2,2.4,2.4,0,0,1-2.1-1.2A5.9,5.9,0,0,1,76.1,1252.2Zm1.2-.1q0,3.6,1.8,3.6c1.3,0,1.9-1.2,1.9-3.6s-.6-3.8-1.8-3.8S77.3,1249.5,77.3,1252.1Z"/><path d="M86,1256.5v-7.7l-.9.6-1.2.4v-1.1a4.7,4.7,0,0,0,1.5-.6,4.8,4.8,0,0,0,1.3-.9h.4v9.3Z"/><path d="M90.8,1255.3a2.9,2.9,0,0,0,1.6.4,2.3,2.3,0,0,0,1.9-.9,5.5,5.5,0,0,0,.7-2.8h-.1a2,2,0,0,1-2,1.2,2.7,2.7,0,0,1-1.9-.8,2.8,2.8,0,0,1-.7-2.1,2.6,2.6,0,0,1,.8-2.1,2.7,2.7,0,0,1,2.1-.9,2.5,2.5,0,0,1,2.1,1.1,5.2,5.2,0,0,1,.8,3.1,6.1,6.1,0,0,1-1,3.8,3.1,3.1,0,0,1-2.7,1.4,3.8,3.8,0,0,1-1.6-.3Zm.6-5.1a2.5,2.5,0,0,0,.5,1.5,1.7,1.7,0,0,0,1.3.5,1.7,1.7,0,0,0,1.7-1.7,2.8,2.8,0,0,0-.5-1.6,1.5,1.5,0,0,0-1.3-.6,1.3,1.3,0,0,0-1.2.5A2.2,2.2,0,0,0,91.4,1250.2Z"/><path d="M96.9,1254.1h1.9v-3.3H103v-2.1H99.5a23.3,23.3,0,0,1-1.7,2.6l-.8-.6a11.4,11.4,0,0,0,2.5-4.2l1,.2a11.7,11.7,0,0,1-.5,1.1h8v.9h-4.1v2.1h3.9v.8h-3.9v2.5h4.7v.9h-4.7v3.1H103V1255H96.9Zm2.9,0H103v-2.5H99.8Z"/><path d="M113.7,1249.8a1.4,1.4,0,0,0-.4-1.1,1.8,1.8,0,0,0-1.3-.4l-1.1.2a3.1,3.1,0,0,0-1.1.9v-1.1a2.5,2.5,0,0,1,1-.8l1.3-.2a2.6,2.6,0,0,1,2,.7,2.1,2.1,0,0,1,.8,1.7,3.5,3.5,0,0,1-.5,1.8,4.7,4.7,0,0,1-1.6,1.5l-1.5,1.1a1.8,1.8,0,0,0-.5.7,1.4,1.4,0,0,0-.2.7h4.5v1h-5.7v-.4a5.9,5.9,0,0,1,.2-1.4,6.1,6.1,0,0,1,.7-1l1.6-1.3a4.5,4.5,0,0,0,1.4-1.3A2,2,0,0,0,113.7,1249.8Z"/><path d="M118.8,1254.1a8,8,0,0,1-1.8,4.1l-.8-.7a5.4,5.4,0,0,0,1.5-2.9,16.2,16.2,0,0,0,.3-3.5v-4h7.8v9.1c0,1.1-.5,1.7-1.6,1.7h-1.8c-.1-.3-.1-.6-.2-1h1.7c.6,0,1-.3,1-.9v-2Zm.1-.8h6V1251H119C119,1251.8,118.9,1252.5,118.9,1253.3Zm.1-5.4v2.3h5.9v-2.3Z"/></g><path class="cls-5" d="M71.4,1266.5h2.1l-.5,1.1h3.8v1.4a6.4,6.4,0,0,0,1.5-2.5h2.2a11.7,11.7,0,0,1-.5,1.1h4.2v1.5H81.5l1,.9-1,.7h1.7v4.3H77.8v1h6.1a12.5,12.5,0,0,1-.4,4.2l-.9.8a11.2,11.2,0,0,1-3.7.3,14.6,14.6,0,0,0-.5-2h2.9l.4-.5c0-.2.1-.6.1-1.1h-4v4.3H75.6v-3.9a14.9,14.9,0,0,1-5.6,3.8l-1.2-1.9a15.2,15.2,0,0,0,4.6-2.3H69.7l.8-4.3h5.1v-1H70.3v-1.3l-.4.3a8.6,8.6,0,0,0-1.3-1.4A11.4,11.4,0,0,0,71.4,1266.5Zm1.3,3.1.6-.5H72a10.7,10.7,0,0,1-1.4,1.6h3.2Zm-.6,6.4h3.5v-1H72.2Zm2.3-6.9a5.2,5.2,0,0,1,1.1,1l-.8.6h3.2l-1.6-1,.5-.6Zm6.7,4.3v-1H77.8v1Zm-3.1-2.7h2.9l-1.2-1.1.6-.5H79.2A6.1,6.1,0,0,1,78,1270.7Z"/><path class="cls-5" d="M85.1,1277.9h15v2.4h-15Zm1.1-9.6H99v2.3H86.2Z"/><path class="cls-5" d="M102.3,1267.2h13.2v4.9h-11a30.7,30.7,0,0,1-.5,6.4,15.2,15.2,0,0,1-1.5,3.4,17.2,17.2,0,0,0-1.7-1.9,9.9,9.9,0,0,0,1.1-2.3,22.4,22.4,0,0,0,.4-5.4Zm11,3.1V1269h-8.8v1.3Zm-8.4,11.7v-8.6h4.2v-1.1h2.1v1.1h4.3v8.6h-2.1v-.8H107v.8Zm2.1-5.5h2.1v-1.4H107Zm0,3h2.1v-1.3H107Zm6.4-4.4h-2.2v1.4h2.2Zm-2.2,4.4h2.2v-1.3h-2.2Z"/><path class="cls-5" d="M116.9,1273.3h3.6v-3.8h-2.8v-2h14v2h-2.5v3.8h3.1v2.1h-3.1v6.4h-2.3v-6.4h-4.2a6.7,6.7,0,0,1-3.8,6.7l-2-1.6a6.5,6.5,0,0,0,2.4-1.9,5.5,5.5,0,0,0,1.1-3.2h-3.5Zm5.9,0h4.1v-3.8h-4.1Z"/><path class="cls-5" d="M146.7,1274.7a13.6,13.6,0,0,1-3.1,3.7,20.8,20.8,0,0,0,4.8,1.2l-1.4,2.3a19,19,0,0,1-5.4-2.1,27.4,27.4,0,0,1-5.4,2.3l-1.2-2a42.4,42.4,0,0,0,4.7-1.7,16.4,16.4,0,0,1-2.1-2.5,22.2,22.2,0,0,1-4.1,4.9c-.3-1-.5-1.8-.7-2.6a18.5,18.5,0,0,0,4.5-6.6h-3.9v-1.9a27.6,27.6,0,0,0,.8-2.7l2.1.2a17.6,17.6,0,0,1-.6,2.5h2.2c.3-.9.5-2,.8-3.1h2.2l-.6,3h4.3a15.3,15.3,0,0,0-1.8-1.8l1.4-1.3a30.4,30.4,0,0,1,2.5,2.1l-1,1h2.6v1.9h-8.6l-.6,1.4h7.6Zm-5.1,2.6a9.9,9.9,0,0,0,2.5-2.5h-4.7A7.5,7.5,0,0,0,141.6,1277.3Z"/><path class="cls-5" d="M148.9,1270.9h5.4v-1.2h-4.1v-1.8h4.1v-1.4h2.1v1.4h3.8v1.7a22,22,0,0,0,2-2.3l1.6,1.2a17.5,17.5,0,0,1-2.3,2.4h2.9v1.9h-5.2l-2,1.2h5.5v8h-2.2v-.6h-7.3v.6h-2.1v-5.6l-1.6.5c-.2-.6-.4-1.3-.7-2a27.3,27.3,0,0,0,7.1-2.1h-7Zm11.6,4.8h-7.3v1.1h7.3Zm-7.3,3.9h7.3v-1.1h-7.3Zm6.8-9.9h-3.6v1.2h2.3A4.9,4.9,0,0,0,160,1269.7Z"/><path class="cls-5" d="M165.1,1270.6h6.2c.1-1.2.1-2.5.1-4h2.4c-.1,1.6-.1,2.9-.2,4h6.5v2.1h-6.3a9.6,9.6,0,0,0,6.5,7l-1.8,2.2a11.3,11.3,0,0,1-5.9-6.4,11.4,11.4,0,0,1-6,6.5l-1.8-2c3.8-1.7,5.9-4.1,6.3-7.3h-6Z"/><path class="cls-5" d="M190.3,1266.6l-.4.5a15.1,15.1,0,0,0,6.5,5.1,9.8,9.8,0,0,0-1.4,1.8,11.6,11.6,0,0,1-2.2-1.3v1.1h-8.4v-1.2l-2.2,1.4-1.4-1.9c3.4-1.8,5.7-3.6,6.8-5.5Zm-8.9,8.5h14.4v1.9h-3.9l3.2,4.1-1.9,1.1a3.6,3.6,0,0,1-.7-1l-7.5.4-1.6.2-1-1.9a13.2,13.2,0,0,0,2.9-2.9h-3.9Zm7.2-6.2a22.3,22.3,0,0,1-3.1,2.9h6.1A16.6,16.6,0,0,1,188.6,1268.9Zm1.4,9,1.3-.9H188a19.9,19.9,0,0,1-2.1,2.4H191Z"/><path class="cls-5" d="M69.5,1301.1v-10.7h4.1v-1.8H69v-2H84.2v2H79.3v1.8h4.3v10.7H81.4v-1H71.7v1Zm7.7-6.4v-2.4H75.7a6.3,6.3,0,0,1-2.3,5.2l-1.7-1.3v1.9h9.7v-1.6H79.1C77.8,1296.5,77.2,1295.9,77.2,1294.7Zm-5.5,1.4a4.4,4.4,0,0,0,1.9-3.8H71.7Zm4-5.7h1.5v-1.8H75.7Zm5.7,1.9H79.3v1.5c0,.5.3.7.8.7h1.3Z"/><path class="cls-5" d="M84.7,1297.3a12.7,12.7,0,0,0,2.6-3.6H85.1v-1.5l.6-3.2h1.8l-.5,3.1h1.3v-3.9H85.1v-1.7h6.1v1.7h-1v2.2a16.7,16.7,0,0,0,2.8-4.7l1.8.5a10,10,0,0,1-1,2.1h2.4c-.4-.8-.8-1.4-1.1-1.9l1.6-.7,1.4,2.1-1.2.5H100v1.7H97.6v1.7h2.3v1.7H97.6v1.7h2.3v1.6H97.6v1.8h2.6v1.6H93.5v1.1H91.6v-9.7l-.4.4-1-1.5v1.7h.9v1.6h-.9v5.6a1.8,1.8,0,0,1-.7,1.5,4.1,4.1,0,0,1-1.9.4h-1c-.1-.8-.3-1.4-.4-2h1.4a.6.6,0,0,0,.7-.7v-3.4a13.4,13.4,0,0,1-2.8,4.2A8.4,8.4,0,0,0,84.7,1297.3Zm8.8-5.6h2.2V1290H93.5Zm0,3.4h2.2v-1.7H93.5Zm0,3.4h2.2v-1.8H93.5Z"/><path class="cls-5" d="M101.5,1301.2v-14.8h14.1v14.8h-2.1v-.6h-9.8v.6Zm5.1-12.9h-2.9v2.7A9.5,9.5,0,0,0,106.6,1288.3Zm-1.9,3.9-1-1v1.9l3.1-.7-1-1Zm.1,3.6,7.7,1.2-.4,1.7h1.4v-5.6c-.3.4-.5.9-.9,1.4a15.6,15.6,0,0,1-4-1.1,12.7,12.7,0,0,1-1.8.6l5,.8-.3,1.5-5.8-.9.3-1.1-1.6.3-.7-1.4v5.5H112a59.9,59.9,0,0,0-7.7-1.2Zm3.8-4.1a5,5,0,0,0,1.8-1.1H107A6.4,6.4,0,0,0,108.6,1291.7Zm4.2-2.6v1.3a8.5,8.5,0,0,1-2.2,2l2.9.5v-4.6h-4.8l-.6.8Z"/><g class="cls-4"><path d="M73.6,1370.8a1.4,1.4,0,0,0-.5-1.1,1.6,1.6,0,0,0-1.2-.4l-1.2.2a4.4,4.4,0,0,0-1.1.9v-1.1a2.8,2.8,0,0,1,1.1-.8l1.3-.2a2.7,2.7,0,0,1,2,.7,2.1,2.1,0,0,1,.7,1.7,3.4,3.4,0,0,1-.4,1.8,7.8,7.8,0,0,1-1.6,1.5l-1.5,1.1a1.3,1.3,0,0,0-.6.7,1.5,1.5,0,0,0-.1.7H75v1H69.3v-.4a3.2,3.2,0,0,1,.2-1.4,3,3,0,0,1,.7-1,6.9,6.9,0,0,1,1.5-1.3,6.9,6.9,0,0,0,1.5-1.3A2.8,2.8,0,0,0,73.6,1370.8Z"/><path d="M76.1,1373.2a7.5,7.5,0,0,1,.8-3.7,2.7,2.7,0,0,1,2.3-1.2c2,0,2.9,1.5,2.9,4.6a6,6,0,0,1-.8,3.6,2.6,2.6,0,0,1-2.3,1.2,2.4,2.4,0,0,1-2.1-1.2A5.9,5.9,0,0,1,76.1,1373.2Zm1.2-.1q0,3.6,1.8,3.6c1.3,0,1.9-1.2,1.9-3.6s-.6-3.8-1.8-3.8S77.3,1370.5,77.3,1373.1Z"/><path d="M86,1377.5v-7.7l-.9.6-1.2.4v-1.1a4.7,4.7,0,0,0,1.5-.6,4.8,4.8,0,0,0,1.3-.9h.4v9.3Z"/><path d="M90.8,1376.3a2.9,2.9,0,0,0,1.6.4,2.3,2.3,0,0,0,1.9-.9,5.5,5.5,0,0,0,.7-2.8h-.1a2,2,0,0,1-2,1.2,2.7,2.7,0,0,1-1.9-.8,2.8,2.8,0,0,1-.7-2.1,2.6,2.6,0,0,1,.8-2.1,2.7,2.7,0,0,1,2.1-.9,2.5,2.5,0,0,1,2.1,1.1,5.2,5.2,0,0,1,.8,3.1,6.1,6.1,0,0,1-1,3.8,3.1,3.1,0,0,1-2.7,1.4,3.8,3.8,0,0,1-1.6-.3Zm.6-5.1a2.5,2.5,0,0,0,.5,1.5,1.7,1.7,0,0,0,1.3.5,1.7,1.7,0,0,0,1.7-1.7,2.8,2.8,0,0,0-.5-1.6,1.5,1.5,0,0,0-1.3-.6,1.3,1.3,0,0,0-1.2.5A2.2,2.2,0,0,0,91.4,1371.2Z"/><path d="M96.9,1375.1h1.9v-3.3H103v-2.1H99.5a23.3,23.3,0,0,1-1.7,2.6l-.8-.6a11.4,11.4,0,0,0,2.5-4.2l1,.2a11.7,11.7,0,0,1-.5,1.1h8v.9h-4.1v2.1h3.9v.8h-3.9v2.5h4.7v.9h-4.7v3.1H103V1376H96.9Zm2.9,0H103v-2.5H99.8Z"/><path d="M109.8,1376.3a2.9,2.9,0,0,0,1.6.4,2.2,2.2,0,0,0,1.9-.9,4.7,4.7,0,0,0,.7-2.8h0a2.1,2.1,0,0,1-2,1.2,2.6,2.6,0,0,1-1.9-.8,2.9,2.9,0,0,1-.8-2.1,3,3,0,0,1,.8-2.1,2.9,2.9,0,0,1,2.2-.9,2.5,2.5,0,0,1,2.1,1.1,5.3,5.3,0,0,1,.7,3.1,6.9,6.9,0,0,1-.9,3.8,3.4,3.4,0,0,1-2.8,1.4,4.1,4.1,0,0,1-1.6-.3Zm.7-5.1a2.4,2.4,0,0,0,.4,1.5,2.1,2.1,0,0,0,1.3.5,1.7,1.7,0,0,0,1.2-.5,1.3,1.3,0,0,0,.5-1.2,2.2,2.2,0,0,0-.5-1.6,1.4,1.4,0,0,0-1.2-.6,1.3,1.3,0,0,0-1.2.5A1.7,1.7,0,0,0,110.5,1371.2Z"/><path d="M118.8,1375.1a8,8,0,0,1-1.8,4.1l-.8-.7a5.4,5.4,0,0,0,1.5-2.9,16.2,16.2,0,0,0,.3-3.5v-4h7.8v9.1c0,1.1-.5,1.7-1.6,1.7h-1.8c-.1-.3-.1-.6-.2-1h1.7c.6,0,1-.3,1-.9v-2Zm.1-.8h6V1372H119C119,1372.8,118.9,1373.5,118.9,1374.3Zm.1-5.4v2.3h5.9v-2.3Z"/></g><path class="cls-5" d="M71.4,1387.5h2.1l-.5,1.1h3.8v1.4a6.4,6.4,0,0,0,1.5-2.5h2.2a11.7,11.7,0,0,1-.5,1.1h4.2v1.5H81.5l1,.9-1,.7h1.7v4.3H77.8v1h6.1a12.5,12.5,0,0,1-.4,4.2l-.9.8a11.2,11.2,0,0,1-3.7.3,14.6,14.6,0,0,0-.5-2h2.9l.4-.5c0-.2.1-.6.1-1.1h-4v4.3H75.6v-3.9a14.9,14.9,0,0,1-5.6,3.8l-1.2-1.9a15.2,15.2,0,0,0,4.6-2.3H69.7l.8-4.3h5.1v-1H70.3v-1.3l-.4.3a8.6,8.6,0,0,0-1.3-1.4A11.4,11.4,0,0,0,71.4,1387.5Zm1.3,3.1.6-.5H72a10.7,10.7,0,0,1-1.4,1.6h3.2Zm-.6,6.4h3.5v-1H72.2Zm2.3-6.9a5.2,5.2,0,0,1,1.1,1l-.8.6h3.2l-1.6-1,.5-.6Zm6.7,4.3v-1H77.8v1Zm-3.1-2.7h2.9l-1.2-1.1.6-.5H79.2A6.1,6.1,0,0,1,78,1391.7Z"/><path class="cls-5" d="M85,1394.1h15.1v2.3H85Z"/><path class="cls-5" d="M102.3,1388.2h13.2v4.9h-11a30.7,30.7,0,0,1-.5,6.4,15.2,15.2,0,0,1-1.5,3.4,17.2,17.2,0,0,0-1.7-1.9,9.9,9.9,0,0,0,1.1-2.3,22.4,22.4,0,0,0,.4-5.4Zm11,3.1V1390h-8.8v1.3Zm-8.4,11.7v-8.6h4.2v-1.1h2.1v1.1h4.3v8.6h-2.1v-.8H107v.8Zm2.1-5.5h2.1v-1.4H107Zm0,3h2.1v-1.3H107Zm6.4-4.4h-2.2v1.4h2.2Zm-2.2,4.4h2.2v-1.3h-2.2Z"/><path class="cls-5" d="M128.7,1400.9h-2.6l-5.1-7.8a6.4,6.4,0,0,1-.6-1h0v8.8H118v-12.1h2.8l4.9,7.6c.4.5.6.8.6,1h.1a7.2,7.2,0,0,1-.1-1.7v-6.9h2.4Z"/><path class="cls-5" d="M138.7,1400.9h-7.2v-12.1h6.9v2.1h-4.3v2.9h4v2.1h-4v2.9h4.6Z"/><path class="cls-5" d="M139.9,1395a6.5,6.5,0,0,1,1.7-4.6,6.2,6.2,0,0,1,8.6-.1,6.6,6.6,0,0,1,1.5,4.5,6.2,6.2,0,0,1-1.6,4.5,5.5,5.5,0,0,1-4.3,1.8,5.6,5.6,0,0,1-4.2-1.7A6,6,0,0,1,139.9,1395Zm2.7-.1a4.8,4.8,0,0,0,.9,2.9,2.8,2.8,0,0,0,2.3,1.1,3,3,0,0,0,2.4-1.1,4.3,4.3,0,0,0,.8-2.9,4.6,4.6,0,0,0-.8-3,2.7,2.7,0,0,0-2.3-1.1,3,3,0,0,0-2.4,1.1A4.9,4.9,0,0,0,142.6,1394.9Z"/><path class="cls-5" d="M156,1387.5l1.5,2.1-1.6.8h2.4v1.8l-1.5,2.7v.7l.8-.8,2,1.9-1.5,1.3-1.3-1.6v6.5h-2.2v-5.3l-1.4,1.4c-.2-1-.4-1.9-.6-2.6a12.8,12.8,0,0,0,3.2-3.9h-3v-2.1h2.7l-1.4-2Zm2,12.9h4.1V1394H159v-2h3.1v-4.3h2.3v4.3h3.2v2h-3.2v6.4h3.7v2H158Z"/><path class="cls-5" d="M171.8,1400.2h12.1v2.1H169.6v-13.8h13.9v2.1H171.8Zm.6-7.9,1.5-1.5,3.5,3a36.5,36.5,0,0,0,2.4-3.1l2,1.2c-.9,1.2-1.8,2.3-2.8,3.4l3.5,3.2-1.8,1.7-3.3-3.3a29.1,29.1,0,0,1-3.7,3.3,14.9,14.9,0,0,0-1.5-1.7,36.5,36.5,0,0,0,3.6-3.1Z"/><path class="cls-5" d="M184.9,1391.6h6.2c.1-1.2.1-2.5.1-4h2.4c-.1,1.6-.1,2.9-.2,4h6.5v2.1h-6.3a9.6,9.6,0,0,0,6.5,7l-1.8,2.2a11.3,11.3,0,0,1-5.9-6.4,11.4,11.4,0,0,1-6,6.5l-1.8-2c3.8-1.7,5.9-4.1,6.3-7.3h-6Z"/><path class="cls-5" d="M210.1,1387.6l-.4.5a15.1,15.1,0,0,0,6.5,5.1,17.9,17.9,0,0,0-1.4,1.8l-2.2-1.3v1.1h-8.4v-1.2L202,1395l-1.4-1.9c3.4-1.8,5.7-3.6,6.8-5.5Zm-8.9,8.5h14.4v1.9h-3.9l3.2,4.1-1.9,1.1a8.6,8.6,0,0,1-.7-1l-7.5.4-1.6.2-1-1.9a11.4,11.4,0,0,0,2.9-2.9h-3.9Zm7.2-6.2a17.8,17.8,0,0,1-3.1,2.9h6.1A16.6,16.6,0,0,1,208.4,1389.9Zm1.4,9,1.3-.9h-3.3c-.5.7-1.2,1.5-2,2.4h5Z"/><path class="cls-5" d="M69,1419.2h5.8v-12.3h2.6v4.3h5.7v2.3H77.4v5.7h6.8v2.2H69Z"/><path class="cls-5" d="M86.1,1411l2.5,1.9-1.4,1.7-2.4-2.1Zm.5,4.6,2.1.8c-.5,1.7-1,3.7-1.5,5.7l-2.1-.6A38.9,38.9,0,0,0,86.6,1415.6Zm0-8.8,2.5,2-1.5,1.6-2.4-2.1Zm1.7,7.7h1.4l.3-2.5-.8.7-1.2-1.6a17.3,17.3,0,0,0,3.1-4.3l2.2.3a4.1,4.1,0,0,1-.5.9H100v1.6H91.8l-.7,1.1h8v3.8h1.2v1.6H99v2.1h1.2v1.6H99a3.1,3.1,0,0,1-.5,1.7,2,2,0,0,1-1.4.5H93.8c-.2-.5-.3-1-.5-1.6h3.2c.2-.1.3-.3.4-.7H89.2l.4-3.7H88.3Zm4.4,2.5,1-.9H91.6l-.2,2.1h3Zm.1-3.8.9-.9H92l-.2,2.2h2.7Zm3.1,4.1-.9.9h1.9v-2.1H94.1Zm0-3.8-1,1H97v-2.2H94.2Z"/><g class="cls-4"><path d="M73.6,1501.8a1.4,1.4,0,0,0-.5-1.1,1.6,1.6,0,0,0-1.2-.4l-1.2.2a4.4,4.4,0,0,0-1.1.9v-1.1a2.8,2.8,0,0,1,1.1-.8l1.3-.2a2.7,2.7,0,0,1,2,.7,2.1,2.1,0,0,1,.7,1.7,3.4,3.4,0,0,1-.4,1.8,7.8,7.8,0,0,1-1.6,1.5l-1.5,1.1a1.3,1.3,0,0,0-.6.7,1.5,1.5,0,0,0-.1.7H75v1H69.3v-.4a3.2,3.2,0,0,1,.2-1.4,3,3,0,0,1,.7-1,6.9,6.9,0,0,1,1.5-1.3,6.9,6.9,0,0,0,1.5-1.3A2.8,2.8,0,0,0,73.6,1501.8Z"/><path d="M76.1,1504.2a7.5,7.5,0,0,1,.8-3.7,2.7,2.7,0,0,1,2.3-1.2c2,0,2.9,1.5,2.9,4.6a6,6,0,0,1-.8,3.6,2.6,2.6,0,0,1-2.3,1.2,2.4,2.4,0,0,1-2.1-1.2A5.9,5.9,0,0,1,76.1,1504.2Zm1.2-.1q0,3.6,1.8,3.6c1.3,0,1.9-1.2,1.9-3.6s-.6-3.8-1.8-3.8S77.3,1501.5,77.3,1504.1Z"/><path d="M86,1508.5v-7.7l-.9.6-1.2.4v-1.1a4.7,4.7,0,0,0,1.5-.6,4.8,4.8,0,0,0,1.3-.9h.4v9.3Z"/><path d="M90.8,1507.3a2.9,2.9,0,0,0,1.6.4,2.3,2.3,0,0,0,1.9-.9,5.5,5.5,0,0,0,.7-2.8h-.1a2,2,0,0,1-2,1.2,2.7,2.7,0,0,1-1.9-.8,2.8,2.8,0,0,1-.7-2.1,2.6,2.6,0,0,1,.8-2.1,2.7,2.7,0,0,1,2.1-.9,2.5,2.5,0,0,1,2.1,1.1,5.2,5.2,0,0,1,.8,3.1,6.1,6.1,0,0,1-1,3.8,3.1,3.1,0,0,1-2.7,1.4,3.8,3.8,0,0,1-1.6-.3Zm.6-5.1a2.5,2.5,0,0,0,.5,1.5,1.7,1.7,0,0,0,1.3.5,1.7,1.7,0,0,0,1.7-1.7,2.8,2.8,0,0,0-.5-1.6,1.5,1.5,0,0,0-1.3-.6,1.3,1.3,0,0,0-1.2.5A2.2,2.2,0,0,0,91.4,1502.2Z"/><path d="M96.9,1506.1h1.9v-3.3H103v-2.1H99.5a23.3,23.3,0,0,1-1.7,2.6l-.8-.6a11.4,11.4,0,0,0,2.5-4.2l1,.2a11.7,11.7,0,0,1-.5,1.1h8v.9h-4.1v2.1h3.9v.8h-3.9v2.5h4.7v.9h-4.7v3.1H103V1507H96.9Zm2.9,0H103v-2.5H99.8Z"/><path d="M109.8,1507.3a2.9,2.9,0,0,0,1.6.4,2.2,2.2,0,0,0,1.9-.9,4.7,4.7,0,0,0,.7-2.8h0a2.1,2.1,0,0,1-2,1.2,2.6,2.6,0,0,1-1.9-.8,2.9,2.9,0,0,1-.8-2.1,3,3,0,0,1,.8-2.1,2.9,2.9,0,0,1,2.2-.9,2.5,2.5,0,0,1,2.1,1.1,5.3,5.3,0,0,1,.7,3.1,6.9,6.9,0,0,1-.9,3.8,3.4,3.4,0,0,1-2.8,1.4,4.1,4.1,0,0,1-1.6-.3Zm.7-5.1a2.4,2.4,0,0,0,.4,1.5,2.1,2.1,0,0,0,1.3.5,1.7,1.7,0,0,0,1.2-.5,1.3,1.3,0,0,0,.5-1.2,2.2,2.2,0,0,0-.5-1.6,1.4,1.4,0,0,0-1.2-.6,1.3,1.3,0,0,0-1.2.5A1.7,1.7,0,0,0,110.5,1502.2Z"/><path d="M118.8,1506.1a8,8,0,0,1-1.8,4.1l-.8-.7a5.4,5.4,0,0,0,1.5-2.9,16.2,16.2,0,0,0,.3-3.5v-4h7.8v9.1c0,1.1-.5,1.7-1.6,1.7h-1.8c-.1-.3-.1-.6-.2-1h1.7c.6,0,1-.3,1-.9v-2Zm.1-.8h6V1503H119C119,1503.8,118.9,1504.5,118.9,1505.3Zm.1-5.4v2.3h5.9v-2.3Z"/></g><path class="cls-5" d="M80.7,1531.9H78.1l-5.1-7.8a6.4,6.4,0,0,1-.6-1h0v8.8H70v-12.1h2.8l4.9,7.6c.4.5.6.8.6,1h.1a7.2,7.2,0,0,1-.1-1.7v-6.9h2.4Z"/><path class="cls-5" d="M90.7,1531.9H83.5v-12.1h6.9v2.1H86.1v2.9h4v2.1h-4v2.9h4.6Z"/><path class="cls-5" d="M91.9,1526a6.5,6.5,0,0,1,1.7-4.6,6.2,6.2,0,0,1,8.6-.1,6.6,6.6,0,0,1,1.5,4.5,6.2,6.2,0,0,1-1.6,4.5,5.5,5.5,0,0,1-4.3,1.8,5.6,5.6,0,0,1-4.2-1.7A6,6,0,0,1,91.9,1526Zm2.7-.1a4.8,4.8,0,0,0,.9,2.9,2.8,2.8,0,0,0,2.3,1.1,3,3,0,0,0,2.4-1.1,4.3,4.3,0,0,0,.8-2.9,4.6,4.6,0,0,0-.8-3,2.7,2.7,0,0,0-2.3-1.1,3,3,0,0,0-2.4,1.1A4.9,4.9,0,0,0,94.6,1525.9Z"/><path class="cls-5" d="M105.6,1529.3a4.8,4.8,0,0,0,2.9.9,2.8,2.8,0,0,0,1.6-.5,1.5,1.5,0,0,0,.6-1.3,1.7,1.7,0,0,0-.7-1.3,4,4,0,0,0-2-.4h-1.1v-2h1c1.6,0,2.4-.5,2.4-1.6s-.6-1.6-1.9-1.6a4,4,0,0,0-2.3.8v-2.1a6.5,6.5,0,0,1,2.9-.6,4.7,4.7,0,0,1,2.8.8,2.5,2.5,0,0,1,1.1,2.2,2.8,2.8,0,0,1-2.4,3h0a3.4,3.4,0,0,1,2,.9,2.9,2.9,0,0,1,.8,1.9,3.2,3.2,0,0,1-1.3,2.7,5.1,5.1,0,0,1-3.4,1,6.7,6.7,0,0,1-3-.6Z"/><path class="cls-5" d="M123,1527.7v4.2h-2.6v-12.1h4.2c3,0,4.5,1.3,4.5,3.8a3.6,3.6,0,0,1-1.4,3,5.3,5.3,0,0,1-3.4,1.1Zm0-5.9v3.9h1.1c1.5,0,2.3-.7,2.3-2s-.8-1.9-2.3-1.9Z"/><path class="cls-5" d="M136.2,1525.5l-1.1-.2a1.8,1.8,0,0,0-1.4.6,3.5,3.5,0,0,0-.5,1.8v4.2h-2.5v-8.6h2.5v1.6h0a2.4,2.4,0,0,1,2.3-1.8h.7Z"/><path class="cls-5" d="M145.1,1528.3h-5.7c.1,1.3.9,2,2.4,2a4.1,4.1,0,0,0,2.5-.7v1.8a5.7,5.7,0,0,1-3.1.7,4,4,0,0,1-4.3-4.4,4.9,4.9,0,0,1,1.2-3.4,4.2,4.2,0,0,1,3.1-1.3,3.5,3.5,0,0,1,2.8,1.2,4.1,4.1,0,0,1,1.1,3Zm-2.4-1.6c0-1.3-.5-1.9-1.6-1.9a1.3,1.3,0,0,0-1.1.5,3,3,0,0,0-.6,1.4Z"/><path class="cls-5" d="M154.8,1523.3l-3.3,8.6h-2.8l-3.1-8.6h2.7l1.6,5.4a4.9,4.9,0,0,1,.3,1.5h0l.3-1.5,1.6-5.4Z"/><path class="cls-5" d="M155.7,1520.5a1.3,1.3,0,0,1,.4-1,1.8,1.8,0,0,1,1.1-.3,1.5,1.5,0,0,1,1,.3,1.3,1.3,0,0,1,.4,1,1.1,1.1,0,0,1-.4.9,1.2,1.2,0,0,1-1,.4,1.5,1.5,0,0,1-1.1-.4A1.1,1.1,0,0,1,155.7,1520.5Zm.2,11.4v-8.6h2.5v8.6Z"/><path class="cls-5" d="M168.3,1528.3h-5.6c0,1.3.9,2,2.4,2a4.3,4.3,0,0,0,2.5-.7v1.8a5.7,5.7,0,0,1-3.1.7,4.2,4.2,0,0,1-3.2-1.2,4,4,0,0,1-1.1-3.2,4.9,4.9,0,0,1,1.2-3.4,4.2,4.2,0,0,1,3-1.3,3.6,3.6,0,0,1,2.9,1.2,4,4,0,0,1,1,3Zm-2.3-1.6c0-1.3-.5-1.9-1.6-1.9a1.3,1.3,0,0,0-1.1.5,2.3,2.3,0,0,0-.7,1.4Z"/><path class="cls-5" d="M182.3,1523.3l-2.5,8.6h-2.6l-1.4-5.2a3.7,3.7,0,0,1-.1-1.1h-.1c0,.4-.1.8-.1,1.1l-1.5,5.2h-2.6l-2.4-8.6h2.5l1.3,5.7a2.2,2.2,0,0,1,.1.9h.1c0-.4.1-.7.1-.9l1.6-5.7h2.4l1.4,5.7a3.4,3.4,0,0,0,.1.9h0a5.1,5.1,0,0,1,.2-.9l1.2-5.7Z"/><path class="cls-5" d="M189.2,1519.5v12.4h-2.5v-9.5a5,5,0,0,1-1.3.7,4.2,4.2,0,0,1-1.5.4v-2.2a9.8,9.8,0,0,0,3.7-1.8Z"/><path class="cls-5" d="M211.2,1526.7a13.6,13.6,0,0,1-3.1,3.7,20.8,20.8,0,0,0,4.8,1.2l-1.4,2.3a19,19,0,0,1-5.4-2.1,27.4,27.4,0,0,1-5.4,2.3l-1.2-2a42.4,42.4,0,0,0,4.7-1.7,25.2,25.2,0,0,1-2.1-2.5,22.2,22.2,0,0,1-4.1,4.9c-.2-1-.5-1.8-.7-2.6a18.5,18.5,0,0,0,4.5-6.6h-3.9v-1.9a27.6,27.6,0,0,0,.8-2.7l2.1.2a17.6,17.6,0,0,1-.6,2.5h2.3c.2-.9.4-2,.7-3.1h2.2l-.6,3h4.4l-1.8-1.8,1.3-1.3a30.4,30.4,0,0,1,2.5,2.1l-1,1h2.6v1.9h-8.6l-.6,1.4h7.6Zm-5.1,2.6a9.9,9.9,0,0,0,2.5-2.5h-4.7A8.8,8.8,0,0,0,206.1,1529.3Z"/><path class="cls-5" d="M222.9,1534h-2.2v-7.2h-2.5v6h-2.1v-5a18,18,0,0,1-2,1.9l-.7-2.2a18.3,18.3,0,0,0,4-4.9h-3.8v-2.1h4.8a10.7,10.7,0,0,0,.7-1.9l2.2.3-.6,1.6h8v2.1h-9c-.4.8-.9,1.6-1.4,2.4h2.4v-2h2.2v2h4.7v5a2.5,2.5,0,0,1-.4,1.6,1.9,1.9,0,0,1-1.2.7h-2.1c-.2-.8-.3-1.5-.4-2h1c.6,0,1-.3,1-1.1v-2.5h-2.6Z"/><g class="cls-4"><path d="M73.6,1625.8a1.4,1.4,0,0,0-.5-1.1,1.6,1.6,0,0,0-1.2-.4l-1.2.2a4.4,4.4,0,0,0-1.1.9v-1.1a2.8,2.8,0,0,1,1.1-.8l1.3-.2a2.7,2.7,0,0,1,2,.7,2.1,2.1,0,0,1,.7,1.7,3.4,3.4,0,0,1-.4,1.8,7.8,7.8,0,0,1-1.6,1.5l-1.5,1.1a1.3,1.3,0,0,0-.6.7,1.5,1.5,0,0,0-.1.7H75v1H69.3v-.4a3.2,3.2,0,0,1,.2-1.4,3,3,0,0,1,.7-1,6.9,6.9,0,0,1,1.5-1.3,6.9,6.9,0,0,0,1.5-1.3A2.8,2.8,0,0,0,73.6,1625.8Z"/><path d="M76.1,1628.2a7.5,7.5,0,0,1,.8-3.7,2.7,2.7,0,0,1,2.3-1.2c2,0,2.9,1.5,2.9,4.6a6,6,0,0,1-.8,3.6,2.6,2.6,0,0,1-2.3,1.2,2.4,2.4,0,0,1-2.1-1.2A5.9,5.9,0,0,1,76.1,1628.2Zm1.2-.1q0,3.6,1.8,3.6c1.3,0,1.9-1.2,1.9-3.6s-.6-3.8-1.8-3.8S77.3,1625.5,77.3,1628.1Z"/><path d="M86,1632.5v-7.7l-.9.6-1.2.4v-1.1a4.7,4.7,0,0,0,1.5-.6,4.8,4.8,0,0,0,1.3-.9h.4v9.3Z"/><path d="M90.8,1631.3a2.9,2.9,0,0,0,1.6.4,2.3,2.3,0,0,0,1.9-.9,5.5,5.5,0,0,0,.7-2.8h-.1a2,2,0,0,1-2,1.2,2.7,2.7,0,0,1-1.9-.8,2.8,2.8,0,0,1-.7-2.1,2.6,2.6,0,0,1,.8-2.1,2.7,2.7,0,0,1,2.1-.9,2.5,2.5,0,0,1,2.1,1.1,5.2,5.2,0,0,1,.8,3.1,6.1,6.1,0,0,1-1,3.8,3.1,3.1,0,0,1-2.7,1.4,3.8,3.8,0,0,1-1.6-.3Zm.6-5.1a2.5,2.5,0,0,0,.5,1.5,1.7,1.7,0,0,0,1.3.5,1.7,1.7,0,0,0,1.7-1.7,2.8,2.8,0,0,0-.5-1.6,1.5,1.5,0,0,0-1.3-.6,1.3,1.3,0,0,0-1.2.5A2.2,2.2,0,0,0,91.4,1626.2Z"/><path d="M96.9,1630.1h1.9v-3.3H103v-2.1H99.5a23.3,23.3,0,0,1-1.7,2.6l-.8-.6a11.4,11.4,0,0,0,2.5-4.2l1,.2a11.7,11.7,0,0,1-.5,1.1h8v.9h-4.1v2.1h3.9v.8h-3.9v2.5h4.7v.9h-4.7v3.1H103V1631H96.9Zm2.9,0H103v-2.5H99.8Z"/><path d="M112.1,1632.5v-7.7l-.9.6-1.2.4v-1.1a5.8,5.8,0,0,0,1.5-.6,4.8,4.8,0,0,0,1.3-.9h.4v9.3Z"/><path d="M116.3,1628.2a7.5,7.5,0,0,1,.8-3.7,2.6,2.6,0,0,1,2.3-1.2c1.9,0,2.9,1.5,2.9,4.6a6.9,6.9,0,0,1-.8,3.6,2.7,2.7,0,0,1-2.3,1.2,2.4,2.4,0,0,1-2.1-1.2A5.2,5.2,0,0,1,116.3,1628.2Zm1.2-.1q0,3.6,1.8,3.6t1.8-3.6c0-2.6-.6-3.8-1.8-3.8S117.5,1625.5,117.5,1628.1Z"/><path d="M125.8,1630.1a8,8,0,0,1-1.8,4.1l-.8-.7a6.4,6.4,0,0,0,1.6-2.9,30.1,30.1,0,0,0,.2-3.5v-4h7.9v9.1a1.5,1.5,0,0,1-1.7,1.7h-1.8a4.4,4.4,0,0,0-.2-1h1.7c.7,0,1-.3,1-.9v-2Zm.1-.8h6V1627H126A17.7,17.7,0,0,1,125.9,1629.3Zm.1-5.4v2.3h5.9v-2.3Z"/></g><path class="cls-5" d="M80.7,1655.9H78.1l-5.1-7.8a6.4,6.4,0,0,1-.6-1h0v8.8H70v-12.1h2.8l4.9,7.6c.4.5.6.8.6,1h.1a7.2,7.2,0,0,1-.1-1.7v-6.9h2.4Z"/><path class="cls-5" d="M91,1652.3H85.3c.1,1.3.9,2,2.4,2a4.1,4.1,0,0,0,2.5-.7v1.8a5.7,5.7,0,0,1-3.1.7,4,4,0,0,1-4.3-4.4,4.9,4.9,0,0,1,1.2-3.4,4.2,4.2,0,0,1,3.1-1.3,3.5,3.5,0,0,1,2.8,1.2,4.1,4.1,0,0,1,1.1,3Zm-2.4-1.6c0-1.3-.5-1.9-1.6-1.9a1.3,1.3,0,0,0-1.1.5,3,3,0,0,0-.6,1.4Z"/><path class="cls-5" d="M92.1,1651.6a4.2,4.2,0,0,1,1.3-3.3,4.4,4.4,0,0,1,3.4-1.3,4.7,4.7,0,0,1,3.3,7.8,4.5,4.5,0,0,1-3.4,1.3,4.9,4.9,0,0,1-3.4-1.2A4.5,4.5,0,0,1,92.1,1651.6Zm2.5,0c0,1.7.8,2.6,2.2,2.6s2-.9,2-2.7-.7-2.5-2.1-2.5a1.8,1.8,0,0,0-1.5.7A2.7,2.7,0,0,0,94.6,1651.6Z"/><path class="cls-5" d="M102.3,1655.3h6.5v-2.9H104v-2.1h4.8v-2.8h-5.6v-2.1h6.1l-1.2-2,2.1-1a17.6,17.6,0,0,1,1.4,2.3l-1.5.7h6.7v2.1h-5.7v2.8h5v2.1h-5v2.9h6.5v2.1H102.3Z"/><path class="cls-5" d="M122.4,1645.7l1.4,2.9,1.2-2.9,1,.5.9-.4,1.2,2.7,1.2-2.9,1.6.7a47,47,0,0,1-1.7,4.5l1.6,3.7-1.7.9-1-2.3-1.6,2.9a1.8,1.8,0,0,0-.7-.5l-.8.4-1.2-2.9a33.7,33.7,0,0,1-1.9,3.2l-.9-.9v2.6h-2.1v-14.7h14.2v12a3.6,3.6,0,0,1-.5,1.9,1.6,1.6,0,0,1-1.3.7h-3.1a14.2,14.2,0,0,0-.5-2.2l2.3.2a.9.9,0,0,0,1-1v-9.7H121v1.3Zm-1.4,1.1v7.2c.6-1.1,1.2-2.1,1.8-3.3Zm5,1.4a20.3,20.3,0,0,1-1.1,2.6l1.1,2.4a25.6,25.6,0,0,0,1.1-2.4Z"/><path class="cls-5" d="M134.4,1655h5.8v-12.3h2.6v4.3h5.7v2.3h-5.7v5.7h6.8v2.2H134.4Z"/><path class="cls-5" d="M150.5,1657.2l-.4-2.2,5.8-.8v1.1l3.3-1.4c-.2-.8-.4-1.6-.6-2.7l-2.6.4-.3-1.9,2.7-.4v-1.5l-2,.2v-.8l-2.8,4.2,2.3-.3c0,.4-.1,1.1-.1,1.9a35.8,35.8,0,0,0-4.5.8l-.6-1.8a17.8,17.8,0,0,0,2.2-2.7l-2,.2-.6-1.8a26.9,26.9,0,0,0,2.9-5.1l1.9.8-2.4,4.1h1.3l.9-1.6,1.4.7v-.5l2.1-.2v-3.3h2.1c0,1.1.1,2.1.1,3.1l2.7-.3-2.1-1.5,1-1.3,2.5,1.5-1,1.3,1.5-.2.2,1.9-4.7.5v1.5l4.9-.6.2,1.9-1.9.2,1.4,1.1a18.1,18.1,0,0,1-3.3,2.9c.4.7.8,1,1.2,1s.3-.1.4-.3a7.9,7.9,0,0,0,.5-2l1.9.9a8.9,8.9,0,0,1-1.2,3.1,1.7,1.7,0,0,1-1.4.7,3.8,3.8,0,0,1-3.2-2.2,27.8,27.8,0,0,1-4,1.6l-.5-1.1Zm13-6.5-2.7.3a8.6,8.6,0,0,0,.3,1.7A15.9,15.9,0,0,0,163.5,1650.7Z"/><path class="cls-5" d="M166.4,1654.7h15.1v2.3H166.4Zm1-10.8h13.1v2.3H167.4Zm.7,5.3h11.7v2.2H168.1Z"/><path class="cls-5" d="M186.1,1648.7h3.1v-1.1h-2.7v-1.5h2.7V1645h-3.5v5.3c0,3.4-.6,6-1.8,7.9a11.9,11.9,0,0,0-1.8-1.5,13.1,13.1,0,0,0,1.4-6.7v-6.8h13.4v11.5a3.7,3.7,0,0,1-.6,2.3,2.1,2.1,0,0,1-1.7.8h-2.5c-.1-.7-.3-1.4-.4-2.1h1.6c.7,0,1.1-.1,1.3-.4a2.2,2.2,0,0,0,.1-.8V1645h-3.4v1.1H194v1.5h-2.7v1.1h3v1.5h-8.2Zm.8,2.4h6.7v4.2h-4.7v.8h-2Zm4.7,2.7v-1.2h-2.7v1.2Z"/><path class="cls-5" d="M212.5,1648.2v2h-4.4v2.5h5.5v2h-5.5v3.3h-2.3v-3.3h-7.4v-2h2.2v-3.8l-.9.8-1.4-2a12.6,12.6,0,0,0,3.7-5.2l2.4.4-.6,1.3h9.3v2h-5v2Zm-11.3,0h4.6v-2h-3.1Zm1.6,4.5h3v-2.5h-3Z"/></svg>