<svg enable-background="new 0 0 4298 250" viewBox="0 0 4298 250" xmlns="http://www.w3.org/2000/svg"><g opacity=".38"><path d="m136.2 70.6c0-.8-.2-1.4-.7-1.8s-1.1-.7-2-.7c-.6 0-1.2.2-1.8.4-.6.3-1.1.7-1.7 1.3v-1.7c.5-.5 1-.8 1.6-1.1s1.3-.4 2.1-.4c1.3 0 2.3.3 3.1 1s1.2 1.6 1.2 2.8c0 1-.2 1.9-.7 2.7s-1.3 1.5-2.4 2.3c-1.2.8-2 1.4-2.4 1.8s-.7.7-.8 1-.2.7-.2 1.2h7v1.6h-8.9v-.7c0-.8.1-1.5.3-2.1s.6-1.1 1.1-1.7c.5-.5 1.3-1.2 2.4-1.9 1.1-.8 1.9-1.5 2.3-2.1.3-.5.5-1.1.5-1.9z"/><path d="m140.2 74.3c0-2.5.4-4.4 1.2-5.7s2-1.9 3.6-1.9c3 0 4.5 2.4 4.5 7.2 0 2.4-.4 4.2-1.3 5.5s-2 1.9-3.6 1.9c-1.4 0-2.6-.6-3.3-1.8s-1.1-2.9-1.1-5.2zm1.8-.1c0 3.8.9 5.6 2.9 5.6 1.9 0 2.8-1.9 2.8-5.7 0-3.9-.9-5.9-2.8-5.9s-2.9 2-2.9 6z"/><path d="m155.5 81.1v-12.1c-.3.3-.8.6-1.4.9-.7.3-1.3.6-1.9.7v-1.8c.8-.2 1.6-.5 2.4-1 .9-.4 1.5-.9 2-1.3h.7v14.4c0 .2-1.8.2-1.8.2z"/><path d="m169.8 66.9v9.3h2.1v1.5h-2.1v3.3h-1.8v-3.3h-6.6v-1.4c1.2-1.3 2.4-2.8 3.5-4.6 1.2-1.7 2.2-3.3 2.9-4.9zm-6.4 9.4h4.6v-6.7c-.6 1.1-1.3 2.2-2 3.3-.7 1-1.6 2.1-2.6 3.4z"/><path d="m172.6 77.3h2.9v-5.2h6.5v-3.2h-5.4c-.8 1.5-1.7 2.8-2.8 4.1-.3-.3-.7-.7-1.1-1 1.7-1.9 3-4.1 3.9-6.6l1.5.4c-.3.6-.5 1.2-.8 1.8h12.6v1.3h-6.4v3.2h6.1v1.3h-6.1v3.9h7.2v1.3h-7.2v4.9h-1.5v-4.9h-9.4zm4.4 0h5v-3.9h-5z"/><path d="m200.2 68.7c-.7-.4-1.5-.6-2.3-.6-1.2 0-2.2.5-2.9 1.6s-1.1 2.5-1.1 4.4c.7-1.3 1.7-1.9 3.2-1.9 1.2 0 2.2.4 2.9 1.2s1.1 1.9 1.1 3.2c0 1.4-.4 2.5-1.3 3.4-.8.9-1.9 1.3-3.2 1.3-1.4 0-2.6-.6-3.4-1.7s-1.2-2.7-1.2-4.8c0-2.5.5-4.5 1.6-5.9 1.1-1.5 2.5-2.2 4.2-2.2 1 0 1.8.1 2.4.4zm-6.2 7.7c0 .9.2 1.7.7 2.4s1.2 1 2 1 1.4-.3 1.9-.9.7-1.3.7-2.2c0-1-.2-1.7-.7-2.3-.5-.5-1.1-.8-2-.8-.8 0-1.5.3-1.9.8s-.7 1.3-.7 2z"/><path d="m206.6 77.3c-.3 2.3-1.2 4.5-2.8 6.4-.4-.4-.8-.7-1.3-1.1 1.2-1.3 2-2.8 2.4-4.6.3-1.3.4-3.1.4-5.4v-6.3h12.2v14.2c0 1.8-.9 2.7-2.6 2.7-.7 0-1.6 0-2.8 0-.1-.4-.1-.9-.3-1.5 1.1.1 2 .1 2.6.1 1 0 1.5-.5 1.5-1.4v-3zm.1-1.3h9.3v-3.5h-9.2c.1 1.2 0 2.3-.1 3.5zm.2-8.3v3.5h9.2v-3.5z"/></g><g opacity=".38"><path d="m425.6 70.6c0-.8-.2-1.4-.7-1.8s-1.1-.7-2-.7c-.6 0-1.2.2-1.8.4-.6.3-1.1.7-1.7 1.3v-1.7c.5-.5 1-.8 1.6-1.1s1.3-.4 2.1-.4c1.3 0 2.3.3 3.1 1s1.2 1.6 1.2 2.8c0 1-.2 1.9-.7 2.7s-1.3 1.5-2.5 2.3-2 1.4-2.4 1.8-.7.7-.8 1-.2.7-.2 1.2h7v1.6h-8.9v-.7c0-.8.1-1.5.3-2.1s.6-1.1 1.1-1.7 1.3-1.2 2.4-1.9c1.1-.8 1.9-1.5 2.3-2.1.4-.5.6-1.1.6-1.9z"/><path d="m429.6 74.3c0-2.5.4-4.4 1.2-5.7s2-1.9 3.6-1.9c3 0 4.5 2.4 4.5 7.2 0 2.4-.4 4.2-1.3 5.5s-2 1.9-3.5 1.9c-1.4 0-2.5-.6-3.3-1.8s-1.2-2.9-1.2-5.2zm1.8-.1c0 3.8 1 5.6 2.9 5.6s2.8-1.9 2.8-5.7c0-3.9-.9-5.9-2.8-5.9s-2.9 2-2.9 6z"/><path d="m444.9 81.1v-12.1c-.3.3-.8.6-1.4.9-.7.3-1.3.6-1.9.7v-1.8c.8-.2 1.5-.5 2.4-1s1.5-.9 2-1.3h.7v14.4c0 .2-1.8.2-1.8.2z"/><path d="m460.3 76.7c0 1.4-.5 2.5-1.4 3.3s-2.1 1.3-3.7 1.3c-1.3 0-2.3-.2-3-.6v-1.8c1 .6 1.9.9 2.9.9s1.8-.3 2.4-.8.9-1.3.9-2.2-.3-1.6-1-2.1-1.4-.7-2.5-.7c-.9 0-1.7 0-2.4.1l.5-7.2h6.6v1.6h-5.1l-.3 4 1.3-.1c1.5 0 2.7.4 3.5 1.1.9.8 1.3 1.8 1.3 3.2z"/><path d="m462 77.3h2.9v-5.2h6.5v-3.2h-5.4c-.8 1.5-1.7 2.8-2.8 4.1-.3-.3-.7-.7-1.1-1 1.7-1.9 3-4.1 3.9-6.6l1.5.4c-.3.6-.5 1.2-.8 1.8h12.6v1.3h-6.4v3.2h6.1v1.3h-6.1v3.9h7.2v1.3h-7.2v4.9h-1.5v-4.9h-9.4zm4.4 0h5v-3.9h-5z"/><path d="m489.7 68.7c-.7-.4-1.5-.6-2.3-.6-1.2 0-2.2.5-3 1.6-.7 1.1-1.1 2.5-1.1 4.4.7-1.3 1.7-1.9 3.2-1.9 1.2 0 2.2.4 2.9 1.2s1.1 1.9 1.1 3.2c0 1.4-.4 2.5-1.3 3.4-.8.9-1.9 1.3-3.2 1.3-1.4 0-2.6-.6-3.4-1.7s-1.2-2.7-1.2-4.8c0-2.5.5-4.5 1.6-5.9 1.1-1.5 2.5-2.2 4.2-2.2 1 0 1.8.1 2.4.4zm-6.3 7.7c0 .9.2 1.7.7 2.4s1.2 1 2 1 1.4-.3 1.9-.9.7-1.3.7-2.2c0-1-.2-1.7-.7-2.3-.5-.5-1.1-.8-2-.8-.8 0-1.5.3-2 .8s-.6 1.3-.6 2z"/><path d="m496 77.3c-.3 2.3-1.2 4.5-2.8 6.4-.4-.4-.8-.7-1.3-1.1 1.2-1.3 2-2.8 2.4-4.6.3-1.3.4-3.1.4-5.4v-6.3h12.3v14.2c0 1.8-.9 2.7-2.6 2.7-.7 0-1.6 0-2.8 0-.1-.4-.1-.9-.3-1.5 1.1.1 2 .1 2.6.1 1 0 1.5-.5 1.5-1.4v-3zm.2-1.3h9.3v-3.5h-9.2c0 1.2-.1 2.3-.1 3.5zm.1-8.3v3.5h9.2v-3.5z"/></g><path d="m121.5 158.6 2.7.7c-.9 3.3-1.8 6.2-2.8 9l-2.7-1c1.1-2.9 2-5.7 2.8-8.7zm5-4h2.8v13.8c0 1.2-.2 2.1-.6 2.6-.4.6-.9.9-1.4 1-.6.1-1.9.2-4 .2-.2-1-.4-2-.7-2.9 1 .1 1.8.2 2.6.2.9 0 1.3-.5 1.3-1.5zm7.1 4c1.2 2.7 2.3 5.5 3.4 8.4l-2.9 1.1c-1-3.1-2-6-3.1-8.7z" fill="#1b1b1b"/><path d="m155.2 156.6c-.4 4.1-1.6 7.6-3.3 10.4 1.1 1.3 2.3 2.3 3.8 3-.2.4-.7 1.2-1.4 2.6-1.6-.8-2.9-1.9-4.1-3.3-1.2 1.4-2.7 2.5-4.4 3.5-.2-.4-.4-.8-.6-1.2l-.7.2c-.1-.4-.1-.7-.2-1.1-1.6.3-3.7.7-6.4 1.2l-.5-2.4c1.1-.1 2.1-.3 3.2-.4v-3.3h-.9v.9h-1.7v-9.2h2.5v-2.8h2.1v2.8h2.5v8.2h-2.5v3c.4-.1.8-.1 1.1-.2-.1-.6-.3-1.1-.4-1.6l1.7-.4c.2.7.4 1.7.8 3 1.1-.7 2-1.6 2.8-2.5-1.6-2.7-2.6-6.1-3.1-10.2l2.3-.4c.5 3.3 1.3 6 2.5 8.2 1.3-2.3 2.1-5.1 2.5-8.4zm-15.6 7h.9v-4.1h-.9zm3.8 0v-4.1h-.9v4.1zm6.9-9.2c.6 1.4 1.1 2.9 1.6 4.3l-2.2.8c-.6-1.8-1-3.3-1.4-4.4z" fill="#1b1b1b"/><path d="m156.6 170.4-.5-2.7 1.8-.4v-9h-1.6v-2.5h5.9v2.5h-1.8v8.4c.6-.2 1.2-.3 1.9-.5 0 .9-.1 1.8-.1 2.8-2.1.4-3.9.9-5.6 1.4zm10.4-7.8h2.4c0 1.6-.2 3-.7 4.3 1.8 1.1 3.7 2.4 5.6 3.8l-1.6 2c-1.3-1.1-3-2.3-5-3.8-1.1 1.7-2.9 2.9-5.3 3.8-.4-.9-.9-1.8-1.4-2.5 2.3-.5 3.8-1.4 4.7-2.6s1.3-2.8 1.3-5zm-4-7.4h11v2.2h-4.8l-.3 1.8h4.4v8.4h-2.5v-6.1h-5.5v6.3h-2.5v-8.5h3.3l.3-1.8h-3.4z" fill="#1b1b1b"/><path d="m176.6 172.5v-16.9h14.4v16.9h-2.6v-1.2h-9.2v1.2zm11.8-14.5h-9.2v2h9.2zm-9.2 6.4h9.2v-2h-9.2zm0 4.4h9.2v-2.1h-9.2z" fill="#1b1b1b"/><path d="m195.2 156.4h6.2c-.2-.5-.4-.9-.5-1.3l2.8-.6c.3.6.5 1.3.8 1.9h5.9v6.5h-12.8c0 4-.8 7.2-2.4 9.5-.5-.6-1.1-1.3-1.8-2.1 1.2-2 1.8-4.5 1.8-7.6zm12.7 4.2v-2h-10.3v2zm-9.7 11.8v-7.8h12.1v7.8h-2.4v-.9h-7.2v1zm9.6-5.6h-7.2v2.4h7.2z" fill="#1b1b1b"/><path d="m219.1 163.7 1.9 4.6c.8-1.5 1.2-4.3 1.2-8.3h-1.9v-2.4h1.9v-3.1h2.4v3.1h4.8l-.2 10.3c0 1.4-.1 2.2-.2 2.6s-.2.7-.5.9c-.3.3-.6.5-1 .6s-1.5.2-3.3.2c-.2-.9-.4-1.8-.7-2.7.8.1 1.5.1 2 .1.4 0 .6-.1.8-.2s.3-.3.3-.6.1-1.2.1-2.8c.1-1.6.1-3.6.1-5.9h-2.4c-.1 2.7-.2 4.7-.3 5.8s-.5 2.4-1 3.6-1.2 2.3-2 3.2c-.7-.6-1.4-1.1-2.2-1.5.4-.4.7-.7 1-1.1l-5.1.4c-.8.1-1.3.2-1.7.4l-1.1-2.2c.6-.5 1.4-2.4 2.4-5.7h-2.3v-2.3h8.4v2.3h-3.5c-.6 1.8-1.2 3.4-1.8 5.1 1.1 0 2.1-.1 3-.1-.4-1.2-.9-2.4-1.3-3.4zm.9-5.5h-7v-2.3h7z" fill="#1b1b1b"/><path d="m424.6 169.1c-1.4.8-3.1 1.2-5.1 1.2-2.2 0-4-.6-5.3-1.9s-2-3-2-5.2.7-4 2.1-5.4 3.3-2.1 5.7-2.1c1.5 0 2.8.2 4 .6v2.9c-1.1-.6-2.4-1-4-1-1.4 0-2.5.4-3.3 1.3-.9.9-1.3 2.1-1.3 3.5 0 1.5.4 2.6 1.1 3.5s1.8 1.2 3.1 1.2c.8 0 1.4-.1 1.9-.4v-2.9h-2.9v-2.4h5.9z" fill="#1b1b1b"/><path d="m426.8 156.7c0-.4.2-.8.5-1.1s.7-.4 1.2-.4.9.1 1.2.4.5.6.5 1.1-.2.8-.5 1.1-.7.4-1.2.4-.9-.1-1.2-.4-.5-.7-.5-1.1zm.3 13.4v-10.1h2.9v10.1z" fill="#1b1b1b"/><path d="m438.6 169.9c-.4.2-1.1.4-2 .4-2.1 0-3.2-1.1-3.2-3.4v-4.8h-1.7v-2.1h1.7v-2.2l2.9-.8v3.1h2.3v2.2h-2.3v4.3c0 1.1.4 1.6 1.3 1.6.3 0 .7-.1 1-.3z" fill="#1b1b1b"/><path d="m452.7 170.1h-3v-5.8h-6v5.8h-3v-14.1h3v5.7h6v-5.7h3z" fill="#1b1b1b"/><path d="m465.2 170.1h-2.9v-1.5c-.8 1.2-1.8 1.8-3.1 1.8-2.4 0-3.5-1.4-3.5-4.2v-6.2h3v5.8c0 1.5.6 2.3 1.8 2.3.6 0 1.1-.2 1.4-.6s.5-1 .5-1.7v-5.8h2.9z" fill="#1b1b1b"/><path d="m470.8 168.8v1.2h-3v-14.9h3v6.4c.8-1.2 1.9-1.8 3.3-1.8 1.3 0 2.3.4 3 1.3s1.1 2.1 1.1 3.7c0 1.7-.4 3-1.2 4s-1.9 1.5-3.3 1.5c-1.3.1-2.2-.4-2.9-1.4zm0-3.1c0 .7.2 1.2.6 1.7.4.4.9.7 1.5.7.7 0 1.3-.3 1.7-.9s.6-1.4.6-2.4c0-.9-.2-1.6-.6-2-.4-.5-.9-.7-1.6-.7s-1.2.2-1.6.7-.6 1.1-.6 1.9z" fill="#1b1b1b"/><path d="m479.3 162.4h4.2v-4.5h-3.2v-2.4h16.3v2.4h-2.9v4.5h3.7v2.4h-3.7v7.5h-2.7v-7.5h-4.9c-.1 2.2-.5 3.9-1.2 5s-1.8 2.1-3.2 2.9c-.7-.6-1.5-1.2-2.3-1.9 1.1-.6 2.1-1.3 2.8-2.2s1.2-2.1 1.3-3.8h-4.1zm6.9 0h4.8v-4.5h-4.8z" fill="#1b1b1b"/><path d="m499.4 159.4c.9.7 1.9 1.4 2.9 2.3l-1.6 2c-.9-.9-1.8-1.7-2.7-2.5zm.6 5.2c.9.4 1.7.7 2.2.9l-1.6 6.9c-.8-.3-1.6-.6-2.4-.8.6-1.9 1.2-4.2 1.8-7zm-.2-10c1.4 1 2.4 1.7 3 2.2l-1.7 1.8c-.9-.8-1.8-1.7-2.8-2.5zm7.5 12.4 1.8 1.1c-.4.6-.9 1.3-1.4 2.1.3.1.7.1 1.2.1.5-.1.8-.3.8-.8v-2.9h-3.2v-7.7h2c.2-.5.4-1 .6-1.6h-3.6v5.5c0 4.6-.7 7.9-2 9.9-.8-.8-1.5-1.4-2.1-1.8 1.2-1.8 1.8-4.6 1.8-8.4v-7.2h12.8v2.1h-4.5c-.1.4-.4.9-.7 1.6h4.4v7.7h-3.1v3.4c0 .7-.1 1.2-.4 1.6s-.7.6-1.3.7-1.4.1-2.3.1c-.1-.7-.2-1.4-.5-2.1-.4.5-.7 1-1.1 1.5l-1.7-1.4c.8-1 1.6-2.2 2.5-3.5zm5.6-6.3h-4.2v1.1h4.2zm0 4v-1.2h-4.2v1.2zm1 2.2c.8 1 1.5 2.1 2.3 3.4l-1.9 1.1c-.6-1.1-1.3-2.3-2.1-3.5z" fill="#1b1b1b"/><g opacity=".38"><path d="m707.8 70.6c0-.8-.2-1.4-.7-1.8s-1.1-.7-2-.7c-.6 0-1.2.2-1.8.4-.6.3-1.2.7-1.7 1.3v-1.7c.5-.5 1-.8 1.6-1.1s1.3-.4 2.1-.4c1.3 0 2.3.3 3.1 1s1.2 1.6 1.2 2.8c0 1-.2 1.9-.7 2.7s-1.3 1.5-2.5 2.3-2 1.4-2.4 1.8-.7.7-.8 1-.2.8-.2 1.3h7v1.6h-8.9v-.7c0-.8.1-1.5.3-2.1s.6-1.1 1.1-1.7c.5-.5 1.3-1.2 2.4-1.9 1.1-.8 1.9-1.5 2.3-2.1s.6-1.2.6-2z"/><path d="m711.8 74.3c0-2.5.4-4.4 1.2-5.7s2-1.9 3.6-1.9c3 0 4.5 2.4 4.5 7.2 0 2.4-.4 4.2-1.3 5.5s-2 1.9-3.5 1.9c-1.4 0-2.5-.6-3.3-1.8s-1.2-2.9-1.2-5.2zm1.9-.1c0 3.8 1 5.6 2.9 5.6s2.8-1.9 2.8-5.7c0-3.9-.9-5.9-2.8-5.9-2 0-2.9 2-2.9 6z"/><path d="m727.2 81.1v-12.1c-.3.3-.8.6-1.4.9-.7.3-1.3.6-1.8.7v-1.8c.8-.2 1.5-.5 2.4-1 .8-.4 1.5-.9 2-1.3h.7v14.4c-.1.2-1.9.2-1.9.2z"/><path d="m742.6 76.7c0 1.4-.5 2.5-1.4 3.3s-2.2 1.3-3.7 1.3c-1.3 0-2.3-.2-3-.6v-1.8c1 .6 1.9.9 2.9.9s1.8-.3 2.4-.8.9-1.3.9-2.2-.3-1.6-1-2.1-1.5-.8-2.7-.8c-.9 0-1.7 0-2.4.1l.5-7.2h6.6v1.6h-5.1l-.3 4 1.3-.1c1.5 0 2.7.4 3.5 1.1 1.1.9 1.5 1.9 1.5 3.3z"/><path d="m744.3 77.3h2.9v-5.2h6.5v-3.2h-5.4c-.8 1.5-1.7 2.8-2.8 4.1-.3-.3-.7-.7-1.1-1 1.7-1.9 3-4.1 3.9-6.6l1.5.4c-.3.6-.5 1.2-.8 1.8h12.6v1.3h-6.4v3.2h6.1v1.3h-6.1v3.9h7.2v1.3h-7.2v4.9h-1.5v-4.9h-9.4zm4.4 0h5v-3.9h-5z"/><path d="m767.8 81.1v-12.1c-.3.3-.8.6-1.4.9-.7.3-1.3.6-1.8.7v-1.8c.8-.2 1.5-.5 2.4-1 .8-.4 1.5-.9 2-1.3h.7v14.4c-.1.2-1.9.2-1.9.2z"/><path d="m774.4 74.3c0-2.5.4-4.4 1.2-5.7s2-1.9 3.6-1.9c3 0 4.5 2.4 4.5 7.2 0 2.4-.4 4.2-1.3 5.5s-2 1.9-3.5 1.9c-1.4 0-2.5-.6-3.3-1.8s-1.2-2.9-1.2-5.2zm1.8-.1c0 3.8 1 5.6 2.9 5.6s2.8-1.9 2.8-5.7c0-3.9-.9-5.9-2.8-5.9s-2.9 2-2.9 6z"/><path d="m789.2 77.3c-.3 2.3-1.2 4.5-2.8 6.4-.4-.4-.8-.7-1.3-1.1 1.2-1.3 2-2.8 2.4-4.6.3-1.3.4-3.1.4-5.4v-6.3h12.2v14.2c0 1.8-.9 2.7-2.6 2.7-.7 0-1.6 0-2.8 0-.1-.4-.2-.9-.3-1.5 1.1.1 2 .1 2.7.1 1 0 1.5-.5 1.5-1.4v-3zm.2-1.3h9.3v-3.5h-9.2c0 1.2 0 2.3-.1 3.5zm.1-8.3v3.5h9.2v-3.5z"/></g><g opacity=".38"><path d="m997.3 70.6c0-.8-.2-1.4-.7-1.8s-1.1-.7-2-.7c-.6 0-1.2.2-1.8.4-.6.3-1.2.7-1.7 1.3v-1.7c.5-.5 1-.8 1.6-1.1s1.3-.4 2.1-.4c1.3 0 2.3.3 3.1 1s1.2 1.6 1.2 2.8c0 1-.2 1.9-.7 2.7s-1.3 1.5-2.5 2.3-2 1.4-2.4 1.8-.7.7-.8 1-.2.7-.2 1.2h7v1.6h-8.9v-.7c0-.8.1-1.5.3-2.1s.6-1.1 1.1-1.7c.5-.5 1.3-1.2 2.4-1.9 1.1-.8 1.9-1.5 2.3-2.1.4-.5.6-1.1.6-1.9z"/><path d="m1001.3 74.3c0-2.5.4-4.4 1.2-5.7s2-1.9 3.6-1.9c3 0 4.5 2.4 4.5 7.2 0 2.4-.4 4.2-1.3 5.5s-2 1.9-3.5 1.9c-1.4 0-2.5-.6-3.3-1.8s-1.2-2.9-1.2-5.2zm1.9-.1c0 3.8 1 5.6 2.9 5.6s2.8-1.9 2.8-5.7c0-3.9-.9-5.9-2.8-5.9-2 0-2.9 2-2.9 6z"/><path d="m1016.7 81.1v-12.1c-.3.3-.8.6-1.4.9-.7.3-1.3.6-1.8.7v-1.8c.8-.2 1.5-.5 2.4-1 .8-.4 1.5-.9 2-1.3h.7v14.4c-.1.2-1.9.2-1.9.2z"/><path d="m1031.8 68.7c-.7-.4-1.5-.6-2.3-.6-1.2 0-2.2.5-2.9 1.6s-1.1 2.5-1.1 4.4h.1c.7-1.3 1.7-1.9 3.2-1.9 1.2 0 2.2.4 2.9 1.2s1.1 1.9 1.1 3.2c0 1.4-.4 2.5-1.3 3.4-.8.9-1.9 1.3-3.2 1.3-1.4 0-2.6-.6-3.4-1.7s-1.2-2.7-1.2-4.8c0-2.5.5-4.5 1.6-5.9 1.1-1.5 2.5-2.2 4.2-2.2 1 0 1.8.1 2.4.4zm-6.3 7.7c0 .9.2 1.7.7 2.4s1.2 1 2 1 1.4-.3 1.9-.9.7-1.3.7-2.2c0-1-.2-1.7-.7-2.3-.5-.5-1.1-.8-2-.8-.8 0-1.5.3-1.9.8s-.7 1.3-.7 2z"/><path d="m1033.8 77.3h2.9v-5.2h6.5v-3.2h-5.4c-.8 1.5-1.7 2.8-2.8 4.1-.3-.3-.7-.7-1.1-1 1.7-1.9 3-4.1 3.9-6.6l1.5.4c-.3.6-.5 1.2-.8 1.8h12.6v1.3h-6.4v3.2h6.1v1.3h-6.1v3.9h7.2v1.3h-7.2v4.9h-1.5v-4.9h-9.4zm4.4 0h5v-3.9h-5z"/><path d="m1057.3 81.1v-12.1c-.3.3-.8.6-1.4.9-.7.3-1.3.6-1.8.7v-1.8c.8-.2 1.6-.5 2.4-1s1.5-.9 2-1.3h.7v14.4c-.1.2-1.9.2-1.9.2z"/><path d="m1063.9 74.3c0-2.5.4-4.4 1.2-5.7s2-1.9 3.6-1.9c3 0 4.5 2.4 4.5 7.2 0 2.4-.4 4.2-1.3 5.5s-2 1.9-3.6 1.9c-1.4 0-2.6-.6-3.3-1.8s-1.1-2.9-1.1-5.2zm1.8-.1c0 3.8.9 5.6 2.9 5.6 1.9 0 2.8-1.9 2.8-5.7 0-3.9-.9-5.9-2.8-5.9s-2.9 2-2.9 6z"/><path d="m1078.7 77.3c-.3 2.3-1.2 4.5-2.8 6.4-.4-.4-.8-.7-1.3-1.1 1.2-1.3 2-2.8 2.4-4.6.3-1.3.4-3.1.4-5.4v-6.3h12.2v14.2c0 1.8-.9 2.7-2.6 2.7-.7 0-1.6 0-2.8 0-.1-.4-.2-.9-.3-1.5 1.1.1 2 .1 2.7.1 1 0 1.5-.5 1.5-1.4v-3zm.2-1.3h9.3v-3.5h-9.2c0 1.2 0 2.3-.1 3.5zm.1-8.3v3.5h9.2v-3.5z"/></g><path d="m706.7 159.5c1 .7 1.9 1.5 2.9 2.3l-1.6 2c-.7-.7-1.6-1.5-2.7-2.5zm.6 5.2c.9.4 1.6.6 2.3.9l-1.7 6.9c-.9-.3-1.6-.6-2.3-.8.5-2 1.1-4.3 1.7-7zm2.6 2.2v-9.9l-1.6 1.8c-.8-.8-1.7-1.6-2.7-2.5l1.5-1.7c.9.6 1.8 1.4 2.8 2.3v-1.5h7v11.4h-1.9v-9.4h-3.2v9.5zm2.6-8.3h1.7v4.7c0 2-.2 3.7-.7 4.9l1.2-.9c1 1.1 2 2.1 2.9 3.1l-1.8 1.4c-.8-1.1-1.6-2.2-2.4-3.2-.6 1.3-1.5 2.6-2.9 3.9-.6-.8-1.1-1.5-1.5-2 1.4-1 2.3-2 2.9-3.2s.8-2.6.8-4.4zm8-3.8h2.1v15.1c0 .6-.1 1.2-.4 1.5-.3.4-.6.6-1.1.7s-1.4.1-2.8.1c-.1-.8-.3-1.7-.6-2.6.7.1 1.3.1 1.9.1.5 0 .8-.3.8-1zm-2.7 1.3h1.9v12.2h-1.9z" fill="#1b1b1b"/><path d="m729.1 162.3h6v2.4h-1.8v3.8l2.2-.3c0 1.2-.1 2 0 2.5-.8.1-2.8.4-6.2 1l-.3-1.6c-1.1.8-2 1.6-2.7 2.2l-1.3-1.8c.3-.4.5-.9.5-1.5v-6.4h-1.5v-2.4h4v7.7c.5-.4 1.1-.8 1.7-1.2 0 .3.1 1.1.3 2.2l1.1-.2v-4.2h-1.8zm-2.8-7.6c.8 1.1 1.6 2.2 2.3 3.3l-2.1 1.3c-.7-1.2-1.4-2.3-2.2-3.5zm2.6 3.3h6.7l-.1-3.5h2.5v3.5h1.8c-.8-1-1.3-1.8-1.7-2.2l1.5-1.2c.8.8 1.5 1.6 2 2.3l-1.4 1.1h1.7v2.4h-3.9c.1 1.9.2 3.6.3 4.9.2 1.3.3 2.3.5 3s.3 1.1.3 1.2.1.2.2.2c.2-.1.4-1 .6-2.9.8.3 1.5.6 2.1.8-.3 2.1-.6 3.4-1 4s-1 1-1.7 1c-.8 0-1.4-.2-1.8-.7s-.9-1.5-1.2-3.1-.6-4.3-.8-8.3h-6.7z" fill="#1b1b1b"/><path d="m747.5 158.2 1.6 3.3c.5-1.1.9-2.2 1.4-3.4l1.2.6 1-.4 1.5 3.2c.5-1.1.9-2.2 1.3-3.4l2 .8c-.6 1.8-1.3 3.6-2 5.3l1.9 4.3-2.1 1-1.1-2.7c-.6 1.2-1.2 2.3-1.8 3.4-.3-.2-.5-.4-.8-.6l-1 .5-1.4-3.4c-.7 1.3-1.4 2.6-2.2 3.7-.3-.3-.7-.6-1.1-1v3h-2.5v-17.2h16.6v14c0 .9-.2 1.7-.5 2.2s-.9.8-1.5.9c-.7.1-1.9.1-3.6.1-.2-1-.4-1.8-.6-2.6.9.1 1.7.1 2.6.1.8 0 1.2-.4 1.2-1.1v-11.4h-11.7v1.6zm-1.7 1.3v8.3c.8-1.2 1.5-2.4 2.2-3.8-.8-1.6-1.5-3.1-2.2-4.5zm5.9 1.5c-.4 1.1-.9 2.1-1.3 3.1l1.3 2.7c.5-.9.9-1.8 1.4-2.8z" fill="#1b1b1b"/><path d="m761.5 169h6.8v-14.4h3v5.1h6.8v2.6h-6.8v6.7h7.9v2.6h-17.7z" fill="#1b1b1b"/><path d="m780.4 171.6-.5-2.6c2.2-.3 4.4-.6 6.7-1 0 .4 0 .8-.1 1.2 1.4-.4 2.7-1 3.9-1.6-.3-.9-.5-1.9-.7-3.1l-3.1.4-.3-2.2 3.2-.4-.1-1.8-2.4.2-.1-1c-1.2 2-2.3 3.7-3.3 5 1.1-.2 2-.3 2.7-.4-.1.5-.1 1.3-.2 2.3-2.6.3-4.4.6-5.3.9l-.7-2c.8-.7 1.6-1.8 2.6-3.2-.7.1-1.4.1-2.3.2l-.7-2.1c1-1.2 2.1-3.2 3.3-6l2.3.9c-1.1 1.9-2 3.5-2.9 4.8.5 0 1 0 1.5-.1.3-.6.7-1.2 1-1.8l1.7.8-.1-.6 2.5-.2-.2-3.8h2.5c0 1.2 0 2.4.1 3.6l3.2-.3c-.7-.5-1.6-1.1-2.5-1.7l1.2-1.6c1 .5 2 1.1 3 1.8l-1.1 1.5 1.8-.2.2 2.2-5.5.6.1 1.8 5.7-.7.2 2.2-2.2.3 1.6 1.3c-1.2 1.3-2.5 2.4-3.8 3.4.5.8 1 1.2 1.4 1.2.2 0 .4-.1.5-.4s.3-1.1.6-2.3c.8.4 1.5.8 2.1 1.1-.5 1.9-.9 3.1-1.4 3.6s-1 .8-1.6.8c-1.5 0-2.8-.9-3.8-2.6-1.5.8-3 1.4-4.6 1.9-.2-.4-.4-.8-.6-1.2-1.9.2-3.9.6-5.5.9zm15.1-7.7-3.2.4c.1.7.2 1.4.4 2 1-.7 2-1.5 2.8-2.4z" fill="#1b1b1b"/><path d="m1004.2 169.4h7.6v-3.4h-5.6v-2.4h5.6v-3.3h-6.5v-2.4h7.1c-.4-.8-.9-1.6-1.4-2.4l2.5-1.1c.5.8 1.1 1.7 1.6 2.7l-1.8.8h7.8v2.4h-6.6v3.3h5.8v2.4h-5.8v3.4h7.6v2.4h-17.9z" fill="#1b1b1b"/><path d="m1027.7 158.2 1.6 3.3c.5-1.1.9-2.2 1.4-3.4l1.2.6 1-.4 1.5 3.2c.5-1.1.9-2.2 1.3-3.4l2 .8c-.6 1.8-1.3 3.6-2.1 5.3l1.9 4.3-2.1 1-1.1-2.7c-.6 1.2-1.2 2.3-1.8 3.4-.3-.2-.5-.4-.8-.6l-1 .5-1.4-3.4c-.7 1.3-1.4 2.6-2.2 3.7-.3-.3-.7-.6-1.1-1v3h-2.5v-17.2h16.6v14c0 .9-.2 1.7-.5 2.2s-.9.8-1.5.9c-.7.1-1.9.1-3.6.1-.2-1-.4-1.8-.6-2.6.9.1 1.7.1 2.6.1.8 0 1.2-.4 1.2-1.1v-11.4h-11.7v1.6zm-1.8 1.3v8.3c.8-1.2 1.5-2.4 2.2-3.8-.7-1.6-1.4-3.1-2.2-4.5zm5.9 1.5c-.4 1.1-.9 2.1-1.3 3.1l1.3 2.7c.5-.9.9-1.8 1.4-2.8z" fill="#1b1b1b"/><path d="m1041.7 169h6.8v-14.4h3v5.1h6.8v2.6h-6.8v6.7h7.9v2.6h-17.7z" fill="#1b1b1b"/><path d="m1060.5 171.6-.5-2.6c2.2-.3 4.4-.6 6.7-1 0 .4-.1.8-.1 1.2 1.4-.4 2.7-1 3.9-1.6-.3-.9-.5-1.9-.7-3.1l-3.1.4-.3-2.2 3.2-.4-.1-1.8-2.4.2-.1-1c-1.2 2-2.3 3.7-3.3 5 1.1-.2 2-.3 2.7-.4-.1.5-.1 1.3-.2 2.3-2.6.3-4.4.6-5.3.9l-.7-2c.8-.7 1.6-1.8 2.6-3.2-.7.1-1.4.1-2.3.2l-.7-2.1c1-1.2 2.1-3.2 3.3-6l2.3.9c-1.1 1.9-2 3.5-2.9 4.8.5 0 1 0 1.6-.1.3-.6.7-1.2 1-1.8l1.7.8-.1-.6 2.5-.2-.2-3.8h2.5c0 1.2.1 2.4.1 3.6l3.2-.3c-.7-.5-1.6-1.1-2.5-1.7l1.2-1.6c1 .5 2 1.1 3 1.8l-1.1 1.5 1.8-.2.2 2.2-5.5.6.1 1.8 5.7-.7.2 2.2-2.2.3 1.6 1.3c-1.2 1.3-2.4 2.4-3.8 3.4.5.8 1 1.2 1.4 1.2.2 0 .4-.1.5-.4s.3-1.1.6-2.3c.8.4 1.6.8 2.1 1.1-.5 1.9-.9 3.1-1.4 3.6s-1 .8-1.6.8c-1.6 0-2.8-.9-3.8-2.6-1.4.8-3 1.4-4.6 1.9-.2-.4-.4-.8-.6-1.2-2 .2-3.9.6-5.6.9zm15.2-7.7-3.2.4c.1.7.2 1.4.4 2 1-.7 1.9-1.5 2.8-2.4z" fill="#1b1b1b"/><g opacity=".38"><path d="m1293.1 70.6c0-.8-.2-1.4-.7-1.8s-1.1-.7-2-.7c-.6 0-1.2.2-1.8.4-.6.3-1.2.7-1.7 1.3v-1.7c.5-.5 1-.8 1.6-1.1s1.3-.4 2.1-.4c1.3 0 2.3.3 3.1 1s1.2 1.6 1.2 2.8c0 1-.2 1.9-.7 2.7s-1.3 1.5-2.4 2.3c-1.2.8-2 1.4-2.4 1.8s-.7.7-.8 1-.2.7-.2 1.2h7v1.6h-8.9v-.7c0-.8.1-1.5.3-2.1s.6-1.1 1.1-1.7 1.3-1.2 2.4-1.9c1.1-.8 1.9-1.5 2.3-2.1.3-.5.5-1.1.5-1.9z"/><path d="m1297.1 74.3c0-2.5.4-4.4 1.2-5.7s2-1.9 3.6-1.9c3 0 4.5 2.4 4.5 7.2 0 2.4-.4 4.2-1.3 5.5s-2 1.9-3.6 1.9c-1.4 0-2.6-.6-3.3-1.8s-1.1-2.9-1.1-5.2zm1.8-.1c0 3.8.9 5.6 2.9 5.6 1.9 0 2.8-1.9 2.8-5.7 0-3.9-.9-5.9-2.8-5.9s-2.9 2-2.9 6z"/><path d="m1312.4 81.1v-12.1c-.3.3-.8.6-1.4.9-.7.3-1.3.6-1.8.7v-1.8c.8-.2 1.6-.5 2.4-1s1.5-.9 2-1.3h.7v14.4c-.1.2-1.9.2-1.9.2z"/><path d="m1328.2 68c-1.5 2.6-2.7 5-3.5 7.2s-1.4 4.2-1.6 5.8h-1.9c.2-1.7.8-3.6 1.6-5.7s2-4.4 3.4-6.9h-7v-1.6h9z"/><path d="m1329.5 77.3h2.9v-5.2h6.5v-3.2h-5.4c-.8 1.5-1.7 2.8-2.8 4.1-.3-.3-.7-.7-1.1-1 1.7-1.9 3-4.1 3.9-6.6l1.5.4c-.3.6-.5 1.2-.8 1.8h12.6v1.3h-6.4v3.2h6.1v1.3h-6.1v3.9h7.2v1.3h-7.2v4.9h-1.5v-4.9h-9.4zm4.4 0h5v-3.9h-5z"/><path d="m1357.2 68.7c-.7-.4-1.5-.6-2.3-.6-1.2 0-2.2.5-2.9 1.6s-1.1 2.5-1.1 4.4h.1c.7-1.3 1.7-1.9 3.2-1.9 1.2 0 2.2.4 2.9 1.2s1.1 1.9 1.1 3.2c0 1.4-.4 2.5-1.3 3.4-.8.9-1.9 1.3-3.2 1.3-1.4 0-2.6-.6-3.4-1.7s-1.2-2.7-1.2-4.8c0-2.5.5-4.5 1.6-5.9 1.1-1.5 2.5-2.2 4.2-2.2 1 0 1.8.1 2.4.4zm-6.3 7.7c0 .9.2 1.7.7 2.4s1.2 1 2 1 1.4-.3 1.9-.9.7-1.3.7-2.2c0-1-.2-1.7-.7-2.3-.5-.5-1.1-.8-2-.8-.8 0-1.5.3-1.9.8s-.7 1.3-.7 2z"/><path d="m1363.5 77.3c-.3 2.3-1.2 4.5-2.8 6.4-.4-.4-.8-.7-1.3-1.1 1.2-1.3 2-2.8 2.4-4.6.3-1.3.4-3.1.4-5.4v-6.3h12.2v14.2c0 1.8-.9 2.7-2.6 2.7-.7 0-1.6 0-2.8 0-.1-.4-.2-.9-.3-1.5 1.1.1 2 .1 2.7.1 1 0 1.5-.5 1.5-1.4v-3zm.2-1.3h9.3v-3.5h-9.2c0 1.2 0 2.3-.1 3.5zm.1-8.3v3.5h9.2v-3.5z"/></g><path d="m1246.8 158.6 2.7.7c-.9 3.3-1.8 6.2-2.8 9l-2.7-1c1.1-2.9 2-5.7 2.8-8.7zm5-3.9h2.8v13.8c0 1.2-.2 2.1-.6 2.6-.4.6-.9.9-1.4 1s-1.9.2-4 .2c-.2-1-.4-2-.7-2.9 1 .1 1.8.2 2.6.2.9 0 1.3-.5 1.3-1.5zm7.1 3.9c1.2 2.7 2.3 5.5 3.4 8.4l-2.9 1.1c-1-3.1-2-6-3.1-8.7z" fill="#1b1b1b"/><path d="m1280.5 156.6c-.4 4.1-1.6 7.6-3.3 10.4 1.1 1.3 2.3 2.3 3.8 3-.2.4-.7 1.2-1.4 2.6-1.6-.8-2.9-1.9-4.1-3.3-1.2 1.4-2.7 2.5-4.4 3.5-.2-.4-.4-.8-.6-1.2l-.7.2c-.1-.4-.2-.7-.2-1.1-1.6.3-3.7.7-6.3 1.2l-.5-2.4c1.1-.1 2.1-.3 3.2-.4v-3.3h-.9v.9h-1.7v-9.2h2.5v-2.8h2.1v2.8h2.5v8.2h-2.5v3c.4-.1.8-.1 1.1-.2-.1-.6-.3-1.1-.4-1.6l1.7-.4c.2.7.4 1.7.8 3 1.1-.7 2-1.6 2.8-2.5-1.6-2.7-2.6-6.1-3.1-10.2l2.3-.4c.5 3.3 1.3 6 2.5 8.2 1.3-2.3 2.1-5.1 2.5-8.4zm-15.6 7h.9v-4.1h-.9zm3.8 0v-4.1h-.9v4.1zm6.8-9.2c.6 1.4 1.1 2.9 1.6 4.3l-2.2.8c-.6-1.8-1-3.3-1.4-4.4z" fill="#1b1b1b"/><path d="m1287.2 171.3h-2.6v.9h-2.5v-8.6h7.6v8.6h-2.5zm-3.3-16.1h13.2v7h-13.2zm.8 13.9h2.6v-3.2h-2.6zm9.6-11.6h-7.7v2.4h7.7zm-.7 13.8v.9h-2.5v-8.6h7.6v8.6h-2.5v-.9zm2.6-2.2v-3.2h-2.6v3.2z" fill="#1b1b1b"/><path d="m1304.4 154.7h2.1v5.5h.8v2.1h-4.1v1.9h3.3v8.3h-2v-6.3h-1.3c-.1 2.5-.5 4.6-1.2 6.5-.6-.5-1.2-1.1-1.9-1.5.7-1.6 1.1-4.1 1.1-7.4v-8.6h2.1v5.1h1.3zm8.3 10.4h2.3v1.9h3v2.1h-3v3.4h-2.3v-3.4h-5.9v-2.1h2.3c-.3-.3-.7-.7-1.1-1 .8-.4 1.4-.9 1.9-1.5h-2.3v-8.5h2.5c.2-.5.3-1.1.4-1.6l2.7.3c-.1.4-.3.9-.4 1.3h4.8v8.6h-4.9c-.5.9-1.2 1.7-2.1 2.5h2.3v-2zm-2.9-5.7h1.7v-1.5h-1.7zm1.7 1.7h-1.7v1.5h1.3c.2-.5.3-1 .4-1.5zm3.8 1.5v-1.5h-1.8c0 .5-.1 1-.2 1.5zm0-4.7h-1.8v1.5h1.8z" fill="#1b1b1b"/><path d="m1318.8 170.3h7.8v-.9h-6.7v-1.5h6.7v-.9h-6v-6.4h6v-.9h-7.8v-1.7h7.8v-.9l-6.2.1c-.1-.5-.2-1.1-.3-1.6 5.2-.1 10.2-.2 15.2-.4 0 0 .1.6.3 1.7l-6.5.2v1h7.9v1.6h-7.9v.9h6.1v6.4h-6.1v.9h6.8v1.5h-6.8v.9h7.9v1.6h-18.1v-1.6zm4.1-7.2h3.7v-1h-3.7zm0 2.3h3.7v-1h-3.7zm9.8-3.4h-3.7v1h3.7zm0 3.4v-1h-3.7v1z" fill="#1b1b1b"/><path d="m1344.3 154.4 2.1 1c-.3.4-.7.8-1.1 1.3h1.7v1.9h-3.4v3h1.1v-2.3h2v4.1h-3.3c-.3 1.3-1 2.3-2.1 3.1h3.9v-1.1h2c-.4-.3-.9-.6-1.3-.9 1.1-.9 1.6-2.4 1.6-4.3v-4.8h7.2v8.1c0 1.4-.6 2.1-1.8 2.2-.6 0-1.4 0-2.4.1-.1-.5-.3-1.1-.6-2h1.7c.5 0 .8-.3.8-.8v-.5h-3.1c-.3 1.4-.8 2.6-1.6 3.5-.1 0-.1-.1-.1-.1v.7h6.4v1.9h-6.4v1.5h7.7v2h-18.1v-2h7.8v-1.5h-6.3v-1.9h2.1c-.5-.5-1.1-1-1.6-1.5.8-.4 1.3-.9 1.7-1.6h-2.6v-4.1h2v2.3h1.1c0-.1 0-1.1 0-3h-3.7v-1.9h1.8c-.3-.4-.6-.8-.9-1.2l1.8-1.1c.5.6 1 1.2 1.5 1.9l-.7.4h1.6c.6-.8 1.1-1.6 1.5-2.4zm5.4 5.4v1.2h2.9v-1.2zm2.9-2.7h-2.9v1.2h2.9z" fill="#1b1b1b"/><path d="m1365.3 172.3c-.1-.7-.3-1.6-.7-2.7 1.5.1 2.7.2 3.5.2.7 0 1.2-.1 1.4-.2.3-.1.4-.3.6-.6.1-.2.2-1.1.3-2.5s.2-3.2.3-5.5h-5.3c-.1 1.1-.3 2.1-.6 3.1l1.6-1.5c.8.7 1.9 1.7 3.1 2.8l-1.9 1.9c-1.1-1.2-2-2.2-2.8-3-1.1 3.5-3.2 6.3-6.5 8.4-.9-.8-1.6-1.5-2.2-1.9 3.9-2.3 6.1-5.6 6.6-9.7h-6.2v-2.4h3.3c-.6-.8-1.4-1.7-2.2-2.5l1.8-1.5c.9.9 1.8 1.7 2.6 2.5l-1.7 1.6h2.6l.3-4.1h2.8l-.3 4.1h7.8l-.4 7.1c-.1 2.3-.3 3.7-.3 4.1s-.3.9-.6 1.3-.7.7-1.2.9-1.4.3-2.7.3-2.4-.2-3-.2z" fill="#1b1b1b"/><path d="m1388.8 170.1h-3.1l-6-9.1c-.3-.5-.5-.9-.7-1.1h-.1c.1.5.1 1.2.1 2.3v8h-2.9v-14.1h3.3l5.8 8.9c.4.6.6 1 .7 1.1h.1c-.1-.3-.1-1-.1-1.9v-8.1h2.9z" fill="#1b1b1b"/><path d="m1400.7 165.8h-6.7c.1 1.6 1.1 2.4 2.8 2.4 1.1 0 2.1-.3 2.9-.8v2.2c-.9.5-2.1.8-3.6.8-1.6 0-2.9-.4-3.8-1.4s-1.3-2.2-1.3-3.8.5-2.9 1.4-3.9 2.1-1.5 3.6-1.5c1.4 0 2.6.4 3.4 1.3s1.2 2.1 1.2 3.6zm-2.7-1.8c0-1.5-.6-2.3-1.8-2.3-.5 0-.9.2-1.3.6s-.6 1-.7 1.6h3.8z" fill="#1b1b1b"/><path d="m1402 165.1c0-1.7.5-3 1.5-3.9s2.3-1.4 4-1.4c1.6 0 2.9.5 3.9 1.4s1.4 2.2 1.4 3.8c0 1.7-.5 3-1.5 3.9s-2.3 1.5-4 1.5c-1.6 0-2.9-.5-3.9-1.4-.9-1.1-1.4-2.3-1.4-3.9zm3-.1c0 2 .8 3 2.5 3 1.6 0 2.4-1 2.4-3.1 0-2-.8-3-2.4-3-.8 0-1.4.3-1.8.8s-.7 1.4-.7 2.3z" fill="#1b1b1b"/><g opacity=".38"><path d="m1577.3 70.6c0-.8-.2-1.4-.7-1.8s-1.1-.7-2-.7c-.6 0-1.2.2-1.8.4-.6.3-1.2.7-1.7 1.3v-1.7c.5-.5 1-.8 1.6-1.1s1.3-.4 2.1-.4c1.3 0 2.3.3 3.1 1s1.2 1.6 1.2 2.8c0 1-.2 1.9-.7 2.7s-1.3 1.5-2.4 2.3c-1.2.8-2 1.4-2.4 1.8s-.7.7-.8 1-.2.7-.2 1.2h7v1.6h-8.9v-.7c0-.8.1-1.5.3-2.1s.6-1.1 1.1-1.7 1.3-1.2 2.4-1.9c1.1-.8 1.9-1.5 2.3-2.1.3-.5.5-1.1.5-1.9z"/><path d="m1581.3 74.3c0-2.5.4-4.4 1.2-5.7s2-1.9 3.6-1.9c3 0 4.5 2.4 4.5 7.2 0 2.4-.4 4.2-1.3 5.5s-2 1.9-3.6 1.9c-1.4 0-2.6-.6-3.3-1.8s-1.1-2.9-1.1-5.2zm1.9-.1c0 3.8.9 5.6 2.9 5.6 1.9 0 2.8-1.9 2.8-5.7 0-3.9-.9-5.9-2.8-5.9-2 0-2.9 2-2.9 6z"/><path d="m1596.7 81.1v-12.1c-.3.3-.8.6-1.4.9-.7.3-1.3.6-1.8.7v-1.8c.8-.2 1.6-.5 2.4-1s1.5-.9 2-1.3h.7v14.4c-.1.2-1.9.2-1.9.2z"/><path d="m1612.4 68c-1.5 2.6-2.7 5-3.5 7.2s-1.4 4.2-1.6 5.8h-1.9c.2-1.7.8-3.6 1.6-5.7s2-4.4 3.4-6.9h-7v-1.6h9z"/><path d="m1613.8 77.3h2.9v-5.2h6.5v-3.2h-5.4c-.8 1.5-1.7 2.8-2.8 4.1-.3-.3-.7-.7-1.1-1 1.7-1.9 3-4.1 3.9-6.6l1.5.4c-.3.6-.5 1.2-.8 1.8h12.6v1.3h-6.4v3.2h6.1v1.3h-6.1v3.9h7.2v1.3h-7.2v4.9h-1.5v-4.9h-9.4zm4.4 0h5v-3.9h-5z"/><path d="m1637.3 81.1v-12.1c-.3.3-.8.6-1.4.9-.7.3-1.3.6-1.8.7v-1.8c.8-.2 1.6-.5 2.4-1s1.5-.9 2-1.3h.7v14.4c-.1.2-1.9.2-1.9.2z"/><path d="m1643.9 74.3c0-2.5.4-4.4 1.2-5.7s2-1.9 3.6-1.9c3 0 4.5 2.4 4.5 7.2 0 2.4-.4 4.2-1.3 5.5-.8 1.3-2 1.9-3.6 1.9-1.4 0-2.6-.6-3.3-1.8s-1.1-2.9-1.1-5.2zm1.8-.1c0 3.8.9 5.6 2.9 5.6 1.9 0 2.8-1.9 2.8-5.7 0-3.9-.9-5.9-2.8-5.9s-2.9 2-2.9 6z"/><path d="m1658.7 77.3c-.3 2.3-1.2 4.5-2.8 6.4-.4-.4-.8-.7-1.3-1.1 1.2-1.3 2-2.8 2.4-4.6.3-1.3.4-3.1.4-5.4v-6.3h12.2v14.2c0 1.8-.9 2.7-2.6 2.7-.7 0-1.6 0-2.8 0-.1-.4-.2-.9-.3-1.5 1.1.1 2 .1 2.7.1 1 0 1.5-.5 1.5-1.4v-3zm.2-1.3h9.3v-3.5h-9.2c0 1.2 0 2.3-.1 3.5zm.1-8.3v3.5h9.2v-3.5z"/></g><path d="m1552.3 164c-.9 1.6-2.2 3-3.7 4.2 1.4.6 3.2 1.1 5.6 1.5-.5.9-1.1 1.8-1.6 2.7-2.5-.6-4.6-1.4-6.3-2.5-1.8 1.1-3.9 1.9-6.3 2.7-.4-.8-.9-1.6-1.4-2.4 2-.6 3.9-1.2 5.5-2-.9-.8-1.7-1.8-2.4-2.9-1.4 2.2-3 4.2-4.9 5.7-.3-1.1-.5-2.2-.8-3.1 2.4-2.2 4.2-4.8 5.3-7.8h-4.6v-2.2c.3-1 .6-2 .9-3.1l2.5.3c-.2.8-.4 1.7-.8 2.8h2.6c.3-1 .6-2.2.8-3.6l2.7.2-.8 3.4h5.1c-.7-.7-1.4-1.3-2.1-2l1.6-1.5c1.1.9 2.1 1.6 2.8 2.4l-1.2 1.2h3.1v2.2h-10.1c-.2.5-.4 1.1-.6 1.7h8.9zm-6 3c1.3-.9 2.2-1.9 3-2.9h-5.6c.7 1.1 1.6 2.1 2.6 2.9z" fill="#1b1b1b"/><path d="m1565.9 172.5h-2.5v-8.4h-2.9v7h-2.5v-5.8c-.7.8-1.5 1.5-2.3 2.3-.3-1.1-.6-1.9-.8-2.6 2-1.8 3.6-3.7 4.7-5.8h-4.5v-2.4h5.7c.3-.7.6-1.5.8-2.2l2.6.3c-.2.7-.4 1.3-.7 1.9h9.4v2.4h-10.5c-.5.9-1 1.9-1.7 2.8h2.8v-2.3h2.5v2.3h5.5v5.9c0 .8-.2 1.4-.5 1.8s-.8.7-1.3.8-1.4.1-2.6.1c-.2-1-.3-1.8-.4-2.4.6.1 1 .1 1.1.1.8 0 1.2-.4 1.2-1.3v-2.9h-3z" fill="#1b1b1b"/><path d="m1587.4 170.1h-3.1l-6-9.1c-.3-.5-.5-.9-.7-1.1h-.1c.1.5.1 1.2.1 2.3v8h-2.9v-14.1h3.3l5.8 8.9c.4.6.6 1 .7 1.1-.1-.3-.1-1-.1-1.9v-8.1h2.9z" fill="#1b1b1b"/><path d="m1599.1 170.1h-8.4v-14.1h8v2.5h-5v3.3h4.7v2.5h-4.7v3.4h5.4z" fill="#1b1b1b"/><path d="m1604.4 165.1v4.9h-3v-14.1h4.9c3.5 0 5.3 1.5 5.3 4.5 0 1.4-.5 2.6-1.6 3.5s-2.4 1.3-4 1.2zm0-6.9v4.6h1.3c1.8 0 2.7-.8 2.7-2.3s-.9-2.2-2.6-2.2z" fill="#1b1b1b"/><path d="m1618.8 165.7h-5.4v-2.1h5.4z" fill="#1b1b1b"/><path d="m1621.8 169.7v-2.6c1 .6 2 .9 3.1.9.8 0 1.5-.2 2-.6s.7-1 .7-1.7c0-1.5-1-2.2-3-2.2-.7 0-1.6.1-2.6.2l.5-7.8h7.5v2.4h-5.1l-.2 3c.5 0 1-.1 1.4-.1 1.4 0 2.5.4 3.3 1.1s1.2 1.8 1.2 3.1c0 1.4-.5 2.6-1.4 3.5-1 .9-2.3 1.4-3.9 1.4-1.5 0-2.6-.2-3.5-.6z" fill="#1b1b1b"/><path d="m1650.2 169.9c-.4.9-.7 1.7-.9 2.4l-9.6-.1c-1.1 0-2.1-.2-2.8-.5s-1.3-.7-1.8-1.3l-2 2.3-1.1-2.8 1.8-1.5v-5h-1.6v-2.4h3.9v7.5c.7 1 2 1.5 3.9 1.5l4.1.1c1.7-.2 3.8-.2 6.1-.2zm-15.8-15.4c1.1 1.3 1.9 2.4 2.5 3.3l-2.2 1.4c-.8-1.3-1.6-2.5-2.4-3.5zm14.7.6v2.1l-3.8 2.1h3.8v7.9c0 .6-.1 1-.3 1.4s-.6.6-1 .7-1.3.1-2.7.1c-.1-.6-.3-1.2-.5-1.9.6 0 1.1.1 1.4.1.5 0 .8-.3.8-.8v-.3h-2.5v2.7h-2.2v-2.7h-2.4v2.8h-2.3v-9.8h3.5l-2-1.2.9-1.1h-2.6v-1.9zm-9.3 7h2.4v-1.1h-2.4zm0 2.7h2.4v-1.1h-2.4zm6.1-7.7h-5.4c.8.4 1.6.9 2.6 1.5zm.9 3.9h-2.5v1.1h2.5zm-2.5 3.8h2.5v-1.1h-2.5z" fill="#1b1b1b"/><path d="m1656.3 166c.1.5.2 1.4.4 2.5-1.2.8-2.4 1.8-3.9 3.1l-1.1-2c.3-.4.5-.8.5-1.4v-5.8h-1.5v-2.4h3.9v7.3zm-3-11.5c.7 1 1.4 2.1 2.2 3.4-.6.3-1.3.7-2.2 1.3-.7-1.2-1.3-2.3-2-3.4zm2.6 14.7h1.5v-9.1h2.5v9.1h2v-11.1h-5.3v-2.4h12.1v2.4h-4.3v4.1h3.9v2.4h-3.9v4.6h4.5v2.4h-12.9z" fill="#1b1b1b"/><path d="m1669.3 165.1c.9-1.6 1.6-3.3 2.1-4.9h-1.9v-2.4h2.1v-3.2h2.2v3.2h1.8v2.4h-1.8v2.1c.8.4 1.5.9 2.2 1.3l-1.1 2.1c-.3-.2-.6-.5-1.1-.8v7.7h-2.2v-7.6c-.5 1.2-1 2.3-1.6 3.4-.3-1.2-.5-2.4-.7-3.3zm7.8-1.5 2.2.6c-.7 2.4-1.5 4.4-2.3 6.1-.8-.4-1.5-.7-2.2-.9.8-1.6 1.6-3.5 2.3-5.8zm-1.5-3.5h11.7v2.4h-4.6v7.8c0 .6-.2 1.1-.5 1.5s-.9.6-1.6.6-1.6.1-2.8.1c-.2-1-.3-1.8-.5-2.5.6.1 1.2.1 1.7.1.7 0 1.1-.3 1.1-1v-6.5h-4.6v-2.5zm.7-4.6h10.3v2.4h-10.3zm9.1 8.3c.8 1.8 1.5 3.8 2.2 5.8l-2.2.9c-.7-2.1-1.4-4.1-2.1-5.9z" fill="#1b1b1b"/><path d="m1690 155.4c.9 1.2 1.9 2.4 2.8 3.8l-2.2 1.5c-.8-1.4-1.7-2.7-2.7-4zm.5 7.4c.8.4 1.6.9 2.4 1.2l-2.7 7.8c-.7-.5-1.4-1-2.3-1.5.9-2 1.8-4.5 2.6-7.5zm4.9-8.3 2.4.6c-.3.9-.6 1.7-1 2.5h3.8c-.5-.6-1-1.3-1.7-2l1.8-1.3c.8.8 1.6 1.6 2.2 2.5l-1.2.8h4.1v2h-3.7v2h3.6v1.9h-3.6v2h3.6v1.9h-3.6v2h3.9v1.9h-9.6v1.3h-2.5v-10c-.3.5-.7.9-1 1.4-.4-.9-.8-1.8-1.2-2.4 1.7-2.1 2.9-4.4 3.7-7.1zm1.1 7h3.2v-2h-3.2zm0 3.9h3.2v-2h-3.2zm0 3.9h3.2v-2h-3.2z" fill="#1b1b1b"/><g opacity=".38"><path d="m1873.8 70.6c0-.8-.2-1.4-.7-1.8s-1.1-.7-2-.7c-.6 0-1.2.2-1.8.4-.6.3-1.1.7-1.7 1.3v-1.7c.5-.5 1-.8 1.6-1.1s1.3-.4 2.1-.4c1.3 0 2.3.3 3.1 1s1.2 1.6 1.2 2.8c0 1-.2 1.9-.7 2.7s-1.3 1.5-2.4 2.3c-1.2.8-2 1.4-2.4 1.8s-.7.7-.8 1-.2.7-.2 1.2h7v1.6h-8.9v-.7c0-.8.1-1.5.3-2.1s.6-1.1 1.1-1.7 1.3-1.2 2.4-1.9c1.1-.8 1.9-1.5 2.3-2.1.3-.5.5-1.1.5-1.9z"/><path d="m1877.8 74.3c0-2.5.4-4.4 1.2-5.7s2-1.9 3.6-1.9c3 0 4.5 2.4 4.5 7.2 0 2.4-.4 4.2-1.3 5.5-.8 1.3-2 1.9-3.6 1.9-1.4 0-2.6-.6-3.3-1.8s-1.1-2.9-1.1-5.2zm1.9-.1c0 3.8.9 5.6 2.9 5.6 1.9 0 2.8-1.9 2.8-5.7 0-3.9-.9-5.9-2.8-5.9-2 0-2.9 2-2.9 6z"/><path d="m1893.2 81.1v-12.1c-.3.3-.8.6-1.4.9-.7.3-1.3.6-1.9.7v-1.8c.8-.2 1.6-.5 2.4-1 .9-.4 1.5-.9 2-1.3h.7v14.4c0 .2-1.8.2-1.8.2z"/><path d="m1899.8 77.1c0-.8.2-1.6.7-2.2.5-.7 1.1-1.2 1.9-1.5-.6-.3-1.1-.8-1.5-1.3s-.5-1.1-.5-1.8.2-1.3.5-1.8.8-1 1.4-1.3 1.3-.5 2-.5 1.4.2 2 .5 1.1.8 1.4 1.3c.3.6.5 1.2.5 1.8s-.2 1.2-.5 1.8c-.4.5-.8 1-1.5 1.3.8.3 1.4.8 1.9 1.5s.7 1.4.7 2.2-.2 1.5-.6 2.2c-.4.6-.9 1.1-1.6 1.5-.7.3-1.5.5-2.4.5s-1.7-.2-2.4-.5-1.2-.8-1.6-1.5c-.2-.7-.4-1.4-.4-2.2zm1.8-.1c0 .8.3 1.5.8 2s1.2.8 2.1.8c.8 0 1.5-.3 2.1-.8.5-.5.8-1.2.8-2s-.3-1.4-.8-2c-.5-.5-1.2-.8-2.1-.8-.8 0-1.5.3-2 .8-.6.6-.9 1.2-.9 2zm.5-6.6c0 .6.2 1.2.7 1.6s1 .7 1.6.7 1.2-.2 1.7-.7.7-1 .7-1.6-.2-1.2-.7-1.6c-.4-.4-1-.7-1.7-.7s-1.2.2-1.7.7-.6 1-.6 1.6z"/><path d="m1910.3 77.3h2.9v-5.2h6.5v-3.2h-5.4c-.8 1.5-1.7 2.8-2.8 4.1-.3-.3-.7-.7-1.1-1 1.7-1.9 3-4.1 3.9-6.6l1.5.4c-.3.6-.5 1.2-.8 1.8h12.6v1.3h-6.4v3.2h6.1v1.3h-6.1v3.9h7.2v1.3h-7.2v4.9h-1.5v-4.9h-9.4zm4.3 0h5v-3.9h-5z"/><path d="m1933.8 81.1v-12.1c-.3.3-.8.6-1.4.9-.7.3-1.3.6-1.9.7v-1.8c.8-.2 1.6-.5 2.4-1 .9-.4 1.5-.9 2-1.3h.7v14.4c0 .2-1.8.2-1.8.2z"/><path d="m1944.3 77.3c-.3 2.3-1.2 4.5-2.8 6.4-.4-.4-.8-.7-1.3-1.1 1.2-1.3 2-2.8 2.4-4.6.3-1.3.4-3.1.4-5.4v-6.3h12.2v14.2c0 1.8-.9 2.7-2.6 2.7-.7 0-1.6 0-2.8 0-.1-.4-.1-.9-.3-1.5 1.1.1 2 .1 2.6.1 1 0 1.5-.5 1.5-1.4v-3zm.1-1.3h9.3v-3.5h-9.2c0 1.2 0 2.3-.1 3.5zm.1-8.3v3.5h9.2v-3.5z"/></g><path d="m1840.6 154.4h2.5c-.2.4-.4.9-.6 1.3h4.5v1.7c.7-.9 1.3-1.9 1.7-2.9h2.5c-.2.4-.3.9-.5 1.3h4.8v1.7h-3.1c.4.3.8.7 1.1 1l-1.1.9h2v5h-6.4v1.1h7.2c-.1 2.9-.2 4.6-.6 4.9s-.6.7-1 .9-1.8.4-4.4.3c-.2-.7-.4-1.5-.6-2.2 1.6.1 2.4.1 2.5.1.4 0 .7-.1 1-.2.2-.1.4-.3.4-.5.1-.2.1-.7.1-1.3h-4.7v5h-2.5v-4.5c-1.6 1.8-3.8 3.2-6.6 4.4-.4-.6-.8-1.3-1.4-2.2 2.2-.7 4-1.6 5.4-2.7h-4.3l.9-5h6v-1.1h-6.3v-1.6c-.1.1-.3.3-.4.4-.5-.6-.9-1.1-1.5-1.7 1.7-1.2 2.7-2.6 3.4-4.1zm1.6 3.6.8-.6h-1.5c-.5.7-1.1 1.4-1.6 1.9h3.8c-.6-.4-1-.8-1.5-1.3zm-.8 7.5h4.2v-1.1h-4zm2.8-8.1c.4.4.9.8 1.3 1.1l-1 .8h3.8c-.6-.4-1.2-.8-1.9-1.3.2-.2.4-.4.6-.7zm7.8 5v-1.1h-3.9v1.1zm-3.6-3h3.4c-.4-.4-.9-.9-1.4-1.4l.6-.6h-1.2c-.4.7-.9 1.4-1.4 2z" fill="#1b1b1b"/><path d="m1856.6 162.1h17.6v2.7h-17.6z" fill="#1b1b1b"/><path d="m1876.8 155.2h15.4v5.7h-12.8c0 3.5-.2 6-.6 7.5s-1 2.8-1.6 3.9c-.8-.9-1.5-1.6-2-2.2.5-.8.9-1.7 1.2-2.8s.5-3.2.5-6.3zm12.8 3.6v-1.5h-10.3v1.5zm-9.8 13.7v-10.1h4.9v-1.3h2.4v1.3h4.9v10.1h-2.4v-.9h-7.5v.9zm2.4-6.4h2.5v-1.6h-2.5zm0 3.5h2.5v-1.6h-2.5zm7.6-5.1h-2.5v1.6h2.5zm-2.6 5.1h2.5v-1.6h-2.5z" fill="#1b1b1b"/><path d="m1893.8 162.4h4.2v-4.5h-3.2v-2.4h16.3v2.4h-2.9v4.5h3.7v2.4h-3.7v7.5h-2.6v-7.5h-4.9c-.1 2.2-.5 3.9-1.2 5s-1.8 2.1-3.2 2.9c-.7-.6-1.4-1.2-2.3-1.9 1.1-.6 2.1-1.3 2.8-2.2s1.2-2.1 1.3-3.8h-4.1zm6.9 0h4.8v-4.5h-4.8z" fill="#1b1b1b"/><path d="m1928.7 164c-.9 1.6-2.1 3-3.6 4.2 1.4.6 3.2 1.1 5.6 1.5-.5.9-1.1 1.8-1.6 2.7-2.5-.6-4.6-1.4-6.3-2.5-1.8 1.1-3.9 1.9-6.4 2.7-.4-.8-.9-1.6-1.4-2.4 2-.6 3.9-1.2 5.5-2-.9-.8-1.7-1.8-2.4-2.9-1.4 2.2-3 4.2-4.9 5.7-.3-1.1-.5-2.2-.8-3.1 2.4-2.2 4.1-4.8 5.3-7.8h-4.6v-2.2c.3-1 .6-2 .9-3.1l2.5.3c-.2.8-.4 1.7-.8 2.8h2.6c.3-1 .6-2.2.8-3.6l2.6.2-.8 3.4h5.1c-.7-.7-1.4-1.3-2.1-2l1.6-1.5c1.1.9 2.1 1.6 2.9 2.4l-1.1 1.2h3.1v2.2h-10.1c-.2.5-.4 1.1-.6 1.7h8.9zm-6 3c1.3-.9 2.2-1.9 3-2.9h-5.6c.7 1.1 1.5 2.1 2.6 2.9z" fill="#1b1b1b"/><path d="m1931.3 159.6h6.3v-1.4h-4.8v-2.2h4.8v-1.6h2.5v1.6h4.4v2c.8-.8 1.6-1.7 2.4-2.7l1.8 1.4c-.9 1-1.8 2-2.7 2.8h3.4v2.1h-6.1c-.7.5-1.5 1-2.3 1.4h6.4v9.4h-2.5v-.8h-8.5v.8h-2.5v-6.6c-.6.2-1.3.4-1.9.6-.2-.7-.4-1.4-.8-2.3 3.4-.6 6.1-1.4 8.2-2.5h-8.1zm13.5 5.6h-8.5v1.3h8.5zm-8.5 4.5h8.5v-1.3h-8.5zm8-11.5h-4.2v1.4h2.6c.5-.5 1.1-.9 1.6-1.4z" fill="#1b1b1b"/><path d="m1950.2 159.2h7.2c.1-1.3.1-2.9.1-4.6h2.8c0 1.8-.1 3.3-.1 4.6h7.5v2.5h-7.3c1.1 4.1 3.6 6.8 7.6 8.2-.9 1-1.6 1.8-2.1 2.5-3.3-1.6-5.6-4.1-6.9-7.5-1 3.2-3.4 5.7-7 7.7-.5-.6-1.2-1.4-2.1-2.3 4.4-2 6.9-4.8 7.3-8.5h-6.9z" fill="#1b1b1b"/><path d="m1979.6 154.5-.5.6c1.6 2.3 4.1 4.3 7.6 5.9-.6.8-1.2 1.5-1.6 2.2-.9-.5-1.8-1-2.6-1.5v1.2h-9.8v-1.4c-.8.5-1.6 1.1-2.6 1.6-.4-.5-.9-1.2-1.6-2.1 4-2.1 6.6-4.3 8-6.5zm-10.3 9.9h16.8v2.3h-4.6c1.2 1.4 2.4 3 3.7 4.7l-2.2 1.4c-.3-.4-.6-.8-.8-1.2-2.3.1-5.2.2-8.7.4-.5 0-1.2.1-1.9.3l-1.1-2.2c1.1-.8 2.2-1.9 3.3-3.4h-4.5zm8.3-7.2c-.9 1.1-2.1 2.3-3.6 3.5h7.2c-1.5-1.1-2.6-2.3-3.6-3.5zm1.6 10.5 1.6-.9h-3.9c-.6.8-1.4 1.7-2.4 2.8 1.4 0 3.4-.1 5.9-.2-.3-.6-.7-1.2-1.2-1.7z" fill="#1b1b1b"/><path d="m1888.2 195h-2.7v-17.5h2.7zm1.9-.2v-17.1h11.5v17.1h-2.6v-1.1h-6.2v1.1zm8.8-14.8h-6.2v4.4h6.2zm-6.2 11.3h6.2v-4.6h-6.2z" fill="#1b1b1b"/><path d="m1903.6 192.2h3.9c-.5-.6-1.1-1.4-1.8-2.3l2.1-1.3c.6.7 1.3 1.5 2 2.4l-1.8 1.1h2.8v-3.6h-5.8v-2.2h5.8v-1.5h-3.5v-1.5c-.9.6-1.8 1.1-2.8 1.7-.4-.7-.9-1.5-1.5-2.4 3.7-1.6 6.4-3.5 8.1-5.7h3.7l-.8.8c1.9 2 4.4 3.5 7.4 4.5-.6.9-1.1 1.8-1.5 2.5-1-.5-1.9-.9-2.8-1.5v1.6h-3.6v1.5h5.8v2.2h-2.7l2.2 1.2c-.7.9-1.3 1.7-1.9 2.4h3.9v2.2h-17.2zm8.6-12.8c-1.1 1.1-2.4 2.2-3.8 3.2h7.6c-1.5-1-2.7-2-3.8-3.2zm4.3 9.2h-2.9v3.6h2.8l-1.8-1c.7-.8 1.3-1.7 1.9-2.6z" fill="#1b1b1b"/><path d="m1936.1 194.9v-1.4h-13.2v-13h2.7v10.5h3.9v-14h2.8v14h3.9v-10.5h2.7v14.5z" fill="#1b1b1b"/><g opacity=".38"><path d="m2162.8 70.6c0-.8-.2-1.4-.7-1.8s-1.1-.7-2-.7c-.6 0-1.2.2-1.8.4-.6.3-1.1.7-1.7 1.3v-1.7c.5-.5 1-.8 1.6-1.1s1.3-.4 2.1-.4c1.3 0 2.3.3 3.1 1s1.2 1.6 1.2 2.8c0 1-.2 1.9-.7 2.7s-1.3 1.5-2.4 2.3c-1.2.8-2 1.4-2.4 1.8s-.7.7-.8 1-.2.7-.2 1.2h7v1.6h-8.9v-.7c0-.8.1-1.5.3-2.1s.6-1.1 1.1-1.7 1.3-1.2 2.4-1.9c1.1-.8 1.9-1.5 2.3-2.1.3-.5.5-1.1.5-1.9z"/><path d="m2166.8 74.3c0-2.5.4-4.4 1.2-5.7s2-1.9 3.6-1.9c3 0 4.5 2.4 4.5 7.2 0 2.4-.4 4.2-1.3 5.5s-2 1.9-3.6 1.9c-1.4 0-2.6-.6-3.3-1.8s-1.1-2.9-1.1-5.2zm1.9-.1c0 3.8.9 5.6 2.9 5.6 1.9 0 2.8-1.9 2.8-5.7 0-3.9-.9-5.9-2.8-5.9-2 0-2.9 2-2.9 6z"/><path d="m2182.2 81.1v-12.1c-.3.3-.8.6-1.4.9-.7.3-1.3.6-1.9.7v-1.8c.8-.2 1.6-.5 2.4-1 .9-.4 1.5-.9 2-1.3h.7v14.4c0 .2-1.8.2-1.8.2z"/><path d="m2188.8 77.1c0-.8.2-1.6.7-2.2.5-.7 1.1-1.2 1.9-1.5-.6-.3-1.1-.8-1.5-1.3s-.5-1.1-.5-1.8.2-1.3.5-1.8.8-1 1.4-1.3 1.3-.5 2-.5 1.4.2 2 .5 1.1.8 1.4 1.3c.3.6.5 1.2.5 1.8s-.2 1.2-.5 1.8c-.4.5-.8 1-1.5 1.3.8.3 1.4.8 1.9 1.5s.7 1.4.7 2.2-.2 1.5-.6 2.2c-.4.6-.9 1.1-1.6 1.5-.7.3-1.5.5-2.4.5s-1.7-.2-2.4-.5-1.2-.8-1.6-1.5c-.2-.7-.4-1.4-.4-2.2zm1.8-.1c0 .8.3 1.5.8 2s1.2.8 2.1.8c.8 0 1.5-.3 2.1-.8.5-.5.8-1.2.8-2s-.3-1.4-.8-2c-.5-.5-1.2-.8-2.1-.8-.8 0-1.5.3-2 .8-.6.6-.9 1.2-.9 2zm.5-6.6c0 .6.2 1.2.7 1.6.4.4 1 .7 1.6.7s1.2-.2 1.7-.7.7-1 .7-1.6-.2-1.2-.7-1.6c-.4-.4-1-.7-1.7-.7s-1.2.2-1.7.7-.6 1-.6 1.6z"/><path d="m2199.3 77.3h2.9v-5.2h6.5v-3.2h-5.4c-.8 1.5-1.7 2.8-2.8 4.1-.3-.3-.7-.7-1.1-1 1.7-1.9 3-4.1 3.9-6.6l1.5.4c-.3.6-.5 1.2-.8 1.8h12.6v1.3h-6.4v3.2h6.1v1.3h-6.1v3.9h7.2v1.3h-7.2v4.9h-1.5v-4.9h-9.4zm4.3 0h5v-3.9h-5z"/><path d="m2227.2 76.7c0 1.4-.5 2.5-1.4 3.3s-2.1 1.3-3.7 1.3c-1.3 0-2.3-.2-3-.6v-1.8c1 .6 1.9.9 2.9.9s1.8-.3 2.4-.8.9-1.3.9-2.2-.3-1.6-.9-2.1-1.5-.8-2.7-.8c-.9 0-1.7 0-2.4.1l.5-7.2h6.6v1.6h-5.1l-.3 4 1.3-.1c1.5 0 2.7.4 3.5 1.1 1 .9 1.4 1.9 1.4 3.3z"/><path d="m2233.3 77.3c-.3 2.3-1.2 4.5-2.8 6.4-.4-.4-.8-.7-1.3-1.1 1.2-1.3 2-2.8 2.4-4.6.3-1.3.4-3.1.4-5.4v-6.3h12.2v14.2c0 1.8-.9 2.7-2.6 2.7-.7 0-1.6 0-2.8 0-.1-.4-.1-.9-.3-1.5 1.1.1 2 .1 2.6.1 1 0 1.5-.5 1.5-1.4v-3zm.1-1.3h9.3v-3.5h-9.2c0 1.2 0 2.3-.1 3.5zm.1-8.3v3.5h9.2v-3.5z"/></g><path d="m2158.5 170.1h-3.1l-6-9.1c-.3-.5-.5-.9-.7-1.1h-.1c.1.5.1 1.2.1 2.3v8h-2.9v-14.1h3.3l5.8 8.9c.4.6.6 1 .7 1.1-.1-.3-.1-1-.1-1.9v-8.1h2.9z" fill="#1b1b1b"/><path d="m2170.4 165.8h-6.6c.1 1.6 1.1 2.4 2.8 2.4 1.1 0 2.1-.3 2.9-.8v2.2c-.9.5-2.1.8-3.6.8-1.6 0-2.9-.4-3.8-1.4s-1.3-2.2-1.3-3.8.5-2.9 1.4-3.9 2.1-1.5 3.6-1.5c1.4 0 2.6.4 3.4 1.3s1.2 2.1 1.2 3.6zm-2.7-1.8c0-1.5-.6-2.3-1.8-2.3-.5 0-.9.2-1.3.6s-.6 1-.7 1.6h3.8z" fill="#1b1b1b"/><path d="m2171.7 165.1c0-1.7.5-3 1.5-3.9s2.3-1.4 4-1.4c1.6 0 2.9.5 3.9 1.4s1.4 2.2 1.4 3.8c0 1.7-.5 3-1.5 3.9s-2.3 1.5-4 1.5c-1.6 0-2.9-.5-3.9-1.4s-1.4-2.3-1.4-3.9zm3-.1c0 2 .8 3 2.5 3 1.6 0 2.4-1 2.4-3.1 0-2-.8-3-2.4-3-.8 0-1.4.3-1.8.8-.5.6-.7 1.4-.7 2.3z" fill="#1b1b1b"/><path d="m2190.7 160.9h3.8v-2h-4l.6.3c-1.5 2.3-2.8 4.2-3.9 5.6.9-.1 1.8-.2 2.8-.3-.1.8-.1 1.6-.1 2.3-2.7.3-4.5.6-5.4.8l-.7-2.1c.8-.7 1.7-1.8 2.8-3.4-.9.1-1.7.1-2.4.2l-.7-2.1c1-1.2 2-3.2 3.2-5.9l2.4.9c-1 1.8-1.9 3.4-2.9 4.9l1.7-.1 1.1-1.9 1.2.6v-2h4.4v-2.3h2.6v2.3h4.6v2.2h-4.6v2h4v2.2h-10.4zm-6.7 10.7-.4-2.6c2.1-.3 4.4-.6 6.8-.9-.1 1-.1 1.9-.1 2.5-2.2.3-4.3.6-6.3 1zm6.9.9v-7.9h10v7.9h-2.4v-1.1h-5.1v1.1zm7.5-5.6h-5.1v2.3h5.1z" fill="#1b1b1b"/><path d="m2202.2 165.1c.9-1.4 1.7-3 2.2-4.8h-2v-2.2h2.2v-3.5h2.4v3.5h1.8v1c1-1.3 1.8-2.8 2.3-4.4l2.5.2c-.2.6-.5 1.2-.7 1.7h6.8v7c0 2-.1 3.6-.1 4.8s-.3 2.1-.9 2.7-1.2 1-1.9 1c-.8.1-2.1.1-4 .1-.2-1-.4-1.8-.5-2.5 1.3.1 2.4.2 3.2.2.5 0 .9-.1 1.2-.4s.5-.9.5-1.8l-1.2.6-.4-.8c-2.9.2-5.1.5-6.4.8l-.8-2.1c.9-.7 2.1-2.8 3.5-6.2l2.3.9-2.9 4.9 3.2-.2c-.4-.8-.8-1.6-1.3-2.4l1.9-1c.7 1.1 1.4 2.3 2 3.5 0-1.8.1-4.1.1-6.9h-5.6c-.6 1.1-1.3 2.1-2.1 3-.5-.6-1-1.1-1.5-1.6h-1.1v1.1c.9.8 1.7 1.6 2.5 2.3l-1.6 1.5c-.3-.4-.6-.9-.9-1.3v8.6h-2.4v-7.7c-.5 1.3-1.1 2.5-1.8 3.6 0-.7-.2-1.9-.5-3.2z" fill="#1b1b1b"/><path d="m2221 170.3h7.8v-.9h-6.6v-1.5h6.6v-.9h-6v-6.4h6v-.9h-7.8v-1.7h7.8v-.9l-6.2.1c-.1-.5-.2-1.1-.4-1.6 5.2-.1 10.2-.2 15.2-.4 0 0 .1.6.4 1.7l-6.5.2v1h7.9v1.6h-7.9v.9h6.1v6.4h-6.1v.9h6.8v1.5h-6.8v.9h7.9v1.6h-18.2zm4.2-7.2h3.6v-1h-3.6zm0 2.3h3.6v-1h-3.6zm9.8-3.4h-3.7v1h3.7zm0 3.4v-1h-3.7v1z" fill="#1b1b1b"/><path d="m2240.1 171.7-.4-2.4c2.2-.2 4.4-.5 6.7-.9 0 .4 0 .7-.1 1.1h.9v-10.5c-1.4 2.2-2.6 4.2-3.9 6l3.2-.4c-.1.9-.2 1.6-.2 2.2-3.1.3-5 .6-5.6.8l-.9-2.2c.6-.4 1.6-1.5 2.8-3.4-1.2.1-2 .2-2.4.3l-.7-2.1c.7-.4 1.8-2.4 3.4-5.8l2.3.9c-1 1.8-2 3.4-2.9 4.8l1.6-.1c.4-.7.8-1.4 1.2-2.1l2 1v-3.6h9.4v14.2h1.1v2.4h-11.6v-1zm14-14.1h-4.3v2.4h4.3zm-4.3 7.1h4.3v-2.4h-4.3zm0 4.8h4.3v-2.5h-4.3z" fill="#1b1b1b"/><path d="m2174.2 192.5h-3.1l-6-9.1c-.3-.5-.5-.9-.7-1.1h-.1c.1.5.1 1.2.1 2.2v8h-2.9v-14.1h3.3l5.8 8.9c.4.6.6 1 .7 1.1-.1-.3-.1-1-.1-1.9v-8.1h2.9z" fill="#1b1b1b"/><path d="m2189 191.6c-1.4.8-3.1 1.2-5.1 1.2-2.2 0-4-.6-5.3-1.9s-1.9-3-1.9-5.2.7-4 2.1-5.4 3.3-2.1 5.7-2.1c1.5 0 2.8.2 3.9.6v2.9c-1.1-.6-2.4-1-4-1-1.4 0-2.5.4-3.3 1.3s-1.3 2.1-1.3 3.5c0 1.5.4 2.6 1.1 3.5.8.8 1.8 1.2 3.1 1.2.8 0 1.4-.1 1.9-.4v-2.9h-2.9v-2.4h5.9z" fill="#1b1b1b"/><path d="m2191.8 192.5v-14.1h4.9c5 0 7.5 2.3 7.5 6.9 0 2.2-.7 3.9-2.1 5.3-1.4 1.3-3.2 2-5.4 2h-4.9zm3-11.7v9.2h1.6c1.4 0 2.6-.4 3.4-1.3s1.2-2 1.2-3.5c0-1.4-.4-2.5-1.3-3.3s-2-1.2-3.3-1.2z" fill="#1b1b1b"/><path d="m2209.6 192.5c-.1-1-.3-1.9-.4-2.7.6.1 1 .2 1.4.2.6 0 1-.3 1.1-1s.1-1.5.1-2.5h-2.7c0 3.8-.6 6.6-1.8 8.5-.7-.6-1.4-1.2-2.1-1.8 1-1.6 1.5-4 1.5-7.1v-6.1h8.6l-.1-3h2.6v3h2.5c-.3-.4-.8-1.1-1.6-1.9l1.9-1c.4.5 1 1.2 1.8 2.2l-1.4.8h2v2.2h-5.2c.1 1.9.2 3.5.4 4.9.8-1.2 1.5-2.6 2.1-4l2.2 1c-1.1 2.4-2.3 4.5-3.6 6.3.5 1.2.9 1.8 1.2 1.8.1 0 .3-.1.4-.3s.2-.6.3-1.3.2-1.3.2-1.8c.6.3 1.3.7 2.3 1.1 0 .7-.2 1.5-.5 2.6s-.6 1.8-1.1 2.1c-.4.3-.9.4-1.3.4-1.3 0-2.4-.8-3.3-2.5-.9.9-1.8 1.8-2.8 2.6-.6-.7-1.2-1.4-1.9-1.9 1.4-1 2.6-2.1 3.7-3.4-.4-1.8-.8-4.4-.9-7.6h-6.3v2.2h5.2c0 .2 0 1.2-.1 3.2-.1 1.9-.2 3.1-.5 3.6-.3.4-.6.8-1 1.1-.1 0-1.2.1-2.9.1z" fill="#1b1b1b"/><path d="m2224.1 191.8h9.2c1.4-2.9 2.8-5.9 3.9-9.1l2.7.9c-1.2 2.8-2.4 5.5-3.7 8.2h5.8v2.4h-17.9zm.4-11.8h7.5c-.4-.7-.8-1.4-1.3-2.2l2.5-1.1c.6.9 1.2 1.8 1.7 2.7l-1.2.6h7.8v2.4h-17zm4.1 2.7c1.3 2.7 2.3 5.3 3.2 7.8l-2.6 1c-.9-2.7-1.9-5.3-3-7.8z" fill="#1b1b1b"/><g opacity=".38"><path d="m2454.8 70.6c0-.8-.2-1.4-.7-1.8s-1.1-.7-2-.7c-.6 0-1.2.2-1.8.4-.6.3-1.1.7-1.7 1.3v-1.7c.5-.5 1-.8 1.6-1.1s1.3-.4 2.1-.4c1.3 0 2.3.3 3.1 1s1.2 1.6 1.2 2.8c0 1-.2 1.9-.7 2.7s-1.3 1.5-2.4 2.3c-1.2.8-2 1.4-2.4 1.8s-.7.7-.8 1-.2.7-.2 1.2h7v1.6h-8.9v-.7c0-.8.1-1.5.3-2.1s.6-1.1 1.1-1.7 1.3-1.2 2.4-1.9c1.1-.8 1.9-1.5 2.3-2.1.3-.5.5-1.1.5-1.9z"/><path d="m2458.8 74.3c0-2.5.4-4.4 1.2-5.7s2-1.9 3.6-1.9c3 0 4.5 2.4 4.5 7.2 0 2.4-.4 4.2-1.3 5.5s-2 1.9-3.6 1.9c-1.4 0-2.6-.6-3.3-1.8s-1.1-2.9-1.1-5.2zm1.9-.1c0 3.8.9 5.6 2.9 5.6 1.9 0 2.8-1.9 2.8-5.7 0-3.9-.9-5.9-2.8-5.9-2 0-2.9 2-2.9 6z"/><path d="m2474.2 81.1v-12.1c-.3.3-.8.6-1.4.9-.7.3-1.3.6-1.9.7v-1.8c.8-.2 1.6-.5 2.4-1 .9-.4 1.5-.9 2-1.3h.7v14.4c0 .2-1.8.2-1.8.2z"/><path d="m2480.8 77.1c0-.8.2-1.6.7-2.2.5-.7 1.1-1.2 1.9-1.5-.6-.3-1.1-.8-1.5-1.3s-.5-1.1-.5-1.8.2-1.3.5-1.8.8-1 1.4-1.3 1.3-.5 2-.5 1.4.2 2 .5 1.1.8 1.4 1.3c.3.6.5 1.2.5 1.8s-.2 1.2-.5 1.8-.8 1-1.5 1.3c.8.3 1.4.8 1.9 1.5s.7 1.4.7 2.2-.2 1.5-.6 2.2c-.4.6-.9 1.1-1.6 1.5-.7.3-1.5.5-2.4.5s-1.7-.2-2.4-.5-1.2-.8-1.6-1.5c-.2-.7-.4-1.4-.4-2.2zm1.8-.1c0 .8.3 1.5.8 2s1.2.8 2.1.8c.8 0 1.5-.3 2.1-.8.5-.5.8-1.2.8-2s-.3-1.4-.8-2c-.5-.5-1.2-.8-2.1-.8-.8 0-1.5.3-2 .8s-.9 1.2-.9 2zm.5-6.6c0 .6.2 1.2.7 1.6s1 .7 1.6.7 1.2-.2 1.7-.7.7-1 .7-1.6-.2-1.2-.7-1.6c-.4-.4-1-.7-1.7-.7s-1.2.2-1.7.7-.6 1-.6 1.6z"/><path d="m2491.3 77.3h2.9v-5.2h6.5v-3.2h-5.4c-.8 1.5-1.7 2.8-2.8 4.1-.3-.3-.7-.7-1.1-1 1.7-1.9 3-4.1 3.9-6.6l1.5.4c-.3.6-.5 1.2-.8 1.8h12.6v1.3h-6.4v3.2h6.1v1.3h-6.1v3.9h7.2v1.3h-7.2v4.9h-1.5v-4.9h-9.4zm4.3 0h5v-3.9h-5z"/><path d="m2518.9 68.7c-.7-.4-1.5-.6-2.3-.6-1.2 0-2.2.5-2.9 1.6s-1.1 2.5-1.1 4.4c.7-1.3 1.7-1.9 3.2-1.9 1.2 0 2.2.4 2.9 1.2s1.1 1.9 1.1 3.2c0 1.4-.4 2.5-1.3 3.4s-1.9 1.3-3.2 1.3c-1.4 0-2.6-.6-3.4-1.7s-1.2-2.7-1.2-4.8c0-2.5.5-4.5 1.6-5.9 1.1-1.5 2.5-2.2 4.2-2.2 1 0 1.8.1 2.4.4zm-6.3 7.7c0 .9.2 1.7.7 2.4s1.2 1 2 1 1.4-.3 1.9-.9.7-1.3.7-2.2c0-1-.2-1.7-.7-2.3-.5-.5-1.1-.8-2-.8-.8 0-1.5.3-2 .8-.3.6-.6 1.3-.6 2z"/><path d="m2525.3 77.3c-.3 2.3-1.2 4.5-2.8 6.4-.4-.4-.8-.7-1.3-1.1 1.2-1.3 2-2.8 2.4-4.6.3-1.3.4-3.1.4-5.4v-6.3h12.2v14.2c0 1.8-.9 2.7-2.6 2.7-.7 0-1.6 0-2.8 0-.1-.4-.1-.9-.3-1.5 1.1.1 2 .1 2.6.1 1 0 1.5-.5 1.5-1.4v-3zm.1-1.3h9.3v-3.5h-9.2c0 1.2 0 2.3-.1 3.5zm.1-8.3v3.5h9.2v-3.5z"/></g><path d="m2463.4 170.1h-3.1l-6-9.1c-.3-.5-.5-.9-.7-1.1h-.1c.1.5.1 1.2.1 2.3v8h-2.9v-14.1h3.3l5.8 8.9c.4.6.6 1 .7 1.1h.1c-.1-.3-.1-1-.1-1.9v-8.1h2.9z" fill="#1b1b1b"/><path d="m2475.4 165.8h-6.6c.1 1.6 1.1 2.4 2.8 2.4 1.1 0 2.1-.3 2.9-.8v2.2c-.9.5-2.1.8-3.6.8-1.6 0-2.9-.4-3.8-1.4s-1.3-2.2-1.3-3.8.5-2.9 1.4-3.9 2.1-1.5 3.6-1.5c1.4 0 2.6.4 3.4 1.3s1.2 2.1 1.2 3.6zm-2.8-1.8c0-1.5-.6-2.3-1.8-2.3-.5 0-.9.2-1.3.6s-.6 1-.7 1.6h3.8z" fill="#1b1b1b"/><path d="m2476.7 165.1c0-1.7.5-3 1.5-3.9s2.3-1.4 4-1.4c1.6 0 2.9.5 3.9 1.4s1.4 2.2 1.4 3.8c0 1.7-.5 3-1.5 3.9s-2.3 1.5-4 1.5c-1.6 0-2.9-.5-3.9-1.4-1-1.1-1.4-2.3-1.4-3.9zm3-.1c0 2 .8 3 2.5 3 1.6 0 2.4-1 2.4-3.1 0-2-.8-3-2.4-3-.8 0-1.4.3-1.8.8-.5.6-.7 1.4-.7 2.3z" fill="#1b1b1b"/><path d="m2489.7 167c.9.7 2 1.1 3.3 1.1.8 0 1.4-.2 1.9-.5s.7-.9.7-1.5c0-.7-.3-1.2-.8-1.5s-1.3-.5-2.3-.5h-1.3v-2.3h1.2c1.9 0 2.9-.6 2.9-1.9 0-1.2-.7-1.8-2.2-1.8-.9 0-1.9.3-2.8.9v-2.4c1-.5 2.1-.8 3.4-.8s2.4.3 3.3.9 1.2 1.5 1.2 2.6c0 1.9-.9 3-2.8 3.5 1 .1 1.8.5 2.4 1.1s.9 1.4.9 2.2c0 1.3-.5 2.4-1.5 3.1-1 .8-2.3 1.1-3.9 1.1-1.5 0-2.6-.2-3.5-.7z" fill="#1b1b1b"/><path d="m2501.7 156.4h6.2c-.2-.5-.4-.9-.5-1.3l2.8-.6c.3.6.5 1.3.8 1.9h5.9v6.5h-12.8c0 4-.8 7.2-2.4 9.5-.5-.6-1.1-1.3-1.8-2.1 1.2-2 1.8-4.5 1.8-7.6zm12.8 4.2v-2h-10.3v2zm-9.7 11.8v-7.8h12.1v7.8h-2.4v-.9h-7.2v1zm9.6-5.6h-7.2v2.4h7.2z" fill="#1b1b1b"/><path d="m2525.7 163.7 1.9 4.6c.8-1.5 1.2-4.3 1.2-8.3h-1.9v-2.4h1.9v-3.1h2.4v3.1h4.8l-.2 10.3c0 1.4-.1 2.2-.2 2.6s-.2.7-.5.9c-.3.3-.6.5-1 .6s-1.5.2-3.3.2c-.2-.9-.4-1.8-.7-2.7.8.1 1.5.1 2 .1.4 0 .6-.1.8-.2s.3-.3.3-.6.1-1.2.1-2.8.1-3.6.1-5.9h-2.4c-.1 2.7-.2 4.7-.3 5.8-.2 1.2-.5 2.4-1 3.6s-1.2 2.3-2 3.2c-.7-.6-1.4-1.1-2.2-1.5.4-.4.7-.7 1-1.1l-5.1.4c-.8.1-1.3.2-1.7.4l-1.1-2.2c.6-.5 1.4-2.4 2.4-5.7h-2.3v-2.3h8.4v2.3h-3.5c-.6 1.8-1.2 3.4-1.8 5.1 1.1 0 2.1-.1 3-.1-.4-1.2-.9-2.4-1.3-3.4zm.9-5.5h-7v-2.3h7z" fill="#1b1b1b"/><g opacity=".38"><path d="m2742.8 70.6c0-.8-.2-1.4-.7-1.8s-1.1-.7-2-.7c-.6 0-1.2.2-1.8.4-.6.3-1.1.7-1.7 1.3v-1.7c.5-.5 1-.8 1.6-1.1s1.3-.4 2.1-.4c1.3 0 2.3.3 3.1 1s1.2 1.6 1.2 2.8c0 1-.2 1.9-.7 2.7s-1.3 1.5-2.4 2.3c-1.2.8-2 1.4-2.4 1.8s-.7.7-.8 1-.2.7-.2 1.2h7v1.6h-8.9v-.7c0-.8.1-1.5.3-2.1s.6-1.1 1.1-1.7 1.3-1.2 2.4-1.9c1.1-.8 1.9-1.5 2.3-2.1.3-.5.5-1.1.5-1.9z"/><path d="m2746.8 74.3c0-2.5.4-4.4 1.2-5.7s2-1.9 3.6-1.9c3 0 4.5 2.4 4.5 7.2 0 2.4-.4 4.2-1.3 5.5s-2 1.9-3.6 1.9c-1.4 0-2.6-.6-3.3-1.8s-1.1-2.9-1.1-5.2zm1.9-.1c0 3.8.9 5.6 2.9 5.6 1.9 0 2.8-1.9 2.8-5.7 0-3.9-.9-5.9-2.8-5.9-2 0-2.9 2-2.9 6z"/><path d="m2762.2 81.1v-12.1c-.3.3-.8.6-1.4.9-.7.3-1.3.6-1.9.7v-1.8c.8-.2 1.6-.5 2.4-1 .9-.4 1.5-.9 2-1.3h.7v14.4c0 .2-1.8.2-1.8.2z"/><path d="m2769.6 79.1c.8.4 1.6.7 2.5.7 1.3 0 2.2-.5 2.9-1.5s1.1-2.4 1.1-4.2c-.6 1.2-1.7 1.8-3.1 1.8-1.2 0-2.2-.4-2.9-1.2-.8-.8-1.2-1.9-1.2-3.2 0-1.4.4-2.5 1.3-3.4s2-1.3 3.3-1.3c1.4 0 2.5.6 3.3 1.7s1.2 2.7 1.2 4.8c0 2.6-.5 4.6-1.5 6s-2.4 2.1-4.2 2.1c-1 0-1.8-.2-2.5-.5zm1.1-7.9c0 .9.2 1.7.7 2.3s1.2.8 2 .8c.7 0 1.4-.2 1.9-.8s.8-1.1.8-1.8c0-1-.2-1.9-.8-2.5-.5-.7-1.2-1-2-1s-1.4.3-1.9.9-.7 1.2-.7 2.1z"/><path d="m2779.3 77.3h2.9v-5.2h6.5v-3.2h-5.4c-.8 1.5-1.7 2.8-2.8 4.1-.3-.3-.7-.7-1.1-1 1.7-1.9 3-4.1 3.9-6.6l1.5.4c-.3.6-.5 1.2-.8 1.8h12.6v1.3h-6.4v3.2h6.1v1.3h-6.1v3.9h7.2v1.3h-7.2v4.9h-1.5v-4.9h-9.4zm4.3 0h5v-3.9h-5z"/><path d="m2805.4 70.6c0-.8-.2-1.4-.7-1.8s-1.1-.7-2-.7c-.6 0-1.2.2-1.8.4-.6.3-1.1.7-1.7 1.3v-1.7c.5-.5 1-.8 1.6-1.1s1.3-.4 2.1-.4c1.3 0 2.3.3 3.1 1s1.2 1.6 1.2 2.8c0 1-.2 1.9-.7 2.7s-1.3 1.5-2.4 2.3c-1.2.8-2 1.4-2.4 1.8s-.7.7-.8 1-.2.7-.2 1.2h7v1.6h-8.9v-.7c0-.8.1-1.5.3-2.1s.6-1.1 1.1-1.7 1.3-1.2 2.4-1.9c1.1-.8 1.9-1.5 2.3-2.1.3-.5.5-1.1.5-1.9z"/><path d="m2813.3 77.3c-.3 2.3-1.2 4.5-2.8 6.4-.4-.4-.8-.7-1.3-1.1 1.2-1.3 2-2.8 2.4-4.6.3-1.3.4-3.1.4-5.4v-6.3h12.2v14.2c0 1.8-.9 2.7-2.6 2.7-.7 0-1.6 0-2.8 0-.1-.4-.1-.9-.3-1.5 1.1.1 2 .1 2.6.1 1 0 1.5-.5 1.5-1.4v-3zm.1-1.3h9.3v-3.5h-9.2c0 1.2 0 2.3-.1 3.5zm.1-8.3v3.5h9.2v-3.5z"/></g><path d="m2709.6 155.4h2.5c-.2.4-.4.9-.6 1.3h4.5v1.7c.7-.9 1.3-1.9 1.7-2.9h2.5c-.2.4-.3.9-.5 1.3h4.8v1.7h-3.1c.4.3.8.7 1.1 1l-1.1.9h2v5h-6.4v1.1h7.2c-.1 2.9-.2 4.6-.6 4.9s-.6.7-1 .9-1.8.4-4.4.3c-.2-.7-.4-1.5-.6-2.2 1.6.1 2.4.1 2.5.1.4 0 .7-.1 1-.2s.4-.3.4-.5c.1-.2.1-.7.1-1.3h-4.7v5h-2.5v-4.5c-1.6 1.8-3.8 3.2-6.6 4.4-.4-.6-.8-1.3-1.4-2.2 2.2-.7 4-1.6 5.4-2.7h-4.3l.9-5h6v-1.1h-6.3v-1.6c-.1.1-.3.3-.4.4-.5-.6-.9-1.1-1.5-1.7 1.7-1.2 2.7-2.6 3.4-4.1zm1.6 3.6.8-.6h-1.5c-.5.7-1.1 1.4-1.6 1.9h3.8c-.6-.4-1-.8-1.5-1.3zm-.8 7.5h4.2v-1.1h-4zm2.8-8.1c.4.4.9.8 1.3 1.1l-1 .8h3.8c-.6-.4-1.2-.8-1.9-1.3.2-.2.4-.4.6-.7zm7.8 5v-1.1h-3.9v1.1zm-3.6-3h3.4c-.4-.4-.9-.9-1.4-1.4l.6-.6h-1.2c-.4.7-.9 1.4-1.4 2z" fill="#1b1b1b"/><path d="m2725.7 168.8h17.6v2.8h-17.6zm1.3-11.3h14.9v2.7h-14.9z" fill="#1b1b1b"/><path d="m2745.8 156.2h15.4v5.7h-12.8c0 3.5-.2 6-.6 7.5s-1 2.8-1.6 3.9c-.8-.9-1.5-1.6-2-2.2.5-.8.9-1.7 1.2-2.8s.5-3.2.5-6.3zm12.8 3.6v-1.5h-10.3v1.5zm-9.8 13.7v-10.1h4.9v-1.3h2.4v1.3h4.9v10.1h-2.4v-.9h-7.5v.9zm2.4-6.4h2.5v-1.6h-2.5zm0 3.5h2.5v-1.6h-2.5zm7.6-5.1h-2.5v1.6h2.5zm-2.6 5.1h2.5v-1.6h-2.5z" fill="#1b1b1b"/><path d="m2762.8 163.4h4.2v-4.5h-3.2v-2.4h16.3v2.4h-2.9v4.5h3.7v2.4h-3.7v7.5h-2.6v-7.5h-4.9c-.1 2.2-.5 3.9-1.2 5s-1.8 2.1-3.2 2.9c-.7-.6-1.4-1.2-2.3-1.9 1.1-.6 2.1-1.3 2.8-2.2s1.2-2.1 1.3-3.8h-4.1zm6.9 0h4.8v-4.5h-4.8z" fill="#1b1b1b"/><path d="m2797.7 165c-.9 1.6-2.1 3-3.6 4.2 1.4.6 3.2 1.1 5.6 1.5-.5.9-1.1 1.8-1.6 2.7-2.5-.6-4.6-1.4-6.3-2.5-1.8 1.1-3.9 1.9-6.4 2.7-.4-.8-.9-1.6-1.4-2.4 2-.6 3.9-1.2 5.5-2-.9-.8-1.7-1.8-2.4-2.9-1.4 2.2-3 4.2-4.9 5.7-.3-1.1-.5-2.2-.8-3.1 2.4-2.2 4.1-4.8 5.3-7.8h-4.6v-2.2c.3-1 .6-2 .9-3.1l2.5.3c-.2.8-.4 1.7-.8 2.8h2.6c.3-1 .6-2.2.8-3.6l2.6.2-.8 3.4h5.1c-.7-.7-1.4-1.3-2.1-2l1.6-1.5c1.1.9 2.1 1.6 2.9 2.4l-1.1 1.2h3.1v2.2h-10.1c-.2.5-.4 1.1-.6 1.7h8.9zm-6 3c1.3-.9 2.2-1.9 3-2.9h-5.6c.7 1.1 1.5 2.1 2.6 2.9z" fill="#1b1b1b"/><path d="m2800.3 160.6h6.3v-1.4h-4.8v-2.2h4.8v-1.6h2.5v1.6h4.4v2c.8-.8 1.6-1.7 2.4-2.7l1.8 1.4c-.9 1-1.8 2-2.7 2.8h3.4v2.1h-6.1c-.7.5-1.5 1-2.3 1.4h6.4v9.4h-2.5v-.8h-8.5v.8h-2.5v-6.6c-.6.2-1.3.4-1.9.6-.2-.7-.4-1.4-.8-2.3 3.4-.6 6.1-1.4 8.2-2.5h-8.1zm13.5 5.6h-8.5v1.3h8.5zm-8.5 4.5h8.5v-1.3h-8.5zm8-11.5h-4.2v1.4h2.6c.5-.5 1.1-.9 1.6-1.4z" fill="#1b1b1b"/><path d="m2819.2 160.2h7.2c.1-1.3.1-2.9.1-4.6h2.8c0 1.8-.1 3.3-.1 4.6h7.5v2.5h-7.3c1.1 4.1 3.6 6.8 7.6 8.2-.9 1-1.6 1.8-2.1 2.5-3.3-1.6-5.6-4.1-6.9-7.5-1 3.2-3.3 5.7-7 7.7-.5-.6-1.2-1.4-2.1-2.3 4.4-2 6.9-4.8 7.3-8.5h-6.9z" fill="#1b1b1b"/><path d="m2848.6 155.5-.5.6c1.6 2.3 4.1 4.3 7.6 5.9-.6.8-1.2 1.5-1.6 2.2-.9-.5-1.8-1-2.6-1.5v1.2h-9.8v-1.4c-.8.5-1.6 1.1-2.6 1.6-.4-.5-.9-1.2-1.6-2.1 4-2.1 6.6-4.3 8-6.5zm-10.3 9.9h16.8v2.3h-4.6c1.2 1.4 2.4 3 3.7 4.7l-2.2 1.4c-.3-.4-.6-.8-.8-1.2-2.3.1-5.2.2-8.7.4-.5 0-1.2.1-1.9.3l-1.1-2.2c1.1-.8 2.2-1.9 3.3-3.4h-4.5zm8.3-7.2c-.9 1.1-2.1 2.3-3.6 3.5h7.2c-1.5-1.1-2.6-2.3-3.6-3.5zm1.6 10.5 1.6-.9h-3.9c-.6.8-1.4 1.7-2.4 2.8 1.4 0 3.4-.1 5.9-.2-.3-.6-.7-1.2-1.2-1.7z" fill="#1b1b1b"/><path d="m2754.2 195.9v-12.6h4.8v-2.1h-5.5v-2.3h17.8v2.3h-5.7v2.1h5v12.6h-2.6v-1.2h-11.3v1.2zm9-7.6v-2.7h-1.8c0 2.6-.9 4.7-2.6 6.1-.7-.6-1.4-1.1-2-1.5v2.2h11.3v-1.9h-2.7c-1.4 0-2.2-.7-2.2-2.2zm-6.4 1.7c1.5-1.1 2.2-2.5 2.2-4.4h-2.2zm4.6-6.7h1.8v-2.1h-1.8zm6.7 2.3h-2.5v1.7c0 .6.3.9.9.9h1.6z" fill="#1b1b1b"/><path d="m2772 191.4c1.2-1.3 2.2-2.7 3-4.2h-2.6v-1.8l.7-3.8h2.1l-.6 3.6h1.5v-4.5h-3.7v-2h7.1v2h-1.2v2.5c1.4-1.5 2.5-3.3 3.4-5.4l2.1.6c-.3.8-.7 1.6-1.2 2.4h2.7c-.4-.9-.8-1.7-1.2-2.2l1.8-.9c.6.8 1.1 1.6 1.6 2.4l-1.4.7h3.7v2h-2.9v2h2.7v1.9h-2.7v2h2.7v1.9h-2.7v2.1h3.1v1.9h-7.8v1.2h-2.3v-11.3c-.1.1-.3.3-.4.4-.4-.7-.9-1.3-1.3-1.8v1.9h1.1v2h-1.1v6.4c0 .8-.2 1.4-.7 1.7-.5.4-1.2.5-2.3.5h-1.1c-.1-.9-.3-1.7-.5-2.3.7.1 1.2.1 1.6.1.6 0 .8-.3.8-.9v-3.9c-.8 1.9-1.9 3.5-3.2 5 0-.1-.3-.9-.8-2.2zm10.2-6.5h2.5v-2h-2.5zm0 3.9h2.5v-2h-2.5zm0 4h2.5v-2.1h-2.5z" fill="#1b1b1b"/><path d="m2791.6 196v-17.3h16.5v17.3h-2.5v-.7h-11.5v.7zm5.9-15.1h-3.4v3.2c1.5-1 2.7-2.1 3.4-3.2zm-2.2 4.6c-.3-.4-.7-.7-1.2-1.2v2.2c1.4-.2 2.6-.5 3.7-.8-.5-.3-.9-.7-1.2-1.1-.4.3-.8.6-1.3.9zm.1 4.2c3.2.4 6.2.9 9.1 1.4l-.5 2h1.6v-6.5c-.3.4-.6 1-1 1.6-1.8-.3-3.4-.8-4.7-1.3-.7.3-1.4.5-2.2.8 2 .2 4 .5 5.9.9l-.4 1.7c-2-.4-4.3-.7-6.8-1l.3-1.3c-.6.1-1.2.3-1.9.4-.2-.5-.5-1.1-.9-1.6v6.4h9.8c-2.5-.5-5.5-1-9-1.4zm4.5-4.8c.9-.4 1.5-.8 2-1.3h-3.9c.5.4 1.2.9 1.9 1.3zm4.9-3v1.5c-.6.9-1.5 1.6-2.5 2.3 1 .3 2.1.5 3.4.6v-5.4h-5.6c-.2.3-.5.7-.7 1z" fill="#1b1b1b"/><g opacity=".38"><path d="m3032.8 69.6c0-.8-.2-1.4-.7-1.8s-1.1-.7-2-.7c-.6 0-1.2.2-1.8.4-.6.3-1.1.7-1.7 1.3v-1.7c.5-.5 1-.8 1.6-1.1s1.3-.4 2.1-.4c1.3 0 2.3.3 3.1 1s1.2 1.6 1.2 2.8c0 1-.2 1.9-.7 2.7s-1.3 1.5-2.4 2.3c-1.2.8-2 1.4-2.4 1.8s-.7.7-.8 1-.2.7-.2 1.2h7v1.6h-8.9v-.7c0-.8.1-1.5.3-2.1s.6-1.1 1.1-1.7 1.3-1.2 2.4-1.9c1.1-.8 1.9-1.5 2.3-2.1.3-.5.5-1.1.5-1.9z"/><path d="m3036.8 73.3c0-2.5.4-4.4 1.2-5.7s2-1.9 3.6-1.9c3 0 4.5 2.4 4.5 7.2 0 2.4-.4 4.2-1.3 5.5-.8 1.3-2 1.9-3.6 1.9-1.4 0-2.6-.6-3.3-1.8s-1.1-2.9-1.1-5.2zm1.9-.1c0 3.8.9 5.6 2.9 5.6 1.9 0 2.8-1.9 2.8-5.7 0-3.9-.9-5.9-2.8-5.9-2 0-2.9 2-2.9 6z"/><path d="m3052.2 80.1v-12.1c-.3.3-.8.6-1.4.9-.7.3-1.3.6-1.9.7v-1.8c.8-.2 1.6-.5 2.4-1 .9-.4 1.5-.9 2-1.3h.7v14.4c0 .2-1.8.2-1.8.2z"/><path d="m3059.6 78.1c.8.4 1.6.7 2.5.7 1.3 0 2.2-.5 2.9-1.5s1.1-2.4 1.1-4.2c-.6 1.2-1.7 1.8-3.1 1.8-1.2 0-2.2-.4-2.9-1.2-.8-.8-1.2-1.9-1.2-3.2 0-1.4.4-2.5 1.3-3.4s2-1.3 3.3-1.3c1.4 0 2.5.6 3.3 1.7s1.2 2.7 1.2 4.8c0 2.6-.5 4.6-1.5 6s-2.4 2.1-4.2 2.1c-1 0-1.8-.2-2.5-.5zm1.1-7.9c0 .9.2 1.7.7 2.3s1.2.8 2 .8c.7 0 1.4-.2 1.9-.8s.8-1.1.8-1.8c0-1-.2-1.9-.8-2.5-.5-.7-1.2-1-2-1s-1.4.3-1.9.9c-.5.5-.7 1.2-.7 2.1z"/><path d="m3069.3 76.3h2.9v-5.2h6.5v-3.2h-5.4c-.8 1.5-1.7 2.8-2.8 4.1-.3-.3-.7-.7-1.1-1 1.7-1.9 3-4.1 3.9-6.6l1.5.4c-.3.6-.5 1.2-.8 1.8h12.6v1.3h-6.4v3.2h6.1v1.3h-6.1v3.9h7.2v1.3h-7.2v4.9h-1.5v-4.9h-9.4zm4.3 0h5v-3.9h-5z"/><path d="m3089.3 78.1c.8.4 1.6.7 2.5.7 1.3 0 2.2-.5 2.9-1.5s1-2.4 1-4.2c-.6 1.2-1.7 1.8-3.1 1.8-1.2 0-2.2-.4-2.9-1.2s-1.2-1.9-1.2-3.2c0-1.4.4-2.5 1.3-3.4s2-1.3 3.3-1.3c1.4 0 2.5.6 3.3 1.7s1.2 2.7 1.2 4.8c0 2.6-.5 4.6-1.5 6s-2.4 2.1-4.2 2.1c-1 0-1.8-.2-2.5-.5zm1-7.9c0 .9.2 1.7.7 2.3s1.2.8 2 .8c.7 0 1.4-.2 1.9-.8s.8-1.1.8-1.8c0-1-.2-1.9-.8-2.5-.5-.7-1.2-1-2-1s-1.4.3-1.9.9-.7 1.2-.7 2.1z"/><path d="m3103.3 76.3c-.3 2.3-1.2 4.5-2.8 6.4-.4-.4-.8-.7-1.3-1.1 1.2-1.3 2-2.8 2.4-4.6.3-1.3.4-3.1.4-5.4v-6.3h12.2v14.2c0 1.8-.9 2.7-2.6 2.7-.7 0-1.6 0-2.8 0-.1-.4-.1-.9-.3-1.5 1.1.1 2 .1 2.6.1 1 0 1.5-.5 1.5-1.4v-3zm.1-1.3h9.3v-3.5h-9.2c0 1.2 0 2.3-.1 3.5zm.1-8.3v3.5h9.2v-3.5z"/></g><g opacity=".38"><path d="m3322.8 70.6c0-.8-.2-1.4-.7-1.8s-1.1-.7-2-.7c-.6 0-1.2.2-1.8.4-.6.3-1.1.7-1.7 1.3v-1.7c.5-.5 1-.8 1.6-1.1s1.3-.4 2.1-.4c1.3 0 2.3.3 3.1 1s1.2 1.6 1.2 2.8c0 1-.2 1.9-.7 2.7s-1.3 1.5-2.4 2.3c-1.2.8-2 1.4-2.4 1.8s-.7.7-.8 1-.2.7-.2 1.2h7v1.6h-8.9v-.7c0-.8.1-1.5.3-2.1s.6-1.1 1.1-1.7 1.3-1.2 2.4-1.9c1.1-.8 1.9-1.5 2.3-2.1.3-.5.5-1.1.5-1.9z"/><path d="m3326.8 74.3c0-2.5.4-4.4 1.2-5.7s2-1.9 3.6-1.9c3 0 4.5 2.4 4.5 7.2 0 2.4-.4 4.2-1.3 5.5-.8 1.3-2 1.9-3.6 1.9-1.4 0-2.6-.6-3.3-1.8s-1.1-2.9-1.1-5.2zm1.9-.1c0 3.8.9 5.6 2.9 5.6 1.9 0 2.8-1.9 2.8-5.7 0-3.9-.9-5.9-2.8-5.9-2 0-2.9 2-2.9 6z"/><path d="m3342.2 81.1v-12.1c-.3.3-.8.6-1.4.9-.7.3-1.3.6-1.9.7v-1.8c.8-.2 1.6-.5 2.4-1 .9-.4 1.5-.9 2-1.3h.7v14.4c0 .2-1.8.2-1.8.2z"/><path d="m3349.6 79.1c.8.4 1.6.7 2.5.7 1.3 0 2.2-.5 2.9-1.5s1.1-2.4 1.1-4.2c-.6 1.2-1.7 1.8-3.1 1.8-1.2 0-2.2-.4-2.9-1.2-.8-.8-1.2-1.9-1.2-3.2 0-1.4.4-2.5 1.3-3.4s2-1.3 3.3-1.3c1.4 0 2.5.6 3.3 1.7s1.2 2.7 1.2 4.8c0 2.6-.5 4.6-1.5 6s-2.4 2.1-4.2 2.1c-1 0-1.8-.2-2.5-.5zm1.1-7.9c0 .9.2 1.7.7 2.3s1.2.8 2 .8c.7 0 1.4-.2 1.9-.8s.8-1.1.8-1.8c0-1-.2-1.9-.8-2.5-.5-.7-1.2-1-2-1s-1.4.3-1.9.9c-.5.5-.7 1.2-.7 2.1z"/><path d="m3359.3 77.3h2.9v-5.2h6.5v-3.2h-5.4c-.8 1.5-1.7 2.8-2.8 4.1-.3-.3-.7-.7-1.1-1 1.7-1.9 3-4.1 3.9-6.6l1.5.4c-.3.6-.5 1.2-.8 1.8h12.6v1.3h-6.4v3.2h6.1v1.3h-6.1v3.9h7.2v1.3h-7.2v4.9h-1.5v-4.9h-9.4zm4.3 0h5v-3.9h-5z"/><path d="m3379.3 79.1c.8.4 1.6.7 2.5.7 1.3 0 2.2-.5 2.9-1.5s1-2.4 1-4.2c-.6 1.2-1.7 1.8-3.1 1.8-1.2 0-2.2-.4-2.9-1.2s-1.2-1.9-1.2-3.2c0-1.4.4-2.5 1.3-3.4s2-1.3 3.3-1.3c1.4 0 2.5.6 3.3 1.7s1.2 2.7 1.2 4.8c0 2.6-.5 4.6-1.5 6s-2.4 2.1-4.2 2.1c-1 0-1.8-.2-2.5-.5zm1-7.9c0 .9.2 1.7.7 2.3s1.2.8 2 .8c.7 0 1.4-.2 1.9-.8s.8-1.1.8-1.8c0-1-.2-1.9-.8-2.5-.5-.7-1.2-1-2-1s-1.4.3-1.9.9-.7 1.2-.7 2.1z"/><path d="m3393.3 77.3c-.3 2.3-1.2 4.5-2.8 6.4-.4-.4-.8-.7-1.3-1.1 1.2-1.3 2-2.8 2.4-4.6.3-1.3.4-3.1.4-5.4v-6.3h12.2v14.2c0 1.8-.9 2.7-2.6 2.7-.7 0-1.6 0-2.8 0-.1-.4-.1-.9-.3-1.5 1.1.1 2 .1 2.6.1 1 0 1.5-.5 1.5-1.4v-3zm.1-1.3h9.3v-3.5h-9.2c0 1.2 0 2.3-.1 3.5zm.1-8.3v3.5h9.2v-3.5z"/></g><g fill="#1b1b1b"><path d="m2989.5 154.4h2.5c-.2.4-.4.9-.6 1.3h4.5v1.7c.7-.9 1.3-1.9 1.7-2.9h2.5c-.2.4-.3.9-.5 1.3h4.8v1.7h-3.1c.4.3.8.7 1.1 1l-1.1.9h2v5h-6.4v1.1h7.2c-.1 2.9-.2 4.6-.6 4.9s-.6.7-1 .9-1.8.4-4.4.3c-.2-.7-.4-1.5-.6-2.2 1.6.1 2.4.1 2.5.1.4 0 .7-.1 1-.2s.4-.3.4-.5c.1-.2.1-.7.1-1.3h-4.7v5h-2.5v-4.5c-1.6 1.8-3.8 3.2-6.6 4.4-.4-.6-.8-1.3-1.4-2.2 2.2-.7 4-1.6 5.4-2.7h-4.3l.9-5h6v-1.1h-6.3v-1.6c-.1.1-.3.3-.4.4-.5-.6-.9-1.1-1.5-1.7 1.6-1.2 2.6-2.6 3.4-4.1zm1.5 3.6.8-.6h-1.5c-.5.7-1.1 1.4-1.6 1.9h3.8c-.6-.4-1-.8-1.5-1.3zm-.7 7.5h4.2v-1.1h-4zm2.8-8.1c.4.4.9.8 1.3 1.1l-1 .8h3.8c-.6-.4-1.2-.8-1.9-1.3.2-.2.4-.4.6-.7zm7.7 5v-1.1h-3.9v1.1zm-3.5-3h3.4c-.4-.4-.9-.9-1.4-1.4l.6-.6h-1.2c-.5.7-.9 1.4-1.4 2z"/><path d="m3005.4 162.1h17.6v2.7h-17.6z"/><path d="m3025.6 155.2h15.4v5.7h-12.8c0 3.5-.2 6-.6 7.5s-1 2.8-1.6 3.9c-.8-.9-1.5-1.6-2-2.2.5-.8.9-1.7 1.2-2.8s.5-3.2.5-6.3zm12.9 3.6v-1.5h-10.3v1.5zm-9.8 13.7v-10.1h4.9v-1.3h2.4v1.3h4.9v10.1h-2.4v-.9h-7.5v.9zm2.4-6.4h2.5v-1.6h-2.5zm0 3.5h2.5v-1.6h-2.5zm7.5-5.1h-2.5v1.6h2.5zm-2.5 5.1h2.5v-1.6h-2.5z"/><path d="m3056.5 170.1h-3.1l-6-9.1c-.3-.5-.5-.9-.7-1.1h-.1c.1.5.1 1.2.1 2.3v8h-2.9v-14.1h3.3l5.8 8.9c.4.6.6 1 .7 1.1h.1c-.1-.3-.1-1-.1-1.9v-8.1h2.9z"/><path d="m3068.5 165.8h-6.6c.1 1.6 1.1 2.4 2.8 2.4 1.1 0 2.1-.3 2.9-.8v2.2c-.9.5-2.1.8-3.6.8-1.6 0-2.9-.4-3.8-1.4s-1.3-2.2-1.3-3.8.5-2.9 1.4-3.9 2.1-1.5 3.6-1.5c1.4 0 2.6.4 3.4 1.3s1.2 2.1 1.2 3.6zm-2.8-1.8c0-1.5-.6-2.3-1.8-2.3-.5 0-.9.2-1.3.6s-.6 1-.7 1.6h3.8z"/><path d="m3069.8 165.1c0-1.7.5-3 1.5-3.9s2.3-1.4 4-1.4c1.6 0 2.9.5 3.9 1.4s1.4 2.2 1.4 3.8c0 1.7-.5 3-1.5 3.9s-2.3 1.5-4 1.5c-1.6 0-2.9-.5-3.9-1.4-.9-1.1-1.4-2.3-1.4-3.9zm3-.1c0 2 .8 3 2.5 3 1.6 0 2.4-1 2.4-3.1 0-2-.8-3-2.4-3-.8 0-1.4.3-1.8.8-.5.6-.7 1.4-.7 2.3z"/><path d="m3085.5 154.4c.5.6 1.1 1.4 1.8 2.4l-1.9 1h2.8v2c-.5 1.1-1.1 2.2-1.8 3.2v.8l1-.9c.7.6 1.5 1.4 2.3 2.3l-1.8 1.5c-.6-.7-1.1-1.4-1.5-1.9v7.6h-2.5v-6.2c-.5.6-1.1 1.1-1.6 1.6-.3-1.2-.5-2.2-.7-3 1.6-1.4 2.9-2.9 3.7-4.6h-3.5v-2.4h3.1c-.6-.9-1.1-1.7-1.6-2.3zm2.3 15.1h4.9v-7.5h-3.6v-2.4h3.6v-4.9h2.6v4.9h3.8v2.4h-3.8v7.5h4.4v2.4h-11.9z"/><path d="m3104 169.3h14.2v2.5h-16.8v-16.2h16.2v2.5h-13.6zm.7-9.2 1.8-1.8 4 3.5c1-1.2 2-2.4 2.9-3.7l2.3 1.5c-1 1.4-2.1 2.7-3.2 3.9l4.1 3.8-2.2 1.9c-1.2-1.3-2.5-2.5-3.8-3.8-1.4 1.4-2.8 2.6-4.4 3.8-.3-.4-.9-1-1.8-1.9 1.5-1.1 2.9-2.3 4.3-3.6-1.3-1.3-2.6-2.5-4-3.6z"/><path d="m3119.4 159.2h7.2c.1-1.3.1-2.9.1-4.6h2.8c0 1.8-.1 3.3-.1 4.6h7.5v2.5h-7.3c1.1 4.1 3.6 6.8 7.6 8.2-.9 1-1.6 1.8-2.1 2.5-3.3-1.6-5.6-4.1-6.9-7.5-1 3.2-3.3 5.7-7 7.7-.5-.6-1.2-1.4-2.1-2.3 4.4-2 6.9-4.8 7.3-8.5h-6.9z"/><path d="m3148.8 154.5-.5.6c1.6 2.3 4.1 4.3 7.6 5.9-.6.8-1.2 1.5-1.6 2.2-.9-.5-1.8-1-2.6-1.5v1.2h-9.8v-1.4c-.8.5-1.6 1.1-2.6 1.6-.4-.5-.9-1.2-1.6-2.1 4-2.1 6.6-4.3 8-6.5zm-10.4 9.9h16.8v2.3h-4.6c1.2 1.4 2.4 3 3.7 4.7l-2.2 1.4c-.3-.4-.6-.8-.8-1.2-2.3.1-5.2.2-8.7.4-.5 0-1.2.1-1.9.3l-1.1-2.2c1.1-.8 2.2-1.9 3.3-3.4h-4.5zm8.4-7.2c-.9 1.1-2.1 2.3-3.6 3.5h7.2c-1.5-1.1-2.7-2.3-3.6-3.5zm1.6 10.5 1.6-.9h-3.9c-.6.8-1.4 1.7-2.4 2.8 1.4 0 3.4-.1 5.9-.2-.4-.6-.8-1.2-1.2-1.7z"/><path d="m3053 191.4h6.8v-14.4h3v5.1h6.8v2.6h-6.8v6.7h7.9v2.6h-17.7z"/><path d="m3072.9 181.8c.9.7 1.9 1.4 2.9 2.3l-1.6 2c-.4-.4-1.3-1.2-2.7-2.5zm.7 5.5c.8.3 1.5.6 2.4.9-.6 2.1-1.1 4.3-1.7 6.8-.8-.3-1.6-.5-2.4-.8.5-2 1.1-4.3 1.7-6.9zm-.1-10.3c.9.7 1.9 1.5 2.9 2.3l-1.7 1.8c-.8-.8-1.8-1.7-2.8-2.5zm2 8.9h1.6l.3-2.9c-.3.3-.6.6-.9.9-.4-.6-.9-1.2-1.5-1.9 1.6-1.6 2.9-3.3 3.7-5.1l2.6.3c-.2.4-.3.7-.5 1.1h8.4v1.9h-9.5c-.3.4-.6.8-.9 1.2h9.4l-.1 4.4h1.5v1.9h-1.5l-.1 2.5h1.4v1.9h-1.4c0 .9-.2 1.6-.6 1.9-.4.4-.9.6-1.5.6s-2 .1-3.9.1c-.2-.6-.4-1.3-.6-1.9 1.2 0 2.1.1 2.8.1.4 0 .7 0 1-.1s.4-.3.4-.7h-8.9l.4-4.4h-1.5zm5.2 3 1.1-1.1h-2.4l-.2 2.5h3.4c-.7-.5-1.3-1-1.9-1.4zm0-4.5 1.1-1h-2l-.3 2.6h3.1zm3.7 4.8-1.1 1.1h2.3l.1-2.5h-3.3c.4.3 1.1.8 2 1.4zm0-4.4-1.2 1.2h2.4v-2.6h-3.3c.6.3 1.3.8 2.1 1.4z"/><path d="m3280.2 171.1h-3.1l-6-9.1c-.3-.5-.5-.9-.7-1.1h-.1c.1.5.1 1.2.1 2.3v8h-2.9v-14.1h3.3l5.8 8.9c.4.6.6 1 .7 1.1h.1c-.1-.3-.1-1-.1-1.9v-8.1h2.9z"/><path d="m3292.2 166.8h-6.6c.1 1.6 1.1 2.4 2.8 2.4 1.1 0 2.1-.3 2.9-.8v2.2c-.9.5-2.1.8-3.6.8-1.6 0-2.9-.4-3.8-1.4s-1.3-2.2-1.3-3.8.5-2.9 1.4-3.9 2.1-1.5 3.6-1.5c1.4 0 2.6.4 3.4 1.3s1.2 2.1 1.2 3.6zm-2.8-1.8c0-1.5-.6-2.3-1.8-2.3-.5 0-.9.2-1.3.6s-.6 1-.7 1.6h3.8z"/><path d="m3293.5 166.1c0-1.7.5-3 1.5-3.9s2.3-1.4 4-1.4c1.6 0 2.9.5 3.9 1.4s1.4 2.2 1.4 3.8c0 1.7-.5 3-1.5 3.9s-2.3 1.5-4 1.5c-1.6 0-2.9-.5-3.9-1.4-.9-1.1-1.4-2.3-1.4-3.9zm3-.1c0 2 .8 3 2.5 3 1.6 0 2.4-1 2.4-3.1 0-2-.8-3-2.4-3-.8 0-1.4.3-1.8.8-.5.6-.7 1.4-.7 2.3z"/><path d="m3312 168c.9.7 2 1.1 3.3 1.1.8 0 1.4-.2 1.9-.5s.7-.9.7-1.5c0-.7-.3-1.2-.8-1.5s-1.3-.5-2.3-.5h-1.3v-2.3h1.2c1.9 0 2.9-.6 2.9-1.9 0-1.2-.7-1.8-2.2-1.8-.9 0-1.9.3-2.8.9v-2.4c1-.5 2.1-.8 3.4-.8s2.4.3 3.3.9 1.2 1.5 1.2 2.6c0 1.9-.9 3-2.8 3.5 1 .1 1.8.5 2.4 1.1s.9 1.4.9 2.2c0 1.3-.5 2.4-1.5 3.1s-2.3 1.1-3.9 1.1c-1.5 0-2.6-.2-3.5-.7z"/><path d="m3332.3 166.1v4.9h-3v-14.1h4.9c3.5 0 5.3 1.5 5.3 4.5 0 1.4-.5 2.6-1.6 3.5s-2.4 1.3-4 1.2zm0-6.9v4.6h1.3c1.8 0 2.7-.8 2.7-2.3s-.9-2.2-2.6-2.2z"/><path d="m3347.8 163.6c-.4-.2-.8-.3-1.3-.3-.7 0-1.2.3-1.6.8s-.6 1.2-.6 2.1v4.9h-2.9v-10.1h2.9v1.9c.5-1.4 1.4-2.1 2.7-2.1.4 0 .6 0 .8.1z"/><path d="m3358.1 166.8h-6.6c.1 1.6 1.1 2.4 2.8 2.4 1.1 0 2.1-.3 2.9-.8v2.2c-.9.5-2.1.8-3.6.8-1.6 0-2.9-.4-3.8-1.4s-1.3-2.2-1.3-3.8.5-2.9 1.4-3.9 2.1-1.5 3.6-1.5c1.4 0 2.6.4 3.4 1.3s1.2 2.1 1.2 3.6zm-2.7-1.8c0-1.5-.6-2.3-1.8-2.3-.5 0-.9.2-1.3.6s-.6 1-.7 1.6h3.8z"/><path d="m3369.5 161-3.8 10.1h-3.3l-3.6-10.1h3.2l1.9 6.4c.2.7.3 1.3.3 1.7.1-.5.2-1 .4-1.7l1.9-6.4z"/><path d="m3370.6 157.7c0-.4.2-.8.5-1.1s.7-.4 1.2-.4.9.1 1.2.4.5.6.5 1.1-.2.8-.5 1.1-.7.4-1.2.4-.9-.1-1.2-.4c-.4-.3-.5-.7-.5-1.1zm.2 13.4v-10.1h2.9v10.1z"/><path d="m3385.3 166.8h-6.6c.1 1.6 1.1 2.4 2.8 2.4 1.1 0 2.1-.3 2.9-.8v2.2c-.9.5-2.1.8-3.6.8-1.6 0-2.9-.4-3.8-1.4s-1.3-2.2-1.3-3.8.5-2.9 1.4-3.9 2.1-1.5 3.6-1.5c1.4 0 2.6.4 3.4 1.3s1.2 2.1 1.2 3.6zm-2.7-1.8c0-1.5-.6-2.3-1.8-2.3-.5 0-.9.2-1.3.6s-.6 1-.7 1.6h3.8z"/><path d="m3401.7 161-2.9 10.1h-3.1l-1.6-6.1c-.1-.4-.2-.8-.2-1.2h-.1c0 .5-.1.9-.2 1.2l-1.7 6.1h-3.1l-2.9-10.1h3l1.5 6.7c.1.3.1.6.1 1.1h.1c0-.4.1-.8.2-1.1l1.8-6.7h2.8l1.6 6.7c0 .2.1.6.1 1.1h.1c0-.3.1-.7.2-1.1l1.4-6.7z"/><path d="m3409.8 156.6v14.4h-3v-11.1c-.4.3-.9.6-1.5.9-.6.2-1.2.4-1.7.5v-2.5c1.7-.5 3.1-1.2 4.3-2.1z"/><path d="m3435.5 165c-.9 1.6-2.2 3-3.6 4.2 1.4.6 3.2 1.1 5.6 1.5-.5.9-1.1 1.8-1.6 2.7-2.5-.6-4.6-1.4-6.3-2.5-1.8 1.1-3.9 1.9-6.4 2.7-.4-.8-.9-1.6-1.4-2.4 2-.6 3.9-1.2 5.5-2-.9-.8-1.7-1.8-2.4-2.9-1.4 2.2-3 4.2-4.9 5.7-.3-1.1-.5-2.2-.8-3.1 2.4-2.2 4.1-4.8 5.3-7.8h-4.6v-2.2c.3-1 .6-2 .9-3.1l2.5.3c-.2.8-.4 1.7-.8 2.8h2.6c.3-1 .6-2.2.8-3.6l2.6.2-.8 3.4h5.1c-.7-.7-1.4-1.3-2.1-2l1.6-1.5c1.1.9 2.1 1.6 2.9 2.4l-1.1 1.2h3.1v2.2h-10.1c-.2.5-.4 1.1-.6 1.7h8.9v2.1zm-6 3c1.3-.9 2.2-1.9 3-2.9h-5.6c.6 1.1 1.5 2.1 2.6 2.9z"/><path d="m3449.1 173.5h-2.5v-8.4h-2.9v7h-2.5v-5.8c-.7.8-1.5 1.5-2.3 2.3-.3-1.1-.6-1.9-.8-2.6 2-1.8 3.6-3.7 4.7-5.8h-4.5v-2.4h5.7c.3-.7.6-1.5.8-2.2l2.6.3c-.2.7-.4 1.3-.7 1.9h9.4v2.4h-10.5c-.5.9-1 1.9-1.6 2.8h2.8v-2.3h2.5v2.3h5.5v5.9c0 .8-.2 1.4-.5 1.8s-.8.7-1.3.8-1.4.1-2.6.1c-.2-1-.3-1.8-.4-2.4.6.1 1 .1 1.1.1.8 0 1.2-.4 1.2-1.3v-2.9h-3z"/></g><g opacity=".38"><path d="m3607.1 70.6c0-.8-.2-1.4-.7-1.8s-1.1-.7-2-.7c-.6 0-1.2.2-1.8.4-.6.3-1.1.7-1.7 1.3v-1.7c.5-.5 1-.8 1.6-1.1s1.3-.4 2.1-.4c1.3 0 2.3.3 3.1 1s1.2 1.6 1.2 2.8c0 1-.2 1.9-.7 2.7s-1.3 1.5-2.4 2.3c-1.2.8-2 1.4-2.4 1.8-.4.3-.7.7-.8 1s-.2.7-.2 1.2h7v1.6h-8.9v-.7c0-.8.1-1.5.3-2.1s.6-1.1 1.1-1.7 1.3-1.2 2.4-1.9c1.1-.8 1.9-1.5 2.3-2.1.3-.5.5-1.1.5-1.9z"/><path d="m3611.1 74.3c0-2.5.4-4.4 1.2-5.7s2-1.9 3.6-1.9c3 0 4.5 2.4 4.5 7.2 0 2.4-.4 4.2-1.3 5.5s-2 1.9-3.6 1.9c-1.4 0-2.6-.6-3.3-1.8s-1.1-2.9-1.1-5.2zm1.8-.1c0 3.8.9 5.6 2.9 5.6 1.9 0 2.8-1.9 2.8-5.7 0-3.9-.9-5.9-2.8-5.9s-2.9 2-2.9 6z"/><path d="m3626.4 81.1v-12.1c-.3.3-.8.6-1.4.9-.7.3-1.3.6-1.9.7v-1.8c.8-.2 1.6-.5 2.4-1 .9-.4 1.5-.9 2-1.3h.7v14.4c0 .2-1.8.2-1.8.2z"/><path d="m3633.9 79.1c.8.4 1.6.7 2.5.7 1.3 0 2.2-.5 2.9-1.5s1.1-2.4 1.1-4.2c-.6 1.2-1.7 1.8-3.1 1.8-1.2 0-2.2-.4-2.9-1.2s-1.2-1.9-1.2-3.2c0-1.4.4-2.5 1.3-3.4s2-1.3 3.3-1.3c1.4 0 2.5.6 3.3 1.7s1.2 2.7 1.2 4.8c0 2.6-.5 4.6-1.5 6s-2.4 2.1-4.2 2.1c-1 0-1.8-.2-2.5-.5zm1-7.9c0 .9.2 1.7.7 2.3s1.2.8 2 .8c.7 0 1.4-.2 1.9-.8s.8-1.1.8-1.8c0-1-.2-1.9-.8-2.5-.5-.7-1.2-1-2-1s-1.4.3-1.9.9c-.4.5-.7 1.2-.7 2.1z"/><path d="m3643.5 77.3h2.9v-5.2h6.5v-3.2h-5.4c-.8 1.5-1.7 2.8-2.8 4.1-.3-.3-.7-.7-1.1-1 1.7-1.9 3-4.1 3.9-6.6l1.5.4c-.3.6-.5 1.2-.8 1.8h12.6v1.3h-6.4v3.2h6.1v1.3h-6.1v3.9h7.2v1.3h-7.2v4.9h-1.5v-4.9h-9.4zm4.4 0h5v-3.9h-5z"/><path d="m3667.1 81.1v-12.1c-.3.3-.8.6-1.4.9-.7.3-1.3.6-1.9.7v-1.8c.8-.2 1.6-.5 2.4-1 .9-.4 1.5-.9 2-1.3h.7v14.4c-.1.2-1.8.2-1.8.2z"/><path d="m3673.7 74.3c0-2.5.4-4.4 1.2-5.7s2-1.9 3.6-1.9c3 0 4.5 2.4 4.5 7.2 0 2.4-.4 4.2-1.3 5.5-.8 1.3-2 1.9-3.6 1.9-1.4 0-2.6-.6-3.3-1.8s-1.1-2.9-1.1-5.2zm1.8-.1c0 3.8.9 5.6 2.9 5.6 1.9 0 2.8-1.9 2.8-5.7 0-3.9-.9-5.9-2.8-5.9s-2.9 2-2.9 6z"/><path d="m3688.5 77.3c-.3 2.3-1.2 4.5-2.8 6.4-.4-.4-.8-.7-1.3-1.1 1.2-1.3 2-2.8 2.4-4.6.3-1.3.4-3.1.4-5.4v-6.3h12.2v14.2c0 1.8-.9 2.7-2.6 2.7-.7 0-1.6 0-2.8 0-.1-.4-.1-.9-.3-1.5 1.1.1 2 .1 2.6.1 1 0 1.5-.5 1.5-1.4v-3zm.1-1.3h9.3v-3.5h-9.2c.1 1.2 0 2.3-.1 3.5zm.2-8.3v3.5h9.2v-3.5z"/></g><path d="m3580.1 171.1h-3.1l-6-9.1c-.3-.5-.5-.9-.7-1.1h-.1c.1.5.1 1.2.1 2.3v8h-2.9v-14.1h3.3l5.8 8.9c.4.6.6 1 .7 1.1h.1c-.1-.3-.1-1-.1-1.9v-8.1h2.9z" fill="#1b1b1b"/><path d="m3592.1 166.8h-6.6c.1 1.6 1.1 2.4 2.8 2.4 1.1 0 2.1-.3 2.9-.8v2.2c-.9.5-2.1.8-3.6.8-1.6 0-2.9-.4-3.8-1.4s-1.3-2.2-1.3-3.8.5-2.9 1.4-3.9 2.1-1.5 3.6-1.5c1.4 0 2.6.4 3.4 1.3s1.2 2.1 1.2 3.6zm-2.7-1.8c0-1.5-.6-2.3-1.8-2.3-.5 0-.9.2-1.3.6s-.6 1-.7 1.6h3.8z" fill="#1b1b1b"/><path d="m3593.4 166.1c0-1.7.5-3 1.5-3.9s2.3-1.4 4-1.4c1.6 0 2.9.5 3.9 1.4s1.4 2.2 1.4 3.8c0 1.7-.5 3-1.5 3.9s-2.3 1.5-4 1.5c-1.6 0-2.9-.5-3.9-1.4-.9-1.1-1.4-2.3-1.4-3.9zm3-.1c0 2 .8 3 2.5 3 1.6 0 2.4-1 2.4-3.1 0-2-.8-3-2.4-3-.8 0-1.4.3-1.8.8-.5.6-.7 1.4-.7 2.3z" fill="#1b1b1b"/><path d="m3605.4 170.4h7.6v-3.4h-5.6v-2.4h5.6v-3.3h-6.5v-2.4h7.1c-.4-.8-.9-1.6-1.4-2.4l2.5-1.1c.6.8 1.1 1.7 1.6 2.7l-1.8.8h7.8v2.4h-6.6v3.3h5.8v2.4h-5.8v3.4h7.6v2.4h-17.9z" fill="#1b1b1b"/><path d="m3628.9 159.2 1.6 3.3c.5-1.1.9-2.2 1.4-3.4l1.2.6 1-.4 1.5 3.2c.5-1.1.9-2.2 1.3-3.4l2 .8c-.6 1.8-1.3 3.6-2 5.3l1.9 4.3-2.1 1-1.1-2.7c-.6 1.2-1.2 2.3-1.9 3.4-.3-.2-.5-.4-.8-.6l-1 .5-1.4-3.4c-.7 1.3-1.4 2.6-2.2 3.7-.3-.3-.7-.6-1.1-1v3h-2.4v-17.2h16.6v14c0 .9-.2 1.7-.5 2.2s-.9.8-1.5.9-1.9.1-3.6.1c-.2-1-.4-1.8-.6-2.6.9.1 1.7.1 2.6.1.8 0 1.2-.4 1.2-1.1v-11.4h-11.7v1.6zm-1.7 1.3v8.3c.8-1.2 1.5-2.4 2.1-3.8-.7-1.6-1.4-3.1-2.1-4.5zm5.9 1.5c-.4 1.1-.9 2.1-1.3 3.1l1.3 2.7c.5-.9.9-1.8 1.4-2.8z" fill="#1b1b1b"/><path d="m3642.9 170h6.8v-14.4h3v5.1h6.8v2.6h-6.8v6.7h7.9v2.6h-17.7z" fill="#1b1b1b"/><path d="m3661.7 172.6-.5-2.6c2.2-.3 4.4-.6 6.7-1 0 .4-.1.8-.1 1.2 1.4-.4 2.7-1 3.9-1.6-.3-.9-.5-1.9-.7-3.1l-3.1.4-.3-2.2 3.1-.4-.1-1.8-2.4.2-.1-1c-1.2 2-2.3 3.7-3.3 5 1.1-.2 2-.3 2.7-.4-.1.5-.1 1.3-.2 2.3-2.6.3-4.4.6-5.3.9l-.7-2c.8-.7 1.6-1.8 2.6-3.2-.7.1-1.4.1-2.3.2l-.7-2.1c1-1.2 2.1-3.2 3.3-6l2.3.9c-1.1 1.9-2 3.5-2.9 4.8.5 0 1 0 1.6-.1.3-.6.7-1.2 1-1.8l1.7.8-.1-.6 2.5-.2-.2-3.8h2.5c0 1.2.1 2.4.1 3.6l3.2-.3c-.7-.5-1.6-1.1-2.5-1.7l1.2-1.6c1 .5 2 1.1 3 1.8l-1.1 1.5 1.8-.2.2 2.2-5.5.6.1 1.8 5.7-.7.2 2.2-2.2.3 1.6 1.3c-1.2 1.3-2.4 2.4-3.8 3.4.5.8 1 1.2 1.4 1.2.2 0 .4-.1.5-.4s.3-1.1.6-2.3c.8.4 1.6.8 2.1 1.1-.5 1.9-.9 3.1-1.4 3.6s-1 .8-1.6.8c-1.6 0-2.8-.9-3.8-2.6-1.5.8-3 1.4-4.6 1.9-.2-.4-.4-.8-.6-1.2-1.9.2-3.8.6-5.5.9zm15.2-7.7-3.2.4c.1.7.2 1.4.4 2 1-.7 1.9-1.5 2.8-2.4z" fill="#1b1b1b"/><path d="m3680.3 169.7h17.6v2.7h-17.6zm1.2-12.7h15.3v2.7h-15.3zm.8 6.2h13.7v2.6h-13.7z" fill="#1b1b1b"/><path d="m3703.3 162.6h3.6v-1.2h-3.2v-1.8h3.2v-1.3h-4.1v6.1c0 4-.7 7.1-2.1 9.2-.7-.6-1.4-1.2-2.1-1.8 1.1-1.7 1.7-4.2 1.7-7.7v-8h15.6v13.5c0 1.2-.2 2.1-.7 2.7s-1.1.9-2 .9-1.8 0-2.9 0c-.2-.9-.4-1.7-.6-2.4.6.1 1.2.1 1.9.1.9 0 1.4-.1 1.5-.5.1-.3.2-.6.2-1v-11.2h-4.1v1.3h3.2v1.8h-3.2v1.2h3.6v1.8h-9.6zm.9 2.9h7.8v4.9h-5.5v.9h-2.3zm5.5 3.2v-1.5h-3.2v1.5z" fill="#1b1b1b"/><path d="m3734.2 162.1v2.3h-5.2v2.9h6.4v2.3h-6.4v3.9h-2.7v-3.9h-8.7v-2.3h2.6v-4.5c-.3.4-.7.7-1 1-.5-.7-1-1.5-1.6-2.3 1.9-1.5 3.3-3.6 4.3-6.1l2.8.4c-.2.5-.4 1.1-.7 1.6h10.9v2.3h-5.9v2.4zm-13.3 0h5.4v-2.4h-3.6c-.6.9-1.2 1.7-1.8 2.4zm1.9 5.2h3.5v-2.9h-3.5z" fill="#1b1b1b"/><path d="m173 115.5h3771.7" fill="none" stroke="#00e599" stroke-miterlimit="10" stroke-width="1.8621"/><path d="m166 108.5h14v14h-14z" fill="#2b393f"/><path d="m456 108.5h14v14h-14z" fill="#2b393f"/><path d="m745 108.5h14v14h-14z" fill="#2b393f"/><path d="m1034 108.5h14v14h-14z" fill="#2b393f"/><path d="m1324 108.5h14v14h-14z" fill="#2b393f"/><path d="m1614 108.5h14v14h-14z" fill="#2b393f"/><path d="m1905 108.5h14v14h-14z" fill="#2b393f"/><path d="m2195 108.5h14v14h-14z" fill="#2b393f"/><path d="m2484 108.5h14v14h-14z" fill="#2b393f"/><path d="m2774 108.5h14v14h-14z" fill="#2b393f"/><path d="m3064 108.5h14v14h-14z" fill="#2b393f"/><path d="m3354 108.5h14v14h-14z" fill="#2b393f"/><path d="m3644 108.5h14v14h-14z" fill="#2b393f"/></svg>