<svg id="Layer_1" data-name="Layer 1" xmlns="http://www.w3.org/2000/svg" viewBox="0 0 4298 250"><defs><style>.cls-1{fill:none;stroke:#00e599;stroke-miterlimit:10;stroke-width:2px;}.cls-2{opacity:0.18;}.cls-3{fill:#00e599;}.cls-4{opacity:0.38;}.cls-5{fill:#1b1b1b;}</style></defs><title>milestone-outline</title><line class="cls-1" x1="187" y1="115.5" x2="4272" y2="115.5"/><g class="cls-2"><rect class="cls-3" x="4001" y="101.5" width="28" height="28"/></g><g class="cls-2"><rect class="cls-3" x="456" y="101.5" width="28" height="28"/></g><g class="cls-2"><rect class="cls-3" x="159" y="101.5" width="28" height="28"/></g><rect class="cls-3" x="166" y="108.5" width="14" height="14"/><rect class="cls-3" x="463" y="108.5" width="14" height="14"/><g class="cls-2"><rect class="cls-3" x="752" y="101.5" width="28" height="28"/></g><rect class="cls-3" x="759" y="108.5" width="14" height="14"/><g class="cls-2"><rect class="cls-3" x="1048" y="101.5" width="28" height="28"/></g><rect class="cls-3" x="1055" y="108.5" width="14" height="14"/><g class="cls-2"><rect class="cls-3" x="1344" y="101.5" width="28" height="28"/></g><rect class="cls-3" x="1351" y="108.5" width="14" height="14"/><g class="cls-2"><rect class="cls-3" x="1640" y="101.5" width="28" height="28"/></g><rect class="cls-3" x="1647" y="108.5" width="14" height="14"/><g class="cls-2"><rect class="cls-3" x="1936" y="101.5" width="28" height="28"/></g><rect class="cls-3" x="1943" y="108.5" width="14" height="14"/><g class="cls-2"><rect class="cls-3" x="2232" y="101.5" width="28" height="28"/></g><rect class="cls-3" x="2239" y="108.5" width="14" height="14"/><g class="cls-2"><rect class="cls-3" x="2528" y="101.5" width="28" height="28"/></g><rect class="cls-3" x="2535" y="108.5" width="14" height="14"/><g class="cls-2"><rect class="cls-3" x="2824" y="101.5" width="28" height="28"/></g><rect class="cls-3" x="2831" y="108.5" width="14" height="14"/><g class="cls-2"><rect class="cls-3" x="3120" y="101.5" width="28" height="28"/></g><rect class="cls-3" x="3127" y="108.5" width="14" height="14"/><g class="cls-2"><rect class="cls-3" x="3416" y="101.5" width="28" height="28"/></g><rect class="cls-3" x="3423" y="108.5" width="14" height="14"/><rect class="cls-3" x="4008" y="108.5" width="14" height="14"/><g class="cls-4"><path d="M136.2,70.6a2.5,2.5,0,0,0-.8-1.8,2.7,2.7,0,0,0-1.9-.6,3.9,3.9,0,0,0-1.8.4,6.4,6.4,0,0,0-1.7,1.3V68.2a4.2,4.2,0,0,1,1.6-1.1,4.6,4.6,0,0,1,2.1-.4,4.5,4.5,0,0,1,3.1,1,3.4,3.4,0,0,1,1.1,2.8,5,5,0,0,1-.7,2.7,10.7,10.7,0,0,1-2.4,2.3,17.9,17.9,0,0,0-2.4,1.8,2.4,2.4,0,0,0-.8,1,2.1,2.1,0,0,0-.3,1.2h7.1v1.6h-8.9v-.7a5.8,5.8,0,0,1,.3-2.1,5.5,5.5,0,0,1,1.1-1.7,14.2,14.2,0,0,1,2.4-1.9,9.8,9.8,0,0,0,2.3-2.1A3.4,3.4,0,0,0,136.2,70.6Z"/><path d="M140.2,74.3a11,11,0,0,1,1.2-5.7,3.9,3.9,0,0,1,3.6-1.9q4.5,0,4.5,7.2a9.5,9.5,0,0,1-1.3,5.5,3.9,3.9,0,0,1-3.5,1.9,3.7,3.7,0,0,1-3.3-1.8A9.3,9.3,0,0,1,140.2,74.3Zm1.8-.1c0,3.7.9,5.6,2.9,5.6s2.8-1.9,2.8-5.7-1-5.9-2.8-5.9S142,70.2,142,74.2Z"/><path d="M155.5,81.1V69a6.8,6.8,0,0,1-1.4.9l-1.8.7V68.9l2.4-1a12.2,12.2,0,0,0,1.9-1.3h.7V81.1Z"/><path d="M169.8,66.9v9.4h2.1v1.4h-2.1v3.4H168V77.7h-6.6V76.3a44.3,44.3,0,0,0,3.6-4.5,56.3,56.3,0,0,0,2.9-4.9Zm-6.4,9.4H168V69.5a26.3,26.3,0,0,1-2,3.3C165.3,73.9,164.4,75,163.4,76.3Z"/><path d="M172.6,77.3h2.9V72.1H182V68.9h-5.4a28,28,0,0,1-2.7,4l-1.2-1a17.4,17.4,0,0,0,3.9-6.5l1.5.4a8.9,8.9,0,0,1-.8,1.7h12.6v1.4h-6.4v3.2h6.1v1.3h-6.1v3.9h7.2v1.3h-7.2v5H182v-5h-9.4Zm4.4,0h5V73.4h-5Z"/><path d="M200.2,68.7a5.9,5.9,0,0,0-2.3-.5,3.3,3.3,0,0,0-2.9,1.6,6.9,6.9,0,0,0-1.1,4.3h0a3.3,3.3,0,0,1,3.2-1.9,3.7,3.7,0,0,1,2.9,1.2,4.2,4.2,0,0,1,1.1,3.2,5,5,0,0,1-1.2,3.4,4.4,4.4,0,0,1-3.3,1.3,3.9,3.9,0,0,1-3.3-1.7,7.4,7.4,0,0,1-1.3-4.8,10.3,10.3,0,0,1,1.6-5.9,5,5,0,0,1,4.3-2.2,4.7,4.7,0,0,1,2.3.4ZM194,76.4a3.6,3.6,0,0,0,.7,2.4,2.3,2.3,0,0,0,2,1,2.6,2.6,0,0,0,1.9-.8,3.3,3.3,0,0,0,.7-2.3,3.1,3.1,0,0,0-.7-2.2,2.1,2.1,0,0,0-1.9-.8,2.4,2.4,0,0,0-2,.8A2.6,2.6,0,0,0,194,76.4Z"/><path d="M206.6,77.3a12,12,0,0,1-2.8,6.4,6.3,6.3,0,0,0-1.2-1.1A9.7,9.7,0,0,0,205,78a35.1,35.1,0,0,0,.4-5.4V66.3h12.2V80.5c0,1.8-.9,2.7-2.6,2.7h-2.8a10.4,10.4,0,0,0-.2-1.5h2.6a1.3,1.3,0,0,0,1.5-1.5v-3Zm.1-1.3h9.4V72.5h-9.2C206.9,73.7,206.8,74.9,206.7,76Zm.2-8.3v3.4h9.2V67.7Z"/></g><g class="cls-4"><path d="M434.6,70.6a2.9,2.9,0,0,0-.7-1.8,3.2,3.2,0,0,0-2-.6,3.9,3.9,0,0,0-1.8.4,4.8,4.8,0,0,0-1.6,1.3V68.2a3.3,3.3,0,0,1,1.5-1.1,4.6,4.6,0,0,1,2.1-.4,4.5,4.5,0,0,1,3.1,1,3.5,3.5,0,0,1,1.2,2.8,5,5,0,0,1-.8,2.7,8.9,8.9,0,0,1-2.4,2.3,17.9,17.9,0,0,0-2.4,1.8,2.4,2.4,0,0,0-.8,1,2.1,2.1,0,0,0-.3,1.2h7.1v1.6h-8.9v-.7a5.8,5.8,0,0,1,.3-2.1,5.5,5.5,0,0,1,1.1-1.7,14.2,14.2,0,0,1,2.4-1.9,9.8,9.8,0,0,0,2.3-2.1A3.4,3.4,0,0,0,434.6,70.6Z"/><path d="M438.6,74.3a11,11,0,0,1,1.2-5.7,4.1,4.1,0,0,1,3.6-1.9q4.5,0,4.5,7.2a10.4,10.4,0,0,1-1.2,5.5,4.1,4.1,0,0,1-3.6,1.9,3.8,3.8,0,0,1-3.3-1.8A9.3,9.3,0,0,1,438.6,74.3Zm1.8-.1c0,3.7,1,5.6,2.9,5.6s2.8-1.9,2.8-5.7-.9-5.9-2.8-5.9S440.4,70.2,440.4,74.2Z"/><path d="M453.9,81.1V69a4.8,4.8,0,0,1-1.4.9l-1.8.7V68.9l2.4-1a12.2,12.2,0,0,0,1.9-1.3h.7V81.1Z"/><path d="M469.3,76.7a3.9,3.9,0,0,1-1.4,3.3,4.8,4.8,0,0,1-3.6,1.3,5.6,5.6,0,0,1-3-.6V78.9a5.2,5.2,0,0,0,2.9.9,3.6,3.6,0,0,0,2.4-.8,2.8,2.8,0,0,0,.9-2.2,2.6,2.6,0,0,0-.9-2.1,4.5,4.5,0,0,0-2.7-.7h-2.4l.5-7.2h6.6v1.6h-5.1l-.3,4h1.3a4.8,4.8,0,0,1,3.5,1.2A3.6,3.6,0,0,1,469.3,76.7Z"/><path d="M471,77.3h2.9V72.1h6.5V68.9H475a28,28,0,0,1-2.7,4l-1.1-1a18.6,18.6,0,0,0,3.8-6.5l1.5.4a8.9,8.9,0,0,1-.8,1.7h12.6v1.4h-6.4v3.2H488v1.3h-6.1v3.9h7.2v1.3h-7.2v5h-1.5v-5H471Zm4.4,0h5V73.4h-5Z"/><path d="M498.7,68.7a6.9,6.9,0,0,0-2.4-.5,3.3,3.3,0,0,0-2.9,1.6,7.6,7.6,0,0,0-1.1,4.3h0a3.3,3.3,0,0,1,3.2-1.9,3.7,3.7,0,0,1,2.9,1.2,4.2,4.2,0,0,1,1.1,3.2,5,5,0,0,1-1.2,3.4,4.3,4.3,0,0,1-3.3,1.3,3.9,3.9,0,0,1-3.3-1.7,7.4,7.4,0,0,1-1.3-4.8,10.3,10.3,0,0,1,1.6-5.9,5,5,0,0,1,4.3-2.2,5.5,5.5,0,0,1,2.4.4Zm-6.3,7.7a3.6,3.6,0,0,0,.7,2.4,2.3,2.3,0,0,0,2,1A2.6,2.6,0,0,0,497,79a3.3,3.3,0,0,0,.7-2.3,3.1,3.1,0,0,0-.7-2.2,2.1,2.1,0,0,0-1.9-.8,2.4,2.4,0,0,0-2,.8A2.6,2.6,0,0,0,492.4,76.4Z"/><path d="M505,77.3a12.6,12.6,0,0,1-2.7,6.4,6.9,6.9,0,0,0-1.3-1.1,9.7,9.7,0,0,0,2.4-4.6,25.8,25.8,0,0,0,.4-5.4V66.3H516V80.5c0,1.8-.9,2.7-2.6,2.7h-2.8a10.4,10.4,0,0,0-.2-1.5H513a1.3,1.3,0,0,0,1.5-1.5v-3Zm.2-1.3h9.3V72.5h-9.2C505.3,73.7,505.2,74.9,505.2,76Zm.1-8.3v3.4h9.2V67.7Z"/></g><path class="cls-5" d="M104,154.8l3.6.9c-1.2,4.3-2.4,8.3-3.8,11.9l-3.6-1.3A103.3,103.3,0,0,0,104,154.8Zm6.6-5.3h3.8V168a6.6,6.6,0,0,1-.7,3.5,3,3,0,0,1-1.9,1.3,32.9,32.9,0,0,1-5.4.2,23.4,23.4,0,0,0-.9-3.8l3.4.2c1.2,0,1.7-.7,1.7-2Zm9.5,5.3c1.5,3.5,3,7.3,4.4,11.2l-3.8,1.5c-1.3-4.2-2.7-8.1-4.1-11.6Z"/><path class="cls-5" d="M148.8,152.1a32.6,32.6,0,0,1-4.4,13.8,16.1,16.1,0,0,0,5,4l-1.8,3.5a19.4,19.4,0,0,1-5.5-4.4,22.8,22.8,0,0,1-5.9,4.6,8,8,0,0,0-.8-1.6l-1,.2-.3-1.4-8.4,1.6-.7-3.2,4.2-.6v-4.4h-1.1v1.2h-2.2V153.2h3.3v-3.7H132v3.7h3.4v11H132v4l1.5-.3a16,16,0,0,1-.5-2.1l2.2-.6c.2.9.6,2.3,1,4.1a17.8,17.8,0,0,0,3.8-3.4,34.7,34.7,0,0,1-4.2-13.5l3.1-.6a32.4,32.4,0,0,0,3.4,11,28.9,28.9,0,0,0,3.2-11.3Zm-20.7,9.3h1.1v-5.5h-1.1Zm5.1,0v-5.5H132v5.5Zm9-12.2q1.2,3,2.1,5.7l-2.8,1c-.8-2.4-1.4-4.3-2-5.8Z"/><path class="cls-5" d="M150.6,170.5l-.7-3.7,2.5-.5v-12h-2.2V151h7.9v3.3h-2.4v11.2l2.5-.7c-.1,1.2-.1,2.4-.1,3.7C155.4,169.1,152.9,169.8,150.6,170.5Zm13.9-10.4h3.2a17,17,0,0,1-.9,5.7c2.5,1.5,4.9,3.2,7.4,5l-2,2.6c-1.8-1.4-4-3.1-6.7-5a14,14,0,0,1-7.1,5.1,32.7,32.7,0,0,0-1.8-3.3c3-.7,5.1-1.9,6.2-3.4A11.6,11.6,0,0,0,164.5,160.1Zm-5.4-9.8h14.7v3h-6.4l-.5,2.4h6v11.1h-3.3v-8.2h-7.4v8.3h-3.3V155.7h4.4l.4-2.4h-4.6Z"/><path class="cls-5" d="M177.4,173.3V150.8h19.1v22.5h-3.4v-1.6H180.8v1.6ZM193.1,154H180.8v2.7h12.3Zm-12.3,8.5h12.3v-2.7H180.8Zm0,5.9h12.3v-2.8H180.8Z"/><path class="cls-5" d="M202,151.8h8.3a8.7,8.7,0,0,0-.7-1.7l3.8-.9c.3.9.7,1.7,1,2.6h7.9v8.6h-17c0,5.4-1,9.7-3.2,12.7l-2.4-2.8c1.6-2.6,2.3-6,2.3-10.1Zm17,5.7v-2.7H205.3v2.7Zm-12.9,15.7V162.8h16v10.4h-3.2v-1.3h-9.6v1.3Zm12.8-7.4h-9.6v3.1h9.6Z"/><path class="cls-5" d="M233.9,161.6l2.6,6.1c1.1-2,1.6-5.7,1.6-11h-2.4v-3.2h2.5v-4.2h3.3v4.2h6.4l-.3,13.7a21.8,21.8,0,0,1-.2,3.5,3.7,3.7,0,0,1-.7,1.2,2.9,2.9,0,0,1-1.3.8l-4.4.3c-.3-1.3-.5-2.5-.9-3.7h2.7a1.8,1.8,0,0,0,1.1-.3,1,1,0,0,0,.4-.8c.1-.3.1-1.6.2-3.7s.1-4.8.1-7.9h-3.1c-.1,3.6-.3,6.2-.5,7.7a21.4,21.4,0,0,1-1.3,4.8,15.1,15.1,0,0,1-2.7,4.2l-2.9-2a15.8,15.8,0,0,0,1.2-1.5l-6.7.5-2.3.5-1.5-2.9c.8-.7,1.9-3.2,3.1-7.6h-3v-3.1H236v3.1h-4.7c-.7,2.3-1.5,4.6-2.4,6.8l4-.2c-.6-1.6-1.1-3.1-1.7-4.5Zm1.2-7.4h-9.3v-3.1h9.3Z"/><path class="cls-5" d="M422.7,168.8a12.8,12.8,0,0,1-6.7,1.6,10.1,10.1,0,0,1-7.1-2.5,9.1,9.1,0,0,1-2.7-7,9.8,9.8,0,0,1,2.9-7.2,10.2,10.2,0,0,1,7.6-2.8,13.8,13.8,0,0,1,5.2.9v3.8a9.7,9.7,0,0,0-5.3-1.3,5.7,5.7,0,0,0-4.4,1.8,6,6,0,0,0-1.7,4.6,6.8,6.8,0,0,0,1.5,4.7,5.4,5.4,0,0,0,4.2,1.6,5.8,5.8,0,0,0,2.5-.5v-3.8h-3.8v-3.3h7.8Z"/><path class="cls-5" d="M425.7,152.3a2.2,2.2,0,0,1,2.3-2.1,2.5,2.5,0,0,1,1.7.6,2,2,0,0,1,.6,1.5,1.7,1.7,0,0,1-.6,1.4,2.5,2.5,0,0,1-1.7.6,2.3,2.3,0,0,1-1.6-.6A1.9,1.9,0,0,1,425.7,152.3Zm.3,17.8V156.6h3.9v13.5Z"/><path class="cls-5" d="M441.4,169.9a6.2,6.2,0,0,1-2.7.5c-2.9,0-4.3-1.5-4.3-4.5v-6.4h-2.2v-2.9h2.2v-2.9l3.9-1.2v4.1h3.1v2.9h-3.1v5.7c0,1.4.6,2.2,1.7,2.2a4.3,4.3,0,0,0,1.4-.4Z"/><path class="cls-5" d="M456.5,170.1h-3.9v-7.7c0-2.1-.8-3.1-2.3-3.1a2.3,2.3,0,0,0-1.9.9,3.1,3.1,0,0,0-.7,2.2v7.7h-3.9V150.2h3.9v8.4h0a5.1,5.1,0,0,1,4.2-2.3c3.1,0,4.6,1.8,4.6,5.5Z"/><path class="cls-5" d="M472.4,170.1h-3.9V168h0a4.8,4.8,0,0,1-4.2,2.4c-3.1,0-4.7-1.9-4.7-5.7v-8.1h4v7.8c0,2,.7,3,2.3,3a2.3,2.3,0,0,0,1.9-.9,3.1,3.1,0,0,0,.7-2.2v-7.7h3.9Z"/><path class="cls-5" d="M479.9,168.4v1.7H476V150.2h3.9v8.5h.1a4.8,4.8,0,0,1,4.4-2.4,4.7,4.7,0,0,1,3.9,1.8,7.2,7.2,0,0,1,1.5,4.9,8,8,0,0,1-1.7,5.3,5.2,5.2,0,0,1-4.4,2.1,4.2,4.2,0,0,1-3.7-2Zm-.1-4.2a3.6,3.6,0,0,0,.8,2.3,2.7,2.7,0,0,0,2,.9,2.6,2.6,0,0,0,2.3-1.2,4.9,4.9,0,0,0,.9-3.2,4.1,4.1,0,0,0-.8-2.7,2.4,2.4,0,0,0-2.1-1,2.7,2.7,0,0,0-2.2,1,3.5,3.5,0,0,0-.9,2.5Z"/><path class="cls-5" d="M491.2,159.9h5.7v-6h-4.3v-3.2h21.7v3.2h-3.9v6h4.9V163h-4.9v10h-3.6V163h-6.5a14,14,0,0,1-1.6,6.7,12.9,12.9,0,0,1-4.4,3.8l-3-2.5a13.6,13.6,0,0,0,3.7-2.9,7.9,7.9,0,0,0,1.7-5.1h-5.5Zm9.2,0h6.4v-6h-6.4Z"/><path class="cls-5" d="M518,155.8a47.3,47.3,0,0,1,3.8,3.1l-2.2,2.6c-1.1-1.2-2.4-2.3-3.6-3.4Zm.7,7,3,1.1-2.2,9.2a19.7,19.7,0,0,0-3.2-1Q517.5,168.4,518.7,162.8Zm-.2-13.3,4,3-2.3,2.5-3.7-3.4Zm9.9,16.5,2.4,1.4a21.1,21.1,0,0,1-1.8,2.7l1.6.2c.7-.1,1.1-.5,1.1-1v-3.9h-4.3V155.1H530a10.2,10.2,0,0,0,.8-2.1h-4.7v7.4c0,6.1-.9,10.4-2.7,13.1a22.1,22.1,0,0,0-2.8-2.3c1.6-2.4,2.4-6.1,2.3-11.3v-9.6H540V153h-6a17.8,17.8,0,0,1-1,2.1h5.9v10.3h-4.1V170a4.5,4.5,0,0,1-.5,2.2,2.6,2.6,0,0,1-1.8.9l-3.1.2c-.2-.9-.3-1.9-.6-2.9l-1.5,2-2.3-1.9A20.4,20.4,0,0,0,528.4,166Zm7.5-8.4h-5.5v1.6h5.5Zm0,5.3v-1.5h-5.5v1.5Zm1.4,3a32.2,32.2,0,0,1,3.1,4.5l-2.5,1.5a48.3,48.3,0,0,0-2.8-4.7Z"/><g class="cls-4"><path d="M726.8,70.6a2.4,2.4,0,0,0-.7-1.8,2.9,2.9,0,0,0-1.9-.6,3.9,3.9,0,0,0-1.8.4,5.2,5.2,0,0,0-1.7,1.3V68.2a4.2,4.2,0,0,1,1.6-1.1,4.6,4.6,0,0,1,2.1-.4,4.2,4.2,0,0,1,3,1,3.5,3.5,0,0,1,1.2,2.8,5,5,0,0,1-.7,2.7,9.5,9.5,0,0,1-2.5,2.3l-2.3,1.8a4.1,4.1,0,0,0-.9,1,3.7,3.7,0,0,0-.2,1.2h7v1.6h-8.9v-.7a5.6,5.6,0,0,1,.4-2.1,5.5,5.5,0,0,1,1.1-1.7,14.2,14.2,0,0,1,2.4-1.9,8.9,8.9,0,0,0,2.2-2.1A3.4,3.4,0,0,0,726.8,70.6Z"/><path d="M730.8,74.3a10.9,10.9,0,0,1,1.3-5.7,3.9,3.9,0,0,1,3.6-1.9q4.5,0,4.5,7.2a9.5,9.5,0,0,1-1.3,5.5,3.9,3.9,0,0,1-3.5,1.9,3.8,3.8,0,0,1-3.4-1.8A9.3,9.3,0,0,1,730.8,74.3Zm1.9-.1c0,3.7.9,5.6,2.8,5.6s2.8-1.9,2.8-5.7-.9-5.9-2.7-5.9S732.7,70.2,732.7,74.2Z"/><path d="M746.2,81.1V69l-1.4.9a8.9,8.9,0,0,1-1.9.7V68.9a12.2,12.2,0,0,0,2.4-1l2-1.3h.7V81.1Z"/><path d="M761.6,76.7a4.2,4.2,0,0,1-1.4,3.3,4.9,4.9,0,0,1-3.7,1.3,6.1,6.1,0,0,1-3-.6V78.9a5.8,5.8,0,0,0,3,.9,4.1,4.1,0,0,0,2.4-.8,2.8,2.8,0,0,0,.9-2.2,2.7,2.7,0,0,0-1-2.1,4.1,4.1,0,0,0-2.7-.7h-2.4l.6-7.2h6.6v1.6h-5.1l-.3,4h1.3a5,5,0,0,1,3.5,1.2A3.9,3.9,0,0,1,761.6,76.7Z"/><path d="M763.3,77.3h2.9V72.1h6.5V68.9h-5.4a22.1,22.1,0,0,1-2.8,4l-1.1-1a20.5,20.5,0,0,0,3.9-6.5l1.5.4c-.3.6-.5,1.2-.8,1.7h12.6v1.4h-6.4v3.2h6.1v1.3h-6.1v3.9h7.2v1.3h-7.2v5h-1.5v-5h-9.4Zm4.3,0h5.1V73.4h-5.1Z"/><path d="M786.8,81.1V69a6.8,6.8,0,0,1-1.4.9l-1.8.7V68.9l2.4-1a12.2,12.2,0,0,0,1.9-1.3h.7V81.1Z"/><path d="M793.4,74.3a11,11,0,0,1,1.2-5.7,4.1,4.1,0,0,1,3.6-1.9q4.5,0,4.5,7.2a10.4,10.4,0,0,1-1.2,5.5,4.1,4.1,0,0,1-3.6,1.9,3.8,3.8,0,0,1-3.3-1.8A9.3,9.3,0,0,1,793.4,74.3Zm1.8-.1c0,3.7,1,5.6,2.9,5.6s2.8-1.9,2.8-5.7-.9-5.9-2.8-5.9S795.2,70.2,795.2,74.2Z"/><path d="M808.2,77.3a11.8,11.8,0,0,1-2.7,6.4,6.9,6.9,0,0,0-1.3-1.1,9.7,9.7,0,0,0,2.4-4.6,25.8,25.8,0,0,0,.4-5.4V66.3h12.2V80.5c0,1.8-.8,2.7-2.6,2.7h-2.7q-.1-.6-.3-1.5h2.6a1.3,1.3,0,0,0,1.5-1.5v-3Zm.2-1.3h9.3V72.5h-9.2C808.5,73.7,808.5,74.9,808.4,76Zm.1-8.3v3.4h9.2V67.7Z"/></g><g class="cls-4"><path d="M1018.3,70.6a2.4,2.4,0,0,0-.7-1.8,2.9,2.9,0,0,0-1.9-.6,3.9,3.9,0,0,0-1.8.4,5.2,5.2,0,0,0-1.7,1.3V68.2a4.2,4.2,0,0,1,1.6-1.1,4.6,4.6,0,0,1,2.1-.4,4.2,4.2,0,0,1,3,1,3.5,3.5,0,0,1,1.2,2.8,5,5,0,0,1-.7,2.7,9.5,9.5,0,0,1-2.5,2.3l-2.3,1.8a4.1,4.1,0,0,0-.9,1,3.7,3.7,0,0,0-.2,1.2h7v1.6h-8.9v-.7a5.6,5.6,0,0,1,.4-2.1,5.5,5.5,0,0,1,1.1-1.7,14.2,14.2,0,0,1,2.4-1.9,8.9,8.9,0,0,0,2.2-2.1A3.4,3.4,0,0,0,1018.3,70.6Z"/><path d="M1022.3,74.3a10.9,10.9,0,0,1,1.3-5.7,3.9,3.9,0,0,1,3.6-1.9q4.5,0,4.5,7.2a9.5,9.5,0,0,1-1.3,5.5,3.9,3.9,0,0,1-3.5,1.9,3.8,3.8,0,0,1-3.4-1.8A9.3,9.3,0,0,1,1022.3,74.3Zm1.9-.1c0,3.7.9,5.6,2.8,5.6s2.8-1.9,2.8-5.7-.9-5.9-2.7-5.9S1024.2,70.2,1024.2,74.2Z"/><path d="M1037.7,81.1V69l-1.4.9a8.9,8.9,0,0,1-1.9.7V68.9a12.2,12.2,0,0,0,2.4-1l2-1.3h.7V81.1Z"/><path d="M1052.7,68.7a5.9,5.9,0,0,0-2.3-.5,3.3,3.3,0,0,0-2.9,1.6,6.9,6.9,0,0,0-1.1,4.3h0a3.3,3.3,0,0,1,3.2-1.9,3.7,3.7,0,0,1,2.9,1.2,4.2,4.2,0,0,1,1.1,3.2,5,5,0,0,1-1.2,3.4,4.3,4.3,0,0,1-3.3,1.3,3.9,3.9,0,0,1-3.3-1.7,7.4,7.4,0,0,1-1.3-4.8,10.3,10.3,0,0,1,1.6-5.9,5,5,0,0,1,4.3-2.2,4.7,4.7,0,0,1,2.3.4Zm-6.2,7.7a3.6,3.6,0,0,0,.7,2.4,2.3,2.3,0,0,0,2,1,2.6,2.6,0,0,0,1.9-.8,3.3,3.3,0,0,0,.7-2.3,3.1,3.1,0,0,0-.7-2.2,2.1,2.1,0,0,0-1.9-.8,2.4,2.4,0,0,0-2,.8A2.6,2.6,0,0,0,1046.5,76.4Z"/><path d="M1054.8,77.3h2.9V72.1h6.5V68.9h-5.4a22.1,22.1,0,0,1-2.8,4l-1.1-1a20.5,20.5,0,0,0,3.9-6.5l1.5.4c-.3.6-.5,1.2-.8,1.7h12.6v1.4h-6.4v3.2h6.1v1.3h-6.1v3.9h7.2v1.3h-7.2v5h-1.5v-5h-9.4Zm4.3,0h5.1V73.4h-5.1Z"/><path d="M1078.3,81.1V69a6.8,6.8,0,0,1-1.4.9l-1.8.7V68.9l2.4-1a12.2,12.2,0,0,0,1.9-1.3h.7V81.1Z"/><path d="M1084.9,74.3a11,11,0,0,1,1.2-5.7,4.1,4.1,0,0,1,3.6-1.9q4.5,0,4.5,7.2a10.4,10.4,0,0,1-1.2,5.5,4.1,4.1,0,0,1-3.6,1.9,3.8,3.8,0,0,1-3.3-1.8A9.3,9.3,0,0,1,1084.9,74.3Zm1.8-.1c0,3.7,1,5.6,2.9,5.6s2.8-1.9,2.8-5.7-.9-5.9-2.8-5.9S1086.7,70.2,1086.7,74.2Z"/><path d="M1099.7,77.3a11.8,11.8,0,0,1-2.7,6.4,6.9,6.9,0,0,0-1.3-1.1,9.7,9.7,0,0,0,2.4-4.6,25.8,25.8,0,0,0,.4-5.4V66.3h12.2V80.5c0,1.8-.8,2.7-2.6,2.7h-2.7q-.2-.6-.3-1.5h2.6a1.3,1.3,0,0,0,1.5-1.5v-3Zm.2-1.3h9.3V72.5H1100C1100,73.7,1100,74.9,1099.9,76Zm.1-8.3v3.4h9.2V67.7Z"/></g><path class="cls-5" d="M710.7,156l3.9,3-2.2,2.7-3.7-3.4Zm.9,6.9,3,1.2-2.3,9.2a18.2,18.2,0,0,0-3.1-1C710,169.6,710.8,166.5,711.6,162.9Zm3.4,2.9V152.6l-2.1,2.4-3.6-3.3,2-2.2a30.5,30.5,0,0,1,3.7,3v-2h9.4v15.2h-2.5V153.2h-4.3v12.6Zm3.6-10.9h2.2v6.2a20.2,20.2,0,0,1-.9,6.6l1.6-1.3c1.4,1.5,2.7,2.8,3.8,4.2l-2.4,1.9c-1-1.5-2.1-2.9-3.2-4.3a15.1,15.1,0,0,1-3.9,5.1c-.8-1-1.4-1.9-2.1-2.6a10.6,10.6,0,0,0,3.8-4.2,14.1,14.1,0,0,0,1.1-5.9Zm10.6-5.2H732v20.1a4.1,4.1,0,0,1-.5,2.1,2.4,2.4,0,0,1-1.5.9,25.1,25.1,0,0,1-3.7.2,14,14,0,0,0-.8-3.4h2.6c.7,0,1.1-.4,1.1-1.3Zm-3.7,1.8H728v16.3h-2.5Z"/><path class="cls-5" d="M740.7,159.8h8v3.1h-2.4V168l2.9-.4a18.7,18.7,0,0,0,0,3.4l-8.3,1.3-.4-2.1a24.6,24.6,0,0,0-3.6,3l-1.8-2.4a3.2,3.2,0,0,0,.7-2v-8.6h-2.1v-3.1H739v10.2l2.3-1.6q0,.6.3,3l1.5-.2v-5.6h-2.4Zm-3.8-10.2c1.1,1.5,2.2,2.9,3.1,4.4l-2.8,1.8a44.3,44.3,0,0,0-2.9-4.6Zm3.4,4.4h8.9v-4.6h3.3V154h2.4a34.7,34.7,0,0,0-2.3-2.8l2.1-1.7,2.7,3.1-1.9,1.4h2.2v3.3h-5.1c.1,2.5.3,4.7.5,6.4s.4,3.1.6,4.1a4.6,4.6,0,0,0,.5,1.5.3.3,0,0,0,.3.3c.3-.1.5-1.4.7-3.9a16.8,16.8,0,0,0,2.9,1c-.4,2.8-.8,4.6-1.4,5.4a2.5,2.5,0,0,1-2.3,1.3,3,3,0,0,1-2.4-1c-.7-.6-1.2-2-1.6-4.1a67.3,67.3,0,0,1-1-11h-9Z"/><path class="cls-5" d="M765.1,154.3l2.2,4.4,1.8-4.6,1.6.8,1.3-.6,2,4.3,1.8-4.6,2.6,1.2c-.8,2.4-1.7,4.7-2.7,7l2.5,5.7-2.7,1.3-1.5-3.5c-.8,1.5-1.6,3-2.5,4.5l-1.1-.8-1.3.6-1.8-4.5c-1,1.8-1.9,3.4-3,5a10,10,0,0,0-1.5-1.3v4h-3.2V150.3h22.1V169a5,5,0,0,1-.7,2.9,3.2,3.2,0,0,1-2,1.2h-4.9a25.3,25.3,0,0,0-.7-3.4l3.5.2a1.3,1.3,0,0,0,1.5-1.5V153.3H762.8v2.2Zm-2.3,1.6V167a34.5,34.5,0,0,0,2.9-5C764.7,159.9,763.8,157.9,762.8,155.9Zm7.9,2.1a40.8,40.8,0,0,1-1.8,4.2l1.7,3.6c.7-1.2,1.3-2.4,1.9-3.7Z"/><path class="cls-5" d="M783.8,168.7h9V149.5h4v6.8h9v3.4h-9v9h10.5v3.4H783.8Z"/><path class="cls-5" d="M808.9,172.1l-.7-3.4,9-1.3a10.3,10.3,0,0,1-.1,1.7,31.1,31.1,0,0,0,5.3-2.2,19.3,19.3,0,0,1-.9-4.1l-4.1.5-.4-2.9,4.2-.5-.2-2.5-3.2.4v-1.3a68.2,68.2,0,0,1-4.4,6.6l3.6-.5c-.1.6-.1,1.6-.2,3a54.7,54.7,0,0,0-7,1.2l-.9-2.8a28.8,28.8,0,0,0,3.4-4.2l-3.1.3-.9-2.8a30.3,30.3,0,0,0,4.4-7.9l3.1,1.2c-1.4,2.5-2.7,4.6-3.8,6.4H814a26,26,0,0,0,1.3-2.4l2.3,1.1v-.8l3.4-.3-.3-5.1h3.3c.1,1.7.1,3.2.2,4.8l4.2-.5-3.4-2.2,1.6-2.1,3.9,2.3-1.4,2,2.3-.3.3,3-7.4.7.2,2.4,7.6-.9.3,2.9-3,.4,2.2,1.7a35.7,35.7,0,0,1-5.1,4.5c.7,1,1.3,1.6,1.8,1.6a.9.9,0,0,0,.8-.6c.1-.4.4-1.4.7-3.1l2.9,1.4a16.8,16.8,0,0,1-1.9,4.9,2.6,2.6,0,0,1-2.1,1c-2,0-3.7-1.1-5-3.5a31.2,31.2,0,0,1-6.2,2.6,11.9,11.9,0,0,0-.8-1.6Zm20.2-10.2-4.3.5a18.6,18.6,0,0,0,.5,2.7A23,23,0,0,0,829.1,161.9Z"/><path class="cls-5" d="M1012.9,169.1H1023v-4.5h-7.5v-3.2h7.5V157h-8.7v-3.2h9.4a25.8,25.8,0,0,0-1.8-3.2l3.3-1.5c.7,1.1,1.5,2.3,2.2,3.6l-2.3,1.1h10.3V157h-8.8v4.4h7.7v3.2h-7.7v4.5h10.1v3.3h-23.8Z"/><path class="cls-5" d="M1044.2,154.3l2.1,4.4a36.6,36.6,0,0,0,1.8-4.6l1.7.8,1.3-.6,2,4.3c.6-1.5,1.2-3,1.7-4.6l2.6,1.2c-.8,2.4-1.7,4.7-2.7,7l2.6,5.7-2.8,1.3-1.5-3.5c-.7,1.5-1.6,3-2.4,4.5l-1.1-.8-1.3.6-1.9-4.5c-.9,1.8-1.9,3.4-2.9,5a10,10,0,0,0-1.5-1.3v4h-3.3V150.3h22.1V169a5,5,0,0,1-.7,2.9,3,3,0,0,1-2,1.2h-4.8a24.4,24.4,0,0,0-.8-3.4l3.5.2c1.1,0,1.6-.5,1.6-1.5V153.3h-15.6v2.2Zm-2.3,1.6V167a47,47,0,0,0,2.9-5C1043.8,159.9,1042.8,157.9,1041.9,155.9Zm7.9,2.1q-.9,2.3-1.8,4.2l1.7,3.6,1.8-3.7Z"/><path class="cls-5" d="M1062.9,168.7h9V149.5h3.9v6.8h9v3.4h-9v9h10.6v3.4h-23.5Z"/><path class="cls-5" d="M1087.9,172.1l-.6-3.4,9-1.3a9.1,9.1,0,0,0-.1,1.7,27.1,27.1,0,0,0,5.2-2.2,28.5,28.5,0,0,1-.9-4.1l-4.1.5-.4-2.9,4.2-.5v-2.5l-3.2.4-.2-1.3a68.2,68.2,0,0,1-4.4,6.6l3.7-.5q-.1.9-.3,3a54.7,54.7,0,0,0-7,1.2l-.9-2.8a19.8,19.8,0,0,0,3.4-4.2l-3,.3-.9-2.8a37.5,37.5,0,0,0,4.4-7.9l3.1,1.2c-1.4,2.5-2.7,4.6-3.9,6.4h2.1l1.4-2.4,2.2,1.1v-.8l3.3-.3-.2-5.1h3.3c0,1.7,0,3.2.1,4.8l4.3-.5-3.4-2.2,1.6-2.1,3.9,2.3-1.5,2,2.3-.3.3,3-7.3.7.2,2.4,7.5-.9.3,2.9-2.9.4,2.1,1.7a30.4,30.4,0,0,1-5,4.5c.6,1,1.2,1.6,1.8,1.6s.5-.2.7-.6a13.7,13.7,0,0,0,.8-3.1l2.8,1.4a14.8,14.8,0,0,1-1.8,4.9,2.6,2.6,0,0,1-2.1,1c-2.1,0-3.8-1.1-5.1-3.5a32.9,32.9,0,0,1-6.1,2.6l-.9-1.6Zm20.2-10.2-4.3.5q.3,1.5.6,2.7A22.4,22.4,0,0,0,1108.1,161.9Z"/><g class="cls-4"><path d="M1324.1,70.6a2.9,2.9,0,0,0-.7-1.8,3.2,3.2,0,0,0-2-.6,3.9,3.9,0,0,0-1.8.4,4.8,4.8,0,0,0-1.6,1.3V68.2a3.3,3.3,0,0,1,1.5-1.1,4.6,4.6,0,0,1,2.1-.4,4.5,4.5,0,0,1,3.1,1,3.5,3.5,0,0,1,1.2,2.8,5,5,0,0,1-.8,2.7,8.9,8.9,0,0,1-2.4,2.3,17.9,17.9,0,0,0-2.4,1.8,2.4,2.4,0,0,0-.8,1,2.1,2.1,0,0,0-.3,1.2h7.1v1.6h-8.9v-.7a5.8,5.8,0,0,1,.3-2.1,5.5,5.5,0,0,1,1.1-1.7,14.2,14.2,0,0,1,2.4-1.9,9.8,9.8,0,0,0,2.3-2.1A3.4,3.4,0,0,0,1324.1,70.6Z"/><path d="M1328.1,74.3a11,11,0,0,1,1.2-5.7,4.1,4.1,0,0,1,3.6-1.9q4.5,0,4.5,7.2a10.4,10.4,0,0,1-1.2,5.5,4.1,4.1,0,0,1-3.6,1.9,3.8,3.8,0,0,1-3.3-1.8A9.3,9.3,0,0,1,1328.1,74.3Zm1.8-.1c0,3.7,1,5.6,2.9,5.6s2.8-1.9,2.8-5.7-.9-5.9-2.8-5.9S1329.9,70.2,1329.9,74.2Z"/><path d="M1343.4,81.1V69a4.8,4.8,0,0,1-1.4.9l-1.8.7V68.9l2.4-1a12.2,12.2,0,0,0,1.9-1.3h.7V81.1Z"/><path d="M1359.2,68a46.9,46.9,0,0,0-3.5,7.2,22.8,22.8,0,0,0-1.6,5.9h-1.8a20.6,20.6,0,0,1,1.6-5.7,42.9,42.9,0,0,1,3.3-6.9h-7V66.9h9Z"/><path d="M1360.5,77.3h2.9V72.1h6.5V68.9h-5.4a28,28,0,0,1-2.7,4l-1.1-1a18.6,18.6,0,0,0,3.8-6.5l1.5.4a8.9,8.9,0,0,1-.8,1.7h12.6v1.4h-6.4v3.2h6.1v1.3h-6.1v3.9h7.2v1.3h-7.2v5h-1.5v-5h-9.4Zm4.4,0h5V73.4h-5Z"/><path d="M1388.2,68.7a6.9,6.9,0,0,0-2.4-.5,3.3,3.3,0,0,0-2.9,1.6,7.6,7.6,0,0,0-1.1,4.3h0a3.3,3.3,0,0,1,3.2-1.9,3.7,3.7,0,0,1,2.9,1.2,4.2,4.2,0,0,1,1.1,3.2,5,5,0,0,1-1.2,3.4,4.3,4.3,0,0,1-3.3,1.3,3.9,3.9,0,0,1-3.3-1.7,7.4,7.4,0,0,1-1.3-4.8,10.3,10.3,0,0,1,1.6-5.9,5,5,0,0,1,4.3-2.2,5.5,5.5,0,0,1,2.4.4Zm-6.3,7.7a3.6,3.6,0,0,0,.7,2.4,2.3,2.3,0,0,0,2,1,2.6,2.6,0,0,0,1.9-.8,3.3,3.3,0,0,0,.7-2.3,3.1,3.1,0,0,0-.7-2.2,2.1,2.1,0,0,0-1.9-.8,2.4,2.4,0,0,0-2,.8A2.6,2.6,0,0,0,1381.9,76.4Z"/><path d="M1394.5,77.3a12.6,12.6,0,0,1-2.7,6.4,6.9,6.9,0,0,0-1.3-1.1,9.7,9.7,0,0,0,2.4-4.6,25.8,25.8,0,0,0,.4-5.4V66.3h12.2V80.5c0,1.8-.9,2.7-2.6,2.7h-2.8a10.4,10.4,0,0,0-.2-1.5h2.6a1.3,1.3,0,0,0,1.5-1.5v-3Zm.2-1.3h9.3V72.5h-9.2C1394.8,73.7,1394.7,74.9,1394.7,76Zm.1-8.3v3.4h9.2V67.7Z"/></g><path class="cls-5" d="M1247.8,154.8l3.7.9c-1.2,4.3-2.4,8.3-3.8,11.9l-3.6-1.3A85.8,85.8,0,0,0,1247.8,154.8Zm6.7-5.3h3.8V168a6.6,6.6,0,0,1-.7,3.5,3,3,0,0,1-1.9,1.3,32.9,32.9,0,0,1-5.4.2,23.4,23.4,0,0,0-.9-3.8l3.4.2c1.2,0,1.7-.7,1.7-2Zm9.4,5.3c1.6,3.6,3.1,7.3,4.5,11.2l-3.8,1.5c-1.4-4.2-2.7-8.1-4.1-11.6Z"/><path class="cls-5" d="M1292.7,152.1a32.6,32.6,0,0,1-4.4,13.8,16.1,16.1,0,0,0,5,4l-1.8,3.5a19.4,19.4,0,0,1-5.5-4.4,22.8,22.8,0,0,1-5.9,4.6,8,8,0,0,0-.8-1.6l-1,.2-.3-1.4-8.4,1.6-.7-3.2,4.2-.6v-4.4H1272v1.2h-2.2V153.2h3.3v-3.7h2.8v3.7h3.4v11h-3.4v4l1.5-.3a16,16,0,0,1-.5-2.1l2.2-.6c.2.9.6,2.3,1,4.1a17.8,17.8,0,0,0,3.8-3.4,34.7,34.7,0,0,1-4.2-13.5l3.1-.6a34.8,34.8,0,0,0,3.3,11,27.3,27.3,0,0,0,3.3-11.3Zm-20.7,9.3h1.1v-5.5H1272Zm5,0v-5.5h-1.1v5.5Zm9.1-12.2q1.2,3,2.1,5.7l-2.9,1c-.7-2.4-1.3-4.3-1.9-5.8Z"/><path class="cls-5" d="M1301.7,171.7h-3.4v1.2h-3.4V161.5h10.2v11.4h-3.4Zm-4.5-21.4h17.5v9.3h-17.5Zm1.1,18.5h3.4v-4.3h-3.4Zm12.8-15.4h-10.3v3.1h10.3Zm-.9,18.3v1.2h-3.3V161.5H1317v11.4h-3.4v-1.2Zm3.4-2.9v-4.3h-3.4v4.3Z"/><path class="cls-5" d="M1324.5,149.6h2.8v7.3h1v2.7h-5.4v2.5h4.4v11.1h-2.7v-8.4h-1.8a25.5,25.5,0,0,1-1.6,8.7c-.8-.8-1.7-1.4-2.5-2.1.9-2.2,1.4-5.4,1.4-9.8V150.1h2.8v6.8h1.6Zm11.2,13.9h3.1V166h4v2.8h-4v4.5h-3.1v-4.5h-8V166h3.1l-1.4-1.3a12.9,12.9,0,0,0,2.5-2h-3.1V151.3h3.3a16,16,0,0,0,.5-2.1l3.6.4-.6,1.7h6.4v11.4h-6.6a9.7,9.7,0,0,1-2.8,3.3h3.1Zm-4-7.6h2.3v-2h-2.3Zm2.3,2.2h-2.3v2h1.8A6.5,6.5,0,0,0,1334,158.1Zm5.1,2v-2h-2.4a6.4,6.4,0,0,1-.3,2Zm0-6.2h-2.4v2h2.4Z"/><path class="cls-5" d="M1343.7,170.4h10.4v-1.3h-8.8v-2h8.8v-1.2h-8v-8.6h8v-1.2h-10.3v-2.2h10.3v-1.2l-8.2.2c-.2-.7-.3-1.5-.5-2.2,6.9-.1,13.6-.3,20.2-.6,0,.1.2.8.4,2.3l-8.7.2v1.3h10.5v2.2h-10.5v1.2h8.1v8.6h-8.1v1.2h9v2h-9v1.3h10.5v2.2h-24.1Zm5.6-9.7h4.8v-1.4h-4.8Zm0,3.2h4.8v-1.4h-4.8Zm13-4.6h-5v1.4h5Zm0,4.6v-1.4h-5v1.4Z"/><path class="cls-5" d="M1377.7,149.3l2.8,1.3-1.4,1.7h2.2v2.5h-4.6v4h1.5v-3h2.7v5.5h-4.4a8.1,8.1,0,0,1-2.8,4.2h5.2v-1.6h2.7l-1.7-1.1c1.4-1.3,2.1-3.2,2.1-5.8v-6.4h9.6v10.8c0,1.9-.8,2.8-2.4,2.9h-3.1c-.2-.6-.4-1.5-.8-2.6h2.3a1,1,0,0,0,1.1-1.1v-.6h-4.1a8.9,8.9,0,0,1-2.1,4.6h-.1v.9h8.5V168h-8.5v2h10.2v2.7h-24V170h10.3v-2h-8.4v-2.5h2.8a20.9,20.9,0,0,0-2.2-2,5.8,5.8,0,0,0,2.2-2.2h-3.5v-5.5h2.7v3h1.4v-4H1369v-2.5h2.4l-1.2-1.6,2.4-1.4,2,2.5-.9.5h2.1C1376.5,151.3,1377.1,150.3,1377.7,149.3Zm7.1,7.2V158h3.9v-1.5Zm3.9-3.7h-3.9v1.6h3.9Z"/><path class="cls-5" d="M1405.6,173a18.6,18.6,0,0,0-.9-3.6l4.7.2a4.1,4.1,0,0,0,1.9-.3,1.9,1.9,0,0,0,.8-.7c.1-.4.2-1.5.4-3.3s.3-4.3.4-7.3h-7a27,27,0,0,1-.8,4.1l2.2-2.1c1.1,1,2.5,2.2,4,3.7l-2.5,2.5a52.3,52.3,0,0,0-3.8-4,20.1,20.1,0,0,1-8.6,11.3c-1.2-1.1-2.1-2-2.9-2.6,5.1-3.1,8.1-7.4,8.7-12.9H1394v-3.2h4.4l-3-3.4,2.4-2c1.3,1.1,2.4,2.3,3.5,3.3l-2.3,2.1h3.5l.3-5.4h3.8l-.5,5.4h10.4l-.6,9.4a39.8,39.8,0,0,1-.5,5.5,3.8,3.8,0,0,1-.8,1.7,4.8,4.8,0,0,1-1.6,1.2,13.1,13.1,0,0,1-3.6.4Z"/><path class="cls-5" d="M1436.9,170.1h-4.1l-8-12.2-.9-1.6h0c0,.7.1,1.7.1,3v10.8h-3.8V151.2h4.3l7.7,11.9a12,12,0,0,0,1,1.5h0a17.1,17.1,0,0,1-.1-2.6V151.2h3.8Z"/><path class="cls-5" d="M1452.4,170.1h-11.1V151.2H1452v3.3h-6.7v4.4h6.2v3.3h-6.2v4.6h7.1Z"/><path class="cls-5" d="M1454.3,160.9a10.1,10.1,0,0,1,2.6-7.2,8.8,8.8,0,0,1,6.9-2.8,8.2,8.2,0,0,1,6.4,2.7,9.6,9.6,0,0,1,2.5,6.9,9.9,9.9,0,0,1-2.5,7.1,8.8,8.8,0,0,1-6.8,2.8,8.5,8.5,0,0,1-6.5-2.7A9.3,9.3,0,0,1,1454.3,160.9Zm4.3-.2a7.3,7.3,0,0,0,1.3,4.5,4.5,4.5,0,0,0,3.6,1.7,4.3,4.3,0,0,0,3.7-1.7,6.9,6.9,0,0,0,1.3-4.5,7.2,7.2,0,0,0-1.3-4.6,4.2,4.2,0,0,0-3.6-1.7,4.7,4.7,0,0,0-3.7,1.7A7.4,7.4,0,0,0,1458.6,160.7Z"/><g class="cls-4"><path d="M1610.3,70.6a2.4,2.4,0,0,0-.7-1.8,2.9,2.9,0,0,0-1.9-.6,3.9,3.9,0,0,0-1.8.4,5.2,5.2,0,0,0-1.7,1.3V68.2a4.2,4.2,0,0,1,1.6-1.1,4.6,4.6,0,0,1,2.1-.4,4.2,4.2,0,0,1,3,1,3.5,3.5,0,0,1,1.2,2.8,5,5,0,0,1-.7,2.7,9.5,9.5,0,0,1-2.5,2.3l-2.3,1.8a4.1,4.1,0,0,0-.9,1,3.7,3.7,0,0,0-.2,1.2h7v1.6h-8.9v-.7a5.6,5.6,0,0,1,.4-2.1,5.5,5.5,0,0,1,1.1-1.7,14.2,14.2,0,0,1,2.4-1.9,8.9,8.9,0,0,0,2.2-2.1A3.4,3.4,0,0,0,1610.3,70.6Z"/><path d="M1614.3,74.3a10.9,10.9,0,0,1,1.3-5.7,3.9,3.9,0,0,1,3.6-1.9q4.5,0,4.5,7.2a9.5,9.5,0,0,1-1.3,5.5,3.9,3.9,0,0,1-3.5,1.9,3.8,3.8,0,0,1-3.4-1.8A9.3,9.3,0,0,1,1614.3,74.3Zm1.9-.1c0,3.7.9,5.6,2.8,5.6s2.8-1.9,2.8-5.7-.9-5.9-2.7-5.9S1616.2,70.2,1616.2,74.2Z"/><path d="M1629.7,81.1V69l-1.4.9a8.9,8.9,0,0,1-1.9.7V68.9a12.2,12.2,0,0,0,2.4-1l2-1.3h.7V81.1Z"/><path d="M1645.5,68a60.2,60.2,0,0,0-3.6,7.2,26.9,26.9,0,0,0-1.5,5.9h-1.9a24.9,24.9,0,0,1,1.6-5.7,43.9,43.9,0,0,1,3.4-6.9h-7V66.9h9Z"/><path d="M1646.8,77.3h2.9V72.1h6.5V68.9h-5.4a22.1,22.1,0,0,1-2.8,4l-1.1-1a20.5,20.5,0,0,0,3.9-6.5l1.5.4c-.3.6-.5,1.2-.8,1.7h12.6v1.4h-6.4v3.2h6.1v1.3h-6.1v3.9h7.2v1.3h-7.2v5h-1.5v-5h-9.4Zm4.3,0h5.1V73.4h-5.1Z"/><path d="M1670.3,81.1V69a6.8,6.8,0,0,1-1.4.9l-1.8.7V68.9l2.4-1a12.2,12.2,0,0,0,1.9-1.3h.7V81.1Z"/><path d="M1676.9,74.3a11,11,0,0,1,1.2-5.7,4.1,4.1,0,0,1,3.6-1.9q4.5,0,4.5,7.2a10.4,10.4,0,0,1-1.2,5.5,4.1,4.1,0,0,1-3.6,1.9,3.8,3.8,0,0,1-3.3-1.8A9.3,9.3,0,0,1,1676.9,74.3Zm1.8-.1c0,3.7,1,5.6,2.9,5.6s2.8-1.9,2.8-5.7-.9-5.9-2.8-5.9S1678.7,70.2,1678.7,74.2Z"/><path d="M1691.7,77.3a11.8,11.8,0,0,1-2.7,6.4,6.9,6.9,0,0,0-1.3-1.1,9.7,9.7,0,0,0,2.4-4.6,25.8,25.8,0,0,0,.4-5.4V66.3h12.2V80.5c0,1.8-.8,2.7-2.6,2.7h-2.7q-.2-.6-.3-1.5h2.6a1.3,1.3,0,0,0,1.5-1.5v-3Zm.2-1.3h9.3V72.5H1692C1692,73.7,1692,74.9,1691.9,76Zm.1-8.3v3.4h9.2V67.7Z"/></g><g class="cls-4"><path d="M1906.3,70.6a2.4,2.4,0,0,0-.7-1.8,2.9,2.9,0,0,0-1.9-.6,3.9,3.9,0,0,0-1.8.4,5.2,5.2,0,0,0-1.7,1.3V68.2a4.2,4.2,0,0,1,1.6-1.1,4.6,4.6,0,0,1,2.1-.4,4.2,4.2,0,0,1,3,1,3.5,3.5,0,0,1,1.2,2.8,5,5,0,0,1-.7,2.7,9.5,9.5,0,0,1-2.5,2.3l-2.3,1.8a4.1,4.1,0,0,0-.9,1,3.7,3.7,0,0,0-.2,1.2h7v1.6h-8.9v-.7a5.6,5.6,0,0,1,.4-2.1,5.5,5.5,0,0,1,1.1-1.7,14.2,14.2,0,0,1,2.4-1.9,8.9,8.9,0,0,0,2.2-2.1A3.4,3.4,0,0,0,1906.3,70.6Z"/><path d="M1910.3,74.3a10.9,10.9,0,0,1,1.3-5.7,3.9,3.9,0,0,1,3.6-1.9q4.5,0,4.5,7.2a9.5,9.5,0,0,1-1.3,5.5,3.9,3.9,0,0,1-3.5,1.9,3.8,3.8,0,0,1-3.4-1.8A9.3,9.3,0,0,1,1910.3,74.3Zm1.9-.1c0,3.7.9,5.6,2.8,5.6s2.8-1.9,2.8-5.7-.9-5.9-2.7-5.9S1912.2,70.2,1912.2,74.2Z"/><path d="M1925.7,81.1V69l-1.4.9a8.9,8.9,0,0,1-1.9.7V68.9a12.2,12.2,0,0,0,2.4-1l2-1.3h.7V81.1Z"/><path d="M1941.5,68a46.9,46.9,0,0,0-3.5,7.2,22.8,22.8,0,0,0-1.6,5.9h-1.9a24.9,24.9,0,0,1,1.6-5.7,54.8,54.8,0,0,1,3.4-6.9h-7V66.9h9Z"/><path d="M1942.8,77.3h2.9V72.1h6.5V68.9h-5.4a22.1,22.1,0,0,1-2.8,4l-1.1-1a20.5,20.5,0,0,0,3.9-6.5l1.5.4c-.3.6-.5,1.2-.8,1.7h12.6v1.4h-6.4v3.2h6.1v1.3h-6.1v3.9h7.2v1.3h-7.2v5h-1.5v-5h-9.4Zm4.3,0h5.1V73.4h-5.1Z"/><path d="M1966.3,81.1V69a6.8,6.8,0,0,1-1.4.9l-1.8.7V68.9l2.4-1a12.2,12.2,0,0,0,1.9-1.3h.7V81.1Z"/><path d="M1977.3,81.1V69l-1.4.9a8.9,8.9,0,0,1-1.9.7V68.9a12.2,12.2,0,0,0,2.4-1l2-1.3h.7V81.1Z"/><path d="M1987.7,77.3a11.8,11.8,0,0,1-2.7,6.4,6.9,6.9,0,0,0-1.3-1.1,9.7,9.7,0,0,0,2.4-4.6,25.8,25.8,0,0,0,.4-5.4V66.3h12.2V80.5c0,1.8-.8,2.7-2.6,2.7h-2.7q-.2-.6-.3-1.5h2.6a1.3,1.3,0,0,0,1.5-1.5v-3Zm.2-1.3h9.3V72.5H1988C1988,73.7,1988,74.9,1987.9,76Zm.1-8.3v3.4h9.2V67.7Z"/></g><path class="cls-5" d="M1562.5,162a20.6,20.6,0,0,1-4.9,5.7,32.3,32.3,0,0,0,7.4,2,39.7,39.7,0,0,0-2,3.5,26,26,0,0,1-8.5-3.3,38.6,38.6,0,0,1-8.4,3.6,33.7,33.7,0,0,0-1.9-3.2,41.4,41.4,0,0,0,7.3-2.6,30.5,30.5,0,0,1-3.2-3.8,31.9,31.9,0,0,1-6.4,7.6c-.4-1.5-.7-2.9-1.1-4.1a28,28,0,0,0,7.1-10.3h-6.1v-2.9q.6-1.9,1.2-4.2l3.3.4c-.2,1-.6,2.2-1,3.7h3.5a43.2,43.2,0,0,0,1.1-4.8l3.6.3-1.1,4.5h6.9l-2.8-2.7,2.1-2a48.4,48.4,0,0,1,3.8,3.2l-1.5,1.5h4.1v3h-13.5c-.2.7-.5,1.4-.8,2.2h11.8Zm-8,4a15.7,15.7,0,0,0,3.9-3.8H1551A15.7,15.7,0,0,0,1554.5,166Z"/><path class="cls-5" d="M1580.6,173.3h-3.4V162.1h-3.8v9.4H1570v-7.8c-.9,1-2,2-3.1,3a27.4,27.4,0,0,0-1.1-3.4,29.7,29.7,0,0,0,6.3-7.7h-5.9v-3.2h7.5c.4-1,.7-2,1-3l3.4.4-.9,2.6h12.5v3.2h-14a27.7,27.7,0,0,1-2.2,3.7h3.7v-3.1h3.4v3.1h7.3v7.9a4.3,4.3,0,0,1-.6,2.4,2.9,2.9,0,0,1-1.8,1.1l-3.4.2c-.2-1.3-.4-2.4-.5-3.2h1.5q1.5,0,1.5-1.8v-3.9h-4Z"/><path class="cls-5" d="M1609.2,170.1h-4.1l-8-12.2-.9-1.6h0c0,.7.1,1.7.1,3v10.8h-3.8V151.2h4.3l7.7,11.9a12,12,0,0,0,1,1.5h0a17.1,17.1,0,0,1-.1-2.6V151.2h3.8Z"/><path class="cls-5" d="M1624.7,170.1h-11.1V151.2h10.7v3.3h-6.7v4.4h6.2v3.3h-6.2v4.6h7.1Z"/><path class="cls-5" d="M1631.8,163.5v6.6h-4V151.2h6.5c4.7,0,7,2,7,6a5.6,5.6,0,0,1-2.1,4.6,7.9,7.9,0,0,1-5.3,1.7Zm0-9.2v6.1h1.8c2.3,0,3.5-1,3.5-3.1s-1.2-3-3.5-3Z"/><path class="cls-5" d="M1651.1,164.2h-7.2v-2.7h7.2Z"/><path class="cls-5" d="M1655,169.6v-3.4a7.8,7.8,0,0,0,4.1,1.2,4.3,4.3,0,0,0,2.7-.8,3,3,0,0,0,.9-2.3c0-1.9-1.3-2.9-4-2.9l-3.4.2.7-10.4h9.9v3.3h-6.8l-.2,3.9h1.8a6.2,6.2,0,0,1,4.4,1.5,5.4,5.4,0,0,1,1.6,4.1,6.5,6.5,0,0,1-1.9,4.7,7.6,7.6,0,0,1-5.3,1.8A11.7,11.7,0,0,1,1655,169.6Z"/><path class="cls-5" d="M1692.8,169.8l-1.2,3.1h-12.8a9.5,9.5,0,0,1-3.7-.6,6.1,6.1,0,0,1-2.4-1.7l-2.7,3-1.4-3.8,2.3-2v-6.6h-2.1v-3.2h5.2v9.9c.9,1.4,2.6,2,5.1,2h13.7Zm-21-20.5c1.4,1.7,2.5,3.2,3.4,4.5l-2.9,1.9a52,52,0,0,0-3.1-4.6Zm19.6.9V153l-5.1,2.8h5.1v10.5a3.2,3.2,0,0,1-.5,1.8,2.5,2.5,0,0,1-1.3.9,16.6,16.6,0,0,1-3.6.1c-.1-.7-.4-1.5-.6-2.5h1.9c.7,0,1-.3,1-1.1v-.4H1685v3.7h-2.9v-3.7h-3.2v3.7h-3V155.8h4.6l-2.6-1.6,1.2-1.5h-3.4v-2.5Zm-12.5,9.3h3.2V158h-3.2Zm0,3.6h3.2v-1.5h-3.2Zm8.2-10.4H1680l3.4,2Zm1.2,5.3H1685v1.5h3.3Zm-3.3,5.1h3.3v-1.5H1685Z"/><path class="cls-5" d="M1701,164.7a14.5,14.5,0,0,0,.6,3.3,51,51,0,0,0-5.2,4.1l-1.5-2.7a2.8,2.8,0,0,0,.6-1.8v-7.8h-1.9v-3.1h5.2v9.7Zm-4-15.4,3,4.5-3,1.7c-.9-1.5-1.8-3.1-2.7-4.5Zm3.4,19.7h2V156.8h3.3V169h2.6V154.1h-7.1v-3.2h16.1v3.2h-5.7v5.5h5.2v3.2h-5.2V169h6v3.2h-17.2Z"/><path class="cls-5" d="M1718.3,163.4a28.4,28.4,0,0,0,2.8-6.5h-2.6v-3.2h2.8v-4.3h3v4.3h2.3v3.2h-2.3v2.8l2.9,1.7-1.5,2.7-1.4-1.1v10.3h-3v-10c-.7,1.6-1.4,3.1-2.2,4.6C1718.8,166.2,1718.5,164.7,1718.3,163.4Zm10.3-1.9,2.9.8a79.2,79.2,0,0,1-3,8.1,15.3,15.3,0,0,0-2.9-1.1A49,49,0,0,0,1728.6,161.5Zm-1.9-4.7h15.6v3.1h-6.1v10.4a2.7,2.7,0,0,1-2.8,2.8h-3.7c-.2-1.3-.4-2.4-.6-3.4h2.3c.9,0,1.4-.4,1.4-1.3v-8.7h-6.1Zm.9-6.1h13.8v3.2h-13.8Zm12.1,11c1,2.4,2,5,3,7.7l-3,1.1c-1-2.9-1.9-5.5-2.9-7.8Z"/><path class="cls-5" d="M1745.8,150.5l3.7,5.1-2.9,2c-1.1-1.8-2.3-3.6-3.5-5.3Zm.7,9.9,3.2,1.6-3.6,10.4-3-1.9C1744.2,167.7,1745.4,164.3,1746.5,160.4Zm6.5-11.1,3.2.9-1.3,3.3h5l-2.3-2.7,2.5-1.7,3,3.3-1.6,1.1h5.5v2.6h-5v2.6h4.8v2.5H1762v2.6h4.8v2.6H1762V169h5.2v2.6h-12.7v1.8h-3.4V160l-1.3,1.8-1.6-3.3A23.1,23.1,0,0,0,1753,149.3Zm1.5,9.4h4.2v-2.6h-4.2Zm0,5.1h4.2v-2.6h-4.2Zm0,5.2h4.2v-2.6h-4.2Z"/><path class="cls-5" d="M1866.5,170.1h-4.1l-8-12.2-.9-1.6h0c0,.7.1,1.7.1,3v10.8h-3.8V151.2h4.3l7.7,11.9a12,12,0,0,0,1,1.5h0a17.1,17.1,0,0,1-.1-2.6V151.2h3.8Z"/><path class="cls-5" d="M1882,170.1h-11.1V151.2h10.7v3.3h-6.7v4.4h6.2v3.3h-6.2v4.6h7.1Z"/><path class="cls-5" d="M1883.9,160.9a10.1,10.1,0,0,1,2.6-7.2,8.7,8.7,0,0,1,6.8-2.8,8.3,8.3,0,0,1,6.5,2.7,9.6,9.6,0,0,1,2.5,6.9,9.9,9.9,0,0,1-2.5,7.1,8.8,8.8,0,0,1-6.8,2.8,8.5,8.5,0,0,1-6.5-2.7A9.3,9.3,0,0,1,1883.9,160.9Zm4.3-.2a7.3,7.3,0,0,0,1.3,4.5,4.5,4.5,0,0,0,3.6,1.7,4.3,4.3,0,0,0,3.7-1.7,6.9,6.9,0,0,0,1.3-4.5,7.2,7.2,0,0,0-1.3-4.6,4.2,4.2,0,0,0-3.6-1.7,4.7,4.7,0,0,0-3.7,1.7A7.4,7.4,0,0,0,1888.2,160.7Z"/><path class="cls-5" d="M1904.8,173.2V150.4h21.9v22.7h-3.4v-1h-15v1.1Zm18.5-4.1V153.4h-15v15.7Zm-13-13.1h10.9v10.4h-10.9Zm7.6,7.6v-4.7h-4.2v4.7Z"/><path class="cls-5" d="M1937,152.9v2.5l-1.2,3.5-1.9-.4v8.9l2.2-1.7a21.9,21.9,0,0,0,.3,3.6c-2.1,1.7-3.5,2.9-4.3,3.7l-1.6-2.4a3.6,3.6,0,0,0,.5-1.9v-10a10.1,10.1,0,0,1-1.2,2.3,24.3,24.3,0,0,0-1.5-2.6,33.9,33.9,0,0,0,2.6-9l2.7.4a28.4,28.4,0,0,1-.6,3.1Zm-5.5,4.6h2.3l.9-2.2h-2.4C1932,156.1,1931.8,156.8,1931.5,157.5Zm11.7,7.5h3.1a11,11,0,0,1-.4,2.7l6.8,3.1-1.8,2.6c-2.1-1.2-4.1-2.3-6.2-3.3-1,1.3-3.4,2.5-7.1,3.5-.5-1-1.1-1.9-1.6-2.8a16.2,16.2,0,0,0,5.7-2.1A4.4,4.4,0,0,0,1943.2,165Zm9.6-4.1h-16.6v-2.5h6.9v-1h-5.5v-6.2h5.5v-1.7h3v1.7h5.5v6.2h-5.5v1h6.7Zm-15.1,7.9v-6.9h13.9v6.9h-3v-4.4h-7.8v4.4Zm2.8-13.8h2.6v-1.5h-2.6Zm8.2,0v-1.5h-2.6V155Z"/><path class="cls-5" d="M1962.8,164.8a24.3,24.3,0,0,0,.4,3.6c-3.1,2.1-5.1,3.5-5.9,4.5l-1.8-2.4a3.3,3.3,0,0,0,.6-2.1v-7.8h-2.5v-3.1h5.7v9.6Zm-5-15.5,3.2,4.5-3.1,1.9q-1.2-2.1-3-4.8Zm3.8,7.4h6.2v-7.4h3.6v7.4h6.2V160h-6.2v13.4h-3.6V160h-6.2Z"/><path class="cls-5" d="M1988.8,158.8l2.9,1.5a34.1,34.1,0,0,1-5,6.8,7.8,7.8,0,0,0,1.1,1.8,1.9,1.9,0,0,0,1.2.7h.4c.1,0,.3-.5.4-1.4s.3-1.6.4-2.3l3,1.4a16.7,16.7,0,0,1-1.5,4.9,2.8,2.8,0,0,1-2.2,1.1,5.8,5.8,0,0,1-5.5-3.7,32.8,32.8,0,0,1-3.8,2.7,32.1,32.1,0,0,0-1.9-3.1,20.5,20.5,0,0,0,4.5-2.9,50.6,50.6,0,0,1-1-7.1l-2.8.4-.6-3,3.2-.5-.3-6.4h3.5c0,2,0,3.9.1,5.9l6.4-1,.5,3-6.7,1a42.6,42.6,0,0,0,.6,5A18.2,18.2,0,0,0,1988.8,158.8Zm-1.2-9.4a23.8,23.8,0,0,1,3.6,3l-2.1,2-3.4-3.2Zm8.4,17.2h-3.2V151.9h3.2Zm5.5-17.1v20.6a2.8,2.8,0,0,1-.7,2.1,3.2,3.2,0,0,1-2.2.8h-2.9a13.5,13.5,0,0,0-.9-3.2h2.1c.5,0,.9,0,1-.2s.3-.5.3-.9V149.5Z"/><path class="cls-5" d="M2005.6,151.8h8.3c-.3-.6-.5-1.2-.7-1.7l3.7-.9,1.1,2.6h7.8v8.6h-16.9c0,5.4-1.1,9.7-3.2,12.7l-2.5-2.8a19.1,19.1,0,0,0,2.4-10.1Zm16.9,5.7v-2.7h-13.6v2.7Zm-12.9,15.7V162.8h16.1v10.4h-3.3v-1.3h-9.5v1.3Zm12.8-7.4h-9.5v3.1h9.5Z"/><path class="cls-5" d="M2037.4,161.6l2.6,6.1c1.1-2,1.7-5.7,1.6-11h-2.4v-3.2h2.5v-4.2h3.2v4.2h6.4l-.3,13.7a21.8,21.8,0,0,1-.2,3.5,2.5,2.5,0,0,1-.7,1.2,2.9,2.9,0,0,1-1.3.8l-4.4.3c-.2-1.3-.5-2.5-.8-3.7h2.6a1.8,1.8,0,0,0,1.1-.3,1,1,0,0,0,.4-.8c.1-.3.1-1.6.2-3.7s.1-4.8.1-7.9h-3.1a56.8,56.8,0,0,1-.5,7.7,17.2,17.2,0,0,1-1.3,4.8,15.1,15.1,0,0,1-2.7,4.2l-2.9-2,1.3-1.5-6.8.5-2.3.5-1.5-2.9c.8-.7,1.9-3.2,3.1-7.6h-3v-3.1h11.2v3.1h-4.7c-.7,2.3-1.5,4.6-2.4,6.8l4-.2a47,47,0,0,0-1.7-4.5Zm1.3-7.4h-9.4v-3.1h9.4Z"/><g class="cls-4"><path d="M2207.6,70.6a2.9,2.9,0,0,0-.7-1.8,3.2,3.2,0,0,0-2-.6,3.9,3.9,0,0,0-1.8.4,4.8,4.8,0,0,0-1.6,1.3V68.2a3.3,3.3,0,0,1,1.5-1.1,4.6,4.6,0,0,1,2.1-.4,4.5,4.5,0,0,1,3.1,1,3.5,3.5,0,0,1,1.2,2.8,5,5,0,0,1-.8,2.7,8.9,8.9,0,0,1-2.4,2.3,17.9,17.9,0,0,0-2.4,1.8,2.4,2.4,0,0,0-.8,1,2.1,2.1,0,0,0-.3,1.2h7.1v1.6h-8.9v-.7a5.8,5.8,0,0,1,.3-2.1,5.5,5.5,0,0,1,1.1-1.7,14.2,14.2,0,0,1,2.4-1.9,9.8,9.8,0,0,0,2.3-2.1A3.4,3.4,0,0,0,2207.6,70.6Z"/><path d="M2211.6,74.3a11,11,0,0,1,1.2-5.7,4.1,4.1,0,0,1,3.6-1.9q4.5,0,4.5,7.2a10.4,10.4,0,0,1-1.2,5.5,4.1,4.1,0,0,1-3.6,1.9,3.8,3.8,0,0,1-3.3-1.8A9.3,9.3,0,0,1,2211.6,74.3Zm1.8-.1c0,3.7,1,5.6,2.9,5.6s2.8-1.9,2.8-5.7-.9-5.9-2.8-5.9S2213.4,70.2,2213.4,74.2Z"/><path d="M2226.9,81.1V69a4.8,4.8,0,0,1-1.4.9l-1.8.7V68.9l2.4-1a12.2,12.2,0,0,0,1.9-1.3h.7V81.1Z"/><path d="M2233.6,77.1a3.4,3.4,0,0,1,.7-2.2,4,4,0,0,1,1.9-1.5,6.4,6.4,0,0,1-1.5-1.3,4.1,4.1,0,0,1-.5-1.8,3.5,3.5,0,0,1,.5-1.8,3.2,3.2,0,0,1,1.5-1.3,3.3,3.3,0,0,1,2-.5,4.5,4.5,0,0,1,2,.4,4.4,4.4,0,0,1,1.4,1.3,3.3,3.3,0,0,1,.6,1.9,2.7,2.7,0,0,1-.6,1.7,3.8,3.8,0,0,1-1.4,1.4,3.8,3.8,0,0,1,1.8,1.5,3.7,3.7,0,0,1,.8,2.2,4.3,4.3,0,0,1-.6,2.2,4.6,4.6,0,0,1-1.6,1.5,6.4,6.4,0,0,1-2.4.5,6,6,0,0,1-2.4-.5,4.6,4.6,0,0,1-1.6-1.5A4.3,4.3,0,0,1,2233.6,77.1Zm1.7-.1a2.6,2.6,0,0,0,.8,2,2.5,2.5,0,0,0,2.1.8,2.4,2.4,0,0,0,2-.8,2.3,2.3,0,0,0,.8-2,2.4,2.4,0,0,0-.8-1.9,2.4,2.4,0,0,0-2-.8,3.1,3.1,0,0,0-2.1.7A3,3,0,0,0,2235.3,77Zm.6-6.6a2.5,2.5,0,0,0,.6,1.7,2.6,2.6,0,0,0,1.7.7,2.4,2.4,0,0,0,1.6-.7,2.2,2.2,0,0,0,.7-1.7,2.5,2.5,0,0,0-.6-1.6,2.4,2.4,0,0,0-3.4,0A2.3,2.3,0,0,0,2235.9,70.4Z"/><path d="M2244,77.3h2.9V72.1h6.5V68.9H2248a28,28,0,0,1-2.7,4l-1.1-1a18.6,18.6,0,0,0,3.8-6.5l1.5.4a8.9,8.9,0,0,1-.8,1.7h12.6v1.4h-6.4v3.2h6.1v1.3h-6.1v3.9h7.2v1.3h-7.2v5h-1.5v-5H2244Zm4.4,0h5V73.4h-5Z"/><path d="M2267.6,81.1V69a8.3,8.3,0,0,1-1.5.9,6.7,6.7,0,0,1-1.8.7V68.9l2.4-1,2-1.3h.6V81.1Z"/><path d="M2278,77.3a12.6,12.6,0,0,1-2.7,6.4,6.9,6.9,0,0,0-1.3-1.1,9.7,9.7,0,0,0,2.4-4.6,25.8,25.8,0,0,0,.4-5.4V66.3H2289V80.5c0,1.8-.9,2.7-2.6,2.7h-2.8a10.4,10.4,0,0,0-.2-1.5h2.6a1.3,1.3,0,0,0,1.5-1.5v-3Zm.2-1.3h9.3V72.5h-9.2C2278.3,73.7,2278.2,74.9,2278.2,76Zm.1-8.3v3.4h9.2V67.7Z"/></g><path class="cls-5" d="M2150.6,149.3h3.4l-.9,1.6h6.1v2.2a16,16,0,0,0,2.3-3.8h3.3a11.1,11.1,0,0,1-.7,1.6h6.5v2.3h-4.1l1.4,1.4-1.4,1.2h2.6v6.7h-8.5V164h9.6c-.1,3.9-.3,6.1-.7,6.6l-1.3,1.2c-.5.3-2.4.4-5.8.4-.2-1-.5-2-.8-3h3.3l1.3-.2a1.4,1.4,0,0,0,.5-.8,13,13,0,0,0,.2-1.7h-6.3v6.7h-3.3v-6a23.3,23.3,0,0,1-8.8,5.8l-1.8-2.9a24.7,24.7,0,0,0,7.1-3.6h-5.7l1.1-6.7h8.1v-1.5h-8.4v-2.1l-.5.5-2-2.2A15.9,15.9,0,0,0,2150.6,149.3Zm2.1,4.7,1-.8h-2a18.8,18.8,0,0,1-2.2,2.6h5Zm-1,10h5.6v-1.5H2152Zm3.7-10.8a12.9,12.9,0,0,1,1.7,1.6l-1.3,1h5.1l-2.5-1.7.7-.9Zm10.4,6.7v-1.5h-5.2v1.5Zm-4.8-4.1h4.5a16.6,16.6,0,0,0-1.9-1.8l.9-.8h-1.6A12.4,12.4,0,0,1,2161,155.8Z"/><path class="cls-5" d="M2171.9,159.5h23.5v3.6h-23.5Z"/><path class="cls-5" d="M2198.8,150.3h20.5v7.6h-17.1a45.3,45.3,0,0,1-.8,10,21.7,21.7,0,0,1-2.2,5.3l-2.7-2.9a14.2,14.2,0,0,0,1.6-3.7c.5-1.5.7-4.3.7-8.4Zm17.1,4.8v-2h-13.7v2Zm-13.1,18.3V160h6.6v-1.7h3.3V160h6.6v13.4h-3.2v-1.2h-10v1.2Zm3.3-8.6h3.3v-2.2h-3.3Zm0,4.7h3.3v-2.2h-3.3Zm10-6.9h-3.4v2.2h3.4Zm-3.4,6.9h3.4v-2.2h-3.4Z"/><path class="cls-5" d="M2221.5,159.9h5.6v-6h-4.3v-3.2h21.7v3.2h-3.9v6h4.9V163h-4.9v10h-3.5V163h-6.5c-.2,3-.7,5.2-1.7,6.7a12.5,12.5,0,0,1-4.3,3.8l-3.1-2.5a14.1,14.1,0,0,0,3.8-2.9c1-1.1,1.5-2.8,1.7-5.1h-5.5Zm9.1,0h6.5v-6h-6.5Z"/><path class="cls-5" d="M2267.9,162a20.3,20.3,0,0,1-4.8,5.7,30.9,30.9,0,0,0,7.4,2l-2.1,3.5a24.6,24.6,0,0,1-8.4-3.3,39.5,39.5,0,0,1-8.5,3.6l-1.8-3.2a44.5,44.5,0,0,0,7.3-2.6,19.5,19.5,0,0,1-3.2-3.8,34.7,34.7,0,0,1-6.5,7.6,34.4,34.4,0,0,0-1.1-4.1,28,28,0,0,0,7.1-10.3h-6.1v-2.9a25.8,25.8,0,0,0,1.2-4.2l3.3.4c-.2,1-.5,2.2-.9,3.7h3.5l1.1-4.8,3.5.3-1,4.5h6.8l-2.8-2.7,2.1-2a48.4,48.4,0,0,1,3.8,3.2l-1.5,1.5h4.1v3H2257l-.9,2.2h11.8Zm-8,4a18.3,18.3,0,0,0,4-3.8h-7.4A15.2,15.2,0,0,0,2259.9,166Z"/><path class="cls-5" d="M2271.4,156.1h8.3v-1.8h-6.4v-2.9h6.4v-2.2h3.3v2.2h5.9v2.7a37.3,37.3,0,0,0,3.2-3.6l2.4,1.8a26,26,0,0,1-3.6,3.8h4.5V159h-8.1a19.2,19.2,0,0,1-3.1,1.8h8.5v12.6h-3.3v-1.1h-11.3v1.1h-3.3v-8.8l-2.6.7c-.3-.8-.6-1.9-1-3a43.6,43.6,0,0,0,11-3.3h-10.8Zm18,7.5h-11.3v1.7h11.3Zm-11.3,6h11.3v-1.7h-11.3Zm10.6-15.3H2283v1.8h3.6Z"/><path class="cls-5" d="M2296.5,155.6h9.6a59.2,59.2,0,0,0,.2-6.2h3.7c-.1,2.4-.1,4.5-.2,6.2h10v3.3h-9.7a14.7,14.7,0,0,0,10.1,10.9c-1.2,1.3-2.1,2.5-2.8,3.4a17.4,17.4,0,0,1-9.2-10c-1.4,4.2-4.5,7.6-9.4,10.2a28.7,28.7,0,0,0-2.7-3.2c5.9-2.6,9.1-6.4,9.7-11.3h-9.3Z"/><path class="cls-5" d="M2335.7,149.4l-.6.8c2,3.1,5.4,5.7,10.1,7.8-.9,1.1-1.6,2-2.2,2.9a27.7,27.7,0,0,1-3.4-2v1.6h-13.1v-1.8l-3.4,2.2c-.4-.7-1.2-1.7-2.1-2.9,5.3-2.8,8.8-5.7,10.6-8.6Zm-13.8,13.2h22.3v3h-6l5,6.3-3,1.8-1.1-1.6-11.6.6-2.5.3-1.5-2.9a21,21,0,0,0,4.4-4.5h-6Zm11.2-9.7a27.6,27.6,0,0,1-4.9,4.6h9.5A25,25,0,0,1,2333.1,152.9Zm2.1,14,2.1-1.3h-5.1l-3.2,3.7,7.9-.2Z"/><path class="cls-5" d="M2214,203.2h-3.6V179.9h3.6Zm2.5-.2V180.2h15.3V203h-3.5v-1.5H2220V203Zm11.8-19.7H2220v5.8h8.3Zm-8.3,15h8.3v-6H2220Z"/><path class="cls-5" d="M2234.5,199.5h5.2l-2.4-3,2.8-1.7,2.6,3.3-2.3,1.4h3.7v-4.7h-7.7v-3h7.7v-2h-4.7v-2a32.8,32.8,0,0,1-3.7,2.2l-2-3.1c4.9-2.1,8.4-4.7,10.7-7.6h4.9l-1.1,1.1a24.3,24.3,0,0,0,10,6c-.8,1.2-1.5,2.3-2,3.2a32,32,0,0,1-3.7-1.9v2.1h-4.8v2h7.7v3h-3.7l3,1.5c-.9,1.2-1.7,2.2-2.6,3.2h5.3v3h-22.9Zm11.5-17a44.4,44.4,0,0,1-5.1,4.3H2251A26.3,26.3,0,0,1,2246,182.5Zm5.6,12.3h-3.9v4.7h3.8l-2.4-1.3A36.9,36.9,0,0,0,2251.6,194.8Z"/><path class="cls-5" d="M2277.8,203.2v-1.9h-17.5V183.9h3.5v14h5.2V179.3h3.6v18.6h5.2v-14h3.6v19.3Z"/><g class="cls-4"><path d="M2503.6,70.6a2.9,2.9,0,0,0-.7-1.8,3.2,3.2,0,0,0-2-.6,3.9,3.9,0,0,0-1.8.4,4.8,4.8,0,0,0-1.6,1.3V68.2a3.3,3.3,0,0,1,1.5-1.1,4.6,4.6,0,0,1,2.1-.4,4.5,4.5,0,0,1,3.1,1,3.5,3.5,0,0,1,1.2,2.8,5,5,0,0,1-.8,2.7,8.9,8.9,0,0,1-2.4,2.3,17.9,17.9,0,0,0-2.4,1.8,2.4,2.4,0,0,0-.8,1,2.1,2.1,0,0,0-.3,1.2h7.1v1.6h-8.9v-.7a5.8,5.8,0,0,1,.3-2.1,5.5,5.5,0,0,1,1.1-1.7,14.2,14.2,0,0,1,2.4-1.9,9.8,9.8,0,0,0,2.3-2.1A3.4,3.4,0,0,0,2503.6,70.6Z"/><path d="M2507.6,74.3a11,11,0,0,1,1.2-5.7,4.1,4.1,0,0,1,3.6-1.9q4.5,0,4.5,7.2a10.4,10.4,0,0,1-1.2,5.5,4.1,4.1,0,0,1-3.6,1.9,3.8,3.8,0,0,1-3.3-1.8A9.3,9.3,0,0,1,2507.6,74.3Zm1.8-.1c0,3.7,1,5.6,2.9,5.6s2.8-1.9,2.8-5.7-.9-5.9-2.8-5.9S2509.4,70.2,2509.4,74.2Z"/><path d="M2522.9,81.1V69a4.8,4.8,0,0,1-1.4.9l-1.8.7V68.9l2.4-1a12.2,12.2,0,0,0,1.9-1.3h.7V81.1Z"/><path d="M2529.6,77.1a3.4,3.4,0,0,1,.7-2.2,4,4,0,0,1,1.9-1.5,6.4,6.4,0,0,1-1.5-1.3,4.1,4.1,0,0,1-.5-1.8,3.5,3.5,0,0,1,.5-1.8,3.2,3.2,0,0,1,1.5-1.3,3.3,3.3,0,0,1,2-.5,4.5,4.5,0,0,1,2,.4,4.4,4.4,0,0,1,1.4,1.3,3.3,3.3,0,0,1,.6,1.9,2.7,2.7,0,0,1-.6,1.7,3.8,3.8,0,0,1-1.4,1.4,3.8,3.8,0,0,1,1.8,1.5,3.7,3.7,0,0,1,.8,2.2,4.3,4.3,0,0,1-.6,2.2,4.6,4.6,0,0,1-1.6,1.5,6.4,6.4,0,0,1-2.4.5,6,6,0,0,1-2.4-.5,4.6,4.6,0,0,1-1.6-1.5A4.3,4.3,0,0,1,2529.6,77.1Zm1.7-.1a2.6,2.6,0,0,0,.8,2,2.5,2.5,0,0,0,2.1.8,2.4,2.4,0,0,0,2-.8,2.3,2.3,0,0,0,.8-2,2.4,2.4,0,0,0-.8-1.9,2.4,2.4,0,0,0-2-.8,3.1,3.1,0,0,0-2.1.7A3,3,0,0,0,2531.3,77Zm.6-6.6a2.5,2.5,0,0,0,.6,1.7,2.6,2.6,0,0,0,1.7.7,2.4,2.4,0,0,0,1.6-.7,2.2,2.2,0,0,0,.7-1.7,2.5,2.5,0,0,0-.6-1.6,2.4,2.4,0,0,0-3.4,0A2.3,2.3,0,0,0,2531.9,70.4Z"/><path d="M2540,77.3h2.9V72.1h6.5V68.9H2544a28,28,0,0,1-2.7,4l-1.1-1a18.6,18.6,0,0,0,3.8-6.5l1.5.4a8.9,8.9,0,0,1-.8,1.7h12.6v1.4h-6.4v3.2h6.1v1.3h-6.1v3.9h7.2v1.3h-7.2v5h-1.5v-5H2540Zm4.4,0h5V73.4h-5Z"/><path d="M2568,76.7a4.2,4.2,0,0,1-1.4,3.3,4.9,4.9,0,0,1-3.7,1.3,6.1,6.1,0,0,1-3-.6V78.9a5.8,5.8,0,0,0,3,.9,3.6,3.6,0,0,0,2.4-.8,2.8,2.8,0,0,0,.9-2.2,2.4,2.4,0,0,0-1-2.1,4,4,0,0,0-2.6-.7h-2.4l.5-7.2h6.6v1.6h-5.1l-.3,4h1.3a5,5,0,0,1,3.5,1.2A3.6,3.6,0,0,1,2568,76.7Z"/><path d="M2574,77.3a12.6,12.6,0,0,1-2.7,6.4,6.9,6.9,0,0,0-1.3-1.1,9.7,9.7,0,0,0,2.4-4.6,25.8,25.8,0,0,0,.4-5.4V66.3H2585V80.5c0,1.8-.9,2.7-2.6,2.7h-2.8a10.4,10.4,0,0,0-.2-1.5h2.6a1.3,1.3,0,0,0,1.5-1.5v-3Zm.2-1.3h9.3V72.5h-9.2C2574.3,73.7,2574.2,74.9,2574.2,76Zm.1-8.3v3.4h9.2V67.7Z"/></g><path class="cls-5" d="M2483.2,170.1h-4.1l-8-12.2-.9-1.6h-.1a24.5,24.5,0,0,1,.1,3v10.8h-3.8V151.2h4.4l7.7,11.9.9,1.5h.1a17.1,17.1,0,0,1-.1-2.6V151.2h3.8Z"/><path class="cls-5" d="M2498.7,170.1h-11.2V151.2h10.8v3.3h-6.7v4.4h6.2v3.3h-6.2v4.6h7.1Z"/><path class="cls-5" d="M2500.6,160.9a10.1,10.1,0,0,1,2.6-7.2,8.7,8.7,0,0,1,6.8-2.8,8.3,8.3,0,0,1,6.5,2.7,10.9,10.9,0,0,1-.1,14,8.5,8.5,0,0,1-6.7,2.8,8.7,8.7,0,0,1-6.6-2.7A9.2,9.2,0,0,1,2500.6,160.9Zm4.2-.2a8,8,0,0,0,1.3,4.5,4.5,4.5,0,0,0,3.7,1.7,4.1,4.1,0,0,0,3.6-1.7,6.9,6.9,0,0,0,1.4-4.5,7.8,7.8,0,0,0-1.3-4.6,4.5,4.5,0,0,0-3.6-1.7,4.5,4.5,0,0,0-3.7,1.7A7.4,7.4,0,0,0,2504.8,160.7Z"/><path class="cls-5" d="M2529.9,157.9h5.1v-2.7h-5.4l.8.4c-2,3.1-3.7,5.6-5.2,7.5l3.8-.4c-.1,1.1-.2,2.1-.2,3a70.5,70.5,0,0,0-7.3,1.1l-.9-2.7a29.4,29.4,0,0,0,3.7-4.5l-3.2.3-.9-2.8a32.3,32.3,0,0,0,4.2-7.9l3.2,1.2a72.3,72.3,0,0,1-3.8,6.4h2.3l1.4-2.5,1.6.8v-2.7h5.9v-3h3.4v3h6v2.9h-6v2.7h5.3v2.9h-13.8Zm-9,14.2-.6-3.4,9-1.3c-.1,1.4-.1,2.5-.1,3.4Zm9.2,1.2V162.9h13.3v10.4h-3.2v-1.4h-6.9v1.4Zm10.1-7.5h-6.9v3.1h6.9Z"/><path class="cls-5" d="M2545.2,163.4a25,25,0,0,0,2.9-6.4h-2.7v-2.9h3v-4.7h3.1v4.7h2.4v1.3a19.3,19.3,0,0,0,3-5.9l3.4.3a16,16,0,0,1-1,2.3h9.1v9.4c-.1,2.6-.1,4.8-.2,6.4a5.3,5.3,0,0,1-1.1,3.6,3.8,3.8,0,0,1-2.6,1.4h-5.3c-.3-1.3-.5-2.4-.7-3.4l4.3.2a2.5,2.5,0,0,0,1.6-.5,3.4,3.4,0,0,0,.7-2.4l-1.6.8-.6-1.1c-3.8.3-6.7.7-8.5,1l-1-2.7c1.2-1,2.8-3.7,4.7-8.3l3.1,1.3-3.8,6.5,4.3-.3c-.6-1-1.1-2.1-1.7-3.2l2.5-1.3c.9,1.5,1.8,3.1,2.6,4.7.1-2.4.1-5.5.1-9.2h-7.4c-.9,1.4-1.8,2.7-2.8,4a20.8,20.8,0,0,0-2.1-2.1h-1.4v1.4l3.4,3.1-2.1,2-1.3-1.7v11.5h-3.1V163a44.4,44.4,0,0,1-2.4,4.9C2545.8,166.7,2545.5,165.3,2545.2,163.4Z"/><path class="cls-5" d="M2570.2,170.4h10.4v-1.3h-8.8v-2h8.8v-1.2h-8v-8.6h8v-1.2h-10.3v-2.2h10.3v-1.2l-8.2.2c-.2-.7-.3-1.5-.5-2.2,6.9-.1,13.6-.3,20.2-.6,0,.1.1.8.4,2.3l-8.7.2v1.3h10.5v2.2h-10.5v1.2h8.1v8.6h-8.1v1.2h9v2h-9v1.3h10.5v2.2h-24.1Zm5.6-9.7h4.8v-1.4h-4.8Zm0,3.2h4.8v-1.4h-4.8Zm13-4.6h-5v1.4h5Zm0,4.6v-1.4h-5v1.4Z"/><path class="cls-5" d="M2595.6,172.2l-.6-3.2,9-1.1a6.1,6.1,0,0,0-.1,1.4h1.3V155.4c-1.8,3-3.6,5.6-5.2,7.9l4.3-.5a18.9,18.9,0,0,0-.3,2.9,54.7,54.7,0,0,0-7.4,1.1l-1.2-2.9a16.3,16.3,0,0,0,3.7-4.5,15.8,15.8,0,0,0-3.2.4l-.9-2.8q1.2-.9,4.5-7.8l3.1,1.2-3.9,6.4h2.1a26.9,26.9,0,0,0,1.6-2.9l2.8,1.3v-4.7h12.5v18.9h1.5v3.1h-15.7v-1.3Zm18.7-18.7h-5.7v3.2h5.7Zm-5.7,9.4h5.7v-3.1h-5.7Zm0,6.4h5.7V166h-5.7Z"/><path class="cls-5" d="M2506,199.9h-4.1l-8-12.1-.9-1.6h-.1a21.1,21.1,0,0,1,.2,3v10.7h-3.9V181.1h4.4l7.7,11.8.9,1.5h.1a15.7,15.7,0,0,1-.1-2.6V181.1h3.8Z"/><path class="cls-5" d="M2525.7,198.7a14.2,14.2,0,0,1-6.8,1.6,9.7,9.7,0,0,1-7.1-2.6,10.4,10.4,0,0,1,.3-14.1,10.1,10.1,0,0,1,7.5-2.8,16.9,16.9,0,0,1,5.3.8v3.8a11.3,11.3,0,0,0-5.4-1.2,6,6,0,0,0-4.4,1.7,6.8,6.8,0,0,0-1.7,4.7,6.5,6.5,0,0,0,1.5,4.6,5.4,5.4,0,0,0,4.2,1.7,6.7,6.7,0,0,0,2.6-.5v-3.9h-3.8v-3.2h7.8Z"/><path class="cls-5" d="M2529.4,199.9V181.1h6.5c6.7,0,10.1,3.1,10.1,9.2a9.2,9.2,0,0,1-2.9,7,9.7,9.7,0,0,1-7.2,2.6Zm4-15.5v12.3h2.2a6.1,6.1,0,0,0,4.5-1.7,6.5,6.5,0,0,0,1.6-4.7,5.3,5.3,0,0,0-1.7-4.3,6,6,0,0,0-4.4-1.6Z"/><path class="cls-5" d="M2553.2,199.9c-.2-1.4-.4-2.6-.6-3.5l1.8.2a1.4,1.4,0,0,0,1.5-1.3,29.2,29.2,0,0,0,.2-3.3h-3.6c0,5-.8,8.8-2.3,11.3a21.7,21.7,0,0,0-2.9-2.4c1.3-2.2,2-5.3,2-9.4v-8.3h11.5l-.2-4h3.5v4h3.3l-2-2.5,2.5-1.4,2.5,2.9-1.9,1h2.7v3h-7a55.7,55.7,0,0,0,.5,6.5,38.1,38.1,0,0,0,2.9-5.3l3,1.3a47.6,47.6,0,0,1-4.9,8.4c.6,1.6,1.2,2.4,1.7,2.4s.3-.2.4-.4a3.8,3.8,0,0,0,.4-1.8,11.2,11.2,0,0,0,.3-2.4l3.1,1.5c-.1.9-.3,2-.6,3.5a5.5,5.5,0,0,1-1.4,2.7,3.2,3.2,0,0,1-1.8.6c-1.8,0-3.2-1.1-4.4-3.3a39.2,39.2,0,0,1-3.7,3.4,20.6,20.6,0,0,0-2.5-2.6,29.7,29.7,0,0,0,4.9-4.5,54.5,54.5,0,0,1-1.2-10h-8.4V189h7c0,.3-.1,1.7-.2,4.3a15.1,15.1,0,0,1-.6,4.7,6.4,6.4,0,0,1-1.3,1.5C2556.8,199.9,2555.4,200,2553.2,199.9Z"/><path class="cls-5" d="M2572.4,199h12.3a122.3,122.3,0,0,0,5.2-12.1l3.5,1.2c-1.5,3.6-3.2,7.3-4.9,10.9h7.7v3.3h-23.8Zm.6-15.7h10a23.3,23.3,0,0,0-1.7-2.8l3.3-1.5a36.1,36.1,0,0,1,2.3,3.6l-1.7.7h10.5v3.3H2573Zm5.4,3.6a105,105,0,0,1,4.3,10.4l-3.5,1.3a86.1,86.1,0,0,0-4-10.4Z"/><g class="cls-4"><path d="M2801.6,70.6a2.9,2.9,0,0,0-.7-1.8,3.2,3.2,0,0,0-2-.6,3.9,3.9,0,0,0-1.8.4,4.8,4.8,0,0,0-1.6,1.3V68.2a3.3,3.3,0,0,1,1.5-1.1,4.6,4.6,0,0,1,2.1-.4,4.5,4.5,0,0,1,3.1,1,3.5,3.5,0,0,1,1.2,2.8,5,5,0,0,1-.8,2.7,8.9,8.9,0,0,1-2.4,2.3,17.9,17.9,0,0,0-2.4,1.8,2.4,2.4,0,0,0-.8,1,2.1,2.1,0,0,0-.3,1.2h7.1v1.6h-8.9v-.7a5.8,5.8,0,0,1,.3-2.1,5.5,5.5,0,0,1,1.1-1.7,14.2,14.2,0,0,1,2.4-1.9,9.8,9.8,0,0,0,2.3-2.1A3.4,3.4,0,0,0,2801.6,70.6Z"/><path d="M2805.6,74.3a11,11,0,0,1,1.2-5.7,4.1,4.1,0,0,1,3.6-1.9q4.5,0,4.5,7.2a10.4,10.4,0,0,1-1.2,5.5,4.1,4.1,0,0,1-3.6,1.9,3.8,3.8,0,0,1-3.3-1.8A9.3,9.3,0,0,1,2805.6,74.3Zm1.8-.1c0,3.7,1,5.6,2.9,5.6s2.8-1.9,2.8-5.7-.9-5.9-2.8-5.9S2807.4,70.2,2807.4,74.2Z"/><path d="M2820.9,81.1V69a4.8,4.8,0,0,1-1.4.9l-1.8.7V68.9l2.4-1a12.2,12.2,0,0,0,1.9-1.3h.7V81.1Z"/><path d="M2827.6,77.1a3.4,3.4,0,0,1,.7-2.2,4,4,0,0,1,1.9-1.5,6.4,6.4,0,0,1-1.5-1.3,4.1,4.1,0,0,1-.5-1.8,3.5,3.5,0,0,1,.5-1.8,3.2,3.2,0,0,1,1.5-1.3,3.3,3.3,0,0,1,2-.5,4.5,4.5,0,0,1,2,.4,4.4,4.4,0,0,1,1.4,1.3,3.3,3.3,0,0,1,.6,1.9,2.7,2.7,0,0,1-.6,1.7,3.8,3.8,0,0,1-1.4,1.4,3.8,3.8,0,0,1,1.8,1.5,3.7,3.7,0,0,1,.8,2.2,4.3,4.3,0,0,1-.6,2.2,4.6,4.6,0,0,1-1.6,1.5,6.4,6.4,0,0,1-2.4.5,6,6,0,0,1-2.4-.5,4.6,4.6,0,0,1-1.6-1.5A4.3,4.3,0,0,1,2827.6,77.1Zm1.7-.1a2.6,2.6,0,0,0,.8,2,2.5,2.5,0,0,0,2.1.8,2.4,2.4,0,0,0,2-.8,2.3,2.3,0,0,0,.8-2,2.4,2.4,0,0,0-.8-1.9,2.4,2.4,0,0,0-2-.8,3.1,3.1,0,0,0-2.1.7A3,3,0,0,0,2829.3,77Zm.6-6.6a2.5,2.5,0,0,0,.6,1.7,2.6,2.6,0,0,0,1.7.7,2.4,2.4,0,0,0,1.6-.7,2.2,2.2,0,0,0,.7-1.7,2.5,2.5,0,0,0-.6-1.6,2.4,2.4,0,0,0-3.4,0A2.3,2.3,0,0,0,2829.9,70.4Z"/><path d="M2838,77.3h2.9V72.1h6.5V68.9H2842a28,28,0,0,1-2.7,4l-1.1-1a18.6,18.6,0,0,0,3.8-6.5l1.5.4a8.9,8.9,0,0,1-.8,1.7h12.6v1.4h-6.4v3.2h6.1v1.3h-6.1v3.9h7.2v1.3h-7.2v5h-1.5v-5H2838Zm4.4,0h5V73.4h-5Z"/><path d="M2865.7,68.7a6.9,6.9,0,0,0-2.4-.5,3.3,3.3,0,0,0-2.9,1.6,7.6,7.6,0,0,0-1.1,4.3h0a3.3,3.3,0,0,1,3.2-1.9,3.7,3.7,0,0,1,2.9,1.2,4.2,4.2,0,0,1,1.1,3.2,5,5,0,0,1-1.2,3.4,4.3,4.3,0,0,1-3.3,1.3,3.9,3.9,0,0,1-3.3-1.7,7.4,7.4,0,0,1-1.3-4.8,10.3,10.3,0,0,1,1.6-5.9,5,5,0,0,1,4.3-2.2,5.5,5.5,0,0,1,2.4.4Zm-6.3,7.7a3.6,3.6,0,0,0,.7,2.4,2.3,2.3,0,0,0,2,1,2.6,2.6,0,0,0,1.9-.8,3.3,3.3,0,0,0,.7-2.3,3.1,3.1,0,0,0-.7-2.2,2.1,2.1,0,0,0-1.9-.8,2.4,2.4,0,0,0-2,.8A2.6,2.6,0,0,0,2859.4,76.4Z"/><path d="M2872,77.3a12.6,12.6,0,0,1-2.7,6.4,6.9,6.9,0,0,0-1.3-1.1,9.7,9.7,0,0,0,2.4-4.6,25.8,25.8,0,0,0,.4-5.4V66.3H2883V80.5c0,1.8-.9,2.7-2.6,2.7h-2.8a10.4,10.4,0,0,0-.2-1.5h2.6a1.3,1.3,0,0,0,1.5-1.5v-3Zm.2-1.3h9.3V72.5h-9.2C2872.3,73.7,2872.2,74.9,2872.2,76Zm.1-8.3v3.4h9.2V67.7Z"/></g><path class="cls-5" d="M2798.4,170.1h-4.1l-8-12.2-.9-1.6h-.1a24.5,24.5,0,0,1,.1,3v10.8h-3.8V151.2h4.4l7.7,11.9.9,1.5h.1a17.1,17.1,0,0,1-.1-2.6V151.2h3.8Z"/><path class="cls-5" d="M2813.9,170.1h-11.1V151.2h10.7v3.3h-6.7v4.4h6.2v3.3h-6.2v4.6h7.1Z"/><path class="cls-5" d="M2815.8,160.9a10.1,10.1,0,0,1,2.6-7.2,8.7,8.7,0,0,1,6.8-2.8,8.3,8.3,0,0,1,6.5,2.7,9.6,9.6,0,0,1,2.5,6.9,10,10,0,0,1-2.6,7.1,8.5,8.5,0,0,1-6.7,2.8,8.7,8.7,0,0,1-6.6-2.7A9.6,9.6,0,0,1,2815.8,160.9Zm4.2-.2a7.3,7.3,0,0,0,1.4,4.5,4.3,4.3,0,0,0,3.6,1.7,4.3,4.3,0,0,0,3.7-1.7,7.5,7.5,0,0,0,1.3-4.5,7.2,7.2,0,0,0-1.3-4.6,4.2,4.2,0,0,0-3.6-1.7,4.5,4.5,0,0,0-3.7,1.7A7.4,7.4,0,0,0,2820,160.7Z"/><path class="cls-5" d="M2837.1,166a7.4,7.4,0,0,0,4.4,1.4,5,5,0,0,0,2.6-.7,2.5,2.5,0,0,0,.9-2,2.5,2.5,0,0,0-1.1-2.1,5.7,5.7,0,0,0-3.1-.7h-1.7v-3h1.5c2.6,0,3.8-.9,3.8-2.6s-1-2.4-2.9-2.4a6,6,0,0,0-3.7,1.3v-3.3a9.7,9.7,0,0,1,4.6-1,7.6,7.6,0,0,1,4.4,1.2,4.2,4.2,0,0,1,1.6,3.5,4.4,4.4,0,0,1-3.7,4.6h0a4.7,4.7,0,0,1,3.1,1.4,4.1,4.1,0,0,1,1.2,3,5,5,0,0,1-2,4.2,8.2,8.2,0,0,1-5.2,1.5,9.4,9.4,0,0,1-4.7-1Z"/><path class="cls-5" d="M2853.2,151.8h8.3c-.2-.6-.5-1.2-.7-1.7l3.7-.9c.4.9.8,1.7,1.1,2.6h7.9v8.6h-17c0,5.4-1.1,9.7-3.2,12.7l-2.4-2.8a20.1,20.1,0,0,0,2.3-10.1Zm17,5.7v-2.7h-13.7v2.7Zm-13,15.7V162.8h16.1v10.4H2870v-1.3h-9.5v1.3Zm12.8-7.4h-9.5v3.1h9.5Z"/><path class="cls-5" d="M2885.1,161.6l2.6,6.1c1.1-2,1.6-5.7,1.6-11h-2.5v-3.2h2.6v-4.2h3.2v4.2h6.3l-.2,13.7a34.2,34.2,0,0,1-.3,3.5,3.4,3.4,0,0,1-.6,1.2,3.2,3.2,0,0,1-1.4.8l-4.3.3-.9-3.7h2.7a1.5,1.5,0,0,0,1-.3,1.1,1.1,0,0,0,.5-.8c0-.3.1-1.6.1-3.7s.1-4.8.2-7.9h-3.2c-.1,3.6-.2,6.2-.4,7.7a17.4,17.4,0,0,1-1.4,4.8,14.9,14.9,0,0,1-2.6,4.2,22.3,22.3,0,0,0-3-2l1.3-1.5-6.7.5-2.4.5-1.5-2.9c.9-.7,1.9-3.2,3.1-7.6h-3v-3.1h11.3v3.1h-4.7l-2.4,6.8,4-.2-1.7-4.5Zm1.2-7.4H2877v-3.1h9.3Z"/><g class="cls-4"><path d="M3098.6,70.6a2.9,2.9,0,0,0-.7-1.8,3.2,3.2,0,0,0-2-.6,3.9,3.9,0,0,0-1.8.4,4.8,4.8,0,0,0-1.6,1.3V68.2a3.3,3.3,0,0,1,1.5-1.1,4.6,4.6,0,0,1,2.1-.4,4.5,4.5,0,0,1,3.1,1,3.5,3.5,0,0,1,1.2,2.8,5,5,0,0,1-.8,2.7,8.9,8.9,0,0,1-2.4,2.3,17.9,17.9,0,0,0-2.4,1.8,2.4,2.4,0,0,0-.8,1,2.1,2.1,0,0,0-.3,1.2h7.1v1.6h-8.9v-.7a5.8,5.8,0,0,1,.3-2.1,5.5,5.5,0,0,1,1.1-1.7,14.2,14.2,0,0,1,2.4-1.9,9.8,9.8,0,0,0,2.3-2.1A3.4,3.4,0,0,0,3098.6,70.6Z"/><path d="M3102.6,74.3a11,11,0,0,1,1.2-5.7,4.1,4.1,0,0,1,3.6-1.9q4.5,0,4.5,7.2a10.4,10.4,0,0,1-1.2,5.5,4.1,4.1,0,0,1-3.6,1.9,3.8,3.8,0,0,1-3.3-1.8A9.3,9.3,0,0,1,3102.6,74.3Zm1.8-.1c0,3.7,1,5.6,2.9,5.6s2.8-1.9,2.8-5.7-.9-5.9-2.8-5.9S3104.4,70.2,3104.4,74.2Z"/><path d="M3117.9,81.1V69a4.8,4.8,0,0,1-1.4.9l-1.8.7V68.9l2.4-1a12.2,12.2,0,0,0,1.9-1.3h.7V81.1Z"/><path d="M3125.4,79.1a4.5,4.5,0,0,0,2.5.7,3.2,3.2,0,0,0,2.9-1.5,7.2,7.2,0,0,0,1.1-4.2h0a3.5,3.5,0,0,1-3.2,1.7,3.8,3.8,0,0,1-2.9-1.2,4.4,4.4,0,0,1-1.2-3.2,4.5,4.5,0,0,1,1.3-3.4,4.2,4.2,0,0,1,3.3-1.3,3.8,3.8,0,0,1,3.3,1.6,8.2,8.2,0,0,1,1.2,4.9c0,2.6-.5,4.6-1.6,6a4.9,4.9,0,0,1-4.2,2.1,6.2,6.2,0,0,1-2.5-.5Zm1-7.9a3.9,3.9,0,0,0,.7,2.3,2.9,2.9,0,0,0,2.1.8,2.7,2.7,0,0,0,2.6-2.6,3.9,3.9,0,0,0-.8-2.5,2.2,2.2,0,0,0-1.9-1,2.6,2.6,0,0,0-1.9.8A3.3,3.3,0,0,0,3126.4,71.2Z"/><path d="M3135,77.3h2.9V72.1h6.5V68.9H3139a28,28,0,0,1-2.7,4l-1.1-1a18.6,18.6,0,0,0,3.8-6.5l1.5.4a8.9,8.9,0,0,1-.8,1.7h12.6v1.4h-6.4v3.2h6.1v1.3h-6.1v3.9h7.2v1.3h-7.2v5h-1.5v-5H3135Zm4.4,0h5V73.4h-5Z"/><path d="M3161.1,70.6a2.4,2.4,0,0,0-.7-1.8,2.9,2.9,0,0,0-1.9-.6,3.9,3.9,0,0,0-1.8.4,5.2,5.2,0,0,0-1.7,1.3V68.2a4.2,4.2,0,0,1,1.6-1.1,5.5,5.5,0,0,1,5.2.6,3.8,3.8,0,0,1,1.1,2.8,5,5,0,0,1-.7,2.7,10.7,10.7,0,0,1-2.4,2.3,17.9,17.9,0,0,0-2.4,1.8,4.1,4.1,0,0,0-.9,1,3.7,3.7,0,0,0-.2,1.2h7v1.6h-8.9v-.7a5.6,5.6,0,0,1,.4-2.1,5.5,5.5,0,0,1,1.1-1.7,14.2,14.2,0,0,1,2.4-1.9,8.9,8.9,0,0,0,2.2-2.1A3.4,3.4,0,0,0,3161.1,70.6Z"/><path d="M3169,77.3a12.6,12.6,0,0,1-2.7,6.4,6.9,6.9,0,0,0-1.3-1.1,9.7,9.7,0,0,0,2.4-4.6,25.8,25.8,0,0,0,.4-5.4V66.3H3180V80.5c0,1.8-.9,2.7-2.6,2.7h-2.8a10.4,10.4,0,0,0-.2-1.5h2.6a1.3,1.3,0,0,0,1.5-1.5v-3Zm.2-1.3h9.3V72.5h-9.2C3169.3,73.7,3169.2,74.9,3169.2,76Zm.1-8.3v3.4h9.2V67.7Z"/></g><path class="cls-5" d="M3041.6,150.3h3.4l-.9,1.6h6.1v2.2a16,16,0,0,0,2.3-3.8h3.3a11.1,11.1,0,0,1-.7,1.6h6.5v2.3h-4.1l1.4,1.4-1.4,1.2h2.6v6.7h-8.5V165h9.6c-.1,3.9-.3,6.1-.7,6.6l-1.3,1.2c-.5.3-2.4.4-5.8.4-.2-1-.5-2-.8-3h3.3l1.3-.2a1.4,1.4,0,0,0,.5-.8,13,13,0,0,0,.2-1.7h-6.3v6.7h-3.3v-6a23.3,23.3,0,0,1-8.8,5.8l-1.8-2.9a24.7,24.7,0,0,0,7.1-3.6h-5.7l1.1-6.7h8.1v-1.5h-8.4v-2.1l-.5.5-2-2.2A15.9,15.9,0,0,0,3041.6,150.3Zm2.1,4.7,1-.8h-2a18.8,18.8,0,0,1-2.2,2.6h5Zm-1,10h5.6v-1.5H3043Zm3.7-10.8a12.9,12.9,0,0,1,1.7,1.6l-1.3,1h5.1l-2.5-1.7.7-.9Zm10.4,6.7v-1.5h-5.2v1.5Zm-4.8-4.1h4.5a16.6,16.6,0,0,0-1.9-1.8l.9-.8h-1.6A12.4,12.4,0,0,1,3052,156.8Z"/><path class="cls-5" d="M3063,168h23.4v3.7H3063Zm1.7-15h19.9v3.7h-19.9Z"/><path class="cls-5" d="M3089.8,151.3h20.5v7.6h-17.1a45.3,45.3,0,0,1-.8,10,21.7,21.7,0,0,1-2.2,5.3l-2.7-2.9a14.2,14.2,0,0,0,1.6-3.7c.5-1.5.7-4.3.7-8.4Zm17.1,4.8v-2h-13.7v2Zm-13.1,18.3V161h6.6v-1.7h3.3V161h6.6v13.4h-3.2v-1.2h-10v1.2Zm3.3-8.6h3.3v-2.2h-3.3Zm0,4.7h3.3v-2.2h-3.3Zm10-6.9h-3.4v2.2h3.4Zm-3.4,6.9h3.4v-2.2h-3.4Z"/><path class="cls-5" d="M3112.5,160.9h5.6v-6h-4.3v-3.2h21.7v3.2h-3.9v6h4.9V164h-4.9v10h-3.5V164h-6.5c-.2,3-.7,5.2-1.7,6.7a12.5,12.5,0,0,1-4.3,3.8l-3.1-2.5a14.1,14.1,0,0,0,3.8-2.9c1-1.1,1.5-2.8,1.7-5.1h-5.5Zm9.1,0h6.5v-6h-6.5Z"/><path class="cls-5" d="M3158.9,163a20.3,20.3,0,0,1-4.8,5.7,30.9,30.9,0,0,0,7.4,2l-2.1,3.5a24.6,24.6,0,0,1-8.4-3.3,39.5,39.5,0,0,1-8.5,3.6l-1.8-3.2a44.5,44.5,0,0,0,7.3-2.6,19.5,19.5,0,0,1-3.2-3.8,34.7,34.7,0,0,1-6.5,7.6,34.4,34.4,0,0,0-1.1-4.1,28,28,0,0,0,7.1-10.3h-6.1v-2.9a25.8,25.8,0,0,0,1.2-4.2l3.3.4c-.2,1-.5,2.2-.9,3.7h3.5l1.1-4.8,3.5.3-1,4.5h6.8l-2.8-2.7,2.1-2a48.4,48.4,0,0,1,3.8,3.2l-1.5,1.5h4.1v3H3148l-.9,2.2h11.8Zm-8,4a18.3,18.3,0,0,0,4-3.8h-7.4A15.2,15.2,0,0,0,3150.9,167Z"/><path class="cls-5" d="M3162.4,157.1h8.3v-1.8h-6.4v-2.9h6.4v-2.2h3.3v2.2h5.9v2.7a37.3,37.3,0,0,0,3.2-3.6l2.4,1.8a26,26,0,0,1-3.6,3.8h4.5V160h-8.1a19.2,19.2,0,0,1-3.1,1.8h8.5v12.6h-3.3v-1.1h-11.3v1.1h-3.3v-8.8l-2.6.7c-.3-.8-.6-1.9-1-3a43.6,43.6,0,0,0,11-3.3h-10.8Zm18,7.5h-11.3v1.7h11.3Zm-11.3,6h11.3v-1.7h-11.3Zm10.6-15.3H3174v1.8h3.6Z"/><path class="cls-5" d="M3187.5,156.6h9.6a59.2,59.2,0,0,0,.2-6.2h3.7c-.1,2.4-.1,4.5-.2,6.2h10v3.3h-9.7a14.7,14.7,0,0,0,10.1,10.9c-1.2,1.3-2.1,2.5-2.8,3.4a17.4,17.4,0,0,1-9.2-10c-1.4,4.2-4.5,7.6-9.4,10.2a28.7,28.7,0,0,0-2.7-3.2c5.9-2.6,9.1-6.4,9.7-11.3h-9.3Z"/><path class="cls-5" d="M3226.7,150.4l-.6.8c2,3.1,5.4,5.7,10.1,7.8-.9,1.1-1.6,2-2.2,2.9a27.7,27.7,0,0,1-3.4-2v1.6h-13.1v-1.8l-3.4,2.2c-.4-.7-1.2-1.7-2.1-2.9,5.3-2.8,8.8-5.7,10.6-8.6Zm-13.8,13.2h22.3v3h-6l5,6.3-3,1.8-1.1-1.6-11.6.6-2.5.3-1.5-2.9a21,21,0,0,0,4.4-4.5h-6Zm11.2-9.7a27.6,27.6,0,0,1-4.9,4.6h9.5A25,25,0,0,1,3224.1,153.9Zm2.1,14,2.1-1.3h-5.1l-3.2,3.7,7.9-.2Z"/><path class="cls-5" d="M3101.1,204.1V187.4h6.3v-2.8h-7.3v-3.1h23.8v3.1h-7.6v2.8h6.7v16.7h-3.5v-1.6h-15v1.6ZM3113,194v-3.6h-2.4c0,3.6-1.1,6.3-3.5,8.1-.9-.8-1.8-1.4-2.6-2v2.9h15v-2.5h-3.6C3114,196.9,3113,196,3113,194Zm-8.5,2.3a7,7,0,0,0,2.9-5.9h-2.9Zm6.1-8.9h2.4v-2.8h-2.4Zm8.9,3h-3.2v2.3a1.1,1.1,0,0,0,1.2,1.2h2Z"/><path class="cls-5" d="M3124.7,198.2a23.9,23.9,0,0,0,4-5.6h-3.5v-2.4l1-5h2.9l-.9,4.8h2v-6h-5v-2.6h9.5V184h-1.6v3.3a22,22,0,0,0,4.5-7.2l2.8.8a16.6,16.6,0,0,1-1.6,3.3h3.7a23.5,23.5,0,0,0-1.6-2.9l2.4-1.2a22,22,0,0,1,2.1,3.2l-1.8.9h4.9v2.6h-3.8v2.7h3.6V192h-3.6v2.7h3.6v2.5h-3.6V200h4.1v2.6h-10.5v1.6h-3V189.1l-.5.6a15.3,15.3,0,0,0-1.7-2.3V190h1.6v2.6h-1.6v8.6a2.6,2.6,0,0,1-.9,2.3,5.3,5.3,0,0,1-3.1.7h-1.5a20.5,20.5,0,0,0-.7-3.1l2.2.2c.8,0,1.1-.4,1.1-1.2v-5.2a23.1,23.1,0,0,1-4.2,6.6C3125.8,200.9,3125.4,199.8,3124.7,198.2Zm13.6-8.7h3.4v-2.7h-3.4Zm0,5.2h3.4V192h-3.4Zm0,5.3h3.4v-2.8h-3.4Z"/><path class="cls-5" d="M3150.8,204.2v-23h22v23h-3.4v-1h-15.2v1Zm7.9-20.1h-4.5v4.3A17,17,0,0,0,3158.7,184.1Zm-2.9,6.2-1.6-1.6v2.9a45.3,45.3,0,0,0,4.9-1.1l-1.7-1.5Zm.1,5.6c4.2.5,8.3,1.1,12,1.8l-.6,2.6h2.1v-8.7l-1.3,2.3a28.7,28.7,0,0,1-6.2-1.8l-2.9,1,7.9,1.1-.5,2.3-9-1.3.4-1.8-2.5.5-1.1-2.1v8.5h12.9c-3.3-.7-7.3-1.3-11.9-1.9Zm6-6.5a7.1,7.1,0,0,0,2.7-1.8h-5.2A8,8,0,0,0,3161.9,189.4Zm6.4-3.9v2a12.6,12.6,0,0,1-3.4,3,29.9,29.9,0,0,0,4.5.9v-7.3H3162l-.9,1.4Z"/><g class="cls-4"><path d="M3397.6,70.6a2.9,2.9,0,0,0-.7-1.8,3.2,3.2,0,0,0-2-.6,3.9,3.9,0,0,0-1.8.4,4.8,4.8,0,0,0-1.6,1.3V68.2a3.3,3.3,0,0,1,1.5-1.1,4.6,4.6,0,0,1,2.1-.4,4.5,4.5,0,0,1,3.1,1,3.5,3.5,0,0,1,1.2,2.8,5,5,0,0,1-.8,2.7,8.9,8.9,0,0,1-2.4,2.3,17.9,17.9,0,0,0-2.4,1.8,2.4,2.4,0,0,0-.8,1,2.1,2.1,0,0,0-.3,1.2h7.1v1.6h-8.9v-.7a5.8,5.8,0,0,1,.3-2.1,5.5,5.5,0,0,1,1.1-1.7,14.2,14.2,0,0,1,2.4-1.9,9.8,9.8,0,0,0,2.3-2.1A3.4,3.4,0,0,0,3397.6,70.6Z"/><path d="M3401.6,74.3a11,11,0,0,1,1.2-5.7,4.1,4.1,0,0,1,3.6-1.9q4.5,0,4.5,7.2a10.4,10.4,0,0,1-1.2,5.5,4.1,4.1,0,0,1-3.6,1.9,3.8,3.8,0,0,1-3.3-1.8A9.3,9.3,0,0,1,3401.6,74.3Zm1.8-.1c0,3.7,1,5.6,2.9,5.6s2.8-1.9,2.8-5.7-.9-5.9-2.8-5.9S3403.4,70.2,3403.4,74.2Z"/><path d="M3416.9,81.1V69a4.8,4.8,0,0,1-1.4.9l-1.8.7V68.9l2.4-1a12.2,12.2,0,0,0,1.9-1.3h.7V81.1Z"/><path d="M3424.4,79.1a4.5,4.5,0,0,0,2.5.7,3.2,3.2,0,0,0,2.9-1.5,7.2,7.2,0,0,0,1.1-4.2h0a3.5,3.5,0,0,1-3.2,1.7,3.8,3.8,0,0,1-2.9-1.2,4.4,4.4,0,0,1-1.2-3.2,4.5,4.5,0,0,1,1.3-3.4,4.2,4.2,0,0,1,3.3-1.3,3.8,3.8,0,0,1,3.3,1.6,8.2,8.2,0,0,1,1.2,4.9c0,2.6-.5,4.6-1.6,6a4.9,4.9,0,0,1-4.2,2.1,6.2,6.2,0,0,1-2.5-.5Zm1-7.9a3.9,3.9,0,0,0,.7,2.3,2.9,2.9,0,0,0,2.1.8,2.7,2.7,0,0,0,2.6-2.6,3.9,3.9,0,0,0-.8-2.5,2.2,2.2,0,0,0-1.9-1,2.6,2.6,0,0,0-1.9.8A3.3,3.3,0,0,0,3425.4,71.2Z"/><path d="M3434,77.3h2.9V72.1h6.5V68.9H3438a28,28,0,0,1-2.7,4l-1.1-1a18.6,18.6,0,0,0,3.8-6.5l1.5.4a8.9,8.9,0,0,1-.8,1.7h12.6v1.4h-6.4v3.2h6.1v1.3h-6.1v3.9h7.2v1.3h-7.2v5h-1.5v-5H3434Zm4.4,0h5V73.4h-5Z"/><path d="M3454,79.1a4.8,4.8,0,0,0,2.6.7,3.4,3.4,0,0,0,2.9-1.5,7.2,7.2,0,0,0,1.1-4.2h-.1a3.2,3.2,0,0,1-3.1,1.7,4.1,4.1,0,0,1-3-1.2,4.8,4.8,0,0,1-1.1-3.2,4.5,4.5,0,0,1,1.3-3.4,4.2,4.2,0,0,1,3.3-1.3,3.8,3.8,0,0,1,3.3,1.6c.8,1.1,1.1,2.7,1.1,4.9a10.2,10.2,0,0,1-1.5,6,4.9,4.9,0,0,1-4.2,2.1,6.7,6.7,0,0,1-2.6-.5Zm1.1-7.9a3.3,3.3,0,0,0,.7,2.3,2.8,2.8,0,0,0,2,.8,2.6,2.6,0,0,0,1.9-.8,2.5,2.5,0,0,0,.8-1.8,3.9,3.9,0,0,0-.8-2.5,2.3,2.3,0,0,0-2-1,2.7,2.7,0,0,0-1.9.8A3.2,3.2,0,0,0,3455.1,71.2Z"/><path d="M3468,77.3a12.6,12.6,0,0,1-2.7,6.4,6.9,6.9,0,0,0-1.3-1.1,9.7,9.7,0,0,0,2.4-4.6,25.8,25.8,0,0,0,.4-5.4V66.3H3479V80.5c0,1.8-.9,2.7-2.6,2.7h-2.8a10.4,10.4,0,0,0-.2-1.5h2.6a1.3,1.3,0,0,0,1.5-1.5v-3Zm.2-1.3h9.3V72.5h-9.2C3468.3,73.7,3468.2,74.9,3468.2,76Zm.1-8.3v3.4h9.2V67.7Z"/></g><g class="cls-4"><path d="M3687.6,70.6a2.9,2.9,0,0,0-.7-1.8,3.2,3.2,0,0,0-2-.6,3.9,3.9,0,0,0-1.8.4,4.8,4.8,0,0,0-1.6,1.3V68.2a3.3,3.3,0,0,1,1.5-1.1,4.6,4.6,0,0,1,2.1-.4,4.5,4.5,0,0,1,3.1,1,3.5,3.5,0,0,1,1.2,2.8,5,5,0,0,1-.8,2.7,8.9,8.9,0,0,1-2.4,2.3,17.9,17.9,0,0,0-2.4,1.8,2.4,2.4,0,0,0-.8,1,2.1,2.1,0,0,0-.3,1.2h7.1v1.6h-8.9v-.7a5.8,5.8,0,0,1,.3-2.1,5.5,5.5,0,0,1,1.1-1.7,14.2,14.2,0,0,1,2.4-1.9,9.8,9.8,0,0,0,2.3-2.1A3.4,3.4,0,0,0,3687.6,70.6Z"/><path d="M3691.6,74.3a11,11,0,0,1,1.2-5.7,4.1,4.1,0,0,1,3.6-1.9q4.5,0,4.5,7.2a10.4,10.4,0,0,1-1.2,5.5,4.1,4.1,0,0,1-3.6,1.9,3.8,3.8,0,0,1-3.3-1.8A9.3,9.3,0,0,1,3691.6,74.3Zm1.8-.1c0,3.7,1,5.6,2.9,5.6s2.8-1.9,2.8-5.7-.9-5.9-2.8-5.9S3693.4,70.2,3693.4,74.2Z"/><path d="M3706.9,81.1V69a4.8,4.8,0,0,1-1.4.9l-1.8.7V68.9l2.4-1a12.2,12.2,0,0,0,1.9-1.3h.7V81.1Z"/><path d="M3714.4,79.1a4.5,4.5,0,0,0,2.5.7,3.2,3.2,0,0,0,2.9-1.5,7.2,7.2,0,0,0,1.1-4.2h0a3.5,3.5,0,0,1-3.2,1.7,3.8,3.8,0,0,1-2.9-1.2,4.4,4.4,0,0,1-1.2-3.2,4.5,4.5,0,0,1,1.3-3.4,4.2,4.2,0,0,1,3.3-1.3,3.8,3.8,0,0,1,3.3,1.6,8.2,8.2,0,0,1,1.2,4.9c0,2.6-.5,4.6-1.6,6a4.9,4.9,0,0,1-4.2,2.1,6.2,6.2,0,0,1-2.5-.5Zm1-7.9a3.9,3.9,0,0,0,.7,2.3,2.9,2.9,0,0,0,2.1.8,2.7,2.7,0,0,0,2.6-2.6,3.9,3.9,0,0,0-.8-2.5,2.2,2.2,0,0,0-1.9-1,2.6,2.6,0,0,0-1.9.8A3.3,3.3,0,0,0,3715.4,71.2Z"/><path d="M3724,77.3h2.9V72.1h6.5V68.9H3728a28,28,0,0,1-2.7,4l-1.1-1a18.6,18.6,0,0,0,3.8-6.5l1.5.4a8.9,8.9,0,0,1-.8,1.7h12.6v1.4h-6.4v3.2h6.1v1.3h-6.1v3.9h7.2v1.3h-7.2v5h-1.5v-5H3724Zm4.4,0h5V73.4h-5Z"/><path d="M3744,79.1a4.8,4.8,0,0,0,2.6.7,3.4,3.4,0,0,0,2.9-1.5,7.2,7.2,0,0,0,1.1-4.2h-.1a3.2,3.2,0,0,1-3.1,1.7,4.1,4.1,0,0,1-3-1.2,4.8,4.8,0,0,1-1.1-3.2,4.5,4.5,0,0,1,1.3-3.4,4.2,4.2,0,0,1,3.3-1.3,3.8,3.8,0,0,1,3.3,1.6c.8,1.1,1.1,2.7,1.1,4.9a10.2,10.2,0,0,1-1.5,6,4.9,4.9,0,0,1-4.2,2.1,6.7,6.7,0,0,1-2.6-.5Zm1.1-7.9a3.3,3.3,0,0,0,.7,2.3,2.8,2.8,0,0,0,2,.8,2.6,2.6,0,0,0,1.9-.8,2.5,2.5,0,0,0,.8-1.8,3.9,3.9,0,0,0-.8-2.5,2.3,2.3,0,0,0-2-1,2.7,2.7,0,0,0-1.9.8A3.2,3.2,0,0,0,3745.1,71.2Z"/><path d="M3758,77.3a12.6,12.6,0,0,1-2.7,6.4,6.9,6.9,0,0,0-1.3-1.1,9.7,9.7,0,0,0,2.4-4.6,25.8,25.8,0,0,0,.4-5.4V66.3H3769V80.5c0,1.8-.9,2.7-2.6,2.7h-2.8a10.4,10.4,0,0,0-.2-1.5h2.6a1.3,1.3,0,0,0,1.5-1.5v-3Zm.2-1.3h9.3V72.5h-9.2C3758.3,73.7,3758.2,74.9,3758.2,76Zm.1-8.3v3.4h9.2V67.7Z"/></g><path class="cls-5" d="M3325.2,150.3h3.4l-.9,1.6h6.1v2.2a16,16,0,0,0,2.3-3.8h3.3a11.1,11.1,0,0,1-.7,1.6h6.5v2.3H3341a10.3,10.3,0,0,1,1.5,1.4l-1.5,1.2h2.7v6.7h-8.5V165h9.6c-.1,3.9-.3,6.1-.7,6.6l-1.3,1.2c-.5.3-2.4.4-5.8.4a17.1,17.1,0,0,0-.9-3h3.4l1.2-.2a1.6,1.6,0,0,0,.6-.8,13,13,0,0,0,.2-1.7h-6.3v6.7h-3.3v-6a23.3,23.3,0,0,1-8.8,5.8l-1.9-2.9a24.2,24.2,0,0,0,7.2-3.6h-5.8l1.2-6.7h8.1v-1.5h-8.4v-2.1l-.6.5c-.6-.7-1.2-1.5-1.9-2.2A15.9,15.9,0,0,0,3325.2,150.3Zm2.1,4.7,1-.8h-2.1a13.8,13.8,0,0,1-2.2,2.6h5.1Zm-1,10h5.6v-1.5h-5.3Zm3.7-10.8a12.9,12.9,0,0,1,1.7,1.6l-1.3,1h5.1l-2.5-1.7.7-.9Zm10.4,6.7v-1.5h-5.2v1.5Zm-4.8-4.1h4.5a16.6,16.6,0,0,0-1.9-1.8l.9-.8h-1.6A17.4,17.4,0,0,1,3335.6,156.8Z"/><path class="cls-5" d="M3346.5,160.5H3370v3.6h-23.5Z"/><path class="cls-5" d="M3373.4,151.3h20.5v7.6h-17.1a45.3,45.3,0,0,1-.8,10,21.7,21.7,0,0,1-2.2,5.3l-2.7-2.9a14.2,14.2,0,0,0,1.6-3.7,36.7,36.7,0,0,0,.7-8.4Zm17.1,4.8v-2h-13.7v2Zm-13.1,18.3V161h6.6v-1.7h3.3V161h6.6v13.4h-3.2v-1.2h-10.1v1.2Zm3.2-8.6h3.4v-2.2h-3.4Zm0,4.7h3.4v-2.2h-3.4Zm10.1-6.9h-3.4v2.2h3.4Zm-3.4,6.9h3.4v-2.2h-3.4Z"/><path class="cls-5" d="M3414.5,171.1h-4.1l-8-12.2-.9-1.6h0c0,.7.1,1.7.1,3v10.8h-3.8V152.2h4.3l7.7,11.9,1,1.5h0a17.1,17.1,0,0,1-.1-2.6V152.2h3.8Z"/><path class="cls-5" d="M3430,171.1h-11.1V152.2h10.7v3.3h-6.7v4.4h6.2v3.3h-6.2v4.6h7.1Z"/><path class="cls-5" d="M3431.9,161.9a10.1,10.1,0,0,1,2.6-7.2,8.9,8.9,0,0,1,6.9-2.8,8.6,8.6,0,0,1,6.5,2.7,11.2,11.2,0,0,1-.1,14,9.4,9.4,0,0,1-13.3.1A9.3,9.3,0,0,1,3431.9,161.9Zm4.3-.2a7.3,7.3,0,0,0,1.3,4.5,4.5,4.5,0,0,0,3.6,1.7,4.3,4.3,0,0,0,3.7-1.7,6.9,6.9,0,0,0,1.3-4.5,7.2,7.2,0,0,0-1.3-4.6,4.2,4.2,0,0,0-3.6-1.7,4.7,4.7,0,0,0-3.7,1.7A7.4,7.4,0,0,0,3436.2,161.7Z"/><path class="cls-5" d="M3456.9,150.2l2.4,3.2-2.5,1.4h3.7v2.7a35,35,0,0,1-2.4,4.2v1l1.4-1.1,3.1,3-2.4,1.9-2.1-2.5v10.2h-3.3v-8.3a22.8,22.8,0,0,1-2.2,2.2c-.3-1.6-.6-2.9-.9-4a21.2,21.2,0,0,0,4.9-6.1H3452v-3.2h4.1a37.1,37.1,0,0,0-2-3.2Zm3.1,20.1h6.5v-10h-4.9v-3.1h4.9v-6.6h3.5v6.6h5v3.1h-5v10h5.8v3.1H3460Z"/><path class="cls-5" d="M3481.5,170h18.9v3.3h-22.3V151.7h21.6V155h-18.2Zm1-12.3,2.3-2.3,5.4,4.6a38.1,38.1,0,0,0,3.9-4.9l3,2c-1.4,1.9-2.8,3.6-4.3,5.3l5.4,5-2.8,2.5-5.1-5a54.7,54.7,0,0,1-5.8,5,35.1,35.1,0,0,0-2.4-2.6,65.7,65.7,0,0,0,5.7-4.8Z"/><path class="cls-5" d="M3502,156.6h9.6c.1-1.8.1-3.9.1-6.2h3.7c0,2.4-.1,4.5-.2,6.2h10.1v3.3h-9.8a14.7,14.7,0,0,0,10.1,10.9c-1.2,1.3-2.1,2.5-2.8,3.4a17.4,17.4,0,0,1-9.2-10q-2.1,6.3-9.3,10.2l-2.8-3.2c5.9-2.6,9.1-6.4,9.7-11.3H3502Z"/><path class="cls-5" d="M3541.2,150.4l-.7.8c2.1,3.1,5.4,5.7,10.1,7.8-.9,1.1-1.6,2-2.2,2.9a27.7,27.7,0,0,1-3.4-2v1.6h-13v-1.8l-3.4,2.2c-.5-.7-1.2-1.7-2.2-2.9,5.3-2.8,8.8-5.7,10.6-8.6Zm-13.9,13.2h22.4v3h-6.1l5,6.3-3,1.8-1.1-1.6-11.6.6-2.5.3-1.5-2.9a21,21,0,0,0,4.4-4.5h-6Zm11.2-9.7a27.6,27.6,0,0,1-4.9,4.6h9.5A28.6,28.6,0,0,1,3538.5,153.9Zm2.1,14,2.1-1.3h-5.1c-.9,1.1-1.9,2.3-3.2,3.7l7.9-.2Z"/><path class="cls-5" d="M3411.7,199.5h9V180.4h4v6.7h9v3.5h-9v8.9h10.6V203h-23.6Z"/><path class="cls-5" d="M3438.3,186.8a45,45,0,0,1,3.8,3l-2.2,2.6-3.6-3.3Zm.8,7.2,3.2,1.1c-.8,2.8-1.5,5.8-2.3,9l-3.2-1C3437.6,200.5,3438.4,197.4,3439.1,194Zm-.1-13.7a35.2,35.2,0,0,1,3.9,3.1l-2.2,2.5a31.6,31.6,0,0,0-3.8-3.4Zm2.7,11.9h2.2l.4-3.9-1.1,1.2-2-2.6a25,25,0,0,0,4.9-6.7l3.4.4-.7,1.5h11.1v2.6h-12.7l-1.2,1.6h12.6v5.9h1.9v2.5h-2V198h1.8v2.5h-1.9a4,4,0,0,1-.8,2.6,3.1,3.1,0,0,1-2,.8l-5.3.2-.7-2.5h3.7l1.2-.2c.4-.1.6-.4.6-1h-11.8l.5-5.8h-2Zm6.9,3.9,1.5-1.4h-3.2l-.3,3.3h4.5Zm.1-5.9,1.4-1.4h-2.6l-.4,3.4h4.2Zm4.8,6.4-1.4,1.4h3v-3.3h-4.4Zm.1-6-1.6,1.6h3.2v-3.4h-4.5Z"/><path class="cls-5" d="M3619.9,171.1h-4.1l-8-12.2-.9-1.6h0a24.5,24.5,0,0,1,.1,3v10.8h-3.8V152.2h4.4l7.6,11.9a11.7,11.7,0,0,1,1,1.5h0c0-.5-.1-1.4-.1-2.6V152.2h3.8Z"/><path class="cls-5" d="M3635.5,171.1h-11.2V152.2H3635v3.3h-6.7v4.4h6.2v3.3h-6.2v4.6h7.2Z"/><path class="cls-5" d="M3637.4,161.9a10,10,0,0,1,2.5-7.2,8.9,8.9,0,0,1,6.9-2.8,8.5,8.5,0,0,1,6.5,2.7,11.2,11.2,0,0,1-.1,14,9.4,9.4,0,0,1-13.3.1A9.2,9.2,0,0,1,3637.4,161.9Zm4.2-.2a7.3,7.3,0,0,0,1.3,4.5,4.5,4.5,0,0,0,3.6,1.7,4.3,4.3,0,0,0,3.7-1.7,6.9,6.9,0,0,0,1.3-4.5,7.8,7.8,0,0,0-1.2-4.6,4.5,4.5,0,0,0-3.6-1.7,4.7,4.7,0,0,0-3.8,1.7A7.4,7.4,0,0,0,3641.6,161.7Z"/><path class="cls-5" d="M3658.7,167a7.2,7.2,0,0,0,4.4,1.4,4.6,4.6,0,0,0,2.5-.7,2.5,2.5,0,0,0,.9-2,2.3,2.3,0,0,0-1.1-2.1,5.5,5.5,0,0,0-3.1-.7h-1.7v-3h1.6c2.5,0,3.8-.9,3.8-2.6s-1-2.4-2.9-2.4a6,6,0,0,0-3.7,1.3v-3.3a9.5,9.5,0,0,1,4.6-1,7.3,7.3,0,0,1,4.3,1.2,4.3,4.3,0,0,1,1.7,3.5,4.4,4.4,0,0,1-3.8,4.6h0a5,5,0,0,1,3.2,1.4,4,4,0,0,1,1.1,3,5,5,0,0,1-1.9,4.2,8.6,8.6,0,0,1-5.3,1.5,8.7,8.7,0,0,1-4.6-1Z"/><path class="cls-5" d="M3685.7,164.5v6.6h-4V152.2h6.5c4.7,0,7,2,7,6a5.6,5.6,0,0,1-2.1,4.6,7.9,7.9,0,0,1-5.3,1.7Zm0-9.2v6.1h1.7c2.4,0,3.6-1,3.6-3.1s-1.2-3-3.5-3Z"/><path class="cls-5" d="M3706.2,161.2a2.9,2.9,0,0,0-1.7-.4,2.4,2.4,0,0,0-2.1,1,4.7,4.7,0,0,0-.8,2.8v6.5h-3.9V157.6h3.9v2.5h0a3.7,3.7,0,0,1,3.6-2.7h1Z"/><path class="cls-5" d="M3720,165.4h-8.8c.1,2.1,1.4,3.2,3.8,3.2a7.7,7.7,0,0,0,3.9-1.1v2.9a10.7,10.7,0,0,1-4.8,1,6.7,6.7,0,0,1-5-1.8,6.9,6.9,0,0,1-1.8-5.1,7.1,7.1,0,0,1,1.9-5.2,6.4,6.4,0,0,1,4.8-2,5.7,5.7,0,0,1,4.4,1.7,6.8,6.8,0,0,1,1.6,4.8Zm-3.6-2.4c0-2-.8-3-2.5-3a2.4,2.4,0,0,0-1.8.8,3.7,3.7,0,0,0-.9,2.2Z"/><path class="cls-5" d="M3735.2,157.6l-5.1,13.5h-4.4l-4.8-13.5h4.2l2.4,8.5a8,8,0,0,1,.5,2.3h.1a12.4,12.4,0,0,1,.4-2.3l2.5-8.5Z"/><path class="cls-5" d="M3736.6,153.3a2,2,0,0,1,.6-1.5,2.5,2.5,0,0,1,1.7-.6,2.1,2.1,0,0,1,1.6.6,1.8,1.8,0,0,1,.7,1.5,1.5,1.5,0,0,1-.7,1.4,2.3,2.3,0,0,1-1.6.6,2.1,2.1,0,0,1-1.6-.6A1.6,1.6,0,0,1,3736.6,153.3Zm.3,17.8V157.6h3.9v13.5Z"/><path class="cls-5" d="M3756.3,165.4h-8.9c.2,2.1,1.4,3.2,3.8,3.2a7.1,7.1,0,0,0,3.9-1.1v2.9a10.7,10.7,0,0,1-4.8,1,6.8,6.8,0,0,1-5-1.8,6.9,6.9,0,0,1-1.8-5.1,7.5,7.5,0,0,1,1.9-5.2,6.6,6.6,0,0,1,4.8-2,6.1,6.1,0,0,1,4.5,1.7,7.3,7.3,0,0,1,1.6,4.8Zm-3.7-2.4q0-3-2.4-3a2.2,2.2,0,0,0-1.8.8,3.8,3.8,0,0,0-1,2.2Z"/><path class="cls-5" d="M3778,157.6l-3.9,13.5H3770l-2.1-8.1a9.9,9.9,0,0,1-.2-1.7h-.1a6.3,6.3,0,0,1-.2,1.6l-2.3,8.2h-4l-3.9-13.5h4.1l1.9,8.9a6.1,6.1,0,0,1,.2,1.5h.1a6.1,6.1,0,0,1,.2-1.5l2.4-8.9h3.8l2.1,8.9a13.9,13.9,0,0,1,.2,1.5h.1a10.4,10.4,0,0,1,.2-1.5l1.9-8.9Z"/><path class="cls-5" d="M3788.8,151.8v19.3h-3.9V156.2a7.6,7.6,0,0,1-2,1.2l-2.4.6v-3.4a16.5,16.5,0,0,0,5.8-2.8Z"/><path class="cls-5" d="M3823,163a18.7,18.7,0,0,1-4.8,5.7,30.9,30.9,0,0,0,7.4,2l-2.1,3.5a24.6,24.6,0,0,1-8.4-3.3,39.5,39.5,0,0,1-8.5,3.6l-1.8-3.2a44.5,44.5,0,0,0,7.3-2.6,19.5,19.5,0,0,1-3.2-3.8,34.7,34.7,0,0,1-6.5,7.6,34.4,34.4,0,0,0-1.1-4.1,28,28,0,0,0,7.1-10.3h-6.1v-2.9a25.8,25.8,0,0,0,1.2-4.2l3.3.4c-.2,1-.5,2.2-.9,3.7h3.5l1.1-4.8,3.5.3-1,4.5h6.8l-2.8-2.7,2.1-2a48.4,48.4,0,0,1,3.8,3.2l-1.5,1.5h4.1v3h-13.4l-.9,2.2H3823Zm-8,4a18.3,18.3,0,0,0,4-3.8h-7.4A15.2,15.2,0,0,0,3815,167Z"/><path class="cls-5" d="M3841.2,174.3h-3.4V163.1h-3.9v9.4h-3.3v-7.8l-3.1,3c-.4-1.4-.8-2.5-1.1-3.4a31.3,31.3,0,0,0,6.2-7.7h-5.9v-3.2h7.5c.4-1,.8-2,1.1-3l3.4.4a27.7,27.7,0,0,1-1,2.6h12.5v3.2h-13.9c-.7,1.3-1.4,2.5-2.2,3.7h3.7v-3.1h3.4v3.1h7.3v7.9a3.6,3.6,0,0,1-.7,2.4,2.5,2.5,0,0,1-1.7,1.1l-3.4.2c-.2-1.3-.4-2.4-.6-3.2h1.5c1,0,1.6-.6,1.6-1.8v-3.9h-4Z"/><g class="cls-4"><path d="M3970.8,70.6a2.4,2.4,0,0,0-.7-1.8,2.9,2.9,0,0,0-1.9-.6,3.9,3.9,0,0,0-1.8.4,5.2,5.2,0,0,0-1.7,1.3V68.2a4.2,4.2,0,0,1,1.6-1.1,4.6,4.6,0,0,1,2.1-.4,4.2,4.2,0,0,1,3,1,3.5,3.5,0,0,1,1.2,2.8,5,5,0,0,1-.7,2.7,9.5,9.5,0,0,1-2.5,2.3l-2.3,1.8a4.1,4.1,0,0,0-.9,1,3.7,3.7,0,0,0-.2,1.2h7v1.6h-8.9v-.7a5.6,5.6,0,0,1,.4-2.1,5.5,5.5,0,0,1,1.1-1.7,14.2,14.2,0,0,1,2.4-1.9,8.9,8.9,0,0,0,2.2-2.1A3.4,3.4,0,0,0,3970.8,70.6Z"/><path d="M3974.8,74.3a10.9,10.9,0,0,1,1.3-5.7,3.9,3.9,0,0,1,3.6-1.9q4.5,0,4.5,7.2a9.5,9.5,0,0,1-1.3,5.5,3.9,3.9,0,0,1-3.5,1.9,3.8,3.8,0,0,1-3.4-1.8A9.3,9.3,0,0,1,3974.8,74.3Zm1.9-.1c0,3.7.9,5.6,2.8,5.6s2.8-1.9,2.8-5.7-.9-5.9-2.7-5.9S3976.7,70.2,3976.7,74.2Z"/><path d="M3990.2,81.1V69l-1.4.9a8.9,8.9,0,0,1-1.9.7V68.9a12.2,12.2,0,0,0,2.4-1l2-1.3h.7V81.1Z"/><path d="M3997.6,79.1a4.8,4.8,0,0,0,2.6.7,3.4,3.4,0,0,0,2.9-1.5,7.2,7.2,0,0,0,1.1-4.2h-.1a3.2,3.2,0,0,1-3.1,1.7,4.1,4.1,0,0,1-3-1.2,4.8,4.8,0,0,1-1.1-3.2,4.9,4.9,0,0,1,1.2-3.4,4.5,4.5,0,0,1,3.4-1.3,3.8,3.8,0,0,1,3.3,1.6,9.1,9.1,0,0,1,1.1,4.9,10.2,10.2,0,0,1-1.5,6,4.9,4.9,0,0,1-4.2,2.1,6.7,6.7,0,0,1-2.6-.5Zm1.1-7.9a3.3,3.3,0,0,0,.7,2.3,2.8,2.8,0,0,0,2,.8,2.6,2.6,0,0,0,1.9-.8,2.5,2.5,0,0,0,.8-1.8,3.9,3.9,0,0,0-.8-2.5,2.3,2.3,0,0,0-2-1,2.7,2.7,0,0,0-1.9.8A3.2,3.2,0,0,0,3998.7,71.2Z"/><path d="M4007.3,77.3h2.9V72.1h6.5V68.9h-5.4a22.1,22.1,0,0,1-2.8,4l-1.1-1a20.5,20.5,0,0,0,3.9-6.5l1.5.4c-.3.6-.5,1.2-.8,1.7h12.6v1.4h-6.4v3.2h6.1v1.3h-6.1v3.9h7.2v1.3h-7.2v5h-1.5v-5h-9.4Zm4.3,0h5.1V73.4h-5.1Z"/><path d="M4030.8,81.1V69a6.8,6.8,0,0,1-1.4.9l-1.8.7V68.9l2.4-1a12.2,12.2,0,0,0,1.9-1.3h.7V81.1Z"/><path d="M4037.4,74.3a11,11,0,0,1,1.2-5.7,4.1,4.1,0,0,1,3.6-1.9q4.5,0,4.5,7.2a10.4,10.4,0,0,1-1.2,5.5,4.1,4.1,0,0,1-3.6,1.9,3.8,3.8,0,0,1-3.3-1.8A9.3,9.3,0,0,1,4037.4,74.3Zm1.8-.1c0,3.7,1,5.6,2.9,5.6s2.8-1.9,2.8-5.7-.9-5.9-2.8-5.9S4039.2,70.2,4039.2,74.2Z"/><path d="M4052.2,77.3a11.8,11.8,0,0,1-2.7,6.4,6.9,6.9,0,0,0-1.3-1.1,9.7,9.7,0,0,0,2.4-4.6,25.8,25.8,0,0,0,.4-5.4V66.3h12.2V80.5c0,1.8-.8,2.7-2.6,2.7h-2.7q-.2-.6-.3-1.5h2.6a1.3,1.3,0,0,0,1.5-1.5v-3Zm.2-1.3h9.3V72.5h-9.2C4052.5,73.7,4052.5,74.9,4052.4,76Zm.1-8.3v3.4h9.2V67.7Z"/></g><path class="cls-5" d="M3920.4,171.1h-4.1l-8-12.2-.9-1.6h0a24.5,24.5,0,0,1,.1,3v10.8h-3.8V152.2h4.4l7.7,11.9.9,1.5h0c0-.5-.1-1.4-.1-2.6V152.2h3.8Z"/><path class="cls-5" d="M3936.4,165.4h-8.9c.1,2.1,1.4,3.2,3.8,3.2a7.1,7.1,0,0,0,3.9-1.1v2.9a10.7,10.7,0,0,1-4.8,1,6.8,6.8,0,0,1-5-1.8,6.9,6.9,0,0,1-1.8-5.1,7.5,7.5,0,0,1,1.9-5.2,6.6,6.6,0,0,1,4.8-2,5.7,5.7,0,0,1,4.4,1.7,6.9,6.9,0,0,1,1.7,4.8Zm-3.7-2.4q0-3-2.4-3a2.2,2.2,0,0,0-1.8.8,3.8,3.8,0,0,0-1,2.2Z"/><path class="cls-5" d="M3938.1,164.4a6.9,6.9,0,0,1,2-5.2,7.2,7.2,0,0,1,5.3-1.9,7.3,7.3,0,0,1,5.2,1.8,6.9,6.9,0,0,1,1.9,5.1,6.6,6.6,0,0,1-2,5.2,8,8,0,0,1-10.5.1A6.9,6.9,0,0,1,3938.1,164.4Zm4-.1c0,2.7,1.1,4.1,3.3,4.1s3.1-1.4,3.1-4.2-1-3.9-3.2-3.9a3,3,0,0,0-2.4,1.1A5,5,0,0,0,3942.1,164.3Z"/><path class="cls-5" d="M3954,170.1h10.1v-4.5h-7.5v-3.2h7.5V158h-8.7v-3.2h9.5l-1.9-3.2,3.4-1.5q1,1.7,2.1,3.6l-2.3,1.1h10.3V158h-8.7v4.4h7.6v3.2h-7.6v4.5h10.1v3.3H3954Z"/><path class="cls-5" d="M3985.3,155.3l2.2,4.4,1.8-4.6,1.6.8,1.3-.6,2,4.3c.6-1.5,1.2-3,1.7-4.6l2.7,1.2c-.8,2.4-1.8,4.7-2.7,7l2.5,5.7-2.7,1.3-1.5-3.5c-.8,1.5-1.6,3-2.5,4.5l-1.1-.8-1.3.6-1.9-4.5c-.9,1.8-1.9,3.4-2.9,5a10,10,0,0,0-1.5-1.3v4h-3.2V151.3h22.1V170a5.9,5.9,0,0,1-.7,2.9,3.2,3.2,0,0,1-2,1.2h-4.9c-.2-1.3-.5-2.4-.7-3.4l3.5.2a1.3,1.3,0,0,0,1.5-1.5V154.3H3983v2.2Zm-2.3,1.6V168a47,47,0,0,0,2.9-5C3984.9,160.9,3984,158.9,3983,156.9Zm7.9,2.1q-.9,2.3-1.8,4.2l1.7,3.6c.6-1.2,1.3-2.4,1.9-3.7Z"/><path class="cls-5" d="M4004,169.7h9V150.5h4v6.8h9v3.4h-9v9h10.5v3.4H4004Z"/><path class="cls-5" d="M4029.1,173.1l-.7-3.4,9-1.3c0,.5-.1,1.1-.1,1.7a27.1,27.1,0,0,0,5.2-2.2,29.8,29.8,0,0,1-.8-4.1l-4.1.5-.4-2.9,4.2-.5-.2-2.5-3.2.4v-1.3c-1.7,2.7-3.1,4.9-4.4,6.6l3.6-.5c-.1.6-.1,1.6-.2,3a54.7,54.7,0,0,0-7,1.2l-.9-2.8a28.8,28.8,0,0,0,3.4-4.2l-3.1.3-.9-2.8c1.4-1.6,2.8-4.3,4.4-7.9l3.1,1.2c-1.4,2.5-2.7,4.6-3.8,6.4h2a25.5,25.5,0,0,0,1.4-2.4l2.3,1.1v-.8l3.3-.3-.2-5.1h3.3c0,1.7.1,3.2.2,4.8l4.2-.5-3.4-2.2,1.6-2.1,3.9,2.3-1.4,2,2.3-.3.3,3-7.4.7.2,2.4,7.5-.9.4,2.9-3,.4,2.2,1.7a35.7,35.7,0,0,1-5.1,4.5c.7,1,1.3,1.6,1.8,1.6a.9.9,0,0,0,.8-.6c.1-.4.4-1.4.7-3.1l2.9,1.4a16.8,16.8,0,0,1-1.9,4.9,2.6,2.6,0,0,1-2.1,1c-2.1,0-3.7-1.1-5-3.5a33.8,33.8,0,0,1-6.2,2.6,11.9,11.9,0,0,0-.8-1.6Zm20.1-10.2-4.2.5a18.6,18.6,0,0,0,.5,2.7A18.9,18.9,0,0,0,4049.2,162.9Z"/><path class="cls-5" d="M4053.8,169.2h23.5v3.6h-23.5Zm1.5-16.8h20.4V156h-20.4Zm1.1,8.2h18.2v3.5h-18.2Z"/><path class="cls-5" d="M4084.4,159.8h4.9v-1.7h-4.2v-2.3h4.2v-1.7h-5.5v8.2c0,5.3-1,9.4-2.9,12.3a20.9,20.9,0,0,0-2.8-2.4c1.6-2.2,2.3-5.6,2.3-10.2V151.3h20.8v17.9a6,6,0,0,1-.9,3.6,3.2,3.2,0,0,1-2.7,1.2h-3.8c-.2-1.2-.5-2.3-.7-3.3h2.5c1.1,0,1.8-.2,2-.6a2.8,2.8,0,0,0,.3-1.3V154.1h-5.5v1.7h4.2v2.3h-4.2v1.7h4.8v2.4h-12.8Zm1.2,3.8H4096v6.5h-7.3v1.2h-3.1Zm7.3,4.3v-2h-4.2v2Z"/><path class="cls-5" d="M4125.5,159.2v3h-6.9v3.9h8.6v3.1h-8.6v5.1h-3.5v-5.1h-11.5v-3.1h3.4v-6l-1.4,1.4a25.8,25.8,0,0,0-2.2-3.1,19.6,19.6,0,0,0,5.7-8.2l3.8.6-.9,2.1h14.5v3h-7.9v3.3Zm-17.7,0h7.3v-3.3h-4.9A25.2,25.2,0,0,1,4107.8,159.2Zm2.6,6.9h4.7v-3.9h-4.7Z"/><g class="cls-2"><rect class="cls-3" x="3712" y="101.5" width="28" height="28"/></g><rect class="cls-3" x="3719" y="108.5" width="14" height="14"/></svg>