<svg enable-background="new 0 0 300 1007" viewBox="0 0 300 1007" xmlns="http://www.w3.org/2000/svg"><g opacity=".38"><path d="m59.6 73.7c0-.5-.2-.9-.5-1.2s-.7-.4-1.3-.4c-.4 0-.8.1-1.1.3s-.7.5-1.1.8v-1.1c.3-.3.6-.5 1-.7s.8-.2 1.3-.2c.8 0 1.5.2 2 .7s.8 1 .8 1.8c0 .7-.2 1.2-.5 1.7s-.8 1-1.6 1.5-1.3.9-1.5 1.1-.4.4-.5.7-.2.5-.2.8h4.6v1h-5.7v-.4c0-.5.1-1 .2-1.3s.4-.7.7-1.1.8-.8 1.5-1.2c.7-.5 1.2-.9 1.5-1.3s.4-1 .4-1.5z"/><path d="m62.1 76c0-1.6.3-2.8.8-3.6s1.3-1.2 2.3-1.2c1.9 0 2.9 1.6 2.9 4.7 0 1.5-.3 2.7-.8 3.5s-1.3 1.1-2.3 1.1c-.9 0-1.6-.4-2.1-1.2s-.8-1.8-.8-3.3zm1.2 0c0 2.4.6 3.6 1.8 3.6s1.8-1.2 1.8-3.7-.6-3.8-1.8-3.8-1.8 1.3-1.8 3.9z"/><path d="m72 80.4v-7.8c-.2.2-.5.4-.9.6s-.8.4-1.2.5v-1.1c.5-.1 1-.3 1.5-.6s1-.6 1.3-.8h.4v9.3z"/><path d="m81.1 71.3v6h1.4v.9h-1.4v2.1h-1.1v-2.1h-4.2v-.9c.8-.8 1.5-1.8 2.3-2.9s1.4-2.1 1.9-3.1zm-4 6h2.9v-4.3c-.4.7-.8 1.4-1.3 2.1s-1 1.4-1.6 2.2z"/><path d="m82.9 78h1.9v-3.3h4.2v-2.1h-3.4c-.5.9-1.1 1.8-1.8 2.6-.2-.2-.4-.4-.7-.7 1.1-1.2 1.9-2.7 2.5-4.2l1 .3c-.2.4-.3.8-.5 1.1h7.9v.8h-4.1v2.1h3.9v.8h-3.9v2.6h4.6v.8h-4.6v3.2h-.9v-3.2h-6zm2.9 0h3.2v-2.5h-3.2z"/><path d="m100.7 72.5c-.5-.2-1-.4-1.5-.4-.8 0-1.4.3-1.9 1s-.7 1.6-.7 2.8c.4-.8 1.1-1.2 2.1-1.2.8 0 1.4.3 1.9.8s.7 1.2.7 2c0 .9-.3 1.6-.8 2.2s-1.2.9-2.1.9-1.6-.4-2.2-1.1-.8-1.7-.8-3.1c0-1.6.3-2.9 1-3.8s1.6-1.4 2.7-1.4c.6 0 1.2.1 1.5.3zm-4 4.9c0 .6.2 1.1.5 1.5s.7.6 1.3.6c.5 0 .9-.2 1.2-.6s.5-.8.5-1.4-.2-1.1-.4-1.5-.7-.5-1.3-.5c-.5 0-.9.2-1.2.5s-.6.9-.6 1.4z"/><path d="m104.8 78c-.2 1.5-.8 2.9-1.8 4.1-.2-.2-.5-.5-.8-.7.8-.8 1.3-1.8 1.5-2.9.2-.8.3-2 .3-3.5v-4.1h7.8v9.1c0 1.2-.6 1.7-1.7 1.7-.5 0-1.1 0-1.8 0 0-.3-.1-.6-.2-1 .7.1 1.3.1 1.7.1.6 0 .9-.3.9-.9v-1.9zm.1-.9h6v-2.2h-5.9c-.1.7-.1 1.5-.1 2.2zm0-5.3v2.2h5.9v-2.2z"/></g><path d="m56.6 93.4 1.8.4c-.6 2.1-1.2 4-1.8 5.8l-1.7-.7c.6-1.8 1.2-3.6 1.7-5.5zm3.2-2.5h1.8v8.9c0 .8-.1 1.3-.4 1.7s-.5.6-.9.7-1.2.1-2.6.1c-.1-.7-.3-1.3-.4-1.8.6.1 1.2.1 1.6.1.5 0 .8-.3.8-1 .1-.1.1-8.7.1-8.7zm4.5 2.5c.7 1.7 1.5 3.5 2.2 5.4l-1.8.7c-.6-2-1.3-3.9-2-5.6z" fill="#1b1b1b"/><path d="m78.2 92.1c-.3 2.7-1 4.9-2.1 6.7.7.8 1.5 1.5 2.4 1.9-.2.2-.4.8-.9 1.7-1-.5-1.9-1.2-2.6-2.1-.8.9-1.8 1.6-2.8 2.2-.1-.3-.3-.5-.4-.8l-.5.1c-.1-.2-.1-.5-.1-.7-1 .2-2.4.5-4.1.8l-.3-1.6c.7-.1 1.4-.2 2-.3v-2.2h-.6v.6h-1.1v-5.9h1.6v-1.8h1.3v1.8h1.6v5.3h-1.6v1.9c.2 0 .5-.1.7-.1-.1-.4-.2-.7-.3-1l1.1-.3c.1.4.3 1.1.5 1.9.7-.5 1.3-1 1.8-1.6-1-1.7-1.7-3.9-2-6.5l1.5-.3c.3 2.1.8 3.9 1.6 5.3.8-1.5 1.4-3.3 1.6-5.4zm-10 4.5h.6v-2.7h-.6zm2.5 0v-2.7h-.6v2.7zm4.3-5.9c.4.9.7 1.8 1 2.7l-1.4.5c-.4-1.2-.7-2.1-.9-2.8z" fill="#1b1b1b"/><path d="m79.1 100.9-.3-1.8 1.2-.3v-5.8h-1.1v-1.6h3.8v1.6h-1.1v5.4c.4-.1.8-.2 1.2-.3v1.8c-1.4.4-2.6.7-3.7 1zm6.7-5h1.6c0 1-.2 1.9-.4 2.7 1.2.7 2.4 1.5 3.6 2.4l-1 1.3c-.8-.7-1.9-1.5-3.2-2.4-.7 1.1-1.8 1.9-3.4 2.5-.3-.6-.6-1.1-.9-1.6 1.4-.3 2.4-.9 3-1.7s.7-1.8.7-3.2zm-2.6-4.7h7.1v1.4h-3.1l-.2 1.1h2.8v5.4h-1.6v-3.9h-3.6v4h-1.6v-5.4h2.1l.2-1.1h-2.2z" fill="#1b1b1b"/><path d="m92 102.3v-10.8h9.2v10.8h-1.7v-.8h-5.9v.8zm7.5-9.3h-5.9v1.3h5.9zm-5.9 4.1h5.9v-1.3h-5.9zm0 2.9h5.9v-1.4h-5.9z" fill="#1b1b1b"/><path d="m103.9 92h4c-.1-.3-.2-.6-.3-.9l1.8-.4c.2.4.3.8.5 1.2h3.8v4.2h-8.2c0 2.6-.5 4.6-1.5 6.1-.3-.4-.7-.8-1.2-1.4.8-1.3 1.1-2.9 1.1-4.9zm8.1 2.7v-1.3h-6.6v1.3zm-6.2 7.6v-5h7.7v5h-1.5v-.6h-4.6v.6zm6.2-3.6h-4.6v1.5h4.6z" fill="#1b1b1b"/><path d="m119.2 96.7 1.2 2.9c.5-1 .8-2.7.8-5.3h-1.2v-1.6h1.2v-2h1.6v2h3.1l-.1 6.6c0 .9-.1 1.4-.1 1.7s-.2.4-.3.6-.4.3-.6.4-1 .1-2.1.1c-.1-.6-.3-1.2-.4-1.8.5 0 .9.1 1.3.1.2 0 .4 0 .5-.1s.2-.2.2-.4.1-.8.1-1.8.1-2.3.1-3.8h-1.5c0 1.7-.1 3-.2 3.7s-.3 1.5-.7 2.3-.8 1.4-1.3 2.1c-.4-.3-.9-.7-1.4-1 .2-.2.4-.5.6-.7l-3.2.3c-.5.1-.9.1-1.1.2l-.7-1.4c.4-.3.9-1.6 1.5-3.7h-1.5v-1.5h5.4v1.5h-2.4c-.4 1.1-.8 2.2-1.2 3.3.7 0 1.3 0 1.9-.1-.3-.8-.6-1.5-.8-2.2zm.6-3.6h-4.5v-1.5h4.5z" fill="#1b1b1b"/><g opacity=".38"><path d="m59.6 135.8c0-.5-.2-.9-.5-1.1s-.7-.4-1.3-.4c-.4 0-.8.1-1.1.3s-.7.5-1.1.8v-1.1c.3-.3.6-.5 1-.7s.8-.2 1.3-.2c.8 0 1.5.2 2 .7s.8 1 .8 1.8c0 .7-.2 1.2-.5 1.7s-.8 1-1.6 1.5-1.3.9-1.5 1.1-.4.4-.5.6-.2.5-.2.8h4.6v1h-5.7v-.4c0-.5.1-1 .2-1.3s.4-.7.7-1.1.8-.8 1.5-1.2c.7-.5 1.2-.9 1.5-1.3s.4-1 .4-1.5z"/><path d="m62.1 138.2c0-1.6.3-2.8.8-3.6s1.3-1.2 2.3-1.2c1.9 0 2.9 1.6 2.9 4.6 0 1.5-.3 2.7-.8 3.5s-1.3 1.2-2.3 1.2c-.9 0-1.6-.4-2.1-1.1s-.8-2-.8-3.4zm1.2-.1c0 2.4.6 3.6 1.8 3.6s1.8-1.2 1.8-3.7-.6-3.8-1.8-3.8-1.8 1.3-1.8 3.9z"/><path d="m72 142.5v-7.8c-.2.2-.5.4-.9.6s-.8.4-1.2.5v-1.1c.5-.1 1-.3 1.5-.6s1-.6 1.3-.8h.4v9.3z"/><path d="m81.9 139.7c0 .9-.3 1.6-.9 2.1s-1.4.8-2.4.8c-.8 0-1.5-.1-1.9-.4v-1.2c.6.4 1.2.6 1.9.6.6 0 1.1-.2 1.5-.5s.6-.8.6-1.4-.2-1-.6-1.4-1-.5-1.7-.5c-.6 0-1.1 0-1.5.1l.3-4.6h4.2v1h-3.3l-.2 2.6h.8c1 0 1.7.2 2.3.7s.9 1.3.9 2.1z"/><path d="m82.9 140.1h1.9v-3.4h4.2v-2.1h-3.4c-.5.9-1.1 1.8-1.8 2.6-.2-.2-.4-.4-.7-.7 1.1-1.2 1.9-2.6 2.5-4.2l1 .3c-.2.4-.3.8-.5 1.1h7.9v.8h-4.1v2.1h3.9v.8h-3.9v2.5h4.6v.8h-4.6v3.2h-.9v-3.2h-6zm2.9 0h3.2v-2.5h-3.2z"/><path d="m100.7 134.6c-.5-.2-1-.4-1.5-.4-.8 0-1.4.3-1.9 1s-.7 1.6-.7 2.8c.4-.8 1.1-1.2 2.1-1.2.8 0 1.4.3 1.9.8s.7 1.2.7 2c0 .9-.3 1.6-.8 2.2s-1.2.9-2.1.9-1.7-.4-2.2-1.1-.8-1.7-.8-3.1c0-1.6.3-2.9 1-3.8s1.6-1.4 2.7-1.4c.6 0 1.2.1 1.5.3zm-4 5c0 .6.2 1.1.5 1.5s.7.6 1.3.6c.5 0 .9-.2 1.2-.6s.5-.8.5-1.4-.2-1.1-.4-1.5-.7-.5-1.3-.5c-.5 0-.9.2-1.2.5s-.6.9-.6 1.4z"/><path d="m104.8 140.1c-.2 1.5-.8 2.9-1.8 4.1-.2-.2-.5-.5-.8-.7.8-.8 1.3-1.8 1.5-2.9.2-.8.3-2 .3-3.5v-4.1h7.8v9.1c0 1.2-.6 1.7-1.7 1.7-.5 0-1.1 0-1.8 0 0-.3-.1-.6-.2-1 .7.1 1.3.1 1.7.1.6 0 .9-.3.9-.9v-1.9zm.1-.8h6v-2.3h-5.9c-.1.8-.1 1.5-.1 2.3zm0-5.4v2.2h5.9v-2.2z"/></g><path d="m63 162.3c-.9.5-2 .8-3.3.8-1.5 0-2.6-.4-3.4-1.2s-1.2-1.9-1.2-3.3.5-2.6 1.4-3.5 2.1-1.3 3.6-1.3c1 0 1.8.1 2.5.4v1.8c-.7-.4-1.6-.6-2.6-.6-.9 0-1.6.3-2.1.9s-.8 1.3-.8 2.3c0 .9.2 1.7.7 2.2s1.2.8 2 .8c.5 0 .9-.1 1.2-.2v-1.9h-1.8v-1.6h3.8z" fill="#1b1b1b"/><path d="m64.4 154.3c0-.3.1-.5.3-.7s.5-.3.8-.3.6.1.8.3.3.4.3.7-.1.5-.3.7-.5.3-.8.3-.6-.1-.8-.3-.3-.4-.3-.7zm.2 8.6v-6.5h1.9v6.5z" fill="#1b1b1b"/><path d="m72 162.8c-.3.2-.7.2-1.3.2-1.4 0-2.1-.7-2.1-2.2v-3.1h-1.1v-1.4h1.1v-1.3l1.9-.5v2h1.5v1.4h-1.5v2.7c0 .7.3 1 .8 1 .2 0 .4-.1.7-.2z" fill="#1b1b1b"/><path d="m81.1 162.9h-1.9v-3.7h-3.9v3.7h-1.9v-9.1h1.9v3.7h3.9v-3.7h1.9z" fill="#1b1b1b"/><path d="m89.1 162.9h-1.9v-1c-.5.8-1.2 1.1-2 1.1-1.5 0-2.3-.9-2.3-2.7v-3.9h1.9v3.7c0 1 .4 1.4 1.1 1.4.4 0 .7-.1.9-.4s.3-.6.3-1.1v-3.7h1.9v6.6z" fill="#1b1b1b"/><path d="m92.7 162.1v.8h-1.9v-9.6h1.9v4.1c.5-.8 1.2-1.1 2.1-1.1.8 0 1.5.3 1.9.9s.7 1.4.7 2.4c0 1.1-.3 1.9-.8 2.6s-1.2 1-2.1 1c-.8-.1-1.4-.5-1.8-1.1zm-.1-2c0 .4.1.8.4 1.1s.6.4 1 .4c.5 0 .8-.2 1.1-.6s.4-.9.4-1.6c0-.6-.1-1-.4-1.3s-.6-.5-1-.5-.8.2-1.1.5-.4.7-.4 1.2z" fill="#1b1b1b"/><path d="m98.1 158h2.7v-2.9h-2.1v-1.5h10.5v1.5h-1.9v2.9h2.4v1.5h-2.4v4.8h-1.7v-4.8h-3.1c-.1 1.4-.3 2.5-.8 3.2s-1.2 1.3-2.1 1.8c-.4-.4-.9-.8-1.5-1.2.7-.4 1.3-.9 1.8-1.4s.8-1.4.8-2.5h-2.7v-1.4zm4.4 0h3.1v-2.9h-3.1z" fill="#1b1b1b"/><path d="m111 156c.6.4 1.2.9 1.8 1.5l-1.1 1.3c-.6-.6-1.2-1.1-1.8-1.6zm.4 3.4c.6.3 1.1.4 1.4.6l-1.1 4.4c-.5-.2-1-.4-1.6-.5.5-1.2.9-2.7 1.3-4.5zm-.2-6.4c.9.6 1.5 1.1 1.9 1.4l-1.1 1.2c-.6-.5-1.2-1.1-1.8-1.6zm4.9 7.9 1.2.7c-.3.4-.6.9-.9 1.3.2 0 .5.1.8.1.3-.1.5-.2.5-.5v-1.9h-2.1v-5h1.3c.1-.3.3-.7.4-1h-2.3v3.5c0 2.9-.4 5.1-1.3 6.3-.5-.5-.9-.9-1.3-1.1.8-1.1 1.1-2.9 1.1-5.4v-4.6h8.2v1.3h-2.9c-.1.2-.2.6-.5 1h2.8v5h-2v2.2c0 .4-.1.8-.3 1s-.5.4-.8.5-.9.1-1.5.1c-.1-.4-.2-.9-.3-1.4-.2.3-.5.6-.7.9l-1.1-.9c.6-.5 1.1-1.2 1.7-2.1zm3.6-4h-2.7v.7h2.7zm0 2.6v-.8h-2.7v.8zm.6 1.4c.5.6 1 1.4 1.5 2.2l-1.2.7c-.4-.7-.8-1.5-1.4-2.3z" fill="#1b1b1b"/><g opacity=".38"><path d="m59.6 197.8c0-.5-.2-.9-.5-1.1s-.7-.4-1.3-.4c-.4 0-.8.1-1.1.3s-.7.5-1.1.8v-1.1c.3-.3.6-.5 1-.7s.8-.2 1.3-.2c.8 0 1.5.2 2 .7s.8 1 .8 1.8c0 .7-.2 1.2-.5 1.7s-.8 1-1.6 1.5-1.3.9-1.5 1.1-.4.4-.5.6-.2.5-.2.8h4.6v1h-5.7v-.4c0-.5.1-1 .2-1.3s.4-.7.7-1.1.8-.8 1.5-1.2c.7-.5 1.2-.9 1.5-1.3s.4-1 .4-1.5z"/><path d="m62.1 200.2c0-1.6.3-2.8.8-3.6s1.3-1.2 2.3-1.2c1.9 0 2.9 1.6 2.9 4.6 0 1.5-.3 2.7-.8 3.5s-1.3 1.2-2.3 1.2c-.9 0-1.6-.4-2.1-1.1s-.8-2-.8-3.4zm1.2-.1c0 2.4.6 3.6 1.8 3.6s1.8-1.2 1.8-3.7-.6-3.8-1.8-3.8-1.8 1.3-1.8 3.9z"/><path d="m72 204.5v-7.8c-.2.2-.5.4-.9.6s-.8.4-1.2.5v-1.1c.5-.1 1-.3 1.5-.6s1-.6 1.3-.8h.4v9.3z"/><path d="m81.9 201.7c0 .9-.3 1.6-.9 2.1s-1.4.8-2.4.8c-.8 0-1.5-.1-1.9-.4v-1.2c.6.4 1.2.6 1.9.6.6 0 1.1-.2 1.5-.5s.6-.8.6-1.4-.2-1-.6-1.4-1-.5-1.7-.5c-.6 0-1.1 0-1.5.1l.3-4.6h4.2v1h-3.3l-.2 2.6h.8c1 0 1.7.2 2.3.7s.9 1.3.9 2.1z"/><path d="m82.9 202.1h1.9v-3.4h4.2v-2.1h-3.4c-.5.9-1.1 1.8-1.8 2.6-.2-.2-.4-.4-.7-.7 1.1-1.2 1.9-2.6 2.5-4.2l1 .3c-.2.4-.3.8-.5 1.1h7.9v.8h-4.1v2.1h3.9v.8h-3.9v2.5h4.6v.8h-4.6v3.2h-.9v-3.2h-6zm2.9 0h3.2v-2.5h-3.2z"/><path d="m98.1 204.5v-7.8c-.2.2-.5.4-.9.6s-.8.4-1.2.5v-1.1c.5-.1 1-.3 1.5-.6s1-.6 1.3-.8h.4v9.3z"/><path d="m102.3 200.2c0-1.6.3-2.8.8-3.6s1.3-1.2 2.3-1.2c1.9 0 2.9 1.6 2.9 4.6 0 1.5-.3 2.7-.8 3.5s-1.3 1.2-2.3 1.2c-.9 0-1.6-.4-2.1-1.1s-.8-2-.8-3.4zm1.2-.1c0 2.4.6 3.6 1.8 3.6s1.8-1.2 1.8-3.7-.6-3.8-1.8-3.8-1.8 1.3-1.8 3.9z"/><path d="m111.8 202.1c-.2 1.5-.8 2.9-1.8 4.1-.2-.2-.5-.5-.8-.7.8-.8 1.3-1.8 1.5-2.9.2-.8.3-2 .3-3.5v-4.1h7.8v9.1c0 1.2-.6 1.7-1.7 1.7-.5 0-1.1 0-1.8 0 0-.3-.1-.6-.2-1 .7.1 1.3.1 1.7.1.6 0 .9-.3.9-.9v-1.9zm.1-.8h6v-2.3h-5.9c0 .8 0 1.5-.1 2.3zm.1-5.4v2.2h5.9v-2.2z"/></g><path d="m55.7 218.1c.6.4 1.2.9 1.8 1.5l-1 1.3c-.5-.4-1-1-1.8-1.6zm.4 3.3c.5.2 1 .4 1.5.6l-1.1 4.4c-.5-.2-1-.4-1.5-.5.4-1.2.7-2.7 1.1-4.5zm1.7 1.5v-6.4l-1 1.1c-.5-.5-1.1-1-1.7-1.6l1-1.1c.5.4 1.2.9 1.8 1.4v-.9h4.5v7.3h-1.2v-6h-2.2v6.1zm1.7-5.3h1.1v3c0 1.3-.2 2.4-.5 3.2l.8-.6c.7.7 1.3 1.4 1.8 2l-1.2.9c-.5-.7-1-1.4-1.6-2.1-.4.9-1 1.7-1.9 2.5-.4-.5-.7-.9-1-1.3.9-.6 1.5-1.3 1.8-2s.5-1.7.5-2.8zm5.1-2.5h1.4v9.7c0 .4-.1.7-.3 1s-.4.4-.7.4-.9.1-1.8.1c-.1-.5-.2-1.1-.4-1.6.4.1.8.1 1.2.1.3 0 .5-.2.5-.6.1-.1.1-9.1.1-9.1zm-1.8.8h1.2v7.8h-1.2z" fill="#1b1b1b"/><path d="m70.1 219.9h3.9v1.5h-1.2v2.4l1.4-.2v1.6c-.5.1-1.8.3-4 .6l-.2-1c-.7.5-1.3 1-1.7 1.4l-.8-1.1c.2-.3.3-.6.3-1v-4.1h-1v-1.5h2.5v4.9c.3-.2.7-.5 1.1-.8 0 .2.1.7.2 1.4l.7-.1v-2.7h-1.2zm-1.8-4.9c.5.7 1 1.4 1.5 2.1l-1.4.8c-.4-.8-.9-1.5-1.4-2.2zm1.6 2.2h4.3l-.1-2.2h1.6v2.2h1.2c-.5-.7-.9-1.1-1.1-1.4l1-.8c.5.5.9 1 1.3 1.5l-.9.7h1.1v1.6h-2.4c.1 1.2.1 2.3.2 3.1s.2 1.5.3 1.9.2.7.2.8.1.1.2.1.3-.6.4-1.9c.5.2 1 .4 1.4.5-.2 1.3-.4 2.2-.7 2.6s-.6.6-1.1.6-.9-.2-1.2-.5-.6-1-.8-2-.4-2.8-.5-5.3h-4.3z" fill="#1b1b1b"/><path d="m81.9 217.3 1 2.1c.3-.7.6-1.4.9-2.2l.8.4.6-.3.9 2.1c.3-.7.6-1.4.8-2.2l1.3.5c-.4 1.2-.8 2.3-1.3 3.4l1.2 2.7-1.3.7-.7-1.7c-.4.8-.8 1.5-1.2 2.2-.2-.1-.3-.3-.5-.4l-.6.3-.9-2.2c-.4.9-.9 1.6-1.4 2.4-.2-.2-.4-.4-.7-.6v1.9h-1.6v-11h10.6v9c0 .6-.1 1.1-.3 1.4s-.6.5-1 .6-1.2.1-2.3.1c-.1-.6-.2-1.2-.4-1.6.6.1 1.1.1 1.7.1.5 0 .8-.2.8-.7v-7.3h-7.5v1zm-1.1.8v5.4c.5-.8.9-1.6 1.4-2.4-.5-1.1-.9-2.1-1.4-3zm3.8 1c-.3.7-.6 1.4-.9 2l.8 1.8.9-1.8z" fill="#1b1b1b"/><path d="m90.9 224.2h4.3v-9.2h1.9v3.2h4.3v1.7h-4.3v4.3h5.1v1.6h-11.3z" fill="#1b1b1b"/><path d="m103 225.9-.3-1.6c1.4-.2 2.8-.4 4.3-.6v.8c.9-.3 1.7-.6 2.5-1-.2-.6-.3-1.2-.4-2l-2 .2-.2-1.4 2-.2-.1-1.2-1.5.2-.1-.6c-.8 1.3-1.5 2.4-2.1 3.2.7-.1 1.3-.2 1.8-.3 0 .3-.1.8-.1 1.5-1.7.2-2.8.4-3.4.6l-.4-1.3c.5-.5 1-1.1 1.6-2.1-.4 0-.9.1-1.5.1l-.4-1.3c.7-.8 1.4-2.1 2.1-3.8l1.5.6c-.7 1.2-1.3 2.2-1.8 3.1h1c.2-.4.4-.8.7-1.2l1.1.5v-.4l1.6-.2-.1-2.4h1.6c0 .8 0 1.6.1 2.3l2-.2c-.5-.3-1-.7-1.6-1.1l.8-1c.6.3 1.3.7 1.9 1.1l-.7.9 1.1-.1.1 1.4-3.6.4.1 1.1 3.6-.4.2 1.4-1.4.2 1 .8c-.8.8-1.6 1.6-2.4 2.2.3.5.6.8.9.8.1 0 .3-.1.3-.3s.2-.7.4-1.5c.5.3 1 .5 1.4.7-.3 1.2-.6 2-.9 2.3s-.6.5-1 .5c-1 0-1.8-.6-2.4-1.7-.9.5-1.9.9-3 1.2-.1-.2-.2-.5-.4-.8-1.6.1-2.8.4-3.9.6zm9.7-4.9-2.1.2c.1.4.2.9.3 1.3.7-.4 1.3-1 1.8-1.5z" fill="#1b1b1b"/><g opacity=".38"><path d="m59.6 259.8c0-.5-.2-.9-.5-1.1s-.7-.4-1.3-.4c-.4 0-.8.1-1.1.3s-.7.5-1.1.8v-1.1c.3-.3.6-.5 1-.7s.8-.2 1.3-.2c.8 0 1.5.2 2 .7s.8 1 .8 1.8c0 .7-.2 1.2-.5 1.7s-.8 1-1.6 1.5-1.3.9-1.5 1.1-.4.4-.5.6-.2.5-.2.8h4.6v1h-5.7v-.5c0-.5.1-1 .2-1.3s.4-.7.7-1.1.8-.8 1.5-1.2c.7-.5 1.2-.9 1.5-1.3s.4-.9.4-1.4z"/><path d="m62.1 262.2c0-1.6.3-2.8.8-3.6s1.3-1.2 2.3-1.2c1.9 0 2.9 1.5 2.9 4.6 0 1.5-.3 2.7-.8 3.5s-1.3 1.2-2.3 1.2c-.9 0-1.6-.4-2.1-1.1s-.8-2-.8-3.4zm1.2-.1c0 2.4.6 3.6 1.8 3.6s1.8-1.2 1.8-3.7-.6-3.8-1.8-3.8-1.8 1.3-1.8 3.9z"/><path d="m72 266.5v-7.8c-.2.2-.5.4-.9.6s-.8.4-1.2.5v-1.1c.5-.1 1-.3 1.5-.6s1-.6 1.3-.8h.4v9.3z"/><path d="m81.7 258.6c-.5-.2-1-.4-1.5-.4-.8 0-1.4.3-1.9 1s-.7 1.6-.7 2.8c.4-.8 1.1-1.2 2.1-1.2.8 0 1.4.3 1.9.8s.7 1.2.7 2c0 .9-.3 1.6-.8 2.2s-1.2.9-2.1.9-1.6-.4-2.2-1.1-.8-1.7-.8-3.1c0-1.6.3-2.9 1-3.8s1.6-1.4 2.7-1.4c.6 0 1.2.1 1.5.3zm-4.1 4.9c0 .6.2 1.1.5 1.5s.7.6 1.3.6c.5 0 .9-.2 1.2-.5s.5-.8.5-1.4-.2-1.1-.4-1.5-.7-.5-1.3-.5c-.5 0-.9.2-1.2.5s-.6.9-.6 1.3z"/><path d="m82.9 264.1h1.9v-3.4h4.2v-2.1h-3.4c-.5 1-1.1 1.8-1.8 2.6-.2-.2-.4-.4-.7-.7 1.1-1.2 1.9-2.6 2.5-4.2l1 .3c-.2.4-.3.8-.5 1.1h7.9v.8h-4.1v2.1h3.9v.8h-3.9v2.5h4.6v.8h-4.6v3.2h-.9v-3.2h-6zm2.9 0h3.2v-2.5h-3.2z"/><path d="m98.1 266.5v-7.8c-.2.2-.5.4-.9.6s-.8.4-1.2.5v-1.1c.5-.1 1-.3 1.5-.6s1-.6 1.3-.8h.4v9.3z"/><path d="m102.3 262.2c0-1.6.3-2.8.8-3.6s1.3-1.2 2.3-1.2c1.9 0 2.9 1.5 2.9 4.6 0 1.5-.3 2.7-.8 3.5s-1.3 1.2-2.3 1.2c-.9 0-1.6-.4-2.1-1.1s-.8-2-.8-3.4zm1.2-.1c0 2.4.6 3.6 1.8 3.6s1.8-1.2 1.8-3.7-.6-3.8-1.8-3.8-1.8 1.3-1.8 3.9z"/><path d="m111.8 264.1c-.2 1.5-.8 2.9-1.8 4.1-.2-.2-.5-.5-.8-.7.8-.8 1.3-1.8 1.5-2.9.2-.8.3-2 .3-3.5v-4h7.8v9.1c0 1.2-.6 1.7-1.7 1.7-.5 0-1.1 0-1.8 0 0-.3-.1-.6-.2-1 .7 0 1.3.1 1.7.1.6 0 .9-.3.9-.9v-2zm.1-.8h6v-2.3h-5.9c0 .8 0 1.5-.1 2.3zm.1-5.4v2.2h5.9v-2.2z"/></g><path d="m54.8 286.4h4.8v-2.2h-3.6v-1.5h3.6v-2.1h-4.2v-1.5h4.5c-.3-.5-.6-1-.9-1.5l1.6-.7c.3.5.7 1.1 1 1.7l-1.1.5h5v1.5h-4.2v2.1h3.7v1.5h-3.7v2.2h4.9v1.6h-11.4z" fill="#1b1b1b"/><path d="m69.9 279.3 1 2.1c.3-.7.6-1.4.9-2.2l.8.4.6-.3.9 2.1c.3-.7.6-1.4.8-2.2l1.3.5c-.4 1.2-.8 2.3-1.3 3.4l1.2 2.7-1.3.7-.7-1.7c-.4.8-.8 1.5-1.2 2.2-.2-.1-.3-.3-.5-.4l-.6.3-.9-2.2c-.4.9-.9 1.6-1.4 2.4-.2-.2-.4-.4-.7-.6v2h-1.6v-11h10.6v9c0 .6-.1 1.1-.3 1.4s-.6.5-1 .6-1.2.1-2.3.1c-.1-.6-.2-1.2-.4-1.6.6 0 1.1.1 1.7.1.5 0 .8-.2.8-.7v-7.3h-7.5v1zm-1.1.8v5.4c.5-.8.9-1.6 1.4-2.4-.5-1.1-.9-2.1-1.4-3zm3.8 1c-.3.7-.6 1.4-.9 2l.8 1.8.9-1.8z" fill="#1b1b1b"/><path d="m78.9 286.2h4.3v-9.2h1.9v3.2h4.3v1.7h-4.3v4.3h5.1v1.6h-11.3z" fill="#1b1b1b"/><path d="m91 287.9-.3-1.6c1.4-.2 2.8-.4 4.3-.6v.8c.9-.3 1.7-.6 2.5-1-.2-.5-.3-1.2-.4-2l-2 .2-.2-1.4 2-.2-.1-1.2-1.5.2-.1-.6c-.8 1.3-1.5 2.4-2.1 3.2.7-.1 1.3-.2 1.8-.3 0 .3-.1.8-.1 1.5-1.7.2-2.8.4-3.4.6l-.4-1.3c.5-.5 1-1.1 1.6-2-.4 0-.9.1-1.5.1l-.4-1.3c.7-.8 1.4-2.1 2.1-3.8l1.5.6c-.7 1.2-1.3 2.2-1.8 3.1h1c.2-.4.4-.8.7-1.2l1.1.5v-.4l1.6-.2-.1-2.4h1.6c0 .8 0 1.5.1 2.3l2-.2c-.5-.3-1-.7-1.6-1.1l.8-1c.6.3 1.3.7 1.9 1.1l-.7.9 1.1-.1.1 1.4-3.6.4.1 1.1 3.6-.4.2 1.4-1.4.2 1 .8c-.8.8-1.6 1.5-2.4 2.2.3.5.6.8.9.8.1 0 .3-.1.3-.3s.2-.7.4-1.5c.5.3 1 .5 1.4.7-.3 1.2-.6 2-.9 2.3s-.6.5-1 .5c-1 0-1.8-.6-2.4-1.7-.9.5-1.9.9-3 1.2-.1-.2-.2-.5-.4-.8-1.6.1-2.8.3-3.9.5zm9.7-4.9-2.1.2c.1.5.2.9.3 1.3.7-.4 1.3-1 1.8-1.5z" fill="#1b1b1b"/><g opacity=".38"><path d="m59.6 321.8c0-.5-.2-.9-.5-1.1s-.7-.4-1.3-.4c-.4 0-.8.1-1.1.3s-.7.5-1.1.8v-1.1c.3-.3.6-.5 1-.7s.8-.2 1.3-.2c.8 0 1.5.2 2 .7s.8 1 .8 1.8c0 .7-.2 1.2-.5 1.7s-.8 1-1.6 1.5-1.3.9-1.5 1.1-.4.4-.5.6-.2.5-.2.8h4.6v1h-5.7v-.5c0-.5.1-1 .2-1.3s.4-.7.7-1.1.8-.8 1.5-1.2c.7-.5 1.2-.9 1.5-1.3s.4-.9.4-1.4z"/><path d="m62.1 324.2c0-1.6.3-2.8.8-3.6s1.3-1.2 2.3-1.2c1.9 0 2.9 1.5 2.9 4.6 0 1.5-.3 2.7-.8 3.5s-1.3 1.2-2.3 1.2c-.9 0-1.6-.4-2.1-1.1s-.8-2-.8-3.4zm1.2-.1c0 2.4.6 3.6 1.8 3.6s1.8-1.2 1.8-3.7-.6-3.8-1.8-3.8-1.8 1.3-1.8 3.9z"/><path d="m72 328.5v-7.8c-.2.2-.5.4-.9.6s-.8.4-1.2.5v-1.1c.5-.1 1-.3 1.5-.6s1-.6 1.3-.8h.4v9.3z"/><path d="m82.1 320.2c-.9 1.7-1.7 3.2-2.2 4.6s-.9 2.7-1 3.8h-1.2c.1-1.1.5-2.3 1-3.6s1.3-2.8 2.2-4.4h-4.5v-1h5.8v.6z"/><path d="m82.9 326.1h1.9v-3.4h4.2v-2.1h-3.4c-.5 1-1.1 1.8-1.8 2.6-.2-.2-.4-.4-.7-.7 1.1-1.2 1.9-2.6 2.5-4.2l1 .3c-.2.4-.3.8-.5 1.1h7.9v.8h-4.1v2.1h3.9v.8h-3.9v2.5h4.6v.8h-4.6v3.2h-.9v-3.2h-6zm2.9 0h3.2v-2.5h-3.2z"/><path d="m100.7 320.6c-.5-.2-1-.4-1.5-.4-.8 0-1.4.3-1.9 1s-.7 1.6-.7 2.8c.4-.8 1.1-1.2 2.1-1.2.8 0 1.4.3 1.9.8s.7 1.2.7 2c0 .9-.3 1.6-.8 2.2s-1.2.9-2.1.9-1.7-.4-2.2-1.1-.8-1.7-.8-3.1c0-1.6.3-2.9 1-3.8s1.6-1.4 2.7-1.4c.6 0 1.2.1 1.5.3zm-4 4.9c0 .6.2 1.1.5 1.5s.7.6 1.3.6c.5 0 .9-.2 1.2-.5s.5-.8.5-1.4-.2-1.1-.4-1.5-.7-.5-1.3-.5c-.5 0-.9.2-1.2.5s-.6.9-.6 1.3z"/><path d="m104.8 326.1c-.2 1.5-.8 2.9-1.8 4.1-.2-.2-.5-.5-.8-.7.8-.8 1.3-1.8 1.5-2.9.2-.8.3-2 .3-3.5v-4h7.8v9.1c0 1.2-.6 1.7-1.7 1.7-.5 0-1.1 0-1.8 0 0-.3-.1-.6-.2-1 .7 0 1.3.1 1.7.1.6 0 .9-.3.9-.9v-2zm.1-.8h6v-2.3h-5.9c-.1.8-.1 1.5-.1 2.3zm0-5.4v2.2h5.9v-2.2z"/></g><path d="m56.6 341.5 1.8.4c-.6 2.1-1.2 4-1.8 5.8l-1.7-.7c.6-1.7 1.2-3.5 1.7-5.5zm3.2-2.5h1.8v8.9c0 .8-.1 1.3-.4 1.7s-.5.6-.9.6-1.2.1-2.6.1c-.1-.7-.3-1.3-.4-1.9.6.1 1.2.1 1.6.1.5 0 .8-.3.8-1 .1.1.1-8.5.1-8.5zm4.5 2.5c.7 1.7 1.5 3.5 2.2 5.4l-1.8.7c-.6-2-1.3-3.9-2-5.6z" fill="#1b1b1b"/><path d="m78.2 340.2c-.3 2.7-1 4.9-2.1 6.7.7.8 1.5 1.5 2.4 1.9-.2.2-.4.8-.9 1.7-1-.5-1.9-1.2-2.6-2.1-.8.9-1.8 1.6-2.8 2.2-.1-.3-.3-.5-.4-.8l-.5.1c-.1-.2-.1-.5-.1-.7-1 .2-2.4.5-4.1.8l-.3-1.5c.7-.1 1.4-.2 2-.3v-2.1h-.6v.6h-1.1v-5.9h1.6v-1.8h1.3v1.8h1.6v5.3h-1.6v1.9c.2 0 .5-.1.7-.1-.1-.4-.2-.7-.3-1l1.1-.3c.1.4.3 1.1.5 2 .7-.5 1.3-1 1.8-1.6-1-1.7-1.7-3.9-2-6.5l1.5-.3c.3 2.1.8 3.9 1.6 5.3.8-1.5 1.4-3.3 1.6-5.4zm-10 4.5h.6v-2.6h-.6zm2.5 0v-2.6h-.6v2.6zm4.3-5.8c.4.9.7 1.8 1 2.7l-1.4.5c-.4-1.2-.7-2.1-.9-2.8z" fill="#1b1b1b"/><path d="m82.5 349.7h-1.6v.5h-1.6v-5.5h4.9v5.5h-1.6c-.1.1-.1-.5-.1-.5zm-2.1-10.3h8.4v4.5h-8.4zm.5 8.9h1.6v-2.1h-1.6zm6.2-7.4h-5v1.5h5zm-.5 8.8v.5h-1.6v-5.5h4.9v5.5h-1.6v-.5zm1.7-1.4v-2.1h-1.7v2.1z" fill="#1b1b1b"/><path d="m93.5 339h1.3v3.5h.5v1.3h-2.6v1.2h2.1v5.3h-1.3v-4h-.8c-.1 1.6-.3 3-.8 4.2-.4-.3-.8-.7-1.2-1 .5-1 .7-2.6.7-4.7v-5.5h1.3v3.3h.8zm5.4 6.7h1.5v1.2h1.9v1.3h-1.9v2.2h-1.5v-2.2h-3.8v-1.3h1.5c-.2-.2-.5-.4-.7-.6.5-.3.9-.6 1.2-.9h-1.5v-5.5h1.6c.1-.3.2-.7.2-1l1.8.2c-.1.3-.2.5-.3.8h3.1v5.5h-3.2c-.3.6-.8 1.1-1.3 1.6h1.5zm-1.9-3.6h1.1v-1h-1.1zm1.1 1h-1.1v1h.9c.1-.3.2-.6.2-1zm2.5 1v-1h-1.2c0 .3-.1.7-.1 1zm0-3h-1.1v1h1.1z" fill="#1b1b1b"/><path d="m102.8 349h5v-.6h-4.3v-1h4.3v-.6h-3.9v-4.1h3.9v-.6h-5v-1h5v-.6l-4 .1c-.1-.3-.1-.7-.2-1 3.3 0 6.6-.1 9.7-.3 0 0 .1.4.2 1.1l-4.2.1v.6h5.1v1h-5.1v.6h3.9v4.1h-3.9v.6h4.3v1h-4.3v.6h5.1v1h-11.6zm2.7-4.6h2.3v-.7h-2.3zm0 1.5h2.3v-.7h-2.3zm6.2-2.2h-2.4v.7h2.4zm0 2.2v-.7h-2.4v.7z" fill="#1b1b1b"/><path d="m119.2 338.9 1.4.6c-.2.3-.4.5-.7.8h1.1v1.2h-2.2v2h.7v-1.5h1.3v2.6h-2.1c-.2.8-.7 1.5-1.3 2h2.5v-.7h1.3c-.3-.2-.6-.4-.8-.6.7-.6 1-1.5 1-2.8v-3.1h4.6v5.2c0 .9-.4 1.4-1.1 1.4-.4 0-.9 0-1.5 0-.1-.3-.2-.7-.3-1.3h1.1c.3 0 .5-.2.5-.5v-.3h-2c-.2.9-.5 1.6-1 2.2 0 0-.1 0-.1-.1v.4h4.1v1.2h-4.1v1h5v1.3h-11.6v-1.3h5v-1h-4.1v-1.2h1.3c-.3-.3-.7-.6-1.1-1 .5-.3.8-.6 1.1-1h-1.7v-2.4h1.3v1.5h.7c0-.1 0-.7 0-2h-2.5v-1.2h1.2c-.2-.3-.4-.5-.6-.8l1.1-.7c.3.4.7.8 1 1.2l-.4.2h1c.3-.3.6-.8.9-1.3zm3.4 3.4v.8h1.9v-.8zm1.9-1.7h-1.9v.8h1.9z" fill="#1b1b1b"/><path d="m132.6 350.3c-.1-.5-.2-1-.4-1.8 1 .1 1.7.1 2.3.1.4 0 .7 0 .9-.1s.3-.2.4-.4.1-.7.2-1.6.1-2.1.2-3.5h-3.4c-.1.7-.2 1.4-.4 2l1.1-1c.6.5 1.2 1.1 2 1.8l-1.2 1.2c-.7-.8-1.3-1.4-1.8-1.9-.7 2.3-2.1 4.1-4.2 5.4-.6-.5-1-.9-1.4-1.2 2.5-1.5 3.9-3.6 4.2-6.2h-4v-1.5h2.1c-.4-.5-.9-1.1-1.4-1.6l1.1-1c.6.6 1.2 1.1 1.6 1.6l-1.1 1h1.7l.2-2.6h1.8l-.2 2.6h5l-.3 4.5c-.1 1.5-.2 2.4-.2 2.6s-.2.6-.4.8-.5.5-.8.6-.9.2-1.7.2-1.5 0-1.9 0z" fill="#1b1b1b"/><path d="m147.7 348.9h-2l-3.8-5.9c-.2-.3-.3-.5-.4-.7 0 .3.1.8.1 1.5v5.2h-1.8v-9.1h2.1l3.7 5.7c.2.4.4.6.4.7 0-.2-.1-.6-.1-1.2v-5.2h1.8z" fill="#1b1b1b"/><path d="m155.4 346.2h-4.3c.1 1 .7 1.5 1.8 1.5.7 0 1.4-.2 1.9-.5v1.4c-.6.3-1.4.5-2.3.5-1 0-1.8-.3-2.4-.9s-.9-1.4-.9-2.4.3-1.9.9-2.5 1.4-1 2.3-1 1.6.3 2.1.8.8 1.3.8 2.3zm-1.8-1.2c0-1-.4-1.5-1.2-1.5-.3 0-.6.1-.9.4s-.4.6-.5 1z" fill="#1b1b1b"/><path d="m156.2 345.7c0-1.1.3-1.9 1-2.5s1.5-.9 2.6-.9c1 0 1.9.3 2.5.9s.9 1.4.9 2.4c0 1.1-.3 1.9-.9 2.5s-1.5.9-2.6.9-1.9-.3-2.5-.9-1-1.4-1-2.4zm1.9 0c0 1.3.5 1.9 1.6 1.9 1 0 1.5-.7 1.5-2s-.5-1.9-1.5-1.9c-.5 0-.9.2-1.2.5s-.4.8-.4 1.5z" fill="#1b1b1b"/><g opacity=".38"><path d="m59.6 383.8c0-.5-.2-.9-.5-1.1s-.7-.4-1.3-.4c-.4 0-.8.1-1.1.3s-.7.5-1.1.8v-1.1c.3-.3.6-.5 1-.7s.8-.2 1.3-.2c.8 0 1.5.2 2 .7s.8 1 .8 1.8c0 .7-.2 1.2-.5 1.7s-.8 1-1.6 1.5-1.3.9-1.5 1.1-.4.4-.5.6-.2.5-.2.8h4.6v1h-5.7v-.5c0-.5.1-1 .2-1.3s.4-.7.7-1.1.8-.8 1.5-1.2c.7-.5 1.2-.9 1.5-1.3s.4-.9.4-1.4z"/><path d="m62.1 386.2c0-1.6.3-2.8.8-3.6s1.3-1.2 2.3-1.2c1.9 0 2.9 1.5 2.9 4.6 0 1.5-.3 2.7-.8 3.5s-1.3 1.2-2.3 1.2c-.9 0-1.6-.4-2.1-1.1s-.8-2-.8-3.4zm1.2-.1c0 2.4.6 3.6 1.8 3.6s1.8-1.2 1.8-3.7-.6-3.8-1.8-3.8-1.8 1.3-1.8 3.9z"/><path d="m72 390.5v-7.8c-.2.2-.5.4-.9.6s-.8.4-1.2.5v-1.1c.5-.1 1-.3 1.5-.6s1-.6 1.3-.8h.4v9.3z"/><path d="m82.1 382.2c-.9 1.7-1.7 3.2-2.2 4.6s-.9 2.7-1 3.8h-1.2c.1-1.1.5-2.3 1-3.6s1.3-2.8 2.2-4.4h-4.5v-1h5.8v.6z"/><path d="m82.9 388.1h1.9v-3.4h4.2v-2.1h-3.4c-.5 1-1.1 1.8-1.8 2.6-.2-.2-.4-.4-.7-.7 1.1-1.2 1.9-2.6 2.5-4.2l1 .3c-.2.4-.3.8-.5 1.1h7.9v.8h-4.1v2.1h3.9v.8h-3.9v2.5h4.6v.8h-4.6v3.2h-.9v-3.2h-6zm2.9 0h3.2v-2.5h-3.2z"/><path d="m98.1 390.5v-7.8c-.2.2-.5.4-.9.6s-.8.4-1.2.5v-1.1c.5-.1 1-.3 1.5-.6s1-.6 1.3-.8h.4v9.3z"/><path d="m102.3 386.2c0-1.6.3-2.8.8-3.6s1.3-1.2 2.3-1.2c1.9 0 2.9 1.5 2.9 4.6 0 1.5-.3 2.7-.8 3.5s-1.3 1.2-2.3 1.2c-.9 0-1.6-.4-2.1-1.1s-.8-2-.8-3.4zm1.2-.1c0 2.4.6 3.6 1.8 3.6s1.8-1.2 1.8-3.7-.6-3.8-1.8-3.8-1.8 1.3-1.8 3.9z"/><path d="m111.8 388.1c-.2 1.5-.8 2.9-1.8 4.1-.2-.2-.5-.5-.8-.7.8-.8 1.3-1.8 1.5-2.9.2-.8.3-2 .3-3.5v-4h7.8v9.1c0 1.2-.6 1.7-1.7 1.7-.5 0-1.1 0-1.8 0 0-.3-.1-.6-.2-1 .7 0 1.3.1 1.7.1.6 0 .9-.3.9-.9v-2zm.1-.8h6v-2.3h-5.9c0 .8 0 1.5-.1 2.3zm.1-5.4v2.2h5.9v-2.2z"/></g><path d="m65.2 407c-.6 1-1.4 2-2.3 2.7.9.4 2.1.7 3.6.9-.3.6-.7 1.1-1 1.7-1.6-.4-3-.9-4.1-1.6-1.2.7-2.5 1.2-4.1 1.7-.3-.5-.6-1-.9-1.5 1.3-.4 2.5-.8 3.5-1.3-.6-.5-1.1-1.1-1.5-1.8-.9 1.5-2 2.7-3.1 3.7-.2-.7-.3-1.4-.5-2 1.5-1.4 2.7-3.1 3.4-5h-2.9v-1.4c.2-.6.4-1.3.6-2l1.6.2c-.1.5-.3 1.1-.5 1.8h1.7c.2-.7.4-1.4.5-2.3l1.7.1-.5 2.2h3.3c-.4-.4-.9-.9-1.3-1.3l1-1c.7.5 1.3 1.1 1.8 1.5l-.7.8h2v1.4h-6.5c-.1.3-.2.7-.4 1.1h5.7zm-3.9 1.9c.8-.6 1.5-1.2 1.9-1.8h-3.6c.5.7 1.1 1.3 1.7 1.8z" fill="#1b1b1b"/><path d="m73.9 412.5h-1.6v-5.4h-1.8v4.5h-1.6v-3.8c-.5.5-1 1-1.5 1.5-.2-.7-.4-1.2-.5-1.6 1.3-1.2 2.3-2.4 3-3.7h-2.9v-1.6h3.6c.2-.5.3-1 .5-1.4l1.6.2c-.1.4-.3.8-.4 1.2h6v1.6h-6.7c-.3.6-.7 1.2-1.1 1.8h1.8v-1.5h1.6v1.5h3.5v3.8c0 .5-.1.9-.3 1.2s-.5.5-.8.5-.9.1-1.6.1c-.1-.6-.2-1.1-.3-1.5h.7c.5 0 .8-.3.8-.8v-1.9h-1.9z" fill="#1b1b1b"/><path d="m87.7 410.9h-2l-3.8-5.9c-.2-.3-.3-.5-.4-.7 0 .3.1.8.1 1.5v5.2h-1.8v-9.1h2.1l3.7 5.7c.2.4.4.6.4.7 0-.2-.1-.6-.1-1.2v-5.2h1.8z" fill="#1b1b1b"/><path d="m95.2 410.9h-5.4v-9.1h5.2v1.6h-3.2v2.1h3v1.6h-3v2.2h3.4z" fill="#1b1b1b"/><path d="m98.6 407.7v3.2h-1.9v-9.1h3.1c2.3 0 3.4 1 3.4 2.9 0 .9-.3 1.7-1 2.2s-1.5.8-2.6.8zm0-4.4v2.9h.8c1.1 0 1.7-.5 1.7-1.5s-.6-1.5-1.7-1.5z" fill="#1b1b1b"/><path d="m107.9 408.1h-3.5v-1.3h3.5z" fill="#1b1b1b"/><path d="m109.8 410.7v-1.7c.6.4 1.3.6 2 .6.5 0 .9-.1 1.3-.4s.4-.6.4-1.1c0-.9-.6-1.4-1.9-1.4-.5 0-1 0-1.7.1l.3-5h4.8v1.6h-3.3l-.1 1.9h.9c.9 0 1.6.2 2.1.7s.8 1.1.8 2-.3 1.7-.9 2.2-1.5.9-2.5.9c-.9-.1-1.7-.2-2.2-.4z" fill="#1b1b1b"/><path d="m128 410.8c-.2.6-.4 1.1-.6 1.5h-6.2c-.7 0-1.3-.1-1.8-.3s-.9-.5-1.2-.8l-1.3 1.5-.7-1.8 1.1-1v-3.2h-1v-1.7h2.5v4.8c.5.6 1.3 1 2.5 1h2.7zm-10.2-9.9c.7.8 1.2 1.5 1.6 2.1l-1.4.9c-.5-.8-1-1.6-1.5-2.2zm9.5.4v1.4l-2.4 1.4h2.4v5c0 .4-.1.7-.2.9s-.3.4-.6.4-.8.1-1.8.1c-.1-.4-.2-.8-.3-1.2h.9c.3 0 .5-.2.5-.5v-.2h-1.6v1.8h-1.4v-1.8h-1.5v1.8h-1.5v-6.4h2.2l-1.3-.8.6-.7h-1.7v-1.2zm-6 4.5h1.5v-.7h-1.5zm0 1.7h1.5v-.7h-1.5zm4-5h-3.4c.5.3 1 .6 1.6 1zm.5 2.6h-1.6v.7h1.6zm-1.6 2.4h1.6v-.7h-1.6z" fill="#1b1b1b"/><path d="m131.9 408.3c0 .3.1.9.3 1.6-.7.5-1.6 1.2-2.5 2l-.7-1.3c.2-.2.3-.5.3-.9v-3.7h-.9v-1.5h2.5v4.7zm-1.9-7.4c.4.6.9 1.4 1.4 2.2-.4.2-.8.5-1.4.8-.4-.8-.9-1.5-1.3-2.2zm1.7 9.5h1v-5.9h1.6v5.9h1.3v-7.1h-3.6v-1.5h7.8v1.5h-2.8v2.6h2.5v1.5h-2.5v3h2.9v1.6h-8.3z" fill="#1b1b1b"/><path d="m140.3 407.7c.6-1 1.1-2.1 1.3-3.2h-1.2v-1.5h1.4v-2h1.4v2h1.1v1.5h-1.1v1.4c.5.3 1 .6 1.4.8l-.7 1.3c-.2-.1-.4-.3-.7-.5v5h-1.4v-4.8c-.3.8-.6 1.5-1.1 2.2-.2-.9-.3-1.6-.4-2.2zm4.9-.9 1.4.4c-.5 1.5-1 2.8-1.5 3.9-.5-.2-.9-.4-1.4-.6.6-1 1.1-2.3 1.5-3.7zm-.9-2.3h7.5v1.5h-2.9v5c0 .4-.1.7-.4 1s-.6.4-1 .4-1 0-1.8 0c-.1-.6-.2-1.2-.3-1.6.4 0 .8.1 1.1.1.4 0 .7-.2.7-.6v-4.3h-2.9zm.5-2.9h6.6v1.5h-6.6zm5.8 5.3c.5 1.2 1 2.4 1.4 3.7l-1.4.5c-.4-1.4-.9-2.6-1.4-3.8z" fill="#1b1b1b"/><path d="m153.5 401.5c.6.8 1.2 1.6 1.8 2.5l-1.4 1c-.5-.9-1.1-1.7-1.7-2.6zm.4 4.8c.5.3 1 .5 1.5.8l-1.7 5c-.4-.3-.9-.6-1.5-.9.6-1.4 1.1-3.1 1.7-4.9zm3.1-5.4 1.5.4c-.2.5-.4 1.1-.6 1.6h2.4c-.3-.4-.7-.8-1.1-1.3l1.2-.8c.5.5 1 1 1.4 1.6l-.7.5h2.6v1.3h-2.4v1.3h2.3v1.2h-2.3v1.3h2.3v1.2h-2.3v1.3h2.5v1.2h-6.2v.8h-1.6v-6.5c-.2.3-.4.6-.7.9-.3-.6-.5-1.1-.8-1.6 1.2-1.2 2-2.7 2.5-4.4zm.7 4.5h2.1v-1.3h-2.1zm0 2.5h2.1v-1.3h-2.1zm0 2.5h2.1v-1.3h-2.1z" fill="#1b1b1b"/><g opacity=".38"><path d="m59.6 444.8c0-.5-.2-.9-.5-1.1s-.7-.4-1.3-.4c-.4 0-.8.1-1.1.3s-.7.5-1.1.8v-1.1c.3-.3.6-.5 1-.7s.8-.2 1.3-.2c.8 0 1.5.2 2 .7s.8 1 .8 1.8c0 .7-.2 1.2-.5 1.7s-.8 1-1.6 1.5-1.3.9-1.5 1.1-.4.4-.5.7-.2.5-.2.8h4.6v1h-5.7v-.5c0-.5.1-1 .2-1.3s.4-.7.7-1.1.8-.8 1.5-1.2c.7-.5 1.2-.9 1.5-1.3s.4-1 .4-1.5z"/><path d="m62.1 447.2c0-1.6.3-2.8.8-3.6s1.3-1.2 2.3-1.2c1.9 0 2.9 1.5 2.9 4.6 0 1.5-.3 2.7-.8 3.5s-1.3 1.2-2.3 1.2c-.9 0-1.6-.4-2.1-1.2s-.8-1.9-.8-3.3zm1.2-.1c0 2.4.6 3.6 1.8 3.6s1.8-1.2 1.8-3.7-.6-3.8-1.8-3.8c-1.2.1-1.8 1.4-1.8 3.9z"/><path d="m72 451.5v-7.8c-.2.2-.5.4-.9.6s-.8.4-1.2.5v-1.1c.5-.1 1-.4 1.5-.6s1-.6 1.3-.8h.4v9.3z"/><path d="m76.3 449c0-.5.2-1 .5-1.5s.7-.8 1.2-.9c-.4-.2-.7-.5-.9-.9s-.3-.7-.3-1.1.1-.8.3-1.2.5-.6.9-.8.8-.3 1.3-.3.9.1 1.3.3.7.5.9.8.3.8.3 1.2-.1.8-.3 1.1-.5.6-.9.9c.5.2.9.5 1.2 1s.5.9.5 1.4-.1 1-.4 1.4-.6.7-1.1 1-1 .3-1.5.3c-.6 0-1.1-.1-1.5-.3s-.8-.5-1.1-1-.4-.9-.4-1.4zm1.1 0c0 .5.2 1 .5 1.3s.8.5 1.3.5 1-.2 1.3-.5.5-.8.5-1.3-.2-.9-.5-1.3-.8-.5-1.3-.5-1 .2-1.3.5-.5.7-.5 1.3zm.3-4.3c0 .4.1.8.4 1s.6.4 1.1.4c.4 0 .8-.1 1.1-.4s.4-.6.4-1-.1-.8-.4-1-.7-.4-1.1-.4-.8.1-1.1.4-.4.6-.4 1z"/><path d="m82.9 449.1h1.9v-3.4h4.2v-2.1h-3.4c-.5 1-1.1 1.8-1.8 2.6-.2-.2-.4-.4-.7-.7 1.1-1.2 1.9-2.6 2.5-4.2l1 .3c-.2.4-.3.8-.5 1.1h7.9v.8h-4.1v2.1h3.9v.8h-3.9v2.5h4.6v.8h-4.6v3.2h-.9v-2.9h-6zm2.9 0h3.2v-2.5h-3.2z"/><path d="m98.1 451.5v-7.8c-.2.2-.5.4-.9.6s-.8.4-1.2.5v-1.1c.5-.1 1-.4 1.5-.6s1-.6 1.3-.8h.4v9.3z"/><path d="m104.8 449.1c-.2 1.5-.8 2.9-1.8 4.1-.2-.2-.5-.5-.8-.7.8-.8 1.3-1.8 1.5-2.9.2-.8.3-2 .3-3.5v-4h7.8v9.1c0 1.2-.6 1.7-1.7 1.7-.5 0-1.1 0-1.8 0 0-.3-.1-.6-.2-1 .7 0 1.3.1 1.7.1.6 0 .9-.3.9-.9v-2zm.1-.8h6v-2.3h-5.9c-.1.8-.1 1.6-.1 2.3zm0-5.4v2.2h5.9v-2.2z"/></g><path d="m56.7 461.9h1.6c-.1.3-.3.5-.4.8h2.9v1.1c.5-.6.8-1.2 1.1-1.9h1.6c-.1.3-.2.5-.3.8h3.1v1.1h-2c.2.2.5.4.7.7l-.7.6h1.3v3.2h-4.1v.7h4.6c0 1.9-.2 3-.3 3.2s-.4.4-.6.6-1.2.2-2.8.2c-.1-.5-.2-.9-.4-1.4 1 0 1.6.1 1.6.1.3 0 .5 0 .6-.1s.2-.2.3-.3.1-.4.1-.8h-3v3.2h-1.6v-2.9c-1 1.1-2.4 2.1-4.2 2.8-.2-.4-.5-.9-.9-1.4 1.4-.5 2.6-1 3.5-1.7h-2.8l.4-3.5h3.9v-.7h-4v-1c-.1.1-.2.2-.3.2-.3-.4-.6-.7-.9-1.1.8-.7 1.5-1.6 2-2.5zm1 2.3.5-.4h-1c-.3.5-.7.9-1.1 1.2h2.4c-.2-.2-.5-.5-.8-.8zm-.5 4.8h2.7v-.7h-2.5zm1.8-5.2c.3.2.5.5.8.7l-.6.5h2.4c-.4-.3-.8-.5-1.2-.8.1-.1.2-.3.3-.4zm5 3.2v-.7h-2.5v.7zm-2.3-2h2.2c-.3-.3-.6-.6-.9-.9l.4-.3h-.8c-.3.4-.6.9-.9 1.2z" fill="#1b1b1b"/><path d="m66.9 466.8h11.3v1.7h-11.3z" fill="#1b1b1b"/><path d="m79.9 462.4h9.9v3.7h-8.2c0 2.2-.2 3.8-.4 4.8s-.6 1.8-1.1 2.5c-.5-.6-.9-1-1.3-1.4.3-.5.6-1.1.8-1.8s.3-2.1.3-4zm8.2 2.3v-1h-6.6v1zm-6.3 8.8v-6.5h3.2v-.8h1.6v.8h3.2v6.5h-1.6v-.6h-4.8v.6zm1.6-4.1h1.6v-1h-1.6zm0 2.2h1.6v-1h-1.6zm4.8-3.3h-1.6v1h1.6zm-1.6 3.3h1.6v-1h-1.6z" fill="#1b1b1b"/><path d="m90.8 467h2.7v-2.9h-2.1v-1.5h10.5v1.5h-1.9v2.9h2.4v1.5h-2.4v4.8h-1.7v-4.8h-3.1c-.1 1.4-.3 2.5-.8 3.2s-1.2 1.3-2.1 1.8c-.4-.4-.9-.8-1.5-1.2.7-.4 1.3-.8 1.8-1.4s.8-1.4.8-2.5h-2.7v-1.4zm4.4 0h3.1v-2.9h-3.1z" fill="#1b1b1b"/><path d="m113.2 468c-.6 1-1.4 2-2.3 2.7.9.4 2.1.7 3.6.9-.3.6-.7 1.1-1 1.7-1.6-.4-2.9-.9-4.1-1.6-1.2.7-2.5 1.2-4.1 1.7-.3-.5-.6-1-.9-1.5 1.3-.4 2.5-.8 3.5-1.3-.6-.5-1.1-1.1-1.6-1.8-.9 1.5-1.9 2.7-3.1 3.7-.2-.7-.3-1.4-.5-2 1.5-1.4 2.7-3.1 3.4-5h-2.9v-1.4c.2-.6.4-1.3.6-2l1.6.2c-.1.5-.3 1.1-.5 1.8h1.7c.2-.7.4-1.4.5-2.3l1.7.1-.5 2.2h3.3c-.4-.4-.9-.9-1.3-1.3l1-1c.7.5 1.3 1.1 1.8 1.5l-.7.8h2v1.4h-6.5c-.1.3-.2.7-.4 1.1h5.7zm-3.9 1.9c.8-.6 1.4-1.2 1.9-1.8h-3.6c.5.7 1.1 1.3 1.7 1.8z" fill="#1b1b1b"/><path d="m114.8 465.2h4v-.9h-3.1v-1.4h3.1v-1h1.6v1h2.8v1.3c.5-.5 1.1-1.1 1.5-1.7l1.2.9c-.6.7-1.1 1.3-1.7 1.8h2.2v1.4h-3.9c-.5.3-1 .6-1.5.9h4.1v6h-1.6v-.5h-5.5v.5h-1.6v-4.2c-.4.1-.8.2-1.2.4-.1-.4-.3-.9-.5-1.5 2.2-.4 3.9-.9 5.3-1.6h-5.2zm8.7 3.6h-5.5v.8h5.5zm-5.4 2.9h5.5v-.8h-5.5zm5.1-7.4h-2.7v.9h1.7c.3-.3.7-.6 1-.9z" fill="#1b1b1b"/><path d="m127 464.9h4.6c.1-.8.1-1.8.1-3h1.8c0 1.2-.1 2.1-.1 3h4.8v1.6h-4.7c.7 2.6 2.3 4.4 4.9 5.3-.6.6-1 1.2-1.3 1.6-2.1-1-3.6-2.6-4.4-4.8-.6 2-2.1 3.7-4.5 4.9-.3-.4-.8-.9-1.3-1.5 2.8-1.3 4.4-3.1 4.7-5.5h-4.6z" fill="#1b1b1b"/><path d="m145.9 461.9-.3.4c1 1.5 2.6 2.7 4.9 3.8-.4.5-.8 1-1.1 1.4-.6-.3-1.1-.6-1.6-1v.8h-6.3v-.9c-.5.3-1.1.7-1.6 1-.2-.3-.6-.8-1.1-1.4 2.6-1.3 4.3-2.7 5.1-4.2zm-6.7 6.4h10.8v1.5h-2.9c.7.9 1.5 1.9 2.4 3l-1.4.9c-.2-.2-.4-.5-.5-.8-1.5 0-3.3.2-5.6.3-.3 0-.8.1-1.2.2l-.7-1.4c.7-.5 1.4-1.2 2.1-2.2h-2.9zm5.4-4.7c-.6.7-1.3 1.5-2.3 2.2h4.6c-1-.6-1.7-1.4-2.3-2.2zm1 6.8 1-.6h-2.5c-.4.5-.9 1.1-1.6 1.8.9 0 2.2 0 3.8-.1-.1-.4-.4-.8-.7-1.1z" fill="#1b1b1b"/><path d="m154.9 469.1h-3.5v-1.3h3.5z" fill="#1b1b1b"/><path d="m158.4 473.5h-1.7v-11.2h1.7zm1.3-.1v-11h7.4v11h-1.7v-.7h-4v.7zm5.6-9.5h-4v2.8h4zm-3.9 7.2h4v-2.9h-4z" fill="#1b1b1b"/><path d="m168.3 471.7h2.5c-.3-.4-.7-.9-1.2-1.5l1.4-.8c.4.5.8 1 1.3 1.6l-1.1.7h1.8v-2.3h-3.7v-1.4h3.7v-1h-2.2v-1c-.6.4-1.2.7-1.8 1.1-.3-.5-.6-1-1-1.5 2.4-1 4.1-2.2 5.2-3.6h2.4l-.5.5c1.2 1.3 2.8 2.2 4.8 2.9-.4.6-.7 1.1-.9 1.6-.6-.3-1.2-.6-1.8-.9v1h-2.3v1h3.7v1.4h-1.8l1.4.8c-.4.5-.8 1.1-1.2 1.5h2.5v1.4h-11zm5.5-8.2c-.7.7-1.5 1.4-2.4 2.1h4.9c-1-.6-1.8-1.3-2.5-2.1zm2.8 5.9h-1.9v2.3h1.8l-1.1-.6c.4-.6.8-1.1 1.2-1.7z" fill="#1b1b1b"/><path d="m189.2 473.5v-.9h-8.5v-8.4h1.7v6.8h2.5v-9h1.8v9h2.5v-6.8h1.7v9.3z" fill="#1b1b1b"/><g opacity=".38"><path d="m59.6 506.8c0-.5-.2-.9-.5-1.2s-.7-.4-1.3-.4c-.4 0-.8.1-1.1.3s-.7.5-1.1.8v-1.1c.3-.3.6-.5 1-.7s.8-.2 1.3-.2c.8 0 1.5.2 2 .7s.8 1 .8 1.8c0 .7-.2 1.2-.5 1.7s-.8 1-1.6 1.5-1.3.9-1.5 1.1-.4.4-.5.7-.2.5-.2.8h4.6v1h-5.7v-.5c0-.5.1-1 .2-1.3s.4-.7.7-1.1.8-.8 1.5-1.2c.7-.5 1.2-.9 1.5-1.3s.4-.9.4-1.4z"/><path d="m62.1 509.2c0-1.6.3-2.8.8-3.6s1.3-1.2 2.3-1.2c1.9 0 2.9 1.5 2.9 4.7 0 1.5-.3 2.7-.8 3.5s-1.3 1.2-2.3 1.2c-.9 0-1.6-.4-2.1-1.2s-.8-2-.8-3.4zm1.2-.1c0 2.4.6 3.6 1.8 3.6s1.8-1.2 1.8-3.7-.6-3.8-1.8-3.8c-1.2.1-1.8 1.3-1.8 3.9z"/><path d="m72 513.5v-7.8c-.2.2-.5.4-.9.6s-.8.4-1.2.5v-1.1c.5-.1 1-.3 1.5-.6s1-.6 1.3-.8h.4v9.3z"/><path d="m76.3 511c0-.5.2-1 .5-1.5s.7-.8 1.2-.9c-.4-.2-.7-.5-.9-.9s-.3-.7-.3-1.1.1-.8.3-1.2.5-.6.9-.8.8-.3 1.3-.3.9.1 1.3.3.7.5.9.8.3.8.3 1.2-.1.8-.3 1.1-.5.6-.9.9c.5.2.9.5 1.2 1s.5.9.5 1.4-.1 1-.4 1.4-.6.7-1.1 1-1 .3-1.5.3c-.6 0-1.1-.1-1.5-.3s-.8-.5-1.1-1-.4-.9-.4-1.4zm1.1 0c0 .5.2 1 .5 1.3s.8.5 1.3.5 1-.2 1.3-.5.5-.8.5-1.3-.2-.9-.5-1.3-.8-.5-1.3-.5-1 .2-1.3.5-.5.7-.5 1.3zm.3-4.3c0 .4.1.8.4 1s.6.4 1.1.4c.4 0 .8-.2 1.1-.4s.4-.6.4-1-.1-.8-.4-1-.7-.4-1.1-.4-.8.1-1.1.4-.4.6-.4 1z"/><path d="m82.9 511.1h1.9v-3.3h4.2v-2.1h-3.4c-.5 1-1.1 1.8-1.8 2.6-.2-.2-.4-.4-.7-.7 1.1-1.2 1.9-2.7 2.5-4.2l1 .3c-.2.4-.3.8-.5 1.1h7.9v.8h-4.1v2.1h3.9v.8h-3.9v2.5h4.6v.8h-4.6v3.2h-.9v-3h-6zm2.9 0h3.2v-2.5h-3.2z"/><path d="m100.9 510.7c0 .9-.3 1.6-.9 2.1s-1.4.8-2.4.8c-.8 0-1.5-.1-1.9-.4v-1.2c.6.4 1.2.6 1.9.6.6 0 1.1-.2 1.5-.5s.6-.8.6-1.4-.2-1-.6-1.3-1-.5-1.7-.5c-.6 0-1.1 0-1.5.1l.3-4.6h4.2v1h-3.3l-.1 2.6h.8c1 0 1.7.2 2.3.7s.8 1.2.8 2z"/><path d="m104.8 511.1c-.2 1.5-.8 2.9-1.8 4.1-.2-.2-.5-.5-.8-.7.8-.8 1.3-1.8 1.5-2.9.2-.8.3-2 .3-3.5v-4h7.8v9.1c0 1.2-.6 1.7-1.7 1.7-.5 0-1.1 0-1.8 0 0-.3-.1-.6-.2-1 .7 0 1.3.1 1.7.1.6 0 .9-.3.9-.9v-2zm.1-.8h6v-2.3h-5.9c-.1.8-.1 1.5-.1 2.3zm0-5.4v2.2h5.9v-2.2z"/></g><path d="m63.7 533.9h-2l-3.8-5.9c-.2-.3-.3-.5-.4-.7v1.5 5.2h-1.8v-9.1h2.1l3.7 5.7c.2.4.4.6.5.7 0-.2-.1-.6-.1-1.2v-5.2h1.8z" fill="#1b1b1b"/><path d="m71.4 531.2h-4.3c.1 1 .7 1.5 1.8 1.5.7 0 1.3-.2 1.9-.5v1.4c-.6.3-1.4.5-2.3.5-1 0-1.8-.3-2.4-.9s-.9-1.4-.9-2.4.3-1.9.9-2.5 1.4-1 2.3-1 1.6.3 2.2.8.8 1.3.8 2.3zm-1.8-1.2c0-1-.4-1.5-1.2-1.5-.3 0-.6.1-.9.4s-.4.6-.5 1h2.6z" fill="#1b1b1b"/><path d="m72.2 530.7c0-1.1.3-1.9 1-2.5s1.5-.9 2.6-.9c1 0 1.9.3 2.5.9s.9 1.4.9 2.4c0 1.1-.3 1.9-.9 2.5s-1.5.9-2.6.9-1.9-.3-2.5-.9-1-1.4-1-2.4zm1.9 0c0 1.3.5 1.9 1.6 1.9 1 0 1.5-.7 1.5-2s-.5-1.9-1.5-1.9c-.5 0-.9.2-1.2.5s-.4.8-.4 1.5z" fill="#1b1b1b"/><path d="m84.4 528h2.5v-1.3h-2.6l.4.2c-1 1.5-1.8 2.7-2.5 3.6.6-.1 1.2-.1 1.8-.2-.1.5-.1 1-.1 1.5-1.7.2-2.9.4-3.5.5l-.5-1.3c.5-.4 1.1-1.2 1.8-2.2-.6 0-1.1.1-1.5.2l-.4-1.3c.6-.8 1.3-2 2-3.8l1.6.6c-.6 1.2-1.2 2.2-1.8 3.1h1.1l.7-1.2.8.4v-1.3h2.8v-1.5h1.6v1.5h2.9v1.4h-2.9v1.3h2.6v1.4h-6.7v-1.6zm-4.3 6.9-.3-1.6c1.3-.2 2.8-.4 4.3-.6-.1.7-.1 1.2-.1 1.6-1.3.2-2.7.4-3.9.6zm4.4.6v-5h6.4v5h-1.6v-.7h-3.3v.7zm4.8-3.6h-3.3v1.5h3.3z" fill="#1b1b1b"/><path d="m91.8 530.7c.6-.9 1.1-2 1.4-3.1h-1.3v-1.4h1.4v-2.2h1.5v2.3h1.2v.6c.6-.8 1.1-1.8 1.5-2.8l1.6.1c-.1.4-.3.8-.5 1.1h4.4v4.5s0 2.3-.1 3.1-.2 1.3-.5 1.8-.8.6-1.2.7-1.3.1-2.6 0c-.1-.6-.2-1.2-.3-1.6.8.1 1.5.1 2.1.1.3 0 .6-.1.8-.3s.3-.6.3-1.2l-.8.4-.2-.5c-1.9.1-3.2.3-4.1.5l-.5-1.3c.6-.5 1.3-1.8 2.2-4l1.5.6-1.8 3.1 2.1-.1c-.3-.5-.5-1-.8-1.5l1.2-.6c.4.7.9 1.5 1.3 2.3 0-1.2 0-2.7 0-4.4h-3.6c-.4.7-.8 1.3-1.3 1.9-.3-.4-.7-.7-1-1h-.7v.7c.6.5 1.1 1 1.6 1.5l-1 1c-.2-.3-.4-.6-.6-.8v5.5h-1.5v-5c-.3.8-.7 1.6-1.2 2.3-.2-.7-.4-1.4-.5-2.3z" fill="#1b1b1b"/><path d="m103.8 534h5v-.6h-4.3v-1h4.3v-.6h-3.8v-4.1h3.9v-.6h-5v-1h5v-.6l-4 .1c-.1-.3-.1-.7-.2-1 3.3 0 6.6-.1 9.7-.3 0 0 .1.4.2 1.1l-4.2.1v.6h5.1v1h-5.1v.6h3.9v4.1h-3.9v.6h4.3v1h-4.3v.6h5.1v1h-11.6v-1zm2.7-4.6h2.3v-.7h-2.3zm0 1.5h2.3v-.7h-2.3zm6.3-2.2h-2.4v.7h2.4zm0 2.2v-.7h-2.4v.7z" fill="#1b1b1b"/><path d="m116.1 535-.3-1.6c1.4-.2 2.8-.3 4.3-.5v.7h.6v-6.7c-.9 1.4-1.7 2.7-2.5 3.8l2.1-.2c-.1.6-.1 1-.1 1.4-2 .2-3.2.4-3.6.5l-.6-1.4c.4-.2 1-1 1.8-2.2-.8 0-1.3.1-1.5.2l-.5-1.4c.4-.3 1.1-1.5 2.2-3.8l1.5.6c-.6 1.1-1.3 2.2-1.8 3.1h1c.3-.4.5-.9.8-1.4l1.3.6v-2.3h6v9.1h.7v1.5h-7.6v-.6zm9-9.1h-2.8v1.5h2.8zm-2.8 4.6h2.8v-1.5h-2.8zm0 3h2.8v-1.5h-2.8z" fill="#1b1b1b"/><path d="m140.3 533.9h-2l-3.8-5.9c-.2-.3-.3-.5-.4-.7 0 .3.1.8.1 1.5v5.2h-1.8v-9.1h2.1l3.7 5.7c.2.4.4.6.4.7 0-.2-.1-.6-.1-1.2v-5.2h1.8z" fill="#1b1b1b"/><path d="m149.8 533.3c-.9.5-2 .8-3.3.8-1.4 0-2.6-.4-3.4-1.2s-1.2-1.9-1.2-3.3.5-2.6 1.4-3.5 2.1-1.3 3.6-1.3c1 0 1.8.1 2.5.4v1.8c-.7-.4-1.6-.6-2.6-.6-.9 0-1.6.3-2.1.9s-.8 1.3-.8 2.3.2 1.7.7 2.2 1.2.8 2 .8c.5 0 .9-.1 1.2-.2v-1.9h-1.8v-1.5h3.8z" fill="#1b1b1b"/><path d="m151.6 533.9v-9.1h3.1c3.2 0 4.8 1.5 4.8 4.4 0 1.4-.4 2.5-1.4 3.4s-2.1 1.3-3.5 1.3zm1.9-7.5v5.9h1.1c.9 0 1.6-.3 2.2-.8s.8-1.3.8-2.2-.3-1.6-.8-2.1-1.3-.8-2.1-.8z" fill="#1b1b1b"/><path d="m163.1 533.9c-.1-.7-.2-1.2-.3-1.7.4.1.7.1.9.1.4 0 .7-.2.7-.6s.1-1 .1-1.6h-1.7c0 2.4-.4 4.2-1.1 5.5-.4-.4-.9-.8-1.4-1.2.6-1 1-2.6 1-4.5v-4h5.5l-.1-1.9h1.7v1.9h1.6c-.2-.3-.5-.7-1-1.2l1.2-.7c.3.3.7.8 1.2 1.4l-.9.5h1.3v1.4h-3.4c0 1.2.1 2.3.2 3.2.5-.8 1-1.7 1.4-2.6l1.4.7c-.7 1.5-1.5 2.9-2.3 4 .3.8.6 1.1.8 1.1.1 0 .2-.1.2-.2s.1-.4.2-.8.1-.8.1-1.2c.4.2.9.4 1.5.7 0 .4-.1 1-.3 1.7s-.4 1.1-.7 1.3-.6.3-.9.3c-.9 0-1.6-.5-2.1-1.6-.6.6-1.2 1.2-1.8 1.6-.4-.5-.8-.9-1.2-1.2.9-.6 1.6-1.3 2.4-2.2-.3-1.2-.5-2.8-.6-4.8h-4v1.4h3.3c0 .1 0 .8-.1 2s-.1 2-.3 2.3-.4.5-.6.7-.9.2-1.9.2z" fill="#1b1b1b"/><path d="m172.3 533.5h5.9c.9-1.8 1.8-3.8 2.5-5.8l1.7.6c-.7 1.8-1.5 3.5-2.4 5.3h3.7v1.6h-11.5v-1.7zm.3-7.6h4.8c-.2-.4-.5-.9-.8-1.4l1.6-.7c.4.6.8 1.2 1.1 1.7l-.8.4h5v1.5h-10.9zm2.6 1.7c.8 1.8 1.5 3.4 2.1 5l-1.7.6c-.6-1.7-1.2-3.4-1.9-5z" fill="#1b1b1b"/><g opacity=".38"><path d="m59.6 568.8c0-.5-.2-.9-.5-1.2s-.7-.4-1.3-.4c-.4 0-.8.1-1.1.3s-.7.5-1.1.8v-1.1c.3-.3.6-.5 1-.7s.8-.2 1.3-.2c.8 0 1.5.2 2 .7s.8 1 .8 1.8c0 .7-.2 1.2-.5 1.7s-.8 1-1.6 1.5-1.3.9-1.5 1.1-.4.4-.5.7-.2.5-.2.8h4.6v1h-5.7v-.5c0-.5.1-1 .2-1.3s.4-.7.7-1.1.8-.8 1.5-1.2c.7-.5 1.2-.9 1.5-1.3s.4-.9.4-1.4z"/><path d="m62.1 571.2c0-1.6.3-2.8.8-3.6s1.3-1.2 2.3-1.2c1.9 0 2.9 1.5 2.9 4.7 0 1.5-.3 2.7-.8 3.5s-1.3 1.2-2.3 1.2c-.9 0-1.6-.4-2.1-1.2s-.8-2-.8-3.4zm1.2-.1c0 2.4.6 3.6 1.8 3.6s1.8-1.2 1.8-3.7-.6-3.8-1.8-3.8c-1.2.1-1.8 1.3-1.8 3.9z"/><path d="m72 575.5v-7.8c-.2.2-.5.4-.9.6s-.8.4-1.2.5v-1.1c.5-.1 1-.3 1.5-.6s1-.6 1.3-.8h.4v9.3z"/><path d="m76.3 573c0-.5.2-1 .5-1.5s.7-.8 1.2-.9c-.4-.2-.7-.5-.9-.9s-.3-.7-.3-1.1.1-.8.3-1.2.5-.6.9-.8.8-.3 1.3-.3.9.1 1.3.3.7.5.9.8.3.8.3 1.2-.1.8-.3 1.1-.5.6-.9.9c.5.2.9.5 1.2 1s.5.9.5 1.4-.1 1-.4 1.4-.6.7-1.1 1-1 .3-1.5.3c-.6 0-1.1-.1-1.5-.3s-.8-.5-1.1-1-.4-.9-.4-1.4zm1.1 0c0 .5.2 1 .5 1.3s.8.5 1.3.5 1-.2 1.3-.5.5-.8.5-1.3-.2-.9-.5-1.3-.8-.5-1.3-.5-1 .2-1.3.5-.5.7-.5 1.3zm.3-4.3c0 .4.1.8.4 1s.6.4 1.1.4c.4 0 .8-.2 1.1-.4s.4-.6.4-1-.1-.8-.4-1-.7-.4-1.1-.4-.8.1-1.1.4-.4.6-.4 1z"/><path d="m82.9 573.1h1.9v-3.3h4.2v-2.1h-3.4c-.5 1-1.1 1.8-1.8 2.6-.2-.2-.4-.4-.7-.7 1.1-1.2 1.9-2.7 2.5-4.2l1 .3c-.2.4-.3.8-.5 1.1h7.9v.8h-4.1v2.1h3.9v.8h-3.9v2.5h4.6v.8h-4.6v3.2h-.9v-3h-6zm2.9 0h3.2v-2.5h-3.2z"/><path d="m100.7 567.6c-.5-.2-1-.4-1.5-.4-.8 0-1.4.3-1.9 1s-.7 1.6-.7 2.8c.4-.8 1.1-1.2 2.1-1.2.8 0 1.4.3 1.9.8s.7 1.2.7 2c0 .9-.3 1.6-.8 2.2s-1.2.9-2.1.9-1.7-.4-2.2-1.1-.8-1.7-.8-3.1c0-1.6.3-2.9 1-3.8s1.6-1.4 2.7-1.4c.6 0 1.2.1 1.5.3zm-4 5c0 .6.2 1.1.5 1.5s.7.6 1.3.6c.5 0 .9-.2 1.2-.5s.5-.8.5-1.4-.2-1.1-.4-1.5-.7-.5-1.3-.5c-.5 0-.9.2-1.2.5s-.6.8-.6 1.3z"/><path d="m104.8 573.1c-.2 1.5-.8 2.9-1.8 4.1-.2-.2-.5-.5-.8-.7.8-.8 1.3-1.8 1.5-2.9.2-.8.3-2 .3-3.5v-4h7.8v9.1c0 1.2-.6 1.7-1.7 1.7-.5 0-1.1 0-1.8 0 0-.3-.1-.6-.2-1 .7 0 1.3.1 1.7.1.6 0 .9-.3.9-.9v-2zm.1-.8h6v-2.3h-5.9c-.1.8-.1 1.5-.1 2.3zm0-5.4v2.2h5.9v-2.2z"/></g><path d="m63.7 595.9h-2l-3.8-5.9c-.2-.3-.3-.5-.4-.7v1.5 5.2h-1.8v-9.1h2.1l3.7 5.7c.2.4.4.6.5.7 0-.2-.1-.6-.1-1.2v-5.2h1.8z" fill="#1b1b1b"/><path d="m71.4 593.2h-4.3c.1 1 .7 1.5 1.8 1.5.7 0 1.3-.2 1.9-.5v1.4c-.6.3-1.4.5-2.3.5-1 0-1.8-.3-2.4-.9s-.9-1.4-.9-2.4.3-1.9.9-2.5 1.4-1 2.3-1 1.6.3 2.2.8.8 1.3.8 2.3zm-1.8-1.2c0-1-.4-1.5-1.2-1.5-.3 0-.6.1-.9.4s-.4.6-.5 1h2.6z" fill="#1b1b1b"/><path d="m72.2 592.7c0-1.1.3-1.9 1-2.5s1.5-.9 2.6-.9c1 0 1.9.3 2.5.9s.9 1.4.9 2.4c0 1.1-.3 1.9-.9 2.5s-1.5.9-2.6.9-1.9-.3-2.5-.9-1-1.4-1-2.4zm1.9 0c0 1.3.5 1.9 1.6 1.9 1 0 1.5-.7 1.5-2s-.5-1.9-1.5-1.9c-.5 0-.9.2-1.2.5s-.4.8-.4 1.5z" fill="#1b1b1b"/><path d="m80.6 593.9c.6.5 1.3.7 2.1.7.5 0 .9-.1 1.2-.3s.4-.5.4-1c0-.4-.2-.8-.5-1s-.9-.3-1.5-.3h-.8v-1.5h.7c1.2 0 1.8-.4 1.8-1.2s-.5-1.2-1.4-1.2c-.6 0-1.2.2-1.8.6v-1.6c.6-.3 1.4-.5 2.2-.5.9 0 1.6.2 2.1.6s.8 1 .8 1.7c0 1.2-.6 1.9-1.8 2.2.6.1 1.1.3 1.5.7s.6.9.6 1.4c0 .9-.3 1.5-.9 2s-1.5.7-2.5.7c-.9 0-1.7-.2-2.3-.5 0 .2 0-1.5.1-1.5z" fill="#1b1b1b"/><path d="m88.3 587.1h4c-.1-.3-.2-.6-.3-.9l1.8-.4c.2.4.3.8.5 1.2h3.8v4.2h-8.2c0 2.6-.5 4.6-1.5 6.1-.3-.4-.7-.8-1.2-1.4.8-1.3 1.1-2.9 1.1-4.9zm8.2 2.7v-1.3h-6.6v1.3zm-6.3 7.6v-5h7.8v5h-1.6v-.6h-4.6v.6zm6.2-3.6h-4.6v1.5h4.6z" fill="#1b1b1b"/><path d="m103.7 591.8 1.2 3c.5-1 .8-2.7.8-5.3h-1.2v-1.5h1.2v-2h1.6v2h3.1l-.1 6.6c0 .9-.1 1.5-.1 1.7s-.2.4-.3.6-.4.3-.6.4-1 .1-2.1.1c-.1-.6-.3-1.2-.4-1.8h1.3c.2 0 .4 0 .5-.1s.2-.2.2-.4.1-.8.1-1.8.1-2.3.1-3.8h-1.5c0 1.7-.1 3-.2 3.7s-.3 1.5-.7 2.3-.8 1.5-1.3 2c-.4-.3-.9-.7-1.4-1 .2-.2.4-.5.6-.7l-3.2.3c-.5.1-.9.1-1.1.2l-.7-1.4c.4-.3.9-1.6 1.5-3.7h-1.5v-1.5h5.4v1.5h-2.2c-.4 1.1-.8 2.2-1.2 3.3.7 0 1.3 0 1.9-.1-.3-.8-.6-1.5-.8-2.2zm.5-3.5h-4.5v-1.5h4.5z" fill="#1b1b1b"/><g opacity=".38"><path d="m59.6 630.8c0-.5-.2-.9-.5-1.2s-.7-.4-1.3-.4c-.4 0-.8.1-1.1.3s-.7.5-1.1.8v-1.1c.3-.3.6-.5 1-.7s.8-.2 1.3-.2c.8 0 1.5.2 2 .7s.8 1 .8 1.8c0 .7-.2 1.2-.5 1.7s-.8 1-1.6 1.5-1.3.9-1.5 1.1-.4.4-.5.7-.2.5-.2.8h4.6v1h-5.7v-.5c0-.5.1-1 .2-1.3s.4-.7.7-1.1.8-.8 1.5-1.2c.7-.5 1.2-.9 1.5-1.3s.4-.9.4-1.4z"/><path d="m62.1 633.2c0-1.6.3-2.8.8-3.6s1.3-1.2 2.3-1.2c1.9 0 2.9 1.5 2.9 4.7 0 1.5-.3 2.7-.8 3.5s-1.3 1.2-2.3 1.2c-.9 0-1.6-.4-2.1-1.2s-.8-2-.8-3.4zm1.2-.1c0 2.4.6 3.6 1.8 3.6s1.8-1.2 1.8-3.7-.6-3.8-1.8-3.8c-1.2.1-1.8 1.3-1.8 3.9z"/><path d="m72 637.5v-7.8c-.2.2-.5.4-.9.6s-.8.4-1.2.5v-1.1c.5-.1 1-.3 1.5-.6s1-.6 1.3-.8h.4v9.3z"/><path d="m76.8 636.3c.5.3 1 .4 1.6.4.8 0 1.4-.3 1.9-1s.7-1.5.7-2.7c-.4.8-1.1 1.1-2 1.1-.8 0-1.4-.3-1.9-.8s-.8-1.2-.8-2c0-.9.3-1.6.8-2.2s1.3-.9 2.1-.9c.9 0 1.6.3 2.1 1.1s.8 1.7.8 3.1c0 1.7-.3 3-1 3.9s-1.6 1.3-2.7 1.3c-.6 0-1.2-.1-1.6-.3zm.6-5.1c0 .6.2 1.1.5 1.5s.7.5 1.3.5c.5 0 .9-.2 1.2-.5s.5-.7.5-1.2c0-.7-.2-1.2-.5-1.6s-.8-.6-1.3-.6-.9.2-1.2.6-.5.8-.5 1.3z"/><path d="m82.9 635.1h1.9v-3.3h4.2v-2.1h-3.4c-.5 1-1.1 1.8-1.8 2.6-.2-.2-.4-.4-.7-.7 1.1-1.2 1.9-2.7 2.5-4.2l1 .3c-.2.4-.3.8-.5 1.1h7.9v.8h-4.1v2.1h3.9v.8h-3.9v2.5h4.6v.8h-4.6v3.2h-.9v-3h-6zm2.9 0h3.2v-2.5h-3.2z"/><path d="m99.7 630.8c0-.5-.2-.9-.5-1.2s-.7-.4-1.3-.4c-.4 0-.8.1-1.1.3s-.7.5-1.1.8v-1.1c.3-.3.6-.5 1-.7s.8-.2 1.3-.2c.8 0 1.5.2 2 .7s.8 1 .8 1.8c0 .7-.2 1.2-.5 1.7s-.8 1-1.6 1.5-1.3.9-1.5 1.1-.4.4-.5.7-.2.5-.2.8h4.5v1h-5.7v-.5c0-.5.1-1 .2-1.3s.4-.7.7-1.1.8-.8 1.5-1.2c.7-.5 1.2-.9 1.5-1.3s.5-.9.5-1.4z"/><path d="m104.8 635.1c-.2 1.5-.8 2.9-1.8 4.1-.2-.2-.5-.5-.8-.7.8-.8 1.3-1.8 1.5-2.9.2-.8.3-2 .3-3.5v-4h7.8v9.1c0 1.2-.6 1.7-1.7 1.7-.5 0-1.1 0-1.8 0 0-.3-.1-.6-.2-1 .7 0 1.3.1 1.7.1.6 0 .9-.3.9-.9v-2zm.1-.8h6v-2.3h-5.9c-.1.8-.1 1.5-.1 2.3zm0-5.4v2.2h5.9v-2.2z"/></g><path d="m56.7 647.9h1.6c-.1.3-.3.5-.4.8h2.9v1.1c.5-.6.8-1.2 1.1-1.9h1.6c-.1.3-.2.5-.3.8h3.1v1.1h-2c.2.2.5.4.7.7l-.7.6h1.3v3.2h-4.1v.7h4.6c0 1.9-.2 3-.3 3.2s-.4.4-.6.6-1.2.2-2.8.2c-.1-.5-.2-.9-.4-1.4 1 0 1.6.1 1.6.1.3 0 .5 0 .6-.1s.2-.2.3-.3.1-.4.1-.8h-3v3.2h-1.6v-2.9c-1 1.1-2.4 2.1-4.2 2.8-.2-.4-.5-.9-.9-1.4 1.4-.5 2.6-1 3.5-1.7h-2.8l.4-3.5h3.9v-.7h-4v-1c-.1.1-.2.2-.3.2-.3-.4-.6-.7-.9-1.1.8-.7 1.5-1.6 2-2.5zm1 2.3.5-.4h-1c-.3.5-.7.9-1.1 1.2h2.4c-.2-.2-.5-.5-.8-.8zm-.5 4.8h2.7v-.7h-2.5zm1.8-5.2c.3.2.5.5.8.7l-.6.5h2.4c-.4-.3-.8-.5-1.2-.8.1-.1.2-.3.3-.4zm5 3.2v-.7h-2.5v.7zm-2.3-2h2.2c-.3-.3-.6-.6-.9-.9l.4-.3h-.8c-.3.4-.6.9-.9 1.2z" fill="#1b1b1b"/><path d="m66.9 656.5h11.3v1.8h-11.3zm.9-7.3h9.6v1.8h-9.6z" fill="#1b1b1b"/><path d="m79.9 648.4h9.9v3.7h-8.2c0 2.2-.2 3.8-.4 4.8s-.6 1.8-1.1 2.5c-.5-.6-.9-1-1.3-1.4.3-.5.6-1.1.8-1.8s.3-2.1.3-4zm8.2 2.3v-1h-6.6v1zm-6.3 8.8v-6.5h3.2v-.8h1.6v.8h3.2v6.5h-1.6v-.6h-4.8v.6zm1.6-4.1h1.6v-1h-1.6zm0 2.2h1.6v-1h-1.6zm4.8-3.3h-1.6v1h1.6zm-1.6 3.3h1.6v-1h-1.6z" fill="#1b1b1b"/><path d="m90.8 653h2.7v-2.9h-2.1v-1.5h10.5v1.5h-1.9v2.9h2.4v1.5h-2.4v4.8h-1.7v-4.8h-3.1c-.1 1.4-.3 2.5-.8 3.2s-1.2 1.3-2.1 1.8c-.4-.4-.9-.8-1.5-1.2.7-.4 1.3-.8 1.8-1.4s.8-1.4.8-2.5h-2.7v-1.4zm4.4 0h3.1v-2.9h-3.1z" fill="#1b1b1b"/><path d="m113.2 654c-.6 1-1.4 2-2.3 2.7.9.4 2.1.7 3.6.9-.3.6-.7 1.1-1 1.7-1.6-.4-2.9-.9-4.1-1.6-1.2.7-2.5 1.2-4.1 1.7-.3-.5-.6-1-.9-1.5 1.3-.4 2.5-.8 3.5-1.3-.6-.5-1.1-1.1-1.6-1.8-.9 1.5-1.9 2.7-3.1 3.7-.2-.7-.3-1.4-.5-2 1.5-1.4 2.7-3.1 3.4-5h-2.9v-1.4c.2-.6.4-1.3.6-2l1.6.2c-.1.5-.3 1.1-.5 1.8h1.7c.2-.7.4-1.4.5-2.3l1.7.1-.5 2.2h3.3c-.4-.4-.9-.9-1.3-1.3l1-1c.7.5 1.3 1.1 1.8 1.5l-.7.8h2v1.4h-6.5c-.1.3-.2.7-.4 1.1h5.7zm-3.9 1.9c.8-.6 1.4-1.2 1.9-1.8h-3.6c.5.7 1.1 1.3 1.7 1.8z" fill="#1b1b1b"/><path d="m114.8 651.2h4v-.9h-3.1v-1.4h3.1v-1h1.6v1h2.8v1.3c.5-.5 1.1-1.1 1.5-1.7l1.2.9c-.6.7-1.1 1.3-1.7 1.8h2.2v1.4h-3.9c-.5.3-1 .6-1.5.9h4.1v6h-1.6v-.5h-5.5v.5h-1.6v-4.2c-.4.1-.8.2-1.2.4-.1-.4-.3-.9-.5-1.5 2.2-.4 3.9-.9 5.3-1.6h-5.2zm8.7 3.6h-5.5v.8h5.5zm-5.4 2.9h5.5v-.8h-5.5zm5.1-7.4h-2.7v.9h1.7c.3-.3.7-.6 1-.9z" fill="#1b1b1b"/><path d="m127 650.9h4.6c.1-.8.1-1.8.1-3h1.8c0 1.2-.1 2.1-.1 3h4.8v1.6h-4.7c.7 2.6 2.3 4.4 4.9 5.3-.6.6-1 1.2-1.3 1.6-2.1-1-3.6-2.6-4.4-4.8-.6 2-2.1 3.7-4.5 4.9-.3-.4-.8-.9-1.3-1.5 2.8-1.3 4.4-3.1 4.7-5.5h-4.6z" fill="#1b1b1b"/><path d="m145.9 647.9-.3.4c1 1.5 2.6 2.7 4.9 3.8-.4.5-.8 1-1.1 1.4-.6-.3-1.1-.6-1.6-1v.8h-6.3v-.9c-.5.3-1.1.7-1.6 1-.2-.3-.6-.8-1.1-1.4 2.6-1.3 4.3-2.7 5.1-4.2zm-6.7 6.4h10.8v1.5h-2.9c.7.9 1.5 1.9 2.4 3l-1.4.9c-.2-.2-.4-.5-.5-.8-1.5 0-3.3.2-5.6.3-.3 0-.8.1-1.2.2l-.7-1.4c.7-.5 1.4-1.2 2.1-2.2h-2.9zm5.4-4.7c-.6.7-1.3 1.5-2.3 2.2h4.6c-1-.6-1.7-1.4-2.3-2.2zm1 6.8 1-.6h-2.5c-.4.5-.9 1.1-1.6 1.8.9 0 2.2 0 3.8-.1-.1-.4-.4-.8-.7-1.1z" fill="#1b1b1b"/><path d="m154.9 655.1h-3.5v-1.3h3.5z" fill="#1b1b1b"/><path d="m156.5 659.4v-8.1h3.1v-1.3h-3.5v-1.5h11.4v1.5h-3.7v1.3h3.2v8h-1.6v-.8h-7.3v.8h-1.6zm5.8-4.8v-1.8h-1.2c0 1.7-.6 3-1.7 3.9-.4-.4-.9-.7-1.3-1v1.4h7.3v-1.1h-1.8c-.8 0-1.3-.5-1.3-1.4zm-4.1 1.1c.9-.7 1.4-1.6 1.4-2.8h-1.4zm2.9-4.3h1.2v-1.4h-1.2zm4.3 1.4h-1.6v1.1c0 .4.2.6.6.6h1z" fill="#1b1b1b"/><path d="m167.9 656.6c.8-.8 1.4-1.7 1.9-2.7h-1.7v-1.2l.5-2.4h1.4l-.4 2.3h1v-2.9h-2.4v-1.3h4.6v1.3h-.8v1.6c.9-1 1.6-2.1 2.2-3.5l1.3.4c-.2.5-.4 1-.8 1.6h1.8c-.3-.6-.5-1.1-.8-1.4l1.2-.6c.4.5.7 1 1 1.6l-.9.4h2.4v1.3h-1.9v1.3h1.8v1.2h-1.8v1.3h1.8v1.2h-1.8v1.4h2v1.2h-5v.8h-1.4v-7.2c-.1.1-.2.2-.2.3-.3-.5-.6-.8-.8-1.1v1.2h.7v1.3h-.8v4.1c0 .5-.2.9-.5 1.1s-.8.3-1.5.3h-.7c-.1-.6-.2-1.1-.3-1.5.4 0 .8.1 1.1.1.4 0 .5-.2.5-.6v-2.5c-.5 1.2-1.2 2.3-2.1 3.2 0-.3-.2-.8-.6-1.6zm6.6-4.2h1.6v-1.3h-1.6zm0 2.5h1.6v-1.3h-1.6zm0 2.6h1.6v-1.4h-1.6z" fill="#1b1b1b"/><path d="m180.5 659.5v-11.1h10.6v11.1h-1.6v-.5h-7.4v.5zm3.8-9.7h-2.2v2c1-.6 1.7-1.3 2.2-2zm-1.4 3c-.2-.2-.5-.5-.8-.8v1.4c.9-.2 1.7-.3 2.4-.5-.3-.2-.6-.5-.8-.7-.2.2-.5.4-.8.6zm0 2.7c2.1.3 4 .6 5.8.9l-.3 1.3h1v-4.2c-.2.3-.4.6-.6 1.1-1.2-.2-2.2-.5-3-.8-.4.2-.9.3-1.4.5 1.3.2 2.6.3 3.8.6l-.2 1.1c-1.3-.2-2.7-.5-4.3-.7l.2-.8c-.4.1-.8.2-1.2.3-.1-.3-.3-.7-.6-1v4.1h6.3c-1.6-.3-3.5-.6-5.8-.9zm3-3.1c.6-.2 1-.5 1.3-.9h-2.5c.3.3.7.6 1.2.9zm3.1-1.9v1c-.4.5-.9 1-1.6 1.5.6.2 1.4.3 2.2.4v-3.5h-3.6c-.1.2-.3.4-.5.6z" fill="#1b1b1b"/><g opacity=".38"><path d="m59.6 692.8c0-.5-.2-.9-.5-1.2s-.7-.4-1.3-.4c-.4 0-.8.1-1.1.3s-.7.5-1.1.8v-1.1c.3-.3.6-.5 1-.7s.8-.2 1.3-.2c.8 0 1.5.2 2 .7s.8 1 .8 1.8c0 .7-.2 1.2-.5 1.7s-.8 1-1.6 1.5-1.3.9-1.5 1.1-.4.4-.5.7-.2.5-.2.8h4.6v1h-5.7v-.5c0-.5.1-1 .2-1.3s.4-.7.7-1.1.8-.8 1.5-1.2c.7-.5 1.2-.9 1.5-1.3s.4-.9.4-1.4z"/><path d="m62.1 695.2c0-1.6.3-2.8.8-3.6s1.3-1.2 2.3-1.2c1.9 0 2.9 1.5 2.9 4.7 0 1.5-.3 2.7-.8 3.5s-1.3 1.2-2.3 1.2c-.9 0-1.6-.4-2.1-1.2s-.8-2-.8-3.4zm1.2-.1c0 2.4.6 3.6 1.8 3.6s1.8-1.2 1.8-3.7-.6-3.8-1.8-3.8c-1.2.1-1.8 1.3-1.8 3.9z"/><path d="m72 699.5v-7.8c-.2.2-.5.4-.9.6s-.8.4-1.2.5v-1.1c.5-.1 1-.3 1.5-.6s1-.6 1.3-.8h.4v9.3z"/><path d="m76.8 698.3c.5.3 1 .4 1.6.4.8 0 1.4-.3 1.9-1s.7-1.5.7-2.7c-.4.8-1.1 1.1-2 1.1-.8 0-1.4-.3-1.9-.8s-.8-1.2-.8-2c0-.9.3-1.6.8-2.2s1.3-.9 2.1-.9c.9 0 1.6.3 2.1 1.1s.8 1.7.8 3.1c0 1.7-.3 3-1 3.9s-1.6 1.3-2.7 1.3c-.6 0-1.2-.1-1.6-.3zm.6-5.1c0 .6.2 1.1.5 1.5s.7.5 1.3.5c.5 0 .9-.2 1.2-.5s.5-.7.5-1.2c0-.7-.2-1.2-.5-1.6s-.8-.6-1.3-.6-.9.2-1.2.6-.5.8-.5 1.3z"/><path d="m82.9 697.1h1.9v-3.3h4.2v-2.1h-3.4c-.5 1-1.1 1.8-1.8 2.6-.2-.2-.4-.4-.7-.7 1.1-1.2 1.9-2.7 2.5-4.2l1 .3c-.2.4-.3.8-.5 1.1h7.9v.8h-4.1v2.1h3.9v.8h-3.9v2.5h4.6v.8h-4.6v3.2h-.9v-3h-6zm2.9 0h3.2v-2.5h-3.2z"/><path d="m95.8 698.3c.5.3 1 .4 1.6.4.8 0 1.4-.3 1.9-1s.7-1.5.7-2.7c-.4.8-1.1 1.1-2 1.1-.8 0-1.4-.3-1.9-.8s-.8-1.2-.8-2c0-.9.3-1.6.8-2.2s1.3-.9 2.1-.9c.9 0 1.6.3 2.1 1.1s.8 1.7.8 3.1c0 1.7-.3 3-1 3.9s-1.6 1.3-2.7 1.3c-.6 0-1.2-.1-1.6-.3zm.7-5.1c0 .6.2 1.1.5 1.5s.7.5 1.3.5c.5 0 .9-.2 1.2-.5s.5-.7.5-1.2c0-.7-.2-1.2-.5-1.6s-.8-.6-1.3-.6-.9.2-1.2.6-.5.8-.5 1.3z"/><path d="m104.8 697.1c-.2 1.5-.8 2.9-1.8 4.1-.2-.2-.5-.5-.8-.7.8-.8 1.3-1.8 1.5-2.9.2-.8.3-2 .3-3.5v-4h7.8v9.1c0 1.2-.6 1.7-1.7 1.7-.5 0-1.1 0-1.8 0 0-.3-.1-.6-.2-1 .7 0 1.3.1 1.7.1.6 0 .9-.3.9-.9v-2zm.1-.8h6v-2.3h-5.9c-.1.8-.1 1.5-.1 2.3zm0-5.4v2.2h5.9v-2.2z"/></g><path d="m56.7 709.9h1.6c-.1.3-.3.5-.4.8h2.9v1.1c.5-.6.8-1.2 1.1-1.9h1.6c-.1.3-.2.5-.3.8h3.1v1.1h-2c.2.2.5.4.7.7l-.7.6h1.3v3.2h-4.1v.7h4.6c0 1.9-.2 3-.3 3.2s-.4.4-.6.6-1.2.2-2.8.2c-.1-.5-.2-.9-.4-1.4 1 0 1.6.1 1.6.1.3 0 .5 0 .6-.1s.2-.2.3-.3.1-.4.1-.8h-3v3.2h-1.6v-2.9c-1 1.1-2.4 2.1-4.2 2.8-.2-.4-.5-.9-.9-1.4 1.4-.5 2.6-1 3.5-1.7h-2.8l.4-3.5h3.9v-.7h-4v-1c-.1.1-.2.2-.3.2-.3-.4-.6-.7-.9-1.1.8-.7 1.5-1.6 2-2.5zm1 2.3.5-.4h-1c-.3.5-.7.9-1.1 1.2h2.4c-.2-.2-.5-.5-.8-.8zm-.5 4.8h2.7v-.7h-2.5zm1.8-5.2c.3.2.5.5.8.7l-.6.5h2.4c-.4-.3-.8-.5-1.2-.8.1-.1.2-.3.3-.4zm5 3.2v-.7h-2.5v.7zm-2.3-2h2.2c-.3-.3-.6-.6-.9-.9l.4-.3h-.8c-.3.4-.6.9-.9 1.2z" fill="#1b1b1b"/><path d="m66.9 714.8h11.3v1.7h-11.3z" fill="#1b1b1b"/><path d="m79.9 710.4h9.9v3.7h-8.2c0 2.2-.2 3.8-.4 4.8s-.6 1.8-1.1 2.5c-.5-.6-.9-1-1.3-1.4.3-.5.6-1.1.8-1.8s.3-2.1.3-4zm8.2 2.3v-1h-6.6v1zm-6.3 8.8v-6.5h3.2v-.8h1.6v.8h3.2v6.5h-1.6v-.6h-4.8v.6zm1.6-4.1h1.6v-1h-1.6zm0 2.2h1.6v-1h-1.6zm4.8-3.3h-1.6v1h1.6zm-1.6 3.3h1.6v-1h-1.6z" fill="#1b1b1b"/><path d="m99.7 719.9h-2l-3.8-5.9c-.2-.3-.3-.5-.4-.7 0 .3.1.8.1 1.5v5.2h-1.8v-9.1h2.1l3.7 5.7c.2.4.4.6.4.7 0-.2-.1-.6-.1-1.2v-5.2h1.8z" fill="#1b1b1b"/><path d="m107.4 717.2h-4.3c.1 1 .7 1.5 1.8 1.5.7 0 1.3-.2 1.9-.5v1.4c-.6.3-1.4.5-2.3.5-1 0-1.8-.3-2.4-.9s-.9-1.4-.9-2.4.3-1.9.9-2.5 1.4-1 2.3-1 1.6.3 2.2.8.8 1.3.8 2.3zm-1.8-1.2c0-1-.4-1.5-1.2-1.5-.3 0-.6.1-.9.4s-.4.6-.5 1h2.6z" fill="#1b1b1b"/><path d="m108.2 716.7c0-1.1.3-1.9 1-2.5s1.5-.9 2.6-.9c1 0 1.9.3 2.5.9s.9 1.4.9 2.4c0 1.1-.3 1.9-.9 2.5s-1.5.9-2.6.9-1.9-.3-2.5-.9-1-1.4-1-2.4zm1.9 0c0 1.3.5 1.9 1.6 1.9 1 0 1.5-.7 1.5-2s-.5-1.9-1.5-1.9c-.5 0-.9.2-1.2.5s-.4.8-.4 1.5z" fill="#1b1b1b"/><path d="m118.3 709.9c.3.4.7.9 1.1 1.5l-1.2.6h1.8v1.3c-.3.7-.7 1.4-1.1 2v.5l.6-.6 1.5 1.5-1.2 1c-.4-.5-.7-.9-1-1.2v4.9h-1.6v-4c-.3.4-.7.7-1.1 1-.2-.8-.3-1.4-.5-1.9 1-.9 1.8-1.9 2.4-3h-2v-1.5h2c-.4-.6-.7-1.1-1-1.5zm1.5 9.6h3.1v-4.8h-2.3v-1.5h2.3v-3.2h1.7v3.2h2.4v1.5h-2.4v4.8h2.8v1.5h-7.6z" fill="#1b1b1b"/><path d="m130.2 719.4h9.1v1.6h-10.8v-10.4h10.4v1.6h-8.7zm.4-5.9 1.1-1.2 2.6 2.3c.7-.8 1.3-1.5 1.9-2.4l1.4 1c-.6.9-1.3 1.7-2.1 2.5l2.6 2.4-1.4 1.2c-.8-.8-1.6-1.6-2.4-2.4-.9.9-1.8 1.7-2.8 2.4-.2-.2-.6-.7-1.2-1.2 1-.7 1.9-1.5 2.7-2.3-.6-.8-1.5-1.6-2.4-2.3z" fill="#1b1b1b"/><path d="m140 712.9h4.6c.1-.8.1-1.8.1-3h1.8c0 1.2-.1 2.1-.1 3h4.8v1.6h-4.7c.7 2.6 2.3 4.4 4.9 5.3-.6.6-1 1.2-1.3 1.6-2.1-1-3.6-2.6-4.4-4.8-.6 2-2.1 3.7-4.5 4.9-.3-.4-.8-.9-1.3-1.5 2.8-1.3 4.4-3.1 4.7-5.5h-4.6z" fill="#1b1b1b"/><path d="m158.9 709.9-.3.4c1 1.5 2.6 2.7 4.9 3.8-.4.5-.8 1-1.1 1.4-.6-.3-1.1-.6-1.6-1v.8h-6.3v-.9c-.5.3-1.1.7-1.6 1-.2-.3-.6-.8-1.1-1.4 2.6-1.3 4.3-2.7 5.1-4.2zm-6.6 6.4h10.7v1.5h-2.9c.7.9 1.5 1.9 2.4 3l-1.4.9c-.2-.2-.4-.5-.5-.8-1.5 0-3.3.2-5.6.3-.3 0-.8.1-1.2.2l-.7-1.4c.7-.5 1.4-1.2 2.1-2.2h-2.9zm5.3-4.7c-.6.7-1.3 1.5-2.3 2.2h4.6c-.9-.6-1.7-1.4-2.3-2.2zm1.1 6.8 1-.6h-2.5c-.4.5-.9 1.1-1.6 1.8.9 0 2.2 0 3.8-.1-.2-.4-.5-.8-.7-1.1z" fill="#1b1b1b"/><path d="m168 717.1h-3.5v-1.3h3.5z" fill="#1b1b1b"/><path d="m169.2 719.2h4.4v-9.2h1.9v3.2h4.3v1.7h-4.3v4.3h5.1v1.7h-11.3z" fill="#1b1b1b"/><path d="m182 713.1c.6.4 1.2.9 1.9 1.5l-1.1 1.3c-.2-.2-.8-.8-1.8-1.6zm.4 3.5c.5.2 1 .4 1.5.5-.4 1.3-.7 2.8-1.1 4.3-.5-.2-1-.3-1.6-.5.5-1.2.9-2.7 1.2-4.3zm0-6.6c.6.5 1.2 1 1.9 1.5l-1.1 1.2c-.5-.5-1.1-1.1-1.8-1.6zm1.3 5.7h1.1l.2-1.9c-.2.2-.4.4-.6.6-.3-.4-.6-.8-1-1.2 1.1-1 1.8-2.1 2.4-3.2l1.6.2c-.1.2-.2.5-.3.7h5.4v1.2h-6.1c-.2.3-.4.5-.6.8h6.1l-.1 2.8h.9v1.2h-1v1.6h.9v1.2h-.9c0 .6-.1 1-.4 1.2s-.6.4-1 .4-1.3.1-2.5.1c-.1-.4-.2-.8-.4-1.2h1.8c.2 0 .4 0 .6-.1s.3-.2.3-.5h-5.7l.3-2.8h-.9zm3.3 1.9.7-.7h-1.6l-.1 1.6h2.2c-.4-.3-.8-.6-1.2-.9zm0-2.9.7-.7h-1.3l-.2 1.7h2zm2.4 3.1-.7.7h1.5v-1.6h-2.2c.4.2.8.5 1.4.9zm0-2.9-.8.8h1.6v-1.7h-2.1c.3.3.7.6 1.3.9z" fill="#1b1b1b"/><g opacity=".38"><path d="m59.6 754.8c0-.5-.2-.9-.5-1.2s-.7-.4-1.3-.4c-.4 0-.8.1-1.1.3s-.7.5-1.1.8v-1.1c.3-.3.6-.5 1-.7s.8-.2 1.3-.2c.8 0 1.5.2 2 .7s.8 1 .8 1.8c0 .7-.2 1.2-.5 1.7s-.8 1-1.6 1.5-1.3.9-1.5 1.1-.4.4-.5.7-.2.5-.2.8h4.6v1h-5.7v-.5c0-.5.1-1 .2-1.3s.4-.7.7-1.1.8-.8 1.5-1.2c.7-.5 1.2-.9 1.5-1.3s.4-.9.4-1.4z"/><path d="m62.1 757.2c0-1.6.3-2.8.8-3.6s1.3-1.2 2.3-1.2c1.9 0 2.9 1.5 2.9 4.7 0 1.5-.3 2.7-.8 3.5s-1.3 1.2-2.3 1.2c-.9 0-1.6-.4-2.1-1.2s-.8-2-.8-3.4zm1.2-.1c0 2.4.6 3.6 1.8 3.6s1.8-1.2 1.8-3.7-.6-3.8-1.8-3.8c-1.2.1-1.8 1.3-1.8 3.9z"/><path d="m72 761.5v-7.8c-.2.2-.5.4-.9.6s-.8.4-1.2.5v-1.1c.5-.1 1-.3 1.5-.6s1-.6 1.3-.8h.4v9.3z"/><path d="m76.8 760.3c.5.3 1 .4 1.6.4.8 0 1.4-.3 1.9-1s.7-1.5.7-2.7c-.4.8-1.1 1.1-2 1.1-.8 0-1.4-.3-1.9-.8s-.8-1.2-.8-2c0-.9.3-1.6.8-2.2s1.3-.9 2.1-.9c.9 0 1.6.3 2.1 1.1s.8 1.7.8 3.1c0 1.7-.3 3-1 3.9s-1.6 1.3-2.7 1.3c-.6 0-1.2-.1-1.6-.3zm.6-5.1c0 .6.2 1.1.5 1.5s.7.5 1.3.5c.5 0 .9-.2 1.2-.5s.5-.7.5-1.2c0-.7-.2-1.2-.5-1.6s-.8-.6-1.3-.6-.9.2-1.2.6-.5.8-.5 1.3z"/><path d="m82.9 759.1h1.9v-3.3h4.2v-2.1h-3.4c-.5 1-1.1 1.8-1.8 2.6-.2-.2-.4-.4-.7-.7 1.1-1.2 1.9-2.7 2.5-4.2l1 .3c-.2.4-.3.8-.5 1.1h7.9v.8h-4.1v2.1h3.9v.8h-3.9v2.5h4.6v.8h-4.6v3.2h-.9v-3h-6zm2.9 0h3.2v-2.5h-3.2z"/><path d="m95.8 760.3c.5.3 1 .4 1.6.4.8 0 1.4-.3 1.9-1s.7-1.5.7-2.7c-.4.8-1.1 1.1-2 1.1-.8 0-1.4-.3-1.9-.8s-.8-1.2-.8-2c0-.9.3-1.6.8-2.2s1.3-.9 2.1-.9c.9 0 1.6.3 2.1 1.1s.8 1.7.8 3.1c0 1.7-.3 3-1 3.9s-1.6 1.3-2.7 1.3c-.6 0-1.2-.1-1.6-.3zm.7-5.1c0 .6.2 1.1.5 1.5s.7.5 1.3.5c.5 0 .9-.2 1.2-.5s.5-.7.5-1.2c0-.7-.2-1.2-.5-1.6s-.8-.6-1.3-.6-.9.2-1.2.6-.5.8-.5 1.3z"/><path d="m104.8 759.1c-.2 1.5-.8 2.9-1.8 4.1-.2-.2-.5-.5-.8-.7.8-.8 1.3-1.8 1.5-2.9.2-.8.3-2 .3-3.5v-4h7.8v9.1c0 1.2-.6 1.7-1.7 1.7-.5 0-1.1 0-1.8 0 0-.3-.1-.6-.2-1 .7 0 1.3.1 1.7.1.6 0 .9-.3.9-.9v-2zm.1-.8h6v-2.3h-5.9c-.1.8-.1 1.5-.1 2.3zm0-5.4v2.2h5.9v-2.2z"/></g><g fill="#1b1b1b"><path d="m63.7 781.9h-2l-3.8-5.9c-.2-.3-.3-.5-.4-.7v1.5 5.2h-1.8v-9.1h2.1l3.7 5.7c.2.4.4.6.5.7 0-.2-.1-.6-.1-1.2v-5.2h1.8z"/><path d="m71.4 779.2h-4.3c.1 1 .7 1.5 1.8 1.5.7 0 1.3-.2 1.9-.5v1.4c-.6.3-1.4.5-2.3.5-1 0-1.8-.3-2.4-.9s-.9-1.4-.9-2.4.3-1.9.9-2.5 1.4-1 2.3-1 1.6.3 2.2.8.8 1.3.8 2.3zm-1.8-1.2c0-1-.4-1.5-1.2-1.5-.3 0-.6.1-.9.4s-.4.6-.5 1h2.6z"/><path d="m72.2 778.7c0-1.1.3-1.9 1-2.5s1.5-.9 2.6-.9c1 0 1.9.3 2.5.9s.9 1.4.9 2.4c0 1.1-.3 1.9-.9 2.5s-1.5.9-2.6.9-1.9-.3-2.5-.9-1-1.4-1-2.4zm1.9 0c0 1.3.5 1.9 1.6 1.9 1 0 1.5-.7 1.5-2s-.5-1.9-1.5-1.9c-.5 0-.9.2-1.2.5s-.4.8-.4 1.5z"/><path d="m80.6 779.9c.6.5 1.3.7 2.1.7.5 0 .9-.1 1.2-.3s.4-.5.4-1c0-.4-.2-.8-.5-1s-.9-.3-1.5-.3h-.8v-1.5h.7c1.2 0 1.8-.4 1.8-1.2s-.5-1.2-1.4-1.2c-.6 0-1.2.2-1.8.6v-1.6c.6-.3 1.4-.5 2.2-.5.9 0 1.6.2 2.1.6s.8 1 .8 1.7c0 1.2-.6 1.9-1.8 2.2.6.1 1.1.3 1.5.7s.6.9.6 1.4c0 .9-.3 1.5-.9 2s-1.5.7-2.5.7c-.9 0-1.7-.2-2.3-.5 0 .2 0-1.5.1-1.5z"/><path d="m93.6 778.7v3.2h-1.9v-9.1h3.1c2.3 0 3.4 1 3.4 2.9 0 .9-.3 1.7-1 2.2s-1.5.8-2.6.8zm0-4.4v2.9h.8c1.1 0 1.7-.5 1.7-1.5s-.6-1.5-1.7-1.5h-.8z"/><path d="m103.5 777.1c-.2-.1-.5-.2-.8-.2-.4 0-.8.2-1 .5s-.4.8-.4 1.3v3.1h-1.9v-6.5h1.9v1.2c.3-.9.9-1.3 1.7-1.3.2 0 .4 0 .5.1z"/><path d="m110.1 779.2h-4.3c.1 1 .7 1.5 1.8 1.5.7 0 1.3-.2 1.9-.5v1.4c-.6.3-1.4.5-2.3.5-1 0-1.8-.3-2.4-.9s-.9-1.4-.9-2.4.3-1.9.9-2.5 1.4-1 2.3-1 1.6.3 2.2.8.8 1.3.8 2.3zm-1.7-1.2c0-1-.4-1.5-1.2-1.5-.3 0-.6.1-.9.4s-.4.6-.5 1h2.6z"/><path d="m117.4 775.4-2.4 6.5h-2.1l-2.3-6.5h2l1.2 4.1c.1.5.2.8.2 1.1 0-.3.1-.7.2-1.1l1.2-4.1z"/><path d="m118.1 773.3c0-.3.1-.5.3-.7s.5-.3.8-.3.6.1.8.3.3.4.3.7-.1.5-.3.7-.5.3-.8.3-.6-.1-.8-.3-.3-.4-.3-.7zm.2 8.6v-6.5h1.9v6.5z"/><path d="m127.6 779.2h-4.3c.1 1 .7 1.5 1.8 1.5.7 0 1.3-.2 1.9-.5v1.4c-.6.3-1.4.5-2.3.5-1 0-1.8-.3-2.4-.9s-.9-1.4-.9-2.4.3-1.9.9-2.5 1.4-1 2.3-1 1.6.3 2.2.8.8 1.3.8 2.3zm-1.8-1.2c0-1-.4-1.5-1.2-1.5-.3 0-.6.1-.9.4s-.4.6-.5 1h2.6z"/><path d="m138.1 775.4-1.9 6.5h-2l-1-3.9c-.1-.3-.1-.5-.1-.8 0 .3-.1.6-.1.8l-1.1 3.9h-2l-1.9-6.5h1.9l.9 4.3c0 .2.1.4.1.7 0-.3.1-.5.1-.7l1.2-4.3h1.8l1 4.3c0 .1.1.4.1.7h.1c0-.2 0-.5.1-.7l.9-4.3z"/><path d="m143.3 772.6v9.3h-1.9v-7.1c-.2.2-.6.4-1 .5s-.8.3-1.1.3v-1.6c1.1-.3 2-.8 2.8-1.4z"/><path d="m159.8 778c-.6 1-1.4 2-2.3 2.7.9.4 2.1.7 3.6.9-.3.6-.7 1.1-1 1.7-1.6-.4-2.9-.9-4.1-1.6-1.1.7-2.5 1.2-4.1 1.7-.3-.5-.6-1-.9-1.5 1.3-.4 2.5-.8 3.5-1.3-.6-.5-1.1-1.1-1.6-1.8-.9 1.5-1.9 2.7-3.1 3.7-.2-.7-.3-1.4-.5-2 1.5-1.4 2.7-3.1 3.4-5h-2.9v-1.4c.2-.6.4-1.3.6-2l1.6.2c-.1.5-.3 1.1-.5 1.8h1.7c.2-.7.4-1.4.5-2.3l1.7.1-.5 2.2h3.3c-.4-.4-.9-.9-1.4-1.3l1-1c.7.5 1.3 1.1 1.8 1.5l-.7.8h2v1.4h-6.5c-.1.3-.2.7-.4 1.1h5.7zm-3.9 1.9c.8-.6 1.4-1.2 1.9-1.8h-3.6c.5.7 1 1.3 1.7 1.8z"/><path d="m168.5 783.5h-1.6v-5.4h-1.9v4.5h-1.6v-3.8c-.5.5-1 1-1.5 1.5-.2-.7-.4-1.2-.5-1.6 1.3-1.2 2.3-2.4 3-3.7h-2.9v-1.6h3.6c.2-.5.4-1 .5-1.4l1.6.2c-.1.4-.3.8-.4 1.2h6v1.6h-6.7c-.3.6-.7 1.2-1.1 1.8h1.8v-1.5h1.6v1.5h3.5v3.8c0 .5-.1.9-.3 1.2s-.5.5-.8.5-.9.1-1.6.1c-.1-.6-.2-1.2-.3-1.5h.7c.5 0 .8-.3.8-.8v-1.9h-1.9z"/></g><g opacity=".38"><path d="m59.6 815.8c0-.5-.2-.9-.5-1.2s-.7-.4-1.3-.4c-.4 0-.8.1-1.1.3s-.7.5-1.1.8v-1.1c.3-.3.6-.5 1-.7s.8-.2 1.3-.2c.8 0 1.5.2 2 .7s.8 1 .8 1.8c0 .7-.2 1.2-.5 1.7s-.8 1-1.6 1.5-1.3.9-1.5 1.1-.4.4-.5.7-.2.5-.2.8h4.6v1h-5.7v-.5c0-.5.1-1 .2-1.3s.4-.7.7-1.1.8-.8 1.5-1.2c.7-.5 1.2-.9 1.5-1.3s.4-.9.4-1.4z"/><path d="m62.1 818.2c0-1.6.3-2.8.8-3.6s1.3-1.2 2.3-1.2c1.9 0 2.9 1.5 2.9 4.7 0 1.5-.3 2.7-.8 3.5s-1.3 1.2-2.3 1.2c-.9 0-1.6-.4-2.1-1.2s-.8-2-.8-3.4zm1.2-.1c0 2.4.6 3.6 1.8 3.6s1.8-1.2 1.8-3.7-.6-3.8-1.8-3.8c-1.2.1-1.8 1.3-1.8 3.9z"/><path d="m72 822.5v-7.8c-.2.2-.5.4-.9.6s-.8.4-1.2.5v-1.1c.5-.1 1-.3 1.5-.6s1-.6 1.3-.8h.4v9.3z"/><path d="m76.8 821.3c.5.3 1 .4 1.6.4.8 0 1.4-.3 1.9-1s.7-1.5.7-2.7c-.4.8-1.1 1.1-2 1.1-.8 0-1.4-.3-1.9-.8s-.8-1.2-.8-2c0-.9.3-1.6.8-2.2s1.3-.9 2.1-.9c.9 0 1.6.3 2.1 1.1s.8 1.7.8 3.1c0 1.7-.3 3-1 3.9s-1.6 1.3-2.7 1.3c-.6 0-1.2-.1-1.6-.3zm.6-5.1c0 .6.2 1.1.5 1.5s.7.5 1.3.5c.5 0 .9-.2 1.2-.5s.5-.7.5-1.2c0-.7-.2-1.2-.5-1.6s-.8-.6-1.3-.6-.9.2-1.2.6-.5.8-.5 1.3z"/><path d="m82.9 820.1h1.9v-3.3h4.2v-2.1h-3.4c-.5 1-1.1 1.8-1.8 2.6-.2-.2-.4-.4-.7-.7 1.1-1.2 1.9-2.7 2.5-4.2l1 .3c-.2.4-.3.8-.5 1.1h7.9v.8h-4.1v2.1h3.9v.8h-3.9v2.5h4.6v.8h-4.6v3.2h-.9v-3h-6zm2.9 0h3.2v-2.5h-3.2z"/><path d="m98.1 822.5v-7.8c-.2.2-.5.4-.9.6s-.8.4-1.2.5v-1.1c.5-.1 1-.3 1.5-.6s1-.6 1.3-.8h.4v9.3z"/><path d="m102.3 818.2c0-1.6.3-2.8.8-3.6s1.3-1.2 2.3-1.2c1.9 0 2.9 1.5 2.9 4.7 0 1.5-.3 2.7-.8 3.5s-1.3 1.2-2.3 1.2c-.9 0-1.6-.4-2.1-1.2s-.8-2-.8-3.4zm1.2-.1c0 2.4.6 3.6 1.8 3.6s1.8-1.2 1.8-3.7-.6-3.8-1.8-3.8c-1.2.1-1.8 1.3-1.8 3.9z"/><path d="m111.8 820.1c-.2 1.5-.8 2.9-1.8 4.1-.2-.2-.5-.5-.8-.7.8-.8 1.3-1.8 1.5-2.9.2-.8.3-2 .3-3.5v-4h7.8v9.1c0 1.2-.6 1.7-1.7 1.7-.5 0-1.1 0-1.8 0 0-.3-.1-.6-.2-1 .7 0 1.3.1 1.7.1.6 0 .9-.3.9-.9v-2zm.1-.8h6v-2.3h-5.9c0 .8 0 1.5-.1 2.3zm.1-5.4v2.2h5.9v-2.2z"/></g><path d="m63.7 842.9h-2l-3.8-5.9c-.2-.3-.3-.5-.4-.7v1.5 5.2h-1.8v-9.1h2.1l3.7 5.7c.2.4.4.6.5.7 0-.2-.1-.6-.1-1.2v-5.2h1.8z" fill="#1b1b1b"/><path d="m71.4 840.2h-4.3c.1 1 .7 1.5 1.8 1.5.7 0 1.3-.2 1.9-.5v1.4c-.6.3-1.4.5-2.3.5-1 0-1.8-.3-2.4-.9s-.9-1.4-.9-2.4.3-1.9.9-2.5 1.4-1 2.3-1 1.6.3 2.2.8.8 1.3.8 2.3zm-1.8-1.2c0-1-.4-1.5-1.2-1.5-.3 0-.6.1-.9.4s-.4.6-.5 1h2.6z" fill="#1b1b1b"/><path d="m72.2 839.7c0-1.1.3-1.9 1-2.5s1.5-.9 2.6-.9c1 0 1.9.3 2.5.9s.9 1.4.9 2.4c0 1.1-.3 1.9-.9 2.5s-1.5.9-2.6.9-1.9-.3-2.5-.9-1-1.4-1-2.4zm1.9 0c0 1.3.5 1.9 1.6 1.9 1 0 1.5-.7 1.5-2s-.5-1.9-1.5-1.9c-.5 0-.9.2-1.2.5s-.4.8-.4 1.5z" fill="#1b1b1b"/><path d="m79.9 842.5h4.8v-2.2h-3.6v-1.5h3.6v-2.1h-4.2v-1.5h4.5c-.3-.5-.6-1-.9-1.5l1.6-.7c.3.5.7 1.1 1.1 1.7l-1.1.5h5v1.5h-4.2v2.1h3.7v1.5h-3.7v2.2h4.9v1.6h-11.5z" fill="#1b1b1b"/><path d="m95 835.3 1 2.1c.3-.7.6-1.4.9-2.2l.8.4.6-.3.9 2.1c.3-.7.6-1.4.8-2.2l1.3.5c-.4 1.2-.8 2.3-1.3 3.4l1.2 2.7-1.3.7-.7-1.7c-.4.8-.8 1.5-1.2 2.2-.2-.1-.3-.3-.5-.4l-.6.3-.9-2.2c-.4.8-.9 1.6-1.4 2.4-.2-.2-.4-.4-.7-.6v2h-1.6v-11h10.7v9c0 .6-.1 1.1-.3 1.4s-.6.5-1 .6-1.2.1-2.3.1c-.1-.6-.2-1.2-.4-1.6.6 0 1.1.1 1.7.1.5 0 .8-.2.8-.7v-7.3h-7.5v1zm-1.1.8v5.3c.5-.8.9-1.6 1.4-2.4-.5-1-1-2-1.4-2.9zm3.8 1c-.3.7-.6 1.4-.9 2l.8 1.8c.3-.6.6-1.2.9-1.8z" fill="#1b1b1b"/><path d="m104 842.2h4.3v-9.2h1.9v3.2h4.3v1.7h-4.3v4.3h5.1v1.7h-11.3z" fill="#1b1b1b"/><path d="m116.1 843.9-.3-1.6c1.4-.2 2.8-.4 4.3-.6v.8c.9-.3 1.7-.6 2.5-1-.2-.5-.3-1.2-.4-2l-2 .2-.2-1.4 2-.2-.1-1.2-1.5.2-.1-.6c-.8 1.3-1.5 2.4-2.1 3.2.7-.1 1.3-.2 1.8-.3 0 .3-.1.8-.1 1.5-1.7.2-2.8.4-3.4.6l-.5-1.5c.5-.5 1-1.2 1.6-2-.4 0-.9.1-1.5.1l-.4-1.3c.7-.8 1.4-2.1 2.1-3.8l1.5.6c-.7 1.2-1.3 2.2-1.8 3.1h1c.2-.4.4-.8.7-1.2l1.1.5v-.4l1.6-.2-.1-2.4h1.6c0 .8 0 1.5.1 2.3l2-.2c-.5-.3-1-.7-1.6-1.1l.8-1c.6.3 1.3.7 1.9 1.1l-.7.9 1.1-.1.1 1.4-3.6.4.1 1.2 3.6-.4.2 1.4-1.4.2 1 .8c-.8.8-1.6 1.5-2.4 2.2.3.5.6.8.9.8.1 0 .3-.1.3-.3s.2-.7.4-1.5c.5.3 1 .5 1.4.7-.3 1.2-.6 2-.9 2.3s-.6.5-1 .5c-1 0-1.8-.6-2.4-1.7-.9.5-1.9.9-3 1.2-.1-.2-.2-.5-.4-.8-1.5.2-2.8.4-3.8.6zm9.7-4.9-2.1.2c.1.5.2.9.3 1.3.6-.4 1.2-1 1.8-1.5z" fill="#1b1b1b"/><path d="m128 842h11.3v1.7h-11.3zm.7-8.1h9.8v1.7h-9.8zm.5 4h8.8v1.7h-8.8z" fill="#1b1b1b"/><path d="m142.7 837.5h2.3v-.8h-2v-1.1h2v-.8h-2.7v3.9c0 2.6-.4 4.5-1.4 5.9-.4-.4-.9-.8-1.4-1.1.7-1.1 1.1-2.7 1.1-5v-5.1h10v8.6c0 .8-.1 1.3-.4 1.7s-.7.6-1.3.6-1.2 0-1.9 0c-.1-.6-.2-1.1-.4-1.6h1.2c.6 0 .9-.1 1-.3s.1-.4.1-.6v-7.2h-2.6v.8h2v1.1h-2v.8h2.3v1.2h-6.2zm.6 1.8h5v3.2h-3.5v.6h-1.5zm3.5 2.1v-1h-2v1z" fill="#1b1b1b"/><path d="m162.5 837.2v1.5h-3.3v1.8h4.1v1.5h-4.1v2.5h-1.7v-2.5h-5.5v-1.5h1.6v-2.9c-.2.2-.4.4-.7.7-.3-.5-.6-1-1.1-1.5 1.2-1 2.1-2.3 2.7-3.9l1.8.3c-.1.3-.3.7-.4 1h7v1.5h-3.8v1.5zm-8.5 0h3.5v-1.5h-2.3c-.4.5-.8 1-1.2 1.5zm1.2 3.3h2.3v-1.8h-2.3z" fill="#1b1b1b"/><path d="m18 75v805" fill="none" stroke="#00e599" stroke-miterlimit="10" stroke-width="1.914"/><path d="m12 69h12v12h-12z" fill="#2b393f"/><path d="m12 131h12v12h-12z" fill="#2b393f"/><path d="m12 193h12v12h-12z" fill="#2b393f"/><path d="m12 255h12v12h-12z" fill="#2b393f"/><path d="m12 317h12v12h-12z" fill="#2b393f"/><path d="m12 379h12v12h-12z" fill="#2b393f"/><path d="m12 441h12v12h-12z" fill="#2b393f"/><path d="m12 503h12v12h-12z" fill="#2b393f"/><path d="m12 565h12v12h-12z" fill="#2b393f"/><path d="m12 627h12v12h-12z" fill="#2b393f"/><path d="m12 689h12v12h-12z" fill="#2b393f"/><path d="m12 751h12v12h-12z" fill="#2b393f"/><path d="m12 813h12v12h-12z" fill="#2b393f"/></svg>