<?xml version="1.0" encoding="utf-8"?>
<!-- Generator: Adobe Illustrator 23.1.1, SVG Export Plug-In . SVG Version: 6.00 Build 0)  -->
<svg version="1.1" id="Layer_1" xmlns="http://www.w3.org/2000/svg" xmlns:xlink="http://www.w3.org/1999/xlink" x="0px" y="0px"
	 viewBox="0 0 4298 250" style="enable-background:new 0 0 4298 250;" xml:space="preserve">
<style type="text/css">
	.st0{opacity:0.38;}
	.st1{fill:#1B1B1B;}
	.st2{fill:none;stroke:#00E599;stroke-width:1.8621;stroke-miterlimit:10;}
	.st3{fill:#2B393F;}
</style>
<g class="st0">
	<path d="M136.2,70.6c0-0.8-0.2-1.4-0.7-1.8s-1.1-0.7-2-0.7c-0.6,0-1.2,0.2-1.8,0.4c-0.6,0.3-1.1,0.7-1.7,1.3v-1.7
		c0.5-0.5,1-0.8,1.6-1.1s1.3-0.4,2.1-0.4c1.3,0,2.3,0.3,3.1,1c0.8,0.7,1.2,1.6,1.2,2.8c0,1-0.2,1.9-0.7,2.7
		c-0.5,0.8-1.3,1.5-2.4,2.3c-1.2,0.8-2,1.4-2.4,1.8s-0.7,0.7-0.8,1s-0.2,0.7-0.2,1.2h7v1.6h-8.9v-0.7c0-0.8,0.1-1.5,0.3-2.1
		s0.6-1.1,1.1-1.7c0.5-0.5,1.3-1.2,2.4-1.9c1.1-0.8,1.9-1.5,2.3-2.1C136,72,136.2,71.4,136.2,70.6z"/>
	<path d="M140.2,74.3c0-2.5,0.4-4.4,1.2-5.7c0.8-1.3,2-1.9,3.6-1.9c3,0,4.5,2.4,4.5,7.2c0,2.4-0.4,4.2-1.3,5.5s-2,1.9-3.6,1.9
		c-1.4,0-2.6-0.6-3.3-1.8S140.2,76.6,140.2,74.3z M142,74.2c0,3.8,0.9,5.6,2.9,5.6c1.9,0,2.8-1.9,2.8-5.7c0-3.9-0.9-5.9-2.8-5.9
		C143,68.2,142,70.2,142,74.2z"/>
	<path d="M155.5,81.1V69c-0.3,0.3-0.8,0.6-1.4,0.9c-0.7,0.3-1.3,0.6-1.9,0.7v-1.8c0.8-0.2,1.6-0.5,2.4-1c0.9-0.4,1.5-0.9,2-1.3h0.7
		v14.4C157.3,81.1,155.5,81.1,155.5,81.1z"/>
	<path d="M169.8,66.9v9.3h2.1v1.5h-2.1v3.3H168v-3.3h-6.6v-1.4c1.2-1.3,2.4-2.8,3.5-4.6c1.2-1.7,2.2-3.3,2.9-4.9L169.8,66.9
		L169.8,66.9z M163.4,76.3h4.6v-6.7c-0.6,1.1-1.3,2.2-2,3.3C165.3,73.9,164.4,75,163.4,76.3z"/>
	<path d="M172.6,77.3h2.9v-5.2h6.5v-3.2h-5.4c-0.8,1.5-1.7,2.8-2.8,4.1c-0.3-0.3-0.7-0.7-1.1-1c1.7-1.9,3-4.1,3.9-6.6l1.5,0.4
		c-0.3,0.6-0.5,1.2-0.8,1.8h12.6v1.3h-6.4v3.2h6.1v1.3h-6.1v3.9h7.2v1.3h-7.2v4.9H182v-4.9h-9.4L172.6,77.3L172.6,77.3z M177,77.3h5
		v-3.9h-5V77.3z"/>
	<path d="M200.2,68.7c-0.7-0.4-1.5-0.6-2.3-0.6c-1.2,0-2.2,0.5-2.9,1.6c-0.7,1.1-1.1,2.5-1.1,4.4h0c0.7-1.3,1.7-1.9,3.2-1.9
		c1.2,0,2.2,0.4,2.9,1.2c0.7,0.8,1.1,1.9,1.1,3.2c0,1.4-0.4,2.5-1.3,3.4c-0.8,0.9-1.9,1.3-3.2,1.3c-1.4,0-2.6-0.6-3.4-1.7
		s-1.2-2.7-1.2-4.8c0-2.5,0.5-4.5,1.6-5.9c1.1-1.5,2.5-2.2,4.2-2.2c1,0,1.8,0.1,2.4,0.4L200.2,68.7L200.2,68.7z M194,76.4
		c0,0.9,0.2,1.7,0.7,2.4s1.2,1,2,1c0.8,0,1.4-0.3,1.9-0.9c0.5-0.6,0.7-1.3,0.7-2.2c0-1-0.2-1.7-0.7-2.3c-0.5-0.5-1.1-0.8-2-0.8
		c-0.8,0-1.5,0.3-1.9,0.8S194,75.7,194,76.4z"/>
	<path d="M206.6,77.3c-0.3,2.3-1.2,4.5-2.8,6.4c-0.4-0.4-0.8-0.7-1.3-1.1c1.2-1.3,2-2.8,2.4-4.6c0.3-1.3,0.4-3.1,0.4-5.4v-6.3h12.2
		v14.2c0,1.8-0.9,2.7-2.6,2.7c-0.7,0-1.6,0-2.8,0c-0.1-0.4-0.1-0.9-0.3-1.5c1.1,0.1,2,0.1,2.6,0.1c1,0,1.5-0.5,1.5-1.4v-3
		L206.6,77.3L206.6,77.3z M206.7,76h9.3v-3.5h-9.2C206.9,73.7,206.8,74.8,206.7,76z M206.9,67.7v3.5h9.2v-3.5H206.9z"/>
</g>
<g class="st0">
	<g>
		<path d="M425.6,70.6c0-0.8-0.2-1.4-0.7-1.8c-0.5-0.4-1.1-0.7-2-0.7c-0.6,0-1.2,0.2-1.8,0.4c-0.6,0.3-1.1,0.7-1.7,1.3v-1.7
			c0.5-0.5,1-0.8,1.6-1.1s1.3-0.4,2.1-0.4c1.3,0,2.3,0.3,3.1,1c0.8,0.7,1.2,1.6,1.2,2.8c0,1-0.2,1.9-0.7,2.7
			c-0.5,0.8-1.3,1.5-2.5,2.3c-1.2,0.8-2,1.4-2.4,1.8s-0.7,0.7-0.8,1s-0.2,0.7-0.2,1.2h7v1.6h-8.9v-0.7c0-0.8,0.1-1.5,0.3-2.1
			s0.6-1.1,1.1-1.7s1.3-1.2,2.4-1.9c1.1-0.8,1.9-1.5,2.3-2.1C425.4,72,425.6,71.4,425.6,70.6z"/>
		<path d="M429.6,74.3c0-2.5,0.4-4.4,1.2-5.7s2-1.9,3.6-1.9c3,0,4.5,2.4,4.5,7.2c0,2.4-0.4,4.2-1.3,5.5s-2,1.9-3.5,1.9
			c-1.4,0-2.5-0.6-3.3-1.8C430,78.3,429.6,76.6,429.6,74.3z M431.4,74.2c0,3.8,1,5.6,2.9,5.6c1.9,0,2.8-1.9,2.8-5.7
			c0-3.9-0.9-5.9-2.8-5.9C432.4,68.2,431.4,70.2,431.4,74.2z"/>
		<path d="M444.9,81.1V69c-0.3,0.3-0.8,0.6-1.4,0.9c-0.7,0.3-1.3,0.6-1.9,0.7v-1.8c0.8-0.2,1.5-0.5,2.4-1s1.5-0.9,2-1.3h0.7v14.4
			C446.7,81.1,444.9,81.1,444.9,81.1z"/>
		<path d="M460.3,76.7c0,1.4-0.5,2.5-1.4,3.3c-0.9,0.8-2.1,1.3-3.7,1.3c-1.3,0-2.3-0.2-3-0.6v-1.8c1,0.6,1.9,0.9,2.9,0.9
			c1,0,1.8-0.3,2.4-0.8c0.6-0.5,0.9-1.3,0.9-2.2s-0.3-1.6-1-2.1S456,74,454.9,74c-0.9,0-1.7,0-2.4,0.1l0.5-7.2h6.6v1.6h-5.1l-0.3,4
			l1.3-0.1c1.5,0,2.7,0.4,3.5,1.1C459.9,74.3,460.3,75.3,460.3,76.7z"/>
		<path d="M462,77.3h2.9v-5.2h6.5v-3.2H466c-0.8,1.5-1.7,2.8-2.8,4.1c-0.3-0.3-0.7-0.7-1.1-1c1.7-1.9,3-4.1,3.9-6.6l1.5,0.4
			c-0.3,0.6-0.5,1.2-0.8,1.8h12.6v1.3h-6.4v3.2h6.1v1.3h-6.1v3.9h7.2v1.3h-7.2v4.9h-1.5v-4.9H462V77.3z M466.4,77.3h5v-3.9h-5V77.3z
			"/>
		<path d="M489.7,68.7c-0.7-0.4-1.5-0.6-2.3-0.6c-1.2,0-2.2,0.5-3,1.6c-0.7,1.1-1.1,2.5-1.1,4.4h0c0.7-1.3,1.7-1.9,3.2-1.9
			c1.2,0,2.2,0.4,2.9,1.2c0.7,0.8,1.1,1.9,1.1,3.2c0,1.4-0.4,2.5-1.3,3.4c-0.8,0.9-1.9,1.3-3.2,1.3c-1.4,0-2.6-0.6-3.4-1.7
			s-1.2-2.7-1.2-4.8c0-2.5,0.5-4.5,1.6-5.9c1.1-1.5,2.5-2.2,4.2-2.2c1,0,1.8,0.1,2.4,0.4L489.7,68.7L489.7,68.7z M483.4,76.4
			c0,0.9,0.2,1.7,0.7,2.4s1.2,1,2,1c0.8,0,1.4-0.3,1.9-0.9s0.7-1.3,0.7-2.2c0-1-0.2-1.7-0.7-2.3c-0.5-0.5-1.1-0.8-2-0.8
			c-0.8,0-1.5,0.3-2,0.8S483.4,75.7,483.4,76.4z"/>
		<path d="M496,77.3c-0.3,2.3-1.2,4.5-2.8,6.4c-0.4-0.4-0.8-0.7-1.3-1.1c1.2-1.3,2-2.8,2.4-4.6c0.3-1.3,0.4-3.1,0.4-5.4v-6.3H507
			v14.2c0,1.8-0.9,2.7-2.6,2.7c-0.7,0-1.6,0-2.8,0c-0.1-0.4-0.1-0.9-0.3-1.5c1.1,0.1,2,0.1,2.6,0.1c1,0,1.5-0.5,1.5-1.4v-3L496,77.3
			L496,77.3z M496.2,76h9.3v-3.5h-9.2C496.3,73.7,496.2,74.8,496.2,76z M496.3,67.7v3.5h9.2v-3.5H496.3z"/>
	</g>
</g>
<g>
	<path class="st1" d="M121.5,158.6l2.7,0.7c-0.9,3.3-1.8,6.2-2.8,9l-2.7-1C119.8,164.4,120.7,161.6,121.5,158.6z M126.5,154.6h2.8
		v13.8c0,1.2-0.2,2.1-0.6,2.6c-0.4,0.6-0.9,0.9-1.4,1c-0.6,0.1-1.9,0.2-4,0.2c-0.2-1-0.4-2-0.7-2.9c1,0.1,1.8,0.2,2.6,0.2
		c0.9,0,1.3-0.5,1.3-1.5L126.5,154.6L126.5,154.6z M133.6,158.6c1.2,2.7,2.3,5.5,3.4,8.4l-2.9,1.1c-1-3.1-2-6-3.1-8.7L133.6,158.6z"
		/>
	<path class="st1" d="M155.2,156.6c-0.4,4.1-1.6,7.6-3.3,10.4c1.1,1.3,2.3,2.3,3.8,3c-0.2,0.4-0.7,1.2-1.4,2.6
		c-1.6-0.8-2.9-1.9-4.1-3.3c-1.2,1.4-2.7,2.5-4.4,3.5c-0.2-0.4-0.4-0.8-0.6-1.2l-0.7,0.2c-0.1-0.4-0.1-0.7-0.2-1.1
		c-1.6,0.3-3.7,0.7-6.4,1.2l-0.5-2.4c1.1-0.1,2.1-0.3,3.2-0.4v-3.3h-0.9v0.9H138v-9.2h2.5v-2.8h2.1v2.8h2.5v8.2h-2.5v3
		c0.4-0.1,0.8-0.1,1.1-0.2c-0.1-0.6-0.3-1.1-0.4-1.6l1.7-0.4c0.2,0.7,0.4,1.7,0.8,3c1.1-0.7,2-1.6,2.8-2.5
		c-1.6-2.7-2.6-6.1-3.1-10.2l2.3-0.4c0.5,3.3,1.3,6,2.5,8.2c1.3-2.3,2.1-5.1,2.5-8.4L155.2,156.6z M139.6,163.6h0.9v-4.1h-0.9V163.6
		z M143.4,163.6v-4.1h-0.9v4.1H143.4z M150.3,154.4c0.6,1.4,1.1,2.9,1.6,4.3l-2.2,0.8c-0.6-1.8-1-3.3-1.4-4.4L150.3,154.4z"/>
	<path class="st1" d="M156.6,170.4l-0.5-2.7l1.8-0.4v-9h-1.6v-2.5h5.9v2.5h-1.8v8.4c0.6-0.2,1.2-0.3,1.9-0.5c0,0.9-0.1,1.8-0.1,2.8
		C160.1,169.4,158.3,169.9,156.6,170.4z M167,162.6h2.4c0,1.6-0.2,3-0.7,4.3c1.8,1.1,3.7,2.4,5.6,3.8l-1.6,2c-1.3-1.1-3-2.3-5-3.8
		c-1.1,1.7-2.9,2.9-5.3,3.8c-0.4-0.9-0.9-1.8-1.4-2.5c2.3-0.5,3.8-1.4,4.7-2.6C166.6,166.4,167,164.8,167,162.6z M163,155.2h11v2.2
		h-4.8l-0.3,1.8h4.4v8.4h-2.5v-6.1h-5.5v6.3h-2.5v-8.5h3.3l0.3-1.8H163L163,155.2L163,155.2z"/>
	<path class="st1" d="M176.6,172.5v-16.9H191v16.9h-2.6v-1.2h-9.2v1.2H176.6z M188.4,158h-9.2v2h9.2V158z M179.2,164.4h9.2v-2h-9.2
		V164.4z M179.2,168.8h9.2v-2.1h-9.2V168.8z"/>
	<path class="st1" d="M195.2,156.4h6.2c-0.2-0.5-0.4-0.9-0.5-1.3l2.8-0.6c0.3,0.6,0.5,1.3,0.8,1.9h5.9v6.5h-12.8
		c0,4-0.8,7.2-2.4,9.5c-0.5-0.6-1.1-1.3-1.8-2.1c1.2-2,1.8-4.5,1.8-7.6L195.2,156.4L195.2,156.4z M207.9,160.6v-2h-10.3v2H207.9z
		 M198.2,172.4v-7.8h12.1v7.8h-2.4v-0.9h-7.2v1L198.2,172.4L198.2,172.4z M207.8,166.8h-7.2v2.4h7.2V166.8z"/>
	<path class="st1" d="M219.1,163.7l1.9,4.6c0.8-1.5,1.2-4.3,1.2-8.3h-1.9v-2.4h1.9l0-3.1h2.4l0,3.1h4.8l-0.2,10.3
		c0,1.4-0.1,2.2-0.2,2.6c-0.1,0.4-0.2,0.7-0.5,0.9c-0.3,0.3-0.6,0.5-1,0.6s-1.5,0.2-3.3,0.2c-0.2-0.9-0.4-1.8-0.7-2.7
		c0.8,0.1,1.5,0.1,2,0.1c0.4,0,0.6-0.1,0.8-0.2s0.3-0.3,0.3-0.6s0.1-1.2,0.1-2.8c0.1-1.6,0.1-3.6,0.1-5.9h-2.4
		c-0.1,2.7-0.2,4.7-0.3,5.8s-0.5,2.4-1,3.6s-1.2,2.3-2,3.2c-0.7-0.6-1.4-1.1-2.2-1.5c0.4-0.4,0.7-0.7,1-1.1l-5.1,0.4
		c-0.8,0.1-1.3,0.2-1.7,0.4l-1.1-2.2c0.6-0.5,1.4-2.4,2.4-5.7h-2.3v-2.3h8.4v2.3h-3.5c-0.6,1.8-1.2,3.4-1.8,5.1c1.1,0,2.1-0.1,3-0.1
		c-0.4-1.2-0.9-2.4-1.3-3.4L219.1,163.7z M220,158.2h-7v-2.3h7V158.2z"/>
</g>
<g>
	<g>
		<path class="st1" d="M424.6,169.1c-1.4,0.8-3.1,1.2-5.1,1.2c-2.2,0-4-0.6-5.3-1.9c-1.3-1.3-2-3-2-5.2c0-2.2,0.7-4,2.1-5.4
			c1.4-1.4,3.3-2.1,5.7-2.1c1.5,0,2.8,0.2,4,0.6v2.9c-1.1-0.6-2.4-1-4-1c-1.4,0-2.5,0.4-3.3,1.3c-0.9,0.9-1.3,2.1-1.3,3.5
			c0,1.5,0.4,2.6,1.1,3.5s1.8,1.2,3.1,1.2c0.8,0,1.4-0.1,1.9-0.4v-2.9h-2.9v-2.4h5.9L424.6,169.1L424.6,169.1z"/>
		<path class="st1" d="M426.8,156.7c0-0.4,0.2-0.8,0.5-1.1s0.7-0.4,1.2-0.4c0.5,0,0.9,0.1,1.2,0.4c0.3,0.3,0.5,0.6,0.5,1.1
			s-0.2,0.8-0.5,1.1s-0.7,0.4-1.2,0.4c-0.5,0-0.9-0.1-1.2-0.4C427,157.5,426.8,157.1,426.8,156.7z M427.1,170.1V160h2.9v10.1H427.1z
			"/>
		<path class="st1" d="M438.6,169.9c-0.4,0.2-1.1,0.4-2,0.4c-2.1,0-3.2-1.1-3.2-3.4v-4.8h-1.7V160h1.7v-2.2l2.9-0.8v3.1h2.3v2.2
			h-2.3v4.3c0,1.1,0.4,1.6,1.3,1.6c0.3,0,0.7-0.1,1-0.3V169.9z"/>
		<path class="st1" d="M452.7,170.1h-3v-5.8h-6v5.8h-3v-14.1h3v5.7h6v-5.7h3V170.1z"/>
		<path class="st1" d="M465.2,170.1h-2.9v-1.5h0c-0.8,1.2-1.8,1.8-3.1,1.8c-2.4,0-3.5-1.4-3.5-4.2V160h3v5.8c0,1.5,0.6,2.3,1.8,2.3
			c0.6,0,1.1-0.2,1.4-0.6s0.5-1,0.5-1.7V160h2.9L465.2,170.1L465.2,170.1z"/>
		<path class="st1" d="M470.8,168.8v1.2h-3v-14.9h3v6.4h0c0.8-1.2,1.9-1.8,3.3-1.8c1.3,0,2.3,0.4,3,1.3s1.1,2.1,1.1,3.7
			c0,1.7-0.4,3-1.2,4s-1.9,1.5-3.3,1.5C472.4,170.3,471.5,169.8,470.8,168.8L470.8,168.8L470.8,168.8z M470.8,165.7
			c0,0.7,0.2,1.2,0.6,1.7c0.4,0.4,0.9,0.7,1.5,0.7c0.7,0,1.3-0.3,1.7-0.9s0.6-1.4,0.6-2.4c0-0.9-0.2-1.6-0.6-2
			c-0.4-0.5-0.9-0.7-1.6-0.7c-0.7,0-1.2,0.2-1.6,0.7s-0.6,1.1-0.6,1.9L470.8,165.7L470.8,165.7z"/>
		<path class="st1" d="M479.3,162.4h4.2v-4.5h-3.2v-2.4h16.3v2.4h-2.9v4.5h3.7v2.4h-3.7v7.5H491v-7.5h-4.9c-0.1,2.2-0.5,3.9-1.2,5
			s-1.8,2.1-3.2,2.9c-0.7-0.6-1.5-1.2-2.3-1.9c1.1-0.6,2.1-1.3,2.8-2.2s1.2-2.1,1.3-3.8h-4.1L479.3,162.4L479.3,162.4z M486.2,162.4
			h4.8v-4.5h-4.8V162.4z"/>
		<path class="st1" d="M499.4,159.4c0.9,0.7,1.9,1.4,2.9,2.3l-1.6,2c-0.9-0.9-1.8-1.7-2.7-2.5L499.4,159.4z M500,164.6
			c0.9,0.4,1.7,0.7,2.2,0.9l-1.6,6.9c-0.8-0.3-1.6-0.6-2.4-0.8C498.8,169.7,499.4,167.4,500,164.6z M499.8,154.6
			c1.4,1,2.4,1.7,3,2.2l-1.7,1.8c-0.9-0.8-1.8-1.7-2.8-2.5L499.8,154.6z M507.3,167l1.8,1.1c-0.4,0.6-0.9,1.3-1.4,2.1
			c0.3,0.1,0.7,0.1,1.2,0.1c0.5-0.1,0.8-0.3,0.8-0.8v-2.9h-3.2v-7.7h2c0.2-0.5,0.4-1,0.6-1.6h-3.6v5.5c0,4.6-0.7,7.9-2,9.9
			c-0.8-0.8-1.5-1.4-2.1-1.8c1.2-1.8,1.8-4.6,1.8-8.4v-7.2h12.8v2.1h-4.5c-0.1,0.4-0.4,0.9-0.7,1.6h4.4v7.7h-3.1v3.4
			c0,0.7-0.1,1.2-0.4,1.6c-0.3,0.4-0.7,0.6-1.3,0.7s-1.4,0.1-2.3,0.1c-0.1-0.7-0.2-1.4-0.5-2.1c-0.4,0.5-0.7,1-1.1,1.5l-1.7-1.4
			C505.6,169.5,506.4,168.3,507.3,167z M512.9,160.7h-4.2v1.1h4.2V160.7z M512.9,164.7v-1.2h-4.2v1.2H512.9z M513.9,166.9
			c0.8,1,1.5,2.1,2.3,3.4l-1.9,1.1c-0.6-1.1-1.3-2.3-2.1-3.5L513.9,166.9z"/>
	</g>
</g>
<g class="st0">
	<g>
		<path d="M707.8,70.6c0-0.8-0.2-1.4-0.7-1.8c-0.5-0.4-1.1-0.7-2-0.7c-0.6,0-1.2,0.2-1.8,0.4c-0.6,0.3-1.2,0.7-1.7,1.3v-1.7
			c0.5-0.5,1-0.8,1.6-1.1s1.3-0.4,2.1-0.4c1.3,0,2.3,0.3,3.1,1c0.8,0.7,1.2,1.6,1.2,2.8c0,1-0.2,1.9-0.7,2.7
			c-0.5,0.8-1.3,1.5-2.5,2.3c-1.2,0.8-2,1.4-2.4,1.8s-0.7,0.7-0.8,1S703,79,703,79.5h7v1.6h-8.9v-0.7c0-0.8,0.1-1.5,0.3-2.1
			s0.6-1.1,1.1-1.7c0.5-0.5,1.3-1.2,2.4-1.9c1.1-0.8,1.9-1.5,2.3-2.1C707.6,72,707.8,71.4,707.8,70.6z"/>
		<path d="M711.8,74.3c0-2.5,0.4-4.4,1.2-5.7s2-1.9,3.6-1.9c3,0,4.5,2.4,4.5,7.2c0,2.4-0.4,4.2-1.3,5.5s-2,1.9-3.5,1.9
			c-1.4,0-2.5-0.6-3.3-1.8C712.2,78.3,711.8,76.6,711.8,74.3z M713.7,74.2c0,3.8,1,5.6,2.9,5.6c1.9,0,2.8-1.9,2.8-5.7
			c0-3.9-0.9-5.9-2.8-5.9C714.6,68.2,713.7,70.2,713.7,74.2z"/>
		<path d="M727.2,81.1V69c-0.3,0.3-0.8,0.6-1.4,0.9c-0.7,0.3-1.3,0.6-1.8,0.7v-1.8c0.8-0.2,1.5-0.5,2.4-1c0.8-0.4,1.5-0.9,2-1.3h0.7
			v14.4C729,81.1,727.2,81.1,727.2,81.1z"/>
		<path d="M742.6,76.7c0,1.4-0.5,2.5-1.4,3.3c-0.9,0.8-2.2,1.3-3.7,1.3c-1.3,0-2.3-0.2-3-0.6v-1.8c1,0.6,1.9,0.9,2.9,0.9
			s1.8-0.3,2.4-0.8c0.6-0.5,0.9-1.3,0.9-2.2s-0.3-1.6-1-2.1s-1.5-0.8-2.7-0.8c-0.9,0-1.7,0-2.4,0.1l0.5-7.2h6.6v1.6h-5.1l-0.3,4
			l1.3-0.1c1.5,0,2.7,0.4,3.5,1.1C742.2,74.3,742.6,75.3,742.6,76.7z"/>
		<path d="M744.3,77.3h2.9v-5.2h6.5v-3.2h-5.4c-0.8,1.5-1.7,2.8-2.8,4.1c-0.3-0.3-0.7-0.7-1.1-1c1.7-1.9,3-4.1,3.9-6.6l1.5,0.4
			c-0.3,0.6-0.5,1.2-0.8,1.8h12.6v1.3h-6.4v3.2h6.1v1.3h-6.1v3.9h7.2v1.3h-7.2v4.9h-1.5v-4.9h-9.4L744.3,77.3L744.3,77.3z
			 M748.7,77.3h5v-3.9h-5V77.3z"/>
		<path d="M767.8,81.1V69c-0.3,0.3-0.8,0.6-1.4,0.9c-0.7,0.3-1.3,0.6-1.8,0.7v-1.8c0.8-0.2,1.5-0.5,2.4-1c0.8-0.4,1.5-0.9,2-1.3h0.7
			v14.4C769.6,81.1,767.8,81.1,767.8,81.1z"/>
		<path d="M774.4,74.3c0-2.5,0.4-4.4,1.2-5.7s2-1.9,3.6-1.9c3,0,4.5,2.4,4.5,7.2c0,2.4-0.4,4.2-1.3,5.5s-2,1.9-3.5,1.9
			c-1.4,0-2.5-0.6-3.3-1.8C774.8,78.3,774.4,76.6,774.4,74.3z M776.2,74.2c0,3.8,1,5.6,2.9,5.6c1.9,0,2.8-1.9,2.8-5.7
			c0-3.9-0.9-5.9-2.8-5.9C777.2,68.2,776.2,70.2,776.2,74.2z"/>
		<path d="M789.2,77.3c-0.3,2.3-1.2,4.5-2.8,6.4c-0.4-0.4-0.8-0.7-1.3-1.1c1.2-1.3,2-2.8,2.4-4.6c0.3-1.3,0.4-3.1,0.4-5.4v-6.3h12.2
			v14.2c0,1.8-0.9,2.7-2.6,2.7c-0.7,0-1.6,0-2.8,0c-0.1-0.4-0.2-0.9-0.3-1.5c1.1,0.1,2,0.1,2.7,0.1c1,0,1.5-0.5,1.5-1.4v-3
			L789.2,77.3L789.2,77.3z M789.4,76h9.3v-3.5h-9.2C789.5,73.7,789.5,74.8,789.4,76z M789.5,67.7v3.5h9.2v-3.5H789.5z"/>
	</g>
</g>
<g class="st0">
	<g>
		<path d="M997.3,70.6c0-0.8-0.2-1.4-0.7-1.8c-0.5-0.4-1.1-0.7-2-0.7c-0.6,0-1.2,0.2-1.8,0.4c-0.6,0.3-1.2,0.7-1.7,1.3v-1.7
			c0.5-0.5,1-0.8,1.6-1.1s1.3-0.4,2.1-0.4c1.3,0,2.3,0.3,3.1,1c0.8,0.7,1.2,1.6,1.2,2.8c0,1-0.2,1.9-0.7,2.7
			c-0.5,0.8-1.3,1.5-2.5,2.3c-1.2,0.8-2,1.4-2.4,1.8s-0.7,0.7-0.8,1s-0.2,0.7-0.2,1.2h7v1.6h-8.9v-0.7c0-0.8,0.1-1.5,0.3-2.1
			s0.6-1.1,1.1-1.7c0.5-0.5,1.3-1.2,2.4-1.9c1.1-0.8,1.9-1.5,2.3-2.1C997.1,72,997.3,71.4,997.3,70.6z"/>
		<path d="M1001.3,74.3c0-2.5,0.4-4.4,1.2-5.7s2-1.9,3.6-1.9c3,0,4.5,2.4,4.5,7.2c0,2.4-0.4,4.2-1.3,5.5s-2,1.9-3.5,1.9
			c-1.4,0-2.5-0.6-3.3-1.8C1001.7,78.3,1001.3,76.6,1001.3,74.3z M1003.2,74.2c0,3.8,1,5.6,2.9,5.6c1.9,0,2.8-1.9,2.8-5.7
			c0-3.9-0.9-5.9-2.8-5.9C1004.1,68.2,1003.2,70.2,1003.2,74.2z"/>
		<path d="M1016.7,81.1V69c-0.3,0.3-0.8,0.6-1.4,0.9c-0.7,0.3-1.3,0.6-1.8,0.7v-1.8c0.8-0.2,1.5-0.5,2.4-1c0.8-0.4,1.5-0.9,2-1.3
			h0.7v14.4C1018.5,81.1,1016.7,81.1,1016.7,81.1z"/>
		<path d="M1031.8,68.7c-0.7-0.4-1.5-0.6-2.3-0.6c-1.2,0-2.2,0.5-2.9,1.6s-1.1,2.5-1.1,4.4h0.1c0.7-1.3,1.7-1.9,3.2-1.9
			c1.2,0,2.2,0.4,2.9,1.2c0.7,0.8,1.1,1.9,1.1,3.2c0,1.4-0.4,2.5-1.3,3.4c-0.8,0.9-1.9,1.3-3.2,1.3c-1.4,0-2.6-0.6-3.4-1.7
			c-0.8-1.1-1.2-2.7-1.2-4.8c0-2.5,0.5-4.5,1.6-5.9c1.1-1.5,2.5-2.2,4.2-2.2c1,0,1.8,0.1,2.4,0.4L1031.8,68.7L1031.8,68.7z
			 M1025.5,76.4c0,0.9,0.2,1.7,0.7,2.4s1.2,1,2,1c0.8,0,1.4-0.3,1.9-0.9s0.7-1.3,0.7-2.2c0-1-0.2-1.7-0.7-2.3
			c-0.5-0.5-1.1-0.8-2-0.8c-0.8,0-1.5,0.3-1.9,0.8S1025.5,75.7,1025.5,76.4z"/>
		<path d="M1033.8,77.3h2.9v-5.2h6.5v-3.2h-5.4c-0.8,1.5-1.7,2.8-2.8,4.1c-0.3-0.3-0.7-0.7-1.1-1c1.7-1.9,3-4.1,3.9-6.6l1.5,0.4
			c-0.3,0.6-0.5,1.2-0.8,1.8h12.6v1.3h-6.4v3.2h6.1v1.3h-6.1v3.9h7.2v1.3h-7.2v4.9h-1.5v-4.9h-9.4L1033.8,77.3L1033.8,77.3z
			 M1038.2,77.3h5v-3.9h-5V77.3z"/>
		<path d="M1057.3,81.1V69c-0.3,0.3-0.8,0.6-1.4,0.9c-0.7,0.3-1.3,0.6-1.8,0.7v-1.8c0.8-0.2,1.6-0.5,2.4-1s1.5-0.9,2-1.3h0.7v14.4
			C1059.1,81.1,1057.3,81.1,1057.3,81.1z"/>
		<path d="M1063.9,74.3c0-2.5,0.4-4.4,1.2-5.7s2-1.9,3.6-1.9c3,0,4.5,2.4,4.5,7.2c0,2.4-0.4,4.2-1.3,5.5s-2,1.9-3.6,1.9
			c-1.4,0-2.6-0.6-3.3-1.8C1064.3,78.3,1063.9,76.6,1063.9,74.3z M1065.7,74.2c0,3.8,0.9,5.6,2.9,5.6c1.9,0,2.8-1.9,2.8-5.7
			c0-3.9-0.9-5.9-2.8-5.9C1066.7,68.2,1065.7,70.2,1065.7,74.2z"/>
		<path d="M1078.7,77.3c-0.3,2.3-1.2,4.5-2.8,6.4c-0.4-0.4-0.8-0.7-1.3-1.1c1.2-1.3,2-2.8,2.4-4.6c0.3-1.3,0.4-3.1,0.4-5.4v-6.3
			h12.2v14.2c0,1.8-0.9,2.7-2.6,2.7c-0.7,0-1.6,0-2.8,0c-0.1-0.4-0.2-0.9-0.3-1.5c1.1,0.1,2,0.1,2.7,0.1c1,0,1.5-0.5,1.5-1.4v-3
			L1078.7,77.3L1078.7,77.3z M1078.9,76h9.3v-3.5h-9.2C1079,73.7,1079,74.8,1078.9,76z M1079,67.7v3.5h9.2v-3.5H1079z"/>
	</g>
</g>
<g>
	<g>
		<path class="st1" d="M706.7,159.5c1,0.7,1.9,1.5,2.9,2.3l-1.6,2c-0.7-0.7-1.6-1.5-2.7-2.5L706.7,159.5z M707.3,164.7
			c0.9,0.4,1.6,0.6,2.3,0.9l-1.7,6.9c-0.9-0.3-1.6-0.6-2.3-0.8C706.1,169.7,706.7,167.4,707.3,164.7z M709.9,166.9V157l-1.6,1.8
			c-0.8-0.8-1.7-1.6-2.7-2.5l1.5-1.7c0.9,0.6,1.8,1.4,2.8,2.3v-1.5h7v11.4H715v-9.4h-3.2v9.5L709.9,166.9L709.9,166.9z M712.5,158.6
			h1.7v4.7c0,2-0.2,3.7-0.7,4.9l1.2-0.9c1,1.1,2,2.1,2.9,3.1l-1.8,1.4c-0.8-1.1-1.6-2.2-2.4-3.2c-0.6,1.3-1.5,2.6-2.9,3.9
			c-0.6-0.8-1.1-1.5-1.5-2c1.4-1,2.3-2,2.9-3.2s0.8-2.6,0.8-4.4L712.5,158.6L712.5,158.6z M720.5,154.8h2.1v15.1
			c0,0.6-0.1,1.2-0.4,1.5c-0.3,0.4-0.6,0.6-1.1,0.7s-1.4,0.1-2.8,0.1c-0.1-0.8-0.3-1.7-0.6-2.6c0.7,0.1,1.3,0.1,1.9,0.1
			c0.5,0,0.8-0.3,0.8-1L720.5,154.8L720.5,154.8z M717.8,156.1h1.9v12.2h-1.9V156.1z"/>
		<path class="st1" d="M729.1,162.3h6v2.4h-1.8v3.8l2.2-0.3c0,1.2-0.1,2,0,2.5c-0.8,0.1-2.8,0.4-6.2,1l-0.3-1.6
			c-1.1,0.8-2,1.6-2.7,2.2l-1.3-1.8c0.3-0.4,0.5-0.9,0.5-1.5v-6.4h-1.5v-2.4h4v7.7c0.5-0.4,1.1-0.8,1.7-1.2c0,0.3,0.1,1.1,0.3,2.2
			l1.1-0.2v-4.2h-1.8L729.1,162.3L729.1,162.3z M726.3,154.7c0.8,1.1,1.6,2.2,2.3,3.3l-2.1,1.3c-0.7-1.2-1.4-2.3-2.2-3.5
			L726.3,154.7z M728.9,158h6.7l-0.1-3.5h2.5l0,3.5h1.8c-0.8-1-1.3-1.8-1.7-2.2l1.5-1.2c0.8,0.8,1.5,1.6,2,2.3l-1.4,1.1h1.7v2.4H738
			c0.1,1.9,0.2,3.6,0.3,4.9c0.2,1.3,0.3,2.3,0.5,3c0.2,0.7,0.3,1.1,0.3,1.2s0.1,0.2,0.2,0.2c0.2-0.1,0.4-1,0.6-2.9
			c0.8,0.3,1.5,0.6,2.1,0.8c-0.3,2.1-0.6,3.4-1,4c-0.4,0.6-1,1-1.7,1c-0.8,0-1.4-0.2-1.8-0.7s-0.9-1.5-1.2-3.1s-0.6-4.3-0.8-8.3
			h-6.7L728.9,158L728.9,158z"/>
		<path class="st1" d="M747.5,158.2l1.6,3.3c0.5-1.1,0.9-2.2,1.4-3.4l1.2,0.6l1-0.4l1.5,3.2c0.5-1.1,0.9-2.2,1.3-3.4l2,0.8
			c-0.6,1.8-1.3,3.6-2,5.3l1.9,4.3l-2.1,1l-1.1-2.7c-0.6,1.2-1.2,2.3-1.8,3.4c-0.3-0.2-0.5-0.4-0.8-0.6l-1,0.5l-1.4-3.4
			c-0.7,1.3-1.4,2.6-2.2,3.7c-0.3-0.3-0.7-0.6-1.1-1v3h-2.5v-17.2h16.6v14c0,0.9-0.2,1.7-0.5,2.2s-0.9,0.8-1.5,0.9
			c-0.7,0.1-1.9,0.1-3.6,0.1c-0.2-1-0.4-1.8-0.6-2.6c0.9,0.1,1.7,0.1,2.6,0.1c0.8,0,1.2-0.4,1.2-1.1v-11.4h-11.7v1.6L747.5,158.2z
			 M745.8,159.5v8.3c0.8-1.2,1.5-2.4,2.2-3.8C747.2,162.4,746.5,160.9,745.8,159.5z M751.7,161c-0.4,1.1-0.9,2.1-1.3,3.1l1.3,2.7
			c0.5-0.9,0.9-1.8,1.4-2.8L751.7,161z"/>
		<path class="st1" d="M761.5,169h6.8v-14.4h3v5.1h6.8v2.6h-6.8v6.7h7.9v2.6h-17.7L761.5,169L761.5,169z"/>
		<path class="st1" d="M780.4,171.6l-0.5-2.6c2.2-0.3,4.4-0.6,6.7-1c0,0.4,0,0.8-0.1,1.2c1.4-0.4,2.7-1,3.9-1.6
			c-0.3-0.9-0.5-1.9-0.7-3.1l-3.1,0.4l-0.3-2.2l3.2-0.4l-0.1-1.8l-2.4,0.2l-0.1-1c-1.2,2-2.3,3.7-3.3,5c1.1-0.2,2-0.3,2.7-0.4
			c-0.1,0.5-0.1,1.3-0.2,2.3c-2.6,0.3-4.4,0.6-5.3,0.9l-0.7-2c0.8-0.7,1.6-1.8,2.6-3.2c-0.7,0.1-1.4,0.1-2.3,0.2l-0.7-2.1
			c1-1.2,2.1-3.2,3.3-6l2.3,0.9c-1.1,1.9-2,3.5-2.9,4.8c0.5,0,1,0,1.5-0.1c0.3-0.6,0.7-1.2,1-1.8l1.7,0.8l-0.1-0.6l2.5-0.2l-0.2-3.8
			h2.5c0,1.2,0,2.4,0.1,3.6l3.2-0.3c-0.7-0.5-1.6-1.1-2.5-1.7l1.2-1.6c1,0.5,2,1.1,3,1.8l-1.1,1.5l1.8-0.2l0.2,2.2l-5.5,0.6l0.1,1.8
			l5.7-0.7l0.2,2.2l-2.2,0.3l1.6,1.3c-1.2,1.3-2.5,2.4-3.8,3.4c0.5,0.8,1,1.2,1.4,1.2c0.2,0,0.4-0.1,0.5-0.4
			c0.1-0.3,0.3-1.1,0.6-2.3c0.8,0.4,1.5,0.8,2.1,1.1c-0.5,1.9-0.9,3.1-1.4,3.6s-1,0.8-1.6,0.8c-1.5,0-2.8-0.9-3.8-2.6
			c-1.5,0.8-3,1.4-4.6,1.9c-0.2-0.4-0.4-0.8-0.6-1.2C784,170.9,782,171.3,780.4,171.6z M795.5,163.9l-3.2,0.4c0.1,0.7,0.2,1.4,0.4,2
			C793.7,165.6,794.7,164.8,795.5,163.9z"/>
	</g>
</g>
<g>
	<g>
		<path class="st1" d="M1004.2,169.4h7.6v-3.4h-5.6v-2.4h5.6v-3.3h-6.5v-2.4h7.1c-0.4-0.8-0.9-1.6-1.4-2.4l2.5-1.1
			c0.5,0.8,1.1,1.7,1.6,2.7l-1.8,0.8h7.8v2.4h-6.6v3.3h5.8v2.4h-5.8v3.4h7.6v2.4h-17.9V169.4z"/>
		<path class="st1" d="M1027.7,158.2l1.6,3.3c0.5-1.1,0.9-2.2,1.4-3.4l1.2,0.6l1-0.4l1.5,3.2c0.5-1.1,0.9-2.2,1.3-3.4l2,0.8
			c-0.6,1.8-1.3,3.6-2.1,5.3l1.9,4.3l-2.1,1l-1.1-2.7c-0.6,1.2-1.2,2.3-1.8,3.4c-0.3-0.2-0.5-0.4-0.8-0.6l-1,0.5l-1.4-3.4
			c-0.7,1.3-1.4,2.6-2.2,3.7c-0.3-0.3-0.7-0.6-1.1-1v3h-2.5v-17.2h16.6v14c0,0.9-0.2,1.7-0.5,2.2s-0.9,0.8-1.5,0.9
			c-0.7,0.1-1.9,0.1-3.6,0.1c-0.2-1-0.4-1.8-0.6-2.6c0.9,0.1,1.7,0.1,2.6,0.1c0.8,0,1.2-0.4,1.2-1.1v-11.4h-11.7v1.6L1027.7,158.2z
			 M1025.9,159.5v8.3c0.8-1.2,1.5-2.4,2.2-3.8C1027.4,162.4,1026.7,160.9,1025.9,159.5z M1031.8,161c-0.4,1.1-0.9,2.1-1.3,3.1
			l1.3,2.7c0.5-0.9,0.9-1.8,1.4-2.8L1031.8,161z"/>
		<path class="st1" d="M1041.7,169h6.8v-14.4h3v5.1h6.8v2.6h-6.8v6.7h7.9v2.6h-17.7L1041.7,169L1041.7,169z"/>
		<path class="st1" d="M1060.5,171.6l-0.5-2.6c2.2-0.3,4.4-0.6,6.7-1c0,0.4-0.1,0.8-0.1,1.2c1.4-0.4,2.7-1,3.9-1.6
			c-0.3-0.9-0.5-1.9-0.7-3.1l-3.1,0.4l-0.3-2.2l3.2-0.4l-0.1-1.8l-2.4,0.2l-0.1-1c-1.2,2-2.3,3.7-3.3,5c1.1-0.2,2-0.3,2.7-0.4
			c-0.1,0.5-0.1,1.3-0.2,2.3c-2.6,0.3-4.4,0.6-5.3,0.9l-0.7-2c0.8-0.7,1.6-1.8,2.6-3.2c-0.7,0.1-1.4,0.1-2.3,0.2l-0.7-2.1
			c1-1.2,2.1-3.2,3.3-6l2.3,0.9c-1.1,1.9-2,3.5-2.9,4.8c0.5,0,1,0,1.6-0.1c0.3-0.6,0.7-1.2,1-1.8l1.7,0.8l-0.1-0.6l2.5-0.2l-0.2-3.8
			h2.5c0,1.2,0.1,2.4,0.1,3.6l3.2-0.3c-0.7-0.5-1.6-1.1-2.5-1.7l1.2-1.6c1,0.5,2,1.1,3,1.8l-1.1,1.5l1.8-0.2l0.2,2.2l-5.5,0.6
			l0.1,1.8l5.7-0.7l0.2,2.2l-2.2,0.3l1.6,1.3c-1.2,1.3-2.4,2.4-3.8,3.4c0.5,0.8,1,1.2,1.4,1.2c0.2,0,0.4-0.1,0.5-0.4
			c0.1-0.3,0.3-1.1,0.6-2.3c0.8,0.4,1.6,0.8,2.1,1.1c-0.5,1.9-0.9,3.1-1.4,3.6s-1,0.8-1.6,0.8c-1.6,0-2.8-0.9-3.8-2.6
			c-1.4,0.8-3,1.4-4.6,1.9c-0.2-0.4-0.4-0.8-0.6-1.2C1064.1,170.9,1062.2,171.3,1060.5,171.6z M1075.7,163.9l-3.2,0.4
			c0.1,0.7,0.2,1.4,0.4,2C1073.9,165.6,1074.8,164.8,1075.7,163.9z"/>
	</g>
</g>
<g class="st0">
	<g>
		<path d="M1293.1,70.6c0-0.8-0.2-1.4-0.7-1.8c-0.5-0.4-1.1-0.7-2-0.7c-0.6,0-1.2,0.2-1.8,0.4c-0.6,0.3-1.2,0.7-1.7,1.3v-1.7
			c0.5-0.5,1-0.8,1.6-1.1s1.3-0.4,2.1-0.4c1.3,0,2.3,0.3,3.1,1c0.8,0.7,1.2,1.6,1.2,2.8c0,1-0.2,1.9-0.7,2.7
			c-0.5,0.8-1.3,1.5-2.4,2.3c-1.2,0.8-2,1.4-2.4,1.8s-0.7,0.7-0.8,1s-0.2,0.7-0.2,1.2h7v1.6h-8.9v-0.7c0-0.8,0.1-1.5,0.3-2.1
			s0.6-1.1,1.1-1.7s1.3-1.2,2.4-1.9c1.1-0.8,1.9-1.5,2.3-2.1C1292.9,72,1293.1,71.4,1293.1,70.6z"/>
		<path d="M1297.1,74.3c0-2.5,0.4-4.4,1.2-5.7s2-1.9,3.6-1.9c3,0,4.5,2.4,4.5,7.2c0,2.4-0.4,4.2-1.3,5.5s-2,1.9-3.6,1.9
			c-1.4,0-2.6-0.6-3.3-1.8C1297.5,78.3,1297.1,76.6,1297.1,74.3z M1298.9,74.2c0,3.8,0.9,5.6,2.9,5.6c1.9,0,2.8-1.9,2.8-5.7
			c0-3.9-0.9-5.9-2.8-5.9C1299.9,68.2,1298.9,70.2,1298.9,74.2z"/>
		<path d="M1312.4,81.1V69c-0.3,0.3-0.8,0.6-1.4,0.9c-0.7,0.3-1.3,0.6-1.8,0.7v-1.8c0.8-0.2,1.6-0.5,2.4-1s1.5-0.9,2-1.3h0.7v14.4
			C1314.2,81.1,1312.4,81.1,1312.4,81.1z"/>
		<path d="M1328.2,68c-1.5,2.6-2.7,5-3.5,7.2s-1.4,4.2-1.6,5.8h-1.9c0.2-1.7,0.8-3.6,1.6-5.7s2-4.4,3.4-6.9h-7v-1.6h9V68z"/>
		<path d="M1329.5,77.3h2.9v-5.2h6.5v-3.2h-5.4c-0.8,1.5-1.7,2.8-2.8,4.1c-0.3-0.3-0.7-0.7-1.1-1c1.7-1.9,3-4.1,3.9-6.6l1.5,0.4
			c-0.3,0.6-0.5,1.2-0.8,1.8h12.6v1.3h-6.4v3.2h6.1v1.3h-6.1v3.9h7.2v1.3h-7.2v4.9h-1.5v-4.9h-9.4L1329.5,77.3L1329.5,77.3z
			 M1333.9,77.3h5v-3.9h-5V77.3z"/>
		<path d="M1357.2,68.7c-0.7-0.4-1.5-0.6-2.3-0.6c-1.2,0-2.2,0.5-2.9,1.6s-1.1,2.5-1.1,4.4h0.1c0.7-1.3,1.7-1.9,3.2-1.9
			c1.2,0,2.2,0.4,2.9,1.2c0.7,0.8,1.1,1.9,1.1,3.2c0,1.4-0.4,2.5-1.3,3.4c-0.8,0.9-1.9,1.3-3.2,1.3c-1.4,0-2.6-0.6-3.4-1.7
			s-1.2-2.7-1.2-4.8c0-2.5,0.5-4.5,1.6-5.9c1.1-1.5,2.5-2.2,4.2-2.2c1,0,1.8,0.1,2.4,0.4L1357.2,68.7L1357.2,68.7z M1350.9,76.4
			c0,0.9,0.2,1.7,0.7,2.4s1.2,1,2,1c0.8,0,1.4-0.3,1.9-0.9s0.7-1.3,0.7-2.2c0-1-0.2-1.7-0.7-2.3c-0.5-0.5-1.1-0.8-2-0.8
			c-0.8,0-1.5,0.3-1.9,0.8S1350.9,75.7,1350.9,76.4z"/>
		<path d="M1363.5,77.3c-0.3,2.3-1.2,4.5-2.8,6.4c-0.4-0.4-0.8-0.7-1.3-1.1c1.2-1.3,2-2.8,2.4-4.6c0.3-1.3,0.4-3.1,0.4-5.4v-6.3
			h12.2v14.2c0,1.8-0.9,2.7-2.6,2.7c-0.7,0-1.6,0-2.8,0c-0.1-0.4-0.2-0.9-0.3-1.5c1.1,0.1,2,0.1,2.7,0.1c1,0,1.5-0.5,1.5-1.4v-3
			L1363.5,77.3L1363.5,77.3z M1363.7,76h9.3v-3.5h-9.2C1363.8,73.7,1363.8,74.8,1363.7,76z M1363.8,67.7v3.5h9.2v-3.5H1363.8z"/>
	</g>
</g>
<g>
	<g>
		<path class="st1" d="M1246.8,158.6l2.7,0.7c-0.9,3.3-1.8,6.2-2.8,9l-2.7-1C1245.1,164.4,1246,161.6,1246.8,158.6z M1251.8,154.7
			h2.8v13.8c0,1.2-0.2,2.1-0.6,2.6c-0.4,0.6-0.9,0.9-1.4,1s-1.9,0.2-4,0.2c-0.2-1-0.4-2-0.7-2.9c1,0.1,1.8,0.2,2.6,0.2
			c0.9,0,1.3-0.5,1.3-1.5L1251.8,154.7L1251.8,154.7z M1258.9,158.6c1.2,2.7,2.3,5.5,3.4,8.4l-2.9,1.1c-1-3.1-2-6-3.1-8.7
			L1258.9,158.6z"/>
		<path class="st1" d="M1280.5,156.6c-0.4,4.1-1.6,7.6-3.3,10.4c1.1,1.3,2.3,2.3,3.8,3c-0.2,0.4-0.7,1.2-1.4,2.6
			c-1.6-0.8-2.9-1.9-4.1-3.3c-1.2,1.4-2.7,2.5-4.4,3.5c-0.2-0.4-0.4-0.8-0.6-1.2l-0.7,0.2c-0.1-0.4-0.2-0.7-0.2-1.1
			c-1.6,0.3-3.7,0.7-6.3,1.2l-0.5-2.4c1.1-0.1,2.1-0.3,3.2-0.4v-3.3h-0.9v0.9h-1.7v-9.2h2.5v-2.8h2.1v2.8h2.5v8.2h-2.5v3
			c0.4-0.1,0.8-0.1,1.1-0.2c-0.1-0.6-0.3-1.1-0.4-1.6l1.7-0.4c0.2,0.7,0.4,1.7,0.8,3c1.1-0.7,2-1.6,2.8-2.5
			c-1.6-2.7-2.6-6.1-3.1-10.2l2.3-0.4c0.5,3.3,1.3,6,2.5,8.2c1.3-2.3,2.1-5.1,2.5-8.4L1280.5,156.6z M1264.9,163.6h0.9v-4.1h-0.9
			V163.6z M1268.7,163.6v-4.1h-0.9v4.1H1268.7z M1275.5,154.4c0.6,1.4,1.1,2.9,1.6,4.3l-2.2,0.8c-0.6-1.8-1-3.3-1.4-4.4
			L1275.5,154.4z"/>
		<path class="st1" d="M1287.2,171.3h-2.6v0.9h-2.5v-8.6h7.6v8.6h-2.5L1287.2,171.3L1287.2,171.3z M1283.9,155.2h13.2v7h-13.2V155.2
			z M1284.7,169.1h2.6v-3.2h-2.6V169.1z M1294.3,157.5h-7.7v2.4h7.7V157.5z M1293.6,171.3v0.9h-2.5v-8.6h7.6v8.6h-2.5v-0.9H1293.6z
			 M1296.2,169.1v-3.2h-2.6v3.2H1296.2z"/>
		<path class="st1" d="M1304.4,154.7h2.1v5.5h0.8v2.1h-4.1v1.9h3.3v8.3h-2v-6.3h-1.3c-0.1,2.5-0.5,4.6-1.2,6.5
			c-0.6-0.5-1.2-1.1-1.9-1.5c0.7-1.6,1.1-4.1,1.1-7.4v-8.6h2.1v5.1h1.3L1304.4,154.7L1304.4,154.7z M1312.7,165.1h2.3v1.9h3v2.1h-3
			v3.4h-2.3v-3.4h-5.9V167h2.3c-0.3-0.3-0.7-0.7-1.1-1c0.8-0.4,1.4-0.9,1.9-1.5h-2.3V156h2.5c0.2-0.5,0.3-1.1,0.4-1.6l2.7,0.3
			c-0.1,0.4-0.3,0.9-0.4,1.3h4.8v8.6h-4.9c-0.5,0.9-1.2,1.7-2.1,2.5h2.3V165.1z M1309.8,159.4h1.7v-1.5h-1.7V159.4z M1311.5,161.1
			h-1.7v1.5h1.3C1311.3,162.1,1311.4,161.6,1311.5,161.1z M1315.3,162.6v-1.5h-1.8c0,0.5-0.1,1-0.2,1.5H1315.3z M1315.3,157.9h-1.8
			v1.5h1.8V157.9z"/>
		<path class="st1" d="M1318.8,170.3h7.8v-0.9h-6.7v-1.5h6.7v-0.9h-6v-6.4h6v-0.9h-7.8V158h7.8v-0.9l-6.2,0.1
			c-0.1-0.5-0.2-1.1-0.3-1.6c5.2-0.1,10.2-0.2,15.2-0.4c0,0,0.1,0.6,0.3,1.7l-6.5,0.2v1h7.9v1.6h-7.9v0.9h6.1v6.4h-6.1v0.9h6.8v1.5
			h-6.8v0.9h7.9v1.6h-18.1V170.3z M1322.9,163.1h3.7v-1h-3.7V163.1z M1322.9,165.4h3.7v-1h-3.7V165.4z M1332.7,162h-3.7v1h3.7V162z
			 M1332.7,165.4v-1h-3.7v1H1332.7z"/>
		<path class="st1" d="M1344.3,154.4l2.1,1c-0.3,0.4-0.7,0.8-1.1,1.3h1.7v1.9h-3.4c0,1.8,0,2.8,0,3h1.1v-2.3h2v4.1h-3.3
			c-0.3,1.3-1,2.3-2.1,3.1h3.9v-1.1h2c-0.4-0.3-0.9-0.6-1.3-0.9c1.1-0.9,1.6-2.4,1.6-4.3v-4.8h7.2v8.1c0,1.4-0.6,2.1-1.8,2.2
			c-0.6,0-1.4,0-2.4,0.1c-0.1-0.5-0.3-1.1-0.6-2c0.5,0,1,0,1.7,0c0.5,0,0.8-0.3,0.8-0.8v-0.5h-3.1c-0.3,1.4-0.8,2.6-1.6,3.5
			c-0.1,0-0.1-0.1-0.1-0.1v0.7h6.4v1.9h-6.4v1.5h7.7v2h-18.1v-2h7.8v-1.5h-6.3v-1.9h2.1c-0.5-0.5-1.1-1-1.6-1.5
			c0.8-0.4,1.3-0.9,1.7-1.6h-2.6v-4.1h2v2.3h1.1c0-0.1,0-1.1,0-3h-3.7v-1.9h1.8c-0.3-0.4-0.6-0.8-0.9-1.2l1.8-1.1
			c0.5,0.6,1,1.2,1.5,1.9l-0.7,0.4h1.6C1343.4,156,1343.9,155.2,1344.3,154.4z M1349.7,159.8c0,0.4,0,0.8,0,1.2h2.9v-1.2H1349.7z
			 M1352.6,157.1h-2.9v1.2h2.9V157.1z"/>
		<path class="st1" d="M1365.3,172.3c-0.1-0.7-0.3-1.6-0.7-2.7c1.5,0.1,2.7,0.2,3.5,0.2c0.7,0,1.2-0.1,1.4-0.2
			c0.3-0.1,0.4-0.3,0.6-0.6c0.1-0.2,0.2-1.1,0.3-2.5s0.2-3.2,0.3-5.5h-5.3c-0.1,1.1-0.3,2.1-0.6,3.1l1.6-1.5
			c0.8,0.7,1.9,1.7,3.1,2.8l-1.9,1.9c-1.1-1.2-2-2.2-2.8-3c-1.1,3.5-3.2,6.3-6.5,8.4c-0.9-0.8-1.6-1.5-2.2-1.9
			c3.9-2.3,6.1-5.6,6.6-9.7h-6.2v-2.4h3.3c-0.6-0.8-1.4-1.7-2.2-2.5l1.8-1.5c0.9,0.9,1.8,1.7,2.6,2.5l-1.7,1.6h2.6l0.3-4.1h2.8
			l-0.3,4.1h7.8l-0.4,7.1c-0.1,2.3-0.3,3.7-0.3,4.1s-0.3,0.9-0.6,1.3c-0.3,0.4-0.7,0.7-1.2,0.9c-0.5,0.2-1.4,0.3-2.7,0.3
			S1365.9,172.3,1365.3,172.3z"/>
		<path class="st1" d="M1388.8,170.1h-3.1l-6-9.1c-0.3-0.5-0.5-0.9-0.7-1.1h-0.1c0.1,0.5,0.1,1.2,0.1,2.3v8h-2.9v-14.1h3.3l5.8,8.9
			c0.4,0.6,0.6,1,0.7,1.1h0.1c-0.1-0.3-0.1-1-0.1-1.9v-8.1h2.9L1388.8,170.1L1388.8,170.1z"/>
		<path class="st1" d="M1400.7,165.8h-6.7c0.1,1.6,1.1,2.4,2.8,2.4c1.1,0,2.1-0.3,2.9-0.8v2.2c-0.9,0.5-2.1,0.8-3.6,0.8
			c-1.6,0-2.9-0.4-3.8-1.4s-1.3-2.2-1.3-3.8c0-1.6,0.5-2.9,1.4-3.9c0.9-1,2.1-1.5,3.6-1.5c1.4,0,2.6,0.4,3.4,1.3
			c0.8,0.9,1.2,2.1,1.2,3.6L1400.7,165.8L1400.7,165.8z M1398,164c0-1.5-0.6-2.3-1.8-2.3c-0.5,0-0.9,0.2-1.3,0.6s-0.6,1-0.7,1.6
			H1398z"/>
		<path class="st1" d="M1402,165.1c0-1.7,0.5-3,1.5-3.9c1-0.9,2.3-1.4,4-1.4c1.6,0,2.9,0.5,3.9,1.4c1,0.9,1.4,2.2,1.4,3.8
			c0,1.7-0.5,3-1.5,3.9s-2.3,1.5-4,1.5c-1.6,0-2.9-0.5-3.9-1.4C1402.5,167.9,1402,166.7,1402,165.1z M1405,165c0,2,0.8,3,2.5,3
			c1.6,0,2.4-1,2.4-3.1c0-2-0.8-3-2.4-3c-0.8,0-1.4,0.3-1.8,0.8S1405,164.1,1405,165z"/>
	</g>
</g>
<g class="st0">
	<g>
		<path d="M1577.3,70.6c0-0.8-0.2-1.4-0.7-1.8c-0.5-0.4-1.1-0.7-2-0.7c-0.6,0-1.2,0.2-1.8,0.4c-0.6,0.3-1.2,0.7-1.7,1.3v-1.7
			c0.5-0.5,1-0.8,1.6-1.1c0.6-0.3,1.3-0.4,2.1-0.4c1.3,0,2.3,0.3,3.1,1c0.8,0.7,1.2,1.6,1.2,2.8c0,1-0.2,1.9-0.7,2.7
			c-0.5,0.8-1.3,1.5-2.4,2.3c-1.2,0.8-2,1.4-2.4,1.8s-0.7,0.7-0.8,1s-0.2,0.7-0.2,1.2h7v1.6h-8.9v-0.7c0-0.8,0.1-1.5,0.3-2.1
			s0.6-1.1,1.1-1.7s1.3-1.2,2.4-1.9c1.1-0.8,1.9-1.5,2.3-2.1C1577.1,72,1577.3,71.4,1577.3,70.6z"/>
		<path d="M1581.3,74.3c0-2.5,0.4-4.4,1.2-5.7c0.8-1.3,2-1.9,3.6-1.9c3,0,4.5,2.4,4.5,7.2c0,2.4-0.4,4.2-1.3,5.5s-2,1.9-3.6,1.9
			c-1.4,0-2.6-0.6-3.3-1.8C1581.7,78.3,1581.3,76.6,1581.3,74.3z M1583.2,74.2c0,3.8,0.9,5.6,2.9,5.6c1.9,0,2.8-1.9,2.8-5.7
			c0-3.9-0.9-5.9-2.8-5.9C1584.1,68.2,1583.2,70.2,1583.2,74.2z"/>
		<path d="M1596.7,81.1V69c-0.3,0.3-0.8,0.6-1.4,0.9c-0.7,0.3-1.3,0.6-1.8,0.7v-1.8c0.8-0.2,1.6-0.5,2.4-1s1.5-0.9,2-1.3h0.7v14.4
			C1598.5,81.1,1596.7,81.1,1596.7,81.1z"/>
		<path d="M1612.4,68c-1.5,2.6-2.7,5-3.5,7.2s-1.4,4.2-1.6,5.8h-1.9c0.2-1.7,0.8-3.6,1.6-5.7s2-4.4,3.4-6.9h-7v-1.6h9V68z"/>
		<path d="M1613.8,77.3h2.9v-5.2h6.5v-3.2h-5.4c-0.8,1.5-1.7,2.8-2.8,4.1c-0.3-0.3-0.7-0.7-1.1-1c1.7-1.9,3-4.1,3.9-6.6l1.5,0.4
			c-0.3,0.6-0.5,1.2-0.8,1.8h12.6v1.3h-6.4v3.2h6.1v1.3h-6.1v3.9h7.2v1.3h-7.2v4.9h-1.5v-4.9h-9.4L1613.8,77.3L1613.8,77.3z
			 M1618.2,77.3h5v-3.9h-5V77.3z"/>
		<path d="M1637.3,81.1V69c-0.3,0.3-0.8,0.6-1.4,0.9c-0.7,0.3-1.3,0.6-1.8,0.7v-1.8c0.8-0.2,1.6-0.5,2.4-1s1.5-0.9,2-1.3h0.7v14.4
			C1639.1,81.1,1637.3,81.1,1637.3,81.1z"/>
		<path d="M1643.9,74.3c0-2.5,0.4-4.4,1.2-5.7c0.8-1.3,2-1.9,3.6-1.9c3,0,4.5,2.4,4.5,7.2c0,2.4-0.4,4.2-1.3,5.5
			c-0.8,1.3-2,1.9-3.6,1.9c-1.4,0-2.6-0.6-3.3-1.8S1643.9,76.6,1643.9,74.3z M1645.7,74.2c0,3.8,0.9,5.6,2.9,5.6
			c1.9,0,2.8-1.9,2.8-5.7c0-3.9-0.9-5.9-2.8-5.9C1646.7,68.2,1645.7,70.2,1645.7,74.2z"/>
		<path d="M1658.7,77.3c-0.3,2.3-1.2,4.5-2.8,6.4c-0.4-0.4-0.8-0.7-1.3-1.1c1.2-1.3,2-2.8,2.4-4.6c0.3-1.3,0.4-3.1,0.4-5.4v-6.3
			h12.2v14.2c0,1.8-0.9,2.7-2.6,2.7c-0.7,0-1.6,0-2.8,0c-0.1-0.4-0.2-0.9-0.3-1.5c1.1,0.1,2,0.1,2.7,0.1c1,0,1.5-0.5,1.5-1.4v-3
			L1658.7,77.3L1658.7,77.3z M1658.9,76h9.3v-3.5h-9.2C1659,73.7,1659,74.8,1658.9,76z M1659,67.7v3.5h9.2v-3.5H1659z"/>
	</g>
</g>
<g>
	<g>
		<path class="st1" d="M1552.3,164c-0.9,1.6-2.2,3-3.7,4.2c1.4,0.6,3.2,1.1,5.6,1.5c-0.5,0.9-1.1,1.8-1.6,2.7
			c-2.5-0.6-4.6-1.4-6.3-2.5c-1.8,1.1-3.9,1.9-6.3,2.7c-0.4-0.8-0.9-1.6-1.4-2.4c2-0.6,3.9-1.2,5.5-2c-0.9-0.8-1.7-1.8-2.4-2.9
			c-1.4,2.2-3,4.2-4.9,5.7c-0.3-1.1-0.5-2.2-0.8-3.1c2.4-2.2,4.2-4.8,5.3-7.8h-4.6v-2.2c0.3-1,0.6-2,0.9-3.1l2.5,0.3
			c-0.2,0.8-0.4,1.7-0.8,2.8h2.6c0.3-1,0.6-2.2,0.8-3.6l2.7,0.2l-0.8,3.4h5.1c-0.7-0.7-1.4-1.3-2.1-2l1.6-1.5
			c1.1,0.9,2.1,1.6,2.8,2.4l-1.2,1.2h3.1v2.2h-10.1c-0.2,0.5-0.4,1.1-0.6,1.7h8.9L1552.3,164L1552.3,164z M1546.3,167
			c1.3-0.9,2.2-1.9,3-2.9h-5.6C1544.4,165.2,1545.3,166.2,1546.3,167z"/>
		<path class="st1" d="M1565.9,172.5h-2.5v-8.4h-2.9v7h-2.5v-5.8c-0.7,0.8-1.5,1.5-2.3,2.3c-0.3-1.1-0.6-1.9-0.8-2.6
			c2-1.8,3.6-3.7,4.7-5.8h-4.5v-2.4h5.7c0.3-0.7,0.6-1.5,0.8-2.2l2.6,0.3c-0.2,0.7-0.4,1.3-0.7,1.9h9.4v2.4h-10.5
			c-0.5,0.9-1,1.9-1.7,2.8h2.8v-2.3h2.5v2.3h5.5v5.9c0,0.8-0.2,1.4-0.5,1.8s-0.8,0.7-1.3,0.8c-0.5,0.1-1.4,0.1-2.6,0.1
			c-0.2-1-0.3-1.8-0.4-2.4c0.6,0.1,1,0.1,1.1,0.1c0.8,0,1.2-0.4,1.2-1.3v-2.9h-3L1565.9,172.5L1565.9,172.5z"/>
		<path class="st1" d="M1587.4,170.1h-3.1l-6-9.1c-0.3-0.5-0.5-0.9-0.7-1.1h-0.1c0.1,0.5,0.1,1.2,0.1,2.3v8h-2.9v-14.1h3.3l5.8,8.9
			c0.4,0.6,0.6,1,0.7,1.1h0c-0.1-0.3-0.1-1-0.1-1.9v-8.1h2.9L1587.4,170.1L1587.4,170.1z"/>
		<path class="st1" d="M1599.1,170.1h-8.4v-14.1h8v2.5h-5v3.3h4.7v2.5h-4.7v3.4h5.4V170.1z"/>
		<path class="st1" d="M1604.4,165.1v4.9h-3v-14.1h4.9c3.5,0,5.3,1.5,5.3,4.5c0,1.4-0.5,2.6-1.6,3.5c-1.1,0.9-2.4,1.3-4,1.2
			L1604.4,165.1L1604.4,165.1z M1604.4,158.2v4.6h1.3c1.8,0,2.7-0.8,2.7-2.3c0-1.5-0.9-2.2-2.6-2.2L1604.4,158.2L1604.4,158.2z"/>
		<path class="st1" d="M1618.8,165.7h-5.4v-2.1h5.4V165.7z"/>
		<path class="st1" d="M1621.8,169.7v-2.6c1,0.6,2,0.9,3.1,0.9c0.8,0,1.5-0.2,2-0.6s0.7-1,0.7-1.7c0-1.5-1-2.2-3-2.2
			c-0.7,0-1.6,0.1-2.6,0.2l0.5-7.8h7.5v2.4h-5.1l-0.2,3c0.5,0,1-0.1,1.4-0.1c1.4,0,2.5,0.4,3.3,1.1s1.2,1.8,1.2,3.1
			c0,1.4-0.5,2.6-1.4,3.5c-1,0.9-2.3,1.4-3.9,1.4C1623.8,170.3,1622.7,170.1,1621.8,169.7z"/>
		<path class="st1" d="M1650.2,169.9c-0.4,0.9-0.7,1.7-0.9,2.4l-9.6-0.1c-1.1,0-2.1-0.2-2.8-0.5c-0.7-0.3-1.3-0.7-1.8-1.3l-2,2.3
			l-1.1-2.8l1.8-1.5v-5h-1.6v-2.4h3.9v7.5c0.7,1,2,1.5,3.9,1.5l4.1,0.1C1645.8,169.9,1647.9,169.9,1650.2,169.9z M1634.4,154.5
			c1.1,1.3,1.9,2.4,2.5,3.3l-2.2,1.4c-0.8-1.3-1.6-2.5-2.4-3.5L1634.4,154.5z M1649.1,155.1v2.1l-3.8,2.1h3.8v7.9
			c0,0.6-0.1,1-0.3,1.4s-0.6,0.6-1,0.7s-1.3,0.1-2.7,0.1c-0.1-0.6-0.3-1.2-0.5-1.9c0.6,0,1.1,0.1,1.4,0.1c0.5,0,0.8-0.3,0.8-0.8
			v-0.3h-2.5v2.7h-2.2v-2.7h-2.4v2.8h-2.3v-9.8h3.5l-2-1.2l0.9-1.1h-2.6v-1.9L1649.1,155.1L1649.1,155.1z M1639.8,162.1h2.4V161
			h-2.4V162.1z M1639.8,164.8h2.4v-1.1h-2.4V164.8z M1645.9,157.1h-5.4c0.8,0.4,1.6,0.9,2.6,1.5L1645.9,157.1z M1646.8,161h-2.5v1.1
			h2.5V161z M1644.3,164.8h2.5v-1.1h-2.5V164.8z"/>
		<path class="st1" d="M1656.3,166c0.1,0.5,0.2,1.4,0.4,2.5c-1.2,0.8-2.4,1.8-3.9,3.1l-1.1-2c0.3-0.4,0.5-0.8,0.5-1.4v-5.8h-1.5V160
			h3.9v7.3L1656.3,166z M1653.3,154.5c0.7,1,1.4,2.1,2.2,3.4c-0.6,0.3-1.3,0.7-2.2,1.3c-0.7-1.2-1.3-2.3-2-3.4L1653.3,154.5z
			 M1655.9,169.2h1.5v-9.1h2.5v9.1h2v-11.1h-5.3v-2.4h12.1v2.4h-4.3v4.1h3.9v2.4h-3.9v4.6h4.5v2.4h-12.9L1655.9,169.2L1655.9,169.2z
			"/>
		<path class="st1" d="M1669.3,165.1c0.9-1.6,1.6-3.3,2.1-4.9h-1.9v-2.4h2.1v-3.2h2.2v3.2h1.8v2.4h-1.8v2.1c0.8,0.4,1.5,0.9,2.2,1.3
			l-1.1,2.1c-0.3-0.2-0.6-0.5-1.1-0.8v7.7h-2.2V165c-0.5,1.2-1,2.3-1.6,3.4C1669.7,167.2,1669.5,166,1669.3,165.1z M1677.1,163.6
			l2.2,0.6c-0.7,2.4-1.5,4.4-2.3,6.1c-0.8-0.4-1.5-0.7-2.2-0.9C1675.6,167.8,1676.4,165.9,1677.1,163.6z M1675.6,160.1h11.7v2.4
			h-4.6v7.8c0,0.6-0.2,1.1-0.5,1.5s-0.9,0.6-1.6,0.6s-1.6,0.1-2.8,0.1c-0.2-1-0.3-1.8-0.5-2.5c0.6,0.1,1.2,0.1,1.7,0.1
			c0.7,0,1.1-0.3,1.1-1v-6.5h-4.6V160.1z M1676.3,155.5h10.3v2.4h-10.3V155.5z M1685.4,163.8c0.8,1.8,1.5,3.8,2.2,5.8l-2.2,0.9
			c-0.7-2.1-1.4-4.1-2.1-5.9L1685.4,163.8z"/>
		<path class="st1" d="M1690,155.4c0.9,1.2,1.9,2.4,2.8,3.8l-2.2,1.5c-0.8-1.4-1.7-2.7-2.7-4L1690,155.4z M1690.5,162.8
			c0.8,0.4,1.6,0.9,2.4,1.2l-2.7,7.8c-0.7-0.5-1.4-1-2.3-1.5C1688.8,168.3,1689.7,165.8,1690.5,162.8z M1695.4,154.5l2.4,0.6
			c-0.3,0.9-0.6,1.7-1,2.5h3.8c-0.5-0.6-1-1.3-1.7-2l1.8-1.3c0.8,0.8,1.6,1.6,2.2,2.5l-1.2,0.8h4.1v2h-3.7v2h3.6v1.9h-3.6v2h3.6v1.9
			h-3.6v2h3.9v1.9h-9.6v1.3h-2.5v-10c-0.3,0.5-0.7,0.9-1,1.4c-0.4-0.9-0.8-1.8-1.2-2.4C1693.4,159.5,1694.6,157.2,1695.4,154.5z
			 M1696.5,161.5h3.2v-2h-3.2V161.5z M1696.5,165.4h3.2v-2h-3.2V165.4z M1696.5,169.3h3.2v-2h-3.2V169.3z"/>
	</g>
</g>
<g class="st0">
	<g>
		<path d="M1873.8,70.6c0-0.8-0.2-1.4-0.7-1.8s-1.1-0.7-2-0.7c-0.6,0-1.2,0.2-1.8,0.4c-0.6,0.3-1.1,0.7-1.7,1.3v-1.7
			c0.5-0.5,1-0.8,1.6-1.1s1.3-0.4,2.1-0.4c1.3,0,2.3,0.3,3.1,1c0.8,0.7,1.2,1.6,1.2,2.8c0,1-0.2,1.9-0.7,2.7
			c-0.5,0.8-1.3,1.5-2.4,2.3c-1.2,0.8-2,1.4-2.4,1.8s-0.7,0.7-0.8,1s-0.2,0.7-0.2,1.2h7v1.6h-8.9v-0.7c0-0.8,0.1-1.5,0.3-2.1
			s0.6-1.1,1.1-1.7s1.3-1.2,2.4-1.9c1.1-0.8,1.9-1.5,2.3-2.1C1873.6,72,1873.8,71.4,1873.8,70.6z"/>
		<path d="M1877.8,74.3c0-2.5,0.4-4.4,1.2-5.7c0.8-1.3,2-1.9,3.6-1.9c3,0,4.5,2.4,4.5,7.2c0,2.4-0.4,4.2-1.3,5.5
			c-0.8,1.3-2,1.9-3.6,1.9c-1.4,0-2.6-0.6-3.3-1.8S1877.8,76.6,1877.8,74.3z M1879.7,74.2c0,3.8,0.9,5.6,2.9,5.6
			c1.9,0,2.8-1.9,2.8-5.7c0-3.9-0.9-5.9-2.8-5.9C1880.6,68.2,1879.7,70.2,1879.7,74.2z"/>
		<path d="M1893.2,81.1V69c-0.3,0.3-0.8,0.6-1.4,0.9c-0.7,0.3-1.3,0.6-1.9,0.7v-1.8c0.8-0.2,1.6-0.5,2.4-1c0.9-0.4,1.5-0.9,2-1.3
			h0.7v14.4C1895,81.1,1893.2,81.1,1893.2,81.1z"/>
		<path d="M1899.8,77.1c0-0.8,0.2-1.6,0.7-2.2c0.5-0.7,1.1-1.2,1.9-1.5c-0.6-0.3-1.1-0.8-1.5-1.3s-0.5-1.1-0.5-1.8
			c0-0.7,0.2-1.3,0.5-1.8s0.8-1,1.4-1.3c0.6-0.3,1.3-0.5,2-0.5c0.7,0,1.4,0.2,2,0.5s1.1,0.8,1.4,1.3c0.3,0.6,0.5,1.2,0.5,1.8
			c0,0.6-0.2,1.2-0.5,1.8c-0.4,0.5-0.8,1-1.5,1.3c0.8,0.3,1.4,0.8,1.9,1.5c0.5,0.7,0.7,1.4,0.7,2.2c0,0.8-0.2,1.5-0.6,2.2
			c-0.4,0.6-0.9,1.1-1.6,1.5c-0.7,0.3-1.5,0.5-2.4,0.5s-1.7-0.2-2.4-0.5c-0.7-0.3-1.2-0.8-1.6-1.5
			C1900,78.6,1899.8,77.9,1899.8,77.1z M1901.6,77c0,0.8,0.3,1.5,0.8,2s1.2,0.8,2.1,0.8c0.8,0,1.5-0.3,2.1-0.8
			c0.5-0.5,0.8-1.2,0.8-2c0-0.8-0.3-1.4-0.8-2c-0.5-0.5-1.2-0.8-2.1-0.8c-0.8,0-1.5,0.3-2,0.8C1901.9,75.6,1901.6,76.2,1901.6,77z
			 M1902.1,70.4c0,0.6,0.2,1.2,0.7,1.6s1,0.7,1.6,0.7c0.6,0,1.2-0.2,1.7-0.7c0.5-0.5,0.7-1,0.7-1.6c0-0.6-0.2-1.2-0.7-1.6
			c-0.4-0.4-1-0.7-1.7-0.7s-1.2,0.2-1.7,0.7S1902.1,69.8,1902.1,70.4z"/>
		<path d="M1910.3,77.3h2.9v-5.2h6.5v-3.2h-5.4c-0.8,1.5-1.7,2.8-2.8,4.1c-0.3-0.3-0.7-0.7-1.1-1c1.7-1.9,3-4.1,3.9-6.6l1.5,0.4
			c-0.3,0.6-0.5,1.2-0.8,1.8h12.6v1.3h-6.4v3.2h6.1v1.3h-6.1v3.9h7.2v1.3h-7.2v4.9h-1.5v-4.9h-9.4L1910.3,77.3L1910.3,77.3z
			 M1914.6,77.3h5v-3.9h-5V77.3z"/>
		<path d="M1933.8,81.1V69c-0.3,0.3-0.8,0.6-1.4,0.9c-0.7,0.3-1.3,0.6-1.9,0.7v-1.8c0.8-0.2,1.6-0.5,2.4-1c0.9-0.4,1.5-0.9,2-1.3
			h0.7v14.4C1935.6,81.1,1933.8,81.1,1933.8,81.1z"/>
		<path d="M1944.3,77.3c-0.3,2.3-1.2,4.5-2.8,6.4c-0.4-0.4-0.8-0.7-1.3-1.1c1.2-1.3,2-2.8,2.4-4.6c0.3-1.3,0.4-3.1,0.4-5.4v-6.3
			h12.2v14.2c0,1.8-0.9,2.7-2.6,2.7c-0.7,0-1.6,0-2.8,0c-0.1-0.4-0.1-0.9-0.3-1.5c1.1,0.1,2,0.1,2.6,0.1c1,0,1.5-0.5,1.5-1.4v-3
			L1944.3,77.3L1944.3,77.3z M1944.4,76h9.3v-3.5h-9.2C1944.5,73.7,1944.5,74.8,1944.4,76z M1944.5,67.7v3.5h9.2v-3.5H1944.5z"/>
	</g>
</g>
<g>
	<g>
		<path class="st1" d="M1840.6,154.4h2.5c-0.2,0.4-0.4,0.9-0.6,1.3h4.5v1.7c0.7-0.9,1.3-1.9,1.7-2.9h2.5c-0.2,0.4-0.3,0.9-0.5,1.3
			h4.8v1.7h-3.1c0.4,0.3,0.8,0.7,1.1,1l-1.1,0.9h2v5h-6.4v1.1h7.2c-0.1,2.9-0.2,4.6-0.6,4.9s-0.6,0.7-1,0.9
			c-0.4,0.2-1.8,0.4-4.4,0.3c-0.2-0.7-0.4-1.5-0.6-2.2c1.6,0.1,2.4,0.1,2.5,0.1c0.4,0,0.7-0.1,1-0.2c0.2-0.1,0.4-0.3,0.4-0.5
			c0.1-0.2,0.1-0.7,0.1-1.3h-4.7v5h-2.5V168c-1.6,1.8-3.8,3.2-6.6,4.4c-0.4-0.6-0.8-1.3-1.4-2.2c2.2-0.7,4-1.6,5.4-2.7h-4.3l0.9-5h6
			v-1.1h-6.3v-1.6c-0.1,0.1-0.3,0.3-0.4,0.4c-0.5-0.6-0.9-1.1-1.5-1.7C1838.9,157.3,1839.9,155.9,1840.6,154.4z M1842.2,158l0.8-0.6
			h-1.5c-0.5,0.7-1.1,1.4-1.6,1.9h3.8C1843.1,158.9,1842.7,158.5,1842.2,158z M1841.4,165.5h4.2v-1.1h-4L1841.4,165.5z
			 M1844.2,157.4c0.4,0.4,0.9,0.8,1.3,1.1l-1,0.8h3.8c-0.6-0.4-1.2-0.8-1.9-1.3c0.2-0.2,0.4-0.4,0.6-0.7L1844.2,157.4L1844.2,157.4z
			 M1852,162.4v-1.1h-3.9v1.1H1852z M1848.4,159.4h3.4c-0.4-0.4-0.9-0.9-1.4-1.4l0.6-0.6h-1.2
			C1849.4,158.1,1848.9,158.8,1848.4,159.4z"/>
		<path class="st1" d="M1856.6,162.1h17.6v2.7h-17.6V162.1z"/>
		<path class="st1" d="M1876.8,155.2h15.4v5.7h-12.8c0,3.5-0.2,6-0.6,7.5s-1,2.8-1.6,3.9c-0.8-0.9-1.5-1.6-2-2.2
			c0.5-0.8,0.9-1.7,1.2-2.8c0.3-1.1,0.5-3.2,0.5-6.3L1876.8,155.2L1876.8,155.2z M1889.6,158.8v-1.5h-10.3v1.5H1889.6z
			 M1879.8,172.5v-10.1h4.9v-1.3h2.4v1.3h4.9v10.1h-2.4v-0.9h-7.5v0.9H1879.8z M1882.2,166.1h2.5v-1.6h-2.5V166.1z M1882.2,169.6
			h2.5V168h-2.5V169.6z M1889.8,164.5h-2.5v1.6h2.5V164.5z M1887.2,169.6h2.5V168h-2.5V169.6z"/>
		<path class="st1" d="M1893.8,162.4h4.2v-4.5h-3.2v-2.4h16.3v2.4h-2.9v4.5h3.7v2.4h-3.7v7.5h-2.6v-7.5h-4.9c-0.1,2.2-0.5,3.9-1.2,5
			s-1.8,2.1-3.2,2.9c-0.7-0.6-1.4-1.2-2.3-1.9c1.1-0.6,2.1-1.3,2.8-2.2s1.2-2.1,1.3-3.8h-4.1L1893.8,162.4L1893.8,162.4z
			 M1900.7,162.4h4.8v-4.5h-4.8V162.4z"/>
		<path class="st1" d="M1928.7,164c-0.9,1.6-2.1,3-3.6,4.2c1.4,0.6,3.2,1.1,5.6,1.5c-0.5,0.9-1.1,1.8-1.6,2.7
			c-2.5-0.6-4.6-1.4-6.3-2.5c-1.8,1.1-3.9,1.9-6.4,2.7c-0.4-0.8-0.9-1.6-1.4-2.4c2-0.6,3.9-1.2,5.5-2c-0.9-0.8-1.7-1.8-2.4-2.9
			c-1.4,2.2-3,4.2-4.9,5.7c-0.3-1.1-0.5-2.2-0.8-3.1c2.4-2.2,4.1-4.8,5.3-7.8h-4.6v-2.2c0.3-1,0.6-2,0.9-3.1l2.5,0.3
			c-0.2,0.8-0.4,1.7-0.8,2.8h2.6c0.3-1,0.6-2.2,0.8-3.6l2.6,0.2l-0.8,3.4h5.1c-0.7-0.7-1.4-1.3-2.1-2l1.6-1.5
			c1.1,0.9,2.1,1.6,2.9,2.4l-1.1,1.2h3.1v2.2h-10.1c-0.2,0.5-0.4,1.1-0.6,1.7h8.9L1928.7,164L1928.7,164z M1922.7,167
			c1.3-0.9,2.2-1.9,3-2.9h-5.6C1920.8,165.2,1921.6,166.2,1922.7,167z"/>
		<path class="st1" d="M1931.3,159.6h6.3v-1.4h-4.8V156h4.8v-1.6h2.5v1.6h4.4v2c0.8-0.8,1.6-1.7,2.4-2.7l1.8,1.4
			c-0.9,1-1.8,2-2.7,2.8h3.4v2.1h-6.1c-0.7,0.5-1.5,1-2.3,1.4h6.4v9.4h-2.5v-0.8h-8.5v0.8h-2.5v-6.6c-0.6,0.2-1.3,0.4-1.9,0.6
			c-0.2-0.7-0.4-1.4-0.8-2.3c3.4-0.6,6.1-1.4,8.2-2.5h-8.1L1931.3,159.6L1931.3,159.6z M1944.8,165.2h-8.5v1.3h8.5V165.2z
			 M1936.3,169.7h8.5v-1.3h-8.5V169.7z M1944.3,158.2h-4.2v1.4h2.6C1943.2,159.1,1943.8,158.7,1944.3,158.2z"/>
		<path class="st1" d="M1950.2,159.2h7.2c0.1-1.3,0.1-2.9,0.1-4.6h2.8c0,1.8-0.1,3.3-0.1,4.6h7.5v2.5h-7.3c1.1,4.1,3.6,6.8,7.6,8.2
			c-0.9,1-1.6,1.8-2.1,2.5c-3.3-1.6-5.6-4.1-6.9-7.5c-1,3.2-3.4,5.7-7,7.7c-0.5-0.6-1.2-1.4-2.1-2.3c4.4-2,6.9-4.8,7.3-8.5h-6.9
			L1950.2,159.2L1950.2,159.2z"/>
		<path class="st1" d="M1979.6,154.5l-0.5,0.6c1.6,2.3,4.1,4.3,7.6,5.9c-0.6,0.8-1.2,1.5-1.6,2.2c-0.9-0.5-1.8-1-2.6-1.5v1.2h-9.8
			v-1.4c-0.8,0.5-1.6,1.1-2.6,1.6c-0.4-0.5-0.9-1.2-1.6-2.1c4-2.1,6.6-4.3,8-6.5L1979.6,154.5L1979.6,154.5z M1969.3,164.4h16.8v2.3
			h-4.6c1.2,1.4,2.4,3,3.7,4.7l-2.2,1.4c-0.3-0.4-0.6-0.8-0.8-1.2c-2.3,0.1-5.2,0.2-8.7,0.4c-0.5,0-1.2,0.1-1.9,0.3l-1.1-2.2
			c1.1-0.8,2.2-1.9,3.3-3.4h-4.5V164.4z M1977.6,157.2c-0.9,1.1-2.1,2.3-3.6,3.5h7.2C1979.7,159.6,1978.6,158.4,1977.6,157.2z
			 M1979.2,167.7l1.6-0.9h-3.9c-0.6,0.8-1.4,1.7-2.4,2.8c1.4,0,3.4-0.1,5.9-0.2C1980.1,168.8,1979.7,168.2,1979.2,167.7z"/>
		<path class="st1" d="M1888.2,195h-2.7v-17.5h2.7V195z M1890.1,194.8v-17.1h11.5v17.1h-2.6v-1.1h-6.2v1.1H1890.1z M1898.9,180h-6.2
			v4.4h6.2V180z M1892.7,191.3h6.2v-4.6h-6.2V191.3z"/>
		<path class="st1" d="M1903.6,192.2h3.9c-0.5-0.6-1.1-1.4-1.8-2.3l2.1-1.3c0.6,0.7,1.3,1.5,2,2.4l-1.8,1.1h2.8v-3.6h-5.8v-2.2h5.8
			v-1.5h-3.5v-1.5c-0.9,0.6-1.8,1.1-2.8,1.7c-0.4-0.7-0.9-1.5-1.5-2.4c3.7-1.6,6.4-3.5,8.1-5.7h3.7l-0.8,0.8c1.9,2,4.4,3.5,7.4,4.5
			c-0.6,0.9-1.1,1.8-1.5,2.5c-1-0.5-1.9-0.9-2.8-1.5v1.6h-3.6v1.5h5.8v2.2h-2.7l2.2,1.2c-0.7,0.9-1.3,1.7-1.9,2.4h3.9v2.2h-17.2
			L1903.6,192.2L1903.6,192.2z M1912.2,179.4c-1.1,1.1-2.4,2.2-3.8,3.2h7.6C1914.5,181.6,1913.3,180.6,1912.2,179.4z M1916.5,188.6
			h-2.9v3.6h2.8l-1.8-1C1915.3,190.4,1915.9,189.5,1916.5,188.6z"/>
		<path class="st1" d="M1936.1,194.9v-1.4h-13.2v-13h2.7V191h3.9v-14h2.8v14h3.9v-10.5h2.7v14.5L1936.1,194.9L1936.1,194.9z"/>
	</g>
</g>
<g class="st0">
	<g>
		<path d="M2162.8,70.6c0-0.8-0.2-1.4-0.7-1.8s-1.1-0.7-2-0.7c-0.6,0-1.2,0.2-1.8,0.4c-0.6,0.3-1.1,0.7-1.7,1.3v-1.7
			c0.5-0.5,1-0.8,1.6-1.1s1.3-0.4,2.1-0.4c1.3,0,2.3,0.3,3.1,1c0.8,0.7,1.2,1.6,1.2,2.8c0,1-0.2,1.9-0.7,2.7
			c-0.5,0.8-1.3,1.5-2.4,2.3c-1.2,0.8-2,1.4-2.4,1.8s-0.7,0.7-0.8,1s-0.2,0.7-0.2,1.2h7v1.6h-8.9v-0.7c0-0.8,0.1-1.5,0.3-2.1
			s0.6-1.1,1.1-1.7s1.3-1.2,2.4-1.9c1.1-0.8,1.9-1.5,2.3-2.1C2162.6,72,2162.8,71.4,2162.8,70.6z"/>
		<path d="M2166.8,74.3c0-2.5,0.4-4.4,1.2-5.7c0.8-1.3,2-1.9,3.6-1.9c3,0,4.5,2.4,4.5,7.2c0,2.4-0.4,4.2-1.3,5.5s-2,1.9-3.6,1.9
			c-1.4,0-2.6-0.6-3.3-1.8S2166.8,76.6,2166.8,74.3z M2168.7,74.2c0,3.8,0.9,5.6,2.9,5.6c1.9,0,2.8-1.9,2.8-5.7
			c0-3.9-0.9-5.9-2.8-5.9C2169.6,68.2,2168.7,70.2,2168.7,74.2z"/>
		<path d="M2182.2,81.1V69c-0.3,0.3-0.8,0.6-1.4,0.9c-0.7,0.3-1.3,0.6-1.9,0.7v-1.8c0.8-0.2,1.6-0.5,2.4-1c0.9-0.4,1.5-0.9,2-1.3
			h0.7v14.4C2184,81.1,2182.2,81.1,2182.2,81.1z"/>
		<path d="M2188.8,77.1c0-0.8,0.2-1.6,0.7-2.2c0.5-0.7,1.1-1.2,1.9-1.5c-0.6-0.3-1.1-0.8-1.5-1.3s-0.5-1.1-0.5-1.8
			c0-0.7,0.2-1.3,0.5-1.8s0.8-1,1.4-1.3c0.6-0.3,1.3-0.5,2-0.5c0.7,0,1.4,0.2,2,0.5c0.6,0.3,1.1,0.8,1.4,1.3
			c0.3,0.6,0.5,1.2,0.5,1.8c0,0.6-0.2,1.2-0.5,1.8c-0.4,0.5-0.8,1-1.5,1.3c0.8,0.3,1.4,0.8,1.9,1.5c0.5,0.7,0.7,1.4,0.7,2.2
			c0,0.8-0.2,1.5-0.6,2.2c-0.4,0.6-0.9,1.1-1.6,1.5c-0.7,0.3-1.5,0.5-2.4,0.5s-1.7-0.2-2.4-0.5c-0.7-0.3-1.2-0.8-1.6-1.5
			C2189,78.6,2188.8,77.9,2188.8,77.1z M2190.6,77c0,0.8,0.3,1.5,0.8,2s1.2,0.8,2.1,0.8c0.8,0,1.5-0.3,2.1-0.8
			c0.5-0.5,0.8-1.2,0.8-2c0-0.8-0.3-1.4-0.8-2c-0.5-0.5-1.2-0.8-2.1-0.8c-0.8,0-1.5,0.3-2,0.8C2190.9,75.6,2190.6,76.2,2190.6,77z
			 M2191.1,70.4c0,0.6,0.2,1.2,0.7,1.6c0.4,0.4,1,0.7,1.6,0.7c0.6,0,1.2-0.2,1.7-0.7s0.7-1,0.7-1.6c0-0.6-0.2-1.2-0.7-1.6
			c-0.4-0.4-1-0.7-1.7-0.7s-1.2,0.2-1.7,0.7S2191.1,69.8,2191.1,70.4z"/>
		<path d="M2199.3,77.3h2.9v-5.2h6.5v-3.2h-5.4c-0.8,1.5-1.7,2.8-2.8,4.1c-0.3-0.3-0.7-0.7-1.1-1c1.7-1.9,3-4.1,3.9-6.6l1.5,0.4
			c-0.3,0.6-0.5,1.2-0.8,1.8h12.6v1.3h-6.4v3.2h6.1v1.3h-6.1v3.9h7.2v1.3h-7.2v4.9h-1.5v-4.9h-9.4V77.3z M2203.6,77.3h5v-3.9h-5
			V77.3z"/>
		<path d="M2227.2,76.7c0,1.4-0.5,2.5-1.4,3.3s-2.1,1.3-3.7,1.3c-1.3,0-2.3-0.2-3-0.6v-1.8c1,0.6,1.9,0.9,2.9,0.9s1.8-0.3,2.4-0.8
			s0.9-1.3,0.9-2.2s-0.3-1.6-0.9-2.1s-1.5-0.8-2.7-0.8c-0.9,0-1.7,0-2.4,0.1l0.5-7.2h6.6v1.6h-5.1l-0.3,4l1.3-0.1
			c1.5,0,2.7,0.4,3.5,1.1C2226.8,74.3,2227.2,75.3,2227.2,76.7z"/>
		<path d="M2233.3,77.3c-0.3,2.3-1.2,4.5-2.8,6.4c-0.4-0.4-0.8-0.7-1.3-1.1c1.2-1.3,2-2.8,2.4-4.6c0.3-1.3,0.4-3.1,0.4-5.4v-6.3
			h12.2v14.2c0,1.8-0.9,2.7-2.6,2.7c-0.7,0-1.6,0-2.8,0c-0.1-0.4-0.1-0.9-0.3-1.5c1.1,0.1,2,0.1,2.6,0.1c1,0,1.5-0.5,1.5-1.4v-3
			L2233.3,77.3L2233.3,77.3z M2233.4,76h9.3v-3.5h-9.2C2233.5,73.7,2233.5,74.8,2233.4,76z M2233.5,67.7v3.5h9.2v-3.5H2233.5z"/>
	</g>
</g>
<g>
	<g>
		<path class="st1" d="M2158.5,170.1h-3.1l-6-9.1c-0.3-0.5-0.5-0.9-0.7-1.1h-0.1c0.1,0.5,0.1,1.2,0.1,2.3v8h-2.9v-14.1h3.3l5.8,8.9
			c0.4,0.6,0.6,1,0.7,1.1h0c-0.1-0.3-0.1-1-0.1-1.9v-8.1h2.9L2158.5,170.1L2158.5,170.1z"/>
		<path class="st1" d="M2170.4,165.8h-6.6c0.1,1.6,1.1,2.4,2.8,2.4c1.1,0,2.1-0.3,2.9-0.8v2.2c-0.9,0.5-2.1,0.8-3.6,0.8
			c-1.6,0-2.9-0.4-3.8-1.4s-1.3-2.2-1.3-3.8c0-1.6,0.5-2.9,1.4-3.9s2.1-1.5,3.6-1.5c1.4,0,2.6,0.4,3.4,1.3c0.8,0.9,1.2,2.1,1.2,3.6
			L2170.4,165.8L2170.4,165.8z M2167.7,164c0-1.5-0.6-2.3-1.8-2.3c-0.5,0-0.9,0.2-1.3,0.6c-0.4,0.4-0.6,1-0.7,1.6H2167.7z"/>
		<path class="st1" d="M2171.7,165.1c0-1.7,0.5-3,1.5-3.9c1-0.9,2.3-1.4,4-1.4c1.6,0,2.9,0.5,3.9,1.4c1,0.9,1.4,2.2,1.4,3.8
			c0,1.7-0.5,3-1.5,3.9s-2.3,1.5-4,1.5c-1.6,0-2.9-0.5-3.9-1.4S2171.7,166.7,2171.7,165.1z M2174.7,165c0,2,0.8,3,2.5,3
			c1.6,0,2.4-1,2.4-3.1c0-2-0.8-3-2.4-3c-0.8,0-1.4,0.3-1.8,0.8C2174.9,163.3,2174.7,164.1,2174.7,165z"/>
		<path class="st1" d="M2190.7,160.9h3.8v-2h-4l0.6,0.3c-1.5,2.3-2.8,4.2-3.9,5.6c0.9-0.1,1.8-0.2,2.8-0.3c-0.1,0.8-0.1,1.6-0.1,2.3
			c-2.7,0.3-4.5,0.6-5.4,0.8l-0.7-2.1c0.8-0.7,1.7-1.8,2.8-3.4c-0.9,0.1-1.7,0.1-2.4,0.2l-0.7-2.1c1-1.2,2-3.2,3.2-5.9l2.4,0.9
			c-1,1.8-1.9,3.4-2.9,4.9l1.7-0.1l1.1-1.9l1.2,0.6v-2h4.4v-2.3h2.6v2.3h4.6v2.2h-4.6v2h4v2.2h-10.4L2190.7,160.9L2190.7,160.9z
			 M2184,171.6l-0.4-2.6c2.1-0.3,4.4-0.6,6.8-0.9c-0.1,1-0.1,1.9-0.1,2.5C2188.1,170.9,2186,171.2,2184,171.6z M2190.9,172.5v-7.9
			h10v7.9h-2.4v-1.1h-5.1v1.1H2190.9z M2198.4,166.9h-5.1v2.3h5.1V166.9z"/>
		<path class="st1" d="M2202.2,165.1c0.9-1.4,1.7-3,2.2-4.8h-2v-2.2h2.2v-3.5h2.4v3.5h1.8v1c1-1.3,1.8-2.8,2.3-4.4l2.5,0.2
			c-0.2,0.6-0.5,1.2-0.7,1.7h6.8c0,2.7,0,5,0,7c0,2-0.1,3.6-0.1,4.8c0,1.2-0.3,2.1-0.9,2.7s-1.2,1-1.9,1c-0.8,0.1-2.1,0.1-4,0.1
			c-0.2-1-0.4-1.8-0.5-2.5c1.3,0.1,2.4,0.2,3.2,0.2c0.5,0,0.9-0.1,1.2-0.4c0.3-0.3,0.5-0.9,0.5-1.8l-1.2,0.6l-0.4-0.8
			c-2.9,0.2-5.1,0.5-6.4,0.8l-0.8-2.1c0.9-0.7,2.1-2.8,3.5-6.2l2.3,0.9l-2.9,4.9l3.2-0.2c-0.4-0.8-0.8-1.6-1.3-2.4l1.9-1
			c0.7,1.1,1.4,2.3,2,3.5c0-1.8,0.1-4.1,0.1-6.9h-5.6c-0.6,1.1-1.3,2.1-2.1,3c-0.5-0.6-1-1.1-1.5-1.6h-1.1v1.1
			c0.9,0.8,1.7,1.6,2.5,2.3l-1.6,1.5c-0.3-0.4-0.6-0.9-0.9-1.3v8.6h-2.4v-7.7c-0.5,1.3-1.1,2.5-1.8,3.6
			C2202.7,167.6,2202.5,166.4,2202.2,165.1z"/>
		<path class="st1" d="M2221,170.3h7.8v-0.9h-6.6v-1.5h6.6v-0.9h-6v-6.4h6v-0.9h-7.8V158h7.8v-0.9l-6.2,0.1
			c-0.1-0.5-0.2-1.1-0.4-1.6c5.2-0.1,10.2-0.2,15.2-0.4c0,0,0.1,0.6,0.4,1.7l-6.5,0.2v1h7.9v1.6h-7.9v0.9h6.1v6.4h-6.1v0.9h6.8v1.5
			h-6.8v0.9h7.9v1.6H2221V170.3z M2225.2,163.1h3.6v-1h-3.6V163.1z M2225.2,165.4h3.6v-1h-3.6V165.4z M2235,162h-3.7v1h3.7V162z
			 M2235,165.4v-1h-3.7v1H2235z"/>
		<path class="st1" d="M2240.1,171.7l-0.4-2.4c2.2-0.2,4.4-0.5,6.7-0.9c0,0.4,0,0.7-0.1,1.1h0.9V159c-1.4,2.2-2.6,4.2-3.9,6l3.2-0.4
			c-0.1,0.9-0.2,1.6-0.2,2.2c-3.1,0.3-5,0.6-5.6,0.8l-0.9-2.2c0.6-0.4,1.6-1.5,2.8-3.4c-1.2,0.1-2,0.2-2.4,0.3l-0.7-2.1
			c0.7-0.4,1.8-2.4,3.4-5.8l2.3,0.9c-1,1.8-2,3.4-2.9,4.8l1.6-0.1c0.4-0.7,0.8-1.4,1.2-2.1l2,1v-3.6h9.4v14.2h1.1v2.4H2246v-1
			L2240.1,171.7z M2254.1,157.6h-4.3v2.4h4.3V157.6z M2249.8,164.7h4.3v-2.4h-4.3V164.7z M2249.8,169.5h4.3V167h-4.3V169.5z"/>
		<path class="st1" d="M2174.2,192.5h-3.1l-6-9.1c-0.3-0.5-0.5-0.9-0.7-1.1h-0.1c0.1,0.5,0.1,1.2,0.1,2.2v8h-2.9v-14.1h3.3l5.8,8.9
			c0.4,0.6,0.6,1,0.7,1.1h0c-0.1-0.3-0.1-1-0.1-1.9v-8.1h2.9L2174.2,192.5L2174.2,192.5z"/>
		<path class="st1" d="M2189,191.6c-1.4,0.8-3.1,1.2-5.1,1.2c-2.2,0-4-0.6-5.3-1.9c-1.3-1.3-1.9-3-1.9-5.2c0-2.2,0.7-4,2.1-5.4
			c1.4-1.4,3.3-2.1,5.7-2.1c1.5,0,2.8,0.2,3.9,0.6v2.9c-1.1-0.6-2.4-1-4-1c-1.4,0-2.5,0.4-3.3,1.3s-1.3,2.1-1.3,3.5
			c0,1.5,0.4,2.6,1.1,3.5c0.8,0.8,1.8,1.2,3.1,1.2c0.8,0,1.4-0.1,1.9-0.4v-2.9h-2.9v-2.4h5.9L2189,191.6L2189,191.6z"/>
		<path class="st1" d="M2191.8,192.5v-14.1h4.9c5,0,7.5,2.3,7.5,6.9c0,2.2-0.7,3.9-2.1,5.3c-1.4,1.3-3.2,2-5.4,2H2191.8z
			 M2194.8,180.8v9.2h1.6c1.4,0,2.6-0.4,3.4-1.3c0.8-0.9,1.2-2,1.2-3.5c0-1.4-0.4-2.5-1.3-3.3s-2-1.2-3.3-1.2L2194.8,180.8
			L2194.8,180.8z"/>
		<path class="st1" d="M2209.6,192.5c-0.1-1-0.3-1.9-0.4-2.7c0.6,0.1,1,0.2,1.4,0.2c0.6,0,1-0.3,1.1-1s0.1-1.5,0.1-2.5h-2.7
			c0,3.8-0.6,6.6-1.8,8.5c-0.7-0.6-1.4-1.2-2.1-1.8c1-1.6,1.5-4,1.5-7.1V180h8.6l-0.1-3h2.6l0,3h2.5c-0.3-0.4-0.8-1.1-1.6-1.9l1.9-1
			c0.4,0.5,1,1.2,1.8,2.2l-1.4,0.8h2v2.2h-5.2c0.1,1.9,0.2,3.5,0.4,4.9c0.8-1.2,1.5-2.6,2.1-4l2.2,1c-1.1,2.4-2.3,4.5-3.6,6.3
			c0.5,1.2,0.9,1.8,1.2,1.8c0.1,0,0.3-0.1,0.4-0.3c0.1-0.2,0.2-0.6,0.3-1.3c0.1-0.7,0.2-1.3,0.2-1.8c0.6,0.3,1.3,0.7,2.3,1.1
			c0,0.7-0.2,1.5-0.5,2.6s-0.6,1.8-1.1,2.1c-0.4,0.3-0.9,0.4-1.3,0.4c-1.3,0-2.4-0.8-3.3-2.5c-0.9,0.9-1.8,1.8-2.8,2.6
			c-0.6-0.7-1.2-1.4-1.9-1.9c1.4-1,2.6-2.1,3.7-3.4c-0.4-1.8-0.8-4.4-0.9-7.6h-6.3v2.2h5.2c0,0.2,0,1.2-0.1,3.2
			c-0.1,1.9-0.2,3.1-0.5,3.6c-0.3,0.4-0.6,0.8-1,1.1C2212.4,192.4,2211.3,192.5,2209.6,192.5z"/>
		<path class="st1" d="M2224.1,191.8h9.2c1.4-2.9,2.8-5.9,3.9-9.1l2.7,0.9c-1.2,2.8-2.4,5.5-3.7,8.2h5.8v2.4h-17.9L2224.1,191.8
			L2224.1,191.8z M2224.5,180h7.5c-0.4-0.7-0.8-1.4-1.3-2.2l2.5-1.1c0.6,0.9,1.2,1.8,1.7,2.7l-1.2,0.6h7.8v2.4h-17V180z
			 M2228.6,182.7c1.3,2.7,2.3,5.3,3.2,7.8l-2.6,1c-0.9-2.7-1.9-5.3-3-7.8L2228.6,182.7z"/>
	</g>
</g>
<g class="st0">
	<g>
		<path d="M2454.8,70.6c0-0.8-0.2-1.4-0.7-1.8s-1.1-0.7-2-0.7c-0.6,0-1.2,0.2-1.8,0.4c-0.6,0.3-1.1,0.7-1.7,1.3v-1.7
			c0.5-0.5,1-0.8,1.6-1.1s1.3-0.4,2.1-0.4c1.3,0,2.3,0.3,3.1,1c0.8,0.7,1.2,1.6,1.2,2.8c0,1-0.2,1.9-0.7,2.7
			c-0.5,0.8-1.3,1.5-2.4,2.3c-1.2,0.8-2,1.4-2.4,1.8s-0.7,0.7-0.8,1s-0.2,0.7-0.2,1.2h7v1.6h-8.9v-0.7c0-0.8,0.1-1.5,0.3-2.1
			s0.6-1.1,1.1-1.7s1.3-1.2,2.4-1.9c1.1-0.8,1.9-1.5,2.3-2.1C2454.6,72,2454.8,71.4,2454.8,70.6z"/>
		<path d="M2458.8,74.3c0-2.5,0.4-4.4,1.2-5.7s2-1.9,3.6-1.9c3,0,4.5,2.4,4.5,7.2c0,2.4-0.4,4.2-1.3,5.5s-2,1.9-3.6,1.9
			c-1.4,0-2.6-0.6-3.3-1.8C2459.2,78.3,2458.8,76.6,2458.8,74.3z M2460.7,74.2c0,3.8,0.9,5.6,2.9,5.6c1.9,0,2.8-1.9,2.8-5.7
			c0-3.9-0.9-5.9-2.8-5.9C2461.6,68.2,2460.7,70.2,2460.7,74.2z"/>
		<path d="M2474.2,81.1V69c-0.3,0.3-0.8,0.6-1.4,0.9c-0.7,0.3-1.3,0.6-1.9,0.7v-1.8c0.8-0.2,1.6-0.5,2.4-1c0.9-0.4,1.5-0.9,2-1.3
			h0.7v14.4C2476,81.1,2474.2,81.1,2474.2,81.1z"/>
		<path d="M2480.8,77.1c0-0.8,0.2-1.6,0.7-2.2c0.5-0.7,1.1-1.2,1.9-1.5c-0.6-0.3-1.1-0.8-1.5-1.3s-0.5-1.1-0.5-1.8
			c0-0.7,0.2-1.3,0.5-1.8s0.8-1,1.4-1.3s1.3-0.5,2-0.5c0.7,0,1.4,0.2,2,0.5c0.6,0.3,1.1,0.8,1.4,1.3c0.3,0.6,0.5,1.2,0.5,1.8
			c0,0.6-0.2,1.2-0.5,1.8s-0.8,1-1.5,1.3c0.8,0.3,1.4,0.8,1.9,1.5c0.5,0.7,0.7,1.4,0.7,2.2c0,0.8-0.2,1.5-0.6,2.2
			c-0.4,0.6-0.9,1.1-1.6,1.5c-0.7,0.3-1.5,0.5-2.4,0.5s-1.7-0.2-2.4-0.5c-0.7-0.3-1.2-0.8-1.6-1.5
			C2481,78.6,2480.8,77.9,2480.8,77.1z M2482.6,77c0,0.8,0.3,1.5,0.8,2s1.2,0.8,2.1,0.8c0.8,0,1.5-0.3,2.1-0.8
			c0.5-0.5,0.8-1.2,0.8-2c0-0.8-0.3-1.4-0.8-2c-0.5-0.5-1.2-0.8-2.1-0.8c-0.8,0-1.5,0.3-2,0.8S2482.6,76.2,2482.6,77z M2483.1,70.4
			c0,0.6,0.2,1.2,0.7,1.6s1,0.7,1.6,0.7c0.6,0,1.2-0.2,1.7-0.7s0.7-1,0.7-1.6c0-0.6-0.2-1.2-0.7-1.6c-0.4-0.4-1-0.7-1.7-0.7
			s-1.2,0.2-1.7,0.7S2483.1,69.8,2483.1,70.4z"/>
		<path d="M2491.3,77.3h2.9v-5.2h6.5v-3.2h-5.4c-0.8,1.5-1.7,2.8-2.8,4.1c-0.3-0.3-0.7-0.7-1.1-1c1.7-1.9,3-4.1,3.9-6.6l1.5,0.4
			c-0.3,0.6-0.5,1.2-0.8,1.8h12.6v1.3h-6.4v3.2h6.1v1.3h-6.1v3.9h7.2v1.3h-7.2v4.9h-1.5v-4.9h-9.4L2491.3,77.3L2491.3,77.3z
			 M2495.6,77.3h5v-3.9h-5V77.3z"/>
		<path d="M2518.9,68.7c-0.7-0.4-1.5-0.6-2.3-0.6c-1.2,0-2.2,0.5-2.9,1.6s-1.1,2.5-1.1,4.4h0c0.7-1.3,1.7-1.9,3.2-1.9
			c1.2,0,2.2,0.4,2.9,1.2c0.7,0.8,1.1,1.9,1.1,3.2c0,1.4-0.4,2.5-1.3,3.4s-1.9,1.3-3.2,1.3c-1.4,0-2.6-0.6-3.4-1.7
			c-0.8-1.1-1.2-2.7-1.2-4.8c0-2.5,0.5-4.5,1.6-5.9c1.1-1.5,2.5-2.2,4.2-2.2c1,0,1.8,0.1,2.4,0.4L2518.9,68.7L2518.9,68.7z
			 M2512.6,76.4c0,0.9,0.2,1.7,0.7,2.4s1.2,1,2,1c0.8,0,1.4-0.3,1.9-0.9s0.7-1.3,0.7-2.2c0-1-0.2-1.7-0.7-2.3
			c-0.5-0.5-1.1-0.8-2-0.8c-0.8,0-1.5,0.3-2,0.8C2512.9,75,2512.6,75.7,2512.6,76.4z"/>
		<path d="M2525.3,77.3c-0.3,2.3-1.2,4.5-2.8,6.4c-0.4-0.4-0.8-0.7-1.3-1.1c1.2-1.3,2-2.8,2.4-4.6c0.3-1.3,0.4-3.1,0.4-5.4v-6.3
			h12.2v14.2c0,1.8-0.9,2.7-2.6,2.7c-0.7,0-1.6,0-2.8,0c-0.1-0.4-0.1-0.9-0.3-1.5c1.1,0.1,2,0.1,2.6,0.1c1,0,1.5-0.5,1.5-1.4v-3
			L2525.3,77.3L2525.3,77.3z M2525.4,76h9.3v-3.5h-9.2C2525.5,73.7,2525.5,74.8,2525.4,76z M2525.5,67.7v3.5h9.2v-3.5H2525.5z"/>
	</g>
</g>
<g>
	<g>
		<path class="st1" d="M2463.4,170.1h-3.1l-6-9.1c-0.3-0.5-0.5-0.9-0.7-1.1h-0.1c0.1,0.5,0.1,1.2,0.1,2.3v8h-2.9v-14.1h3.3l5.8,8.9
			c0.4,0.6,0.6,1,0.7,1.1h0.1c-0.1-0.3-0.1-1-0.1-1.9v-8.1h2.9L2463.4,170.1L2463.4,170.1z"/>
		<path class="st1" d="M2475.4,165.8h-6.6c0.1,1.6,1.1,2.4,2.8,2.4c1.1,0,2.1-0.3,2.9-0.8v2.2c-0.9,0.5-2.1,0.8-3.6,0.8
			c-1.6,0-2.9-0.4-3.8-1.4s-1.3-2.2-1.3-3.8c0-1.6,0.5-2.9,1.4-3.9s2.1-1.5,3.6-1.5c1.4,0,2.6,0.4,3.4,1.3c0.8,0.9,1.2,2.1,1.2,3.6
			L2475.4,165.8L2475.4,165.8z M2472.6,164c0-1.5-0.6-2.3-1.8-2.3c-0.5,0-0.9,0.2-1.3,0.6s-0.6,1-0.7,1.6H2472.6z"/>
		<path class="st1" d="M2476.7,165.1c0-1.7,0.5-3,1.5-3.9c1-0.9,2.3-1.4,4-1.4c1.6,0,2.9,0.5,3.9,1.4s1.4,2.2,1.4,3.8
			c0,1.7-0.5,3-1.5,3.9s-2.3,1.5-4,1.5c-1.6,0-2.9-0.5-3.9-1.4C2477.1,167.9,2476.7,166.7,2476.7,165.1z M2479.7,165
			c0,2,0.8,3,2.5,3c1.6,0,2.4-1,2.4-3.1c0-2-0.8-3-2.4-3c-0.8,0-1.4,0.3-1.8,0.8C2479.9,163.3,2479.7,164.1,2479.7,165z"/>
		<path class="st1" d="M2489.7,167c0.9,0.7,2,1.1,3.3,1.1c0.8,0,1.4-0.2,1.9-0.5s0.7-0.9,0.7-1.5c0-0.7-0.3-1.2-0.8-1.5
			s-1.3-0.5-2.3-0.5h-1.3v-2.3h1.2c1.9,0,2.9-0.6,2.9-1.9c0-1.2-0.7-1.8-2.2-1.8c-0.9,0-1.9,0.3-2.8,0.9v-2.4c1-0.5,2.1-0.8,3.4-0.8
			c1.3,0,2.4,0.3,3.3,0.9s1.2,1.5,1.2,2.6c0,1.9-0.9,3-2.8,3.5v0c1,0.1,1.8,0.5,2.4,1.1c0.6,0.6,0.9,1.4,0.9,2.2
			c0,1.3-0.5,2.4-1.5,3.1c-1,0.8-2.3,1.1-3.9,1.1c-1.5,0-2.6-0.2-3.5-0.7L2489.7,167L2489.7,167z"/>
		<path class="st1" d="M2501.7,156.4h6.2c-0.2-0.5-0.4-0.9-0.5-1.3l2.8-0.6c0.3,0.6,0.5,1.3,0.8,1.9h5.9v6.5h-12.8
			c0,4-0.8,7.2-2.4,9.5c-0.5-0.6-1.1-1.3-1.8-2.1c1.2-2,1.8-4.5,1.8-7.6L2501.7,156.4L2501.7,156.4z M2514.5,160.6v-2h-10.3v2
			H2514.5z M2504.8,172.4v-7.8h12.1v7.8h-2.4v-0.9h-7.2v1L2504.8,172.4L2504.8,172.4z M2514.4,166.8h-7.2v2.4h7.2V166.8z"/>
		<path class="st1" d="M2525.7,163.7l1.9,4.6c0.8-1.5,1.2-4.3,1.2-8.3h-1.9v-2.4h1.9l0-3.1h2.4l0,3.1h4.8l-0.2,10.3
			c0,1.4-0.1,2.2-0.2,2.6c-0.1,0.4-0.2,0.7-0.5,0.9c-0.3,0.3-0.6,0.5-1,0.6s-1.5,0.2-3.3,0.2c-0.2-0.9-0.4-1.8-0.7-2.7
			c0.8,0.1,1.5,0.1,2,0.1c0.4,0,0.6-0.1,0.8-0.2s0.3-0.3,0.3-0.6s0.1-1.2,0.1-2.8s0.1-3.6,0.1-5.9h-2.4c-0.1,2.7-0.2,4.7-0.3,5.8
			c-0.2,1.2-0.5,2.4-1,3.6s-1.2,2.3-2,3.2c-0.7-0.6-1.4-1.1-2.2-1.5c0.4-0.4,0.7-0.7,1-1.1l-5.1,0.4c-0.8,0.1-1.3,0.2-1.7,0.4
			l-1.1-2.2c0.6-0.5,1.4-2.4,2.4-5.7h-2.3v-2.3h8.4v2.3h-3.5c-0.6,1.8-1.2,3.4-1.8,5.1c1.1,0,2.1-0.1,3-0.1
			c-0.4-1.2-0.9-2.4-1.3-3.4L2525.7,163.7z M2526.6,158.2h-7v-2.3h7V158.2z"/>
	</g>
</g>
<g class="st0">
	<g>
		<path d="M2742.8,70.6c0-0.8-0.2-1.4-0.7-1.8s-1.1-0.7-2-0.7c-0.6,0-1.2,0.2-1.8,0.4c-0.6,0.3-1.1,0.7-1.7,1.3v-1.7
			c0.5-0.5,1-0.8,1.6-1.1s1.3-0.4,2.1-0.4c1.3,0,2.3,0.3,3.1,1c0.8,0.7,1.2,1.6,1.2,2.8c0,1-0.2,1.9-0.7,2.7
			c-0.5,0.8-1.3,1.5-2.4,2.3c-1.2,0.8-2,1.4-2.4,1.8s-0.7,0.7-0.8,1s-0.2,0.7-0.2,1.2h7v1.6h-8.9v-0.7c0-0.8,0.1-1.5,0.3-2.1
			s0.6-1.1,1.1-1.7s1.3-1.2,2.4-1.9c1.1-0.8,1.9-1.5,2.3-2.1C2742.6,72,2742.8,71.4,2742.8,70.6z"/>
		<path d="M2746.8,74.3c0-2.5,0.4-4.4,1.2-5.7c0.8-1.3,2-1.9,3.6-1.9c3,0,4.5,2.4,4.5,7.2c0,2.4-0.4,4.2-1.3,5.5s-2,1.9-3.6,1.9
			c-1.4,0-2.6-0.6-3.3-1.8S2746.8,76.6,2746.8,74.3z M2748.7,74.2c0,3.8,0.9,5.6,2.9,5.6c1.9,0,2.8-1.9,2.8-5.7
			c0-3.9-0.9-5.9-2.8-5.9C2749.6,68.2,2748.7,70.2,2748.7,74.2z"/>
		<path d="M2762.2,81.1V69c-0.3,0.3-0.8,0.6-1.4,0.9c-0.7,0.3-1.3,0.6-1.9,0.7v-1.8c0.8-0.2,1.6-0.5,2.4-1c0.9-0.4,1.5-0.9,2-1.3
			h0.7v14.4C2764,81.1,2762.2,81.1,2762.2,81.1z"/>
		<path d="M2769.6,79.1c0.8,0.4,1.6,0.7,2.5,0.7c1.3,0,2.2-0.5,2.9-1.5c0.7-1,1.1-2.4,1.1-4.2l0,0l0,0c-0.6,1.2-1.7,1.8-3.1,1.8
			c-1.2,0-2.2-0.4-2.9-1.2c-0.8-0.8-1.2-1.9-1.2-3.2c0-1.4,0.4-2.5,1.3-3.4s2-1.3,3.3-1.3c1.4,0,2.5,0.6,3.3,1.7s1.2,2.7,1.2,4.8
			c0,2.6-0.5,4.6-1.5,6c-1,1.4-2.4,2.1-4.2,2.1c-1,0-1.8-0.2-2.5-0.5L2769.6,79.1L2769.6,79.1z M2770.7,71.2c0,0.9,0.2,1.7,0.7,2.3
			c0.5,0.6,1.2,0.8,2,0.8c0.7,0,1.4-0.2,1.9-0.8s0.8-1.1,0.8-1.8c0-1-0.2-1.9-0.8-2.5c-0.5-0.7-1.2-1-2-1c-0.8,0-1.4,0.3-1.9,0.9
			S2770.7,70.3,2770.7,71.2z"/>
		<path d="M2779.3,77.3h2.9v-5.2h6.5v-3.2h-5.4c-0.8,1.5-1.7,2.8-2.8,4.1c-0.3-0.3-0.7-0.7-1.1-1c1.7-1.9,3-4.1,3.9-6.6l1.5,0.4
			c-0.3,0.6-0.5,1.2-0.8,1.8h12.6v1.3h-6.4v3.2h6.1v1.3h-6.1v3.9h7.2v1.3h-7.2v4.9h-1.5v-4.9h-9.4V77.3z M2783.6,77.3h5v-3.9h-5
			V77.3z"/>
		<path d="M2805.4,70.6c0-0.8-0.2-1.4-0.7-1.8s-1.1-0.7-2-0.7c-0.6,0-1.2,0.2-1.8,0.4c-0.6,0.3-1.1,0.7-1.7,1.3v-1.7
			c0.5-0.5,1-0.8,1.6-1.1s1.3-0.4,2.1-0.4c1.3,0,2.3,0.3,3.1,1c0.8,0.7,1.2,1.6,1.2,2.8c0,1-0.2,1.9-0.7,2.7
			c-0.5,0.8-1.3,1.5-2.4,2.3c-1.2,0.8-2,1.4-2.4,1.8s-0.7,0.7-0.8,1s-0.2,0.7-0.2,1.2h7v1.6h-8.9v-0.7c0-0.8,0.1-1.5,0.3-2.1
			s0.6-1.1,1.1-1.7s1.3-1.2,2.4-1.9c1.1-0.8,1.9-1.5,2.3-2.1C2805.2,72,2805.4,71.4,2805.4,70.6z"/>
		<path d="M2813.3,77.3c-0.3,2.3-1.2,4.5-2.8,6.4c-0.4-0.4-0.8-0.7-1.3-1.1c1.2-1.3,2-2.8,2.4-4.6c0.3-1.3,0.4-3.1,0.4-5.4v-6.3
			h12.2v14.2c0,1.8-0.9,2.7-2.6,2.7c-0.7,0-1.6,0-2.8,0c-0.1-0.4-0.1-0.9-0.3-1.5c1.1,0.1,2,0.1,2.6,0.1c1,0,1.5-0.5,1.5-1.4v-3
			L2813.3,77.3L2813.3,77.3z M2813.4,76h9.3v-3.5h-9.2C2813.5,73.7,2813.5,74.8,2813.4,76z M2813.5,67.7v3.5h9.2v-3.5H2813.5z"/>
	</g>
</g>
<g>
	<g>
		<path class="st1" d="M2709.6,155.4h2.5c-0.2,0.4-0.4,0.9-0.6,1.3h4.5v1.7c0.7-0.9,1.3-1.9,1.7-2.9h2.5c-0.2,0.4-0.3,0.9-0.5,1.3
			h4.8v1.7h-3.1c0.4,0.3,0.8,0.7,1.1,1l-1.1,0.9h2v5h-6.4v1.1h7.2c-0.1,2.9-0.2,4.6-0.6,4.9s-0.6,0.7-1,0.9
			c-0.4,0.2-1.8,0.4-4.4,0.3c-0.2-0.7-0.4-1.5-0.6-2.2c1.6,0.1,2.4,0.1,2.5,0.1c0.4,0,0.7-0.1,1-0.2s0.4-0.3,0.4-0.5
			c0.1-0.2,0.1-0.7,0.1-1.3h-4.7v5h-2.5V169c-1.6,1.8-3.8,3.2-6.6,4.4c-0.4-0.6-0.8-1.3-1.4-2.2c2.2-0.7,4-1.6,5.4-2.7h-4.3l0.9-5h6
			v-1.1h-6.3v-1.6c-0.1,0.1-0.3,0.3-0.4,0.4c-0.5-0.6-0.9-1.1-1.5-1.7C2707.9,158.3,2708.9,156.9,2709.6,155.4z M2711.2,159l0.8-0.6
			h-1.5c-0.5,0.7-1.1,1.4-1.6,1.9h3.8C2712.1,159.9,2711.7,159.5,2711.2,159z M2710.4,166.5h4.2v-1.1h-4L2710.4,166.5z
			 M2713.2,158.4c0.4,0.4,0.9,0.8,1.3,1.1l-1,0.8h3.8c-0.6-0.4-1.2-0.8-1.9-1.3c0.2-0.2,0.4-0.4,0.6-0.7L2713.2,158.4L2713.2,158.4z
			 M2721,163.4v-1.1h-3.9v1.1H2721z M2717.4,160.4h3.4c-0.4-0.4-0.9-0.9-1.4-1.4l0.6-0.6h-1.2
			C2718.4,159.1,2717.9,159.8,2717.4,160.4z"/>
		<path class="st1" d="M2725.7,168.8h17.6v2.8h-17.6V168.8z M2727,157.5h14.9v2.7H2727V157.5z"/>
		<path class="st1" d="M2745.8,156.2h15.4v5.7h-12.8c0,3.5-0.2,6-0.6,7.5s-1,2.8-1.6,3.9c-0.8-0.9-1.5-1.6-2-2.2
			c0.5-0.8,0.9-1.7,1.2-2.8c0.3-1.1,0.5-3.2,0.5-6.3L2745.8,156.2L2745.8,156.2z M2758.6,159.8v-1.5h-10.3v1.5H2758.6z
			 M2748.8,173.5v-10.1h4.9v-1.3h2.4v1.3h4.9v10.1h-2.4v-0.9h-7.5v0.9H2748.8z M2751.2,167.1h2.5v-1.6h-2.5V167.1z M2751.2,170.6
			h2.5V169h-2.5V170.6z M2758.8,165.5h-2.5v1.6h2.5V165.5z M2756.2,170.6h2.5V169h-2.5V170.6z"/>
		<path class="st1" d="M2762.8,163.4h4.2v-4.5h-3.2v-2.4h16.3v2.4h-2.9v4.5h3.7v2.4h-3.7v7.5h-2.6v-7.5h-4.9c-0.1,2.2-0.5,3.9-1.2,5
			s-1.8,2.1-3.2,2.9c-0.7-0.6-1.4-1.2-2.3-1.9c1.1-0.6,2.1-1.3,2.8-2.2s1.2-2.1,1.3-3.8h-4.1L2762.8,163.4L2762.8,163.4z
			 M2769.7,163.4h4.8v-4.5h-4.8V163.4z"/>
		<path class="st1" d="M2797.7,165c-0.9,1.6-2.1,3-3.6,4.2c1.4,0.6,3.2,1.1,5.6,1.5c-0.5,0.9-1.1,1.8-1.6,2.7
			c-2.5-0.6-4.6-1.4-6.3-2.5c-1.8,1.1-3.9,1.9-6.4,2.7c-0.4-0.8-0.9-1.6-1.4-2.4c2-0.6,3.9-1.2,5.5-2c-0.9-0.8-1.7-1.8-2.4-2.9
			c-1.4,2.2-3,4.2-4.9,5.7c-0.3-1.1-0.5-2.2-0.8-3.1c2.4-2.2,4.1-4.8,5.3-7.8h-4.6v-2.2c0.3-1,0.6-2,0.9-3.1l2.5,0.3
			c-0.2,0.8-0.4,1.7-0.8,2.8h2.6c0.3-1,0.6-2.2,0.8-3.6l2.6,0.2l-0.8,3.4h5.1c-0.7-0.7-1.4-1.3-2.1-2l1.6-1.5
			c1.1,0.9,2.1,1.6,2.9,2.4l-1.1,1.2h3.1v2.2h-10.1c-0.2,0.5-0.4,1.1-0.6,1.7h8.9L2797.7,165L2797.7,165z M2791.7,168
			c1.3-0.9,2.2-1.9,3-2.9h-5.6C2789.8,166.2,2790.6,167.2,2791.7,168z"/>
		<path class="st1" d="M2800.3,160.6h6.3v-1.4h-4.8V157h4.8v-1.6h2.5v1.6h4.4v2c0.8-0.8,1.6-1.7,2.4-2.7l1.8,1.4
			c-0.9,1-1.8,2-2.7,2.8h3.4v2.1h-6.1c-0.7,0.5-1.5,1-2.3,1.4h6.4v9.4h-2.5v-0.8h-8.5v0.8h-2.5v-6.6c-0.6,0.2-1.3,0.4-1.9,0.6
			c-0.2-0.7-0.4-1.4-0.8-2.3c3.4-0.6,6.1-1.4,8.2-2.5h-8.1L2800.3,160.6L2800.3,160.6z M2813.8,166.2h-8.5v1.3h8.5V166.2z
			 M2805.3,170.7h8.5v-1.3h-8.5V170.7z M2813.3,159.2h-4.2v1.4h2.6C2812.2,160.1,2812.8,159.7,2813.3,159.2z"/>
		<path class="st1" d="M2819.2,160.2h7.2c0.1-1.3,0.1-2.9,0.1-4.6h2.8c0,1.8-0.1,3.3-0.1,4.6h7.5v2.5h-7.3c1.1,4.1,3.6,6.8,7.6,8.2
			c-0.9,1-1.6,1.8-2.1,2.5c-3.3-1.6-5.6-4.1-6.9-7.5c-1,3.2-3.3,5.7-7,7.7c-0.5-0.6-1.2-1.4-2.1-2.3c4.4-2,6.9-4.8,7.3-8.5h-6.9
			L2819.2,160.2L2819.2,160.2z"/>
		<path class="st1" d="M2848.6,155.5l-0.5,0.6c1.6,2.3,4.1,4.3,7.6,5.9c-0.6,0.8-1.2,1.5-1.6,2.2c-0.9-0.5-1.8-1-2.6-1.5v1.2h-9.8
			v-1.4c-0.8,0.5-1.6,1.1-2.6,1.6c-0.4-0.5-0.9-1.2-1.6-2.1c4-2.1,6.6-4.3,8-6.5L2848.6,155.5L2848.6,155.5z M2838.3,165.4h16.8v2.3
			h-4.6c1.2,1.4,2.4,3,3.7,4.7l-2.2,1.4c-0.3-0.4-0.6-0.8-0.8-1.2c-2.3,0.1-5.2,0.2-8.7,0.4c-0.5,0-1.2,0.1-1.9,0.3l-1.1-2.2
			c1.1-0.8,2.2-1.9,3.3-3.4h-4.5V165.4z M2846.6,158.2c-0.9,1.1-2.1,2.3-3.6,3.5h7.2C2848.7,160.6,2847.6,159.4,2846.6,158.2z
			 M2848.2,168.7l1.6-0.9h-3.9c-0.6,0.8-1.4,1.7-2.4,2.8c1.4,0,3.4-0.1,5.9-0.2C2849.1,169.8,2848.7,169.2,2848.2,168.7z"/>
		<path class="st1" d="M2754.2,195.9v-12.6h4.8v-2.1h-5.5v-2.3h17.8v2.3h-5.7v2.1h5v12.6h-2.6v-1.2h-11.3v1.2L2754.2,195.9
			L2754.2,195.9z M2763.2,188.3v-2.7h-1.8c0,2.6-0.9,4.7-2.6,6.1c-0.7-0.6-1.4-1.1-2-1.5v2.2h11.3v-1.9h-2.7
			C2764,190.5,2763.2,189.8,2763.2,188.3z M2756.8,190c1.5-1.1,2.2-2.5,2.2-4.4h-2.2V190z M2761.4,183.3h1.8v-2.1h-1.8V183.3z
			 M2768.1,185.6h-2.5v1.7c0,0.6,0.3,0.9,0.9,0.9h1.6V185.6z"/>
		<path class="st1" d="M2772,191.4c1.2-1.3,2.2-2.7,3-4.2h-2.6v-1.8l0.7-3.8h2.1l-0.6,3.6h1.5v-4.5h-3.7v-2h7.1v2h-1.2v2.5
			c1.4-1.5,2.5-3.3,3.4-5.4l2.1,0.6c-0.3,0.8-0.7,1.6-1.2,2.4h2.7c-0.4-0.9-0.8-1.7-1.2-2.2l1.8-0.9c0.6,0.8,1.1,1.6,1.6,2.4
			l-1.4,0.7h3.7v2h-2.9v2h2.7v1.9h-2.7v2h2.7v1.9h-2.7v2.1h3.1v1.9h-7.8v1.2h-2.3v-11.3c-0.1,0.1-0.3,0.3-0.4,0.4
			c-0.4-0.7-0.9-1.3-1.3-1.8v1.9h1.1v2h-1.1v6.4c0,0.8-0.2,1.4-0.7,1.7c-0.5,0.4-1.2,0.5-2.3,0.5h-1.1c-0.1-0.9-0.3-1.7-0.5-2.3
			c0.7,0.1,1.2,0.1,1.6,0.1c0.6,0,0.8-0.3,0.8-0.9v-3.9c-0.8,1.9-1.9,3.5-3.2,5C2772.8,193.5,2772.5,192.7,2772,191.4z
			 M2782.2,184.9h2.5v-2h-2.5V184.9z M2782.2,188.8h2.5v-2h-2.5V188.8z M2782.2,192.8h2.5v-2.1h-2.5V192.8z"/>
		<path class="st1" d="M2791.6,196v-17.3h16.5v17.3h-2.5v-0.7h-11.5v0.7L2791.6,196L2791.6,196z M2797.5,180.9h-3.4v3.2
			C2795.6,183.1,2796.8,182,2797.5,180.9z M2795.3,185.5c-0.3-0.4-0.7-0.7-1.2-1.2v2.2c1.4-0.2,2.6-0.5,3.7-0.8
			c-0.5-0.3-0.9-0.7-1.2-1.1C2796.2,184.9,2795.8,185.2,2795.3,185.5z M2795.4,189.7c3.2,0.4,6.2,0.9,9.1,1.4l-0.5,2h1.6v-6.5
			c-0.3,0.4-0.6,1-1,1.6c-1.8-0.3-3.4-0.8-4.7-1.3c-0.7,0.3-1.4,0.5-2.2,0.8c2,0.2,4,0.5,5.9,0.9l-0.4,1.7c-2-0.4-4.3-0.7-6.8-1
			l0.3-1.3c-0.6,0.1-1.2,0.3-1.9,0.4c-0.2-0.5-0.5-1.1-0.9-1.6v6.4h9.8c-2.5-0.5-5.5-1-9-1.4L2795.4,189.7z M2799.9,184.9
			c0.9-0.4,1.5-0.8,2-1.3h-3.9C2798.5,184,2799.2,184.5,2799.9,184.9z M2804.8,181.9v1.5c-0.6,0.9-1.5,1.6-2.5,2.3
			c1,0.3,2.1,0.5,3.4,0.6v-5.4h-5.6c-0.2,0.3-0.5,0.7-0.7,1L2804.8,181.9L2804.8,181.9z"/>
	</g>
</g>
<g class="st0">
	<g>
		<path d="M3032.8,69.6c0-0.8-0.2-1.4-0.7-1.8s-1.1-0.7-2-0.7c-0.6,0-1.2,0.2-1.8,0.4c-0.6,0.3-1.1,0.7-1.7,1.3v-1.7
			c0.5-0.5,1-0.8,1.6-1.1s1.3-0.4,2.1-0.4c1.3,0,2.3,0.3,3.1,1c0.8,0.7,1.2,1.6,1.2,2.8c0,1-0.2,1.9-0.7,2.7
			c-0.5,0.8-1.3,1.5-2.4,2.3c-1.2,0.8-2,1.4-2.4,1.8s-0.7,0.7-0.8,1s-0.2,0.7-0.2,1.2h7v1.6h-8.9v-0.7c0-0.8,0.1-1.5,0.3-2.1
			s0.6-1.1,1.1-1.7s1.3-1.2,2.4-1.9c1.1-0.8,1.9-1.5,2.3-2.1C3032.6,71,3032.8,70.4,3032.8,69.6z"/>
		<path d="M3036.8,73.3c0-2.5,0.4-4.4,1.2-5.7c0.8-1.3,2-1.9,3.6-1.9c3,0,4.5,2.4,4.5,7.2c0,2.4-0.4,4.2-1.3,5.5
			c-0.8,1.3-2,1.9-3.6,1.9c-1.4,0-2.6-0.6-3.3-1.8S3036.8,75.6,3036.8,73.3z M3038.7,73.2c0,3.8,0.9,5.6,2.9,5.6
			c1.9,0,2.8-1.9,2.8-5.7c0-3.9-0.9-5.9-2.8-5.9C3039.6,67.2,3038.7,69.2,3038.7,73.2z"/>
		<path d="M3052.2,80.1V68c-0.3,0.3-0.8,0.6-1.4,0.9c-0.7,0.3-1.3,0.6-1.9,0.7v-1.8c0.8-0.2,1.6-0.5,2.4-1c0.9-0.4,1.5-0.9,2-1.3
			h0.7v14.4C3054,80.1,3052.2,80.1,3052.2,80.1z"/>
		<path d="M3059.6,78.1c0.8,0.4,1.6,0.7,2.5,0.7c1.3,0,2.2-0.5,2.9-1.5c0.7-1,1.1-2.4,1.1-4.2l0,0l0,0c-0.6,1.2-1.7,1.8-3.1,1.8
			c-1.2,0-2.2-0.4-2.9-1.2c-0.8-0.8-1.2-1.9-1.2-3.2c0-1.4,0.4-2.5,1.3-3.4s2-1.3,3.3-1.3c1.4,0,2.5,0.6,3.3,1.7
			c0.8,1.1,1.2,2.7,1.2,4.8c0,2.6-0.5,4.6-1.5,6c-1,1.4-2.4,2.1-4.2,2.1c-1,0-1.8-0.2-2.5-0.5L3059.6,78.1L3059.6,78.1z
			 M3060.7,70.2c0,0.9,0.2,1.7,0.7,2.3c0.5,0.6,1.2,0.8,2,0.8c0.7,0,1.4-0.2,1.9-0.8s0.8-1.1,0.8-1.8c0-1-0.2-1.9-0.8-2.5
			c-0.5-0.7-1.2-1-2-1c-0.8,0-1.4,0.3-1.9,0.9C3060.9,68.6,3060.7,69.3,3060.7,70.2z"/>
		<path d="M3069.3,76.3h2.9v-5.2h6.5v-3.2h-5.4c-0.8,1.5-1.7,2.8-2.8,4.1c-0.3-0.3-0.7-0.7-1.1-1c1.7-1.9,3-4.1,3.9-6.6l1.5,0.4
			c-0.3,0.6-0.5,1.2-0.8,1.8h12.6v1.3h-6.4v3.2h6.1v1.3h-6.1v3.9h7.2v1.3h-7.2v4.9h-1.5v-4.9h-9.4L3069.3,76.3L3069.3,76.3z
			 M3073.6,76.3h5v-3.9h-5V76.3z"/>
		<path d="M3089.3,78.1c0.8,0.4,1.6,0.7,2.5,0.7c1.3,0,2.2-0.5,2.9-1.5s1-2.4,1-4.2l0,0l0,0c-0.6,1.2-1.7,1.8-3.1,1.8
			c-1.2,0-2.2-0.4-2.9-1.2s-1.2-1.9-1.2-3.2c0-1.4,0.4-2.5,1.3-3.4s2-1.3,3.3-1.3c1.4,0,2.5,0.6,3.3,1.7c0.8,1.1,1.2,2.7,1.2,4.8
			c0,2.6-0.5,4.6-1.5,6c-1,1.4-2.4,2.1-4.2,2.1c-1,0-1.8-0.2-2.5-0.5L3089.3,78.1L3089.3,78.1z M3090.3,70.2c0,0.9,0.2,1.7,0.7,2.3
			c0.5,0.6,1.2,0.8,2,0.8c0.7,0,1.4-0.2,1.9-0.8s0.8-1.1,0.8-1.8c0-1-0.2-1.9-0.8-2.5c-0.5-0.7-1.2-1-2-1c-0.8,0-1.4,0.3-1.9,0.9
			S3090.3,69.3,3090.3,70.2z"/>
		<path d="M3103.3,76.3c-0.3,2.3-1.2,4.5-2.8,6.4c-0.4-0.4-0.8-0.7-1.3-1.1c1.2-1.3,2-2.8,2.4-4.6c0.3-1.3,0.4-3.1,0.4-5.4v-6.3
			h12.2v14.2c0,1.8-0.9,2.7-2.6,2.7c-0.7,0-1.6,0-2.8,0c-0.1-0.4-0.1-0.9-0.3-1.5c1.1,0.1,2,0.1,2.6,0.1c1,0,1.5-0.5,1.5-1.4v-3
			L3103.3,76.3L3103.3,76.3z M3103.4,75h9.3v-3.5h-9.2C3103.5,72.7,3103.5,73.8,3103.4,75z M3103.5,66.7v3.5h9.2v-3.5H3103.5z"/>
	</g>
</g>
<g class="st0">
	<g>
		<path d="M3322.8,70.6c0-0.8-0.2-1.4-0.7-1.8s-1.1-0.7-2-0.7c-0.6,0-1.2,0.2-1.8,0.4c-0.6,0.3-1.1,0.7-1.7,1.3v-1.7
			c0.5-0.5,1-0.8,1.6-1.1s1.3-0.4,2.1-0.4c1.3,0,2.3,0.3,3.1,1c0.8,0.7,1.2,1.6,1.2,2.8c0,1-0.2,1.9-0.7,2.7
			c-0.5,0.8-1.3,1.5-2.4,2.3c-1.2,0.8-2,1.4-2.4,1.8s-0.7,0.7-0.8,1s-0.2,0.7-0.2,1.2h7v1.6h-8.9v-0.7c0-0.8,0.1-1.5,0.3-2.1
			s0.6-1.1,1.1-1.7s1.3-1.2,2.4-1.9c1.1-0.8,1.9-1.5,2.3-2.1C3322.6,72,3322.8,71.4,3322.8,70.6z"/>
		<path d="M3326.8,74.3c0-2.5,0.4-4.4,1.2-5.7c0.8-1.3,2-1.9,3.6-1.9c3,0,4.5,2.4,4.5,7.2c0,2.4-0.4,4.2-1.3,5.5
			c-0.8,1.3-2,1.9-3.6,1.9c-1.4,0-2.6-0.6-3.3-1.8S3326.8,76.6,3326.8,74.3z M3328.7,74.2c0,3.8,0.9,5.6,2.9,5.6
			c1.9,0,2.8-1.9,2.8-5.7c0-3.9-0.9-5.9-2.8-5.9C3329.6,68.2,3328.7,70.2,3328.7,74.2z"/>
		<path d="M3342.2,81.1V69c-0.3,0.3-0.8,0.6-1.4,0.9c-0.7,0.3-1.3,0.6-1.9,0.7v-1.8c0.8-0.2,1.6-0.5,2.4-1c0.9-0.4,1.5-0.9,2-1.3
			h0.7v14.4C3344,81.1,3342.2,81.1,3342.2,81.1z"/>
		<path d="M3349.6,79.1c0.8,0.4,1.6,0.7,2.5,0.7c1.3,0,2.2-0.5,2.9-1.5c0.7-1,1.1-2.4,1.1-4.2l0,0l0,0c-0.6,1.2-1.7,1.8-3.1,1.8
			c-1.2,0-2.2-0.4-2.9-1.2c-0.8-0.8-1.2-1.9-1.2-3.2c0-1.4,0.4-2.5,1.3-3.4s2-1.3,3.3-1.3c1.4,0,2.5,0.6,3.3,1.7
			c0.8,1.1,1.2,2.7,1.2,4.8c0,2.6-0.5,4.6-1.5,6c-1,1.4-2.4,2.1-4.2,2.1c-1,0-1.8-0.2-2.5-0.5L3349.6,79.1L3349.6,79.1z
			 M3350.7,71.2c0,0.9,0.2,1.7,0.7,2.3c0.5,0.6,1.2,0.8,2,0.8c0.7,0,1.4-0.2,1.9-0.8s0.8-1.1,0.8-1.8c0-1-0.2-1.9-0.8-2.5
			c-0.5-0.7-1.2-1-2-1c-0.8,0-1.4,0.3-1.9,0.9C3350.9,69.6,3350.7,70.3,3350.7,71.2z"/>
		<path d="M3359.3,77.3h2.9v-5.2h6.5v-3.2h-5.4c-0.8,1.5-1.7,2.8-2.8,4.1c-0.3-0.3-0.7-0.7-1.1-1c1.7-1.9,3-4.1,3.9-6.6l1.5,0.4
			c-0.3,0.6-0.5,1.2-0.8,1.8h12.6v1.3h-6.4v3.2h6.1v1.3h-6.1v3.9h7.2v1.3h-7.2v4.9h-1.5v-4.9h-9.4L3359.3,77.3L3359.3,77.3z
			 M3363.6,77.3h5v-3.9h-5V77.3z"/>
		<path d="M3379.3,79.1c0.8,0.4,1.6,0.7,2.5,0.7c1.3,0,2.2-0.5,2.9-1.5s1-2.4,1-4.2l0,0l0,0c-0.6,1.2-1.7,1.8-3.1,1.8
			c-1.2,0-2.2-0.4-2.9-1.2s-1.2-1.9-1.2-3.2c0-1.4,0.4-2.5,1.3-3.4s2-1.3,3.3-1.3c1.4,0,2.5,0.6,3.3,1.7c0.8,1.1,1.2,2.7,1.2,4.8
			c0,2.6-0.5,4.6-1.5,6c-1,1.4-2.4,2.1-4.2,2.1c-1,0-1.8-0.2-2.5-0.5L3379.3,79.1L3379.3,79.1z M3380.3,71.2c0,0.9,0.2,1.7,0.7,2.3
			c0.5,0.6,1.2,0.8,2,0.8c0.7,0,1.4-0.2,1.9-0.8s0.8-1.1,0.8-1.8c0-1-0.2-1.9-0.8-2.5c-0.5-0.7-1.2-1-2-1c-0.8,0-1.4,0.3-1.9,0.9
			S3380.3,70.3,3380.3,71.2z"/>
		<path d="M3393.3,77.3c-0.3,2.3-1.2,4.5-2.8,6.4c-0.4-0.4-0.8-0.7-1.3-1.1c1.2-1.3,2-2.8,2.4-4.6c0.3-1.3,0.4-3.1,0.4-5.4v-6.3
			h12.2v14.2c0,1.8-0.9,2.7-2.6,2.7c-0.7,0-1.6,0-2.8,0c-0.1-0.4-0.1-0.9-0.3-1.5c1.1,0.1,2,0.1,2.6,0.1c1,0,1.5-0.5,1.5-1.4v-3
			L3393.3,77.3L3393.3,77.3z M3393.4,76h9.3v-3.5h-9.2C3393.5,73.7,3393.5,74.8,3393.4,76z M3393.5,67.7v3.5h9.2v-3.5H3393.5z"/>
	</g>
</g>
<g>
	<g>
		<path class="st1" d="M2989.5,154.4h2.5c-0.2,0.4-0.4,0.9-0.6,1.3h4.5v1.7c0.7-0.9,1.3-1.9,1.7-2.9h2.5c-0.2,0.4-0.3,0.9-0.5,1.3
			h4.8v1.7h-3.1c0.4,0.3,0.8,0.7,1.1,1l-1.1,0.9h2v5h-6.4v1.1h7.2c-0.1,2.9-0.2,4.6-0.6,4.9s-0.6,0.7-1,0.9
			c-0.4,0.2-1.8,0.4-4.4,0.3c-0.2-0.7-0.4-1.5-0.6-2.2c1.6,0.1,2.4,0.1,2.5,0.1c0.4,0,0.7-0.1,1-0.2s0.4-0.3,0.4-0.5
			c0.1-0.2,0.1-0.7,0.1-1.3h-4.7v5h-2.5V168c-1.6,1.8-3.8,3.2-6.6,4.4c-0.4-0.6-0.8-1.3-1.4-2.2c2.2-0.7,4-1.6,5.4-2.7h-4.3l0.9-5h6
			v-1.1h-6.3v-1.6c-0.1,0.1-0.3,0.3-0.4,0.4c-0.5-0.6-0.9-1.1-1.5-1.7C2987.7,157.3,2988.7,155.9,2989.5,154.4z M2991,158l0.8-0.6
			h-1.5c-0.5,0.7-1.1,1.4-1.6,1.9h3.8C2991.9,158.9,2991.5,158.5,2991,158z M2990.3,165.5h4.2v-1.1h-4L2990.3,165.5z M2993.1,157.4
			c0.4,0.4,0.9,0.8,1.3,1.1l-1,0.8h3.8c-0.6-0.4-1.2-0.8-1.9-1.3c0.2-0.2,0.4-0.4,0.6-0.7L2993.1,157.4L2993.1,157.4z M3000.8,162.4
			v-1.1h-3.9v1.1H3000.8z M2997.3,159.4h3.4c-0.4-0.4-0.9-0.9-1.4-1.4l0.6-0.6h-1.2C2998.2,158.1,2997.8,158.8,2997.3,159.4z"/>
		<path class="st1" d="M3005.4,162.1h17.6v2.7h-17.6V162.1z"/>
		<path class="st1" d="M3025.6,155.2h15.4v5.7h-12.8c0,3.5-0.2,6-0.6,7.5s-1,2.8-1.6,3.9c-0.8-0.9-1.5-1.6-2-2.2
			c0.5-0.8,0.9-1.7,1.2-2.8c0.3-1.1,0.5-3.2,0.5-6.3L3025.6,155.2L3025.6,155.2z M3038.5,158.8v-1.5h-10.3v1.5H3038.5z
			 M3028.7,172.5v-10.1h4.9v-1.3h2.4v1.3h4.9v10.1h-2.4v-0.9h-7.5v0.9H3028.7z M3031.1,166.1h2.5v-1.6h-2.5V166.1z M3031.1,169.6
			h2.5V168h-2.5V169.6z M3038.6,164.5h-2.5v1.6h2.5V164.5z M3036.1,169.6h2.5V168h-2.5V169.6z"/>
		<path class="st1" d="M3056.5,170.1h-3.1l-6-9.1c-0.3-0.5-0.5-0.9-0.7-1.1h-0.1c0.1,0.5,0.1,1.2,0.1,2.3v8h-2.9v-14.1h3.3l5.8,8.9
			c0.4,0.6,0.6,1,0.7,1.1h0.1c-0.1-0.3-0.1-1-0.1-1.9v-8.1h2.9L3056.5,170.1L3056.5,170.1z"/>
		<path class="st1" d="M3068.5,165.8h-6.6c0.1,1.6,1.1,2.4,2.8,2.4c1.1,0,2.1-0.3,2.9-0.8v2.2c-0.9,0.5-2.1,0.8-3.6,0.8
			c-1.6,0-2.9-0.4-3.8-1.4s-1.3-2.2-1.3-3.8c0-1.6,0.5-2.9,1.4-3.9s2.1-1.5,3.6-1.5c1.4,0,2.6,0.4,3.4,1.3c0.8,0.9,1.2,2.1,1.2,3.6
			L3068.5,165.8L3068.5,165.8z M3065.7,164c0-1.5-0.6-2.3-1.8-2.3c-0.5,0-0.9,0.2-1.3,0.6s-0.6,1-0.7,1.6H3065.7z"/>
		<path class="st1" d="M3069.8,165.1c0-1.7,0.5-3,1.5-3.9c1-0.9,2.3-1.4,4-1.4c1.6,0,2.9,0.5,3.9,1.4s1.4,2.2,1.4,3.8
			c0,1.7-0.5,3-1.5,3.9s-2.3,1.5-4,1.5c-1.6,0-2.9-0.5-3.9-1.4C3070.3,167.9,3069.8,166.7,3069.8,165.1z M3072.8,165
			c0,2,0.8,3,2.5,3c1.6,0,2.4-1,2.4-3.1c0-2-0.8-3-2.4-3c-0.8,0-1.4,0.3-1.8,0.8C3073,163.3,3072.8,164.1,3072.8,165z"/>
		<path class="st1" d="M3085.5,154.4c0.5,0.6,1.1,1.4,1.8,2.4l-1.9,1h2.8v2c-0.5,1.1-1.1,2.2-1.8,3.2v0.8l1-0.9
			c0.7,0.6,1.5,1.4,2.3,2.3l-1.8,1.5c-0.6-0.7-1.1-1.4-1.5-1.9v7.6h-2.5v-6.2c-0.5,0.6-1.1,1.1-1.6,1.6c-0.3-1.2-0.5-2.2-0.7-3
			c1.6-1.4,2.9-2.9,3.7-4.6h-3.5v-2.4h3.1c-0.6-0.9-1.1-1.7-1.6-2.3L3085.5,154.4z M3087.8,169.5h4.9V162h-3.6v-2.4h3.6v-4.9h2.6
			v4.9h3.8v2.4h-3.8v7.5h4.4v2.4h-11.9V169.5z"/>
		<path class="st1" d="M3104,169.3h14.2v2.5h-16.8v-16.2h16.2v2.5H3104L3104,169.3L3104,169.3z M3104.7,160.1l1.8-1.8l4,3.5
			c1-1.2,2-2.4,2.9-3.7l2.3,1.5c-1,1.4-2.1,2.7-3.2,3.9l4.1,3.8l-2.2,1.9c-1.2-1.3-2.5-2.5-3.8-3.8c-1.4,1.4-2.8,2.6-4.4,3.8
			c-0.3-0.4-0.9-1-1.8-1.9c1.5-1.1,2.9-2.3,4.3-3.6C3107.4,162.4,3106.1,161.2,3104.7,160.1z"/>
		<path class="st1" d="M3119.4,159.2h7.2c0.1-1.3,0.1-2.9,0.1-4.6h2.8c0,1.8-0.1,3.3-0.1,4.6h7.5v2.5h-7.3c1.1,4.1,3.6,6.8,7.6,8.2
			c-0.9,1-1.6,1.8-2.1,2.5c-3.3-1.6-5.6-4.1-6.9-7.5c-1,3.2-3.3,5.7-7,7.7c-0.5-0.6-1.2-1.4-2.1-2.3c4.4-2,6.9-4.8,7.3-8.5h-6.9
			L3119.4,159.2L3119.4,159.2z"/>
		<path class="st1" d="M3148.8,154.5l-0.5,0.6c1.6,2.3,4.1,4.3,7.6,5.9c-0.6,0.8-1.2,1.5-1.6,2.2c-0.9-0.5-1.8-1-2.6-1.5v1.2h-9.8
			v-1.4c-0.8,0.5-1.6,1.1-2.6,1.6c-0.4-0.5-0.9-1.2-1.6-2.1c4-2.1,6.6-4.3,8-6.5L3148.8,154.5L3148.8,154.5z M3138.4,164.4h16.8v2.3
			h-4.6c1.2,1.4,2.4,3,3.7,4.7l-2.2,1.4c-0.3-0.4-0.6-0.8-0.8-1.2c-2.3,0.1-5.2,0.2-8.7,0.4c-0.5,0-1.2,0.1-1.9,0.3l-1.1-2.2
			c1.1-0.8,2.2-1.9,3.3-3.4h-4.5L3138.4,164.4L3138.4,164.4z M3146.8,157.2c-0.9,1.1-2.1,2.3-3.6,3.5h7.2
			C3148.9,159.6,3147.7,158.4,3146.8,157.2z M3148.4,167.7l1.6-0.9h-3.9c-0.6,0.8-1.4,1.7-2.4,2.8c1.4,0,3.4-0.1,5.9-0.2
			C3149.2,168.8,3148.8,168.2,3148.4,167.7z"/>
		<path class="st1" d="M3053,191.4h6.8v-14.4h3v5.1h6.8v2.6h-6.8v6.7h7.9v2.6H3053V191.4z"/>
		<path class="st1" d="M3072.9,181.8c0.9,0.7,1.9,1.4,2.9,2.3l-1.6,2c-0.4-0.4-1.3-1.2-2.7-2.5L3072.9,181.8z M3073.6,187.3
			c0.8,0.3,1.5,0.6,2.4,0.9c-0.6,2.1-1.1,4.3-1.7,6.8c-0.8-0.3-1.6-0.5-2.4-0.8C3072.4,192.2,3073,189.9,3073.6,187.3z M3073.5,177
			c0.9,0.7,1.9,1.5,2.9,2.3l-1.7,1.8c-0.8-0.8-1.8-1.7-2.8-2.5L3073.5,177z M3075.5,185.9h1.6l0.3-2.9c-0.3,0.3-0.6,0.6-0.9,0.9
			c-0.4-0.6-0.9-1.2-1.5-1.9c1.6-1.6,2.9-3.3,3.7-5.1l2.6,0.3c-0.2,0.4-0.3,0.7-0.5,1.1h8.4v1.9h-9.5c-0.3,0.4-0.6,0.8-0.9,1.2h9.4
			l-0.1,4.4h1.5v1.9h-1.5l-0.1,2.5h1.4v1.9h-1.4c0,0.9-0.2,1.6-0.6,1.9c-0.4,0.4-0.9,0.6-1.5,0.6s-2,0.1-3.9,0.1
			c-0.2-0.6-0.4-1.3-0.6-1.9c1.2,0,2.1,0.1,2.8,0.1c0.4,0,0.7,0,1-0.1c0.3-0.1,0.4-0.3,0.4-0.7h-8.9l0.4-4.4h-1.5L3075.5,185.9
			L3075.5,185.9z M3080.7,188.9l1.1-1.1h-2.4l-0.2,2.5h3.4C3081.9,189.8,3081.3,189.3,3080.7,188.9z M3080.7,184.4l1.1-1h-2
			l-0.3,2.6h3.1L3080.7,184.4z M3084.4,189.2l-1.1,1.1h2.3l0.1-2.5h-3.3C3082.8,188.1,3083.5,188.6,3084.4,189.2z M3084.4,184.8
			l-1.2,1.2h2.4l0-2.6h-3.3C3082.9,183.7,3083.6,184.2,3084.4,184.8z"/>
	</g>
</g>
<g>
	<g>
		<path class="st1" d="M3280.2,171.1h-3.1l-6-9.1c-0.3-0.5-0.5-0.9-0.7-1.1h-0.1c0.1,0.5,0.1,1.2,0.1,2.3v8h-2.9v-14.1h3.3l5.8,8.9
			c0.4,0.6,0.6,1,0.7,1.1h0.1c-0.1-0.3-0.1-1-0.1-1.9v-8.1h2.9L3280.2,171.1L3280.2,171.1z"/>
		<path class="st1" d="M3292.2,166.8h-6.6c0.1,1.6,1.1,2.4,2.8,2.4c1.1,0,2.1-0.3,2.9-0.8v2.2c-0.9,0.5-2.1,0.8-3.6,0.8
			c-1.6,0-2.9-0.4-3.8-1.4s-1.3-2.2-1.3-3.8c0-1.6,0.5-2.9,1.4-3.9s2.1-1.5,3.6-1.5c1.4,0,2.6,0.4,3.4,1.3c0.8,0.9,1.2,2.1,1.2,3.6
			L3292.2,166.8L3292.2,166.8z M3289.4,165c0-1.5-0.6-2.3-1.8-2.3c-0.5,0-0.9,0.2-1.3,0.6s-0.6,1-0.7,1.6H3289.4z"/>
		<path class="st1" d="M3293.5,166.1c0-1.7,0.5-3,1.5-3.9c1-0.9,2.3-1.4,4-1.4c1.6,0,2.9,0.5,3.9,1.4s1.4,2.2,1.4,3.8
			c0,1.7-0.5,3-1.5,3.9s-2.3,1.5-4,1.5c-1.6,0-2.9-0.5-3.9-1.4C3294,168.9,3293.5,167.7,3293.5,166.1z M3296.5,166c0,2,0.8,3,2.5,3
			c1.6,0,2.4-1,2.4-3.1c0-2-0.8-3-2.4-3c-0.8,0-1.4,0.3-1.8,0.8C3296.7,164.3,3296.5,165.1,3296.5,166z"/>
		<path class="st1" d="M3312,168c0.9,0.7,2,1.1,3.3,1.1c0.8,0,1.4-0.2,1.9-0.5s0.7-0.9,0.7-1.5c0-0.7-0.3-1.2-0.8-1.5
			s-1.3-0.5-2.3-0.5h-1.3v-2.3h1.2c1.9,0,2.9-0.6,2.9-1.9c0-1.2-0.7-1.8-2.2-1.8c-0.9,0-1.9,0.3-2.8,0.9v-2.4c1-0.5,2.1-0.8,3.4-0.8
			c1.3,0,2.4,0.3,3.3,0.9s1.2,1.5,1.2,2.6c0,1.9-0.9,3-2.8,3.5v0c1,0.1,1.8,0.5,2.4,1.1c0.6,0.6,0.9,1.4,0.9,2.2
			c0,1.3-0.5,2.4-1.5,3.1s-2.3,1.1-3.9,1.1c-1.5,0-2.6-0.2-3.5-0.7L3312,168L3312,168z"/>
		<path class="st1" d="M3332.3,166.1v4.9h-3v-14.1h4.9c3.5,0,5.3,1.5,5.3,4.5c0,1.4-0.5,2.6-1.6,3.5s-2.4,1.3-4,1.2L3332.3,166.1
			L3332.3,166.1z M3332.3,159.2v4.6h1.3c1.8,0,2.7-0.8,2.7-2.3c0-1.5-0.9-2.2-2.6-2.2L3332.3,159.2L3332.3,159.2z"/>
		<path class="st1" d="M3347.8,163.6c-0.4-0.2-0.8-0.3-1.3-0.3c-0.7,0-1.2,0.3-1.6,0.8c-0.4,0.5-0.6,1.2-0.6,2.1v4.9h-2.9V161h2.9
			v1.9h0c0.5-1.4,1.4-2.1,2.7-2.1c0.4,0,0.6,0,0.8,0.1L3347.8,163.6L3347.8,163.6z"/>
		<path class="st1" d="M3358.1,166.8h-6.6c0.1,1.6,1.1,2.4,2.8,2.4c1.1,0,2.1-0.3,2.9-0.8v2.2c-0.9,0.5-2.1,0.8-3.6,0.8
			c-1.6,0-2.9-0.4-3.8-1.4s-1.3-2.2-1.3-3.8c0-1.6,0.5-2.9,1.4-3.9s2.1-1.5,3.6-1.5c1.4,0,2.6,0.4,3.4,1.3s1.2,2.1,1.2,3.6
			L3358.1,166.8L3358.1,166.8z M3355.4,165c0-1.5-0.6-2.3-1.8-2.3c-0.5,0-0.9,0.2-1.3,0.6s-0.6,1-0.7,1.6H3355.4z"/>
		<path class="st1" d="M3369.5,161l-3.8,10.1h-3.3l-3.6-10.1h3.2l1.9,6.4c0.2,0.7,0.3,1.3,0.3,1.7h0c0.1-0.5,0.2-1,0.4-1.7l1.9-6.4
			H3369.5z"/>
		<path class="st1" d="M3370.6,157.7c0-0.4,0.2-0.8,0.5-1.1s0.7-0.4,1.2-0.4c0.5,0,0.9,0.1,1.2,0.4s0.5,0.6,0.5,1.1
			s-0.2,0.8-0.5,1.1s-0.7,0.4-1.2,0.4c-0.5,0-0.9-0.1-1.2-0.4C3370.7,158.5,3370.6,158.1,3370.6,157.7z M3370.8,171.1V161h2.9v10.1
			H3370.8z"/>
		<path class="st1" d="M3385.3,166.8h-6.6c0.1,1.6,1.1,2.4,2.8,2.4c1.1,0,2.1-0.3,2.9-0.8v2.2c-0.9,0.5-2.1,0.8-3.6,0.8
			c-1.6,0-2.9-0.4-3.8-1.4s-1.3-2.2-1.3-3.8c0-1.6,0.5-2.9,1.4-3.9s2.1-1.5,3.6-1.5c1.4,0,2.6,0.4,3.4,1.3c0.8,0.9,1.2,2.1,1.2,3.6
			L3385.3,166.8L3385.3,166.8z M3382.6,165c0-1.5-0.6-2.3-1.8-2.3c-0.5,0-0.9,0.2-1.3,0.6s-0.6,1-0.7,1.6H3382.6z"/>
		<path class="st1" d="M3401.7,161l-2.9,10.1h-3.1l-1.6-6.1c-0.1-0.4-0.2-0.8-0.2-1.2h-0.1c0,0.5-0.1,0.9-0.2,1.2l-1.7,6.1h-3.1
			l-2.9-10.1h3l1.5,6.7c0.1,0.3,0.1,0.6,0.1,1.1h0.1c0-0.4,0.1-0.8,0.2-1.1l1.8-6.7h2.8l1.6,6.7c0,0.2,0.1,0.6,0.1,1.1h0.1
			c0-0.3,0.1-0.7,0.2-1.1l1.4-6.7L3401.7,161L3401.7,161z"/>
		<path class="st1" d="M3409.8,156.6v14.4h-3v-11.1c-0.4,0.3-0.9,0.6-1.5,0.9c-0.6,0.2-1.2,0.4-1.7,0.5v-2.5
			c1.7-0.5,3.1-1.2,4.3-2.1L3409.8,156.6L3409.8,156.6z"/>
		<path class="st1" d="M3435.5,165c-0.9,1.6-2.2,3-3.6,4.2c1.4,0.6,3.2,1.1,5.6,1.5c-0.5,0.9-1.1,1.8-1.6,2.7
			c-2.5-0.6-4.6-1.4-6.3-2.5c-1.8,1.1-3.9,1.9-6.4,2.7c-0.4-0.8-0.9-1.6-1.4-2.4c2-0.6,3.9-1.2,5.5-2c-0.9-0.8-1.7-1.8-2.4-2.9
			c-1.4,2.2-3,4.2-4.9,5.7c-0.3-1.1-0.5-2.2-0.8-3.1c2.4-2.2,4.1-4.8,5.3-7.8h-4.6v-2.2c0.3-1,0.6-2,0.9-3.1l2.5,0.3
			c-0.2,0.8-0.4,1.7-0.8,2.8h2.6c0.3-1,0.6-2.2,0.8-3.6l2.6,0.2l-0.8,3.4h5.1c-0.7-0.7-1.4-1.3-2.1-2l1.6-1.5
			c1.1,0.9,2.1,1.6,2.9,2.4l-1.1,1.2h3.1v2.2h-10.1c-0.2,0.5-0.4,1.1-0.6,1.7h8.9V165z M3429.5,168c1.3-0.9,2.2-1.9,3-2.9h-5.6
			C3427.5,166.2,3428.4,167.2,3429.5,168z"/>
		<path class="st1" d="M3449.1,173.5h-2.5v-8.4h-2.9v7h-2.5v-5.8c-0.7,0.8-1.5,1.5-2.3,2.3c-0.3-1.1-0.6-1.9-0.8-2.6
			c2-1.8,3.6-3.7,4.7-5.8h-4.5v-2.4h5.7c0.3-0.7,0.6-1.5,0.8-2.2l2.6,0.3c-0.2,0.7-0.4,1.3-0.7,1.9h9.4v2.4h-10.5
			c-0.5,0.9-1,1.9-1.6,2.8h2.8v-2.3h2.5v2.3h5.5v5.9c0,0.8-0.2,1.4-0.5,1.8s-0.8,0.7-1.3,0.8s-1.4,0.1-2.6,0.1
			c-0.2-1-0.3-1.8-0.4-2.4c0.6,0.1,1,0.1,1.1,0.1c0.8,0,1.2-0.4,1.2-1.3v-2.9h-3L3449.1,173.5L3449.1,173.5z"/>
	</g>
</g>
<g class="st0">
	<g>
		<path d="M3607.1,70.6c0-0.8-0.2-1.4-0.7-1.8c-0.5-0.4-1.1-0.7-2-0.7c-0.6,0-1.2,0.2-1.8,0.4c-0.6,0.3-1.1,0.7-1.7,1.3v-1.7
			c0.5-0.5,1-0.8,1.6-1.1c0.6-0.3,1.3-0.4,2.1-0.4c1.3,0,2.3,0.3,3.1,1c0.8,0.7,1.2,1.6,1.2,2.8c0,1-0.2,1.9-0.7,2.7
			c-0.5,0.8-1.3,1.5-2.4,2.3c-1.2,0.8-2,1.4-2.4,1.8c-0.4,0.3-0.7,0.7-0.8,1s-0.2,0.7-0.2,1.2h7v1.6h-8.9v-0.7
			c0-0.8,0.1-1.5,0.3-2.1s0.6-1.1,1.1-1.7s1.3-1.2,2.4-1.9c1.1-0.8,1.9-1.5,2.3-2.1C3606.9,72,3607.1,71.4,3607.1,70.6z"/>
		<path d="M3611.1,74.3c0-2.5,0.4-4.4,1.2-5.7c0.8-1.3,2-1.9,3.6-1.9c3,0,4.5,2.4,4.5,7.2c0,2.4-0.4,4.2-1.3,5.5s-2,1.9-3.6,1.9
			c-1.4,0-2.6-0.6-3.3-1.8C3611.5,78.3,3611.1,76.6,3611.1,74.3z M3612.9,74.2c0,3.8,0.9,5.6,2.9,5.6c1.9,0,2.8-1.9,2.8-5.7
			c0-3.9-0.9-5.9-2.8-5.9C3613.9,68.2,3612.9,70.2,3612.9,74.2z"/>
		<path d="M3626.4,81.1V69c-0.3,0.3-0.8,0.6-1.4,0.9c-0.7,0.3-1.3,0.6-1.9,0.7v-1.8c0.8-0.2,1.6-0.5,2.4-1c0.9-0.4,1.5-0.9,2-1.3
			h0.7v14.4C3628.2,81.1,3626.4,81.1,3626.4,81.1z"/>
		<path d="M3633.9,79.1c0.8,0.4,1.6,0.7,2.5,0.7c1.3,0,2.2-0.5,2.9-1.5c0.7-1,1.1-2.4,1.1-4.2l0,0l0,0c-0.6,1.2-1.7,1.8-3.1,1.8
			c-1.2,0-2.2-0.4-2.9-1.2s-1.2-1.9-1.2-3.2c0-1.4,0.4-2.5,1.3-3.4s2-1.3,3.3-1.3c1.4,0,2.5,0.6,3.3,1.7s1.2,2.7,1.2,4.8
			c0,2.6-0.5,4.6-1.5,6c-1,1.4-2.4,2.1-4.2,2.1c-1,0-1.8-0.2-2.5-0.5L3633.9,79.1L3633.9,79.1z M3634.9,71.2c0,0.9,0.2,1.7,0.7,2.3
			c0.5,0.6,1.2,0.8,2,0.8c0.7,0,1.4-0.2,1.9-0.8s0.8-1.1,0.8-1.8c0-1-0.2-1.9-0.8-2.5c-0.5-0.7-1.2-1-2-1c-0.8,0-1.4,0.3-1.9,0.9
			C3635.2,69.6,3634.9,70.3,3634.9,71.2z"/>
		<path d="M3643.5,77.3h2.9v-5.2h6.5v-3.2h-5.4c-0.8,1.5-1.7,2.8-2.8,4.1c-0.3-0.3-0.7-0.7-1.1-1c1.7-1.9,3-4.1,3.9-6.6l1.5,0.4
			c-0.3,0.6-0.5,1.2-0.8,1.8h12.6v1.3h-6.4v3.2h6.1v1.3h-6.1v3.9h7.2v1.3h-7.2v4.9h-1.5v-4.9h-9.4V77.3z M3647.9,77.3h5v-3.9h-5
			V77.3z"/>
		<path d="M3667.1,81.1V69c-0.3,0.3-0.8,0.6-1.4,0.9c-0.7,0.3-1.3,0.6-1.9,0.7v-1.8c0.8-0.2,1.6-0.5,2.4-1c0.9-0.4,1.5-0.9,2-1.3
			h0.7v14.4C3668.8,81.1,3667.1,81.1,3667.1,81.1z"/>
		<path d="M3673.7,74.3c0-2.5,0.4-4.4,1.2-5.7c0.8-1.3,2-1.9,3.6-1.9c3,0,4.5,2.4,4.5,7.2c0,2.4-0.4,4.2-1.3,5.5
			c-0.8,1.3-2,1.9-3.6,1.9c-1.4,0-2.6-0.6-3.3-1.8S3673.7,76.6,3673.7,74.3z M3675.5,74.2c0,3.8,0.9,5.6,2.9,5.6
			c1.9,0,2.8-1.9,2.8-5.7c0-3.9-0.9-5.9-2.8-5.9C3676.5,68.2,3675.5,70.2,3675.5,74.2z"/>
		<path d="M3688.5,77.3c-0.3,2.3-1.2,4.5-2.8,6.4c-0.4-0.4-0.8-0.7-1.3-1.1c1.2-1.3,2-2.8,2.4-4.6c0.3-1.3,0.4-3.1,0.4-5.4v-6.3
			h12.2v14.2c0,1.8-0.9,2.7-2.6,2.7c-0.7,0-1.6,0-2.8,0c-0.1-0.4-0.1-0.9-0.3-1.5c1.1,0.1,2,0.1,2.6,0.1c1,0,1.5-0.5,1.5-1.4v-3
			L3688.5,77.3L3688.5,77.3z M3688.6,76h9.3v-3.5h-9.2C3688.8,73.7,3688.7,74.8,3688.6,76z M3688.8,67.7v3.5h9.2v-3.5H3688.8z"/>
	</g>
</g>
<g>
	<g>
		<path class="st1" d="M3580.1,171.1h-3.1l-6-9.1c-0.3-0.5-0.5-0.9-0.7-1.1h-0.1c0.1,0.5,0.1,1.2,0.1,2.3v8h-2.9v-14.1h3.3l5.8,8.9
			c0.4,0.6,0.6,1,0.7,1.1h0.1c-0.1-0.3-0.1-1-0.1-1.9v-8.1h2.9L3580.1,171.1L3580.1,171.1z"/>
		<path class="st1" d="M3592.1,166.8h-6.6c0.1,1.6,1.1,2.4,2.8,2.4c1.1,0,2.1-0.3,2.9-0.8v2.2c-0.9,0.5-2.1,0.8-3.6,0.8
			c-1.6,0-2.9-0.4-3.8-1.4s-1.3-2.2-1.3-3.8c0-1.6,0.5-2.9,1.4-3.9s2.1-1.5,3.6-1.5c1.4,0,2.6,0.4,3.4,1.3c0.8,0.9,1.2,2.1,1.2,3.6
			L3592.1,166.8L3592.1,166.8z M3589.4,165c0-1.5-0.6-2.3-1.8-2.3c-0.5,0-0.9,0.2-1.3,0.6s-0.6,1-0.7,1.6H3589.4z"/>
		<path class="st1" d="M3593.4,166.1c0-1.7,0.5-3,1.5-3.9c1-0.9,2.3-1.4,4-1.4c1.6,0,2.9,0.5,3.9,1.4s1.4,2.2,1.4,3.8
			c0,1.7-0.5,3-1.5,3.9s-2.3,1.5-4,1.5c-1.6,0-2.9-0.5-3.9-1.4C3593.9,168.9,3593.4,167.7,3593.4,166.1z M3596.4,166
			c0,2,0.8,3,2.5,3c1.6,0,2.4-1,2.4-3.1c0-2-0.8-3-2.4-3c-0.8,0-1.4,0.3-1.8,0.8C3596.6,164.3,3596.4,165.1,3596.4,166z"/>
		<path class="st1" d="M3605.4,170.4h7.6v-3.4h-5.6v-2.4h5.6v-3.3h-6.5v-2.4h7.1c-0.4-0.8-0.9-1.6-1.4-2.4l2.5-1.1
			c0.6,0.8,1.1,1.7,1.6,2.7l-1.8,0.8h7.8v2.4h-6.6v3.3h5.8v2.4h-5.8v3.4h7.6v2.4h-17.9L3605.4,170.4L3605.4,170.4z"/>
		<path class="st1" d="M3628.9,159.2l1.6,3.3c0.5-1.1,0.9-2.2,1.4-3.4l1.2,0.6l1-0.4l1.5,3.2c0.5-1.1,0.9-2.2,1.3-3.4l2,0.8
			c-0.6,1.8-1.3,3.6-2,5.3l1.9,4.3l-2.1,1l-1.1-2.7c-0.6,1.2-1.2,2.3-1.9,3.4c-0.3-0.2-0.5-0.4-0.8-0.6l-1,0.5l-1.4-3.4
			c-0.7,1.3-1.4,2.6-2.2,3.7c-0.3-0.3-0.7-0.6-1.1-1v3h-2.4v-17.2h16.6v14c0,0.9-0.2,1.7-0.5,2.2s-0.9,0.8-1.5,0.9
			c-0.6,0.1-1.9,0.1-3.6,0.1c-0.2-1-0.4-1.8-0.6-2.6c0.9,0.1,1.7,0.1,2.6,0.1c0.8,0,1.2-0.4,1.2-1.1v-11.4h-11.7v1.6L3628.9,159.2z
			 M3627.2,160.5v8.3c0.8-1.2,1.5-2.4,2.1-3.8C3628.6,163.4,3627.9,161.9,3627.2,160.5z M3633.1,162c-0.4,1.1-0.9,2.1-1.3,3.1
			l1.3,2.7c0.5-0.9,0.9-1.8,1.4-2.8L3633.1,162z"/>
		<path class="st1" d="M3642.9,170h6.8v-14.4h3v5.1h6.8v2.6h-6.8v6.7h7.9v2.6h-17.7L3642.9,170L3642.9,170z"/>
		<path class="st1" d="M3661.7,172.6l-0.5-2.6c2.2-0.3,4.4-0.6,6.7-1c0,0.4-0.1,0.8-0.1,1.2c1.4-0.4,2.7-1,3.9-1.6
			c-0.3-0.9-0.5-1.9-0.7-3.1l-3.1,0.4l-0.3-2.2l3.1-0.4l-0.1-1.8l-2.4,0.2l-0.1-1c-1.2,2-2.3,3.7-3.3,5c1.1-0.2,2-0.3,2.7-0.4
			c-0.1,0.5-0.1,1.3-0.2,2.3c-2.6,0.3-4.4,0.6-5.3,0.9l-0.7-2c0.8-0.7,1.6-1.8,2.6-3.2c-0.7,0.1-1.4,0.1-2.3,0.2l-0.7-2.1
			c1-1.2,2.1-3.2,3.3-6l2.3,0.9c-1.1,1.9-2,3.5-2.9,4.8c0.5,0,1,0,1.6-0.1c0.3-0.6,0.7-1.2,1-1.8l1.7,0.8l-0.1-0.6l2.5-0.2l-0.2-3.8
			h2.5c0,1.2,0.1,2.4,0.1,3.6l3.2-0.3c-0.7-0.5-1.6-1.1-2.5-1.7l1.2-1.6c1,0.5,2,1.1,3,1.8l-1.1,1.5l1.8-0.2l0.2,2.2l-5.5,0.6
			l0.1,1.8l5.7-0.7l0.2,2.2l-2.2,0.3l1.6,1.3c-1.2,1.3-2.4,2.4-3.8,3.4c0.5,0.8,1,1.2,1.4,1.2c0.2,0,0.4-0.1,0.5-0.4
			c0.1-0.3,0.3-1.1,0.6-2.3c0.8,0.4,1.6,0.8,2.1,1.1c-0.5,1.9-0.9,3.1-1.4,3.6s-1,0.8-1.6,0.8c-1.6,0-2.8-0.9-3.8-2.6
			c-1.5,0.8-3,1.4-4.6,1.9c-0.2-0.4-0.4-0.8-0.6-1.2C3665.3,171.9,3663.4,172.3,3661.7,172.6z M3676.9,164.9l-3.2,0.4
			c0.1,0.7,0.2,1.4,0.4,2C3675.1,166.6,3676,165.8,3676.9,164.9z"/>
		<path class="st1" d="M3680.3,169.7h17.6v2.7h-17.6V169.7z M3681.5,157h15.3v2.7h-15.3V157z M3682.3,163.2h13.7v2.6h-13.7V163.2z"
			/>
		<path class="st1" d="M3703.3,162.6h3.6v-1.2h-3.2v-1.8h3.2v-1.3h-4.1v6.1c0,4-0.7,7.1-2.1,9.2c-0.7-0.6-1.4-1.2-2.1-1.8
			c1.1-1.7,1.7-4.2,1.7-7.7v-8h15.6v13.5c0,1.2-0.2,2.1-0.7,2.7s-1.1,0.9-2,0.9c-0.9,0-1.8,0-2.9,0c-0.2-0.9-0.4-1.7-0.6-2.4
			c0.6,0.1,1.2,0.1,1.9,0.1c0.9,0,1.4-0.1,1.5-0.5c0.1-0.3,0.2-0.6,0.2-1v-11.2h-4.1v1.3h3.2v1.8h-3.2v1.2h3.6v1.8h-9.6
			L3703.3,162.6L3703.3,162.6z M3704.2,165.5h7.8v4.9h-5.5v0.9h-2.3V165.5z M3709.7,168.7v-1.5h-3.2v1.5H3709.7z"/>
		<path class="st1" d="M3734.2,162.1v2.3h-5.2v2.9h6.4v2.3h-6.4v3.9h-2.7v-3.9h-8.7v-2.3h2.6v-4.5c-0.3,0.4-0.7,0.7-1,1
			c-0.5-0.7-1-1.5-1.6-2.3c1.9-1.5,3.3-3.6,4.3-6.1l2.8,0.4c-0.2,0.5-0.4,1.1-0.7,1.6h10.9v2.3h-5.9v2.4H3734.2z M3720.9,162.1h5.4
			v-2.4h-3.6C3722.1,160.6,3721.5,161.4,3720.9,162.1z M3722.8,167.3h3.5v-2.9h-3.5V167.3z"/>
	</g>
</g>
<line class="st2" x1="173" y1="115.5" x2="3944.7" y2="115.5"/>
<rect x="166" y="108.5" class="st3" width="14" height="14"/>
<rect x="456" y="108.5" class="st3" width="14" height="14"/>
<rect x="745" y="108.5" class="st3" width="14" height="14"/>
<rect x="1034" y="108.5" class="st3" width="14" height="14"/>
<rect x="1324" y="108.5" class="st3" width="14" height="14"/>
<rect x="1614" y="108.5" class="st3" width="14" height="14"/>
<rect x="1905" y="108.5" class="st3" width="14" height="14"/>
<rect x="2195" y="108.5" class="st3" width="14" height="14"/>
<rect x="2484" y="108.5" class="st3" width="14" height="14"/>
<rect x="2774" y="108.5" class="st3" width="14" height="14"/>
<rect x="3064" y="108.5" class="st3" width="14" height="14"/>
<rect x="3354" y="108.5" class="st3" width="14" height="14"/>
<rect x="3644" y="108.5" class="st3" width="14" height="14"/>
</svg>
