<?xml version="1.0" encoding="utf-8"?>
<!-- Generator: Adobe Illustrator 23.0.6, SVG Export Plug-In . SVG Version: 6.00 Build 0)  -->
<svg version="1.1" id="Layer_1" xmlns="http://www.w3.org/2000/svg" xmlns:xlink="http://www.w3.org/1999/xlink" x="0px" y="0px"
	 viewBox="0 0 86 86" style="enable-background:new 0 0 86 86;" xml:space="preserve">
<style type="text/css">
	.st0{fill:#2B393F;}
	.st1{fill:#D9DBDC;}
	.st2{fill:#02E49B;}
</style>
<title>Artboard 62</title>
<path class="st0" d="M58.8,77.7L26.7,59.2c-0.7-0.4-1.2-1.2-1.2-2.1v-48c0-0.7,0.5-1.2,1.2-1.2c0.2,0,0.4,0.1,0.6,0.2l25,14.5
	L61,40.8v35.7c0,0.8-0.6,1.4-1.4,1.5C59.3,77.9,59,77.9,58.8,77.7z"/>
<path class="st1" d="M52.3,22.6l-0.2,12c0,0.7,0.4,1.3,0.9,1.6l7.9,4.6"/>
<path class="st2" d="M45.2,34.2l-13.7-7.9c-0.4-0.2-0.6-0.6-0.6-1v-2.8c0-0.3,0.3-0.6,0.6-0.6c0.1,0,0.2,0,0.3,0.1l13.7,7.9
	c0.4,0.2,0.6,0.6,0.6,1v2.8c0,0.3-0.3,0.6-0.6,0.6C45.4,34.3,45.3,34.3,45.2,34.2z"/>
<path class="st2" d="M38.3,39.7l-5.6-3.3c-0.4-0.2-0.6-0.6-0.6-1v-2.8c0-0.3,0.3-0.6,0.6-0.6c0.1,0,0.2,0,0.3,0.1l5.6,3.3
	c0.4,0.2,0.6,0.6,0.6,1v2.8c0,0.3-0.3,0.6-0.6,0.6C38.5,39.8,38.4,39.8,38.3,39.7z"/>
<path class="st2" d="M27.5,24.5l-8.3-4.9c-0.4-0.2-0.6-0.6-0.6-1v-2.8c0-0.3,0.3-0.6,0.6-0.6c0.1,0,0.2,0,0.3,0.1l8.3,4.9
	c0.4,0.2,0.6,0.6,0.6,1V24c0,0.3-0.3,0.6-0.6,0.6C27.7,24.6,27.6,24.6,27.5,24.5z"/>
<path class="st2" d="M56,49.8l-13.7-7.9c-0.4-0.2-0.6-0.6-0.6-1v-2.8c0-0.3,0.3-0.6,0.6-0.6c0.1,0,0.2,0,0.3,0.1l13.7,7.9
	c0.4,0.2,0.6,0.6,0.6,1v2.8c0,0.3-0.2,0.6-0.6,0.6C56.2,49.9,56.1,49.9,56,49.8z"/>
<path class="st2" d="M67.1,65L39,48.9c-0.3-0.2-0.4-0.5-0.4-0.8v-3.2c0-0.2,0.2-0.4,0.4-0.4c0.1,0,0.1,0,0.2,0.1l28.2,16.1
	c0.3,0.2,0.4,0.4,0.4,0.8v3.2c0,0.2-0.2,0.4-0.4,0.5C67.3,65.1,67.2,65.1,67.1,65z"/>
<ellipse transform="matrix(0.9047 -0.4261 0.4261 0.9047 -22.5319 27.5528)" class="st1" cx="50.3" cy="64.1" rx="3.1" ry="3.5"/>
</svg>
