<svg id="Layer_1" data-name="Layer 1" xmlns="http://www.w3.org/2000/svg" viewBox="0 0 86 86"><defs><style>.cls-1{fill:#2b393f;}.cls-2{fill:#d9dbdc;}.cls-3{fill:#02e49b;}</style></defs><title>Artboard 62</title><path class="cls-1" d="M56.18,71.89,29.49,56.44a2,2,0,0,1-1-1.73V14.79a1,1,0,0,1,1.5-.86L50.79,26,58,41.15v29.7A1.2,1.2,0,0,1,56.18,71.89Z"/><path class="cls-2" d="M50.79,26l-.15,10a1.57,1.57,0,0,0,.79,1.36L58,41.15"/><path class="cls-3" d="M44.85,35.68,33.41,29.1a1,1,0,0,1-.5-.87V25.92a.5.5,0,0,1,.74-.44l11.44,6.58a1,1,0,0,1,.51.87v2.31A.5.5,0,0,1,44.85,35.68Z"/><path class="cls-3" d="M39.14,40.26l-4.65-2.75a1,1,0,0,1-.49-.86V34.34a.51.51,0,0,1,.76-.43l4.65,2.76a1,1,0,0,1,.49.86v2.3A.5.5,0,0,1,39.14,40.26Z"/><path class="cls-3" d="M30.17,27.59,23.3,23.5a1,1,0,0,1-.49-.86V20.33a.5.5,0,0,1,.75-.43L30.43,24a1,1,0,0,1,.49.86v2.31A.5.5,0,0,1,30.17,27.59Z"/><path class="cls-3" d="M53.83,48.65,42.39,42.07a1,1,0,0,1-.5-.86V38.89a.5.5,0,0,1,.75-.43L54.08,45a1,1,0,0,1,.5.86v2.32A.5.5,0,0,1,53.83,48.65Z"/><path class="cls-3" d="M63.12,61.33,39.67,47.94a.75.75,0,0,1-.37-.64V44.61a.37.37,0,0,1,.55-.32L63.3,57.69a.72.72,0,0,1,.37.63V61A.36.36,0,0,1,63.12,61.33Z"/><ellipse class="cls-2" cx="49.13" cy="60.58" rx="2.55" ry="2.93" transform="translate(-21.13 26.71) rotate(-25.22)"/></svg>