<svg enable-background="new 0 0 86 86" viewBox="0 0 86 86" xmlns="http://www.w3.org/2000/svg"><path d="m58.8 77.7-32.1-18.5c-.7-.4-1.2-1.2-1.2-2.1v-48c0-.7.5-1.2 1.2-1.2.2 0 .4.1.6.2l25 14.5 8.7 18.2v35.7c0 .8-.6 1.4-1.4 1.5-.3-.1-.6-.1-.8-.3z" fill="#2b393f"/><path d="m52.3 22.6-.2 12c0 .7.4 1.3.9 1.6l7.9 4.6" fill="#d9dbdc"/><g fill="#02e49b"><path d="m45.2 34.2-13.7-7.9c-.4-.2-.6-.6-.6-1v-2.8c0-.3.3-.6.6-.6.1 0 .2 0 .3.1l13.7 7.9c.4.2.6.6.6 1v2.8c0 .3-.3.6-.6.6-.1 0-.2 0-.3-.1z"/><path d="m38.3 39.7-5.6-3.3c-.4-.2-.6-.6-.6-1v-2.8c0-.3.3-.6.6-.6.1 0 .2 0 .3.1l5.6 3.3c.4.2.6.6.6 1v2.8c0 .3-.3.6-.6.6-.1 0-.2 0-.3-.1z"/><path d="m27.5 24.5-8.3-4.9c-.4-.2-.6-.6-.6-1v-2.8c0-.3.3-.6.6-.6.1 0 .2 0 .3.1l8.3 4.9c.4.2.6.6.6 1v2.8c0 .3-.3.6-.6.6-.1 0-.2 0-.3-.1z"/><path d="m56 49.8-13.7-7.9c-.4-.2-.6-.6-.6-1v-2.8c0-.3.3-.6.6-.6.1 0 .2 0 .3.1l13.7 7.9c.4.2.6.6.6 1v2.8c0 .3-.2.6-.6.6-.1 0-.2 0-.3-.1z"/><path d="m67.1 65-28.1-16.1c-.3-.2-.4-.5-.4-.8v-3.2c0-.2.2-.4.4-.4.1 0 .1 0 .2.1l28.2 16.1c.3.2.4.4.4.8v3.2c0 .2-.2.4-.4.5-.1-.1-.2-.1-.3-.2z"/></g><ellipse cx="50.3" cy="64.1" fill="#d9dbdc" rx="3.1" ry="3.5" transform="matrix(.9047 -.4261 .4261 .9047 -22.5319 27.5528)"/></svg>