<svg enable-background="new 0 0 86 86" viewBox="0 0 86 86" xmlns="http://www.w3.org/2000/svg" xmlns:xlink="http://www.w3.org/1999/xlink"><linearGradient id="a" gradientUnits="userSpaceOnUse" x1="44.298" x2="44.298" y1="15.6827" y2="35.5808"><stop offset="0" stop-color="#02e49b"/><stop offset="1" stop-color="#02e49b" stop-opacity=".38"/></linearGradient><path d="m42.4 20.8-17.2 9.8c-.5.3-.8.9-.8 1.4v19.8c0 .6.4 1.2.8 1.4l17.1 9.8c.5.3 1.2.3 1.7 0l17.2-9.8c.5-.3.8-.9.8-1.4v-19.7c0-.6-.4-1.2-.8-1.4l-17.1-9.8c-.6-.4-1.2-.4-1.7-.1z" fill="#2b393f"/><path d="m38.8 27.4-1.7.9c-.1.1-.2.2-.1.3l.1.1 11.6 6.7c.1 0 .1.1.2.1l1.7-.9c.1-.1.2-.2.1-.3 0 0 0-.1-.1-.1l-11.6-6.8c-.1 0-.1 0-.2 0z" fill="#d9dbdc"/><g fill="#02e49b"><path d="m19.5 64.7-7.6-4.3c-.1-.1-.2-.3-.2-.4v-8.8c0-.2.2-.4.4-.4.1 0 .1 0 .2.1l7.6 4.3c.1.1.2.2.2.4v8.8c0 .2-.2.4-.4.4-.1-.1-.2-.1-.2-.1z"/><path d="m12.3 33.2 7.4-4.3c.1-.1.2-.2.2-.4v-8.7c0-.2-.2-.4-.4-.4-.1 0-.1 0-.2.1l-7.5 4.3c-.1.1-.2.2-.2.3v8.7c0 .3.2.4.4.4z"/><path d="m66.7 64.9 7.4-4.3c.1-.1.2-.2.2-.4v-8.7c0-.2-.2-.4-.4-.4-.1 0-.2 0-.2.1l-7.4 4.3c-.1.1-.2.2-.2.4v8.6c0 .2.2.4.4.4z"/><path d="m73.8 33.2-7.5-4.3c-.1-.1-.2-.2-.2-.4v-8.7c0-.2.2-.4.4-.4.1 0 .1 0 .2.1l7.5 4.3c.1.1.2.2.2.4v8.7c0 .2-.2.4-.4.4-.1-.1-.1-.1-.2-.1z"/></g><path d="m37.9 29.1 10.8 6.3 2-1.2v-16.2l-12.8-4.3z" fill="url(#a)" opacity=".38"/><path d="m50.1 29.9-11.8-6.7c-.3-.2-.4-.4-.4-.7v-13.9c0-.3.2-.4.4-.4.1 0 .2 0 .2.1l11.8 6.7c.3.2.4.4.4.7v13.7c0 .3-.2.4-.4.4-.1.1-.2.1-.2.1z" fill="#02e49b"/><path d="m42.5 78-7.8-4.5c-.1-.1-.2-.2-.2-.4v-9c0-.2.2-.4.4-.4.1 0 .2 0 .2.1l7.8 4.5c.1.1.2.2.2.4v9c0 .2-.2.4-.4.4-.1-.1-.1-.1-.2-.1z" fill="#02e49b"/></svg>