<?xml version="1.0" encoding="utf-8"?>
<!-- Generator: Adobe Illustrator 23.0.6, SVG Export Plug-In . SVG Version: 6.00 Build 0)  -->
<svg version="1.1" id="Layer_1" xmlns="http://www.w3.org/2000/svg" xmlns:xlink="http://www.w3.org/1999/xlink" x="0px" y="0px"
	 viewBox="0 0 86 86" style="enable-background:new 0 0 86 86;" xml:space="preserve">
<style type="text/css">
	.st0{fill:#2B393F;}
	.st1{fill:#D9DBDC;}
	.st2{fill:#02E49B;}
	.st3{opacity:0.38;fill:url(#SVGID_1_);enable-background:new    ;}
</style>
<title>Artboard 58</title>
<g>
	<path class="st0" d="M42.4,20.8l-17.2,9.8c-0.5,0.3-0.8,0.9-0.8,1.4v19.8c0,0.6,0.4,1.2,0.8,1.4l17.1,9.8c0.5,0.3,1.2,0.3,1.7,0
		l17.2-9.8c0.5-0.3,0.8-0.9,0.8-1.4V32.1c0-0.6-0.4-1.2-0.8-1.4l-17.1-9.8C43.5,20.5,42.9,20.5,42.4,20.8z"/>
	<path class="st1" d="M38.8,27.4l-1.7,0.9c-0.1,0.1-0.2,0.2-0.1,0.3l0.1,0.1l11.6,6.7c0.1,0,0.1,0.1,0.2,0.1l1.7-0.9
		c0.1-0.1,0.2-0.2,0.1-0.3c0,0,0-0.1-0.1-0.1L39,27.4C38.9,27.4,38.9,27.4,38.8,27.4z"/>
	<path class="st2" d="M19.5,64.7l-7.6-4.3c-0.1-0.1-0.2-0.3-0.2-0.4v-8.8c0-0.2,0.2-0.4,0.4-0.4c0.1,0,0.1,0,0.2,0.1l7.6,4.3
		c0.1,0.1,0.2,0.2,0.2,0.4v8.8c0,0.2-0.2,0.4-0.4,0.4C19.6,64.7,19.5,64.7,19.5,64.7z"/>
	<path class="st2" d="M12.3,33.2l7.4-4.3c0.1-0.1,0.2-0.2,0.2-0.4v-8.7c0-0.2-0.2-0.4-0.4-0.4c-0.1,0-0.1,0-0.2,0.1l-7.5,4.3
		c-0.1,0.1-0.2,0.2-0.2,0.3v8.7c0,0.3,0.2,0.4,0.4,0.4C12.1,33.2,12.2,33.2,12.3,33.2z"/>
	<path class="st2" d="M66.7,64.9l7.4-4.3c0.1-0.1,0.2-0.2,0.2-0.4v-8.7c0-0.2-0.2-0.4-0.4-0.4c-0.1,0-0.2,0-0.2,0.1l-7.4,4.3
		c-0.1,0.1-0.2,0.2-0.2,0.4v8.6c0,0.2,0.2,0.4,0.4,0.4C66.6,64.9,66.6,64.9,66.7,64.9z"/>
	<path class="st2" d="M73.8,33.2l-7.5-4.3c-0.1-0.1-0.2-0.2-0.2-0.4v-8.7c0-0.2,0.2-0.4,0.4-0.4c0.1,0,0.1,0,0.2,0.1l7.5,4.3
		c0.1,0.1,0.2,0.2,0.2,0.4v8.7c0,0.2-0.2,0.4-0.4,0.4C73.9,33.2,73.9,33.2,73.8,33.2z"/>
	
		<linearGradient id="SVGID_1_" gradientUnits="userSpaceOnUse" x1="44.298" y1="695.6827" x2="44.298" y2="715.5808" gradientTransform="matrix(1 0 0 1 0 -680)">
		<stop  offset="0" style="stop-color:#02E49B"/>
		<stop  offset="1" style="stop-color:#02E49B;stop-opacity:0.38"/>
	</linearGradient>
	<polygon class="st3" points="37.9,29.1 48.7,35.4 50.7,34.2 50.7,18 37.9,13.7 	"/>
	<path class="st2" d="M50.1,29.9l-11.8-6.7c-0.3-0.2-0.4-0.4-0.4-0.7V8.6c0-0.3,0.2-0.4,0.4-0.4c0.1,0,0.2,0,0.2,0.1L50.3,15
		c0.3,0.2,0.4,0.4,0.4,0.7v13.7c0,0.3-0.2,0.4-0.4,0.4C50.2,29.9,50.1,29.9,50.1,29.9z"/>
	<path class="st2" d="M42.5,78l-7.8-4.5c-0.1-0.1-0.2-0.2-0.2-0.4v-9c0-0.2,0.2-0.4,0.4-0.4c0.1,0,0.2,0,0.2,0.1l7.8,4.5
		c0.1,0.1,0.2,0.2,0.2,0.4v9c0,0.2-0.2,0.4-0.4,0.4C42.6,78,42.6,78,42.5,78z"/>
</g>
</svg>
