<svg id="Layer_1" data-name="Layer 1" xmlns="http://www.w3.org/2000/svg" xmlns:xlink="http://www.w3.org/1999/xlink" viewBox="0 0 86 86"><defs><style>.cls-1{fill:#2b393f;}.cls-2{fill:#d9dbdc;}.cls-3{fill:#02e49b;}.cls-4{opacity:0.38;fill:url(#linear-gradient);}</style><linearGradient id="linear-gradient" x1="44.51" y1="10.54" x2="44.51" y2="34.16" gradientUnits="userSpaceOnUse"><stop offset="0" stop-color="#02e49b"/><stop offset="1" stop-color="#02e49b" stop-opacity="0.38"/></linearGradient></defs><title>Artboard 58</title><path class="cls-1" d="M42.24,16.59,21.9,28.34a2,2,0,0,0-1,1.73V53.56a2,2,0,0,0,1,1.73L42.24,67a2,2,0,0,0,2,0L64.59,55.29a2,2,0,0,0,1-1.73V30.07a2,2,0,0,0-1-1.73L44.24,16.59A2,2,0,0,0,42.24,16.59Z"/><path class="cls-2" d="M38,24.39l-2,1.09a.26.26,0,0,0,0,.45l13.8,8A.27.27,0,0,0,50,34l2-1.11a.27.27,0,0,0,0-.46l-13.77-8A.27.27,0,0,0,38,24.39Z"/><path class="cls-3" d="M15.06,68.68l-9-5.15a.44.44,0,0,1-.22-.39V52.71a.44.44,0,0,1,.66-.38l9,5.15a.45.45,0,0,1,.23.39V68.3A.44.44,0,0,1,15.06,68.68Z"/><path class="cls-3" d="M6.51,31.29l8.87-5.09a.43.43,0,0,0,.22-.38V15.51a.43.43,0,0,0-.65-.37L6.07,20.23a.44.44,0,0,0-.21.38V30.92A.43.43,0,0,0,6.51,31.29Z"/><path class="cls-3" d="M71.14,68.87,80,63.79a.43.43,0,0,0,.22-.38V53.14a.43.43,0,0,0-.65-.38L70.7,57.83a.46.46,0,0,0-.22.38V68.49A.45.45,0,0,0,71.14,68.87Z"/><path class="cls-3" d="M79.56,31.29,70.68,26.2a.43.43,0,0,1-.22-.38V15.51a.43.43,0,0,1,.65-.37L80,20.23a.44.44,0,0,1,.21.38V30.92A.43.43,0,0,1,79.56,31.29Z"/><polygon class="cls-4" points="36.89 26.48 49.8 33.98 52.12 32.56 52.12 13.28 36.89 8.1 36.89 26.48"/><path class="cls-3" d="M51.37,27.34l-14-8a1,1,0,0,1-.5-.87V2.21a.5.5,0,0,1,.75-.43l14,8a1,1,0,0,1,.5.86V26.91A.5.5,0,0,1,51.37,27.34Z"/><path class="cls-3" d="M42.35,84.49l-9.2-5.28a.45.45,0,0,1-.23-.39V68.13a.45.45,0,0,1,.68-.39L42.8,73a.44.44,0,0,1,.22.39V84.1A.45.45,0,0,1,42.35,84.49Z"/></svg>