<svg width="206" height="205" viewBox="0 0 206 205" fill="none" xmlns="http://www.w3.org/2000/svg">
<g filter="url(#filter0_d)">
<rect x="28" y="12" width="175.169" height="175" fill="white"/>
</g>
<path fill-rule="evenodd" clip-rule="evenodd" d="M115 40L166.962 70V130L115 160L63.0385 130V70L115 40Z" fill="white" stroke="#00E599" stroke-width="2"/>
<path fill-rule="evenodd" clip-rule="evenodd" d="M106.768 108.113C105.863 108.487 104.849 108.675 103.725 108.675C101.978 108.675 100.546 108.351 99.431 107.703C98.3155 107.056 97.5393 106.085 97.1025 104.79L101.455 102.988C101.471 103.534 101.564 103.963 101.736 104.275C101.908 104.587 102.146 104.802 102.45 104.919C102.754 105.036 103.078 105.094 103.421 105.094C103.764 105.094 104.065 105.036 104.322 104.919C104.579 104.802 104.778 104.626 104.919 104.392C105.059 104.158 105.129 103.885 105.129 103.573C105.129 103.214 105.055 102.933 104.907 102.731C104.759 102.528 104.56 102.383 104.31 102.298C104.061 102.212 103.772 102.169 103.444 102.169C103.226 102.169 103.035 102.177 102.871 102.192C102.707 102.208 102.516 102.231 102.298 102.262V99.3606C102.423 99.3762 102.547 99.3879 102.672 99.3957C102.797 99.4035 102.953 99.4074 103.14 99.4074C103.717 99.4074 104.139 99.2826 104.404 99.033C104.669 98.7834 104.802 98.3777 104.802 97.8161C104.802 97.348 104.673 96.9853 104.416 96.7279C104.158 96.4705 103.803 96.3418 103.351 96.3418C102.867 96.3418 102.458 96.4861 102.122 96.7747C101.787 97.0633 101.596 97.5899 101.549 98.3543L97.4067 97.0204C97.5315 96.0843 97.8865 95.3043 98.4715 94.6802C99.0566 94.0561 99.7976 93.5803 100.695 93.2527C101.592 92.925 102.586 92.7612 103.678 92.7612C104.911 92.7612 105.952 92.9328 106.803 93.2761C107.653 93.6193 108.3 94.1108 108.745 94.7504C109.19 95.3901 109.412 96.1701 109.412 97.0906C109.412 97.7927 109.299 98.3699 109.073 98.8224C108.846 99.2748 108.562 99.6336 108.218 99.8989C107.875 100.164 107.548 100.355 107.236 100.472C106.924 100.589 106.682 100.648 106.51 100.648V100.741C106.697 100.741 106.966 100.78 107.318 100.858C107.669 100.936 108.027 101.085 108.394 101.303C108.761 101.521 109.073 101.845 109.33 102.274C109.588 102.703 109.716 103.269 109.716 103.971C109.716 104.938 109.451 105.777 108.921 106.487C108.39 107.196 107.672 107.739 106.768 108.113ZM84.7696 101.748V108.441H80.604V92.9953H85.8227L90.0351 100.648L91.0413 102.731H91.0647L90.9711 99.6883V92.9953H95.1601V108.441H89.918L85.7057 100.788L84.7228 98.7054H84.676L84.7696 101.748Z" fill="#00E599"/>
<path fill-rule="evenodd" clip-rule="evenodd" d="M106.768 108.113C105.863 108.487 104.849 108.675 103.725 108.675C101.978 108.675 100.546 108.351 99.431 107.703C98.3155 107.056 97.5393 106.085 97.1025 104.79L101.455 102.988C101.471 103.534 101.564 103.963 101.736 104.275C101.908 104.587 102.146 104.802 102.45 104.919C102.754 105.036 103.078 105.094 103.421 105.094C103.764 105.094 104.065 105.036 104.322 104.919C104.579 104.802 104.778 104.626 104.919 104.392C105.059 104.158 105.129 103.885 105.129 103.573C105.129 103.214 105.055 102.933 104.907 102.731C104.759 102.528 104.56 102.383 104.31 102.298C104.061 102.212 103.772 102.169 103.444 102.169C103.226 102.169 103.035 102.177 102.871 102.192C102.707 102.208 102.516 102.231 102.298 102.262V99.3606C102.423 99.3762 102.547 99.3879 102.672 99.3957C102.797 99.4035 102.953 99.4074 103.14 99.4074C103.717 99.4074 104.139 99.2826 104.404 99.033C104.669 98.7834 104.802 98.3777 104.802 97.8161C104.802 97.348 104.673 96.9853 104.416 96.7279C104.158 96.4705 103.803 96.3418 103.351 96.3418C102.867 96.3418 102.458 96.4861 102.122 96.7747C101.787 97.0633 101.596 97.5899 101.549 98.3543L97.4067 97.0204C97.5315 96.0843 97.8865 95.3043 98.4715 94.6802C99.0566 94.0561 99.7976 93.5803 100.695 93.2527C101.592 92.925 102.586 92.7612 103.678 92.7612C104.911 92.7612 105.952 92.9328 106.803 93.2761C107.653 93.6193 108.3 94.1108 108.745 94.7504C109.19 95.3901 109.412 96.1701 109.412 97.0906C109.412 97.7927 109.299 98.3699 109.073 98.8224C108.846 99.2748 108.562 99.6336 108.218 99.8989C107.875 100.164 107.548 100.355 107.236 100.472C106.924 100.589 106.682 100.648 106.51 100.648V100.741C106.697 100.741 106.966 100.78 107.318 100.858C107.669 100.936 108.027 101.085 108.394 101.303C108.761 101.521 109.073 101.845 109.33 102.274C109.588 102.703 109.716 103.269 109.716 103.971C109.716 104.938 109.451 105.777 108.921 106.487C108.39 107.196 107.672 107.739 106.768 108.113ZM84.7696 101.748V108.441H80.604V92.9953H85.8227L90.0351 100.648L91.0413 102.731H91.0647L90.9711 99.6883V92.9953H95.1601V108.441H89.918L85.7057 100.788L84.7228 98.7054H84.676L84.7696 101.748Z" fill="#000033"/>
<rect x="76" y="82" width="38" height="38" stroke="#000033" stroke-width="1.2036"/>
<mask id="mask0" mask-type="alpha" maskUnits="userSpaceOnUse" x="121" y="78" width="20" height="16">
<path fill-rule="evenodd" clip-rule="evenodd" d="M121 78H140.062V93.5618H121V78Z" fill="white"/>
</mask>
<g mask="url(#mask0)">
<path fill-rule="evenodd" clip-rule="evenodd" d="M125.233 79.5815L122.63 84.0961C122.348 84.5864 122.348 85.195 122.63 85.6854L125.893 91.3467C126.176 91.837 126.703 92.141 127.267 92.141H133.794C134.36 92.141 134.886 91.837 135.169 91.3467L138.432 85.6854C138.714 85.195 138.714 84.5864 138.432 84.0961L135.83 79.5815V84.1307C135.83 85.7905 134.481 87.1409 132.824 87.1409H128.238C126.581 87.1409 125.233 85.7905 125.233 84.1307V79.5815ZM133.794 93.5619H127.267C126.198 93.5619 125.2 92.9849 124.665 92.0574L121.401 86.3955C120.866 85.4674 120.866 84.3141 121.401 83.3854L124.112 78.6826C124.425 78.1415 125.038 77.8859 125.642 78.0484C126.246 78.2102 126.651 78.7388 126.651 79.3641V84.1307C126.651 85.0075 127.363 85.72 128.238 85.72H132.824C133.699 85.72 134.411 85.0075 134.411 84.1307V79.3641C134.411 78.7388 134.816 78.2102 135.419 78.0484C136.023 77.8859 136.637 78.1415 136.95 78.6826L139.661 83.3854C140.196 84.3141 140.196 85.4674 139.66 86.3955L136.398 92.0574C135.861 92.9849 134.864 93.5619 133.794 93.5619Z" fill="black"/>
</g>
<path fill-rule="evenodd" clip-rule="evenodd" d="M127.109 112.755C127.054 112.755 127.011 112.801 127.011 112.858V116.064C127.011 116.122 127.054 116.168 127.109 116.168H133.727C133.782 116.168 133.826 116.122 133.826 116.064V112.858C133.826 112.801 133.782 112.755 133.727 112.755H127.109Z" fill="#00E599"/>
<path fill-rule="evenodd" clip-rule="evenodd" d="M141.268 112.777C141.213 112.777 141.17 112.823 141.17 112.88V116.086C141.17 116.144 141.213 116.19 141.268 116.19H147.886C147.941 116.19 147.985 116.144 147.985 116.086V112.88C147.985 112.823 147.941 112.777 147.886 112.777H141.268Z" fill="#00E599"/>
<path fill-rule="evenodd" clip-rule="evenodd" d="M128.065 111.47H132.997V93.562H128.065V111.47ZM133.706 112.906C133.681 112.906 133.656 112.905 133.631 112.902C133.613 112.9 133.588 112.895 133.563 112.891H127.498C127.472 112.895 127.448 112.9 127.43 112.902C127.232 112.926 127.031 112.858 126.882 112.723C126.732 112.589 126.646 112.397 126.646 112.195V92.8518C126.646 92.4588 126.964 92.1411 127.356 92.1411H133.706C134.098 92.1411 134.415 92.4588 134.415 92.8518V112.195C134.415 112.397 134.33 112.589 134.18 112.723C134.05 112.841 133.881 112.906 133.706 112.906Z" fill="black"/>
<path fill-rule="evenodd" clip-rule="evenodd" d="M128.065 117.347V118.109C128.065 119.471 129.171 120.579 130.531 120.579C131.891 120.579 132.997 119.471 132.997 118.109V117.347H128.065ZM130.531 122C128.389 122 126.646 120.255 126.646 118.109V116.622C126.646 116.423 126.729 116.233 126.875 116.098C127.022 115.964 127.215 115.896 127.416 115.914C127.438 115.916 127.469 115.92 127.499 115.926H133.564C133.594 115.92 133.624 115.916 133.645 115.914C133.849 115.898 134.041 115.965 134.186 116.098C134.332 116.233 134.415 116.423 134.415 116.622V118.109C134.415 120.255 132.673 122 130.531 122Z" fill="black"/>
<path fill-rule="evenodd" clip-rule="evenodd" d="M127.43 112.891C127.379 112.891 127.339 112.932 127.339 112.983V115.834C127.339 115.886 127.379 115.926 127.43 115.926H133.631C133.682 115.926 133.723 115.886 133.723 115.834V112.983C133.723 112.932 133.682 112.891 133.631 112.891H127.43ZM133.631 117.347H127.43C126.598 117.347 125.92 116.669 125.92 115.834V112.983C125.92 112.149 126.598 111.47 127.43 111.47H133.631C134.465 111.47 135.143 112.149 135.143 112.983V115.834C135.143 116.669 134.465 117.347 133.631 117.347Z" fill="black"/>
<path fill-rule="evenodd" clip-rule="evenodd" d="M141.922 111.47H146.855V102.737H141.922V111.47ZM147.564 112.906C147.539 112.906 147.514 112.905 147.489 112.902C147.471 112.9 147.446 112.895 147.421 112.891H141.356C141.33 112.895 141.306 112.9 141.289 112.902C141.09 112.926 140.889 112.858 140.739 112.723C140.59 112.589 140.504 112.397 140.504 112.195V102.027C140.504 101.634 140.822 101.316 141.213 101.316H147.564C147.956 101.316 148.274 101.634 148.274 102.027V112.195C148.274 112.397 148.188 112.589 148.038 112.723C147.908 112.841 147.738 112.906 147.564 112.906Z" fill="black"/>
<path fill-rule="evenodd" clip-rule="evenodd" d="M141.923 117.347V118.109C141.923 119.471 143.029 120.579 144.389 120.579C145.749 120.579 146.855 119.471 146.855 118.109V117.347H141.923ZM144.389 122C142.247 122 140.504 120.255 140.504 118.109V116.622C140.504 116.423 140.587 116.233 140.733 116.098C140.88 115.964 141.073 115.896 141.274 115.914C141.296 115.916 141.326 115.92 141.357 115.926H147.422C147.452 115.92 147.482 115.916 147.504 115.914C147.707 115.898 147.898 115.965 148.044 116.098C148.19 116.233 148.273 116.423 148.273 116.622V118.109C148.273 120.255 146.531 122 144.389 122Z" fill="black"/>
<path fill-rule="evenodd" clip-rule="evenodd" d="M141.288 112.891C141.237 112.891 141.197 112.932 141.197 112.983V115.834C141.197 115.886 141.237 115.926 141.288 115.926H147.489C147.54 115.926 147.581 115.886 147.581 115.834V112.983C147.581 112.932 147.54 112.891 147.489 112.891H141.288ZM147.489 117.347H141.288C140.456 117.347 139.778 116.669 139.778 115.834V112.983C139.778 112.149 140.456 111.47 141.288 111.47H147.489C148.323 111.47 149 112.149 149 112.983V115.834C149 116.669 148.323 117.347 147.489 117.347Z" fill="black"/>
<path fill-rule="evenodd" clip-rule="evenodd" d="M142.309 101.316H146.469L145.395 98.9209H143.383L142.309 101.316ZM147.565 102.737H141.213C140.973 102.737 140.749 102.615 140.618 102.413C140.487 102.21 140.468 101.955 140.566 101.736L142.276 97.9199C142.391 97.6642 142.644 97.5 142.923 97.5H145.854C146.134 97.5 146.387 97.6642 146.502 97.9199L148.211 101.736C148.31 101.955 148.29 102.21 148.16 102.413C148.029 102.615 147.805 102.737 147.565 102.737Z" fill="black"/>
<path fill-rule="evenodd" clip-rule="evenodd" d="M143.632 97.5001H145.145V84.9262H143.632V97.5001ZM145.855 98.9209H142.923C142.531 98.9209 142.214 98.6032 142.214 98.2102V84.2161C142.214 83.8231 142.531 83.5054 142.923 83.5054H145.855C146.246 83.5054 146.564 83.8231 146.564 84.2161V98.2102C146.564 98.6032 146.246 98.9209 145.855 98.9209Z" fill="black"/>
<path fill-rule="evenodd" clip-rule="evenodd" d="M142.631 83.5056H146.147L145.313 80.4506H143.464L142.631 83.5056ZM147.076 84.9264H141.702C141.48 84.9264 141.272 84.8231 141.138 84.6469C141.004 84.4707 140.959 84.242 141.018 84.0287L142.239 79.553C142.323 79.2436 142.603 79.0298 142.923 79.0298H145.854C146.174 79.0298 146.455 79.2436 146.539 79.553L147.761 84.0287C147.819 84.242 147.774 84.4707 147.639 84.6469C147.506 84.8231 147.297 84.9264 147.076 84.9264Z" fill="black"/>
<defs>
<filter id="filter0_d" x="0" y="0" width="205.169" height="205" filterUnits="userSpaceOnUse" color-interpolation-filters="sRGB">
<feFlood flood-opacity="0" result="BackgroundImageFix"/>
<feColorMatrix in="SourceAlpha" type="matrix" values="0 0 0 0 0 0 0 0 0 0 0 0 0 0 0 0 0 0 127 0" result="hardAlpha"/>
<feOffset dx="-13" dy="3"/>
<feGaussianBlur stdDeviation="7.5"/>
<feColorMatrix type="matrix" values="0 0 0 0 0 0 0 0 0 0 0 0 0 0 0 0 0 0 0.237341 0"/>
<feBlend mode="normal" in2="BackgroundImageFix" result="effect1_dropShadow"/>
<feBlend mode="normal" in="SourceGraphic" in2="effect1_dropShadow" result="shape"/>
</filter>
</defs>
</svg>
