<svg width="206" height="205" viewBox="0 0 206 205" fill="none" xmlns="http://www.w3.org/2000/svg">
<g filter="url(#filter0_d)">
<rect x="28" y="12" width="175.169" height="175" fill="white"/>
</g>
<path fill-rule="evenodd" clip-rule="evenodd" d="M116 40L167.962 70V130L116 160L64.0385 130V70L116 40Z" fill="white" stroke="#00E599" stroke-width="2"/>
<path fill-rule="evenodd" clip-rule="evenodd" d="M112.526 115.551C112.526 117.354 111.096 118.82 109.34 118.82H98.3107C96.5538 118.82 95.1242 117.354 95.1242 115.551V104.236C95.1242 102.434 96.5538 100.967 98.3107 100.967H109.34C111.096 100.967 112.526 102.434 112.526 104.236V115.551ZM109.34 98.7876H98.3107C95.3823 98.7876 93 101.232 93 104.236V115.551C93 118.556 95.3823 121 98.3107 121H109.34C112.268 121 114.651 118.556 114.651 115.551V104.236C114.651 101.232 112.268 98.7876 109.34 98.7876Z" fill="#000033"/>
<path fill-rule="evenodd" clip-rule="evenodd" d="M136.875 115.551C136.875 117.354 135.446 118.82 133.689 118.82H122.661C120.903 118.82 119.474 117.354 119.474 115.551V104.236C119.474 102.434 120.903 100.967 122.661 100.967H133.689C135.446 100.967 136.875 102.434 136.875 104.236V115.551ZM133.689 98.7876H122.661C119.732 98.7876 117.349 101.232 117.349 104.236V115.551C117.349 118.556 119.732 121 122.661 121H133.689C136.617 121 139 118.556 139 115.551V104.236C139 101.232 136.617 98.7876 133.689 98.7876Z" fill="#000033"/>
<path fill-rule="evenodd" clip-rule="evenodd" d="M123.705 91.7638C123.705 93.5664 122.276 95.0331 120.519 95.0331H109.49C107.733 95.0331 106.304 93.5664 106.304 91.7638V80.4493C106.304 78.6468 107.733 77.1797 109.49 77.1797H120.519C122.276 77.1797 123.705 78.6468 123.705 80.4493V91.7638ZM120.519 75H109.49C106.562 75 104.179 77.4445 104.179 80.4493V91.7638C104.179 94.7679 106.562 97.2128 109.49 97.2128H120.519C123.447 97.2128 125.83 94.7679 125.83 91.7638V80.4493C125.83 77.4445 123.447 75 120.519 75Z" fill="#000033"/>
<path fill-rule="evenodd" clip-rule="evenodd" d="M115.097 79.6548C112.262 79.6548 110.325 86.4491 109.424 90.4993C109.293 91.086 109.651 91.6704 110.223 91.8045C110.302 91.823 110.382 91.8319 110.46 91.8319C110.944 91.8319 111.382 91.4899 111.495 90.9848C111.701 90.0584 111.939 89.1409 112.192 88.262H115.457C116.043 88.262 116.518 87.7739 116.518 87.1718C116.518 86.5704 116.043 86.0823 115.457 86.0823H112.883C113.69 83.7627 114.544 82.0552 115.096 81.8419C115.984 82.2021 117.599 86.5082 118.51 90.9658C118.63 91.5544 119.193 91.9339 119.767 91.8083C120.342 91.6851 120.71 91.1077 120.589 90.5183C119.761 86.4614 117.946 79.6548 115.097 79.6548Z" fill="#000033"/>
<path fill-rule="evenodd" clip-rule="evenodd" d="M105.22 113.794H101.057V105.977H104.317C105.074 105.977 105.691 106.609 105.691 107.387C105.691 108.163 105.074 108.796 104.317 108.796H103.373C102.787 108.796 102.311 109.284 102.311 109.886C102.311 110.487 102.787 110.975 103.373 110.975H105.22C105.978 110.975 106.593 111.608 106.593 112.385C106.593 113.162 105.978 113.794 105.22 113.794ZM107.193 109.424C107.585 108.844 107.815 108.143 107.815 107.387C107.815 105.407 106.246 103.797 104.317 103.797H99.9948C99.4083 103.797 98.9325 104.285 98.9325 104.887V114.884C98.9325 115.486 99.4083 115.974 99.9948 115.974H105.22C107.149 115.974 108.718 114.364 108.718 112.385C108.718 111.157 108.113 110.071 107.193 109.424Z" fill="#000033"/>
<path fill-rule="evenodd" clip-rule="evenodd" d="M133.294 111.366C132.78 111.076 132.135 111.267 131.852 111.795C131.521 112.411 131.032 112.927 130.438 113.287C128.609 114.394 126.244 113.77 125.165 111.894C124.642 110.986 124.495 109.922 124.752 108.901C125.008 107.879 125.637 107.02 126.522 106.484C128.351 105.376 130.716 106.002 131.795 107.878C132.093 108.395 132.745 108.568 133.25 108.262C133.755 107.956 133.923 107.287 133.625 106.769C131.95 103.86 128.279 102.889 125.443 104.607C122.605 106.326 121.661 110.092 123.336 113.003C124.449 114.937 126.444 116.014 128.49 116.014C129.522 116.014 130.567 115.74 131.518 115.164C132.44 114.605 133.199 113.804 133.713 112.846C133.996 112.319 133.809 111.656 133.294 111.366Z" fill="#000033"/>
<defs>
<filter id="filter0_d" x="0" y="0" width="205.169" height="205" filterUnits="userSpaceOnUse" color-interpolation-filters="sRGB">
<feFlood flood-opacity="0" result="BackgroundImageFix"/>
<feColorMatrix in="SourceAlpha" type="matrix" values="0 0 0 0 0 0 0 0 0 0 0 0 0 0 0 0 0 0 127 0" result="hardAlpha"/>
<feOffset dx="-13" dy="3"/>
<feGaussianBlur stdDeviation="7.5"/>
<feColorMatrix type="matrix" values="0 0 0 0 0 0 0 0 0 0 0 0 0 0 0 0 0 0 0.237341 0"/>
<feBlend mode="normal" in2="BackgroundImageFix" result="effect1_dropShadow"/>
<feBlend mode="normal" in="SourceGraphic" in2="effect1_dropShadow" result="shape"/>
</filter>
</defs>
</svg>
