<svg width="206" height="205" viewBox="0 0 206 205" fill="none" xmlns="http://www.w3.org/2000/svg">
<g filter="url(#filter0_d)">
<rect x="28" y="12" width="175.169" height="175" fill="white"/>
</g>
<path fill-rule="evenodd" clip-rule="evenodd" d="M115 40L166.962 70V130L115 160L63.0385 130V70L115 40Z" fill="white" stroke="#00E599" stroke-width="2"/>
<path fill-rule="evenodd" clip-rule="evenodd" d="M129.244 86.122C129.244 85.08 130.089 84.2354 131.131 84.2354H153.113C154.155 84.2354 155 85.08 155 86.122V118.113C155 119.155 154.155 120 153.113 120H131.131C130.089 120 129.244 119.155 129.244 118.113V86.122Z" fill="white" stroke="#000033" stroke-width="0.905584"/>
<path d="M133.459 89.412H151.254" stroke="#000033" stroke-width="0.5" stroke-linecap="square"/>
<path d="M133.459 90.7684H151.254" stroke="#000033" stroke-width="0.5" stroke-linecap="square"/>
<path d="M131.117 89.412H131.585" stroke="#000033" stroke-width="0.943317" stroke-linecap="square"/>
<path d="M131.117 97.412H131.585" stroke="#000033" stroke-width="0.943317" stroke-linecap="square"/>
<path d="M133.458 90.8236H147.507" stroke="#000033" stroke-width="0.943317" stroke-linecap="square"/>
<path d="M133.459 92.2352H151.254" stroke="#000033" stroke-width="0.5" stroke-linecap="square"/>
<path d="M133.458 93.6469H141.888" stroke="#000033" stroke-width="0.943317" stroke-linecap="square"/>
<path d="M133.459 97.412H151.254" stroke="#000033" stroke-width="0.5" stroke-linecap="square"/>
<path d="M133.458 98.8236H147.507" stroke="#000033" stroke-width="0.943317" stroke-linecap="square"/>
<path d="M133.459 100.235H151.254" stroke="#000033" stroke-width="0.5" stroke-linecap="square"/>
<path d="M133.458 101.647H141.888" stroke="#000033" stroke-width="0.943317" stroke-linecap="square"/>
<path d="M131.117 104.941H131.585" stroke="#000033" stroke-width="0.943317" stroke-linecap="square"/>
<path d="M133.459 104.941H151.254" stroke="#000033" stroke-width="0.5" stroke-linecap="square"/>
<path d="M133.458 106.353H147.507" stroke="#000033" stroke-width="0.943317" stroke-linecap="square"/>
<path d="M133.459 107.765H151.254" stroke="#000033" stroke-width="0.5" stroke-linecap="square"/>
<path d="M133.458 109.177H141.888" stroke="#000033" stroke-width="0.943317" stroke-linecap="square"/>
<path d="M142.824 115.294H151.254" stroke="#000033" stroke-width="0.5" stroke-linecap="square"/>
<path fill-rule="evenodd" clip-rule="evenodd" d="M123 81.8866C123 80.8447 123.845 80 124.887 80H146.869C147.911 80 148.756 80.8447 148.756 81.8866V113.878C148.756 114.92 147.911 115.765 146.869 115.765H124.887C123.845 115.765 123 114.92 123 113.878V81.8866Z" fill="white" stroke="#000033" stroke-width="0.905584"/>
<path d="M124.873 93.1766H125.341" stroke="#000033" stroke-width="0.5" stroke-linecap="square"/>
<path d="M127.215 93.1766H145.01" stroke="#000033" stroke-width="0.5" stroke-linecap="square"/>
<path d="M127.215 94.5883H141.263" stroke="#000033" stroke-width="0.5" stroke-linecap="square"/>
<path d="M127.215 95.9999H145.01" stroke="#000033" stroke-width="0.5" stroke-linecap="square"/>
<path d="M127.215 97.412H135.644" stroke="#000033" stroke-width="0.5" stroke-linecap="square"/>
<path d="M136.667 89.6097H145.096" stroke="#000033" stroke-width="0.5" stroke-linecap="square"/>
<path d="M136.667 88.2528H145.096" stroke="#000033" stroke-width="0.5" stroke-linecap="square"/>
<path d="M136.667 86.8959H145.096" stroke="#000033" stroke-width="0.5" stroke-linecap="square"/>
<path d="M136.667 85.5389H145.096" stroke="#000033" stroke-width="0.5" stroke-linecap="square"/>
<path d="M124.873 100.706H125.341" stroke="#000033" stroke-width="0.5" stroke-linecap="square"/>
<path d="M127.215 100.706H145.01" stroke="#000033" stroke-width="0.5" stroke-linecap="square"/>
<path d="M127.215 102.118H141.263" stroke="#000033" stroke-width="0.5" stroke-linecap="square"/>
<path d="M127.215 103.529H145.01" stroke="#000033" stroke-width="0.5" stroke-linecap="square"/>
<path d="M127.215 104.941H135.644" stroke="#000033" stroke-width="0.5" stroke-linecap="square"/>
<path d="M136.58 111.059H145.01" stroke="#000033" stroke-width="0.5" stroke-linecap="square"/>
<rect x="127.051" y="84.0708" width="6.75148" height="6.78457" rx="0.68" fill="#00E599" stroke="#000033" stroke-width="0.68"/>
<path fill-rule="evenodd" clip-rule="evenodd" d="M105.768 108.113C104.863 108.487 103.849 108.675 102.725 108.675C100.978 108.675 99.5465 108.351 98.431 107.703C97.3155 107.056 96.5393 106.085 96.1025 104.79L100.455 102.988C100.471 103.534 100.564 103.963 100.736 104.275C100.908 104.587 101.146 104.802 101.45 104.919C101.754 105.036 102.078 105.094 102.421 105.094C102.764 105.094 103.065 105.036 103.322 104.919C103.579 104.802 103.778 104.626 103.919 104.392C104.059 104.158 104.129 103.885 104.129 103.573C104.129 103.214 104.055 102.933 103.907 102.731C103.759 102.528 103.56 102.383 103.31 102.298C103.061 102.212 102.772 102.169 102.444 102.169C102.226 102.169 102.035 102.177 101.871 102.192C101.707 102.208 101.516 102.231 101.298 102.262V99.3606C101.423 99.3762 101.547 99.3879 101.672 99.3957C101.797 99.4035 101.953 99.4074 102.14 99.4074C102.717 99.4074 103.139 99.2826 103.404 99.033C103.669 98.7834 103.802 98.3777 103.802 97.8161C103.802 97.348 103.673 96.9853 103.416 96.7279C103.158 96.4705 102.803 96.3418 102.351 96.3418C101.867 96.3418 101.458 96.4861 101.122 96.7747C100.787 97.0633 100.596 97.5899 100.549 98.3543L96.4067 97.0204C96.5315 96.0843 96.8865 95.3043 97.4715 94.6802C98.0566 94.0561 98.7976 93.5803 99.6947 93.2527C100.592 92.925 101.586 92.7612 102.678 92.7612C103.911 92.7612 104.952 92.9328 105.803 93.2761C106.653 93.6193 107.3 94.1108 107.745 94.7504C108.19 95.3901 108.412 96.1701 108.412 97.0906C108.412 97.7927 108.299 98.3699 108.073 98.8224C107.846 99.2748 107.562 99.6336 107.218 99.8989C106.875 100.164 106.548 100.355 106.236 100.472C105.924 100.589 105.682 100.648 105.51 100.648V100.741C105.697 100.741 105.966 100.78 106.318 100.858C106.669 100.936 107.027 101.085 107.394 101.303C107.761 101.521 108.073 101.845 108.33 102.274C108.588 102.703 108.716 103.269 108.716 103.971C108.716 104.938 108.451 105.777 107.921 106.487C107.39 107.196 106.672 107.739 105.768 108.113ZM83.7696 101.748V108.441H79.604V92.9953H84.8227L89.0351 100.648L90.0413 102.731H90.0647L89.9711 99.6883V92.9953H94.1601V108.441H88.918L84.7057 100.788L83.7228 98.7054H83.676L83.7696 101.748Z" fill="#00E599"/>
<path fill-rule="evenodd" clip-rule="evenodd" d="M105.768 108.113C104.863 108.487 103.849 108.675 102.725 108.675C100.978 108.675 99.5465 108.351 98.431 107.703C97.3155 107.056 96.5393 106.085 96.1025 104.79L100.455 102.988C100.471 103.534 100.564 103.963 100.736 104.275C100.908 104.587 101.146 104.802 101.45 104.919C101.754 105.036 102.078 105.094 102.421 105.094C102.764 105.094 103.065 105.036 103.322 104.919C103.579 104.802 103.778 104.626 103.919 104.392C104.059 104.158 104.129 103.885 104.129 103.573C104.129 103.214 104.055 102.933 103.907 102.731C103.759 102.528 103.56 102.383 103.31 102.298C103.061 102.212 102.772 102.169 102.444 102.169C102.226 102.169 102.035 102.177 101.871 102.192C101.707 102.208 101.516 102.231 101.298 102.262V99.3606C101.423 99.3762 101.547 99.3879 101.672 99.3957C101.797 99.4035 101.953 99.4074 102.14 99.4074C102.717 99.4074 103.139 99.2826 103.404 99.033C103.669 98.7834 103.802 98.3777 103.802 97.8161C103.802 97.348 103.673 96.9853 103.416 96.7279C103.158 96.4705 102.803 96.3418 102.351 96.3418C101.867 96.3418 101.458 96.4861 101.122 96.7747C100.787 97.0633 100.596 97.5899 100.549 98.3543L96.4067 97.0204C96.5315 96.0843 96.8865 95.3043 97.4715 94.6802C98.0566 94.0561 98.7976 93.5803 99.6947 93.2527C100.592 92.925 101.586 92.7612 102.678 92.7612C103.911 92.7612 104.952 92.9328 105.803 93.2761C106.653 93.6193 107.3 94.1108 107.745 94.7504C108.19 95.3901 108.412 96.1701 108.412 97.0906C108.412 97.7927 108.299 98.3699 108.073 98.8224C107.846 99.2748 107.562 99.6336 107.218 99.8989C106.875 100.164 106.548 100.355 106.236 100.472C105.924 100.589 105.682 100.648 105.51 100.648V100.741C105.697 100.741 105.966 100.78 106.318 100.858C106.669 100.936 107.027 101.085 107.394 101.303C107.761 101.521 108.073 101.845 108.33 102.274C108.588 102.703 108.716 103.269 108.716 103.971C108.716 104.938 108.451 105.777 107.921 106.487C107.39 107.196 106.672 107.739 105.768 108.113ZM83.7696 101.748V108.441H79.604V92.9953H84.8227L89.0351 100.648L90.0413 102.731H90.0647L89.9711 99.6883V92.9953H94.1601V108.441H88.918L84.7057 100.788L83.7228 98.7054H83.676L83.7696 101.748Z" fill="#000033"/>
<rect x="75" y="82" width="38" height="38" stroke="#000033" stroke-width="1.2036"/>
<defs>
<filter id="filter0_d" x="0" y="0" width="205.169" height="205" filterUnits="userSpaceOnUse" color-interpolation-filters="sRGB">
<feFlood flood-opacity="0" result="BackgroundImageFix"/>
<feColorMatrix in="SourceAlpha" type="matrix" values="0 0 0 0 0 0 0 0 0 0 0 0 0 0 0 0 0 0 127 0" result="hardAlpha"/>
<feOffset dx="-13" dy="3"/>
<feGaussianBlur stdDeviation="7.5"/>
<feColorMatrix type="matrix" values="0 0 0 0 0 0 0 0 0 0 0 0 0 0 0 0 0 0 0.237341 0"/>
<feBlend mode="normal" in2="BackgroundImageFix" result="effect1_dropShadow"/>
<feBlend mode="normal" in="SourceGraphic" in2="effect1_dropShadow" result="shape"/>
</filter>
</defs>
</svg>
