<?xml version="1.0" encoding="UTF-8"?>
<svg width="163px" height="181px" viewBox="0 0 163 181" version="1.1" xmlns="http://www.w3.org/2000/svg" xmlns:xlink="http://www.w3.org/1999/xlink">
    <title>编组 9</title>
    <defs>
        <polygon id="path-1" points="75.6 0.5 134.524368 34.52 134.524368 102.56 75.6 136.58 16.6756315 102.56 16.6756315 34.52"></polygon>
        <filter x="-30.4%" y="-19.5%" width="144.7%" height="158.1%" filterUnits="objectBoundingBox" id="filter-2">
            <feOffset dx="-11" dy="13" in="SourceAlpha" result="shadowOffsetOuter1"></feOffset>
            <feGaussianBlur stdDeviation="11" in="shadowOffsetOuter1" result="shadowBlurOuter1"></feGaussianBlur>
            <feColorMatrix values="0 0 0 0 0.316369017   0 0 0 0 0.366987588   0 0 0 0 0.353495709  0 0 0 0.257409583 0" type="matrix" in="shadowBlurOuter1" result="shadowMatrixOuter1"></feColorMatrix>
            <feOffset dx="-5" dy="5" in="SourceAlpha" result="shadowOffsetOuter2"></feOffset>
            <feGaussianBlur stdDeviation="4.5" in="shadowOffsetOuter2" result="shadowBlurOuter2"></feGaussianBlur>
            <feColorMatrix values="0 0 0 0 0   0 0 0 0 0   0 0 0 0 0  0 0 0 0.144614907 0" type="matrix" in="shadowBlurOuter2" result="shadowMatrixOuter2"></feColorMatrix>
            <feMerge>
                <feMergeNode in="shadowMatrixOuter1"></feMergeNode>
                <feMergeNode in="shadowMatrixOuter2"></feMergeNode>
            </feMerge>
        </filter>
    </defs>
    <g id="Page-1" stroke="none" stroke-width="1" fill="none" fill-rule="evenodd">
        <g id="Migration-S1" transform="translate(-276.000000, -294.000000)">
            <g id="编组-9" transform="translate(293.000000, 303.000000)">
                <g id="Decentralized-Storage-HEX-ICON" transform="translate(24.625000, 12.500000)" stroke="#000033">
                    <polygon id="Polygon" stroke-width="2.88" points="51.5 0.5 96.1003083 26.25 96.1003083 77.75 51.5 103.5 6.89969171 77.75 6.89969171 26.25"></polygon>
                    <g id="Group-14" transform="translate(19.000000, 21.000000)" stroke-width="1.4">
                        <g id="Group-10" transform="translate(23.600000, 22.000000)">
                            <path d="M8.10465418,0.64967983 L14.3566933,4.18563068 C14.5253596,4.28102283 14.6296392,4.4598021 14.6296392,4.65357505 L14.6296392,11.706425 C14.6296392,11.9001979 14.5253596,12.0789772 14.3566933,12.1743693 L8.10465418,15.7103202 C7.94044007,15.8031944 7.73955993,15.8031944 7.57534582,15.7103202 L1.32330666,12.1743693 C1.15464044,12.0789772 1.05036083,11.9001979 1.05036083,11.706425 L1.05036083,4.65357505 C1.05036083,4.4598021 1.15464044,4.28102283 1.32330666,4.18563068 L7.57534582,0.64967983 C7.73955993,0.556805648 7.94044007,0.556805648 8.10465418,0.64967983 Z" id="Polygon"></path>
                            <line x1="7.84" y1="15.54" x2="7.84" y2="8.18" id="Line-6" stroke-linecap="round"></line>
                            <line x1="0.96" y1="4.66" x2="7.68" y2="8.18" id="Line-4" stroke-linecap="round"></line>
                            <line x1="14.4" y1="4.66" x2="7.68" y2="8.18" id="Line-5" stroke-linecap="round"></line>
                        </g>
                        <g id="Group-10" transform="translate(0.000000, 22.000000)">
                            <path d="M8.10465418,0.64967983 L14.3566933,4.18563068 C14.5253596,4.28102283 14.6296392,4.4598021 14.6296392,4.65357505 L14.6296392,11.706425 C14.6296392,11.9001979 14.5253596,12.0789772 14.3566933,12.1743693 L8.10465418,15.7103202 C7.94044007,15.8031944 7.73955993,15.8031944 7.57534582,15.7103202 L1.32330666,12.1743693 C1.15464044,12.0789772 1.05036083,11.9001979 1.05036083,11.706425 L1.05036083,4.65357505 C1.05036083,4.4598021 1.15464044,4.28102283 1.32330666,4.18563068 L7.57534582,0.64967983 C7.73955993,0.556805648 7.94044007,0.556805648 8.10465418,0.64967983 Z" id="Polygon"></path>
                            <line x1="7.84" y1="15.54" x2="7.84" y2="8.18" id="Line-6" stroke-linecap="round"></line>
                            <line x1="0.96" y1="4.66" x2="7.68" y2="8.18" id="Line-4" stroke-linecap="round"></line>
                            <line x1="14.4" y1="4.66" x2="7.68" y2="8.18" id="Line-5" stroke-linecap="round"></line>
                        </g>
                        <g id="Group-10" transform="translate(48.000000, 22.000000)">
                            <path d="M8.10465418,0.64967983 L14.3566933,4.18563068 C14.5253596,4.28102283 14.6296392,4.4598021 14.6296392,4.65357505 L14.6296392,11.706425 C14.6296392,11.9001979 14.5253596,12.0789772 14.3566933,12.1743693 L8.10465418,15.7103202 C7.94044007,15.8031944 7.73955993,15.8031944 7.57534582,15.7103202 L1.32330666,12.1743693 C1.15464044,12.0789772 1.05036083,11.9001979 1.05036083,11.706425 L1.05036083,4.65357505 C1.05036083,4.4598021 1.15464044,4.28102283 1.32330666,4.18563068 L7.57534582,0.64967983 C7.73955993,0.556805648 7.94044007,0.556805648 8.10465418,0.64967983 Z" id="Polygon"></path>
                            <line x1="7.84" y1="15.54" x2="7.84" y2="8.18" id="Line-6" stroke-linecap="round"></line>
                            <line x1="0.96" y1="4.66" x2="7.68" y2="8.18" id="Line-4" stroke-linecap="round"></line>
                            <line x1="14.4" y1="4.66" x2="7.68" y2="8.18" id="Line-5" stroke-linecap="round"></line>
                        </g>
                        <g id="Group-10" transform="translate(23.600000, 0.000000)">
                            <path d="M8.10465418,0.64967983 L14.3566933,4.18563068 C14.5253596,4.28102283 14.6296392,4.4598021 14.6296392,4.65357505 L14.6296392,11.706425 C14.6296392,11.9001979 14.5253596,12.0789772 14.3566933,12.1743693 L8.10465418,15.7103202 C7.94044007,15.8031944 7.73955993,15.8031944 7.57534582,15.7103202 L1.32330666,12.1743693 C1.15464044,12.0789772 1.05036083,11.9001979 1.05036083,11.706425 L1.05036083,4.65357505 C1.05036083,4.4598021 1.15464044,4.28102283 1.32330666,4.18563068 L7.57534582,0.64967983 C7.73955993,0.556805648 7.94044007,0.556805648 8.10465418,0.64967983 Z" id="Polygon"></path>
                            <line x1="7.84" y1="15.54" x2="7.84" y2="8.18" id="Line-6" stroke-linecap="round"></line>
                            <line x1="0.96" y1="4.66" x2="7.68" y2="8.18" id="Line-4" stroke-linecap="round"></line>
                            <line x1="14.4" y1="4.66" x2="7.68" y2="8.18" id="Line-5" stroke-linecap="round"></line>
                        </g>
                        <g id="Group-10" transform="translate(23.600000, 44.800000)">
                            <path d="M8.10465418,0.64967983 L14.3566933,4.18563068 C14.5253596,4.28102283 14.6296392,4.4598021 14.6296392,4.65357505 L14.6296392,11.706425 C14.6296392,11.9001979 14.5253596,12.0789772 14.3566933,12.1743693 L8.10465418,15.7103202 C7.94044007,15.8031944 7.73955993,15.8031944 7.57534582,15.7103202 L1.32330666,12.1743693 C1.15464044,12.0789772 1.05036083,11.9001979 1.05036083,11.706425 L1.05036083,4.65357505 C1.05036083,4.4598021 1.15464044,4.28102283 1.32330666,4.18563068 L7.57534582,0.64967983 C7.73955993,0.556805648 7.94044007,0.556805648 8.10465418,0.64967983 Z" id="Polygon"></path>
                            <line x1="7.84" y1="15.54" x2="7.84" y2="8.18" id="Line-6" stroke-linecap="round"></line>
                            <line x1="0.96" y1="4.66" x2="7.68" y2="8.18" id="Line-4" stroke-linecap="round"></line>
                            <line x1="14.4" y1="4.66" x2="7.68" y2="8.18" id="Line-5" stroke-linecap="round"></line>
                        </g>
                        <line x1="48.8" y1="30.9" x2="38.4" y2="30.9" id="Line-7" stroke-linecap="square"></line>
                        <line x1="24.8" y1="30.9" x2="14.4" y2="30.9" id="Line-7" stroke-linecap="square"></line>
                        <line x1="31.6" y1="44.5" x2="31.6" y2="38.1" id="Line-7" stroke-linecap="square"></line>
                        <line x1="31.6" y1="22.1" x2="31.6" y2="15.7" id="Line-7" stroke-linecap="square"></line>
                    </g>
                </g>
                <g id="icon">
                    <polygon id="Polygon" stroke="#00E599" stroke-width="1.296" fill="#FFFFFF" points="68.04 15.26 126.964368 49.28 126.964368 117.32 68.04 151.34 9.11563153 117.32 9.11563153 49.28"></polygon>
                    <g id="Polygon-Copy-8">
                        <use fill="black" fill-opacity="1" filter="url(#filter-2)" xlink:href="#path-1"></use>
                        <use fill="#F0F5F6" fill-rule="evenodd" xlink:href="#path-1"></use>
                    </g>
                    <g id="Group-14" transform="translate(47.880000, 41.760000)" stroke="#000033" stroke-width="1.3104">
                        <g id="Group-10" transform="translate(22.089600, 20.592000)">
                            <path d="M7.58595631,0.640100321 L13.437865,3.94975032 C13.5957365,4.03903737 13.6933423,4.20637477 13.6933423,4.38774624 L13.6933423,10.9892138 C13.6933423,11.1705852 13.5957365,11.3379226 13.437865,11.4272097 L7.58595631,14.7368597 C7.4322519,14.8237899 7.2442281,14.8237899 7.09052369,14.7368597 L1.23861503,11.4272097 C1.08074346,11.3379226 0.983137741,11.1705852 0.983137741,10.9892138 L0.983137741,4.38774624 C0.983137741,4.20637477 1.08074346,4.03903737 1.23861503,3.94975032 L7.09052369,0.640100321 C7.2442281,0.553170086 7.4322519,0.553170086 7.58595631,0.640100321 Z" id="Polygon" fill="#00E599"></path>
                            <line x1="7.33824" y1="14.57744" x2="7.33824" y2="7.68848" id="Line-6" stroke-linecap="round"></line>
                            <line x1="0.89856" y1="4.39376" x2="7.18848" y2="7.68848" id="Line-4" stroke-linecap="round"></line>
                            <line x1="13.4784" y1="4.39376" x2="7.18848" y2="7.68848" id="Line-5" stroke-linecap="round"></line>
                        </g>
                        <g id="Group-10" transform="translate(0.000000, 20.592000)">
                            <path d="M7.58595631,0.640100321 L13.437865,3.94975032 C13.5957365,4.03903737 13.6933423,4.20637477 13.6933423,4.38774624 L13.6933423,10.9892138 C13.6933423,11.1705852 13.5957365,11.3379226 13.437865,11.4272097 L7.58595631,14.7368597 C7.4322519,14.8237899 7.2442281,14.8237899 7.09052369,14.7368597 L1.23861503,11.4272097 C1.08074346,11.3379226 0.983137741,11.1705852 0.983137741,10.9892138 L0.983137741,4.38774624 C0.983137741,4.20637477 1.08074346,4.03903737 1.23861503,3.94975032 L7.09052369,0.640100321 C7.2442281,0.553170086 7.4322519,0.553170086 7.58595631,0.640100321 Z" id="Polygon" fill="#FFFFFF"></path>
                            <line x1="7.33824" y1="14.57744" x2="7.33824" y2="7.68848" id="Line-6" stroke-linecap="round"></line>
                            <line x1="0.89856" y1="4.39376" x2="7.18848" y2="7.68848" id="Line-4" stroke-linecap="round"></line>
                            <line x1="13.4784" y1="4.39376" x2="7.18848" y2="7.68848" id="Line-5" stroke-linecap="round"></line>
                        </g>
                        <g id="Group-10" transform="translate(44.928000, 20.592000)">
                            <path d="M7.58595631,0.640100321 L13.437865,3.94975032 C13.5957365,4.03903737 13.6933423,4.20637477 13.6933423,4.38774624 L13.6933423,10.9892138 C13.6933423,11.1705852 13.5957365,11.3379226 13.437865,11.4272097 L7.58595631,14.7368597 C7.4322519,14.8237899 7.2442281,14.8237899 7.09052369,14.7368597 L1.23861503,11.4272097 C1.08074346,11.3379226 0.983137741,11.1705852 0.983137741,10.9892138 L0.983137741,4.38774624 C0.983137741,4.20637477 1.08074346,4.03903737 1.23861503,3.94975032 L7.09052369,0.640100321 C7.2442281,0.553170086 7.4322519,0.553170086 7.58595631,0.640100321 Z" id="Polygon" fill="#FFFFFF"></path>
                            <line x1="7.33824" y1="14.57744" x2="7.33824" y2="7.68848" id="Line-6" stroke-linecap="round"></line>
                            <line x1="0.89856" y1="4.39376" x2="7.18848" y2="7.68848" id="Line-4" stroke-linecap="round"></line>
                            <line x1="13.4784" y1="4.39376" x2="7.18848" y2="7.68848" id="Line-5" stroke-linecap="round"></line>
                        </g>
                        <g id="Group-10" transform="translate(22.089600, 0.000000)">
                            <path d="M7.58595631,0.640100321 L13.437865,3.94975032 C13.5957365,4.03903737 13.6933423,4.20637477 13.6933423,4.38774624 L13.6933423,10.9892138 C13.6933423,11.1705852 13.5957365,11.3379226 13.437865,11.4272097 L7.58595631,14.7368597 C7.4322519,14.8237899 7.2442281,14.8237899 7.09052369,14.7368597 L1.23861503,11.4272097 C1.08074346,11.3379226 0.983137741,11.1705852 0.983137741,10.9892138 L0.983137741,4.38774624 C0.983137741,4.20637477 1.08074346,4.03903737 1.23861503,3.94975032 L7.09052369,0.640100321 C7.2442281,0.553170086 7.4322519,0.553170086 7.58595631,0.640100321 Z" id="Polygon" fill="#FFFFFF"></path>
                            <line x1="7.33824" y1="14.57744" x2="7.33824" y2="7.68848" id="Line-6" stroke-linecap="round"></line>
                            <line x1="0.89856" y1="4.39376" x2="7.18848" y2="7.68848" id="Line-4" stroke-linecap="round"></line>
                            <line x1="13.4784" y1="4.39376" x2="7.18848" y2="7.68848" id="Line-5" stroke-linecap="round"></line>
                        </g>
                        <g id="Group-10" transform="translate(22.089600, 41.932800)">
                            <path d="M7.58595631,0.640100321 L13.437865,3.94975032 C13.5957365,4.03903737 13.6933423,4.20637477 13.6933423,4.38774624 L13.6933423,10.9892138 C13.6933423,11.1705852 13.5957365,11.3379226 13.437865,11.4272097 L7.58595631,14.7368597 C7.4322519,14.8237899 7.2442281,14.8237899 7.09052369,14.7368597 L1.23861503,11.4272097 C1.08074346,11.3379226 0.983137741,11.1705852 0.983137741,10.9892138 L0.983137741,4.38774624 C0.983137741,4.20637477 1.08074346,4.03903737 1.23861503,3.94975032 L7.09052369,0.640100321 C7.2442281,0.553170086 7.4322519,0.553170086 7.58595631,0.640100321 Z" id="Polygon" fill="#FFFFFF"></path>
                            <line x1="7.33824" y1="14.57744" x2="7.33824" y2="7.68848" id="Line-6" stroke-linecap="round"></line>
                            <line x1="0.89856" y1="4.39376" x2="7.18848" y2="7.68848" id="Line-4" stroke-linecap="round"></line>
                            <line x1="13.4784" y1="4.39376" x2="7.18848" y2="7.68848" id="Line-5" stroke-linecap="round"></line>
                        </g>
                        <line x1="45.6768" y1="28.9544" x2="35.9424" y2="28.9544" id="Line-7" stroke-linecap="square"></line>
                        <line x1="23.04" y1="28.94" x2="14.4" y2="28.94" id="Line-7" stroke-linecap="square"></line>
                        <line x1="29.5776" y1="41.684" x2="29.5776" y2="35.6936" id="Line-7" stroke-linecap="square"></line>
                        <line x1="29.5776" y1="20.7176" x2="29.5776" y2="14.7272" id="Line-7" stroke-linecap="square"></line>
                    </g>
                </g>
            </g>
        </g>
    </g>
</svg>