<?xml version="1.0" encoding="UTF-8"?>
<svg width="164px" height="182px" viewBox="0 0 164 182" version="1.1" xmlns="http://www.w3.org/2000/svg" xmlns:xlink="http://www.w3.org/1999/xlink">
    <title>编组</title>
    <defs>
        <polygon id="path-1" points="76.68 0.5 135.604368 34.52 135.604368 102.56 76.68 136.58 17.7556315 102.56 17.7556315 34.52"></polygon>
        <filter x="-30.4%" y="-19.5%" width="144.7%" height="158.1%" filterUnits="objectBoundingBox" id="filter-2">
            <feOffset dx="-11" dy="13" in="SourceAlpha" result="shadowOffsetOuter1"></feOffset>
            <feGaussianBlur stdDeviation="11" in="shadowOffsetOuter1" result="shadowBlurOuter1"></feGaussianBlur>
            <feColorMatrix values="0 0 0 0 0.316369017   0 0 0 0 0.366987588   0 0 0 0 0.353495709  0 0 0 0.257409583 0" type="matrix" in="shadowBlurOuter1" result="shadowMatrixOuter1"></feColorMatrix>
            <feOffset dx="-5" dy="5" in="SourceAlpha" result="shadowOffsetOuter2"></feOffset>
            <feGaussianBlur stdDeviation="4.5" in="shadowOffsetOuter2" result="shadowBlurOuter2"></feGaussianBlur>
            <feColorMatrix values="0 0 0 0 0   0 0 0 0 0   0 0 0 0 0  0 0 0 0.144614907 0" type="matrix" in="shadowBlurOuter2" result="shadowMatrixOuter2"></feColorMatrix>
            <feMerge>
                <feMergeNode in="shadowMatrixOuter1"></feMergeNode>
                <feMergeNode in="shadowMatrixOuter2"></feMergeNode>
            </feMerge>
        </filter>
    </defs>
    <g id="Page-1" stroke="none" stroke-width="1" fill="none" fill-rule="evenodd">
        <g id="Migration-S1" transform="translate(-47.000000, -49.000000)">
            <g id="编组" transform="translate(63.500000, 58.500000)">
                <g id="Native-Oracles-HEX-ICON" transform="translate(19.375000, 21.000000)" stroke="#000033">
                    <polygon id="Polygon" stroke-width="2.88" points="51.5 0.5 96.1003083 26.25 96.1003083 77.75 51.5 103.5 6.89969171 77.75 6.89969171 26.25"></polygon>
                    <g id="Group-14" transform="translate(19.928571, 44.000000)" stroke-width="1.4">
                        <g id="Group-10" transform="translate(23.600000, 0.000000)">
                            <path d="M8.10465418,0.64967983 L14.3566933,4.18563068 C14.5253596,4.28102283 14.6296392,4.4598021 14.6296392,4.65357505 L14.6296392,11.706425 C14.6296392,11.9001979 14.5253596,12.0789772 14.3566933,12.1743693 L8.10465418,15.7103202 C7.94044007,15.8031944 7.73955993,15.8031944 7.57534582,15.7103202 L1.32330666,12.1743693 C1.15464044,12.0789772 1.05036083,11.9001979 1.05036083,11.706425 L1.05036083,4.65357505 C1.05036083,4.4598021 1.15464044,4.28102283 1.32330666,4.18563068 L7.57534582,0.64967983 C7.73955993,0.556805648 7.94044007,0.556805648 8.10465418,0.64967983 Z" id="Polygon"></path>
                            <line x1="7.84" y1="15.54" x2="7.84" y2="8.18" id="Line-6" stroke-linecap="round"></line>
                            <line x1="0.96" y1="4.66" x2="7.68" y2="8.18" id="Line-4" stroke-linecap="round"></line>
                            <line x1="14.4" y1="4.66" x2="7.68" y2="8.18" id="Line-5" stroke-linecap="round"></line>
                        </g>
                        <g id="Group-10">
                            <path d="M8.10465418,0.64967983 L14.3566933,4.18563068 C14.5253596,4.28102283 14.6296392,4.4598021 14.6296392,4.65357505 L14.6296392,11.706425 C14.6296392,11.9001979 14.5253596,12.0789772 14.3566933,12.1743693 L8.10465418,15.7103202 C7.94044007,15.8031944 7.73955993,15.8031944 7.57534582,15.7103202 L1.32330666,12.1743693 C1.15464044,12.0789772 1.05036083,11.9001979 1.05036083,11.706425 L1.05036083,4.65357505 C1.05036083,4.4598021 1.15464044,4.28102283 1.32330666,4.18563068 L7.57534582,0.64967983 C7.73955993,0.556805648 7.94044007,0.556805648 8.10465418,0.64967983 Z" id="Polygon"></path>
                            <line x1="7.84" y1="15.54" x2="7.84" y2="8.18" id="Line-6" stroke-linecap="round"></line>
                            <line x1="0.96" y1="4.66" x2="7.68" y2="8.18" id="Line-4" stroke-linecap="round"></line>
                            <line x1="14.4" y1="4.66" x2="7.68" y2="8.18" id="Line-5" stroke-linecap="round"></line>
                        </g>
                        <g id="Group-10" transform="translate(48.000000, 0.000000)">
                            <path d="M8.10465418,0.64967983 L14.3566933,4.18563068 C14.5253596,4.28102283 14.6296392,4.4598021 14.6296392,4.65357505 L14.6296392,11.706425 C14.6296392,11.9001979 14.5253596,12.0789772 14.3566933,12.1743693 L8.10465418,15.7103202 C7.94044007,15.8031944 7.73955993,15.8031944 7.57534582,15.7103202 L1.32330666,12.1743693 C1.15464044,12.0789772 1.05036083,11.9001979 1.05036083,11.706425 L1.05036083,4.65357505 C1.05036083,4.4598021 1.15464044,4.28102283 1.32330666,4.18563068 L7.57534582,0.64967983 C7.73955993,0.556805648 7.94044007,0.556805648 8.10465418,0.64967983 Z" id="Polygon"></path>
                            <line x1="7.84" y1="15.54" x2="7.84" y2="8.18" id="Line-6" stroke-linecap="round"></line>
                            <line x1="0.96" y1="4.66" x2="7.68" y2="8.18" id="Line-4" stroke-linecap="round"></line>
                            <line x1="14.4" y1="4.66" x2="7.68" y2="8.18" id="Line-5" stroke-linecap="round"></line>
                        </g>
                        <line x1="48.8" y1="8.9" x2="38.4" y2="8.9" id="Line-7" stroke-linecap="square"></line>
                        <line x1="24.3" y1="8.9" x2="15.9" y2="8.9" id="Line-7" stroke-linecap="square"></line>
                    </g>
                </g>
                <g id="Group-9" transform="translate(63.500000, 43.500000)" stroke="#000033">
                    <line x1="7.64326" y1="20.94692" x2="7.64326" y2="15.43076" id="Line-7" stroke-width="1.20666" stroke-linecap="square"></line>
                    <path d="M7.96900615,0.637940441 L13.7306979,3.89656667 C13.8861356,3.98447721 13.9822366,4.14923482 13.9822366,4.32781015 L13.9822366,10.827505 C13.9822366,11.0060804 13.8861356,11.170838 13.7306979,11.2587485 L7.96900615,14.5173748 C7.81767135,14.6029648 7.63254625,14.6029648 7.48121145,14.5173748 L1.71951972,11.2587485 C1.56408199,11.170838 1.46798103,11.0060804 1.46798103,10.827505 L1.46798103,4.32781015 C1.46798103,4.14923482 1.56408199,3.98447721 1.71951972,3.89656667 L7.48121145,0.637940441 C7.63254625,0.552350381 7.81767135,0.552350381 7.96900615,0.637940441 Z" id="Polygon" stroke-width="1.290198"></path>
                    <line x1="8.2251088" y1="14.3604128" x2="8.2251088" y2="7.5776576" id="Line-6" stroke-width="1.290198" stroke-linecap="round"></line>
                    <line x1="1.8847072" y1="4.3337312" x2="8.0776576" y2="7.5776576" id="Line-4" stroke-width="1.290198" stroke-linecap="round"></line>
                    <line x1="13.270608" y1="4.8337312" x2="7.9634894" y2="7.61365047" id="Line-5" stroke-width="1.290198" stroke-linecap="round"></line>
                </g>
                <g id="icon">
                    <polygon id="Polygon-Copy-5" stroke="#00E599" stroke-width="1.296" fill="#FFFFFF" points="68.04 15.98 126.964368 50 126.964368 118.04 68.04 152.06 9.11563153 118.04 9.11563153 50"></polygon>
                    <g id="Polygon-Copy-13">
                        <use fill="black" fill-opacity="1" filter="url(#filter-2)" xlink:href="#path-1"></use>
                        <use fill="#F0F5F6" fill-rule="evenodd" xlink:href="#path-1"></use>
                    </g>
                    <line x1="76.6944" y1="61.5848" x2="76.6944" y2="55.5944" id="Line-7" stroke="#000033" stroke-width="1.3104" stroke-linecap="square"></line>
                    <g id="Group-14" transform="translate(46.080000, 38.880000)" stroke="#000033" stroke-width="1.40112">
                        <g id="Group-10" transform="translate(23.618880, 23.040000)">
                            <path d="M8.1111379,0.649799574 L14.3681787,4.18857919 C14.5369798,4.28404765 14.6413429,4.46296994 14.6413429,4.65689791 L14.6413429,11.7153901 C14.6413429,11.9093181 14.5369798,12.0882404 14.3681787,12.1837088 L8.1111379,15.7224884 C7.94679242,15.8154369 7.74575158,15.8154369 7.5814061,15.7224884 L1.3243653,12.1837088 C1.15556416,12.0882404 1.05120112,11.9093181 1.05120112,11.7153901 L1.05120112,4.65689791 C1.05120112,4.46296994 1.15556416,4.28404765 1.3243653,4.18857919 L7.5814061,0.649799574 C7.74575158,0.556851092 7.94679242,0.556851092 8.1111379,0.649799574 Z" id="Polygon" fill="#FFFFFF"></path>
                            <line x1="7.846272" y1="15.552032" x2="7.846272" y2="8.186144" id="Line-6" stroke-linecap="round"></line>
                            <line x1="0.960768" y1="4.663328" x2="7.686144" y2="8.186144" id="Line-4" stroke-linecap="round"></line>
                            <line x1="14.41152" y1="4.663328" x2="7.686144" y2="8.186144" id="Line-5" stroke-linecap="round"></line>
                        </g>
                        <g id="Group-10">
                            <path d="M8.1111379,23.6897996 L14.3681787,27.2285792 C14.5369798,27.3240476 14.6413429,27.5029699 14.6413429,27.6968979 L14.6413429,34.7553901 C14.6413429,34.9493181 14.5369798,35.1282404 14.3681787,35.2237088 L8.1111379,38.7624884 C7.94679242,38.8554369 7.74575158,38.8554369 7.5814061,38.7624884 L1.3243653,35.2237088 C1.15556416,35.1282404 1.05120112,34.9493181 1.05120112,34.7553901 L1.05120112,27.6968979 C1.05120112,27.5029699 1.15556416,27.3240476 1.3243653,27.2285792 L7.5814061,23.6897996 C7.74575158,23.5968511 7.94679242,23.5968511 8.1111379,23.6897996 Z" id="Polygon" fill="#FFFFFF"></path>
                            <line x1="7.846272" y1="38.592032" x2="7.846272" y2="31.226144" id="Line-6" stroke-linecap="round"></line>
                            <line x1="0.960768" y1="27.703328" x2="7.686144" y2="31.226144" id="Line-4" stroke-linecap="round"></line>
                            <line x1="14.41152" y1="27.703328" x2="7.686144" y2="31.226144" id="Line-5" stroke-linecap="round"></line>
                            <path d="M31.5111379,0.649799574 L37.7681787,4.18857919 C37.9369798,4.28404765 38.0413429,4.46296994 38.0413429,4.65689791 L38.0413429,11.7153901 C38.0413429,11.9093181 37.9369798,12.0882404 37.7681787,12.1837088 L31.5111379,15.7224884 C31.3467924,15.8154369 31.1457516,15.8154369 30.9814061,15.7224884 L24.7243653,12.1837088 C24.5555642,12.0882404 24.4512011,11.9093181 24.4512011,11.7153901 L24.4512011,4.65689791 C24.4512011,4.46296994 24.5555642,4.28404765 24.7243653,4.18857919 L30.9814061,0.649799574 C31.1457516,0.556851092 31.3467924,0.556851092 31.5111379,0.649799574 Z" id="Polygon" fill="#00E599"></path>
                            <line x1="31.246272" y1="15.552032" x2="31.246272" y2="8.186144" id="Line-6" stroke-linecap="round"></line>
                            <line x1="24.360768" y1="4.663328" x2="31.086144" y2="8.186144" id="Line-4" stroke-linecap="round"></line>
                            <line x1="37.81152" y1="4.663328" x2="31.086144" y2="8.186144" id="Line-5" stroke-linecap="round"></line>
                        </g>
                        <g id="Group-10" transform="translate(48.038400, 23.040000)">
                            <path d="M8.1111379,0.649799574 L14.3681787,4.18857919 C14.5369798,4.28404765 14.6413429,4.46296994 14.6413429,4.65689791 L14.6413429,11.7153901 C14.6413429,11.9093181 14.5369798,12.0882404 14.3681787,12.1837088 L8.1111379,15.7224884 C7.94679242,15.8154369 7.74575158,15.8154369 7.5814061,15.7224884 L1.3243653,12.1837088 C1.15556416,12.0882404 1.05120112,11.9093181 1.05120112,11.7153901 L1.05120112,4.65689791 C1.05120112,4.46296994 1.15556416,4.28404765 1.3243653,4.18857919 L7.5814061,0.649799574 C7.74575158,0.556851092 7.94679242,0.556851092 8.1111379,0.649799574 Z" id="Polygon" fill="#FFFFFF"></path>
                            <line x1="7.846272" y1="15.552032" x2="7.846272" y2="8.186144" id="Line-6" stroke-linecap="round"></line>
                            <line x1="0.960768" y1="4.663328" x2="7.686144" y2="8.186144" id="Line-4" stroke-linecap="round"></line>
                            <line x1="14.41152" y1="4.663328" x2="7.686144" y2="8.186144" id="Line-5" stroke-linecap="round"></line>
                        </g>
                        <line x1="48.83904" y1="31.94672" x2="38.43072" y2="31.94672" id="Line-7" stroke-linecap="square"></line>
                        <line x1="23.73984" y1="31.94672" x2="15.12" y2="31.82" id="Line-7" stroke-linecap="square"></line>
                    </g>
                </g>
            </g>
        </g>
    </g>
</svg>