<?xml version="1.0" encoding="UTF-8"?>
<svg width="163px" height="182px" viewBox="0 0 163 182" version="1.1" xmlns="http://www.w3.org/2000/svg" xmlns:xlink="http://www.w3.org/1999/xlink">
    <title>编组 11</title>
    <defs>
        <polygon id="path-1" points="76.04 0.5 134.964368 34.52 134.964368 102.56 76.04 136.58 17.1156315 102.56 17.1156315 34.52"></polygon>
        <filter x="-30.4%" y="-19.5%" width="144.7%" height="158.1%" filterUnits="objectBoundingBox" id="filter-2">
            <feOffset dx="-11" dy="13" in="SourceAlpha" result="shadowOffsetOuter1"></feOffset>
            <feGaussianBlur stdDeviation="11" in="shadowOffsetOuter1" result="shadowBlurOuter1"></feGaussianBlur>
            <feColorMatrix values="0 0 0 0 0.316369017   0 0 0 0 0.366987588   0 0 0 0 0.353495709  0 0 0 0.257409583 0" type="matrix" in="shadowBlurOuter1" result="shadowMatrixOuter1"></feColorMatrix>
            <feOffset dx="-5" dy="5" in="SourceAlpha" result="shadowOffsetOuter2"></feOffset>
            <feGaussianBlur stdDeviation="4.5" in="shadowOffsetOuter2" result="shadowBlurOuter2"></feGaussianBlur>
            <feColorMatrix values="0 0 0 0 0   0 0 0 0 0   0 0 0 0 0  0 0 0 0.144614907 0" type="matrix" in="shadowBlurOuter2" result="shadowMatrixOuter2"></feColorMatrix>
            <feMerge>
                <feMergeNode in="shadowMatrixOuter1"></feMergeNode>
                <feMergeNode in="shadowMatrixOuter2"></feMergeNode>
            </feMerge>
        </filter>
    </defs>
    <g id="Page-1" stroke="none" stroke-width="1" fill="none" fill-rule="evenodd">
        <g id="Migration-S1" transform="translate(-47.000000, -294.000000)">
            <g id="编组-11" transform="translate(63.500000, 303.500000)">
                <g id="Self-Soverign-ID-HEX-ICON" transform="translate(20.312500, 16.000000)">
                    <polygon id="Polygon" stroke="#000033" stroke-width="2.88" points="51.5 0.5 96.1003083 26.25 96.1003083 77.75 51.5 103.5 6.89969171 77.75 6.89969171 26.25"></polygon>
                    <text id="fingerprint---material" font-family="material" font-size="56" font-weight="normal" fill="#000033">
                        <tspan x="23.3571429" y="71.5"></tspan>
                    </text>
                </g>
                <g id="icon">
                    <polygon id="Polygon-Copy-9" stroke="#00E599" stroke-width="1.44" points="68.48 14.54 127.404368 48.56 127.404368 116.6 68.48 150.62 9.55563153 116.6 9.55563153 48.56"></polygon>
                    <g id="Polygon-Copy-10">
                        <use fill="black" fill-opacity="1" filter="url(#filter-2)" xlink:href="#path-1"></use>
                        <use fill="#F0F5F6" fill-rule="evenodd" xlink:href="#path-1"></use>
                    </g>
                    <polygon id="Polygon-Copy-10" stroke="#000033" stroke-width="1.08" fill="#FFFFFF" points="76.04 35.78 104.722761 52.16 104.722761 84.92 76.04 101.3 47.3572386 84.92 47.3572386 52.16"></polygon>
                    <path d="M66.06368,56.40728 C66.29264,56.58536 66.54704,56.59808 66.82688,56.44544 C69.4472,54.94448 72.39824,54.194 75.68,54.194 C77.23184,54.194 78.71372,54.37208 80.12564,54.72824 C81.53756,55.0844 83.00672,55.6568 84.53312,56.44544 C84.584,56.47088 84.7112,56.4836 84.91472,56.4836 C85.16912,56.4836 85.36628,56.3882 85.5062,56.1974 C85.64612,56.0066 85.70336,55.79036 85.67792,55.54868 C85.65248,55.307 85.52528,55.12256 85.29632,54.99536 C83.66816,54.18128 82.07816,53.58344 80.52632,53.20184 C78.97448,52.82024 77.35904,52.62944 75.68,52.62944 C72.1184,52.62944 68.91296,53.41808 66.06368,54.99536 C65.78384,55.17344 65.65664,55.40876 65.68208,55.70132 C65.70752,55.99388 65.83472,56.2292 66.06368,56.40728 Z" id="Path" fill="#000033" fill-rule="nonzero"></path>
                    <path d="M62.20952,64.84064 C62.46392,64.84064 62.65472,64.73888 62.78192,64.53536 C64.15568,62.60192 65.97464,61.04372 68.2388,59.86076 C70.50296,58.6778 72.977,58.09268 75.66092,58.1054 C78.34484,58.11812 80.8316,58.69688 83.1212,59.84168 C85.35992,61.01192 87.15344,62.55104 88.50176,64.45904 C88.60352,64.63712 88.76252,64.7516 88.97876,64.80248 C89.195,64.85336 89.39852,64.82156 89.58932,64.70708 C89.78012,64.5926 89.90096,64.42724 89.95184,64.211 C90.00272,63.99476 89.96456,63.78488 89.83736,63.58136 C88.3364,61.41896 86.34572,59.6954 83.86532,58.41068 C81.38492,57.12596 78.65648,56.4836 75.68,56.4836 C72.70352,56.4836 69.96872,57.13232 67.4756,58.42976 C65.0588,59.67632 63.07448,61.41896 61.52264,63.65768 C61.34456,63.96296 61.32548,64.23644 61.4654,64.47812 C61.60532,64.7198 61.85336,64.84064 62.20952,64.84064 Z" id="Path" fill="#000033" fill-rule="nonzero"></path>
                    <path d="M80.29736,84.37856 C80.45,84.37856 80.609,84.32132 80.77436,84.20684 C80.93972,84.09236 81.04148,83.93336 81.07964,83.72984 C81.1178,83.52632 81.09236,83.32916 81.00332,83.13836 C80.91428,82.94756 80.75528,82.83944 80.52632,82.814 C79.38152,82.50872 78.40844,82.13348 77.60708,81.68828 C76.80572,81.24308 76.03616,80.6516 75.2984,79.91384 C74.33168,78.94712 73.59392,77.84684 73.08512,76.613 C72.57632,75.37916 72.32192,74.08808 72.32192,72.73976 C72.32192,71.8748 72.63992,71.13704 73.27592,70.52648 C73.91192,69.91592 74.6942,69.61064 75.62276,69.61064 C76.55132,69.61064 77.33996,69.91592 77.98868,70.52648 C78.6374,71.13704 78.96176,71.8748 78.96176,72.73976 C78.96176,73.60472 79.178,74.387 79.61048,75.0866 C80.04296,75.7862 80.62808,76.33952 81.36584,76.74656 C82.1036,77.1536 82.91768,77.35712 83.80808,77.35712 C84.69848,77.35712 85.51892,77.1536 86.2694,76.74656 C87.01988,76.33952 87.61772,75.7862 88.06292,75.0866 C88.50812,74.387 88.73072,73.60472 88.73072,72.73976 C88.73072,70.50104 88.13288,68.40224 86.9372,66.44336 C85.76696,64.5608 84.2024,63.05984 82.24352,61.94048 C80.18288,60.79568 77.9696,60.22328 75.60368,60.22328 C73.03424,60.22328 70.66196,60.89744 68.48684,62.24576 C66.31172,63.59408 64.71536,65.3876 63.69776,67.62632 C62.93456,69.10184 62.55296,70.81904 62.55296,72.77792 C62.55296,74.7368 62.96,76.81016 63.77408,78.998 C63.87584,79.27784 64.073,79.43684 64.36556,79.475 C64.65812,79.51316 64.90616,79.43684 65.10968,79.24604 C65.3132,79.05524 65.36408,78.8072 65.26232,78.50192 C64.82984,77.38256 64.52456,76.2632 64.34648,75.14384 C64.24472,74.40608 64.19384,73.60472 64.19384,72.73976 C64.19384,71.00984 64.49912,69.5216 65.10968,68.27504 C66.05096,66.3416 67.46924,64.78976 69.36452,63.61952 C71.2598,62.44928 73.33952,61.86416 75.60368,61.86416 C77.68976,61.86416 79.6232,62.36024 81.404,63.3524 C83.15936,64.31912 84.54584,65.62928 85.56344,67.28288 C86.63192,68.96192 87.16616,70.78088 87.16616,72.73976 C87.16616,73.60472 86.8418,74.32976 86.19308,74.91488 C85.54436,75.5 84.74936,75.79256 83.80808,75.79256 C82.8668,75.79256 82.08452,75.5 81.46124,74.91488 C80.83796,74.32976 80.52632,73.61108 80.52632,72.75884 C80.52632,71.9066 80.30372,71.11796 79.85852,70.39292 C79.41332,69.66788 78.80912,69.09548 78.04592,68.67572 C77.28272,68.25596 76.46864,68.04608 75.60368,68.04608 C74.73872,68.04608 73.931,68.25596 73.18052,68.67572 C72.43004,69.09548 71.83856,69.66788 71.40608,70.39292 C70.9736,71.11796 70.75736,71.90024 70.75736,72.73976 C70.75736,74.31704 71.04992,75.81164 71.63504,77.22356 C72.22016,78.63548 73.0724,79.90112 74.19176,81.02048 C75.05672,81.88544 75.94076,82.57868 76.84388,83.1002 C77.747,83.62172 78.82184,84.04784 80.0684,84.37856 L80.0684,84.37856 L80.29736,84.37856 Z" id="Path" fill="#000033" fill-rule="nonzero"></path>
                    <path d="M72.09296,84.07328 C72.34736,84.07328 72.55088,84.00332 72.70352,83.8634 C72.85616,83.72348 72.93248,83.53904 72.93248,83.31008 C72.93248,83.08112 72.85616,82.89032 72.70352,82.73768 C71.94032,81.9236 71.43152,81.3512 71.17712,81.02048 C70.66832,80.40992 70.18496,79.68488 69.72704,78.84536 C68.78576,77.24264 68.31512,75.20744 68.31512,72.73976 C68.31512,71.46776 68.64584,70.29752 69.30728,69.22904 C69.96872,68.16056 70.85912,67.31468 71.97848,66.6914 C73.09784,66.06812 74.33168,65.75648 75.68,65.75648 C77.02832,65.75648 78.26216,66.06812 79.38152,66.6914 C80.50088,67.31468 81.39128,68.16056 82.05272,69.22904 C82.71416,70.29752 83.04488,71.46776 83.04488,72.73976 C83.04488,72.96872 83.12756,73.15316 83.29292,73.29308 C83.45828,73.433 83.65544,73.50296 83.8844,73.50296 C84.11336,73.50296 84.30416,73.433 84.4568,73.29308 C84.60944,73.15316 84.68576,72.96872 84.68576,72.73976 C84.68576,71.18792 84.28508,69.75692 83.48372,68.44676 C82.68236,67.1366 81.58844,66.09992 80.20196,65.33672 C78.81548,64.57352 77.30816,64.19192 75.68,64.19192 C74.05184,64.19192 72.54452,64.57352 71.15804,65.33672 C69.77156,66.09992 68.67764,67.1366 67.87628,68.44676 C67.07492,69.75692 66.67424,71.18792 66.67424,72.73976 C66.67424,75.36008 67.24664,77.64968 68.39144,79.60856 C68.8748,80.5244 69.35816,81.30032 69.84152,81.93632 C70.24856,82.44512 70.83368,83.08112 71.59688,83.84432 C71.74952,83.99696 71.91488,84.07328 72.09296,84.07328 Z" id="Path" fill="#000033" fill-rule="nonzero"></path>
                    <path d="M83.5028,81.0968 C84.18968,81.0968 84.8384,81.04592 85.44896,80.94416 C85.67792,80.91872 85.856,80.80424 85.9832,80.60072 C86.1104,80.3972 86.14856,80.19368 86.09768,79.99016 C86.0468,79.68488 85.856,79.49408 85.52528,79.41776 C85.29632,79.36688 84.95288,79.36688 84.49496,79.41776 L84.49496,79.41776 L83.5028,79.53224 C82.15448,79.53224 80.92064,79.21424 79.80128,78.57824 C78.7328,77.99312 77.89328,77.17904 77.28272,76.136 C76.67216,75.09296 76.36688,73.96088 76.36688,72.73976 C76.36688,72.5108 76.29692,72.32 76.157,72.16736 C76.01708,72.01472 75.83264,71.9384 75.60368,71.9384 C75.37472,71.9384 75.18392,72.02108 75.03128,72.18644 C74.87864,72.3518 74.80232,72.53624 74.80232,72.73976 C74.80232,74.11352 75.13304,75.41096 75.79448,76.63208 C76.45592,77.8532 77.38448,78.8708 78.58016,79.68488 C79.90304,80.62616 81.54392,81.0968 83.5028,81.0968 Z" id="Path" fill="#00E599" fill-rule="nonzero"></path>
                </g>
            </g>
        </g>
    </g>
</svg>