<svg width="50" height="50" viewBox="0 0 50 50" fill="none" xmlns="http://www.w3.org/2000/svg">
<circle cx="25" cy="25" r="25" fill="#00E599"/>
<path fill-rule="evenodd" clip-rule="evenodd" d="M35.4286 35.5714C36.4052 35.5714 37.2143 34.7623 37.2143 33.7857V15.9286C37.2143 14.952 36.4052 14.1428 35.4286 14.1428H33.6429V12.8036C33.6429 11.5759 32.6384 10.5714 31.4107 10.5714H30.5179C29.2902 10.5714 28.2857 11.5759 28.2857 12.8036V14.1428H22.9286V12.8036C22.9286 11.5759 21.9241 10.5714 20.6964 10.5714H19.8036C18.5759 10.5714 17.5714 11.5759 17.5714 12.8036V14.1428H15.7857C14.8092 14.1428 14 14.952 14 15.9286V33.7857C14 34.7623 14.8092 35.5714 15.7857 35.5714H35.4286ZM20.6964 17.2678H19.8036C19.5664 17.2678 19.3571 17.0586 19.3571 16.8214V12.8036C19.3571 12.5664 19.5664 12.3571 19.8036 12.3571H20.6964C20.9336 12.3571 21.1429 12.5664 21.1429 12.8036V16.8214C21.1429 17.0586 20.9336 17.2678 20.6964 17.2678ZM30.5179 17.2678H31.4107C31.6479 17.2678 31.8572 17.0586 31.8572 16.8214V12.8036C31.8572 12.5664 31.6479 12.3571 31.4107 12.3571H30.5179C30.2807 12.3571 30.0714 12.5664 30.0714 12.8036V16.8214C30.0714 17.0586 30.2807 17.2678 30.5179 17.2678ZM19.8036 23.5179H15.7857V19.5H19.8036V23.5179ZM20.6964 19.5V23.5179H25.1607V19.5H20.6964ZM30.5179 23.5179H26.0536V19.5H30.5179V23.5179ZM31.4107 23.5179H35.4286V19.5H31.4107V23.5179ZM19.8036 28.875H15.7857V24.4107H19.8036V28.875ZM20.6964 24.4107V28.875H25.1607V24.4107H20.6964ZM30.5179 28.875H26.0536V24.4107H30.5179V28.875ZM31.4107 28.875H35.4286V24.4107H31.4107V28.875ZM19.8036 33.7857H15.7857V29.7679H19.8036V33.7857ZM20.6964 29.7679V33.7857H25.1607V29.7679H20.6964ZM30.5179 33.7857H26.0536V29.7679H30.5179V33.7857ZM31.4107 33.7857H35.4286V29.7679H31.4107V33.7857Z" fill="#000033"/>
</svg>
