<?xml version="1.0" encoding="UTF-8"?>
<svg width="342px" height="343px" viewBox="0 0 342 343" version="1.1" xmlns="http://www.w3.org/2000/svg" xmlns:xlink="http://www.w3.org/1999/xlink">
    <title>Group 2</title>
    <defs>
        <path d="M76.655333,233.57588 L76.655333,173.995673 L75.8220434,146.913761 L76.2386882,146.913761 L84.988229,165.454455 L122.486261,233.57588 L169.150479,233.57588 L169.150479,96.0830957 L131.860769,96.0830957 L131.860769,155.663302 L132.694059,182.745214 L132.485736,182.745214 L123.527873,164.20452 L86.029841,96.0830957 L39.5739458,96.0830957 L39.5739458,233.57588 L76.655333,233.57588 Z M245.396477,235.659104 C255.395952,235.659104 264.423256,233.992524 272.478389,230.659366 C280.533522,227.326208 286.922075,222.500072 291.64405,216.180959 C296.366024,209.861846 298.727011,202.39696 298.727011,193.786301 C298.727011,187.536629 297.581238,182.502171 295.289692,178.682927 C292.998145,174.863683 290.220513,171.98189 286.956796,170.037548 C283.693078,168.093205 280.498801,166.77383 277.373965,166.079422 C274.249129,165.385014 271.853422,165.03781 270.186843,165.03781 L270.186843,165.03781 L270.186843,164.20452 C271.71454,164.20452 273.867205,163.683714 276.644837,162.642102 C279.422469,161.60049 282.338983,159.899191 285.394378,157.538204 C288.449773,155.177216 290.984362,151.98294 292.998145,147.955373 C295.011929,143.927807 296.01882,138.789188 296.01882,132.539516 C296.01882,124.345501 294.039757,117.401421 290.081632,111.707276 C286.123506,106.01313 280.35992,101.63836 272.790873,98.5829645 C265.221825,95.5275693 255.951479,93.9998717 244.979832,93.9998717 C235.25812,93.9998717 226.404418,95.4581285 218.418726,98.3746421 C210.433034,101.291156 203.836158,105.527044 198.628098,111.082308 C193.420038,116.637572 190.260482,123.581652 189.149429,131.914548 L189.149429,131.914548 L226.022494,143.788925 C226.439139,136.983727 228.140438,132.296473 231.126393,129.727163 C234.112347,127.157854 237.757989,125.873199 242.063319,125.873199 C246.090885,125.873199 249.250441,127.018972 251.541988,129.310518 C253.833534,131.602065 254.979307,134.831062 254.979307,138.99751 C254.979307,143.997248 253.798814,147.608169 251.437827,149.830275 C249.076839,152.05238 245.327036,153.163433 240.188417,153.163433 C238.521838,153.163433 237.133022,153.128713 236.021969,153.059272 C234.910916,152.989831 233.799863,152.88567 232.688811,152.746788 L232.688811,152.746788 L232.688811,178.578766 C234.633153,178.301003 236.334453,178.09268 237.792709,177.953799 C239.250966,177.814917 240.952266,177.745476 242.896608,177.745476 C245.813122,177.745476 248.382431,178.127401 250.604537,178.89125 C252.826643,179.655098 254.597383,180.939753 255.916758,182.745214 C257.236133,184.550675 257.895821,187.050544 257.895821,190.24482 C257.895821,193.022452 257.270854,195.45288 256.020919,197.536104 C254.770985,199.619328 253.000245,201.181746 250.708698,202.223358 C248.417152,203.26497 245.743681,203.785776 242.688286,203.785776 C239.632891,203.785776 236.751097,203.26497 234.042906,202.223358 C231.334715,201.181746 229.216771,199.272124 227.689073,196.494492 C226.161375,193.71686 225.328086,189.897616 225.189204,185.03676 L225.189204,185.03676 L186.441238,201.077585 C190.329923,212.604758 197.239282,221.250138 207.169317,227.013724 C217.099351,232.77731 229.841738,235.659104 245.396477,235.659104 Z" id="path-1"></path>
    </defs>
    <g id="Page-1" stroke="none" stroke-width="1" fill="none" fill-rule="evenodd">
        <g id="Migration-S1" transform="translate(-897.000000, -114.000000)">
            <g id="编组-13" transform="translate(897.000000, 114.000000)">
                <g id="Group-2" transform="translate(3.000000, 3.500000)">
                    <g id="N3" fill-rule="nonzero">
                        <use fill="#00E599" xlink:href="#path-1"></use>
                        <use fill="#000033" xlink:href="#path-1"></use>
                    </g>
                    <rect id="Rectangle" stroke="#000033" stroke-width="5.3209728" x="0" y="0" width="336.285481" height="336.285481"></rect>
                </g>
            </g>
        </g>
    </g>
</svg>