<svg width="489" height="380" viewBox="0 0 489 380" fill="none" xmlns="http://www.w3.org/2000/svg">
<path fill-rule="evenodd" clip-rule="evenodd" d="M89 1L166.076 45.25V133.75L89 178L11.9237 133.75V45.25L89 1Z" fill="#000033" stroke="#00E599" stroke-width="1.35"/>
<path fill-rule="evenodd" clip-rule="evenodd" d="M400 1L477.076 45.25V133.75L400 178L322.924 133.75V45.25L400 1Z" fill="#000033" stroke="#00E599" stroke-width="1.35"/>
<path d="M50 68.825V121.689L84.6396 134V80.675L122 67.0475L88.0903 55L50 68.825Z" fill="#00E599"/>
<path d="M87.1134 82.5769V111.318L122 123.664V69.7664L87.1134 82.5769Z" fill="#00AF92"/>
<path d="M361 68.825V121.689L395.64 134V80.675L433 67.0475L399.09 55L361 68.825Z" fill="#00E599"/>
<path d="M398.113 82.5769V111.318L433 123.664V69.7664L398.113 82.5769Z" fill="#00AF92"/>
<path fill-rule="evenodd" clip-rule="evenodd" d="M89 201L166.076 245.5V334.5L89 379L11.9237 334.5V245.5L89 201Z" fill="#000033" stroke="#00E599" stroke-width="1.35"/>
<path fill-rule="evenodd" clip-rule="evenodd" d="M88.3542 333.475L50.0693 320.116V267.885L88.4545 254.199L122.898 266.184L123.087 321.254L88.3542 308.757V333.475ZM53.4943 317.569L84.6117 328.486V278.426L115.671 267.117L88.2777 257.525L53.492 269.997L53.4943 317.569ZM119.664 316.289L88.2896 305.043L88.2964 280.984L119.505 269.721L119.664 316.289Z" fill="#00E599"/>
<path fill-rule="evenodd" clip-rule="evenodd" d="M400 201L477.076 245.5V334.5L400 379L322.924 334.5V245.5L400 201Z" fill="#000033" stroke="#00E599" stroke-width="1.35"/>
<path fill-rule="evenodd" clip-rule="evenodd" d="M399.354 333.475L361.069 320.116V267.885L399.454 254.199L433.898 266.184L434.087 321.254L399.354 308.757V333.475ZM364.494 317.569L395.612 328.486V278.426L426.671 267.117L399.278 257.525L364.492 269.997L364.494 317.569ZM430.664 316.289L399.29 305.043L399.296 280.984L430.505 269.721L430.664 316.289Z" fill="#00E599"/>
<path fill-rule="evenodd" clip-rule="evenodd" d="M194.181 97.3871V83.8844L268.519 83.8848L234.659 49.8788L244.356 40.1812L294.811 90.6358L244.348 141.098L234.664 131.086L268.509 97.3878L194.181 97.3871ZM271.768 85.2344L195.531 85.2348V96.0378L271.778 96.0371L236.559 131.105L244.364 139.173L292.901 90.6358L244.356 42.0908L236.565 49.8818L271.768 85.2344Z" fill="#00E599"/>
<path fill-rule="evenodd" clip-rule="evenodd" d="M194.181 299.387V285.884L268.519 285.885L234.659 251.879L244.356 242.181L294.811 292.636L244.348 343.098L234.664 333.086L268.509 299.388L194.181 299.387ZM271.768 287.234L195.531 287.235V298.038L271.778 298.037L236.559 333.105L244.364 341.173L292.901 292.636L244.356 244.091L236.565 251.882L271.768 287.234Z" fill="#00E599"/>
</svg>
