<svg viewBox="0 0 376 610" xmlns="http://www.w3.org/2000/svg" xmlns:xlink="http://www.w3.org/1999/xlink"><linearGradient id="a" gradientUnits="userSpaceOnUse" x1="265.94" x2="78.4" y1="299.61" y2="521.17"><stop offset=".17" stop-color="#f9fbfb"/><stop offset="1" stop-color="#aeb4b6"/></linearGradient><linearGradient id="b" gradientUnits="userSpaceOnUse" x1="206.06" x2="-35.53" y1="263.86" y2="534.79"><stop offset=".42" stop-color="#f9fbfb"/><stop offset="1" stop-color="#aeb4b6"/></linearGradient><linearGradient id="c" x1="27.78" x2="-31.28" xlink:href="#a" y1="476.08" y2="545.86"/><linearGradient id="d" x1="6.76" x2="-64.13" xlink:href="#b" y1="470.97" y2="550.47"/><linearGradient id="e" x1="157.19" x2="98.13" xlink:href="#a" y1="521.91" y2="591.68"/><linearGradient id="f" x1="136.16" x2="65.28" xlink:href="#b" y1="516.8" y2="596.29"/><linearGradient id="g" x1="382.42" x2="323.36" xlink:href="#a" y1="483.12" y2="552.9"/><linearGradient id="h" x1="361.39" x2="290.51" xlink:href="#b" y1="478.01" y2="557.5"/><linearGradient id="i" gradientTransform="matrix(.96130979 -.27546958 .27546958 .96130979 -697.35 1784.56)" gradientUnits="userSpaceOnUse" x1="1393.95" x2="1496.37" y1="-1267.79" y2="-1389.47"><stop offset="0" stop-color="#1eb898"/><stop offset=".16" stop-color="#1ec79c"/><stop offset=".42" stop-color="#1ed9a2"/><stop offset=".69" stop-color="#1ee4a5"/><stop offset="1" stop-color="#1ee7a6"/></linearGradient><linearGradient id="j" x1="38.69" x2="-185.82" xlink:href="#i" y1="111.18" y2="148.6"/><path d="m201.34 506.69-192.25-112.15a11.15 11.15 0 0 1 -.19-19.15l127.59-77.86a20 20 0 0 1 20.45-.2l192.42 112.24a11.16 11.16 0 0 1 .19 19.16l-127.44 77.76a20.25 20.25 0 0 1 -20.77.2z" fill="url(#a)"/><path d="m206.05 509.25-197.05-114.96a17.46 17.46 0 0 1 -8.68-15.07v-137.22a8.72 8.72 0 0 1 13.12-7.54l197.07 115a17.46 17.46 0 0 1 8.66 15.07v137.18a8.73 8.73 0 0 1 -13.12 7.54z" fill="url(#b)"/><path d="m96.84 445.74-63.77-37.2v-42.9a2.54 2.54 0 0 1 3.82-2.2l57.43 33.5a5.08 5.08 0 0 1 2.52 4.39z" fill="#f9fbfb"/><path d="m125.24 355.17-20-11.32a6 6 0 0 1 -3-5.22v-52.21l27.47 15.58v50.58a3 3 0 0 1 -4.47 2.59z" fill="#eeeff0"/><path d="m119.52 321.32-8.38-4.86a2.4 2.4 0 0 1 -1.2-2.07v-10.32a1.2 1.2 0 0 1 1.8-1l8.39 4.86a2.39 2.39 0 0 1 1.19 2.07v10.32a1.2 1.2 0 0 1 -1.8 1z" fill="#fff"/><path d="m5.37 540.64-56.37-32.91a3.27 3.27 0 0 1 -.06-5.62l40.63-26a5.87 5.87 0 0 1 6-.06l56.43 32.95a3.27 3.27 0 0 1 0 5.62l-40.57 26a6 6 0 0 1 -6.06.02z" fill="url(#c)"/><path d="m6.75 543-57.82-33.73a5.13 5.13 0 0 1 -2.54-4.42v-40.29a2.56 2.56 0 0 1 3.85-2.21l57.82 33.73a5.11 5.11 0 0 1 2.54 4.43v40.25a2.56 2.56 0 0 1 -3.85 2.24z" fill="url(#d)"/><path d="m134.78 586.47-56.41-32.91a3.27 3.27 0 0 1 -.06-5.62l40.63-26a5.87 5.87 0 0 1 6-.06l56.46 32.94a3.27 3.27 0 0 1 0 5.62l-40.57 26a6 6 0 0 1 -6.05.03z" fill="url(#e)"/><path d="m136.16 588.8-57.82-33.73a5.11 5.11 0 0 1 -2.54-4.43v-40.25a2.56 2.56 0 0 1 3.85-2.21l57.82 33.73a5.13 5.13 0 0 1 2.54 4.42v40.26a2.56 2.56 0 0 1 -3.85 2.21z" fill="url(#f)"/><path d="m360 547.68-56.4-32.91a3.27 3.27 0 0 1 -.06-5.62l40.63-26a5.85 5.85 0 0 1 6-.06l56.45 32.91a3.27 3.27 0 0 1 .06 5.62l-40.58 26a5.94 5.94 0 0 1 -6.1.06z" fill="url(#g)"/><path d="m361.39 550-57.82-33.73a5.1 5.1 0 0 1 -2.54-4.42v-40.25a2.56 2.56 0 0 1 3.84-2.21l57.83 33.73a5.13 5.13 0 0 1 2.54 4.42v40.26a2.56 2.56 0 0 1 -3.85 2.2z" fill="url(#h)"/><circle cx="253.1" cy="344.52" fill="#02e49b" r="18.57"/><circle cx="259.09" cy="484.09" fill="#d1faed" r="18.57"/><circle cx="341.16" cy="75.52" fill="#9ff5d9" r="55.38"/><circle cx="341.16" cy="75.52" fill="url(#i)" r="49.63"/><path d="m315.6 66.42 9.09 31.7 22.69 1.49-9.15-31.96 19.9-14.57-22.27-1.45z" fill="#53edbb"/><path d="m340.16 68.08 4.97 17.34 22.7 1.48-9.27-32.32z" fill="#53edbb"/><circle cx="-9.15" cy="119.15" fill="#9ff5d9" r="54.86"/><circle cx="-9.15" cy="119.15" fill="url(#j)" r="49.17"/><path d="m-20.67 94.87-15.85 28.57 14.86 16.94 15.97-28.8 24.15 3.73-14.58-16.61z" fill="#53edbb"/><path d="m-4.63 113.24-8.67 15.63 14.86 16.93 16.15-29.13z" fill="#53edbb"/><circle cx="340.16" cy="261.98" fill="#9ff5d9" r="18.57"/><circle cx="75.8" cy="51.63" fill="#d1faed" r="18.57"/></svg>