<svg xmlns="http://www.w3.org/2000/svg" viewBox="0 0 122 136.74"><defs><style>.cls-1{fill:#fff;}.cls-2{fill:none;stroke:#fff;stroke-miterlimit:10;stroke-width:3px;}</style></defs><title>资源 8</title><g id="图层_2" data-name="图层 2"><g id="图层_2-2" data-name="图层 2"><path class="cls-1" d="M91.18,34.31c-1.42-.39-3.31.14-5.38,1.53l-60.68,35c-.57.28-2.43,1.35-2.35,3.31,0,1.32.89,2.35,2.52,3.06l19.52,7,1-5.42L30,73.49l50.36-29.1-28,33.66a19,19,0,0,0-3.24,8.65v15.85h5.13V87c.25-2.14,3.45-6.59,5.41-8.87L87.87,43.36,79,89.66c-.18,1.74-.57,2.06-.57,2.06l-.25,0c-.11-.07-.21-.11-.28-.15L59.52,84.42,58,90.16l19.51,7a3.77,3.77,0,0,0,1.75.42,3.36,3.36,0,0,0,1.64-.42c1.39-.79,2.21-2.5,2.46-4.92l9.86-55.24A2.09,2.09,0,0,0,93,35.74,2.86,2.86,0,0,0,91.18,34.31Z"/></g><g id="图层_1-2" data-name="图层 1"><path class="cls-2" d="M55.07,3.09,7.43,30.59A11.87,11.87,0,0,0,1.5,40.87v55a11.87,11.87,0,0,0,5.93,10.28l47.64,27.5a11.85,11.85,0,0,0,11.86,0l47.64-27.5a11.87,11.87,0,0,0,5.93-10.28v-55a11.87,11.87,0,0,0-5.93-10.28L66.93,3.09A11.85,11.85,0,0,0,55.07,3.09Z"/></g></g></svg>