<svg xmlns="http://www.w3.org/2000/svg" viewBox="0 0 122 136.74"><g data-name="图层 2"><path d="M91.18 34.31c-1.42-.39-3.31.14-5.38 1.53l-60.68 35c-.57.28-2.43 1.35-2.35 3.31 0 1.32.89 2.35 2.52 3.06l19.52 7 1-5.42L30 73.49l50.36-29.1-28 33.66a19 19 0 0 0-3.24 8.65v15.85h5.13V87c.25-2.14 3.45-6.59 5.41-8.87l28.21-34.77L79 89.66c-.18 1.74-.57 2.06-.57 2.06h-.25l-.28-.15-18.38-7.15L58 90.16l19.51 7a3.77 3.77 0 0 0 1.75.42 3.36 3.36 0 0 0 1.64-.42c1.39-.79 2.21-2.5 2.46-4.92L93.22 37a2.09 2.09 0 0 0-.22-1.26 2.86 2.86 0 0 0-1.82-1.43z" fill="#fff" data-name="图层 2"/><path d="M55.07 3.09L7.43 30.59A11.87 11.87 0 0 0 1.5 40.87v55a11.87 11.87 0 0 0 5.93 10.28l47.64 27.5a11.85 11.85 0 0 0 11.86 0l47.64-27.5a11.87 11.87 0 0 0 5.93-10.28v-55a11.87 11.87 0 0 0-5.93-10.28L66.93 3.09a11.85 11.85 0 0 0-11.86 0z" fill="none" stroke="#fff" stroke-miterlimit="10" stroke-width="3" data-name="图层 1"/></g></svg>