<svg xmlns="http://www.w3.org/2000/svg" viewBox="0 0 122 136.74"><defs><style>.cls-1{fill:none;stroke:#fff;stroke-miterlimit:10;stroke-width:3px;}.cls-2{fill:#fff;}</style></defs><title>资源 7</title><g id="图层_2" data-name="图层 2"><g id="图层_1-2" data-name="图层 1"><path class="cls-1" d="M55.07,3.09,7.43,30.59A11.87,11.87,0,0,0,1.5,40.87v55a11.87,11.87,0,0,0,5.93,10.28l47.64,27.5a11.85,11.85,0,0,0,11.86,0l47.64-27.5a11.87,11.87,0,0,0,5.93-10.28v-55a11.87,11.87,0,0,0-5.93-10.28L66.93,3.09A11.85,11.85,0,0,0,55.07,3.09Z"/><path class="cls-2" d="M84.35,64.11a31.35,31.35,0,0,0-15-9.34L62.93,43.1l5-8.73H100ZM61,53.65A31.22,31.22,0,0,0,37.86,63.88L22,34.37H54.1l10,19.43Q62.55,53.65,61,53.65Zm0,3.9A27.41,27.41,0,1,1,33.59,85,27.41,27.41,0,0,1,61,57.55ZM50.8,99.61,61,94.25l10.2,5.36-2-11.35,8.25-8L66.1,78.56,61,68.23,55.9,78.56,44.5,80.22l8.25,8-2,11.35Z"/></g></g></svg>