<svg xmlns="http://www.w3.org/2000/svg" viewBox="0 0 122 136.74"><g data-name="图层 2"><g data-name="图层 1"><path d="M55.07 3.09L7.43 30.59A11.87 11.87 0 0 0 1.5 40.87v55a11.87 11.87 0 0 0 5.93 10.28l47.64 27.5a11.85 11.85 0 0 0 11.86 0l47.64-27.5a11.87 11.87 0 0 0 5.93-10.28v-55a11.87 11.87 0 0 0-5.93-10.28L66.93 3.09a11.85 11.85 0 0 0-11.86 0z" fill="none" stroke="#fff" stroke-miterlimit="10" stroke-width="3"/><path d="M84.35 64.11a31.35 31.35 0 0 0-15-9.34L62.93 43.1l5-8.73H100zM61 53.65a31.22 31.22 0 0 0-23.14 10.23L22 34.37h32.1l10 19.43q-1.55-.15-3.1-.15zm0 3.9A27.41 27.41 0 1 1 33.59 85 27.41 27.41 0 0 1 61 57.55zM50.8 99.61L61 94.25l10.2 5.36-2-11.35 8.25-8-11.35-1.7L61 68.23l-5.1 10.33-11.4 1.66 8.25 8-2 11.35z" fill="#fff"/></g></g></svg>