<svg xmlns="http://www.w3.org/2000/svg" viewBox="0 0 122 136.74"><defs><style>.cls-1{fill:none;stroke:#fff;stroke-miterlimit:10;stroke-width:3px;}.cls-2{fill:#fff;}</style></defs><title>资源 5</title><g id="图层_2" data-name="图层 2"><g id="图层_1-2" data-name="图层 1"><path class="cls-1" d="M55.07,3.09,7.43,30.59A11.87,11.87,0,0,0,1.5,40.87v55a11.87,11.87,0,0,0,5.93,10.28l47.64,27.5a11.85,11.85,0,0,0,11.86,0l47.64-27.5a11.87,11.87,0,0,0,5.93-10.28v-55a11.87,11.87,0,0,0-5.93-10.28L66.93,3.09A11.85,11.85,0,0,0,55.07,3.09Z"/><path class="cls-2" d="M98.19,70.7a8,8,0,0,0-.44-1.5,12.09,12.09,0,0,0-2-3.08A10,10,0,0,0,93.08,64a7.53,7.53,0,0,0-1.45-.57,7.44,7.44,0,0,0-2.24-.4,6.6,6.6,0,0,0-4.19,1.5l-1.14,1-1,1-.27.26-2.2,2.12-8.23,8.27-2.9,3-2.64,2.69-2,2.11-.88.93a9.28,9.28,0,0,0-1.23,1.49,8.84,8.84,0,0,0-.7,1.37,11.75,11.75,0,0,0-.62,1.62l-.62,2.07-.66,2.34a18.88,18.88,0,0,0-.44,2,5.3,5.3,0,0,0,.93,4.13,4.38,4.38,0,0,0,3.65,1.68h.92l1.77-.4,2.2-.66,2.15-.75L73,100a8.06,8.06,0,0,0,1.63-1l.93-.79,1.1-1.1,1.93-2,2.56-2.59,2.86-3,7.79-7.92L94.31,79l.71-.7.53-.53.83-.84a7.53,7.53,0,0,0,1.81-4.53,8.24,8.24,0,0,0,0-1.72ZM81.77,86.9l-2.86,3-2.6,2.64-1.89,2-.88.88-.84.71a4.59,4.59,0,0,1-1,.61l-1.46.62-2,.7-2,.62-1.63.53h-.4a1.11,1.11,0,0,1-.88-.31,1.81,1.81,0,0,1,0-1.37c.09-.5.21-1,.35-1.49l.57-2,.58-1.93a7.76,7.76,0,0,1,.48-1.24,6.23,6.23,0,0,1,.49-.92,5.74,5.74,0,0,1,.79-.92l.79-1.24,2-2.06L72,83l2.91-3,7.7-8,6.78,6.91Zm12.9-13.56a2.91,2.91,0,0,1-.58.93l-.79.79-.57.57-.53.53-6.91-6.91,1-.88,1-.93a3.3,3.3,0,0,1,1.06-.57,3.16,3.16,0,0,1,1,0,4.27,4.27,0,0,1,1,0l.84.35a7,7,0,0,1,1.76,1.15,8.25,8.25,0,0,1,1.4,2.11,3.21,3.21,0,0,1,.22.79,3.62,3.62,0,0,1,0,.93,2.58,2.58,0,0,1,0,1.14Z"/><path class="cls-2" d="M52.06,98.74H37.14A4.71,4.71,0,0,1,32.48,94V42.8A4.71,4.71,0,0,1,37.1,38H86.7a4.71,4.71,0,0,1,4.67,4.75V56a2.37,2.37,0,1,0,4.7,0V42.8a9.5,9.5,0,0,0-9.37-9.64H37.14a9.51,9.51,0,0,0-9.37,9.64h0V93.94a9.51,9.51,0,0,0,9.37,9.64H52.06a2.42,2.42,0,0,0,0-4.84Z"/><path class="cls-2" d="M80.58,49a2.36,2.36,0,0,0-2.09-2.62l-.24,0H44.67a2.42,2.42,0,0,0,0,4.84H78.21A2.36,2.36,0,0,0,80.58,49ZM57.83,73.08H44.63a2.42,2.42,0,1,0,0,4.84h13.2a2.42,2.42,0,0,0,0-4.84ZM44.67,59.57a2.42,2.42,0,0,0,0,4.84H67.82a2.42,2.42,0,1,0,0-4.84Z"/></g></g></svg>