<svg xmlns="http://www.w3.org/2000/svg" viewBox="0 0 219.88 20.41"><defs><style>.cls-1{fill:#fff;}</style></defs><title>资源 12</title><g id="图层_2" data-name="图层 2"><g id="图层_2-2" data-name="图层 2"><path class="cls-1" d="M18.37.06l-.78,2.61h2.67V4.3H11.79L10.9,6.6h8.18V18.22a2.14,2.14,0,0,1-.58,1.48,2,2,0,0,1-1.45.62H1.18V6.6H5.79l.9-2.3H0V2.67H2.65L1.89.06H7l.75,2.61H12.5L13.25.06Zm-12,10.61H14V8.24H6.34Zm0,3.95H14V12.3H6.34Zm7,4.07a.54.54,0,0,0,.43-.22A.66.66,0,0,0,14,18V16.26H6.34v2.43Z"/><path class="cls-1" d="M28.47,6.86V20.34H24.09V.47H43.74V4.82a2,2,0,0,1-.6,1.44,2,2,0,0,1-1.44.6ZM39,2.13H28.47v3.1h9.88q.6,0,.6-.63Zm5,16.09a2.07,2.07,0,0,1-2.05,2H29.31V9.74h5.12V7.59H38.8V9.74h5.12Zm-10.61-4h1.12V11.4H33.31Zm0,4.45h1.12V15.81H33.31ZM38.8,11.4v2.77h1.12V11.4Zm1.12,4.41H38.8v2.81h.51a.54.54,0,0,0,.61-.62Z"/><path class="cls-1" d="M58.32,17.74,52,4.81l-.09.08V17.74H48.62V2.2h5.2L60,14.47l.09-.09V2.2h3.26V17.74Z"/><path class="cls-1" d="M68.48,2.2H79.42V4.81H72V8.42h6.88V11H72v4.12h7.67v2.6H68.48Z"/><path class="cls-1" d="M84.37,10q.27-8,7.85-8.15Q99.72,2,100,10q-.27,7.74-7.77,7.9Q84.56,17.75,84.37,10Zm3.71,0c0,3.76,1.38,5.63,4.14,5.63s4.06-1.87,4.06-5.63S94.93,4.3,92.22,4.3,88.08,6.21,88.08,10Z"/><path class="cls-1" d="M105.4,20.34l1.4-8.19H104V10.52h3V2h-2.41V.34h19.23V2h-1.92v8.54h2.5v1.63h-2.5v8.26H116.8V12.15H112l-1.49,8.19Zm6.69-9.82h4.71V2h-4.71Z"/><path class="cls-1" d="M138.3,7l-.54,1.4H148v3l-3.91,4.38,4.19,4.6h-5.85L141.21,19,140,20.34h-5.83l4.09-4.58L136,13.23l-2.67,7.11h-5.22l5-13.35h-5.23L130.3.69h4.39L133,5.35h.73l2-5.35h5.23l-2,5.35h9.27V7Zm.6,3,2.28,2.5,2.24-2.5ZM142.37.6h4.38l1,3.81h-4.39Z"/><path class="cls-1" d="M163.38,0V2.37h5.7V4h-5.7V7h.84l7.7-3.61V5.16L168,7h4.11V8.62h-7.57L159.49,11h11.72v7.18a2.07,2.07,0,0,1-2.05,2H154.63V13.31l-2.82,1.31v-1.8l8.92-4.2h-9V7h6.54V4h-5.72V2.37h5.72V0Zm-3.66,14.78h6.39V12.67h-6.39Zm6.39,1.63h-6.39V18.6h5.77a.54.54,0,0,0,.62-.6Z"/><path class="cls-1" d="M188.35.11V5.83H196V7.44h-7l6.24,11.18H196v1.64h-5.29l-4.88-8.75-4.86,8.75h-5.29V18.62h.77l6.22-11.18h-7V5.83h7.59V.11Z"/><path class="cls-1" d="M199.53,1.2h7.59V.06h5.12V1.2h7.57V4.11h-4v.6h3.06V6.13h-3.06V7h3.06V8.41h-3.06v.86h4v1.44h-3.29l3.29,3.4H217.4v3.27h-3l4.22,1.93h1.2v1.08h-6.71l-3.46-1.51-3.46,1.51h-6.69V19.31h1.18l4.2-1.93H202V14.11h-2.49l3.27-3.4h-3.27V9.27h4V8.41h-3.05V7h3.05V6.13h-3.05V4.71h3.05v-.6h-4Zm11.59,2.43H215V2.82H204.33v.81h3.91V4.71h2.88Zm-5.07,8.87h7.24l-1.72-1.79h-3.8Zm6.15,2.23v1.61l1.12.52V14.11h-7.25v2.75l1.1-.52V14.73Zm-4-7.74h2.88V6.13h-2.88Zm0,2.28h2.88V8.41h-2.88Z"/></g></g></svg>