<svg xmlns="http://www.w3.org/2000/svg" viewBox="0 0 219.88 20.41"><defs><style>.cls-1{fill:#fff}</style></defs><g id="图层_2" data-name="图层 2"><g id="图层_2-2" data-name="图层 2"><path class="cls-1" d="M18.37.06l-.78 2.61h2.67V4.3h-8.47l-.89 2.3h8.18v11.62a2.14 2.14 0 0 1-.58 1.48 2 2 0 0 1-1.45.62H1.18V6.6h4.61l.9-2.3H0V2.67h2.65L1.89.06H7l.75 2.61h4.75l.75-2.61zm-12 10.61H14V8.24H6.34zm0 3.95H14V12.3H6.34zm7 4.07a.54.54 0 0 0 .43-.22.66.66 0 0 0 .2-.47v-1.74H6.34v2.43zM28.47 6.86v13.48h-4.38V.47h19.65v4.35a2 2 0 0 1-.6 1.44 2 2 0 0 1-1.44.6zM39 2.13H28.47v3.1h9.88q.6 0 .6-.63zm5 16.09a2.07 2.07 0 0 1-2.05 2H29.31V9.74h5.12V7.59h4.37v2.15h5.12zm-10.61-4h1.12V11.4h-1.2zm0 4.45h1.12v-2.86h-1.2zm5.41-7.27v2.77h1.12V11.4zm1.12 4.41H38.8v2.81h.51a.54.54 0 0 0 .61-.62zM58.32 17.74L52 4.81l-.09.08v12.85h-3.29V2.2h5.2L60 14.47l.09-.09V2.2h3.26v15.54zM68.48 2.2h10.94v2.61H72v3.61h6.88V11H72v4.12h7.67v2.6H68.48zM84.37 10q.27-8 7.85-8.15Q99.72 2 100 10q-.27 7.74-7.77 7.9-7.67-.15-7.86-7.9zm3.71 0c0 3.76 1.38 5.63 4.14 5.63s4.06-1.87 4.06-5.63-1.35-5.7-4.06-5.7-4.14 1.91-4.14 5.7zM105.4 20.34l1.4-8.19H104v-1.63h3V2h-2.41V.34h19.23V2h-1.92v8.54h2.5v1.63h-2.5v8.26h-5.1v-8.28H112l-1.49 8.19zm6.69-9.82h4.71V2h-4.71zM138.3 7l-.54 1.4H148v3l-3.91 4.38 4.19 4.6h-5.85L141.21 19 140 20.34h-5.83l4.09-4.58-2.26-2.53-2.67 7.11h-5.22l5-13.35h-5.23l2.42-6.3h4.39L133 5.35h.73l2-5.35h5.23l-2 5.35h9.27V7zm.6 3l2.28 2.5 2.24-2.5zm3.47-9.4h4.38l1 3.81h-4.39zM163.38 0v2.37h5.7V4h-5.7v3h.84l7.7-3.61v1.77L168 7h4.11v1.62h-7.57L159.49 11h11.72v7.18a2.07 2.07 0 0 1-2.05 2h-14.53v-6.87l-2.82 1.31v-1.8l8.92-4.2h-9V7h6.54V4h-5.72V2.37h5.72V0zm-3.66 14.78h6.39v-2.11h-6.39zm6.39 1.63h-6.39v2.19h5.77a.54.54 0 0 0 .62-.6zM188.35.11v5.72H196v1.61h-7l6.24 11.18h.76v1.64h-5.29l-4.88-8.75-4.86 8.75h-5.29v-1.64h.77l6.22-11.18h-7V5.83h7.59V.11zM199.53 1.2h7.59V.06h5.12V1.2h7.57v2.91h-4v.6h3.06v1.42h-3.06V7h3.06v1.41h-3.06v.86h4v1.44h-3.29l3.29 3.4h-2.41v3.27h-3l4.22 1.93h1.2v1.08h-6.71l-3.46-1.51-3.46 1.51h-6.69v-1.08h1.18l4.2-1.93H202v-3.27h-2.49l3.27-3.4h-3.27V9.27h4v-.86h-3.05V7h3.05v-.87h-3.05V4.71h3.05v-.6h-4zm11.59 2.43H215v-.81h-10.67v.81h3.91v1.08h2.88zm-5.07 8.87h7.24l-1.72-1.79h-3.8zm6.15 2.23v1.61l1.12.52v-2.75h-7.25v2.75l1.1-.52v-1.61zm-4-7.74h2.88v-.86h-2.88zm0 2.28h2.88v-.86h-2.88z"/></g></g></svg>