<svg xmlns="http://www.w3.org/2000/svg" viewBox="0 0 217.18 15.38"><defs><style>.cls-1{fill:#fff;}</style></defs><title>资源 17</title><g id="图层_2" data-name="图层 2"><g id="图层_2-2" data-name="图层 2"><path class="cls-1" d="M0,2.48A19.58,19.58,0,0,0,3.17.78H5.71V12.32H3V3.26a13.06,13.06,0,0,1-3,1.5Z"/><path class="cls-1" d="M14,6.19q-.07-.78-1.2-.84c-.71,0-1.06.26-1.06.78,0,.35.59.65,1.76.91a3.35,3.35,0,0,1,3.39,2.8c-.14,1.57-1.51,2.44-4.09,2.61q-3.88-.06-4-2.54h2.54c.09.61.59.93,1.48,1s1.27-.31,1.27-.92-.66-.82-1.83-1C10,8.54,8.86,7.63,9,6.19s1.39-2.3,3.88-2.47q3.45,0,3.66,2.47Z"/><path class="cls-1" d="M19.17,3.91V2.28l2.75-.91V3.91h2v1.7h-2V9.52c-.09,1,.26,1.5,1.06,1.37a6.61,6.61,0,0,0,.92-.07v1.5l-2.19.13c-1.79.09-2.63-.82-2.54-2.74V5.61H17.34V3.91Z"/><path class="cls-1" d="M38.28,12.32l-5.08-10-.07.07v10H30.52V.26h4.16l4.94,9.52.07-.07V.26h2.6V12.32Z"/><path class="cls-1" d="M44.41.26h8.74v2H47.23v2.8h5.5v2h-5.5v3.2h6.13v2h-9Z"/><path class="cls-1" d="M55.12,6.32Q55.35.12,61.4,0q6,.14,6.2,6.32-.21,6-6.2,6.13Q55.27,12.32,55.12,6.32Zm3,0q0,4.37,3.32,4.37t3.24-4.37q0-4.43-3.24-4.43T58.08,6.32Z"/><path class="cls-1" d="M74.58.26H79c4.32,0,6.51,2.07,6.56,6.06s-2.24,6-6.56,6H74.58Zm2.75,10h1.48q3.87.13,3.81-4t-3.81-4H77.33Z"/><path class="cls-1" d="M89.88,8.8c0,1.43.47,2.13,1.55,2.09a1.5,1.5,0,0,0,1.69-1.05h2.47q-.36,2.61-4.16,2.61-4.38.06-4.3-4.3c.14-2.83,1.57-4.3,4.3-4.43A4,4,0,0,1,95.3,5.67a3.51,3.51,0,0,1,.5,1.5c0,.52.07,1.07.07,1.63Zm3.17-1.7c0-1.17-.54-1.75-1.62-1.75s-1.51.58-1.55,1.75Z"/><path class="cls-1" d="M96.57,3.91h2.89l2.05,5.74,2.11-5.74h2.54l-3.24,8.41h-3Z"/><path class="cls-1" d="M120,4.17a2.27,2.27,0,0,0-2.54-2.28c-1.55.09-2.38,1.57-2.47,4.43.09,2.83.92,4.28,2.47,4.37s2.49-.8,2.54-2.28h3c-.14,2.65-2,4-5.5,4S112.1,10.32,112,6.32Q112.22.2,117.44,0q5.22.06,5.5,4.17Z"/><path class="cls-1" d="M128.86,12.45c-3-.09-4.58-1.52-4.73-4.3.15-2.83,1.72-4.3,4.73-4.43,3,.13,4.58,1.6,4.72,4.43C133.44,10.93,131.86,12.36,128.86,12.45Zm0-1.56c1.31,0,2-.92,2-2.74s-.61-2.8-2-2.8S127,6.28,127,8.15,127.59,10.89,128.86,10.89Z"/><path class="cls-1" d="M138.23,5h.07a3.21,3.21,0,0,1,2.75-1.23,3.29,3.29,0,0,1,2.89,1.56A3.4,3.4,0,0,1,147,3.72a3.54,3.54,0,0,1,2.89,1.56,5.32,5.32,0,0,1,.29,2v5h-2.75v-5q0-1.95-1.62-1.95c-.94.08-1.48.73-1.63,2v5h-2.67v-5c-.05-1.3-.59-1.95-1.63-1.95s-1.57.73-1.62,2v5h-2.75V3.91h2.68Z"/><path class="cls-1" d="M154.94,4.89H155a3.14,3.14,0,0,1,2.4-1.17c2.63.13,4,1.6,4.23,4.43q-.28,4.17-3.88,4.3a2.93,2.93,0,0,1-2.75-1.3h-.07v4.23h-2.68V4.82a7.4,7.4,0,0,1-.07-.91h2.68Zm2,6c1.32,0,2-.92,1.91-2.74s-.59-2.8-1.91-2.8-1.88,1-2,2.8C155,9.93,155.69,10.84,156.91,10.89Z"/><path class="cls-1" d="M165.87,8.8c-.05,1.43.46,2.13,1.55,2.09a1.5,1.5,0,0,0,1.69-1.05h2.47q-.36,2.61-4.16,2.61-4.38.06-4.3-4.3c.14-2.83,1.57-4.3,4.3-4.43a4,4,0,0,1,3.87,1.95,3.51,3.51,0,0,1,.5,1.5c0,.52.07,1.07.07,1.63ZM169,7.1c0-1.17-.54-1.75-1.62-1.75s-1.51.58-1.55,1.75Z"/><path class="cls-1" d="M174.18,3.91V2.28l2.75-.91V3.91h2v1.7h-2V9.52c-.09,1,.26,1.5,1.06,1.37a6.61,6.61,0,0,0,.92-.07v1.5l-2.19.13c-1.79.09-2.63-.82-2.54-2.74V5.61h-1.83V3.91Z"/><path class="cls-1" d="M183.28.26V2.41h-2.89V.26Zm-.07,3.65v8.41h-2.75V3.91Z"/><path class="cls-1" d="M186.17,3.91V2.28l2.75-.91V3.91h2v1.7h-2V9.52c-.1,1,.25,1.5,1.05,1.37a6.5,6.5,0,0,0,.92-.07v1.5l-2.19.13c-1.78.09-2.63-.82-2.53-2.74V5.61h-1.84V3.91Z"/><path class="cls-1" d="M195.26.26V2.41h-2.89V.26Zm-.07,3.65v8.41h-2.75V3.91Z"/><path class="cls-1" d="M201.82,12.45q-4.51-.13-4.73-4.3c.14-2.83,1.72-4.3,4.73-4.43,3,.13,4.58,1.6,4.72,4.43C206.4,10.93,204.82,12.36,201.82,12.45Zm0-1.56c1.31,0,2-.92,2-2.74s-.61-2.8-2-2.8-1.91.93-1.91,2.8S200.55,10.89,201.82,10.89Z"/><path class="cls-1" d="M211.19,4.89l.07.06A3,3,0,0,1,214,3.72c1.64.17,2.63.78,3,1.82a5.23,5.23,0,0,1,.21,1.3v5.48h-2.75v-5q0-1.95-1.62-1.95-1.41.12-1.62,2v5h-2.68V3.91h2.68Z"/></g></g></svg>