<?xml version="1.0" encoding="utf-8"?>
<!-- Generator: Adobe Illustrator 23.1.1, SVG Export Plug-In . SVG Version: 6.00 Build 0)  -->
<svg version="1.1" id="Layer_1" xmlns="http://www.w3.org/2000/svg" xmlns:xlink="http://www.w3.org/1999/xlink" x="0px" y="0px"
	 viewBox="0 0 1440 866" style="enable-background:new 0 0 1440 866;" xml:space="preserve">
<style type="text/css">
	.st0{fill:#F9FAFA;}
	.st1{fill:url(#SVGID_1_);}
	.st2{fill:#02E49B;}
	.st3{fill:#D9DBDC;}
	.st4{fill:#2B393F;}
	.st5{fill:#53EDBB;}
	.st6{fill:#FFFFFF;}
	.st7{fill:#D1FAED;}
	.st8{fill:#9FF5D9;}
	.st9{fill:#00BD9B;}
	.st10{opacity:0.68;fill:url(#SVGID_2_);enable-background:new    ;}
	.st11{opacity:0.68;fill:url(#SVGID_3_);enable-background:new    ;}
	.st12{opacity:0.68;fill:url(#SVGID_4_);enable-background:new    ;}
	.st13{opacity:0.68;fill:url(#SVGID_5_);enable-background:new    ;}
	.st14{fill:url(#SVGID_6_);}
	.st15{opacity:0.68;fill:url(#SVGID_7_);enable-background:new    ;}
	.st16{opacity:0.38;fill:url(#SVGID_8_);enable-background:new    ;}
	.st17{opacity:0.38;fill:url(#SVGID_9_);enable-background:new    ;}
	.st18{opacity:0.38;fill:url(#SVGID_10_);enable-background:new    ;}
	.st19{opacity:0.38;fill:url(#SVGID_11_);enable-background:new    ;}
	.st20{opacity:0.38;fill:url(#SVGID_12_);enable-background:new    ;}
	.st21{fill:#00AF92;}
	.st22{opacity:0.89;fill:url(#SVGID_13_);enable-background:new    ;}
	.st23{opacity:0.68;fill:url(#SVGID_14_);enable-background:new    ;}
	.st24{opacity:0.68;fill:url(#SVGID_15_);enable-background:new    ;}
	.st25{fill:#1EE7A6;}
	.st26{opacity:0.38;fill:url(#SVGID_16_);enable-background:new    ;}
	.st27{opacity:0.68;fill:url(#SVGID_17_);enable-background:new    ;}
	.st28{opacity:0.68;fill:url(#SVGID_18_);enable-background:new    ;}
	.st29{fill:none;stroke:#00BD9B;stroke-width:1.2642;stroke-linecap:round;stroke-linejoin:round;}
	.st30{enable-background:new    ;}
	.st31{opacity:0.68;fill:url(#SVGID_19_);enable-background:new    ;}
	.st32{opacity:0.68;fill:url(#SVGID_20_);enable-background:new    ;}
	.st33{opacity:0.68;fill:url(#SVGID_21_);enable-background:new    ;}
	.st34{opacity:0.68;fill:url(#SVGID_22_);enable-background:new    ;}
	.st35{opacity:0.68;fill:url(#SVGID_23_);enable-background:new    ;}
	.st36{opacity:0.68;fill:url(#SVGID_24_);enable-background:new    ;}
	.st37{fill:#1CC4A6;}
	.st38{fill:url(#SVGID_25_);}
	.st39{fill:#00E599;}
	.st40{opacity:0.68;fill:url(#SVGID_26_);enable-background:new    ;}
	.st41{opacity:0.38;fill:url(#SVGID_27_);enable-background:new    ;}
	.st42{fill:none;stroke:#FFFFFF;stroke-width:1.9016;stroke-miterlimit:10.0005;}
	.st43{opacity:0.38;fill:url(#SVGID_28_);enable-background:new    ;}
	.st44{opacity:0.38;fill:url(#SVGID_29_);enable-background:new    ;}
	.st45{fill:url(#SVGID_30_);}
	.st46{fill-rule:evenodd;clip-rule:evenodd;fill:#00BD9B;}
	.st47{fill:#000033;}
</style>
<title>3 year visual</title>
<rect x="-21" y="-37" class="st0" width="1478" height="933"/>
<g>
	
		<linearGradient id="SVGID_1_" gradientUnits="userSpaceOnUse" x1="725.412" y1="84.5359" x2="819.6185" y2="142.7608" gradientTransform="matrix(1 0 0 1 0 24.1102)">
		<stop  offset="0" style="stop-color:#EBFDF7;stop-opacity:0.18"/>
		<stop  offset="0.29" style="stop-color:#EBFDF7;stop-opacity:0.38"/>
		<stop  offset="0.32" style="stop-color:#E6FCF5;stop-opacity:0.49"/>
		<stop  offset="0.39" style="stop-color:#E0FCF3;stop-opacity:0.65"/>
		<stop  offset="0.46" style="stop-color:#DAFBF1;stop-opacity:0.77"/>
		<stop  offset="0.53" style="stop-color:#D6FBEF;stop-opacity:0.87"/>
		<stop  offset="0.6" style="stop-color:#D3FAEE;stop-opacity:0.94"/>
		<stop  offset="0.68" style="stop-color:#D2FAED;stop-opacity:0.99"/>
		<stop  offset="0.77" style="stop-color:#D1FAED"/>
	</linearGradient>
	<path class="st1" d="M820.97,166.93c1.27-0.78,2.06-2.16,2.09-3.66l18.28-42c-0.01-1.53-0.8-2.94-2.09-3.76l-63.42-36.46
		c-1.37-0.72-3.02-0.72-4.39,0l-48.27,28.73c-1.29,0.82-2.08,2.23-2.09,3.76l-0.84,51.09c0.01,1.53,0.85,2.93,2.19,3.66l61.54,36.36
		"/>
	<path class="st2" d="M635.53,62.87L587.26,91.6c-1.29,0.82-2.08,2.23-2.09,3.76v52.24c-0.01,1.53,0.78,2.96,2.09,3.76l45.34,26.12
		c1.32,0.79,2.96,0.79,4.28,0l48.16-28.73c1.27-0.78,2.06-2.16,2.09-3.66V93.27c-0.01-1.53-0.8-2.94-2.09-3.76l-45.13-26.64
		C638.54,62.14,636.9,62.14,635.53,62.87z"/>
	<path class="st3" d="M606.9,125.24l-10.45,6.06c-0.24,0.21-0.39,0.51-0.42,0.84v12.12c0.03,0.32,0.18,0.62,0.42,0.84l10.45,6.06
		h1.04l10.34-6.16c0.3-0.17,0.5-0.49,0.52-0.84v-12.01c0.02-0.33-0.14-0.65-0.42-0.84l-10.45-6.06
		C607.63,125.03,607.22,125.03,606.9,125.24z"/>
	<path class="st3" d="M664.68,125.24l-10.45,6.06c-0.3,0.17-0.5,0.49-0.52,0.84v12.12c0.02,0.35,0.22,0.66,0.52,0.84l10.45,6.06
		h0.94l10.45-6.16c0.28-0.18,0.44-0.5,0.42-0.84v-12.01c-0.02-0.35-0.22-0.66-0.52-0.84l-10.45-6.06
		C665.26,125.06,664.93,125.06,664.68,125.24z"/>
	<path class="st3" d="M636.47,93.27l-10.45,6.16c-0.3,0.17-0.5,0.49-0.52,0.84v12.12c0.02,0.35,0.22,0.66,0.52,0.84l10.45,5.96
		c0.32,0.21,0.73,0.21,1.04,0l10.34-6.06c0.32-0.21,0.51-0.56,0.52-0.94v-11.91c-0.02-0.35-0.22-0.66-0.52-0.84l-10.34-6.16
		C637.17,93.17,636.81,93.17,636.47,93.27z"/>
	<path class="st3" d="M635.74,140.81l-10.45,6.16c-0.32,0.16-0.52,0.48-0.52,0.84v12.01c-0.03,0.36,0.19,0.7,0.52,0.84l10.45,6.06
		c0.28,0.19,0.66,0.19,0.94,0l10.45-6.16c0.32-0.16,0.52-0.48,0.52-0.84v-11.91c0-0.35-0.2-0.68-0.52-0.84l-10.45-6.16
		C636.4,140.58,636.01,140.58,635.74,140.81z"/>
	<path class="st4" d="M606.27,127.96h-0.31v4.39l-0.21,0.21h-0.1l-1.78-1.04c-0.21,0-0.31-0.21-0.31-0.42v-4.28
		c0-0.35-0.2-0.68-0.52-0.84l-1.67-1.04c-1.66-0.88-2.71-2.61-2.72-4.49l0,0c0-2.02,1.64-3.66,3.66-3.66
		c0.65-0.01,1.3,0.13,1.88,0.42l1.88,1.15l0.73,0.31h0.1l9.93-4.7c0.26-0.1,0.56-0.02,0.73,0.21v18.81c0,0.29-0.23,0.52-0.52,0.52
		h-0.21L606.27,127.96z"/>
	<ellipse class="st4" cx="636.26" cy="132.45" rx="7.1" ry="6.27"/>
	<ellipse class="st5" cx="636.15" cy="155.33" rx="7" ry="6.16"/>
	<ellipse class="st6" cx="636.15" cy="146.03" rx="7" ry="6.16"/>
	<path class="st6" d="M645.66,109.05l-17.24-9.93c-0.3-0.17-0.5-0.49-0.52-0.84v-16.3c0.05-0.25,0.27-0.42,0.52-0.42h0.21
		l17.24,9.93c0.3,0.12,0.51,0.41,0.52,0.73v16.3c-0.05,0.25-0.27,0.42-0.52,0.42L645.66,109.05z"/>
	<path class="st4" d="M643.26,105.39l-12.54-7.21c-0.24-0.17-0.39-0.44-0.42-0.73V85.64c0-0.23,0.19-0.42,0.42-0.42l0,0h0.21
		l12.64,7.21c0.26,0.2,0.42,0.51,0.42,0.84v11.7c0,0.23-0.19,0.42-0.42,0.42l0,0C643.57,105.39,643.26,105.39,643.26,105.39z"/>
	<path class="st2" d="M641.9,95.67l-5.01-2.93c-0.1-0.1-0.1-0.1-0.1-0.31v-1.04c0-0.1,0-0.1,0.1-0.1h0.1l4.91,2.82l0.21,0.31v1.04
		C642.11,95.58,642.02,95.67,641.9,95.67L641.9,95.67z"/>
	<path class="st2" d="M634.38,98.39l-1.99-1.25c-0.12,0-0.21-0.09-0.21-0.21l0,0v-1.15h0.21l2.09,1.15c0.08,0.09,0.11,0.2,0.1,0.31
		v1.04h-0.21L634.38,98.39z"/>
	<path class="st2" d="M635.63,92.12l-3.24-1.99c-0.12,0-0.21-0.09-0.21-0.21l0,0v-1.15h0.21l3.34,1.99c0.1,0,0.1,0.1,0.1,0.21v1.04
		h-0.21v0.11H635.63z"/>
	<path class="st2" d="M637.2,96.4l-4.81-2.72c-0.1-0.1-0.21-0.21-0.21-0.31v-1.04c0-0.12,0.09-0.21,0.21-0.21l0,0l0,0l4.81,2.82
		l0.21,0.31v1.04c-0.01,0.08-0.04,0.16-0.1,0.21L637.2,96.4z"/>
	<path class="st6" d="M630.3,101.73l1.78-1.04l-1.04-1.88l-5.12,2.93c-0.08,0.09-0.11,0.2-0.1,0.31h0.1l2.4,1.46
		c0.08,0.09,0.11,0.2,0.1,0.31h-0.1l-3.76,2.19l1.25,1.78l7-3.97c0.1,0,0.1-0.21,0-0.31l0,0l-2.51-1.46
		C630.2,101.94,630.3,101.84,630.3,101.73L630.3,101.73z"/>
	<ellipse class="st7" cx="625.18" cy="106.96" rx="1.04" ry="1.15"/>
	<polygon class="st6" points="637.51,102.78 638.56,104.76 633.54,107.58 632.6,105.6 	"/>
	<ellipse class="st8" cx="633.23" cy="106.54" rx="1.04" ry="1.15"/>
	<path class="st6" d="M636.68,107.27l1.57,0.94h0.42l4.39-2.51l1.04,1.88l-5.01,2.93l0,0l-0.42,0.21h-0.42l-1.57-0.94h-0.52
		l-3.66,2.09l-0.94-1.99l4.6-2.61C636.16,107.27,636.68,107.27,636.68,107.27z"/>
	<ellipse class="st8" cx="631.97" cy="110.93" rx="1.04" ry="1.15"/>
	<polygon class="st6" points="635.11,80.73 637.3,80.73 637.3,86.79 635.11,86.58 	"/>
	<ellipse class="st8" cx="636.15" cy="80.73" rx="1.15" ry="1.25"/>
	<path class="st6" d="M645.77,86.27v-3.45h-2.19v1.78c0,0.21-0.1,0.21-0.21,0.21h-0.1l-3.45-1.99c-0.1-0.06-0.23-0.04-0.29,0.06
		c-0.01,0.01-0.02,0.03-0.02,0.05c-0.1,0-0.1,0-0.1,0.1v6.27l2.19,0.21v-2.72c0-0.1,0.1-0.21,0.31-0.21h0.1l1.57,0.94l0,0l1.88,1.15
		c0.1,0.06,0.23,0.04,0.29-0.06c0.01-0.01,0.02-0.03,0.02-0.05c0.06,0,0.1-0.05,0.1-0.1L645.77,86.27z"/>
	<ellipse class="st5" cx="644.62" cy="82.93" rx="1.15" ry="1.25"/>
	<path class="st9" d="M611.81,110.72l1.57-0.63h0.42l5.64,3.34h0.31v-7.84c0-0.21,0-0.31-0.21-0.42l-8.78-5.12h-0.42v7.63
		c0,0.21,0.1,0.31,0.31,0.42l0.63,0.42c0.1,0,0.21,0.21,0.21,0.31v1.46c0,0.21,0.1,0.31,0.21,0.31L611.81,110.72z"/>
	<path class="st6" d="M615.89,106.43l-3.97-2.3l0,0v-1.36h0.1l3.97,2.3l0,0v1.25h-0.1V106.43z"/>
	<path class="st6" d="M617.77,107.48l-1.04-0.63c-0.1,0-0.1,0-0.1-0.1v-1.25c0-0.06,0.05-0.1,0.1-0.1l0,0l1.04,0.63h0.1v1.25
		L617.77,107.48z"/>
	<path class="st6" d="M614.63,108l-2.72-1.57l0,0v-1.25h0.1l2.61,1.57h0.1V108H614.63z"/>
	<path class="st7" d="M599.06,110.3l6.37,3.66h0.31v-5.64c-0.03-0.16-0.1-0.3-0.21-0.42l-6.27-3.45c-0.1-0.1-0.21,0-0.31,0.1l0,0
		v5.43C598.96,110.1,599,110.21,599.06,110.3z"/>
	<path class="st2" d="M601.36,107.37v2.82h0.1l1.67-0.94l0,0l-1.67-1.78h-0.1V107.37z"/>
	
		<linearGradient id="SVGID_2_" gradientUnits="userSpaceOnUse" x1="672.1402" y1="738.3218" x2="682.2013" y2="732.0009" gradientTransform="matrix(1 0 0 -1 0 865.8898)">
		<stop  offset="0" style="stop-color:#9FF5D9"/>
		<stop  offset="1" style="stop-color:#EBFDF7"/>
	</linearGradient>
	<polygon class="st10" points="680.56,131.93 667.18,118.34 661.54,127.02 678.88,134.96 	"/>
	
		<linearGradient id="SVGID_3_" gradientUnits="userSpaceOnUse" x1="-4632.8652" y1="738.2133" x2="-4622.7935" y2="731.8924" gradientTransform="matrix(-1 0 0 -1 -3973.3999 865.8898)">
		<stop  offset="0" style="stop-color:#9FF5D9"/>
		<stop  offset="1" style="stop-color:#EBFDF7"/>
	</linearGradient>
	<polygon class="st11" points="650.88,131.93 664.36,118.55 670,127.12 652.66,135.06 	"/>
	
		<linearGradient id="SVGID_4_" gradientUnits="userSpaceOnUse" x1="653.5438" y1="750.5233" x2="660.8153" y2="745.0383" gradientTransform="matrix(1 0 0 -1 0 865.8898)">
		<stop  offset="0" style="stop-color:#9FF5D9"/>
		<stop  offset="1" style="stop-color:#EBFDF7"/>
	</linearGradient>
	<polygon class="st12" points="650.99,119.28 650.88,116.78 664.26,117.61 660.6,125.03 	"/>
	
		<linearGradient id="SVGID_5_" gradientUnits="userSpaceOnUse" x1="-4718.5674" y1="750.4733" x2="-4711.2646" y2="744.9673" gradientTransform="matrix(-1 0 0 -1 -4040.7998 865.8898)">
		<stop  offset="0" style="stop-color:#9FF5D9"/>
		<stop  offset="1" style="stop-color:#EBFDF7"/>
	</linearGradient>
	<polygon class="st13" points="680.24,119.39 680.56,116.99 666.97,117.72 670.63,125.14 	"/>
	<circle class="st4" cx="665.72" cy="125.34" r="10.87"/>
	<path class="st9" d="M678.99,135.06l1.57-0.94c0.1,0,0.21-0.21,0.21-0.31v-1.78c0-0.12-0.09-0.21-0.21-0.21l0,0h-0.1l-1.57,0.94
		c-0.1,0-0.21,0.21-0.21,0.31v1.78c0,0.12,0.09,0.21,0.21,0.21l0,0H678.99z"/>
	<path class="st9" d="M652.56,135.06l-1.57-0.94l-0.21-0.31v-1.78c0-0.12,0.09-0.21,0.21-0.21l0,0h0.1l1.57,0.94
		c0.1,0,0.21,0.21,0.21,0.31v1.78l-0.21,0.21H652.56z"/>
	<path class="st9" d="M678.99,120.12l1.57-0.84c0.13-0.1,0.21-0.25,0.21-0.42v-1.67l-0.21-0.21h-0.1l-1.57,0.84
		c-0.13,0.1-0.21,0.25-0.21,0.42v1.67c0,0.21,0.1,0.21,0.21,0.21H678.99z"/>
	<path class="st9" d="M652.56,120.12l-1.57-0.84c-0.13-0.1-0.21-0.25-0.21-0.42v-1.67l0.21-0.21h0.1l1.57,0.84
		c0.13,0.1,0.21,0.25,0.21,0.42v1.67c0,0.21-0.1,0.21-0.21,0.21H652.56z"/>
	<polygon class="st2" points="661.33,122.31 661.44,128.69 665.51,130.15 665.51,123.78 670,122.11 665.93,120.64 	"/>
	<polygon class="st2" points="665.83,123.88 665.83,127.43 670,128.9 670,122.31 	"/>
	
		<linearGradient id="SVGID_6_" gradientUnits="userSpaceOnUse" x1="863.062" y1="187.9801" x2="804.8999" y2="116.1316" gradientTransform="matrix(1 0 0 1 0 24.1102)">
		<stop  offset="0" style="stop-color:#02E49B"/>
		<stop  offset="0.88" style="stop-color:#D1FAED"/>
	</linearGradient>
	<path class="st14" d="M831.84,115.73l-46.07,26.64c-1.32,0.74-2.13,2.14-2.09,3.66v61.22c0.01,1.53,0.8,2.94,2.09,3.76l45.34,26.12
		c1.34,0.72,2.95,0.72,4.28,0l48.16-28.73c1.29-0.82,2.08-2.23,2.09-3.76v-57.88c-0.01-1.53-0.8-2.94-2.09-3.76l-47.33-27.27
		C834.85,115.01,833.21,115.01,831.84,115.73z"/>
	
		<linearGradient id="SVGID_7_" gradientUnits="userSpaceOnUse" x1="737.1239" y1="265.1465" x2="630.3176" y2="326.5576" gradientTransform="matrix(1 0 0 1 0 24.1102)">
		<stop  offset="0" style="stop-color:#02E49B"/>
		<stop  offset="0.77" style="stop-color:#EBFDF7"/>
	</linearGradient>
	<path class="st15" d="M687.97,261.06l-63.94,35.42c-1.36,0.76-2.2,2.2-2.19,3.76v52.24c-0.01,1.56,0.83,3,2.19,3.76l45.24,26.12
		c1.37,0.72,3.02,0.72,4.39,0l63.84-35.52c1.36-0.71,2.21-2.12,2.19-3.66v-51.82c-0.01-1.53-0.85-2.93-2.19-3.66l-45.24-26.64
		C690.94,260.27,689.29,260.27,687.97,261.06z"/>
	
		<linearGradient id="SVGID_8_" gradientUnits="userSpaceOnUse" x1="884.5359" y1="447.2078" x2="883.7838" y2="341.8328" gradientTransform="matrix(1 0 0 1 0 24.1102)">
		<stop  offset="0.22" style="stop-color:#53EDBB"/>
		<stop  offset="1" style="stop-color:#D1FAED"/>
	</linearGradient>
	<path class="st16" d="M882.09,380.27l-45.24,21.63c-1.35,0.73-2.19,2.13-2.19,3.66v61.22c0.01,1.53,0.85,2.93,2.19,3.66
		l45.24,26.12c1.35,0.83,3.04,0.83,4.39,0l45.13-26.64c1.32-0.74,2.13-2.14,2.09-3.66l0.21-60.7c-0.01-1.53-0.85-2.93-2.19-3.66
		l-45.24-21.63C885.13,379.44,883.44,379.44,882.09,380.27z"/>
	
		<linearGradient id="SVGID_9_" gradientUnits="userSpaceOnUse" x1="824.5266" y1="205.3261" x2="760.6601" y2="255.6419" gradientTransform="matrix(1 0 0 1 0 24.1102)">
		<stop  offset="0.31" style="stop-color:#02E49B"/>
		<stop  offset="0.74" style="stop-color:#53EDBB"/>
	</linearGradient>
	<path class="st17" d="M783.99,204.33l-51.51,29.78c-1.29,0.82-2.08,2.23-2.09,3.76l3.24,51.19c-0.01,1.51,0.78,2.9,2.09,3.66
		l45.34,26.22c1.34,0.76,2.98,0.72,4.28-0.1l48.16-28.63c1.29-0.82,2.08-2.23,2.09-3.76v-51.82c-0.03-1.5-0.82-2.87-2.09-3.66
		l-45.34-26.64C786.89,203.54,785.27,203.54,783.99,204.33z"/>
	<path class="st2" d="M633.44,291.15l-45.24,26.64c-1.32,0.74-2.13,2.14-2.09,3.66v52.34c-0.03,1.54,0.77,2.97,2.09,3.76
		l45.24,26.12c1.37,0.72,3.02,0.72,4.39,0l45.13-26.64c1.32-0.79,2.12-2.22,2.09-3.76l0.21-51.82c-0.01-1.53-0.85-2.93-2.19-3.66
		l-45.24-26.64C636.48,290.32,634.78,290.32,633.44,291.15z"/>
	<path class="st6" d="M678.68,371.49l-45.34-25.91v-38.55c-0.01-1.38,1.1-2.52,2.48-2.53c0.45,0,0.89,0.11,1.28,0.34l39.28,22.46
		c1.44,0.8,2.32,2.33,2.3,3.97V371.49z"/>
	<polygon class="st4" points="676.06,366.58 636.05,343.8 636.05,307.45 676.06,330.33 	"/>
	<path class="st6" d="M678.68,371.49l-45.34-25.91l-26.01,15.25c-0.89,0.4-1.29,1.45-0.89,2.35c0.18,0.4,0.49,0.71,0.89,0.89
		l40.12,22.98c1.5,0.85,3.34,0.81,4.81-0.1L678.68,371.49z"/>
	<path class="st4" d="M631.77,315.18h0.94l-3.34,4.91c-0.16,0.18-0.39,0.29-0.63,0.31l-3.45,0.84c-0.29,0.08-0.49,0.33-0.52,0.63
		v26.85c0,0.17,0.14,0.31,0.31,0.31h1.99v1.04h-2.93c-0.17,0-0.31-0.14-0.31-0.31v-13.27c-0.05-0.15-0.17-0.26-0.31-0.31h-1.78
		c-0.1,0.1-0.21,0.21-0.21,0.31l-0.84,12.12c0,0.17,0.14,0.31,0.31,0.31h1.57v0.94h-2.61c-0.21,0-0.31-0.21-0.31-0.42l1.04-17.55
		c-0.01-0.4-0.11-0.8-0.31-1.15l-1.67-3.24c-0.23-0.45-0.3-0.97-0.21-1.46l0.94-5.54c0-0.23,0.19-0.42,0.42-0.42l0,0h1.46
		c0,0-1.25-3.45,0.52-3.55c0,0,1.36-0.42,0.94,3.34h1.57l3.55-0.42l0.73-0.42L631.77,315.18z"/>
	<path class="st2" d="M649,323.33l-7.84-4.49c-0.13-0.1-0.21-0.25-0.21-0.42v-1.78c0-0.21,0.21-0.31,0.31-0.21l7.84,4.49
		c0.1,0,0.21,0.21,0.21,0.42v1.78C649.32,323.22,649.11,323.33,649,323.33z"/>
	<path class="st9" d="M654.12,326.25l-3.24-1.88c-0.15-0.08-0.23-0.25-0.21-0.42v-1.78c0-0.21,0.21-0.31,0.31-0.21l3.34,1.88
		c0.11,0.12,0.18,0.26,0.21,0.42v1.78C654.54,326.25,654.33,326.36,654.12,326.25z"/>
	
		<linearGradient id="SVGID_10_" gradientUnits="userSpaceOnUse" x1="655.8267" y1="306.3134" x2="671.3623" y2="306.3134" gradientTransform="matrix(1 0 0 1 0 24.1102)">
		<stop  offset="0" style="stop-color:#02E49B"/>
		<stop  offset="1" style="stop-color:#02E49B;stop-opacity:0.38"/>
	</linearGradient>
	<path class="st18" d="M671.05,335.97l-14.94-8.67c-0.17-0.07-0.29-0.23-0.31-0.42v-1.78c0-0.21,0.21-0.31,0.42-0.21l14.94,8.67
		c0.1,0,0.21,0.21,0.21,0.42v1.78C671.36,335.86,671.15,336.07,671.05,335.97z"/>
	<path class="st2" d="M644.51,325.63l-3.34-1.88c-0.11-0.12-0.18-0.26-0.21-0.42v-1.78c0-0.21,0.21-0.31,0.31-0.21l3.34,1.88
		c0.11,0.12,0.18,0.26,0.21,0.42v1.78C644.83,325.63,644.62,325.73,644.51,325.63z"/>
	<path class="st2" d="M654.12,331.16l-7.73-4.39l-0.21-0.42v-1.78c0-0.21,0.21-0.31,0.31-0.21l7.73,4.39
		c0.17,0.07,0.29,0.23,0.31,0.42v1.78C654.54,331.16,654.33,331.27,654.12,331.16z"/>
	<path class="st9" d="M642.53,335.45l-1.36-0.73c-0.11-0.12-0.18-0.26-0.21-0.42v-1.78c0-0.21,0.21-0.31,0.31-0.21l1.36,0.73
		c0.17,0.07,0.29,0.23,0.31,0.42v1.78C642.94,335.45,642.74,335.55,642.53,335.45z"/>
	<path class="st2" d="M652.24,340.98l-7.84-4.49c-0.13-0.1-0.21-0.25-0.21-0.42v-1.78c0-0.21,0.21-0.31,0.42-0.21l7.73,4.49
		c0.1,0,0.21,0.21,0.21,0.42v1.78C652.56,340.88,652.35,341.09,652.24,340.98z"/>
	<path class="st2" d="M656.11,337.74l-14.94-8.67c-0.1,0-0.21-0.21-0.21-0.42v-1.78c0-0.1,0.21-0.21,0.31-0.21l14.94,8.67
		c0.17,0.07,0.29,0.23,0.31,0.42v1.78C656.53,337.74,656.32,337.85,656.11,337.74z"/>
	
		<linearGradient id="SVGID_11_" gradientUnits="userSpaceOnUse" x1="640.96" y1="318.5448" x2="652.5883" y2="318.5448" gradientTransform="matrix(1 0 0 1 0 24.1102)">
		<stop  offset="0" style="stop-color:#02E49B"/>
		<stop  offset="1" style="stop-color:#02E49B;stop-opacity:0.38"/>
	</linearGradient>
	<polygon class="st19" points="652.56,347.36 640.96,340.46 640.96,337.95 652.56,344.95 	"/>
	
		<linearGradient id="SVGID_12_" gradientUnits="userSpaceOnUse" x1="654.061" y1="318.2848" x2="660.3713" y2="318.2848" gradientTransform="matrix(1 0 0 1 0 24.1102)">
		<stop  offset="0" style="stop-color:#02E49B"/>
		<stop  offset="1" style="stop-color:#02E49B;stop-opacity:0.38"/>
	</linearGradient>
	<polyline class="st20" points="654.02,339.31 660.39,342.97 660.39,345.48 654.02,341.82 	"/>
	<path class="st8" d="M621.32,291.25l-9.19,5.43c-0.3,0.12-0.51,0.41-0.52,0.73v10.76c0,0.31,0.21,0.52,0.52,0.73l9.19,5.33
		c0.28,0.19,0.66,0.19,0.94,0l9.19-5.43c0.26-0.15,0.42-0.43,0.42-0.73v-10.66c0-0.3-0.16-0.58-0.42-0.73l-9.3-5.43
		C621.9,291.08,621.57,291.08,621.32,291.25z"/>
	<path class="st2" d="M619.02,306.61l2.51,1.36c0.21,0.09,0.33,0.3,0.31,0.52v2.19l-3.24-1.88v-1.99
		C618.6,306.61,618.81,306.4,619.02,306.61z"/>
	<path class="st2" d="M621.32,300.45l-2.4-1.46c-0.21-0.09-0.33-0.3-0.31-0.52v-2.82c0-0.21,0.21-0.42,0.42-0.31l2.51,1.46
		c0.21,0.09,0.33,0.3,0.31,0.52v2.82c-0.05,0.23-0.27,0.37-0.5,0.32C621.33,300.45,621.33,300.45,621.32,300.45z"/>
	<path class="st2" d="M627.27,302.64l-2.51-1.36c-0.16-0.13-0.27-0.32-0.31-0.52v-2.93c0-0.21,0.31-0.31,0.52-0.21l2.4,1.46
		c0.21,0.09,0.33,0.3,0.31,0.52v2.82C627.69,302.64,627.48,302.75,627.27,302.64z"/>
	<path class="st6" d="M623.09,311.21l6.27-3.66c0.14-0.1,0.18-0.29,0.09-0.43c-0.02-0.03-0.05-0.06-0.09-0.09l-7.21-4.18
		c-0.19-0.11-0.43-0.11-0.63,0l-7.31,4.18c-0.14,0.1-0.18,0.29-0.09,0.43c0.02,0.03,0.05,0.06,0.09,0.09l6.27,3.66l1.04,0.52h0.63
		L623.09,311.21z M621.53,310.06l-4.39-2.51c-0.14-0.1-0.18-0.29-0.09-0.43c0.02-0.03,0.05-0.06,0.09-0.09l4.39-2.51h0.63l4.28,2.51
		c0.14,0.1,0.18,0.29,0.09,0.43c-0.02,0.03-0.05,0.06-0.09,0.09l-4.28,2.51C621.96,310.17,621.72,310.17,621.53,310.06
		L621.53,310.06z"/>
	<path class="st2" d="M622.99,306.92l-2.51-1.36c-0.21-0.09-0.33-0.3-0.31-0.52v-2.82c-0.05-0.17,0.04-0.34,0.21-0.39
		c0.11-0.03,0.23,0,0.32,0.08l2.4,1.46c0.21,0.09,0.33,0.3,0.31,0.52v2.82C623.41,306.92,623.2,307.13,622.99,306.92z"/>
	<path class="st8" d="M647.02,368.88l-9.3,5.43c-0.24,0.21-0.39,0.51-0.42,0.84v10.66c0,0.3,0.16,0.58,0.42,0.73l9.3,5.43h0.84
		l9.3-5.54c0.28-0.13,0.45-0.42,0.42-0.73v-10.55c0.02-0.33-0.14-0.65-0.42-0.84l-9.19-5.43
		C647.65,368.78,647.32,368.78,647.02,368.88z"/>
	<path class="st6" d="M645.45,382.25l2.09-4.49c0.1-0.1,0.21-0.21,0.42-0.1l1.15,0.63c0.1,0.1,0.1,0.21,0.1,0.42l-2.09,4.49
		c-0.1,0.1-0.21,0.21-0.42,0.1l-1.15-0.63C645.47,382.55,645.44,382.4,645.45,382.25z"/>
	<path class="st2" d="M641.27,378.18l1.04,3.45c0.1,0.21,0.21,0.21,0.31,0.21l1.04-0.31c0.13-0.1,0.21-0.25,0.21-0.42l-0.73-2.51
		c-0.1-0.21,0-0.31,0.1-0.31l2.61-0.94c0.11-0.04,0.17-0.16,0.13-0.27c-0.01-0.02-0.01-0.03-0.02-0.05l-0.31-1.04
		c-0.04-0.11-0.16-0.17-0.27-0.13c-0.02,0.01-0.03,0.01-0.05,0.02l-3.34,1.15l-0.73,0.21c-0.11,0.04-0.17,0.16-0.13,0.27
		c0.01,0.02,0.01,0.03,0.02,0.05L641.27,378.18z"/>
	<path class="st2" d="M652.97,383.82l-3.34,1.15c-0.21,0.1-0.31,0-0.42-0.21l-0.31-0.94c0-0.21,0.1-0.31,0.21-0.31l2.51-0.94
		c0.21,0,0.21-0.21,0.21-0.31l-0.73-2.61c-0.06-0.1-0.04-0.23,0.06-0.29c0.01-0.01,0.03-0.02,0.05-0.02l1.04-0.31
		c0.1-0.1,0.31,0,0.31,0.21l1.04,3.34l0.21,0.73c0,0.1,0,0.31-0.21,0.31L652.97,383.82z"/>
	<path class="st7" d="M608.68,392.91l-9.3,5.43c-0.24,0.21-0.39,0.51-0.42,0.84v10.66c0,0.3,0.16,0.58,0.42,0.73l9.3,5.43
		c0.28,0.12,0.6,0.08,0.84-0.1l9.3-5.43c0.26-0.15,0.42-0.43,0.42-0.73v-10.55c0.02-0.33-0.14-0.65-0.42-0.84l-9.3-5.43
		C609.24,392.8,608.95,392.8,608.68,392.91z"/>
	<path class="st4" d="M628.32,382.88c0.1,0,0.31-0.1,0.31-0.21l3.66-9.09l1.78,0.63l-2.4,8.98h-2.19v0.94h2.93l3.45-9.61l5.12,1.36
		l4.07-7.52c0.55-1.04,0.9-2.17,1.04-3.34c0.1-3.03-1.46-3.87-1.46-3.87v-1.36c0.63-1.88,0.42-2.72,0-3.13
		c-0.24-0.21-0.6-0.21-0.84,0c-1.46,1.46-0.84,2.61-0.42,3.13c0.1,0.16,0.17,0.34,0.21,0.52l-0.21,1.57l-7.73,10.76l-3.76-0.73
		l-3.87,9.93h-1.88v0.73L628.32,382.88z"/>
	<path class="st3" d="M633.02,370.55l-2.4-2.82c-0.1-0.1-0.21-0.21-0.31-0.1l-1.88,1.25c-0.1,0.1-0.21,0.21-0.1,0.42l2.82,3.34
		c0.1,0.21,0.31,0.21,0.52,0.21h4.07l1.15-1.67c0.1-0.1,0-0.21-0.1-0.21h-3.34L633.02,370.55z"/>
	<polygon class="st21" points="630.41,367.94 632.91,370.86 631.35,372.33 628.63,369.19 	"/>
	<path class="st2" d="M643.47,361.88l1.15-0.73c0,0,1.78,0.84,1.36,4.18c-0.1,1.06-0.42,2.09-0.94,3.03l-4.07,7.52l-3.76-5.33
		L643.47,361.88z"/>
	<path class="st2" d="M645.24,361.77c0,0,2.61-5.85-1.04-6.27c0,0-0.73,0.21,0,0.94s1.36,1.57,0,5.01"/>
	<path class="st4" d="M650.68,361.15c-0.42,0.21-1.57,1.15-1.46,3.76c0.14,1.17,0.49,2.3,1.04,3.34l3.97,7.42h0.21l4.91-1.36h0.21
		l3.24,9.51h3.03v-1.04h-2.09c-0.06,0-0.1-0.05-0.1-0.1l-2.4-8.67c0-0.1,0-0.21,0.1-0.21l1.46-0.52c0-0.06,0.05-0.1,0.1-0.1
		s0.1,0.05,0.1,0.1l3.66,9.09c0,0.1,0.1,0.1,0.21,0.1l2.09-0.42v-0.63h-1.67l-3.87-9.93h-0.21l-3.55,0.73h-0.1l-7.63-10.76h-0.1
		l-0.21-1.36c0.02-0.22,0.09-0.44,0.21-0.63c0.59-0.72,0.63-1.74,0.1-2.51c-0.23-0.46-0.8-0.65-1.26-0.42
		c-0.35,0.18-0.56,0.55-0.52,0.94c0.02,0.68,0.16,1.35,0.42,1.99l0,0v1.36L650.68,361.15z"/>
	<path class="st4" d="M654.54,365.43l3.13,2.19h3.76v0.63h-4.18l-1.57-0.52L654.54,365.43z"/>
	<path class="st3" d="M662.69,362.51l-2.51,3.03h-3.87c-0.06,0-0.1,0.05-0.1,0.1l1.25,1.78h4.18c0.1,0.1,0.21,0,0.31-0.1l2.93-3.55
		c0.09-0.08,0.09-0.21,0.02-0.29c-0.01-0.01-0.01-0.01-0.02-0.02l-1.99-1.25L662.69,362.51z"/>
	<polygon class="st4" points="662.69,362.82 660.29,365.74 661.85,367.21 664.47,364.07 	"/>
	<path class="st2" d="M649.74,358.01c-0.32-0.74,0.02-1.6,0.76-1.92c0.06-0.02,0.12-0.05,0.18-0.06c0.8-0.23,1.65,0.18,1.99,0.94"/>
	<polyline class="st2" points="651.62,357.39 651.93,357.28 653.91,356.55 653.71,356.24 651.62,356.97 	"/>
	<rect x="608.68" y="399.49" class="st6" width="0.94" height="3.63"/>
	<rect x="608.68" y="405.65" class="st6" width="0.94" height="3.63"/>
	<rect x="603.35" y="402.52" class="st6" width="0.94" height="3.84"/>
	<rect x="614" y="402.52" class="st6" width="0.94" height="3.84"/>
	
		<rect x="604.53" y="405.47" transform="matrix(0.866 -0.5 0.5 0.866 -121.7368 357.5653)" class="st6" width="3.63" height="0.94"/>
	
		<rect x="606.02" y="396.76" transform="matrix(0.867 -0.4983 0.4983 0.867 -117.0721 355.8271)" class="st6" width="4.08" height="0.94"/>
	<rect x="611.16" y="397.78" transform="matrix(0.5 -0.866 0.866 0.5 -40.4288 729.5848)" class="st6" width="0.94" height="4.06"/>
	<rect x="605.84" y="407.02" transform="matrix(0.5 -0.866 0.866 0.5 -51.0932 729.5995)" class="st6" width="0.94" height="4.06"/>
	
		<rect x="609.66" y="408.63" transform="matrix(0.866 -0.5 0.5 0.866 -122.6009 360.6622)" class="st6" width="4.06" height="0.94"/>
	
		<rect x="612.94" y="401.57" transform="matrix(0.4983 -0.867 0.867 0.4983 -41.9923 734.2103)" class="st6" width="0.94" height="3.64"/>
	<rect x="605.97" y="401.12" transform="matrix(0.5 -0.866 0.866 0.5 -45.7365 726.655)" class="st6" width="0.94" height="3.63"/>
	
		<rect x="609.96" y="402.44" transform="matrix(0.866 -0.5 0.5 0.866 -119.4919 359.8776)" class="st6" width="3.63" height="0.94"/>
	<path class="st2" d="M608.99,396.77l-1.15,0.73h-0.1v1.36h0.1l1.15,0.73h0.21l1.15-0.73h0.1v-1.36c0-0.06-0.05-0.1-0.1-0.1
		l-1.15-0.73L608.99,396.77z"/>
	<path class="st2" d="M603.66,399.8l-1.15,0.73h-0.1v1.36c0,0.06,0.05,0.1,0.1,0.1l1.15,0.73h0.21l1.15-0.73c0.1,0,0.1,0,0.1-0.1
		v-1.36h-0.1l-1.15-0.73H603.66z"/>
	<path class="st2" d="M603.66,406.07l-1.15,0.63c-0.06,0-0.1,0.05-0.1,0.1v1.57l1.15,0.63h0.21l1.15-0.63c0-0.1,0.1-0.1,0.1-0.21
		v-1.36h-0.1l-1.15-0.63C603.77,405.97,603.77,405.97,603.66,406.07z"/>
	<path class="st2" d="M608.99,402.94l-1.15,0.63c0,0.1-0.1,0.1-0.1,0.21v1.36h0.1l1.15,0.63c0.1,0.1,0.1,0.1,0.21,0l1.15-0.63
		c0.06,0,0.1-0.05,0.1-0.1v-1.57l-1.15-0.63L608.99,402.94z"/>
	<path class="st2" d="M614.32,399.8l-1.15,0.73h-0.1v1.36c0,0.06,0.05,0.1,0.1,0.1l1.15,0.73h0.21l1.15-0.73
		c0.06,0,0.1-0.05,0.1-0.1v-1.36h-0.1l-1.15-0.73H614.32z"/>
	<path class="st2" d="M608.99,409.1l-1.15,0.63c-0.06,0.05-0.1,0.13-0.1,0.21v1.25c0,0.1,0.1,0.1,0.1,0.21l1.15,0.63h0.21l1.15-0.63
		c0.1-0.1,0.1-0.1,0.1-0.21v-1.25c0-0.1,0-0.21-0.1-0.21l-1.15-0.63C609.09,409,609.09,409,608.99,409.1z"/>
	<path class="st2" d="M614.42,406.07l-1.15,0.63c-0.06,0-0.1,0.05-0.1,0.1v1.57l1.15,0.63h0.1l1.15-0.63v-1.57
		c0-0.06-0.05-0.1-0.1-0.1l-1.15-0.63C614.53,405.97,614.42,405.97,614.42,406.07z"/>
	<path class="st4" d="M607.63,366.16v-1.04c0,0-1.46-2.19,0.42-2.82c0,0,1.67,0,0.63,2.72v1.15c0.68-0.12,1.33,0.34,1.45,1.02
		c0.01,0.04,0.01,0.08,0.02,0.13l1.57,4.39c0.11,0.28,0.29,0.53,0.52,0.73l3.13,2.19v1.04l-3.97-2.82l-0.31-0.31l-1.04-1.15
		l0.73,23.3c0,0.12,0.09,0.21,0.21,0.21l0,0h1.57v1.04h-2.51c-0.12,0-0.21-0.09-0.21-0.21l0,0l-0.63-14c0-0.17-0.14-0.31-0.31-0.31
		h-0.63c-0.17,0-0.31,0.14-0.31,0.31l0.42,13.79c0,0.21-0.1,0.42-0.31,0.42h-1.99V395h0.84c0.19-0.05,0.32-0.22,0.31-0.42
		l-0.73-18.07c-0.03-0.29-0.18-0.56-0.42-0.73l-1.88-1.25c-0.23-0.17-0.31-0.47-0.21-0.73
		C604.39,372.12,606.27,366.06,607.63,366.16z"/>
	<path class="st7" d="M635.21,381.62l-9.3,5.43c-0.26,0.15-0.42,0.43-0.42,0.73v10.66c0,0.33,0.15,0.64,0.42,0.84l9.3,5.33
		c0.27,0.1,0.57,0.1,0.84,0l9.3-5.43c0.24-0.21,0.39-0.51,0.42-0.84v-10.55c0.03-0.31-0.14-0.6-0.42-0.73l-9.3-5.43
		C635.81,381.41,635.45,381.41,635.21,381.62z"/>
	<path class="st6" d="M640.33,390.3c-0.73-0.1-3.76-0.52-4.91-2.82c-0.12-0.2-0.38-0.26-0.57-0.14c-0.02,0.01-0.04,0.02-0.05,0.04
		c-1.04,1.05-2.51,1.55-3.97,1.36c-0.1-0.1-0.21,0-0.21,0.1c-0.18,1.82-0.07,3.65,0.31,5.43c0.42,2.06,1.83,3.78,3.76,4.6l0,0
		c0.1,0,0.31,0.1,0.42,0c0.97-0.15,1.9-0.51,2.72-1.04c0,0,3.03-1.78,2.72-7.31C640.54,390.39,640.45,390.3,640.33,390.3z"/>
	<path class="st2" d="M638.97,391.13c-0.52-0.1-2.93-0.42-3.76-2.3c-0.08-0.09-0.21-0.09-0.29-0.02c-0.01,0.01-0.01,0.01-0.02,0.02
		c-0.82,0.83-1.98,1.22-3.13,1.04h-0.21c-0.07,1.4,0.04,2.8,0.31,4.18c0.32,1.52,1.38,2.78,2.82,3.34H635
		c0.71-0.1,1.38-0.35,1.99-0.73c0,0,2.4-1.46,2.09-5.64L638.97,391.13z"/>
	<path class="st2" d="M606.69,363.34c-0.32-0.74,0.02-1.6,0.76-1.92c0.06-0.02,0.12-0.05,0.18-0.06c0.78-0.22,1.59,0.19,1.88,0.94"
		/>
	<polyline class="st2" points="608.47,362.61 608.78,362.51 610.77,361.98 610.45,361.46 608.47,362.19 	"/>
	<polygon class="st3" points="619.12,368.98 616.41,372.33 618.18,374.31 621.42,370.45 	"/>
	<polygon class="st3" points="614,374.21 618.18,374.31 617.97,372.22 612.54,372.12 	"/>
	<polygon class="st4" points="619.12,369.3 616.62,372.33 618.29,373.79 620.9,370.55 	"/>
	<path class="st8" d="M586.11,333.98l-9.3,5.43c-0.26,0.15-0.42,0.43-0.42,0.73v10.76c0.03,0.29,0.18,0.56,0.42,0.73l9.3,5.33
		c0.28,0.19,0.66,0.19,0.94,0l9.19-5.43c0.26-0.15,0.42-0.43,0.42-0.73v-10.66c0.03-0.31-0.14-0.6-0.42-0.73l-9.19-5.43
		C586.77,333.79,586.39,333.79,586.11,333.98z"/>
	<path class="st2" d="M583.29,339.31v9.09c0,0.1,0,0.31,0.21,0.31l5.96,3.24c0.1,0.1,0.31,0,0.31-0.21v-8.78
		c0-0.16-0.08-0.32-0.21-0.42l-5.96-3.45C583.5,339,583.29,339.1,583.29,339.31z"/>
	<path class="st6" d="M587.26,344.12l-2.82-1.67l0,0v-0.73l0,0l2.93,1.67l0,0v0.84L587.26,344.12z"/>
	<path class="st6" d="M588.2,349.45l-3.76-2.19l0,0v-0.73l0,0l3.76,2.19l0,0V349.45z"/>
	<path class="st6" d="M587.26,347.25l-2.82-1.57l0,0v-0.84l0,0l2.93,1.57l0,0v0.84H587.26z"/>
	<path class="st6" d="M588.09,344.64l-0.52-0.31l0,0v-0.84l0,0l0.63,0.31l0,0v0.84H588.09z"/>
	<path class="st6" d="M586.42,345.27l-1.99-1.15l0,0v-0.73l0,0l2.09,1.04l0,0v0.73L586.42,345.27z"/>
	<path class="st6" d="M588.41,341.3l-0.94-0.52c0.11-0.19,0.11-0.43,0-0.63c-0.21-0.42-0.63-0.63-0.94-0.42
		c-0.17,0-0.31,0.14-0.31,0.31l-0.94-0.52h-0.1v1.25h0.1l3.03,1.78h0.1v-1.15V341.3z"/>
	<path class="st2" d="M590.81,340.57v3.03l0,0l1.99,1.04h0.1v-3.13l-1.99-1.15L590.81,340.57z"/>
	<path class="st2" d="M580.15,346.52v3.03h0.1l1.99,1.04c0.06,0,0.1-0.05,0.1-0.1v-2.93h-0.1l-1.88-1.15
		C580.26,346.42,580.15,346.42,580.15,346.52z"/>
	
		<linearGradient id="SVGID_13_" gradientUnits="userSpaceOnUse" x1="744.7841" y1="272.3697" x2="858.0157" y2="339.2764" gradientTransform="matrix(1 0 0 1 0 24.1102)">
		<stop  offset="0.12" style="stop-color:#53EDBB"/>
		<stop  offset="0.25" style="stop-color:#78F1CA"/>
		<stop  offset="0.43" style="stop-color:#A8F6DD"/>
		<stop  offset="0.6" style="stop-color:#CEFAEC"/>
		<stop  offset="0.75" style="stop-color:#E9FDF6"/>
		<stop  offset="0.89" style="stop-color:#F9FEFD"/>
		<stop  offset="1" style="stop-color:#FFFFFF"/>
	</linearGradient>
	<path class="st22" d="M780.75,262.21l-44.82,27.69c-1.36,0.76-2.2,2.2-2.19,3.76l-1.67,50.46c0.01,1.55,0.85,2.98,2.19,3.76
		l103.33,61.54c1.31,0.84,2.98,0.84,4.28,0l45.34-26.95c1.32-0.74,2.13-2.14,2.09-3.66l0.21-51.82c-0.01-1.55-0.85-2.98-2.19-3.76
		l-102.18-61.01C783.76,261.48,782.12,261.48,780.75,262.21z"/>
	<path class="st8" d="M737.6,61.09l-48.27,28.73c-1.27,0.78-2.06,2.16-2.09,3.66v52.34c0.01,1.55,0.85,2.98,2.19,3.76l45.24,26.12
		c1.34,0.72,2.95,0.72,4.28,0l49.52-28.1c1.27-0.78,2.06-2.16,2.09-3.66V92.12c0.04-1.51-0.77-2.92-2.09-3.66l-46.49-27.37
		C740.64,60.26,738.95,60.26,737.6,61.09z"/>
	<path class="st6" d="M778.03,94.42l4.91,2.82c0.55,0.34,0.9,0.92,0.94,1.57v7c0,0.46-0.37,0.84-0.83,0.84
		c-0.15,0-0.3-0.04-0.43-0.11l-4.81-2.72c-0.6-0.29-0.97-0.9-0.94-1.57v-7.1c0.02-0.46,0.42-0.82,0.88-0.79
		C777.85,94.36,777.95,94.38,778.03,94.42z"/>
	<path class="st6" d="M746.48,77.49l10.24,5.85c1.2,0.74,1.95,2.04,1.99,3.45v14.63c-0.02,0.98-0.84,1.76-1.82,1.73
		c-0.32-0.01-0.63-0.1-0.9-0.27l-9.93-5.54c-1.27-0.68-2.07-2-2.09-3.45V79.06c0.03-0.98,0.85-1.75,1.83-1.72
		C746.04,77.34,746.27,77.4,746.48,77.49z"/>
	<path class="st5" d="M732.38,101.11l-9.3,5.43c-0.28,0.13-0.45,0.42-0.42,0.73v10.76c0,0.3,0.16,0.58,0.42,0.73l9.3,5.33
		c0.27,0.1,0.57,0.1,0.84,0l9.3-5.43c0.21-0.19,0.36-0.45,0.42-0.73v-10.66c0-0.3-0.16-0.58-0.42-0.73l-9.3-5.43
		C732.97,100.89,732.61,100.89,732.38,101.11z"/>
	<path class="st5" d="M724.54,105.81l-9.3,5.54c-0.26,0.15-0.42,0.43-0.42,0.73v10.66c0.03,0.32,0.18,0.62,0.42,0.84l9.3,5.33h0.84
		l9.3-5.43c0.28-0.18,0.44-0.5,0.42-0.84v-10.55c0.03-0.31-0.14-0.6-0.42-0.73l-9.19-5.54C725.18,105.7,724.85,105.7,724.54,105.81z
		"/>
	<path class="st5" d="M714.41,111.87l-9.3,5.43c-0.24,0.21-0.39,0.51-0.42,0.84v10.66c0,0.3,0.16,0.58,0.42,0.73l9.3,5.43
		c0.28,0.12,0.6,0.08,0.84-0.1l9.3-5.43c0.26-0.15,0.42-0.43,0.42-0.73v-10.55c0.02-0.33-0.14-0.65-0.42-0.84l-9.3-5.43
		L714.41,111.87L714.41,111.87z"/>
	<path class="st6" d="M763.2,80.31l4.91,2.82c0.58,0.36,0.93,0.99,0.94,1.67v7c0,0.46-0.37,0.84-0.83,0.84
		c-0.15,0-0.3-0.04-0.43-0.11l-4.81-2.72c-0.61-0.33-0.98-0.98-0.94-1.67v-7c-0.03-0.46,0.31-0.86,0.77-0.9
		C762.95,80.25,763.08,80.27,763.2,80.31z"/>
	<path class="st6" d="M766.23,95.15l6.48,3.66c0.78,0.45,1.26,1.29,1.25,2.19v9.19c0.01,0.63-0.49,1.16-1.13,1.17
		c-0.19,0-0.38-0.04-0.54-0.13l-6.37-3.55c-0.78-0.45-1.26-1.29-1.25-2.19v-9.4c0.07-0.63,0.64-1.09,1.27-1.01
		C766.03,95.09,766.13,95.11,766.23,95.15z"/>
	<path class="st6" d="M778.03,93.27l4.81,2.72c0.61,0.35,1,0.97,1.04,1.67v7c-0.06,0.52-0.53,0.89-1.04,0.83
		c-0.11-0.01-0.22-0.04-0.32-0.09l-4.7-2.72c-0.58-0.33-0.97-0.91-1.04-1.57V94c0-0.46,0.37-0.84,0.83-0.84
		C777.76,93.16,777.9,93.2,778.03,93.27z"/>
	<path class="st4" d="M770.2,98.91l2.4,5.01c0.32,0.57,0.79,1.04,1.36,1.36l3.13,1.36c0.45-0.76,0.7-1.62,0.73-2.51
		c0-1.15-0.73-2.82,0.73-3.66c0.32-0.18,0.72-0.09,0.94,0.21c0.52,0.63,1.04,1.99-0.42,3.66l0.63,0.73
		c0.75,1.05,1.22,2.27,1.36,3.55l0.73,8.46l0,0c-0.71,0.75-0.95,1.84-0.63,2.82l4.39,14.52h-3.76l1.67-0.84l-2.82-6.79l-1.67-8.15
		l-1.67,5.01c-0.09,0.34-0.12,0.69-0.1,1.04l0.63,10.45h-3.55l2.09-1.25l-0.94-9.4c-0.02-0.32,0.02-0.63,0.1-0.94l1.25-5.01
		c0,0-0.94-6.58,0-10.03l-3.24-2.09c-0.41-0.2-0.74-0.53-0.94-0.94l-3.34-5.85L770.2,98.91z"/>
	<path class="st4" d="M738.33,93.48c0,0,1.25-1.36,0.94-2.4c-0.16-0.61-0.79-0.98-1.4-0.82c-0.29,0.07-0.53,0.26-0.69,0.51
		c-0.41,0.84-0.56,1.79-0.42,2.72c-2.1,2.87-3.46,6.2-3.97,9.72c0,0-0.52,3.13,1.25,9.19l2.93,8.36h2.4l-1.57-1.57
		c0,0-2.4-7.63-2.4-11.39c0-0.52,0.42-0.94,0.93-0.95c0.04,0,0.07,0,0.11,0.01h0.63c0.46,0,0.84,0.37,0.84,0.84v8.36l2.09,1.57
		l-0.73-2.09l0.73-7.73c0-0.21-0.1-0.31-0.1-0.42c-0.46-1.24-1.3-2.3-2.4-3.03c-0.32-0.16-0.52-0.48-0.52-0.84l0.52-5.22l3.87,2.4
		v-1.04l-2.51-1.78c-0.43-0.27-0.67-0.75-0.63-1.25V96.4c0.09-0.28,0.38-0.43,0.65-0.34c0.03,0.01,0.05,0.02,0.08,0.03l7.42,4.49
		v-1.15l-8.15-5.12L738.33,93.48z"/>
	<path class="st2" d="M834.03,175.28l-48.16,28.73c-1.36,0.76-2.2,2.2-2.19,3.76v51.51c-0.01,1.51,0.78,2.9,2.09,3.66l44.92,26.95
		c1.52,0.73,3.29,0.73,4.81,0l48.06-28.73c1.32-0.74,2.13-2.14,2.09-3.66v-51.82c0.03-1.54-0.77-2.97-2.09-3.76l-45.24-26.64
		C836.97,174.6,835.38,174.6,834.03,175.28z"/>
	<path class="st6" d="M827.66,258.24l-27.37-5.22c7.52-11.7,24.24-21,45.45-25.49l10.45,14.63
		C842.91,244.97,832.36,250.82,827.66,258.24z"/>
	<polyline class="st5" points="827.66,258.24 827.66,266.18 800.29,261.58 800.29,253.01 	"/>
	<path class="st3" d="M827.66,266.18c0,0,12.33-17.87,28.52-18.6v-5.43c0,0-20.48,3.76-28.52,16.09V266.18z"/>
	<path class="st5" d="M869.97,254.58l-5.85,3.45c-0.11,0.12-0.18,0.26-0.21,0.42v6.37c0.03,0.16,0.1,0.3,0.21,0.42l5.43,3.13h0.52
		l5.85-3.45l0.21-0.42v-6.27c0-0.21-0.1-0.42-0.21-0.42l-5.43-3.24C870.34,254.46,870.12,254.46,869.97,254.58z"/>
	<path class="st4" d="M869.87,247.79c-0.53-0.89-0.24-2.05,0.65-2.58c0.09-0.05,0.19-0.1,0.29-0.14c0.52-0.34,1.21-0.2,1.57,0.31
		c0.42,0.52,0.42,1.36-1.15,2.4l-1.57,9.61h-5.96v7.52h-2.19v-1.04h1.57l-0.63-7.63l3.24-0.31L869.87,247.79z"/>
	<path class="st7" d="M852.94,252.6l-5.54,3.34c-0.21,0.1-0.31,0.21-0.31,0.42v6.06c0,0.21,0.1,0.31,0.31,0.42l5.22,3.03
		c0.15,0.12,0.37,0.12,0.52,0l5.54-3.34c0.21-0.1,0.31-0.21,0.31-0.42v-5.96c0.02-0.22-0.11-0.43-0.31-0.52l-5.22-3.03L852.94,252.6
		z"/>
	<path class="st4" d="M852.94,246.01c-0.51-0.84-0.25-1.93,0.58-2.44c0.11-0.07,0.23-0.13,0.36-0.17c0.48-0.32,1.13-0.19,1.45,0.29
		c0,0.01,0.01,0.01,0.01,0.02c0.31,0.52,0.42,1.25-1.15,2.3l-1.57,9.3h-5.64v7.21h-2.19v-0.94h1.57l-0.63-7.31l3.13-0.42
		L852.94,246.01z"/>
	<path class="st8" d="M863.39,258.55l-5.75,3.45c-0.21,0.09-0.33,0.3-0.31,0.52v6.27c0,0.21,0.1,0.31,0.31,0.42l5.43,3.13h0.52
		l5.75-3.45c0.21-0.1,0.31-0.21,0.31-0.42v-6.27c0-0.21-0.1-0.31-0.31-0.42l-5.43-3.24h-0.52V258.55z"/>
	<path class="st4" d="M863.39,251.76c0,0-1.04-1.57,0.94-2.72c0.52-0.34,1.21-0.2,1.57,0.31c0.31,0.52,0.42,1.36-1.15,2.4
		l-1.67,9.61h-5.85v7.52h-2.19v-0.94h1.57l-0.63-7.63l3.24-0.42L863.39,251.76z"/>
	<path class="st5" d="M847.82,268.16l-5.75,3.45c-0.21,0.1-0.31,0.21-0.31,0.42v6.27c-0.02,0.22,0.11,0.43,0.31,0.52l5.43,3.13h0.52
		l5.75-3.45c0.21-0.09,0.33-0.3,0.31-0.52v-6.16c-0.01-0.19-0.08-0.38-0.21-0.52l-5.54-3.13
		C848.19,268.04,847.98,268.04,847.82,268.16z"/>
	<path class="st4" d="M847.82,260.64c0,0-0.94-1.46,0.94-2.61c0.5-0.23,1.1-0.1,1.46,0.31c0.42,0.52,0.52,1.36-1.04,2.3l-1.57,9.4
		h-5.75v7.21h-2.09v-0.94h1.57l-0.63-7.42l3.13-0.31L847.82,260.64z"/>
	<path class="st5" d="M888.26,263.46l-5.85,3.45c-0.13,0.14-0.2,0.33-0.21,0.52v6.27c0,0.16,0.08,0.32,0.21,0.42l5.54,3.13h0.52
		l5.75-3.45c0.13-0.1,0.21-0.25,0.21-0.42v-6.27c-0.02-0.19-0.14-0.34-0.31-0.42l-5.43-3.24
		C888.54,263.39,888.38,263.39,888.26,263.46z"/>
	<path class="st7" d="M888.88,257.3c0,0-1.15-1.57,0.94-2.72c0.48-0.32,1.13-0.19,1.45,0.29c0,0.01,0.01,0.01,0.01,0.02
		c0.42,0.52,0.52,1.36-1.15,2.4l-1.57,9.61h-5.85v7.52h-2.3v-0.94h1.67l-0.63-7.63l3.13-0.42L888.88,257.3z"/>
	<path class="st8" d="M799.55,244.24v-34.58c-0.02-1.58,0.62-3.1,1.78-4.18c6.48-5.85,30.72-23.09,92.36-21.1
		c2.09,0.06,3.76,1.77,3.76,3.87v29.88c0,1.67-1.36,3.03-3.03,3.03l0,0c-13.48-0.52-66.86-1.04-92.25,24.24
		c-0.65,0.58-1.64,0.52-2.21-0.12C799.7,244.98,799.56,244.62,799.55,244.24z"/>
	<path class="st4" d="M827.97,209.03v-1.04c-0.65-0.38-0.86-1.21-0.48-1.86c0.05-0.08,0.11-0.16,0.17-0.23
		c0.22-0.22,0.54-0.3,0.84-0.21c0.52,0.21,1.15,0.73,0.52,2.51c0,0.99,0.46,1.92,1.25,2.51c0.63,0.34,1.06,0.96,1.15,1.67l1.46,7.21
		v6.37h-1.25v-6.37l-0.94-2.72l0.63,12.12l0.94,14.1c0,0.17,0.14,0.31,0.31,0.31h1.36v1.04h-2.19c-0.17,0-0.31-0.14-0.31-0.31
		l-1.46-17.24l-0.31-0.21h-0.84c-0.12,0-0.21,0.09-0.21,0.21l0,0l0.31,8.25l0,0l1.04,8.25c0,0.17-0.14,0.31-0.31,0.31h-2.4v-1.04
		h1.04c0.1,0,0.31-0.1,0.21-0.31l-0.84-7.1l0,0l-0.42-8.57c0,0-0.21-10.45-0.52-15.25l-4.49-2.72c-0.13-0.1-0.21-0.25-0.21-0.42
		l0.52-7h0.94l-0.42,6.06c-0.02,0.22,0.11,0.43,0.31,0.52L827.97,209.03z"/>
	<polygon class="st5" points="859.52,197.43 859.52,211.22 868.51,214.46 868.51,200.57 878.23,197.01 869.35,193.88 	"/>
	<polygon class="st5" points="869.24,200.99 869.24,208.51 878.23,211.75 878.23,197.64 	"/>
	<path class="st6" d="M810.32,269.52l-5.75,3.45c-0.21,0.1-0.31,0.21-0.31,0.42v6.27c-0.02,0.22,0.11,0.43,0.31,0.52l5.43,3.13h0.52
		l5.75-3.45c0.21-0.09,0.33-0.3,0.31-0.52v-6.16c0.02-0.22-0.11-0.43-0.31-0.52l-5.43-3.13h-0.52V269.52z"/>
	<path class="st4" d="M810.32,262.63c0,0-1.04-1.57,0.94-2.72c0.54-0.22,1.15-0.09,1.57,0.31c0.31,0.63,0.42,1.46-1.15,2.4
		l-1.67,9.72h-5.85v7.52h-2.19v-1.04h1.57l-0.63-7.63l3.24-0.31L810.32,262.63z"/>
	<path class="st6" d="M831.52,278.4l-5.64,3.34c-0.11,0.12-0.18,0.26-0.21,0.42v6.06c0.01,0.19,0.08,0.38,0.21,0.52l5.33,3.03
		c0.12,0.11,0.3,0.11,0.42,0l5.64-3.34l0.21-0.42v-6.06c0-0.21,0-0.31-0.21-0.42l-5.22-3.13L831.52,278.4z"/>
	<path class="st4" d="M831.52,271.82c-0.53-0.82-0.29-1.92,0.53-2.45c0.1-0.06,0.2-0.11,0.3-0.16c0.52-0.34,1.21-0.2,1.57,0.31
		c0.31,0.52,0.42,1.36-1.15,2.3l-1.57,9.3h-5.64v7.31h-2.19v-0.94h1.57l-0.63-7.42l3.13-0.31L831.52,271.82z"/>
	<path class="st5" d="M732.69,234.73l-45.24,26.64c-1.32,0.79-2.12,2.22-2.09,3.76v52.34c-0.04,1.51,0.77,2.92,2.09,3.66
		l45.24,26.12c1.35,0.83,3.04,0.83,4.39,0l45.13-26.64c1.3-0.77,2.12-2.15,2.19-3.66v-51.82c-0.01-1.55-0.85-2.98-2.19-3.76
		l-45.24-26.64C735.63,234.04,734.03,234.04,732.69,234.73z"/>
	
		<linearGradient id="SVGID_14_" gradientUnits="userSpaceOnUse" x1="734.155" y1="282.2394" x2="734.155" y2="310.5212" gradientTransform="matrix(1 0 0 1 0 24.1102)">
		<stop  offset="0" style="stop-color:#9FF5D9"/>
		<stop  offset="1" style="stop-color:#EBFDF7"/>
	</linearGradient>
	<polyline class="st23" points="724.65,303.89 743.66,314.55 743.66,331.58 734.26,337.01 724.65,331.58 	"/>
	<path class="st7" d="M734.88,230.55l5.33,3.13c0.28,0.05,0.47,0.32,0.42,0.61c0,0.01,0,0.01,0,0.02v6.27
		c0,0.31-0.31,0.52-0.52,0.31l-5.43-3.03c-0.26-0.15-0.42-0.43-0.42-0.73v-6.27c0.03-0.23,0.23-0.39,0.46-0.37
		C734.78,230.5,734.83,230.52,734.88,230.55z"/>
	<path class="st6" d="M702.5,272.45l-5.96-3.34c-0.1-0.1-0.21-0.21-0.21-0.31v-6.9c0.04-0.11,0.16-0.17,0.27-0.13
		c0.02,0.01,0.03,0.01,0.05,0.02l5.96,3.34c0.08,0.09,0.11,0.2,0.1,0.31v6.9C702.71,272.45,702.6,272.55,702.5,272.45z"/>
	<path class="st3" d="M768.73,317.06l-34.06,19.64c-0.24,0.21-0.6,0.21-0.84,0l-34.06-19.64c-0.17,0-0.31-0.14-0.31-0.31
		c0-0.17,0.14-0.31,0.31-0.31l0,0l34.06-19.75h0.84l34.06,19.75c0.18,0,0.32,0.14,0.32,0.31S768.91,317.06,768.73,317.06
		L768.73,317.06z M741.67,339.94l39.81-22.88c0.21-0.1,0.21-0.52,0-0.73l-46.81-26.95c-0.24-0.21-0.6-0.21-0.84,0l-46.81,26.95
		c-0.21,0.21-0.21,0.63,0,0.73l39.6,22.88l7.52,4.18c0.28,0.12,0.6,0.08,0.84-0.1L741.67,339.94z"/>
	<path class="st7" d="M706.05,298.67l5.43,3.13c0.24,0.17,0.39,0.44,0.42,0.73v6.27c-0.03,0.23-0.23,0.39-0.46,0.37
		c-0.06-0.01-0.11-0.03-0.16-0.05l-5.43-3.13c-0.2-0.14-0.32-0.38-0.31-0.63v-6.27C705.53,298.78,705.84,298.57,706.05,298.67z"/>
	
		<linearGradient id="SVGID_15_" gradientUnits="userSpaceOnUse" x1="724.7" y1="240.8354" x2="724.7" y2="294.8915" gradientTransform="matrix(1 0 0 1 0 24.1102)">
		<stop  offset="0" style="stop-color:#9FF5D9"/>
		<stop  offset="1" style="stop-color:#EBFDF7"/>
	</linearGradient>
	<polyline class="st24" points="715.14,260.33 734.26,271.09 734.26,323.43 721.62,316.01 715.14,311.94 	"/>
	<path class="st4" d="M742.93,315.91l-17.66-10.24c-0.32-0.21-0.51-0.56-0.52-0.94v-20.48c0-0.42,0.42-0.63,0.84-0.42l17.66,10.24
		c0.32,0.21,0.51,0.56,0.52,0.94v20.48C743.76,315.91,743.35,316.12,742.93,315.91z"/>
	<ellipse transform="matrix(0.866 -0.5 0.5 0.866 -50.8668 404.5092)" class="st25" cx="729.37" cy="297.17" rx="1.88" ry="2.09"/>
	<ellipse transform="matrix(0.866 -0.5 0.5 0.866 -52.2085 410.001)" class="st9" cx="738.95" cy="302.42" rx="1.88" ry="2.09"/>
	
		<linearGradient id="SVGID_16_" gradientUnits="userSpaceOnUse" x1="731.432" y1="269.9989" x2="763.2347" y2="281.7003" gradientTransform="matrix(1 0 0 1 0 24.1102)">
		<stop  offset="0" style="stop-color:#02E49B"/>
		<stop  offset="1" style="stop-color:#02E49B;stop-opacity:0.38"/>
	</linearGradient>
	<polygon class="st26" points="740.84,295.95 734.15,292.09 734.15,292.09 734.15,292.09 734.15,292.09 734.15,292.09 729.87,294.6 
		732.48,296.16 734.15,295.22 738.23,297.52 738.23,299.3 739.59,300.13 740.84,299.3 	"/>
	
		<linearGradient id="SVGID_17_" gradientUnits="userSpaceOnUse" x1="763.0546" y1="296.1486" x2="729.2147" y2="278.304" gradientTransform="matrix(1 0 0 1 0 24.1102)">
		<stop  offset="0" style="stop-color:#02E49B"/>
		<stop  offset="1" style="stop-color:#02E49B;stop-opacity:0.38"/>
	</linearGradient>
	<polygon class="st27" points="735.72,303.58 734.15,304.52 730.08,302.12 730.08,302.12 730.08,302.12 730.08,300.45 
		728.72,299.51 727.36,300.45 727.36,303.69 734.15,307.66 734.15,307.66 734.15,307.66 734.15,307.66 734.15,307.66 738.44,305.15 
			"/>
	<path class="st4" d="M715.97,311.42l17.76,10.34c0.32,0.21,0.51,0.56,0.52,0.94v14.31l-19.12-11.07v-14
		c-0.06-0.28,0.11-0.56,0.4-0.62C715.69,311.28,715.85,311.32,715.97,311.42z"/>
	<path class="st8" d="M731.33,335.24c0.79-0.77,1.24-1.82,1.25-2.93v-6.69c0-0.21-0.1-0.42-0.31-0.42l-10.45-5.85h-0.42l-2.4,0.73
		h-0.1c-0.1,0.1-0.1,0.21-0.21,0.21l-2.93,5.96l5.33,3.13"/>
	<polygon class="st9" points="721.93,325.21 720.68,324.58 721.3,323.33 720.36,322.8 719.84,324.06 718.69,323.43 718.17,324.37 
		719.42,325 718.79,326.25 719.73,326.77 720.26,325.52 721.41,326.15 	"/>
	<ellipse class="st9" cx="728.72" cy="327.3" rx="0.52" ry="0.63"/>
	<ellipse class="st9" cx="727.68" cy="330.64" rx="0.52" ry="0.63"/>
	<ellipse class="st9" cx="726.63" cy="328.13" rx="0.52" ry="0.63"/>
	<ellipse class="st9" cx="729.87" cy="329.6" rx="0.52" ry="0.63"/>
	
		<linearGradient id="SVGID_18_" gradientUnits="userSpaceOnUse" x1="759.8" y1="258.4604" x2="759.8" y2="296.8243" gradientTransform="matrix(1 0 0 1 0 24.1102)">
		<stop  offset="0" style="stop-color:#9FF5D9"/>
		<stop  offset="1" style="stop-color:#EBFDF7"/>
	</linearGradient>
	<polyline class="st28" points="750.24,279.34 769.36,290 769.36,316.75 756.72,324.06 750.24,322.39 	"/>
	<path class="st6" d="M745.12,286.45l5.33,3.13c0.26,0.15,0.42,0.43,0.42,0.73v6.27c0,0.31-0.31,0.52-0.52,0.31l-5.43-3.13
		c-0.26-0.09-0.43-0.35-0.42-0.63v-6.27c-0.03-0.23,0.13-0.44,0.36-0.47C744.95,286.38,745.04,286.4,745.12,286.45z"/>
	<path class="st6" d="M750.97,320.51l5.54,3.24c0.1,0.1,0.21,0.21,0.21,0.31l-3.13,1.78l-3.03,1.88l-0.21-0.31v-6.48
		c-0.03-0.23,0.13-0.44,0.36-0.47C750.8,320.44,750.89,320.46,750.97,320.51z"/>
	<path class="st4" d="M768.53,290.42l-17.66-10.24c-0.38-0.16-0.62-0.53-0.63-0.94v-20.48c0-0.29,0.23-0.52,0.52-0.52
		c0.11,0,0.22,0.04,0.31,0.1l17.66,10.24c0.38,0.16,0.62,0.53,0.63,0.94V290c0,0.29-0.23,0.52-0.52,0.52
		C768.73,290.52,768.62,290.48,768.53,290.42z"/>
	<path class="st8" d="M765.7,279.24l-12.33-3.13c-0.1,0-0.1-0.1-0.1-0.21v-8.04c0-0.1,0.1-0.21,0.31-0.21l12.33,3.24
		c0.21,0,0.31,0.21,0.31,0.42v7.63c0.05,0.17-0.04,0.34-0.21,0.39C765.91,279.35,765.79,279.32,765.7,279.24z"/>
	<path class="st2" d="M753.59,267.64l10.66,6.16c0.13,0.1,0.21,0.25,0.21,0.42v7.84c0,0.21-0.21,0.31-0.42,0.21l-10.55-6.06
		c-0.21-0.1-0.21-0.21-0.21-0.42v-7.94C753.27,267.75,753.48,267.54,753.59,267.64z"/>
	<path class="st9" d="M761.63,275.69l2.72,1.57h0.1v1.57c0,0.06-0.05,0.1-0.1,0.1l-2.72-1.57l0,0v-1.57V275.69z"/>
	<path class="st6" d="M763.41,277.25l0.52,0.31l0,0v0.63l0,0l-0.52-0.21h-0.1v-0.63C763.3,277.36,763.41,277.15,763.41,277.25z"/>
	<path class="st4" d="M733.42,282.27l-17.66-10.24c-0.31-0.22-0.5-0.56-0.52-0.94v-20.48c0-0.42,0.42-0.73,0.73-0.52l17.76,10.24
		c0.31,0.22,0.5,0.56,0.52,0.94v20.48c0.06,0.28-0.11,0.56-0.4,0.62C733.71,282.4,733.55,282.37,733.42,282.27z"/>
	<path class="st8" d="M728.62,275.16l-8.25-4.81c-0.21-0.09-0.33-0.3-0.31-0.52V257.5c0-0.31,0.21-0.42,0.42-0.31l6.48,3.76
		l2.19,4.7v9.19c0.05,0.17-0.04,0.34-0.21,0.39C728.82,275.28,728.7,275.25,728.62,275.16z"/>
	<path class="st6" d="M726.94,260.95v3.03c0,0.21,0.1,0.42,0.31,0.42l1.99,1.25"/>
	<path class="st29" d="M725.17,271.3c0,0,0.73-1.88,1.46-2.3c0.73-0.42,0.52-0.1,0.63,0.1c0.1,0.21,0.52,1.15,0.21,3.13
		c0.34-0.52,0.77-0.97,1.25-1.36c0.23-0.09,0.49,0,0.63,0.21c0.16,0.69,0.16,1.4,0,2.09c0,0,0,0.52,0.84,0"/>
	<path class="st9" d="M724.75,263.88l-3.55-2.09c-0.12,0-0.21-0.09-0.21-0.21l0,0v-0.73c0-0.12,0.09-0.21,0.21-0.21l0,0l3.55,2.09
		c0.12,0,0.21,0.09,0.21,0.21l0,0v0.73C724.96,263.88,724.85,263.88,724.75,263.88z"/>
	<path class="st9" d="M722.56,265.03l-1.36-0.84c-0.12,0-0.21-0.09-0.21-0.21l0,0v-0.73c0-0.12,0.09-0.21,0.21-0.21l0,0l1.46,0.94
		c0.12,0,0.21,0.09,0.21,0.21l0,0v0.73c-0.04,0.11-0.16,0.17-0.27,0.13C722.59,265.05,722.57,265.04,722.56,265.03z"/>
	<path class="st9" d="M724.54,268.58l-3.55-1.99c0-0.1-0.1-0.1-0.1-0.21v-0.84c0-0.1,0.1-0.21,0.21-0.1l3.55,1.99
		c0.1,0.1,0.1,0.1,0.1,0.21v0.84C724.75,268.58,724.65,268.69,724.54,268.58z"/>
	<g class="st30">
		<path class="st4" d="M653.87,450.58h-1.03c-0.21,0-0.32-0.11-0.32-0.32v-12.7c0-0.14-0.08-0.21-0.23-0.21h-3.11
			c-0.23,0-0.34-0.11-0.34-0.32v-0.82c0-0.21,0.11-0.32,0.34-0.32h8.34c0.23,0,0.34,0.11,0.34,0.32v0.82c0,0.21-0.11,0.32-0.34,0.32
			h-3.11c-0.15,0-0.23,0.07-0.23,0.21v12.7C654.19,450.47,654.08,450.58,653.87,450.58z"/>
		<path class="st4" d="M661.16,450.58h-1.03c-0.21,0-0.32-0.11-0.32-0.32v-15.42c0-0.21,0.11-0.32,0.32-0.32h1.03
			c0.21,0,0.32,0.11,0.32,0.32v5.3h0.09c0.38-0.81,1.16-1.21,2.33-1.21h1.28c1.04,0,1.84,0.3,2.42,0.89s0.87,1.42,0.87,2.49v7.95
			c0,0.21-0.11,0.32-0.32,0.32h-1.03c-0.21,0-0.32-0.11-0.32-0.32v-7.88c0-1.32-0.64-1.99-1.92-1.99h-1.28
			c-0.69,0-1.21,0.18-1.58,0.55c-0.37,0.37-0.55,0.88-0.55,1.55v7.77C661.48,450.47,661.37,450.58,661.16,450.58z"/>
		<path class="st4" d="M679.5,450.58h-4.84c-1.05,0-1.88-0.3-2.48-0.89s-0.9-1.42-0.9-2.49v-4.89c0-1.07,0.3-1.9,0.9-2.49
			s1.43-0.89,2.48-0.89h1.92c1.05,0,1.87,0.3,2.47,0.89c0.59,0.59,0.89,1.42,0.89,2.49v2.9c0,0.23-0.11,0.34-0.32,0.34h-6.46
			c-0.15,0-0.23,0.07-0.23,0.21v1.39c0,1.32,0.64,1.99,1.92,1.99h4.66c0.21,0,0.32,0.11,0.32,0.32v0.82
			C679.82,450.48,679.71,450.58,679.5,450.58z M673.15,444.34h4.93c0.15,0,0.23-0.08,0.23-0.23v-1.76c0-1.31-0.64-1.96-1.92-1.96
			h-1.55c-1.28,0-1.92,0.65-1.92,1.96v1.76C672.92,444.27,672.99,444.34,673.15,444.34z"/>
		<path class="st4" d="M690.09,450.58h-1c-0.21,0-0.32-0.11-0.32-0.32v-14.05c0-0.21,0.11-0.32,0.32-0.32h0.94
			c0.18,0,0.3,0.06,0.37,0.18l6.3,11.08h0.09v-10.94c0-0.21,0.11-0.32,0.32-0.32h1c0.21,0,0.32,0.11,0.32,0.32v14.05
			c0,0.21-0.11,0.32-0.32,0.32h-0.84c-0.17,0-0.33-0.1-0.48-0.3l-6.28-10.96h-0.09v10.94C690.41,450.47,690.31,450.58,690.09,450.58
			z"/>
		<path class="st4" d="M709.8,450.58h-4.84c-1.05,0-1.88-0.3-2.48-0.89s-0.9-1.42-0.9-2.49v-4.89c0-1.07,0.3-1.9,0.9-2.49
			s1.43-0.89,2.48-0.89h1.92c1.05,0,1.87,0.3,2.47,0.89c0.59,0.59,0.89,1.42,0.89,2.49v2.9c0,0.23-0.11,0.34-0.32,0.34h-6.46
			c-0.15,0-0.23,0.07-0.23,0.21v1.39c0,1.32,0.64,1.99,1.92,1.99h4.66c0.21,0,0.32,0.11,0.32,0.32v0.82
			C710.12,450.48,710.02,450.58,709.8,450.58z M703.45,444.34h4.93c0.15,0,0.23-0.08,0.23-0.23v-1.76c0-1.31-0.64-1.96-1.92-1.96
			h-1.55c-1.28,0-1.92,0.65-1.92,1.96v1.76C703.22,444.27,703.3,444.34,703.45,444.34z"/>
		<path class="st4" d="M718.16,450.58h-1.96c-1.05,0-1.88-0.3-2.48-0.89s-0.9-1.42-0.9-2.49v-4.89c0-1.07,0.3-1.9,0.9-2.49
			s1.43-0.89,2.48-0.89h1.96c1.05,0,1.88,0.3,2.48,0.89s0.9,1.42,0.9,2.49v4.89c0,1.07-0.3,1.9-0.9,2.49
			S719.21,450.58,718.16,450.58z M716.38,449.12h1.6c1.28,0,1.92-0.65,1.92-1.96v-4.8c0-1.31-0.64-1.96-1.92-1.96h-1.6
			c-1.28,0-1.92,0.65-1.92,1.96v4.8C714.46,448.46,715.1,449.12,716.38,449.12z"/>
		<path class="st4" d="M740.82,435.89h1.85c0.21,0,0.32,0.11,0.32,0.32v14.05c0,0.21-0.11,0.32-0.32,0.32h-1
			c-0.21,0-0.32-0.11-0.32-0.32v-12.13h-0.09l-3.54,8.95c-0.09,0.2-0.23,0.3-0.41,0.3h-1.1c-0.2,0-0.33-0.1-0.39-0.3l-3.61-8.98
			h-0.09v12.15c0,0.21-0.1,0.32-0.3,0.32h-1c-0.21,0-0.32-0.11-0.32-0.32v-14.05c0-0.21,0.11-0.32,0.32-0.32h1.85
			c0.14,0,0.23,0.06,0.27,0.18l3.75,9.46h0.11l3.75-9.46C740.57,435.95,740.66,435.89,740.82,435.89z"/>
		<path class="st4" d="M750.71,450.58h-1.19c-1.05,0-1.88-0.3-2.48-0.89s-0.9-1.42-0.9-2.49v-4.89c0-1.07,0.3-1.9,0.9-2.49
			s1.43-0.89,2.48-0.89h4.96c0.21,0,0.32,0.11,0.32,0.32v11.01c0,0.21-0.11,0.32-0.32,0.32h-1.03c-0.21,0-0.32-0.11-0.32-0.32v-0.89
			h-0.09C752.65,450.17,751.88,450.58,750.71,450.58z M753.13,447.02v-6.42c0-0.14-0.08-0.21-0.23-0.21h-3.2
			c-1.26,0-1.9,0.66-1.9,1.99v4.75c0,1.32,0.63,1.99,1.9,1.99h1.3c0.69,0,1.21-0.18,1.58-0.55
			C752.94,448.2,753.13,447.69,753.13,447.02z"/>
		<path class="st4" d="M758.06,437.01v-2.15c0-0.21,0.1-0.32,0.3-0.32h1.05c0.21,0,0.32,0.11,0.32,0.32v2.15
			c0,0.21-0.11,0.32-0.32,0.32h-1.05C758.16,437.33,758.06,437.23,758.06,437.01z M758.06,450.26v-11.01c0-0.21,0.1-0.32,0.3-0.32
			h1.05c0.21,0,0.32,0.11,0.32,0.32v11.01c0,0.21-0.11,0.32-0.32,0.32h-1.03C758.17,450.58,758.06,450.47,758.06,450.26z"/>
		<path class="st4" d="M764.34,450.58h-1.03c-0.21,0-0.32-0.11-0.32-0.32v-11.01c0-0.21,0.11-0.32,0.32-0.32h1.03
			c0.21,0,0.32,0.11,0.32,0.32v0.89h0.09c0.38-0.81,1.16-1.21,2.33-1.21h1.28c1.04,0,1.84,0.3,2.42,0.89
			c0.58,0.59,0.87,1.42,0.87,2.49v7.95c0,0.21-0.11,0.32-0.32,0.32h-1.03c-0.21,0-0.32-0.11-0.32-0.32v-7.88
			c0-1.32-0.64-1.99-1.92-1.99h-1.28c-0.68,0-1.21,0.18-1.58,0.55c-0.37,0.37-0.55,0.88-0.55,1.55v7.77
			C764.66,450.47,764.55,450.58,764.34,450.58z"/>
		<path class="st4" d="M776.24,450.58h-1c-0.21,0-0.32-0.11-0.32-0.32v-14.05c0-0.21,0.11-0.32,0.32-0.32h0.94
			c0.18,0,0.3,0.06,0.37,0.18l6.3,11.08h0.09v-10.94c0-0.21,0.11-0.32,0.32-0.32h1c0.21,0,0.32,0.11,0.32,0.32v14.05
			c0,0.21-0.11,0.32-0.32,0.32h-0.84c-0.17,0-0.33-0.1-0.48-0.3l-6.28-10.96h-0.09v10.94C776.56,450.47,776.45,450.58,776.24,450.58
			z"/>
		<path class="st4" d="M795.95,450.58h-4.84c-1.05,0-1.88-0.3-2.48-0.89s-0.9-1.42-0.9-2.49v-4.89c0-1.07,0.3-1.9,0.9-2.49
			s1.43-0.89,2.48-0.89h1.92c1.05,0,1.87,0.3,2.47,0.89c0.59,0.59,0.89,1.42,0.89,2.49v2.9c0,0.23-0.11,0.34-0.32,0.34h-6.46
			c-0.15,0-0.23,0.07-0.23,0.21v1.39c0,1.32,0.64,1.99,1.92,1.99h4.66c0.21,0,0.32,0.11,0.32,0.32v0.82
			C796.27,450.48,796.16,450.58,795.95,450.58z M789.6,444.34h4.93c0.15,0,0.23-0.08,0.23-0.23v-1.76c0-1.31-0.64-1.96-1.92-1.96
			h-1.55c-1.28,0-1.92,0.65-1.92,1.96v1.76C789.37,444.27,789.45,444.34,789.6,444.34z"/>
		<path class="st4" d="M799.62,440.39h-1.26c-0.21,0-0.32-0.1-0.32-0.3v-0.84c0-0.21,0.11-0.32,0.32-0.32h1.26
			c0.15,0,0.23-0.07,0.23-0.21v-1.96c0-0.21,0.11-0.32,0.32-0.32h1.03c0.2,0,0.3,0.11,0.3,0.32v1.96c0,0.14,0.08,0.21,0.25,0.21
			h2.42c0.23,0,0.34,0.11,0.34,0.32v0.84c0,0.2-0.11,0.3-0.34,0.3h-2.42c-0.17,0-0.25,0.07-0.25,0.21v6.58
			c0,1.29,0.67,1.94,2.01,1.94h0.89c0.23,0,0.34,0.11,0.34,0.32v0.84c0,0.2-0.11,0.3-0.34,0.3h-1.1c-1.05,0-1.89-0.29-2.51-0.88
			s-0.94-1.41-0.94-2.46v-6.65C799.85,440.46,799.78,440.39,799.62,440.39z"/>
	</g>
	<g class="st30">
		<path class="st4" d="M546.29,475.27h1.75c0.75,0,1.3-0.15,1.63-0.46c0.33-0.31,0.5-0.82,0.5-1.52v-1.61c0-0.71-0.17-1.22-0.5-1.53
			c-0.33-0.31-0.87-0.46-1.63-0.46h-1.65c-0.73,0-1.25,0.15-1.54,0.46s-0.45,0.82-0.45,1.53v0.86c0,0.48-0.24,0.72-0.72,0.72h-2.91
			c-0.48,0-0.72-0.24-0.72-0.72v-0.93c0-1.78,0.49-3.15,1.47-4.11c0.98-0.96,2.38-1.44,4.18-1.44h3.05c1.8,0,3.2,0.48,4.18,1.44
			c0.98,0.96,1.47,2.33,1.47,4.11v1.71c0,1.92-0.9,3.16-2.71,3.74c1.8,0.39,2.71,1.63,2.71,3.74v1.75c0,1.78-0.49,3.15-1.47,4.11
			c-0.98,0.96-2.38,1.44-4.18,1.44h-3.05c-1.81,0-3.2-0.48-4.18-1.44c-0.98-0.96-1.47-2.33-1.47-4.11v-0.96
			c0-0.5,0.24-0.75,0.72-0.75h2.91c0.48,0,0.72,0.25,0.72,0.75v0.89c0,0.73,0.15,1.25,0.45,1.54c0.3,0.3,0.81,0.45,1.54,0.45h1.65
			c0.75,0,1.3-0.15,1.63-0.46c0.33-0.31,0.5-0.82,0.5-1.53v-1.68c0-0.71-0.17-1.22-0.5-1.53c-0.33-0.31-0.87-0.46-1.63-0.46h-1.75
			c-0.48,0-0.72-0.24-0.72-0.72v-2.06C545.57,475.52,545.81,475.27,546.29,475.27z"/>
		<path class="st4" d="M574.08,488.09h-2.91c-0.48,0-0.72-0.24-0.72-0.72v-7.33l-6.27-13.23c-0.09-0.21-0.09-0.38,0.02-0.53
			c0.1-0.15,0.26-0.22,0.46-0.22h3.63c0.37,0,0.64,0.24,0.82,0.72l3.43,8.33h0.24l3.36-8.33c0.16-0.48,0.43-0.72,0.82-0.72h3.63
			c0.23,0,0.39,0.07,0.5,0.21c0.1,0.14,0.1,0.32-0.02,0.55l-6.27,13.23v7.33C574.8,487.85,574.56,488.09,574.08,488.09z"/>
		<path class="st4" d="M596.25,488.09h-7.57c-1.8,0-3.2-0.48-4.18-1.44c-0.98-0.96-1.47-2.34-1.47-4.15v-6.3
			c0-1.8,0.49-3.19,1.47-4.15c0.98-0.96,2.38-1.44,4.18-1.44h2.71c1.8,0,3.2,0.48,4.18,1.44c0.98,0.96,1.47,2.34,1.47,4.15v4.35
			c0,0.48-0.24,0.72-0.72,0.72h-8.6c-0.27,0-0.41,0.13-0.41,0.38v0.75c0,0.71,0.15,1.22,0.46,1.52c0.31,0.31,0.83,0.46,1.56,0.46
			h6.92c0.48,0,0.72,0.25,0.72,0.75v2.26c0,0.25-0.05,0.43-0.15,0.53C596.71,488.03,596.52,488.09,596.25,488.09z M587.72,478.35
			h4.66c0.25,0,0.38-0.12,0.38-0.38v-1.64c0-0.73-0.15-1.25-0.45-1.54s-0.81-0.45-1.54-0.45h-1.44c-0.73,0-1.25,0.15-1.54,0.45
			s-0.45,0.81-0.45,1.54v1.64C587.34,478.23,587.46,478.35,587.72,478.35z"/>
		<path class="st4" d="M606.43,488.09h-0.82c-1.8,0-3.2-0.48-4.18-1.44c-0.98-0.96-1.47-2.34-1.47-4.15v-6.3
			c0-1.8,0.49-3.19,1.47-4.15c0.98-0.96,2.38-1.44,4.18-1.44h7.92c0.5,0,0.75,0.24,0.75,0.72v16.04c0,0.48-0.25,0.72-0.75,0.72
			h-2.88c-0.48,0-0.72-0.24-0.72-0.72v-1.13h-0.14c-0.25,0.62-0.7,1.08-1.34,1.39C607.81,487.93,607.13,488.09,606.43,488.09z
			 M609.92,481.71v-6.96c0-0.25-0.14-0.38-0.41-0.38h-3.22c-0.73,0-1.25,0.15-1.54,0.46c-0.3,0.31-0.45,0.83-0.45,1.56v5.89
			c0,0.73,0.15,1.25,0.45,1.56c0.3,0.31,0.81,0.46,1.54,0.46h1.27C609.13,484.32,609.92,483.45,609.92,481.71z"/>
		<path class="st4" d="M621.67,488.09h-2.91c-0.48,0-0.72-0.24-0.72-0.72v-16.04c0-0.48,0.24-0.72,0.72-0.72h2.91
			c0.48,0,0.72,0.24,0.72,0.72v1.17h0.14c0.25-0.62,0.7-1.08,1.34-1.41c0.64-0.32,1.31-0.48,2.02-0.48h1.23
			c0.46,0,0.69,0.24,0.69,0.72v2.36c0,0.27-0.05,0.46-0.15,0.57c-0.1,0.1-0.28,0.14-0.53,0.12h-2.36c-1.58,0-2.36,0.89-2.36,2.67
			v10.31C622.39,487.85,622.15,488.09,621.67,488.09z"/>
		<path class="st4" d="M640.18,488.09h-3.29c-0.41,0-0.55-0.24-0.41-0.72l5.41-20.59c0.16-0.48,0.5-0.72,1.03-0.72h4.56
			c0.57,0,0.91,0.24,1.03,0.72l5.41,20.59c0.14,0.48,0,0.72-0.41,0.72h-3.29c-0.25,0-0.42-0.05-0.51-0.15s-0.16-0.29-0.21-0.57
			l-0.96-3.77h-6.68l-0.96,3.77c-0.05,0.27-0.12,0.46-0.22,0.57C640.57,488.03,640.41,488.09,640.18,488.09z M645.15,470.2
			l-2.47,9.9h5.07l-2.47-9.9H645.15z"/>
		<path class="st4" d="M660.26,488.09h-2.91c-0.48,0-0.72-0.24-0.72-0.72v-16.04c0-0.48,0.24-0.72,0.72-0.72h2.91
			c0.48,0,0.72,0.24,0.72,0.72v1.13h0.14c0.5-1.23,1.62-1.85,3.36-1.85h1.1c3.59,0,5.38,1.86,5.38,5.59v11.17
			c0,0.48-0.25,0.72-0.75,0.72h-2.88c-0.48,0-0.72-0.24-0.72-0.72V476.4c0-0.73-0.15-1.25-0.46-1.56c-0.31-0.31-0.83-0.46-1.56-0.46
			h-1.23c-1.58,0-2.36,0.87-2.36,2.6v10.38C660.98,487.85,660.74,488.09,660.26,488.09z"/>
		<path class="st4" d="M678.18,488.09h-2.91c-0.48,0-0.72-0.24-0.72-0.72v-16.04c0-0.48,0.24-0.72,0.72-0.72h2.91
			c0.48,0,0.72,0.24,0.72,0.72v1.13h0.14c0.5-1.23,1.62-1.85,3.36-1.85h1.1c3.59,0,5.38,1.86,5.38,5.59v11.17
			c0,0.48-0.25,0.72-0.75,0.72h-2.88c-0.48,0-0.72-0.24-0.72-0.72V476.4c0-0.73-0.15-1.25-0.46-1.56c-0.31-0.31-0.83-0.46-1.56-0.46
			h-1.23c-1.58,0-2.36,0.87-2.36,2.6v10.38C678.9,487.85,678.66,488.09,678.18,488.09z"/>
		<path class="st4" d="M692.64,467.66v-2.98c0-0.46,0.23-0.69,0.69-0.69h2.98c0.46,0,0.69,0.22,0.69,0.65v3.02
			c0,0.46-0.23,0.69-0.69,0.69h-2.98C692.87,468.35,692.64,468.12,692.64,467.66z M692.64,487.37v-16.04c0-0.48,0.23-0.72,0.69-0.72
			h2.95c0.48,0,0.72,0.24,0.72,0.72v16.04c0,0.3-0.05,0.49-0.15,0.58c-0.1,0.09-0.28,0.14-0.53,0.14h-2.95
			C692.88,488.09,692.64,487.85,692.64,487.37z"/>
		<path class="st4" d="M700.18,470.61h3.02c0.46,0,0.73,0.24,0.82,0.72l2.95,12.88h0.24l2.88-12.88c0.09-0.48,0.38-0.72,0.86-0.72
			h3.02c0.48,0,0.65,0.24,0.51,0.72l-4.32,16c-0.09,0.5-0.4,0.75-0.93,0.75h-4.35c-0.48,0-0.79-0.25-0.93-0.75l-4.28-16
			C699.53,470.85,699.7,470.61,700.18,470.61z"/>
		<path class="st4" d="M729.86,488.09h-7.57c-1.8,0-3.2-0.48-4.18-1.44c-0.98-0.96-1.47-2.34-1.47-4.15v-6.3
			c0-1.8,0.49-3.19,1.47-4.15c0.98-0.96,2.38-1.44,4.18-1.44h2.71c1.8,0,3.2,0.48,4.18,1.44c0.98,0.96,1.47,2.34,1.47,4.15v4.35
			c0,0.48-0.24,0.72-0.72,0.72h-8.6c-0.27,0-0.41,0.13-0.41,0.38v0.75c0,0.71,0.15,1.22,0.46,1.52c0.31,0.31,0.83,0.46,1.56,0.46
			h6.92c0.48,0,0.72,0.25,0.72,0.75v2.26c0,0.25-0.05,0.43-0.15,0.53S730.13,488.09,729.86,488.09z M721.32,478.35h4.66
			c0.25,0,0.38-0.12,0.38-0.38v-1.64c0-0.73-0.15-1.25-0.45-1.54s-0.81-0.45-1.54-0.45h-1.44c-0.73,0-1.25,0.15-1.54,0.45
			s-0.45,0.81-0.45,1.54v1.64C720.95,478.23,721.07,478.35,721.32,478.35z"/>
		<path class="st4" d="M737.53,488.09h-2.91c-0.48,0-0.72-0.24-0.72-0.72v-16.04c0-0.48,0.24-0.72,0.72-0.72h2.91
			c0.48,0,0.72,0.24,0.72,0.72v1.17h0.14c0.25-0.62,0.7-1.08,1.34-1.41c0.64-0.32,1.31-0.48,2.02-0.48h1.23
			c0.46,0,0.69,0.24,0.69,0.72v2.36c0,0.27-0.05,0.46-0.15,0.57s-0.28,0.14-0.53,0.12h-2.36c-1.58,0-2.36,0.89-2.36,2.67v10.31
			C738.25,487.85,738.01,488.09,737.53,488.09z"/>
		<path class="st4" d="M752.47,488.09h-6.51c-0.46,0-0.69-0.24-0.69-0.72v-2.19c0-0.25,0.05-0.43,0.14-0.53
			c0.09-0.1,0.27-0.15,0.55-0.15h5.72c1.12,0,1.68-0.34,1.68-1.03v-0.17c0-0.55-0.47-1.07-1.41-1.58l-3.39-1.88
			c-1.17-0.59-2.02-1.23-2.57-1.92c-0.55-0.69-0.82-1.56-0.82-2.64c0-1.6,0.42-2.78,1.27-3.53s2.17-1.13,3.98-1.13h5.72
			c0.46,0,0.69,0.24,0.69,0.72v2.23c0,0.25-0.05,0.43-0.14,0.53c-0.09,0.1-0.27,0.15-0.55,0.15h-4.76c-1.12,0-1.68,0.29-1.68,0.86
			v0.17c0,0.5,0.49,1.02,1.47,1.54l3.46,2.06c1.19,0.64,2.02,1.3,2.5,1.97c0.48,0.67,0.72,1.56,0.72,2.66
			C757.85,486.56,756.06,488.09,752.47,488.09z"/>
		<path class="st4" d="M767,488.09h-0.82c-1.8,0-3.2-0.48-4.18-1.44c-0.98-0.96-1.47-2.34-1.47-4.15v-6.3c0-1.8,0.49-3.19,1.47-4.15
			c0.98-0.96,2.38-1.44,4.18-1.44h7.92c0.5,0,0.75,0.24,0.75,0.72v16.04c0,0.48-0.25,0.72-0.75,0.72h-2.88
			c-0.48,0-0.72-0.24-0.72-0.72v-1.13h-0.14c-0.25,0.62-0.7,1.08-1.34,1.39C768.39,487.93,767.71,488.09,767,488.09z M770.5,481.71
			v-6.96c0-0.25-0.14-0.38-0.41-0.38h-3.22c-0.73,0-1.25,0.15-1.54,0.46c-0.3,0.31-0.45,0.83-0.45,1.56v5.89
			c0,0.73,0.15,1.25,0.45,1.56s0.81,0.46,1.54,0.46h1.27C769.71,484.32,770.5,483.45,770.5,481.71z"/>
		<path class="st4" d="M782.25,488.09h-2.91c-0.48,0-0.72-0.24-0.72-0.72v-16.04c0-0.48,0.24-0.72,0.72-0.72h2.91
			c0.48,0,0.72,0.24,0.72,0.72v1.17h0.14c0.25-0.62,0.7-1.08,1.34-1.41c0.64-0.32,1.31-0.48,2.02-0.48h1.23
			c0.46,0,0.69,0.24,0.69,0.72v2.36c0,0.27-0.05,0.46-0.15,0.57c-0.1,0.1-0.28,0.14-0.53,0.12h-2.36c-1.58,0-2.37,0.89-2.37,2.67
			v10.31C782.97,487.85,782.73,488.09,782.25,488.09z"/>
		<path class="st4" d="M793.42,493.88h-2.19c-0.46,0-0.69-0.25-0.69-0.75v-2.3c0-0.5,0.23-0.75,0.69-0.75h0.72
			c1.44,0,2.42-0.2,2.93-0.6s0.91-1.17,1.18-2.31h-1.82c-0.43,0-0.72-0.24-0.86-0.72l-4.01-15.11c-0.14-0.48,0.03-0.72,0.51-0.72
			h3.05c0.46,0,0.74,0.24,0.86,0.72l2.95,12.64h0.14l2.91-12.64c0.09-0.48,0.38-0.72,0.86-0.72h2.88c0.57,0,0.8,0.25,0.68,0.75
			l-4.18,16.72c-0.5,1.9-1.28,3.33-2.33,4.32S795.23,493.88,793.42,493.88z"/>
	</g>
	<path class="st7" d="M882.09,322.7l-45.24,26.64c-1.35,0.78-2.18,2.21-2.19,3.76v52.34c0.01,1.53,0.85,2.93,2.19,3.66l45.24,26.12
		c1.35,0.83,3.04,0.83,4.39,0l45.13-26.64c1.32-0.74,2.13-2.14,2.09-3.66l0.21-51.82c-0.01-1.55-0.85-2.98-2.19-3.76l-45.24-26.64
		C885.11,321.98,883.46,321.98,882.09,322.7z"/>
	
		<linearGradient id="SVGID_19_" gradientUnits="userSpaceOnUse" x1="847.6104" y1="333.3997" x2="863.3551" y2="345.2682" gradientTransform="matrix(1 0 0 1 0 24.1102)">
		<stop  offset="0" style="stop-color:#53EDBB"/>
		<stop  offset="1" style="stop-color:#D1FAED"/>
	</linearGradient>
	<polygon class="st31" points="845.11,356.24 849.49,355.82 868.2,364.39 863.29,377.97 	"/>
	
		<linearGradient id="SVGID_20_" gradientUnits="userSpaceOnUse" x1="924.3323" y1="332.0774" x2="905.61" y2="339.0774" gradientTransform="matrix(1 0 0 1 0 24.1102)">
		<stop  offset="0" style="stop-color:#53EDBB"/>
		<stop  offset="1" style="stop-color:#D1FAED"/>
	</linearGradient>
	<polygon class="st32" points="926.39,356.13 921.69,364.91 908.63,370.13 897.87,358.01 	"/>
	
		<linearGradient id="SVGID_21_" gradientUnits="userSpaceOnUse" x1="886.165" y1="313.4048" x2="886.165" y2="337.3194" gradientTransform="matrix(1 0 0 1 0 24.1102)">
		<stop  offset="0" style="stop-color:#53EDBB"/>
		<stop  offset="1" style="stop-color:#D1FAED"/>
	</linearGradient>
	<polygon class="st33" points="880.73,335.45 891.6,335.76 894.63,363.45 877.7,363.45 	"/>
	
		<linearGradient id="SVGID_22_" gradientUnits="userSpaceOnUse" x1="885.595" y1="853.808" x2="885.595" y2="878.454" gradientTransform="matrix(1 0 0 -1 0 1275.2698)">
		<stop  offset="0" style="stop-color:#53EDBB"/>
		<stop  offset="1" style="stop-color:#D1FAED"/>
	</linearGradient>
	<polygon class="st34" points="880.32,423.42 890.87,423.52 894.11,394.79 877.08,394.79 	"/>
	
		<linearGradient id="SVGID_23_" gradientUnits="userSpaceOnUse" x1="847.4794" y1="376.2107" x2="869.4089" y2="363.0571" gradientTransform="matrix(1 0 0 1 0 24.1102)">
		<stop  offset="0" style="stop-color:#53EDBB"/>
		<stop  offset="1" style="stop-color:#D1FAED"/>
	</linearGradient>
	<polygon class="st35" points="850.23,406.07 845,397.09 867.46,379.54 875.2,392.49 	"/>
	<path class="st9" d="M849.91,406.07l-4.7-2.72c-0.22-0.13-0.35-0.37-0.31-0.63v-5.33c0-0.31,0.31-0.52,0.52-0.31l4.7,2.72
		c0.21,0.09,0.33,0.3,0.31,0.52v5.43c0.05,0.17-0.04,0.34-0.21,0.39C850.12,406.19,849.99,406.16,849.91,406.07z"/>
	<path class="st2" d="M880.42,423.73l5.01,2.82c0.2,0.2,0.53,0.2,0.73,0l4.49-2.51c0.2-0.11,0.28-0.37,0.16-0.57
		c-0.04-0.07-0.09-0.13-0.16-0.16l-5.01-2.82h-0.84l-4.39,2.51C880.22,423.2,880.22,423.53,880.42,423.73z"/>
	<path class="st9" d="M921.9,364.91l4.39-2.61c0.28-0.13,0.45-0.42,0.42-0.73v-5.12c0.05-0.17-0.04-0.34-0.21-0.39
		c-0.11-0.03-0.23,0-0.32,0.08l-4.39,2.61c-0.28,0.13-0.45,0.42-0.42,0.73v5.12C921.37,364.91,921.58,365.01,921.9,364.91z"/>
	<path class="st2" d="M845.21,356.34l1.99,1.15c0.21,0.1,0.42,0.21,0.63,0l1.78-0.94c0.17-0.15,0.19-0.42,0.04-0.59
		c-0.01-0.01-0.02-0.03-0.04-0.04l-1.99-1.15c-0.23-0.1-0.5-0.1-0.73,0l-1.67,1.04c-0.14,0.1-0.18,0.29-0.09,0.43
		C845.15,356.29,845.18,356.32,845.21,356.34z"/>
	
		<linearGradient id="SVGID_24_" gradientUnits="userSpaceOnUse" x1="924.455" y1="376.4216" x2="905.5657" y2="364.2501" gradientTransform="matrix(1 0 0 1 0 24.1102)">
		<stop  offset="0" style="stop-color:#53EDBB"/>
		<stop  offset="1" style="stop-color:#D1FAED"/>
	</linearGradient>
	<polygon class="st36" points="926.49,400.12 906.75,380.06 898.39,392.8 923.99,404.51 	"/>
	<path class="st2" d="M880.84,335.76l5.22,3.03c0.23,0.1,0.5,0.1,0.73,0l4.6-2.72c0.31-0.1,0.31-0.42,0-0.63l-5.22-2.93h-0.73
		l-4.6,2.61C880.63,335.34,880.63,335.66,880.84,335.76z"/>
	<path class="st2" d="M924.3,404.51l2.09-1.15c0.22-0.13,0.35-0.37,0.31-0.63v-2.3c0-0.31-0.21-0.42-0.52-0.31l-1.99,1.15
		c-0.23,0.13-0.39,0.36-0.42,0.63v2.4c0.01,0.17,0.16,0.3,0.34,0.29C924.18,404.58,924.25,404.55,924.3,404.51z"/>
	<circle class="st4" cx="886.17" cy="379.43" r="24.45"/>
	<polygon class="st25" points="876.45,373.27 876.45,387.79 885.85,391.13 885.85,376.51 895.99,372.74 886.79,369.4 	"/>
	<polygon class="st37" points="886.58,376.92 886.58,384.86 896.09,388.21 895.99,373.48 	"/>
	
		<linearGradient id="SVGID_25_" gradientUnits="userSpaceOnUse" x1="602.1359" y1="555.2112" x2="741.2882" y2="645.1237" gradientTransform="matrix(1 0 0 1 0 24.1102)">
		<stop  offset="0" style="stop-color:#EBFDF7;stop-opacity:0.18"/>
		<stop  offset="0.15" style="stop-color:#E3FCF4;stop-opacity:0.42"/>
		<stop  offset="0.3" style="stop-color:#DDFBF2;stop-opacity:0.63"/>
		<stop  offset="0.45" style="stop-color:#D8FBF0;stop-opacity:0.79"/>
		<stop  offset="0.57" style="stop-color:#D4FAEE;stop-opacity:0.9"/>
		<stop  offset="0.69" style="stop-color:#D2FAED;stop-opacity:0.97"/>
		<stop  offset="0.77" style="stop-color:#D1FAED"/>
	</linearGradient>
	<path class="st38" d="M584.86,628.82l83.79,51.3c1.38,0.75,3.05,0.71,4.39-0.1l45.13-27.16c1.34-0.72,2.15-2.14,2.09-3.66
		l0.21-51.82c-0.01-1.53-0.85-2.93-2.19-3.66l-85.04-51.19l-48.37,24.76L584.86,628.82z"/>
	<path class="st39" d="M634.27,545.34v52.45c-0.01,1.53-0.85,2.93-2.19,3.66l-47.33,27.27v-61.85l-45.87-26.12l43.78-25.28
		c1.34-0.72,2.95-0.72,4.28,0l45.34,26.22C633.52,542.49,634.27,543.86,634.27,545.34z"/>
	<polygon class="st21" points="580.89,569.47 580.89,573.86 535.12,600.19 535.12,543.35 	"/>
	
		<linearGradient id="SVGID_26_" gradientUnits="userSpaceOnUse" x1="812.5078" y1="564.0674" x2="719.9626" y2="622.4697" gradientTransform="matrix(1 0 0 1 0 24.1102)">
		<stop  offset="0" style="stop-color:#02E49B"/>
		<stop  offset="0.88" style="stop-color:#D1FAED"/>
		<stop  offset="1" style="stop-color:#EBFDF7"/>
	</linearGradient>
	<path class="st40" d="M765.7,560.28l-55.89,33.01c-1.3,0.75-2.1,2.15-2.09,3.66v52.34c0.03,1.5,0.82,2.87,2.09,3.66l45.34,26.22
		c1.34,0.76,2.98,0.72,4.28-0.1l55.79-32.91c1.32-0.74,2.13-2.14,2.09-3.66l0.21-51.82c-0.01-1.55-0.85-2.98-2.19-3.76l-45.24-26.64
		C768.72,559.56,767.08,559.56,765.7,560.28z"/>
	<path class="st7" d="M711.79,592.35L666.56,619c-1.35,0.78-2.18,2.21-2.19,3.76V675c-0.01,1.56,0.83,3,2.19,3.76l45.24,26.12
		c1.35,0.83,3.04,0.83,4.39,0l45.13-26.64c1.32-0.74,2.13-2.14,2.09-3.66l0.21-51.82c-0.01-1.55-0.85-2.98-2.19-3.76l-45.24-26.64
		C714.81,591.63,713.17,591.63,711.79,592.35z"/>
	<path class="st6" d="M702.71,643.65l12.43-7.1l0.52,0.84l-10.87,6.37c-0.1,0-0.21,0.21-0.1,0.42c0,0.06,0.05,0.1,0.1,0.1l5.12,3.03
		l-0.52,0.94l-6.69-3.87c-0.21-0.1-0.21-0.31-0.1-0.52c0-0.06,0.05-0.1,0.1-0.1v-0.11H702.71z"/>
	<path class="st6" d="M726.73,628.61c0.54-0.23,1.16-0.19,1.67,0.1h0.42l3.45-2.3c0.23-0.1,0.5-0.1,0.73,0l7.31,4.18l-0.52,0.94
		l-6.69-3.87c-0.23-0.1-0.5-0.1-0.73,0l-3.13,2.09c-0.12,0-0.21,0.09-0.21,0.21l0,0c0.01,0.6-0.31,1.16-0.84,1.46
		c-0.57,0.35-1.28,0.39-1.88,0.1c-0.08-0.09-0.21-0.09-0.29-0.02c-0.01,0.01-0.01,0.01-0.02,0.02l-6.37,3.55l-0.52-0.84l6.37-3.66
		c0.08-0.09,0.11-0.2,0.1-0.31s0.03-0.23,0.1-0.31c0-0.1-0.1-0.21-0.21-0.31l-13.69-7.94l0.52-0.94l13.79,7.84
		C726.3,628.72,726.54,628.72,726.73,628.61z"/>
	
		<rect x="695.86" y="654.74" transform="matrix(0.866 -0.5 0.5 0.866 -233.4547 439.3112)" class="st6" width="14.31" height="1.07"/>
	
		<rect x="711.53" y="615.36" transform="matrix(0.866 -0.5 0.5 0.866 -211.732 441.6089)" class="st6" width="13.27" height="1.07"/>
	
		<rect x="687.36" y="627.69" transform="matrix(0.866 -0.5 0.5 0.866 -221.1376 431.1776)" class="st6" width="13.27" height="1.07"/>
	<path class="st2" d="M719.21,612.73l4.81,2.72c0.21,0.21,0.52,0.21,0.63,0l4.39-2.4c0.16-0.13,0.2-0.35,0.1-0.52h-0.1l-4.81-2.72
		c-0.19-0.11-0.43-0.11-0.63,0l-4.28,2.51c-0.21,0-0.31,0.21-0.21,0.42C719.14,612.71,719.18,612.71,719.21,612.73z"/>
	<path class="st4" d="M687.14,619.31l15.98,9.3c0.4,0.3,0.95,0.3,1.36,0l14.63-8.36c0.3-0.22,0.38-0.62,0.21-0.94
		c0-0.1-0.1-0.21-0.21-0.31l-16.4-9.09c-0.43-0.21-0.93-0.21-1.36,0l-14.21,8.25c-0.3,0.22-0.38,0.62-0.21,0.94
		C686.93,619.2,687.03,619.2,687.14,619.31z"/>
	<path class="st4" d="M712.84,635.92l5.12,3.03c0.23,0.1,0.5,0.1,0.73,0l4.7-2.72c0.1-0.1,0.21-0.31,0.1-0.42
		c-0.1-0.1-0.1-0.1-0.1-0.21l-5.33-2.93c-0.19-0.11-0.43-0.11-0.63,0l-4.6,2.61c-0.16,0.13-0.2,0.35-0.1,0.52L712.84,635.92z"/>
	<path class="st2" d="M732.48,632.89l9.93,5.75c0.43,0.21,0.93,0.21,1.36,0l8.98-5.22c0.28-0.05,0.47-0.33,0.42-0.61
		c-0.02-0.08-0.05-0.16-0.1-0.23l-0.31-0.31l-10.13-5.64c-0.43-0.21-0.93-0.21-1.36,0l-8.78,5.01c-0.3,0.22-0.38,0.62-0.21,0.94
		C732.27,632.68,732.38,632.79,732.48,632.89z"/>
	<path class="st6" d="M693.3,674.26l6.37-3.76c0.33-0.11,0.5-0.47,0.38-0.8c-0.02-0.05-0.04-0.1-0.07-0.14l-0.31-0.21l0,0
		l-4.39-2.51l-1.04,0.63l3.87,2.3c0.12-0.03,0.23,0.04,0.26,0.16s-0.04,0.23-0.16,0.26c0,0.1,0,0.1-0.1,0.1l-6.48,3.76
		c-0.3,0.22-0.38,0.62-0.21,0.94c0,0.12,0.09,0.21,0.21,0.21l0,0l11.07,6.58l1.04-0.63l-10.55-6.27c-0.1-0.1-0.21-0.31-0.1-0.42
		L693.3,674.26z"/>
	<path class="st4" d="M673.03,660.79l15.98,9.3c0.4,0.3,0.95,0.3,1.36,0l14.63-8.36c0.3-0.22,0.38-0.62,0.21-0.94
		c0-0.1-0.1-0.21-0.21-0.31l-16.4-9.09c-0.43-0.21-0.93-0.21-1.36,0l-14.21,8.25c-0.3,0.21-0.43,0.59-0.31,0.94L673.03,660.79z"/>
	<path class="st6" d="M723.18,681.58l-1.04-0.63l-9.09,5.33c-0.08,0.09-0.21,0.09-0.29,0.02c-0.01-0.01-0.01-0.01-0.02-0.02
		l-4.81-2.82l-1.04,0.63l5.64,3.34c0.19,0.11,0.43,0.11,0.63,0l0.73-0.42l0,0L723.18,681.58z"/>
	<path class="st4" d="M713.47,676.88l15.98,9.4c0.46,0.21,1,0.21,1.46,0l14.52-8.46c0.3-0.21,0.43-0.59,0.31-0.94l-0.31-0.21
		l-16.3-9.19c-0.43-0.21-0.93-0.21-1.36,0l-14.31,8.25c-0.31,0.1-0.42,0.52-0.31,0.94L713.47,676.88z"/>
	
		<linearGradient id="SVGID_27_" gradientUnits="userSpaceOnUse" x1="718.1143" y1="243.5301" x2="718.1143" y2="228.8512" gradientTransform="matrix(1 0 0 -1 0 865.8898)">
		<stop  offset="0" style="stop-color:#02E49B;stop-opacity:0"/>
		<stop  offset="1" style="stop-color:#02E49B"/>
	</linearGradient>
	<path class="st41" d="M718.38,621.19c-0.19,0.11-0.43,0.11-0.63,0l-2.4,1.15v13.37c-0.01,0.11,0.03,0.23,0.1,0.31l2.4,1.36h0.42
		l2.4-1.36l0.21-0.31v-13.27L718.38,621.19z"/>
	
		<ellipse transform="matrix(0.8368 -0.5476 0.5476 0.8368 -234.0297 479.7166)" class="st42" cx="687.56" cy="632.37" rx="1.36" ry="1.25"/>
	<rect x="719.24" y="650.66" transform="matrix(0.5 -0.866 0.866 0.5 -206.783 950.4829)" class="st6" width="1.04" height="7.32"/>
	<path class="st2" d="M702.91,649.92l9.93,5.85c0.43,0.21,0.93,0.21,1.36,0l8.98-5.22c0.3-0.22,0.38-0.62,0.21-0.94
		c0-0.12-0.09-0.21-0.21-0.21l0,0l-10.13-5.75c-0.43-0.21-0.93-0.21-1.36,0l-8.78,5.12c-0.3,0.21-0.43,0.59-0.31,0.94L702.91,649.92
		z"/>
	
		<linearGradient id="SVGID_28_" gradientUnits="userSpaceOnUse" x1="689.535" y1="235.9554" x2="689.535" y2="201.6141" gradientTransform="matrix(1 0 0 -1 0 865.8898)">
		<stop  offset="0" style="stop-color:#02E49B;stop-opacity:0"/>
		<stop  offset="1" style="stop-color:#02E49B"/>
	</linearGradient>
	<path class="st43" d="M690.06,627.14c-0.48,0.3-1.09,0.3-1.57,0l-5.54,2.82l0.21,31.13c-0.02,0.28,0.15,0.53,0.42,0.63l5.64,3.34
		c0.28,0.12,0.6,0.08,0.84-0.1l5.64-3.13c0.24-0.17,0.39-0.44,0.42-0.73l-0.31-31.03L690.06,627.14z"/>
	
		<ellipse transform="matrix(0.8368 -0.5476 0.5476 0.8368 -241.5629 503.9634)" class="st42" cx="724.46" cy="657.13" rx="1.36" ry="1.25"/>
	<path class="st2" d="M700.09,682.62l5.12,2.93c0.23,0.1,0.5,0.1,0.73,0l4.6-2.61c0.21-0.1,0.21-0.31,0.21-0.52h-0.21l-5.22-2.93
		c-0.19-0.11-0.43-0.11-0.63,0l-4.6,2.61c-0.1,0.1-0.21,0.31-0.1,0.42C700.09,682.62,700.09,682.52,700.09,682.62z"/>
	
		<linearGradient id="SVGID_29_" gradientUnits="userSpaceOnUse" x1="729.83" y1="220.2945" x2="729.83" y2="185.9531" gradientTransform="matrix(1 0 0 -1 0 865.8898)">
		<stop  offset="0" style="stop-color:#02E49B;stop-opacity:0"/>
		<stop  offset="1" style="stop-color:#02E49B"/>
	</linearGradient>
	<path class="st44" d="M730.29,642.82c-0.44,0.31-1.03,0.31-1.46,0l-5.64,2.82l0.31,31.13c-0.06,0.28,0.12,0.56,0.4,0.62
		c0.01,0,0.01,0,0.02,0l5.54,3.34c0.27,0.1,0.57,0.1,0.84,0l5.75-3.24c0.26-0.15,0.42-0.43,0.42-0.73l-0.31-30.93L730.29,642.82z"/>
	
		<linearGradient id="SVGID_30_" gradientUnits="userSpaceOnUse" x1="940.4302" y1="483.0106" x2="821.2643" y2="565.7873" gradientTransform="matrix(1 0 0 1 0 24.1102)">
		<stop  offset="0" style="stop-color:#53EDBB"/>
		<stop  offset="0.1" style="stop-color:#57EDBD;stop-opacity:0.97"/>
		<stop  offset="0.23" style="stop-color:#63EFC1;stop-opacity:0.9"/>
		<stop  offset="0.38" style="stop-color:#76F1C9;stop-opacity:0.77"/>
		<stop  offset="0.55" style="stop-color:#91F3D4;stop-opacity:0.59"/>
		<stop  offset="0.74" style="stop-color:#B3F7E1;stop-opacity:0.37"/>
		<stop  offset="0.88" style="stop-color:#D1FAED;stop-opacity:0.18"/>
	</linearGradient>
	<path class="st45" d="M931.51,515.15l-45.24-26.64c-1.37-0.72-3.02-0.72-4.39,0l-45.34,26.64c-1.29,0.82-2.08,2.23-2.09,3.76v0.84
		l-22.88,13.48c-1.29,0.82-2.08,2.23-2.09,3.76v52.24c-0.01,1.53,0.78,2.96,2.09,3.76l45.34,26.12c1.31,0.84,2.98,0.84,4.28,0
		l55.79-32.91l0.94-0.73l13.48-7.94c1.29-0.82,2.08-2.23,2.09-3.76v-54.85C933.55,517.39,932.79,515.96,931.51,515.15z"/>
	<path class="st5" d="M881.88,436.79l-45.34,26.64c-1.29,0.82-2.08,2.23-2.09,3.76v52.24c-0.01,1.56,0.83,3,2.19,3.76l45.24,26.12
		c1.31,0.84,2.98,0.84,4.28,0l45.24-26.64c1.27-0.78,2.06-2.16,2.09-3.66v-51.82c0.03-1.54-0.77-2.97-2.09-3.76l-45.13-26.64
		C884.9,436.06,883.26,436.06,881.88,436.79z"/>
	<path class="st3" d="M897.03,536.56l26.33-14.73c0.36-0.45,0.29-1.11-0.17-1.47c-0.05-0.04-0.1-0.07-0.15-0.1l-26.01-13.9V536.56z"
		/>
	<path class="st3" d="M844.79,524.03l7,4.07c0.36,0.21,0.79,0.21,1.15,0l6.37-3.66c0.26-0.23,0.28-0.63,0.06-0.88
		c-0.02-0.02-0.04-0.04-0.06-0.06l-7.21-3.97c-0.36-0.21-0.79-0.21-1.15,0l-6.16,3.55c-0.26,0.13-0.37,0.44-0.24,0.7
		C844.6,523.89,844.69,523.97,844.79,524.03z"/>
	<path class="st3" d="M864.64,545.55l7,4.07c0.36,0.21,0.79,0.21,1.15,0l6.37-3.66c0.26-0.23,0.28-0.63,0.06-0.88
		c-0.02-0.02-0.04-0.04-0.06-0.06l-7.31-3.97c-0.32-0.21-0.73-0.21-1.04,0l-6.16,3.55c-0.26,0.12-0.39,0.41-0.27,0.68
		C864.42,545.41,864.52,545.5,864.64,545.55z"/>
	<path class="st3" d="M896.2,547.64l7,4.18c0.38,0.11,0.77,0.11,1.15,0l6.37-3.76c0.31-0.21,0.31-0.73,0-0.84l-7.21-4.07
		c-0.36-0.21-0.79-0.21-1.15,0l-6.16,3.55c-0.26,0.22-0.31,0.61-0.08,0.87C896.14,547.6,896.16,547.62,896.2,547.64z"/>
	<path class="st3" d="M925.24,539.8l7.1,4.07c0.32,0.21,0.73,0.21,1.04,0l6.37-3.66c0.26-0.13,0.37-0.44,0.24-0.7
		c-0.05-0.11-0.14-0.19-0.24-0.24l-7.21-4.07c-0.35-0.12-0.73-0.08-1.04,0.1l-6.27,3.55c-0.26,0.23-0.28,0.63-0.05,0.89
		C925.21,539.77,925.22,539.78,925.24,539.8z"/>
	<path class="st7" d="M845,524.24l7,3.97c0.23,0.17,0.56,0.13,0.73-0.1c0.07-0.09,0.1-0.2,0.1-0.31v-8.04
		c-0.01-0.38-0.2-0.73-0.52-0.94l-6.9-4.07c-0.23-0.18-0.55-0.14-0.73,0.08c-0.1,0.12-0.14,0.29-0.1,0.44v8.04
		C844.58,523.65,844.73,524,845,524.24z"/>
	<path class="st6" d="M896.4,547.85l7,3.97c0.42,0.21,0.84,0,0.84-0.42v-8.04c-0.01-0.38-0.2-0.73-0.52-0.94l-6.9-3.97
		c-0.23-0.17-0.56-0.13-0.73,0.1c-0.07,0.09-0.1,0.2-0.1,0.31v8.04C895.97,547.27,896.13,547.62,896.4,547.85z"/>
	<path class="st6" d="M864.85,545.65l7,4.07c0.26,0.12,0.57,0,0.69-0.26c0.02-0.05,0.04-0.1,0.04-0.15v-8.15
		c-0.02-0.35-0.22-0.66-0.52-0.84l-6.9-4.07c-0.23-0.18-0.55-0.14-0.73,0.08c-0.1,0.12-0.14,0.29-0.1,0.44v8.04
		C864.33,545.17,864.53,545.5,864.85,545.65z"/>
	<path class="st7" d="M925.55,539.91l6.9,4.07c0.23,0.17,0.56,0.13,0.73-0.1c0.07-0.09,0.1-0.2,0.1-0.31v-8.15
		c-0.02-0.35-0.22-0.66-0.52-0.84l-7-4.07c-0.26-0.12-0.57,0-0.69,0.26c-0.02,0.05-0.04,0.1-0.04,0.15v8.15
		C925.03,539.43,925.24,539.75,925.55,539.91z"/>
	<circle class="st7" cx="895.88" cy="452.56" r="12.85"/>
	<path class="st46" d="M887.73,497.18c3.66-2.35,5.86-6.41,5.85-10.76c0.2-7.1-5.39-13.01-12.48-13.22
		c-7.1-0.2-13.01,5.39-13.22,12.48l0,0L887.73,497.18z"/>
	<polygon class="st5" points="890.87,448.91 890.87,456.74 895.88,458.52 895.88,450.68 901.42,448.59 896.4,446.82 	"/>
	<polygon class="st5" points="896.3,450.89 896.3,455.18 901.42,456.95 901.42,449.01 	"/>
	<polygon class="st25" points="875.4,483.39 875.4,491.22 880.52,493.1 880.52,485.16 885.96,483.18 881.05,481.4 	"/>
	<polygon class="st25" points="880.94,485.37 880.94,489.65 885.96,491.53 885.96,483.49 	"/>
	<path class="st4" d="M876.55,525.7l13.06,7.52l0,0l5.96,3.34c0.43,0.29,1.02,0.17,1.3-0.26c0.11-0.17,0.17-0.37,0.16-0.58v-32.18
		c-0.04-0.64-0.39-1.23-0.94-1.57l-43.36-25.07c-0.53-0.23-1.14,0-1.38,0.53c-0.04,0.1-0.07,0.2-0.08,0.31v32.39
		c-0.03,0.66,0.34,1.28,0.94,1.57l5.96,3.45c0.12,0.2,0.37,0.27,0.57,0.16c0.2-0.12,0.27-0.37,0.16-0.57l0,0V507
		c0-0.42,0.52-0.63,0.84-0.52l6.9,4.07c0.32,0.21,0.51,0.56,0.52,0.94v8.25"/>
	<path class="st2" d="M885.85,510.13l11.07,6.37c0.1,0.1,0.21,0.21,0.21,0.31v6.58c-0.04,0.11-0.16,0.17-0.27,0.13
		c-0.02-0.01-0.03-0.01-0.05-0.02l-11.07-6.27c-0.1-0.1-0.21-0.21-0.21-0.31v-6.69c0.04-0.11,0.16-0.17,0.27-0.13
		C885.82,510.11,885.84,510.12,885.85,510.13z"/>
	<path class="st6" d="M892.85,516.19l2.19,1.25c0.1,0.1,0.21,0.21,0.21,0.31v2.51c0,0.21-0.21,0.21-0.31,0.21l-2.09-1.25l-0.21-0.31
		v-2.51C892.64,516.28,892.74,516.19,892.85,516.19z"/>
	<path class="st3" d="M837.27,547.64l7,4.18c0.38,0.11,0.77,0.11,1.15,0l6.37-3.76c0.31-0.21,0.31-0.73,0-0.84l-7.21-4.07
		c-0.36-0.21-0.79-0.21-1.15,0l-6.16,3.55c-0.25,0.14-0.35,0.46-0.21,0.72C837.11,547.51,837.18,547.58,837.27,547.64z"/>
	<path class="st5" d="M837.48,547.85l7,3.97c0.23,0.17,0.56,0.13,0.73-0.1c0.07-0.09,0.1-0.2,0.1-0.31v-8.04
		c-0.01-0.38-0.2-0.73-0.52-0.94l-6.9-3.97c-0.42-0.21-0.84,0-0.84,0.42v8.04C837.05,547.27,837.2,547.62,837.48,547.85z"/>
	<path class="st2" d="M810.94,533.95l-45.24,26.64c-1.34,0.73-2.19,2.13-2.19,3.66v52.34c0.01,1.55,0.85,2.98,2.19,3.76l45.24,26.12
		c1.37,0.72,3.02,0.72,4.39,0l45.13-26.64c1.32-0.79,2.12-2.22,2.09-3.76v-51.82c0.04-1.51-0.77-2.92-2.09-3.66l-45.13-26.64
		C813.99,533.12,812.29,533.12,810.94,533.95z"/>
	<path class="st3" d="M782.21,617.64l45.45-25.91l26.01,15.25c0.92,0.59,1.19,1.82,0.6,2.74c-0.15,0.24-0.36,0.45-0.6,0.6
		l-40.12,22.88c-1.49,0.84-3.31,0.84-4.81,0L782.21,617.64z"/>
	<path class="st4" d="M781.17,575.32l-7.63,4.49c-1.03,0.52-2.29,0.11-2.81-0.92c-0.13-0.27-0.21-0.56-0.22-0.85v-8.88
		c-0.02-1.53,0.83-2.95,2.19-3.66l7.63-4.49c1.03-0.52,2.29-0.11,2.81,0.92c0.13,0.27,0.21,0.56,0.22,0.85v8.88
		C783.35,573.2,782.51,574.6,781.17,575.32z"/>
	<path class="st4" d="M823.9,550.98l-28.84,16.51v12.01c-0.01,1.53-0.85,2.93-2.19,3.66l-10.66,6.16v28.31l45.45-25.91v-38.55
		c0.01-1.38-1.1-2.52-2.48-2.53C824.73,550.64,824.29,550.76,823.9,550.98z"/>
	<path class="st8" d="M831.11,646.47l16.51-9.61c0.52-0.3,0.84-0.86,0.84-1.46v-24.55c0-0.52-0.43-0.94-0.95-0.93
		c-0.14,0-0.28,0.03-0.41,0.1l-12.75,7.42l-4.6,9.61v18.6c0,0.52,0.43,0.94,0.95,0.93C830.84,646.57,830.98,646.54,831.11,646.47z"
		/>
	<path class="st9" d="M834.35,617.43v6.37c0,0.35-0.2,0.68-0.52,0.84l-4.18,2.4"/>
	<path class="st7" d="M840.93,631.53l-1.88-4.18h-0.42l-1.04,0.63c-0.08,0.09-0.11,0.2-0.1,0.31l1.99,4.18
		c0.04,0.11,0.16,0.17,0.27,0.13c0.02-0.01,0.03-0.01,0.05-0.02l1.04-0.63C840.93,631.74,841.03,631.64,840.93,631.53z"/>
	<path class="st7" d="M844.79,627.77l-0.94,3.13c-0.1,0.21-0.21,0.21-0.31,0.21l-0.94-0.31c-0.1,0-0.21-0.21-0.21-0.31l0.73-2.4
		c0-0.1,0-0.21-0.21-0.31l-2.3-0.73c-0.1-0.1-0.21-0.21-0.1-0.31l0.21-0.94l0.31-0.21l3.13,1.04l0.63,0.21
		c0.1,0.1,0.21,0.21,0.1,0.31L844.79,627.77z"/>
	<path class="st7" d="M834.03,633l3.13,1.04c0.1,0,0.31,0,0.31-0.21l0.31-0.94c0-0.1-0.1-0.21-0.21-0.31l-2.3-0.73
		c-0.1-0.1-0.21-0.21-0.21-0.31l0.73-2.4c0-0.1,0-0.31-0.21-0.31l-0.84-0.31c-0.21,0-0.31,0.1-0.31,0.21l-0.94,3.13l-0.21,0.63
		c-0.1,0.1,0,0.21,0.1,0.31L834.03,633z"/>
	<path class="st6" d="M806.24,570.94l11.81-6.9c0.39-0.2,0.63-0.61,0.63-1.04v-17.55c-0.01-0.35-0.3-0.62-0.65-0.61
		c-0.1,0-0.2,0.03-0.29,0.08l-9.09,5.33l-3.24,6.79v13.27C805.41,570.83,805.82,571.15,806.24,570.94z"/>
	<path class="st9" d="M808.64,550.25v4.49c0.01,0.25-0.11,0.48-0.31,0.63l-2.93,1.67"/>
	<path class="st8" d="M812.72,604.68l11.7-6.79c0.39-0.2,0.63-0.61,0.63-1.04V579.3c-0.01-0.35-0.3-0.62-0.65-0.61
		c-0.1,0-0.2,0.03-0.29,0.08l-9.09,5.22l-3.24,6.9v13.27c0.01,0.35,0.3,0.62,0.65,0.61C812.53,604.76,812.63,604.73,812.72,604.68z"
		/>
	<path class="st9" d="M815.02,584v4.6c-0.02,0.24-0.13,0.47-0.31,0.63l-2.93,1.67"/>
	<path class="st6" d="M854.93,593.5l-16.51-9.5c-0.52-0.3-0.84-0.86-0.84-1.46v-24.66c0-0.46,0.37-0.84,0.83-0.84
		c0.15,0,0.3,0.04,0.43,0.11l12.85,7.42l4.49,9.61v18.6c0,0.46-0.37,0.84-0.83,0.84C855.2,593.62,855.06,593.58,854.93,593.5z"/>
	<path class="st9" d="M851.69,564.56v6.37c0.03,0.32,0.18,0.62,0.42,0.84l4.18,2.4"/>
	<path class="st7" d="M846.88,578.56V577c0.05-0.23,0.27-0.37,0.5-0.32c0.01,0,0.02,0,0.03,0.01l3.55,1.99
		c0.08,0.09,0.11,0.2,0.1,0.31v1.67c0,0.21-0.21,0.42-0.42,0.21l-3.55-1.99L846.88,578.56z"/>
	<path class="st7" d="M846.46,574.07l-1.25-4.07c0-0.21-0.21-0.31-0.42-0.21l-1.15,0.42c-0.21,0-0.31,0.21-0.21,0.42l0.84,3.03
		c0.1,0.21,0,0.42-0.21,0.42l-3.03,1.04c-0.15,0.08-0.23,0.25-0.21,0.42l0.42,1.25c0,0.21,0.21,0.31,0.42,0.21l4.07-1.36l0.73-0.31
		c0.21,0,0.31-0.21,0.21-0.42L846.46,574.07z"/>
	<path class="st7" d="M820.03,593.82l-1.36-3.03c-0.1-0.1-0.21-0.21-0.31-0.1l-0.84,0.42c0,0.1-0.1,0.21,0,0.31l1.36,3.03
		c0.1,0.1,0.21,0.21,0.31,0.1l0.73-0.42C820.03,594.03,820.14,593.92,820.03,593.82z"/>
	<path class="st7" d="M822.85,591.1l-0.63,2.3c0,0.1-0.21,0.21-0.21,0.1l-0.73-0.21c-0.1,0-0.21-0.1-0.1-0.21l0.52-1.78
		c0-0.1,0-0.21-0.1-0.21l-1.78-0.63c-0.1,0-0.21-0.1-0.1-0.21l0.21-0.73c0-0.1,0.1-0.1,0.21-0.1l2.3,0.84h0.52
		c0.1,0,0.1,0.1,0.1,0.21L822.85,591.1z"/>
	<path class="st7" d="M814.91,594.97l2.3,0.73c0.1,0.1,0.21,0,0.21-0.1l0.31-0.73c0-0.12-0.09-0.21-0.21-0.21l0,0l-1.67-0.63
		c-0.1,0-0.21-0.1-0.1-0.21l0.52-1.78c0-0.12-0.09-0.21-0.21-0.21l0,0l-0.63-0.21h-0.31l-0.63,2.4l-0.21,0.42
		c0,0.12,0.09,0.21,0.21,0.21l0,0L814.91,594.97z"/>
	<path class="st6" d="M800.7,634.25l-11.7-6.79c-0.34-0.24-0.53-0.63-0.52-1.04v-17.45c-0.06-0.28,0.11-0.56,0.4-0.62
		c0.15-0.03,0.32,0,0.44,0.1l9.09,5.33l3.24,6.79v13.16c-0.01,0.35-0.3,0.62-0.65,0.61C800.89,634.33,800.79,634.3,800.7,634.25z"/>
	<path class="st9" d="M798.41,613.77v4.49c-0.02,0.22,0.11,0.43,0.31,0.52l2.93,1.78"/>
	<path class="st7" d="M813.35,560.28l-1.36-3.13h-0.31l-0.73,0.52c-0.1,0-0.1,0.1-0.1,0.21l1.46,3.13c0,0.1,0.1,0.1,0.21,0.1
		l0.84-0.52C813.45,560.49,813.45,560.38,813.35,560.28z"/>
	<path class="st7" d="M816.27,557.46l-0.73,2.4c0,0.1-0.1,0.1-0.21,0.1l-0.73-0.21c-0.08-0.09-0.11-0.2-0.1-0.31l0.52-1.67
		c0.01-0.11-0.03-0.23-0.1-0.31l-1.78-0.52c-0.08-0.09-0.11-0.2-0.1-0.31l0.21-0.63c0-0.1,0.1-0.21,0.21-0.1l2.3,0.73l0.52,0.21
		c0.1,0,0.1,0.1,0.1,0.21L816.27,557.46z"/>
	<path class="st7" d="M808.23,561.32l2.3,0.84h0.31l0.21-0.73c0-0.1,0-0.21-0.1-0.21l-1.78-0.63c-0.1,0-0.21-0.1-0.1-0.21l0.52-1.78
		c0-0.1,0-0.21-0.1-0.21l-0.73-0.31c-0.12,0-0.21,0.09-0.21,0.21l0,0l-0.73,2.3v0.42c-0.1,0.1,0,0.21,0.1,0.31L808.23,561.32
		L808.23,561.32z"/>
	<path class="st7" d="M794.85,624.95v-1.15c0-0.1,0.21-0.21,0.42-0.1l2.4,1.36c0.1,0,0.1,0.1,0.1,0.21v1.15c0,0.1-0.1,0.21-0.31,0.1
		l-2.51-1.36C794.96,625.06,794.85,625.06,794.85,624.95z"/>
	<path class="st7" d="M794.64,621.82L793.7,619c0-0.1-0.1-0.21-0.21-0.1l-0.84,0.21c-0.21,0.1-0.21,0.21-0.21,0.31l0.63,2.19
		c0.1,0.1,0,0.21-0.1,0.21l-2.19,0.73c-0.08,0.09-0.11,0.2-0.1,0.31l0.31,0.84c0,0.12,0.09,0.21,0.21,0.21l0,0l2.82-1.04h0.63
		c0.1-0.1,0.21-0.21,0.1-0.31L794.64,621.82z"/>
	<path class="st4" d="M858.79,577.52c0,0-1.36-2.82,0.84-3.34c0,0,2.09,0.52,0.52,3.34c0,0-0.31,1.25,0.21,1.78
		c0.52,0.52,2.19,0.94,1.57,10.03l-0.52,8.36l0.21,11.6l1.57,10.13l-4.81,0.31v-1.04l2.82-0.42l-0.84-8.57l-1.99-10.55l-1.46,7.63
		v12.96h-3.55v-1.46h1.67v-11.49l0.63-11.91c0,0,0.94-9.82,0.42-11.6l-3.97-3.97l-2.19-4.07l0.94-0.21l2.19,3.66l3.97,3.03
		c0.46-1.02,1.06-1.96,1.78-2.82C858.92,578.43,858.93,577.96,858.79,577.52z"/>
	<path class="st4" d="M794.44,628.71c-0.42,0.31-2.19,1.67-0.94,6.06l0,0l4.6,8.57h0.1l4.91-1.36c0.1,0,0.21,0,0.21,0.1l3.34,9.4
		c0,0.1,0,0.1,0.1,0.1h2.82v-1.04h-2.09c-0.06,0-0.1-0.05-0.1-0.1l-2.4-8.67h0.1l1.57-0.63h0.21l3.66,9.09c0,0.06,0.05,0.1,0.1,0.1
		l2.09-0.42v-0.63h-1.46c-0.06,0-0.1-0.05-0.1-0.1l-3.97-9.82c0-0.06-0.05-0.1-0.1-0.1l-3.55,0.73h-0.21l-7.63-10.66l0,0l-0.31-1.67
		c0-0.1,0-0.1,0.1-0.21c0.67-0.71,0.76-1.8,0.21-2.61c-0.32-0.41-0.92-0.47-1.32-0.15c-0.2,0.16-0.33,0.41-0.35,0.67
		c0.03,0.64,0.13,1.27,0.31,1.88l0,0l0.21,1.25c0.06,0.03,0.08,0.1,0.05,0.16C794.56,628.72,794.49,628.74,794.44,628.71z"/>
	<polygon class="st3" points="806.55,629.97 803.73,633.31 805.61,635.4 808.85,631.43 	"/>
	<polygon class="st3" points="801.44,635.19 805.61,635.4 805.3,633.2 799.97,633.2 	"/>
	<polygon class="st4" points="806.55,630.38 804.05,633.31 805.72,634.77 808.33,631.64 	"/>
	<path class="st2" d="M793.6,625.68c-0.32-0.74,0.02-1.6,0.76-1.92c0.06-0.02,0.12-0.05,0.18-0.06c0.68-0.31,1.49,0,1.79,0.68
		c0.04,0.08,0.07,0.17,0.09,0.26"/>
	<polyline class="st2" points="795.38,624.95 795.69,624.85 797.67,624.22 797.36,623.8 795.38,624.43 	"/>
	<path class="st8" d="M621.32,320.19c0.35,0.38,0.95,0.4,1.33,0.05c0.05-0.05,0.09-0.1,0.13-0.15l3.24-0.21l0.31,1.15l-0.94,0.31
		c-0.22,0.1-0.37,0.29-0.42,0.52l-0.21,9.72l-4.07,0.21l-2.19-4.49c-0.09-0.27-0.12-0.55-0.1-0.84l1.04-5.75
		c0-0.23,0.19-0.42,0.42-0.42l0,0L621.32,320.19z"/>
	<path class="st6" d="M827.97,209.03l-4.6-1.36c-0.17,0-0.31-0.14-0.31-0.31l0.31-4.28h-0.94l-0.42,5.33
		c-0.01,0.11,0.03,0.23,0.1,0.31l4.6,2.72l0.42,8.46v4.07l3.87,0.21l-0.31-7l0.73,2.19c0,0.21,0.1,0.42,0.1,0.63v4.18h1.25v-4.28
		c0.02-0.15-0.02-0.3-0.1-0.42l-1.36-7c-0.11-0.68-0.48-1.28-1.04-1.67c-0.44-0.4-0.82-0.86-1.15-1.36l0,0l-0.63,0.42L827.97,209.03
		z"/>
	<path class="st2" d="M828.39,209.87c0,0.29,0.07,0.58,0.21,0.84c0,0,0.42-0.1,0.42-0.73L828.39,209.87z"/>
	<polygon class="st2" points="828.6,210.7 827.97,211.75 828.6,216.45 829.23,211.96 	"/>
	<path class="st25" d="M777.82,104.45h1.25l0.73,0.84c0.72,0.94,1.15,2.06,1.25,3.24l0.73,8.67h-5.22c0,0-0.63-5.75,0-8.04
		c0.1-0.32-0.03-0.66-0.31-0.84l-3.03-1.88l-0.52-0.63l-2.4-4.07l0.84-0.73l1.99,3.55c0.22,0.41,0.6,0.71,1.04,0.84l2.93,0.73
		L777.82,104.45z"/>
	<path class="st4" d="M718.48,104.66c0,0-1.25-1.04-0.73-1.57c0.52-0.52,0.84-3.13-1.67-3.24c0,0-2.09,0.84,0,3.76
		c0,0,0.1,1.78-0.94,1.99s-1.46,1.25,0,3.66l3.34,9.82h3.34c0,0,1.78,3.45,0.94,5.85c0,0,6.27,1.25,9.19-1.25s1.57-2.61,1.57-2.61
		l-10.03-5.22l-3.24-8.46l3.13,2.09l3.45-3.34l-0.94-0.73l-2.4,2.61L718.48,104.66z"/>
	<path class="st4" d="M704.06,106.75c0,0,1.88-1.57-0.63-2.51c0,0-2.4,0.63-0.63,2.51c0.23,1.14,0.2,2.32-0.1,3.45
		c0,0-2.19,1.57-1.46,8.36l-2.09,7.63c0,0,1.99,1.78,2.72,1.25v9.09h-2.3l0.21,1.25h3.34l-0.21-10.45l1.25-0.31l0.63,10.76h2.72
		v-0.94h-1.78l-0.31-9.82c0,0,2.61-0.73,2.93-1.36c0.31-0.63-2.61-4.28-2.4-6.16c0,0-0.1-8.04-0.63-9.3
		C704.79,108.94,703.54,108.63,704.06,106.75z"/>
	<polygon class="st7" points="710.75,123.99 731.12,135.69 731.12,138.51 710.75,126.7 	"/>
	<polygon class="st6" points="768.42,113.75 731.12,135.69 731.12,138.51 768.42,116.15 	"/>
	<polygon class="st6" points="732.79,155.43 731.12,156.37 731.12,138.51 732.79,137.57 	"/>
	<polygon class="st5" points="729.76,155.54 731.12,156.37 731.12,138.51 729.76,137.78 	"/>
	<polygon class="st6" points="768.42,134.02 766.75,134.96 766.75,117.19 768.42,116.15 	"/>
	<polygon class="st5" points="765.5,134.12 766.75,134.85 766.75,117.09 765.5,117.93 	"/>
	<polygon class="st6" points="713.68,144.36 712.11,145.3 712.11,127.54 713.68,128.37 	"/>
	<polygon class="st5" points="710.75,144.57 712.11,145.3 712.11,127.54 710.75,126.7 	"/>
	<polygon class="st6" points="710.75,123.99 731.12,135.69 768.42,113.75 747.63,102.05 	"/>
	<path class="st7" d="M717.12,135.58l-9.3,5.43c-0.28,0.13-0.45,0.42-0.42,0.73v10.76c0,0.3,0.16,0.58,0.42,0.73l9.3,5.33
		c0.24,0.21,0.6,0.21,0.84,0l9.3-5.43c0.24-0.17,0.39-0.44,0.42-0.73v-10.66c0-0.3-0.16-0.58-0.42-0.73l-9.3-5.43
		C717.72,135.37,717.36,135.37,717.12,135.58z"/>
	<path class="st7" d="M768.84,123.67l-9.3,5.43c-0.28,0.13-0.45,0.42-0.42,0.73v10.76c0,0.3,0.16,0.58,0.42,0.73l9.3,5.33
		c0.24,0.21,0.6,0.21,0.84,0l9.3-5.43c0.24-0.17,0.39-0.44,0.42-0.73v-10.66c0-0.3-0.16-0.58-0.42-0.73l-9.3-5.43
		C769.44,123.46,769.08,123.46,768.84,123.67z"/>
	<path class="st4" d="M761,112.08c0,0-3.24-2.72,0-3.45c0,0,1.99-0.1,1.67,3.45l1.46,1.36c1.38,1.38,2.42,3.06,3.03,4.91l1.57,5.12
		c0.31,0.75-0.01,1.61-0.73,1.99c-0.83,0.61-1.8,1.01-2.82,1.15h-5.12c-0.17-0.05-0.34,0.04-0.39,0.21c-0.03,0.11,0,0.23,0.08,0.32
		l4.07,9.93l-2.82,0.84l0.84-1.78l-4.28-10.03c-0.08-0.2,0.02-0.43,0.21-0.52l4.6-0.73c0.46-0.04,0.8-0.45,0.76-0.91
		c0-0.05-0.01-0.09-0.02-0.14l-1.04-8.15l-1.15,3.97c-0.07,0.4-0.45,0.66-0.85,0.59c-0.07-0.01-0.13-0.03-0.19-0.06l-3.97-1.36
		c-0.46-0.17-0.83-0.5-1.04-0.94l-1.99-5.33h0.94l1.78,4.28c0.15,0.48,0.55,0.85,1.04,0.94l2.19,0.73c0.38,0.13,0.8-0.08,0.92-0.46
		c0.01-0.02,0.01-0.04,0.02-0.06C760.41,116.03,760.83,114.07,761,112.08z"/>
	<path class="st7" d="M758.6,129.63l-9.19,5.54c-0.28,0.13-0.45,0.42-0.42,0.73v10.66c-0.02,0.33,0.14,0.65,0.42,0.84l9.19,5.33
		h0.94l9.19-5.43c0.3-0.17,0.5-0.49,0.52-0.84V135.9c0-0.3-0.16-0.58-0.42-0.73l-9.3-5.54H758.6z"/>
	<path class="st4" d="M749.72,121.79c0,0-1.78-3.55,1.04-3.66c0,0,1.57,0.21,0.94,3.66c1.38,1.67,2.09,3.79,1.99,5.96l-0.73,7.1
		h-4.81c0,0,0.21,6.9,0,8.78h-2.82v-0.84h1.78l-1.04-5.85l-5.12,4.81l-2.09-1.99l1.04-0.73l1.25,1.04l5.12-9.19h4.6l-0.52-3.97
		h-1.57l-1.88,1.46h-4.49v-1.25h3.76l3.45-3.66C749.62,123.46,750.24,123.36,749.72,121.79z"/>
	<path class="st5" d="M743.45,138.93l-9.3,5.43c-0.26,0.15-0.42,0.43-0.42,0.73v10.66c0,0.33,0.15,0.64,0.42,0.84l9.3,5.33h0.94
		l9.19-5.43c0.28-0.18,0.44-0.5,0.42-0.84V145.1c0.03-0.31-0.14-0.6-0.42-0.73l-9.19-5.43
		C744.11,138.73,743.73,138.73,743.45,138.93z"/>
</g>
<g>
	<path class="st47" d="M727.2,783.1c2,1.8,3,4.4,3,7.8v17.7h-4.4v-16.2c0-2.8-0.6-4.9-1.9-6.2c-1.28-1.33-3.06-2.06-4.9-2
		c-1.46,0.02-2.89,0.36-4.2,1c-1.37,0.72-2.48,1.83-3.2,3.2c-0.86,1.7-1.27,3.59-1.2,5.5v14.7h-4.5v-26.8l4.1,1.6v1.8
		c0.85-1.58,2.18-2.84,3.8-3.6c1.72-0.82,3.6-1.23,5.5-1.2C722.18,780.29,724.99,781.25,727.2,783.1z"/>
	<path class="st47" d="M761.7,796.4h-20.9c0.14,2.46,1.13,4.79,2.8,6.6c1.72,1.56,3.98,2.38,6.3,2.3c1.73,0.05,3.45-0.33,5-1.1
		c1.29-0.6,2.29-1.68,2.8-3l3.7,1.9c-1.01,1.89-2.53,3.45-4.4,4.5c-2.2,1.11-4.64,1.66-7.1,1.6c-4.2,0-7.5-1.3-9.9-3.9
		c-2.3-2.5-3.5-6-3.5-10.5s1.1-8.1,3.4-10.6s5.5-3.8,9.6-3.8c2.35-0.11,4.68,0.48,6.7,1.7c1.84,1.09,3.34,2.69,4.3,4.6
		c0.98,2.06,1.46,4.32,1.4,6.6C761.93,794.34,761.87,795.38,761.7,796.4z M743.6,786.4c-1.6,1.65-2.56,3.81-2.7,6.1h16.8
		c-0.18-2.26-1.09-4.4-2.6-6.1c-1.48-1.48-3.51-2.28-5.6-2.2C747.32,784.14,745.21,784.93,743.6,786.4L743.6,786.4z"/>
	<path class="st47" d="M791.3,784.2c2.3,2.5,3.5,6,3.5,10.5s-1.1,8.1-3.5,10.6s-5.7,3.9-9.9,3.9c-3.68,0.18-7.25-1.24-9.8-3.9
		c-2.4-2.47-3.6-5.97-3.6-10.5c0-4.6,1.2-8.1,3.6-10.6c2.55-2.66,6.12-4.08,9.8-3.9C785.6,780.3,788.9,781.6,791.3,784.2z
		 M774.8,787c-3.07,4.71-3.07,10.79,0,15.5c3.54,3.65,9.36,3.73,13.01,0.19c0.06-0.06,0.13-0.13,0.19-0.19
		c3.2-4.67,3.2-10.83,0-15.5c-3.54-3.65-9.36-3.73-13.01-0.19C774.93,786.87,774.86,786.94,774.8,787z"/>
	<polygon class="st39" points="645.7,775.1 645.8,813.5 670.8,822.5 670.7,783.7 697.8,773.7 673.2,765 	"/>
	<polygon class="st21" points="672.8,785.1 672.8,805.9 697.8,814.8 697.8,775.9 	"/>
</g>
</svg>
