<?xml version="1.0" encoding="utf-8"?>
<!-- Generator: Adobe Illustrator 23.1.1, SVG Export Plug-In . SVG Version: 6.00 Build 0)  -->
<svg version="1.1" id="Layer_1" xmlns="http://www.w3.org/2000/svg" xmlns:xlink="http://www.w3.org/1999/xlink" x="0px" y="0px"
	 viewBox="0 0 375 647" style="enable-background:new 0 0 375 647;" xml:space="preserve">
<style type="text/css">
	.st0{fill:#F9FAFA;}
	.st1{fill:url(#SVGID_1_);}
	.st2{fill:#02E49B;}
	.st3{fill:#D9DBDC;}
	.st4{fill:#2B393F;}
	.st5{fill:#53EDBB;}
	.st6{fill:#FFFFFF;}
	.st7{fill:#D1FAED;}
	.st8{fill:#9FF5D9;}
	.st9{fill:#00BD9B;}
	.st10{opacity:0.68;fill:url(#SVGID_2_);enable-background:new    ;}
	.st11{opacity:0.68;fill:url(#SVGID_3_);enable-background:new    ;}
	.st12{opacity:0.68;fill:url(#SVGID_4_);enable-background:new    ;}
	.st13{opacity:0.68;fill:url(#SVGID_5_);enable-background:new    ;}
	.st14{fill:url(#SVGID_6_);}
	.st15{opacity:0.68;fill:url(#SVGID_7_);enable-background:new    ;}
	.st16{opacity:0.38;fill:url(#SVGID_8_);enable-background:new    ;}
	.st17{opacity:0.38;fill:url(#SVGID_9_);enable-background:new    ;}
	.st18{opacity:0.38;fill:url(#SVGID_10_);enable-background:new    ;}
	.st19{opacity:0.38;fill:url(#SVGID_11_);enable-background:new    ;}
	.st20{opacity:0.38;fill:url(#SVGID_12_);enable-background:new    ;}
	.st21{fill:#00AF92;}
	.st22{opacity:0.89;fill:url(#SVGID_13_);enable-background:new    ;}
	.st23{opacity:0.68;fill:url(#SVGID_14_);enable-background:new    ;}
	.st24{opacity:0.68;fill:url(#SVGID_15_);enable-background:new    ;}
	.st25{fill:#1EE7A6;}
	.st26{opacity:0.38;fill:url(#SVGID_16_);enable-background:new    ;}
	.st27{opacity:0.68;fill:url(#SVGID_17_);enable-background:new    ;}
	.st28{opacity:0.68;fill:url(#SVGID_18_);enable-background:new    ;}
	.st29{fill:none;stroke:#00BD9B;stroke-width:0.82;stroke-linecap:round;stroke-linejoin:round;}
	.st30{enable-background:new    ;}
	.st31{opacity:0.68;fill:url(#SVGID_19_);enable-background:new    ;}
	.st32{opacity:0.68;fill:url(#SVGID_20_);enable-background:new    ;}
	.st33{opacity:0.68;fill:url(#SVGID_21_);enable-background:new    ;}
	.st34{opacity:0.68;fill:url(#SVGID_22_);enable-background:new    ;}
	.st35{opacity:0.68;fill:url(#SVGID_23_);enable-background:new    ;}
	.st36{opacity:0.68;fill:url(#SVGID_24_);enable-background:new    ;}
	.st37{fill:#1CC4A6;}
	.st38{fill:url(#SVGID_25_);}
	.st39{fill:#00E599;}
	.st40{opacity:0.68;fill:url(#SVGID_26_);enable-background:new    ;}
	.st41{opacity:0.38;fill:url(#SVGID_27_);enable-background:new    ;}
	.st42{fill:none;stroke:#FFFFFF;stroke-width:1.23;stroke-miterlimit:10;}
	.st43{opacity:0.38;fill:url(#SVGID_28_);enable-background:new    ;}
	.st44{fill:none;stroke:#FFFFFF;stroke-width:1.235;stroke-miterlimit:10.0404;}
	.st45{opacity:0.38;fill:url(#SVGID_29_);enable-background:new    ;}
	.st46{fill:url(#SVGID_30_);}
	.st47{fill-rule:evenodd;clip-rule:evenodd;fill:#00BD9B;}
	.st48{fill:#000033;}
</style>
<title>3 year visual</title>
<rect x="-20" y="-23.5" class="st0" width="416" height="706"/>
<linearGradient id="SVGID_1_" gradientUnits="userSpaceOnUse" x1="178.8834" y1="548.2453" x2="239.6334" y2="510.6953" gradientTransform="matrix(1 0 0 -1 0 647.8898)">
	<stop  offset="0" style="stop-color:#EBFDF7;stop-opacity:0.18"/>
	<stop  offset="0.29" style="stop-color:#EBFDF7;stop-opacity:0.38"/>
	<stop  offset="0.32" style="stop-color:#E6FCF5;stop-opacity:0.49"/>
	<stop  offset="0.39" style="stop-color:#E0FCF3;stop-opacity:0.65"/>
	<stop  offset="0.46" style="stop-color:#DAFBF1;stop-opacity:0.77"/>
	<stop  offset="0.53" style="stop-color:#D6FBEF;stop-opacity:0.87"/>
	<stop  offset="0.6" style="stop-color:#D3FAEE;stop-opacity:0.94"/>
	<stop  offset="0.68" style="stop-color:#D2FAED;stop-opacity:0.99"/>
	<stop  offset="0.77" style="stop-color:#D1FAED"/>
</linearGradient>
<path class="st1" d="M240.5,137.2c0.82-0.52,1.31-1.43,1.3-2.4l11.9-27c-0.03-0.99-0.56-1.89-1.4-2.4l-40.9-23.5
	c-0.84-0.6-1.96-0.6-2.8,0l-31.1,18.5c-0.87,0.48-1.41,1.4-1.4,2.4l-0.5,32.9c-0.01,1,0.53,1.92,1.4,2.4l39.6,23.4"/>
<path class="st2" d="M120.9,70.1L89.8,88.7c-0.84,0.46-1.38,1.34-1.4,2.3v33.8c0.03,0.99,0.56,1.89,1.4,2.4L119,144
	c0.87,0.5,1.93,0.5,2.8,0l31-18.5c0.87-0.48,1.41-1.4,1.4-2.4V89.7c0.01-1-0.53-1.92-1.4-2.4l-29.1-17.2
	C122.83,69.6,121.77,69.6,120.9,70.1z"/>
<path class="st3" d="M102.5,110.3l-6.7,4c-0.21,0.09-0.36,0.28-0.4,0.5v7.8c0.04,0.22,0.19,0.41,0.4,0.5l6.7,3.9h0.6l6.7-3.9
	c0.2-0.2,0.4-0.4,0.4-0.6v-7.7c0.02-0.21-0.1-0.41-0.3-0.5l-6.8-4L102.5,110.3z"/>
<path class="st3" d="M139.7,110.3l-6.7,4c-0.21,0.09-0.36,0.28-0.4,0.5v7.8c0.04,0.22,0.19,0.41,0.4,0.5l6.7,3.9h0.6l6.7-3.9
	c0.2-0.2,0.4-0.4,0.4-0.6v-7.7c0.02-0.21-0.1-0.41-0.3-0.5l-6.8-4L139.7,110.3z"/>
<path class="st3" d="M121.5,89.7l-6.7,4c-0.2,0.09-0.32,0.29-0.3,0.5v7.8c-0.01,0.24,0.1,0.46,0.3,0.6l6.7,3.9h0.7l6.7-4
	c0.21-0.12,0.33-0.36,0.3-0.6v-7.6c0.03-0.24-0.09-0.48-0.3-0.6l-6.7-4C121.98,89.61,121.72,89.61,121.5,89.7z"/>
<path class="st3" d="M121,120.4l-6.7,3.9c-0.2,0.14-0.31,0.36-0.3,0.6v7.8c-0.02,0.21,0.1,0.41,0.3,0.5l6.7,3.9h0.7l6.7-4
	c0.2-0.09,0.32-0.29,0.3-0.5v-7.7c0.01-0.24-0.1-0.46-0.3-0.6l-6.7-3.9C121.48,120.31,121.22,120.31,121,120.4z"/>
<path class="st4" d="M102.1,112.1h-0.2v2.9h-0.3l-1.1-0.7c-0.11,0-0.2-0.09-0.2-0.2v-2.8c0.01-0.24-0.1-0.46-0.3-0.6l-1.1-0.6
	c-1.09-0.6-1.74-1.76-1.7-3l0,0c0-1.27,1.03-2.3,2.3-2.3h0c0.42,0.01,0.83,0.11,1.2,0.3l1.2,0.7l0.5,0.3h0.1l6.4-3.1
	c0.1-0.1,0.3,0,0.4,0.1v12.2c0,0.17-0.13,0.3-0.3,0.3h0h-0.1L102.1,112.1z"/>
<ellipse class="st4" cx="121.4" cy="115" rx="4.6" ry="4"/>
<ellipse class="st5" cx="121.3" cy="129.7" rx="4.5" ry="4"/>
<ellipse class="st6" cx="121.3" cy="123.7" rx="4.5" ry="4"/>
<path class="st6" d="M127.5,99.9l-11.2-6.4c-0.2-0.09-0.32-0.29-0.3-0.5V82.5c0-0.17,0.13-0.3,0.3-0.3h0h0.2l11.1,6.4
	c0.2,0.09,0.32,0.29,0.3,0.5v10.5c0,0.17-0.13,0.3-0.3,0.3h0H127.5z"/>
<path class="st4" d="M125.9,97.5l-8.1-4.6c-0.12-0.14-0.19-0.32-0.2-0.5v-7.6c0-0.2,0.1-0.3,0.2-0.3h0.2l8.1,4.7
	c0.2,0.09,0.32,0.29,0.3,0.5v7.6c-0.05,0.14-0.16,0.25-0.3,0.3L125.9,97.5z"/>
<path class="st2" d="M125,91.2l-3.2-1.8c0-0.1-0.1-0.1-0.1-0.2v-0.7h0.2l3.2,1.9l0,0v0.7c0.1,0.1,0,0.1,0,0.2L125,91.2z"/>
<path class="st2" d="M120.2,93l-1.3-0.8c-0.06,0-0.1-0.04-0.1-0.1v-0.7c0-0.1,0-0.1,0.1-0.1l0,0l1.3,0.7c0.1,0.1,0.1,0.1,0.1,0.2
	v0.7L120.2,93z"/>
<path class="st2" d="M121,89l-2.1-1.3c-0.06,0-0.1-0.04-0.1-0.1v-0.8h0.1L121,88c0.1,0.1,0.1,0.1,0.1,0.2v0.7L121,89z"/>
<path class="st2" d="M122,91.8l-3.1-1.8c-0.1-0.1-0.1-0.1-0.1-0.2v-0.7h0.1l3.1,1.8c0.1,0,0.1,0.1,0.1,0.2v0.7H122z"/>
<path class="st6" d="M117.6,95.2l1.1-0.7l-0.7-1.2l-3.3,1.9c-0.06,0-0.1,0.05-0.1,0.1c0,0.05,0.04,0.1,0.1,0.1l0,0l1.6,0.9
	c0,0.1,0.1,0.2,0,0.2l0,0l-2.4,1.5l0.8,1.1l4.4-2.5c0.1,0,0.1-0.1,0.1-0.2h-0.1l-1.5-0.9c-0.08-0.07-0.09-0.2-0.02-0.28
	C117.59,95.21,117.59,95.21,117.6,95.2z"/>
<ellipse class="st7" cx="114.3" cy="98.6" rx="0.7" ry="0.8"/>
<polygon class="st6" points="122.2,95.9 122.9,97.1 119.7,99 119.1,97.7 "/>
<ellipse class="st8" cx="119.4" cy="98.3" rx="0.7" ry="0.8"/>
<path class="st6" d="M121.6,98.7l1.1,0.6c0.07,0.08,0.2,0.09,0.28,0.02c0.01-0.01,0.01-0.01,0.02-0.02l2.8-1.6l0.7,1.3l-3.3,1.8l0,0
	L123,101h-0.3l-1.1-0.6c-0.07-0.08-0.2-0.09-0.28-0.02c-0.01,0.01-0.01,0.01-0.02,0.02l-2.3,1.3l-0.6-1.3l3-1.7L121.6,98.7z"/>
<ellipse class="st8" cx="118.6" cy="101.1" rx="0.7" ry="0.8"/>
<polygon class="st6" points="120.6,81.6 122.1,81.6 122,85.5 120.6,85.4 "/>
<ellipse class="st8" cx="121.4" cy="81.6" rx="0.7" ry="0.8"/>
<path class="st6" d="M127.5,85.2V83h-1.4v1.2h-0.2l-2.3-1.2h-0.2v4.1h1.4v-1.6h0.2l1.1,0.6l0,0l1.2,0.8h0.2L127.5,85.2z"/>
<ellipse class="st5" cx="126.8" cy="83.1" rx="0.7" ry="0.8"/>
<path class="st9" d="M105.6,101l1-0.4h0.3l3.7,2.1h0.2v-5c0-0.1-0.1-0.2-0.2-0.3l-5.7-3.3h-0.2v5c0,0.11,0.09,0.2,0.2,0.2l0.4,0.3
	c0.1,0,0.1,0.1,0.1,0.2v1L105.6,101z"/>
<path class="st6" d="M108.3,98.2l-2.6-1.5l0,0v-0.9h0.1l2.5,1.5h0.1v0.9H108.3z"/>
<path class="st6" d="M109.4,98.9l-0.6-0.4h-0.1v-0.8h0.1l0.7,0.3l0,0v0.8h-0.1V98.9z"/>
<path class="st6" d="M107.4,99.2l-1.7-1l0,0v-0.9h0.1l1.7,1l0,0v0.9H107.4z"/>
<path class="st7" d="M97.4,100.7l4.1,2.3h0.2v-3.7l-0.2-0.2l-4-2.3h-0.2v3.6C97.3,100.6,97.3,100.7,97.4,100.7z"/>
<path class="st2" d="M98.9,98.8v1.8c0,0.06,0.04,0.1,0.1,0.1l0,0l1-0.6l0,0l-1-1.2L98.9,98.8z"/>
<linearGradient id="SVGID_2_" gradientUnits="userSpaceOnUse" x1="144.5369" y1="84.7248" x2="151.0269" y2="88.8047" gradientTransform="matrix(1 0 0 1 0 27.1102)">
	<stop  offset="0" style="stop-color:#9FF5D9"/>
	<stop  offset="1" style="stop-color:#EBFDF7"/>
</linearGradient>
<polygon class="st10" points="150,114.6 141.4,105.9 137.7,111.5 148.9,116.6 "/>
<linearGradient id="SVGID_3_" gradientUnits="userSpaceOnUse" x1="-8443.7744" y1="84.81" x2="-8437.2842" y2="88.88" gradientTransform="matrix(-1 0 0 1 -8307.4004 27.1102)">
	<stop  offset="0" style="stop-color:#9FF5D9"/>
	<stop  offset="1" style="stop-color:#EBFDF7"/>
</linearGradient>
<polygon class="st11" points="130.8,114.6 139.5,106 143.2,111.6 132,116.7 "/>
<linearGradient id="SVGID_4_" gradientUnits="userSpaceOnUse" x1="132.5522" y1="76.8469" x2="137.2422" y2="80.3768" gradientTransform="matrix(1 0 0 1 0 27.1102)">
	<stop  offset="0" style="stop-color:#9FF5D9"/>
	<stop  offset="1" style="stop-color:#EBFDF7"/>
</linearGradient>
<polygon class="st12" points="130.9,106.5 130.8,104.9 139.5,105.4 137.1,110.2 "/>
<linearGradient id="SVGID_5_" gradientUnits="userSpaceOnUse" x1="-8522.9854" y1="76.9201" x2="-8518.2656" y2="80.4701" gradientTransform="matrix(-1 0 0 1 -8374.7998 27.1102)">
	<stop  offset="0" style="stop-color:#9FF5D9"/>
	<stop  offset="1" style="stop-color:#EBFDF7"/>
</linearGradient>
<polygon class="st13" points="149.8,106.6 150,105 141.2,105.5 143.6,110.3 "/>
<circle class="st4" cx="140.4" cy="110.4" r="7"/>
<path class="st9" d="M149,116.6l0.9-0.5l0.2-0.2v-1.2c0-0.1-0.1-0.1-0.2-0.1l0,0l-1,0.6c-0.1,0-0.1,0.1-0.1,0.2v1.1
	c0,0.1,0,0.2,0.1,0.2L149,116.6z"/>
<path class="st9" d="M131.9,116.6l-1-0.5c-0.07-0.08-0.11-0.19-0.1-0.3v-1.1c0-0.1,0-0.1,0.1-0.1h0.1l1,0.6
	c0.06,0.05,0.09,0.12,0.1,0.2v1.3C131.9,116.7,131.9,116.7,131.9,116.6z"/>
<path class="st9" d="M149,107l0.9-0.5l0.2-0.2v-1.2h-0.2l-1,0.6c-0.1,0-0.1,0.1-0.1,0.2v1.1c0,0.1,0,0.2,0.1,0.2L149,107z"/>
<path class="st9" d="M131.9,107l-1-0.5c-0.06-0.05-0.09-0.12-0.1-0.2v-1.2h0.2l1,0.6v1.5L131.9,107z"/>
<polygon class="st2" points="137.6,108.5 137.6,112.6 140.3,113.5 140.3,109.4 143.1,108.3 140.5,107.4 "/>
<polygon class="st2" points="140.5,109.5 140.5,111.7 143.2,112.7 143.1,108.5 "/>
<linearGradient id="SVGID_6_" gradientUnits="userSpaceOnUse" x1="267.6517" y1="481.545" x2="230.1417" y2="527.8749" gradientTransform="matrix(1 0 0 -1 0 647.8898)">
	<stop  offset="0" style="stop-color:#02E49B"/>
	<stop  offset="0.88" style="stop-color:#D1FAED"/>
</linearGradient>
<path class="st14" d="M247.5,104.2l-29.7,17.2c-0.82,0.49-1.34,1.35-1.4,2.3v39.5c0.03,0.99,0.56,1.89,1.4,2.4l29.2,16.9
	c0.87,0.5,1.93,0.5,2.8,0l31-18.6c0.84-0.46,1.38-1.34,1.4-2.3v-37.4c0.01-1-0.53-1.92-1.4-2.4l-30.5-17.6
	C249.42,103.74,248.38,103.74,247.5,104.2z"/>
<linearGradient id="SVGID_7_" gradientUnits="userSpaceOnUse" x1="186.4592" y1="431.7465" x2="117.5891" y2="392.1465" gradientTransform="matrix(1 0 0 -1 0 647.8898)">
	<stop  offset="0" style="stop-color:#02E49B"/>
	<stop  offset="0.77" style="stop-color:#EBFDF7"/>
</linearGradient>
<path class="st15" d="M154.8,197.9l-41.3,22.9c-0.87,0.48-1.41,1.4-1.4,2.4v33.7c0.03,0.99,0.56,1.89,1.4,2.4l29.2,16.8
	c0.87,0.5,1.93,0.5,2.8,0l41.2-22.8c0.84-0.51,1.37-1.41,1.4-2.4v-33.4c0.01-0.97-0.48-1.88-1.3-2.4l-29.2-17.2
	C156.73,197.4,155.67,197.4,154.8,197.9z"/>
<linearGradient id="SVGID_8_" gradientUnits="userSpaceOnUse" x1="281.4637" y1="314.3895" x2="280.9737" y2="382.3395" gradientTransform="matrix(1 0 0 -1 0 647.8898)">
	<stop  offset="0.22" style="stop-color:#53EDBB"/>
	<stop  offset="1" style="stop-color:#D1FAED"/>
</linearGradient>
<path class="st16" d="M279.9,274.8l-29.2,13.9c-0.82,0.52-1.31,1.43-1.3,2.4v39.4c-0.01,0.97,0.48,1.88,1.3,2.4l29.2,16.9
	c0.87,0.5,1.93,0.5,2.8,0l29.2-17.2c0.82-0.52,1.31-1.43,1.3-2.4v-39.1c0.01-1-0.53-1.92-1.4-2.4l-29.1-13.9
	C281.82,274.34,280.78,274.34,279.9,274.8z"/>
<linearGradient id="SVGID_9_" gradientUnits="userSpaceOnUse" x1="242.8203" y1="470.3439" x2="201.6303" y2="437.894" gradientTransform="matrix(1 0 0 -1 0 647.8898)">
	<stop  offset="0.31" style="stop-color:#02E49B"/>
	<stop  offset="0.74" style="stop-color:#53EDBB"/>
</linearGradient>
<path class="st17" d="M216.6,161.3l-33.1,19.3c-0.84,0.46-1.38,1.34-1.4,2.3l2.1,33.1c-0.01,1,0.53,1.92,1.4,2.4l29.1,16.8
	c0.87,0.5,1.93,0.5,2.8,0l31.1-18.5c0.82-0.52,1.31-1.43,1.3-2.4v-33.4c0.01-1-0.53-1.92-1.4-2.4l-29.1-17.2
	C218.52,160.84,217.48,160.84,216.6,161.3z"/>
<path class="st2" d="M119.6,217.3l-29.2,17.2c-0.87,0.48-1.41,1.4-1.4,2.4v33.7c0.03,0.99,0.56,1.89,1.4,2.4l29.2,16.9
	c0.87,0.5,1.93,0.5,2.8,0l29.1-17.2c0.87-0.48,1.41-1.4,1.4-2.4v-33.4c0.01-1-0.53-1.92-1.4-2.4l-29.2-17.2
	C121.46,216.84,120.44,216.84,119.6,217.3z"/>
<path class="st6" d="M148.8,269.1l-29.3-16.7v-24.9c-0.01-0.88,0.7-1.61,1.59-1.61c0.29,0,0.57,0.07,0.81,0.21l25.4,14.5
	c0.93,0.54,1.5,1.53,1.5,2.6V269.1z"/>
<polygon class="st4" points="147,266 121.2,251.2 121.2,227.8 147,242.6 "/>
<path class="st6" d="M148.8,269.1l-29.3-16.7l-16.8,9.8c-0.61,0.38-0.79,1.19-0.41,1.79c0.1,0.16,0.24,0.3,0.41,0.41l25.9,14.8
	c0.98,0.52,2.16,0.49,3.1-0.1L148.8,269.1z"/>
<path class="st4" d="M118.5,232.8h0.6l-2.2,3.2l-0.4,0.2l-2.2,0.6c-0.2,0-0.3,0.2-0.3,0.4v17.3l0.2,0.2h1.2v0.6h-1.9
	c-0.11,0-0.2-0.09-0.2-0.2v-8.5l-0.2-0.2h-1.3l-0.5,7.9c-0.1,0.1,0,0.2,0.1,0.2h1.1v0.6h-1.6c-0.11,0-0.2-0.09-0.2-0.2l0.7-11.3
	c-0.01-0.28-0.08-0.55-0.2-0.8l-1.1-2.1c-0.16-0.27-0.23-0.59-0.2-0.9l0.6-3.6c0.07-0.2,0.17-0.3,0.3-0.3h1c0,0-0.8-2.2,0.3-2.3
	s0.9-0.2,0.6,2.2h1l2.3-0.3l0.5-0.2L118.5,232.8z"/>
<path class="st2" d="M129.6,238l-5-2.8l-0.2-0.3v-1.1c0-0.2,0.2-0.2,0.3-0.2l5,2.9c0.1,0,0.1,0.2,0.1,0.3v1.1
	C129.8,238,129.7,238.1,129.6,238z"/>
<path class="st9" d="M132.9,240l-2.1-1.3c-0.1,0-0.1-0.1-0.1-0.2v-1.2c0-0.1,0.1-0.2,0.2-0.1l2.1,1.2l0.2,0.3v1.1
	C133.2,240,133,240,132.9,240z"/>
<linearGradient id="SVGID_10_" gradientUnits="userSpaceOnUse" x1="134" y1="405.2398" x2="144.03" y2="405.2398" gradientTransform="matrix(1 0 0 -1 0 647.8898)">
	<stop  offset="0" style="stop-color:#02E49B"/>
	<stop  offset="1" style="stop-color:#02E49B;stop-opacity:0.38"/>
</linearGradient>
<path class="st18" d="M143.8,246.2l-9.6-5.6c-0.1,0-0.2-0.1-0.2-0.3v-1.1c0-0.1,0.1-0.2,0.2-0.1l9.7,5.6c0.1,0,0.1,0.1,0.1,0.2v1.2
	C144,246.2,143.9,246.3,143.8,246.2z"/>
<path class="st2" d="M126.7,239.6l-2.1-1.3c-0.11,0-0.2-0.09-0.2-0.2v-1.2c0.04-0.1,0.15-0.16,0.25-0.12
	c0.02,0.01,0.03,0.01,0.05,0.02l2.1,1.2c0.07,0.08,0.11,0.19,0.1,0.3v1.1C126.9,239.6,126.8,239.6,126.7,239.6z"/>
<path class="st2" d="M132.9,243.1l-5-2.8c-0.07-0.08-0.11-0.19-0.1-0.3v-1.2c0-0.1,0.1-0.1,0.2-0.1l5,2.9c0.1,0,0.2,0.2,0.2,0.3v1.1
	c-0.04,0.1-0.15,0.16-0.25,0.12C132.93,243.12,132.91,243.11,132.9,243.1z"/>
<path class="st9" d="M125.4,245.9l-0.8-0.5l-0.2-0.3V244l0.3-0.2l0.8,0.6l0.2,0.2v1.2c-0.04,0.1-0.15,0.16-0.25,0.12
	C125.43,245.92,125.41,245.91,125.4,245.9z"/>
<path class="st2" d="M131.7,249.4l-5-2.8l-0.2-0.3v-1.2c0.04-0.1,0.15-0.16,0.25-0.12c0.02,0.01,0.03,0.01,0.05,0.02l5,2.9
	c0.1,0,0.1,0.1,0.1,0.3v1.1C131.9,249.4,131.8,249.5,131.7,249.4z"/>
<path class="st2" d="M134.2,247.4l-9.6-5.6c-0.1,0-0.2-0.2-0.2-0.3v-1.1c0.04-0.1,0.15-0.16,0.25-0.12
	c0.02,0.01,0.03,0.01,0.05,0.02l9.6,5.5c0.07,0.08,0.11,0.19,0.1,0.3v1.2C134.4,247.4,134.3,247.5,134.2,247.4z"/>
<linearGradient id="SVGID_11_" gradientUnits="userSpaceOnUse" x1="124.42" y1="397.3398" x2="131.92" y2="397.3398" gradientTransform="matrix(1 0 0 -1 0 647.8898)">
	<stop  offset="0" style="stop-color:#02E49B"/>
	<stop  offset="1" style="stop-color:#02E49B;stop-opacity:0.38"/>
</linearGradient>
<polygon class="st19" points="131.9,253.6 124.4,249.1 124.4,247.5 131.9,252 "/>
<linearGradient id="SVGID_12_" gradientUnits="userSpaceOnUse" x1="132.87" y1="397.4898" x2="136.95" y2="397.4898" gradientTransform="matrix(1 0 0 -1 0 647.8898)">
	<stop  offset="0" style="stop-color:#02E49B"/>
	<stop  offset="1" style="stop-color:#02E49B;stop-opacity:0.38"/>
</linearGradient>
<polyline class="st20" points="132.9,248.4 136.9,250.8 136.9,252.4 132.9,250 "/>
<path class="st8" d="M111.8,217.4l-6,3.5c-0.2,0.09-0.32,0.29-0.3,0.5v6.9c-0.02,0.21,0.1,0.41,0.3,0.5l6,3.4
	c0.19,0.11,0.41,0.11,0.6,0l5.9-3.5c0.2-0.09,0.32-0.29,0.3-0.5v-6.8c0.02-0.21-0.1-0.41-0.3-0.5l-5.9-3.5L111.8,217.4z"/>
<path class="st2" d="M110.3,227.3l1.6,0.9l0.2,0.3v1.4l-2.1-1.2v-1.3c0.04-0.1,0.15-0.16,0.25-0.12
	C110.27,227.28,110.29,227.29,110.3,227.3z"/>
<path class="st2" d="M111.8,223.3l-1.6-0.9c-0.13-0.09-0.2-0.24-0.2-0.4v-1.8l0.3-0.2l1.6,1c0.1,0,0.2,0.2,0.2,0.3v1.8
	C112.1,223.3,111.9,223.4,111.8,223.3z"/>
<path class="st2" d="M115.6,224.8l-1.6-1c-0.1,0-0.2-0.2-0.2-0.3v-1.8c0-0.2,0.2-0.3,0.3-0.2l1.6,0.9c0.13,0.09,0.2,0.24,0.2,0.4
	v1.8L115.6,224.8z"/>
<path class="st6" d="M112.9,230.2l4.1-2.3c0.1-0.1,0.1-0.3,0-0.3l-4.7-2.8h-0.4l-4.7,2.8c-0.1,0-0.1,0.2,0,0.3l4.1,2.3l0.6,0.4h0.4
	L112.9,230.2z M111.9,229.5l-2.8-1.6c-0.2-0.1-0.2-0.3,0-0.3l2.8-1.7h0.4l2.8,1.7c0.1,0,0.1,0.2,0,0.3l-2.8,1.6H111.9z"/>
<path class="st2" d="M112.8,227.5l-1.6-0.9l-0.2-0.3v-1.9c0.04-0.1,0.15-0.16,0.25-0.12c0.02,0.01,0.03,0.01,0.05,0.02l1.6,0.9
	l0.2,0.3v1.9C113.1,227.5,113,227.6,112.8,227.5z"/>
<path class="st8" d="M128.3,267.5l-5.9,3.5c-0.2,0.09-0.32,0.29-0.3,0.5v6.9c-0.02,0.21,0.1,0.41,0.3,0.5l5.9,3.4h0.6l6-3.5
	c0.12-0.14,0.19-0.32,0.2-0.5v-6.8c0.02-0.21-0.1-0.41-0.3-0.5l-6-3.5C128.64,267.43,128.46,267.43,128.3,267.5z"/>
<path class="st6" d="M127.3,276.1l1.4-2.9c0-0.1,0.1-0.2,0.2-0.1l0.8,0.4c0,0.1,0.1,0.2,0,0.3l-1.3,2.9c0,0.1-0.2,0.1-0.3,0
	l-0.7-0.4C127.3,276.3,127.3,276.2,127.3,276.1z"/>
<path class="st2" d="M124.7,273.5l0.6,2.2c0,0.1,0.1,0.1,0.2,0.1l0.7-0.2c0.1,0,0.1-0.1,0.1-0.2l-0.5-1.7c0-0.1,0-0.2,0.1-0.2
	l1.7-0.6c0.1,0,0.1-0.1,0.1-0.2l-0.2-0.7h-0.3l-2.1,0.8h-0.5c-0.06,0.05-0.09,0.12-0.1,0.2L124.7,273.5z"/>
<path class="st2" d="M132.2,277.1l-2.2,0.7c-0.1,0.1-0.2,0-0.2-0.1l-0.2-0.6c-0.1-0.1,0-0.2,0.1-0.3l1.6-0.5c0.1,0,0.2-0.1,0.1-0.2
	l-0.5-1.7l0.2-0.2l0.6-0.2c0.1-0.1,0.2,0,0.2,0.1l0.7,2.2v0.4c0,0.1,0,0.2-0.1,0.2L132.2,277.1z"/>
<path class="st7" d="M103.6,282.9l-6,3.6c-0.15,0.13-0.26,0.3-0.3,0.5v6.9c0,0.2,0.2,0.3,0.3,0.4l6,3.5h0.6l5.9-3.5
	c0.2-0.09,0.32-0.29,0.3-0.5V287c-0.01-0.18-0.08-0.36-0.2-0.5l-6-3.6H103.6z"/>
<path class="st4" d="M116.3,276.5c0.11,0,0.2-0.09,0.2-0.2l0,0l2.3-5.8l1.2,0.4l-1.6,5.7H117v0.7h1.9l2.2-6.2l3.3,0.9l2.7-4.9
	c0.35-0.68,0.56-1.43,0.6-2.2c0.1-1.9-0.9-2.4-0.9-2.4v-0.9c0.5-1.3,0.3-1.8,0.1-2c-0.15-0.17-0.4-0.18-0.56-0.04
	c-0.01,0.01-0.02,0.02-0.04,0.04c-0.6,0.49-0.73,1.36-0.3,2c0.1,0.1,0.2,0.2,0.1,0.4v0.9l-5,7l-2.4-0.5l-2.5,6.4H115v0.4
	L116.3,276.5z"/>
<path class="st3" d="M119.3,268.5l-1.6-1.8h-0.2l-1.2,0.8c-0.08,0.07-0.09,0.2-0.02,0.28c0.01,0.01,0.01,0.01,0.02,0.02l1.8,2.2h2.8
	l0.2-0.2l0.7-1c0.06,0,0.1-0.04,0.1-0.1s-0.04-0.1-0.1-0.1h-2.2L119.3,268.5z"/>
<polygon class="st21" points="117.7,266.8 119.2,268.7 118.2,269.7 116.5,267.6 "/>
<path class="st2" d="M126,262.9l0.8-0.4c0,0,1.1,0.5,0.9,2.7c-0.09,0.66-0.3,1.3-0.6,1.9l-2.7,4.9l-2.4-3.5L126,262.9z"/>
<path class="st2" d="M127.2,262.9c0,0,1.7-3.8-0.7-4.1c0,0-0.5,0.1,0,0.6s0.9,1.1,0,3.3"/>
<path class="st4" d="M130.7,262.4c-0.7,0.63-1.04,1.57-0.9,2.5c0.05,0.74,0.25,1.45,0.6,2.1l2.6,4.9h0.1l3.2-0.9
	c0.06,0,0.1,0.04,0.1,0.1l0,0l2.1,6.1h2v-0.7h-1.4c-0.06,0-0.1-0.04-0.1-0.1l0,0l-1.5-5.6l0,0l1-0.3c0.1-0.1,0.1,0,0.2,0l2.3,5.8
	h0.1l1.4-0.2v-0.4h-1.1l-2.5-6.4h-0.1l-2.3,0.4h-0.1l-4.9-6.9l0,0l-0.2-0.9c-0.01-0.14,0.02-0.28,0.1-0.4
	c0.34-0.47,0.38-1.09,0.1-1.6c-0.3-0.5-1.1-0.2-1.1,0.4c-0.02,0.41,0.05,0.82,0.2,1.2l0,0v0.9H130.7z"/>
<path class="st4" d="M133.2,265.2l2,1.4h2.4v0.4h-2.7l-1-0.3L133.2,265.2z"/>
<path class="st3" d="M138.4,263.3l-1.6,2h-2.5l0.8,1.2h2.9l1.9-2.4l0,0l-1.3-0.9L138.4,263.3z"/>
<polygon class="st4" points="138.5,263.5 136.9,265.4 137.9,266.4 139.6,264.3 "/>
<path class="st2" d="M130.1,260.4c-0.18-0.46,0.04-0.99,0.5-1.17c0.03-0.01,0.06-0.02,0.1-0.03c0.52-0.2,1.09,0.06,1.29,0.58
	c0,0.01,0.01,0.02,0.01,0.02"/>
<polyline class="st2" points="131.3,260 131.5,260 132.8,259.5 132.7,259.3 131.3,259.7 "/>
<rect x="103.6" y="287.2" class="st6" width="0.6" height="2.34"/>
<rect x="103.6" y="291.2" class="st6" width="0.6" height="2.34"/>
<rect x="100.2" y="289.1" class="st6" width="0.6" height="2.48"/>
<rect x="107" y="289.1" class="st6" width="0.6" height="2.48"/>
<rect x="100.96" y="291.01" transform="matrix(0.866 -0.5 0.5 0.866 -131.9703 90.0947)" class="st6" width="2.34" height="0.6"/>
<rect x="101.95" y="286.64" transform="matrix(0.867 -0.4983 0.4983 0.867 -129.245 89.6153)" class="st6" width="2.63" height="0.6"/>
<rect x="105.17" y="286.08" transform="matrix(0.5 -0.866 0.866 0.5 -196.1526 235.0324)" class="st6" width="0.6" height="2.62"/>
<rect x="101.79" y="292.04" transform="matrix(0.5 -0.866 0.866 0.5 -203.0079 235.0856)" class="st6" width="0.6" height="2.62"/>
<rect x="104.14" y="293.07" transform="matrix(0.866 -0.5 0.5 0.866 -132.5578 92.029)" class="st6" width="2.62" height="0.6"/>
<rect x="105.33" y="290.16" transform="matrix(0.5 -0.866 0.866 0.5 -199.4846 237.1479)" class="st6" width="0.6" height="2.34"/>
<rect x="101.8" y="288.25" transform="matrix(0.5 -0.866 0.866 0.5 -199.5984 233.131)" class="st6" width="0.6" height="2.34"/>
<rect x="104.43" y="289.04" transform="matrix(0.866 -0.5 0.5 0.866 -130.5212 91.563)" class="st6" width="2.34" height="0.6"/>
<path class="st2" d="M103.8,285.5l-0.7,0.4c-0.1,0-0.1,0-0.1,0.1v0.8h0.1l0.7,0.5h0.1l0.8-0.5l0,0V286l0,0l-0.8-0.4
	C103.9,285.4,103.9,285.4,103.8,285.5z"/>
<path class="st2" d="M100.4,287.4l-0.7,0.4h-0.1v0.9h0.1l0.7,0.4h0.1l0.8-0.4l0,0v-0.9l0,0l-0.8-0.4H100.4z"/>
<path class="st2" d="M100.4,291.4l-0.8,0.4l0,0v0.9l0,0l0.8,0.4h0.1l0.7-0.4h0.1v-0.9h-0.1l-0.7-0.4H100.4z"/>
<path class="st2" d="M103.8,289.4l-0.7,0.4H103v0.9h0.1l0.7,0.4h0.1l0.8-0.4l0,0v-0.9l0,0l-0.8-0.4H103.8z"/>
<path class="st2" d="M107.3,287.4l-0.8,0.4l0,0v0.9l0,0l0.8,0.4h0.1l0.7-0.4h0.1v-0.9h-0.1l-0.7-0.4H107.3z"/>
<path class="st2" d="M103.8,293.4l-0.7,0.4H103v0.9h0.1l0.7,0.4h0.1l0.8-0.4l0,0v-0.9l0,0l-0.8-0.4H103.8z"/>
<path class="st2" d="M107.3,291.4l-0.8,0.4l0,0v0.9l0,0l0.8,0.4h0.1l0.7-0.4h0.1v-0.9h-0.1l-0.7-0.4H107.3z"/>
<path class="st4" d="M103,265.7V265c0,0-1-1.4,0.2-1.8s1.1,0,0.4,1.8v0.7c0.49-0.06,0.94,0.3,1,0.79c0,0,0,0.01,0,0.01l1,2.8
	c0.08,0.18,0.22,0.32,0.4,0.4l1.9,1.5v0.6l-2.5-1.8l-0.2-0.2l-0.7-0.8l0.5,15.1h1.2v0.7h-1.6c-0.11,0-0.2-0.09-0.2-0.2l0,0l-0.3-9
	c0-0.11-0.09-0.2-0.2-0.2h0h-0.5c-0.1,0.1-0.2,0.1-0.2,0.3l0.3,8.9c0,0.11-0.09,0.2-0.2,0.2h0H102v-0.6h0.5c0.2,0,0.2-0.1,0.2-0.3
	l-0.4-11.6c0.02-0.21-0.1-0.41-0.3-0.5l-1.2-0.8c-0.15-0.12-0.19-0.33-0.1-0.5C100.9,269.5,102.1,265.6,103,265.7z"/>
<path class="st7" d="M120.7,275.6l-6,3.6c-0.13,0.09-0.2,0.24-0.2,0.4v6.9c0.01,0.18,0.08,0.36,0.2,0.5l6,3.5
	c0.19,0.11,0.41,0.11,0.6,0l5.9-3.5c0.2-0.09,0.32-0.29,0.3-0.5v-6.9c0-0.16-0.07-0.31-0.2-0.4l-6-3.6
	C121.11,275.49,120.89,275.49,120.7,275.6z"/>
<path class="st6" d="M124,281.2c-1.27-0.04-2.43-0.72-3.1-1.8h-0.4c-0.69,0.67-1.66,0.96-2.6,0.8h-0.2c-0.06,1.17,0,2.34,0.2,3.5
	c0.32,1.34,1.24,2.44,2.5,3h0.3c0.61-0.11,1.19-0.35,1.7-0.7c0,0,2-1.1,1.7-4.7L124,281.2z"/>
<path class="st2" d="M123.1,281.8c-0.98-0.13-1.86-0.67-2.4-1.5c0-0.1-0.1-0.1-0.2,0c-0.52,0.53-1.26,0.79-2,0.7
	c-0.06,0-0.1,0.04-0.1,0.1l0,0c-0.06,0.87,0.01,1.75,0.2,2.6c0.21,0.98,0.88,1.8,1.8,2.2h0.2c0.46-0.1,0.9-0.27,1.3-0.5
	c0,0,1.5-0.9,1.3-3.6L123.1,281.8z"/>
<path class="st2" d="M102.3,263.9c-0.19-0.52,0.08-1.11,0.6-1.3c0.52-0.19,1.11,0.08,1.3,0.6"/>
<polyline class="st2" points="103.5,263.4 103.7,263.4 105,263 104.8,262.7 103.5,263.1 "/>
<polygon class="st3" points="110.4,267.5 108.6,269.6 109.8,271 111.8,268.5 "/>
<polygon class="st3" points="107,270.9 109.7,271 109.6,269.6 106.1,269.6 "/>
<polygon class="st4" points="110.4,267.7 108.8,269.6 109.8,270.6 111.5,268.5 "/>
<path class="st8" d="M89.1,244.9l-6,3.5c-0.2,0.09-0.32,0.29-0.3,0.5v6.9c-0.02,0.21,0.1,0.41,0.3,0.5l6,3.5h0.5l6-3.5
	c0.2-0.09,0.32-0.29,0.3-0.5v-6.9c0.02-0.21-0.1-0.41-0.3-0.5l-6-3.5H89.1z"/>
<path class="st2" d="M87.3,248.4v5.8c0,0.1,0.1,0.2,0.2,0.3l3.8,2.1c0.11,0,0.2-0.09,0.2-0.2l0,0v-5.7c0-0.1,0-0.2-0.1-0.2l-3.8-2.2
	C87.4,248.2,87.3,248.3,87.3,248.4z"/>
<path class="st6" d="M89.8,251.5l-1.8-1.1l0,0v-0.5l0,0l1.8,1l0,0v0.5V251.5z"/>
<path class="st6" d="M90.4,254.9l-2.4-1.4l0,0V253l0,0l2.4,1.4l0,0V254.9z"/>
<path class="st6" d="M89.8,253.5l-1.8-1l0,0V252l0,0l1.8,1.1l0,0v0.5V253.5z"/>
<path class="st6" d="M90.4,251.8l-0.4-0.2l0,0v-0.5l0,0l0.4,0.2l0,0V251.8z"/>
<path class="st6" d="M89.3,252.2l-1.3-0.7l0,0V251l0,0l1.3,0.7l0,0V252.2z"/>
<path class="st6" d="M90.5,249.7l-0.6-0.4c0.1-0.1,0.1-0.2,0-0.4s-0.4-0.4-0.6-0.3l-0.2,0.3l-0.6-0.4l0,0v0.8l0,0l2,1.1h0.1v-0.8
	L90.5,249.7z"/>
<path class="st2" d="M92.1,249.2v1.9l0,0l1.3,0.7h0.1V250h-0.1l-1.2-0.7L92.1,249.2z"/>
<path class="st2" d="M85.3,253v2h0.1l1.3,0.7l0,0v-1.9l0,0l-1.3-0.7L85.3,253z"/>
<linearGradient id="SVGID_13_" gradientUnits="userSpaceOnUse" x1="191.3555" y1="427.0852" x2="264.3655" y2="383.9452" gradientTransform="matrix(1 0 0 -1 0 647.8898)">
	<stop  offset="0.12" style="stop-color:#53EDBB"/>
	<stop  offset="0.25" style="stop-color:#78F1CA"/>
	<stop  offset="0.43" style="stop-color:#A8F6DD"/>
	<stop  offset="0.6" style="stop-color:#CEFAEC"/>
	<stop  offset="0.75" style="stop-color:#E9FDF6"/>
	<stop  offset="0.89" style="stop-color:#F9FEFD"/>
	<stop  offset="1" style="stop-color:#FFFFFF"/>
</linearGradient>
<path class="st22" d="M214.6,198.7l-28.9,17.8c-0.87,0.48-1.41,1.4-1.4,2.4l-1.1,32.6c-0.01,1,0.53,1.92,1.4,2.4l66.6,39.7
	c0.87,0.5,1.93,0.5,2.8,0l29.2-17.4c0.87-0.48,1.41-1.4,1.4-2.4v-33.4c0.01-1-0.53-1.92-1.4-2.4l-65.9-39.3
	C216.46,198.24,215.44,198.24,214.6,198.7z"/>
<path class="st8" d="M186.7,69l-31.1,18.5c-0.82,0.52-1.31,1.43-1.3,2.4v33.7c-0.01,1,0.53,1.92,1.4,2.4l29.2,16.9
	c0.83,0.5,1.87,0.5,2.7,0l31.9-18.1c0.87-0.48,1.41-1.4,1.4-2.4V89c0.01-1-0.53-1.92-1.4-2.4L189.6,69
	C188.7,68.5,187.6,68.5,186.7,69z"/>
<path class="st6" d="M212.8,90.5l3.2,1.8c0.35,0.22,0.57,0.59,0.6,1v4.5c-0.04,0.33-0.33,0.57-0.66,0.53
	c-0.05-0.01-0.09-0.02-0.14-0.03l-3.1-1.7c-0.36-0.25-0.58-0.66-0.6-1.1v-4.6C212,90.5,212.5,90.2,212.8,90.5z"/>
<path class="st6" d="M192.5,79.5l6.6,3.8c0.74,0.49,1.19,1.31,1.2,2.2V95c-0.05,0.66-0.63,1.16-1.29,1.11
	c-0.14-0.01-0.28-0.05-0.41-0.11l-6.4-3.7c-0.8-0.44-1.3-1.28-1.3-2.2v-9.5c0.02-0.66,0.57-1.19,1.23-1.17
	C192.26,79.43,192.38,79.46,192.5,79.5z"/>
<path class="st5" d="M183.3,94.7l-5.9,3.6c-0.2,0.09-0.32,0.29-0.3,0.5v6.9c0,0.2,0.1,0.3,0.3,0.4l5.9,3.5
	c0.19,0.11,0.41,0.11,0.6,0l6-3.5c0.2-0.09,0.32-0.29,0.3-0.5v-6.8c0.02-0.21-0.1-0.41-0.3-0.5l-6-3.6
	C183.71,94.59,183.49,94.59,183.3,94.7z"/>
<path class="st5" d="M178.3,97.8l-6,3.6c-0.13,0.09-0.2,0.24-0.2,0.4v6.9c-0.02,0.21,0.1,0.41,0.3,0.5l5.9,3.5h0.6l6-3.5
	c0.12-0.14,0.19-0.32,0.2-0.5v-6.9c0-0.2-0.2-0.3-0.3-0.4l-6-3.6H178.3z"/>
<path class="st5" d="M171.8,101.7l-6,3.5c-0.2,0.09-0.32,0.29-0.3,0.5v6.9c-0.02,0.21,0.1,0.41,0.3,0.5l6,3.5
	c0.19,0.11,0.41,0.11,0.6,0l5.9-3.6c0.2-0.1,0.3-0.2,0.3-0.4v-6.9c0.02-0.21-0.1-0.41-0.3-0.5l-5.9-3.5
	C172.21,101.59,171.99,101.59,171.8,101.7z"/>
<path class="st6" d="M203.3,81.4l3.1,1.8c0.41,0.21,0.65,0.64,0.6,1.1v4.4c0.06,0.27-0.11,0.54-0.38,0.6c-0.15,0.03-0.3,0-0.42-0.1
	l-3.1-1.7c-0.41-0.21-0.65-0.64-0.6-1.1v-4.5c0.04-0.33,0.33-0.57,0.66-0.53C203.21,81.37,203.26,81.38,203.3,81.4z"/>
<path class="st6" d="M205.2,90.9l4.2,2.4c0.5,0.29,0.81,0.82,0.8,1.4v6c0.01,0.39-0.29,0.71-0.67,0.73
	c-0.15,0.01-0.3-0.04-0.43-0.13L205,99c-0.5-0.29-0.81-0.82-0.8-1.4v-6c-0.04-0.38,0.24-0.73,0.63-0.77
	C204.96,90.82,205.08,90.84,205.2,90.9z"/>
<path class="st6" d="M212.8,89.7l3.1,1.8c0.43,0.2,0.7,0.63,0.7,1.1v4.5c0,0.4-0.5,0.6-0.9,0.4l-3-1.7c-0.4-0.18-0.67-0.56-0.7-1
	v-4.6c-0.06-0.27,0.11-0.54,0.38-0.6C212.53,89.57,212.68,89.61,212.8,89.7z"/>
<path class="st4" d="M207.8,93.4l1.5,3.2c0.19,0.39,0.51,0.71,0.9,0.9l2,0.8c0.3-0.44,0.48-0.96,0.5-1.5c0-0.8-0.5-1.9,0.4-2.5
	c0.25-0.07,0.52,0.01,0.7,0.2c0.52,0.73,0.39,1.73-0.3,2.3l0.4,0.5c0.49,0.68,0.8,1.47,0.9,2.3l0.5,5.5l0,0
	c-0.51,0.45-0.71,1.15-0.5,1.8l2.9,9.4h-2.4l1-0.5l-1.8-4.5l-1.1-5.2l-1,3.2c-0.08,0.22-0.12,0.46-0.1,0.7l0.4,6.7h-2.3l1.3-0.8
	l-0.5-6c-0.11-0.19-0.11-0.41,0-0.6l0.8-3.3c0,0-0.6-4.2,0-6.4l-2.1-1.4c-0.25-0.15-0.45-0.35-0.6-0.6l-2.2-3.8L207.8,93.4z"/>
<path class="st4" d="M187.2,89.8c0,0,0.9-0.8,0.6-1.5c-0.08-0.38-0.44-0.63-0.82-0.55c-0.2,0.04-0.38,0.17-0.48,0.35
	c-0.31,0.51-0.41,1.12-0.3,1.7c-1.34,1.86-2.2,4.03-2.5,6.3c0,0-0.4,2,0.8,5.9l1.8,5.4h1.6l-1-0.9c0,0-1.6-5-1.6-7.4
	c0-0.33,0.26-0.6,0.59-0.61c0.04,0,0.07,0,0.11,0.01h0.4c0.29,0.05,0.5,0.3,0.5,0.6v5.3l1.4,1l-0.5-1.3l0.5-5
	c0.01-0.11-0.03-0.22-0.1-0.3c-0.26-0.79-0.79-1.47-1.5-1.9c-0.24-0.09-0.37-0.35-0.3-0.6l0.3-3.4l2.5,1.6v-0.7l-1.6-1.1
	c-0.31-0.14-0.48-0.47-0.4-0.8l0,0c0-0.3,0.2-0.4,0.4-0.3l4.8,2.9v-0.7l-5.3-3.3L187.2,89.8z"/>
<path class="st2" d="M248.9,142.6l-31.1,18.5c-0.82,0.52-1.31,1.43-1.3,2.4v33.3c0.03,0.99,0.56,1.89,1.4,2.4l29,17.3
	c0.94,0.5,2.06,0.5,3,0l31-18.5c0.82-0.52,1.31-1.43,1.3-2.4v-33.4c0.01-1-0.53-1.92-1.4-2.4l-29.1-17.2
	C250.82,142.14,249.78,142.14,248.9,142.6z"/>
<path class="st6" d="M244.8,196.1l-17.6-3.3c4.8-7.6,15.6-13.6,29.3-16.5l6.7,9.4C254.6,187.6,247.9,191.3,244.8,196.1z"/>
<polyline class="st5" points="244.8,196.1 244.8,201.2 227.2,198.3 227.2,192.8 "/>
<path class="st3" d="M244.8,201.2c0,0,8-11.5,18.4-12v-3.5c0,0-13.2,2.5-18.4,10.4L244.8,201.2z"/>
<path class="st5" d="M272.1,193.7l-3.8,2.3c-0.1,0-0.1,0.1-0.1,0.3v4c-0.01,0.11,0.03,0.22,0.1,0.3l3.6,2h0.3l3.7-2.2l0.2-0.3v-4
	l-0.2-0.3l-3.5-2.1H272.1z"/>
<path class="st4" d="M272.1,189.3c0,0-0.7-1,0.6-1.7c0.34-0.18,0.76-0.1,1,0.2c0.2,0.3,0.3,0.9-0.8,1.5l-1,6.3h-3.8v4.8h-1.5v-0.6
	h1.1l-0.4-5l2-0.2L272.1,189.3z"/>
<path class="st7" d="M261.1,192.4l-3.6,2.2c-0.07,0.08-0.11,0.19-0.1,0.3v3.9c-0.01,0.11,0.03,0.22,0.1,0.3l3.4,1.9h0.3l3.6-2.1
	l0.2-0.3v-3.9c0.01-0.11-0.03-0.22-0.1-0.3l-3.4-2L261.1,192.4z"/>
<path class="st4" d="M261.1,188.2c0,0-0.7-1,0.6-1.7c0.34-0.18,0.76-0.1,1,0.2c0.2,0.3,0.2,0.9-0.8,1.5l-1,6h-3.6v4.7h-1.4v-0.6h1
	l-0.4-4.8l2-0.2L261.1,188.2z"/>
<path class="st8" d="M267.9,196.3l-3.8,2.2c-0.07,0.08-0.11,0.19-0.1,0.3v4.1c-0.01,0.11,0.03,0.22,0.1,0.3l3.6,2
	c0.07,0.08,0.2,0.09,0.28,0.02c0.01-0.01,0.01-0.01,0.02-0.02l3.7-2.2c0.1-0.1,0.2-0.2,0.2-0.3v-4c0-0.1-0.1-0.3-0.2-0.3l-3.5-2.1
	H267.9z"/>
<path class="st4" d="M267.9,191.9c0,0-0.7-1,0.6-1.7c0.34-0.18,0.76-0.1,1,0.2c0.2,0.3,0.3,0.9-0.8,1.5l-1,6.2h-3.8v4.9h-1.5v-0.7
	h1.1l-0.4-4.9l2-0.2L267.9,191.9z"/>
<path class="st5" d="M257.8,202.5l-3.7,2.2l-0.2,0.3v4.1l0.2,0.3l3.5,2h0.4l3.7-2.3c0.11,0,0.2-0.09,0.2-0.2c0,0,0,0,0,0v-4.1
	c0-0.11-0.09-0.2-0.2-0.2l0,0l-3.5-2.1H257.8z"/>
<path class="st4" d="M257.9,197.7c-0.37-0.48-0.27-1.17,0.21-1.54c0.09-0.07,0.19-0.12,0.29-0.16c0.34-0.18,0.76-0.1,1,0.2
	c0.2,0.3,0.3,0.8-0.7,1.5l-1,6H254v4.7h-1.4v-0.7h1l-0.4-4.7l2-0.2L257.9,197.7z"/>
<path class="st5" d="M283.9,199.5l-3.8,2.2c-0.07,0.08-0.11,0.19-0.1,0.3v4.1c-0.01,0.11,0.03,0.22,0.1,0.3l3.6,2h0.3l3.7-2.2
	l0.2-0.3v-4.1c0-0.11-0.09-0.2-0.2-0.2l0,0l-3.5-2.1H283.9z"/>
<path class="st7" d="M284.3,195.5c0,0-0.7-1,0.6-1.8c0.34-0.15,0.74-0.07,1,0.2c0.2,0.4,0.3,0.9-0.8,1.6l-1,6.2h-3.8v4.9h-1.4v-0.7
	h1l-0.4-4.9l2.1-0.2L284.3,195.5z"/>
<path class="st8" d="M226.7,187.1v-22.3c-0.03-1.04,0.41-2.03,1.2-2.7c4.1-3.8,19.7-14.9,59.5-13.6c1.34,0.05,2.4,1.16,2.4,2.5v19.2
	c0,1.1-0.9,2-2,2c-8.6-0.4-43.1-0.7-59.4,15.6c-0.39,0.39-1.03,0.38-1.41-0.01C226.81,187.6,226.7,187.36,226.7,187.1z"/>
<path class="st4" d="M245,164.4v-0.7c-0.43-0.25-0.58-0.8-0.33-1.23c0.04-0.06,0.08-0.12,0.13-0.17c0.17-0.12,0.4-0.16,0.6-0.1
	c0.3,0.1,0.7,0.5,0.3,1.6s0,1.2,0.8,1.6c0.4,0.25,0.69,0.64,0.8,1.1l0.9,4.7v4.1h-0.8v-4.1l-0.6-1.8l0.4,7.9l0.6,9l0.2,0.2h0.8v0.7
	h-1.4l-0.2-0.2l-0.9-11.1l-0.2-0.2h-0.5c-0.11,0-0.2,0.09-0.2,0.2l0.2,5.3h0.1l0.6,5.4l-0.2,0.2h-1.5v-0.7h0.6l0.2-0.2l-0.6-4.6l0,0
	l-0.2-5.5c0,0-0.2-6.8-0.4-9.9l-2.9-1.7c-0.1,0-0.1-0.2-0.1-0.3l0.3-4.5h0.6l-0.3,3.9c0,0.17,0.13,0.3,0.3,0.3l0,0L245,164.4z"/>
<polygon class="st5" points="265.4,156.9 265.4,165.8 271.2,167.9 271.2,158.9 277.4,156.6 271.7,154.6 "/>
<polygon class="st5" points="271.6,159.2 271.6,164 277.4,166.1 277.4,157 "/>
<path class="st6" d="M233.7,203.4l-3.8,2.2c-0.1,0-0.2,0.2-0.2,0.3v4c0,0.1,0.1,0.3,0.2,0.3l3.5,2c0.11,0.1,0.29,0.1,0.4,0l3.7-2.2
	c0.1,0,0.2-0.2,0.2-0.3v-4l-0.2-0.3l-3.5-2H233.7z"/>
<path class="st4" d="M233.6,198.9c0,0-0.7-1,0.6-1.7c0.34-0.18,0.76-0.1,1,0.2c0.3,0.4,0.3,0.9-0.7,1.5l-1.1,6.3h-3.8v4.8h-1.4v-0.6
	h1.1l-0.4-4.9l2-0.3L233.6,198.9z"/>
<path class="st6" d="M247.3,209.1l-3.6,2.2c-0.1,0-0.2,0.1-0.2,0.3v3.9l0.2,0.2l3.4,2c0.07,0.08,0.2,0.09,0.28,0.02
	c0.01-0.01,0.01-0.01,0.02-0.02l3.6-2.1l0.2-0.3v-3.9l-0.2-0.3l-3.4-2L247.3,209.1z"/>
<path class="st4" d="M247.3,204.9c0,0-0.7-1,0.6-1.7c0.31-0.17,0.69-0.08,0.9,0.2c0.3,0.3,0.3,0.8-0.7,1.5l-1,6h-3.7v4.7h-1.3v-0.7
	h1l-0.4-4.7l2-0.2L247.3,204.9z"/>
<path class="st5" d="M183.6,181l-29.2,17.1c-0.83,0.52-1.35,1.42-1.4,2.4v33.8c0.03,0.99,0.56,1.89,1.4,2.4l29.2,16.8
	c0.87,0.5,1.93,0.5,2.8,0l29.1-17.2c0.87-0.48,1.41-1.4,1.4-2.4v-33.4c-0.01-0.99-0.54-1.9-1.4-2.4L186.4,181
	C185.56,180.4,184.44,180.4,183.6,181z"/>
<linearGradient id="SVGID_14_" gradientUnits="userSpaceOnUse" x1="184.55" y1="420.7698" x2="184.55" y2="402.5298" gradientTransform="matrix(1 0 0 -1 0 647.8898)">
	<stop  offset="0" style="stop-color:#9FF5D9"/>
	<stop  offset="1" style="stop-color:#EBFDF7"/>
</linearGradient>
<polyline class="st23" points="178.4,225.6 190.7,232.4 190.7,243.4 184.6,246.9 178.4,243.4 "/>
<path class="st7" d="M185,178.2l3.5,2c0.12,0.14,0.19,0.32,0.2,0.5v4c0,0.2-0.2,0.3-0.4,0.2l-3.5-2c-0.13-0.09-0.2-0.24-0.2-0.4v-4
	C184.6,178.2,184.8,178.1,185,178.2z"/>
<path class="st6" d="M164.1,205.3l-3.8-2.2v-4.6h0.1l3.8,2.2c0.11,0,0.2,0.09,0.2,0.2v4.4C164.3,205.3,164.2,205.3,164.1,205.3z"/>
<path class="st3" d="M206.8,234.1l-22,12.6c-0.15,0.12-0.35,0.12-0.5,0l-22-12.6c-0.09-0.15-0.09-0.35,0-0.5l22-12.7h0.5l22,12.7
	c0.14,0.09,0.18,0.28,0.08,0.42C206.86,234.05,206.83,234.08,206.8,234.1z M189.4,248.8L215,234c0.11,0,0.2-0.09,0.2-0.2
	c0-0.11-0.09-0.2-0.2-0.2l-30.2-17.4h-0.5l-30.1,17.4c-0.11,0-0.2,0.09-0.2,0.2c0,0.11,0.09,0.2,0.2,0.2l25.5,14.8l4.8,2.6h0.6
	L189.4,248.8z"/>
<path class="st7" d="M166.4,222.2l3.5,2c0.2,0.09,0.32,0.29,0.3,0.5v4c0,0.2-0.2,0.3-0.4,0.2l-3.5-2c-0.16-0.07-0.28-0.22-0.3-0.4
	v-4.1c0.04-0.16,0.21-0.25,0.37-0.21C166.38,222.19,166.39,222.2,166.4,222.2z"/>
<linearGradient id="SVGID_15_" gradientUnits="userSpaceOnUse" x1="178.45" y1="447.4598" x2="178.45" y2="412.5998" gradientTransform="matrix(1 0 0 -1 0 647.8898)">
	<stop  offset="0" style="stop-color:#9FF5D9"/>
	<stop  offset="1" style="stop-color:#EBFDF7"/>
</linearGradient>
<polyline class="st24" points="172.3,197.5 184.6,204.4 184.6,238.2 176.4,233.3 172.3,230.7 "/>
<path class="st4" d="M190.2,233.3l-11.4-6.6c-0.22-0.13-0.37-0.35-0.4-0.6v-13.2c0-0.3,0.3-0.4,0.6-0.3l11.4,6.6
	c0.21,0.12,0.33,0.36,0.3,0.6V233c0.05,0.16-0.04,0.33-0.2,0.38C190.4,233.41,190.28,233.38,190.2,233.3z"/>
<ellipse transform="matrix(0.866 -0.5 0.5 0.866 -86.2798 120.329)" class="st25" cx="181.4" cy="221.16" rx="1.2" ry="1.3"/>
<ellipse transform="matrix(0.866 -0.5 0.5 0.866 -87.1755 123.8751)" class="st9" cx="187.57" cy="224.61" rx="1.2" ry="1.3"/>
<linearGradient id="SVGID_16_" gradientUnits="userSpaceOnUse" x1="182.777" y1="428.6688" x2="203.277" y2="421.1188" gradientTransform="matrix(1 0 0 -1 0 647.8898)">
	<stop  offset="0" style="stop-color:#02E49B"/>
	<stop  offset="1" style="stop-color:#02E49B;stop-opacity:0.38"/>
</linearGradient>
<polygon class="st26" points="188.9,220.4 184.5,217.9 184.5,217.9 184.5,217.9 184.5,217.9 184.5,217.9 181.7,219.5 183.5,220.5 
	184.5,219.9 187.2,221.4 187.2,222.6 188,223.1 188.9,222.6 188.9,220.4 "/>
<linearGradient id="SVGID_17_" gradientUnits="userSpaceOnUse" x1="203.1533" y1="411.7771" x2="181.3333" y2="423.2871" gradientTransform="matrix(1 0 0 -1 0 647.8898)">
	<stop  offset="0" style="stop-color:#02E49B"/>
	<stop  offset="1" style="stop-color:#02E49B;stop-opacity:0.38"/>
</linearGradient>
<polygon class="st27" points="185.6,225.3 184.5,226 181.9,224.4 181.9,224.4 181.9,224.4 181.9,223.3 181,222.7 180.2,223.3 
	180.2,225.4 184.5,228 184.5,228 184.5,228 184.5,228 184.5,228 187.3,226.3 "/>
<path class="st4" d="M172.8,230.4l11.4,6.6c0.23,0.11,0.39,0.34,0.4,0.6v9.3l-12.3-7.1v-9.1c-0.05-0.16,0.04-0.33,0.2-0.38
	C172.6,230.29,172.72,230.32,172.8,230.4z"/>
<path class="st8" d="M182.7,245.8c0.52-0.53,0.81-1.25,0.8-2v-4.2c0-0.2-0.1-0.3-0.2-0.3l-6.7-3.8h-0.3l-1.5,0.5h-0.2l-2,3.9l3.5,2"
	/>
<polygon class="st9" points="176.6,239.3 175.9,238.9 176.2,238.1 175.6,237.8 175.3,238.5 174.5,238.1 174.2,238.7 175,239.2 
	174.6,240 175.2,240.3 175.6,239.5 176.3,239.9 "/>
<ellipse class="st9" cx="181" cy="240.6" rx="0.4" ry="0.4"/>
<ellipse class="st9" cx="180.3" cy="242.8" rx="0.4" ry="0.4"/>
<ellipse class="st9" cx="179.6" cy="241.2" rx="0.4" ry="0.4"/>
<ellipse class="st9" cx="181.7" cy="242.1" rx="0.4" ry="0.4"/>
<linearGradient id="SVGID_18_" gradientUnits="userSpaceOnUse" x1="201.05" y1="436.0998" x2="201.05" y2="411.3598" gradientTransform="matrix(1 0 0 -1 0 647.8898)">
	<stop  offset="0" style="stop-color:#9FF5D9"/>
	<stop  offset="1" style="stop-color:#EBFDF7"/>
</linearGradient>
<polyline class="st28" points="194.9,209.7 207.2,216.6 207.2,233.8 199.1,238.6 194.9,237.5 "/>
<path class="st6" d="M191.6,214.3l3.5,2c0.12,0.14,0.19,0.32,0.2,0.5v4c0,0.2-0.2,0.3-0.4,0.2l-3.5-2c-0.13-0.09-0.2-0.24-0.2-0.4
	v-4.1C191.2,214.3,191.4,214.2,191.6,214.3z"/>
<path class="st6" d="M195.4,236.3l3.6,2.1v0.2l-2.1,1.1l-1.9,1.2c-0.1,0-0.1-0.1-0.1-0.2v-4.2C195,236.3,195.2,236.2,195.4,236.3z"
	/>
<path class="st4" d="M206.7,216.9l-11.4-6.6c-0.23-0.17-0.37-0.42-0.4-0.7v-13.1c0-0.3,0.3-0.5,0.5-0.3l11.5,6.6
	c0.21,0.12,0.33,0.36,0.3,0.6v13.2c-0.05,0.22-0.26,0.35-0.48,0.31C206.72,216.9,206.71,216.9,206.7,216.9z"/>
<path class="st8" d="M204.9,209.7l-8-2.1h-0.1v-5.2c0-0.1,0.1-0.2,0.2-0.1l8,2l0.2,0.3v4.9C205.16,209.63,205.03,209.71,204.9,209.7
	z"/>
<path class="st2" d="M197.1,202.2l6.8,3.9c0.07,0.08,0.11,0.19,0.1,0.3v5.1c0,0.1-0.1,0.2-0.2,0.1l-6.8-3.9l-0.2-0.3v-5.1
	c0.04-0.1,0.15-0.16,0.25-0.12C197.07,202.18,197.09,202.19,197.1,202.2z"/>
<path class="st9" d="M202.3,207.4l1.7,1l0,0v1.1l0,0l-1.8-1l0,0v-1L202.3,207.4z"/>
<path class="st6" d="M203.4,208.3l0.3,0.2l0,0v0.4l0,0l-0.3-0.2h-0.1v-0.4H203.4z"/>
<path class="st4" d="M184.1,211.6l-11.4-6.6c-0.23-0.11-0.39-0.34-0.4-0.6v-13.2c0-0.3,0.3-0.5,0.5-0.3l11.4,6.6
	c0.27,0.05,0.45,0.31,0.4,0.58c0,0.01,0,0.01,0,0.02v13.2c-0.05,0.22-0.26,0.35-0.48,0.31C184.12,211.6,184.11,211.6,184.1,211.6z"
	/>
<path class="st8" d="M180.9,207l-5.3-3.1c-0.1,0-0.2-0.2-0.2-0.3v-8c0-0.2,0.2-0.3,0.3-0.2l4.2,2.4l1.4,3.1v5.9
	C181.3,207,181.1,207.1,180.9,207z"/>
<path class="st6" d="M179.9,197.8v2c0,0.1,0.1,0.3,0.2,0.3l1.3,0.8"/>
<path class="st29" d="M178.7,204.5c0.22-0.57,0.56-1.08,1-1.5h0.4c0.25,0.64,0.28,1.34,0.1,2c0.21-0.32,0.48-0.59,0.8-0.8
	c0.03-0.11,0.14-0.18,0.25-0.15s0.18,0.14,0.15,0.25c0.15,0.42,0.15,0.88,0,1.3c0,0,0,0.4,0.5,0"/>
<path class="st9" d="M178.4,199.7l-2.3-1.3c-0.06-0.05-0.09-0.12-0.1-0.2v-0.4c0-0.1,0.1-0.2,0.2-0.1l2.3,1.3v0.6
	C178.6,199.7,178.5,199.8,178.4,199.7z"/>
<path class="st9" d="M177.1,200.5l-1-0.6H176v-0.5c0-0.1,0.1-0.1,0.2-0.1l0.9,0.6c0.1,0,0.1,0.1,0.1,0.2v0.4L177.1,200.5z"/>
<path class="st9" d="M178.3,202.8l-2.2-1.3v-0.7c0-0.1,0-0.1,0.1-0.1l2.3,1.3v0.7C178.5,202.8,178.4,202.8,178.3,202.8z"/>
<g class="st30">
	<path class="st4" d="M132.78,320.1h-0.66c-0.14,0-0.21-0.07-0.21-0.21v-8.19c0-0.09-0.05-0.13-0.15-0.13h-2
		c-0.15,0-0.22-0.07-0.22-0.21v-0.53c0-0.14,0.07-0.21,0.22-0.21h5.38c0.15,0,0.22,0.07,0.22,0.21v0.53c0,0.14-0.07,0.21-0.22,0.21
		h-2c-0.1,0-0.15,0.04-0.15,0.13v8.19C132.98,320.03,132.91,320.1,132.78,320.1z"/>
	<path class="st4" d="M137.47,320.1h-0.66c-0.14,0-0.21-0.07-0.21-0.21v-9.94c0-0.14,0.07-0.21,0.21-0.21h0.66
		c0.14,0,0.21,0.07,0.21,0.21v3.42h0.06c0.25-0.52,0.75-0.78,1.5-0.78h0.83c0.67,0,1.19,0.19,1.56,0.58
		c0.37,0.38,0.56,0.92,0.56,1.61v5.13c0,0.14-0.07,0.21-0.21,0.21h-0.66c-0.14,0-0.21-0.07-0.21-0.21v-5.08
		c0-0.85-0.41-1.28-1.24-1.28h-0.83c-0.44,0-0.78,0.12-1.02,0.35c-0.24,0.24-0.35,0.57-0.35,1v5.01
		C137.68,320.03,137.61,320.1,137.47,320.1z"/>
	<path class="st4" d="M149.3,320.1h-3.12c-0.68,0-1.21-0.19-1.6-0.57c-0.39-0.38-0.58-0.92-0.58-1.61v-3.15
		c0-0.69,0.19-1.22,0.58-1.61c0.39-0.38,0.92-0.58,1.6-0.58h1.24c0.68,0,1.21,0.19,1.59,0.58c0.38,0.38,0.57,0.92,0.57,1.61v1.87
		c0,0.15-0.07,0.22-0.21,0.22h-4.17c-0.1,0-0.15,0.04-0.15,0.13v0.9c0,0.85,0.41,1.28,1.24,1.28h3c0.14,0,0.21,0.07,0.21,0.21v0.53
		C149.51,320.04,149.44,320.1,149.3,320.1z M145.21,316.08h3.18c0.1,0,0.15-0.05,0.15-0.15v-1.13c0-0.84-0.41-1.27-1.24-1.27h-1
		c-0.82,0-1.24,0.42-1.24,1.27v1.13C145.06,316.03,145.11,316.08,145.21,316.08z"/>
	<path class="st4" d="M156.14,320.1h-0.65c-0.14,0-0.21-0.07-0.21-0.21v-9.06c0-0.14,0.07-0.21,0.21-0.21h0.6
		c0.12,0,0.2,0.04,0.24,0.12l4.07,7.14h0.06v-7.06c0-0.14,0.07-0.21,0.21-0.21h0.65c0.14,0,0.21,0.07,0.21,0.21v9.06
		c0,0.14-0.07,0.21-0.21,0.21h-0.55c-0.11,0-0.21-0.06-0.31-0.19l-4.05-7.07h-0.06v7.06C156.34,320.03,156.27,320.1,156.14,320.1z"
		/>
	<path class="st4" d="M168.85,320.1h-3.12c-0.68,0-1.21-0.19-1.6-0.57c-0.39-0.38-0.58-0.92-0.58-1.61v-3.15
		c0-0.69,0.19-1.22,0.58-1.61c0.39-0.38,0.92-0.58,1.6-0.58h1.24c0.68,0,1.21,0.19,1.59,0.58c0.38,0.38,0.57,0.92,0.57,1.61v1.87
		c0,0.15-0.07,0.22-0.21,0.22h-4.17c-0.1,0-0.15,0.04-0.15,0.13v0.9c0,0.85,0.41,1.28,1.24,1.28h3c0.14,0,0.21,0.07,0.21,0.21v0.53
		C169.06,320.04,168.99,320.1,168.85,320.1z M164.75,316.08h3.18c0.1,0,0.15-0.05,0.15-0.15v-1.13c0-0.84-0.41-1.27-1.24-1.27h-1
		c-0.82,0-1.24,0.42-1.24,1.27v1.13C164.61,316.03,164.66,316.08,164.75,316.08z"/>
	<path class="st4" d="M174.24,320.1h-1.27c-0.68,0-1.21-0.19-1.6-0.57c-0.39-0.38-0.58-0.92-0.58-1.61v-3.15
		c0-0.69,0.19-1.22,0.58-1.61c0.39-0.38,0.92-0.58,1.6-0.58h1.27c0.68,0,1.21,0.19,1.6,0.58c0.39,0.38,0.58,0.92,0.58,1.61v3.15
		c0,0.69-0.19,1.22-0.58,1.61C175.45,319.91,174.92,320.1,174.24,320.1z M173.09,319.16h1.03c0.82,0,1.24-0.42,1.24-1.27v-3.09
		c0-0.84-0.41-1.27-1.24-1.27h-1.03c-0.82,0-1.24,0.42-1.24,1.27v3.09C171.85,318.73,172.27,319.16,173.09,319.16z"/>
	<path class="st4" d="M188.85,310.63h1.19c0.14,0,0.21,0.07,0.21,0.21v9.06c0,0.14-0.07,0.21-0.21,0.21h-0.65
		c-0.14,0-0.21-0.07-0.21-0.21v-7.82h-0.06l-2.28,5.77c-0.06,0.13-0.15,0.19-0.27,0.19h-0.71c-0.13,0-0.21-0.06-0.25-0.19
		l-2.33-5.79h-0.06v7.84c0,0.14-0.06,0.21-0.19,0.21h-0.65c-0.14,0-0.21-0.07-0.21-0.21v-9.06c0-0.14,0.07-0.21,0.21-0.21h1.19
		c0.09,0,0.15,0.04,0.18,0.12l2.42,6.1h0.07l2.42-6.1C188.7,310.67,188.75,310.63,188.85,310.63z"/>
	<path class="st4" d="M195.23,320.1h-0.77c-0.68,0-1.21-0.19-1.6-0.57s-0.58-0.92-0.58-1.61v-3.15c0-0.69,0.19-1.22,0.58-1.61
		c0.39-0.38,0.92-0.58,1.6-0.58h3.2c0.14,0,0.21,0.07,0.21,0.21v7.1c0,0.14-0.07,0.21-0.21,0.21H197c-0.14,0-0.21-0.07-0.21-0.21
		v-0.57h-0.06C196.49,319.84,195.99,320.1,195.23,320.1z M196.79,317.8v-4.14c0-0.09-0.05-0.13-0.15-0.13h-2.06
		c-0.82,0-1.22,0.43-1.22,1.28v3.06c0,0.85,0.41,1.28,1.22,1.28h0.84c0.44,0,0.78-0.12,1.02-0.35
		C196.67,318.57,196.79,318.23,196.79,317.8z"/>
	<path class="st4" d="M199.97,311.35v-1.38c0-0.14,0.06-0.21,0.19-0.21h0.68c0.14,0,0.21,0.07,0.21,0.21v1.38
		c0,0.14-0.07,0.21-0.21,0.21h-0.68C200.04,311.56,199.97,311.49,199.97,311.35z M199.97,319.89v-7.1c0-0.14,0.06-0.21,0.19-0.21
		h0.68c0.14,0,0.21,0.07,0.21,0.21v7.1c0,0.14-0.07,0.21-0.21,0.21h-0.66C200.04,320.1,199.97,320.03,199.97,319.89z"/>
	<path class="st4" d="M204.02,320.1h-0.66c-0.14,0-0.21-0.07-0.21-0.21v-7.1c0-0.14,0.07-0.21,0.21-0.21h0.66
		c0.14,0,0.21,0.07,0.21,0.21v0.57h0.06c0.25-0.52,0.75-0.78,1.5-0.78h0.83c0.67,0,1.19,0.19,1.56,0.58
		c0.37,0.38,0.56,0.92,0.56,1.61v5.13c0,0.14-0.07,0.21-0.21,0.21h-0.66c-0.14,0-0.21-0.07-0.21-0.21v-5.08
		c0-0.85-0.41-1.28-1.24-1.28h-0.83c-0.44,0-0.78,0.12-1.02,0.35c-0.24,0.24-0.35,0.57-0.35,1v5.01
		C204.23,320.03,204.16,320.1,204.02,320.1z"/>
	<path class="st4" d="M211.7,320.1h-0.65c-0.14,0-0.21-0.07-0.21-0.21v-9.06c0-0.14,0.07-0.21,0.21-0.21h0.6
		c0.12,0,0.2,0.04,0.24,0.12l4.07,7.14h0.06v-7.06c0-0.14,0.07-0.21,0.21-0.21h0.65c0.14,0,0.21,0.07,0.21,0.21v9.06
		c0,0.14-0.07,0.21-0.21,0.21h-0.55c-0.11,0-0.21-0.06-0.31-0.19l-4.05-7.07h-0.06v7.06C211.9,320.03,211.84,320.1,211.7,320.1z"/>
	<path class="st4" d="M224.41,320.1h-3.12c-0.68,0-1.21-0.19-1.6-0.57c-0.39-0.38-0.58-0.92-0.58-1.61v-3.15
		c0-0.69,0.19-1.22,0.58-1.61c0.39-0.38,0.92-0.58,1.6-0.58h1.24c0.68,0,1.21,0.19,1.59,0.58c0.38,0.38,0.57,0.92,0.57,1.61v1.87
		c0,0.15-0.07,0.22-0.21,0.22h-4.17c-0.1,0-0.15,0.04-0.15,0.13v0.9c0,0.85,0.41,1.28,1.24,1.28h3c0.14,0,0.21,0.07,0.21,0.21v0.53
		C224.62,320.04,224.55,320.1,224.41,320.1z M220.32,316.08h3.18c0.1,0,0.15-0.05,0.15-0.15v-1.13c0-0.84-0.41-1.27-1.24-1.27h-1
		c-0.83,0-1.24,0.42-1.24,1.27v1.13C220.17,316.03,220.22,316.08,220.32,316.08z"/>
	<path class="st4" d="M226.78,313.53h-0.81c-0.14,0-0.21-0.06-0.21-0.19v-0.54c0-0.14,0.07-0.21,0.21-0.21h0.81
		c0.1,0,0.15-0.04,0.15-0.13v-1.27c0-0.14,0.07-0.21,0.21-0.21h0.66c0.13,0,0.19,0.07,0.19,0.21v1.27c0,0.09,0.05,0.13,0.16,0.13
		h1.56c0.15,0,0.22,0.07,0.22,0.21v0.54c0,0.13-0.07,0.19-0.22,0.19h-1.56c-0.11,0-0.16,0.04-0.16,0.13v4.24
		c0,0.83,0.43,1.25,1.3,1.25h0.58c0.15,0,0.22,0.07,0.22,0.21v0.54c0,0.13-0.07,0.19-0.22,0.19h-0.71c-0.68,0-1.22-0.19-1.62-0.57
		c-0.4-0.38-0.6-0.91-0.6-1.58v-4.29C226.93,313.57,226.88,313.53,226.78,313.53z"/>
</g>
<g class="st30">
	<path class="st4" d="M63.44,336.04h1.13c0.49,0,0.84-0.1,1.05-0.3c0.21-0.2,0.32-0.53,0.32-0.98v-1.04c0-0.46-0.11-0.78-0.32-0.98
		c-0.21-0.2-0.56-0.3-1.05-0.3H63.5c-0.47,0-0.8,0.1-0.99,0.3c-0.19,0.2-0.29,0.53-0.29,0.98v0.55c0,0.31-0.15,0.46-0.46,0.46h-1.88
		c-0.31,0-0.46-0.15-0.46-0.46v-0.6c0-1.15,0.32-2.03,0.95-2.65c0.63-0.62,1.53-0.93,2.7-0.93h1.97c1.16,0,2.06,0.31,2.69,0.93
		c0.63,0.62,0.95,1.5,0.95,2.65v1.1c0,1.24-0.58,2.04-1.75,2.41c1.16,0.25,1.75,1.05,1.75,2.41v1.13c0,1.15-0.32,2.03-0.95,2.65
		s-1.53,0.93-2.69,0.93h-1.97c-1.16,0-2.06-0.31-2.7-0.93s-0.95-1.5-0.95-2.65v-0.62c0-0.32,0.15-0.49,0.46-0.49h1.88
		c0.31,0,0.46,0.16,0.46,0.49v0.57c0,0.47,0.1,0.8,0.29,0.99c0.19,0.19,0.52,0.29,0.99,0.29h1.06c0.49,0,0.84-0.1,1.05-0.3
		c0.21-0.2,0.32-0.53,0.32-0.98v-1.08c0-0.46-0.11-0.78-0.32-0.98c-0.21-0.2-0.56-0.3-1.05-0.3h-1.13c-0.31,0-0.46-0.15-0.46-0.46
		v-1.33C62.97,336.2,63.13,336.04,63.44,336.04z"/>
	<path class="st4" d="M81.35,344.3h-1.88c-0.31,0-0.46-0.15-0.46-0.46v-4.73l-4.04-8.53c-0.06-0.13-0.06-0.25,0.01-0.34
		c0.07-0.1,0.17-0.14,0.3-0.14h2.34c0.24,0,0.41,0.16,0.53,0.46l2.21,5.37h0.15l2.17-5.37c0.1-0.31,0.28-0.46,0.53-0.46h2.34
		c0.15,0,0.25,0.04,0.32,0.13c0.07,0.09,0.06,0.21-0.01,0.35l-4.04,8.53v4.73C81.82,344.15,81.66,344.3,81.35,344.3z"/>
	<path class="st4" d="M95.64,344.3h-4.88c-1.16,0-2.06-0.31-2.69-0.93s-0.95-1.51-0.95-2.67v-4.06c0-1.16,0.32-2.05,0.95-2.67
		c0.63-0.62,1.53-0.93,2.69-0.93h1.75c1.16,0,2.06,0.31,2.7,0.93c0.63,0.62,0.95,1.51,0.95,2.67v2.81c0,0.31-0.15,0.46-0.46,0.46
		h-5.54c-0.18,0-0.27,0.08-0.27,0.24v0.49c0,0.46,0.1,0.78,0.3,0.98c0.2,0.2,0.53,0.3,1,0.3h4.46c0.31,0,0.46,0.16,0.46,0.49v1.46
		c0,0.16-0.03,0.28-0.1,0.34S95.82,344.3,95.64,344.3z M90.14,338.03h3c0.16,0,0.24-0.08,0.24-0.24v-1.06c0-0.47-0.1-0.8-0.29-0.99
		c-0.19-0.19-0.52-0.29-0.99-0.29h-0.93c-0.47,0-0.8,0.1-0.99,0.29c-0.19,0.19-0.29,0.52-0.29,0.99v1.06
		C89.9,337.95,89.98,338.03,90.14,338.03z"/>
	<path class="st4" d="M102.2,344.3h-0.53c-1.16,0-2.06-0.31-2.69-0.93s-0.95-1.51-0.95-2.67v-4.06c0-1.16,0.32-2.05,0.95-2.67
		c0.63-0.62,1.53-0.93,2.69-0.93h5.1c0.32,0,0.49,0.15,0.49,0.46v10.34c0,0.31-0.16,0.46-0.49,0.46h-1.86
		c-0.31,0-0.46-0.15-0.46-0.46v-0.73h-0.09c-0.16,0.4-0.45,0.7-0.86,0.89C103.1,344.2,102.66,344.3,102.2,344.3z M104.46,340.19
		v-4.48c0-0.16-0.09-0.24-0.27-0.24h-2.08c-0.47,0-0.8,0.1-0.99,0.3c-0.19,0.2-0.29,0.53-0.29,1.01v3.8c0,0.47,0.1,0.81,0.29,1
		c0.19,0.2,0.52,0.3,0.99,0.3h0.82C103.95,341.87,104.46,341.31,104.46,340.19z"/>
	<path class="st4" d="M112.03,344.3h-1.88c-0.31,0-0.46-0.15-0.46-0.46V333.5c0-0.31,0.15-0.46,0.46-0.46h1.88
		c0.31,0,0.46,0.15,0.46,0.46v0.75h0.09c0.16-0.4,0.45-0.7,0.86-0.91c0.41-0.21,0.85-0.31,1.3-0.31h0.8c0.29,0,0.44,0.15,0.44,0.46
		v1.52c0,0.18-0.03,0.3-0.1,0.36s-0.18,0.09-0.34,0.08h-1.52c-1.02,0-1.52,0.57-1.52,1.72v6.65
		C112.5,344.15,112.34,344.3,112.03,344.3z"/>
	<path class="st4" d="M123.96,344.3h-2.12c-0.27,0-0.35-0.15-0.27-0.46l3.49-13.28c0.1-0.31,0.32-0.46,0.66-0.46h2.94
		c0.37,0,0.59,0.16,0.66,0.46l3.49,13.28c0.09,0.31,0,0.46-0.27,0.46h-2.12c-0.16,0-0.27-0.03-0.33-0.1
		c-0.06-0.07-0.1-0.19-0.13-0.36l-0.62-2.43h-4.31l-0.62,2.43c-0.03,0.18-0.08,0.3-0.14,0.36
		C124.22,344.27,124.11,344.3,123.96,344.3z M127.17,332.77l-1.59,6.38h3.27l-1.59-6.38H127.17z"/>
	<path class="st4" d="M136.91,344.3h-1.88c-0.31,0-0.46-0.15-0.46-0.46V333.5c0-0.31,0.15-0.46,0.46-0.46h1.88
		c0.31,0,0.46,0.15,0.46,0.46v0.73h0.09c0.32-0.79,1.05-1.19,2.16-1.19h0.71c2.31,0,3.47,1.2,3.47,3.6v7.2
		c0,0.31-0.16,0.46-0.49,0.46h-1.86c-0.31,0-0.46-0.15-0.46-0.46v-7.07c0-0.47-0.1-0.81-0.3-1.01c-0.2-0.2-0.53-0.3-1-0.3h-0.8
		c-1.02,0-1.52,0.56-1.52,1.68v6.69C137.37,344.15,137.22,344.3,136.91,344.3z"/>
	<path class="st4" d="M148.46,344.3h-1.88c-0.31,0-0.46-0.15-0.46-0.46V333.5c0-0.31,0.15-0.46,0.46-0.46h1.88
		c0.31,0,0.46,0.15,0.46,0.46v0.73h0.09c0.32-0.79,1.05-1.19,2.16-1.19h0.71c2.31,0,3.47,1.2,3.47,3.6v7.2
		c0,0.31-0.16,0.46-0.49,0.46h-1.86c-0.31,0-0.46-0.15-0.46-0.46v-7.07c0-0.47-0.1-0.81-0.3-1.01c-0.2-0.2-0.53-0.3-1-0.3h-0.8
		c-1.02,0-1.52,0.56-1.52,1.68v6.69C148.92,344.15,148.77,344.3,148.46,344.3z"/>
	<path class="st4" d="M157.78,331.13v-1.92c0-0.29,0.15-0.44,0.44-0.44h1.92c0.29,0,0.44,0.14,0.44,0.42v1.94
		c0,0.29-0.15,0.44-0.44,0.44h-1.92C157.93,331.58,157.78,331.43,157.78,331.13z M157.78,343.84V333.5c0-0.31,0.15-0.46,0.44-0.46
		h1.9c0.31,0,0.46,0.15,0.46,0.46v10.34c0,0.19-0.03,0.32-0.1,0.38c-0.07,0.06-0.18,0.09-0.34,0.09h-1.9
		C157.94,344.3,157.78,344.15,157.78,343.84z"/>
	<path class="st4" d="M162.64,333.03h1.94c0.29,0,0.47,0.15,0.53,0.46l1.9,8.31h0.15l1.86-8.31c0.06-0.31,0.24-0.46,0.55-0.46h1.94
		c0.31,0,0.42,0.15,0.33,0.46l-2.78,10.32c-0.06,0.32-0.26,0.49-0.6,0.49h-2.81c-0.31,0-0.51-0.16-0.6-0.49l-2.76-10.32
		C162.22,333.19,162.33,333.03,162.64,333.03z"/>
	<path class="st4" d="M181.77,344.3h-4.88c-1.16,0-2.06-0.31-2.69-0.93s-0.95-1.51-0.95-2.67v-4.06c0-1.16,0.32-2.05,0.95-2.67
		c0.63-0.62,1.53-0.93,2.69-0.93h1.75c1.16,0,2.06,0.31,2.7,0.93c0.63,0.62,0.95,1.51,0.95,2.67v2.81c0,0.31-0.15,0.46-0.46,0.46
		h-5.54c-0.18,0-0.27,0.08-0.27,0.24v0.49c0,0.46,0.1,0.78,0.3,0.98c0.2,0.2,0.53,0.3,1,0.3h4.46c0.31,0,0.46,0.16,0.46,0.49v1.46
		c0,0.16-0.03,0.28-0.1,0.34S181.95,344.3,181.77,344.3z M176.27,338.03h3c0.16,0,0.24-0.08,0.24-0.24v-1.06
		c0-0.47-0.1-0.8-0.29-0.99c-0.19-0.19-0.52-0.29-0.99-0.29h-0.93c-0.47,0-0.8,0.1-0.99,0.29c-0.19,0.19-0.29,0.52-0.29,0.99v1.06
		C176.03,337.95,176.11,338.03,176.27,338.03z"/>
	<path class="st4" d="M186.72,344.3h-1.88c-0.31,0-0.46-0.15-0.46-0.46V333.5c0-0.31,0.15-0.46,0.46-0.46h1.88
		c0.31,0,0.46,0.15,0.46,0.46v0.75h0.09c0.16-0.4,0.45-0.7,0.86-0.91c0.41-0.21,0.85-0.31,1.3-0.31h0.79c0.29,0,0.44,0.15,0.44,0.46
		v1.52c0,0.18-0.03,0.3-0.1,0.36s-0.18,0.09-0.34,0.08h-1.52c-1.02,0-1.52,0.57-1.52,1.72v6.65
		C187.18,344.15,187.03,344.3,186.72,344.3z"/>
	<path class="st4" d="M196.35,344.3h-4.2c-0.29,0-0.44-0.15-0.44-0.46v-1.41c0-0.16,0.03-0.28,0.09-0.34s0.18-0.1,0.35-0.1h3.69
		c0.72,0,1.08-0.22,1.08-0.66v-0.11c0-0.35-0.3-0.69-0.91-1.02l-2.19-1.21c-0.75-0.38-1.3-0.8-1.66-1.24
		c-0.35-0.44-0.53-1.01-0.53-1.7c0-1.03,0.27-1.79,0.82-2.28c0.54-0.49,1.4-0.73,2.56-0.73h3.69c0.29,0,0.44,0.15,0.44,0.46v1.44
		c0,0.16-0.03,0.28-0.09,0.34s-0.18,0.1-0.35,0.1h-3.07c-0.72,0-1.08,0.18-1.08,0.55v0.11c0,0.32,0.32,0.66,0.95,0.99l2.23,1.33
		c0.77,0.41,1.3,0.84,1.61,1.27c0.31,0.43,0.46,1,0.46,1.71C199.82,343.31,198.66,344.3,196.35,344.3z"/>
	<path class="st4" d="M205.72,344.3h-0.53c-1.16,0-2.06-0.31-2.69-0.93c-0.63-0.62-0.95-1.51-0.95-2.67v-4.06
		c0-1.16,0.32-2.05,0.95-2.67c0.63-0.62,1.53-0.93,2.69-0.93h5.1c0.32,0,0.49,0.15,0.49,0.46v10.34c0,0.31-0.16,0.46-0.49,0.46
		h-1.86c-0.31,0-0.46-0.15-0.46-0.46v-0.73h-0.09c-0.16,0.4-0.45,0.7-0.86,0.89C206.61,344.2,206.17,344.3,205.72,344.3z
		 M207.97,340.19v-4.48c0-0.16-0.09-0.24-0.27-0.24h-2.08c-0.47,0-0.8,0.1-0.99,0.3c-0.19,0.2-0.29,0.53-0.29,1.01v3.8
		c0,0.47,0.1,0.81,0.29,1c0.19,0.2,0.52,0.3,0.99,0.3h0.82C207.46,341.87,207.97,341.31,207.97,340.19z"/>
	<path class="st4" d="M215.55,344.3h-1.88c-0.31,0-0.46-0.15-0.46-0.46V333.5c0-0.31,0.16-0.46,0.46-0.46h1.88
		c0.31,0,0.46,0.15,0.46,0.46v0.75h0.09c0.16-0.4,0.45-0.7,0.86-0.91c0.41-0.21,0.85-0.31,1.3-0.31h0.8c0.29,0,0.44,0.15,0.44,0.46
		v1.52c0,0.18-0.03,0.3-0.1,0.36s-0.18,0.09-0.34,0.08h-1.52c-1.02,0-1.52,0.57-1.52,1.72v6.65
		C216.01,344.15,215.86,344.3,215.55,344.3z"/>
	<path class="st4" d="M222.75,348.03h-1.41c-0.29,0-0.44-0.16-0.44-0.49v-1.48c0-0.32,0.15-0.49,0.44-0.49h0.46
		c0.93,0,1.56-0.13,1.89-0.39c0.33-0.26,0.58-0.75,0.76-1.49h-1.17c-0.28,0-0.46-0.15-0.55-0.46l-2.58-9.74
		c-0.09-0.31,0.02-0.46,0.33-0.46h1.97c0.29,0,0.48,0.15,0.55,0.46l1.9,8.15h0.09l1.88-8.15c0.06-0.31,0.24-0.46,0.55-0.46h1.86
		c0.37,0,0.52,0.16,0.44,0.49l-2.7,10.78c-0.32,1.22-0.83,2.15-1.5,2.78C224.83,347.72,223.91,348.03,222.75,348.03z"/>
</g>
<path class="st7" d="M279.9,237.7l-29.2,17.2c-0.82,0.52-1.31,1.43-1.3,2.4V291c-0.01,0.97,0.48,1.88,1.3,2.4l29.2,16.9
	c0.87,0.52,1.97,0.48,2.8-0.1l29.2-17.1c0.82-0.52,1.31-1.43,1.3-2.4v-33.4c0.01-1-0.53-1.92-1.4-2.4l-29.1-17.2
	C281.82,237.24,280.78,237.24,279.9,237.7z"/>
<linearGradient id="SVGID_19_" gradientUnits="userSpaceOnUse" x1="257.6577" y1="387.7435" x2="267.8177" y2="380.0935" gradientTransform="matrix(1 0 0 -1 0 647.8898)">
	<stop  offset="0" style="stop-color:#53EDBB"/>
	<stop  offset="1" style="stop-color:#D1FAED"/>
</linearGradient>
<polygon class="st31" points="256.1,259.3 258.9,259.1 270.9,264.6 267.8,273.3 "/>
<linearGradient id="SVGID_20_" gradientUnits="userSpaceOnUse" x1="307.1578" y1="388.6356" x2="295.0878" y2="384.1156" gradientTransform="matrix(1 0 0 -1 0 647.8898)">
	<stop  offset="0" style="stop-color:#53EDBB"/>
	<stop  offset="1" style="stop-color:#D1FAED"/>
</linearGradient>
<polygon class="st32" points="308.5,259.2 305.5,264.9 297,268.2 290.1,260.5 "/>
<linearGradient id="SVGID_21_" gradientUnits="userSpaceOnUse" x1="282.55" y1="400.6698" x2="282.55" y2="385.2498" gradientTransform="matrix(1 0 0 -1 0 647.8898)">
	<stop  offset="0" style="stop-color:#53EDBB"/>
	<stop  offset="1" style="stop-color:#D1FAED"/>
</linearGradient>
<polygon class="st33" points="279.1,245.9 286.1,246.1 288,263.9 277.1,263.9 "/>
<linearGradient id="SVGID_22_" gradientUnits="userSpaceOnUse" x1="282.2" y1="-135.1302" x2="282.2" y2="-151.0302" gradientTransform="matrix(1 0 0 1 0 436.4902)">
	<stop  offset="0" style="stop-color:#53EDBB"/>
	<stop  offset="1" style="stop-color:#D1FAED"/>
</linearGradient>
<polygon class="st34" points="278.7,302.6 285.6,302.7 287.7,284.1 276.7,284.1 "/>
<linearGradient id="SVGID_23_" gradientUnits="userSpaceOnUse" x1="257.6102" y1="360.1494" x2="271.7502" y2="368.6394" gradientTransform="matrix(1 0 0 -1 0 647.8898)">
	<stop  offset="0" style="stop-color:#53EDBB"/>
	<stop  offset="1" style="stop-color:#D1FAED"/>
</linearGradient>
<polygon class="st35" points="259.4,291.5 256,285.6 270.5,274.3 275.5,282.7 "/>
<path class="st9" d="M259.2,291.4l-3-1.7c-0.2-0.1-0.3-0.2-0.3-0.4v-3.5c0-0.2,0.2-0.3,0.4-0.2l3,1.8c0.1,0,0.2,0.2,0.2,0.4v3.4
	C259.5,291.4,259.3,291.5,259.2,291.4z"/>
<path class="st2" d="M278.9,302.8l3.2,1.9c0.15,0.12,0.35,0.12,0.5,0l2.9-1.7c0.1-0.11,0.1-0.29,0-0.4l-3.3-1.9h-0.5l-2.8,1.7
	c-0.11,0-0.21,0.09-0.21,0.2C278.69,302.71,278.79,302.81,278.9,302.8C278.9,302.81,278.9,302.81,278.9,302.8z"/>
<path class="st9" d="M305.6,264.9l2.8-1.7c0.2-0.09,0.32-0.29,0.3-0.5v-3.3c0-0.1-0.2-0.3-0.3-0.2l-2.9,1.7
	c-0.2,0.09-0.32,0.29-0.3,0.5v3.3C305.2,264.9,305.4,265,305.6,264.9z"/>
<path class="st2" d="M256.1,259.4l1.3,0.7h0.5l1.1-0.6c0.1-0.11,0.1-0.29,0-0.4l-1.3-0.7h-0.5l-1.1,0.6
	C256,259.11,256,259.29,256.1,259.4z"/>
<linearGradient id="SVGID_24_" gradientUnits="userSpaceOnUse" x1="307.236" y1="360.0291" x2="295.056" y2="367.8791" gradientTransform="matrix(1 0 0 -1 0 647.8898)">
	<stop  offset="0" style="stop-color:#53EDBB"/>
	<stop  offset="1" style="stop-color:#D1FAED"/>
</linearGradient>
<polygon class="st36" points="308.6,287.6 295.8,274.6 290.4,282.9 306.9,290.5 "/>
<path class="st2" d="M279.1,246.1l3.4,1.9h0.4l3-1.7c0.11,0,0.2-0.09,0.2-0.2c0-0.11-0.09-0.2-0.2-0.2l-3.4-1.9h-0.4l-3,1.7
	C279,245.81,279,245.99,279.1,246.1z"/>
<path class="st2" d="M307.2,290.5l1.3-0.8c0.13-0.09,0.2-0.24,0.2-0.4v-1.5c0-0.2-0.2-0.3-0.3-0.2l-1.3,0.8
	c-0.17,0-0.3,0.13-0.3,0.3v1.6C306.8,290.4,307,290.5,307.2,290.5z"/>
<circle class="st4" cx="282.5" cy="274.3" r="15.7"/>
<polygon class="st25" points="276.3,270.3 276.3,279.6 282.3,281.8 282.3,272.4 288.9,269.9 282.9,267.8 "/>
<polygon class="st37" points="282.8,272.6 282.8,277.8 288.9,279.9 288.9,270.4 "/>
<linearGradient id="SVGID_25_" gradientUnits="userSpaceOnUse" x1="99.3868" y1="244.7293" x2="189.1168" y2="186.7493" gradientTransform="matrix(1 0 0 -1 0 647.8898)">
	<stop  offset="0" style="stop-color:#EBFDF7;stop-opacity:0.18"/>
	<stop  offset="0.15" style="stop-color:#E3FCF4;stop-opacity:0.42"/>
	<stop  offset="0.3" style="stop-color:#DDFBF2;stop-opacity:0.63"/>
	<stop  offset="0.45" style="stop-color:#D8FBF0;stop-opacity:0.79"/>
	<stop  offset="0.57" style="stop-color:#D4FAEE;stop-opacity:0.9"/>
	<stop  offset="0.69" style="stop-color:#D2FAED;stop-opacity:0.97"/>
	<stop  offset="0.77" style="stop-color:#D1FAED"/>
</linearGradient>
<path class="st38" d="M88.3,435.1l54,33c0.87,0.5,1.93,0.5,2.8,0l29.1-17.5c0.87-0.48,1.41-1.4,1.4-2.4v-33.4
	c-0.03-0.99-0.56-1.89-1.4-2.4l-54.8-33l-31.2,16L88.3,435.1z"/>
<path class="st39" d="M120.1,381.3V415c0.01,0.97-0.48,1.88-1.3,2.4L88.1,435v-39.9l-29.6-16.8L86.8,362c0.83-0.5,1.87-0.5,2.7,0
	l29.2,16.8C119.57,379.33,120.11,380.28,120.1,381.3z"/>
<polygon class="st21" points="85.7,396.8 85.7,399.6 56.2,416.6 56.2,379.9 "/>
<linearGradient id="SVGID_26_" gradientUnits="userSpaceOnUse" x1="235.0152" y1="239.069" x2="175.3452" y2="201.409" gradientTransform="matrix(1 0 0 -1 0 647.8898)">
	<stop  offset="0" style="stop-color:#02E49B"/>
	<stop  offset="0.88" style="stop-color:#D1FAED"/>
	<stop  offset="1" style="stop-color:#EBFDF7"/>
</linearGradient>
<path class="st40" d="M204.9,390.9l-36.1,21.2c-0.82,0.52-1.31,1.43-1.3,2.4v33.8c0.01,0.99,0.54,1.9,1.4,2.4l29.1,16.8
	c0.87,0.5,1.93,0.5,2.8,0l36-21.3c0.84-0.46,1.38-1.34,1.4-2.3v-33.4c-0.03-0.99-0.56-1.89-1.4-2.4l-29.2-17.2
	C206.76,390.44,205.74,390.44,204.9,390.9z"/>
<path class="st7" d="M170.1,411.6l-29.2,17.2c-0.84,0.46-1.38,1.34-1.4,2.3v33.8c0.03,0.99,0.56,1.89,1.4,2.4l29.2,16.8
	c0.87,0.5,1.93,0.5,2.8,0l29.1-17.2c0.87-0.48,1.41-1.4,1.4-2.4v-33.4c-0.01-0.99-0.54-1.9-1.4-2.4l-29.2-17.1
	C171.96,411.14,170.94,411.14,170.1,411.6z"/>
<path class="st6" d="M164.3,444.7l8-4.7l0.3,0.6l-7,4.1c-0.1,0-0.1,0.2-0.1,0.3c0.06,0,0.1,0.04,0.1,0.1l0,0l3.3,1.9l-0.3,0.6
	l-4.3-2.5c-0.2-0.1-0.2-0.2-0.1-0.3S164.2,444.7,164.3,444.7z"/>
<path class="st6" d="M179.8,434.9c0.33-0.11,0.7-0.08,1,0.1h0.3l2.2-1.5c0.15-0.12,0.35-0.12,0.5,0l4.7,2.7l-0.3,0.6l-4.4-2.5
	c-0.11-0.1-0.29-0.1-0.4,0l-2.1,1.3v0.2c-0.01,0.36-0.19,0.7-0.5,0.9c-0.34,0.27-0.82,0.31-1.2,0.1c-0.07-0.08-0.2-0.09-0.28-0.02
	c-0.01,0.01-0.01,0.01-0.02,0.02l-4,2.3l-0.4-0.6l4.1-2.3c0.1,0,0.1-0.1,0.1-0.2v-0.2c0-0.1,0-0.2-0.1-0.2l-8.8-5.1l0.3-0.6l9,5
	C179.5,435,179.6,435,179.8,434.9z"/>
<rect x="159.92" y="451.75" transform="matrix(0.866 -0.5 0.5 0.866 -203.9961 142.8558)" class="st6" width="9.3" height="0.68"/>
<rect x="170.02" y="426.4" transform="matrix(0.866 -0.5 0.5 0.866 -190.0229 144.3101)" class="st6" width="8.5" height="0.68"/>
<rect x="154.33" y="434.38" transform="matrix(0.866 -0.5 0.5 0.866 -196.115 137.5307)" class="st6" width="8.5" height="0.68"/>
<path class="st2" d="M174.9,424.7l3.1,1.8h0.4l2.8-1.6c0.07-0.08,0.11-0.19,0.1-0.3c0-0.06-0.04-0.1-0.1-0.1h0l-3.1-1.8h-0.4
	l-2.8,1.6c-0.07,0.08-0.11,0.19-0.1,0.3L174.9,424.7z"/>
<path class="st4" d="M154.2,428.9l10.3,6.1c0.29,0.1,0.61,0.1,0.9,0l9.4-5.5c0.2-0.13,0.28-0.38,0.2-0.6h-0.2l-10.5-5.9
	c-0.27-0.18-0.63-0.18-0.9,0l-9.2,5.3c-0.2,0.13-0.28,0.38-0.2,0.6H154.2z"/>
<path class="st4" d="M170.8,439.7l3.3,1.9h0.4l3.1-1.7c0.08-0.07,0.09-0.2,0.02-0.28c-0.01-0.01-0.01-0.01-0.02-0.02l0,0l-3.4-1.9
	c-0.15-0.09-0.35-0.09-0.5,0l-2.9,1.7c-0.1,0-0.1,0.2-0.1,0.3H170.8z"/>
<path class="st2" d="M183.5,437.7l6.4,3.7c0.26,0.22,0.64,0.22,0.9,0l5.7-3.3c0.3-0.2,0.3-0.4,0.2-0.6c0-0.11-0.09-0.2-0.2-0.2
	c0,0,0,0,0,0l-6.5-3.7c-0.29-0.1-0.61-0.1-0.9,0l-5.6,3.3c-0.2,0.13-0.28,0.38-0.2,0.6C183.3,437.6,183.4,437.6,183.5,437.7z"/>
<path class="st6" d="M158.1,464.4l4.2-2.5c0.2-0.13,0.28-0.38,0.2-0.6h-0.2l-2.8-1.7l-0.7,0.4l2.5,1.5c0.1,0,0.1,0.2,0.1,0.3
	s-0.1,0-0.1,0.1l-4.2,2.4c-0.19,0.11-0.25,0.36-0.14,0.55c0.01,0.02,0.02,0.04,0.04,0.05h0.1l7.2,4.3l0.6-0.4l-6.8-4.1
	C158,464.7,158,464.5,158.1,464.4L158.1,464.4z"/>
<path class="st4" d="M145.1,455.7l10.3,6c0.26,0.22,0.64,0.22,0.9,0l9.4-5.4c0.2-0.13,0.28-0.38,0.2-0.6l-0.2-0.2l-10.5-5.9
	c-0.29-0.1-0.61-0.1-0.9,0l-9.2,5.3c-0.2,0.2-0.3,0.4-0.2,0.6L145.1,455.7z"/>
<path class="st6" d="M177.4,469.1l-0.6-0.4l-5.9,3.4h-0.2l-3.1-1.8l-0.7,0.4l3.7,2.2h0.4l0.5-0.3l0,0L177.4,469.1z"/>
<path class="st4" d="M171.2,466.1l10.3,6c0.26,0.22,0.64,0.22,0.9,0l9.4-5.4c0.2-0.2,0.3-0.4,0.2-0.6s-0.1-0.2-0.2-0.2l-10.5-5.9
	c-0.27-0.18-0.63-0.18-0.9,0l-9.2,5.3c-0.2,0.13-0.28,0.38-0.2,0.6C171,466,171.1,466,171.2,466.1z"/>
<linearGradient id="SVGID_27_" gradientUnits="userSpaceOnUse" x1="174.15" y1="403.7898" x2="174.15" y2="413.2598" gradientTransform="matrix(1 0 0 1 0 27.1102)">
	<stop  offset="0" style="stop-color:#02E49B;stop-opacity:0"/>
	<stop  offset="1" style="stop-color:#02E49B"/>
</linearGradient>
<path class="st41" d="M174.3,430.1h-0.4l-1.5,0.8v8.6c0,0.1,0,0.1,0.1,0.2l1.5,0.9h0.2l1.6-0.9c0.1,0,0.1-0.1,0.1-0.2V431
	L174.3,430.1z"/>
<ellipse transform="matrix(0.8368 -0.5476 0.5476 0.8368 -214.269 155.9186)" class="st42" cx="154.37" cy="437.33" rx="0.9" ry="0.8"/>
<rect x="175" y="449.11" transform="matrix(0.5 -0.866 0.866 0.5 -303.3112 377.5945)" class="st6" width="0.7" height="4.72"/>
<path class="st2" d="M164.4,448.7l6.4,3.7c0.26,0.22,0.64,0.22,0.9,0l5.7-3.3c0.21-0.07,0.32-0.3,0.25-0.51
	c-0.01-0.03-0.03-0.06-0.05-0.09c0-0.1-0.1-0.1-0.2-0.2l-6.5-3.6c-0.26-0.22-0.64-0.22-0.9,0l-5.6,3.2c-0.2,0.2-0.3,0.4-0.2,0.6
	C164.2,448.61,164.29,448.7,164.4,448.7z"/>
<linearGradient id="SVGID_28_" gradientUnits="userSpaceOnUse" x1="155.7" y1="408.6698" x2="155.7" y2="430.8198" gradientTransform="matrix(1 0 0 1 0 27.1102)">
	<stop  offset="0" style="stop-color:#02E49B;stop-opacity:0"/>
	<stop  offset="1" style="stop-color:#02E49B"/>
</linearGradient>
<path class="st43" d="M156.1,434c-0.3,0.2-0.7,0.2-1,0l-3.6,1.8v20.1c0.02,0.18,0.14,0.33,0.3,0.4l3.6,2.1
	c0.19,0.11,0.41,0.11,0.6,0l3.6-2.1c0.2-0.1,0.3-0.2,0.3-0.4l-0.2-20L156.1,434z"/>
<ellipse transform="matrix(0.8366 -0.5478 0.5478 0.8366 -219.512 172.7355)" class="st44" cx="179.82" cy="454.36" rx="0.9" ry="0.8"/>
<path class="st2" d="M162.6,469.7l3.3,2h0.4l3-1.8c0.1-0.04,0.16-0.15,0.12-0.25c-0.01-0.02-0.01-0.03-0.02-0.05h-0.1l-3.4-1.9h-0.4
	l-2.9,1.7c-0.1,0-0.2,0.1-0.1,0.3L162.6,469.7z"/>
<linearGradient id="SVGID_29_" gradientUnits="userSpaceOnUse" x1="181.7009" y1="418.7798" x2="181.7009" y2="440.9198" gradientTransform="matrix(1 0 0 1 0 27.1102)">
	<stop  offset="0" style="stop-color:#02E49B;stop-opacity:0"/>
	<stop  offset="1" style="stop-color:#02E49B"/>
</linearGradient>
<path class="st45" d="M182.1,444.1c-0.3,0.2-0.7,0.2-1,0l-3.6,1.8V466c0,0.2,0.1,0.3,0.3,0.4l3.6,2.1c0.19,0.11,0.41,0.11,0.6,0
	l3.6-2c0.2-0.09,0.32-0.29,0.3-0.5l-0.2-20L182.1,444.1z"/>
<linearGradient id="SVGID_30_" gradientUnits="userSpaceOnUse" x1="317.5541" y1="291.2794" x2="240.7141" y2="237.8994" gradientTransform="matrix(1 0 0 -1 0 647.8898)">
	<stop  offset="0" style="stop-color:#53EDBB"/>
	<stop  offset="0.1" style="stop-color:#57EDBD;stop-opacity:0.97"/>
	<stop  offset="0.23" style="stop-color:#63EFC1;stop-opacity:0.9"/>
	<stop  offset="0.38" style="stop-color:#76F1C9;stop-opacity:0.77"/>
	<stop  offset="0.55" style="stop-color:#91F3D4;stop-opacity:0.59"/>
	<stop  offset="0.74" style="stop-color:#B3F7E1;stop-opacity:0.37"/>
	<stop  offset="0.88" style="stop-color:#D1FAED;stop-opacity:0.18"/>
</linearGradient>
<path class="st46" d="M311.8,361.8l-29.2-17.2c-0.87-0.5-1.93-0.5-2.8,0l-29.2,17.2c-0.87,0.48-1.41,1.4-1.4,2.4v0.5l-14.8,8.7
	c-0.82,0.52-1.31,1.43-1.3,2.4v33.8c-0.01,1,0.53,1.92,1.4,2.4l29.2,16.8c0.87,0.5,1.93,0.5,2.8,0l35.9-21.2l0.6-0.5l8.7-5.1
	c0.87-0.48,1.41-1.4,1.4-2.4v-35.4C313.09,363.23,312.61,362.33,311.8,361.8z"/>
<path class="st5" d="M279.8,311.2l-29.2,17.2c-0.87,0.48-1.41,1.4-1.4,2.4v33.8c-0.01,1,0.53,1.92,1.4,2.4l29.2,16.8
	c0.87,0.5,1.93,0.5,2.8,0l29.1-17.2c0.87-0.48,1.41-1.4,1.4-2.4v-33.4c-0.03-0.99-0.56-1.89-1.4-2.4l-29.2-17.2
	C281.66,310.74,280.64,310.74,279.8,311.2z"/>
<path class="st3" d="M289.5,375.6l17-9.5c0.27-0.33,0.22-0.82-0.1-1.1l-16.9-8.9V375.6z"/>
<path class="st3" d="M255.9,367.5l4.5,2.6c0.19,0.19,0.51,0.19,0.7,0l4.1-2.3c0.2-0.2,0.2-0.5,0-0.6l-4.6-2.6
	c-0.22-0.11-0.48-0.11-0.7,0l-4,2.3c-0.17,0-0.3,0.13-0.3,0.3C255.6,367.37,255.73,367.5,255.9,367.5z"/>
<path class="st3" d="M268.6,381.4l4.6,2.6c0.22,0.09,0.48,0.09,0.7,0l4.1-2.4c0.2-0.1,0.2-0.4,0-0.6l-4.7-2.6h-0.6l-4.1,2.4
	C268.4,380.9,268.4,381.2,268.6,381.4z"/>
<path class="st3" d="M289,382.7l4.6,2.7c0.22,0.11,0.48,0.11,0.7,0l4.1-2.4c0.17-0.15,0.18-0.4,0.04-0.56
	c-0.01-0.01-0.02-0.02-0.04-0.04l-4.7-2.6c-0.22-0.09-0.48-0.09-0.7,0l-4,2.3C288.8,382.3,288.8,382.6,289,382.7z"/>
<path class="st3" d="M307.8,377.7l4.5,2.6h0.7l4.1-2.4c0.3-0.1,0.2-0.4,0-0.6l-4.6-2.6h-0.7l-4,2.4
	C307.5,377.2,307.5,377.5,307.8,377.7z"/>
<path class="st7" d="M256,367.6l4.5,2.6c0.12,0.12,0.31,0.12,0.42,0c0.08-0.08,0.11-0.2,0.08-0.3v-5.2c0.01-0.24-0.1-0.46-0.3-0.6
	l-4.5-2.6c-0.21-0.06-0.43,0.06-0.49,0.28c0,0.01,0,0.02-0.01,0.02v5.2C255.67,367.24,255.79,367.48,256,367.6z"/>
<path class="st6" d="M289.2,382.8l4.5,2.6c0.2,0.2,0.5,0,0.5-0.3v-5.2c-0.04-0.22-0.19-0.41-0.4-0.5l-4.5-2.6
	c-0.2-0.2-0.5,0-0.5,0.3v5.1C288.81,382.46,288.97,382.69,289.2,382.8z"/>
<path class="st6" d="M268.8,381.5l4.5,2.6c0.21,0.06,0.43-0.06,0.49-0.28c0-0.01,0-0.02,0.01-0.02v-5.2c0.03-0.24-0.09-0.48-0.3-0.6
	l-4.5-2.6c-0.12-0.12-0.31-0.12-0.42,0c-0.08,0.08-0.11,0.2-0.08,0.3v5.2C268.52,381.13,268.63,381.35,268.8,381.5z"/>
<path class="st7" d="M307.9,377.8l4.5,2.6c0.12,0.12,0.31,0.12,0.42,0c0.08-0.08,0.11-0.2,0.08-0.3v-5.2
	c0.03-0.24-0.09-0.48-0.3-0.6l-4.5-2.6c-0.2-0.2-0.5,0-0.5,0.3v5.2C307.62,377.43,307.73,377.65,307.9,377.8z"/>
<circle class="st7" cx="288.8" cy="321.4" r="8.3"/>
<path class="st47" d="M283.6,350.2c2.31-1.58,3.7-4.2,3.7-7c0-4.58-3.72-8.3-8.3-8.3c-4.41,0.04-8.04,3.5-8.3,7.9L283.6,350.2z"/>
<polygon class="st5" points="285.5,319.1 285.5,324.1 288.8,325.3 288.8,320.2 292.4,318.9 289.2,317.7 "/>
<polygon class="st5" points="289.1,320.3 289.1,323.1 292.4,324.3 292.4,319.1 "/>
<polygon class="st25" points="275.6,341.3 275.6,346.3 278.9,347.5 278.9,342.4 282.4,341.1 279.2,340 "/>
<polygon class="st25" points="279.2,342.6 279.2,345.3 282.4,346.5 282.4,341.4 "/>
<path class="st4" d="M276.3,368.5l8.5,4.9l0,0l3.8,2.2c0.29,0.17,0.65,0.07,0.82-0.21c0.07-0.12,0.1-0.25,0.08-0.39v-20.7
	c0.01-0.4-0.18-0.77-0.5-1l-28-16.2c-0.35-0.17-0.77-0.02-0.93,0.33c-0.04,0.08-0.06,0.18-0.07,0.27v20.8
	c0.02,0.44,0.24,0.85,0.6,1.1l3.9,2.2c0.21,0.06,0.43-0.06,0.49-0.28c0-0.01,0-0.02,0.01-0.02v-5c-0.05-0.16,0.04-0.33,0.2-0.38
	c0.11-0.03,0.22,0,0.3,0.08l4.5,2.6c0.21,0.12,0.33,0.36,0.3,0.6v5.3"/>
<path class="st2" d="M282.4,358.5l7.1,4.1c0.07,0.08,0.11,0.19,0.1,0.3v4.2h-0.2l-7.1-4.1c-0.1-0.1-0.1-0.1-0.1-0.2v-4.3
	C282.2,358.5,282.3,358.5,282.4,358.5z"/>
<path class="st6" d="M286.9,362.5l1.4,0.8c0.06,0.05,0.09,0.12,0.1,0.2v1.6h-0.2l-1.4-0.8c0-0.1-0.1-0.1-0.1-0.2v-1.6
	C286.7,362.5,286.8,362.4,286.9,362.5z"/>
<path class="st3" d="M251,382.7l4.5,2.7c0.22,0.11,0.48,0.11,0.7,0l4.2-2.4c0.17-0.15,0.18-0.4,0.04-0.56
	c-0.01-0.01-0.02-0.02-0.04-0.04l-4.7-2.6c-0.22-0.09-0.48-0.09-0.7,0l-4,2.3C250.8,382.3,250.8,382.6,251,382.7z"/>
<path class="st5" d="M251.2,382.8l4.5,2.6c0.2,0.2,0.5,0,0.5-0.3v-5.2c-0.04-0.22-0.19-0.41-0.4-0.5l-4.5-2.6
	c-0.2-0.2-0.5,0-0.5,0.3v5.1C250.81,382.46,250.97,382.69,251.2,382.8z"/>
<path class="st2" d="M234.1,373.9l-29.3,17.2c-0.82,0.52-1.31,1.43-1.3,2.4v33.7c-0.01,1,0.53,1.92,1.4,2.4l29.1,16.8
	c0.87,0.5,1.93,0.5,2.8,0l29.2-17.2c0.79-0.5,1.28-1.36,1.3-2.3v-33.4c0.01-0.97-0.48-1.88-1.3-2.4l-29.2-17.2
	C235.96,373.44,234.94,373.44,234.1,373.9z"/>
<path class="st3" d="M215.5,427.9l29.3-16.7l16.8,9.8c0.58,0.32,0.79,1.05,0.47,1.63c-0.11,0.2-0.27,0.36-0.47,0.47l-25.9,14.8
	c-0.96,0.55-2.14,0.55-3.1,0L215.5,427.9z"/>
<path class="st4" d="M214.8,400.6l-4.9,2.8c-0.54,0.39-1.29,0.27-1.68-0.26c-0.18-0.24-0.26-0.54-0.22-0.84v-5.7
	c-0.01-1,0.53-1.92,1.4-2.4l4.9-2.8c0.64-0.33,1.42-0.08,1.75,0.55c0.09,0.17,0.14,0.36,0.15,0.55v5.7
	C216.21,399.2,215.67,400.12,214.8,400.6z"/>
<path class="st4" d="M242.4,384.9l-18.6,10.6v7.7c0.01,1-0.53,1.92-1.4,2.4l-6.9,4v18.3l29.3-16.7v-24.9
	c0.01-0.88-0.7-1.61-1.59-1.61C242.93,384.68,242.65,384.76,242.4,384.9z"/>
<path class="st8" d="M247,446.4l10.7-6.1c0.32-0.23,0.51-0.6,0.5-1v-15.8c0.06-0.27-0.11-0.54-0.38-0.6c-0.15-0.03-0.3,0-0.42,0.1
	l-8.3,4.8l-2.9,6.1v12c-0.06,0.27,0.11,0.54,0.38,0.6C246.73,446.53,246.88,446.49,247,446.4z"/>
<path class="st9" d="M249.1,427.8v4c0.03,0.24-0.09,0.48-0.3,0.6l-2.7,1.5"/>
<path class="st7" d="M253.4,436.8l-1.2-2.7c-0.1,0-0.2-0.1-0.3,0l-0.7,0.4c-0.06,0-0.1,0.04-0.1,0.1s0.04,0.1,0.1,0.1l1.2,2.6
	c0.1,0.1,0.2,0.2,0.2,0.1l0.7-0.4C253.4,437,253.4,436.9,253.4,436.8z"/>
<path class="st7" d="M255.8,434.4l-0.6,2c0,0.1-0.1,0.2-0.2,0.1h-0.6v-0.3l0.5-1.5c0-0.1,0-0.1-0.1-0.2l-1.5-0.5
	c-0.1,0-0.2-0.1-0.1-0.2l0.2-0.6c0-0.1,0.1-0.1,0.2-0.1l2,0.7h0.4c0.06,0.05,0.09,0.12,0.1,0.2L255.8,434.4z"/>
<path class="st7" d="M249,437.7l1.9,0.7c0.1,0.1,0.2,0,0.3-0.1v-0.6c0.1-0.1,0-0.2-0.1-0.2l-1.5-0.5c-0.1,0-0.1-0.1-0.1-0.2l0.5-1.5
	c0-0.1,0-0.2-0.1-0.2l-0.6-0.2c-0.1-0.1-0.2,0-0.2,0.1l-0.6,2l-0.2,0.4c0.01,0.08,0.04,0.15,0.1,0.2L249,437.7z"/>
<path class="st6" d="M231,397.7l7.6-4.4c0.27-0.13,0.43-0.41,0.4-0.7v-11.3c-0.02-0.22-0.22-0.38-0.44-0.35
	c-0.06,0.01-0.11,0.02-0.16,0.05l-5.9,3.4l-2.1,4.4v8.6C230.4,397.7,230.8,397.9,231,397.7z"/>
<path class="st9" d="M232.5,384.4v2.9c0,0.16-0.07,0.31-0.2,0.4l-2,1.1"/>
<path class="st8" d="M235.2,419.5l7.6-4.4c0.25-0.14,0.4-0.41,0.4-0.7v-11.3c0-0.3-0.4-0.5-0.6-0.3l-5.9,3.4l-2.1,4.4v8.6
	c0.02,0.22,0.22,0.38,0.44,0.35C235.1,419.55,235.15,419.53,235.2,419.5z"/>
<path class="st9" d="M236.7,406.2v2.9c0,0.16-0.07,0.31-0.2,0.4l-1.9,1.1"/>
<path class="st6" d="M262.4,412.3l-10.6-6.1c-0.37-0.19-0.61-0.58-0.6-1v-15.8c-0.06-0.27,0.11-0.54,0.38-0.6
	c0.15-0.03,0.3,0,0.42,0.1l8.3,4.8l2.9,6.1v12c0.06,0.27-0.11,0.54-0.38,0.6C262.67,412.43,262.52,412.39,262.4,412.3z"/>
<path class="st9" d="M260.3,393.7v4c0.01,0.26,0.17,0.49,0.4,0.6l2.6,1.5"/>
<path class="st7" d="M257.2,402.7v-1.1c0.04-0.1,0.15-0.16,0.25-0.12c0.02,0.01,0.03,0.01,0.05,0.02l2.3,1.2v1.3
	c0,0.1-0.1,0.3-0.3,0.2l-2.3-1.4V402.7z"/>
<path class="st7" d="M257,399.8l-0.8-2.7h-0.3l-0.8,0.3c-0.1,0-0.2,0.1-0.1,0.2l0.6,2c0,0.1-0.1,0.3-0.2,0.3l-1.9,0.7
	c-0.2,0-0.2,0.1-0.2,0.2l0.3,0.8c0,0.11,0.09,0.2,0.2,0.2c0,0,0,0,0,0l2.6-0.9l0.6-0.2c0.1,0,0.1-0.2,0.1-0.3L257,399.8z"/>
<path class="st7" d="M239.9,412.5l-0.9-2c0-0.06-0.05-0.1-0.1-0.1c-0.05,0-0.1,0.04-0.1,0.1l-0.5,0.3c0,0-0.1,0.1,0,0.1l0.9,2
	c0,0.1,0.1,0.1,0.2,0.1l0.5-0.3V412.5z"/>
<path class="st7" d="M241.8,410.7l-0.5,1.5c0,0.06-0.04,0.1-0.1,0.1h0h-0.5c-0.1,0-0.1-0.1-0.1-0.2l0.4-1.1c0-0.1-0.1-0.1-0.1-0.2
	l-1.1-0.3c-0.1-0.1-0.1-0.1-0.1-0.2v-0.4c0-0.1,0.1-0.1,0.2-0.1l1.5,0.5h0.3c0,0,0.1,0.1,0,0.1L241.8,410.7z"/>
<path class="st7" d="M236.6,413.2l1.5,0.5h0.1l0.2-0.4V413l-1.1-0.3c-0.1-0.1-0.1-0.1-0.1-0.2l0.3-1.1c0.06,0,0.1-0.04,0.1-0.1
	s-0.04-0.1-0.1-0.1h-0.6l-0.5,1.5v0.3c0,0.06,0.04,0.1,0.1,0.1h0L236.6,413.2z"/>
<path class="st6" d="M227.5,438.6l-7.6-4.4c-0.25-0.14-0.4-0.41-0.4-0.7v-11.2c0.05-0.27,0.31-0.45,0.58-0.4c0.01,0,0.01,0,0.02,0
	l5.9,3.4l2.1,4.4v8.5c-0.05,0.27-0.31,0.45-0.58,0.4C227.51,438.6,227.51,438.6,227.5,438.6z"/>
<path class="st9" d="M226,425.3v2.9c0,0.2,0.1,0.3,0.3,0.4l1.9,1.1"/>
<path class="st7" d="M235.6,390.9l-0.9-2h-0.2l-0.5,0.3c-0.06,0-0.1,0.04-0.1,0.1s0.04,0.1,0.1,0.1l0.9,2h0.2l0.5-0.3V390.9z"/>
<path class="st7" d="M237.5,389.1l-0.5,1.5h-0.1l-0.5-0.2c-0.06,0-0.1-0.04-0.1-0.1l0,0l0.4-1.2h-0.1l-1.1-0.4
	c-0.1,0-0.1-0.1-0.1-0.2v-0.4c0-0.1,0.1-0.1,0.2-0.1l1.5,0.5h0.3c0.06,0,0.1,0.04,0.1,0.1s-0.04,0.1-0.1,0.1L237.5,389.1z"/>
<path class="st7" d="M232.3,391.6l1.5,0.5h0.2v-0.5c0-0.06-0.04-0.1-0.1-0.1h0l-1.1-0.4c-0.1,0-0.1-0.1-0.1-0.2l0.3-1.1
	c0.1-0.1,0-0.1,0-0.1l-0.5-0.2c-0.06,0-0.1,0.04-0.1,0.1l0,0L232,391v0.5L232.3,391.6z"/>
<path class="st7" d="M223.7,432.6v-0.7c0-0.2,0.1-0.2,0.2-0.2l1.6,0.9c0,0.1,0.1,0.1,0.1,0.2v0.7c0,0.1-0.1,0.2-0.2,0.1l-1.6-0.9
	L223.7,432.6z"/>
<path class="st7" d="M223.5,430.6l-0.5-1.9h-0.2l-0.6,0.2c-0.1,0-0.1,0.1-0.1,0.2l0.4,1.4c0.1,0.1,0,0.1-0.1,0.2l-1.3,0.4
	c-0.1,0.1-0.2,0.2-0.1,0.2v0.6h0.2l1.9-0.6l0.3-0.2c0.1,0,0.1-0.1,0.1-0.2L223.5,430.6z"/>
<path class="st4" d="M264.9,402c0,0-0.9-1.8,0.6-2.2s1.3,0.4,0.3,2.2c0,0-0.2,0.8,0.1,1.1s1.4,0.6,1,6.5l-0.3,5.4v7.4l1,6.6
	l-3.1,0.2v-0.7l1.9-0.2l-0.6-5.5l-1.3-6.9l-0.9,4.9v8.4h-2.3v-1h1.1v-7.4l0.4-7.6c0,0,0.6-6.4,0.3-7.5l-2.6-2.6l-1.4-2.6h0.6
	l1.4,2.4l2.6,1.8c0.33-0.62,0.7-1.22,1.1-1.8C264.93,402.62,264.96,402.3,264.9,402z"/>
<path class="st4" d="M223.4,435c-0.3,0.2-1.4,1.1-0.6,3.9l0,0l2.9,5.5h0.1l3.2-0.9h0.1l2.2,6.1h1.9V449h-1.4l-1.6-5.6
	c0-0.06,0.04-0.1,0.1-0.1h0l1-0.4c0.06,0,0.1,0.04,0.1,0.1l0,0l2.3,5.8h0.2l1.3-0.3v-0.4h-1l-2.6-6.3c0-0.1,0-0.1-0.1-0.1l-2.2,0.5
	h-0.1l-5-7l0,0l-0.2-1.1c0-0.06,0.04-0.1,0.1-0.1h0c0.45-0.46,0.49-1.19,0.1-1.7c-0.18-0.28-0.55-0.35-0.83-0.17
	c-0.16,0.11-0.26,0.28-0.27,0.47c0.03,0.45,0.14,0.88,0.3,1.3l0,0v0.8V435z"/>
<polygon class="st3" points="231.2,435.8 229.4,438 230.6,439.3 232.7,436.8 "/>
<polygon class="st3" points="227.9,439.2 230.6,439.3 230.4,437.9 226.9,437.9 "/>
<polygon class="st4" points="231.2,436.1 229.6,438 230.7,438.9 232.3,436.9 "/>
<path class="st2" d="M222.8,433c-0.18-0.46,0.04-0.99,0.5-1.17c0.03-0.01,0.06-0.02,0.1-0.03c0.44-0.23,0.98-0.07,1.22,0.37
	c0.04,0.07,0.07,0.15,0.08,0.23"/>
<polyline class="st2" points="224,432.5 224.2,432.5 225.5,432.1 225.3,431.8 224,432.2 "/>
<path class="st8" d="M111.7,236c0,0,0.6,0.6,1,0l2.1-0.2l0.2,0.8l-0.6,0.2c-0.18,0.05-0.31,0.21-0.3,0.4v6.2h-2.7l-1.3-2.9
	c-0.1-0.15-0.13-0.33-0.1-0.5l0.6-3.7c0-0.17,0.13-0.3,0.3-0.3h0H111.7z"/>
<path class="st6" d="M245,164.4l-3-0.9c-0.1,0-0.1-0.1-0.1-0.2v-2.8h-0.6l-0.2,3.4v0.2l2.9,1.7l0.3,5.5v2.6h2.7l-0.2-4.5l0.5,1.5v3
	h0.8v-3l-0.9-4.5c-0.08-0.45-0.33-0.84-0.7-1.1c-0.31-0.19-0.55-0.47-0.7-0.8h-0.1l-0.3,0.3L245,164.4z"/>
<path class="st2" d="M245.3,164.9c0,0.2,0.04,0.41,0.1,0.6c0.2-0.09,0.32-0.29,0.3-0.5L245.3,164.9z"/>
<polygon class="st2" points="245.4,165.5 245,166.1 245.4,169.2 245.9,166.3 "/>
<path class="st25" d="M212.7,97l0.8-0.2l0.5,0.6c0.43,0.63,0.7,1.35,0.8,2.1l0.5,5.6h-3.4c-0.21-1.73-0.21-3.47,0-5.2
	c-0.01-0.18-0.08-0.36-0.2-0.5l-1.9-1.3l-0.4-0.3l-1.5-2.7l0.5-0.4l1.3,2.2c0.09,0.29,0.31,0.51,0.6,0.6l1.9,0.5L212.7,97z"/>
<path class="st4" d="M174.4,97.1c0,0-0.8-0.7-0.4-1.1s0.5-1.9-1.1-2c0,0-1.4,0.5,0,2.4c0,0,0,1.1-0.6,1.3s-1,0.8,0,2.3l2.1,6.3h2.1
	c0,0,1.2,2.3,0.7,3.9c0,0,4.1,0.8,5.9-0.9s1-1.6,1-1.6l-6.4-3.4l-2.1-5.5l2,1.4l2.2-2.2l-0.6-0.5l-1.5,1.7L174.4,97.1z"/>
<path class="st4" d="M165.1,98.4c0,0,1.3-1-0.4-1.6c0,0-1.5,0.4-0.4,1.6c0.17,0.76,0.13,1.55-0.1,2.3c0,0-1.4,1-0.9,5.3l-1.4,4.9
	c0,0,1.3,1.2,1.8,0.9v5.8h-1.5l0.2,0.8h2.1v-6.7l0.8-0.2l0.4,6.9h1.7v-0.6h-1.1l-0.2-6.3c0,0,1.7-0.5,1.9-0.9s-1.7-2.7-1.5-4
	s-0.1-5.1-0.5-5.9C165.36,100.11,165.03,99.26,165.1,98.4z"/>
<polygon class="st7" points="169.4,109.5 182.6,117.1 182.6,118.9 169.4,111.3 "/>
<polygon class="st6" points="206.6,102.9 182.6,117.1 182.6,118.9 206.6,104.5 "/>
<polygon class="st6" points="183.6,129.8 182.6,130.4 182.6,118.9 183.6,118.3 "/>
<polygon class="st5" points="181.7,129.9 182.6,130.4 182.6,118.9 181.7,118.4 "/>
<polygon class="st6" points="206.6,116 205.6,116.6 205.6,105.1 206.6,104.5 "/>
<polygon class="st5" points="204.7,116 205.6,116.5 205.6,105.1 204.7,105.6 "/>
<polygon class="st6" points="171.3,122.7 170.3,123.3 170.3,111.8 171.3,112.4 "/>
<polygon class="st5" points="169.4,122.8 170.3,123.3 170.3,111.8 169.4,111.3 "/>
<polygon class="st6" points="169.4,109.5 182.6,117.1 206.6,102.9 193.2,95.4 "/>
<path class="st7" d="M173.5,117l-6,3.5c-0.12,0.14-0.19,0.32-0.2,0.5v6.9c0.01,0.18,0.08,0.36,0.2,0.5l6,3.4h0.6l5.9-3.5
	c0.2-0.09,0.32-0.29,0.3-0.5V121c-0.01-0.18-0.08-0.36-0.2-0.5l-6-3.5H173.5z"/>
<path class="st7" d="M206.9,109.3l-6,3.5c-0.2,0.09-0.32,0.29-0.3,0.5v6.9c-0.02,0.21,0.1,0.41,0.3,0.5l6,3.4
	c0.09,0.14,0.28,0.18,0.42,0.08c0.03-0.02,0.06-0.05,0.08-0.08l6-3.5c0.2-0.09,0.32-0.29,0.3-0.5v-6.8c0.02-0.21-0.1-0.41-0.3-0.5
	l-6-3.5H206.9z"/>
<path class="st4" d="M201.9,101.9c0,0-2.1-1.8,0-2.3c0,0,1.2,0,1,2.3l0.9,0.8c0.9,0.9,1.59,1.99,2,3.2l1,3.3
	c0.18,0.47,0.02,1.01-0.4,1.3c-0.58,0.35-1.23,0.59-1.9,0.7h-3.2c-0.17,0-0.3,0.13-0.3,0.3v0l2.6,6.4l-1.7,0.6l0.5-1.2l-2.8-6.4
	c-0.1-0.2,0-0.3,0.2-0.3l2.9-0.5c0.29-0.12,0.48-0.39,0.5-0.7l-0.7-5.2l-0.7,2.5c-0.1,0.29-0.4,0.47-0.7,0.4l-2.6-0.9
	c-0.29-0.13-0.51-0.39-0.6-0.7l-1.3-3.4h0.6l1.1,2.8c0.11,0.31,0.37,0.54,0.7,0.6l1.4,0.5c0.29,0.03,0.57-0.13,0.7-0.4
	C201.45,104.39,201.72,103.15,201.9,101.9z"/>
<path class="st7" d="M200.3,113.2l-6,3.5c-0.12,0.14-0.19,0.32-0.2,0.5v6.9c0.01,0.18,0.08,0.36,0.2,0.5l6,3.4h0.6l5.9-3.5
	c0.2-0.09,0.32-0.29,0.3-0.5v-6.8c-0.01-0.18-0.08-0.36-0.2-0.5l-6-3.5C200.71,113.09,200.49,113.09,200.3,113.2z"/>
<path class="st4" d="M194.6,108.1c0,0-1.2-2.3,0.6-2.3c0,0,1,0.1,0.6,2.3c0.93,1.08,1.4,2.48,1.3,3.9l-0.4,4.5h-3.1
	c0,0,0.1,4.5,0,5.7h-1.8v-0.5h1l-0.6-3.8l-3.3,3.1l-1.3-1.3l0.6-0.5l0.8,0.8l3.3-5.9h3l-0.4-2.6h-1l-1.1,0.9h-3v-0.8h2.4l2.3-2.4
	C194.5,109.2,194.9,109.1,194.6,108.1z"/>
<path class="st5" d="M190.5,119.1l-6,3.6c-0.13,0.09-0.2,0.24-0.2,0.4v6.9c-0.02,0.21,0.1,0.41,0.3,0.5l5.9,3.5h0.6l6-3.5
	c0.12-0.14,0.19-0.32,0.2-0.5v-6.9c0-0.2-0.2-0.3-0.3-0.5l-6-3.5H190.5z"/>
<path class="st48" d="M193,584.6c1.57,1.55,2.4,3.7,2.3,5.9V604H192v-12.3c0-2.2-0.5-3.8-1.4-4.7c-1-1.02-2.38-1.56-3.8-1.5
	c-1.11-0.02-2.2,0.22-3.2,0.7c-0.99,0.59-1.81,1.41-2.4,2.4c-0.65,1.3-0.96,2.75-0.9,4.2V604h-3.4v-20.4l3.1,1.3v1.4
	c0.62-1.23,1.64-2.22,2.9-2.8c1.28-0.62,2.68-0.92,4.1-0.9C189.19,582.45,191.34,583.17,193,584.6z"/>
<path class="st48" d="M219.2,594.7h-15.8c0.07,1.87,0.82,3.64,2.1,5c1.27,1.19,2.97,1.81,4.7,1.7c1.35,0.09,2.7-0.19,3.9-0.8
	c0.96-0.48,1.71-1.3,2.1-2.3l2.8,1.5c-0.81,1.41-1.99,2.59-3.4,3.4c-1.67,0.86-3.53,1.28-5.4,1.2c-2.77,0.12-5.45-0.93-7.4-2.9
	c-1.8-1.9-2.7-4.6-2.7-8s0.8-6.1,2.5-8s4.2-2.9,7.4-2.9c1.79-0.04,3.55,0.4,5.1,1.3c1.4,0.81,2.52,2.03,3.2,3.5
	c0.74,1.56,1.11,3.27,1.1,5C219.38,593.17,219.32,593.94,219.2,594.7z M205.5,587.1c-1.17,1.27-1.9,2.88-2.1,4.6h12.7
	c-0.11-1.7-0.77-3.32-1.9-4.6c-1.11-1.11-2.64-1.69-4.2-1.6C208.34,585.4,206.72,585.98,205.5,587.1L205.5,587.1z"/>
<path class="st48" d="M241.6,585.4c1.8,2,2.7,4.6,2.7,8.1c0.16,2.91-0.81,5.78-2.7,8c-4.21,3.88-10.69,3.88-14.9,0
	c-1.8-1.9-2.7-4.6-2.7-8c-0.15-2.94,0.81-5.84,2.7-8.1C230.91,581.52,237.39,581.52,241.6,585.4z M229.2,587.6
	c-1.32,1.68-1.99,3.77-1.9,5.9c-0.05,2.09,0.62,4.14,1.9,5.8c1.21,1.51,3.07,2.33,5,2.2c1.92,0.08,3.76-0.73,5-2.2
	c1.29-1.65,1.93-3.71,1.8-5.8c0.14-2.14-0.54-4.25-1.9-5.9c-1.21-1.45-3.01-2.26-4.9-2.2C232.28,585.32,230.44,586.13,229.2,587.6
	L229.2,587.6z"/>
<polygon class="st39" points="131.3,578.5 131.3,607.7 150.3,614.5 150.3,585.1 170.7,577.5 152.1,570.9 "/>
<polygon class="st21" points="151.8,586.2 151.8,601.9 170.7,608.7 170.7,579.2 "/>
</svg>
