<svg enable-background="new 0 0 1440 866" viewBox="0 0 1440 866" xmlns="http://www.w3.org/2000/svg" xmlns:xlink="http://www.w3.org/1999/xlink"><linearGradient id="a" gradientUnits="userSpaceOnUse" x1="725.412" x2="819.6185" y1="108.6461" y2="166.871"><stop offset="0" stop-color="#ebfdf7" stop-opacity=".18"/><stop offset=".29" stop-color="#ebfdf7" stop-opacity=".38"/><stop offset=".32" stop-color="#e6fcf5" stop-opacity=".49"/><stop offset=".39" stop-color="#e0fcf3" stop-opacity=".65"/><stop offset=".46" stop-color="#dafbf1" stop-opacity=".77"/><stop offset=".53" stop-color="#d6fbef" stop-opacity=".87"/><stop offset=".6" stop-color="#d3faee" stop-opacity=".94"/><stop offset=".68" stop-color="#d2faed" stop-opacity=".99"/><stop offset=".77" stop-color="#d1faed"/></linearGradient><linearGradient id="b"><stop offset="0" stop-color="#9ff5d9"/><stop offset="1" stop-color="#ebfdf7"/></linearGradient><linearGradient id="c" gradientTransform="matrix(1 0 0 -1 0 865.8898)" gradientUnits="userSpaceOnUse" x1="672.1402" x2="682.2013" xlink:href="#b" y1="738.3218" y2="732.0009"/><linearGradient id="d" gradientTransform="matrix(-1 0 0 -1 -3973.3999 865.8898)" gradientUnits="userSpaceOnUse" x1="-4632.8652" x2="-4622.7935" xlink:href="#b" y1="738.2133" y2="731.8924"/><linearGradient id="e" gradientTransform="matrix(1 0 0 -1 0 865.8898)" gradientUnits="userSpaceOnUse" x1="653.5438" x2="660.8153" xlink:href="#b" y1="750.5233" y2="745.0383"/><linearGradient id="f" gradientTransform="matrix(-1 0 0 -1 -4040.7998 865.8898)" gradientUnits="userSpaceOnUse" x1="-4718.5674" x2="-4711.2646" xlink:href="#b" y1="750.4733" y2="744.9673"/><linearGradient id="g" gradientUnits="userSpaceOnUse" x1="863.062" x2="804.8999" y1="212.0903" y2="140.2418"><stop offset="0" stop-color="#02e49b"/><stop offset=".88" stop-color="#d1faed"/></linearGradient><linearGradient id="h" gradientUnits="userSpaceOnUse" x1="737.1239" x2="630.3176" y1="289.2567" y2="350.6678"><stop offset="0" stop-color="#02e49b"/><stop offset=".77" stop-color="#ebfdf7"/></linearGradient><linearGradient id="i" gradientUnits="userSpaceOnUse" x1="884.5359" x2="883.7838" y1="471.318" y2="365.943"><stop offset=".22" stop-color="#53edbb"/><stop offset="1" stop-color="#d1faed"/></linearGradient><linearGradient id="j" gradientUnits="userSpaceOnUse" x1="824.5266" x2="760.6601" y1="229.4363" y2="279.7521"><stop offset=".31" stop-color="#02e49b"/><stop offset=".74" stop-color="#53edbb"/></linearGradient><linearGradient id="k"><stop offset="0" stop-color="#02e49b"/><stop offset="1" stop-color="#02e49b" stop-opacity=".38"/></linearGradient><linearGradient id="l" gradientUnits="userSpaceOnUse" x1="655.8267" x2="671.3623" xlink:href="#k" y1="330.4236" y2="330.4236"/><linearGradient id="m" gradientUnits="userSpaceOnUse" x1="640.96" x2="652.5883" xlink:href="#k" y1="342.655" y2="342.655"/><linearGradient id="n" gradientUnits="userSpaceOnUse" x1="654.061" x2="660.3713" xlink:href="#k" y1="342.395" y2="342.395"/><linearGradient id="o" gradientUnits="userSpaceOnUse" x1="744.7841" x2="858.0157" y1="296.4799" y2="363.3866"><stop offset=".12" stop-color="#53edbb"/><stop offset=".25" stop-color="#78f1ca"/><stop offset=".43" stop-color="#a8f6dd"/><stop offset=".6" stop-color="#cefaec"/><stop offset=".75" stop-color="#e9fdf6"/><stop offset=".89" stop-color="#f9fefd"/><stop offset="1" stop-color="#fff"/></linearGradient><linearGradient id="p" gradientUnits="userSpaceOnUse" x1="734.155" x2="734.155" xlink:href="#b" y1="306.3496" y2="334.6314"/><linearGradient id="q" gradientUnits="userSpaceOnUse" x1="724.7" x2="724.7" xlink:href="#b" y1="264.9456" y2="319.0017"/><linearGradient id="r" gradientUnits="userSpaceOnUse" x1="731.432" x2="763.2347" xlink:href="#k" y1="294.1091" y2="305.8105"/><linearGradient id="s" gradientUnits="userSpaceOnUse" x1="763.0546" x2="729.2147" xlink:href="#k" y1="320.2588" y2="302.4142"/><linearGradient id="t" gradientUnits="userSpaceOnUse" x1="759.8" x2="759.8" xlink:href="#b" y1="282.5706" y2="320.9345"/><linearGradient id="u"><stop offset="0" stop-color="#53edbb"/><stop offset="1" stop-color="#d1faed"/></linearGradient><linearGradient id="v" gradientUnits="userSpaceOnUse" x1="847.6104" x2="863.3551" xlink:href="#u" y1="357.5099" y2="369.3784"/><linearGradient id="w" gradientUnits="userSpaceOnUse" x1="924.3323" x2="905.61" xlink:href="#u" y1="356.1876" y2="363.1876"/><linearGradient id="x" gradientUnits="userSpaceOnUse" x1="886.165" x2="886.165" xlink:href="#u" y1="337.515" y2="361.4296"/><linearGradient id="y" gradientTransform="matrix(1 0 0 -1 0 1275.2698)" gradientUnits="userSpaceOnUse" x1="885.595" x2="885.595" xlink:href="#u" y1="853.808" y2="878.454"/><linearGradient id="z" gradientUnits="userSpaceOnUse" x1="847.4794" x2="869.4089" xlink:href="#u" y1="400.3209" y2="387.1673"/><linearGradient id="A" gradientUnits="userSpaceOnUse" x1="924.455" x2="905.5657" xlink:href="#u" y1="400.5318" y2="388.3603"/><linearGradient id="B" gradientUnits="userSpaceOnUse" x1="602.1359" x2="741.2882" y1="579.3214" y2="669.2339"><stop offset="0" stop-color="#ebfdf7" stop-opacity=".18"/><stop offset=".15" stop-color="#e3fcf4" stop-opacity=".42"/><stop offset=".3" stop-color="#ddfbf2" stop-opacity=".63"/><stop offset=".45" stop-color="#d8fbf0" stop-opacity=".79"/><stop offset=".57" stop-color="#d4faee" stop-opacity=".9"/><stop offset=".69" stop-color="#d2faed" stop-opacity=".97"/><stop offset=".77" stop-color="#d1faed"/></linearGradient><linearGradient id="C" gradientUnits="userSpaceOnUse" x1="812.5078" x2="719.9626" y1="588.1776" y2="646.5799"><stop offset="0" stop-color="#02e49b"/><stop offset=".88" stop-color="#d1faed"/><stop offset="1" stop-color="#ebfdf7"/></linearGradient><linearGradient id="D"><stop offset="0" stop-color="#02e49b" stop-opacity="0"/><stop offset="1" stop-color="#02e49b"/></linearGradient><linearGradient id="E" gradientTransform="matrix(1 0 0 -1 0 865.8898)" gradientUnits="userSpaceOnUse" x1="718.1143" x2="718.1143" xlink:href="#D" y1="243.5301" y2="228.8512"/><linearGradient id="F" gradientTransform="matrix(1 0 0 -1 0 865.8898)" gradientUnits="userSpaceOnUse" x1="689.535" x2="689.535" xlink:href="#D" y1="235.9554" y2="201.6141"/><linearGradient id="G" gradientTransform="matrix(1 0 0 -1 0 865.8898)" gradientUnits="userSpaceOnUse" x1="729.83" x2="729.83" xlink:href="#D" y1="220.2945" y2="185.9531"/><linearGradient id="H" gradientUnits="userSpaceOnUse" x1="940.4302" x2="821.2643" y1="507.1208" y2="589.8975"><stop offset="0" stop-color="#53edbb"/><stop offset=".1" stop-color="#57edbd" stop-opacity=".97"/><stop offset=".23" stop-color="#63efc1" stop-opacity=".9"/><stop offset=".38" stop-color="#76f1c9" stop-opacity=".77"/><stop offset=".55" stop-color="#91f3d4" stop-opacity=".59"/><stop offset=".74" stop-color="#b3f7e1" stop-opacity=".37"/><stop offset=".88" stop-color="#d1faed" stop-opacity=".18"/></linearGradient><path d="m-21-37h1478v933h-1478z" fill="#f9fafa"/><path d="m820.97 166.93c1.27-.78 2.06-2.16 2.09-3.66l18.28-42c-.01-1.53-.8-2.94-2.09-3.76l-63.42-36.46c-1.37-.72-3.02-.72-4.39 0l-48.27 28.73c-1.29.82-2.08 2.23-2.09 3.76l-.84 51.09c.01 1.53.85 2.93 2.19 3.66l61.54 36.36" fill="url(#a)"/><path d="m635.53 62.87-48.27 28.73c-1.29.82-2.08 2.23-2.09 3.76v52.24c-.01 1.53.78 2.96 2.09 3.76l45.34 26.12c1.32.79 2.96.79 4.28 0l48.16-28.73c1.27-.78 2.06-2.16 2.09-3.66v-51.82c-.01-1.53-.8-2.94-2.09-3.76l-45.13-26.64c-1.37-.73-3.01-.73-4.38 0z" fill="#02e49b"/><path d="m606.9 125.24-10.45 6.06c-.24.21-.39.51-.42.84v12.12c.03.32.18.62.42.84l10.45 6.06h1.04l10.34-6.16c.3-.17.5-.49.52-.84v-12.01c.02-.33-.14-.65-.42-.84l-10.45-6.06c-.3-.22-.71-.22-1.03-.01z" fill="#d9dbdc"/><path d="m664.68 125.24-10.45 6.06c-.3.17-.5.49-.52.84v12.12c.02.35.22.66.52.84l10.45 6.06h.94l10.45-6.16c.28-.18.44-.5.42-.84v-12.01c-.02-.35-.22-.66-.52-.84l-10.45-6.06c-.26-.19-.59-.19-.84-.01z" fill="#d9dbdc"/><path d="m636.47 93.27-10.45 6.16c-.3.17-.5.49-.52.84v12.12c.02.35.22.66.52.84l10.45 5.96c.32.21.73.21 1.04 0l10.34-6.06c.32-.21.51-.56.52-.94v-11.91c-.02-.35-.22-.66-.52-.84l-10.34-6.16c-.34-.11-.7-.11-1.04-.01z" fill="#d9dbdc"/><path d="m635.74 140.81-10.45 6.16c-.32.16-.52.48-.52.84v12.01c-.03.36.19.7.52.84l10.45 6.06c.28.19.66.19.94 0l10.45-6.16c.32-.16.52-.48.52-.84v-11.91c0-.35-.2-.68-.52-.84l-10.45-6.16c-.28-.23-.67-.23-.94 0z" fill="#d9dbdc"/><path d="m606.27 127.96h-.31v4.39l-.21.21h-.1l-1.78-1.04c-.21 0-.31-.21-.31-.42v-4.28c0-.35-.2-.68-.52-.84l-1.67-1.04c-1.66-.88-2.71-2.61-2.72-4.49 0-2.02 1.64-3.66 3.66-3.66.65-.01 1.3.13 1.88.42l1.88 1.15.73.31h.1l9.93-4.7c.26-.1.56-.02.73.21v18.81c0 .29-.23.52-.52.52h-.21z" fill="#2b393f"/><ellipse cx="636.26" cy="132.45" fill="#2b393f" rx="7.1" ry="6.27"/><ellipse cx="636.15" cy="155.33" fill="#53edbb" rx="7" ry="6.16"/><ellipse cx="636.15" cy="146.03" fill="#fff" rx="7" ry="6.16"/><path d="m645.66 109.05-17.24-9.93c-.3-.17-.5-.49-.52-.84v-16.3c.05-.25.27-.42.52-.42h.21l17.24 9.93c.3.12.51.41.52.73v16.3c-.05.25-.27.42-.52.42z" fill="#fff"/><path d="m643.26 105.39-12.54-7.21c-.24-.17-.39-.44-.42-.73v-11.81c0-.23.19-.42.42-.42h.21l12.64 7.21c.26.2.42.51.42.84v11.7c0 .23-.19.42-.42.42z" fill="#2b393f"/><path d="m641.9 95.67-5.01-2.93c-.1-.1-.1-.1-.1-.31v-1.04c0-.1 0-.1.1-.1h.1l4.91 2.82.21.31v1.04c0 .12-.09.21-.21.21z" fill="#02e49b"/><path d="m634.38 98.39-1.99-1.25c-.12 0-.21-.09-.21-.21v-1.15h.21l2.09 1.15c.08.09.11.2.1.31v1.04h-.21z" fill="#02e49b"/><path d="m635.63 92.12-3.24-1.99c-.12 0-.21-.09-.21-.21v-1.15h.21l3.34 1.99c.1 0 .1.1.1.21v1.04h-.21v.11z" fill="#02e49b"/><path d="m637.2 96.4-4.81-2.72c-.1-.1-.21-.21-.21-.31v-1.04c0-.12.09-.21.21-.21l4.81 2.82.21.31v1.04c-.01.08-.04.16-.1.21z" fill="#02e49b"/><path d="m630.3 101.73 1.78-1.04-1.04-1.88-5.12 2.93c-.08.09-.11.2-.1.31h.1l2.4 1.46c.08.09.11.2.1.31h-.1l-3.76 2.19 1.25 1.78 7-3.97c.1 0 .1-.21 0-.31l-2.51-1.46c-.1-.11 0-.21 0-.32z" fill="#fff"/><ellipse cx="625.18" cy="106.96" fill="#d1faed" rx="1.04" ry="1.15"/><path d="m637.51 102.78 1.05 1.98-5.02 2.82-.94-1.98z" fill="#fff"/><ellipse cx="633.23" cy="106.54" fill="#9ff5d9" rx="1.04" ry="1.15"/><path d="m636.68 107.27 1.57.94h.42l4.39-2.51 1.04 1.88-5.01 2.93-.42.21h-.42l-1.57-.94h-.52l-3.66 2.09-.94-1.99 4.6-2.61z" fill="#fff"/><ellipse cx="631.97" cy="110.93" fill="#9ff5d9" rx="1.04" ry="1.15"/><path d="m635.11 80.73h2.19v6.06l-2.19-.21z" fill="#fff"/><ellipse cx="636.15" cy="80.73" fill="#9ff5d9" rx="1.15" ry="1.25"/><path d="m645.77 86.27v-3.45h-2.19v1.78c0 .21-.1.21-.21.21h-.1l-3.45-1.99c-.1-.06-.23-.04-.29.06-.01.01-.02.03-.02.05-.1 0-.1 0-.1.1v6.27l2.19.21v-2.72c0-.1.1-.21.31-.21h.1l1.57.94 1.88 1.15c.1.06.23.04.29-.06.01-.01.02-.03.02-.05.06 0 .1-.05.1-.1z" fill="#fff"/><ellipse cx="644.62" cy="82.93" fill="#53edbb" rx="1.15" ry="1.25"/><path d="m611.81 110.72 1.57-.63h.42l5.64 3.34h.31v-7.84c0-.21 0-.31-.21-.42l-8.78-5.12h-.42v7.63c0 .21.1.31.31.42l.63.42c.1 0 .21.21.21.31v1.46c0 .21.1.31.21.31z" fill="#00bd9b"/><path d="m615.89 106.43-3.97-2.3v-1.36h.1l3.97 2.3v1.25h-.1z" fill="#fff"/><path d="m617.77 107.48-1.04-.63c-.1 0-.1 0-.1-.1v-1.25c0-.06.05-.1.1-.1l1.04.63h.1v1.25z" fill="#fff"/><path d="m614.63 108-2.72-1.57v-1.25h.1l2.61 1.57h.1v1.25z" fill="#fff"/><path d="m599.06 110.3 6.37 3.66h.31v-5.64c-.03-.16-.1-.3-.21-.42l-6.27-3.45c-.1-.1-.21 0-.31.1v5.43c.01.12.05.23.11.32z" fill="#d1faed"/><path d="m601.36 107.37v2.82h.1l1.67-.94-1.67-1.78h-.1z" fill="#02e49b"/><path d="m680.56 131.93-13.38-13.59-5.64 8.68 17.34 7.94z" fill="url(#c)" opacity=".68"/><path d="m650.88 131.93 13.48-13.38 5.64 8.57-17.34 7.94z" fill="url(#d)" opacity=".68"/><path d="m650.99 119.28-.11-2.5 13.38.83-3.66 7.42z" fill="url(#e)" opacity=".68"/><path d="m680.24 119.39.32-2.4-13.59.73 3.66 7.42z" fill="url(#f)" opacity=".68"/><circle cx="665.72" cy="125.34" fill="#2b393f" r="10.87"/><path d="m678.99 135.06 1.57-.94c.1 0 .21-.21.21-.31v-1.78c0-.12-.09-.21-.21-.21h-.1l-1.57.94c-.1 0-.21.21-.21.31v1.78c0 .12.09.21.21.21z" fill="#00bd9b"/><path d="m652.56 135.06-1.57-.94-.21-.31v-1.78c0-.12.09-.21.21-.21h.1l1.57.94c.1 0 .21.21.21.31v1.78l-.21.21z" fill="#00bd9b"/><path d="m678.99 120.12 1.57-.84c.13-.1.21-.25.21-.42v-1.67l-.21-.21h-.1l-1.57.84c-.13.1-.21.25-.21.42v1.67c0 .21.1.21.21.21z" fill="#00bd9b"/><path d="m652.56 120.12-1.57-.84c-.13-.1-.21-.25-.21-.42v-1.67l.21-.21h.1l1.57.84c.13.1.21.25.21.42v1.67c0 .21-.1.21-.21.21z" fill="#00bd9b"/><path d="m661.33 122.31.11 6.38 4.07 1.46v-6.37l4.49-1.67-4.07-1.47z" fill="#02e49b"/><path d="m665.83 123.88v3.55l4.17 1.47v-6.59z" fill="#02e49b"/><path d="m831.84 115.73-46.07 26.64c-1.32.74-2.13 2.14-2.09 3.66v61.22c.01 1.53.8 2.94 2.09 3.76l45.34 26.12c1.34.72 2.95.72 4.28 0l48.16-28.73c1.29-.82 2.08-2.23 2.09-3.76v-57.88c-.01-1.53-.8-2.94-2.09-3.76l-47.33-27.27c-1.37-.72-3.01-.72-4.38 0z" fill="url(#g)"/><path d="m687.97 261.06-63.94 35.42c-1.36.76-2.2 2.2-2.19 3.76v52.24c-.01 1.56.83 3 2.19 3.76l45.24 26.12c1.37.72 3.02.72 4.39 0l63.84-35.52c1.36-.71 2.21-2.12 2.19-3.66v-51.82c-.01-1.53-.85-2.93-2.19-3.66l-45.24-26.64c-1.32-.79-2.97-.79-4.29 0z" fill="url(#h)" opacity=".68"/><path d="m882.09 380.27-45.24 21.63c-1.35.73-2.19 2.13-2.19 3.66v61.22c.01 1.53.85 2.93 2.19 3.66l45.24 26.12c1.35.83 3.04.83 4.39 0l45.13-26.64c1.32-.74 2.13-2.14 2.09-3.66l.21-60.7c-.01-1.53-.85-2.93-2.19-3.66l-45.24-21.63c-1.35-.83-3.04-.83-4.39 0z" fill="url(#i)" opacity=".38"/><path d="m783.99 204.33-51.51 29.78c-1.29.82-2.08 2.23-2.09 3.76l3.24 51.19c-.01 1.51.78 2.9 2.09 3.66l45.34 26.22c1.34.76 2.98.72 4.28-.1l48.16-28.63c1.29-.82 2.08-2.23 2.09-3.76v-51.82c-.03-1.5-.82-2.87-2.09-3.66l-45.34-26.64c-1.27-.79-2.89-.79-4.17 0z" fill="url(#j)" opacity=".38"/><path d="m633.44 291.15-45.24 26.64c-1.32.74-2.13 2.14-2.09 3.66v52.34c-.03 1.54.77 2.97 2.09 3.76l45.24 26.12c1.37.72 3.02.72 4.39 0l45.13-26.64c1.32-.79 2.12-2.22 2.09-3.76l.21-51.82c-.01-1.53-.85-2.93-2.19-3.66l-45.24-26.64c-1.35-.83-3.05-.83-4.39 0z" fill="#02e49b"/><path d="m678.68 371.49-45.34-25.91v-38.55c-.01-1.38 1.1-2.52 2.48-2.53.45 0 .89.11 1.28.34l39.28 22.46c1.44.8 2.32 2.33 2.3 3.97z" fill="#fff"/><path d="m676.06 366.58-40.01-22.78v-36.35l40.01 22.88z" fill="#2b393f"/><path d="m678.68 371.49-45.34-25.91-26.01 15.25c-.89.4-1.29 1.45-.89 2.35.18.4.49.71.89.89l40.12 22.98c1.5.85 3.34.81 4.81-.1z" fill="#fff"/><path d="m631.77 315.18h.94l-3.34 4.91c-.16.18-.39.29-.63.31l-3.45.84c-.29.08-.49.33-.52.63v26.85c0 .17.14.31.31.31h1.99v1.04h-2.93c-.17 0-.31-.14-.31-.31v-13.27c-.05-.15-.17-.26-.31-.31h-1.78c-.1.1-.21.21-.21.31l-.84 12.12c0 .17.14.31.31.31h1.57v.94h-2.61c-.21 0-.31-.21-.31-.42l1.04-17.55c-.01-.4-.11-.8-.31-1.15l-1.67-3.24c-.23-.45-.3-.97-.21-1.46l.94-5.54c0-.23.19-.42.42-.42h1.46s-1.25-3.45.52-3.55c0 0 1.36-.42.94 3.34h1.57l3.55-.42.73-.42z" fill="#2b393f"/><path d="m649 323.33-7.84-4.49c-.13-.1-.21-.25-.21-.42v-1.78c0-.21.21-.31.31-.21l7.84 4.49c.1 0 .21.21.21.42v1.78c.01.1-.2.21-.31.21z" fill="#02e49b"/><path d="m654.12 326.25-3.24-1.88c-.15-.08-.23-.25-.21-.42v-1.78c0-.21.21-.31.31-.21l3.34 1.88c.11.12.18.26.21.42v1.78c.01.21-.2.32-.41.21z" fill="#00bd9b"/><path d="m671.05 335.97-14.94-8.67c-.17-.07-.29-.23-.31-.42v-1.78c0-.21.21-.31.42-.21l14.94 8.67c.1 0 .21.21.21.42v1.78c-.01.1-.22.31-.32.21z" fill="url(#l)" opacity=".38"/><path d="m644.51 325.63-3.34-1.88c-.11-.12-.18-.26-.21-.42v-1.78c0-.21.21-.31.31-.21l3.34 1.88c.11.12.18.26.21.42v1.78c.01.21-.2.31-.31.21z" fill="#02e49b"/><path d="m654.12 331.16-7.73-4.39-.21-.42v-1.78c0-.21.21-.31.31-.21l7.73 4.39c.17.07.29.23.31.42v1.78c.01.21-.2.32-.41.21z" fill="#02e49b"/><path d="m642.53 335.45-1.36-.73c-.11-.12-.18-.26-.21-.42v-1.78c0-.21.21-.31.31-.21l1.36.73c.17.07.29.23.31.42v1.78c0 .21-.2.31-.41.21z" fill="#00bd9b"/><path d="m652.24 340.98-7.84-4.49c-.13-.1-.21-.25-.21-.42v-1.78c0-.21.21-.31.42-.21l7.73 4.49c.1 0 .21.21.21.42v1.78c.01.11-.2.32-.31.21z" fill="#02e49b"/><path d="m656.11 337.74-14.94-8.67c-.1 0-.21-.21-.21-.42v-1.78c0-.1.21-.21.31-.21l14.94 8.67c.17.07.29.23.31.42v1.78c.01.21-.2.32-.41.21z" fill="#02e49b"/><path d="m652.56 347.36-11.6-6.9v-2.51l11.6 7z" fill="url(#m)" opacity=".38"/><path d="m654.02 339.31 6.37 3.66v2.51l-6.37-3.66" fill="url(#n)" opacity=".38"/><path d="m621.32 291.25-9.19 5.43c-.3.12-.51.41-.52.73v10.76c0 .31.21.52.52.73l9.19 5.33c.28.19.66.19.94 0l9.19-5.43c.26-.15.42-.43.42-.73v-10.66c0-.3-.16-.58-.42-.73l-9.3-5.43c-.25-.17-.58-.17-.83 0z" fill="#9ff5d9"/><path d="m619.02 306.61 2.51 1.36c.21.09.33.3.31.52v2.19l-3.24-1.88v-1.99c0-.2.21-.41.42-.2z" fill="#02e49b"/><path d="m621.32 300.45-2.4-1.46c-.21-.09-.33-.3-.31-.52v-2.82c0-.21.21-.42.42-.31l2.51 1.46c.21.09.33.3.31.52v2.82c-.05.23-.27.37-.5.32-.02-.01-.02-.01-.03-.01z" fill="#02e49b"/><path d="m627.27 302.64-2.51-1.36c-.16-.13-.27-.32-.31-.52v-2.93c0-.21.31-.31.52-.21l2.4 1.46c.21.09.33.3.31.52v2.82c.01.22-.2.33-.41.22z" fill="#02e49b"/><path d="m623.09 311.21 6.27-3.66c.14-.1.18-.29.09-.43-.02-.03-.05-.06-.09-.09l-7.21-4.18c-.19-.11-.43-.11-.63 0l-7.31 4.18c-.14.1-.18.29-.09.43.02.03.05.06.09.09l6.27 3.66 1.04.52h.63zm-1.56-1.15-4.39-2.51c-.14-.1-.18-.29-.09-.43.02-.03.05-.06.09-.09l4.39-2.51h.63l4.28 2.51c.14.1.18.29.09.43-.02.03-.05.06-.09.09l-4.28 2.51c-.2.11-.44.11-.63 0z" fill="#fff"/><path d="m622.99 306.92-2.51-1.36c-.21-.09-.33-.3-.31-.52v-2.82c-.05-.17.04-.34.21-.39.11-.03.23 0 .32.08l2.4 1.46c.21.09.33.3.31.52v2.82c0 .21-.21.42-.42.21z" fill="#02e49b"/><path d="m647.02 368.88-9.3 5.43c-.24.21-.39.51-.42.84v10.66c0 .3.16.58.42.73l9.3 5.43h.84l9.3-5.54c.28-.13.45-.42.42-.73v-10.55c.02-.33-.14-.65-.42-.84l-9.19-5.43c-.32-.1-.65-.1-.95 0z" fill="#9ff5d9"/><path d="m645.45 382.25 2.09-4.49c.1-.1.21-.21.42-.1l1.15.63c.1.1.1.21.1.42l-2.09 4.49c-.1.1-.21.21-.42.1l-1.15-.63c-.08-.12-.11-.27-.1-.42z" fill="#fff"/><path d="m641.27 378.18 1.04 3.45c.1.21.21.21.31.21l1.04-.31c.13-.1.21-.25.21-.42l-.73-2.51c-.1-.21 0-.31.1-.31l2.61-.94c.11-.04.17-.16.13-.27-.01-.02-.01-.03-.02-.05l-.31-1.04c-.04-.11-.16-.17-.27-.13-.02.01-.03.01-.05.02l-3.34 1.15-.73.21c-.11.04-.17.16-.13.27.01.02.01.03.02.05z" fill="#02e49b"/><path d="m652.97 383.82-3.34 1.15c-.21.1-.31 0-.42-.21l-.31-.94c0-.21.1-.31.21-.31l2.51-.94c.21 0 .21-.21.21-.31l-.73-2.61c-.06-.1-.04-.23.06-.29.01-.01.03-.02.05-.02l1.04-.31c.1-.1.31 0 .31.21l1.04 3.34.21.73c0 .1 0 .31-.21.31z" fill="#02e49b"/><path d="m608.68 392.91-9.3 5.43c-.24.21-.39.51-.42.84v10.66c0 .3.16.58.42.73l9.3 5.43c.28.12.6.08.84-.1l9.3-5.43c.26-.15.42-.43.42-.73v-10.55c.02-.33-.14-.65-.42-.84l-9.3-5.43c-.28-.12-.57-.12-.84-.01z" fill="#d1faed"/><path d="m628.32 382.88c.1 0 .31-.1.31-.21l3.66-9.09 1.78.63-2.4 8.98h-2.19v.94h2.93l3.45-9.61 5.12 1.36 4.07-7.52c.55-1.04.9-2.17 1.04-3.34.1-3.03-1.46-3.87-1.46-3.87v-1.36c.63-1.88.42-2.72 0-3.13-.24-.21-.6-.21-.84 0-1.46 1.46-.84 2.61-.42 3.13.1.16.17.34.21.52l-.21 1.57-7.73 10.76-3.76-.73-3.87 9.93h-1.88v.73z" fill="#2b393f"/><path d="m633.02 370.55-2.4-2.82c-.1-.1-.21-.21-.31-.1l-1.88 1.25c-.1.1-.21.21-.1.42l2.82 3.34c.1.21.31.21.52.21h4.07l1.15-1.67c.1-.1 0-.21-.1-.21h-3.34z" fill="#d9dbdc"/><path d="m630.41 367.94 2.5 2.92-1.56 1.47-2.72-3.14z" fill="#00af92"/><path d="m643.47 361.88 1.15-.73s1.78.84 1.36 4.18c-.1 1.06-.42 2.09-.94 3.03l-4.07 7.52-3.76-5.33z" fill="#02e49b"/><path d="m645.24 361.77s2.61-5.85-1.04-6.27c0 0-.73.21 0 .94s1.36 1.57 0 5.01" fill="#02e49b"/><path d="m650.68 361.15c-.42.21-1.57 1.15-1.46 3.76.14 1.17.49 2.3 1.04 3.34l3.97 7.42h.21l4.91-1.36h.21l3.24 9.51h3.03v-1.04h-2.09c-.06 0-.1-.05-.1-.1l-2.4-8.67c0-.1 0-.21.1-.21l1.46-.52c0-.06.05-.1.1-.1s.1.05.1.1l3.66 9.09c0 .1.1.1.21.1l2.09-.42v-.63h-1.67l-3.87-9.93h-.21l-3.55.73h-.1l-7.63-10.76h-.1l-.21-1.36c.02-.22.09-.44.21-.63.59-.72.63-1.74.1-2.51-.23-.46-.8-.65-1.26-.42-.35.18-.56.55-.52.94.02.68.16 1.35.42 1.99v1.36z" fill="#2b393f"/><path d="m654.54 365.43 3.13 2.19h3.76v.63h-4.18l-1.57-.52z" fill="#2b393f"/><path d="m662.69 362.51-2.51 3.03h-3.87c-.06 0-.1.05-.1.1l1.25 1.78h4.18c.1.1.21 0 .31-.1l2.93-3.55c.09-.08.09-.21.02-.29-.01-.01-.01-.01-.02-.02l-1.99-1.25z" fill="#d9dbdc"/><path d="m662.69 362.82-2.4 2.92 1.56 1.47 2.62-3.14z" fill="#2b393f"/><path d="m649.74 358.01c-.32-.74.02-1.6.76-1.92.06-.02.12-.05.18-.06.8-.23 1.65.18 1.99.94" fill="#02e49b"/><path d="m651.62 357.39.31-.11 1.98-.73-.2-.31-2.09.73" fill="#02e49b"/><g fill="#fff"><path d="m608.68 399.49h.94v3.63h-.94z"/><path d="m608.68 405.65h.94v3.63h-.94z"/><path d="m603.35 402.52h.94v3.84h-.94z"/><path d="m614 402.52h.94v3.84h-.94z"/><path d="m604.53 405.47h3.63v.94h-3.63z" transform="matrix(.866 -.5 .5 .866 -121.7368 357.5653)"/><path d="m606.02 396.76h4.08v.94h-4.08z" transform="matrix(.867 -.4983 .4983 .867 -117.0721 355.8271)"/><path d="m611.16 397.78h.94v4.06h-.94z" transform="matrix(.5 -.866 .866 .5 -40.4288 729.5848)"/><path d="m605.84 407.02h.94v4.06h-.94z" transform="matrix(.5 -.866 .866 .5 -51.0932 729.5995)"/><path d="m609.66 408.63h4.06v.94h-4.06z" transform="matrix(.866 -.5 .5 .866 -122.6009 360.6622)"/><path d="m612.94 401.57h.94v3.64h-.94z" transform="matrix(.4983 -.867 .867 .4983 -41.9923 734.2103)"/><path d="m605.97 401.12h.94v3.63h-.94z" transform="matrix(.5 -.866 .866 .5 -45.7365 726.655)"/><path d="m609.96 402.44h3.63v.94h-3.63z" transform="matrix(.866 -.5 .5 .866 -119.4919 359.8776)"/></g><path d="m608.99 396.77-1.15.73h-.1v1.36h.1l1.15.73h.21l1.15-.73h.1v-1.36c0-.06-.05-.1-.1-.1l-1.15-.73z" fill="#02e49b"/><path d="m603.66 399.8-1.15.73h-.1v1.36c0 .06.05.1.1.1l1.15.73h.21l1.15-.73c.1 0 .1 0 .1-.1v-1.36h-.1l-1.15-.73z" fill="#02e49b"/><path d="m603.66 406.07-1.15.63c-.06 0-.1.05-.1.1v1.57l1.15.63h.21l1.15-.63c0-.1.1-.1.1-.21v-1.36h-.1l-1.15-.63c0-.2 0-.2-.11-.1z" fill="#02e49b"/><path d="m608.99 402.94-1.15.63c0 .1-.1.1-.1.21v1.36h.1l1.15.63c.1.1.1.1.21 0l1.15-.63c.06 0 .1-.05.1-.1v-1.57l-1.15-.63z" fill="#02e49b"/><path d="m614.32 399.8-1.15.73h-.1v1.36c0 .06.05.1.1.1l1.15.73h.21l1.15-.73c.06 0 .1-.05.1-.1v-1.36h-.1l-1.15-.73z" fill="#02e49b"/><path d="m608.99 409.1-1.15.63c-.06.05-.1.13-.1.21v1.25c0 .1.1.1.1.21l1.15.63h.21l1.15-.63c.1-.1.1-.1.1-.21v-1.25c0-.1 0-.21-.1-.21l-1.15-.63c-.11-.1-.11-.1-.21 0z" fill="#02e49b"/><path d="m614.42 406.07-1.15.63c-.06 0-.1.05-.1.1v1.57l1.15.63h.1l1.15-.63v-1.57c0-.06-.05-.1-.1-.1l-1.15-.63c.21-.1.1-.1.1 0z" fill="#02e49b"/><path d="m607.63 366.16v-1.04s-1.46-2.19.42-2.82c0 0 1.67 0 .63 2.72v1.15c.68-.12 1.33.34 1.45 1.02.01.04.01.08.02.13l1.57 4.39c.11.28.29.53.52.73l3.13 2.19v1.04l-3.97-2.82-.31-.31-1.04-1.15.73 23.3c0 .12.09.21.21.21h1.57v1.04h-2.51c-.12 0-.21-.09-.21-.21l-.63-14c0-.17-.14-.31-.31-.31h-.63c-.17 0-.31.14-.31.31l.42 13.79c0 .21-.1.42-.31.42h-1.99v-.94h.84c.19-.05.32-.22.31-.42l-.73-18.07c-.03-.29-.18-.56-.42-.73l-1.88-1.25c-.23-.17-.31-.47-.21-.73.4-1.68 2.28-7.74 3.64-7.64z" fill="#2b393f"/><path d="m635.21 381.62-9.3 5.43c-.26.15-.42.43-.42.73v10.66c0 .33.15.64.42.84l9.3 5.33c.27.1.57.1.84 0l9.3-5.43c.24-.21.39-.51.42-.84v-10.55c.03-.31-.14-.6-.42-.73l-9.3-5.43c-.24-.22-.6-.22-.84-.01z" fill="#d1faed"/><path d="m640.33 390.3c-.73-.1-3.76-.52-4.91-2.82-.12-.2-.38-.26-.57-.14-.02.01-.04.02-.05.04-1.04 1.05-2.51 1.55-3.97 1.36-.1-.1-.21 0-.21.1-.18 1.82-.07 3.65.31 5.43.42 2.06 1.83 3.78 3.76 4.6.1 0 .31.1.42 0 .97-.15 1.9-.51 2.72-1.04 0 0 3.03-1.78 2.72-7.31-.01-.13-.1-.22-.22-.22z" fill="#fff"/><path d="m638.97 391.13c-.52-.1-2.93-.42-3.76-2.3-.08-.09-.21-.09-.29-.02-.01.01-.01.01-.02.02-.82.83-1.98 1.22-3.13 1.04h-.21c-.07 1.4.04 2.8.31 4.18.32 1.52 1.38 2.78 2.82 3.34h.31c.71-.1 1.38-.35 1.99-.73 0 0 2.4-1.46 2.09-5.64z" fill="#02e49b"/><path d="m606.69 363.34c-.32-.74.02-1.6.76-1.92.06-.02.12-.05.18-.06.78-.22 1.59.19 1.88.94" fill="#02e49b"/><path d="m608.47 362.61.31-.1 1.99-.53-.32-.52-1.98.73" fill="#02e49b"/><path d="m619.12 368.98-2.71 3.35 1.77 1.98 3.24-3.86z" fill="#d9dbdc"/><path d="m614 374.21 4.18.1-.21-2.09-5.43-.1z" fill="#d9dbdc"/><path d="m619.12 369.3-2.5 3.03 1.67 1.46 2.61-3.24z" fill="#2b393f"/><path d="m586.11 333.98-9.3 5.43c-.26.15-.42.43-.42.73v10.76c.03.29.18.56.42.73l9.3 5.33c.28.19.66.19.94 0l9.19-5.43c.26-.15.42-.43.42-.73v-10.66c.03-.31-.14-.6-.42-.73l-9.19-5.43c-.28-.19-.66-.19-.94 0z" fill="#9ff5d9"/><path d="m583.29 339.31v9.09c0 .1 0 .31.21.31l5.96 3.24c.1.1.31 0 .31-.21v-8.78c0-.16-.08-.32-.21-.42l-5.96-3.45c-.1-.09-.31.01-.31.22z" fill="#02e49b"/><path d="m587.26 344.12-2.82-1.67v-.73l2.93 1.67v.84z" fill="#fff"/><path d="m588.2 349.45-3.76-2.19v-.73l3.76 2.19z" fill="#fff"/><path d="m587.26 347.25-2.82-1.57v-.84l2.93 1.57v.84z" fill="#fff"/><path d="m588.09 344.64-.52-.31v-.84l.63.31v.84z" fill="#fff"/><path d="m586.42 345.27-1.99-1.15v-.73l2.09 1.04v.73z" fill="#fff"/><path d="m588.41 341.3-.94-.52c.11-.19.11-.43 0-.63-.21-.42-.63-.63-.94-.42-.17 0-.31.14-.31.31l-.94-.52h-.1v1.25h.1l3.03 1.78h.1v-1.15z" fill="#fff"/><path d="m590.81 340.57v3.03l1.99 1.04h.1v-3.13l-1.99-1.15z" fill="#02e49b"/><path d="m580.15 346.52v3.03h.1l1.99 1.04c.06 0 .1-.05.1-.1v-2.93h-.1l-1.88-1.15c-.1.01-.21.01-.21.11z" fill="#02e49b"/><path d="m780.75 262.21-44.82 27.69c-1.36.76-2.2 2.2-2.19 3.76l-1.67 50.46c.01 1.55.85 2.98 2.19 3.76l103.33 61.54c1.31.84 2.98.84 4.28 0l45.34-26.95c1.32-.74 2.13-2.14 2.09-3.66l.21-51.82c-.01-1.55-.85-2.98-2.19-3.76l-102.18-61.01c-1.38-.74-3.02-.74-4.39-.01z" fill="url(#o)" opacity=".89"/><path d="m737.6 61.09-48.27 28.73c-1.27.78-2.06 2.16-2.09 3.66v52.34c.01 1.55.85 2.98 2.19 3.76l45.24 26.12c1.34.72 2.95.72 4.28 0l49.52-28.1c1.27-.78 2.06-2.16 2.09-3.66v-51.82c.04-1.51-.77-2.92-2.09-3.66l-46.49-27.37c-1.34-.83-3.03-.83-4.38 0z" fill="#9ff5d9"/><path d="m778.03 94.42 4.91 2.82c.55.34.9.92.94 1.57v7c0 .46-.37.84-.83.84-.15 0-.3-.04-.43-.11l-4.81-2.72c-.6-.29-.97-.9-.94-1.57v-7.1c.02-.46.42-.82.88-.79.1 0 .2.02.28.06z" fill="#fff"/><path d="m746.48 77.49 10.24 5.85c1.2.74 1.95 2.04 1.99 3.45v14.63c-.02.98-.84 1.76-1.82 1.73-.32-.01-.63-.1-.9-.27l-9.93-5.54c-1.27-.68-2.07-2-2.09-3.45v-14.83c.03-.98.85-1.75 1.83-1.72.24 0 .47.06.68.15z" fill="#fff"/><path d="m732.38 101.11-9.3 5.43c-.28.13-.45.42-.42.73v10.76c0 .3.16.58.42.73l9.3 5.33c.27.1.57.1.84 0l9.3-5.43c.21-.19.36-.45.42-.73v-10.66c0-.3-.16-.58-.42-.73l-9.3-5.43c-.25-.22-.61-.22-.84 0z" fill="#53edbb"/><path d="m724.54 105.81-9.3 5.54c-.26.15-.42.43-.42.73v10.66c.03.32.18.62.42.84l9.3 5.33h.84l9.3-5.43c.28-.18.44-.5.42-.84v-10.55c.03-.31-.14-.6-.42-.73l-9.19-5.54c-.31-.12-.64-.12-.95-.01z" fill="#53edbb"/><path d="m714.41 111.87-9.3 5.43c-.24.21-.39.51-.42.84v10.66c0 .3.16.58.42.73l9.3 5.43c.28.12.6.08.84-.1l9.3-5.43c.26-.15.42-.43.42-.73v-10.55c.02-.33-.14-.65-.42-.84l-9.3-5.43z" fill="#53edbb"/><path d="m763.2 80.31 4.91 2.82c.58.36.93.99.94 1.67v7c0 .46-.37.84-.83.84-.15 0-.3-.04-.43-.11l-4.81-2.72c-.61-.33-.98-.98-.94-1.67v-7c-.03-.46.31-.86.77-.9.14.01.27.03.39.07z" fill="#fff"/><path d="m766.23 95.15 6.48 3.66c.78.45 1.26 1.29 1.25 2.19v9.19c.01.63-.49 1.16-1.13 1.17-.19 0-.38-.04-.54-.13l-6.37-3.55c-.78-.45-1.26-1.29-1.25-2.19v-9.4c.07-.63.64-1.09 1.27-1.01.09.01.19.03.29.07z" fill="#fff"/><path d="m778.03 93.27 4.81 2.72c.61.35 1 .97 1.04 1.67v7c-.06.52-.53.89-1.04.83-.11-.01-.22-.04-.32-.09l-4.7-2.72c-.58-.33-.97-.91-1.04-1.57v-7.11c0-.46.37-.84.83-.84.15 0 .29.04.42.11z" fill="#fff"/><path d="m770.2 98.91 2.4 5.01c.32.57.79 1.04 1.36 1.36l3.13 1.36c.45-.76.7-1.62.73-2.51 0-1.15-.73-2.82.73-3.66.32-.18.72-.09.94.21.52.63 1.04 1.99-.42 3.66l.63.73c.75 1.05 1.22 2.27 1.36 3.55l.73 8.46c-.71.75-.95 1.84-.63 2.82l4.39 14.52h-3.76l1.67-.84-2.82-6.79-1.67-8.15-1.67 5.01c-.09.34-.12.69-.1 1.04l.63 10.45h-3.55l2.09-1.25-.94-9.4c-.02-.32.02-.63.1-.94l1.25-5.01s-.94-6.58 0-10.03l-3.24-2.09c-.41-.2-.74-.53-.94-.94l-3.34-5.85z" fill="#2b393f"/><path d="m738.33 93.48s1.25-1.36.94-2.4c-.16-.61-.79-.98-1.4-.82-.29.07-.53.26-.69.51-.41.84-.56 1.79-.42 2.72-2.1 2.87-3.46 6.2-3.97 9.72 0 0-.52 3.13 1.25 9.19l2.93 8.36h2.4l-1.57-1.57s-2.4-7.63-2.4-11.39c0-.52.42-.94.93-.95.04 0 .07 0 .11.01h.63c.46 0 .84.37.84.84v8.36l2.09 1.57-.73-2.09.73-7.73c0-.21-.1-.31-.1-.42-.46-1.24-1.3-2.3-2.4-3.03-.32-.16-.52-.48-.52-.84l.52-5.22 3.87 2.4v-1.04l-2.51-1.78c-.43-.27-.67-.75-.63-1.25v-.23c.09-.28.38-.43.65-.34.03.01.05.02.08.03l7.42 4.49v-1.15l-8.15-5.12z" fill="#2b393f"/><path d="m834.03 175.28-48.16 28.73c-1.36.76-2.2 2.2-2.19 3.76v51.51c-.01 1.51.78 2.9 2.09 3.66l44.92 26.95c1.52.73 3.29.73 4.81 0l48.06-28.73c1.32-.74 2.13-2.14 2.09-3.66v-51.82c.03-1.54-.77-2.97-2.09-3.76l-45.24-26.64c-1.35-.68-2.94-.68-4.29 0z" fill="#02e49b"/><path d="m827.66 258.24-27.37-5.22c7.52-11.7 24.24-21 45.45-25.49l10.45 14.63c-13.28 2.81-23.83 8.66-28.53 16.08z" fill="#fff"/><path d="m827.66 258.24v7.94l-27.37-4.6v-8.57" fill="#53edbb"/><path d="m827.66 266.18s12.33-17.87 28.52-18.6v-5.43s-20.48 3.76-28.52 16.09z" fill="#d9dbdc"/><path d="m869.97 254.58-5.85 3.45c-.11.12-.18.26-.21.42v6.37c.03.16.1.3.21.42l5.43 3.13h.52l5.85-3.45.21-.42v-6.27c0-.21-.1-.42-.21-.42l-5.43-3.24c-.15-.11-.37-.11-.52.01z" fill="#53edbb"/><path d="m869.87 247.79c-.53-.89-.24-2.05.65-2.58.09-.05.19-.1.29-.14.52-.34 1.21-.2 1.57.31.42.52.42 1.36-1.15 2.4l-1.57 9.61h-5.96v7.52h-2.19v-1.04h1.57l-.63-7.63 3.24-.31z" fill="#2b393f"/><path d="m852.94 252.6-5.54 3.34c-.21.1-.31.21-.31.42v6.06c0 .21.1.31.31.42l5.22 3.03c.15.12.37.12.52 0l5.54-3.34c.21-.1.31-.21.31-.42v-5.96c.02-.22-.11-.43-.31-.52l-5.22-3.03z" fill="#d1faed"/><path d="m852.94 246.01c-.51-.84-.25-1.93.58-2.44.11-.07.23-.13.36-.17.48-.32 1.13-.19 1.45.29 0 .01.01.01.01.02.31.52.42 1.25-1.15 2.3l-1.57 9.3h-5.64v7.21h-2.19v-.94h1.57l-.63-7.31 3.13-.42z" fill="#2b393f"/><path d="m863.39 258.55-5.75 3.45c-.21.09-.33.3-.31.52v6.27c0 .21.1.31.31.42l5.43 3.13h.52l5.75-3.45c.21-.1.31-.21.31-.42v-6.27c0-.21-.1-.31-.31-.42l-5.43-3.24h-.52z" fill="#9ff5d9"/><path d="m863.39 251.76s-1.04-1.57.94-2.72c.52-.34 1.21-.2 1.57.31.31.52.42 1.36-1.15 2.4l-1.67 9.61h-5.85v7.52h-2.19v-.94h1.57l-.63-7.63 3.24-.42z" fill="#2b393f"/><path d="m847.82 268.16-5.75 3.45c-.21.1-.31.21-.31.42v6.27c-.02.22.11.43.31.52l5.43 3.13h.52l5.75-3.45c.21-.09.33-.3.31-.52v-6.16c-.01-.19-.08-.38-.21-.52l-5.54-3.13c-.14-.13-.35-.13-.51-.01z" fill="#53edbb"/><path d="m847.82 260.64s-.94-1.46.94-2.61c.5-.23 1.1-.1 1.46.31.42.52.52 1.36-1.04 2.3l-1.57 9.4h-5.75v7.21h-2.09v-.94h1.57l-.63-7.42 3.13-.31z" fill="#2b393f"/><path d="m888.26 263.46-5.85 3.45c-.13.14-.2.33-.21.52v6.27c0 .16.08.32.21.42l5.54 3.13h.52l5.75-3.45c.13-.1.21-.25.21-.42v-6.27c-.02-.19-.14-.34-.31-.42l-5.43-3.24c-.15-.06-.31-.06-.43.01z" fill="#53edbb"/><path d="m888.88 257.3s-1.15-1.57.94-2.72c.48-.32 1.13-.19 1.45.29 0 .01.01.01.01.02.42.52.52 1.36-1.15 2.4l-1.57 9.61h-5.85v7.52h-2.3v-.94h1.67l-.63-7.63 3.13-.42z" fill="#d1faed"/><path d="m799.55 244.24v-34.58c-.02-1.58.62-3.1 1.78-4.18 6.48-5.85 30.72-23.09 92.36-21.1 2.09.06 3.76 1.77 3.76 3.87v29.88c0 1.67-1.36 3.03-3.03 3.03-13.48-.52-66.86-1.04-92.25 24.24-.65.58-1.64.52-2.21-.12-.26-.3-.4-.66-.41-1.04z" fill="#9ff5d9"/><path d="m827.97 209.03v-1.04c-.65-.38-.86-1.21-.48-1.86.05-.08.11-.16.17-.23.22-.22.54-.3.84-.21.52.21 1.15.73.52 2.51 0 .99.46 1.92 1.25 2.51.63.34 1.06.96 1.15 1.67l1.46 7.21v6.37h-1.25v-6.37l-.94-2.72.63 12.12.94 14.1c0 .17.14.31.31.31h1.36v1.04h-2.19c-.17 0-.31-.14-.31-.31l-1.46-17.24-.31-.21h-.84c-.12 0-.21.09-.21.21l.31 8.25 1.04 8.25c0 .17-.14.31-.31.31h-2.4v-1.04h1.04c.1 0 .31-.1.21-.31l-.84-7.1-.42-8.57s-.21-10.45-.52-15.25l-4.49-2.72c-.13-.1-.21-.25-.21-.42l.52-7h.94l-.42 6.06c-.02.22.11.43.31.52z" fill="#2b393f"/><path d="m859.52 197.43v13.79l8.99 3.24v-13.89l9.72-3.56-8.88-3.13z" fill="#53edbb"/><path d="m869.24 200.99v7.52l8.99 3.24v-14.11z" fill="#53edbb"/><path d="m810.32 269.52-5.75 3.45c-.21.1-.31.21-.31.42v6.27c-.02.22.11.43.31.52l5.43 3.13h.52l5.75-3.45c.21-.09.33-.3.31-.52v-6.16c.02-.22-.11-.43-.31-.52l-5.43-3.13h-.52z" fill="#fff"/><path d="m810.32 262.63s-1.04-1.57.94-2.72c.54-.22 1.15-.09 1.57.31.31.63.42 1.46-1.15 2.4l-1.67 9.72h-5.85v7.52h-2.19v-1.04h1.57l-.63-7.63 3.24-.31z" fill="#2b393f"/><path d="m831.52 278.4-5.64 3.34c-.11.12-.18.26-.21.42v6.06c.01.19.08.38.21.52l5.33 3.03c.12.11.3.11.42 0l5.64-3.34.21-.42v-6.06c0-.21 0-.31-.21-.42l-5.22-3.13z" fill="#fff"/><path d="m831.52 271.82c-.53-.82-.29-1.92.53-2.45.1-.06.2-.11.3-.16.52-.34 1.21-.2 1.57.31.31.52.42 1.36-1.15 2.3l-1.57 9.3h-5.64v7.31h-2.19v-.94h1.57l-.63-7.42 3.13-.31z" fill="#2b393f"/><path d="m732.69 234.73-45.24 26.64c-1.32.79-2.12 2.22-2.09 3.76v52.34c-.04 1.51.77 2.92 2.09 3.66l45.24 26.12c1.35.83 3.04.83 4.39 0l45.13-26.64c1.3-.77 2.12-2.15 2.19-3.66v-51.82c-.01-1.55-.85-2.98-2.19-3.76l-45.24-26.64c-1.34-.69-2.94-.69-4.28 0z" fill="#53edbb"/><path d="m724.65 303.89 19.01 10.66v17.03l-9.4 5.43-9.61-5.43" fill="url(#p)" opacity=".68"/><path d="m734.88 230.55 5.33 3.13c.28.05.47.32.42.61v.02 6.27c0 .31-.31.52-.52.31l-5.43-3.03c-.26-.15-.42-.43-.42-.73v-6.27c.03-.23.23-.39.46-.37.06.01.11.03.16.06z" fill="#d1faed"/><path d="m702.5 272.45-5.96-3.34c-.1-.1-.21-.21-.21-.31v-6.9c.04-.11.16-.17.27-.13.02.01.03.01.05.02l5.96 3.34c.08.09.11.2.1.31v6.9c0 .11-.11.21-.21.11z" fill="#fff"/><path d="m768.73 317.06-34.06 19.64c-.24.21-.6.21-.84 0l-34.06-19.64c-.17 0-.31-.14-.31-.31s.14-.31.31-.31l34.06-19.75h.84l34.06 19.75c.18 0 .32.14.32.31s-.14.31-.32.31zm-27.06 22.88 39.81-22.88c.21-.1.21-.52 0-.73l-46.81-26.95c-.24-.21-.6-.21-.84 0l-46.81 26.95c-.21.21-.21.63 0 .73l39.6 22.88 7.52 4.18c.28.12.6.08.84-.1z" fill="#d9dbdc"/><path d="m706.05 298.67 5.43 3.13c.24.17.39.44.42.73v6.27c-.03.23-.23.39-.46.37-.06-.01-.11-.03-.16-.05l-5.43-3.13c-.2-.14-.32-.38-.31-.63v-6.27c-.01-.31.3-.52.51-.42z" fill="#d1faed"/><path d="m715.14 260.33 19.12 10.76v52.34l-12.64-7.42-6.48-4.07" fill="url(#q)" opacity=".68"/><path d="m742.93 315.91-17.66-10.24c-.32-.21-.51-.56-.52-.94v-20.48c0-.42.42-.63.84-.42l17.66 10.24c.32.21.51.56.52.94v20.48c-.01.42-.42.63-.84.42z" fill="#2b393f"/><ellipse cx="729.37" cy="297.17" fill="#1ee7a6" rx="1.88" ry="2.09" transform="matrix(.866 -.5 .5 .866 -50.8668 404.5092)"/><ellipse cx="738.95" cy="302.42" fill="#00bd9b" rx="1.88" ry="2.09" transform="matrix(.866 -.5 .5 .866 -52.2085 410.001)"/><path d="m740.84 295.95-6.69-3.86-4.28 2.51 2.61 1.56 1.67-.94 4.08 2.3v1.78l1.36.83 1.25-.83z" fill="url(#r)" opacity=".38"/><path d="m735.72 303.58-1.57.94-4.07-2.4v-1.67l-1.36-.94-1.36.94v3.24l6.79 3.97 4.29-2.51z" fill="url(#s)" opacity=".68"/><path d="m715.97 311.42 17.76 10.34c.32.21.51.56.52.94v14.31l-19.12-11.07v-14c-.06-.28.11-.56.4-.62.16-.04.32 0 .44.1z" fill="#2b393f"/><path d="m731.33 335.24c.79-.77 1.24-1.82 1.25-2.93v-6.69c0-.21-.1-.42-.31-.42l-10.45-5.85h-.42l-2.4.73h-.1c-.1.1-.1.21-.21.21l-2.93 5.96 5.33 3.13" fill="#9ff5d9"/><path d="m721.93 325.21-1.25-.63.62-1.25-.94-.53-.52 1.26-1.15-.63-.52.94 1.25.63-.63 1.25.94.52.53-1.25 1.15.63z" fill="#00bd9b"/><ellipse cx="728.72" cy="327.3" fill="#00bd9b" rx=".52" ry=".63"/><ellipse cx="727.68" cy="330.64" fill="#00bd9b" rx=".52" ry=".63"/><ellipse cx="726.63" cy="328.13" fill="#00bd9b" rx=".52" ry=".63"/><ellipse cx="729.87" cy="329.6" fill="#00bd9b" rx=".52" ry=".63"/><path d="m750.24 279.34 19.12 10.66v26.75l-12.64 7.31-6.48-1.67" fill="url(#t)" opacity=".68"/><path d="m745.12 286.45 5.33 3.13c.26.15.42.43.42.73v6.27c0 .31-.31.52-.52.31l-5.43-3.13c-.26-.09-.43-.35-.42-.63v-6.27c-.03-.23.13-.44.36-.47.09-.01.18.01.26.06z" fill="#fff"/><path d="m750.97 320.51 5.54 3.24c.1.1.21.21.21.31l-3.13 1.78-3.03 1.88-.21-.31v-6.48c-.03-.23.13-.44.36-.47.09-.02.18 0 .26.05z" fill="#fff"/><path d="m768.53 290.42-17.66-10.24c-.38-.16-.62-.53-.63-.94v-20.48c0-.29.23-.52.52-.52.11 0 .22.04.31.1l17.66 10.24c.38.16.62.53.63.94v20.48c0 .29-.23.52-.52.52-.11 0-.22-.04-.31-.1z" fill="#2b393f"/><path d="m765.7 279.24-12.33-3.13c-.1 0-.1-.1-.1-.21v-8.04c0-.1.1-.21.31-.21l12.33 3.24c.21 0 .31.21.31.42v7.63c.05.17-.04.34-.21.39-.1.02-.22-.01-.31-.09z" fill="#9ff5d9"/><path d="m753.59 267.64 10.66 6.16c.13.1.21.25.21.42v7.84c0 .21-.21.31-.42.21l-10.55-6.06c-.21-.1-.21-.21-.21-.42v-7.94c-.01-.1.2-.31.31-.21z" fill="#02e49b"/><path d="m761.63 275.69 2.72 1.57h.1v1.57c0 .06-.05.1-.1.1l-2.72-1.57v-1.57z" fill="#00bd9b"/><path d="m763.41 277.25.52.31v.63l-.52-.21h-.1v-.63c-.01.01.1-.2.1-.1z" fill="#fff"/><path d="m733.42 282.27-17.66-10.24c-.31-.22-.5-.56-.52-.94v-20.48c0-.42.42-.73.73-.52l17.76 10.24c.31.22.5.56.52.94v20.48c.06.28-.11.56-.4.62-.14.03-.3 0-.43-.1z" fill="#2b393f"/><path d="m728.62 275.16-8.25-4.81c-.21-.09-.33-.3-.31-.52v-12.33c0-.31.21-.42.42-.31l6.48 3.76 2.19 4.7v9.19c.05.17-.04.34-.21.39-.12.05-.24.02-.32-.07z" fill="#9ff5d9"/><path d="m726.94 260.95v3.03c0 .21.1.42.31.42l1.99 1.25" fill="#fff"/><path d="m725.17 271.3s.73-1.88 1.46-2.3.52-.1.63.1c.1.21.52 1.15.21 3.13.34-.52.77-.97 1.25-1.36.23-.09.49 0 .63.21.16.69.16 1.4 0 2.09 0 0 0 .52.84 0" fill="none" stroke="#00bd9b" stroke-linecap="round" stroke-linejoin="round" stroke-width="1.2642"/><path d="m724.75 263.88-3.55-2.09c-.12 0-.21-.09-.21-.21v-.73c0-.12.09-.21.21-.21l3.55 2.09c.12 0 .21.09.21.21v.73c0 .21-.11.21-.21.21z" fill="#00bd9b"/><path d="m722.56 265.03-1.36-.84c-.12 0-.21-.09-.21-.21v-.73c0-.12.09-.21.21-.21l1.46.94c.12 0 .21.09.21.21v.73c-.04.11-.16.17-.27.13-.01 0-.03-.01-.04-.02z" fill="#00bd9b"/><path d="m724.54 268.58-3.55-1.99c0-.1-.1-.1-.1-.21v-.84c0-.1.1-.21.21-.1l3.55 1.99c.1.1.1.1.1.21v.84c0 .1-.1.21-.21.1z" fill="#00bd9b"/><g enable-background="new" fill="#2b393f"><path d="m653.87 450.58h-1.03c-.21 0-.32-.11-.32-.32v-12.7c0-.14-.08-.21-.23-.21h-3.11c-.23 0-.34-.11-.34-.32v-.82c0-.21.11-.32.34-.32h8.34c.23 0 .34.11.34.32v.82c0 .21-.11.32-.34.32h-3.11c-.15 0-.23.07-.23.21v12.7c.01.21-.1.32-.31.32z"/><path d="m661.16 450.58h-1.03c-.21 0-.32-.11-.32-.32v-15.42c0-.21.11-.32.32-.32h1.03c.21 0 .32.11.32.32v5.3h.09c.38-.81 1.16-1.21 2.33-1.21h1.28c1.04 0 1.84.3 2.42.89s.87 1.42.87 2.49v7.95c0 .21-.11.32-.32.32h-1.03c-.21 0-.32-.11-.32-.32v-7.88c0-1.32-.64-1.99-1.92-1.99h-1.28c-.69 0-1.21.18-1.58.55s-.55.88-.55 1.55v7.77c.01.21-.1.32-.31.32z"/><path d="m679.5 450.58h-4.84c-1.05 0-1.88-.3-2.48-.89s-.9-1.42-.9-2.49v-4.89c0-1.07.3-1.9.9-2.49s1.43-.89 2.48-.89h1.92c1.05 0 1.87.3 2.47.89.59.59.89 1.42.89 2.49v2.9c0 .23-.11.34-.32.34h-6.46c-.15 0-.23.07-.23.21v1.39c0 1.32.64 1.99 1.92 1.99h4.66c.21 0 .32.11.32.32v.82c-.01.2-.12.3-.33.3zm-6.35-6.24h4.93c.15 0 .23-.08.23-.23v-1.76c0-1.31-.64-1.96-1.92-1.96h-1.55c-1.28 0-1.92.65-1.92 1.96v1.76c0 .16.07.23.23.23z"/><path d="m690.09 450.58h-1c-.21 0-.32-.11-.32-.32v-14.05c0-.21.11-.32.32-.32h.94c.18 0 .3.06.37.18l6.3 11.08h.09v-10.94c0-.21.11-.32.32-.32h1c.21 0 .32.11.32.32v14.05c0 .21-.11.32-.32.32h-.84c-.17 0-.33-.1-.48-.3l-6.28-10.96h-.09v10.94c-.01.21-.11.32-.33.32z"/><path d="m709.8 450.58h-4.84c-1.05 0-1.88-.3-2.48-.89s-.9-1.42-.9-2.49v-4.89c0-1.07.3-1.9.9-2.49s1.43-.89 2.48-.89h1.92c1.05 0 1.87.3 2.47.89.59.59.89 1.42.89 2.49v2.9c0 .23-.11.34-.32.34h-6.46c-.15 0-.23.07-.23.21v1.39c0 1.32.64 1.99 1.92 1.99h4.66c.21 0 .32.11.32.32v.82c-.01.2-.11.3-.33.3zm-6.35-6.24h4.93c.15 0 .23-.08.23-.23v-1.76c0-1.31-.64-1.96-1.92-1.96h-1.55c-1.28 0-1.92.65-1.92 1.96v1.76c0 .16.08.23.23.23z"/><path d="m718.16 450.58h-1.96c-1.05 0-1.88-.3-2.48-.89s-.9-1.42-.9-2.49v-4.89c0-1.07.3-1.9.9-2.49s1.43-.89 2.48-.89h1.96c1.05 0 1.88.3 2.48.89s.9 1.42.9 2.49v4.89c0 1.07-.3 1.9-.9 2.49s-1.43.89-2.48.89zm-1.78-1.46h1.6c1.28 0 1.92-.65 1.92-1.96v-4.8c0-1.31-.64-1.96-1.92-1.96h-1.6c-1.28 0-1.92.65-1.92 1.96v4.8c0 1.3.64 1.96 1.92 1.96z"/><path d="m740.82 435.89h1.85c.21 0 .32.11.32.32v14.05c0 .21-.11.32-.32.32h-1c-.21 0-.32-.11-.32-.32v-12.13h-.09l-3.54 8.95c-.09.2-.23.3-.41.3h-1.1c-.2 0-.33-.1-.39-.3l-3.61-8.98h-.09v12.15c0 .21-.1.32-.3.32h-1c-.21 0-.32-.11-.32-.32v-14.05c0-.21.11-.32.32-.32h1.85c.14 0 .23.06.27.18l3.75 9.46h.11l3.75-9.46c.02-.11.11-.17.27-.17z"/><path d="m750.71 450.58h-1.19c-1.05 0-1.88-.3-2.48-.89s-.9-1.42-.9-2.49v-4.89c0-1.07.3-1.9.9-2.49s1.43-.89 2.48-.89h4.96c.21 0 .32.11.32.32v11.01c0 .21-.11.32-.32.32h-1.03c-.21 0-.32-.11-.32-.32v-.89h-.09c-.39.8-1.16 1.21-2.33 1.21zm2.42-3.56v-6.42c0-.14-.08-.21-.23-.21h-3.2c-1.26 0-1.9.66-1.9 1.99v4.75c0 1.32.63 1.99 1.9 1.99h1.3c.69 0 1.21-.18 1.58-.55.36-.37.55-.88.55-1.55z"/><path d="m758.06 437.01v-2.15c0-.21.1-.32.3-.32h1.05c.21 0 .32.11.32.32v2.15c0 .21-.11.32-.32.32h-1.05c-.2 0-.3-.1-.3-.32zm0 13.25v-11.01c0-.21.1-.32.3-.32h1.05c.21 0 .32.11.32.32v11.01c0 .21-.11.32-.32.32h-1.03c-.21 0-.32-.11-.32-.32z"/><path d="m764.34 450.58h-1.03c-.21 0-.32-.11-.32-.32v-11.01c0-.21.11-.32.32-.32h1.03c.21 0 .32.11.32.32v.89h.09c.38-.81 1.16-1.21 2.33-1.21h1.28c1.04 0 1.84.3 2.42.89s.87 1.42.87 2.49v7.95c0 .21-.11.32-.32.32h-1.03c-.21 0-.32-.11-.32-.32v-7.88c0-1.32-.64-1.99-1.92-1.99h-1.28c-.68 0-1.21.18-1.58.55s-.55.88-.55 1.55v7.77c.01.21-.1.32-.31.32z"/><path d="m776.24 450.58h-1c-.21 0-.32-.11-.32-.32v-14.05c0-.21.11-.32.32-.32h.94c.18 0 .3.06.37.18l6.3 11.08h.09v-10.94c0-.21.11-.32.32-.32h1c.21 0 .32.11.32.32v14.05c0 .21-.11.32-.32.32h-.84c-.17 0-.33-.1-.48-.3l-6.28-10.96h-.09v10.94c-.01.21-.12.32-.33.32z"/><path d="m795.95 450.58h-4.84c-1.05 0-1.88-.3-2.48-.89s-.9-1.42-.9-2.49v-4.89c0-1.07.3-1.9.9-2.49s1.43-.89 2.48-.89h1.92c1.05 0 1.87.3 2.47.89.59.59.89 1.42.89 2.49v2.9c0 .23-.11.34-.32.34h-6.46c-.15 0-.23.07-.23.21v1.39c0 1.32.64 1.99 1.92 1.99h4.66c.21 0 .32.11.32.32v.82c-.01.2-.12.3-.33.3zm-6.35-6.24h4.93c.15 0 .23-.08.23-.23v-1.76c0-1.31-.64-1.96-1.92-1.96h-1.55c-1.28 0-1.92.65-1.92 1.96v1.76c0 .16.08.23.23.23z"/><path d="m799.62 440.39h-1.26c-.21 0-.32-.1-.32-.3v-.84c0-.21.11-.32.32-.32h1.26c.15 0 .23-.07.23-.21v-1.96c0-.21.11-.32.32-.32h1.03c.2 0 .3.11.3.32v1.96c0 .14.08.21.25.21h2.42c.23 0 .34.11.34.32v.84c0 .2-.11.3-.34.3h-2.42c-.17 0-.25.07-.25.21v6.58c0 1.29.67 1.94 2.01 1.94h.89c.23 0 .34.11.34.32v.84c0 .2-.11.3-.34.3h-1.1c-1.05 0-1.89-.29-2.51-.88s-.94-1.41-.94-2.46v-6.65c0-.13-.07-.2-.23-.2z"/></g><g enable-background="new" fill="#2b393f"><path d="m546.29 475.27h1.75c.75 0 1.3-.15 1.63-.46s.5-.82.5-1.52v-1.61c0-.71-.17-1.22-.5-1.53s-.87-.46-1.63-.46h-1.65c-.73 0-1.25.15-1.54.46s-.45.82-.45 1.53v.86c0 .48-.24.72-.72.72h-2.91c-.48 0-.72-.24-.72-.72v-.93c0-1.78.49-3.15 1.47-4.11s2.38-1.44 4.18-1.44h3.05c1.8 0 3.2.48 4.18 1.44s1.47 2.33 1.47 4.11v1.71c0 1.92-.9 3.16-2.71 3.74 1.8.39 2.71 1.63 2.71 3.74v1.75c0 1.78-.49 3.15-1.47 4.11s-2.38 1.44-4.18 1.44h-3.05c-1.81 0-3.2-.48-4.18-1.44s-1.47-2.33-1.47-4.11v-.96c0-.5.24-.75.72-.75h2.91c.48 0 .72.25.72.75v.89c0 .73.15 1.25.45 1.54.3.3.81.45 1.54.45h1.65c.75 0 1.3-.15 1.63-.46s.5-.82.5-1.53v-1.68c0-.71-.17-1.22-.5-1.53s-.87-.46-1.63-.46h-1.75c-.48 0-.72-.24-.72-.72v-2.06c0-.51.24-.76.72-.76z"/><path d="m574.08 488.09h-2.91c-.48 0-.72-.24-.72-.72v-7.33l-6.27-13.23c-.09-.21-.09-.38.02-.53.1-.15.26-.22.46-.22h3.63c.37 0 .64.24.82.72l3.43 8.33h.24l3.36-8.33c.16-.48.43-.72.82-.72h3.63c.23 0 .39.07.5.21.1.14.1.32-.02.55l-6.27 13.23v7.33c0 .47-.24.71-.72.71z"/><path d="m596.25 488.09h-7.57c-1.8 0-3.2-.48-4.18-1.44s-1.47-2.34-1.47-4.15v-6.3c0-1.8.49-3.19 1.47-4.15s2.38-1.44 4.18-1.44h2.71c1.8 0 3.2.48 4.18 1.44s1.47 2.34 1.47 4.15v4.35c0 .48-.24.72-.72.72h-8.6c-.27 0-.41.13-.41.38v.75c0 .71.15 1.22.46 1.52.31.31.83.46 1.56.46h6.92c.48 0 .72.25.72.75v2.26c0 .25-.05.43-.15.53-.11.11-.3.17-.57.17zm-8.53-9.74h4.66c.25 0 .38-.12.38-.38v-1.64c0-.73-.15-1.25-.45-1.54s-.81-.45-1.54-.45h-1.44c-.73 0-1.25.15-1.54.45s-.45.81-.45 1.54v1.64c0 .26.12.38.38.38z"/><path d="m606.43 488.09h-.82c-1.8 0-3.2-.48-4.18-1.44s-1.47-2.34-1.47-4.15v-6.3c0-1.8.49-3.19 1.47-4.15s2.38-1.44 4.18-1.44h7.92c.5 0 .75.24.75.72v16.04c0 .48-.25.72-.75.72h-2.88c-.48 0-.72-.24-.72-.72v-1.13h-.14c-.25.62-.7 1.08-1.34 1.39-.64.3-1.32.46-2.02.46zm3.49-6.38v-6.96c0-.25-.14-.38-.41-.38h-3.22c-.73 0-1.25.15-1.54.46-.3.31-.45.83-.45 1.56v5.89c0 .73.15 1.25.45 1.56s.81.46 1.54.46h1.27c1.57.02 2.36-.85 2.36-2.59z"/><path d="m621.67 488.09h-2.91c-.48 0-.72-.24-.72-.72v-16.04c0-.48.24-.72.72-.72h2.91c.48 0 .72.24.72.72v1.17h.14c.25-.62.7-1.08 1.34-1.41.64-.32 1.31-.48 2.02-.48h1.23c.46 0 .69.24.69.72v2.36c0 .27-.05.46-.15.57-.1.1-.28.14-.53.12h-2.36c-1.58 0-2.36.89-2.36 2.67v10.31c-.02.49-.26.73-.74.73z"/><path d="m640.18 488.09h-3.29c-.41 0-.55-.24-.41-.72l5.41-20.59c.16-.48.5-.72 1.03-.72h4.56c.57 0 .91.24 1.03.72l5.41 20.59c.14.48 0 .72-.41.72h-3.29c-.25 0-.42-.05-.51-.15s-.16-.29-.21-.57l-.96-3.77h-6.68l-.96 3.77c-.05.27-.12.46-.22.57-.11.09-.27.15-.5.15zm4.97-17.89-2.47 9.9h5.07l-2.47-9.9z"/><path d="m660.26 488.09h-2.91c-.48 0-.72-.24-.72-.72v-16.04c0-.48.24-.72.72-.72h2.91c.48 0 .72.24.72.72v1.13h.14c.5-1.23 1.62-1.85 3.36-1.85h1.1c3.59 0 5.38 1.86 5.38 5.59v11.17c0 .48-.25.72-.75.72h-2.88c-.48 0-.72-.24-.72-.72v-10.97c0-.73-.15-1.25-.46-1.56s-.83-.46-1.56-.46h-1.23c-1.58 0-2.36.87-2.36 2.6v10.38c-.02.49-.26.73-.74.73z"/><path d="m678.18 488.09h-2.91c-.48 0-.72-.24-.72-.72v-16.04c0-.48.24-.72.72-.72h2.91c.48 0 .72.24.72.72v1.13h.14c.5-1.23 1.62-1.85 3.36-1.85h1.1c3.59 0 5.38 1.86 5.38 5.59v11.17c0 .48-.25.72-.75.72h-2.88c-.48 0-.72-.24-.72-.72v-10.97c0-.73-.15-1.25-.46-1.56s-.83-.46-1.56-.46h-1.23c-1.58 0-2.36.87-2.36 2.6v10.38c-.02.49-.26.73-.74.73z"/><path d="m692.64 467.66v-2.98c0-.46.23-.69.69-.69h2.98c.46 0 .69.22.69.65v3.02c0 .46-.23.69-.69.69h-2.98c-.46 0-.69-.23-.69-.69zm0 19.71v-16.04c0-.48.23-.72.69-.72h2.95c.48 0 .72.24.72.72v16.04c0 .3-.05.49-.15.58s-.28.14-.53.14h-2.95c-.49 0-.73-.24-.73-.72z"/><path d="m700.18 470.61h3.02c.46 0 .73.24.82.72l2.95 12.88h.24l2.88-12.88c.09-.48.38-.72.86-.72h3.02c.48 0 .65.24.51.72l-4.32 16c-.09.5-.4.75-.93.75h-4.35c-.48 0-.79-.25-.93-.75l-4.28-16c-.14-.48.03-.72.51-.72z"/><path d="m729.86 488.09h-7.57c-1.8 0-3.2-.48-4.18-1.44s-1.47-2.34-1.47-4.15v-6.3c0-1.8.49-3.19 1.47-4.15s2.38-1.44 4.18-1.44h2.71c1.8 0 3.2.48 4.18 1.44s1.47 2.34 1.47 4.15v4.35c0 .48-.24.72-.72.72h-8.6c-.27 0-.41.13-.41.38v.75c0 .71.15 1.22.46 1.52.31.31.83.46 1.56.46h6.92c.48 0 .72.25.72.75v2.26c0 .25-.05.43-.15.53s-.3.17-.57.17zm-8.54-9.74h4.66c.25 0 .38-.12.38-.38v-1.64c0-.73-.15-1.25-.45-1.54s-.81-.45-1.54-.45h-1.44c-.73 0-1.25.15-1.54.45s-.45.81-.45 1.54v1.64c.01.26.13.38.38.38z"/><path d="m737.53 488.09h-2.91c-.48 0-.72-.24-.72-.72v-16.04c0-.48.24-.72.72-.72h2.91c.48 0 .72.24.72.72v1.17h.14c.25-.62.7-1.08 1.34-1.41.64-.32 1.31-.48 2.02-.48h1.23c.46 0 .69.24.69.72v2.36c0 .27-.05.46-.15.57s-.28.14-.53.12h-2.36c-1.58 0-2.36.89-2.36 2.67v10.31c-.02.49-.26.73-.74.73z"/><path d="m752.47 488.09h-6.51c-.46 0-.69-.24-.69-.72v-2.19c0-.25.05-.43.14-.53s.27-.15.55-.15h5.72c1.12 0 1.68-.34 1.68-1.03v-.17c0-.55-.47-1.07-1.41-1.58l-3.39-1.88c-1.17-.59-2.02-1.23-2.57-1.92s-.82-1.56-.82-2.64c0-1.6.42-2.78 1.27-3.53s2.17-1.13 3.98-1.13h5.72c.46 0 .69.24.69.72v2.23c0 .25-.05.43-.14.53s-.27.15-.55.15h-4.76c-1.12 0-1.68.29-1.68.86v.17c0 .5.49 1.02 1.47 1.54l3.46 2.06c1.19.64 2.02 1.3 2.5 1.97s.72 1.56.72 2.66c0 3.05-1.79 4.58-5.38 4.58z"/><path d="m767 488.09h-.82c-1.8 0-3.2-.48-4.18-1.44s-1.47-2.34-1.47-4.15v-6.3c0-1.8.49-3.19 1.47-4.15s2.38-1.44 4.18-1.44h7.92c.5 0 .75.24.75.72v16.04c0 .48-.25.72-.75.72h-2.88c-.48 0-.72-.24-.72-.72v-1.13h-.14c-.25.62-.7 1.08-1.34 1.39-.63.3-1.31.46-2.02.46zm3.5-6.38v-6.96c0-.25-.14-.38-.41-.38h-3.22c-.73 0-1.25.15-1.54.46-.3.31-.45.83-.45 1.56v5.89c0 .73.15 1.25.45 1.56s.81.46 1.54.46h1.27c1.57.02 2.36-.85 2.36-2.59z"/><path d="m782.25 488.09h-2.91c-.48 0-.72-.24-.72-.72v-16.04c0-.48.24-.72.72-.72h2.91c.48 0 .72.24.72.72v1.17h.14c.25-.62.7-1.08 1.34-1.41.64-.32 1.31-.48 2.02-.48h1.23c.46 0 .69.24.69.72v2.36c0 .27-.05.46-.15.57-.1.1-.28.14-.53.12h-2.36c-1.58 0-2.37.89-2.37 2.67v10.31c-.01.49-.25.73-.73.73z"/><path d="m793.42 493.88h-2.19c-.46 0-.69-.25-.69-.75v-2.3c0-.5.23-.75.69-.75h.72c1.44 0 2.42-.2 2.93-.6s.91-1.17 1.18-2.31h-1.82c-.43 0-.72-.24-.86-.72l-4.01-15.11c-.14-.48.03-.72.51-.72h3.05c.46 0 .74.24.86.72l2.95 12.64h.14l2.91-12.64c.09-.48.38-.72.86-.72h2.88c.57 0 .8.25.68.75l-4.18 16.72c-.5 1.9-1.28 3.33-2.33 4.32s-2.47 1.47-4.28 1.47z"/></g><path d="m882.09 322.7-45.24 26.64c-1.35.78-2.18 2.21-2.19 3.76v52.34c.01 1.53.85 2.93 2.19 3.66l45.24 26.12c1.35.83 3.04.83 4.39 0l45.13-26.64c1.32-.74 2.13-2.14 2.09-3.66l.21-51.82c-.01-1.55-.85-2.98-2.19-3.76l-45.24-26.64c-1.37-.72-3.02-.72-4.39 0z" fill="#d1faed"/><path d="m845.11 356.24 4.38-.42 18.71 8.57-4.91 13.58z" fill="url(#v)" opacity=".68"/><path d="m926.39 356.13-4.7 8.78-13.06 5.22-10.76-12.12z" fill="url(#w)" opacity=".68"/><path d="m880.73 335.45 10.87.31 3.03 27.69h-16.93z" fill="url(#x)" opacity=".68"/><path d="m880.32 423.42 10.55.1 3.24-28.73h-17.03z" fill="url(#y)" opacity=".68"/><path d="m850.23 406.07-5.23-8.98 22.46-17.55 7.74 12.95z" fill="url(#z)" opacity=".68"/><path d="m849.91 406.07-4.7-2.72c-.22-.13-.35-.37-.31-.63v-5.33c0-.31.31-.52.52-.31l4.7 2.72c.21.09.33.3.31.52v5.43c.05.17-.04.34-.21.39-.1.05-.23.02-.31-.07z" fill="#00bd9b"/><path d="m880.42 423.73 5.01 2.82c.2.2.53.2.73 0l4.49-2.51c.2-.11.28-.37.16-.57-.04-.07-.09-.13-.16-.16l-5.01-2.82h-.84l-4.39 2.51c-.19.2-.19.53.01.73z" fill="#02e49b"/><path d="m921.9 364.91 4.39-2.61c.28-.13.45-.42.42-.73v-5.12c.05-.17-.04-.34-.21-.39-.11-.03-.23 0-.32.08l-4.39 2.61c-.28.13-.45.42-.42.73v5.12c0 .31.21.41.53.31z" fill="#00bd9b"/><path d="m845.21 356.34 1.99 1.15c.21.1.42.21.63 0l1.78-.94c.17-.15.19-.42.04-.59-.01-.01-.02-.03-.04-.04l-1.99-1.15c-.23-.1-.5-.1-.73 0l-1.67 1.04c-.14.1-.18.29-.09.43.02.05.05.08.08.1z" fill="#02e49b"/><path d="m926.49 400.12-19.74-20.06-8.36 12.74 25.6 11.71z" fill="url(#A)" opacity=".68"/><path d="m880.84 335.76 5.22 3.03c.23.1.5.1.73 0l4.6-2.72c.31-.1.31-.42 0-.63l-5.22-2.93h-.73l-4.6 2.61c-.21.22-.21.54 0 .64z" fill="#02e49b"/><path d="m924.3 404.51 2.09-1.15c.22-.13.35-.37.31-.63v-2.3c0-.31-.21-.42-.52-.31l-1.99 1.15c-.23.13-.39.36-.42.63v2.4c.01.17.16.3.34.29.07-.01.14-.04.19-.08z" fill="#02e49b"/><circle cx="886.17" cy="379.43" fill="#2b393f" r="24.45"/><path d="m876.45 373.27v14.52l9.4 3.34v-14.62l10.14-3.77-9.2-3.34z" fill="#1ee7a6"/><path d="m886.58 376.92v7.94l9.51 3.35-.1-14.73z" fill="#1cc4a6"/><path d="m584.86 628.82 83.79 51.3c1.38.75 3.05.71 4.39-.1l45.13-27.16c1.34-.72 2.15-2.14 2.09-3.66l.21-51.82c-.01-1.53-.85-2.93-2.19-3.66l-85.04-51.19-48.37 24.76z" fill="url(#B)"/><path d="m634.27 545.34v52.45c-.01 1.53-.85 2.93-2.19 3.66l-47.33 27.27v-61.85l-45.87-26.12 43.78-25.28c1.34-.72 2.95-.72 4.28 0l45.34 26.22c1.24.8 1.99 2.17 1.99 3.65z" fill="#00e599"/><path d="m580.89 569.47v4.39l-45.77 26.33v-56.84z" fill="#00af92"/><path d="m765.7 560.28-55.89 33.01c-1.3.75-2.1 2.15-2.09 3.66v52.34c.03 1.5.82 2.87 2.09 3.66l45.34 26.22c1.34.76 2.98.72 4.28-.1l55.79-32.91c1.32-.74 2.13-2.14 2.09-3.66l.21-51.82c-.01-1.55-.85-2.98-2.19-3.76l-45.24-26.64c-1.37-.72-3.01-.72-4.39 0z" fill="url(#C)" opacity=".68"/><path d="m711.79 592.35-45.23 26.65c-1.35.78-2.18 2.21-2.19 3.76v52.24c-.01 1.56.83 3 2.19 3.76l45.24 26.12c1.35.83 3.04.83 4.39 0l45.13-26.64c1.32-.74 2.13-2.14 2.09-3.66l.21-51.82c-.01-1.55-.85-2.98-2.19-3.76l-45.24-26.64c-1.38-.73-3.02-.73-4.4-.01z" fill="#d1faed"/><path d="m702.71 643.65 12.43-7.1.52.84-10.87 6.37c-.1 0-.21.21-.1.42 0 .06.05.1.1.1l5.12 3.03-.52.94-6.69-3.87c-.21-.1-.21-.31-.1-.52 0-.06.05-.1.1-.1v-.11z" fill="#fff"/><path d="m726.73 628.61c.54-.23 1.16-.19 1.67.1h.42l3.45-2.3c.23-.1.5-.1.73 0l7.31 4.18-.52.94-6.69-3.87c-.23-.1-.5-.1-.73 0l-3.13 2.09c-.12 0-.21.09-.21.21.01.6-.31 1.16-.84 1.46-.57.35-1.28.39-1.88.1-.08-.09-.21-.09-.29-.02-.01.01-.01.01-.02.02l-6.37 3.55-.52-.84 6.37-3.66c.08-.09.11-.2.1-.31s.03-.23.1-.31c0-.1-.1-.21-.21-.31l-13.69-7.94.52-.94 13.79 7.84c.21.12.45.12.64.01z" fill="#fff"/><path d="m695.86 654.74h14.31v1.07h-14.31z" fill="#fff" transform="matrix(.866 -.5 .5 .866 -233.4547 439.3112)"/><path d="m711.53 615.36h13.27v1.07h-13.27z" fill="#fff" transform="matrix(.866 -.5 .5 .866 -211.732 441.6089)"/><path d="m687.36 627.69h13.27v1.07h-13.27z" fill="#fff" transform="matrix(.866 -.5 .5 .866 -221.1376 431.1776)"/><path d="m719.21 612.73 4.81 2.72c.21.21.52.21.63 0l4.39-2.4c.16-.13.2-.35.1-.52h-.1l-4.81-2.72c-.19-.11-.43-.11-.63 0l-4.28 2.51c-.21 0-.31.21-.21.42.03-.03.07-.03.1-.01z" fill="#02e49b"/><path d="m687.14 619.31 15.98 9.3c.4.3.95.3 1.36 0l14.63-8.36c.3-.22.38-.62.21-.94 0-.1-.1-.21-.21-.31l-16.4-9.09c-.43-.21-.93-.21-1.36 0l-14.21 8.25c-.3.22-.38.62-.21.94 0 .1.1.1.21.21z" fill="#2b393f"/><path d="m712.84 635.92 5.12 3.03c.23.1.5.1.73 0l4.7-2.72c.1-.1.21-.31.1-.42-.1-.1-.1-.1-.1-.21l-5.33-2.93c-.19-.11-.43-.11-.63 0l-4.6 2.61c-.16.13-.2.35-.1.52z" fill="#2b393f"/><path d="m732.48 632.89 9.93 5.75c.43.21.93.21 1.36 0l8.98-5.22c.28-.05.47-.33.42-.61-.02-.08-.05-.16-.1-.23l-.31-.31-10.13-5.64c-.43-.21-.93-.21-1.36 0l-8.78 5.01c-.3.22-.38.62-.21.94-.01.1.1.21.2.31z" fill="#02e49b"/><path d="m693.3 674.26 6.37-3.76c.33-.11.5-.47.38-.8-.02-.05-.04-.1-.07-.14l-.31-.21-4.39-2.51-1.04.63 3.87 2.3c.12-.03.23.04.26.16s-.04.23-.16.26c0 .1 0 .1-.1.1l-6.48 3.76c-.3.22-.38.62-.21.94 0 .12.09.21.21.21l11.07 6.58 1.04-.63-10.55-6.27c-.1-.1-.21-.31-.1-.42z" fill="#fff"/><path d="m673.03 660.79 15.98 9.3c.4.3.95.3 1.36 0l14.63-8.36c.3-.22.38-.62.21-.94 0-.1-.1-.21-.21-.31l-16.4-9.09c-.43-.21-.93-.21-1.36 0l-14.21 8.25c-.3.21-.43.59-.31.94z" fill="#2b393f"/><path d="m723.18 681.58-1.04-.63-9.09 5.33c-.08.09-.21.09-.29.02-.01-.01-.01-.01-.02-.02l-4.81-2.82-1.04.63 5.64 3.34c.19.11.43.11.63 0l.73-.42z" fill="#fff"/><path d="m713.47 676.88 15.98 9.4c.46.21 1 .21 1.46 0l14.52-8.46c.3-.21.43-.59.31-.94l-.31-.21-16.3-9.19c-.43-.21-.93-.21-1.36 0l-14.31 8.25c-.31.1-.42.52-.31.94z" fill="#2b393f"/><path d="m718.38 621.19c-.19.11-.43.11-.63 0l-2.4 1.15v13.37c-.01.11.03.23.1.31l2.4 1.36h.42l2.4-1.36.21-.31v-13.27z" fill="url(#E)" opacity=".38"/><ellipse cx="687.56" cy="632.37" fill="none" rx="1.36" ry="1.25" stroke="#fff" stroke-miterlimit="10.0005" stroke-width="1.9016" transform="matrix(.8368 -.5476 .5476 .8368 -234.0297 479.7166)"/><path d="m719.24 650.66h1.04v7.32h-1.04z" fill="#fff" transform="matrix(.5 -.866 .866 .5 -206.783 950.4829)"/><path d="m702.91 649.92 9.93 5.85c.43.21.93.21 1.36 0l8.98-5.22c.3-.22.38-.62.21-.94 0-.12-.09-.21-.21-.21l-10.13-5.75c-.43-.21-.93-.21-1.36 0l-8.78 5.12c-.3.21-.43.59-.31.94z" fill="#02e49b"/><path d="m690.06 627.14c-.48.3-1.09.3-1.57 0l-5.54 2.82.21 31.13c-.02.28.15.53.42.63l5.64 3.34c.28.12.6.08.84-.1l5.64-3.13c.24-.17.39-.44.42-.73l-.31-31.03z" fill="url(#F)" opacity=".38"/><ellipse cx="724.46" cy="657.13" fill="none" rx="1.36" ry="1.25" stroke="#fff" stroke-miterlimit="10.0005" stroke-width="1.9016" transform="matrix(.8368 -.5476 .5476 .8368 -241.5629 503.9634)"/><path d="m700.09 682.62 5.12 2.93c.23.1.5.1.73 0l4.6-2.61c.21-.1.21-.31.21-.52h-.21l-5.22-2.93c-.19-.11-.43-.11-.63 0l-4.6 2.61c-.1.1-.21.31-.1.42.1.1.1 0 .1.1z" fill="#02e49b"/><path d="m730.29 642.82c-.44.31-1.03.31-1.46 0l-5.64 2.82.31 31.13c-.06.28.12.56.4.62h.02l5.54 3.34c.27.1.57.1.84 0l5.75-3.24c.26-.15.42-.43.42-.73l-.31-30.93z" fill="url(#G)" opacity=".38"/><path d="m931.51 515.15-45.24-26.64c-1.37-.72-3.02-.72-4.39 0l-45.34 26.64c-1.29.82-2.08 2.23-2.09 3.76v.84l-22.88 13.48c-1.29.82-2.08 2.23-2.09 3.76v52.24c-.01 1.53.78 2.96 2.09 3.76l45.34 26.12c1.31.84 2.98.84 4.28 0l55.79-32.91.94-.73 13.48-7.94c1.29-.82 2.08-2.23 2.09-3.76v-54.85c.06-1.53-.7-2.96-1.98-3.77z" fill="url(#H)"/><path d="m881.88 436.79-45.34 26.64c-1.29.82-2.08 2.23-2.09 3.76v52.24c-.01 1.56.83 3 2.19 3.76l45.24 26.12c1.31.84 2.98.84 4.28 0l45.24-26.64c1.27-.78 2.06-2.16 2.09-3.66v-51.82c.03-1.54-.77-2.97-2.09-3.76l-45.13-26.64c-1.37-.73-3.01-.73-4.39 0z" fill="#53edbb"/><path d="m897.03 536.56 26.33-14.73c.36-.45.29-1.11-.17-1.47-.05-.04-.1-.07-.15-.1l-26.01-13.9z" fill="#d9dbdc"/><path d="m844.79 524.03 7 4.07c.36.21.79.21 1.15 0l6.37-3.66c.26-.23.28-.63.06-.88-.02-.02-.04-.04-.06-.06l-7.21-3.97c-.36-.21-.79-.21-1.15 0l-6.16 3.55c-.26.13-.37.44-.24.7.05.11.14.19.24.25z" fill="#d9dbdc"/><path d="m864.64 545.55 7 4.07c.36.21.79.21 1.15 0l6.37-3.66c.26-.23.28-.63.06-.88-.02-.02-.04-.04-.06-.06l-7.31-3.97c-.32-.21-.73-.21-1.04 0l-6.16 3.55c-.26.12-.39.41-.27.68.04.13.14.22.26.27z" fill="#d9dbdc"/><path d="m896.2 547.64 7 4.18c.38.11.77.11 1.15 0l6.37-3.76c.31-.21.31-.73 0-.84l-7.21-4.07c-.36-.21-.79-.21-1.15 0l-6.16 3.55c-.26.22-.31.61-.08.87.02.03.04.05.08.07z" fill="#d9dbdc"/><path d="m925.24 539.8 7.1 4.07c.32.21.73.21 1.04 0l6.37-3.66c.26-.13.37-.44.24-.7-.05-.11-.14-.19-.24-.24l-7.21-4.07c-.35-.12-.73-.08-1.04.1l-6.27 3.55c-.26.23-.28.63-.05.89z" fill="#d9dbdc"/><path d="m845 524.24 7 3.97c.23.17.56.13.73-.1.07-.09.1-.2.1-.31v-8.04c-.01-.38-.2-.73-.52-.94l-6.9-4.07c-.23-.18-.55-.14-.73.08-.1.12-.14.29-.1.44v8.04c0 .34.15.69.42.93z" fill="#d1faed"/><path d="m896.4 547.85 7 3.97c.42.21.84 0 .84-.42v-8.04c-.01-.38-.2-.73-.52-.94l-6.9-3.97c-.23-.17-.56-.13-.73.1-.07.09-.1.2-.1.31v8.04c-.02.37.14.72.41.95z" fill="#fff"/><path d="m864.85 545.65 7 4.07c.26.12.57 0 .69-.26.02-.05.04-.1.04-.15v-8.15c-.02-.35-.22-.66-.52-.84l-6.9-4.07c-.23-.18-.55-.14-.73.08-.1.12-.14.29-.1.44v8.04c0 .36.2.69.52.84z" fill="#fff"/><path d="m925.55 539.91 6.9 4.07c.23.17.56.13.73-.1.07-.09.1-.2.1-.31v-8.15c-.02-.35-.22-.66-.52-.84l-7-4.07c-.26-.12-.57 0-.69.26-.02.05-.04.1-.04.15v8.15c0 .36.21.68.52.84z" fill="#d1faed"/><circle cx="895.88" cy="452.56" fill="#d1faed" r="12.85"/><path clip-rule="evenodd" d="m887.73 497.18c3.66-2.35 5.86-6.41 5.85-10.76.2-7.1-5.39-13.01-12.48-13.22-7.1-.2-13.01 5.39-13.22 12.48z" fill="#00bd9b" fill-rule="evenodd"/><path d="m890.87 448.91v7.83l5.01 1.78v-7.84l5.54-2.09-5.02-1.77z" fill="#53edbb"/><path d="m896.3 450.89v4.29l5.12 1.77v-7.94z" fill="#53edbb"/><path d="m875.4 483.39v7.83l5.12 1.88v-7.94l5.44-1.98-4.91-1.78z" fill="#1ee7a6"/><path d="m880.94 485.37v4.28l5.02 1.88v-8.04z" fill="#1ee7a6"/><path d="m876.55 525.7 13.06 7.52 5.96 3.34c.43.29 1.02.17 1.3-.26.11-.17.17-.37.16-.58v-32.18c-.04-.64-.39-1.23-.94-1.57l-43.36-25.07c-.53-.23-1.14 0-1.38.53-.04.1-.07.2-.08.31v32.39c-.03.66.34 1.28.94 1.57l5.96 3.45c.12.2.37.27.57.16.2-.12.27-.37.16-.57v-7.74c0-.42.52-.63.84-.52l6.9 4.07c.32.21.51.56.52.94v8.25" fill="#2b393f"/><path d="m885.85 510.13 11.07 6.37c.1.1.21.21.21.31v6.58c-.04.11-.16.17-.27.13-.02-.01-.03-.01-.05-.02l-11.07-6.27c-.1-.1-.21-.21-.21-.31v-6.69c.04-.11.16-.17.27-.13.02.01.04.02.05.03z" fill="#02e49b"/><path d="m892.85 516.19 2.19 1.25c.1.1.21.21.21.31v2.51c0 .21-.21.21-.31.21l-2.09-1.25-.21-.31v-2.51c0-.12.1-.21.21-.21z" fill="#fff"/><path d="m837.27 547.64 7 4.18c.38.11.77.11 1.15 0l6.37-3.76c.31-.21.31-.73 0-.84l-7.21-4.07c-.36-.21-.79-.21-1.15 0l-6.16 3.55c-.25.14-.35.46-.21.72.05.09.12.16.21.22z" fill="#d9dbdc"/><path d="m837.48 547.85 7 3.97c.23.17.56.13.73-.1.07-.09.1-.2.1-.31v-8.04c-.01-.38-.2-.73-.52-.94l-6.9-3.97c-.42-.21-.84 0-.84.42v8.04c0 .35.15.7.43.93z" fill="#53edbb"/><path d="m810.94 533.95-45.24 26.64c-1.34.73-2.19 2.13-2.19 3.66v52.34c.01 1.55.85 2.98 2.19 3.76l45.24 26.12c1.37.72 3.02.72 4.39 0l45.13-26.64c1.32-.79 2.12-2.22 2.09-3.76v-51.82c.04-1.51-.77-2.92-2.09-3.66l-45.13-26.64c-1.34-.83-3.04-.83-4.39 0z" fill="#02e49b"/><path d="m782.21 617.64 45.45-25.91 26.01 15.25c.92.59 1.19 1.82.6 2.74-.15.24-.36.45-.6.6l-40.12 22.88c-1.49.84-3.31.84-4.81 0z" fill="#d9dbdc"/><path d="m781.17 575.32-7.63 4.49c-1.03.52-2.29.11-2.81-.92-.13-.27-.21-.56-.22-.85v-8.88c-.02-1.53.83-2.95 2.19-3.66l7.63-4.49c1.03-.52 2.29-.11 2.81.92.13.27.21.56.22.85v8.88c-.01 1.54-.85 2.94-2.19 3.66z" fill="#2b393f"/><path d="m823.9 550.98-28.84 16.51v12.01c-.01 1.53-.85 2.93-2.19 3.66l-10.66 6.16v28.31l45.45-25.91v-38.55c.01-1.38-1.1-2.52-2.48-2.53-.45 0-.89.12-1.28.34z" fill="#2b393f"/><path d="m831.11 646.47 16.51-9.61c.52-.3.84-.86.84-1.46v-24.55c0-.52-.43-.94-.95-.93-.14 0-.28.03-.41.1l-12.75 7.42-4.6 9.61v18.6c0 .52.43.94.95.93.14-.01.28-.04.41-.11z" fill="#9ff5d9"/><path d="m834.35 617.43v6.37c0 .35-.2.68-.52.84l-4.18 2.4" fill="#00bd9b"/><path d="m840.93 631.53-1.88-4.18h-.42l-1.04.63c-.08.09-.11.2-.1.31l1.99 4.18c.04.11.16.17.27.13.02-.01.03-.01.05-.02l1.04-.63c.09-.21.19-.31.09-.42z" fill="#d1faed"/><path d="m844.79 627.77-.94 3.13c-.1.21-.21.21-.31.21l-.94-.31c-.1 0-.21-.21-.21-.31l.73-2.4c0-.1 0-.21-.21-.31l-2.3-.73c-.1-.1-.21-.21-.1-.31l.21-.94.31-.21 3.13 1.04.63.21c.1.1.21.21.1.31z" fill="#d1faed"/><path d="m834.03 633 3.13 1.04c.1 0 .31 0 .31-.21l.31-.94c0-.1-.1-.21-.21-.31l-2.3-.73c-.1-.1-.21-.21-.21-.31l.73-2.4c0-.1 0-.31-.21-.31l-.84-.31c-.21 0-.31.1-.31.21l-.94 3.13-.21.63c-.1.1 0 .21.1.31z" fill="#d1faed"/><path d="m806.24 570.94 11.81-6.9c.39-.2.63-.61.63-1.04v-17.55c-.01-.35-.3-.62-.65-.61-.1 0-.2.03-.29.08l-9.09 5.33-3.24 6.79v13.27c0 .52.41.84.83.63z" fill="#fff"/><path d="m808.64 550.25v4.49c.01.25-.11.48-.31.63l-2.93 1.67" fill="#00bd9b"/><path d="m812.72 604.68 11.7-6.79c.39-.2.63-.61.63-1.04v-17.55c-.01-.35-.3-.62-.65-.61-.1 0-.2.03-.29.08l-9.09 5.22-3.24 6.9v13.27c.01.35.3.62.65.61.1-.01.2-.04.29-.09z" fill="#9ff5d9"/><path d="m815.02 584v4.6c-.02.24-.13.47-.31.63l-2.93 1.67" fill="#00bd9b"/><path d="m854.93 593.5-16.51-9.5c-.52-.3-.84-.86-.84-1.46v-24.66c0-.46.37-.84.83-.84.15 0 .3.04.43.11l12.85 7.42 4.49 9.61v18.6c0 .46-.37.84-.83.84-.15 0-.29-.04-.42-.12z" fill="#fff"/><path d="m851.69 564.56v6.37c.03.32.18.62.42.84l4.18 2.4" fill="#00bd9b"/><path d="m846.88 578.56v-1.56c.05-.23.27-.37.5-.32.01 0 .02 0 .03.01l3.55 1.99c.08.09.11.2.1.31v1.67c0 .21-.21.42-.42.21l-3.55-1.99z" fill="#d1faed"/><path d="m846.46 574.07-1.25-4.07c0-.21-.21-.31-.42-.21l-1.15.42c-.21 0-.31.21-.21.42l.84 3.03c.1.21 0 .42-.21.42l-3.03 1.04c-.15.08-.23.25-.21.42l.42 1.25c0 .21.21.31.42.21l4.07-1.36.73-.31c.21 0 .31-.21.21-.42z" fill="#d1faed"/><path d="m820.03 593.82-1.36-3.03c-.1-.1-.21-.21-.31-.1l-.84.42c0 .1-.1.21 0 .31l1.36 3.03c.1.1.21.21.31.1l.73-.42c.11-.1.22-.21.11-.31z" fill="#d1faed"/><path d="m822.85 591.1-.63 2.3c0 .1-.21.21-.21.1l-.73-.21c-.1 0-.21-.1-.1-.21l.52-1.78c0-.1 0-.21-.1-.21l-1.78-.63c-.1 0-.21-.1-.1-.21l.21-.73c0-.1.1-.1.21-.1l2.3.84h.52c.1 0 .1.1.1.21z" fill="#d1faed"/><path d="m814.91 594.97 2.3.73c.1.1.21 0 .21-.1l.31-.73c0-.12-.09-.21-.21-.21l-1.67-.63c-.1 0-.21-.1-.1-.21l.52-1.78c0-.12-.09-.21-.21-.21l-.63-.21h-.31l-.63 2.4-.21.42c0 .12.09.21.21.21z" fill="#d1faed"/><path d="m800.7 634.25-11.7-6.79c-.34-.24-.53-.63-.52-1.04v-17.45c-.06-.28.11-.56.4-.62.15-.03.32 0 .44.1l9.09 5.33 3.24 6.79v13.16c-.01.35-.3.62-.65.61-.11-.01-.21-.04-.3-.09z" fill="#fff"/><path d="m798.41 613.77v4.49c-.02.22.11.43.31.52l2.93 1.78" fill="#00bd9b"/><path d="m813.35 560.28-1.36-3.13h-.31l-.73.52c-.1 0-.1.1-.1.21l1.46 3.13c0 .1.1.1.21.1l.84-.52c.09-.1.09-.21-.01-.31z" fill="#d1faed"/><path d="m816.27 557.46-.73 2.4c0 .1-.1.1-.21.1l-.73-.21c-.08-.09-.11-.2-.1-.31l.52-1.67c.01-.11-.03-.23-.1-.31l-1.78-.52c-.08-.09-.11-.2-.1-.31l.21-.63c0-.1.1-.21.21-.1l2.3.73.52.21c.1 0 .1.1.1.21z" fill="#d1faed"/><path d="m808.23 561.32 2.3.84h.31l.21-.73c0-.1 0-.21-.1-.21l-1.78-.63c-.1 0-.21-.1-.1-.21l.52-1.78c0-.1 0-.21-.1-.21l-.73-.31c-.12 0-.21.09-.21.21l-.73 2.3v.42c-.1.1 0 .21.1.31z" fill="#d1faed"/><path d="m794.85 624.95v-1.15c0-.1.21-.21.42-.1l2.4 1.36c.1 0 .1.1.1.21v1.15c0 .1-.1.21-.31.1l-2.51-1.36c.01-.1-.1-.1-.1-.21z" fill="#d1faed"/><path d="m794.64 621.82-.94-2.82c0-.1-.1-.21-.21-.1l-.84.21c-.21.1-.21.21-.21.31l.63 2.19c.1.1 0 .21-.1.21l-2.19.73c-.08.09-.11.2-.1.31l.31.84c0 .12.09.21.21.21l2.82-1.04h.63c.1-.1.21-.21.1-.31z" fill="#d1faed"/><path d="m858.79 577.52s-1.36-2.82.84-3.34c0 0 2.09.52.52 3.34 0 0-.31 1.25.21 1.78.52.52 2.19.94 1.57 10.03l-.52 8.36.21 11.6 1.57 10.13-4.81.31v-1.04l2.82-.42-.84-8.57-1.99-10.55-1.46 7.63v12.96h-3.55v-1.46h1.67v-11.49l.63-11.91s.94-9.82.42-11.6l-3.97-3.97-2.19-4.07.94-.21 2.19 3.66 3.97 3.03c.46-1.02 1.06-1.96 1.78-2.82.12-.47.13-.94-.01-1.38z" fill="#2b393f"/><path d="m794.44 628.71c-.42.31-2.19 1.67-.94 6.06l4.6 8.57h.1l4.91-1.36c.1 0 .21 0 .21.1l3.34 9.4c0 .1 0 .1.1.1h2.82v-1.04h-2.09c-.06 0-.1-.05-.1-.1l-2.4-8.67h.1l1.57-.63h.21l3.66 9.09c0 .06.05.1.1.1l2.09-.42v-.63h-1.46c-.06 0-.1-.05-.1-.1l-3.97-9.82c0-.06-.05-.1-.1-.1l-3.55.73h-.21l-7.63-10.66-.31-1.67c0-.1 0-.1.1-.21.67-.71.76-1.8.21-2.61-.32-.41-.92-.47-1.32-.15-.2.16-.33.41-.35.67.03.64.13 1.27.31 1.88l.21 1.25c.06.03.08.1.05.16-.04.07-.11.09-.16.06z" fill="#2b393f"/><path d="m806.55 629.97-2.82 3.34 1.88 2.09 3.24-3.97z" fill="#d9dbdc"/><path d="m801.44 635.19 4.17.21-.31-2.2h-5.33z" fill="#d9dbdc"/><path d="m806.55 630.38-2.5 2.93 1.67 1.46 2.61-3.13z" fill="#2b393f"/><path d="m793.6 625.68c-.32-.74.02-1.6.76-1.92.06-.02.12-.05.18-.06.68-.31 1.49 0 1.79.68.04.08.07.17.09.26" fill="#02e49b"/><path d="m795.38 624.95.31-.1 1.98-.63-.31-.42-1.98.63" fill="#02e49b"/><path d="m621.32 320.19c.35.38.95.4 1.33.05.05-.05.09-.1.13-.15l3.24-.21.31 1.15-.94.31c-.22.1-.37.29-.42.52l-.21 9.72-4.07.21-2.19-4.49c-.09-.27-.12-.55-.1-.84l1.04-5.75c0-.23.19-.42.42-.42z" fill="#9ff5d9"/><path d="m827.97 209.03-4.6-1.36c-.17 0-.31-.14-.31-.31l.31-4.28h-.94l-.42 5.33c-.01.11.03.23.1.31l4.6 2.72.42 8.46v4.07l3.87.21-.31-7 .73 2.19c0 .21.1.42.1.63v4.18h1.25v-4.28c.02-.15-.02-.3-.1-.42l-1.36-7c-.11-.68-.48-1.28-1.04-1.67-.44-.4-.82-.86-1.15-1.36l-.63.42z" fill="#fff"/><path d="m828.39 209.87c0 .29.07.58.21.84 0 0 .42-.1.42-.73z" fill="#02e49b"/><path d="m828.6 210.7-.63 1.05.63 4.7.63-4.49z" fill="#02e49b"/><path d="m777.82 104.45h1.25l.73.84c.72.94 1.15 2.06 1.25 3.24l.73 8.67h-5.22s-.63-5.75 0-8.04c.1-.32-.03-.66-.31-.84l-3.03-1.88-.52-.63-2.4-4.07.84-.73 1.99 3.55c.22.41.6.71 1.04.84l2.93.73z" fill="#1ee7a6"/><path d="m718.48 104.66s-1.25-1.04-.73-1.57c.52-.52.84-3.13-1.67-3.24 0 0-2.09.84 0 3.76 0 0 .1 1.78-.94 1.99s-1.46 1.25 0 3.66l3.34 9.82h3.34s1.78 3.45.94 5.85c0 0 6.27 1.25 9.19-1.25s1.57-2.61 1.57-2.61l-10.03-5.22-3.24-8.46 3.13 2.09 3.45-3.34-.94-.73-2.4 2.61z" fill="#2b393f"/><path d="m704.06 106.75s1.88-1.57-.63-2.51c0 0-2.4.63-.63 2.51.23 1.14.2 2.32-.1 3.45 0 0-2.19 1.57-1.46 8.36l-2.09 7.63s1.99 1.78 2.72 1.25v9.09h-2.3l.21 1.25h3.34l-.21-10.45 1.25-.31.63 10.76h2.72v-.94h-1.78l-.31-9.82s2.61-.73 2.93-1.36c.31-.63-2.61-4.28-2.4-6.16 0 0-.1-8.04-.63-9.3s-1.78-1.57-1.26-3.45z" fill="#2b393f"/><path d="m710.75 123.99 20.37 11.7v2.82l-20.37-11.81z" fill="#d1faed"/><path d="m768.42 113.75-37.3 21.94v2.82l37.3-22.36z" fill="#fff"/><path d="m732.79 155.43-1.67.94v-17.86l1.67-.94z" fill="#fff"/><path d="m729.76 155.54 1.36.83v-17.86l-1.36-.73z" fill="#53edbb"/><path d="m768.42 134.02-1.67.94v-17.77l1.67-1.04z" fill="#fff"/><path d="m765.5 134.12 1.25.73v-17.76l-1.25.84z" fill="#53edbb"/><path d="m713.68 144.36-1.57.94v-17.76l1.57.83z" fill="#fff"/><path d="m710.75 144.57 1.36.73v-17.76l-1.36-.84z" fill="#53edbb"/><path d="m710.75 123.99 20.37 11.7 37.3-21.94-20.79-11.7z" fill="#fff"/><path d="m717.12 135.58-9.3 5.43c-.28.13-.45.42-.42.73v10.76c0 .3.16.58.42.73l9.3 5.33c.24.21.6.21.84 0l9.3-5.43c.24-.17.39-.44.42-.73v-10.66c0-.3-.16-.58-.42-.73l-9.3-5.43c-.24-.21-.6-.21-.84 0z" fill="#d1faed"/><path d="m768.84 123.67-9.3 5.43c-.28.13-.45.42-.42.73v10.76c0 .3.16.58.42.73l9.3 5.33c.24.21.6.21.84 0l9.3-5.43c.24-.17.39-.44.42-.73v-10.66c0-.3-.16-.58-.42-.73l-9.3-5.43c-.24-.21-.6-.21-.84 0z" fill="#d1faed"/><path d="m761 112.08s-3.24-2.72 0-3.45c0 0 1.99-.1 1.67 3.45l1.46 1.36c1.38 1.38 2.42 3.06 3.03 4.91l1.57 5.12c.31.75-.01 1.61-.73 1.99-.83.61-1.8 1.01-2.82 1.15h-5.12c-.17-.05-.34.04-.39.21-.03.11 0 .23.08.32l4.07 9.93-2.82.84.84-1.78-4.28-10.03c-.08-.2.02-.43.21-.52l4.6-.73c.46-.04.8-.45.76-.91 0-.05-.01-.09-.02-.14l-1.04-8.15-1.15 3.97c-.07.4-.45.66-.85.59-.07-.01-.13-.03-.19-.06l-3.97-1.36c-.46-.17-.83-.5-1.04-.94l-1.99-5.33h.94l1.78 4.28c.15.48.55.85 1.04.94l2.19.73c.38.13.8-.08.92-.46.01-.02.01-.04.02-.06.64-1.92 1.06-3.88 1.23-5.87z" fill="#2b393f"/><path d="m758.6 129.63-9.19 5.54c-.28.13-.45.42-.42.73v10.66c-.02.33.14.65.42.84l9.19 5.33h.94l9.19-5.43c.3-.17.5-.49.52-.84v-10.56c0-.3-.16-.58-.42-.73l-9.3-5.54z" fill="#d1faed"/><path d="m749.72 121.79s-1.78-3.55 1.04-3.66c0 0 1.57.21.94 3.66 1.38 1.67 2.09 3.79 1.99 5.96l-.73 7.1h-4.81s.21 6.9 0 8.78h-2.82v-.84h1.78l-1.04-5.85-5.12 4.81-2.09-1.99 1.04-.73 1.25 1.04 5.12-9.19h4.6l-.52-3.97h-1.57l-1.88 1.46h-4.49v-1.25h3.76l3.45-3.66s.62-.1.1-1.67z" fill="#2b393f"/><path d="m743.45 138.93-9.3 5.43c-.26.15-.42.43-.42.73v10.66c0 .33.15.64.42.84l9.3 5.33h.94l9.19-5.43c.28-.18.44-.5.42-.84v-10.55c.03-.31-.14-.6-.42-.73l-9.19-5.43c-.28-.21-.66-.21-.94-.01z" fill="#53edbb"/><path d="m727.2 783.1c2 1.8 3 4.4 3 7.8v17.7h-4.4v-16.2c0-2.8-.6-4.9-1.9-6.2-1.28-1.33-3.06-2.06-4.9-2-1.46.02-2.89.36-4.2 1-1.37.72-2.48 1.83-3.2 3.2-.86 1.7-1.27 3.59-1.2 5.5v14.7h-4.5v-26.8l4.1 1.6v1.8c.85-1.58 2.18-2.84 3.8-3.6 1.72-.82 3.6-1.23 5.5-1.2 2.88-.11 5.69.85 7.9 2.7z" fill="#003"/><path d="m761.7 796.4h-20.9c.14 2.46 1.13 4.79 2.8 6.6 1.72 1.56 3.98 2.38 6.3 2.3 1.73.05 3.45-.33 5-1.1 1.29-.6 2.29-1.68 2.8-3l3.7 1.9c-1.01 1.89-2.53 3.45-4.4 4.5-2.2 1.11-4.64 1.66-7.1 1.6-4.2 0-7.5-1.3-9.9-3.9-2.3-2.5-3.5-6-3.5-10.5s1.1-8.1 3.4-10.6 5.5-3.8 9.6-3.8c2.35-.11 4.68.48 6.7 1.7 1.84 1.09 3.34 2.69 4.3 4.6.98 2.06 1.46 4.32 1.4 6.6.03 1.04-.03 2.08-.2 3.1zm-18.1-10c-1.6 1.65-2.56 3.81-2.7 6.1h16.8c-.18-2.26-1.09-4.4-2.6-6.1-1.48-1.48-3.51-2.28-5.6-2.2-2.18-.06-4.29.73-5.9 2.2z" fill="#003"/><path d="m791.3 784.2c2.3 2.5 3.5 6 3.5 10.5s-1.1 8.1-3.5 10.6-5.7 3.9-9.9 3.9c-3.68.18-7.25-1.24-9.8-3.9-2.4-2.47-3.6-5.97-3.6-10.5 0-4.6 1.2-8.1 3.6-10.6 2.55-2.66 6.12-4.08 9.8-3.9 4.2 0 7.5 1.3 9.9 3.9zm-16.5 2.8c-3.07 4.71-3.07 10.79 0 15.5 3.54 3.65 9.36 3.73 13.01.19l.19-.19c3.2-4.67 3.2-10.83 0-15.5-3.54-3.65-9.36-3.73-13.01-.19-.06.06-.13.13-.19.19z" fill="#003"/><path d="m645.7 775.1.1 38.4 25 9-.1-38.8 27.1-10-24.6-8.7z" fill="#00e599"/><path d="m672.8 785.1v20.8l25 8.9v-38.9z" fill="#00af92"/></svg>