<svg enable-background="new 0 0 375 647" viewBox="0 0 375 647" xmlns="http://www.w3.org/2000/svg" xmlns:xlink="http://www.w3.org/1999/xlink"><linearGradient id="a" gradientTransform="matrix(1 0 0 -1 0 647.8898)" gradientUnits="userSpaceOnUse" x1="178.8834" x2="239.6334" y1="548.2453" y2="510.6953"><stop offset="0" stop-color="#ebfdf7" stop-opacity=".18"/><stop offset=".29" stop-color="#ebfdf7" stop-opacity=".38"/><stop offset=".32" stop-color="#e6fcf5" stop-opacity=".49"/><stop offset=".39" stop-color="#e0fcf3" stop-opacity=".65"/><stop offset=".46" stop-color="#dafbf1" stop-opacity=".77"/><stop offset=".53" stop-color="#d6fbef" stop-opacity=".87"/><stop offset=".6" stop-color="#d3faee" stop-opacity=".94"/><stop offset=".68" stop-color="#d2faed" stop-opacity=".99"/><stop offset=".77" stop-color="#d1faed"/></linearGradient><linearGradient id="b"><stop offset="0" stop-color="#9ff5d9"/><stop offset="1" stop-color="#ebfdf7"/></linearGradient><linearGradient id="c" gradientUnits="userSpaceOnUse" x1="144.5369" x2="151.0269" xlink:href="#b" y1="111.835" y2="115.9149"/><linearGradient id="d" gradientTransform="matrix(-1 0 0 1 -8307.4004 27.1102)" gradientUnits="userSpaceOnUse" x1="-8443.7744" x2="-8437.2842" xlink:href="#b" y1="84.81" y2="88.88"/><linearGradient id="e" gradientUnits="userSpaceOnUse" x1="132.5522" x2="137.2422" xlink:href="#b" y1="103.9571" y2="107.487"/><linearGradient id="f" gradientTransform="matrix(-1 0 0 1 -8374.7998 27.1102)" gradientUnits="userSpaceOnUse" x1="-8522.9854" x2="-8518.2656" xlink:href="#b" y1="76.9201" y2="80.4701"/><linearGradient id="g" gradientTransform="matrix(1 0 0 -1 0 647.8898)" gradientUnits="userSpaceOnUse" x1="267.6517" x2="230.1417" y1="481.545" y2="527.8749"><stop offset="0" stop-color="#02e49b"/><stop offset=".88" stop-color="#d1faed"/></linearGradient><linearGradient id="h" gradientTransform="matrix(1 0 0 -1 0 647.8898)" gradientUnits="userSpaceOnUse" x1="186.4592" x2="117.5891" y1="431.7465" y2="392.1465"><stop offset="0" stop-color="#02e49b"/><stop offset=".77" stop-color="#ebfdf7"/></linearGradient><linearGradient id="i" gradientTransform="matrix(1 0 0 -1 0 647.8898)" gradientUnits="userSpaceOnUse" x1="281.4637" x2="280.9737" y1="314.3895" y2="382.3395"><stop offset=".22" stop-color="#53edbb"/><stop offset="1" stop-color="#d1faed"/></linearGradient><linearGradient id="j" gradientTransform="matrix(1 0 0 -1 0 647.8898)" gradientUnits="userSpaceOnUse" x1="242.8203" x2="201.6303" y1="470.3439" y2="437.894"><stop offset=".31" stop-color="#02e49b"/><stop offset=".74" stop-color="#53edbb"/></linearGradient><linearGradient id="k"><stop offset="0" stop-color="#02e49b"/><stop offset="1" stop-color="#02e49b" stop-opacity=".38"/></linearGradient><linearGradient id="l" gradientTransform="matrix(1 0 0 -1 0 647.8898)" gradientUnits="userSpaceOnUse" x1="134" x2="144.03" xlink:href="#k" y1="405.2398" y2="405.2398"/><linearGradient id="m" gradientTransform="matrix(1 0 0 -1 0 647.8898)" gradientUnits="userSpaceOnUse" x1="124.42" x2="131.92" xlink:href="#k" y1="397.3398" y2="397.3398"/><linearGradient id="n" gradientTransform="matrix(1 0 0 -1 0 647.8898)" gradientUnits="userSpaceOnUse" x1="132.87" x2="136.95" xlink:href="#k" y1="397.4898" y2="397.4898"/><linearGradient id="o" gradientTransform="matrix(1 0 0 -1 0 647.8898)" gradientUnits="userSpaceOnUse" x1="191.3555" x2="264.3655" y1="427.0852" y2="383.9452"><stop offset=".12" stop-color="#53edbb"/><stop offset=".25" stop-color="#78f1ca"/><stop offset=".43" stop-color="#a8f6dd"/><stop offset=".6" stop-color="#cefaec"/><stop offset=".75" stop-color="#e9fdf6"/><stop offset=".89" stop-color="#f9fefd"/><stop offset="1" stop-color="#fff"/></linearGradient><linearGradient id="p" gradientTransform="matrix(1 0 0 -1 0 647.8898)" gradientUnits="userSpaceOnUse" x1="184.55" x2="184.55" xlink:href="#b" y1="420.7698" y2="402.5298"/><linearGradient id="q" gradientTransform="matrix(1 0 0 -1 0 647.8898)" gradientUnits="userSpaceOnUse" x1="178.45" x2="178.45" xlink:href="#b" y1="447.4598" y2="412.5998"/><linearGradient id="r" gradientTransform="matrix(1 0 0 -1 0 647.8898)" gradientUnits="userSpaceOnUse" x1="182.777" x2="203.277" xlink:href="#k" y1="428.6688" y2="421.1188"/><linearGradient id="s" gradientTransform="matrix(1 0 0 -1 0 647.8898)" gradientUnits="userSpaceOnUse" x1="203.1533" x2="181.3333" xlink:href="#k" y1="411.7771" y2="423.2871"/><linearGradient id="t" gradientTransform="matrix(1 0 0 -1 0 647.8898)" gradientUnits="userSpaceOnUse" x1="201.05" x2="201.05" xlink:href="#b" y1="436.0998" y2="411.3598"/><linearGradient id="u"><stop offset="0" stop-color="#53edbb"/><stop offset="1" stop-color="#d1faed"/></linearGradient><linearGradient id="v" gradientTransform="matrix(1 0 0 -1 0 647.8898)" gradientUnits="userSpaceOnUse" x1="257.6577" x2="267.8177" xlink:href="#u" y1="387.7435" y2="380.0935"/><linearGradient id="w" gradientTransform="matrix(1 0 0 -1 0 647.8898)" gradientUnits="userSpaceOnUse" x1="307.1578" x2="295.0878" xlink:href="#u" y1="388.6356" y2="384.1156"/><linearGradient id="x" gradientTransform="matrix(1 0 0 -1 0 647.8898)" gradientUnits="userSpaceOnUse" x1="282.55" x2="282.55" xlink:href="#u" y1="400.6698" y2="385.2498"/><linearGradient id="y" gradientUnits="userSpaceOnUse" x1="282.2" x2="282.2" xlink:href="#u" y1="301.36" y2="285.46"/><linearGradient id="z" gradientTransform="matrix(1 0 0 -1 0 647.8898)" gradientUnits="userSpaceOnUse" x1="257.6102" x2="271.7502" xlink:href="#u" y1="360.1494" y2="368.6394"/><linearGradient id="A" gradientTransform="matrix(1 0 0 -1 0 647.8898)" gradientUnits="userSpaceOnUse" x1="307.236" x2="295.056" xlink:href="#u" y1="360.0291" y2="367.8791"/><linearGradient id="B" gradientTransform="matrix(1 0 0 -1 0 647.8898)" gradientUnits="userSpaceOnUse" x1="99.3868" x2="189.1168" y1="244.7293" y2="186.7493"><stop offset="0" stop-color="#ebfdf7" stop-opacity=".18"/><stop offset=".15" stop-color="#e3fcf4" stop-opacity=".42"/><stop offset=".3" stop-color="#ddfbf2" stop-opacity=".63"/><stop offset=".45" stop-color="#d8fbf0" stop-opacity=".79"/><stop offset=".57" stop-color="#d4faee" stop-opacity=".9"/><stop offset=".69" stop-color="#d2faed" stop-opacity=".97"/><stop offset=".77" stop-color="#d1faed"/></linearGradient><linearGradient id="C" gradientTransform="matrix(1 0 0 -1 0 647.8898)" gradientUnits="userSpaceOnUse" x1="235.0152" x2="175.3452" y1="239.069" y2="201.409"><stop offset="0" stop-color="#02e49b"/><stop offset=".88" stop-color="#d1faed"/><stop offset="1" stop-color="#ebfdf7"/></linearGradient><linearGradient id="D"><stop offset="0" stop-color="#02e49b" stop-opacity="0"/><stop offset="1" stop-color="#02e49b"/></linearGradient><linearGradient id="E" gradientUnits="userSpaceOnUse" x1="174.15" x2="174.15" xlink:href="#D" y1="430.9" y2="440.37"/><linearGradient id="F" gradientUnits="userSpaceOnUse" x1="155.7" x2="155.7" xlink:href="#D" y1="435.78" y2="457.93"/><linearGradient id="G" gradientUnits="userSpaceOnUse" x1="181.7009" x2="181.7009" xlink:href="#D" y1="445.89" y2="468.03"/><linearGradient id="H" gradientTransform="matrix(1 0 0 -1 0 647.8898)" gradientUnits="userSpaceOnUse" x1="317.5541" x2="240.7141" y1="291.2794" y2="237.8994"><stop offset="0" stop-color="#53edbb"/><stop offset=".1" stop-color="#57edbd" stop-opacity=".97"/><stop offset=".23" stop-color="#63efc1" stop-opacity=".9"/><stop offset=".38" stop-color="#76f1c9" stop-opacity=".77"/><stop offset=".55" stop-color="#91f3d4" stop-opacity=".59"/><stop offset=".74" stop-color="#b3f7e1" stop-opacity=".37"/><stop offset=".88" stop-color="#d1faed" stop-opacity=".18"/></linearGradient><path d="m-20-23.5h416v706h-416z" fill="#f9fafa"/><path d="m240.5 137.2c.82-.52 1.31-1.43 1.3-2.4l11.9-27c-.03-.99-.56-1.89-1.4-2.4l-40.9-23.5c-.84-.6-1.96-.6-2.8 0l-31.1 18.5c-.87.48-1.41 1.4-1.4 2.4l-.5 32.9c-.01 1 .53 1.92 1.4 2.4l39.6 23.4" fill="url(#a)"/><path d="m120.9 70.1-31.1 18.6c-.84.46-1.38 1.34-1.4 2.3v33.8c.03.99.56 1.89 1.4 2.4l29.2 16.8c.87.5 1.93.5 2.8 0l31-18.5c.87-.48 1.41-1.4 1.4-2.4v-33.4c.01-1-.53-1.92-1.4-2.4l-29.1-17.2c-.87-.5-1.93-.5-2.8 0z" fill="#02e49b"/><path d="m102.5 110.3-6.7 4c-.21.09-.36.28-.4.5v7.8c.04.22.19.41.4.5l6.7 3.9h.6l6.7-3.9c.2-.2.4-.4.4-.6v-7.7c.02-.21-.1-.41-.3-.5l-6.8-4z" fill="#d9dbdc"/><path d="m139.7 110.3-6.7 4c-.21.09-.36.28-.4.5v7.8c.04.22.19.41.4.5l6.7 3.9h.6l6.7-3.9c.2-.2.4-.4.4-.6v-7.7c.02-.21-.1-.41-.3-.5l-6.8-4z" fill="#d9dbdc"/><path d="m121.5 89.7-6.7 4c-.2.09-.32.29-.3.5v7.8c-.01.24.1.46.3.6l6.7 3.9h.7l6.7-4c.21-.12.33-.36.3-.6v-7.6c.03-.24-.09-.48-.3-.6l-6.7-4c-.22-.09-.48-.09-.7 0z" fill="#d9dbdc"/><path d="m121 120.4-6.7 3.9c-.2.14-.31.36-.3.6v7.8c-.02.21.1.41.3.5l6.7 3.9h.7l6.7-4c.2-.09.32-.29.3-.5v-7.7c.01-.24-.1-.46-.3-.6l-6.7-3.9c-.22-.09-.48-.09-.7 0z" fill="#d9dbdc"/><path d="m102.1 112.1h-.2v2.9h-.3l-1.1-.7c-.11 0-.2-.09-.2-.2v-2.8c.01-.24-.1-.46-.3-.6l-1.1-.6c-1.09-.6-1.74-1.76-1.7-3 0-1.27 1.03-2.3 2.3-2.3.42.01.83.11 1.2.3l1.2.7.5.3h.1l6.4-3.1c.1-.1.3 0 .4.1v12.2c0 .17-.13.3-.3.3h-.1z" fill="#2b393f"/><ellipse cx="121.4" cy="115" fill="#2b393f" rx="4.6" ry="4"/><ellipse cx="121.3" cy="129.7" fill="#53edbb" rx="4.5" ry="4"/><ellipse cx="121.3" cy="123.7" fill="#fff" rx="4.5" ry="4"/><path d="m127.5 99.9-11.2-6.4c-.2-.09-.32-.29-.3-.5v-10.5c0-.17.13-.3.3-.3h.2l11.1 6.4c.2.09.32.29.3.5v10.5c0 .17-.13.3-.3.3z" fill="#fff"/><path d="m125.9 97.5-8.1-4.6c-.12-.14-.19-.32-.2-.5v-7.6c0-.2.1-.3.2-.3h.2l8.1 4.7c.2.09.32.29.3.5v7.6c-.05.14-.16.25-.3.3z" fill="#2b393f"/><path d="m125 91.2-3.2-1.8c0-.1-.1-.1-.1-.2v-.7h.2l3.2 1.9v.7c.1.1 0 .1 0 .2z" fill="#02e49b"/><path d="m120.2 93-1.3-.8c-.06 0-.1-.04-.1-.1v-.7c0-.1 0-.1.1-.1l1.3.7c.1.1.1.1.1.2v.7z" fill="#02e49b"/><path d="m121 89-2.1-1.3c-.06 0-.1-.04-.1-.1v-.8h.1l2.1 1.2c.1.1.1.1.1.2v.7z" fill="#02e49b"/><path d="m122 91.8-3.1-1.8c-.1-.1-.1-.1-.1-.2v-.7h.1l3.1 1.8c.1 0 .1.1.1.2v.7z" fill="#02e49b"/><path d="m117.6 95.2 1.1-.7-.7-1.2-3.3 1.9c-.06 0-.1.05-.1.1s.04.1.1.1l1.6.9c0 .1.1.2 0 .2l-2.4 1.5.8 1.1 4.4-2.5c.1 0 .1-.1.1-.2h-.1l-1.5-.9c-.08-.07-.09-.2-.02-.28z" fill="#fff"/><ellipse cx="114.3" cy="98.6" fill="#d1faed" rx=".7" ry=".8"/><path d="m122.2 95.9.7 1.2-3.2 1.9-.6-1.3z" fill="#fff"/><ellipse cx="119.4" cy="98.3" fill="#9ff5d9" rx=".7" ry=".8"/><path d="m121.6 98.7 1.1.6c.07.08.2.09.28.02l.02-.02 2.8-1.6.7 1.3-3.3 1.8-.2.2h-.3l-1.1-.6c-.07-.08-.2-.09-.28-.02-.01.01-.01.01-.02.02l-2.3 1.3-.6-1.3 3-1.7z" fill="#fff"/><ellipse cx="118.6" cy="101.1" fill="#9ff5d9" rx=".7" ry=".8"/><path d="m120.6 81.6h1.5l-.1 3.9-1.4-.1z" fill="#fff"/><ellipse cx="121.4" cy="81.6" fill="#9ff5d9" rx=".7" ry=".8"/><path d="m127.5 85.2v-2.2h-1.4v1.2h-.2l-2.3-1.2h-.2v4.1h1.4v-1.6h.2l1.1.6 1.2.8h.2z" fill="#fff"/><ellipse cx="126.8" cy="83.1" fill="#53edbb" rx=".7" ry=".8"/><path d="m105.6 101 1-.4h.3l3.7 2.1h.2v-5c0-.1-.1-.2-.2-.3l-5.7-3.3h-.2v5c0 .11.09.2.2.2l.4.3c.1 0 .1.1.1.2v1z" fill="#00bd9b"/><path d="m108.3 98.2-2.6-1.5v-.9h.1l2.5 1.5h.1v.9z" fill="#fff"/><path d="m109.4 98.9-.6-.4h-.1v-.8h.1l.7.3v.8h-.1z" fill="#fff"/><path d="m107.4 99.2-1.7-1v-.9h.1l1.7 1v.9z" fill="#fff"/><path d="m97.4 100.7 4.1 2.3h.2v-3.7l-.2-.2-4-2.3h-.2v3.6c0 .2 0 .3.1.3z" fill="#d1faed"/><path d="m98.9 98.8v1.8c0 .06.04.1.1.1l1-.6-1-1.2z" fill="#02e49b"/><path d="m150 114.6-8.6-8.7-3.7 5.6 11.2 5.1z" fill="url(#c)" opacity=".68"/><path d="m130.8 114.6 8.7-8.6 3.7 5.6-11.2 5.1z" fill="url(#d)" opacity=".68"/><path d="m130.9 106.5-.1-1.6 8.7.5-2.4 4.8z" fill="url(#e)" opacity=".68"/><path d="m149.8 106.6.2-1.6-8.8.5 2.4 4.8z" fill="url(#f)" opacity=".68"/><circle cx="140.4" cy="110.4" fill="#2b393f" r="7"/><path d="m149 116.6.9-.5.2-.2v-1.2c0-.1-.1-.1-.2-.1l-1 .6c-.1 0-.1.1-.1.2v1.1c0 .1 0 .2.1.2z" fill="#00bd9b"/><path d="m131.9 116.6-1-.5c-.07-.08-.11-.19-.1-.3v-1.1c0-.1 0-.1.1-.1h.1l1 .6c.06.05.09.12.1.2v1.3c-.2 0-.2 0-.2-.1z" fill="#00bd9b"/><path d="m149 107 .9-.5.2-.2v-1.2h-.2l-1 .6c-.1 0-.1.1-.1.2v1.1c0 .1 0 .2.1.2z" fill="#00bd9b"/><path d="m131.9 107-1-.5c-.06-.05-.09-.12-.1-.2v-1.2h.2l1 .6v1.5z" fill="#00bd9b"/><path d="m137.6 108.5v4.1l2.7.9v-4.1l2.8-1.1-2.6-.9z" fill="#02e49b"/><path d="m140.5 109.5v2.2l2.7 1-.1-4.2z" fill="#02e49b"/><path d="m247.5 104.2-29.7 17.2c-.82.49-1.34 1.35-1.4 2.3v39.5c.03.99.56 1.89 1.4 2.4l29.2 16.9c.87.5 1.93.5 2.8 0l31-18.6c.84-.46 1.38-1.34 1.4-2.3v-37.4c.01-1-.53-1.92-1.4-2.4l-30.5-17.6c-.88-.46-1.92-.46-2.8 0z" fill="url(#g)"/><path d="m154.8 197.9-41.3 22.9c-.87.48-1.41 1.4-1.4 2.4v33.7c.03.99.56 1.89 1.4 2.4l29.2 16.8c.87.5 1.93.5 2.8 0l41.2-22.8c.84-.51 1.37-1.41 1.4-2.4v-33.4c.01-.97-.48-1.88-1.3-2.4l-29.2-17.2c-.87-.5-1.93-.5-2.8 0z" fill="url(#h)" opacity=".68"/><path d="m279.9 274.8-29.2 13.9c-.82.52-1.31 1.43-1.3 2.4v39.4c-.01.97.48 1.88 1.3 2.4l29.2 16.9c.87.5 1.93.5 2.8 0l29.2-17.2c.82-.52 1.31-1.43 1.3-2.4v-39.1c.01-1-.53-1.92-1.4-2.4l-29.1-13.9c-.88-.46-1.92-.46-2.8 0z" fill="url(#i)" opacity=".38"/><path d="m216.6 161.3-33.1 19.3c-.84.46-1.38 1.34-1.4 2.3l2.1 33.1c-.01 1 .53 1.92 1.4 2.4l29.1 16.8c.87.5 1.93.5 2.8 0l31.1-18.5c.82-.52 1.31-1.43 1.3-2.4v-33.4c.01-1-.53-1.92-1.4-2.4l-29.1-17.2c-.88-.46-1.92-.46-2.8 0z" fill="url(#j)" opacity=".38"/><path d="m119.6 217.3-29.2 17.2c-.87.48-1.41 1.4-1.4 2.4v33.7c.03.99.56 1.89 1.4 2.4l29.2 16.9c.87.5 1.93.5 2.8 0l29.1-17.2c.87-.48 1.41-1.4 1.4-2.4v-33.4c.01-1-.53-1.92-1.4-2.4l-29.2-17.2c-.84-.46-1.86-.46-2.7 0z" fill="#02e49b"/><path d="m148.8 269.1-29.3-16.7v-24.9c-.01-.88.7-1.61 1.59-1.61.29 0 .57.07.81.21l25.4 14.5c.93.54 1.5 1.53 1.5 2.6z" fill="#fff"/><path d="m147 266-25.8-14.8v-23.4l25.8 14.8z" fill="#2b393f"/><path d="m148.8 269.1-29.3-16.7-16.8 9.8c-.61.38-.79 1.19-.41 1.79.1.16.24.3.41.41l25.9 14.8c.98.52 2.16.49 3.1-.1z" fill="#fff"/><path d="m118.5 232.8h.6l-2.2 3.2-.4.2-2.2.6c-.2 0-.3.2-.3.4v17.3l.2.2h1.2v.6h-1.9c-.11 0-.2-.09-.2-.2v-8.5l-.2-.2h-1.3l-.5 7.9c-.1.1 0 .2.1.2h1.1v.6h-1.6c-.11 0-.2-.09-.2-.2l.7-11.3c-.01-.28-.08-.55-.2-.8l-1.1-2.1c-.16-.27-.23-.59-.2-.9l.6-3.6c.07-.2.17-.3.3-.3h1s-.8-2.2.3-2.3.9-.2.6 2.2h1l2.3-.3.5-.2z" fill="#2b393f"/><path d="m129.6 238-5-2.8-.2-.3v-1.1c0-.2.2-.2.3-.2l5 2.9c.1 0 .1.2.1.3v1.1c0 .1-.1.2-.2.1z" fill="#02e49b"/><path d="m132.9 240-2.1-1.3c-.1 0-.1-.1-.1-.2v-1.2c0-.1.1-.2.2-.1l2.1 1.2.2.3v1.1c0 .2-.2.2-.3.2z" fill="#00bd9b"/><path d="m143.8 246.2-9.6-5.6c-.1 0-.2-.1-.2-.3v-1.1c0-.1.1-.2.2-.1l9.7 5.6c.1 0 .1.1.1.2v1.2c0 .1-.1.2-.2.1z" fill="url(#l)" opacity=".38"/><path d="m126.7 239.6-2.1-1.3c-.11 0-.2-.09-.2-.2v-1.2c.04-.1.15-.16.25-.12.02.01.03.01.05.02l2.1 1.2c.07.08.11.19.1.3v1.1c0 .2-.1.2-.2.2z" fill="#02e49b"/><path d="m132.9 243.1-5-2.8c-.07-.08-.11-.19-.1-.3v-1.2c0-.1.1-.1.2-.1l5 2.9c.1 0 .2.2.2.3v1.1c-.04.1-.15.16-.25.12-.02 0-.04-.01-.05-.02z" fill="#02e49b"/><path d="m125.4 245.9-.8-.5-.2-.3v-1.1l.3-.2.8.6.2.2v1.2c-.04.1-.15.16-.25.12-.02 0-.04-.01-.05-.02z" fill="#00bd9b"/><path d="m131.7 249.4-5-2.8-.2-.3v-1.2c.04-.1.15-.16.25-.12.02.01.03.01.05.02l5 2.9c.1 0 .1.1.1.3v1.1c0 .1-.1.2-.2.1z" fill="#02e49b"/><path d="m134.2 247.4-9.6-5.6c-.1 0-.2-.2-.2-.3v-1.1c.04-.1.15-.16.25-.12.02.01.03.01.05.02l9.6 5.5c.07.08.11.19.1.3v1.2c0 .1-.1.2-.2.1z" fill="#02e49b"/><path d="m131.9 253.6-7.5-4.5v-1.6l7.5 4.5z" fill="url(#m)" opacity=".38"/><path d="m132.9 248.4 4 2.4v1.6l-4-2.4" fill="url(#n)" opacity=".38"/><path d="m111.8 217.4-6 3.5c-.2.09-.32.29-.3.5v6.9c-.02.21.1.41.3.5l6 3.4c.19.11.41.11.6 0l5.9-3.5c.2-.09.32-.29.3-.5v-6.8c.02-.21-.1-.41-.3-.5l-5.9-3.5z" fill="#9ff5d9"/><path d="m110.3 227.3 1.6.9.2.3v1.4l-2.1-1.2v-1.3c.04-.1.15-.16.25-.12.02 0 .04.01.05.02z" fill="#02e49b"/><path d="m111.8 223.3-1.6-.9c-.13-.09-.2-.24-.2-.4v-1.8l.3-.2 1.6 1c.1 0 .2.2.2.3v1.8c0 .2-.2.3-.3.2z" fill="#02e49b"/><path d="m115.6 224.8-1.6-1c-.1 0-.2-.2-.2-.3v-1.8c0-.2.2-.3.3-.2l1.6.9c.13.09.2.24.2.4v1.8z" fill="#02e49b"/><path d="m112.9 230.2 4.1-2.3c.1-.1.1-.3 0-.3l-4.7-2.8h-.4l-4.7 2.8c-.1 0-.1.2 0 .3l4.1 2.3.6.4h.4zm-1-.7-2.8-1.6c-.2-.1-.2-.3 0-.3l2.8-1.7h.4l2.8 1.7c.1 0 .1.2 0 .3l-2.8 1.6z" fill="#fff"/><path d="m112.8 227.5-1.6-.9-.2-.3v-1.9c.04-.1.15-.16.25-.12.02.01.03.01.05.02l1.6.9.2.3v1.9c0 .1-.1.2-.3.1z" fill="#02e49b"/><path d="m128.3 267.5-5.9 3.5c-.2.09-.32.29-.3.5v6.9c-.02.21.1.41.3.5l5.9 3.4h.6l6-3.5c.12-.14.19-.32.2-.5v-6.8c.02-.21-.1-.41-.3-.5l-6-3.5c-.16-.07-.34-.07-.5 0z" fill="#9ff5d9"/><path d="m127.3 276.1 1.4-2.9c0-.1.1-.2.2-.1l.8.4c0 .1.1.2 0 .3l-1.3 2.9c0 .1-.2.1-.3 0l-.7-.4c-.1 0-.1-.1-.1-.2z" fill="#fff"/><path d="m124.7 273.5.6 2.2c0 .1.1.1.2.1l.7-.2c.1 0 .1-.1.1-.2l-.5-1.7c0-.1 0-.2.1-.2l1.7-.6c.1 0 .1-.1.1-.2l-.2-.7h-.3l-2.1.8h-.5c-.06.05-.09.12-.1.2z" fill="#02e49b"/><path d="m132.2 277.1-2.2.7c-.1.1-.2 0-.2-.1l-.2-.6c-.1-.1 0-.2.1-.3l1.6-.5c.1 0 .2-.1.1-.2l-.5-1.7.2-.2.6-.2c.1-.1.2 0 .2.1l.7 2.2v.4c0 .1 0 .2-.1.2z" fill="#02e49b"/><path d="m103.6 282.9-6 3.6c-.15.13-.26.3-.3.5v6.9c0 .2.2.3.3.4l6 3.5h.6l5.9-3.5c.2-.09.32-.29.3-.5v-6.8c-.01-.18-.08-.36-.2-.5l-6-3.6z" fill="#d1faed"/><path d="m116.3 276.5c.11 0 .2-.09.2-.2l2.3-5.8 1.2.4-1.6 5.7h-1.4v.7h1.9l2.2-6.2 3.3.9 2.7-4.9c.35-.68.56-1.43.6-2.2.1-1.9-.9-2.4-.9-2.4v-.9c.5-1.3.3-1.8.1-2-.15-.17-.4-.18-.56-.04-.01.01-.02.02-.04.04-.6.49-.73 1.36-.3 2 .1.1.2.2.1.4v.9l-5 7-2.4-.5-2.5 6.4h-1.2v.4z" fill="#2b393f"/><path d="m119.3 268.5-1.6-1.8h-.2l-1.2.8c-.08.07-.09.2-.02.28l.02.02 1.8 2.2h2.8l.2-.2.7-1c.06 0 .1-.04.1-.1s-.04-.1-.1-.1h-2.2z" fill="#d9dbdc"/><path d="m117.7 266.8 1.5 1.9-1 1-1.7-2.1z" fill="#00af92"/><path d="m126 262.9.8-.4s1.1.5.9 2.7c-.09.66-.3 1.3-.6 1.9l-2.7 4.9-2.4-3.5z" fill="#02e49b"/><path d="m127.2 262.9s1.7-3.8-.7-4.1c0 0-.5.1 0 .6s.9 1.1 0 3.3" fill="#02e49b"/><path d="m130.7 262.4c-.7.63-1.04 1.57-.9 2.5.05.74.25 1.45.6 2.1l2.6 4.9h.1l3.2-.9c.06 0 .1.04.1.1l2.1 6.1h2v-.7h-1.4c-.06 0-.1-.04-.1-.1l-1.5-5.6 1-.3c.1-.1.1 0 .2 0l2.3 5.8h.1l1.4-.2v-.4h-1.1l-2.5-6.4h-.1l-2.3.4h-.1l-4.9-6.9-.2-.9c-.01-.14.02-.28.1-.4.34-.47.38-1.09.1-1.6-.3-.5-1.1-.2-1.1.4-.02.41.05.82.2 1.2v.9z" fill="#2b393f"/><path d="m133.2 265.2 2 1.4h2.4v.4h-2.7l-1-.3z" fill="#2b393f"/><path d="m138.4 263.3-1.6 2h-2.5l.8 1.2h2.9l1.9-2.4-1.3-.9z" fill="#d9dbdc"/><path d="m138.5 263.5-1.6 1.9 1 1 1.7-2.1z" fill="#2b393f"/><path d="m130.1 260.4c-.18-.46.04-.99.5-1.17.03-.01.06-.02.1-.03.52-.2 1.09.06 1.29.58 0 .01.01.02.01.02" fill="#02e49b"/><path d="m131.3 260h.2l1.3-.5-.1-.2-1.4.4" fill="#02e49b"/><g fill="#fff"><path d="m103.6 287.2h.6v2.34h-.6z"/><path d="m103.6 291.2h.6v2.34h-.6z"/><path d="m100.2 289.1h.6v2.48h-.6z"/><path d="m107 289.1h.6v2.48h-.6z"/><path d="m100.96 291.01h2.34v.6h-2.34z" transform="matrix(.866 -.5 .5 .866 -131.9703 90.0947)"/><path d="m101.95 286.64h2.63v.6h-2.63z" transform="matrix(.867 -.4983 .4983 .867 -129.245 89.6153)"/><path d="m105.17 286.08h.6v2.62h-.6z" transform="matrix(.5 -.866 .866 .5 -196.1526 235.0324)"/><path d="m101.79 292.04h.6v2.62h-.6z" transform="matrix(.5 -.866 .866 .5 -203.0079 235.0856)"/><path d="m104.14 293.07h2.62v.6h-2.62z" transform="matrix(.866 -.5 .5 .866 -132.5578 92.029)"/><path d="m105.33 290.16h.6v2.34h-.6z" transform="matrix(.5 -.866 .866 .5 -199.4846 237.1479)"/><path d="m101.8 288.25h.6v2.34h-.6z" transform="matrix(.5 -.866 .866 .5 -199.5984 233.131)"/><path d="m104.43 289.04h2.34v.6h-2.34z" transform="matrix(.866 -.5 .5 .866 -130.5212 91.563)"/></g><path d="m103.8 285.5-.7.4c-.1 0-.1 0-.1.1v.8h.1l.7.5h.1l.8-.5v-.8l-.8-.4c0-.2 0-.2-.1-.1z" fill="#02e49b"/><path d="m100.4 287.4-.7.4h-.1v.9h.1l.7.4h.1l.8-.4v-.9l-.8-.4z" fill="#02e49b"/><path d="m100.4 291.4-.8.4v.9l.8.4h.1l.7-.4h.1v-.9h-.1l-.7-.4z" fill="#02e49b"/><path d="m103.8 289.4-.7.4h-.1v.9h.1l.7.4h.1l.8-.4v-.9l-.8-.4z" fill="#02e49b"/><path d="m107.3 287.4-.8.4v.9l.8.4h.1l.7-.4h.1v-.9h-.1l-.7-.4z" fill="#02e49b"/><path d="m103.8 293.4-.7.4h-.1v.9h.1l.7.4h.1l.8-.4v-.9l-.8-.4z" fill="#02e49b"/><path d="m107.3 291.4-.8.4v.9l.8.4h.1l.7-.4h.1v-.9h-.1l-.7-.4z" fill="#02e49b"/><path d="m103 265.7v-.7s-1-1.4.2-1.8 1.1 0 .4 1.8v.7c.49-.06.94.3 1 .79v.01l1 2.8c.08.18.22.32.4.4l1.9 1.5v.6l-2.5-1.8-.2-.2-.7-.8.5 15.1h1.2v.7h-1.6c-.11 0-.2-.09-.2-.2l-.3-9c0-.11-.09-.2-.2-.2h-.5c-.1.1-.2.1-.2.3l.3 8.9c0 .11-.09.2-.2.2h-1.3v-.6h.5c.2 0 .2-.1.2-.3l-.4-11.6c.02-.21-.1-.41-.3-.5l-1.2-.8c-.15-.12-.19-.33-.1-.5.2-1 1.4-4.9 2.3-4.8z" fill="#2b393f"/><path d="m120.7 275.6-6 3.6c-.13.09-.2.24-.2.4v6.9c.01.18.08.36.2.5l6 3.5c.19.11.41.11.6 0l5.9-3.5c.2-.09.32-.29.3-.5v-6.9c0-.16-.07-.31-.2-.4l-6-3.6c-.19-.11-.41-.11-.6 0z" fill="#d1faed"/><path d="m124 281.2c-1.27-.04-2.43-.72-3.1-1.8h-.4c-.69.67-1.66.96-2.6.8h-.2c-.06 1.17 0 2.34.2 3.5.32 1.34 1.24 2.44 2.5 3h.3c.61-.11 1.19-.35 1.7-.7 0 0 2-1.1 1.7-4.7z" fill="#fff"/><path d="m123.1 281.8c-.98-.13-1.86-.67-2.4-1.5 0-.1-.1-.1-.2 0-.52.53-1.26.79-2 .7-.06 0-.1.04-.1.1-.06.87.01 1.75.2 2.6.21.98.88 1.8 1.8 2.2h.2c.46-.1.9-.27 1.3-.5 0 0 1.5-.9 1.3-3.6z" fill="#02e49b"/><path d="m102.3 263.9c-.19-.52.08-1.11.6-1.3s1.11.08 1.3.6" fill="#02e49b"/><path d="m103.5 263.4h.2l1.3-.4-.2-.3-1.3.4" fill="#02e49b"/><path d="m110.4 267.5-1.8 2.1 1.2 1.4 2-2.5z" fill="#d9dbdc"/><path d="m107 270.9 2.7.1-.1-1.4h-3.5z" fill="#d9dbdc"/><path d="m110.4 267.7-1.6 1.9 1 1 1.7-2.1z" fill="#2b393f"/><path d="m89.1 244.9-6 3.5c-.2.09-.32.29-.3.5v6.9c-.02.21.1.41.3.5l6 3.5h.5l6-3.5c.2-.09.32-.29.3-.5v-6.9c.02-.21-.1-.41-.3-.5l-6-3.5z" fill="#9ff5d9"/><path d="m87.3 248.4v5.8c0 .1.1.2.2.3l3.8 2.1c.11 0 .2-.09.2-.2v-5.7c0-.1 0-.2-.1-.2l-3.8-2.2c-.2-.1-.3 0-.3.1z" fill="#02e49b"/><path d="m89.8 251.5-1.8-1.1v-.5l1.8 1v.5z" fill="#fff"/><path d="m90.4 254.9-2.4-1.4v-.5l2.4 1.4z" fill="#fff"/><path d="m89.8 253.5-1.8-1v-.5l1.8 1.1v.5z" fill="#fff"/><path d="m90.4 251.8-.4-.2v-.5l.4.2z" fill="#fff"/><path d="m89.3 252.2-1.3-.7v-.5l1.3.7z" fill="#fff"/><path d="m90.5 249.7-.6-.4c.1-.1.1-.2 0-.4s-.4-.4-.6-.3l-.2.3-.6-.4v.8l2 1.1h.1v-.8z" fill="#fff"/><path d="m92.1 249.2v1.9l1.3.7h.1v-1.8h-.1l-1.2-.7z" fill="#02e49b"/><path d="m85.3 253v2h.1l1.3.7v-1.9l-1.3-.7z" fill="#02e49b"/><path d="m214.6 198.7-28.9 17.8c-.87.48-1.41 1.4-1.4 2.4l-1.1 32.6c-.01 1 .53 1.92 1.4 2.4l66.6 39.7c.87.5 1.93.5 2.8 0l29.2-17.4c.87-.48 1.41-1.4 1.4-2.4v-33.4c.01-1-.53-1.92-1.4-2.4l-65.9-39.3c-.84-.46-1.86-.46-2.7 0z" fill="url(#o)" opacity=".89"/><path d="m186.7 69-31.1 18.5c-.82.52-1.31 1.43-1.3 2.4v33.7c-.01 1 .53 1.92 1.4 2.4l29.2 16.9c.83.5 1.87.5 2.7 0l31.9-18.1c.87-.48 1.41-1.4 1.4-2.4v-33.4c.01-1-.53-1.92-1.4-2.4l-29.9-17.6c-.9-.5-2-.5-2.9 0z" fill="#9ff5d9"/><path d="m212.8 90.5 3.2 1.8c.35.22.57.59.6 1v4.5c-.04.33-.33.57-.66.53-.05-.01-.09-.02-.14-.03l-3.1-1.7c-.36-.25-.58-.66-.6-1.1v-4.6c-.1-.4.4-.7.7-.4z" fill="#fff"/><path d="m192.5 79.5 6.6 3.8c.74.49 1.19 1.31 1.2 2.2v9.5c-.05.66-.63 1.16-1.29 1.11-.14-.01-.28-.05-.41-.11l-6.4-3.7c-.8-.44-1.3-1.28-1.3-2.2v-9.5c.02-.66.57-1.19 1.23-1.17.13 0 .25.03.37.07z" fill="#fff"/><path d="m183.3 94.7-5.9 3.6c-.2.09-.32.29-.3.5v6.9c0 .2.1.3.3.4l5.9 3.5c.19.11.41.11.6 0l6-3.5c.2-.09.32-.29.3-.5v-6.8c.02-.21-.1-.41-.3-.5l-6-3.6c-.19-.11-.41-.11-.6 0z" fill="#53edbb"/><path d="m178.3 97.8-6 3.6c-.13.09-.2.24-.2.4v6.9c-.02.21.1.41.3.5l5.9 3.5h.6l6-3.5c.12-.14.19-.32.2-.5v-6.9c0-.2-.2-.3-.3-.4l-6-3.6z" fill="#53edbb"/><path d="m171.8 101.7-6 3.5c-.2.09-.32.29-.3.5v6.9c-.02.21.1.41.3.5l6 3.5c.19.11.41.11.6 0l5.9-3.6c.2-.1.3-.2.3-.4v-6.9c.02-.21-.1-.41-.3-.5l-5.9-3.5c-.19-.11-.41-.11-.6 0z" fill="#53edbb"/><path d="m203.3 81.4 3.1 1.8c.41.21.65.64.6 1.1v4.4c.06.27-.11.54-.38.6-.15.03-.3 0-.42-.1l-3.1-1.7c-.41-.21-.65-.64-.6-1.1v-4.5c.04-.33.33-.57.66-.53.05 0 .1.01.14.03z" fill="#fff"/><path d="m205.2 90.9 4.2 2.4c.5.29.81.82.8 1.4v6c.01.39-.29.71-.67.73-.15.01-.3-.04-.43-.13l-4.1-2.3c-.5-.29-.81-.82-.8-1.4v-6c-.04-.38.24-.73.63-.77.13-.01.25.01.37.07z" fill="#fff"/><path d="m212.8 89.7 3.1 1.8c.43.2.7.63.7 1.1v4.5c0 .4-.5.6-.9.4l-3-1.7c-.4-.18-.67-.56-.7-1v-4.6c-.06-.27.11-.54.38-.6.15-.03.3.01.42.1z" fill="#fff"/><path d="m207.8 93.4 1.5 3.2c.19.39.51.71.9.9l2 .8c.3-.44.48-.96.5-1.5 0-.8-.5-1.9.4-2.5.25-.07.52.01.7.2.52.73.39 1.73-.3 2.3l.4.5c.49.68.8 1.47.9 2.3l.5 5.5c-.51.45-.71 1.15-.5 1.8l2.9 9.4h-2.4l1-.5-1.8-4.5-1.1-5.2-1 3.2c-.08.22-.12.46-.1.7l.4 6.7h-2.3l1.3-.8-.5-6c-.11-.19-.11-.41 0-.6l.8-3.3s-.6-4.2 0-6.4l-2.1-1.4c-.25-.15-.45-.35-.6-.6l-2.2-3.8z" fill="#2b393f"/><path d="m187.2 89.8s.9-.8.6-1.5c-.08-.38-.44-.63-.82-.55-.2.04-.38.17-.48.35-.31.51-.41 1.12-.3 1.7-1.34 1.86-2.2 4.03-2.5 6.3 0 0-.4 2 .8 5.9l1.8 5.4h1.6l-1-.9s-1.6-5-1.6-7.4c0-.33.26-.6.59-.61.04 0 .07 0 .11.01h.4c.29.05.5.3.5.6v5.3l1.4 1-.5-1.3.5-5c.01-.11-.03-.22-.1-.3-.26-.79-.79-1.47-1.5-1.9-.24-.09-.37-.35-.3-.6l.3-3.4 2.5 1.6v-.7l-1.6-1.1c-.31-.14-.48-.47-.4-.8 0-.3.2-.4.4-.3l4.8 2.9v-.7l-5.3-3.3z" fill="#2b393f"/><path d="m248.9 142.6-31.1 18.5c-.82.52-1.31 1.43-1.3 2.4v33.3c.03.99.56 1.89 1.4 2.4l29 17.3c.94.5 2.06.5 3 0l31-18.5c.82-.52 1.31-1.43 1.3-2.4v-33.4c.01-1-.53-1.92-1.4-2.4l-29.1-17.2c-.88-.46-1.92-.46-2.8 0z" fill="#02e49b"/><path d="m244.8 196.1-17.6-3.3c4.8-7.6 15.6-13.6 29.3-16.5l6.7 9.4c-8.6 1.9-15.3 5.6-18.4 10.4z" fill="#fff"/><path d="m244.8 196.1v5.1l-17.6-2.9v-5.5" fill="#53edbb"/><path d="m244.8 201.2s8-11.5 18.4-12v-3.5s-13.2 2.5-18.4 10.4z" fill="#d9dbdc"/><path d="m272.1 193.7-3.8 2.3c-.1 0-.1.1-.1.3v4c-.01.11.03.22.1.3l3.6 2h.3l3.7-2.2.2-.3v-4l-.2-.3-3.5-2.1z" fill="#53edbb"/><path d="m272.1 189.3s-.7-1 .6-1.7c.34-.18.76-.1 1 .2.2.3.3.9-.8 1.5l-1 6.3h-3.8v4.8h-1.5v-.6h1.1l-.4-5 2-.2z" fill="#2b393f"/><path d="m261.1 192.4-3.6 2.2c-.07.08-.11.19-.1.3v3.9c-.01.11.03.22.1.3l3.4 1.9h.3l3.6-2.1.2-.3v-3.9c.01-.11-.03-.22-.1-.3l-3.4-2z" fill="#d1faed"/><path d="m261.1 188.2s-.7-1 .6-1.7c.34-.18.76-.1 1 .2.2.3.2.9-.8 1.5l-1 6h-3.6v4.7h-1.4v-.6h1l-.4-4.8 2-.2z" fill="#2b393f"/><path d="m267.9 196.3-3.8 2.2c-.07.08-.11.19-.1.3v4.1c-.01.11.03.22.1.3l3.6 2c.07.08.2.09.28.02.01-.01.01-.01.02-.02l3.7-2.2c.1-.1.2-.2.2-.3v-4c0-.1-.1-.3-.2-.3l-3.5-2.1z" fill="#9ff5d9"/><path d="m267.9 191.9s-.7-1 .6-1.7c.34-.18.76-.1 1 .2.2.3.3.9-.8 1.5l-1 6.2h-3.8v4.9h-1.5v-.7h1.1l-.4-4.9 2-.2z" fill="#2b393f"/><path d="m257.8 202.5-3.7 2.2-.2.3v4.1l.2.3 3.5 2h.4l3.7-2.3c.11 0 .2-.09.2-.2v-4.1c0-.11-.09-.2-.2-.2l-3.5-2.1z" fill="#53edbb"/><path d="m257.9 197.7c-.37-.48-.27-1.17.21-1.54.09-.07.19-.12.29-.16.34-.18.76-.1 1 .2.2.3.3.8-.7 1.5l-1 6h-3.7v4.7h-1.4v-.7h1l-.4-4.7 2-.2z" fill="#2b393f"/><path d="m283.9 199.5-3.8 2.2c-.07.08-.11.19-.1.3v4.1c-.01.11.03.22.1.3l3.6 2h.3l3.7-2.2.2-.3v-4.1c0-.11-.09-.2-.2-.2l-3.5-2.1z" fill="#53edbb"/><path d="m284.3 195.5s-.7-1 .6-1.8c.34-.15.74-.07 1 .2.2.4.3.9-.8 1.6l-1 6.2h-3.8v4.9h-1.4v-.7h1l-.4-4.9 2.1-.2z" fill="#d1faed"/><path d="m226.7 187.1v-22.3c-.03-1.04.41-2.03 1.2-2.7 4.1-3.8 19.7-14.9 59.5-13.6 1.34.05 2.4 1.16 2.4 2.5v19.2c0 1.1-.9 2-2 2-8.6-.4-43.1-.7-59.4 15.6-.39.39-1.03.38-1.41-.01-.18-.19-.29-.43-.29-.69z" fill="#9ff5d9"/><path d="m245 164.4v-.7c-.43-.25-.58-.8-.33-1.23.04-.06.08-.12.13-.17.17-.12.4-.16.6-.1.3.1.7.5.3 1.6s0 1.2.8 1.6c.4.25.69.64.8 1.1l.9 4.7v4.1h-.8v-4.1l-.6-1.8.4 7.9.6 9 .2.2h.8v.7h-1.4l-.2-.2-.9-11.1-.2-.2h-.5c-.11 0-.2.09-.2.2l.2 5.3h.1l.6 5.4-.2.2h-1.5v-.7h.6l.2-.2-.6-4.6-.2-5.5s-.2-6.8-.4-9.9l-2.9-1.7c-.1 0-.1-.2-.1-.3l.3-4.5h.6l-.3 3.9c0 .17.13.3.3.3z" fill="#2b393f"/><path d="m265.4 156.9v8.9l5.8 2.1v-9l6.2-2.3-5.7-2z" fill="#53edbb"/><path d="m271.6 159.2v4.8l5.8 2.1v-9.1z" fill="#53edbb"/><path d="m233.7 203.4-3.8 2.2c-.1 0-.2.2-.2.3v4c0 .1.1.3.2.3l3.5 2c.11.1.29.1.4 0l3.7-2.2c.1 0 .2-.2.2-.3v-4l-.2-.3-3.5-2z" fill="#fff"/><path d="m233.6 198.9s-.7-1 .6-1.7c.34-.18.76-.1 1 .2.3.4.3.9-.7 1.5l-1.1 6.3h-3.8v4.8h-1.4v-.6h1.1l-.4-4.9 2-.3z" fill="#2b393f"/><path d="m247.3 209.1-3.6 2.2c-.1 0-.2.1-.2.3v3.9l.2.2 3.4 2c.07.08.2.09.28.02l.02-.02 3.6-2.1.2-.3v-3.9l-.2-.3-3.4-2z" fill="#fff"/><path d="m247.3 204.9s-.7-1 .6-1.7c.31-.17.69-.08.9.2.3.3.3.8-.7 1.5l-1 6h-3.7v4.7h-1.3v-.7h1l-.4-4.7 2-.2z" fill="#2b393f"/><path d="m183.6 181-29.2 17.1c-.83.52-1.35 1.42-1.4 2.4v33.8c.03.99.56 1.89 1.4 2.4l29.2 16.8c.87.5 1.93.5 2.8 0l29.1-17.2c.87-.48 1.41-1.4 1.4-2.4v-33.4c-.01-.99-.54-1.9-1.4-2.4l-29.1-17.1c-.84-.6-1.96-.6-2.8 0z" fill="#53edbb"/><path d="m178.4 225.6 12.3 6.8v11l-6.1 3.5-6.2-3.5" fill="url(#p)" opacity=".68"/><path d="m185 178.2 3.5 2c.12.14.19.32.2.5v4c0 .2-.2.3-.4.2l-3.5-2c-.13-.09-.2-.24-.2-.4v-4c0-.3.2-.4.4-.3z" fill="#d1faed"/><path d="m164.1 205.3-3.8-2.2v-4.6h.1l3.8 2.2c.11 0 .2.09.2.2v4.4c-.1 0-.2 0-.3 0z" fill="#fff"/><path d="m206.8 234.1-22 12.6c-.15.12-.35.12-.5 0l-22-12.6c-.09-.15-.09-.35 0-.5l22-12.7h.5l22 12.7c.14.09.18.28.08.42-.02.03-.05.06-.08.08zm-17.4 14.7 25.6-14.8c.11 0 .2-.09.2-.2s-.09-.2-.2-.2l-30.2-17.4h-.5l-30.1 17.4c-.11 0-.2.09-.2.2s.09.2.2.2l25.5 14.8 4.8 2.6h.6z" fill="#d9dbdc"/><path d="m166.4 222.2 3.5 2c.2.09.32.29.3.5v4c0 .2-.2.3-.4.2l-3.5-2c-.16-.07-.28-.22-.3-.4v-4.1c.04-.16.21-.25.37-.21.01 0 .02.01.03.01z" fill="#d1faed"/><path d="m172.3 197.5 12.3 6.9v33.8l-8.2-4.9-4.1-2.6" fill="url(#q)" opacity=".68"/><path d="m190.2 233.3-11.4-6.6c-.22-.13-.37-.35-.4-.6v-13.2c0-.3.3-.4.6-.3l11.4 6.6c.21.12.33.36.3.6v13.2c.05.16-.04.33-.2.38-.1.03-.22 0-.3-.08z" fill="#2b393f"/><ellipse cx="181.4" cy="221.16" fill="#1ee7a6" rx="1.2" ry="1.3" transform="matrix(.866 -.5 .5 .866 -86.2798 120.329)"/><ellipse cx="187.57" cy="224.61" fill="#00bd9b" rx="1.2" ry="1.3" transform="matrix(.866 -.5 .5 .866 -87.1755 123.8751)"/><path d="m188.9 220.4-4.4-2.5-2.8 1.6 1.8 1 1-.6 2.7 1.5v1.2l.8.5.9-.5z" fill="url(#r)" opacity=".38"/><path d="m185.6 225.3-1.1.7-2.6-1.6v-1.1l-.9-.6-.8.6v2.1l4.3 2.6 2.8-1.7z" fill="url(#s)" opacity=".68"/><path d="m172.8 230.4 11.4 6.6c.23.11.39.34.4.6v9.3l-12.3-7.1v-9.1c-.05-.16.04-.33.2-.38.1-.03.22 0 .3.08z" fill="#2b393f"/><path d="m182.7 245.8c.52-.53.81-1.25.8-2v-4.2c0-.2-.1-.3-.2-.3l-6.7-3.8h-.3l-1.5.5h-.2l-2 3.9 3.5 2" fill="#9ff5d9"/><path d="m176.6 239.3-.7-.4.3-.8-.6-.3-.3.7-.8-.4-.3.6.8.5-.4.8.6.3.4-.8.7.4z" fill="#00bd9b"/><ellipse cx="181" cy="240.6" fill="#00bd9b" rx=".4" ry=".4"/><ellipse cx="180.3" cy="242.8" fill="#00bd9b" rx=".4" ry=".4"/><ellipse cx="179.6" cy="241.2" fill="#00bd9b" rx=".4" ry=".4"/><ellipse cx="181.7" cy="242.1" fill="#00bd9b" rx=".4" ry=".4"/><path d="m194.9 209.7 12.3 6.9v17.2l-8.1 4.8-4.2-1.1" fill="url(#t)" opacity=".68"/><path d="m191.6 214.3 3.5 2c.12.14.19.32.2.5v4c0 .2-.2.3-.4.2l-3.5-2c-.13-.09-.2-.24-.2-.4v-4.1c0-.2.2-.3.4-.2z" fill="#fff"/><path d="m195.4 236.3 3.6 2.1v.2l-2.1 1.1-1.9 1.2c-.1 0-.1-.1-.1-.2v-4.2c.1-.2.3-.3.5-.2z" fill="#fff"/><path d="m206.7 216.9-11.4-6.6c-.23-.17-.37-.42-.4-.7v-13.1c0-.3.3-.5.5-.3l11.5 6.6c.21.12.33.36.3.6v13.2c-.05.22-.26.35-.48.31 0-.01-.01-.01-.02-.01z" fill="#2b393f"/><path d="m204.9 209.7-8-2.1h-.1v-5.2c0-.1.1-.2.2-.1l8 2 .2.3v4.9c-.04.13-.17.21-.3.2z" fill="#9ff5d9"/><path d="m197.1 202.2 6.8 3.9c.07.08.11.19.1.3v5.1c0 .1-.1.2-.2.1l-6.8-3.9-.2-.3v-5.1c.04-.1.15-.16.25-.12.02 0 .04.01.05.02z" fill="#02e49b"/><path d="m202.3 207.4 1.7 1v1.1l-1.8-1v-1z" fill="#00bd9b"/><path d="m203.4 208.3.3.2v.4l-.3-.2h-.1v-.4z" fill="#fff"/><path d="m184.1 211.6-11.4-6.6c-.23-.11-.39-.34-.4-.6v-13.2c0-.3.3-.5.5-.3l11.4 6.6c.27.05.45.31.4.58v.02 13.2c-.05.22-.26.35-.48.31 0-.01-.01-.01-.02-.01z" fill="#2b393f"/><path d="m180.9 207-5.3-3.1c-.1 0-.2-.2-.2-.3v-8c0-.2.2-.3.3-.2l4.2 2.4 1.4 3.1v5.9c0 .2-.2.3-.4.2z" fill="#9ff5d9"/><path d="m179.9 197.8v2c0 .1.1.3.2.3l1.3.8" fill="#fff"/><path d="m178.7 204.5c.22-.57.56-1.08 1-1.5h.4c.25.64.28 1.34.1 2 .21-.32.48-.59.8-.8.03-.11.14-.18.25-.15s.18.14.15.25c.15.42.15.88 0 1.3 0 0 0 .4.5 0" fill="none" stroke="#00bd9b" stroke-linecap="round" stroke-linejoin="round" stroke-width=".82"/><path d="m178.4 199.7-2.3-1.3c-.06-.05-.09-.12-.1-.2v-.4c0-.1.1-.2.2-.1l2.3 1.3v.6c.1.1 0 .2-.1.1z" fill="#00bd9b"/><path d="m177.1 200.5-1-.6h-.1v-.5c0-.1.1-.1.2-.1l.9.6c.1 0 .1.1.1.2v.4z" fill="#00bd9b"/><path d="m178.3 202.8-2.2-1.3v-.7c0-.1 0-.1.1-.1l2.3 1.3v.7c0 .1-.1.1-.2.1z" fill="#00bd9b"/><g enable-background="new" fill="#2b393f"><path d="m132.78 320.1h-.66c-.14 0-.21-.07-.21-.21v-8.19c0-.09-.05-.13-.15-.13h-2c-.15 0-.22-.07-.22-.21v-.53c0-.14.07-.21.22-.21h5.38c.15 0 .22.07.22.21v.53c0 .14-.07.21-.22.21h-2c-.1 0-.15.04-.15.13v8.19c-.01.14-.08.21-.21.21z"/><path d="m137.47 320.1h-.66c-.14 0-.21-.07-.21-.21v-9.94c0-.14.07-.21.21-.21h.66c.14 0 .21.07.21.21v3.42h.06c.25-.52.75-.78 1.5-.78h.83c.67 0 1.19.19 1.56.58.37.38.56.92.56 1.61v5.13c0 .14-.07.21-.21.21h-.66c-.14 0-.21-.07-.21-.21v-5.08c0-.85-.41-1.28-1.24-1.28h-.83c-.44 0-.78.12-1.02.35-.24.24-.35.57-.35 1v5.01c.01.12-.06.19-.2.19z"/><path d="m149.3 320.1h-3.12c-.68 0-1.21-.19-1.6-.57s-.58-.92-.58-1.61v-3.15c0-.69.19-1.22.58-1.61.39-.38.92-.58 1.6-.58h1.24c.68 0 1.21.19 1.59.58.38.38.57.92.57 1.61v1.87c0 .15-.07.22-.21.22h-4.17c-.1 0-.15.04-.15.13v.9c0 .85.41 1.28 1.24 1.28h3c.14 0 .21.07.21.21v.53c.01.13-.06.19-.2.19zm-4.09-4.02h3.18c.1 0 .15-.05.15-.15v-1.13c0-.84-.41-1.27-1.24-1.27h-1c-.82 0-1.24.42-1.24 1.27v1.13c0 .1.05.15.15.15z"/><path d="m156.14 320.1h-.65c-.14 0-.21-.07-.21-.21v-9.06c0-.14.07-.21.21-.21h.6c.12 0 .2.04.24.12l4.07 7.14h.06v-7.06c0-.14.07-.21.21-.21h.65c.14 0 .21.07.21.21v9.06c0 .14-.07.21-.21.21h-.55c-.11 0-.21-.06-.31-.19l-4.05-7.07h-.06v7.06c-.01.14-.08.21-.21.21z"/><path d="m168.85 320.1h-3.12c-.68 0-1.21-.19-1.6-.57s-.58-.92-.58-1.61v-3.15c0-.69.19-1.22.58-1.61.39-.38.92-.58 1.6-.58h1.24c.68 0 1.21.19 1.59.58.38.38.57.92.57 1.61v1.87c0 .15-.07.22-.21.22h-4.17c-.1 0-.15.04-.15.13v.9c0 .85.41 1.28 1.24 1.28h3c.14 0 .21.07.21.21v.53c.01.13-.06.19-.2.19zm-4.1-4.02h3.18c.1 0 .15-.05.15-.15v-1.13c0-.84-.41-1.27-1.24-1.27h-1c-.82 0-1.24.42-1.24 1.27v1.13c.01.1.06.15.15.15z"/><path d="m174.24 320.1h-1.27c-.68 0-1.21-.19-1.6-.57s-.58-.92-.58-1.61v-3.15c0-.69.19-1.22.58-1.61.39-.38.92-.58 1.6-.58h1.27c.68 0 1.21.19 1.6.58.39.38.58.92.58 1.61v3.15c0 .69-.19 1.22-.58 1.61-.39.38-.92.57-1.6.57zm-1.15-.94h1.03c.82 0 1.24-.42 1.24-1.27v-3.09c0-.84-.41-1.27-1.24-1.27h-1.03c-.82 0-1.24.42-1.24 1.27v3.09c0 .84.42 1.27 1.24 1.27z"/><path d="m188.85 310.63h1.19c.14 0 .21.07.21.21v9.06c0 .14-.07.21-.21.21h-.65c-.14 0-.21-.07-.21-.21v-7.82h-.06l-2.28 5.77c-.06.13-.15.19-.27.19h-.71c-.13 0-.21-.06-.25-.19l-2.33-5.79h-.06v7.84c0 .14-.06.21-.19.21h-.65c-.14 0-.21-.07-.21-.21v-9.06c0-.14.07-.21.21-.21h1.19c.09 0 .15.04.18.12l2.42 6.1h.07l2.42-6.1c.04-.08.09-.12.19-.12z"/><path d="m195.23 320.1h-.77c-.68 0-1.21-.19-1.6-.57s-.58-.92-.58-1.61v-3.15c0-.69.19-1.22.58-1.61.39-.38.92-.58 1.6-.58h3.2c.14 0 .21.07.21.21v7.1c0 .14-.07.21-.21.21h-.66c-.14 0-.21-.07-.21-.21v-.57h-.06c-.24.52-.74.78-1.5.78zm1.56-2.3v-4.14c0-.09-.05-.13-.15-.13h-2.06c-.82 0-1.22.43-1.22 1.28v3.06c0 .85.41 1.28 1.22 1.28h.84c.44 0 .78-.12 1.02-.35.23-.23.35-.57.35-1z"/><path d="m199.97 311.35v-1.38c0-.14.06-.21.19-.21h.68c.14 0 .21.07.21.21v1.38c0 .14-.07.21-.21.21h-.68c-.12 0-.19-.07-.19-.21zm0 8.54v-7.1c0-.14.06-.21.19-.21h.68c.14 0 .21.07.21.21v7.1c0 .14-.07.21-.21.21h-.66c-.14 0-.21-.07-.21-.21z"/><path d="m204.02 320.1h-.66c-.14 0-.21-.07-.21-.21v-7.1c0-.14.07-.21.21-.21h.66c.14 0 .21.07.21.21v.57h.06c.25-.52.75-.78 1.5-.78h.83c.67 0 1.19.19 1.56.58.37.38.56.92.56 1.61v5.13c0 .14-.07.21-.21.21h-.66c-.14 0-.21-.07-.21-.21v-5.08c0-.85-.41-1.28-1.24-1.28h-.83c-.44 0-.78.12-1.02.35-.24.24-.35.57-.35 1v5.01c.01.13-.06.2-.2.2z"/><path d="m211.7 320.1h-.65c-.14 0-.21-.07-.21-.21v-9.06c0-.14.07-.21.21-.21h.6c.12 0 .2.04.24.12l4.07 7.14h.06v-7.06c0-.14.07-.21.21-.21h.65c.14 0 .21.07.21.21v9.06c0 .14-.07.21-.21.21h-.55c-.11 0-.21-.06-.31-.19l-4.05-7.07h-.06v7.06c-.01.14-.07.21-.21.21z"/><path d="m224.41 320.1h-3.12c-.68 0-1.21-.19-1.6-.57s-.58-.92-.58-1.61v-3.15c0-.69.19-1.22.58-1.61.39-.38.92-.58 1.6-.58h1.24c.68 0 1.21.19 1.59.58.38.38.57.92.57 1.61v1.87c0 .15-.07.22-.21.22h-4.17c-.1 0-.15.04-.15.13v.9c0 .85.41 1.28 1.24 1.28h3c.14 0 .21.07.21.21v.53c.01.13-.06.19-.2.19zm-4.09-4.02h3.18c.1 0 .15-.05.15-.15v-1.13c0-.84-.41-1.27-1.24-1.27h-1c-.83 0-1.24.42-1.24 1.27v1.13c0 .1.05.15.15.15z"/><path d="m226.78 313.53h-.81c-.14 0-.21-.06-.21-.19v-.54c0-.14.07-.21.21-.21h.81c.1 0 .15-.04.15-.13v-1.27c0-.14.07-.21.21-.21h.66c.13 0 .19.07.19.21v1.27c0 .09.05.13.16.13h1.56c.15 0 .22.07.22.21v.54c0 .13-.07.19-.22.19h-1.56c-.11 0-.16.04-.16.13v4.24c0 .83.43 1.25 1.3 1.25h.58c.15 0 .22.07.22.21v.54c0 .13-.07.19-.22.19h-.71c-.68 0-1.22-.19-1.62-.57s-.6-.91-.6-1.58v-4.29c-.01-.08-.06-.12-.16-.12z"/></g><g enable-background="new" fill="#2b393f"><path d="m63.44 336.04h1.13c.49 0 .84-.1 1.05-.3s.32-.53.32-.98v-1.04c0-.46-.11-.78-.32-.98s-.56-.3-1.05-.3h-1.07c-.47 0-.8.1-.99.3s-.29.53-.29.98v.55c0 .31-.15.46-.46.46h-1.88c-.31 0-.46-.15-.46-.46v-.6c0-1.15.32-2.03.95-2.65s1.53-.93 2.7-.93h1.97c1.16 0 2.06.31 2.69.93s.95 1.5.95 2.65v1.1c0 1.24-.58 2.04-1.75 2.41 1.16.25 1.75 1.05 1.75 2.41v1.13c0 1.15-.32 2.03-.95 2.65s-1.53.93-2.69.93h-1.97c-1.16 0-2.06-.31-2.7-.93s-.95-1.5-.95-2.65v-.62c0-.32.15-.49.46-.49h1.88c.31 0 .46.16.46.49v.57c0 .47.1.8.29.99s.52.29.99.29h1.06c.49 0 .84-.1 1.05-.3s.32-.53.32-.98v-1.08c0-.46-.11-.78-.32-.98s-.56-.3-1.05-.3h-1.13c-.31 0-.46-.15-.46-.46v-1.33c0-.32.16-.48.47-.48z"/><path d="m81.35 344.3h-1.88c-.31 0-.46-.15-.46-.46v-4.73l-4.04-8.53c-.06-.13-.06-.25.01-.34.07-.1.17-.14.3-.14h2.34c.24 0 .41.16.53.46l2.21 5.37h.15l2.17-5.37c.1-.31.28-.46.53-.46h2.34c.15 0 .25.04.32.13s.06.21-.01.35l-4.04 8.53v4.73c0 .31-.16.46-.47.46z"/><path d="m95.64 344.3h-4.88c-1.16 0-2.06-.31-2.69-.93s-.95-1.51-.95-2.67v-4.06c0-1.16.32-2.05.95-2.67s1.53-.93 2.69-.93h1.75c1.16 0 2.06.31 2.7.93.63.62.95 1.51.95 2.67v2.81c0 .31-.15.46-.46.46h-5.54c-.18 0-.27.08-.27.24v.49c0 .46.1.78.3.98s.53.3 1 .3h4.46c.31 0 .46.16.46.49v1.46c0 .16-.03.28-.1.34s-.19.09-.37.09zm-5.5-6.27h3c.16 0 .24-.08.24-.24v-1.06c0-.47-.1-.8-.29-.99s-.52-.29-.99-.29h-.93c-.47 0-.8.1-.99.29s-.29.52-.29.99v1.06c.01.16.09.24.25.24z"/><path d="m102.2 344.3h-.53c-1.16 0-2.06-.31-2.69-.93s-.95-1.51-.95-2.67v-4.06c0-1.16.32-2.05.95-2.67s1.53-.93 2.69-.93h5.1c.32 0 .49.15.49.46v10.34c0 .31-.16.46-.49.46h-1.86c-.31 0-.46-.15-.46-.46v-.73h-.09c-.16.4-.45.7-.86.89-.4.2-.84.3-1.3.3zm2.26-4.11v-4.48c0-.16-.09-.24-.27-.24h-2.08c-.47 0-.8.1-.99.3s-.29.53-.29 1.01v3.8c0 .47.1.81.29 1 .19.2.52.3.99.3h.82c1.02-.01 1.53-.57 1.53-1.69z"/><path d="m112.03 344.3h-1.88c-.31 0-.46-.15-.46-.46v-10.34c0-.31.15-.46.46-.46h1.88c.31 0 .46.15.46.46v.75h.09c.16-.4.45-.7.86-.91s.85-.31 1.3-.31h.8c.29 0 .44.15.44.46v1.52c0 .18-.03.3-.1.36s-.18.09-.34.08h-1.52c-1.02 0-1.52.57-1.52 1.72v6.65c0 .33-.16.48-.47.48z"/><path d="m123.96 344.3h-2.12c-.27 0-.35-.15-.27-.46l3.49-13.28c.1-.31.32-.46.66-.46h2.94c.37 0 .59.16.66.46l3.49 13.28c.09.31 0 .46-.27.46h-2.12c-.16 0-.27-.03-.33-.1s-.1-.19-.13-.36l-.62-2.43h-4.31l-.62 2.43c-.03.18-.08.3-.14.36-.05.07-.16.1-.31.1zm3.21-11.53-1.59 6.38h3.27l-1.59-6.38z"/><path d="m136.91 344.3h-1.88c-.31 0-.46-.15-.46-.46v-10.34c0-.31.15-.46.46-.46h1.88c.31 0 .46.15.46.46v.73h.09c.32-.79 1.05-1.19 2.16-1.19h.71c2.31 0 3.47 1.2 3.47 3.6v7.2c0 .31-.16.46-.49.46h-1.86c-.31 0-.46-.15-.46-.46v-7.07c0-.47-.1-.81-.3-1.01s-.53-.3-1-.3h-.8c-1.02 0-1.52.56-1.52 1.68v6.69c0 .32-.15.47-.46.47z"/><path d="m148.46 344.3h-1.88c-.31 0-.46-.15-.46-.46v-10.34c0-.31.15-.46.46-.46h1.88c.31 0 .46.15.46.46v.73h.09c.32-.79 1.05-1.19 2.16-1.19h.71c2.31 0 3.47 1.2 3.47 3.6v7.2c0 .31-.16.46-.49.46h-1.86c-.31 0-.46-.15-.46-.46v-7.07c0-.47-.1-.81-.3-1.01s-.53-.3-1-.3h-.8c-1.02 0-1.52.56-1.52 1.68v6.69c0 .32-.15.47-.46.47z"/><path d="m157.78 331.13v-1.92c0-.29.15-.44.44-.44h1.92c.29 0 .44.14.44.42v1.94c0 .29-.15.44-.44.44h-1.92c-.29.01-.44-.14-.44-.44zm0 12.71v-10.34c0-.31.15-.46.44-.46h1.9c.31 0 .46.15.46.46v10.34c0 .19-.03.32-.1.38s-.18.09-.34.09h-1.9c-.3-.01-.46-.16-.46-.47z"/><path d="m162.64 333.03h1.94c.29 0 .47.15.53.46l1.9 8.31h.15l1.86-8.31c.06-.31.24-.46.55-.46h1.94c.31 0 .42.15.33.46l-2.78 10.32c-.06.32-.26.49-.6.49h-2.81c-.31 0-.51-.16-.6-.49l-2.76-10.32c-.07-.3.04-.46.35-.46z"/><path d="m181.77 344.3h-4.88c-1.16 0-2.06-.31-2.69-.93s-.95-1.51-.95-2.67v-4.06c0-1.16.32-2.05.95-2.67s1.53-.93 2.69-.93h1.75c1.16 0 2.06.31 2.7.93.63.62.95 1.51.95 2.67v2.81c0 .31-.15.46-.46.46h-5.54c-.18 0-.27.08-.27.24v.49c0 .46.1.78.3.98s.53.3 1 .3h4.46c.31 0 .46.16.46.49v1.46c0 .16-.03.28-.1.34s-.19.09-.37.09zm-5.5-6.27h3c.16 0 .24-.08.24-.24v-1.06c0-.47-.1-.8-.29-.99s-.52-.29-.99-.29h-.93c-.47 0-.8.1-.99.29s-.29.52-.29.99v1.06c.01.16.09.24.25.24z"/><path d="m186.72 344.3h-1.88c-.31 0-.46-.15-.46-.46v-10.34c0-.31.15-.46.46-.46h1.88c.31 0 .46.15.46.46v.75h.09c.16-.4.45-.7.86-.91s.85-.31 1.3-.31h.79c.29 0 .44.15.44.46v1.52c0 .18-.03.3-.1.36s-.18.09-.34.08h-1.52c-1.02 0-1.52.57-1.52 1.72v6.65c0 .33-.15.48-.46.48z"/><path d="m196.35 344.3h-4.2c-.29 0-.44-.15-.44-.46v-1.41c0-.16.03-.28.09-.34s.18-.1.35-.1h3.69c.72 0 1.08-.22 1.08-.66v-.11c0-.35-.3-.69-.91-1.02l-2.19-1.21c-.75-.38-1.3-.8-1.66-1.24-.35-.44-.53-1.01-.53-1.7 0-1.03.27-1.79.82-2.28.54-.49 1.4-.73 2.56-.73h3.69c.29 0 .44.15.44.46v1.44c0 .16-.03.28-.09.34s-.18.1-.35.1h-3.07c-.72 0-1.08.18-1.08.55v.11c0 .32.32.66.95.99l2.23 1.33c.77.41 1.3.84 1.61 1.27s.46 1 .46 1.71c.02 1.97-1.14 2.96-3.45 2.96z"/><path d="m205.72 344.3h-.53c-1.16 0-2.06-.31-2.69-.93s-.95-1.51-.95-2.67v-4.06c0-1.16.32-2.05.95-2.67s1.53-.93 2.69-.93h5.1c.32 0 .49.15.49.46v10.34c0 .31-.16.46-.49.46h-1.86c-.31 0-.46-.15-.46-.46v-.73h-.09c-.16.4-.45.7-.86.89-.41.2-.85.3-1.3.3zm2.25-4.11v-4.48c0-.16-.09-.24-.27-.24h-2.08c-.47 0-.8.1-.99.3s-.29.53-.29 1.01v3.8c0 .47.1.81.29 1 .19.2.52.3.99.3h.82c1.02-.01 1.53-.57 1.53-1.69z"/><path d="m215.55 344.3h-1.88c-.31 0-.46-.15-.46-.46v-10.34c0-.31.16-.46.46-.46h1.88c.31 0 .46.15.46.46v.75h.09c.16-.4.45-.7.86-.91s.85-.31 1.3-.31h.8c.29 0 .44.15.44.46v1.52c0 .18-.03.3-.1.36s-.18.09-.34.08h-1.52c-1.02 0-1.52.57-1.52 1.72v6.65c-.01.33-.16.48-.47.48z"/><path d="m222.75 348.03h-1.41c-.29 0-.44-.16-.44-.49v-1.48c0-.32.15-.49.44-.49h.46c.93 0 1.56-.13 1.89-.39s.58-.75.76-1.49h-1.17c-.28 0-.46-.15-.55-.46l-2.58-9.74c-.09-.31.02-.46.33-.46h1.97c.29 0 .48.15.55.46l1.9 8.15h.09l1.88-8.15c.06-.31.24-.46.55-.46h1.86c.37 0 .52.16.44.49l-2.7 10.78c-.32 1.22-.83 2.15-1.5 2.78-.69.64-1.61.95-2.77.95z"/></g><path d="m279.9 237.7-29.2 17.2c-.82.52-1.31 1.43-1.3 2.4v33.7c-.01.97.48 1.88 1.3 2.4l29.2 16.9c.87.52 1.97.48 2.8-.1l29.2-17.1c.82-.52 1.31-1.43 1.3-2.4v-33.4c.01-1-.53-1.92-1.4-2.4l-29.1-17.2c-.88-.46-1.92-.46-2.8 0z" fill="#d1faed"/><path d="m256.1 259.3 2.8-.2 12 5.5-3.1 8.7z" fill="url(#v)" opacity=".68"/><path d="m308.5 259.2-3 5.7-8.5 3.3-6.9-7.7z" fill="url(#w)" opacity=".68"/><path d="m279.1 245.9 7 .2 1.9 17.8h-10.9z" fill="url(#x)" opacity=".68"/><path d="m278.7 302.6 6.9.1 2.1-18.6h-11z" fill="url(#y)" opacity=".68"/><path d="m259.4 291.5-3.4-5.9 14.5-11.3 5 8.4z" fill="url(#z)" opacity=".68"/><path d="m259.2 291.4-3-1.7c-.2-.1-.3-.2-.3-.4v-3.5c0-.2.2-.3.4-.2l3 1.8c.1 0 .2.2.2.4v3.4c0 .2-.2.3-.3.2z" fill="#00bd9b"/><path d="m278.9 302.8 3.2 1.9c.15.12.35.12.5 0l2.9-1.7c.1-.11.1-.29 0-.4l-3.3-1.9h-.5l-2.8 1.7c-.11 0-.21.09-.21.2s.1.21.21.2c0 .01 0 .01 0 0z" fill="#02e49b"/><path d="m305.6 264.9 2.8-1.7c.2-.09.32-.29.3-.5v-3.3c0-.1-.2-.3-.3-.2l-2.9 1.7c-.2.09-.32.29-.3.5v3.3c0 .2.2.3.4.2z" fill="#00bd9b"/><path d="m256.1 259.4 1.3.7h.5l1.1-.6c.1-.11.1-.29 0-.4l-1.3-.7h-.5l-1.1.6c-.1.11-.1.29 0 .4z" fill="#02e49b"/><path d="m308.6 287.6-12.8-13-5.4 8.3 16.5 7.6z" fill="url(#A)" opacity=".68"/><path d="m279.1 246.1 3.4 1.9h.4l3-1.7c.11 0 .2-.09.2-.2s-.09-.2-.2-.2l-3.4-1.9h-.4l-3 1.7c-.1.11-.1.29 0 .4z" fill="#02e49b"/><path d="m307.2 290.5 1.3-.8c.13-.09.2-.24.2-.4v-1.5c0-.2-.2-.3-.3-.2l-1.3.8c-.17 0-.3.13-.3.3v1.6c0 .1.2.2.4.2z" fill="#02e49b"/><circle cx="282.5" cy="274.3" fill="#2b393f" r="15.7"/><path d="m276.3 270.3v9.3l6 2.2v-9.4l6.6-2.5-6-2.1z" fill="#1ee7a6"/><path d="m282.8 272.6v5.2l6.1 2.1v-9.5z" fill="#1cc4a6"/><path d="m88.3 435.1 54 33c.87.5 1.93.5 2.8 0l29.1-17.5c.87-.48 1.41-1.4 1.4-2.4v-33.4c-.03-.99-.56-1.89-1.4-2.4l-54.8-33-31.2 16z" fill="url(#B)"/><path d="m120.1 381.3v33.7c.01.97-.48 1.88-1.3 2.4l-30.7 17.6v-39.9l-29.6-16.8 28.3-16.3c.83-.5 1.87-.5 2.7 0l29.2 16.8c.87.53 1.41 1.48 1.4 2.5z" fill="#00e599"/><path d="m85.7 396.8v2.8l-29.5 17v-36.7z" fill="#00af92"/><path d="m204.9 390.9-36.1 21.2c-.82.52-1.31 1.43-1.3 2.4v33.8c.01.99.54 1.9 1.4 2.4l29.1 16.8c.87.5 1.93.5 2.8 0l36-21.3c.84-.46 1.38-1.34 1.4-2.3v-33.4c-.03-.99-.56-1.89-1.4-2.4l-29.2-17.2c-.84-.46-1.86-.46-2.7 0z" fill="url(#C)" opacity=".68"/><path d="m170.1 411.6-29.2 17.2c-.84.46-1.38 1.34-1.4 2.3v33.8c.03.99.56 1.89 1.4 2.4l29.2 16.8c.87.5 1.93.5 2.8 0l29.1-17.2c.87-.48 1.41-1.4 1.4-2.4v-33.4c-.01-.99-.54-1.9-1.4-2.4l-29.2-17.1c-.84-.46-1.86-.46-2.7 0z" fill="#d1faed"/><path d="m164.3 444.7 8-4.7.3.6-7 4.1c-.1 0-.1.2-.1.3.06 0 .1.04.1.1l3.3 1.9-.3.6-4.3-2.5c-.2-.1-.2-.2-.1-.3s0-.1.1-.1z" fill="#fff"/><path d="m179.8 434.9c.33-.11.7-.08 1 .1h.3l2.2-1.5c.15-.12.35-.12.5 0l4.7 2.7-.3.6-4.4-2.5c-.11-.1-.29-.1-.4 0l-2.1 1.3v.2c-.01.36-.19.7-.5.9-.34.27-.82.31-1.2.1-.07-.08-.2-.09-.28-.02-.01.01-.01.01-.02.02l-4 2.3-.4-.6 4.1-2.3c.1 0 .1-.1.1-.2v-.2c0-.1 0-.2-.1-.2l-8.8-5.1.3-.6 9 5c0 .1.1.1.3 0z" fill="#fff"/><path d="m159.92 451.75h9.3v.68h-9.3z" fill="#fff" transform="matrix(.866 -.5 .5 .866 -203.9961 142.8558)"/><path d="m170.02 426.4h8.5v.68h-8.5z" fill="#fff" transform="matrix(.866 -.5 .5 .866 -190.0229 144.3101)"/><path d="m154.33 434.38h8.5v.68h-8.5z" fill="#fff" transform="matrix(.866 -.5 .5 .866 -196.115 137.5307)"/><path d="m174.9 424.7 3.1 1.8h.4l2.8-1.6c.07-.08.11-.19.1-.3 0-.06-.04-.1-.1-.1l-3.1-1.8h-.4l-2.8 1.6c-.07.08-.11.19-.1.3z" fill="#02e49b"/><path d="m154.2 428.9 10.3 6.1c.29.1.61.1.9 0l9.4-5.5c.2-.13.28-.38.2-.6h-.2l-10.5-5.9c-.27-.18-.63-.18-.9 0l-9.2 5.3c-.2.13-.28.38-.2.6z" fill="#2b393f"/><path d="m170.8 439.7 3.3 1.9h.4l3.1-1.7c.08-.07.09-.2.02-.28-.01-.01-.01-.01-.02-.02l-3.4-1.9c-.15-.09-.35-.09-.5 0l-2.9 1.7c-.1 0-.1.2-.1.3z" fill="#2b393f"/><path d="m183.5 437.7 6.4 3.7c.26.22.64.22.9 0l5.7-3.3c.3-.2.3-.4.2-.6 0-.11-.09-.2-.2-.2l-6.5-3.7c-.29-.1-.61-.1-.9 0l-5.6 3.3c-.2.13-.28.38-.2.6 0 .1.1.1.2.2z" fill="#02e49b"/><path d="m158.1 464.4 4.2-2.5c.2-.13.28-.38.2-.6h-.2l-2.8-1.7-.7.4 2.5 1.5c.1 0 .1.2.1.3s-.1 0-.1.1l-4.2 2.4c-.19.11-.25.36-.14.55.01.02.02.04.04.05h.1l7.2 4.3.6-.4-6.8-4.1c-.1 0-.1-.2 0-.3z" fill="#fff"/><path d="m145.1 455.7 10.3 6c.26.22.64.22.9 0l9.4-5.4c.2-.13.28-.38.2-.6l-.2-.2-10.5-5.9c-.29-.1-.61-.1-.9 0l-9.2 5.3c-.2.2-.3.4-.2.6z" fill="#2b393f"/><path d="m177.4 469.1-.6-.4-5.9 3.4h-.2l-3.1-1.8-.7.4 3.7 2.2h.4l.5-.3z" fill="#fff"/><path d="m171.2 466.1 10.3 6c.26.22.64.22.9 0l9.4-5.4c.2-.2.3-.4.2-.6s-.1-.2-.2-.2l-10.5-5.9c-.27-.18-.63-.18-.9 0l-9.2 5.3c-.2.13-.28.38-.2.6 0 .1.1.1.2.2z" fill="#2b393f"/><path d="m174.3 430.1h-.4l-1.5.8v8.6c0 .1 0 .1.1.2l1.5.9h.2l1.6-.9c.1 0 .1-.1.1-.2v-8.5z" fill="url(#E)" opacity=".38"/><ellipse cx="154.37" cy="437.33" fill="none" rx=".9" ry=".8" stroke="#fff" stroke-miterlimit="10" stroke-width="1.23" transform="matrix(.8368 -.5476 .5476 .8368 -214.269 155.9186)"/><path d="m175 449.11h.7v4.72h-.7z" fill="#fff" transform="matrix(.5 -.866 .866 .5 -303.3112 377.5945)"/><path d="m164.4 448.7 6.4 3.7c.26.22.64.22.9 0l5.7-3.3c.21-.07.32-.3.25-.51-.01-.03-.03-.06-.05-.09 0-.1-.1-.1-.2-.2l-6.5-3.6c-.26-.22-.64-.22-.9 0l-5.6 3.2c-.2.2-.3.4-.2.6 0 .11.09.2.2.2z" fill="#02e49b"/><path d="m156.1 434c-.3.2-.7.2-1 0l-3.6 1.8v20.1c.02.18.14.33.3.4l3.6 2.1c.19.11.41.11.6 0l3.6-2.1c.2-.1.3-.2.3-.4l-.2-20z" fill="url(#F)" opacity=".38"/><ellipse cx="179.82" cy="454.36" fill="none" rx=".9" ry=".8" stroke="#fff" stroke-miterlimit="10.0404" stroke-width="1.235" transform="matrix(.8366 -.5478 .5478 .8366 -219.512 172.7355)"/><path d="m162.6 469.7 3.3 2h.4l3-1.8c.1-.04.16-.15.12-.25-.01-.02-.01-.03-.02-.05h-.1l-3.4-1.9h-.4l-2.9 1.7c-.1 0-.2.1-.1.3z" fill="#02e49b"/><path d="m182.1 444.1c-.3.2-.7.2-1 0l-3.6 1.8v20.1c0 .2.1.3.3.4l3.6 2.1c.19.11.41.11.6 0l3.6-2c.2-.09.32-.29.3-.5l-.2-20z" fill="url(#G)" opacity=".38"/><path d="m311.8 361.8-29.2-17.2c-.87-.5-1.93-.5-2.8 0l-29.2 17.2c-.87.48-1.41 1.4-1.4 2.4v.5l-14.8 8.7c-.82.52-1.31 1.43-1.3 2.4v33.8c-.01 1 .53 1.92 1.4 2.4l29.2 16.8c.87.5 1.93.5 2.8 0l35.9-21.2.6-.5 8.7-5.1c.87-.48 1.41-1.4 1.4-2.4v-35.4c-.01-.97-.49-1.87-1.3-2.4z" fill="url(#H)"/><path d="m279.8 311.2-29.2 17.2c-.87.48-1.41 1.4-1.4 2.4v33.8c-.01 1 .53 1.92 1.4 2.4l29.2 16.8c.87.5 1.93.5 2.8 0l29.1-17.2c.87-.48 1.41-1.4 1.4-2.4v-33.4c-.03-.99-.56-1.89-1.4-2.4l-29.2-17.2c-.84-.46-1.86-.46-2.7 0z" fill="#53edbb"/><path d="m289.5 375.6 17-9.5c.27-.33.22-.82-.1-1.1l-16.9-8.9z" fill="#d9dbdc"/><path d="m255.9 367.5 4.5 2.6c.19.19.51.19.7 0l4.1-2.3c.2-.2.2-.5 0-.6l-4.6-2.6c-.22-.11-.48-.11-.7 0l-4 2.3c-.17 0-.3.13-.3.3s.13.3.3.3z" fill="#d9dbdc"/><path d="m268.6 381.4 4.6 2.6c.22.09.48.09.7 0l4.1-2.4c.2-.1.2-.4 0-.6l-4.7-2.6h-.6l-4.1 2.4c-.2.1-.2.4 0 .6z" fill="#d9dbdc"/><path d="m289 382.7 4.6 2.7c.22.11.48.11.7 0l4.1-2.4c.17-.15.18-.4.04-.56-.01-.01-.02-.02-.04-.04l-4.7-2.6c-.22-.09-.48-.09-.7 0l-4 2.3c-.2.2-.2.5 0 .6z" fill="#d9dbdc"/><path d="m307.8 377.7 4.5 2.6h.7l4.1-2.4c.3-.1.2-.4 0-.6l-4.6-2.6h-.7l-4 2.4c-.3.1-.3.4 0 .6z" fill="#d9dbdc"/><path d="m256 367.6 4.5 2.6c.12.12.31.12.42 0 .08-.08.11-.2.08-.3v-5.2c.01-.24-.1-.46-.3-.6l-4.5-2.6c-.21-.06-.43.06-.49.28 0 .01 0 .02-.01.02v5.2c-.03.24.09.48.3.6z" fill="#d1faed"/><path d="m289.2 382.8 4.5 2.6c.2.2.5 0 .5-.3v-5.2c-.04-.22-.19-.41-.4-.5l-4.5-2.6c-.2-.2-.5 0-.5.3v5.1c.01.26.17.49.4.6z" fill="#fff"/><path d="m268.8 381.5 4.5 2.6c.21.06.43-.06.49-.28 0-.01 0-.02.01-.02v-5.2c.03-.24-.09-.48-.3-.6l-4.5-2.6c-.12-.12-.31-.12-.42 0-.08.08-.11.2-.08.3v5.2c.02.23.13.45.3.6z" fill="#fff"/><path d="m307.9 377.8 4.5 2.6c.12.12.31.12.42 0 .08-.08.11-.2.08-.3v-5.2c.03-.24-.09-.48-.3-.6l-4.5-2.6c-.2-.2-.5 0-.5.3v5.2c.02.23.13.45.3.6z" fill="#d1faed"/><circle cx="288.8" cy="321.4" fill="#d1faed" r="8.3"/><path clip-rule="evenodd" d="m283.6 350.2c2.31-1.58 3.7-4.2 3.7-7 0-4.58-3.72-8.3-8.3-8.3-4.41.04-8.04 3.5-8.3 7.9z" fill="#00bd9b" fill-rule="evenodd"/><path d="m285.5 319.1v5l3.3 1.2v-5.1l3.6-1.3-3.2-1.2z" fill="#53edbb"/><path d="m289.1 320.3v2.8l3.3 1.2v-5.2z" fill="#53edbb"/><path d="m275.6 341.3v5l3.3 1.2v-5.1l3.5-1.3-3.2-1.1z" fill="#1ee7a6"/><path d="m279.2 342.6v2.7l3.2 1.2v-5.1z" fill="#1ee7a6"/><path d="m276.3 368.5 8.5 4.9 3.8 2.2c.29.17.65.07.82-.21.07-.12.1-.25.08-.39v-20.7c.01-.4-.18-.77-.5-1l-28-16.2c-.35-.17-.77-.02-.93.33-.04.08-.06.18-.07.27v20.8c.02.44.24.85.6 1.1l3.9 2.2c.21.06.43-.06.49-.28 0-.01 0-.02.01-.02v-5c-.05-.16.04-.33.2-.38.11-.03.22 0 .3.08l4.5 2.6c.21.12.33.36.3.6v5.3" fill="#2b393f"/><path d="m282.4 358.5 7.1 4.1c.07.08.11.19.1.3v4.2h-.2l-7.1-4.1c-.1-.1-.1-.1-.1-.2v-4.3z" fill="#02e49b"/><path d="m286.9 362.5 1.4.8c.06.05.09.12.1.2v1.6h-.2l-1.4-.8c0-.1-.1-.1-.1-.2v-1.6s.1-.1.2 0z" fill="#fff"/><path d="m251 382.7 4.5 2.7c.22.11.48.11.7 0l4.2-2.4c.17-.15.18-.4.04-.56-.01-.01-.02-.02-.04-.04l-4.7-2.6c-.22-.09-.48-.09-.7 0l-4 2.3c-.2.2-.2.5 0 .6z" fill="#d9dbdc"/><path d="m251.2 382.8 4.5 2.6c.2.2.5 0 .5-.3v-5.2c-.04-.22-.19-.41-.4-.5l-4.5-2.6c-.2-.2-.5 0-.5.3v5.1c.01.26.17.49.4.6z" fill="#53edbb"/><path d="m234.1 373.9-29.3 17.2c-.82.52-1.31 1.43-1.3 2.4v33.7c-.01 1 .53 1.92 1.4 2.4l29.1 16.8c.87.5 1.93.5 2.8 0l29.2-17.2c.79-.5 1.28-1.36 1.3-2.3v-33.4c.01-.97-.48-1.88-1.3-2.4l-29.2-17.2c-.84-.46-1.86-.46-2.7 0z" fill="#02e49b"/><path d="m215.5 427.9 29.3-16.7 16.8 9.8c.58.32.79 1.05.47 1.63-.11.2-.27.36-.47.47l-25.9 14.8c-.96.55-2.14.55-3.1 0z" fill="#d9dbdc"/><path d="m214.8 400.6-4.9 2.8c-.54.39-1.29.27-1.68-.26-.18-.24-.26-.54-.22-.84v-5.7c-.01-1 .53-1.92 1.4-2.4l4.9-2.8c.64-.33 1.42-.08 1.75.55.09.17.14.36.15.55v5.7c.01 1-.53 1.92-1.4 2.4z" fill="#2b393f"/><path d="m242.4 384.9-18.6 10.6v7.7c.01 1-.53 1.92-1.4 2.4l-6.9 4v18.3l29.3-16.7v-24.9c.01-.88-.7-1.61-1.59-1.61-.28-.01-.56.07-.81.21z" fill="#2b393f"/><path d="m247 446.4 10.7-6.1c.32-.23.51-.6.5-1v-15.8c.06-.27-.11-.54-.38-.6-.15-.03-.3 0-.42.1l-8.3 4.8-2.9 6.1v12c-.06.27.11.54.38.6.15.03.3-.01.42-.1z" fill="#9ff5d9"/><path d="m249.1 427.8v4c.03.24-.09.48-.3.6l-2.7 1.5" fill="#00bd9b"/><path d="m253.4 436.8-1.2-2.7c-.1 0-.2-.1-.3 0l-.7.4c-.06 0-.1.04-.1.1s.04.1.1.1l1.2 2.6c.1.1.2.2.2.1l.7-.4c.1 0 .1-.1.1-.2z" fill="#d1faed"/><path d="m255.8 434.4-.6 2c0 .1-.1.2-.2.1h-.6v-.3l.5-1.5c0-.1 0-.1-.1-.2l-1.5-.5c-.1 0-.2-.1-.1-.2l.2-.6c0-.1.1-.1.2-.1l2 .7h.4c.06.05.09.12.1.2z" fill="#d1faed"/><path d="m249 437.7 1.9.7c.1.1.2 0 .3-.1v-.6c.1-.1 0-.2-.1-.2l-1.5-.5c-.1 0-.1-.1-.1-.2l.5-1.5c0-.1 0-.2-.1-.2l-.6-.2c-.1-.1-.2 0-.2.1l-.6 2-.2.4c.01.08.04.15.1.2z" fill="#d1faed"/><path d="m231 397.7 7.6-4.4c.27-.13.43-.41.4-.7v-11.3c-.02-.22-.22-.38-.44-.35-.06.01-.11.02-.16.05l-5.9 3.4-2.1 4.4v8.6c0 .3.4.5.6.3z" fill="#fff"/><path d="m232.5 384.4v2.9c0 .16-.07.31-.2.4l-2 1.1" fill="#00bd9b"/><path d="m235.2 419.5 7.6-4.4c.25-.14.4-.41.4-.7v-11.3c0-.3-.4-.5-.6-.3l-5.9 3.4-2.1 4.4v8.6c.02.22.22.38.44.35.06 0 .11-.02.16-.05z" fill="#9ff5d9"/><path d="m236.7 406.2v2.9c0 .16-.07.31-.2.4l-1.9 1.1" fill="#00bd9b"/><path d="m262.4 412.3-10.6-6.1c-.37-.19-.61-.58-.6-1v-15.8c-.06-.27.11-.54.38-.6.15-.03.3 0 .42.1l8.3 4.8 2.9 6.1v12c.06.27-.11.54-.38.6-.15.03-.3-.01-.42-.1z" fill="#fff"/><path d="m260.3 393.7v4c.01.26.17.49.4.6l2.6 1.5" fill="#00bd9b"/><path d="m257.2 402.7v-1.1c.04-.1.15-.16.25-.12.02.01.03.01.05.02l2.3 1.2v1.3c0 .1-.1.3-.3.2l-2.3-1.4z" fill="#d1faed"/><path d="m257 399.8-.8-2.7h-.3l-.8.3c-.1 0-.2.1-.1.2l.6 2c0 .1-.1.3-.2.3l-1.9.7c-.2 0-.2.1-.2.2l.3.8c0 .11.09.2.2.2l2.6-.9.6-.2c.1 0 .1-.2.1-.3z" fill="#d1faed"/><path d="m239.9 412.5-.9-2c0-.06-.05-.1-.1-.1s-.1.04-.1.1l-.5.3s-.1.1 0 .1l.9 2c0 .1.1.1.2.1l.5-.3z" fill="#d1faed"/><path d="m241.8 410.7-.5 1.5c0 .06-.04.1-.1.1h-.5c-.1 0-.1-.1-.1-.2l.4-1.1c0-.1-.1-.1-.1-.2l-1.1-.3c-.1-.1-.1-.1-.1-.2v-.4c0-.1.1-.1.2-.1l1.5.5h.3s.1.1 0 .1z" fill="#d1faed"/><path d="m236.6 413.2 1.5.5h.1l.2-.4v-.3l-1.1-.3c-.1-.1-.1-.1-.1-.2l.3-1.1c.06 0 .1-.04.1-.1s-.04-.1-.1-.1h-.6l-.5 1.5v.3c0 .06.04.1.1.1z" fill="#d1faed"/><path d="m227.5 438.6-7.6-4.4c-.25-.14-.4-.41-.4-.7v-11.2c.05-.27.31-.45.58-.4h.02l5.9 3.4 2.1 4.4v8.5c-.05.27-.31.45-.58.4-.01 0-.01 0-.02 0z" fill="#fff"/><path d="m226 425.3v2.9c0 .2.1.3.3.4l1.9 1.1" fill="#00bd9b"/><path d="m235.6 390.9-.9-2h-.2l-.5.3c-.06 0-.1.04-.1.1s.04.1.1.1l.9 2h.2l.5-.3z" fill="#d1faed"/><path d="m237.5 389.1-.5 1.5h-.1l-.5-.2c-.06 0-.1-.04-.1-.1l.4-1.2h-.1l-1.1-.4c-.1 0-.1-.1-.1-.2v-.4c0-.1.1-.1.2-.1l1.5.5h.3c.06 0 .1.04.1.1s-.04.1-.1.1z" fill="#d1faed"/><path d="m232.3 391.6 1.5.5h.2v-.5c0-.06-.04-.1-.1-.1l-1.1-.4c-.1 0-.1-.1-.1-.2l.3-1.1c.1-.1 0-.1 0-.1l-.5-.2c-.06 0-.1.04-.1.1l-.4 1.4v.5z" fill="#d1faed"/><path d="m223.7 432.6v-.7c0-.2.1-.2.2-.2l1.6.9c0 .1.1.1.1.2v.7c0 .1-.1.2-.2.1l-1.6-.9z" fill="#d1faed"/><path d="m223.5 430.6-.5-1.9h-.2l-.6.2c-.1 0-.1.1-.1.2l.4 1.4c.1.1 0 .1-.1.2l-1.3.4c-.1.1-.2.2-.1.2v.6h.2l1.9-.6.3-.2c.1 0 .1-.1.1-.2z" fill="#d1faed"/><path d="m264.9 402s-.9-1.8.6-2.2 1.3.4.3 2.2c0 0-.2.8.1 1.1s1.4.6 1 6.5l-.3 5.4v7.4l1 6.6-3.1.2v-.7l1.9-.2-.6-5.5-1.3-6.9-.9 4.9v8.4h-2.3v-1h1.1v-7.4l.4-7.6s.6-6.4.3-7.5l-2.6-2.6-1.4-2.6h.6l1.4 2.4 2.6 1.8c.33-.62.7-1.22 1.1-1.8.13-.28.16-.6.1-.9z" fill="#2b393f"/><path d="m223.4 435c-.3.2-1.4 1.1-.6 3.9l2.9 5.5h.1l3.2-.9h.1l2.2 6.1h1.9v-.6h-1.4l-1.6-5.6c0-.06.04-.1.1-.1l1-.4c.06 0 .1.04.1.1l2.3 5.8h.2l1.3-.3v-.4h-1l-2.6-6.3c0-.1 0-.1-.1-.1l-2.2.5h-.1l-5-7-.2-1.1c0-.06.04-.1.1-.1.45-.46.49-1.19.1-1.7-.18-.28-.55-.35-.83-.17-.16.11-.26.28-.27.47.03.45.14.88.3 1.3v.8z" fill="#2b393f"/><path d="m231.2 435.8-1.8 2.2 1.2 1.3 2.1-2.5z" fill="#d9dbdc"/><path d="m227.9 439.2 2.7.1-.2-1.4h-3.5z" fill="#d9dbdc"/><path d="m231.2 436.1-1.6 1.9 1.1.9 1.6-2z" fill="#2b393f"/><path d="m222.8 433c-.18-.46.04-.99.5-1.17.03-.01.06-.02.1-.03.44-.23.98-.07 1.22.37.04.07.07.15.08.23" fill="#02e49b"/><path d="m224 432.5h.2l1.3-.4-.2-.3-1.3.4" fill="#02e49b"/><path d="m111.7 236s.6.6 1 0l2.1-.2.2.8-.6.2c-.18.05-.31.21-.3.4v6.2h-2.7l-1.3-2.9c-.1-.15-.13-.33-.1-.5l.6-3.7c0-.17.13-.3.3-.3z" fill="#9ff5d9"/><path d="m245 164.4-3-.9c-.1 0-.1-.1-.1-.2v-2.8h-.6l-.2 3.4v.2l2.9 1.7.3 5.5v2.6h2.7l-.2-4.5.5 1.5v3h.8v-3l-.9-4.5c-.08-.45-.33-.84-.7-1.1-.31-.19-.55-.47-.7-.8h-.1l-.3.3z" fill="#fff"/><path d="m245.3 164.9c0 .2.04.41.1.6.2-.09.32-.29.3-.5z" fill="#02e49b"/><path d="m245.4 165.5-.4.6.4 3.1.5-2.9z" fill="#02e49b"/><path d="m212.7 97 .8-.2.5.6c.43.63.7 1.35.8 2.1l.5 5.6h-3.4c-.21-1.73-.21-3.47 0-5.2-.01-.18-.08-.36-.2-.5l-1.9-1.3-.4-.3-1.5-2.7.5-.4 1.3 2.2c.09.29.31.51.6.6l1.9.5z" fill="#1ee7a6"/><path d="m174.4 97.1s-.8-.7-.4-1.1.5-1.9-1.1-2c0 0-1.4.5 0 2.4 0 0 0 1.1-.6 1.3s-1 .8 0 2.3l2.1 6.3h2.1s1.2 2.3.7 3.9c0 0 4.1.8 5.9-.9s1-1.6 1-1.6l-6.4-3.4-2.1-5.5 2 1.4 2.2-2.2-.6-.5-1.5 1.7z" fill="#2b393f"/><path d="m165.1 98.4s1.3-1-.4-1.6c0 0-1.5.4-.4 1.6.17.76.13 1.55-.1 2.3 0 0-1.4 1-.9 5.3l-1.4 4.9s1.3 1.2 1.8.9v5.8h-1.5l.2.8h2.1v-6.7l.8-.2.4 6.9h1.7v-.6h-1.1l-.2-6.3s1.7-.5 1.9-.9-1.7-2.7-1.5-4-.1-5.1-.5-5.9c-.64-.59-.97-1.44-.9-2.3z" fill="#2b393f"/><path d="m169.4 109.5 13.2 7.6v1.8l-13.2-7.6z" fill="#d1faed"/><path d="m206.6 102.9-24 14.2v1.8l24-14.4z" fill="#fff"/><path d="m183.6 129.8-1 .6v-11.5l1-.6z" fill="#fff"/><path d="m181.7 129.9.9.5v-11.5l-.9-.5z" fill="#53edbb"/><path d="m206.6 116-1 .6v-11.5l1-.6z" fill="#fff"/><path d="m204.7 116 .9.5v-11.4l-.9.5z" fill="#53edbb"/><path d="m171.3 122.7-1 .6v-11.5l1 .6z" fill="#fff"/><path d="m169.4 122.8.9.5v-11.5l-.9-.5z" fill="#53edbb"/><path d="m169.4 109.5 13.2 7.6 24-14.2-13.4-7.5z" fill="#fff"/><path d="m173.5 117-6 3.5c-.12.14-.19.32-.2.5v6.9c.01.18.08.36.2.5l6 3.4h.6l5.9-3.5c.2-.09.32-.29.3-.5v-6.8c-.01-.18-.08-.36-.2-.5l-6-3.5z" fill="#d1faed"/><path d="m206.9 109.3-6 3.5c-.2.09-.32.29-.3.5v6.9c-.02.21.1.41.3.5l6 3.4c.09.14.28.18.42.08.03-.02.06-.05.08-.08l6-3.5c.2-.09.32-.29.3-.5v-6.8c.02-.21-.1-.41-.3-.5l-6-3.5z" fill="#d1faed"/><path d="m201.9 101.9s-2.1-1.8 0-2.3c0 0 1.2 0 1 2.3l.9.8c.9.9 1.59 1.99 2 3.2l1 3.3c.18.47.02 1.01-.4 1.3-.58.35-1.23.59-1.9.7h-3.2c-.17 0-.3.13-.3.3l2.6 6.4-1.7.6.5-1.2-2.8-6.4c-.1-.2 0-.3.2-.3l2.9-.5c.29-.12.48-.39.5-.7l-.7-5.2-.7 2.5c-.1.29-.4.47-.7.4l-2.6-.9c-.29-.13-.51-.39-.6-.7l-1.3-3.4h.6l1.1 2.8c.11.31.37.54.7.6l1.4.5c.29.03.57-.13.7-.4.35-1.21.62-2.45.8-3.7z" fill="#2b393f"/><path d="m200.3 113.2-6 3.5c-.12.14-.19.32-.2.5v6.9c.01.18.08.36.2.5l6 3.4h.6l5.9-3.5c.2-.09.32-.29.3-.5v-6.8c-.01-.18-.08-.36-.2-.5l-6-3.5c-.19-.11-.41-.11-.6 0z" fill="#d1faed"/><path d="m194.6 108.1s-1.2-2.3.6-2.3c0 0 1 .1.6 2.3.93 1.08 1.4 2.48 1.3 3.9l-.4 4.5h-3.1s.1 4.5 0 5.7h-1.8v-.5h1l-.6-3.8-3.3 3.1-1.3-1.3.6-.5.8.8 3.3-5.9h3l-.4-2.6h-1l-1.1.9h-3v-.8h2.4l2.3-2.4s.4-.1.1-1.1z" fill="#2b393f"/><path d="m190.5 119.1-6 3.6c-.13.09-.2.24-.2.4v6.9c-.02.21.1.41.3.5l5.9 3.5h.6l6-3.5c.12-.14.19-.32.2-.5v-6.9c0-.2-.2-.3-.3-.5l-6-3.5z" fill="#53edbb"/><path d="m193 584.6c1.57 1.55 2.4 3.7 2.3 5.9v13.5h-3.3v-12.3c0-2.2-.5-3.8-1.4-4.7-1-1.02-2.38-1.56-3.8-1.5-1.11-.02-2.2.22-3.2.7-.99.59-1.81 1.41-2.4 2.4-.65 1.3-.96 2.75-.9 4.2v11.2h-3.4v-20.4l3.1 1.3v1.4c.62-1.23 1.64-2.22 2.9-2.8 1.28-.62 2.68-.92 4.1-.9 2.19-.15 4.34.57 6 2z" fill="#003"/><path d="m219.2 594.7h-15.8c.07 1.87.82 3.64 2.1 5 1.27 1.19 2.97 1.81 4.7 1.7 1.35.09 2.7-.19 3.9-.8.96-.48 1.71-1.3 2.1-2.3l2.8 1.5c-.81 1.41-1.99 2.59-3.4 3.4-1.67.86-3.53 1.28-5.4 1.2-2.77.12-5.45-.93-7.4-2.9-1.8-1.9-2.7-4.6-2.7-8s.8-6.1 2.5-8 4.2-2.9 7.4-2.9c1.79-.04 3.55.4 5.1 1.3 1.4.81 2.52 2.03 3.2 3.5.74 1.56 1.11 3.27 1.1 5-.02.77-.08 1.54-.2 2.3zm-13.7-7.6c-1.17 1.27-1.9 2.88-2.1 4.6h12.7c-.11-1.7-.77-3.32-1.9-4.6-1.11-1.11-2.64-1.69-4.2-1.6-1.66-.1-3.28.48-4.5 1.6z" fill="#003"/><path d="m241.6 585.4c1.8 2 2.7 4.6 2.7 8.1.16 2.91-.81 5.78-2.7 8-4.21 3.88-10.69 3.88-14.9 0-1.8-1.9-2.7-4.6-2.7-8-.15-2.94.81-5.84 2.7-8.1 4.21-3.88 10.69-3.88 14.9 0zm-12.4 2.2c-1.32 1.68-1.99 3.77-1.9 5.9-.05 2.09.62 4.14 1.9 5.8 1.21 1.51 3.07 2.33 5 2.2 1.92.08 3.76-.73 5-2.2 1.29-1.65 1.93-3.71 1.8-5.8.14-2.14-.54-4.25-1.9-5.9-1.21-1.45-3.01-2.26-4.9-2.2-1.92-.08-3.76.73-5 2.2z" fill="#003"/><path d="m131.3 578.5v29.2l19 6.8v-29.4l20.4-7.6-18.6-6.6z" fill="#00e599"/><path d="m151.8 586.2v15.7l18.9 6.8v-29.5z" fill="#00af92"/></svg>