<?xml version="1.0" encoding="UTF-8"?>
<svg width="476px" height="22px" viewBox="0 0 476 22" version="1.1" xmlns="http://www.w3.org/2000/svg" xmlns:xlink="http://www.w3.org/1999/xlink">
    <title>ALL IN ONE - ALL IN</title>
    <g id="Homepage" stroke="none" stroke-width="1" fill="none" fill-rule="evenodd">
        <g id="HOMEPAGE-PT-0.1" transform="translate(-737.000000, -930.000000)" fill-rule="nonzero">
            <g id="Icon-bar" transform="translate(-0.500000, 890.500000)">
                <g id="ALL-IN-ONE---ALL-IN" transform="translate(738.198750, 40.070000)">
                    <path d="M5.017,19.43 L6.351,15.109 L12.963,15.109 L14.268,19.43 L19.401,19.43 L12.702,0.29 L6.728,0.29 L5.68434189e-14,19.43 L5.017,19.43 Z M11.919,11.716 L7.395,11.716 L8.845,7.105 L9.628,4.118 L9.686,4.118 L10.527,7.134 L11.919,11.716 Z M41.6585,19.43 L41.6585,15.573 L32.0595,15.573 L32.0595,0.29 L27.0715,0.29 L27.0715,19.43 L41.6585,19.43 Z M64.554,19.43 L64.554,15.573 L54.955,15.573 L54.955,0.29 L49.967,0.29 L49.967,19.43 L64.554,19.43 Z" id="ALL" fill="#00D790"></path>
                    <path d="M90.915,19.43 L90.915,0.29 L85.927,0.29 L85.927,19.43 L90.915,19.43 Z M104.9945,19.43 L104.9945,9.773 L104.8785,6.177 L104.9075,6.177 L106.3575,9.077 L112.3025,19.43 L117.8415,19.43 L117.8415,0.29 L113.4335,0.29 L113.4335,9.947 L113.5495,13.543 L113.5205,13.543 L112.0705,10.643 L106.1255,0.29 L100.5865,0.29 L100.5865,19.43 L104.9945,19.43 Z M149.8285,19.72 C151.761833,19.72 153.429333,19.3285 154.831,18.5455 C156.232667,17.7625 157.3105,16.6315 158.0645,15.1525 C158.8185,13.6735 159.1955,11.9093333 159.1955,9.86 C159.1955,7.81066667 158.8185,6.0465 158.0645,4.5675 C157.3105,3.0885 156.232667,1.9575 154.831,1.1745 C153.429333,0.3915 151.761833,-3.26849658e-13 149.8285,-3.26849658e-13 C147.895167,-3.26849658e-13 146.222833,0.3915 144.8115,1.1745 C143.400167,1.9575 142.3175,3.0885 141.5635,4.5675 C140.8095,6.0465 140.4325,7.81066667 140.4325,9.86 C140.4325,11.9093333 140.8095,13.6735 141.5635,15.1525 C142.3175,16.6315 143.400167,17.7625 144.8115,18.5455 C146.222833,19.3285 147.895167,19.72 149.8285,19.72 Z M149.8285,15.805 C148.4365,15.805 147.373167,15.3023333 146.6385,14.297 C145.903833,13.2916667 145.5365,11.8126667 145.5365,9.86 C145.5365,7.90733333 145.903833,6.42833333 146.6385,5.423 C147.373167,4.41766667 148.4365,3.915 149.8285,3.915 C151.2205,3.915 152.279,4.41766667 153.004,5.423 C153.729,6.42833333 154.0915,7.90733333 154.0915,9.86 C154.0915,11.8126667 153.729,13.2916667 153.004,14.297 C152.279,15.3023333 151.2205,15.805 149.8285,15.805 Z M172.463,19.43 L172.463,9.773 L172.347,6.177 L172.376,6.177 L173.826,9.077 L179.771,19.43 L185.31,19.43 L185.31,0.29 L180.902,0.29 L180.902,9.947 L181.018,13.543 L180.989,13.543 L179.539,10.643 L173.594,0.29 L168.055,0.29 L168.055,19.43 L172.463,19.43 Z M210.2645,19.43 L210.2645,15.573 L199.9695,15.573 L199.9695,11.658 L207.8575,11.658 L207.8575,8.033 L199.9695,8.033 L199.9695,4.147 L209.8875,4.147 L209.8875,0.29 L194.9815,0.29 L194.9815,19.43 L210.2645,19.43 Z M243.2955,13.688 L243.2955,9.657 L232.6815,9.657 L232.6815,13.688 L243.2955,13.688 Z" id="INONE-" fill="#000033"></path>
                    <path d="M269.3085,19.43 L270.6425,15.109 L277.2545,15.109 L278.5595,19.43 L283.6925,19.43 L276.9935,0.29 L271.0195,0.29 L264.2915,19.43 L269.3085,19.43 Z M276.2105,11.716 L271.6865,11.716 L273.1365,7.105 L273.9195,4.118 L273.9775,4.118 L274.8185,7.134 L276.2105,11.716 Z M305.95,19.43 L305.95,15.573 L296.351,15.573 L296.351,0.29 L291.363,0.29 L291.363,19.43 L305.95,19.43 Z M328.8455,19.43 L328.8455,15.573 L319.2465,15.573 L319.2465,0.29 L314.2585,0.29 L314.2585,19.43 L328.8455,19.43 Z" id="ALL" fill="#00D790"></path>
                    <path d="M355.2065,19.43 L355.2065,0.29 L350.2185,0.29 L350.2185,19.43 L355.2065,19.43 Z M369.286,19.43 L369.286,9.773 L369.17,6.177 L369.199,6.177 L370.649,9.077 L376.594,19.43 L382.133,19.43 L382.133,0.29 L377.725,0.29 L377.725,9.947 L377.841,13.543 L377.812,13.543 L376.362,10.643 L370.417,0.29 L364.878,0.29 L364.878,19.43 L369.286,19.43 Z M409.944,19.43 L409.944,9.773 L409.828,6.177 L409.857,6.177 L411.307,9.077 L417.252,19.43 L422.791,19.43 L422.791,0.29 L418.383,0.29 L418.383,9.947 L418.499,13.543 L418.47,13.543 L417.02,10.643 L411.075,0.29 L405.536,0.29 L405.536,19.43 L409.944,19.43 Z M447.7455,19.43 L447.7455,15.573 L437.4505,15.573 L437.4505,11.658 L445.3385,11.658 L445.3385,8.033 L437.4505,8.033 L437.4505,4.147 L447.3685,4.147 L447.3685,0.29 L432.4625,0.29 L432.4625,19.43 L447.7455,19.43 Z M464.609,19.72 C466.542333,19.72 468.209833,19.3285 469.6115,18.5455 C471.013167,17.7625 472.091,16.6315 472.845,15.1525 C473.599,13.6735 473.976,11.9093333 473.976,9.86 C473.976,7.81066667 473.599,6.0465 472.845,4.5675 C472.091,3.0885 471.013167,1.9575 469.6115,1.1745 C468.209833,0.3915 466.542333,-3.26849658e-13 464.609,-3.26849658e-13 C462.675667,-3.26849658e-13 461.003333,0.3915 459.592,1.1745 C458.180667,1.9575 457.098,3.0885 456.344,4.5675 C455.59,6.0465 455.213,7.81066667 455.213,9.86 C455.213,11.9093333 455.59,13.6735 456.344,15.1525 C457.098,16.6315 458.180667,17.7625 459.592,18.5455 C461.003333,19.3285 462.675667,19.72 464.609,19.72 Z M464.609,15.805 C463.217,15.805 462.153667,15.3023333 461.419,14.297 C460.684333,13.2916667 460.317,11.8126667 460.317,9.86 C460.317,7.90733333 460.684333,6.42833333 461.419,5.423 C462.153667,4.41766667 463.217,3.915 464.609,3.915 C466.001,3.915 467.0595,4.41766667 467.7845,5.423 C468.5095,6.42833333 468.872,7.90733333 468.872,9.86 C468.872,11.8126667 468.5095,13.2916667 467.7845,14.297 C467.0595,15.3023333 466.001,15.805 464.609,15.805 Z" id="INNEO" fill="#000033"></path>
                </g>
            </g>
        </g>
    </g>
</svg>