<?xml version="1.0" encoding="UTF-8"?>
<svg width="93px" height="108px" viewBox="0 0 93 108" version="1.1" xmlns="http://www.w3.org/2000/svg" xmlns:xlink="http://www.w3.org/1999/xlink">
    <title>Best-In-Class Tooling HEX ICON</title>
    <g id="Homepage" stroke="none" stroke-width="1" fill="none" fill-rule="evenodd">
        <g id="HOMEPAGE-PT-0.1" transform="translate(-1253.000000, -1003.000000)" stroke="#000033">
            <g id="Best-In-Class-Tooling-HEX-ICON" transform="translate(1248.125000, 1005.500000)">
                <polygon id="Polygon" stroke-width="2.88" points="51.5 0 96.1003083 25.75 96.1003083 77.25 51.5 103 6.89969171 77.25 6.89969171 25.75"></polygon>
                <g id="205" transform="translate(32.071429, 32.000000)" stroke-width="1.5">
                    <path d="M19.9353,28.36403 L18.3988,26.82753 C16.2288,27.09353 13.9629,26.39353 12.2983,24.72893 C10.6337,23.06433 9.9337,20.79913 10.2004,18.62913 L8.6576,17.08633 C8.3412,17.12763 8.0213,17.14793 7.7014,17.14793 C6.1607,17.14793 4.69,16.68033 3.4538,15.81023 L2.13162821e-14,16.41503 L0.0042,22.62823 L3.6743,23.27573 C3.9886,24.44193 4.4499,25.57803 5.0659,26.65183 L2.9302,29.70173 L7.322,34.09353 L10.3796,31.95783 C11.4499,32.57033 12.5811,33.03513 13.7522,33.35293 L14.3955,37.01953 L20.6045,37.01953 L21.2163,33.57203 C20.1565,32.05933 19.6973,30.19943 19.9353,28.36403" id="Fill-1" stroke-linecap="round"></path>
                    <path d="M33.3292,13.76753 C33.0114,12.60483 32.5466,11.47293 31.9341,10.40333 L34.0698,7.34503 L29.678,2.95393 L26.6281,5.08963 C25.5585,4.47713 24.4266,4.01233 23.2555,3.69453 L22.6087,0.02373 L16.3913,0.02373 L15.7837,3.47123 C16.8435,4.98393 17.302,6.84453 17.0633,8.68063 L18.6068,10.22413 C20.7768,9.95743 23.0413,10.65813 24.7052,12.32203 C26.3691,13.98593 27.0691,16.24973 26.8031,18.41903 L27.3148,18.93073 L28.3417,19.95833 C28.6588,19.91703 28.9787,19.89603 29.3,19.89603 C30.8449,19.89603 32.3184,20.36643 33.556,21.23933 L36.9958,20.62823 L37,14.41503 L33.3292,13.76753" id="Fill-2"></path>
                    <path d="M31.7902,23.88853 C30.7703,23.08073 29.5341,22.67753 28.2993,22.67753 C27.7799,22.67753 27.2598,22.74893 26.7565,22.89243 L14.1292,10.26513 C14.6122,8.56763 14.2811,6.68533 13.1359,5.23563 C13.0008,5.06343 12.8531,4.89823 12.6949,4.73933 C12.5626,4.60703 12.4247,4.48243 12.2833,4.36623 C11.2473,3.51503 9.9775,3.09083 8.7091,3.09083 C8.4704,3.09083 8.231,3.10553 7.9937,3.13563 C7.6402,3.18043 7.2902,3.25883 6.95,3.37083 L10.5571,6.98213 L6.9612,10.57803 L3.3506,6.96743 C3.2372,7.31253 3.1581,7.66393 3.1133,8.01883 C2.9243,9.51613 3.3359,11.07503 4.346,12.30563 C4.4622,12.44633 4.5861,12.58353 4.7184,12.71583 C4.8773,12.87473 5.0432,13.02173 5.2154,13.15753 C6.2346,13.96323 7.468,14.36643 8.7014,14.36643 C9.2208,14.36643 9.7402,14.29503 10.2421,14.15223 L22.8694,26.77953 C22.3864,28.47843 22.7203,30.36143 23.8676,31.81043 C24.002,31.98123 24.1483,32.14573 24.3058,32.30323 C24.4395,32.43693 24.5788,32.56293 24.7223,32.67983 C25.7569,33.52893 27.0239,33.95313 28.2902,33.95313 C28.5275,33.95313 28.7648,33.93843 29.0014,33.90833 C29.3577,33.86353 29.7105,33.78443 30.0542,33.67103 L26.4436,30.06043 L30.0395,26.46453 L33.6501,30.07513 C33.7628,29.73283 33.8412,29.38143 33.886,29.02723 C34.0757,27.53273 33.6676,25.97383 32.6589,24.74323 C32.542,24.59973 32.416,24.46043 32.2823,24.32673 C32.1248,24.16923 31.961,24.02363 31.7902,23.88853 Z" id="Fill-3" stroke-linecap="round"></path>
                </g>
            </g>
        </g>
    </g>
</svg>