<svg width="1952" height="856" viewBox="0 0 1952 856" fill="none" xmlns="http://www.w3.org/2000/svg">
<rect width="1952" height="856" fill="#F3F8FA" fill-opacity="0.91"/>
<mask id="mask0" style="mask-type:alpha" maskUnits="userSpaceOnUse" x="0" y="0" width="1952" height="856">
<rect width="1952" height="856" fill="#F3F8FA" fill-opacity="0.91"/>
</mask>
<g mask="url(#mask0)">
<g opacity="0.15">
<path d="M1473.07 -21.7993L1521.17 17.8705L1510.86 79.3593L1452.46 101.178L1404.36 61.5086L1414.67 0.0197346L1473.07 -21.7993Z" fill="url(#paint0_linear)"/>
<path d="M1473.07 -21.7993L1521.17 17.8705L1510.86 79.3593L1452.46 101.178L1404.36 61.5086L1414.67 0.0197346L1473.07 -21.7993Z" fill="white"/>
<path d="M1473.07 -21.7993L1521.17 17.8705L1510.86 79.3593L1452.46 101.178L1404.36 61.5086L1414.67 0.0197346L1473.07 -21.7993Z" stroke="#00E599"/>
</g>
<g opacity="0.15">
<path d="M1284.98 -53.3267L1333.08 -13.6569L1322.78 47.832L1264.37 69.6511L1216.27 29.9813L1226.58 -31.5076L1284.98 -53.3267Z" fill="url(#paint1_linear)"/>
<path d="M1284.98 -53.3267L1333.08 -13.6569L1322.78 47.832L1264.37 69.6511L1216.27 29.9813L1226.58 -31.5076L1284.98 -53.3267Z" fill="white"/>
<path d="M1284.98 -53.3267L1333.08 -13.6569L1322.78 47.832L1264.37 69.6511L1216.27 29.9813L1226.58 -31.5076L1284.98 -53.3267Z" stroke="#00E599"/>
</g>
<g opacity="0.02">
<path d="M1096.9 -84.8501L1145 -45.1803L1134.69 16.3086L1076.29 38.1277L1028.19 -1.54216L1038.5 -63.031L1096.9 -84.8501Z" fill="url(#paint2_linear)"/>
<path d="M1096.9 -84.8501L1145 -45.1803L1134.69 16.3086L1076.29 38.1277L1028.19 -1.54216L1038.5 -63.031L1096.9 -84.8501Z" fill="white"/>
<path d="M1096.9 -84.8501L1145 -45.1803L1134.69 16.3086L1076.29 38.1277L1028.19 -1.54216L1038.5 -63.031L1096.9 -84.8501Z" stroke="#00E599"/>
</g>
<g opacity="0.15">
<path d="M1658.24 27.0837L1692.76 55.5526L1685.37 99.6799L1643.45 115.338L1608.93 86.8694L1616.33 42.7421L1658.24 27.0837Z" fill="url(#paint3_linear)"/>
<path d="M1658.24 27.0837L1692.76 55.5526L1685.37 99.6799L1643.45 115.338L1608.93 86.8694L1616.33 42.7421L1658.24 27.0837Z" fill="#F1F5F6"/>
<path d="M1658.24 27.0837L1692.76 55.5526L1685.37 99.6799L1643.45 115.338L1608.93 86.8694L1616.33 42.7421L1658.24 27.0837Z" stroke="#00E599"/>
</g>
<g opacity="0.15">
<path d="M1470.16 -4.43587L1504.68 24.033L1497.28 68.1604L1455.37 83.8188L1420.85 55.3498L1428.25 11.2225L1470.16 -4.43587Z" fill="url(#paint4_linear)"/>
<path d="M1470.16 -4.43587L1504.68 24.033L1497.28 68.1604L1455.37 83.8188L1420.85 55.3498L1428.25 11.2225L1470.16 -4.43587Z" fill="#F1F5F6"/>
<path d="M1470.16 -4.43587L1504.68 24.033L1497.28 68.1604L1455.37 83.8188L1420.85 55.3498L1428.25 11.2225L1470.16 -4.43587Z" stroke="#00E599"/>
</g>
<g opacity="0.15">
<path d="M1282.08 -35.9632L1316.59 -7.4943L1309.2 36.633L1267.28 52.2914L1232.77 23.8225L1240.16 -20.3048L1282.08 -35.9632Z" fill="url(#paint5_linear)"/>
<path d="M1282.08 -35.9632L1316.59 -7.4943L1309.2 36.633L1267.28 52.2914L1232.77 23.8225L1240.16 -20.3048L1282.08 -35.9632Z" fill="#F1F5F6"/>
<path d="M1282.08 -35.9632L1316.59 -7.4943L1309.2 36.633L1267.28 52.2914L1232.77 23.8225L1240.16 -20.3048L1282.08 -35.9632Z" stroke="#00E599"/>
</g>
<path d="M1741.5 688L1930.5 720.5" stroke="#00E599" stroke-dasharray="6 6"/>
<path d="M1396 433L1208.5 400L1175 597.5L1363 628.5L1396 433Z" stroke="#00E599" stroke-dasharray="6 6"/>
<path d="M2004.59 268.087L2052.68 307.757L2042.38 369.246L1983.97 391.065L1935.88 351.395L1946.18 289.906L2004.59 268.087Z" fill="url(#paint6_linear)"/>
<path d="M2004.59 268.087L2052.68 307.757L2042.38 369.246L1983.97 391.065L1935.88 351.395L1946.18 289.906L2004.59 268.087Z" fill="#F5F9FA"/>
<path d="M2004.59 268.087L2052.68 307.757L2042.38 369.246L1983.97 391.065L1935.88 351.395L1946.18 289.906L2004.59 268.087Z" stroke="#BFF8E5"/>
<path d="M1971.85 463.408L2019.95 503.077L2009.64 564.566L1951.24 586.385L1903.14 546.716L1913.44 485.227L1971.85 463.408Z" stroke="#BFF8E5"/>
<g opacity="0.25">
<path d="M1783.76 431.884L1831.86 471.554L1821.55 533.043L1763.15 554.862L1715.05 515.192L1725.36 453.703L1783.76 431.884Z" fill="url(#paint7_linear)"/>
<path d="M1783.76 431.884L1831.86 471.554L1821.55 533.043L1763.15 554.862L1715.05 515.192L1725.36 453.703L1783.76 431.884Z" fill="white"/>
<path d="M1783.76 431.884L1831.86 471.554L1821.55 533.043L1763.15 554.862L1715.05 515.192L1725.36 453.703L1783.76 431.884Z" stroke="#00E599"/>
</g>
<g opacity="0.15">
<path d="M1661.15 9.72018L1709.25 49.39L1698.94 110.879L1640.54 132.698L1592.44 93.0282L1602.75 31.5393L1661.15 9.72018Z" fill="url(#paint8_linear)"/>
<path d="M1661.15 9.72018L1709.25 49.39L1698.94 110.879L1640.54 132.698L1592.44 93.0282L1602.75 31.5393L1661.15 9.72018Z" fill="white"/>
<path d="M1661.15 9.72018L1709.25 49.39L1698.94 110.879L1640.54 132.698L1592.44 93.0282L1602.75 31.5393L1661.15 9.72018Z" stroke="#00E599"/>
</g>
<g opacity="0.15">
<path d="M1849.18 41.8257L1897.28 81.4955L1886.97 142.984L1828.57 164.803L1780.47 125.134L1790.78 63.6447L1849.18 41.8257Z" fill="url(#paint9_linear)"/>
<path d="M1849.18 41.8257L1897.28 81.4955L1886.97 142.984L1828.57 164.803L1780.47 125.134L1790.78 63.6447L1849.18 41.8257Z" fill="white"/>
<path d="M1849.18 41.8257L1897.28 81.4955L1886.97 142.984L1828.57 164.803L1780.47 125.134L1790.78 63.6447L1849.18 41.8257Z" stroke="#00E599"/>
</g>
<g opacity="0.25">
<path d="M1595.68 400.361L1643.78 440.031L1633.47 501.52L1575.07 523.339L1526.97 483.669L1537.28 422.18L1595.68 400.361Z" fill="url(#paint10_linear)"/>
<path d="M1595.68 400.361L1643.78 440.031L1633.47 501.52L1575.07 523.339L1526.97 483.669L1537.28 422.18L1595.68 400.361Z" fill="#F5F9FA"/>
<path d="M1595.68 400.361L1643.78 440.031L1633.47 501.52L1575.07 523.339L1526.97 483.669L1537.28 422.18L1595.68 400.361Z" stroke="#00E599"/>
</g>
<path d="M1252.25 141.994L1300.34 181.663L1290.04 243.152L1231.63 264.971L1183.54 225.302L1193.84 163.813L1252.25 141.994Z" stroke="#BFF8E5"/>
<path opacity="0.25" d="M1064.16 110.466L1112.26 150.136L1101.96 211.625L1043.55 233.444L995.455 193.774L1005.76 132.285L1064.16 110.466Z" stroke="#00E599"/>
<g opacity="0.05">
<path d="M2001.67 285.451L2036.19 313.92L2028.79 358.047L1986.88 373.705L1952.36 345.237L1959.76 301.109L2001.67 285.451Z" fill="url(#paint11_linear)"/>
<path d="M2001.67 285.451L2036.19 313.92L2028.79 358.047L1986.88 373.705L1952.36 345.237L1959.76 301.109L2001.67 285.451Z" fill="#010129"/>
<path d="M2001.67 285.451L2036.19 313.92L2028.79 358.047L1986.88 373.705L1952.36 345.237L1959.76 301.109L2001.67 285.451Z" stroke="#00E599"/>
</g>
<path d="M1968.94 480.771L2003.46 509.24L1996.06 553.367L1954.15 569.026L1919.63 540.557L1927.03 496.43L1968.94 480.771Z" fill="url(#paint12_linear)"/>
<path d="M1968.94 480.771L2003.46 509.24L1996.06 553.367L1954.15 569.026L1919.63 540.557L1927.03 496.43L1968.94 480.771Z" fill="#F1F5F6"/>
<path d="M1968.94 480.771L2003.46 509.24L1996.06 553.367L1954.15 569.026L1919.63 540.557L1927.03 496.43L1968.94 480.771Z" stroke="#00E599"/>
<path d="M1780.85 449.248L1815.37 477.717L1807.97 521.844L1766.06 537.502L1731.54 509.033L1738.94 464.906L1780.85 449.248Z" fill="url(#paint13_linear)"/>
<path d="M1780.85 449.248L1815.37 477.717L1807.97 521.844L1766.06 537.502L1731.54 509.033L1738.94 464.906L1780.85 449.248Z" fill="#F1F5F6"/>
<path d="M1780.85 449.248L1815.37 477.717L1807.97 521.844L1766.06 537.502L1731.54 509.033L1738.94 464.906L1780.85 449.248Z" stroke="#00E599"/>
<g opacity="0.15">
<path d="M1846.27 59.1891L1880.79 87.658L1873.39 131.785L1831.48 147.444L1796.96 118.975L1804.36 74.8475L1846.27 59.1891Z" fill="url(#paint14_linear)"/>
<path d="M1846.27 59.1891L1880.79 87.658L1873.39 131.785L1831.48 147.444L1796.96 118.975L1804.36 74.8475L1846.27 59.1891Z" fill="#F1F5F6"/>
<path d="M1846.27 59.1891L1880.79 87.658L1873.39 131.785L1831.48 147.444L1796.96 118.975L1804.36 74.8475L1846.27 59.1891Z" stroke="#00E599"/>
</g>
<path d="M1061.26 127.834L1095.77 156.303L1088.38 200.43L1046.46 216.088L1011.95 187.619L1019.34 143.492L1061.26 127.834Z" fill="url(#paint15_linear)"/>
<path d="M1061.26 127.834L1095.77 156.303L1088.38 200.43L1046.46 216.088L1011.95 187.619L1019.34 143.492L1061.26 127.834Z" fill="#F1F5F6"/>
<path d="M1061.26 127.834L1095.77 156.303L1088.38 200.43L1046.46 216.088L1011.95 187.619L1019.34 143.492L1061.26 127.834Z" stroke="#00E599"/>
<path d="M1374.86 564.154L1422.96 603.824L1412.65 665.312L1354.25 687.132L1306.15 647.462L1316.46 585.973L1374.86 564.154Z" fill="#F5F9FA" stroke="#BFF8E5"/>
<path d="M1219.51 337.306L1267.61 376.976L1257.3 438.465L1198.9 460.284L1150.8 420.614L1161.11 359.125L1219.51 337.306Z" fill="#F5F9FA" stroke="#BFF8E5"/>
<path d="M1186.77 532.626L1234.87 572.296L1224.57 633.785L1166.16 655.604L1118.06 615.934L1128.37 554.446L1186.77 532.626Z" fill="#F5F9FA" stroke="#BFF8E5"/>
<path d="M1371.95 581.513L1406.46 609.982L1399.07 654.11L1357.16 669.768L1322.64 641.299L1330.03 597.172L1371.95 581.513Z" fill="url(#paint16_linear)"/>
<path d="M1371.95 581.513L1406.46 609.982L1399.07 654.11L1357.16 669.768L1322.64 641.299L1330.03 597.172L1371.95 581.513Z" fill="#F1F5F6"/>
<path d="M1371.95 581.513L1406.46 609.982L1399.07 654.11L1357.16 669.768L1322.64 641.299L1330.03 597.172L1371.95 581.513Z" stroke="#00E599"/>
<path d="M1216.6 354.67L1251.12 383.139L1243.72 427.266L1201.81 442.924L1167.29 414.455L1174.69 370.328L1216.6 354.67Z" fill="url(#paint17_linear)"/>
<path d="M1216.6 354.67L1251.12 383.139L1243.72 427.266L1201.81 442.924L1167.29 414.455L1174.69 370.328L1216.6 354.67Z" fill="#F1F5F6"/>
<path d="M1216.6 354.67L1251.12 383.139L1243.72 427.266L1201.81 442.924L1167.29 414.455L1174.69 370.328L1216.6 354.67Z" stroke="#00E599"/>
<path d="M1183.87 549.99L1218.39 578.459L1210.99 622.586L1169.08 638.245L1134.56 609.776L1141.96 565.648L1183.87 549.99Z" fill="url(#paint18_linear)"/>
<path d="M1183.87 549.99L1218.39 578.459L1210.99 622.586L1169.08 638.245L1134.56 609.776L1141.96 565.648L1183.87 549.99Z" fill="#F5F9FA"/>
<path d="M1183.87 549.99L1218.39 578.459L1210.99 622.586L1169.08 638.245L1134.56 609.776L1141.96 565.648L1183.87 549.99Z" stroke="#00E599"/>
<path d="M1407.6 368.837L1455.7 408.507L1445.39 469.996L1386.99 491.815L1338.89 452.145L1349.19 390.656L1407.6 368.837Z" fill="#F5F9FA" stroke="#BFF8E5"/>
<path d="M1404.69 386.197L1439.2 414.666L1431.81 458.793L1389.89 474.452L1355.38 445.983L1362.77 401.855L1404.69 386.197Z" fill="url(#paint19_linear)"/>
<path d="M1404.69 386.197L1439.2 414.666L1431.81 458.793L1389.89 474.452L1355.38 445.983L1362.77 401.855L1404.69 386.197Z" fill="#F5F9FA"/>
<path d="M1404.69 386.197L1439.2 414.666L1431.81 458.793L1389.89 474.452L1355.38 445.983L1362.77 401.855L1404.69 386.197Z" stroke="#00E599"/>
<path d="M1209.27 392.972L1213.13 390.238L1210.39 386.384L1209.48 387.03L1211.59 389.976L1208.63 392.062L1209.27 392.972Z" fill="#000231"/>
<path d="M1206.12 411.497L1209.98 408.763L1207.24 404.91L1206.33 405.555L1208.44 408.501L1205.48 410.588L1206.12 411.497Z" fill="#000231"/>
<path d="M1187.88 380.808L1186.08 391.416L1192.45 395.04L1194.27 384.339L1202.05 382.849L1195.82 379.302L1187.88 380.808V380.808Z" fill="#00E599"/>
<path d="M1194.69 384.802L1193.71 390.57L1200.13 394.209L1201.96 383.393L1194.69 384.802V384.802Z" fill="#00AF92"/>
<path fill-rule="evenodd" clip-rule="evenodd" d="M1189.94 414.309L1182.82 410.351L1184.6 399.906L1192.66 398.459L1199.06 402.013L1197.23 413.032L1190.78 409.366L1189.94 414.309ZM1183.59 409.957L1189.37 413.186L1191.07 403.175L1197.6 401.958L1192.51 399.119L1185.2 400.444L1183.59 409.957ZM1196.72 411.925L1190.9 408.621L1191.72 403.81L1198.27 402.607L1196.72 411.925Z" fill="#000231"/>
<path d="M1220.81 386.403L1219.01 397.012L1225.38 400.636L1227.2 389.935L1234.99 388.444L1228.75 384.897L1220.81 386.403V386.403Z" fill="#00E599"/>
<path d="M1227.62 390.397L1226.64 396.165L1233.06 399.804L1234.9 388.988L1227.62 390.397V390.397Z" fill="#00AF92"/>
<path fill-rule="evenodd" clip-rule="evenodd" d="M1222.88 419.904L1215.76 415.946L1217.54 405.501L1225.59 404.054L1232 407.608L1230.17 418.627L1223.72 414.961L1222.88 419.904ZM1216.53 415.552L1222.31 418.781L1224.01 408.77L1230.54 407.553L1225.45 404.714L1218.14 406.039L1216.53 415.552ZM1229.66 417.52L1223.83 414.216L1224.65 409.405L1231.21 408.202L1229.66 417.52Z" fill="#000231"/>
<path d="M1364.27 619.972L1368.13 617.238L1365.39 613.384L1364.48 614.03L1366.59 616.976L1363.63 619.062L1364.27 619.972Z" fill="#000231"/>
<path d="M1361.12 638.497L1364.98 635.763L1362.24 631.91L1361.33 632.555L1363.44 635.501L1360.48 637.588L1361.12 638.497Z" fill="#000231"/>
<path d="M1342.88 607.808L1341.08 618.416L1347.45 622.04L1349.27 611.339L1357.05 609.849L1350.82 606.302L1342.88 607.808V607.808Z" fill="#00E599"/>
<path d="M1349.69 611.802L1348.71 617.57L1355.13 621.209L1356.96 610.393L1349.69 611.802V611.802Z" fill="#00AF92"/>
<path fill-rule="evenodd" clip-rule="evenodd" d="M1344.94 641.309L1337.82 637.351L1339.6 626.906L1347.66 625.459L1354.06 629.013L1352.23 640.032L1345.78 636.366L1344.94 641.309ZM1338.59 636.957L1344.37 640.186L1346.07 630.175L1352.6 628.958L1347.51 626.119L1340.2 627.444L1338.59 636.957ZM1351.72 638.925L1345.9 635.621L1346.72 630.81L1353.27 629.607L1351.72 638.925Z" fill="#00E599"/>
<path d="M1375.81 613.403L1374.01 624.012L1380.38 627.636L1382.2 616.935L1389.99 615.444L1383.75 611.897L1375.81 613.403V613.403Z" fill="#00E599"/>
<path d="M1382.62 617.397L1381.64 623.165L1388.06 626.804L1389.9 615.988L1382.62 617.397V617.397Z" fill="#00AF92"/>
<path fill-rule="evenodd" clip-rule="evenodd" d="M1377.88 646.904L1370.76 642.946L1372.54 632.501L1380.59 631.054L1387 634.608L1385.17 645.627L1378.72 641.961L1377.88 646.904ZM1371.53 642.552L1377.31 645.781L1379.01 635.77L1385.54 634.553L1380.45 631.714L1373.14 633.039L1371.53 642.552ZM1384.66 644.52L1378.83 641.216L1379.65 636.405L1386.21 635.202L1384.66 644.52Z" fill="#00E599"/>
<path d="M1751.84 626.306L1799.94 665.976L1789.63 727.465L1731.23 749.284L1683.13 709.614L1693.44 648.125L1751.84 626.306Z" fill="#F5F9FA" stroke="#BFF8E5"/>
<path d="M1748.93 643.67L1783.45 672.139L1776.05 716.266L1734.14 731.924L1699.62 703.455L1707.01 659.328L1748.93 643.67Z" fill="url(#paint20_linear)"/>
<path d="M1748.93 643.67L1783.45 672.139L1776.05 716.266L1734.14 731.924L1699.62 703.455L1707.01 659.328L1748.93 643.67Z" fill="#F1F5F6"/>
<path d="M1748.93 643.67L1783.45 672.139L1776.05 716.266L1734.14 731.924L1699.62 703.455L1707.01 659.328L1748.93 643.67Z" stroke="#00E599"/>
<path d="M1939.93 657.837L1988.02 697.507L1977.72 758.996L1919.31 780.815L1871.22 741.145L1881.52 679.656L1939.93 657.837Z" fill="url(#paint21_linear)"/>
<path d="M1939.93 657.837L1988.02 697.507L1977.72 758.996L1919.31 780.815L1871.22 741.145L1881.52 679.656L1939.93 657.837Z" fill="#F5F9FA"/>
<path d="M1939.93 657.837L1988.02 697.507L1977.72 758.996L1919.31 780.815L1871.22 741.145L1881.52 679.656L1939.93 657.837Z" stroke="#BFF8E5"/>
<path d="M1741.6 681.972L1745.46 679.238L1742.72 675.384L1741.81 676.03L1743.91 678.976L1740.96 681.062L1741.6 681.972Z" fill="#000231"/>
<path d="M1738.45 700.497L1742.31 697.763L1739.57 693.91L1738.66 694.555L1740.76 697.501L1737.81 699.588L1738.45 700.497Z" fill="#000231"/>
<path d="M1720.21 669.808L1718.4 680.416L1724.78 684.04L1726.59 673.339L1734.38 671.849L1728.15 668.302L1720.21 669.808V669.808Z" fill="#00E599"/>
<path d="M1727.02 673.802L1726.04 679.57L1732.45 683.209L1734.29 672.393L1727.02 673.802V673.802Z" fill="#00AF92"/>
<path fill-rule="evenodd" clip-rule="evenodd" d="M1722.27 703.309L1715.15 699.351L1716.93 688.906L1724.99 687.459L1731.39 691.013L1729.56 702.032L1723.11 698.366L1722.27 703.309ZM1715.92 698.957L1721.7 702.186L1723.4 692.175L1729.93 690.958L1724.84 688.119L1717.53 689.444L1715.92 698.957ZM1729.05 700.925L1723.23 697.621L1724.04 692.81L1730.6 691.607L1729.05 700.925Z" fill="#00E599"/>
<path d="M1753.14 675.403L1751.34 686.012L1757.71 689.636L1759.53 678.935L1767.32 677.444L1761.08 673.897L1753.14 675.403V675.403Z" fill="#00E599"/>
<path d="M1759.95 679.397L1758.97 685.165L1765.39 688.804L1767.23 677.988L1759.95 679.397V679.397Z" fill="#00AF92"/>
<path fill-rule="evenodd" clip-rule="evenodd" d="M1755.21 708.904L1748.09 704.946L1749.86 694.501L1757.92 693.054L1764.33 696.608L1762.49 707.627L1756.05 703.961L1755.21 708.904ZM1748.86 704.552L1754.64 707.781L1756.34 697.77L1762.87 696.553L1757.78 693.714L1750.47 695.039L1748.86 704.552ZM1761.98 706.52L1756.16 703.216L1756.98 698.405L1763.54 697.202L1761.98 706.52Z" fill="#00E599"/>
<path d="M1936.92 675.396L1971.44 703.865L1964.04 747.992L1922.13 763.651L1887.61 735.182L1895.01 691.055L1936.92 675.396Z" fill="url(#paint22_linear)"/>
<path d="M1936.92 675.396L1971.44 703.865L1964.04 747.992L1922.13 763.651L1887.61 735.182L1895.01 691.055L1936.92 675.396Z" fill="#F5F9FA"/>
<path d="M1936.92 675.396L1971.44 703.865L1964.04 747.992L1922.13 763.651L1887.61 735.182L1895.01 691.055L1936.92 675.396Z" stroke="#00E599"/>
<path d="M1592.73 418.292L1627.31 446.679L1620.02 490.824L1578.14 506.581L1543.56 478.194L1550.85 434.049L1592.73 418.292Z" fill="url(#paint23_linear)"/>
<path d="M1592.73 418.292L1627.31 446.679L1620.02 490.824L1578.14 506.581L1543.56 478.194L1550.85 434.049L1592.73 418.292Z" fill="#F1F5F6"/>
<path d="M1592.73 418.292L1627.31 446.679L1620.02 490.824L1578.14 506.581L1543.56 478.194L1550.85 434.049L1592.73 418.292Z" stroke="#00E599"/>
<path d="M1939.5 727.989C1939.03 730.71 1933.35 731.998 1926.82 730.867C1920.29 729.736 1915.38 726.613 1915.85 723.892C1917.06 716.925 1922 719.882 1928.53 721.014C1935.06 722.145 1940.62 721.515 1939.5 727.989Z" fill="#F1F5F6"/>
<path fill-rule="evenodd" clip-rule="evenodd" d="M1937.38 728.513C1937.87 728.176 1937.99 727.898 1938.02 727.733C1938.27 726.295 1938.1 725.499 1937.86 725.035C1937.62 724.593 1937.18 724.218 1936.35 723.898C1935.49 723.568 1934.37 723.356 1932.95 723.156C1932.52 723.096 1932.07 723.036 1931.6 722.974C1930.55 722.838 1929.42 722.689 1928.27 722.492C1926.94 722.26 1925.66 721.953 1924.51 721.678C1924.2 721.605 1923.91 721.534 1923.62 721.467C1922.21 721.137 1921.1 720.92 1920.19 720.916C1919.32 720.912 1918.81 721.105 1918.45 721.442C1918.05 721.81 1917.61 722.563 1917.33 724.148C1917.3 724.313 1917.33 724.617 1917.67 725.097C1918.02 725.583 1918.62 726.142 1919.52 726.71C1921.3 727.842 1923.96 728.849 1927.08 729.389C1930.2 729.929 1933.04 729.877 1935.1 729.41C1936.13 729.175 1936.89 728.853 1937.38 728.513ZM1926.82 730.867C1933.35 731.998 1939.03 730.71 1939.5 727.989C1940.43 722.616 1936.76 722.136 1931.75 721.482C1930.72 721.348 1929.64 721.206 1928.53 721.014C1927.25 720.791 1926.03 720.499 1924.88 720.225C1920.2 719.104 1916.82 718.294 1915.85 723.892C1915.38 726.613 1920.29 729.736 1926.82 730.867Z" fill="#000231"/>
<path d="M1940.18 724.047C1939.71 726.768 1934.03 728.057 1927.5 726.926C1920.97 725.794 1916.06 722.671 1916.53 719.951C1917.01 717.23 1922.68 715.941 1929.21 717.072C1935.74 718.204 1940.65 721.326 1940.18 724.047Z" fill="#F1F5F6"/>
<path fill-rule="evenodd" clip-rule="evenodd" d="M1938.07 724.571C1938.55 724.235 1938.68 723.957 1938.7 723.791C1938.73 723.626 1938.71 723.322 1938.37 722.842C1938.02 722.356 1937.41 721.798 1936.52 721.23C1934.74 720.097 1932.07 719.091 1928.96 718.55C1925.84 718.01 1922.99 718.062 1920.93 718.53C1919.9 718.764 1919.14 719.086 1918.65 719.426C1918.17 719.763 1918.04 720.041 1918.01 720.207C1917.98 720.372 1918.01 720.676 1918.35 721.156C1918.7 721.642 1919.31 722.2 1920.2 722.768C1921.98 723.901 1924.64 724.907 1927.76 725.448C1930.88 725.988 1933.73 725.935 1935.78 725.468C1936.82 725.234 1937.57 724.912 1938.07 724.571ZM1927.5 726.926C1934.03 728.057 1939.71 726.768 1940.18 724.047C1940.65 721.326 1935.74 718.204 1929.21 717.072C1922.68 715.941 1917.01 717.23 1916.53 719.951C1916.06 722.671 1920.97 725.794 1927.5 726.926Z" fill="#000231"/>
<path fill-rule="evenodd" clip-rule="evenodd" d="M1915.85 723.892L1916.54 719.951L1917.52 720.121L1916.84 724.063L1915.85 723.892Z" fill="#000231"/>
<path fill-rule="evenodd" clip-rule="evenodd" d="M1938.51 727.818L1939.2 723.877L1940.18 724.047L1939.5 727.989L1938.51 727.818Z" fill="#000231"/>
<path d="M1945.45 722.93C1944.98 725.651 1939.3 726.94 1932.77 725.808C1926.24 724.677 1921.33 721.554 1921.8 718.833C1922.75 713.345 1928.56 711.306 1935.09 712.438C1941.62 713.569 1946.4 717.442 1945.45 722.93Z" fill="#F1F5F6"/>
<path fill-rule="evenodd" clip-rule="evenodd" d="M1943.34 723.454C1943.82 723.118 1943.94 722.84 1943.97 722.674C1944.35 720.483 1943.62 718.631 1942.04 717.138C1940.43 715.603 1937.9 714.447 1934.83 713.916C1931.77 713.384 1929 713.624 1926.96 714.525C1924.98 715.402 1923.66 716.898 1923.28 719.089C1923.25 719.255 1923.28 719.559 1923.62 720.039C1923.97 720.525 1924.57 721.083 1925.47 721.651C1927.25 722.784 1929.91 723.79 1933.03 724.33C1936.15 724.871 1938.99 724.818 1941.05 724.351C1942.09 724.117 1942.84 723.795 1943.34 723.454ZM1932.77 725.808C1939.3 726.94 1944.98 725.651 1945.45 722.93C1946.4 717.442 1941.62 713.569 1935.09 712.438C1928.56 711.306 1922.75 713.345 1921.8 718.833C1921.33 721.554 1926.24 724.677 1932.77 725.808Z" fill="#000231"/>
<path d="M1946.14 718.989C1945.66 721.71 1939.99 722.999 1933.46 721.867C1926.93 720.736 1922.02 717.613 1922.49 714.892C1922.96 712.171 1928.63 710.883 1935.16 712.014C1941.69 713.145 1946.61 716.268 1946.14 718.989Z" fill="#F1F5F6"/>
<path fill-rule="evenodd" clip-rule="evenodd" d="M1944.02 719.513C1944.5 719.177 1944.63 718.898 1944.66 718.733C1944.69 718.568 1944.66 718.263 1944.32 717.784C1943.97 717.298 1943.36 716.739 1942.47 716.171C1940.69 715.039 1938.03 714.032 1934.91 713.492C1931.79 712.952 1928.94 713.004 1926.89 713.471C1925.85 713.706 1925.09 714.028 1924.6 714.368C1924.12 714.704 1923.99 714.983 1923.97 715.148C1923.94 715.314 1923.96 715.618 1924.3 716.098C1924.65 716.583 1925.26 717.142 1926.15 717.71C1927.93 718.842 1930.6 719.849 1933.71 720.389C1936.83 720.93 1939.68 720.877 1941.74 720.41C1942.77 720.175 1943.53 719.854 1944.02 719.513ZM1933.46 721.867C1939.99 722.999 1945.66 721.71 1946.14 718.989C1946.61 716.268 1941.69 713.145 1935.16 712.014C1928.63 710.883 1922.96 712.171 1922.49 714.892C1922.02 717.613 1926.93 720.736 1933.46 721.867Z" fill="#000231"/>
<path fill-rule="evenodd" clip-rule="evenodd" d="M1921.8 718.833L1922.49 714.892L1923.47 715.063L1922.79 719.004L1921.8 718.833Z" fill="#000231"/>
<path fill-rule="evenodd" clip-rule="evenodd" d="M1944.47 722.76L1945.15 718.818L1946.13 718.989L1945.45 722.93L1944.47 722.76Z" fill="#000231"/>
<path d="M1940.22 717.965C1939.75 720.686 1934.07 721.974 1927.54 720.843C1921.01 719.712 1916.1 716.589 1916.57 713.868C1918.04 705.424 1923.33 706.341 1929.86 707.472C1936.39 708.603 1941.59 710.082 1940.22 717.965Z" fill="#F1F5F6"/>
<path fill-rule="evenodd" clip-rule="evenodd" d="M1938.1 718.489C1938.59 718.152 1938.71 717.874 1938.74 717.709C1939.06 715.895 1938.97 714.579 1938.67 713.608C1938.37 712.662 1937.84 711.953 1937.09 711.375C1935.48 710.14 1932.93 709.526 1929.6 708.95C1927.95 708.664 1926.47 708.409 1925.12 708.302C1923.76 708.195 1922.65 708.249 1921.74 708.518C1920.87 708.775 1920.15 709.237 1919.55 710.041C1918.93 710.875 1918.39 712.154 1918.05 714.124C1918.02 714.289 1918.05 714.593 1918.39 715.073C1918.74 715.559 1919.34 716.118 1920.24 716.686C1922.02 717.818 1924.68 718.825 1927.8 719.365C1930.92 719.905 1933.76 719.853 1935.82 719.386C1936.85 719.151 1937.61 718.829 1938.1 718.489ZM1927.54 720.843C1934.07 721.974 1939.75 720.686 1940.22 717.965C1941.59 710.082 1936.39 708.603 1929.86 707.472C1923.33 706.341 1918.04 705.424 1916.57 713.868C1916.1 716.589 1921.01 719.712 1927.54 720.843Z" fill="#000231"/>
<path d="M1940.9 714.023C1940.43 716.744 1934.76 718.033 1928.23 716.902C1921.7 715.77 1916.79 712.648 1917.26 709.927C1917.73 707.206 1923.4 705.917 1929.93 707.048C1936.46 708.18 1941.38 711.303 1940.9 714.023Z" fill="#F1F5F6"/>
<path fill-rule="evenodd" clip-rule="evenodd" d="M1938.79 714.548C1939.27 714.211 1939.4 713.933 1939.43 713.767C1939.46 713.602 1939.43 713.298 1939.09 712.818C1938.74 712.332 1938.13 711.774 1937.24 711.206C1935.46 710.073 1932.8 709.067 1929.68 708.526C1926.56 707.986 1923.71 708.038 1921.66 708.506C1920.62 708.74 1919.86 709.062 1919.37 709.403C1918.89 709.739 1918.76 710.017 1918.73 710.183C1918.71 710.348 1918.73 710.652 1919.07 711.132C1919.42 711.618 1920.03 712.176 1920.92 712.744C1922.7 713.877 1925.36 714.883 1928.48 715.424C1931.6 715.964 1934.45 715.912 1936.51 715.444C1937.54 715.21 1938.3 714.888 1938.79 714.548ZM1928.23 716.902C1934.76 718.033 1940.43 716.744 1940.9 714.023C1941.38 711.303 1936.46 708.18 1929.93 707.048C1923.4 705.917 1917.73 707.206 1917.26 709.927C1916.79 712.648 1921.7 715.77 1928.23 716.902Z" fill="#000231"/>
<path fill-rule="evenodd" clip-rule="evenodd" d="M1916.57 713.868L1917.25 709.927L1918.24 710.097L1917.56 714.039L1916.57 713.868Z" fill="#000231"/>
<path fill-rule="evenodd" clip-rule="evenodd" d="M1939.24 717.794L1939.92 713.853L1940.9 714.023L1940.22 717.965L1939.24 717.794Z" fill="#000231"/>
<path fill-rule="evenodd" clip-rule="evenodd" d="M1585.99 461.999C1586.54 462.089 1586.91 462.604 1586.82 463.149L1584.21 478.935C1584.12 479.48 1583.6 479.848 1583.06 479.758C1582.51 479.668 1582.14 479.154 1582.23 478.609L1584.84 462.823C1584.93 462.278 1585.45 461.909 1585.99 461.999Z" fill="#000023"/>
<path fill-rule="evenodd" clip-rule="evenodd" d="M1601.74 458.066C1601.9 458.593 1601.61 459.153 1601.08 459.317L1586.12 463.941C1585.6 464.104 1585.04 463.809 1584.87 463.281C1584.71 462.754 1585.01 462.194 1585.53 462.031L1600.49 457.406C1601.01 457.243 1601.57 457.538 1601.74 458.066Z" fill="#000023"/>
<path fill-rule="evenodd" clip-rule="evenodd" d="M1587.34 446.534C1588.13 446.246 1589.02 446.393 1589.69 446.922L1601.58 456.435C1602.27 456.985 1602.61 457.863 1602.46 458.732L1600.05 473.354C1599.91 474.223 1599.3 474.946 1598.48 475.246L1584.15 480.427C1583.35 480.715 1582.46 480.569 1581.8 480.039L1569.91 470.527C1569.22 469.977 1568.88 469.098 1569.02 468.229L1571.44 453.608C1571.58 452.739 1572.18 452.015 1573.01 451.716L1587.34 446.534ZM1588.44 448.484C1588.32 448.39 1588.16 448.364 1588.02 448.415L1573.69 453.596C1573.55 453.65 1573.44 453.779 1573.41 453.934L1571 468.555C1570.97 468.71 1571.03 468.867 1571.15 468.965L1583.05 478.477C1583.17 478.572 1583.33 478.598 1583.47 478.546L1597.8 473.365C1597.94 473.312 1598.05 473.183 1598.08 473.028L1600.49 458.406C1600.52 458.251 1600.46 458.095 1600.33 457.997L1588.44 448.484Z" fill="#000023"/>
<path fill-rule="evenodd" clip-rule="evenodd" d="M1579.16 457.896C1579.7 457.983 1580.08 458.495 1579.99 459.041L1577.58 474.158C1577.49 474.703 1576.98 475.075 1576.43 474.988C1575.89 474.901 1575.52 474.388 1575.6 473.843L1578.01 458.726C1578.1 458.18 1578.61 457.809 1579.16 457.896Z" fill="#000023"/>
<path fill-rule="evenodd" clip-rule="evenodd" d="M1593.57 460.013C1594.11 460.1 1594.49 460.612 1594.4 461.158L1591.99 476.275C1591.9 476.82 1591.39 477.192 1590.84 477.105C1590.3 477.018 1589.93 476.506 1590.01 475.96L1592.42 460.843C1592.51 460.298 1593.02 459.926 1593.57 460.013Z" fill="#000023"/>
<path fill-rule="evenodd" clip-rule="evenodd" d="M1572.34 453.211C1572.67 452.764 1573.29 452.665 1573.74 452.989L1586.41 462.177C1586.86 462.501 1586.96 463.126 1586.63 463.573C1586.31 464.02 1585.69 464.12 1585.24 463.796L1572.57 454.608C1572.12 454.284 1572.02 453.658 1572.34 453.211Z" fill="#000023"/>
<path fill-rule="evenodd" clip-rule="evenodd" d="M1571.37 459.133C1571.69 458.686 1572.32 458.586 1572.76 458.911L1585.44 468.099C1585.88 468.423 1585.98 469.048 1585.66 469.495C1585.33 469.942 1584.71 470.042 1584.26 469.718L1571.59 460.53C1571.14 460.206 1571.04 459.58 1571.37 459.133Z" fill="#000023"/>
<path fill-rule="evenodd" clip-rule="evenodd" d="M1601.06 463.395C1601.22 463.922 1600.93 464.483 1600.4 464.648L1585.01 469.461C1584.48 469.626 1583.92 469.332 1583.76 468.805C1583.59 468.278 1583.89 467.717 1584.41 467.552L1599.8 462.739C1600.33 462.575 1600.89 462.868 1601.06 463.395Z" fill="#000023"/>
<path d="M1590.1 438.351C1591.2 438.532 1592.15 438.877 1592.95 439.386C1593.76 439.877 1594.35 440.512 1594.72 441.29C1595.1 442.07 1595.21 442.966 1595.05 443.977C1594.87 445.024 1594.53 445.862 1594 446.492C1593.5 447.107 1592.88 447.542 1592.14 447.797C1591.41 448.034 1590.63 448.137 1589.8 448.107L1589.23 450.513L1586.29 450.027L1586.96 446.081C1587.97 446.122 1588.79 446.07 1589.43 445.924C1590.07 445.779 1590.55 445.536 1590.88 445.197C1591.21 444.857 1591.42 444.417 1591.51 443.877C1591.62 443.214 1591.5 442.657 1591.16 442.206C1590.81 441.755 1590.22 441.461 1589.39 441.324C1588.58 441.189 1587.88 441.343 1587.31 441.786C1586.74 442.211 1586.32 442.885 1586.06 443.809L1583.21 441.995C1583.55 441.12 1584.03 440.375 1584.65 439.76C1585.27 439.128 1586.02 438.689 1586.92 438.443C1587.83 438.182 1588.89 438.151 1590.1 438.351ZM1587.5 452.028C1588.12 452.129 1588.57 452.392 1588.87 452.818C1589.17 453.244 1589.27 453.762 1589.17 454.372C1589.07 455 1588.81 455.467 1588.38 455.774C1587.97 456.063 1587.45 456.157 1586.84 456.056C1586.23 455.955 1585.77 455.7 1585.47 455.291C1585.16 454.866 1585.07 454.339 1585.17 453.711C1585.27 453.101 1585.53 452.643 1585.95 452.336C1586.37 452.029 1586.89 451.927 1587.5 452.028Z" fill="#000023"/>
<path fill-rule="evenodd" clip-rule="evenodd" d="M1583.21 441.994C1583.55 441.118 1584.03 440.373 1584.65 439.759C1585.27 439.127 1586.02 438.687 1586.92 438.441C1587.83 438.18 1588.89 438.149 1590.1 438.349C1591.2 438.53 1592.15 438.876 1592.95 439.384C1593.76 439.876 1594.35 440.51 1594.72 441.288C1595.1 442.068 1595.21 442.964 1595.05 443.976C1594.87 445.022 1594.53 445.86 1594 446.49C1593.5 447.105 1592.88 447.54 1592.14 447.795C1591.41 448.032 1590.63 448.136 1589.8 448.106L1589.23 450.511L1586.29 450.025L1586.96 446.079C1586.96 446.079 1586.96 446.079 1586.96 446.079C1587.97 446.12 1588.79 446.068 1589.43 445.923C1590.07 445.777 1590.55 445.534 1590.88 445.195C1591.21 444.855 1591.42 444.415 1591.51 443.875C1591.62 443.212 1591.5 442.655 1591.16 442.204C1590.81 441.753 1590.22 441.459 1589.39 441.322C1588.58 441.187 1587.88 441.341 1587.31 441.784C1587.08 441.958 1586.87 442.173 1586.69 442.43C1586.42 442.802 1586.21 443.261 1586.06 443.807L1583.21 441.994ZM1587.39 444.591C1588.14 444.603 1588.7 444.551 1589.1 444.46C1589.55 444.356 1589.74 444.217 1589.8 444.149C1589.89 444.062 1589.98 443.918 1590.03 443.63C1590.08 443.295 1590.01 443.177 1589.96 443.115C1589.94 443.087 1589.78 442.907 1589.15 442.802C1588.68 442.724 1588.42 442.82 1588.23 442.971L1588.22 442.978L1588.21 442.986C1587.98 443.157 1587.7 443.503 1587.5 444.221L1587.39 444.591ZM1585.58 445.281L1581.37 442.599L1581.81 441.453C1582.22 440.4 1582.81 439.474 1583.58 438.702C1584.39 437.877 1585.38 437.309 1586.51 436.997C1587.69 436.662 1588.98 436.644 1590.35 436.869C1591.6 437.077 1592.75 437.481 1593.74 438.11C1594.77 438.736 1595.56 439.575 1596.07 440.632C1596.61 441.739 1596.74 442.959 1596.53 444.22C1596.32 445.452 1595.89 446.559 1595.16 447.445C1594.48 448.267 1593.64 448.865 1592.63 449.212L1592.62 449.217L1592.61 449.222C1592.08 449.391 1591.54 449.504 1590.99 449.563L1590.37 452.219L1590.26 452.201C1590.69 452.948 1590.79 453.787 1590.65 454.615C1590.5 455.54 1590.07 456.397 1589.27 456.985L1589.25 456.996L1589.24 457.006C1588.43 457.563 1587.5 457.684 1586.59 457.534C1585.69 457.384 1584.84 456.97 1584.26 456.184L1584.25 456.169L1584.24 456.155C1583.66 455.338 1583.54 454.39 1583.69 453.465C1583.83 452.637 1584.19 451.874 1584.84 451.306L1584.55 451.259L1585.58 445.281ZM1588.87 452.816C1588.57 452.391 1588.12 452.127 1587.5 452.026C1586.89 451.925 1586.37 452.028 1585.95 452.334C1585.53 452.641 1585.27 453.099 1585.17 453.709C1585.07 454.337 1585.16 454.864 1585.46 455.29C1585.77 455.698 1586.23 455.953 1586.84 456.054C1587.45 456.155 1587.97 456.061 1588.38 455.772C1588.81 455.465 1589.07 454.998 1589.17 454.37C1589.27 453.76 1589.17 453.242 1588.87 452.816Z" fill="#F1F5F6"/>
<path d="M1248.92 159.396L1283.44 187.865L1276.04 231.992L1234.13 247.651L1199.61 219.182L1207.01 175.055L1248.92 159.396Z" fill="url(#paint24_linear)"/>
<path d="M1248.92 159.396L1283.44 187.865L1276.04 231.992L1234.13 247.651L1199.61 219.182L1207.01 175.055L1248.92 159.396Z" fill="#F1F5F6"/>
<path d="M1248.92 159.396L1283.44 187.865L1276.04 231.992L1234.13 247.651L1199.61 219.182L1207.01 175.055L1248.92 159.396Z" stroke="#00E599"/>
<path d="M1628.25 204.994L1676.34 244.663L1666.04 306.152L1607.63 327.971L1559.54 288.302L1569.84 226.813L1628.25 204.994Z" stroke="#BFF8E5"/>
<path d="M1624.92 222.396L1659.44 250.865L1652.04 294.992L1610.13 310.651L1575.61 282.182L1583.01 238.055L1624.92 222.396Z" fill="url(#paint25_linear)"/>
<path d="M1624.92 222.396L1659.44 250.865L1652.04 294.992L1610.13 310.651L1575.61 282.182L1583.01 238.055L1624.92 222.396Z" fill="#F1F5F6"/>
<path d="M1624.92 222.396L1659.44 250.865L1652.04 294.992L1610.13 310.651L1575.61 282.182L1583.01 238.055L1624.92 222.396Z" stroke="#00E599"/>
<path d="M1033.37 289.102L1094.51 339.531L1081.41 417.698L1007.17 445.436L946.023 395.006L959.125 316.839L1033.37 289.102Z" stroke="#00E599"/>
<g filter="url(#filter0_d)">
<path d="M1031.25 305.994L1079.34 345.663L1069.04 407.152L1010.63 428.971L962.537 389.302L972.843 327.813L1031.25 305.994Z" fill="url(#paint26_linear)"/>
<path d="M1031.25 305.994L1079.34 345.663L1069.04 407.152L1010.63 428.971L962.537 389.302L972.843 327.813L1031.25 305.994Z" fill="white"/>
<path d="M1031.25 305.994L1079.34 345.663L1069.04 407.152L1010.63 428.971L962.537 389.302L972.843 327.813L1031.25 305.994Z" stroke="#BFF8E5"/>
</g>
<path d="M1027.92 323.396L1062.44 351.865L1055.04 395.992L1013.13 411.651L978.611 383.182L986.007 339.055L1027.92 323.396Z" fill="url(#paint27_linear)"/>
<path d="M1027.92 323.396L1062.44 351.865L1055.04 395.992L1013.13 411.651L978.611 383.182L986.007 339.055L1027.92 323.396Z" fill="#F1F5F6"/>
<path d="M1027.92 323.396L1062.44 351.865L1055.04 395.992L1013.13 411.651L978.611 383.182L986.007 339.055L1027.92 323.396Z" stroke="#00E599"/>
<path d="M1015.65 357.092C1015.26 356.542 1014.42 356.577 1014.08 357.162L1002.77 376.584C1002.37 377.272 1002.96 378.116 1003.75 377.966C1004.86 377.752 1024.93 373.891 1025.82 373.72C1026.48 373.593 1026.8 372.822 1026.4 372.268L1015.65 357.092ZM1014.96 359.347L1018.09 363.756C1017.82 366.934 1018.46 370.144 1019.93 372.958L1015.76 373.761C1013.35 370.209 1012.57 365.687 1013.69 361.524L1014.96 359.347ZM1009.77 374.913C1009.04 373.732 1008.48 372.459 1008.11 371.117L1011.33 365.59C1011.36 368.704 1012.26 371.636 1013.79 374.14L1009.77 374.913ZM1006.86 373.252C1007.14 373.951 1007.46 374.63 1007.83 375.286L1005.41 375.752L1006.86 373.252ZM1021.85 372.589C1020.76 370.682 1020.11 368.546 1019.93 366.36L1024.05 372.166L1021.85 372.589Z" fill="#000231"/>
<path d="M1026.22 367.27C1026.51 367.689 1027.09 367.788 1027.51 367.491C1031.55 364.629 1034.73 366.268 1034.76 366.285C1035.21 366.527 1035.78 366.356 1036.02 365.902C1036.26 365.449 1036.09 364.886 1035.64 364.644C1035.47 364.553 1031.4 362.454 1026.44 365.974C1026.02 366.271 1025.92 366.851 1026.22 367.27V367.27Z" fill="#000231"/>
<path d="M1020.3 358.924C1020.59 359.343 1021.18 359.442 1021.59 359.145C1026.56 355.625 1025.92 351.097 1025.89 350.906C1025.82 350.398 1025.34 350.05 1024.83 350.128C1024.33 350.207 1023.98 350.682 1024.06 351.189C1024.06 351.225 1024.56 354.765 1020.52 357.627C1020.1 357.924 1020 358.505 1020.3 358.924Z" fill="#000231"/>
<path d="M1023.21 361.421C1022.79 361.718 1022.69 362.299 1022.99 362.718C1023.28 363.133 1023.86 363.236 1024.28 362.943C1024.79 362.788 1026.11 363.924 1027.07 363.246C1028.01 362.575 1027.4 360.989 1027.7 360.521C1028.24 360.392 1029.54 361.496 1030.48 360.826C1031.43 360.155 1030.82 358.568 1031.12 358.1C1031.66 357.971 1032.95 359.076 1033.9 358.405C1034.84 357.734 1034.23 356.148 1034.53 355.679C1035.07 355.551 1036.37 356.654 1037.31 355.984C1038.27 355.307 1037.64 353.683 1037.95 353.252C1038.36 352.954 1038.46 352.377 1038.16 351.96C1037.87 351.541 1037.29 351.442 1036.87 351.739C1036.02 352.338 1035.99 353.383 1036 354.135C1035.3 353.875 1034.3 353.56 1033.45 354.159C1032.61 354.759 1032.58 355.803 1032.59 356.556C1031.88 356.296 1030.88 355.98 1030.04 356.58C1029.19 357.18 1029.16 358.224 1029.17 358.977C1028.47 358.716 1027.47 358.401 1026.62 359.001C1025.78 359.6 1025.75 360.645 1025.76 361.397C1025.05 361.137 1024.06 360.822 1023.21 361.421V361.421Z" fill="#000231"/>
<path d="M1029.72 354.525C1030.14 354.228 1030.24 353.647 1029.94 353.228C1029.65 352.809 1029.06 352.71 1028.65 353.007C1028.23 353.305 1028.13 353.885 1028.42 354.304C1028.72 354.723 1029.3 354.822 1029.72 354.525Z" fill="#000231"/>
<path d="M1034.41 362.27C1034.91 362.356 1035.39 362.016 1035.48 361.509C1035.57 361.003 1035.23 360.522 1034.72 360.436C1034.21 360.35 1033.73 360.691 1033.65 361.197C1033.56 361.703 1033.9 362.184 1034.41 362.27Z" fill="#000231"/>
<path d="M1031.18 369.45C1030.76 369.747 1030.66 370.327 1030.96 370.747C1031.26 371.166 1031.84 371.264 1032.26 370.967C1032.68 370.67 1032.78 370.09 1032.48 369.671C1032.18 369.252 1031.6 369.153 1031.18 369.45Z" fill="#000231"/>
<path d="M1020.42 354.275C1020.84 353.977 1020.94 353.397 1020.64 352.978C1020.35 352.559 1019.77 352.46 1019.35 352.757C1018.93 353.054 1018.83 353.635 1019.13 354.054C1019.42 354.473 1020 354.572 1020.42 354.275V354.275Z" fill="#000231"/>
<path d="M1442.37 156.102L1503.51 206.531L1490.41 284.698L1416.17 312.436L1355.02 262.006L1368.12 183.839L1442.37 156.102Z" stroke="#00E599"/>
<g filter="url(#filter1_d)">
<path d="M1440.25 172.994L1488.34 212.663L1478.04 274.152L1419.63 295.971L1371.54 256.302L1381.84 194.813L1440.25 172.994Z" fill="url(#paint28_linear)"/>
<path d="M1440.25 172.994L1488.34 212.663L1478.04 274.152L1419.63 295.971L1371.54 256.302L1381.84 194.813L1440.25 172.994Z" fill="white"/>
<path d="M1440.25 172.994L1488.34 212.663L1478.04 274.152L1419.63 295.971L1371.54 256.302L1381.84 194.813L1440.25 172.994Z" stroke="#BFF8E5"/>
</g>
<path d="M1436.92 190.396L1471.44 218.865L1464.04 262.992L1422.13 278.651L1387.61 250.182L1395.01 206.055L1436.92 190.396Z" fill="url(#paint29_linear)"/>
<path d="M1436.92 190.396L1471.44 218.865L1464.04 262.992L1422.13 278.651L1387.61 250.182L1395.01 206.055L1436.92 190.396Z" fill="#F1F5F6"/>
<path d="M1436.92 190.396L1471.44 218.865L1464.04 262.992L1422.13 278.651L1387.61 250.182L1395.01 206.055L1436.92 190.396Z" stroke="#00E599"/>
<path d="M1424.65 224.092C1424.26 223.542 1423.42 223.577 1423.08 224.162L1411.77 243.584C1411.37 244.272 1411.96 245.116 1412.75 244.966C1413.86 244.752 1433.93 240.891 1434.82 240.72C1435.48 240.593 1435.8 239.822 1435.4 239.268L1424.65 224.092ZM1423.96 226.347L1427.09 230.756C1426.82 233.934 1427.46 237.144 1428.93 239.958L1424.76 240.761C1422.35 237.209 1421.57 232.687 1422.69 228.524L1423.96 226.347ZM1418.77 241.913C1418.04 240.732 1417.48 239.459 1417.11 238.117L1420.33 232.59C1420.36 235.704 1421.26 238.636 1422.79 241.14L1418.77 241.913ZM1415.86 240.252C1416.14 240.951 1416.46 241.63 1416.83 242.286L1414.41 242.752L1415.86 240.252ZM1430.85 239.589C1429.76 237.682 1429.11 235.546 1428.93 233.36L1433.05 239.166L1430.85 239.589Z" fill="#000231"/>
<path d="M1435.22 234.27C1435.51 234.689 1436.09 234.788 1436.51 234.491C1440.55 231.629 1443.73 233.268 1443.76 233.285C1444.21 233.527 1444.78 233.356 1445.02 232.902C1445.26 232.449 1445.09 231.886 1444.64 231.644C1444.47 231.553 1440.4 229.454 1435.44 232.974C1435.02 233.271 1434.92 233.851 1435.22 234.27V234.27Z" fill="#000231"/>
<path d="M1429.3 225.924C1429.59 226.343 1430.18 226.442 1430.59 226.145C1435.56 222.625 1434.92 218.097 1434.89 217.906C1434.82 217.398 1434.34 217.05 1433.83 217.128C1433.33 217.207 1432.98 217.682 1433.06 218.189C1433.06 218.225 1433.56 221.765 1429.52 224.627C1429.1 224.924 1429 225.505 1429.3 225.924Z" fill="#000231"/>
<path d="M1432.21 228.421C1431.79 228.718 1431.69 229.299 1431.99 229.718C1432.28 230.133 1432.86 230.236 1433.28 229.943C1433.79 229.788 1435.11 230.924 1436.07 230.246C1437.01 229.575 1436.4 227.989 1436.7 227.521C1437.24 227.392 1438.54 228.496 1439.48 227.826C1440.43 227.155 1439.82 225.568 1440.12 225.1C1440.66 224.971 1441.95 226.076 1442.9 225.405C1443.84 224.734 1443.23 223.148 1443.53 222.679C1444.07 222.551 1445.37 223.654 1446.31 222.984C1447.27 222.307 1446.64 220.683 1446.95 220.252C1447.36 219.954 1447.46 219.377 1447.16 218.96C1446.87 218.541 1446.29 218.442 1445.87 218.739C1445.02 219.338 1444.99 220.383 1445 221.135C1444.3 220.875 1443.3 220.56 1442.45 221.159C1441.61 221.759 1441.58 222.803 1441.59 223.556C1440.88 223.296 1439.88 222.98 1439.04 223.58C1438.19 224.18 1438.16 225.224 1438.17 225.977C1437.47 225.716 1436.47 225.401 1435.62 226.001C1434.78 226.6 1434.75 227.645 1434.76 228.397C1434.05 228.137 1433.06 227.822 1432.21 228.421V228.421Z" fill="#000231"/>
<path d="M1438.72 221.525C1439.14 221.228 1439.24 220.647 1438.94 220.228C1438.65 219.809 1438.06 219.71 1437.65 220.007C1437.23 220.305 1437.13 220.885 1437.42 221.304C1437.72 221.723 1438.3 221.822 1438.72 221.525Z" fill="#000231"/>
<path d="M1443.41 229.27C1443.91 229.356 1444.39 229.016 1444.48 228.509C1444.57 228.003 1444.23 227.522 1443.72 227.436C1443.21 227.35 1442.73 227.691 1442.65 228.197C1442.56 228.703 1442.9 229.184 1443.41 229.27Z" fill="#000231"/>
<path d="M1440.18 236.45C1439.76 236.747 1439.66 237.327 1439.96 237.747C1440.26 238.166 1440.84 238.264 1441.26 237.967C1441.68 237.67 1441.78 237.09 1441.48 236.671C1441.18 236.252 1440.6 236.153 1440.18 236.45Z" fill="#000231"/>
<path d="M1429.42 221.275C1429.84 220.977 1429.94 220.397 1429.64 219.978C1429.35 219.559 1428.77 219.46 1428.35 219.757C1427.93 220.054 1427.83 220.635 1428.13 221.054C1428.42 221.473 1429 221.572 1429.42 221.275V221.275Z" fill="#000231"/>
<path d="M1818.37 220.102L1879.51 270.531L1866.41 348.698L1792.17 376.436L1731.02 326.006L1744.12 247.839L1818.37 220.102Z" stroke="#00E599"/>
<g filter="url(#filter2_d)">
<path d="M1816.25 236.994L1864.34 276.663L1854.04 338.152L1795.63 359.971L1747.54 320.302L1757.84 258.813L1816.25 236.994Z" fill="url(#paint30_linear)"/>
<path d="M1816.25 236.994L1864.34 276.663L1854.04 338.152L1795.63 359.971L1747.54 320.302L1757.84 258.813L1816.25 236.994Z" fill="white"/>
<path d="M1816.25 236.994L1864.34 276.663L1854.04 338.152L1795.63 359.971L1747.54 320.302L1757.84 258.813L1816.25 236.994Z" stroke="#BFF8E5"/>
</g>
<path d="M1812.92 254.396L1847.44 282.865L1840.04 326.992L1798.13 342.651L1763.61 314.182L1771.01 270.055L1812.92 254.396Z" fill="url(#paint31_linear)"/>
<path d="M1812.92 254.396L1847.44 282.865L1840.04 326.992L1798.13 342.651L1763.61 314.182L1771.01 270.055L1812.92 254.396Z" fill="#F1F5F6"/>
<path d="M1812.92 254.396L1847.44 282.865L1840.04 326.992L1798.13 342.651L1763.61 314.182L1771.01 270.055L1812.92 254.396Z" stroke="#00E599"/>
<path d="M1800.65 288.092C1800.26 287.542 1799.42 287.577 1799.08 288.162L1787.77 307.584C1787.37 308.272 1787.96 309.116 1788.75 308.966C1789.86 308.752 1809.93 304.891 1810.82 304.72C1811.48 304.593 1811.8 303.822 1811.4 303.268L1800.65 288.092ZM1799.96 290.347L1803.09 294.756C1802.82 297.934 1803.46 301.144 1804.93 303.958L1800.76 304.761C1798.35 301.209 1797.57 296.687 1798.69 292.524L1799.96 290.347ZM1794.77 305.913C1794.04 304.732 1793.48 303.459 1793.11 302.117L1796.33 296.59C1796.36 299.704 1797.26 302.636 1798.79 305.14L1794.77 305.913ZM1791.86 304.252C1792.14 304.951 1792.46 305.63 1792.83 306.286L1790.41 306.752L1791.86 304.252ZM1806.85 303.589C1805.76 301.682 1805.11 299.546 1804.93 297.36L1809.05 303.166L1806.85 303.589Z" fill="#000231"/>
<path d="M1811.22 298.27C1811.51 298.689 1812.09 298.788 1812.51 298.491C1816.55 295.629 1819.73 297.268 1819.76 297.285C1820.21 297.527 1820.78 297.356 1821.02 296.902C1821.26 296.449 1821.09 295.886 1820.64 295.644C1820.47 295.553 1816.4 293.454 1811.44 296.974C1811.02 297.271 1810.92 297.851 1811.22 298.27V298.27Z" fill="#000231"/>
<path d="M1805.3 289.924C1805.59 290.343 1806.18 290.442 1806.59 290.145C1811.56 286.625 1810.92 282.097 1810.89 281.906C1810.82 281.398 1810.34 281.05 1809.83 281.128C1809.33 281.207 1808.98 281.682 1809.06 282.189C1809.06 282.225 1809.56 285.765 1805.52 288.627C1805.1 288.924 1805 289.505 1805.3 289.924Z" fill="#000231"/>
<path d="M1808.21 292.421C1807.79 292.718 1807.69 293.299 1807.99 293.718C1808.28 294.133 1808.86 294.236 1809.28 293.943C1809.79 293.788 1811.11 294.924 1812.07 294.246C1813.01 293.575 1812.4 291.989 1812.7 291.521C1813.24 291.392 1814.54 292.496 1815.48 291.826C1816.43 291.155 1815.82 289.568 1816.12 289.1C1816.66 288.971 1817.95 290.076 1818.9 289.405C1819.84 288.734 1819.23 287.148 1819.53 286.679C1820.07 286.551 1821.37 287.654 1822.31 286.984C1823.27 286.307 1822.64 284.683 1822.95 284.252C1823.36 283.954 1823.46 283.377 1823.16 282.96C1822.87 282.541 1822.29 282.442 1821.87 282.739C1821.02 283.338 1820.99 284.383 1821 285.135C1820.3 284.875 1819.3 284.56 1818.45 285.159C1817.61 285.759 1817.58 286.803 1817.59 287.556C1816.88 287.296 1815.88 286.98 1815.04 287.58C1814.19 288.18 1814.16 289.224 1814.17 289.977C1813.47 289.716 1812.47 289.401 1811.62 290.001C1810.78 290.6 1810.75 291.645 1810.76 292.397C1810.05 292.137 1809.06 291.822 1808.21 292.421V292.421Z" fill="#000231"/>
<path d="M1814.72 285.525C1815.14 285.228 1815.24 284.647 1814.94 284.228C1814.65 283.809 1814.06 283.71 1813.65 284.007C1813.23 284.305 1813.13 284.885 1813.42 285.304C1813.72 285.723 1814.3 285.822 1814.72 285.525Z" fill="#000231"/>
<path d="M1819.41 293.27C1819.91 293.356 1820.39 293.016 1820.48 292.509C1820.57 292.003 1820.23 291.522 1819.72 291.436C1819.21 291.35 1818.73 291.691 1818.65 292.197C1818.56 292.703 1818.9 293.184 1819.41 293.27Z" fill="#000231"/>
<path d="M1816.18 300.45C1815.76 300.747 1815.66 301.327 1815.96 301.747C1816.26 302.166 1816.84 302.264 1817.26 301.967C1817.68 301.67 1817.78 301.09 1817.48 300.671C1817.18 300.252 1816.6 300.153 1816.18 300.45Z" fill="#000231"/>
<path d="M1805.42 285.275C1805.84 284.977 1805.94 284.397 1805.64 283.978C1805.35 283.559 1804.77 283.46 1804.35 283.757C1803.93 284.054 1803.83 284.635 1804.13 285.054C1804.42 285.473 1805 285.572 1805.42 285.275V285.275Z" fill="#000231"/>
<path d="M1565.37 579.102L1626.51 629.531L1613.41 707.698L1539.17 735.436L1478.02 685.006L1491.12 606.839L1565.37 579.102Z" stroke="#00E599"/>
<g filter="url(#filter3_d)">
<path d="M1563.25 595.994L1611.34 635.663L1601.04 697.152L1542.63 718.971L1494.54 679.302L1504.84 617.813L1563.25 595.994Z" fill="url(#paint32_linear)"/>
<path d="M1563.25 595.994L1611.34 635.663L1601.04 697.152L1542.63 718.971L1494.54 679.302L1504.84 617.813L1563.25 595.994Z" fill="white"/>
<path d="M1563.25 595.994L1611.34 635.663L1601.04 697.152L1542.63 718.971L1494.54 679.302L1504.84 617.813L1563.25 595.994Z" stroke="#BFF8E5"/>
</g>
<path d="M1559.92 613.396L1594.44 641.865L1587.04 685.992L1545.13 701.651L1510.61 673.182L1518.01 629.055L1559.92 613.396Z" fill="url(#paint33_linear)"/>
<path d="M1559.92 613.396L1594.44 641.865L1587.04 685.992L1545.13 701.651L1510.61 673.182L1518.01 629.055L1559.92 613.396Z" fill="#F1F5F6"/>
<path d="M1559.92 613.396L1594.44 641.865L1587.04 685.992L1545.13 701.651L1510.61 673.182L1518.01 629.055L1559.92 613.396Z" stroke="#00E599"/>
<path d="M1547.65 647.092C1547.26 646.542 1546.42 646.577 1546.08 647.162L1534.77 666.584C1534.37 667.272 1534.96 668.116 1535.75 667.966C1536.86 667.752 1556.93 663.891 1557.82 663.72C1558.48 663.593 1558.8 662.822 1558.4 662.268L1547.65 647.092ZM1546.96 649.347L1550.09 653.756C1549.82 656.934 1550.46 660.144 1551.93 662.958L1547.76 663.761C1545.35 660.209 1544.57 655.687 1545.69 651.524L1546.96 649.347ZM1541.77 664.913C1541.04 663.732 1540.48 662.459 1540.11 661.117L1543.33 655.59C1543.36 658.704 1544.26 661.636 1545.79 664.14L1541.77 664.913ZM1538.86 663.252C1539.14 663.951 1539.46 664.63 1539.83 665.286L1537.41 665.752L1538.86 663.252ZM1553.85 662.589C1552.76 660.682 1552.11 658.546 1551.93 656.36L1556.05 662.166L1553.85 662.589Z" fill="#000231"/>
<path d="M1558.22 657.27C1558.51 657.689 1559.09 657.788 1559.51 657.491C1563.55 654.629 1566.73 656.268 1566.76 656.285C1567.21 656.527 1567.78 656.356 1568.02 655.902C1568.26 655.449 1568.09 654.886 1567.64 654.644C1567.47 654.553 1563.4 652.454 1558.44 655.974C1558.02 656.271 1557.92 656.851 1558.22 657.27V657.27Z" fill="#000231"/>
<path d="M1552.3 648.924C1552.59 649.343 1553.18 649.442 1553.59 649.145C1558.56 645.625 1557.92 641.097 1557.89 640.906C1557.82 640.398 1557.34 640.05 1556.83 640.128C1556.33 640.207 1555.98 640.682 1556.06 641.189C1556.06 641.225 1556.56 644.765 1552.52 647.627C1552.1 647.924 1552 648.505 1552.3 648.924Z" fill="#000231"/>
<path d="M1555.21 651.421C1554.79 651.718 1554.69 652.299 1554.99 652.718C1555.28 653.133 1555.86 653.236 1556.28 652.943C1556.79 652.788 1558.11 653.924 1559.07 653.246C1560.01 652.575 1559.4 650.989 1559.7 650.521C1560.24 650.392 1561.54 651.496 1562.48 650.826C1563.43 650.155 1562.82 648.568 1563.12 648.1C1563.66 647.971 1564.95 649.076 1565.9 648.405C1566.84 647.734 1566.23 646.148 1566.53 645.679C1567.07 645.551 1568.37 646.654 1569.31 645.984C1570.27 645.307 1569.64 643.683 1569.95 643.252C1570.36 642.954 1570.46 642.377 1570.16 641.96C1569.87 641.541 1569.29 641.442 1568.87 641.739C1568.02 642.338 1567.99 643.383 1568 644.135C1567.3 643.875 1566.3 643.56 1565.45 644.159C1564.61 644.759 1564.58 645.803 1564.59 646.556C1563.88 646.296 1562.88 645.98 1562.04 646.58C1561.19 647.18 1561.16 648.224 1561.17 648.977C1560.47 648.716 1559.47 648.401 1558.62 649.001C1557.78 649.6 1557.75 650.645 1557.76 651.397C1557.05 651.137 1556.06 650.822 1555.21 651.421V651.421Z" fill="#000231"/>
<path d="M1561.72 644.525C1562.14 644.228 1562.24 643.647 1561.94 643.228C1561.65 642.809 1561.06 642.71 1560.65 643.007C1560.23 643.305 1560.13 643.885 1560.42 644.304C1560.72 644.723 1561.3 644.822 1561.72 644.525Z" fill="#000231"/>
<path d="M1566.41 652.27C1566.91 652.356 1567.39 652.016 1567.48 651.509C1567.57 651.003 1567.23 650.522 1566.72 650.436C1566.21 650.35 1565.73 650.691 1565.65 651.197C1565.56 651.703 1565.9 652.184 1566.41 652.27Z" fill="#000231"/>
<path d="M1563.18 659.45C1562.76 659.747 1562.66 660.327 1562.96 660.747C1563.26 661.166 1563.84 661.264 1564.26 660.967C1564.68 660.67 1564.78 660.09 1564.48 659.671C1564.18 659.252 1563.6 659.153 1563.18 659.45Z" fill="#000231"/>
<path d="M1552.42 644.275C1552.84 643.977 1552.94 643.397 1552.64 642.978C1552.35 642.559 1551.77 642.46 1551.35 642.757C1550.93 643.054 1550.83 643.635 1551.13 644.054C1551.42 644.473 1552 644.572 1552.42 644.275V644.275Z" fill="#000231"/>
<path d="M1186.5 601.989C1186.03 604.71 1180.35 605.998 1173.82 604.867C1167.29 603.736 1162.38 600.613 1162.85 597.892C1164.06 590.925 1169 593.882 1175.53 595.014C1182.06 596.145 1187.62 595.515 1186.5 601.989Z" fill="#F1F5F6"/>
<path fill-rule="evenodd" clip-rule="evenodd" d="M1184.38 602.513C1184.87 602.176 1184.99 601.898 1185.02 601.733C1185.27 600.295 1185.1 599.499 1184.86 599.035C1184.62 598.593 1184.18 598.218 1183.35 597.898C1182.49 597.568 1181.37 597.356 1179.95 597.156C1179.52 597.096 1179.07 597.036 1178.6 596.974C1177.55 596.838 1176.42 596.689 1175.27 596.492C1173.94 596.26 1172.66 595.953 1171.51 595.678C1171.2 595.605 1170.91 595.534 1170.62 595.467C1169.21 595.137 1168.1 594.92 1167.19 594.916C1166.32 594.912 1165.81 595.105 1165.45 595.442C1165.05 595.81 1164.61 596.563 1164.33 598.148C1164.3 598.313 1164.33 598.617 1164.67 599.097C1165.02 599.583 1165.62 600.142 1166.52 600.71C1168.3 601.842 1170.96 602.849 1174.08 603.389C1177.2 603.929 1180.04 603.877 1182.1 603.41C1183.13 603.175 1183.89 602.853 1184.38 602.513ZM1173.82 604.867C1180.35 605.998 1186.03 604.71 1186.5 601.989C1187.43 596.616 1183.76 596.136 1178.75 595.482C1177.72 595.348 1176.64 595.206 1175.53 595.014C1174.25 594.791 1173.03 594.499 1171.88 594.225C1167.2 593.104 1163.82 592.294 1162.85 597.892C1162.38 600.613 1167.29 603.736 1173.82 604.867Z" fill="#000231"/>
<path d="M1187.18 598.047C1186.71 600.768 1181.03 602.057 1174.5 600.926C1167.97 599.794 1163.06 596.671 1163.53 593.951C1164.01 591.23 1169.68 589.941 1176.21 591.072C1182.74 592.204 1187.65 595.326 1187.18 598.047Z" fill="#F1F5F6"/>
<path fill-rule="evenodd" clip-rule="evenodd" d="M1185.07 598.571C1185.55 598.235 1185.68 597.957 1185.7 597.791C1185.73 597.626 1185.71 597.322 1185.37 596.842C1185.02 596.356 1184.41 595.798 1183.52 595.23C1181.74 594.097 1179.07 593.091 1175.96 592.55C1172.84 592.01 1169.99 592.062 1167.93 592.53C1166.9 592.764 1166.14 593.086 1165.65 593.426C1165.17 593.763 1165.04 594.041 1165.01 594.207C1164.98 594.372 1165.01 594.676 1165.35 595.156C1165.7 595.642 1166.31 596.2 1167.2 596.768C1168.98 597.901 1171.64 598.907 1174.76 599.448C1177.88 599.988 1180.73 599.935 1182.78 599.468C1183.82 599.234 1184.57 598.912 1185.07 598.571ZM1174.5 600.926C1181.03 602.057 1186.71 600.768 1187.18 598.047C1187.65 595.326 1182.74 592.204 1176.21 591.072C1169.68 589.941 1164.01 591.23 1163.53 593.951C1163.06 596.671 1167.97 599.794 1174.5 600.926Z" fill="#000231"/>
<path fill-rule="evenodd" clip-rule="evenodd" d="M1162.85 597.892L1163.54 593.951L1164.52 594.121L1163.84 598.063L1162.85 597.892Z" fill="#000231"/>
<path fill-rule="evenodd" clip-rule="evenodd" d="M1185.51 601.818L1186.2 597.877L1187.18 598.047L1186.5 601.989L1185.51 601.818Z" fill="#000231"/>
<path d="M1192.45 596.93C1191.98 599.651 1186.3 600.94 1179.77 599.808C1173.24 598.677 1168.33 595.554 1168.8 592.833C1169.75 587.345 1175.56 585.306 1182.09 586.438C1188.62 587.569 1193.4 591.442 1192.45 596.93Z" fill="#F1F5F6"/>
<path fill-rule="evenodd" clip-rule="evenodd" d="M1190.34 597.454C1190.82 597.118 1190.94 596.84 1190.97 596.674C1191.35 594.483 1190.62 592.631 1189.04 591.138C1187.43 589.603 1184.9 588.447 1181.83 587.916C1178.77 587.384 1176 587.624 1173.96 588.525C1171.98 589.402 1170.66 590.898 1170.28 593.089C1170.25 593.255 1170.28 593.559 1170.62 594.039C1170.97 594.525 1171.57 595.083 1172.47 595.651C1174.25 596.784 1176.91 597.79 1180.03 598.33C1183.15 598.871 1185.99 598.818 1188.05 598.351C1189.09 598.117 1189.84 597.795 1190.34 597.454ZM1179.77 599.808C1186.3 600.94 1191.98 599.651 1192.45 596.93C1193.4 591.442 1188.62 587.569 1182.09 586.438C1175.56 585.306 1169.75 587.345 1168.8 592.833C1168.33 595.554 1173.24 598.677 1179.77 599.808Z" fill="#000231"/>
<path d="M1193.14 592.989C1192.66 595.71 1186.99 596.999 1180.46 595.867C1173.93 594.736 1169.02 591.613 1169.49 588.892C1169.96 586.171 1175.63 584.883 1182.16 586.014C1188.69 587.145 1193.61 590.268 1193.14 592.989Z" fill="#F1F5F6"/>
<path fill-rule="evenodd" clip-rule="evenodd" d="M1191.02 593.513C1191.5 593.177 1191.63 592.898 1191.66 592.733C1191.69 592.568 1191.66 592.263 1191.32 591.784C1190.97 591.298 1190.36 590.739 1189.47 590.171C1187.69 589.039 1185.03 588.032 1181.91 587.492C1178.79 586.952 1175.94 587.004 1173.89 587.471C1172.85 587.706 1172.09 588.028 1171.6 588.368C1171.12 588.704 1170.99 588.983 1170.97 589.148C1170.94 589.314 1170.96 589.618 1171.3 590.098C1171.65 590.583 1172.26 591.142 1173.15 591.71C1174.93 592.842 1177.6 593.849 1180.71 594.389C1183.83 594.93 1186.68 594.877 1188.74 594.41C1189.77 594.175 1190.53 593.854 1191.02 593.513ZM1180.46 595.867C1186.99 596.999 1192.66 595.71 1193.14 592.989C1193.61 590.268 1188.69 587.145 1182.16 586.014C1175.63 584.883 1169.96 586.171 1169.49 588.892C1169.02 591.613 1173.93 594.736 1180.46 595.867Z" fill="#000231"/>
<path fill-rule="evenodd" clip-rule="evenodd" d="M1168.8 592.833L1169.49 588.892L1170.47 589.063L1169.79 593.004L1168.8 592.833Z" fill="#000231"/>
<path fill-rule="evenodd" clip-rule="evenodd" d="M1191.47 596.76L1192.15 592.818L1193.13 592.989L1192.45 596.93L1191.47 596.76Z" fill="#000231"/>
<path d="M1187.22 591.965C1186.75 594.686 1181.07 595.974 1174.54 594.843C1168.01 593.712 1163.1 590.589 1163.57 587.868C1165.04 579.424 1170.33 580.341 1176.86 581.472C1183.39 582.603 1188.59 584.082 1187.22 591.965Z" fill="#F1F5F6"/>
<path fill-rule="evenodd" clip-rule="evenodd" d="M1185.1 592.489C1185.59 592.152 1185.71 591.874 1185.74 591.709C1186.06 589.895 1185.97 588.579 1185.67 587.608C1185.37 586.662 1184.84 585.953 1184.09 585.375C1182.48 584.14 1179.93 583.526 1176.6 582.95C1174.95 582.664 1173.47 582.409 1172.12 582.302C1170.76 582.195 1169.65 582.249 1168.74 582.518C1167.87 582.775 1167.15 583.237 1166.55 584.041C1165.93 584.875 1165.39 586.154 1165.05 588.124C1165.02 588.289 1165.05 588.593 1165.39 589.073C1165.74 589.559 1166.34 590.118 1167.24 590.686C1169.02 591.818 1171.68 592.825 1174.8 593.365C1177.92 593.905 1180.76 593.853 1182.82 593.386C1183.85 593.151 1184.61 592.829 1185.1 592.489ZM1174.54 594.843C1181.07 595.974 1186.75 594.686 1187.22 591.965C1188.59 584.082 1183.39 582.603 1176.86 581.472C1170.33 580.341 1165.04 579.424 1163.57 587.868C1163.1 590.589 1168.01 593.712 1174.54 594.843Z" fill="#000231"/>
<path d="M1187.9 588.023C1187.43 590.744 1181.76 592.033 1175.23 590.902C1168.7 589.77 1163.79 586.648 1164.26 583.927C1164.73 581.206 1170.4 579.917 1176.93 581.048C1183.46 582.18 1188.38 585.303 1187.9 588.023Z" fill="#F1F5F6"/>
<path fill-rule="evenodd" clip-rule="evenodd" d="M1185.79 588.548C1186.27 588.211 1186.4 587.933 1186.43 587.767C1186.46 587.602 1186.43 587.298 1186.09 586.818C1185.74 586.332 1185.13 585.774 1184.24 585.206C1182.46 584.073 1179.8 583.067 1176.68 582.526C1173.56 581.986 1170.71 582.038 1168.66 582.506C1167.62 582.74 1166.86 583.062 1166.37 583.403C1165.89 583.739 1165.76 584.017 1165.73 584.183C1165.71 584.348 1165.73 584.652 1166.07 585.132C1166.42 585.618 1167.03 586.176 1167.92 586.744C1169.7 587.877 1172.36 588.883 1175.48 589.424C1178.6 589.964 1181.45 589.912 1183.51 589.444C1184.54 589.21 1185.3 588.888 1185.79 588.548ZM1175.23 590.902C1181.76 592.033 1187.43 590.744 1187.9 588.023C1188.38 585.303 1183.46 582.18 1176.93 581.048C1170.4 579.917 1164.73 581.206 1164.26 583.927C1163.79 586.648 1168.7 589.77 1175.23 590.902Z" fill="#000231"/>
<path fill-rule="evenodd" clip-rule="evenodd" d="M1163.57 587.868L1164.25 583.927L1165.24 584.097L1164.56 588.039L1163.57 587.868Z" fill="#000231"/>
<path fill-rule="evenodd" clip-rule="evenodd" d="M1186.24 591.794L1186.92 587.853L1187.9 588.023L1187.22 591.965L1186.24 591.794Z" fill="#000231"/>
<path d="M1407.5 438.989C1407.03 441.71 1401.35 442.998 1394.82 441.867C1388.29 440.736 1383.38 437.613 1383.85 434.892C1385.06 427.925 1390 430.882 1396.53 432.014C1403.06 433.145 1408.62 432.515 1407.5 438.989Z" fill="#F1F5F6"/>
<path fill-rule="evenodd" clip-rule="evenodd" d="M1405.38 439.513C1405.87 439.176 1405.99 438.898 1406.02 438.733C1406.27 437.295 1406.1 436.499 1405.86 436.035C1405.62 435.593 1405.18 435.218 1404.35 434.898C1403.49 434.568 1402.37 434.356 1400.95 434.156C1400.52 434.096 1400.07 434.036 1399.6 433.974C1398.55 433.838 1397.42 433.689 1396.27 433.492C1394.94 433.26 1393.66 432.953 1392.51 432.678C1392.2 432.605 1391.91 432.534 1391.62 432.467C1390.21 432.137 1389.1 431.92 1388.19 431.916C1387.32 431.912 1386.81 432.105 1386.45 432.442C1386.05 432.81 1385.61 433.563 1385.33 435.148C1385.3 435.313 1385.33 435.617 1385.67 436.097C1386.02 436.583 1386.62 437.142 1387.52 437.71C1389.3 438.842 1391.96 439.849 1395.08 440.389C1398.2 440.929 1401.04 440.877 1403.1 440.41C1404.13 440.175 1404.89 439.853 1405.38 439.513ZM1394.82 441.867C1401.35 442.998 1407.03 441.71 1407.5 438.989C1408.43 433.616 1404.76 433.136 1399.75 432.482C1398.72 432.348 1397.64 432.206 1396.53 432.014C1395.25 431.791 1394.03 431.499 1392.88 431.225C1388.2 430.104 1384.82 429.294 1383.85 434.892C1383.38 437.613 1388.29 440.736 1394.82 441.867Z" fill="#000231"/>
<path d="M1408.18 435.047C1407.71 437.768 1402.03 439.057 1395.5 437.926C1388.97 436.794 1384.06 433.671 1384.53 430.951C1385.01 428.23 1390.68 426.941 1397.21 428.072C1403.74 429.204 1408.65 432.326 1408.18 435.047Z" fill="#F1F5F6"/>
<path fill-rule="evenodd" clip-rule="evenodd" d="M1406.07 435.571C1406.55 435.235 1406.68 434.957 1406.7 434.791C1406.73 434.626 1406.71 434.322 1406.37 433.842C1406.02 433.356 1405.41 432.798 1404.52 432.23C1402.74 431.097 1400.07 430.091 1396.96 429.55C1393.84 429.01 1390.99 429.062 1388.93 429.53C1387.9 429.764 1387.14 430.086 1386.65 430.426C1386.17 430.763 1386.04 431.041 1386.01 431.207C1385.98 431.372 1386.01 431.676 1386.35 432.156C1386.7 432.642 1387.31 433.2 1388.2 433.768C1389.98 434.901 1392.64 435.907 1395.76 436.448C1398.88 436.988 1401.73 436.935 1403.78 436.468C1404.82 436.234 1405.57 435.912 1406.07 435.571ZM1395.5 437.926C1402.03 439.057 1407.71 437.768 1408.18 435.047C1408.65 432.326 1403.74 429.204 1397.21 428.072C1390.68 426.941 1385.01 428.23 1384.53 430.951C1384.06 433.671 1388.97 436.794 1395.5 437.926Z" fill="#000231"/>
<path fill-rule="evenodd" clip-rule="evenodd" d="M1383.85 434.892L1384.54 430.951L1385.52 431.121L1384.84 435.063L1383.85 434.892Z" fill="#000231"/>
<path fill-rule="evenodd" clip-rule="evenodd" d="M1406.51 438.818L1407.2 434.877L1408.18 435.047L1407.5 438.989L1406.51 438.818Z" fill="#000231"/>
<path d="M1413.45 433.93C1412.98 436.651 1407.3 437.94 1400.77 436.808C1394.24 435.677 1389.33 432.554 1389.8 429.833C1390.75 424.345 1396.56 422.306 1403.09 423.438C1409.62 424.569 1414.4 428.442 1413.45 433.93Z" fill="#F1F5F6"/>
<path fill-rule="evenodd" clip-rule="evenodd" d="M1411.34 434.454C1411.82 434.118 1411.94 433.84 1411.97 433.674C1412.35 431.483 1411.62 429.631 1410.04 428.138C1408.43 426.603 1405.9 425.447 1402.83 424.916C1399.77 424.384 1397 424.624 1394.96 425.525C1392.98 426.402 1391.66 427.898 1391.28 430.089C1391.25 430.255 1391.28 430.559 1391.62 431.039C1391.97 431.525 1392.57 432.083 1393.47 432.651C1395.25 433.784 1397.91 434.79 1401.03 435.33C1404.15 435.871 1406.99 435.818 1409.05 435.351C1410.09 435.117 1410.84 434.795 1411.34 434.454ZM1400.77 436.808C1407.3 437.94 1412.98 436.651 1413.45 433.93C1414.4 428.442 1409.62 424.569 1403.09 423.438C1396.56 422.306 1390.75 424.345 1389.8 429.833C1389.33 432.554 1394.24 435.677 1400.77 436.808Z" fill="#000231"/>
<path d="M1414.14 429.989C1413.66 432.71 1407.99 433.999 1401.46 432.867C1394.93 431.736 1390.02 428.613 1390.49 425.892C1390.96 423.171 1396.63 421.883 1403.16 423.014C1409.69 424.145 1414.61 427.268 1414.14 429.989Z" fill="#F1F5F6"/>
<path fill-rule="evenodd" clip-rule="evenodd" d="M1412.02 430.513C1412.5 430.177 1412.63 429.898 1412.66 429.733C1412.69 429.568 1412.66 429.263 1412.32 428.784C1411.97 428.298 1411.36 427.739 1410.47 427.171C1408.69 426.039 1406.03 425.032 1402.91 424.492C1399.79 423.952 1396.94 424.004 1394.89 424.471C1393.85 424.706 1393.09 425.028 1392.6 425.368C1392.12 425.704 1391.99 425.983 1391.97 426.148C1391.94 426.314 1391.96 426.618 1392.3 427.098C1392.65 427.583 1393.26 428.142 1394.15 428.71C1395.93 429.842 1398.6 430.849 1401.71 431.389C1404.83 431.93 1407.68 431.877 1409.74 431.41C1410.77 431.175 1411.53 430.854 1412.02 430.513ZM1401.46 432.867C1407.99 433.999 1413.66 432.71 1414.14 429.989C1414.61 427.268 1409.69 424.145 1403.16 423.014C1396.63 421.883 1390.96 423.171 1390.49 425.892C1390.02 428.613 1394.93 431.736 1401.46 432.867Z" fill="#000231"/>
<path fill-rule="evenodd" clip-rule="evenodd" d="M1389.8 429.833L1390.49 425.892L1391.47 426.063L1390.79 430.004L1389.8 429.833Z" fill="#000231"/>
<path fill-rule="evenodd" clip-rule="evenodd" d="M1412.47 433.76L1413.15 429.818L1414.13 429.989L1413.45 433.93L1412.47 433.76Z" fill="#000231"/>
<path d="M1408.22 428.965C1407.75 431.686 1402.07 432.974 1395.54 431.843C1389.01 430.712 1384.1 427.589 1384.57 424.868C1386.04 416.424 1391.33 417.341 1397.86 418.472C1404.39 419.603 1409.59 421.082 1408.22 428.965Z" fill="#F1F5F6"/>
<path fill-rule="evenodd" clip-rule="evenodd" d="M1406.1 429.489C1406.59 429.152 1406.71 428.874 1406.74 428.709C1407.06 426.895 1406.97 425.579 1406.67 424.608C1406.37 423.662 1405.84 422.953 1405.09 422.375C1403.48 421.14 1400.93 420.526 1397.6 419.95C1395.95 419.664 1394.47 419.409 1393.12 419.302C1391.76 419.195 1390.65 419.249 1389.74 419.518C1388.87 419.775 1388.15 420.237 1387.55 421.041C1386.93 421.875 1386.39 423.154 1386.05 425.124C1386.02 425.289 1386.05 425.593 1386.39 426.073C1386.74 426.559 1387.34 427.118 1388.24 427.686C1390.02 428.818 1392.68 429.825 1395.8 430.365C1398.92 430.905 1401.76 430.853 1403.82 430.386C1404.85 430.151 1405.61 429.829 1406.1 429.489ZM1395.54 431.843C1402.07 432.974 1407.75 431.686 1408.22 428.965C1409.59 421.082 1404.39 419.603 1397.86 418.472C1391.33 417.341 1386.04 416.424 1384.57 424.868C1384.1 427.589 1389.01 430.712 1395.54 431.843Z" fill="#000231"/>
<path d="M1408.9 425.023C1408.43 427.744 1402.76 429.033 1396.23 427.902C1389.7 426.77 1384.79 423.648 1385.26 420.927C1385.73 418.206 1391.4 416.917 1397.93 418.048C1404.46 419.18 1409.38 422.303 1408.9 425.023Z" fill="#F1F5F6"/>
<path fill-rule="evenodd" clip-rule="evenodd" d="M1406.79 425.548C1407.27 425.211 1407.4 424.933 1407.43 424.767C1407.46 424.602 1407.43 424.298 1407.09 423.818C1406.74 423.332 1406.13 422.774 1405.24 422.206C1403.46 421.073 1400.8 420.067 1397.68 419.526C1394.56 418.986 1391.71 419.038 1389.66 419.506C1388.62 419.74 1387.86 420.062 1387.37 420.403C1386.89 420.739 1386.76 421.017 1386.73 421.183C1386.71 421.348 1386.73 421.652 1387.07 422.132C1387.42 422.618 1388.03 423.176 1388.92 423.744C1390.7 424.877 1393.36 425.883 1396.48 426.424C1399.6 426.964 1402.45 426.912 1404.51 426.444C1405.54 426.21 1406.3 425.888 1406.79 425.548ZM1396.23 427.902C1402.76 429.033 1408.43 427.744 1408.9 425.023C1409.38 422.303 1404.46 419.18 1397.93 418.048C1391.4 416.917 1385.73 418.206 1385.26 420.927C1384.79 423.648 1389.7 426.77 1396.23 427.902Z" fill="#000231"/>
<path fill-rule="evenodd" clip-rule="evenodd" d="M1384.57 424.868L1385.25 420.927L1386.24 421.097L1385.56 425.039L1384.57 424.868Z" fill="#000231"/>
<path fill-rule="evenodd" clip-rule="evenodd" d="M1407.24 428.794L1407.92 424.853L1408.9 425.023L1408.22 428.965L1407.24 428.794Z" fill="#000231"/>
</g>
<defs>
<filter id="filter0_d" x="916.795" y="271.416" width="178.291" height="192.133" filterUnits="userSpaceOnUse" color-interpolation-filters="sRGB">
<feFlood flood-opacity="0" result="BackgroundImageFix"/>
<feColorMatrix in="SourceAlpha" type="matrix" values="0 0 0 0 0 0 0 0 0 0 0 0 0 0 0 0 0 0 127 0" result="hardAlpha"/>
<feOffset dx="-15"/>
<feGaussianBlur stdDeviation="12.5"/>
<feColorMatrix type="matrix" values="0 0 0 0 0 0 0 0 0 0 0 0 0 0 0 0 0 0 0.2 0"/>
<feBlend mode="normal" in2="BackgroundImageFix" result="effect1_dropShadow"/>
<feBlend mode="normal" in="SourceGraphic" in2="effect1_dropShadow" result="shape"/>
</filter>
<filter id="filter1_d" x="1325.79" y="138.416" width="178.291" height="192.133" filterUnits="userSpaceOnUse" color-interpolation-filters="sRGB">
<feFlood flood-opacity="0" result="BackgroundImageFix"/>
<feColorMatrix in="SourceAlpha" type="matrix" values="0 0 0 0 0 0 0 0 0 0 0 0 0 0 0 0 0 0 127 0" result="hardAlpha"/>
<feOffset dx="-15"/>
<feGaussianBlur stdDeviation="12.5"/>
<feColorMatrix type="matrix" values="0 0 0 0 0 0 0 0 0 0 0 0 0 0 0 0 0 0 0.2 0"/>
<feBlend mode="normal" in2="BackgroundImageFix" result="effect1_dropShadow"/>
<feBlend mode="normal" in="SourceGraphic" in2="effect1_dropShadow" result="shape"/>
</filter>
<filter id="filter2_d" x="1701.79" y="202.416" width="178.291" height="192.133" filterUnits="userSpaceOnUse" color-interpolation-filters="sRGB">
<feFlood flood-opacity="0" result="BackgroundImageFix"/>
<feColorMatrix in="SourceAlpha" type="matrix" values="0 0 0 0 0 0 0 0 0 0 0 0 0 0 0 0 0 0 127 0" result="hardAlpha"/>
<feOffset dx="-15"/>
<feGaussianBlur stdDeviation="12.5"/>
<feColorMatrix type="matrix" values="0 0 0 0 0 0 0 0 0 0 0 0 0 0 0 0 0 0 0.2 0"/>
<feBlend mode="normal" in2="BackgroundImageFix" result="effect1_dropShadow"/>
<feBlend mode="normal" in="SourceGraphic" in2="effect1_dropShadow" result="shape"/>
</filter>
<filter id="filter3_d" x="1448.79" y="561.416" width="178.291" height="192.133" filterUnits="userSpaceOnUse" color-interpolation-filters="sRGB">
<feFlood flood-opacity="0" result="BackgroundImageFix"/>
<feColorMatrix in="SourceAlpha" type="matrix" values="0 0 0 0 0 0 0 0 0 0 0 0 0 0 0 0 0 0 127 0" result="hardAlpha"/>
<feOffset dx="-15"/>
<feGaussianBlur stdDeviation="12.5"/>
<feColorMatrix type="matrix" values="0 0 0 0 0 0 0 0 0 0 0 0 0 0 0 0 0 0 0.2 0"/>
<feBlend mode="normal" in2="BackgroundImageFix" result="effect1_dropShadow"/>
<feBlend mode="normal" in="SourceGraphic" in2="effect1_dropShadow" result="shape"/>
</filter>
<linearGradient id="paint0_linear" x1="1470.17" y1="-7.5848" x2="1457.71" y2="66.7216" gradientUnits="userSpaceOnUse">
<stop stop-color="#192E49"/>
<stop offset="1" stop-color="#142436"/>
</linearGradient>
<linearGradient id="paint1_linear" x1="1282.08" y1="-39.1121" x2="1269.63" y2="35.1942" gradientUnits="userSpaceOnUse">
<stop stop-color="#192E49"/>
<stop offset="1" stop-color="#142436"/>
</linearGradient>
<linearGradient id="paint2_linear" x1="1094" y1="-70.6356" x2="1081.54" y2="3.67077" gradientUnits="userSpaceOnUse">
<stop stop-color="#192E49"/>
<stop offset="1" stop-color="#142436"/>
</linearGradient>
<linearGradient id="paint3_linear" x1="1656.16" y1="37.2847" x2="1647.22" y2="90.6104" gradientUnits="userSpaceOnUse">
<stop stop-color="#192E49"/>
<stop offset="1" stop-color="#142436"/>
</linearGradient>
<linearGradient id="paint4_linear" x1="1468.08" y1="5.76515" x2="1459.14" y2="59.0909" gradientUnits="userSpaceOnUse">
<stop stop-color="#192E49"/>
<stop offset="1" stop-color="#142436"/>
</linearGradient>
<linearGradient id="paint5_linear" x1="1279.99" y1="-25.7622" x2="1271.05" y2="27.5635" gradientUnits="userSpaceOnUse">
<stop stop-color="#192E49"/>
<stop offset="1" stop-color="#142436"/>
</linearGradient>
<linearGradient id="paint6_linear" x1="2001.68" y1="282.302" x2="1989.23" y2="356.608" gradientUnits="userSpaceOnUse">
<stop stop-color="#192E49"/>
<stop offset="1" stop-color="#142436"/>
</linearGradient>
<linearGradient id="paint7_linear" x1="1780.86" y1="446.099" x2="1768.4" y2="520.405" gradientUnits="userSpaceOnUse">
<stop stop-color="#192E49"/>
<stop offset="1" stop-color="#142436"/>
</linearGradient>
<linearGradient id="paint8_linear" x1="1658.25" y1="23.9347" x2="1645.79" y2="98.2411" gradientUnits="userSpaceOnUse">
<stop stop-color="#192E49"/>
<stop offset="1" stop-color="#142436"/>
</linearGradient>
<linearGradient id="paint9_linear" x1="1846.28" y1="56.0402" x2="1833.82" y2="130.347" gradientUnits="userSpaceOnUse">
<stop stop-color="#192E49"/>
<stop offset="1" stop-color="#142436"/>
</linearGradient>
<linearGradient id="paint10_linear" x1="1592.78" y1="414.575" x2="1580.32" y2="488.882" gradientUnits="userSpaceOnUse">
<stop stop-color="#192E49"/>
<stop offset="1" stop-color="#142436"/>
</linearGradient>
<linearGradient id="paint11_linear" x1="1999.59" y1="295.652" x2="1990.65" y2="348.978" gradientUnits="userSpaceOnUse">
<stop stop-color="#192E49"/>
<stop offset="1" stop-color="#142436"/>
</linearGradient>
<linearGradient id="paint12_linear" x1="1966.86" y1="490.972" x2="1957.92" y2="544.298" gradientUnits="userSpaceOnUse">
<stop stop-color="#192E49"/>
<stop offset="1" stop-color="#142436"/>
</linearGradient>
<linearGradient id="paint13_linear" x1="1778.77" y1="459.449" x2="1769.83" y2="512.774" gradientUnits="userSpaceOnUse">
<stop stop-color="#192E49"/>
<stop offset="1" stop-color="#142436"/>
</linearGradient>
<linearGradient id="paint14_linear" x1="1844.19" y1="69.3902" x2="1835.25" y2="122.716" gradientUnits="userSpaceOnUse">
<stop stop-color="#192E49"/>
<stop offset="1" stop-color="#142436"/>
</linearGradient>
<linearGradient id="paint15_linear" x1="1059.17" y1="138.035" x2="1050.23" y2="191.36" gradientUnits="userSpaceOnUse">
<stop stop-color="#192E49"/>
<stop offset="1" stop-color="#142436"/>
</linearGradient>
<linearGradient id="paint16_linear" x1="1369.86" y1="591.714" x2="1360.93" y2="645.04" gradientUnits="userSpaceOnUse">
<stop stop-color="#192E49"/>
<stop offset="1" stop-color="#142436"/>
</linearGradient>
<linearGradient id="paint17_linear" x1="1214.52" y1="364.871" x2="1205.58" y2="418.196" gradientUnits="userSpaceOnUse">
<stop stop-color="#192E49"/>
<stop offset="1" stop-color="#142436"/>
</linearGradient>
<linearGradient id="paint18_linear" x1="1181.79" y1="560.191" x2="1172.85" y2="613.517" gradientUnits="userSpaceOnUse">
<stop stop-color="#192E49"/>
<stop offset="1" stop-color="#142436"/>
</linearGradient>
<linearGradient id="paint19_linear" x1="1402.6" y1="396.398" x2="1393.66" y2="449.724" gradientUnits="userSpaceOnUse">
<stop stop-color="#192E49"/>
<stop offset="1" stop-color="#142436"/>
</linearGradient>
<linearGradient id="paint20_linear" x1="1746.84" y1="653.871" x2="1737.91" y2="707.196" gradientUnits="userSpaceOnUse">
<stop stop-color="#192E49"/>
<stop offset="1" stop-color="#142436"/>
</linearGradient>
<linearGradient id="paint21_linear" x1="1937.02" y1="672.052" x2="1924.57" y2="746.358" gradientUnits="userSpaceOnUse">
<stop stop-color="#192E49"/>
<stop offset="1" stop-color="#142436"/>
</linearGradient>
<linearGradient id="paint22_linear" x1="1934.84" y1="685.597" x2="1925.9" y2="738.923" gradientUnits="userSpaceOnUse">
<stop stop-color="#192E49"/>
<stop offset="1" stop-color="#142436"/>
</linearGradient>
<linearGradient id="paint23_linear" x1="1590.67" y1="428.498" x2="1581.85" y2="481.845" gradientUnits="userSpaceOnUse">
<stop stop-color="#192E49"/>
<stop offset="1" stop-color="#142436"/>
</linearGradient>
<linearGradient id="paint24_linear" x1="1246.84" y1="169.597" x2="1237.9" y2="222.923" gradientUnits="userSpaceOnUse">
<stop stop-color="#192E49"/>
<stop offset="1" stop-color="#142436"/>
</linearGradient>
<linearGradient id="paint25_linear" x1="1622.84" y1="232.597" x2="1613.9" y2="285.923" gradientUnits="userSpaceOnUse">
<stop stop-color="#192E49"/>
<stop offset="1" stop-color="#142436"/>
</linearGradient>
<linearGradient id="paint26_linear" x1="1028.34" y1="320.208" x2="1015.89" y2="394.515" gradientUnits="userSpaceOnUse">
<stop stop-color="#192E49"/>
<stop offset="1" stop-color="#142436"/>
</linearGradient>
<linearGradient id="paint27_linear" x1="1025.84" y1="333.597" x2="1016.9" y2="386.923" gradientUnits="userSpaceOnUse">
<stop stop-color="#192E49"/>
<stop offset="1" stop-color="#142436"/>
</linearGradient>
<linearGradient id="paint28_linear" x1="1437.34" y1="187.208" x2="1424.89" y2="261.515" gradientUnits="userSpaceOnUse">
<stop stop-color="#192E49"/>
<stop offset="1" stop-color="#142436"/>
</linearGradient>
<linearGradient id="paint29_linear" x1="1434.84" y1="200.597" x2="1425.9" y2="253.923" gradientUnits="userSpaceOnUse">
<stop stop-color="#192E49"/>
<stop offset="1" stop-color="#142436"/>
</linearGradient>
<linearGradient id="paint30_linear" x1="1813.34" y1="251.208" x2="1800.89" y2="325.515" gradientUnits="userSpaceOnUse">
<stop stop-color="#192E49"/>
<stop offset="1" stop-color="#142436"/>
</linearGradient>
<linearGradient id="paint31_linear" x1="1810.84" y1="264.597" x2="1801.9" y2="317.923" gradientUnits="userSpaceOnUse">
<stop stop-color="#192E49"/>
<stop offset="1" stop-color="#142436"/>
</linearGradient>
<linearGradient id="paint32_linear" x1="1560.34" y1="610.208" x2="1547.89" y2="684.515" gradientUnits="userSpaceOnUse">
<stop stop-color="#192E49"/>
<stop offset="1" stop-color="#142436"/>
</linearGradient>
<linearGradient id="paint33_linear" x1="1557.84" y1="623.597" x2="1548.9" y2="676.923" gradientUnits="userSpaceOnUse">
<stop stop-color="#192E49"/>
<stop offset="1" stop-color="#142436"/>
</linearGradient>
</defs>
</svg>
