<?xml version="1.0" encoding="UTF-8"?>
<svg width="800px" height="288px" viewBox="0 0 800 288" version="1.1" xmlns="http://www.w3.org/2000/svg" xmlns:xlink="http://www.w3.org/1999/xlink">
    <title>Group 47</title>
    <g id="Page-1" stroke="none" stroke-width="1" fill="none" fill-rule="evenodd">
        <g id="HOMEPAGE-Desktop" transform="translate(-835.000000, -5356.000000)" fill="#00E599" stroke="#00E599">
            <g id="Duel-tokens-panel" transform="translate(235.500000, 5120.800000)">
                <g id="Group-47" transform="translate(600.500000, 236.000000)">
                    <polygon id="Polygon-Copy-9" points="11.5 249.2 21.4592921 254.7 21.4592921 265.7 11.5 271.2 1.54070786 265.7 1.54070786 254.7"></polygon>
                    <polygon id="Polygon-Copy-9" points="11.5 225.2 21.4592921 230.7 21.4592921 241.7 11.5 247.2 1.54070786 241.7 1.54070786 230.7"></polygon>
                    <polygon id="Polygon-Copy-9" points="11.5 177.2 21.4592921 182.7 21.4592921 193.7 11.5 199.2 1.54070786 193.7 1.54070786 182.7"></polygon>
                    <polygon id="Polygon-Copy-9" points="11.5 201.2 21.4592921 206.7 21.4592921 217.7 11.5 223.2 1.54070786 217.7 1.54070786 206.7"></polygon>
                    <polygon id="Polygon-Copy-9" points="94.5 199.2 104.459292 204.7 104.459292 215.7 94.5 221.2 84.5407079 215.7 84.5407079 204.7"></polygon>
                    <polygon id="Polygon-Copy-9" points="94.5 175.2 104.459292 180.7 104.459292 191.7 94.5 197.2 84.5407079 191.7 84.5407079 180.7"></polygon>
                    <polygon id="Polygon-Copy-9" points="94.5 151.2 104.459292 156.7 104.459292 167.7 94.5 173.2 84.5407079 167.7 84.5407079 156.7"></polygon>
                    <polygon id="Polygon-Copy-9" points="135 152.2 144.959292 157.7 144.959292 168.7 135 174.2 125.040708 168.7 125.040708 157.7"></polygon>
                    <polygon id="Polygon-Copy-9" points="135 128.2 144.959292 133.7 144.959292 144.7 135 150.2 125.040708 144.7 125.040708 133.7"></polygon>
                    <polygon id="Polygon-Copy-9" points="176.5 152.2 186.459292 157.7 186.459292 168.7 176.5 174.2 166.540708 168.7 166.540708 157.7"></polygon>
                    <polygon id="Polygon-Copy-9" points="216.5 194.7 226.459292 200.2 226.459292 211.2 216.5 216.7 206.540708 211.2 206.540708 200.2"></polygon>
                    <polygon id="Polygon-Copy-9" points="216.5 170.7 226.459292 176.2 226.459292 187.2 216.5 192.7 206.540708 187.2 206.540708 176.2"></polygon>
                    <polygon id="Polygon-Copy-9" points="216.5 122.7 226.459292 128.2 226.459292 139.2 216.5 144.7 206.540708 139.2 206.540708 128.2"></polygon>
                    <polygon id="Polygon-Copy-9" points="216.5 146.7 226.459292 152.2 226.459292 163.2 216.5 168.7 206.540708 163.2 206.540708 152.2"></polygon>
                    <polygon id="Polygon-Copy-9" points="256.5 162.2 266.459292 167.7 266.459292 178.7 256.5 184.2 246.540708 178.7 246.540708 167.7"></polygon>
                    <polygon id="Polygon-Copy-9" points="296.5 121.7 306.459292 127.2 306.459292 138.2 296.5 143.7 286.540708 138.2 286.540708 127.2"></polygon>
                    <polygon id="Polygon-Copy-9" points="296.5 145.7 306.459292 151.2 306.459292 162.2 296.5 167.7 286.540708 162.2 286.540708 151.2"></polygon>
                    <polygon id="Polygon-Copy-9" points="338.5 109.7 348.459292 115.2 348.459292 126.2 338.5 131.7 328.540708 126.2 328.540708 115.2"></polygon>
                    <polygon id="Polygon-Copy-9" points="338.5 133.7 348.459292 139.2 348.459292 150.2 338.5 155.7 328.540708 150.2 328.540708 139.2"></polygon>
                    <polygon id="Polygon-Copy-9" points="378.5 162.7 388.459292 168.2 388.459292 179.2 378.5 184.7 368.540708 179.2 368.540708 168.2"></polygon>
                    <polygon id="Polygon-Copy-9" points="378.5 138.7 388.459292 144.2 388.459292 155.2 378.5 160.7 368.540708 155.2 368.540708 144.2"></polygon>
                    <polygon id="Polygon-Copy-9" points="378.5 114.7 388.459292 120.2 388.459292 131.2 378.5 136.7 368.540708 131.2 368.540708 120.2"></polygon>
                    <polygon id="Polygon-Copy-9" points="420 174.7 429.959292 180.2 429.959292 191.2 420 196.7 410.040708 191.2 410.040708 180.2"></polygon>
                    <polygon id="Polygon-Copy-9" points="460 156.7 469.959292 162.2 469.959292 173.2 460 178.7 450.040708 173.2 450.040708 162.2"></polygon>
                    <polygon id="Polygon-Copy-9" points="460 132.7 469.959292 138.2 469.959292 149.2 460 154.7 450.040708 149.2 450.040708 138.2"></polygon>
                    <polygon id="Polygon-Copy-9" points="500 114.2 509.959292 119.7 509.959292 130.7 500 136.2 490.040708 130.7 490.040708 119.7"></polygon>
                    <polygon id="Polygon-Copy-9" points="540.5 109.7 550.459292 115.2 550.459292 126.2 540.5 131.7 530.540708 126.2 530.540708 115.2"></polygon>
                    <polygon id="Polygon-Copy-9" points="540.5 85.7 550.459292 91.2 550.459292 102.2 540.5 107.7 530.540708 102.2 530.540708 91.2"></polygon>
                    <polygon id="Polygon-Copy-9" points="540.5 37.7 550.459292 43.2 550.459292 54.2 540.5 59.7 530.540708 54.2 530.540708 43.2"></polygon>
                    <polygon id="Polygon-Copy-9" points="540.5 61.7 550.459292 67.2 550.459292 78.2 540.5 83.7 530.540708 78.2 530.540708 67.2"></polygon>
                    <polygon id="Polygon-Copy-9" points="581.5 74.2 591.459292 79.7 591.459292 90.7 581.5 96.2 571.540708 90.7 571.540708 79.7"></polygon>
                    <polygon id="Polygon-Copy-9" points="621.5 136.7 631.459292 142.2 631.459292 153.2 621.5 158.7 611.540708 153.2 611.540708 142.2"></polygon>
                    <polygon id="Polygon-Copy-9" points="622 112.7 631.959292 118.2 631.959292 129.2 622 134.7 612.040708 129.2 612.040708 118.2"></polygon>
                    <polygon id="Polygon-Copy-9" points="663.5 128.2 673.459292 133.7 673.459292 144.7 663.5 150.2 653.540708 144.7 653.540708 133.7"></polygon>
                    <polygon id="Polygon-Copy-9" points="663.5 104.2 673.459292 109.7 673.459292 120.7 663.5 126.2 653.540708 120.7 653.540708 109.7"></polygon>
                    <polygon id="Polygon-Copy-9" points="703.5 108.2 713.459292 113.7 713.459292 124.7 703.5 130.2 693.540708 124.7 693.540708 113.7"></polygon>
                    <polygon id="Polygon-Copy-9" points="704 84.2 713.959292 89.7 713.959292 100.7 704 106.2 694.040708 100.7 694.040708 89.7"></polygon>
                    <polygon id="Polygon-Copy-9" points="744.5 60.2 754.459292 65.7 754.459292 76.7 744.5 82.2 734.540708 76.7 734.540708 65.7"></polygon>
                    <polygon id="Polygon-Copy-9" points="785.5 38.2 795.459292 43.7 795.459292 54.7 785.5 60.2 775.540708 54.7 775.540708 43.7"></polygon>
                    <polygon id="Polygon-Copy-9" points="786 14.2 795.959292 19.7 795.959292 30.7 786 36.2 776.040708 30.7 776.040708 19.7"></polygon>
                    <polygon id="Polygon-Copy-9" points="53.5 185.7 63.4592921 191.2 63.4592921 202.2 53.5 207.7 43.5407079 202.2 43.5407079 191.2"></polygon>
                </g>
            </g>
        </g>
    </g>
</svg>