<svg id="Layer_1" data-name="Layer 1" xmlns="http://www.w3.org/2000/svg" xmlns:xlink="http://www.w3.org/1999/xlink" viewBox="0 0 406 406"><defs><style>.cls-1,.cls-2,.cls-4,.cls-5,.cls-6,.cls-7{fill:none;stroke-miterlimit:10;stroke-width:10px;opacity:0.38;}.cls-1{stroke:url(#linear-gradient);}.cls-2{stroke:url(#linear-gradient-2);}.cls-3{fill:#2b393f;}.cls-4{stroke:url(#linear-gradient-3);}.cls-5{stroke:url(#linear-gradient-4);}.cls-6{stroke:url(#linear-gradient-5);}.cls-7{stroke:url(#linear-gradient-6);}.cls-8{fill:#00e599;}.cls-9{fill:#00af92;}</style><linearGradient id="linear-gradient" x1="5249.21" y1="-2532.24" x2="5278.44" y2="-2631.95" gradientTransform="translate(-5570.67 1359.34) rotate(13.66)" gradientUnits="userSpaceOnUse"><stop offset="0" stop-color="#02e49b" stop-opacity="0.38"/><stop offset="1" stop-color="#02e49b"/></linearGradient><linearGradient id="linear-gradient-2" x1="-11908.07" y1="1639.31" x2="-11877.84" y2="1536.17" gradientTransform="matrix(-0.97, 0.24, 0.24, 0.97, -11676.61, 1359.34)" xlink:href="#linear-gradient"/><linearGradient id="linear-gradient-3" x1="-7376.71" y1="5426.43" x2="-7312.58" y2="5426.58" gradientTransform="matrix(-2.13, 0.52, 0.14, 0.6, -16271.6, 921.34)" gradientUnits="userSpaceOnUse"><stop offset="0.07" stop-color="#02e49b" stop-opacity="0"/><stop offset="0.31" stop-color="#02e49b" stop-opacity="0.38"/><stop offset="1" stop-color="#02e49b"/></linearGradient><linearGradient id="linear-gradient-4" x1="608.31" y1="932.58" x2="769.29" y2="932.48" gradientTransform="matrix(0.97, -0.02, -0.02, 0.9, -376.83, -469.55)" gradientUnits="userSpaceOnUse"><stop offset="0.06" stop-color="#02e49b" stop-opacity="0"/><stop offset="0.31" stop-color="#02e49b" stop-opacity="0.38"/><stop offset="1" stop-color="#02e49b"/></linearGradient><linearGradient id="linear-gradient-5" x1="-12135.89" y1="-7266.98" x2="-12070.5" y2="-7266.98" gradientTransform="matrix(-0.45, 0.11, -0.55, -2.24, -9414.31, -14700.15)" xlink:href="#linear-gradient"/><linearGradient id="linear-gradient-6" x1="-13848.84" y1="-7321.63" x2="-13781.7" y2="-7321.64" gradientTransform="matrix(-0.44, 0.11, -0.55, -2.24, -9771.52, -14683.84)" xlink:href="#linear-gradient"/></defs><title>Artboard 31</title><line class="cls-1" x1="105.71" y1="122.85" x2="202.48" y2="64.3"/><line class="cls-2" x1="307.24" y1="121.95" x2="202.48" y2="64.3"/><path class="cls-3" d="M148.49,34.68l-.31,58.23a4.27,4.27,0,0,0,2.11,3.71l49.58,29a4.28,4.28,0,0,0,4.23,0l50.38-28a4.28,4.28,0,0,0,2.2-3.72l.1-58.71a4.27,4.27,0,0,0-2.12-3.7L204.92,2.65a4.25,4.25,0,0,0-4.24,0L150.65,31A4.27,4.27,0,0,0,148.49,34.68Z"/><line class="cls-4" x1="198.14" y1="403.6" x2="54.35" y2="321.18"/><line class="cls-5" x1="198.14" y1="403.6" x2="350.51" y2="321.14"/><line class="cls-6" x1="54.3" y1="204.09" x2="54.35" y2="321.18"/><line class="cls-7" x1="350.64" y1="204.09" x2="350.51" y2="321.14"/><path class="cls-3" d="M297.16,118.65l-.31,58.23a4.28,4.28,0,0,0,2.11,3.71l49.58,29a4.26,4.26,0,0,0,4.23,0l50.38-28a4.26,4.26,0,0,0,2.2-3.72l.1-58.72a4.27,4.27,0,0,0-2.12-3.69L353.6,86.62a4.27,4.27,0,0,0-4.25,0l-50,28.37A4.26,4.26,0,0,0,297.16,118.65Z"/><path class="cls-3" d="M.31,291.68,0,349.91a4.27,4.27,0,0,0,2.11,3.7l49.58,29a4.28,4.28,0,0,0,4.23.05l50.38-28a4.29,4.29,0,0,0,2.2-3.72l.1-58.72a4.27,4.27,0,0,0-2.12-3.69l-49.73-28.9a4.25,4.25,0,0,0-4.25,0L2.47,288A4.26,4.26,0,0,0,.31,291.68Z"/><path class="cls-3" d="M297.16,291.72,296.85,350a4.27,4.27,0,0,0,2.11,3.71l49.58,29a4.26,4.26,0,0,0,4.23,0l50.38-28a4.26,4.26,0,0,0,2.2-3.72l.1-58.71a4.29,4.29,0,0,0-2.12-3.7l-49.73-28.9a4.27,4.27,0,0,0-4.25,0l-50,28.36A4.27,4.27,0,0,0,297.16,291.72Z"/><path class="cls-3" d="M.36,118.05.05,176.29A4.25,4.25,0,0,0,2.16,180l49.58,29a4.26,4.26,0,0,0,4.22.05l50.39-28a4.27,4.27,0,0,0,2.19-3.73l.11-58.71a4.29,4.29,0,0,0-2.13-3.7L56.79,86a4.25,4.25,0,0,0-4.24,0l-50,28.37A4.26,4.26,0,0,0,.36,118.05Z"/><polygon class="cls-8" points="174.44 214.91 174.44 257.27 201.94 267.14 201.94 224.43 231.68 213.47 204.69 203.81 174.44 214.91"/><polygon class="cls-9" points="204.18 225.65 204.18 248.82 231.69 258.67 231.68 215.48 204.18 225.65"/></svg>