<?xml version="1.0" encoding="UTF-8"?>
<svg width="72px" height="54px" viewBox="0 0 72 54" version="1.1" xmlns="http://www.w3.org/2000/svg" xmlns:xlink="http://www.w3.org/1999/xlink">
    <title>Group</title>
    <g id="Page-1" stroke="none" stroke-width="1" fill="none" fill-rule="evenodd">
        <g id="HOMEPAGE-Desktop" transform="translate(-1310.000000, -1439.000000)">
            <g id="Neo-IS-NEW-AGAIN-panel" transform="translate(261.500000, 1264.706357)">
                <g id="Group-8" transform="translate(803.500000, 154.793643)">
                    <g id="Group" transform="translate(246.500000, 21.000000)">
                        <path d="M9.31,36.43 L66.37,36.43 C67.4745695,36.43 68.37,37.3254305 68.37,38.43 L68.37,42.05 L68.37,42.05 L7.31,42.05 L7.31,38.43 C7.31,37.3254305 8.2054305,36.43 9.31,36.43 Z" id="Rectangle" fill="#00E599" transform="translate(37.840000, 39.240000) scale(1, -1) translate(-37.840000, -39.240000) "></path>
                        <path d="M9.31,0.93 L66.37,0.93 C67.4745695,0.93 68.37,1.8254305 68.37,2.93 L68.37,36.05 L68.37,36.05 L7.31,36.05 L7.31,2.93 C7.31,1.8254305 8.2054305,0.93 9.31,0.93 Z" id="Rectangle" fill="#FFFFFF"></path>
                        <path d="M9.24877436,0 C7.94773642,0 6.8886,1.05106928 6.8886,2.3421976 L6.8886,40.8048452 C6.8886,42.0959735 7.94773642,43.1470428 9.24877436,43.1470428 L30.4380405,43.1470428 L30.4380405,50.189207 L27.0252677,50.189207 C26.7219101,50.189207 26.4747782,50.4331589 26.4747782,50.7355035 C26.4747782,51.0365505 26.7219101,51.2818 27.0252677,51.2818 L48.7493323,51.2818 C49.0539975,51.2818 49.2998218,51.0365505 49.2998218,50.7355035 C49.2998218,50.4331589 49.0539975,50.189207 48.7493323,50.189207 L45.3365595,50.189207 L45.3365595,43.1470428 L66.5258256,43.1470428 C67.8268636,43.1470428 68.886,42.0959735 68.886,40.8048452 L68.886,2.3421976 C68.886,1.05106928 67.8268636,0 66.5258256,0 L9.24877436,0 Z" id="Fill-1"></path>
                        <path d="M37.5046,2.2962 C37.0823618,2.2962 36.7392,2.63820312 36.7392,3.06234673 C36.7392,3.48499688 37.0823618,3.827 37.5046,3.827 C37.9268382,3.827 38.27,3.48499688 38.27,3.06234673 C38.27,2.63820312 37.9268382,2.2962 37.5046,2.2962" id="Fill-4" fill="#000033"></path>
                        <path d="M67.7850212,36.2160924 L7.99088642,36.2160924 L7.99088642,2.34225686 C7.99088642,1.65320512 8.55575917,1.09262065 9.24877436,1.09262065 L66.5258256,1.09262065 C67.2201484,1.09262065 67.7850212,1.65320512 67.7850212,2.34225686 L67.7850212,36.2160924 Z M67.7850212,40.8058777 C67.7850212,41.4936318 67.2201484,42.055514 66.5258256,42.055514 L9.24877436,42.055514 C8.55575917,42.055514 7.99088642,41.4936318 7.99088642,40.8058777 L7.99088642,36.6235543 L67.7850212,36.6235543 L67.7850212,40.8058777 Z M31.5390194,50.190477 L44.2355806,50.190477 L44.2355806,43.1481346 L31.5390194,43.1481346 L31.5390194,50.190477 Z M66.5258256,0 L9.24877436,0 C7.94773642,0 6.8886,1.05109588 6.8886,2.34225686 L6.8886,40.8058777 C6.8886,42.0970387 7.94773642,43.1481346 9.24877436,43.1481346 L30.4380405,43.1481346 L30.4380405,50.190477 L27.0252677,50.190477 C26.7219101,50.190477 26.4747782,50.4344351 26.4747782,50.7354897 C26.4747782,51.0378419 26.7219101,51.2818 27.0252677,51.2818 L48.7493323,51.2818 C49.0539975,51.2818 49.2998218,51.0378419 49.2998218,50.7354897 C49.2998218,50.4344351 49.0539975,50.190477 48.7493323,50.190477 L45.337867,50.190477 L45.337867,43.1481346 L66.5258256,43.1481346 C67.8268636,43.1481346 68.886,42.0970387 68.886,40.8058777 L68.886,2.34225686 C68.886,1.05109588 67.8268636,0 66.5258256,0 L66.5258256,0 Z" id="Fill-6" fill="#000033"></path>
                        <path d="M2.407076,23.7274 C1.08018369,23.7274 0,24.7643867 0,26.038216 L0,47.3197038 C1.9661902e-15,48.9765581 1.34314575,50.3197038 3,50.3197038 L13.0734,50.3197038 C14.7302542,50.3197038 16.0734,48.9765581 16.0734,47.3197038 L16.0734,26.038216 L16.0734,26.038216 C16.0734,24.7643867 14.9932163,23.7274 13.666324,23.7274 L2.407076,23.7274 Z" id="Fill-9" fill="#FFFFFF" transform="translate(8.036700, 37.023552) scale(1, -1) translate(-8.036700, -37.023552) "></path>
                        <path d="M2.407076,46.7274 C1.08018369,46.7274 -3.44613227e-13,47.7643867 -3.44613227e-13,49.038216 L-3.44613227e-13,50.3197038 L16.0734,50.3197038 L16.0734,49.038216 C16.0734,47.7643867 14.9932163,46.7274 13.666324,46.7274 L2.407076,46.7274 Z" id="Fill-9" fill="#00E599" transform="translate(8.036700, 48.523552) scale(1, -1) translate(-8.036700, -48.523552) "></path>
                        <path d="M8.0367,47.5573814 C8.61287397,47.5573814 9.08091877,48.0272079 9.08091877,48.6036727 C9.08091877,49.1785921 8.61287397,49.6484186 8.0367,49.6484186 C7.46052603,49.6484186 6.99093653,49.1785921 6.99093653,48.6036727 C6.99093653,48.0272079 7.46052603,47.5573814 8.0367,47.5573814 M8.0367,50.1337 C8.88010747,50.1337 9.5675,49.447506 9.5675,48.6036727 C9.5675,47.758294 8.88010747,47.0721 8.0367,47.0721 C7.19174783,47.0721 6.5059,47.758294 6.5059,48.6036727 C6.5059,49.447506 7.19174783,50.1337 8.0367,50.1337" id="Fill-12" fill="#000033"></path>
                        <path d="M9.31870538,26.5486644 L6.75469462,26.5486644 C6.61682754,26.5486644 6.5059,26.6558204 6.5059,26.789 C6.5059,26.9221796 6.61682754,27.0293356 6.75469462,27.0293356 L9.31870538,27.0293356 C9.45657246,27.0293356 9.5675,26.9221796 9.5675,26.789 C9.5675,26.6558204 9.45657246,26.5486644 9.31870538,26.5486644" id="Fill-14" fill="#000033"></path>
                        <path d="M14.9504492,46.4284464 L1.12295078,46.4284464 L1.12295078,26.038216 C1.12295078,25.3584136 1.69776288,24.805354 2.40594205,24.805354 L13.6661243,24.805354 C14.3743035,24.805354 14.9504492,25.3584136 14.9504492,26.038216 L14.9504492,46.4284464 Z M14.9504492,48.9697038 C14.9504492,49.6507864 14.3743035,50.2025657 13.6661243,50.2025657 L2.40594205,50.2025657 C1.69776288,50.2025657 1.12295078,49.6507864 1.12295078,48.9697038 L1.12295078,46.831719 L14.9504492,46.831719 L14.9504492,48.9697038 Z M13.6661243,23.7274 L2.40594205,23.7274 C1.07893964,23.7274 0,24.7643867 0,26.038216 L0,48.9697038 C0,50.2435331 1.07893964,51.2818 2.40594205,51.2818 L13.6661243,51.2818 C14.9931267,51.2818 16.0734,50.2435331 16.0734,48.9697038 L16.0734,26.038216 C16.0734,24.7643867 14.9931267,23.7274 13.6661243,23.7274 L13.6661243,23.7274 Z" id="Fill-16" fill="#000033"></path>
                    </g>
                </g>
            </g>
        </g>
    </g>
</svg>