<?xml version="1.0" encoding="UTF-8"?>
<svg width="128px" height="140px" viewBox="0 0 128 140" version="1.1" xmlns="http://www.w3.org/2000/svg" xmlns:xlink="http://www.w3.org/1999/xlink">
    <title>编组</title>
    <defs>
        <rect id="path-1" x="0" y="0" width="339" height="191" rx="4"></rect>
        <polygon id="path-3" points="0.5634 0.1942 166.511 0.1942 166.511 138.5142 0.5634 138.5142"></polygon>
        <polygon id="path-5" points="0 0.6709 42.1841 0.6709 42.1841 76 0 76"></polygon>
    </defs>
    <g id="Homepage" stroke="none" stroke-width="1" fill="none" fill-rule="evenodd">
        <g id="HOMEPAGE-PT-0.2" transform="translate(-477.000000, -884.000000)">
            <g id="Button-bar" transform="translate(266.000000, 767.000000)">
                <g id="编组-2" transform="translate(0.000000, 84.000000)">
                    <mask id="mask-2" fill="white">
                        <use xlink:href="#path-1"></use>
                    </mask>
                    <g id="Mask"></g>
                    <g id="编组" mask="url(#mask-2)">
                        <g transform="translate(190.000000, 11.000000)">
                            <g id="Group-19" transform="translate(21.000000, 22.000000)">
                                <g id="Group-3" transform="translate(16.000000, 0.305100)">
                                    <mask id="mask-4" fill="white">
                                        <use xlink:href="#path-3"></use>
                                    </mask>
                                    <g id="Clip-2"></g>
                                    <path d="M160.1949,0.1942 L6.8809,0.1942 C3.3984,0.1942 0.5634,3.0292 0.5634,6.5117 L0.5634,110.2552 C0.5634,113.7377 3.3984,116.5727 6.8809,116.5727 L63.5984,116.5727 L63.5984,135.5672 L54.4634,135.5672 C53.6514,135.5672 52.9899,136.2252 52.9899,137.0407 C52.9899,137.8527 53.6514,138.5142 54.4634,138.5142 L112.6124,138.5142 C113.4279,138.5142 114.0859,137.8527 114.0859,137.0407 C114.0859,136.2252 113.4279,135.5672 112.6124,135.5672 L103.4774,135.5672 L103.4774,116.5727 L160.1949,116.5727 C163.6774,116.5727 166.5124,113.7377 166.5124,110.2552 L166.5124,6.5117 C166.5124,3.0292 163.6774,0.1942 160.1949,0.1942" id="Fill-1" fill="#FFFFFF" mask="url(#mask-4)"></path>
                                </g>
                                <path d="M99.53825,5.42975 C98.54775,5.42975 97.74275,6.23125 97.74275,7.22525 C97.74275,8.21575 98.54775,9.01725 99.53825,9.01725 C100.52875,9.01725 101.33375,8.21575 101.33375,7.22525 C101.33375,6.23125 100.52875,5.42975 99.53825,5.42975" id="Fill-4" fill="#000033"></path>
                                <g id="Group-8" transform="translate(16.000000, 0.305100)" fill="#000033">
                                    <path d="M163.5647,97.8764 L3.5132,97.8764 L3.5132,6.5124 C3.5132,4.6539 5.0252,3.1419 6.8802,3.1419 L160.1942,3.1419 C162.0527,3.1419 163.5647,4.6539 163.5647,6.5124 L163.5647,97.8764 Z M163.5647,110.2559 C163.5647,112.1109 162.0527,113.6264 160.1942,113.6264 L6.8802,113.6264 C5.0252,113.6264 3.5132,112.1109 3.5132,110.2559 L3.5132,98.9754 L163.5647,98.9754 L163.5647,110.2559 Z M66.5447,135.5679 L100.5297,135.5679 L100.5297,116.5734 L66.5447,116.5734 L66.5447,135.5679 Z M160.1942,0.1949 L6.8802,0.1949 C3.3977,0.1949 0.5627,3.0299 0.5627,6.5124 L0.5627,110.2559 C0.5627,113.7384 3.3977,116.5734 6.8802,116.5734 L63.5977,116.5734 L63.5977,135.5679 L54.4627,135.5679 C53.6507,135.5679 52.9892,136.2259 52.9892,137.0379 C52.9892,137.8534 53.6507,138.5114 54.4627,138.5114 L112.6117,138.5114 C113.4272,138.5114 114.0852,137.8534 114.0852,137.0379 C114.0852,136.2259 113.4272,135.5679 112.6117,135.5679 L103.4802,135.5679 L103.4802,116.5734 L160.1942,116.5734 C163.6767,116.5734 166.5117,113.7384 166.5117,110.2559 L166.5117,6.5124 C166.5117,3.0299 163.6767,0.1949 160.1942,0.1949 L160.1942,0.1949 Z" id="Fill-6"></path>
                                </g>
                                <g id="Group-11" transform="translate(0.000000, 63.305100)">
                                    <mask id="mask-6" fill="white">
                                        <use xlink:href="#path-5"></use>
                                    </mask>
                                    <g id="Clip-10"></g>
                                    <path d="M35.8666,0.6709 L6.3161,0.6709 C2.8336,0.6709 -0.0014,3.5059 -0.0014,6.9884 L-0.0014,69.6804 C-0.0014,73.1629 2.8336,76.0014 6.3161,76.0014 L35.8666,76.0014 C39.3491,76.0014 42.1841,73.1629 42.1841,69.6804 L42.1841,6.9884 C42.1841,3.5059 39.3491,0.6709 35.8666,0.6709" id="Fill-9" fill="#FFFFFF" mask="url(#mask-6)"></path>
                                </g>
                                <path d="M21.0924,129.3294 C22.3979,129.3294 23.4584,130.3934 23.4584,131.6989 C23.4584,133.0009 22.3979,134.0649 21.0924,134.0649 C19.7869,134.0649 18.7229,133.0009 18.7229,131.6989 C18.7229,130.3934 19.7869,129.3294 21.0924,129.3294 M21.0924,135.1639 C23.0034,135.1639 24.5609,133.6099 24.5609,131.6989 C24.5609,129.7844 23.0034,128.2304 21.0924,128.2304 C19.1779,128.2304 17.6239,129.7844 17.6239,131.6989 C17.6239,133.6099 19.1779,135.1639 21.0924,135.1639" id="Fill-12" fill="#000033"></path>
                                <path d="M23.9225,69.35095 L18.2595,69.35095 C17.955,69.35095 17.71,69.59595 17.71,69.90045 C17.71,70.20495 17.955,70.44995 18.2595,70.44995 L23.9225,70.44995 C24.227,70.44995 24.472,70.20495 24.472,69.90045 C24.472,69.59595 24.227,69.35095 23.9225,69.35095" id="Fill-14" fill="#575757"></path>
                                <g id="Group-18" transform="translate(0.000000, 63.305100)" fill="#000033">
                                    <path d="M39.23675,62.7329 L2.94875,62.7329 L2.94875,6.9884 C2.94875,5.1299 4.45725,3.6179 6.31575,3.6179 L35.86625,3.6179 C37.72475,3.6179 39.23675,5.1299 39.23675,6.9884 L39.23675,62.7329 Z M39.23675,69.6804 C39.23675,71.5424 37.72475,73.0509 35.86625,73.0509 L6.31575,73.0509 C4.45725,73.0509 2.94875,71.5424 2.94875,69.6804 L2.94875,63.8354 L39.23675,63.8354 L39.23675,69.6804 Z M35.86625,0.6709 L6.31575,0.6709 C2.83325,0.6709 0.00175,3.5059 0.00175,6.9884 L0.00175,69.6804 C0.00175,73.1629 2.83325,76.0014 6.31575,76.0014 L35.86625,76.0014 C39.34875,76.0014 42.18375,73.1629 42.18375,69.6804 L42.18375,6.9884 C42.18375,3.5059 39.34875,0.6709 35.86625,0.6709 L35.86625,0.6709 Z" id="Fill-16"></path>
                                </g>
                            </g>
                            <g id="Group-13"></g>
                        </g>
                    </g>
                </g>
            </g>
        </g>
    </g>
</svg>