<?xml version="1.0" encoding="UTF-8"?>
<svg width="177px" height="204px" viewBox="0 0 177 204" version="1.1" xmlns="http://www.w3.org/2000/svg" xmlns:xlink="http://www.w3.org/1999/xlink">
    <title>Group 36</title>
    <defs>
        <polygon id="path-1" points="100.1 3.69482223e-13 186.789143 50.05 186.789143 150.15 100.1 200.2 13.4108571 150.15 13.4108571 50.05"></polygon>
        <filter x="-69.7%" y="-69.5%" width="273.4%" height="287.0%" filterUnits="objectBoundingBox" id="filter-2">
            <feMorphology radius="1" operator="dilate" in="SourceAlpha" result="shadowSpreadOuter1"></feMorphology>
            <feOffset dx="34" dy="48" in="shadowSpreadOuter1" result="shadowOffsetOuter1"></feOffset>
            <feMorphology radius="1" operator="erode" in="SourceAlpha" result="shadowInner"></feMorphology>
            <feOffset dx="34" dy="48" in="shadowInner" result="shadowInner"></feOffset>
            <feComposite in="shadowOffsetOuter1" in2="shadowInner" operator="out" result="shadowOffsetOuter1"></feComposite>
            <feGaussianBlur stdDeviation="54" in="shadowOffsetOuter1" result="shadowBlurOuter1"></feGaussianBlur>
            <feColorMatrix values="0 0 0 0 0   0 0 0 0 0   0 0 0 0 0  0 0 0 0.5 0" type="matrix" in="shadowBlurOuter1"></feColorMatrix>
        </filter>
    </defs>
    <g id="Homepage" stroke="none" stroke-width="1" fill="none" fill-rule="evenodd">
        <g id="HOMEPAGE-PT-0.5" transform="translate(-649.000000, -327.000000)">
            <g id="Group-37" transform="translate(637.000000, 327.000000)">
                <g id="Group-36" transform="translate(0.000000, 2.000000)">
                    <g id="Polygon">
                        <use fill="black" fill-opacity="1" filter="url(#filter-2)" xlink:href="#path-1"></use>
                        <use stroke="#00E599" stroke-width="2" xlink:href="#path-1"></use>
                    </g>
                    <path d="M101.945708,145 L60,130.002514 L60,71.364702 L102.055635,56 L139.79236,69.4556658 L140,131.279258 L101.945708,117.249665 L101.945708,145 Z M64.0024342,126.846526 L98.032862,139 L98.032862,83.2683338 L132,70.6790782 L102.042026,60 L64,73.8844963 L64.0024342,126.846526 Z M102,113.441161 L136,126 L135.827251,74 L102.007299,86.5758297 L102,113.441161 Z" id="Shape" fill="#01E397" fill-rule="nonzero"></path>
                </g>
            </g>
        </g>
    </g>
</svg>