<?xml version="1.0" encoding="utf-8"?>
<!-- Generator: Adobe Illustrator 23.0.6, SVG Export Plug-In . SVG Version: 6.00 Build 0)  -->
<svg version="1.1" id="Layer_1" xmlns="http://www.w3.org/2000/svg" xmlns:xlink="http://www.w3.org/1999/xlink" x="0px" y="0px"
	 viewBox="0 0 294.2 289.1" style="enable-background:new 0 0 294.2 289.1;" xml:space="preserve">
<style type="text/css">
	.st0{opacity:0.38;fill:none;stroke:url(#SVGID_1_);stroke-width:10;stroke-miterlimit:10;enable-background:new    ;}
	.st1{fill:#00BD9B;}
	.st2{fill:url(#SVGID_2_);}
	.st3{fill:#F6F6F6;}
	.st4{fill:#FFFFFF;}
	.st5{fill:#00AF92;}
</style>
<title>Artboard 49</title>
<g>
	
		<linearGradient id="SVGID_1_" gradientUnits="userSpaceOnUse" x1="22.3514" y1="145.9342" x2="275.2356" y2="145.9342" gradientTransform="matrix(1 0 0 -1 0 292)">
		<stop  offset="0" style="stop-color:#02E49B;stop-opacity:0.38"/>
		<stop  offset="1" style="stop-color:#02E49B"/>
	</linearGradient>
	<circle class="st0" cx="148.8" cy="146.1" r="121.4"/>
	<circle class="st1" cx="148.8" cy="146.1" r="91.1"/>
	
		<linearGradient id="SVGID_2_" gradientUnits="userSpaceOnUse" x1="90.7267" y1="87.8674" x2="206.8602" y2="204.0009" gradientTransform="matrix(1 0 0 -1 0 292)">
		<stop  offset="0.22" style="stop-color:#02E49B"/>
		<stop  offset="0.34" style="stop-color:#02E49B;stop-opacity:0.99"/>
		<stop  offset="0.45" style="stop-color:#02E49B;stop-opacity:0.94"/>
		<stop  offset="0.55" style="stop-color:#02E49B;stop-opacity:0.86"/>
		<stop  offset="0.64" style="stop-color:#02E49B;stop-opacity:0.75"/>
		<stop  offset="0.73" style="stop-color:#02E49B;stop-opacity:0.62"/>
		<stop  offset="0.82" style="stop-color:#02E49B;stop-opacity:0.44"/>
		<stop  offset="0.91" style="stop-color:#02E49B;stop-opacity:0.24"/>
		<stop  offset="0.99" style="stop-color:#02E49B;stop-opacity:1.000000e-02"/>
		<stop  offset="0.99" style="stop-color:#02E49B;stop-opacity:0"/>
	</linearGradient>
	<circle class="st2" cx="148.8" cy="146.1" r="82.1"/>
	<polygon class="st1" points="155.6,99.5 109.3,116.8 109.2,178.5 147.7,192 147.9,126.5 188.4,111.2 	"/>
	<polygon class="st1" points="151.7,128.5 188.4,115 188.2,176.7 151.6,163.1 	"/>
	<rect x="139.1" y="15.1" class="st1" width="19" height="19"/>
	<rect x="142.5" y="12.4" class="st1" width="1.8" height="5.5"/>
	<rect x="152.9" y="12.4" class="st1" width="1.8" height="5.5"/>
	<rect x="147.7" y="12.4" class="st1" width="1.8" height="5.5"/>
	<rect x="142.5" y="31.4" class="st1" width="1.8" height="5.5"/>
	<rect x="152.9" y="31.4" class="st1" width="1.8" height="5.5"/>
	<rect x="147.7" y="31.4" class="st1" width="1.8" height="5.5"/>
	<rect x="136.4" y="28.6" class="st1" width="5.5" height="1.8"/>
	<rect x="136.4" y="18.1" class="st1" width="5.5" height="1.8"/>
	<rect x="136.4" y="23.4" class="st1" width="5.5" height="1.8"/>
	<rect x="155.4" y="28.6" class="st1" width="5.5" height="1.8"/>
	<rect x="155.4" y="18.2" class="st1" width="5.5" height="1.8"/>
	<rect x="155.4" y="23.4" class="st1" width="5.5" height="1.8"/>
	<path class="st1" d="M55.9,56.1c0.1,1.5-0.3,3-1.3,4.2c-0.8,1.2-2.1,1.9-3.5,2.1c-0.2,0-0.4,0-0.7,0c0-0.4,0-0.8,0-1.1
		c0.4-2.7,2.5-4.7,5.1-5.1l0.1,0L55.9,56.1z"/>
	<path class="st1" d="M60.9,65.5c-2.9,1.7-3.8,5.5-2.1,8.4c0.7,1.1,1.7,2,2.8,2.5c-0.2,0.6-0.4,1.1-0.7,1.7c-0.7,1.6-1.7,3-2.9,4.3
		c-1.1,1.3-2.9,1.7-4.4,0.9c-0.5-0.2-1-0.4-1.6-0.6c-1.1-0.3-2.2-0.2-3.2,0.3c-0.5,0.2-1,0.4-1.6,0.6c-1,0.3-2.1,0.1-2.9-0.6
		c-0.9-0.8-1.7-1.8-2.4-2.8c-1.5-2.2-2.4-4.8-2.7-7.5c-0.3-1.8-0.1-3.6,0.6-5.3c0.9-2.3,2.9-4,5.3-4.4c1-0.2,2,0,2.9,0.3
		c0.5,0.2,0.9,0.3,1.4,0.5c0.7,0.3,1.5,0.3,2.2,0c0.8-0.3,1.6-0.6,2.4-0.8c1.4-0.4,2.9-0.2,4.2,0.4C59.3,63.8,60.2,64.5,60.9,65.5z"
		/>
	<path class="st3" d="M26.9,173.8c4.4,0,8.7,0,13.1,0c0.7,0,0.9-0.2,0.7-0.9c0-0.1,0-0.2-0.1-0.4c-0.6-3.9-3-7.3-6.4-9.4
		c-0.5-0.3-0.4-0.5-0.2-0.9c0.6-1,1.2-2.1,1.8-3.2c0.2-0.3,0.4-0.6,0-0.9c-0.4-0.2-0.6,0.1-0.8,0.4c-0.6,1.1-1.3,2.2-1.8,3.3
		c-0.2,0.4-0.4,0.5-0.9,0.3c-3.5-1.4-7.4-1.4-10.8,0c-0.4,0.2-0.6,0.1-0.8-0.3c-0.6-1.1-1.3-2.2-1.9-3.3c-0.2-0.3-0.4-0.6-0.8-0.4
		c-0.4,0.2-0.2,0.6-0.1,0.9c0.6,1,1.1,2,1.7,3c0.4,0.6,0.3,0.9-0.3,1.3c-3.4,2.1-5.7,5.5-6.3,9.4c-0.2,1-0.2,1,0.8,1L26.9,173.8z
		 M36.2,177c0-0.3-0.2-0.6-0.5-0.6c-0.3-0.1-0.6,0.1-0.6,0.4c0,0,0,0.1,0,0.1c-0.1,0.3,0.1,0.5,0.4,0.6c0,0,0.1,0,0.1,0
		C35.9,177.6,36.2,177.4,36.2,177C36.2,177,36.2,177,36.2,177z"/>
	<path class="st1" d="M26.9,173.8H14c-1,0-1,0-0.8-1c0.6-3.9,2.9-7.3,6.2-9.4c0.6-0.4,0.7-0.7,0.3-1.3c-0.6-1-1.2-2-1.7-3
		c-0.2-0.3-0.3-0.6,0.1-0.9c0.4-0.3,0.6,0.1,0.8,0.4c0.6,1.1,1.3,2.2,1.9,3.3c0.2,0.4,0.4,0.5,0.8,0.3c3.5-1.4,7.4-1.4,10.8,0
		c0.5,0.2,0.7,0.1,0.9-0.3c0.6-1.1,1.2-2.2,1.8-3.3c0.2-0.3,0.4-0.7,0.8-0.4s0.2,0.6,0,0.9c-0.6,1.1-1.2,2.1-1.8,3.2
		c-0.2,0.4-0.3,0.6,0.2,0.9c3.4,2,5.7,5.5,6.4,9.4c0,0.1,0,0.3,0.1,0.4c0.2,0.6,0,0.9-0.7,0.9C35.7,173.8,31.4,173.8,26.9,173.8z
		 M21.8,168.7c0-0.6-0.6-1.1-1.2-1.1c-0.6,0.1-1.1,0.6-1,1.2c0,0,0,0,0,0c0,0.6,0.5,1.1,1.2,1.1C21.3,169.9,21.8,169.3,21.8,168.7z
		 M34.5,168.7c0-0.6-0.5-1.2-1.2-1.1c0,0,0,0,0,0c-0.6,0-1.2,0.5-1.1,1.2c0,0.6,0.5,1.2,1.2,1.1C34,169.9,34.5,169.4,34.5,168.7
		L34.5,168.7z"/>
	<path class="st3" d="M21.8,168.7c0,0.6-0.5,1.2-1.1,1.2c-0.6,0-1.1-0.5-1.1-1.1c-0.1-0.6,0.4-1.2,1-1.2c0,0,0,0,0,0
		C21.2,167.6,21.7,168.1,21.8,168.7z"/>
	<path class="st3" d="M34.5,168.7c0,0.6-0.5,1.2-1.1,1.2c-0.6,0-1.2-0.5-1.2-1.1c0-0.6,0.5-1.2,1.1-1.2
		C34,167.6,34.5,168.1,34.5,168.7C34.5,168.7,34.5,168.7,34.5,168.7z"/>
	<path class="st1" d="M253.4,72.8c-0.6-1.1-1.5-1.1-2.5-1.2c0.3-1.7,0.7-3.5-0.6-5c-0.3-0.2-0.6-0.4-0.9-0.5c2.2,2.2,2,4.5,0,6.7
		c0.6-1,1.9-1.3,2.9-0.7c0.2,0.1,0.4,0.3,0.6,0.4c0.2,0.1,0.4,0.3,0.6,0.4c0.2,0.2,0.5,0.5,0.5,0.8c0,1,0.7,1.9,1.7,2.2
		c0.5,0.1,0.8,0.6,0.6,1.1c-0.1,0.3-0.3,0.6-0.6,0.6c-1.6,0.8-3.1,1.8-4.5,3.1c-1,0.9-2.5,0.8-3.4-0.3c-0.1-0.1-0.1-0.1-0.1-0.2
		c-0.1-0.1-0.2-0.2-0.3-0.2c-1.8-0.3-3.6-0.3-5.4,0c-0.4,0.1-0.8,0.3-1.1,0.6c-0.5,0.5-1.2,0.6-1.9,0.5c-1.2-0.3-2.5-0.7-3.6-1.1
		c-0.8-0.2-1.7-0.3-2.5-0.6c-1-0.3-1.1-0.7-0.6-1.5c0.4-0.7,0.5-1.6,0.3-2.4c0-0.3,0-0.6,0-0.9c0-0.6,0.5-1,1.1-1c0,0,0,0,0.1,0
		c1.3,0,1.5-0.3,1.6-1.7c0.1-0.6,0.3-1.2,0.6-1.8c0.4-1.2,0.9-2.3,1.4-3.5c0.3-0.7,0.7-1.4,1.1-2c0.2-0.3,0.5-0.6,0.7-0.9
		c0.9-1,1.3-2.3,1.1-3.6c-0.2-1.3-0.2-2.6-0.2-3.8c0.1-0.8,0.3-1.6,0.7-2.3c0.8-1.4,2.3-1.5,3.8-1.3c2.6,0.3,3.8,1.7,4.1,4.5
		c0.1,1.1,0.2,2.3,0.4,3.4c0.2,0.8,0.5,1.5,0.9,2.2c0.5,0.8,1,1.6,1.6,2.3c1.5,1.9,2.3,4.2,2.2,6.7C253.5,72,253.4,72.4,253.4,72.8z
		 M245.8,59.9c0.4-0.6,0.5-1.4,0.3-2.2c-0.1-0.6-0.7-1-1.3-0.9c0,0-0.1,0-0.1,0c-0.6,0.1-1,0.6-1,1.2c0,0.1,0,0.1,0,0.2
		c0.1,0.4,0.2,0.7,0.4,1.1c-0.9-0.4-1.9-0.3-2.7,0.3c-0.1,0.1-0.2,0.1-0.4,0.2c-0.1-0.1-0.1-0.2-0.1-0.3c-0.1-0.4-0.2-0.8-0.2-1.2
		c0-0.2,0.4-0.5,0.6-0.5s0.4,0.3,0.5,0.5c0.1,0.2,0.1,0.5,0.2,0.7c0.3-0.5,0.2-1.2-0.2-1.6c-0.3-0.3-0.8-0.4-1.1-0.1
		c0,0-0.1,0.1-0.1,0.1c-0.4,0.6-0.5,1.5-0.1,2.1c0.2,0.1,0.3,0.2,0.5,0.3l-0.2,0.3c-0.5,0.6-0.5,0.8,0.1,1.3
		c0.7,0.6,1.6,0.7,2.4,0.3c0.5-0.2,1-0.5,1.6-0.8l0.4-0.2l0.1,0.2c-1.4,1-2.9,1.8-4.7,0.6c0.7,0.9,1.4,1.8,2.6,1.4
		c1-0.5,2-1,2.9-1.7c0.4-0.3,0.3-0.7-0.1-0.9C246,60.1,245.9,60,245.8,59.9L245.8,59.9z M238.5,66.8l-0.1-0.1
		c-0.1,0.1-0.3,0.3-0.4,0.4c-0.4,0.7-0.7,1.5-1,2.3c-0.6,1.7-0.4,2.5,1.1,3.6c0.3,0.2,0.7,0.4,1,0.7c0.6,0.5,1.2,1,1.7,1.5
		c0.6,0.6,0.5,1.1-0.2,1.5c-0.1,0.1-0.3,0.1-0.4,0.2c0.2,0.7,0.8,1.2,1.5,1.3c2,0.4,4.1-0.2,5.5-1.6c0.5-0.4,0.8-1.2,0.6-1.8
		c-0.1-0.3-0.1-0.6,0-0.9c0.1-1,0.5-1.3,1.5-1.1c0-0.5,0.1-1,0.1-1.5c0.2-1.8-0.3-3.6-1.3-5.1c-0.2-0.4-0.4-0.9-0.6-1.3l-1.3-3.3
		c-0.4,0.3-0.7,0.5-1,0.7c-0.7,0.5-1.5,0.8-2.4,0.9c-0.7,0-1.3-0.4-1.8-0.9h0c-0.6,1.6-1.2,3.1-1.9,4.7c-0.4,1-0.9,2.1-1.3,3.1
		c-0.1,0.6-0.2,1.2-0.3,1.8C236.7,71,237,69.8,238.5,66.8L238.5,66.8z M240.8,79.5c0-0.9-0.4-1.8-0.9-2.5c-0.8-1.2-1.6-2.3-2.4-3.5
		c-0.2-0.3-0.5-0.6-0.8-0.8c-0.4-0.4-1-0.4-1.4,0c-0.2,0.2-0.3,0.4-0.3,0.7c0,0.3-0.3,0.6-0.7,0.6h-0.7c-1.1,0.1-1.4,0.5-1.2,1.6
		c0.2,0.8,0.1,1.8-0.3,2.5c-0.5,0.7-0.3,1,0.5,1.3c0.1,0,0.3,0.1,0.4,0.1c1.7,0.5,3.3,0.9,5,1.4c0.4,0.1,0.8,0.2,1.3,0.2
		C240.2,80.9,240.8,80.3,240.8,79.5L240.8,79.5z M253.4,73.1c-0.4,0.4-0.8,0.7-1.1,1.1c-0.5,0.6-1.2,0.8-1.9,0.6
		c-0.7-0.2-0.9-0.8-1.1-1.3c-0.1-0.2-0.4-0.5-0.5-0.5c-0.2,0.1-0.4,0.2-0.5,0.5c-0.1,0.4-0.1,0.8-0.1,1.1c-0.1,1.6-0.1,3.3-0.3,4.9
		c-0.1,0.5,0.2,1.1,0.7,1.3c0.7,0.4,1.5,0.4,2.2,0c0.5-0.3,0.9-0.8,1.4-1.1c0.9-0.6,1.9-1.3,2.9-1.8c0.4-0.2,0.8-0.3,0.8-0.8
		c0-0.5-0.4-0.8-0.8-1c-0.7-0.3-1.3-1-1.3-1.8C253.6,73.9,253.5,73.6,253.4,73.1L253.4,73.1z"/>
	<path class="st4" d="M238.6,66.8c-1.6,3-1.8,4.2-1,5.2c0-0.6,0.1-1.2,0.3-1.8c0.4-1.1,0.8-2.1,1.3-3.1c0.6-1.6,1.3-3.1,1.9-4.7h0.1
		c0.5,0.5,1.1,0.8,1.8,0.9c0.9-0.1,1.7-0.4,2.4-0.9c0.3-0.2,0.6-0.4,1-0.7l1.3,3.3c0.1,0.5,0.3,0.9,0.6,1.3c1,1.5,1.5,3.3,1.3,5.1
		c0,0.5-0.1,1-0.1,1.5c-1-0.2-1.3,0.1-1.5,1.1c-0.1,0.3-0.1,0.6,0,0.9c0.2,0.7,0,1.4-0.6,1.8c-1.4,1.5-3.5,2.1-5.5,1.6
		c-0.7-0.1-1.3-0.6-1.5-1.3c0.1-0.1,0.3-0.1,0.4-0.2c0.7-0.5,0.8-0.9,0.2-1.5c-0.5-0.5-1.1-1.1-1.7-1.5c-0.3-0.3-0.7-0.5-1-0.7
		c-1.4-1.1-1.7-1.9-1.1-3.6c0.3-0.8,0.6-1.5,1-2.3C238.2,66.9,238.4,66.8,238.6,66.8L238.6,66.8z"/>
	<path class="st4" d="M240.8,79.5c0,0.8-0.6,1.4-1.4,1.4c-0.4,0-0.8-0.1-1.2-0.2c-1.7-0.4-3.3-0.9-5-1.4c-0.1,0-0.3-0.1-0.4-0.1
		c-0.8-0.3-1-0.6-0.5-1.3c0.4-0.8,0.6-1.7,0.3-2.5c-0.2-1.1,0.1-1.5,1.2-1.6h0.7c0.3,0,0.6-0.2,0.7-0.6c0-0.5,0.5-1,1-0.9
		c0.2,0,0.5,0.1,0.7,0.3c0.3,0.2,0.5,0.5,0.8,0.8c0.8,1.2,1.6,2.3,2.4,3.5C240.5,77.7,240.8,78.6,240.8,79.5z"/>
	<path class="st4" d="M253.4,73.1c0.1,0.5,0.2,0.8,0.3,1.1c0.1,0.8,0.6,1.5,1.3,1.8c0.4,0.2,0.8,0.4,0.8,1c0,0.5-0.5,0.6-0.8,0.8
		c-1,0.6-1.9,1.2-2.9,1.8c-0.5,0.3-0.9,0.8-1.4,1.1c-0.7,0.4-1.5,0.4-2.2,0c-0.5-0.2-0.8-0.8-0.7-1.3c0.2-1.6,0.2-3.3,0.3-4.9
		c0-0.4,0-0.8,0.1-1.1c0.1-0.2,0.3-0.4,0.5-0.5c0.2,0,0.4,0.3,0.5,0.5c0.2,0.6,0.4,1.1,1.1,1.3c0.7,0.2,1.5,0,1.9-0.6
		C252.6,73.8,253,73.5,253.4,73.1z"/>
	<path class="st4" d="M241.2,59.8c0.1-0.1,0.2-0.1,0.4-0.2c0.8-0.6,1.8-0.7,2.7-0.3l0,0l1.2,0.5l0.3,0.1c0.1,0.1,0.2,0.2,0.3,0.3
		c0.4,0.3,0.5,0.7,0.1,0.9c-0.9,0.7-1.9,1.2-2.9,1.7c-1.2,0.4-1.9-0.5-2.6-1.4c1.8,1.2,3.3,0.4,4.7-0.6l-0.1-0.2l-0.4,0.2
		c-0.5,0.3-1,0.6-1.6,0.8c-0.8,0.4-1.7,0.2-2.4-0.3c-0.6-0.5-0.7-0.7-0.1-1.3L241.2,59.8L241.2,59.8z"/>
	<path class="st4" d="M245.8,59.9l-0.3-0.1c0-0.1,0-0.2,0.1-0.3c0.4-0.3,0.5-0.8,0.2-1.3c-0.2-0.3-0.5-0.5-0.8-0.6
		c-0.4-0.1-0.6,0.3-0.7,0.7c0,0.4-0.1,0.6-0.1,0.9l0,0c-0.2-0.3-0.3-0.7-0.4-1.1c-0.2-0.6,0.1-1.1,0.7-1.3c0.1,0,0.1,0,0.2,0
		c0.6-0.2,1.2,0.2,1.4,0.8c0,0,0,0.1,0,0.1C246.4,58.5,246.2,59.3,245.8,59.9z"/>
	<path class="st4" d="M241.2,59.8c-0.2-0.1-0.4-0.2-0.5-0.3c-0.4-0.7-0.3-1.5,0.1-2.1c0.3-0.3,0.8-0.4,1.1-0.1c0,0,0.1,0.1,0.1,0.1
		c0.4,0.5,0.4,1.1,0.2,1.6c0-0.2-0.1-0.5-0.2-0.7c-0.1-0.2-0.4-0.5-0.5-0.5c-0.1,0-0.6,0.3-0.6,0.5c0,0.4,0.1,0.8,0.2,1.2
		C241.1,59.6,241.1,59.7,241.2,59.8L241.2,59.8z"/>
	<path class="st1" d="M244.2,59.3c0-0.3,0.1-0.6,0.1-0.9c0-0.3,0.3-0.8,0.7-0.7c0.3,0.1,0.6,0.3,0.8,0.6c0.3,0.4,0.2,1-0.2,1.3
		c-0.1,0,0,0.2-0.1,0.3L244.2,59.3z"/>
	<polygon class="st1" points="75.6,243 75.6,250.9 85,250.9 85,241.9 	"/>
	<polygon class="st1" points="85.9,241.9 85.9,250.9 98.8,250.9 98.8,239.7 	"/>
	<polygon class="st1" points="75.6,251.7 85,251.7 85,260.9 75.6,259.9 	"/>
	<polygon class="st1" points="85.9,251.7 85.9,260.9 98.8,262.8 98.8,251.7 	"/>
	<path class="st1" d="M264.7,153.7c0-0.8,0-1.5,0.1-2.2c0.2-1.6,1.5-2.7,3.1-2.7c1.6,0.1,2.9,1.5,2.9,3.1c0,0.6,0,1.1,0,1.8h4.4
		c2.1,0,3,0.9,3,3c0,1.4,0,2.9,0,4.4c0.6,0,1.1,0,1.7,0c1.7-0.1,3.1,1.1,3.2,2.8c0.1,1.7-1.1,3.1-2.8,3.2c-0.2,0-0.3,0-0.5,0
		c-0.5,0-1.1,0-1.7,0v3.7c0,3-0.7,3.6-3.6,3.6c-0.9,0-1.7,0-2.6,0c-0.5,0-0.7-0.2-0.7-0.7c0-0.7,0-1.3-0.2-1.9
		c-0.4-1.7-2-2.8-3.6-2.6c-1.7,0.2-3,1.6-3.1,3.3c0,0.4,0,0.9,0,1.3c0,0.5-0.2,0.6-0.6,0.6c-1.3,0-2.5,0-3.8,0c-1.4,0-2.5-1-2.5-2.4
		c0-0.1,0-0.2,0-0.2c0-1.2,0-2.5,0-3.7c0-0.5,0.2-0.7,0.7-0.7c0.7,0,1.3,0,2-0.1c1.6-0.4,2.7-1.9,2.6-3.6c-0.2-1.7-1.5-3-3.2-3.2
		h-0.2c-1.7,0-1.7,0-1.7-1.8c0-0.8,0-1.6,0-2.4c-0.1-1.4,0.9-2.6,2.3-2.7c0.2,0,0.4,0,0.6,0C261.7,153.7,263.2,153.7,264.7,153.7z"
		/>
	<rect x="194.1" y="242.2" class="st5" width="21.9" height="21.9"/>
	<path class="st4" d="M207.3,253.1c0,1-0.2,2.1-0.6,3c-0.6,1.4-2,2.3-3.6,2.2c-1.5,0-2.9-1-3.4-2.4c-0.6-1.6-0.6-3.4,0-5.1
		c0.6-1.7,2.3-2.7,4.1-2.5c1.7,0.2,3,1.6,3.3,3.3C207.2,252,207.3,252.5,207.3,253.1z M199.6,253.5c0,0.8,0.1,1.5,0.4,2.3
		c0.6,1.8,2.6,2.7,4.4,2.1c0.9-0.3,1.6-1,2-1.8c0.9-1.7,0.9-3.8,0-5.5c-0.8-1.7-2.9-2.4-4.6-1.6c-0.5,0.2-0.9,0.6-1.2,1
		C199.8,250.9,199.5,252.2,199.6,253.5z"/>
	<path class="st4" d="M210.5,258.3c-0.7,0-1.4-0.1-2-0.4c-0.1-0.1-0.3-0.1-0.2-0.3c0.1-0.2,0.3,0,0.4,0c0.8,0.5,1.7,0.6,2.6,0.3
		c0.9-0.2,1.5-0.9,1.6-1.8c0.2-0.9-0.2-1.8-0.9-2.3c-0.4-0.2-0.8-0.5-1.2-0.6c-0.3-0.2-0.6-0.3-0.9-0.5c-1-0.4-1.5-1.4-1.3-2.4
		c0.2-1.1,1.1-1.9,2.2-2c0.7-0.1,1.3,0,1.9,0.3c0.1,0.1,0.3,0.1,0.2,0.3c-0.1,0.2-0.2,0-0.3,0c-0.7-0.3-1.4-0.3-2.1-0.2
		c-0.8,0.2-1.5,0.9-1.6,1.7c-0.2,0.8,0.2,1.6,0.9,2c0.8,0.5,1.7,0.8,2.4,1.3c1.1,0.8,1.4,2.4,0.6,3.6c-0.1,0.1-0.1,0.2-0.2,0.3
		C212,258,211.2,258.3,210.5,258.3z"/>
	<path class="st4" d="M197.5,254.6c0-1,0-2.1,0-3.1c0-0.1-0.1-0.3,0.2-0.3s0.1,0.2,0.1,0.3c0,2.1,0,4.2,0,6.3c0,0.1,0.1,0.3-0.1,0.3
		c-0.2,0-0.2-0.2-0.2-0.3C197.5,256.7,197.5,255.7,197.5,254.6z"/>
	<path class="st4" d="M197.7,249.4c-0.2,0-0.3-0.1-0.3-0.3c0-0.1,0-0.3,0.2-0.3c0,0,0,0,0,0c0.1,0,0.3,0.1,0.3,0.2c0,0,0,0,0,0.1
		C198,249.2,197.8,249.3,197.7,249.4z"/>
</g>
</svg>
