<svg id="Layer_1" data-name="Layer 1" xmlns="http://www.w3.org/2000/svg" xmlns:xlink="http://www.w3.org/1999/xlink" viewBox="0 0 294.25 289.09"><defs><style>.cls-1{fill:none;stroke-miterlimit:10;stroke-width:10px;opacity:0.38;stroke:url(#linear-gradient);}.cls-2{fill:#00bd9b;}.cls-3{fill:url(#linear-gradient-2);}.cls-4{fill:#f6f6f6;}.cls-5{fill:#fff;}.cls-6{fill:#00af92;}</style><linearGradient id="linear-gradient" x1="10.61" y1="146.66" x2="287.12" y2="146.66" gradientUnits="userSpaceOnUse"><stop offset="0" stop-color="#02e49b" stop-opacity="0.38"/><stop offset="1" stop-color="#02e49b"/></linearGradient><linearGradient id="linear-gradient-2" x1="85.15" y1="210.37" x2="212.58" y2="82.94" gradientUnits="userSpaceOnUse"><stop offset="0.22" stop-color="#02e49b"/><stop offset="0.34" stop-color="#02e49b" stop-opacity="0.99"/><stop offset="0.45" stop-color="#02e49b" stop-opacity="0.94"/><stop offset="0.55" stop-color="#02e49b" stop-opacity="0.86"/><stop offset="0.64" stop-color="#02e49b" stop-opacity="0.75"/><stop offset="0.73" stop-color="#02e49b" stop-opacity="0.62"/><stop offset="0.82" stop-color="#02e49b" stop-opacity="0.44"/><stop offset="0.91" stop-color="#02e49b" stop-opacity="0.24"/><stop offset="0.99" stop-color="#02e49b" stop-opacity="0.01"/><stop offset="0.99" stop-color="#02e49b" stop-opacity="0"/></linearGradient></defs><title>Artboard 49</title><circle class="cls-1" cx="148.86" cy="146.66" r="133.26"/><circle class="cls-2" cx="148.86" cy="146.66" r="99.93"/><circle class="cls-3" cx="148.86" cy="146.66" r="90.11"/><polygon class="cls-2" points="156.37 95.61 105.57 114.54 105.43 182.22 147.7 197.11 147.85 125.2 192.29 108.38 156.37 95.61"/><polygon class="cls-2" points="152.07 127.33 192.29 112.61 192.14 180.28 151.99 165.4 152.07 127.33"/><rect class="cls-2" x="138.27" y="3" width="20.8" height="20.8"/><rect class="cls-2" x="141.91" width="1.99" height="6"/><rect class="cls-2" x="153.42" width="1.99" height="6"/><rect class="cls-2" x="147.68" width="1.99" height="6"/><rect class="cls-2" x="141.91" y="20.8" width="1.99" height="6"/><rect class="cls-2" x="153.42" y="20.8" width="1.99" height="6"/><rect class="cls-2" x="147.68" y="20.8" width="1.99" height="6"/><rect class="cls-2" x="137.28" y="15.8" width="1.99" height="6" transform="translate(119.48 157.07) rotate(-90)"/><rect class="cls-2" x="137.28" y="4.29" width="1.99" height="6" transform="translate(130.99 145.56) rotate(-90)"/><rect class="cls-2" x="137.28" y="10.04" width="1.99" height="6" transform="translate(125.24 151.31) rotate(-90)"/><rect class="cls-2" x="158.07" y="15.8" width="1.99" height="6" transform="translate(140.27 177.87) rotate(-90)"/><rect class="cls-2" x="158.07" y="4.29" width="1.99" height="6" transform="translate(151.78 166.36) rotate(-90)"/><rect class="cls-2" x="158.07" y="10.04" width="1.99" height="6" transform="translate(146.04 172.11) rotate(-90)"/><path class="cls-2" d="M46.91,47.94a6.56,6.56,0,0,1-1.44,4.65,5.78,5.78,0,0,1-3.88,2.31,5.92,5.92,0,0,1-.73,0,8.68,8.68,0,0,1,0-1.25A6.79,6.79,0,0,1,46.51,48l.11-.05Z"/><path class="cls-2" d="M52.4,58.25a6.72,6.72,0,0,0,.82,11.93c-.25.62-.47,1.24-.75,1.85a17.87,17.87,0,0,1-3.15,4.72,3.93,3.93,0,0,1-4.81,1,15,15,0,0,0-1.74-.63,5.72,5.72,0,0,0-3.56.28c-.58.23-1.15.47-1.74.64a3.29,3.29,0,0,1-3.2-.7,13.62,13.62,0,0,1-2.61-3.11,18.59,18.59,0,0,1-3-8.19,11.37,11.37,0,0,1,.64-5.83,7.47,7.47,0,0,1,5.86-4.81,5.89,5.89,0,0,1,3.16.37c.51.18,1,.36,1.52.57a3,3,0,0,0,2.43,0c.86-.34,1.73-.66,2.61-.91a7,7,0,0,1,4.62.43A6.42,6.42,0,0,1,52.4,58.25Z"/><path class="cls-4" d="M15.15,177.14c4.8,0,9.59,0,14.38,0,.8,0,1-.25.82-.95,0-.13,0-.27-.06-.41a14.78,14.78,0,0,0-7-10.27c-.52-.31-.48-.54-.21-1,.69-1.14,1.35-2.32,2-3.48.19-.33.39-.68,0-.95s-.7.09-.9.44c-.69,1.18-1.39,2.36-2,3.57-.25.46-.48.54-1,.34a15.59,15.59,0,0,0-11.87,0c-.49.2-.68.06-.9-.34-.68-1.23-1.4-2.43-2.1-3.64-.19-.33-.4-.67-.85-.41s-.25.62-.06,1c.63,1.09,1.22,2.21,1.91,3.26.44.66.36.95-.33,1.38A14.7,14.7,0,0,0,.1,176c-.2,1.12-.18,1.12.93,1.12Zm10.16,3.46c0-.37-.2-.63-.6-.65a.57.57,0,0,0-.67.57.56.56,0,0,0,.58.66A.61.61,0,0,0,25.31,180.6Z"/><path class="cls-2" d="M15.15,177.14H1c-1.11,0-1.13,0-.93-1.12a14.7,14.7,0,0,1,6.82-10.33c.69-.43.77-.72.33-1.38-.69-1.05-1.28-2.17-1.91-3.26-.19-.33-.37-.69.06-1s.66.08.85.41c.7,1.21,1.42,2.41,2.1,3.64.22.4.41.54.9.34a15.59,15.59,0,0,1,11.87,0c.5.2.73.12,1-.34.65-1.21,1.35-2.39,2-3.57.2-.35.42-.75.9-.44s.22.62,0,.95c-.68,1.16-1.34,2.34-2,3.48-.27.44-.31.67.21,1a14.78,14.78,0,0,1,7,10.27c0,.14,0,.28.06.41.17.7,0,1-.82.95C24.74,177.12,20,177.14,15.15,177.14Zm-5.68-5.62a1.31,1.31,0,0,0-1.34-1.23A1.25,1.25,0,0,0,7,171.65a1.26,1.26,0,0,0,1.27,1.19A1.34,1.34,0,0,0,9.47,171.52Zm14,0a1.28,1.28,0,0,0-1.3-1.26,1.28,1.28,0,0,0,.05,2.56A1.28,1.28,0,0,0,23.48,171.54Z"/><path class="cls-4" d="M9.47,171.52a1.34,1.34,0,0,1-1.25,1.32A1.26,1.26,0,0,1,7,171.65a1.25,1.25,0,0,1,1.18-1.36A1.31,1.31,0,0,1,9.47,171.52Z"/><path class="cls-4" d="M23.48,171.54a1.28,1.28,0,0,1-1.25,1.3,1.28,1.28,0,0,1-.05-2.56A1.28,1.28,0,0,1,23.48,171.54Z"/><path class="cls-2" d="M263.62,66.26c-.64-1.17-1.7-1.22-2.79-1.33.33-1.9.8-3.81-.65-5.44a2.62,2.62,0,0,0-1-.59c2.44,2.46,2.14,4.89,0,7.39a2.33,2.33,0,0,1,3.13-.76A3.73,3.73,0,0,1,263,66a3.59,3.59,0,0,1,.63.45c.22.25.53.56.53.86a2.64,2.64,0,0,0,1.82,2.4,1,1,0,0,1,0,1.93,21.3,21.3,0,0,0-4.91,3.37,2.65,2.65,0,0,1-3.9-.49c-.1-.11-.23-.25-.35-.26a16.25,16.25,0,0,0-5.94,0,3.57,3.57,0,0,0-1.22.64,2.33,2.33,0,0,1-2.07.51c-1.36-.37-2.69-.82-4-1.19-.9-.25-1.84-.38-2.74-.64-1.08-.31-1.26-.74-.64-1.65a3.44,3.44,0,0,0,.28-2.64,3.75,3.75,0,0,1,0-1,1.16,1.16,0,0,1,1.29-1.09c1.46,0,1.68-.32,1.77-1.82a6.83,6.83,0,0,1,.63-2c.49-1.28,1-2.57,1.56-3.83A20.39,20.39,0,0,1,247,57.31a5.86,5.86,0,0,1,.81-1,4.65,4.65,0,0,0,1.16-4,24.74,24.74,0,0,1-.19-4.21,5.5,5.5,0,0,1,.8-2.51c.93-1.55,2.56-1.61,4.12-1.46,2.83.28,4.17,1.85,4.46,4.94a33,33,0,0,0,.44,3.73,7.94,7.94,0,0,0,1,2.39,25.39,25.39,0,0,0,1.78,2.51A10.61,10.61,0,0,1,263.81,65C263.78,65.44,263.69,65.85,263.62,66.26Zm-8.3-14.18a2.69,2.69,0,0,0,.31-2.38,1.21,1.21,0,0,0-1.52-.94,1.16,1.16,0,0,0-1,1.49,7,7,0,0,0,.46,1.19,3,3,0,0,0-3,.31,3.11,3.11,0,0,1-.4.22,1.81,1.81,0,0,1-.16-.35,5.14,5.14,0,0,1-.22-1.33c0-.21.39-.51.63-.55s.45.29.58.51a2.93,2.93,0,0,1,.19.8,1.64,1.64,0,0,0-.19-1.79.84.84,0,0,0-1.29,0,2.28,2.28,0,0,0-.09,2.35,1.76,1.76,0,0,0,.57.34l-.26.3c-.6.64-.58.88.12,1.38a2.44,2.44,0,0,0,2.58.36c.59-.27,1.15-.6,1.72-.91l.45-.24.06.2c-1.57,1.1-3.17,2-5.16.7.73,1,1.54,2,2.83,1.51a16.31,16.31,0,0,0,3.16-1.85c.42-.28.38-.72-.09-1C255.55,52.28,255.44,52.17,255.32,52.08Zm-8,7.55-.13-.15a2,2,0,0,0-.41.46,25.49,25.49,0,0,0-1.13,2.5c-.67,1.84-.39,2.7,1.16,3.91.35.27.75.48,1.09.77a23.58,23.58,0,0,1,1.89,1.7c.65.69.55,1.19-.24,1.69a3.25,3.25,0,0,1-.46.22,1.88,1.88,0,0,0,1.61,1.39,6.42,6.42,0,0,0,6-1.8,1.91,1.91,0,0,0,.65-2,2.44,2.44,0,0,1,0-1c.14-1.11.53-1.39,1.62-1.19,0-.54.07-1.07.09-1.6a8.32,8.32,0,0,0-1.44-5.6,6.43,6.43,0,0,1-.62-1.47l-1.46-3.61c-.43.32-.74.57-1.07.8a4.88,4.88,0,0,1-2.59,1,2.87,2.87,0,0,1-1.93-.94H250c-.68,1.71-1.37,3.43-2.06,5.14-.46,1.14-1,2.25-1.39,3.41a10.93,10.93,0,0,0-.28,2C245.33,64.29,245.6,63,247.36,59.63Zm2.5,14a5.13,5.13,0,0,0-1-2.79q-1.27-1.92-2.59-3.83a3.77,3.77,0,0,0-.83-.86,1.09,1.09,0,0,0-1.87.7.7.7,0,0,1-.73.62l-.74,0c-1.17.07-1.53.53-1.27,1.71a3.54,3.54,0,0,1-.33,2.77c-.5.8-.33,1.11.57,1.41.15,0,.31.07.46.12,1.82.5,3.64,1,5.47,1.51a4.09,4.09,0,0,0,1.38.17A1.62,1.62,0,0,0,249.86,73.63Zm13.79-7c-.49.47-.85.81-1.21,1.17a2,2,0,0,1-2.12.64c-.76-.22-.95-.85-1.2-1.48-.09-.22-.39-.52-.58-.51a.85.85,0,0,0-.59.52,4.7,4.7,0,0,0-.15,1.25c-.11,1.81-.14,3.62-.33,5.41a1.34,1.34,0,0,0,.73,1.48,2.2,2.2,0,0,0,2.41,0c.56-.36,1-.85,1.59-1.23,1-.7,2.07-1.39,3.14-2,.4-.24.89-.35.93-.92s-.41-.89-.86-1.08a2.41,2.41,0,0,1-1.47-2C263.88,67.44,263.78,67.1,263.65,66.58Z"/><path class="cls-5" d="M247.36,59.63c-1.76,3.32-2,4.66-1.09,5.68a10.93,10.93,0,0,1,.28-2c.4-1.16.93-2.27,1.39-3.41.69-1.71,1.38-3.43,2.06-5.14h.07a2.87,2.87,0,0,0,1.93.94,4.88,4.88,0,0,0,2.59-1c.33-.23.64-.48,1.07-.8l1.46,3.61a6.43,6.43,0,0,0,.62,1.47,8.32,8.32,0,0,1,1.44,5.6c0,.53-.06,1.06-.09,1.6-1.09-.2-1.48.08-1.62,1.19a2.44,2.44,0,0,0,0,1,1.91,1.91,0,0,1-.65,2,6.42,6.42,0,0,1-6,1.8,1.88,1.88,0,0,1-1.61-1.39,3.25,3.25,0,0,0,.46-.22c.79-.5.89-1,.24-1.69a23.58,23.58,0,0,0-1.89-1.7c-.34-.29-.74-.5-1.09-.77-1.55-1.21-1.83-2.07-1.16-3.91a25.49,25.49,0,0,1,1.13-2.5,2,2,0,0,1,.41-.46Z"/><path class="cls-5" d="M249.86,73.63a1.62,1.62,0,0,1-1.52,1.57A4.09,4.09,0,0,1,247,75c-1.83-.48-3.65-1-5.47-1.51-.15,0-.31-.07-.46-.12-.9-.3-1.07-.61-.57-1.41a3.54,3.54,0,0,0,.33-2.77c-.26-1.18.1-1.64,1.27-1.71l.74,0a.7.7,0,0,0,.73-.62,1.09,1.09,0,0,1,1.87-.7,3.77,3.77,0,0,1,.83.86q1.32,1.9,2.59,3.83A5.13,5.13,0,0,1,249.86,73.63Z"/><path class="cls-5" d="M263.65,66.58c.13.52.23.86.29,1.2a2.41,2.41,0,0,0,1.47,2c.45.19.9.48.86,1.08s-.53.68-.93.92c-1.07.63-2.11,1.32-3.14,2-.55.38-1,.87-1.59,1.23a2.2,2.2,0,0,1-2.41,0,1.34,1.34,0,0,1-.73-1.48c.19-1.79.22-3.6.33-5.41a4.7,4.7,0,0,1,.15-1.25.85.85,0,0,1,.59-.52c.19,0,.49.29.58.51.25.63.44,1.26,1.2,1.48a2,2,0,0,0,2.12-.64C262.8,67.39,263.16,67.05,263.65,66.58Z"/><path class="cls-5" d="M250.24,52a3.11,3.11,0,0,0,.4-.22,3,3,0,0,1,3-.31l0,0L255,52l.37.12c.12.09.23.2.35.28.47.32.51.76.09,1a16.31,16.31,0,0,1-3.16,1.85c-1.29.47-2.1-.53-2.83-1.51,2,1.33,3.59.4,5.16-.7l-.06-.2-.45.24c-.57.31-1.13.64-1.72.91a2.44,2.44,0,0,1-2.58-.36c-.7-.5-.72-.74-.12-1.38l.26-.3Z"/><path class="cls-5" d="M255.32,52.08,255,52c0-.1,0-.23.07-.28a1,1,0,0,0,.24-1.38,1.32,1.32,0,0,0-.86-.65c-.44-.06-.68.33-.72.79s-.07.65-.1,1l0,0a7,7,0,0,1-.46-1.19,1.16,1.16,0,0,1,1-1.49,1.21,1.21,0,0,1,1.52.94A2.69,2.69,0,0,1,255.32,52.08Z"/><path class="cls-5" d="M250.26,52a1.76,1.76,0,0,1-.57-.34,2.28,2.28,0,0,1,.09-2.35.84.84,0,0,1,1.29,0,1.64,1.64,0,0,1,.19,1.79,2.93,2.93,0,0,0-.19-.8c-.13-.22-.42-.54-.58-.51s-.61.34-.63.55a5.14,5.14,0,0,0,.22,1.33,1.81,1.81,0,0,0,.16.35Z"/><path class="cls-2" d="M253.58,51.41c0-.32.07-.65.1-1s.28-.85.72-.79a1.32,1.32,0,0,1,.86.65,1,1,0,0,1-.24,1.38c-.06,0-.05.18-.07.28Z"/><polygon class="cls-2" points="68.53 252.98 68.53 261.7 78.87 261.7 78.87 251.77 68.53 252.98"/><polygon class="cls-2" points="79.8 251.77 79.8 261.7 94.01 261.7 94.01 249.42 79.8 251.77"/><polygon class="cls-2" points="68.53 262.54 78.87 262.54 78.87 272.71 68.53 271.54 68.53 262.54"/><polygon class="cls-2" points="79.8 262.54 79.8 272.71 94.01 274.73 94.01 262.54 79.8 262.54"/><path class="cls-2" d="M276.09,155.05c0-.9,0-1.69.12-2.46a3.23,3.23,0,0,1,3.36-2.91,3.36,3.36,0,0,1,3.17,3.43c0,.61,0,1.22,0,1.94h4.8c2.28,0,3.3,1,3.3,3.28,0,1.57,0,3.14,0,4.82.68,0,1.26,0,1.84,0a3.31,3.31,0,1,1,0,6.6c-.59,0-1.17,0-1.88,0v4.1c0,3.27-.73,4-4,4-.95,0-1.91,0-2.87,0-.54,0-.74-.17-.74-.72A9.18,9.18,0,0,0,283,175a3.7,3.7,0,0,0-4-2.83,3.83,3.83,0,0,0-3.4,3.61,13.83,13.83,0,0,0,0,1.44c0,.52-.2.68-.7.67-1.38,0-2.76,0-4.13,0A2.7,2.7,0,0,1,268,175c0-1.35,0-2.7,0-4.05,0-.55.2-.73.74-.73a9.83,9.83,0,0,0,2.17-.16,3.72,3.72,0,0,0,2.81-3.9,3.86,3.86,0,0,0-3.55-3.47H270c-1.91-.05-1.91-.05-1.91-2,0-.87,0-1.75,0-2.62a2.77,2.77,0,0,1,3.13-3C272.79,155,274.39,155.05,276.09,155.05Z"/><rect class="cls-6" x="198.56" y="252.16" width="24.01" height="24.01"/><path class="cls-5" d="M213.05,264.08a7.29,7.29,0,0,1-.65,3.33,4,4,0,0,1-3.9,2.4,3.89,3.89,0,0,1-3.74-2.68,7.55,7.55,0,0,1,0-5.57,4.2,4.2,0,0,1,4.49-2.76,4.25,4.25,0,0,1,3.62,3.57A10,10,0,0,1,213.05,264.08Zm-8.46.47a6.29,6.29,0,0,0,.49,2.47,3.77,3.77,0,0,0,7,.28,6.75,6.75,0,0,0,0-6.08,3.78,3.78,0,0,0-6.36-.66A6,6,0,0,0,204.59,264.55Z"/><path class="cls-5" d="M216.53,269.78a4.38,4.38,0,0,1-2.15-.45c-.12-.06-.36-.09-.24-.33s.28,0,.4,0a3.67,3.67,0,0,0,2.86.33,2.4,2.4,0,0,0,1.77-2,2.43,2.43,0,0,0-1-2.54,7.81,7.81,0,0,0-1.27-.69c-.35-.17-.7-.32-1-.5a2.37,2.37,0,0,1-1.47-2.64,2.66,2.66,0,0,1,2.4-2.21,3.9,3.9,0,0,1,2.13.3c.14.07.28.13.17.31s-.21,0-.29,0a4.07,4.07,0,0,0-2.26-.21,2.43,2.43,0,0,0-1.8,1.85,2,2,0,0,0,1,2.19c.85.54,1.83.85,2.65,1.45a2.8,2.8,0,0,1,.38,4.2A3,3,0,0,1,216.53,269.78Z"/><path class="cls-5" d="M202.33,265.8c0-1.13,0-2.26,0-3.4,0-.14-.09-.37.18-.35s.13.21.13.33c0,2.31,0,4.61,0,6.92,0,.12.09.32-.14.32s-.17-.22-.17-.36C202.33,268.11,202.33,267,202.33,265.8Z"/><path class="cls-5" d="M202.55,260a.34.34,0,0,1-.35-.29.28.28,0,0,1,.24-.35.29.29,0,0,1,.36.29C202.81,259.86,202.66,259.93,202.55,260Z"/></svg>