<svg enable-background="new 0 0 294.2 289.1" viewBox="0 0 294.2 289.1" xmlns="http://www.w3.org/2000/svg" xmlns:xlink="http://www.w3.org/1999/xlink"><linearGradient id="a" gradientUnits="userSpaceOnUse" x1="22.4" x2="275.2" y1="146.1" y2="146.1"><stop offset="0" stop-color="#02e49b" stop-opacity=".38"/><stop offset="1" stop-color="#02e49b"/></linearGradient><linearGradient id="b" gradientUnits="userSpaceOnUse" x1="90.7465" x2="206.8535" y1="204.1535" y2="88.0466"><stop offset=".22" stop-color="#02e49b"/><stop offset=".34" stop-color="#02e49b" stop-opacity=".99"/><stop offset=".45" stop-color="#02e49b" stop-opacity=".94"/><stop offset=".55" stop-color="#02e49b" stop-opacity=".86"/><stop offset=".64" stop-color="#02e49b" stop-opacity=".75"/><stop offset=".73" stop-color="#02e49b" stop-opacity=".62"/><stop offset=".82" stop-color="#02e49b" stop-opacity=".44"/><stop offset=".91" stop-color="#02e49b" stop-opacity=".24"/><stop offset=".99" stop-color="#02e49b" stop-opacity=".01"/><stop offset=".99" stop-color="#02e49b" stop-opacity="0"/></linearGradient><circle cx="148.8" cy="146.1" fill="none" opacity=".38" r="121.4" stroke="url(#a)" stroke-miterlimit="10" stroke-width="10"/><circle cx="148.8" cy="146.1" fill="#00bd9b" r="91.1"/><circle cx="148.8" cy="146.1" fill="url(#b)" r="82.1"/><g fill="#00bd9b"><path d="m139.1 15.1h19v19h-19z"/><path d="m142.5 12.4h1.8v5.5h-1.8z"/><path d="m152.9 12.4h1.8v5.5h-1.8z"/><path d="m147.7 12.4h1.8v5.5h-1.8z"/><path d="m142.5 31.4h1.8v5.5h-1.8z"/><path d="m152.9 31.4h1.8v5.5h-1.8z"/><path d="m147.7 31.4h1.8v5.5h-1.8z"/><path d="m136.4 28.6h5.5v1.8h-5.5z"/><path d="m136.4 18.1h5.5v1.8h-5.5z"/><path d="m136.4 23.4h5.5v1.8h-5.5z"/><path d="m155.4 28.6h5.5v1.8h-5.5z"/><path d="m155.4 18.2h5.5v1.8h-5.5z"/><path d="m155.4 23.4h5.5v1.8h-5.5z"/><path d="m55.9 56.1c.1 1.5-.3 3-1.3 4.2-.8 1.2-2.1 1.9-3.5 2.1-.2 0-.4 0-.7 0 0-.4 0-.8 0-1.1.4-2.7 2.5-4.7 5.1-5.1h.1z"/><path d="m60.9 65.5c-2.9 1.7-3.8 5.5-2.1 8.4.7 1.1 1.7 2 2.8 2.5-.2.6-.4 1.1-.7 1.7-.7 1.6-1.7 3-2.9 4.3-1.1 1.3-2.9 1.7-4.4.9-.5-.2-1-.4-1.6-.6-1.1-.3-2.2-.2-3.2.3-.5.2-1 .4-1.6.6-1 .3-2.1.1-2.9-.6-.9-.8-1.7-1.8-2.4-2.8-1.5-2.2-2.4-4.8-2.7-7.5-.3-1.8-.1-3.6.6-5.3.9-2.3 2.9-4 5.3-4.4 1-.2 2 0 2.9.3.5.2.9.3 1.4.5.7.3 1.5.3 2.2 0 .8-.3 1.6-.6 2.4-.8 1.4-.4 2.9-.2 4.2.4 1.1.4 2 1.1 2.7 2.1z"/></g><path d="m26.9 173.8h13.1c.7 0 .9-.2.7-.9 0-.1 0-.2-.1-.4-.6-3.9-3-7.3-6.4-9.4-.5-.3-.4-.5-.2-.9.6-1 1.2-2.1 1.8-3.2.2-.3.4-.6 0-.9-.4-.2-.6.1-.8.4-.6 1.1-1.3 2.2-1.8 3.3-.2.4-.4.5-.9.3-3.5-1.4-7.4-1.4-10.8 0-.4.2-.6.1-.8-.3-.6-1.1-1.3-2.2-1.9-3.3-.2-.3-.4-.6-.8-.4s-.2.6-.1.9c.6 1 1.1 2 1.7 3 .4.6.3.9-.3 1.3-3.4 2.1-5.7 5.5-6.3 9.4-.2 1-.2 1 .8 1zm9.3 3.2c0-.3-.2-.6-.5-.6-.3-.1-.6.1-.6.4v.1c-.1.3.1.5.4.6h.1c.3.1.6-.1.6-.5z" fill="#f6f6f6"/><path d="m26.9 173.8h-12.9c-1 0-1 0-.8-1 .6-3.9 2.9-7.3 6.2-9.4.6-.4.7-.7.3-1.3-.6-1-1.2-2-1.7-3-.2-.3-.3-.6.1-.9s.6.1.8.4c.6 1.1 1.3 2.2 1.9 3.3.2.4.4.5.8.3 3.5-1.4 7.4-1.4 10.8 0 .5.2.7.1.9-.3.6-1.1 1.2-2.2 1.8-3.3.2-.3.4-.7.8-.4s.2.6 0 .9c-.6 1.1-1.2 2.1-1.8 3.2-.2.4-.3.6.2.9 3.4 2 5.7 5.5 6.4 9.4 0 .1 0 .3.1.4.2.6 0 .9-.7.9-4.4-.1-8.7-.1-13.2-.1zm-5.1-5.1c0-.6-.6-1.1-1.2-1.1-.6.1-1.1.6-1 1.2 0 .6.5 1.1 1.2 1.1.5 0 1-.6 1-1.2zm12.7 0c0-.6-.5-1.2-1.2-1.1-.6 0-1.2.5-1.1 1.2 0 .6.5 1.2 1.2 1.1.6 0 1.1-.5 1.1-1.2z" fill="#00bd9b"/><path d="m21.8 168.7c0 .6-.5 1.2-1.1 1.2s-1.1-.5-1.1-1.1c-.1-.6.4-1.2 1-1.2.6 0 1.1.5 1.2 1.1z" fill="#f6f6f6"/><path d="m34.5 168.7c0 .6-.5 1.2-1.1 1.2s-1.2-.5-1.2-1.1.5-1.2 1.1-1.2c.7 0 1.2.5 1.2 1.1z" fill="#f6f6f6"/><path d="m253.4 72.8c-.6-1.1-1.5-1.1-2.5-1.2.3-1.7.7-3.5-.6-5-.3-.2-.6-.4-.9-.5 2.2 2.2 2 4.5 0 6.7.6-1 1.9-1.3 2.9-.7.2.1.4.3.6.4s.4.3.6.4c.2.2.5.5.5.8 0 1 .7 1.9 1.7 2.2.5.1.8.6.6 1.1-.1.3-.3.6-.6.6-1.6.8-3.1 1.8-4.5 3.1-1 .9-2.5.8-3.4-.3-.1-.1-.1-.1-.1-.2-.1-.1-.2-.2-.3-.2-1.8-.3-3.6-.3-5.4 0-.4.1-.8.3-1.1.6-.5.5-1.2.6-1.9.5-1.2-.3-2.5-.7-3.6-1.1-.8-.2-1.7-.3-2.5-.6-1-.3-1.1-.7-.6-1.5.4-.7.5-1.6.3-2.4 0-.3 0-.6 0-.9 0-.6.5-1 1.1-1h.1c1.3 0 1.5-.3 1.6-1.7.1-.6.3-1.2.6-1.8.4-1.2.9-2.3 1.4-3.5.3-.7.7-1.4 1.1-2 .2-.3.5-.6.7-.9.9-1 1.3-2.3 1.1-3.6s-.2-2.6-.2-3.8c.1-.8.3-1.6.7-2.3.8-1.4 2.3-1.5 3.8-1.3 2.6.3 3.8 1.7 4.1 4.5.1 1.1.2 2.3.4 3.4.2.8.5 1.5.9 2.2.5.8 1 1.6 1.6 2.3 1.5 1.9 2.3 4.2 2.2 6.7-.3.2-.4.6-.4 1zm-7.6-12.9c.4-.6.5-1.4.3-2.2-.1-.6-.7-1-1.3-.9h-.1c-.6.1-1 .6-1 1.2v.2c.1.4.2.7.4 1.1-.9-.4-1.9-.3-2.7.3-.1.1-.2.1-.4.2-.1-.1-.1-.2-.1-.3-.1-.4-.2-.8-.2-1.2 0-.2.4-.5.6-.5s.4.3.5.5.1.5.2.7c.3-.5.2-1.2-.2-1.6-.3-.3-.8-.4-1.1-.1l-.1.1c-.4.6-.5 1.5-.1 2.1.2.1.3.2.5.3l-.2.3c-.5.6-.5.8.1 1.3.7.6 1.6.7 2.4.3.5-.2 1-.5 1.6-.8l.4-.2.1.2c-1.4 1-2.9 1.8-4.7.6.7.9 1.4 1.8 2.6 1.4 1-.5 2-1 2.9-1.7.4-.3.3-.7-.1-.9-.1-.2-.2-.3-.3-.4zm-7.3 6.9-.1-.1c-.1.1-.3.3-.4.4-.4.7-.7 1.5-1 2.3-.6 1.7-.4 2.5 1.1 3.6.3.2.7.4 1 .7.6.5 1.2 1 1.7 1.5.6.6.5 1.1-.2 1.5-.1.1-.3.1-.4.2.2.7.8 1.2 1.5 1.3 2 .4 4.1-.2 5.5-1.6.5-.4.8-1.2.6-1.8-.1-.3-.1-.6 0-.9.1-1 .5-1.3 1.5-1.1 0-.5.1-1 .1-1.5.2-1.8-.3-3.6-1.3-5.1-.2-.4-.4-.9-.6-1.3l-1.3-3.3c-.4.3-.7.5-1 .7-.7.5-1.5.8-2.4.9-.7 0-1.3-.4-1.8-.9-.6 1.6-1.2 3.1-1.9 4.7-.4 1-.9 2.1-1.3 3.1-.1.6-.2 1.2-.3 1.8-.8-.9-.5-2.1 1-5.1zm2.3 12.7c0-.9-.4-1.8-.9-2.5-.8-1.2-1.6-2.3-2.4-3.5-.2-.3-.5-.6-.8-.8-.4-.4-1-.4-1.4 0-.2.2-.3.4-.3.7s-.3.6-.7.6h-.7c-1.1.1-1.4.5-1.2 1.6.2.8.1 1.8-.3 2.5-.5.7-.3 1 .5 1.3.1 0 .3.1.4.1 1.7.5 3.3.9 5 1.4.4.1.8.2 1.3.2.9-.2 1.5-.8 1.5-1.6zm12.6-6.4c-.4.4-.8.7-1.1 1.1-.5.6-1.2.8-1.9.6s-.9-.8-1.1-1.3c-.1-.2-.4-.5-.5-.5-.2.1-.4.2-.5.5-.1.4-.1.8-.1 1.1-.1 1.6-.1 3.3-.3 4.9-.1.5.2 1.1.7 1.3.7.4 1.5.4 2.2 0 .5-.3.9-.8 1.4-1.1.9-.6 1.9-1.3 2.9-1.8.4-.2.8-.3.8-.8s-.4-.8-.8-1c-.7-.3-1.3-1-1.3-1.8-.2-.4-.3-.7-.4-1.2z" fill="#00bd9b"/><path d="m238.6 66.8c-1.6 3-1.8 4.2-1 5.2 0-.6.1-1.2.3-1.8.4-1.1.8-2.1 1.3-3.1.6-1.6 1.3-3.1 1.9-4.7h.1c.5.5 1.1.8 1.8.9.9-.1 1.7-.4 2.4-.9.3-.2.6-.4 1-.7l1.3 3.3c.1.5.3.9.6 1.3 1 1.5 1.5 3.3 1.3 5.1 0 .5-.1 1-.1 1.5-1-.2-1.3.1-1.5 1.1-.1.3-.1.6 0 .9.2.7 0 1.4-.6 1.8-1.4 1.5-3.5 2.1-5.5 1.6-.7-.1-1.3-.6-1.5-1.3.1-.1.3-.1.4-.2.7-.5.8-.9.2-1.5-.5-.5-1.1-1.1-1.7-1.5-.3-.3-.7-.5-1-.7-1.4-1.1-1.7-1.9-1.1-3.6.3-.8.6-1.5 1-2.3 0-.3.2-.4.4-.4z" fill="#fff"/><path d="m240.8 79.5c0 .8-.6 1.4-1.4 1.4-.4 0-.8-.1-1.2-.2-1.7-.4-3.3-.9-5-1.4-.1 0-.3-.1-.4-.1-.8-.3-1-.6-.5-1.3.4-.8.6-1.7.3-2.5-.2-1.1.1-1.5 1.2-1.6h.7c.3 0 .6-.2.7-.6 0-.5.5-1 1-.9.2 0 .5.1.7.3.3.2.5.5.8.8.8 1.2 1.6 2.3 2.4 3.5.4.8.7 1.7.7 2.6z" fill="#fff"/><path d="m253.4 73.1c.1.5.2.8.3 1.1.1.8.6 1.5 1.3 1.8.4.2.8.4.8 1 0 .5-.5.6-.8.8-1 .6-1.9 1.2-2.9 1.8-.5.3-.9.8-1.4 1.1-.7.4-1.5.4-2.2 0-.5-.2-.8-.8-.7-1.3.2-1.6.2-3.3.3-4.9 0-.4 0-.8.1-1.1.1-.2.3-.4.5-.5.2 0 .4.3.5.5.2.6.4 1.1 1.1 1.3s1.5 0 1.9-.6c.4-.3.8-.6 1.2-1z" fill="#fff"/><path d="m241.2 59.8c.1-.1.2-.1.4-.2.8-.6 1.8-.7 2.7-.3l1.2.5.3.1c.1.1.2.2.3.3.4.3.5.7.1.9-.9.7-1.9 1.2-2.9 1.7-1.2.4-1.9-.5-2.6-1.4 1.8 1.2 3.3.4 4.7-.6l-.1-.2-.4.2c-.5.3-1 .6-1.6.8-.8.4-1.7.2-2.4-.3-.6-.5-.7-.7-.1-1.3z" fill="#fff"/><path d="m245.8 59.9-.3-.1c0-.1 0-.2.1-.3.4-.3.5-.8.2-1.3-.2-.3-.5-.5-.8-.6-.4-.1-.6.3-.7.7 0 .4-.1.6-.1.9-.2-.3-.3-.7-.4-1.1-.2-.6.1-1.1.7-1.3h.2c.6-.2 1.2.2 1.4.8v.1c.3.8.1 1.6-.3 2.2z" fill="#fff"/><path d="m241.2 59.8c-.2-.1-.4-.2-.5-.3-.4-.7-.3-1.5.1-2.1.3-.3.8-.4 1.1-.1l.1.1c.4.5.4 1.1.2 1.6 0-.2-.1-.5-.2-.7s-.4-.5-.5-.5-.6.3-.6.5c0 .4.1.8.2 1.2 0 .1 0 .2.1.3z" fill="#fff"/><path d="m244.2 59.3c0-.3.1-.6.1-.9s.3-.8.7-.7c.3.1.6.3.8.6.3.4.2 1-.2 1.3-.1 0 0 .2-.1.3z" fill="#00bd9b"/><path d="m75.6 243v7.9h9.4v-9z" fill="#00bd9b"/><path d="m85.9 241.9v9h12.9v-11.2z" fill="#00bd9b"/><path d="m75.6 251.7h9.4v9.2l-9.4-1z" fill="#00bd9b"/><path d="m85.9 251.7v9.2l12.9 1.9v-11.1z" fill="#00bd9b"/><path d="m264.7 153.7c0-.8 0-1.5.1-2.2.2-1.6 1.5-2.7 3.1-2.7 1.6.1 2.9 1.5 2.9 3.1v1.8h4.4c2.1 0 3 .9 3 3v4.4h1.7c1.7-.1 3.1 1.1 3.2 2.8s-1.1 3.1-2.8 3.2c-.2 0-.3 0-.5 0-.5 0-1.1 0-1.7 0v3.7c0 3-.7 3.6-3.6 3.6-.9 0-1.7 0-2.6 0-.5 0-.7-.2-.7-.7 0-.7 0-1.3-.2-1.9-.4-1.7-2-2.8-3.6-2.6-1.7.2-3 1.6-3.1 3.3v1.3c0 .5-.2.6-.6.6-1.3 0-2.5 0-3.8 0-1.4 0-2.5-1-2.5-2.4 0-.1 0-.2 0-.2 0-1.2 0-2.5 0-3.7 0-.5.2-.7.7-.7.7 0 1.3 0 2-.1 1.6-.4 2.7-1.9 2.6-3.6-.2-1.7-1.5-3-3.2-3.2h-.2c-1.7 0-1.7 0-1.7-1.8 0-.8 0-1.6 0-2.4-.1-1.4.9-2.6 2.3-2.7h.6c1.2.1 2.7.1 4.2.1z" fill="#00bd9b"/><path d="m194.1 242.2h21.9v21.9h-21.9z" fill="#00af92"/><path d="m207.3 253.1c0 1-.2 2.1-.6 3-.6 1.4-2 2.3-3.6 2.2-1.5 0-2.9-1-3.4-2.4-.6-1.6-.6-3.4 0-5.1s2.3-2.7 4.1-2.5c1.7.2 3 1.6 3.3 3.3.1.4.2.9.2 1.5zm-7.7.4c0 .8.1 1.5.4 2.3.6 1.8 2.6 2.7 4.4 2.1.9-.3 1.6-1 2-1.8.9-1.7.9-3.8 0-5.5-.8-1.7-2.9-2.4-4.6-1.6-.5.2-.9.6-1.2 1-.8.9-1.1 2.2-1 3.5z" fill="#fff"/><path d="m210.5 258.3c-.7 0-1.4-.1-2-.4-.1-.1-.3-.1-.2-.3s.3 0 .4 0c.8.5 1.7.6 2.6.3.9-.2 1.5-.9 1.6-1.8.2-.9-.2-1.8-.9-2.3-.4-.2-.8-.5-1.2-.6-.3-.2-.6-.3-.9-.5-1-.4-1.5-1.4-1.3-2.4.2-1.1 1.1-1.9 2.2-2 .7-.1 1.3 0 1.9.3.1.1.3.1.2.3s-.2 0-.3 0c-.7-.3-1.4-.3-2.1-.2-.8.2-1.5.9-1.6 1.7-.2.8.2 1.6.9 2 .8.5 1.7.8 2.4 1.3 1.1.8 1.4 2.4.6 3.6-.1.1-.1.2-.2.3-.6.4-1.4.7-2.1.7z" fill="#fff"/><path d="m197.5 254.6c0-1 0-2.1 0-3.1 0-.1-.1-.3.2-.3s.1.2.1.3v6.3c0 .1.1.3-.1.3s-.2-.2-.2-.3c0-1.1 0-2.1 0-3.2z" fill="#fff"/><path d="m197.7 249.4c-.2 0-.3-.1-.3-.3 0-.1 0-.3.2-.3.1 0 .3.1.3.2v.1c.1.1-.1.2-.2.3z" fill="#fff"/><path d="m109.8 116.5v57.6l37.4 13.4v-58.1l40.5-14.9-36.7-13.1z" fill="#00af92"/><path d="m150.3 131.6v31l37.4 13.4v-58.3z" fill="#00af92"/></svg>