<?xml version="1.0" encoding="UTF-8"?>
<svg width="83px" height="92px" viewBox="0 0 83 92" version="1.1" xmlns="http://www.w3.org/2000/svg" xmlns:xlink="http://www.w3.org/1999/xlink">
    <title>Icon</title>
    <defs>
        <polygon id="path-1" points="38.34 -2.13162821e-14 67.8021842 17.01 67.8021842 51.03 38.34 68.04 8.87781576 51.03 8.87781576 17.01"></polygon>
        <filter x="-31.5%" y="-19.1%" width="145.4%" height="158.8%" filterUnits="objectBoundingBox" id="filter-2">
            <feOffset dx="-6" dy="7" in="SourceAlpha" result="shadowOffsetOuter1"></feOffset>
            <feGaussianBlur stdDeviation="5.5" in="shadowOffsetOuter1" result="shadowBlurOuter1"></feGaussianBlur>
            <feColorMatrix values="0 0 0 0 0.316369017   0 0 0 0 0.366987588   0 0 0 0 0.353495709  0 0 0 0.257409583 0" type="matrix" in="shadowBlurOuter1" result="shadowMatrixOuter1"></feColorMatrix>
            <feOffset dx="-3" dy="3" in="SourceAlpha" result="shadowOffsetOuter2"></feOffset>
            <feGaussianBlur stdDeviation="2.5" in="shadowOffsetOuter2" result="shadowBlurOuter2"></feGaussianBlur>
            <feColorMatrix values="0 0 0 0 0   0 0 0 0 0   0 0 0 0 0  0 0 0 0.144614907 0" type="matrix" in="shadowBlurOuter2" result="shadowMatrixOuter2"></feColorMatrix>
            <feMerge>
                <feMergeNode in="shadowMatrixOuter1"></feMergeNode>
                <feMergeNode in="shadowMatrixOuter2"></feMergeNode>
            </feMerge>
        </filter>
    </defs>
    <g id="Page-1" stroke="none" stroke-width="1" fill="none" fill-rule="evenodd">
        <g id="HOMEPAGE-MOBILE" transform="translate(-3.000000, -3482.000000)">
            <g id="Building-blocks-panel" transform="translate(8.000000, 2180.000000)">
                <g id="Features" transform="translate(0.000000, 643.000000)">
                    <g id="Interoperability" transform="translate(4.000000, 659.000000)">
                        <g id="Icon" transform="translate(0.500000, 4.500000)">
                            <polygon id="Polygon-Copy-3" stroke="#00E599" stroke-width="0.648" points="34.02 7.56 63.4821842 24.57 63.4821842 58.59 34.02 75.6 4.55781576 58.59 4.55781576 24.57"></polygon>
                            <g id="Polygon-Copy-12">
                                <use fill="black" fill-opacity="1" filter="url(#filter-2)" xlink:href="#path-1"></use>
                                <use fill="#F0F5F6" fill-rule="evenodd" xlink:href="#path-1"></use>
                            </g>
                            <g id="Group-18" transform="translate(27.000000, 18.000000)">
                                <path d="M23.8644,21.7440563 L23.8644,10.2507471 C23.8644,9.05917191 23.2103472,7.963756 22.1613767,7.3985019 L11.1328883,1.45562951 C10.3452626,1.03120512 9.36270179,1.32563802 8.9382774,2.11326378 C8.81101947,2.34942274 8.7444,2.613488 8.7444,2.88175212 L8.7444,15.2861782 C8.7444,15.8798419 9.06912047,16.4259534 9.59070297,16.7094817 L21.470703,23.1673598 C22.2567718,23.5946609 23.2404024,23.3038222 23.6677035,22.5177533 C23.7967815,22.2802997 23.8644,22.0143253 23.8644,21.7440563 Z" id="Path-17" stroke="#000033" stroke-width="0.54" fill="#FFFFFF"></path>
                                <path d="M15.8616,13.3559283 C17.5794265,14.340337 18.972,13.7457844 18.972,12.0279579 C18.972,10.3101314 17.5794265,8.11953697 15.8616,7.13512827 C14.1437735,6.15071957 12.7512,6.74527216 12.7512,8.46309865 C12.7512,10.1809251 14.1437735,12.3715196 15.8616,13.3559283 Z M12.06,10.4862032 L19.6632,10.0048534 L12.06,10.4862032 Z" id="Combined-Shape" stroke="#000033" stroke-width="1.3824"></path>
                                <path d="M19.8144,24.4440563 L19.8144,12.9507471 C19.8144,11.7591719 19.1603472,10.663756 18.1113767,10.0985019 L7.08288834,4.15562951 C6.29526257,3.73120512 5.31270179,4.02563802 4.8882774,4.81326378 C4.76101947,5.04942274 4.6944,5.313488 4.6944,5.58175212 L4.6944,17.9861782 C4.6944,18.5798419 5.01912047,19.1259534 5.54070297,19.4094817 L17.420703,25.8673598 C18.2067718,26.2946609 19.1904024,26.0038222 19.6177035,25.2177533 C19.7467815,24.9802997 19.8144,24.7143253 19.8144,24.4440563 Z" id="Path-17" stroke="#000033" stroke-width="0.54" fill="#FFFFFF"></path>
                                <path d="M11.019515,16.945589 L11.019515,15.5787123 C11.2473277,15.706459 11.4697164,15.8258691 11.6812568,15.9394543 L11.6812568,17.3009068 L12.5165703,17.7494228 L12.5165703,16.3662738 C13.9159916,17.0417462 14.8923321,17.2134183 15.0170867,15.9623448 C15.1147207,14.9570666 14.6157023,14.2172241 13.8237817,13.6021637 C14.3011037,13.6143734 14.6048541,13.343541 14.5343406,12.5842722 C14.4421307,11.547572 13.5905448,10.7594478 12.5165703,10.0905744 L12.5165703,8.72369777 L11.6812568,8.27518178 L11.6812568,9.60408961 C11.4642923,9.48759195 11.2419036,9.37360596 11.019515,9.25961997 L11.019515,7.91986391 L10.1842015,7.47134791 L10.1842015,8.83822454 C10.0052057,8.74753809 9.82620997,8.65142751 9.65806245,8.56114183 L8.50815036,7.93828011 L8.50815036,8.82783474 C8.67840726,8.91623965 8.80053352,8.98047524 8.88813128,9.02714755 L8.97754545,9.07514673 C9.0894178,9.13576829 9.10704617,9.14804623 9.10975822,9.15050692 C9.45194613,9.33459957 9.5604284,9.58811649 9.59297308,9.77916277 L9.59297308,11.3358834 C9.61466954,11.3475331 9.64721422,11.3650078 9.6797589,11.3879066 L9.59297308,11.3413075 L9.59297308,13.5218012 C9.57670074,13.6215461 9.51161138,13.7547443 9.27837449,13.6295093 C9.27837449,13.6295093 9.28172271,13.6346554 9.17960206,13.5809384 L9.05627881,13.514972 C8.96868105,13.4675742 8.84655478,13.40066 8.67629788,13.3062283 L8.50815036,14.2085554 L9.59297308,14.7910437 C9.79366529,14.8988041 9.98893338,15.0090761 10.1842015,15.113924 L10.1842015,16.497073 L11.019515,16.945589 Z M11.0357873,11.9099006 L11.0357873,10.2446977 C11.5076852,10.4980802 12.9830441,11.1438132 12.9830441,12.1255777 C12.9830441,13.0639494 11.5076852,12.163283 11.0357873,11.9099006 Z M11.0357873,14.5785645 L11.0357873,12.7452141 C11.5998951,13.048108 13.3681562,13.8402647 13.3681562,14.9142392 C13.3681562,15.9502449 11.5998951,14.8814584 11.0357873,14.5785645 Z" id="" fill="#000033" fill-rule="nonzero"></path>
                                <path d="M15.2244,27.6840563 L15.2244,16.1907471 C15.2244,14.9991719 14.5703472,13.903756 13.5213767,13.3385019 L2.49288834,7.39562951 C1.70526257,6.97120512 0.722701785,7.26563802 0.298277397,8.05326378 C0.17101947,8.28942274 0.1044,8.553488 0.1044,8.82175212 L0.1044,21.2261782 C0.1044,21.8198419 0.429120468,22.3659534 0.950702971,22.6494817 L12.830703,29.1073598 C13.6167718,29.5346609 14.6004024,29.2438222 15.0277035,28.4577533 C15.1567815,28.2202997 15.2244,27.9543253 15.2244,27.6840563 Z" id="Path-17" stroke="#000033" stroke-width="0.54" fill="#FFFFFF"></path>
                                <path d="M4.41576213,20.8290104 C4.44206877,20.8332226 5.83051475,20.3319278 8.58110005,19.3251258 C8.83088573,19.2336957 8.84503977,18.8508505 8.61271369,18.4700167 C8.49586033,18.2784682 8.33201389,18.1146791 8.16043619,18.0178975 L4.70959119,16.0713838 L3.74970464,16.4870541 C3.65679577,16.5272874 3.50637843,16.442224 3.41373809,16.2970597 C3.36933475,16.2274811 3.3444,16.1530949 3.3444,16.090208 L3.3444,14.912603 C3.3444,14.4140307 3.7485727,14.2378392 4.24714499,14.5190682 L5.36417993,15.1491527 C5.48635996,14.8986011 5.80717079,14.7611095 6.32661244,14.7366778 C6.84605409,14.7122462 7.41187294,14.8761647 8.02406898,15.2284335 C8.85208109,15.7127625 9.54206444,16.3658273 10.094019,17.1876277 C10.6459736,18.0094282 10.9159739,18.8020413 10.9040199,19.5654672 L10.9040199,19.5735136 C10.9040199,20.2457495 10.6192162,20.7258662 10.1202147,20.8948377 L6.12640739,22.2472174 C5.7894272,22.0780303 5.54057311,21.9276126 5.37984511,21.7959644 C4.80554998,21.3255739 4.39480882,20.8256553 4.41576213,20.8290104 Z" id="Path-4-Copy" stroke="#000033" stroke-width="0.54" fill="#00E599"></path>
                            </g>
                        </g>
                    </g>
                </g>
            </g>
        </g>
    </g>
</svg>