<?xml version="1.0" encoding="UTF-8"?>
<svg width="94px" height="108px" viewBox="0 0 94 108" version="1.1" xmlns="http://www.w3.org/2000/svg" xmlns:xlink="http://www.w3.org/1999/xlink">
    <title>Interoperability ICON HEX</title>
    <g id="Homepage" stroke="none" stroke-width="1" fill="none" fill-rule="evenodd">
        <g id="HOMEPAGE-PT-0.1" transform="translate(-285.000000, -1003.000000)">
            <g id="Interoperability-ICON-HEX-2" transform="translate(279.500000, 1002.500000)">
                <g id="Interoperability-ICON-HEX" transform="translate(1.000000, 3.000000)">
                    <polygon id="Polygon" stroke="#000033" stroke-width="2.88" points="51.5 0 96.1003083 25.75 96.1003083 77.25 51.5 103 6.89969171 77.25 6.89969171 25.75"></polygon>
                    <g id="Group-18" transform="translate(28.000000, 22.500000)">
                        <path d="M44.86,40.9334376 L44.86,19.6495317 C44.86,17.442911 43.6487912,15.414363 41.7062531,14.3675961 L21.2831265,3.36227687 C19.8245603,2.57630579 18.0050033,3.12155188 17.2190322,4.58011811 C16.9833694,5.01744952 16.86,5.50645926 16.86,6.00324466 L16.86,28.974404 C16.86,30.0737813 17.4613342,31.0850989 18.4272277,31.6101513 L40.4272277,43.5691849 C41.8829107,44.3604832 43.704449,43.8218929 44.4957473,42.3662099 C44.7347806,41.926481 44.86,41.4339358 44.86,40.9334376 Z" id="Path-17" stroke="#000033" stroke-width="1.5" fill="#FFFFFF"></path>
                        <path d="M30.04,25.3998672 C33.2211602,27.2228462 35.8,26.1218229 35.8,22.9406628 C35.8,19.7595026 33.2211602,15.7028462 30.04,13.8798672 C26.8588398,12.0568881 24.28,13.1579114 24.28,16.3390716 C24.28,19.5202317 26.8588398,23.5768881 30.04,25.3998672 Z M23,20.0855614 L37.08,19.1941729 L23,20.0855614 Z" id="Combined-Shape" stroke="#010135" stroke-width="2.56"></path>
                        <path d="M37.36,45.9334376 L37.36,24.6495317 C37.36,22.442911 36.1487912,20.414363 34.2062531,19.3675961 L13.7831265,8.36227687 C12.3245603,7.57630579 10.5050033,8.12155188 9.71903222,9.58011811 C9.48336939,10.0174495 9.36,10.5064593 9.36,11.0032447 L9.36,33.974404 C9.36,35.0737813 9.9613342,36.0850989 10.9272277,36.6101513 L32.9272277,48.5691849 C34.3829107,49.3604832 36.204449,48.8218929 36.9957473,47.3662099 C37.2347806,46.926481 37.36,46.4339358 37.36,45.9334376 Z" id="Path-17" stroke="#000033" stroke-width="1.5" fill="#FFFFFF"></path>
                        <path d="M21.0731759,32.047387 L21.0731759,29.5161339 C21.4950514,29.7527018 21.9068822,29.9738316 22.2986237,30.1841746 L22.2986237,32.705383 L23.8455006,33.5359682 L23.8455006,30.9745812 C26.4370215,32.2254559 28.2450594,32.5433672 28.4760865,30.2265645 C28.6568903,28.3649382 27.732782,26.9948594 26.2662624,25.8558586 C27.150192,25.8784693 27.7126927,25.3769278 27.5821122,23.9708744 C27.4113531,22.0510593 25.8343422,20.5915699 23.8455006,19.3529156 L23.8455006,16.8216625 L22.2986237,15.9910774 L22.2986237,18.4520178 C21.8968376,18.2362814 21.4850067,18.0251962 21.0731759,17.8141111 L21.0731759,15.3330813 L19.526299,14.5024961 L19.526299,17.0337492 C19.1948254,16.8658113 18.8633518,16.6878287 18.5519675,16.520633 L16.4225007,15.3671854 L16.4225007,17.0145088 C16.7377912,17.1782216 16.963951,17.2971764 17.126169,17.3836066 L17.2917508,17.4724939 C17.4989218,17.5847561 17.531567,17.607493 17.5365893,17.6120498 C18.1702706,17.9529622 18.3711637,18.4224379 18.4314316,18.7762274 L18.4314316,21.6590433 C18.4716103,21.6806169 18.5318782,21.7129774 18.5921461,21.7553825 L18.4314316,21.6690879 L18.4314316,25.7070392 C18.4012977,25.8917521 18.2807618,26.1384154 17.8488417,25.9064988 C17.8488417,25.9064988 17.8550421,25.9160285 17.6659297,25.8165527 L17.4375533,25.6943925 C17.2753353,25.6066189 17.0491755,25.4827038 16.733885,25.3078303 L16.4225007,26.9788064 L18.4314316,28.0574884 C18.8030839,28.2570446 19.1646914,28.461252 19.526299,28.6554148 L19.526299,31.2168018 L21.0731759,32.047387 Z M21.1033098,22.7220382 L21.1033098,19.6383292 C21.9771948,20.1075558 24.7093409,21.3033578 24.7093409,23.1214403 C24.7093409,24.8591656 21.9771948,23.1912649 21.1033098,22.7220382 Z M21.1033098,27.6640084 L21.1033098,24.268915 C22.1479539,24.8298297 25.4225114,26.2967864 25.4225114,28.2856281 C25.4225114,30.2041572 22.1479539,28.224923 21.1033098,27.6640084 Z" id="" fill="#000332" fill-rule="nonzero"></path>
                        <path d="M28.86,51.9334376 L28.86,30.6495317 C28.86,28.442911 27.6487912,26.414363 25.7062531,25.3675961 L5.28312655,14.3622769 C3.82456032,13.5763058 2.00500331,14.1215519 1.21903222,15.5801181 C0.98336939,16.0174495 0.86,16.5064593 0.86,17.0032447 L0.86,39.974404 C0.86,41.0737813 1.4613342,42.0850989 2.42722772,42.6101513 L24.4272277,54.5691849 C25.8829107,55.3604832 27.704449,54.8218929 28.4957473,53.3662099 C28.7347806,52.926481 28.86,52.4339358 28.86,51.9334376 Z" id="Path-17" stroke="#000033" stroke-width="1.5" fill="#FFFFFF"></path>
                        <path d="M8.84400394,39.2389081 C8.89271995,39.2467086 11.4639162,38.3183848 16.5575927,36.4539367 C17.0201588,36.2846217 17.0463699,35.5756492 16.6161365,34.8704013 C16.3997413,34.5156818 16.096322,34.2123687 15.7785855,34.0331435 L9.38813184,30.4284886 L7.61056414,31.1982483 C7.43851069,31.2727545 7.15996005,31.1152297 6.98840387,30.8464068 C6.90617546,30.7175575 6.86,30.5798054 6.86,30.4633482 L6.86,28.2825982 C6.86,27.3593162 7.60846797,27.0330356 8.53174999,27.55383 L10.6003332,28.7206531 C10.8265925,28.2566687 11.4206867,28.0020546 12.3826156,27.9568108 C13.3445446,27.911567 14.3923573,28.2151198 15.5260537,28.8674694 C17.0594094,29.764375 18.3371564,30.9737542 19.3592945,32.4956069 C20.3814326,34.0174596 20.8814331,35.4852617 20.8592961,36.8990133 L20.8592961,36.9139142 C20.8592961,38.1587954 20.3318818,39.0479004 19.407805,39.3608105 L12.0118655,41.8652174 C11.3878281,41.551908 10.9269872,41.2733568 10.6293428,41.0295637 C9.5658333,40.1584701 8.80520152,39.232695 8.84400394,39.2389081 Z" id="Path-4-Copy" stroke="#000033" stroke-width="1.2"></path>
                    </g>
                </g>
            </g>
        </g>
    </g>
</svg>