<?xml version="1.0" encoding="UTF-8"?>
<svg width="123px" height="160px" viewBox="0 0 123 160" version="1.1" xmlns="http://www.w3.org/2000/svg" xmlns:xlink="http://www.w3.org/1999/xlink">
    <title>编组 3</title>
    <defs>
        <rect id="path-1" x="0" y="0" width="339" height="191" rx="4"></rect>
    </defs>
    <g id="Homepage" stroke="none" stroke-width="1" fill="none" fill-rule="evenodd">
        <g id="HOMEPAGE-PT-0.2" transform="translate(-843.000000, -882.000000)">
            <g id="Button-bar" transform="translate(266.000000, 767.000000)">
                <g id="Group-4-+-Group-4-Copy-Mask" transform="translate(361.000000, 84.000000)">
                    <rect id="Mask" fill="#00E599" x="0" y="0" width="339" height="191" rx="4"></rect>
                    <g id="编组-3">
                        <mask id="mask-2" fill="white">
                            <use xlink:href="#path-1"></use>
                        </mask>
                        <g id="蒙版"></g>
                        <g mask="url(#mask-2)">
                            <g transform="translate(212.500000, 34.500000)">
                                <g id="Group-4" transform="translate(42.500000, 0.000000)">
                                    <polygon id="Polygon" stroke="#000033" stroke-width="3.168" fill="#FFFFFF" points="59.4594 1.68824954e-14 110.952751 29.7297 110.952751 89.1891 59.4594 118.9188 7.96604911 89.1891 7.96604911 29.7297"></polygon>
                                    <polygon id="Path" fill="#000033" fill-rule="nonzero" points="36.2344087 42.3466687 36.2344087 76.5431916 58.4369312 84.5121816 58.4369312 50.0320498 82.4430943 41.1870856 60.656904 33.3843492"></polygon>
                                    <polygon id="Path" stroke="#000033" stroke-width="0.99" fill="#000033" fill-rule="nonzero" points="60.243366 51.0155997 60.243366 69.722608 82.4514768 77.6776271 82.4416972 42.8077077"></polygon>
                                </g>
                                <g id="Group-4-Copy" transform="translate(0.000000, 52.000000)">
                                    <polygon id="Polygon" stroke="#000033" stroke-width="3.168" fill="#FFFFFF" points="59.4594 1.68824954e-14 110.952751 29.7297 110.952751 89.1891 59.4594 118.9188 7.96604911 89.1891 7.96604911 29.7297"></polygon>
                                    <polygon id="Path" stroke="#000033" stroke-width="1.32" fill-rule="nonzero" points="36.2344087 42.3466687 36.2344087 76.5431916 58.4369312 84.5121816 58.4369312 50.0320498 82.4430943 41.1870856 60.656904 33.3843492"></polygon>
                                    <polygon id="Path" stroke="#000033" stroke-width="1.32" fill-rule="nonzero" points="61.343366 51.5655997 61.343366 70.272608 83.5514768 78.2276271 83.5416972 43.3577077"></polygon>
                                </g>
                            </g>
                        </g>
                    </g>
                </g>
            </g>
        </g>
    </g>
</svg>