<?xml version="1.0" encoding="UTF-8"?>
<svg width="59px" height="57px" viewBox="0 0 59 57" version="1.1" xmlns="http://www.w3.org/2000/svg" xmlns:xlink="http://www.w3.org/1999/xlink">
    <title>Polygon + Polygon + Polygon + Polygon + Polygon + Polygon + Polygon Mask</title>
    <g id="Page-1" stroke="none" stroke-width="1" fill="none" fill-rule="evenodd">
        <g id="HOMEPAGE-Desktop" transform="translate(-1317.000000, -1687.000000)" stroke="#000033" stroke-width="1.27813763">
            <g id="Neo-IS-NEW-AGAIN-panel" transform="translate(261.500000, 1264.706357)">
                <g id="Group-3" transform="translate(803.500000, 399.793643)">
                    <g id="Polygon-+-Polygon-+-Polygon-+-Polygon-+-Polygon-+-Polygon-+-Polygon-Mask" transform="translate(253.500000, 25.500000)">
                        <polygon id="Polygon" fill="#FFFFFF" points="10.2073491 15.9843721 19.0471728 21.0880466 19.0471728 31.2953957 10.2073491 36.3990703 1.36752548 31.2953957 1.36752548 21.0880466"></polygon>
                        <polygon id="Polygon" fill="#FFFFFF" points="18.861406 31.5172946 27.7012296 36.6209692 27.7012296 46.8283183 18.861406 51.9319929 10.0215823 46.8283183 10.0215823 36.6209692"></polygon>
                        <polygon id="Polygon" fill="#00E599" points="27.5154629 15.9843721 36.3552865 21.0880466 36.3552865 31.2953957 27.5154629 36.3990703 18.6756392 31.2953957 18.6756392 21.0880466"></polygon>
                        <polygon id="Polygon" fill="#FFFFFF" points="36.6133175 31.2953957 45.4531412 36.3990703 45.4531412 46.6064194 36.6133175 51.710094 27.7734939 46.6064194 27.7734939 36.3990703"></polygon>
                        <polygon id="Polygon" fill="#FFFFFF" points="18.6395071 0.451449474 27.4793307 5.55512404 27.4793307 15.7624732 18.6395071 20.8661477 9.79968345 15.7624732 9.79968345 5.55512404"></polygon>
                        <polygon id="Polygon" fill="#FFFFFF" points="36.1582244 0.55383632 44.998048 5.65751088 44.998048 15.86486 36.1582244 20.9685346 27.3184007 15.86486 27.3184007 5.65751088"></polygon>
                        <polygon id="Polygon" fill="#FFFFFF" points="45.2673744 15.9843721 54.107198 21.0880466 54.107198 31.2953957 45.2673744 36.3990703 36.4275507 31.2953957 36.4275507 21.0880466"></polygon>
                    </g>
                </g>
            </g>
        </g>
    </g>
</svg>