<?xml version="1.0" encoding="UTF-8"?>
<svg width="59px" height="64px" viewBox="0 0 59 64" version="1.1" xmlns="http://www.w3.org/2000/svg" xmlns:xlink="http://www.w3.org/1999/xlink">
    <title>Group 2</title>
    <g id="Page-1" stroke="none" stroke-width="1" fill="none" fill-rule="evenodd">
        <g id="HOMEPAGE-Desktop" transform="translate(-1318.000000, -1559.000000)" stroke="#000033">
            <g id="Neo-IS-NEW-AGAIN-panel" transform="translate(261.500000, 1264.706357)">
                <g id="Group-7" transform="translate(803.500000, 276.793643)">
                    <g id="Group-2" transform="translate(254.000000, 20.500000)">
                        <g id="Group-4" transform="translate(14.809200, 0.000000)">
                            <polygon id="Polygon" stroke-width="0.86688" fill="#FFFFFF" points="20.5884 0 38.4184774 10.2942 38.4184774 30.8826 20.5884 41.1768 2.75832258 30.8826 2.75832258 10.2942"></polygon>
                            <path d="M20.6818325,11.8785197 L27.3154117,14.3185608 L19.6170321,17.2316662 L19.6170321,29.188079 L12.5808,26.5943495 L12.5808,14.9317132 L20.6818325,11.8785197 Z" id="Path" stroke-width="0.6" fill="#00E599" fill-rule="nonzero"></path>
                            <path d="M27.8705336,15.6136008 L27.8734865,27.013036 L21.2496,24.4441071 L21.2496,18.264176 L27.8705336,15.6136008 Z" id="Path" stroke-width="0.6" fill="#00E599" fill-rule="nonzero"></path>
                        </g>
                        <polygon id="Polygon" stroke-width="0.86688" fill="#FFFFFF" points="20.5884 18.06 38.4184774 28.3542 38.4184774 48.9426 20.5884 59.2368 2.75832258 48.9426 2.75832258 28.3542"></polygon>
                        <polygon id="Path" stroke-width="0.5" fill="#FFFFFF" fill-rule="nonzero" points="12.2808 32.7841804 12.2808 44.8634956 19.9170321 47.6784 19.9170321 35.498905 28.1736 32.3745783 20.6805592 29.6184"></polygon>
                        <polygon id="Path" stroke-width="0.5" fill="#FFFFFF" fill-rule="nonzero" points="20.9496 36.1211288 20.9496 42.7095303 28.1736 45.5112 28.1704188 33.2304"></polygon>
                    </g>
                </g>
            </g>
        </g>
    </g>
</svg>