<svg xmlns="http://www.w3.org/2000/svg" xmlns:xlink="http://www.w3.org/1999/xlink" viewBox="0 0 787.94 787.94" style="">
  <defs>
    <style>
      .cls-1{isolation:isolate;}.cls-2{fill:url(#radial-gradient);}.cls-3{opacity:0.48;mix-blend-mode:multiply;}.cls-4,.cls-5,.cls-6,.cls-7,.cls-8,.cls-9{fill:#ccc;}.cls-15,.cls-4{opacity:0.18;}.cls-6{opacity:0.89;}.cls-14,.cls-7{opacity:0.68;}.cls-16,.cls-8{opacity:0.38;}.cls-9{opacity:0.28;}.cls-10{fill:#2b393f;}.cls-11,.cls-12{fill:#02e49b;}.cls-11{fill-rule:evenodd;}.cls-13{fill:#00af92;}
      @keyframes a1 {
      50% {transform: translate(15px,23px)}
      }
      @keyframes a2 {
      50% {transform: translate(8px,25px)}
      }
      @keyframes a3 {
      50% {transform: translate(5px,15px)}
      }
      .a1 {animation:a1 5s linear infinite;}
      .a2 {animation:a2 10s linear infinite;}
      .a3 {animation:a3 6s infinite;}
    </style>
    <radialGradient id="radial-gradient" cx="393.97" cy="393.97" r="393.97" gradientUnits="userSpaceOnUse">
      <stop offset="0.5" stop-color="#02e49b" stop-opacity="0.1"/>
      <stop offset="0.56" stop-color="#02e49b" stop-opacity="0.12"/>
      <stop offset="0.63" stop-color="#02e49b" stop-opacity="0.19"/>
      <stop offset="0.71" stop-color="#02e49b" stop-opacity="0.3"/>
      <stop offset="0.79" stop-color="#02e49b" stop-opacity="0.46"/>
      <stop offset="0.88" stop-color="#02e49b" stop-opacity="0.66"/>
      <stop offset="0.97" stop-color="#02e49b" stop-opacity="0.9"/>
      <stop offset="1" stop-color="#02e49b"/>
    </radialGradient>
  </defs>
  <title>Artboard 32</title>
  <g class="cls-1">
    <g id="Layer_1" data-name="Layer 1">
      <g class="a1">
        <circle class="cls-10" cx="283.18" cy="513.97" r="30.83"/>
        <polygon class="cls-11" points="273.61 503.35 267.63 503.39 259.96 514.68 268.11 524.83 274.09 524.8 265.58 513.95 273.61 503.35"/>
        <polygon class="cls-11" points="293.3 503.23 299.27 503.2 307.08 514.4 299.05 524.65 293.07 524.68 301.8 513.73 293.3 503.23"/>
        <polygon class="cls-11" points="287.67 503.27 282.4 503.3 278.66 524.77 283.93 524.74 287.67 503.27"/>
      </g>
      <g class="a2">
        <circle class="cls-10" cx="468.49" cy="646.4" r="15.5"/>
        <polygon class="cls-11" points="463.67 641.06 460.67 641.08 456.81 646.76 460.9 651.87 463.91 651.85 459.63 646.39 463.67 641.06"/>
        <polygon class="cls-11" points="473.57 641 476.58 640.99 480.5 646.62 476.47 651.77 473.46 651.79 477.85 646.28 473.57 641"/>
        <polygon class="cls-11" points="470.74 641.02 468.09 641.04 466.21 651.83 468.86 651.82 470.74 641.02"/>
      </g>
      <g class="a3">
      <circle class="cls-10" cx="629.88" cy="400.36" r="35.07"/>
      <polygon class="cls-12" points="633.26 380.13 612.75 387.41 612.72 414.58 629.15 420.82 629.66 391.95 647.61 385.47 633.26 380.13"/>
      <polygon class="cls-13" points="631.34 392.83 647.58 387.17 647.1 414.34 631.08 408.12 631.34 392.83"/>
      </g>
      <g class="a2">
      <circle class="cls-10" cx="586.73" cy="183.08" r="21.4"/>
      <polygon class="cls-12" points="588.79 170.73 576.28 175.18 576.26 191.76 586.29 195.57 586.6 177.95 597.55 174 588.79 170.73"/>
      <polygon class="cls-13" points="587.62 178.49 597.53 175.03 597.24 191.62 587.46 187.81 587.62 178.49"/>
      </g>
      <g class="a3">
      <circle class="cls-10" cx="300.19" cy="128.61" r="16.68"/>
      <polygon class="cls-12" points="301.8 118.98 292.05 122.45 292.03 135.37 299.85 138.34 300.09 124.61 308.62 121.53 301.8 118.98"/>
      <polygon class="cls-13" points="300.89 125.03 308.61 122.33 308.38 135.26 300.76 132.3 300.89 125.03"/>
      </g>
      <g class="a3">
      <circle class="cls-10" cx="414.23" cy="353.83" r="16.68"/>
      <polygon class="cls-12" points="415.84 344.21 406.08 347.67 406.07 360.6 413.89 363.56 414.13 349.83 422.66 346.75 415.84 344.21"/>
      <polygon class="cls-13" points="414.93 350.25 422.65 347.56 422.42 360.48 414.8 357.52 414.93 350.25"/>
      </g>
      <g class="a2">
        <circle class="cls-10" cx="249.6" cy="142.85" r="13.21"/>
      <polygon class="cls-11" points="245.5 138.3 242.94 138.31 239.65 143.16 243.14 147.51 245.7 147.49 242.06 142.84 245.5 138.3"/>
      <polygon class="cls-11" points="253.94 138.25 256.5 138.23 259.84 143.04 256.4 147.43 253.84 147.44 257.58 142.75 253.94 138.25"/>
      <polygon class="cls-11" points="251.53 138.26 249.27 138.28 247.66 147.48 249.92 147.47 251.53 138.26"/>
      </g>
    </g>
  </g>
</svg>