<?xml version="1.0" encoding="UTF-8"?>
<svg width="400px" height="401px" viewBox="0 0 400 401" version="1.1" xmlns="http://www.w3.org/2000/svg" xmlns:xlink="http://www.w3.org/1999/xlink">
    <title>N3 Logo</title>
    <defs>
        <linearGradient x1="-38.6989018%" y1="68.6293136%" x2="95.0019031%" y2="-21.2240123%" id="linearGradient-1">
            <stop stop-color="#000332" offset="0%"></stop>
            <stop stop-color="#50B0AE" offset="24.3780641%"></stop>
            <stop stop-color="#25D29C" offset="78.4959913%"></stop>
            <stop stop-color="#66E494" offset="100%"></stop>
        </linearGradient>
        <path d="M89.34188,272.23296 L89.34188,202.79216 L88.37068,171.22816 L88.85628,171.22816 L99.05388,192.83736 L142.75788,272.23296 L197.14508,272.23296 L197.14508,111.98496 L153.68388,111.98496 L153.68388,181.42576 L154.65508,212.98976 L154.41228,212.98976 L143.97188,191.38056 L100.26788,111.98496 L46.12348,111.98496 L46.12348,272.23296 L89.34188,272.23296 Z M286.00988,274.66096 C297.66428,274.66096 308.185613,272.71856 317.57388,268.83376 C326.962147,264.94896 334.408013,259.324093 339.91148,251.95916 C345.414947,244.594227 348.16668,235.893893 348.16668,225.85816 C348.16668,218.57416 346.83128,212.706493 344.16048,208.25516 C341.48968,203.803827 338.252347,200.445093 334.44848,198.17896 C330.644613,195.912827 326.92168,194.375093 323.27968,193.56576 C319.63768,192.756427 316.84548,192.35176 314.90308,192.35176 L314.90308,192.35176 L314.90308,191.38056 C316.683613,191.38056 319.192547,190.77356 322.42988,189.55956 C325.667213,188.34556 329.066413,186.362693 332.62748,183.61096 C336.188547,180.859227 339.142613,177.136293 341.48968,172.44216 C343.836747,167.748027 345.01028,161.75896 345.01028,154.47496 C345.01028,144.924827 342.70368,136.831493 338.09048,130.19496 C333.47728,123.558427 326.759813,118.459627 317.93808,114.89856 C309.116347,111.337493 298.311747,109.55696 285.52428,109.55696 C274.193613,109.55696 263.874613,111.25656 254.56728,114.65576 C245.259947,118.05496 237.57128,122.991893 231.50128,129.46656 C225.43128,135.941227 221.748813,144.03456 220.45388,153.74656 L220.45388,153.74656 L263.42948,167.58616 C263.91508,159.654693 265.897947,154.191693 269.37808,151.19716 C272.858213,148.202627 277.107213,146.70536 282.12508,146.70536 C286.819213,146.70536 290.50168,148.04076 293.17248,150.71156 C295.84328,153.38236 297.17868,157.14576 297.17868,162.00176 C297.17868,167.82896 295.802813,172.037493 293.05108,174.62736 C290.299347,177.217227 285.928947,178.51216 279.93988,178.51216 C277.99748,178.51216 276.378813,178.471693 275.08388,178.39076 C273.788947,178.309827 272.494013,178.188427 271.19908,178.02656 L271.19908,178.02656 L271.19908,208.13376 C273.465213,207.810027 275.44808,207.567227 277.14768,207.40536 C278.84728,207.243493 280.830147,207.16256 283.09628,207.16256 C286.49548,207.16256 289.490013,207.607693 292.07988,208.49796 C294.669747,209.388227 296.733547,210.885493 298.27128,212.98976 C299.809013,215.094027 300.57788,218.007627 300.57788,221.73056 C300.57788,224.967893 299.84948,227.80056 298.39268,230.22856 C296.93588,232.65656 294.87208,234.47756 292.20128,235.69156 C289.53048,236.90556 286.414547,237.51256 282.85348,237.51256 C279.292413,237.51256 275.93368,236.90556 272.77728,235.69156 C269.62088,234.47756 267.152413,232.251893 265.37188,229.01456 C263.591347,225.777227 262.620147,221.325893 262.45828,215.66056 L262.45828,215.66056 L217.29748,234.35616 C221.829747,247.791093 229.882613,257.867293 241.45608,264.58476 C253.029547,271.302227 267.880813,274.66096 286.00988,274.66096 Z" id="path-2"></path>
    </defs>
    <g id="Homepage" stroke="none" stroke-width="1" fill="none" fill-rule="evenodd">
        <g id="HOMEPAGE-PT-0.1" transform="translate(-369.000000, -211.000000)">
            <g id="Blue-left-pane" transform="translate(-34.000000, -2.500000)">
                <g id="N3-Logo" transform="translate(403.000000, 214.000000)">
                    <g id="编组" transform="translate(4.000000, 4.000000)">
                        <g id="N3" fill-rule="nonzero">
                            <use fill="#070E3A" xlink:href="#path-2"></use>
                            <use fill="url(#linearGradient-1)" xlink:href="#path-2"></use>
                            <use fill="#00E599" xlink:href="#path-2"></use>
                        </g>
                        <rect id="Rectangle" stroke="#00E599" stroke-width="6.2016" x="-2.84217094e-14" y="-2.84217094e-14" width="391.94112" height="391.94112"></rect>
                    </g>
                </g>
            </g>
        </g>
    </g>
</svg>