<?xml version="1.0" encoding="UTF-8"?>
<svg width="93px" height="108px" viewBox="0 0 93 108" version="1.1" xmlns="http://www.w3.org/2000/svg" xmlns:xlink="http://www.w3.org/1999/xlink">
    <title>Native Oracles HEX ICON</title>
    <g id="Homepage" stroke="none" stroke-width="1" fill="none" fill-rule="evenodd">
        <g id="HOMEPAGE-PT-0.1" transform="translate(-446.000000, -1003.000000)" stroke="#000033">
            <g id="Native-Oracles-HEX-ICON" transform="translate(441.437500, 1005.500000)">
                <polygon id="Polygon" stroke-width="2.88" points="51.5 0 96.1003083 25.75 96.1003083 77.25 51.5 103 6.89969171 77.25 6.89969171 25.75"></polygon>
                <g id="Group-14" transform="translate(19.928571, 44.000000)" stroke-width="1.4">
                    <g id="Group-10" transform="translate(23.600000, 0.000000)">
                        <path d="M8.10465418,0.14967983 L14.3566933,3.68563068 C14.5253596,3.78102283 14.6296392,3.9598021 14.6296392,4.15357505 L14.6296392,11.206425 C14.6296392,11.4001979 14.5253596,11.5789772 14.3566933,11.6743693 L8.10465418,15.2103202 C7.94044007,15.3031944 7.73955993,15.3031944 7.57534582,15.2103202 L1.32330666,11.6743693 C1.15464044,11.5789772 1.05036083,11.4001979 1.05036083,11.206425 L1.05036083,4.15357505 C1.05036083,3.9598021 1.15464044,3.78102283 1.32330666,3.68563068 L7.57534582,0.14967983 C7.73955993,0.0568056478 7.94044007,0.0568056478 8.10465418,0.14967983 Z" id="Polygon"></path>
                        <line x1="7.84" y1="15.04" x2="7.84" y2="7.68" id="Line-6" stroke-linecap="round"></line>
                        <line x1="0.96" y1="4.16" x2="7.68" y2="7.68" id="Line-4" stroke-linecap="round"></line>
                        <line x1="14.4" y1="4.16" x2="7.68" y2="7.68" id="Line-5" stroke-linecap="round"></line>
                    </g>
                    <g id="Group-10">
                        <path d="M8.10465418,0.14967983 L14.3566933,3.68563068 C14.5253596,3.78102283 14.6296392,3.9598021 14.6296392,4.15357505 L14.6296392,11.206425 C14.6296392,11.4001979 14.5253596,11.5789772 14.3566933,11.6743693 L8.10465418,15.2103202 C7.94044007,15.3031944 7.73955993,15.3031944 7.57534582,15.2103202 L1.32330666,11.6743693 C1.15464044,11.5789772 1.05036083,11.4001979 1.05036083,11.206425 L1.05036083,4.15357505 C1.05036083,3.9598021 1.15464044,3.78102283 1.32330666,3.68563068 L7.57534582,0.14967983 C7.73955993,0.0568056478 7.94044007,0.0568056478 8.10465418,0.14967983 Z" id="Polygon"></path>
                        <line x1="7.84" y1="15.04" x2="7.84" y2="7.68" id="Line-6" stroke-linecap="round"></line>
                        <line x1="0.96" y1="4.16" x2="7.68" y2="7.68" id="Line-4" stroke-linecap="round"></line>
                        <line x1="14.4" y1="4.16" x2="7.68" y2="7.68" id="Line-5" stroke-linecap="round"></line>
                    </g>
                    <g id="Group-10" transform="translate(48.000000, 0.000000)">
                        <path d="M8.10465418,0.14967983 L14.3566933,3.68563068 C14.5253596,3.78102283 14.6296392,3.9598021 14.6296392,4.15357505 L14.6296392,11.206425 C14.6296392,11.4001979 14.5253596,11.5789772 14.3566933,11.6743693 L8.10465418,15.2103202 C7.94044007,15.3031944 7.73955993,15.3031944 7.57534582,15.2103202 L1.32330666,11.6743693 C1.15464044,11.5789772 1.05036083,11.4001979 1.05036083,11.206425 L1.05036083,4.15357505 C1.05036083,3.9598021 1.15464044,3.78102283 1.32330666,3.68563068 L7.57534582,0.14967983 C7.73955993,0.0568056478 7.94044007,0.0568056478 8.10465418,0.14967983 Z" id="Polygon"></path>
                        <line x1="7.84" y1="15.04" x2="7.84" y2="7.68" id="Line-6" stroke-linecap="round"></line>
                        <line x1="0.96" y1="4.16" x2="7.68" y2="7.68" id="Line-4" stroke-linecap="round"></line>
                        <line x1="14.4" y1="4.16" x2="7.68" y2="7.68" id="Line-5" stroke-linecap="round"></line>
                    </g>
                    <line x1="48.8" y1="8.4" x2="38.4" y2="8.4" id="Line-7" stroke-linecap="square"></line>
                    <line x1="24.8" y1="8.4" x2="14.4" y2="8.4" id="Line-7" stroke-linecap="square"></line>
                </g>
            </g>
        </g>
    </g>
</svg>