<?xml version="1.0" encoding="UTF-8"?>
<svg width="82px" height="91px" viewBox="0 0 82 91" version="1.1" xmlns="http://www.w3.org/2000/svg" xmlns:xlink="http://www.w3.org/1999/xlink">
    <title>icon</title>
    <defs>
        <polygon id="path-1" points="37.8 -2.13162821e-14 67.2621842 17.01 67.2621842 51.03 37.8 68.04 8.33781576 51.03 8.33781576 17.01"></polygon>
        <filter x="-31.5%" y="-19.1%" width="145.4%" height="158.8%" filterUnits="objectBoundingBox" id="filter-2">
            <feOffset dx="-6" dy="7" in="SourceAlpha" result="shadowOffsetOuter1"></feOffset>
            <feGaussianBlur stdDeviation="5.5" in="shadowOffsetOuter1" result="shadowBlurOuter1"></feGaussianBlur>
            <feColorMatrix values="0 0 0 0 0.316369017   0 0 0 0 0.366987588   0 0 0 0 0.353495709  0 0 0 0.257409583 0" type="matrix" in="shadowBlurOuter1" result="shadowMatrixOuter1"></feColorMatrix>
            <feOffset dx="-3" dy="3" in="SourceAlpha" result="shadowOffsetOuter2"></feOffset>
            <feGaussianBlur stdDeviation="2.5" in="shadowOffsetOuter2" result="shadowBlurOuter2"></feGaussianBlur>
            <feColorMatrix values="0 0 0 0 0   0 0 0 0 0   0 0 0 0 0  0 0 0 0.144614907 0" type="matrix" in="shadowBlurOuter2" result="shadowMatrixOuter2"></feColorMatrix>
            <feMerge>
                <feMergeNode in="shadowMatrixOuter1"></feMergeNode>
                <feMergeNode in="shadowMatrixOuter2"></feMergeNode>
            </feMerge>
        </filter>
    </defs>
    <g id="Page-1" stroke="none" stroke-width="1" fill="none" fill-rule="evenodd">
        <g id="HOMEPAGE-MOBILE" transform="translate(-5.000000, -3614.000000)">
            <g id="Building-blocks-panel" transform="translate(8.000000, 2180.000000)">
                <g id="Features" transform="translate(0.000000, 643.000000)">
                    <g id="NEOID" transform="translate(6.000000, 789.000000)">
                        <g id="icon" transform="translate(0.000000, 6.000000)">
                            <polygon id="Polygon-Copy-9" stroke="#00E599" stroke-width="0.72" points="34.02 7.02 63.4821842 24.03 63.4821842 58.05 34.02 75.06 4.55781576 58.05 4.55781576 24.03"></polygon>
                            <g id="Polygon-Copy-10">
                                <use fill="black" fill-opacity="1" filter="url(#filter-2)" xlink:href="#path-1"></use>
                                <use fill="#F0F5F6" fill-rule="evenodd" xlink:href="#path-1"></use>
                            </g>
                            <polygon id="Polygon-Copy-10" stroke="#000033" stroke-width="0.54" fill="#FFFFFF" points="37.8 17.64 52.1413807 25.83 52.1413807 42.21 37.8 50.4 23.4586193 42.21 23.4586193 25.83"></polygon>
                            <path d="M32.81184,27.95364 C32.92632,28.04268 33.05352,28.04904 33.19344,27.97272 C34.5036,27.22224 35.97912,26.847 37.62,26.847 C38.39592,26.847 39.13686,26.93604 39.84282,27.11412 C40.54878,27.2922 41.28336,27.5784 42.04656,27.97272 C42.072,27.98544 42.1356,27.9918 42.23736,27.9918 C42.36456,27.9918 42.46314,27.9441 42.5331,27.8487 C42.60306,27.7533 42.63168,27.64518 42.61896,27.52434 C42.60624,27.4035 42.54264,27.31128 42.42816,27.24768 C41.61408,26.84064 40.81908,26.54172 40.04316,26.35092 C39.26724,26.16012 38.45952,26.06472 37.62,26.06472 C35.8392,26.06472 34.23648,26.45904 32.81184,27.24768 C32.67192,27.33672 32.60832,27.45438 32.62104,27.60066 C32.63376,27.74694 32.69736,27.8646 32.81184,27.95364 Z" id="Path" fill="#000033" fill-rule="nonzero"></path>
                            <path d="M30.88476,32.17032 C31.01196,32.17032 31.10736,32.11944 31.17096,32.01768 C31.85784,31.05096 32.76732,30.27186 33.8994,29.68038 C35.03148,29.0889 36.2685,28.79634 37.61046,28.8027 C38.95242,28.80906 40.1958,29.09844 41.3406,29.67084 C42.45996,30.25596 43.35672,31.02552 44.03088,31.97952 C44.08176,32.06856 44.16126,32.1258 44.26938,32.15124 C44.3775,32.17668 44.47926,32.16078 44.57466,32.10354 C44.67006,32.0463 44.73048,31.96362 44.75592,31.8555 C44.78136,31.74738 44.76228,31.64244 44.69868,31.54068 C43.9482,30.45948 42.95286,29.5977 41.71266,28.95534 C40.47246,28.31298 39.10824,27.9918 37.62,27.9918 C36.13176,27.9918 34.76436,28.31616 33.5178,28.96488 C32.3094,29.58816 31.31724,30.45948 30.54132,31.57884 C30.45228,31.73148 30.44274,31.86822 30.5127,31.98906 C30.58266,32.1099 30.70668,32.17032 30.88476,32.17032 Z" id="Path" fill="#000033" fill-rule="nonzero"></path>
                            <path d="M39.92868,41.93928 C40.005,41.93928 40.0845,41.91066 40.16718,41.85342 C40.24986,41.79618 40.30074,41.71668 40.31982,41.61492 C40.3389,41.51316 40.32618,41.41458 40.28166,41.31918 C40.23714,41.22378 40.15764,41.16972 40.04316,41.157 C39.47076,41.00436 38.98422,40.81674 38.58354,40.59414 C38.18286,40.37154 37.79808,40.0758 37.4292,39.70692 C36.94584,39.22356 36.57696,38.67342 36.32256,38.0565 C36.06816,37.43958 35.94096,36.79404 35.94096,36.11988 C35.94096,35.6874 36.09996,35.31852 36.41796,35.01324 C36.73596,34.70796 37.1271,34.55532 37.59138,34.55532 C38.05566,34.55532 38.44998,34.70796 38.77434,35.01324 C39.0987,35.31852 39.26088,35.6874 39.26088,36.11988 C39.26088,36.55236 39.369,36.9435 39.58524,37.2933 C39.80148,37.6431 40.09404,37.91976 40.46292,38.12328 C40.8318,38.3268 41.23884,38.42856 41.68404,38.42856 C42.12924,38.42856 42.53946,38.3268 42.9147,38.12328 C43.28994,37.91976 43.58886,37.6431 43.81146,37.2933 C44.03406,36.9435 44.14536,36.55236 44.14536,36.11988 C44.14536,35.00052 43.84644,33.95112 43.2486,32.97168 C42.66348,32.0304 41.8812,31.27992 40.90176,30.72024 C39.87144,30.14784 38.7648,29.86164 37.58184,29.86164 C36.29712,29.86164 35.11098,30.19872 34.02342,30.87288 C32.93586,31.54704 32.13768,32.4438 31.62888,33.56316 C31.24728,34.30092 31.05648,35.15952 31.05648,36.13896 C31.05648,37.1184 31.26,38.15508 31.66704,39.249 C31.71792,39.38892 31.8165,39.46842 31.96278,39.4875 C32.10906,39.50658 32.23308,39.46842 32.33484,39.37302 C32.4366,39.27762 32.46204,39.1536 32.41116,39.00096 C32.19492,38.44128 32.04228,37.8816 31.95324,37.32192 C31.90236,36.95304 31.87692,36.55236 31.87692,36.11988 C31.87692,35.25492 32.02956,34.5108 32.33484,33.88752 C32.80548,32.9208 33.51462,32.14488 34.46226,31.55976 C35.4099,30.97464 36.44976,30.68208 37.58184,30.68208 C38.62488,30.68208 39.5916,30.93012 40.482,31.4262 C41.35968,31.90956 42.05292,32.56464 42.56172,33.39144 C43.09596,34.23096 43.36308,35.14044 43.36308,36.11988 C43.36308,36.55236 43.2009,36.91488 42.87654,37.20744 C42.55218,37.5 42.15468,37.64628 41.68404,37.64628 C41.2134,37.64628 40.82226,37.5 40.51062,37.20744 C40.19898,36.91488 40.04316,36.55554 40.04316,36.12942 C40.04316,35.7033 39.93186,35.30898 39.70926,34.94646 C39.48666,34.58394 39.18456,34.29774 38.80296,34.08786 C38.42136,33.87798 38.01432,33.77304 37.58184,33.77304 C37.14936,33.77304 36.7455,33.87798 36.37026,34.08786 C35.99502,34.29774 35.69928,34.58394 35.48304,34.94646 C35.2668,35.30898 35.15868,35.70012 35.15868,36.11988 C35.15868,36.90852 35.30496,37.65582 35.59752,38.36178 C35.89008,39.06774 36.3162,39.70056 36.87588,40.26024 C37.30836,40.69272 37.75038,41.03934 38.20194,41.3001 C38.6535,41.56086 39.19092,41.77392 39.8142,41.93928 L39.8142,41.93928 L39.92868,41.93928 Z" id="Path" fill="#000033" fill-rule="nonzero"></path>
                            <path d="M35.82648,41.78664 C35.95368,41.78664 36.05544,41.75166 36.13176,41.6817 C36.20808,41.61174 36.24624,41.51952 36.24624,41.40504 C36.24624,41.29056 36.20808,41.19516 36.13176,41.11884 C35.75016,40.7118 35.49576,40.4256 35.36856,40.26024 C35.11416,39.95496 34.87248,39.59244 34.64352,39.17268 C34.17288,38.37132 33.93756,37.35372 33.93756,36.11988 C33.93756,35.48388 34.10292,34.89876 34.43364,34.36452 C34.76436,33.83028 35.20956,33.40734 35.76924,33.0957 C36.32892,32.78406 36.94584,32.62824 37.62,32.62824 C38.29416,32.62824 38.91108,32.78406 39.47076,33.0957 C40.03044,33.40734 40.47564,33.83028 40.80636,34.36452 C41.13708,34.89876 41.30244,35.48388 41.30244,36.11988 C41.30244,36.23436 41.34378,36.32658 41.42646,36.39654 C41.50914,36.4665 41.60772,36.50148 41.7222,36.50148 C41.83668,36.50148 41.93208,36.4665 42.0084,36.39654 C42.08472,36.32658 42.12288,36.23436 42.12288,36.11988 C42.12288,35.34396 41.92254,34.62846 41.52186,33.97338 C41.12118,33.3183 40.57422,32.79996 39.88098,32.41836 C39.18774,32.03676 38.43408,31.84596 37.62,31.84596 C36.80592,31.84596 36.05226,32.03676 35.35902,32.41836 C34.66578,32.79996 34.11882,33.3183 33.71814,33.97338 C33.31746,34.62846 33.11712,35.34396 33.11712,36.11988 C33.11712,37.43004 33.40332,38.57484 33.97572,39.55428 C34.2174,40.0122 34.45908,40.40016 34.70076,40.71816 C34.90428,40.97256 35.19684,41.29056 35.57844,41.67216 C35.65476,41.74848 35.73744,41.78664 35.82648,41.78664 Z" id="Path" fill="#000033" fill-rule="nonzero"></path>
                            <path d="M41.5314,40.2984 C41.87484,40.2984 42.1992,40.27296 42.50448,40.22208 C42.61896,40.20936 42.708,40.15212 42.7716,40.05036 C42.8352,39.9486 42.85428,39.84684 42.82884,39.74508 C42.8034,39.59244 42.708,39.49704 42.54264,39.45888 C42.42816,39.43344 42.25644,39.43344 42.02748,39.45888 L42.02748,39.45888 L41.5314,39.51612 C40.85724,39.51612 40.24032,39.35712 39.68064,39.03912 C39.1464,38.74656 38.72664,38.33952 38.42136,37.818 C38.11608,37.29648 37.96344,36.73044 37.96344,36.11988 C37.96344,36.0054 37.92846,35.91 37.8585,35.83368 C37.78854,35.75736 37.69632,35.7192 37.58184,35.7192 C37.46736,35.7192 37.37196,35.76054 37.29564,35.84322 C37.21932,35.9259 37.18116,36.01812 37.18116,36.11988 C37.18116,36.80676 37.34652,37.45548 37.67724,38.06604 C38.00796,38.6766 38.47224,39.1854 39.07008,39.59244 C39.73152,40.06308 40.55196,40.2984 41.5314,40.2984 Z" id="Path" fill="#00E599" fill-rule="nonzero"></path>
                        </g>
                    </g>
                </g>
            </g>
        </g>
    </g>
</svg>