<?xml version="1.0" encoding="UTF-8"?>
<svg width="93px" height="108px" viewBox="0 0 93 108" version="1.1" xmlns="http://www.w3.org/2000/svg" xmlns:xlink="http://www.w3.org/1999/xlink">
    <title>One Block Finality HEX ICON</title>
    <g id="Homepage" stroke="none" stroke-width="1" fill="none" fill-rule="evenodd">
        <g id="HOMEPAGE-PT-0.1" transform="translate(-1091.000000, -1003.000000)" stroke="#000033">
            <g id="One-Block-Finality-HEX-ICON" transform="translate(1086.187500, 1005.500000)">
                <polygon id="Polygon" stroke-width="2.88" points="51.5 0 96.1003083 25.75 96.1003083 77.25 51.5 103 6.89969171 77.25 6.89969171 25.75"></polygon>
                <g id="Group-10" transform="translate(27.142857, 28.000000)" stroke-width="1.68">
                    <path d="M25.3270443,0.467749468 L44.8646667,11.5175959 C45.3917486,11.8156963 45.7176224,12.3743816 45.7176224,12.979922 L45.7176224,35.020078 C45.7176224,35.6256184 45.3917486,36.1843037 44.8646667,36.4824041 L25.3270443,47.5322505 C24.8138752,47.8224824 24.1861248,47.8224824 23.6729557,47.5322505 L4.13533331,36.4824041 C3.60825139,36.1843037 3.28237761,35.6256184 3.28237761,35.020078 L3.28237761,12.979922 C3.28237761,12.3743816 3.60825139,11.8156963 4.13533331,11.5175959 L23.6729557,0.467749468 C24.1861248,0.177517649 24.8138752,0.177517649 25.3270443,0.467749468 Z" id="Polygon"></path>
                    <line x1="24.5" y1="47" x2="24.5" y2="24" id="Line-6" stroke-linecap="round"></line>
                    <line x1="3" y1="13" x2="24" y2="24" id="Line-4" stroke-linecap="round"></line>
                    <line x1="45" y1="13" x2="24" y2="24" id="Line-5" stroke-linecap="round"></line>
                </g>
            </g>
        </g>
    </g>
</svg>