<?xml version="1.0" encoding="UTF-8"?>
<svg width="69px" height="79px" viewBox="0 0 69 79" version="1.1" xmlns="http://www.w3.org/2000/svg" xmlns:xlink="http://www.w3.org/1999/xlink">
    <title>Register icon</title>
    <defs>
        <path d="M28.1330721,47.7172846 L51.7254802,47.7172846 C52.2777649,47.7172846 52.7254802,47.2695694 52.7254802,46.7172846 C52.7254802,46.7135943 52.7254597,46.7099039 52.7254189,46.7062138 L52.6897101,43.4809439 C52.6857899,43.1268653 52.4949093,42.8012616 52.1878596,42.6248884 L44.4926144,38.2046441 L44.4926144,38.2046441 C45.549805,36.9739281 46.2573912,35.9606082 46.6153732,35.1646843 C46.9733552,34.3687605 47.3117591,32.9651163 47.6305847,30.9537519 C47.9325938,29.0294414 47.8571947,27.0210748 47.4043876,24.928652 C46.7251769,21.7900178 43.6078258,20.1055895 39.7977831,20.1055895 C35.9877404,20.1055895 33.2061371,21.6994299 32.3332818,25.2337183 C31.7513782,27.5899106 31.7082176,29.5360993 32.2038001,31.0722846 C32.6655811,32.8736272 33.0624753,34.1710679 33.3944828,34.9646068 C33.7264904,35.7581458 34.3242951,36.8381582 35.1878971,38.2046441 L27.6431991,42.4441136 C27.3281043,42.6211697 27.1330721,42.9544747 27.1330721,43.3159074 L27.1330721,46.7172846 C27.1330721,47.2695694 27.5807873,47.7172846 28.1330721,47.7172846 Z" id="path-1"></path>
        <path d="M22.1330721,50.7172846 L45.7254802,50.7172846 C46.2777649,50.7172846 46.7254802,50.2695694 46.7254802,49.7172846 C46.7254802,49.7135943 46.7254597,49.7099039 46.7254189,49.7062138 L46.6897101,46.4809439 C46.6857899,46.1268653 46.4949093,45.8012616 46.1878596,45.6248884 L38.4926144,41.2046441 L38.4926144,41.2046441 C39.549805,39.9739281 40.2573912,38.9606082 40.6153732,38.1646843 C40.9733552,37.3687605 41.3117591,35.9651163 41.6305847,33.9537519 C41.9325938,32.0294414 41.8571947,30.0210748 41.4043876,27.928652 C40.7251769,24.7900178 37.6078258,23.1055895 33.7977831,23.1055895 C29.9877404,23.1055895 27.2061371,24.6994299 26.3332818,28.2337183 C25.7513782,30.5899106 25.7082176,32.5360993 26.2038001,34.0722846 C26.6655811,35.8736272 27.0624753,37.1710679 27.3944828,37.9646068 C27.7264904,38.7581458 28.3242951,39.8381582 29.1878971,41.2046441 L21.6431991,45.4441136 C21.3281043,45.6211697 21.1330721,45.9544747 21.1330721,46.3159074 L21.1330721,49.7172846 C21.1330721,50.2695694 21.5807873,50.7172846 22.1330721,50.7172846 Z" id="path-2"></path>
    </defs>
    <g id="Homepage" stroke="none" stroke-width="1" fill="none" fill-rule="evenodd">
        <g id="HOMEPAGE-PT-0.6" transform="translate(-1115.000000, -609.000000)">
            <g id="Register-icon" transform="translate(1111.000000, 610.000000)">
                <g id="Group-4" fill="#FFFFFF" stroke="#000033" stroke-width="1.73396496">
                    <polygon id="Polygon" points="38.33596 0 71.5358752 19.16798 71.5358752 57.50394 38.33596 76.67192 5.13604476 57.50394 5.13604476 19.16798"></polygon>
                </g>
                <g id="Path-6">
                    <use stroke="#000033" stroke-width="3" xlink:href="#path-1"></use>
                    <path stroke="#FFFFFF" stroke-width="2" d="M39.7977831,19.1055895 C41.9668919,19.1055895 43.9259303,19.6160412 45.424062,20.5659503 C46.9343108,21.5235425 47.9931996,22.9215879 48.381764,24.7171446 C48.8621572,26.9370428 48.9388398,29.0676383 48.6182536,31.1103094 C48.2797784,33.2456363 47.9071059,34.7305911 47.5273735,35.5748739 C47.2359519,36.2228098 46.7353512,37.0085108 46.0160661,37.9264993 L46.0160661,37.9264993 L52.6859477,41.757762 C53.3000472,42.1105084 53.6818084,42.7617158 53.6896488,43.4698731 L53.6896488,43.4698731 L53.7254085,46.6997403 C53.727175,47.2602378 53.5035547,47.7622186 53.1447944,48.124973 C52.7820005,48.4918058 52.2801036,48.7172846 51.7254802,48.7172846 L51.7254802,48.7172846 L28.1330721,48.7172846 C27.5807873,48.7172846 27.0807873,48.493427 26.7188585,48.1314982 C26.3569297,47.7695694 26.1330721,47.2695694 26.1330721,46.7172846 L26.1330721,46.7172846 L26.1330721,43.3159074 C26.1330721,42.9544747 26.2305882,42.6071059 26.406878,42.3058311 C26.5831678,42.0045564 26.8382314,41.7493759 27.1533262,41.5723198 L27.1533262,41.5723198 L33.7898527,37.8431643 C33.1809992,36.8296788 32.7429358,35.9982148 32.4719708,35.3505752 C32.1297771,34.53269 31.7173598,33.199119 31.2418569,31.3473003 C30.7109622,29.674265 30.7290849,27.5585222 31.3624506,24.9939543 C31.8528859,23.0081272 32.8767326,21.563369 34.2892689,20.5929535 C35.7333584,19.6008608 37.608134,19.1055895 39.7977831,19.1055895 Z"></path>
                </g>
                <g id="Path-6">
                    <use stroke="#000033" stroke-width="3" fill="#FFFFFF" fill-rule="evenodd" xlink:href="#path-2"></use>
                    <path stroke="#FFFFFF" stroke-width="2" d="M33.7977831,22.1055895 C35.9668919,22.1055895 37.9259303,22.6160412 39.424062,23.5659503 C40.9343108,24.5235425 41.9931996,25.9215879 42.381764,27.7171446 C42.8621572,29.9370428 42.9388398,32.0676383 42.6182536,34.1103094 C42.2797784,36.2456363 41.9071059,37.7305911 41.5273735,38.5748739 C41.2359519,39.2228099 40.7353512,40.0085108 40.0160661,40.9264993 L40.0160661,40.9264993 L46.6859477,44.757762 C47.3000472,45.1105084 47.6818084,45.7617158 47.6896488,46.4698731 L47.6896488,46.4698731 L47.7254085,49.6997403 C47.727175,50.2602378 47.5035547,50.7622186 47.1447944,51.124973 C46.7820005,51.4918058 46.2801036,51.7172846 45.7254802,51.7172846 L45.7254802,51.7172846 L22.1330721,51.7172846 C21.5807873,51.7172846 21.0807873,51.493427 20.7188585,51.1314982 C20.3569297,50.7695694 20.1330721,50.2695694 20.1330721,49.7172846 L20.1330721,49.7172846 L20.1330721,46.3159074 C20.1330721,45.9544747 20.2305882,45.6071059 20.406878,45.3058311 C20.5831678,45.0045564 20.8382314,44.7493759 21.1533262,44.5723198 L21.1533262,44.5723198 L27.7898527,40.8431643 C27.1809992,39.8296788 26.7429358,38.9982148 26.4719708,38.3505752 C26.1297771,37.53269 25.7173598,36.199119 25.2418569,34.3473003 C24.7109622,32.674265 24.7290849,30.5585222 25.3624506,27.9939543 C25.8528859,26.0081272 26.8767326,24.563369 28.2892689,23.5929535 C29.7333584,22.6008608 31.608134,22.1055895 33.7977831,22.1055895 Z"></path>
                </g>
            </g>
        </g>
    </g>
</svg>