<svg width="281" height="281" viewBox="0 0 281 281" fill="none" xmlns="http://www.w3.org/2000/svg">
<g opacity="0.132557">
<path d="M140.5 0L262.177 70.25V210.75L140.5 281L18.8234 210.75V70.25L140.5 0Z" fill="url(#paint0_linear)"/>
<path d="M140.5 0L262.177 70.25V210.75L140.5 281L18.8234 210.75V70.25L140.5 0Z" fill="#00E599"/>
</g>
<path d="M140.5 39L228.402 89.75V191.25L140.5 242L52.5984 191.25V89.75L140.5 39Z" fill="url(#paint1_linear)"/>
<path d="M140.5 39L228.402 89.75V191.25L140.5 242L52.5984 191.25V89.75L140.5 39Z" fill="#010129"/>
<path d="M140.5 39L228.402 89.75V191.25L140.5 242L52.5984 191.25V89.75L140.5 39Z" stroke="#00E599"/>
<path d="M137.389 124.877L145.389 116.877L137.389 108.877L135.501 110.765L141.645 116.877L135.501 122.989L137.389 124.877Z" fill="#00E599"/>
<path d="M137.389 169.877L145.389 161.877L137.389 153.877L135.501 155.765L141.645 161.877L135.501 167.989L137.389 169.877Z" fill="#00E599"/>
<path d="M82 104.738V130.505L98.4941 136.505V110.514L116.284 103.872L100.137 98L82 104.738Z" fill="#00E599"/>
<path d="M99.6719 111.441V125.45L116.284 131.467V105.197L99.6719 111.441Z" fill="#00AF92"/>
<path fill-rule="evenodd" clip-rule="evenodd" d="M100.313 183L81.9189 176.512V151.142L100.361 144.495L116.909 150.316L117 177.064L100.313 170.994V183ZM83.5644 175.274L98.5147 180.577V156.262L113.437 150.769L100.276 146.11L83.5634 152.168L83.5644 175.274ZM115.356 174.653L100.282 169.19L100.285 157.504L115.279 152.034L115.356 174.653Z" fill="#00E599"/>
<path d="M162 104.738V130.505L178.494 136.505V110.514L196.284 103.872L180.137 98L162 104.738Z" fill="#00E599"/>
<path d="M179.672 111.441V125.45L196.284 131.467V105.197L179.672 111.441Z" fill="#00AF92"/>
<path fill-rule="evenodd" clip-rule="evenodd" d="M180.313 183L161.919 176.512V151.142L180.361 144.495L196.909 150.316L197 177.064L180.313 170.994V183ZM163.564 175.274L178.515 180.577V156.262L193.437 150.769L180.276 146.11L163.563 152.168L163.564 175.274ZM195.356 174.653L180.282 169.19L180.285 157.504L195.279 152.034L195.356 174.653Z" fill="#00E599"/>
<defs>
<linearGradient id="paint0_linear" x1="139.34" y1="32.6743" x2="139.34" y2="202.462" gradientUnits="userSpaceOnUse">
<stop stop-color="#192E49"/>
<stop offset="1" stop-color="#142436"/>
</linearGradient>
<linearGradient id="paint1_linear" x1="139.662" y1="62.6045" x2="139.662" y2="185.262" gradientUnits="userSpaceOnUse">
<stop stop-color="#192E49"/>
<stop offset="1" stop-color="#142436"/>
</linearGradient>
</defs>
</svg>
