<svg width="709" height="136" viewBox="0 0 709 136" fill="none" xmlns="http://www.w3.org/2000/svg">
<path d="M3.50071 27.5H704.499" stroke="#6BE599" stroke-linecap="round" stroke-dasharray="1 9"/>
<circle cx="493.5" cy="26.5" r="18.5" fill="#40405A"/>
<circle cx="494" cy="27" r="27" fill="white" fill-opacity="0.15"/>
<circle cx="74" cy="27" r="12.5" stroke="#00E599"/>
<circle cx="354" cy="27" r="12.5" stroke="#00E599"/>
<circle cx="494" cy="27" r="12" stroke="white" stroke-width="2" stroke-dasharray="4"/>
<circle cx="635" cy="27" r="12.5" stroke="#00E599"/>
<circle cx="4" cy="27" r="4" fill="#00E599"/>
<circle cx="74" cy="27" r="4" fill="#00E599"/>
<circle cx="144" cy="27" r="4" fill="#00E599"/>
<circle cx="214" cy="27" r="4" fill="#00E599"/>
<circle cx="284" cy="27" r="4" fill="#00E599"/>
<circle cx="354" cy="27" r="4" fill="#00E599"/>
<circle cx="424" cy="27" r="4" fill="#00E599"/>
<circle cx="494" cy="27" r="4" fill="white"/>
<circle cx="565" cy="27" r="4" fill="#00E599"/>
<circle cx="635" cy="27" r="4" fill="#00E599"/>
<circle cx="705" cy="27" r="4" fill="#00E599"/>
<path d="M494.5 30V79" stroke="white"/>
<path fill-rule="evenodd" clip-rule="evenodd" d="M517.651 134.455C517.097 135.025 516.414 135.31 515.605 135.31H475.302C474.792 135.31 474.312 135.182 473.862 134.927C473.412 134.672 473.06 134.32 472.805 133.87C472.55 133.421 472.423 132.941 472.423 132.431V96.446C472.423 95.6363 472.7 94.9541 473.255 94.3994C473.81 93.8446 474.492 93.5672 475.302 93.5672H486.817V90.6884C486.817 90.2986 486.959 89.9612 487.244 89.6763C487.529 89.3915 487.866 89.249 488.256 89.249C488.646 89.249 488.983 89.3915 489.268 89.6763C489.553 89.9612 489.696 90.2986 489.696 90.6884V93.5672H501.211V90.6884C501.211 90.2986 501.353 89.9612 501.638 89.6763C501.923 89.3915 502.26 89.249 502.65 89.249C503.04 89.249 503.377 89.3915 503.662 89.6763C503.947 89.9612 504.09 90.2986 504.09 90.6884V93.5672H515.605C516.115 93.5672 516.594 93.6947 517.044 93.9496C517.494 94.2044 517.846 94.5493 518.101 94.9841C518.356 95.4189 518.484 95.9062 518.484 96.446V132.431C518.484 133.211 518.206 133.885 517.651 134.455ZM475.302 132.431H515.605V96.446H504.09V97.8854C504.09 98.2752 503.947 98.6126 503.662 98.8975C503.377 99.1824 503.04 99.3248 502.65 99.3248C502.26 99.3248 501.923 99.1824 501.638 98.8975C501.353 98.6126 501.211 98.2752 501.211 97.8854V96.446H489.696V97.8854C489.696 98.2752 489.553 98.6126 489.268 98.8975C488.983 99.1824 488.646 99.3248 488.256 99.3248C487.866 99.3248 487.529 99.1824 487.244 98.8975C486.959 98.6126 486.817 98.2752 486.817 97.8854V96.446H475.302V132.431Z" fill="white"/>
<rect x="530" y="94" width="125" height="19" fill="white"/>
<rect x="530" y="115" width="125" height="19" fill="white"/>
<path d="M533.878 109.379V98.8194H541.798V100.595H536.086V103.219H540.582V104.915H536.086V107.603H542.022V109.379H533.878ZM545.819 109.379L549.675 98.8194H552.315L556.171 109.379H553.883L551.467 102.195L550.987 100.595H550.955L550.507 102.163L548.075 109.379H545.819ZM548.091 106.803V105.171H553.883V106.803H548.091ZM565.393 98.8194C566.588 98.8194 567.527 99.1074 568.209 99.6834C568.892 100.259 569.233 101.033 569.233 102.003C569.233 103.038 568.892 103.833 568.209 104.387C567.527 104.931 566.593 105.203 565.409 105.203L565.185 105.331H562.913V109.379H560.737V98.8194H565.393ZM565.137 103.651C565.756 103.651 566.215 103.529 566.513 103.283C566.823 103.027 566.977 102.638 566.977 102.115C566.977 101.593 566.823 101.209 566.513 100.963C566.215 100.707 565.756 100.579 565.137 100.579H562.913V103.651H565.137ZM566.433 104.115L569.857 109.379H567.377L564.545 104.755L566.433 104.115ZM576.82 107.603H582.388V109.379H574.612V98.8194H576.82V107.603ZM593.733 98.8194L589.989 105.427V109.379H587.781V105.427L584.037 98.8194H586.389L588.085 101.971L588.885 103.635L589.701 101.971L591.397 98.8194H593.733ZM605.612 109.379V98.8194H610.236C611.516 98.8194 612.46 99.0701 613.068 99.5714C613.676 100.073 613.98 100.782 613.98 101.699C613.98 102.265 613.81 102.766 613.468 103.203C613.127 103.641 612.626 103.918 611.964 104.035V104.051C612.7 104.158 613.266 104.435 613.66 104.883C614.055 105.331 614.252 105.865 614.252 106.483C614.252 107.39 613.922 108.099 613.26 108.611C612.61 109.123 611.655 109.379 610.396 109.379H605.612ZM607.756 107.715H610.204C610.802 107.715 611.244 107.593 611.532 107.347C611.82 107.102 611.964 106.761 611.964 106.323C611.964 105.875 611.82 105.534 611.532 105.299C611.244 105.065 610.802 104.947 610.204 104.947H607.756V107.715ZM607.756 103.251H609.948C611.111 103.251 611.692 102.798 611.692 101.891C611.692 100.985 611.111 100.531 609.948 100.531H607.756V103.251ZM621.57 98.8194V109.379H619.362V98.8194H621.57ZM631.971 98.8194C633.166 98.8194 634.105 99.1074 634.787 99.6834C635.47 100.259 635.811 101.033 635.811 102.003C635.811 103.038 635.47 103.833 634.787 104.387C634.105 104.931 633.171 105.203 631.987 105.203L631.763 105.331H629.491V109.379H627.315V98.8194H631.971ZM631.715 103.651C632.334 103.651 632.793 103.529 633.091 103.283C633.401 103.027 633.555 102.638 633.555 102.115C633.555 101.593 633.401 101.209 633.091 100.963C632.793 100.707 632.334 100.579 631.715 100.579H629.491V103.651H631.715ZM633.011 104.115L636.435 109.379H633.955L631.123 104.755L633.011 104.115ZM645.27 98.8194C646.924 98.8194 648.204 99.2781 649.11 100.195C650.017 101.102 650.47 102.403 650.47 104.099C650.47 105.785 650.017 107.086 649.11 108.003C648.204 108.921 646.924 109.379 645.27 109.379H641.19V98.8194H645.27ZM645.158 107.619C646.161 107.619 646.913 107.321 647.414 106.723C647.926 106.115 648.182 105.241 648.182 104.099C648.182 102.958 647.926 102.089 647.414 101.491C646.913 100.883 646.161 100.579 645.158 100.579H643.398V107.619H645.158ZM545.366 119.819V130.379H543.382V124.875L543.478 121.787H543.446L540.518 130.379H538.71L535.798 121.787H535.766L535.878 124.875V130.379H533.878V119.819H537.078L538.982 125.579L539.654 127.963H539.686L540.374 125.595L542.262 119.819H545.366ZM553.32 119.819V130.379H551.112V119.819H553.32ZM563.401 130.539C562.431 130.539 561.577 130.326 560.841 129.899C560.116 129.473 559.551 128.854 559.145 128.043C558.74 127.233 558.537 126.257 558.537 125.115C558.537 123.985 558.751 123.014 559.177 122.203C559.604 121.382 560.207 120.753 560.985 120.315C561.764 119.878 562.676 119.659 563.721 119.659C564.863 119.659 565.785 119.873 566.489 120.299C567.193 120.715 567.753 121.366 568.169 122.251L566.121 123.131C565.951 122.566 565.657 122.15 565.241 121.883C564.836 121.606 564.335 121.467 563.737 121.467C563.14 121.467 562.623 121.611 562.185 121.899C561.748 122.177 561.412 122.587 561.177 123.131C560.943 123.665 560.825 124.321 560.825 125.099C560.825 125.899 560.937 126.577 561.161 127.131C561.385 127.675 561.716 128.086 562.153 128.363C562.601 128.63 563.151 128.763 563.801 128.763C564.153 128.763 564.479 128.721 564.777 128.635C565.087 128.55 565.353 128.422 565.577 128.251C565.801 128.081 565.977 127.862 566.105 127.595C566.233 127.329 566.297 127.019 566.297 126.667V126.427H563.529V124.811H568.201V130.379H566.649L566.489 128.075L566.873 128.347C566.639 129.051 566.223 129.595 565.625 129.979C565.039 130.353 564.297 130.539 563.401 130.539ZM578.284 119.819C579.479 119.819 580.417 120.107 581.1 120.683C581.783 121.259 582.124 122.033 582.124 123.003C582.124 124.038 581.783 124.833 581.1 125.387C580.417 125.931 579.484 126.203 578.3 126.203L578.076 126.331H575.804V130.379H573.628V119.819H578.284ZM578.028 124.651C578.647 124.651 579.105 124.529 579.404 124.283C579.713 124.027 579.868 123.638 579.868 123.115C579.868 122.593 579.713 122.209 579.404 121.963C579.105 121.707 578.647 121.579 578.028 121.579H575.804V124.651H578.028ZM579.324 125.115L582.748 130.379H580.268L577.436 125.755L579.324 125.115ZM586.319 130.379L590.175 119.819H592.815L596.671 130.379H594.383L591.967 123.195L591.487 121.595H591.455L591.007 123.163L588.575 130.379H586.319ZM588.591 127.803V126.171H594.383V127.803H588.591ZM608.23 119.819V121.595H604.694V130.379H602.486V121.595H598.934V119.819H608.23ZM615.242 119.819V130.379H613.034V119.819H615.242ZM625.547 119.659C626.593 119.659 627.494 119.878 628.251 120.315C629.009 120.753 629.59 121.377 629.995 122.187C630.411 122.998 630.619 123.969 630.619 125.099C630.619 126.23 630.411 127.201 629.995 128.011C629.59 128.822 629.009 129.446 628.251 129.883C627.494 130.321 626.593 130.539 625.547 130.539C624.502 130.539 623.595 130.321 622.827 129.883C622.07 129.446 621.483 128.822 621.067 128.011C620.662 127.201 620.459 126.23 620.459 125.099C620.459 123.969 620.662 122.998 621.067 122.187C621.483 121.377 622.07 120.753 622.827 120.315C623.595 119.878 624.502 119.659 625.547 119.659ZM625.547 121.467C624.961 121.467 624.454 121.606 624.027 121.883C623.611 122.161 623.291 122.571 623.067 123.115C622.854 123.659 622.747 124.321 622.747 125.099C622.747 125.878 622.854 126.539 623.067 127.083C623.291 127.627 623.611 128.038 624.027 128.315C624.454 128.593 624.961 128.731 625.547 128.731C626.134 128.731 626.635 128.593 627.051 128.315C627.467 128.038 627.782 127.627 627.995 127.083C628.219 126.539 628.331 125.878 628.331 125.099C628.331 124.321 628.219 123.659 627.995 123.115C627.782 122.571 627.467 122.161 627.051 121.883C626.635 121.606 626.134 121.467 625.547 121.467ZM644.919 119.819V130.379H642.391L638.695 124.171L637.783 122.443H637.767L637.831 124.267V130.379H635.847V119.819H638.359L642.055 126.011L642.967 127.755H642.999L642.935 125.931V119.819H644.919Z" fill="#000023"/>
<path d="M483.044 110L485.596 102.74H487.862L490.403 110H488.456L487.961 108.361H485.453L484.947 110H483.044ZM486.399 105.325L485.849 107.074H487.565L487.037 105.336L486.718 104.192H486.696L486.399 105.325ZM497.294 102.74V107.041C497.294 109.087 496.212 110.11 494.049 110.11C492.985 110.11 492.179 109.857 491.629 109.351C491.079 108.838 490.804 108.068 490.804 107.041V102.74H492.707V107.074C492.707 108.108 493.154 108.625 494.049 108.625C494.951 108.625 495.402 108.108 495.402 107.074V102.74H497.294ZM501.759 110.11C501.114 110.11 500.538 109.967 500.032 109.681C499.533 109.395 499.145 108.973 498.866 108.416C498.587 107.859 498.448 107.18 498.448 106.381C498.448 105.604 498.595 104.936 498.888 104.379C499.181 103.814 499.599 103.382 500.142 103.081C500.692 102.78 501.337 102.63 502.078 102.63C502.907 102.63 503.57 102.78 504.069 103.081C504.575 103.374 504.967 103.844 505.246 104.489L503.497 105.182C503.402 104.808 503.233 104.537 502.991 104.368C502.749 104.199 502.448 104.115 502.089 104.115C501.546 104.115 501.125 104.309 500.824 104.698C500.531 105.079 500.384 105.637 500.384 106.37C500.384 107.147 500.534 107.727 500.835 108.108C501.136 108.482 501.587 108.669 502.188 108.669C502.606 108.669 502.954 108.57 503.233 108.372C503.512 108.174 503.651 107.87 503.651 107.459V107.349H501.99V106.084H505.257V110H503.97L503.893 109.109C503.688 109.432 503.405 109.681 503.046 109.857C502.694 110.026 502.265 110.11 501.759 110.11Z" fill="white"/>
<path d="M494.567 114.27C496.29 114.27 497.594 114.821 498.481 115.923C499.368 117.012 499.811 118.602 499.811 120.692C499.811 122.199 499.583 123.434 499.127 124.397C498.684 125.36 498.069 126.069 497.284 126.525C496.499 126.968 495.593 127.19 494.567 127.19C493.478 127.19 492.528 126.975 491.717 126.544C490.919 126.101 490.324 125.404 489.931 124.454L492.857 123.295C492.958 123.738 493.148 124.087 493.427 124.34C493.718 124.593 494.117 124.72 494.624 124.72C495.422 124.72 495.998 124.416 496.353 123.808C496.72 123.187 496.904 122.307 496.904 121.167V120.863H496.847C496.632 121.433 496.233 121.851 495.65 122.117C495.08 122.383 494.472 122.516 493.826 122.516C493.028 122.516 492.325 122.358 491.717 122.041C491.109 121.712 490.634 121.256 490.292 120.673C489.95 120.09 489.779 119.4 489.779 118.602C489.779 117.703 489.975 116.93 490.368 116.284C490.773 115.638 491.331 115.144 492.04 114.802C492.762 114.447 493.604 114.27 494.567 114.27ZM494.567 116.778C494.01 116.778 493.573 116.93 493.256 117.234C492.939 117.538 492.781 117.969 492.781 118.526C492.781 119.033 492.946 119.432 493.275 119.723C493.604 120.002 494.035 120.141 494.567 120.141C495.074 120.141 495.498 119.989 495.84 119.685C496.182 119.381 496.353 118.976 496.353 118.469C496.353 117.95 496.182 117.538 495.84 117.234C495.498 116.93 495.074 116.778 494.567 116.778Z" fill="white"/>
</svg>
