<svg width="260" height="1006" viewBox="0 0 260 1006" fill="none" xmlns="http://www.w3.org/2000/svg">
<g opacity="0.132557">
<path d="M159.637 94.0801L246.514 144.27V244.65L159.637 294.839L72.7606 244.65V144.27L159.637 94.0801Z" fill="url(#paint0_linear)"/>
<path d="M159.637 94.0801L246.514 144.27V244.65L159.637 294.839L72.7606 244.65V144.27L159.637 94.0801Z" fill="#00E599"/>
</g>
<path d="M158.923 121.943L221.685 158.201V230.718L158.923 266.976L96.1619 230.718V158.201L158.923 121.943Z" fill="url(#paint1_linear)"/>
<path d="M158.923 121.943L221.685 158.201V230.718L158.923 266.976L96.1619 230.718V158.201L158.923 121.943Z" fill="#010129"/>
<path d="M158.923 121.943L221.685 158.201V230.718L158.923 266.976L96.1619 230.718V158.201L158.923 121.943Z" stroke="#00E599" stroke-width="0.714"/>
<path fill-rule="evenodd" clip-rule="evenodd" d="M158.266 181.603C158.517 181.461 158.824 181.461 159.075 181.603L168.607 186.999C168.865 187.145 169.024 187.418 169.024 187.714V198.479C169.024 198.775 168.865 199.048 168.607 199.194L159.075 204.59C158.824 204.732 158.517 204.732 158.266 204.59L148.734 199.194C148.476 199.048 148.317 198.775 148.317 198.479V187.714C148.317 187.418 148.476 187.145 148.734 186.999L158.266 181.603Z" stroke="#00E599" stroke-width="0.714" stroke-dasharray="1.43"/>
<path d="M158.67 204.331V193.097" stroke="#00E599" stroke-width="0.714" stroke-linecap="round" stroke-dasharray="1.43"/>
<path d="M148.179 187.724L158.426 193.096" stroke="#00E599" stroke-width="0.714" stroke-linecap="round" stroke-dasharray="1.43"/>
<path d="M168.674 187.724L158.427 193.096" stroke="#00E599" stroke-width="0.714" stroke-linecap="round" stroke-dasharray="1.43"/>
<path fill-rule="evenodd" clip-rule="evenodd" d="M122.279 181.603C122.53 181.461 122.837 181.461 123.088 181.603L132.62 186.999C132.878 187.145 133.037 187.418 133.037 187.714V198.479C133.037 198.775 132.878 199.048 132.62 199.194L123.088 204.59C122.837 204.732 122.53 204.732 122.279 204.59L112.747 199.194C112.489 199.048 112.33 198.775 112.33 198.479V187.714C112.33 187.418 112.489 187.145 112.747 186.999L122.279 181.603Z" stroke="#00E599" stroke-width="0.714" stroke-dasharray="1.43"/>
<path d="M122.684 204.331V193.097" stroke="#00E599" stroke-width="0.714" stroke-linecap="round" stroke-dasharray="1.43"/>
<path d="M112.192 187.724L122.44 193.096" stroke="#00E599" stroke-width="0.714" stroke-linecap="round" stroke-dasharray="1.43"/>
<path d="M132.687 187.724L122.44 193.096" stroke="#00E599" stroke-width="0.714" stroke-linecap="round" stroke-dasharray="1.43"/>
<path fill-rule="evenodd" clip-rule="evenodd" d="M158.646 146.464C158.897 146.321 159.205 146.321 159.456 146.464L168.987 151.86C169.245 152.005 169.404 152.279 169.404 152.575V163.339C169.404 163.635 169.245 163.908 168.987 164.054L159.456 169.45C159.205 169.592 158.897 169.592 158.646 169.45L149.114 164.054C148.857 163.908 148.698 163.635 148.698 163.339V152.575C148.698 152.279 148.857 152.005 149.114 151.86L158.646 146.464Z" stroke="#00E599" stroke-width="0.714" stroke-dasharray="1.43"/>
<path d="M159.051 169.191V157.957" stroke="#00E599" stroke-width="0.714" stroke-linecap="round" stroke-dasharray="1.43"/>
<path d="M148.56 152.584L158.807 157.957" stroke="#00E599" stroke-width="0.714" stroke-linecap="round" stroke-dasharray="1.43"/>
<path d="M169.054 152.584L158.807 157.957" stroke="#00E599" stroke-width="0.714" stroke-linecap="round" stroke-dasharray="1.43"/>
<path fill-rule="evenodd" clip-rule="evenodd" d="M195.472 181.603C195.724 181.461 196.031 181.461 196.282 181.603L205.814 186.999C206.071 187.145 206.231 187.418 206.231 187.714V198.479C206.231 198.775 206.071 199.048 205.814 199.194L196.282 204.59C196.031 204.732 195.724 204.732 195.472 204.59L185.941 199.194C185.683 199.048 185.524 198.775 185.524 198.479V187.714C185.524 187.418 185.683 187.145 185.941 186.999L195.472 181.603Z" stroke="#00E599" stroke-width="0.714" stroke-dasharray="1.43"/>
<path d="M195.877 204.331V193.097" stroke="#00E599" stroke-width="0.714" stroke-linecap="round" stroke-dasharray="1.43"/>
<path d="M185.386 187.724L195.633 193.096" stroke="#00E599" stroke-width="0.714" stroke-linecap="round" stroke-dasharray="1.43"/>
<path d="M205.88 187.724L195.633 193.096" stroke="#00E599" stroke-width="0.714" stroke-linecap="round" stroke-dasharray="1.43"/>
<path d="M185.142 194.196H169.284" stroke="#6BE599" stroke-width="0.714" stroke-linecap="square" stroke-dasharray="1.43"/>
<path d="M158.748 180.891L158.748 170.618" stroke="#6BE599" stroke-width="0.714" stroke-linecap="square" stroke-dasharray="1.43"/>
<path fill-rule="evenodd" clip-rule="evenodd" d="M158.646 215.765C158.897 215.623 159.205 215.623 159.456 215.765L168.987 221.161C169.245 221.307 169.404 221.58 169.404 221.876V232.64C169.404 232.936 169.245 233.21 168.987 233.355L159.456 238.752C159.205 238.894 158.897 238.894 158.646 238.752L149.114 233.355C148.857 233.21 148.698 232.936 148.698 232.64V221.876C148.698 221.58 148.857 221.307 149.114 221.161L158.646 215.765Z" stroke="#00E599" stroke-width="0.714" stroke-dasharray="1.43"/>
<path d="M159.051 238.492V227.258" stroke="#00E599" stroke-width="0.714" stroke-linecap="round" stroke-dasharray="1.43"/>
<path d="M148.56 221.886L158.807 227.259" stroke="#00E599" stroke-width="0.714" stroke-linecap="round" stroke-dasharray="1.43"/>
<path d="M169.054 221.886L158.807 227.259" stroke="#00E599" stroke-width="0.714" stroke-linecap="round" stroke-dasharray="1.43"/>
<path d="M158.748 215.899L158.748 205.626" stroke="#6BE599" stroke-width="0.714" stroke-linecap="square" stroke-dasharray="1.43"/>
<path d="M146.9 194.195L133.766 194.002" stroke="#6BE599" stroke-width="0.714" stroke-linecap="square" stroke-dasharray="1.43"/>
<g opacity="0.132557">
<path d="M159.637 393.08L246.514 443.27V543.65L159.637 593.839L72.7606 543.65V443.27L159.637 393.08Z" fill="url(#paint2_linear)"/>
<path d="M159.637 393.08L246.514 443.27V543.65L159.637 593.839L72.7606 543.65V443.27L159.637 393.08Z" fill="#00E599"/>
</g>
<path d="M159.637 420.943L222.399 457.201V529.718L159.637 565.976L96.8759 529.718V457.201L159.637 420.943Z" fill="url(#paint3_linear)"/>
<path d="M159.637 420.943L222.399 457.201V529.718L159.637 565.976L96.8759 529.718V457.201L159.637 420.943Z" fill="#010129"/>
<path d="M159.637 420.943L222.399 457.201V529.718L159.637 565.976L96.8759 529.718V457.201L159.637 420.943Z" stroke="#00E599" stroke-width="0.714"/>
<path fill-rule="evenodd" clip-rule="evenodd" d="M158.266 480.603C158.517 480.461 158.824 480.461 159.075 480.603L168.607 485.999C168.865 486.145 169.024 486.418 169.024 486.714V497.479C169.024 497.775 168.865 498.048 168.607 498.194L159.075 503.59C158.824 503.732 158.517 503.732 158.266 503.59L148.734 498.194C148.476 498.048 148.317 497.775 148.317 497.479V486.714C148.317 486.418 148.476 486.145 148.734 485.999L158.266 480.603Z" stroke="#00E599" stroke-width="1.071"/>
<path d="M158.67 503.331V492.097" stroke="#00E599" stroke-width="1.071" stroke-linecap="round"/>
<path d="M148.179 486.724L158.426 492.096" stroke="#00E599" stroke-width="1.071" stroke-linecap="round"/>
<path d="M168.674 486.724L158.427 492.096" stroke="#00E599" stroke-width="1.071" stroke-linecap="round"/>
<path fill-rule="evenodd" clip-rule="evenodd" d="M122.279 480.603C122.53 480.461 122.837 480.461 123.088 480.603L132.62 485.999C132.878 486.145 133.037 486.418 133.037 486.714V497.479C133.037 497.775 132.878 498.048 132.62 498.194L123.088 503.59C122.837 503.732 122.53 503.732 122.279 503.59L112.747 498.194C112.489 498.048 112.33 497.775 112.33 497.479V486.714C112.33 486.418 112.489 486.145 112.747 485.999L122.279 480.603Z" stroke="#00E599" stroke-width="1.071"/>
<path d="M122.684 503.331V492.097" stroke="#00E599" stroke-width="1.071" stroke-linecap="round"/>
<path d="M112.192 486.724L122.44 492.096" stroke="#00E599" stroke-width="1.071" stroke-linecap="round"/>
<path d="M132.687 486.724L122.44 492.096" stroke="#00E599" stroke-width="1.071" stroke-linecap="round"/>
<path fill-rule="evenodd" clip-rule="evenodd" d="M158.646 445.464C158.897 445.321 159.205 445.321 159.456 445.464L168.987 450.86C169.245 451.005 169.404 451.279 169.404 451.575V462.339C169.404 462.635 169.245 462.908 168.987 463.054L159.456 468.45C159.205 468.592 158.897 468.592 158.646 468.45L149.114 463.054C148.857 462.908 148.698 462.635 148.698 462.339V451.575C148.698 451.279 148.857 451.005 149.114 450.86L158.646 445.464Z" stroke="#00E599" stroke-width="1.071"/>
<path d="M159.051 468.191V456.957" stroke="#00E599" stroke-width="1.071" stroke-linecap="round"/>
<path d="M148.56 451.584L158.807 456.957" stroke="#00E599" stroke-width="1.071" stroke-linecap="round"/>
<path d="M169.054 451.584L158.807 456.957" stroke="#00E599" stroke-width="1.071" stroke-linecap="round"/>
<path fill-rule="evenodd" clip-rule="evenodd" d="M195.472 480.603C195.724 480.461 196.031 480.461 196.282 480.603L205.814 485.999C206.071 486.145 206.231 486.418 206.231 486.714V497.479C206.231 497.775 206.071 498.048 205.814 498.194L196.282 503.59C196.031 503.732 195.724 503.732 195.472 503.59L185.941 498.194C185.683 498.048 185.524 497.775 185.524 497.479V486.714C185.524 486.418 185.683 486.145 185.941 485.999L195.472 480.603Z" stroke="#00E599" stroke-width="1.071"/>
<path d="M195.877 503.331V492.097" stroke="#00E599" stroke-width="1.071" stroke-linecap="round"/>
<path d="M185.386 486.724L195.633 492.096" stroke="#00E599" stroke-width="1.071" stroke-linecap="round"/>
<path d="M205.88 486.724L195.633 492.096" stroke="#00E599" stroke-width="1.071" stroke-linecap="round"/>
<path d="M185.142 493.196H169.284" stroke="#6BE599" stroke-width="1.071" stroke-linecap="square"/>
<path d="M158.748 479.891L158.748 469.618" stroke="#6BE599" stroke-width="1.071" stroke-linecap="square"/>
<path fill-rule="evenodd" clip-rule="evenodd" d="M158.646 514.765C158.897 514.623 159.205 514.623 159.456 514.765L168.987 520.161C169.245 520.307 169.404 520.58 169.404 520.876V531.64C169.404 531.936 169.245 532.21 168.987 532.355L159.456 537.752C159.205 537.894 158.897 537.894 158.646 537.752L149.114 532.355C148.857 532.21 148.698 531.936 148.698 531.64V520.876C148.698 520.58 148.857 520.307 149.114 520.161L158.646 514.765Z" stroke="#00E599" stroke-width="1.071"/>
<path d="M159.051 537.492V526.258" stroke="#00E599" stroke-width="1.071" stroke-linecap="round"/>
<path d="M148.56 520.886L158.807 526.259" stroke="#00E599" stroke-width="1.071" stroke-linecap="round"/>
<path d="M169.054 520.886L158.807 526.259" stroke="#00E599" stroke-width="1.071" stroke-linecap="round"/>
<path d="M158.748 514.899L158.748 504.626" stroke="#6BE599" stroke-width="1.071" stroke-linecap="square"/>
<path d="M146.9 493.195L133.766 493.002" stroke="#6BE599" stroke-width="1.071" stroke-linecap="square"/>
<g opacity="0.132557">
<path d="M159.637 792.08L246.514 842.27V942.65L159.637 992.839L72.7606 942.65V842.27L159.637 792.08Z" fill="url(#paint4_linear)"/>
<path d="M159.637 792.08L246.514 842.27V942.65L159.637 992.839L72.7606 942.65V842.27L159.637 792.08Z" fill="#00E599"/>
</g>
<path d="M159.637 819.943L222.399 856.201V928.718L159.637 964.976L96.8759 928.718V856.201L159.637 819.943Z" fill="url(#paint5_linear)"/>
<path d="M159.637 819.943L222.399 856.201V928.718L159.637 964.976L96.8759 928.718V856.201L159.637 819.943Z" fill="#010129"/>
<path d="M159.637 819.943L222.399 856.201V928.718L159.637 964.976L96.8759 928.718V856.201L159.637 819.943Z" stroke="#00E599" stroke-width="0.714"/>
<path d="M157.416 881.298L163.128 875.582L157.416 869.867L156.068 871.216L160.455 875.582L156.068 879.949L157.416 881.298Z" fill="#00E599"/>
<path d="M157.416 913.448L163.128 907.733L157.416 902.017L156.068 903.366L160.455 907.733L156.068 912.099L157.416 913.448Z" fill="#00E599"/>
<path d="M117.869 866.91V885.319L129.645 889.606V871.036L142.347 866.291L130.818 862.096L117.869 866.91V866.91Z" fill="#00E599"/>
<path d="M130.486 871.699V881.707L142.347 886.006V867.238L130.486 871.699V871.699Z" fill="#00AF92"/>
<path fill-rule="evenodd" clip-rule="evenodd" d="M130.944 922.824L117.811 918.188V900.063L130.978 895.313L142.793 899.473L142.858 918.582L130.944 914.246V922.824ZM118.986 917.304L129.66 921.092V903.721L140.315 899.796L130.918 896.468L118.985 900.796L118.986 917.304ZM141.684 916.86L130.922 912.957L130.924 904.608L141.63 900.7L141.684 916.86Z" fill="#00E599"/>
<path d="M174.988 866.91V885.319L186.765 889.606V871.036L199.467 866.291L187.938 862.096L174.988 866.91V866.91Z" fill="#00E599"/>
<path d="M187.606 871.699V881.707L199.467 886.006V867.238L187.606 871.699V871.699Z" fill="#00AF92"/>
<path fill-rule="evenodd" clip-rule="evenodd" d="M188.064 922.824L174.93 918.188V900.063L188.098 895.313L199.913 899.473L199.978 918.582L188.064 914.246V922.824ZM176.105 917.304L186.78 921.092V903.721L197.434 899.796L188.037 896.468L176.105 900.796L176.105 917.304ZM198.804 916.86L188.041 912.957L188.044 904.608L198.749 900.7L198.804 916.86Z" fill="#00E599"/>
<path d="M28.3078 61.7607C23.3752 61.7607 19.377 57.7646 19.377 52.8357C19.377 47.9068 23.3752 43.9107 28.3078 43.9107C33.2403 43.9107 37.2386 47.9068 37.2386 52.8357C37.2386 57.7646 33.2403 61.7607 28.3078 61.7607Z" stroke="#00E599" stroke-width="0.714"/>
<path d="M28.3078 761.68C23.3752 761.68 19.377 757.684 19.377 752.755C19.377 747.826 23.3752 743.83 28.3078 743.83C33.2403 743.83 37.2386 747.826 37.2386 752.755C37.2386 757.684 33.2403 761.68 28.3078 761.68Z" stroke="#00E599" stroke-width="0.714"/>
<path d="M32.5242 660.988C31.6709 661.423 30.7413 661.73 29.7608 661.884L29.65 661.179C29.2131 661.247 28.7649 661.283 28.3078 661.283V661.997C27.8135 661.997 27.3282 661.958 26.8548 661.884L26.9656 661.179C26.0608 661.037 25.2032 660.753 24.4158 660.352L24.0913 660.988C23.2194 660.543 22.427 659.964 21.7414 659.279L22.246 658.774C21.6125 658.141 21.0779 657.41 20.6669 656.606L20.0311 656.931C19.5951 656.078 19.2873 655.148 19.1331 654.168L19.8384 654.057C19.7697 653.62 19.734 653.172 19.734 652.715H19.02C19.02 652.221 19.0587 651.736 19.1331 651.262L19.8384 651.373C19.9807 650.469 20.2646 649.611 20.6669 648.824L20.0311 648.499C20.4764 647.628 21.0555 646.836 21.7414 646.151L22.246 646.656C22.8793 646.023 23.611 645.489 24.4158 645.079L24.0913 644.442C24.9447 644.007 25.8743 643.7 26.8548 643.546L26.9656 644.251C27.4025 644.183 27.8507 644.147 28.3078 644.147V643.433C28.8021 643.433 29.2874 643.472 29.7608 643.546L29.65 644.251C30.5548 644.393 31.4124 644.677 32.1998 645.079L32.5242 644.442C33.3962 644.887 34.1885 645.466 34.8742 646.151L34.3696 646.656C35.0031 647.289 35.5377 648.02 35.9487 648.824L36.5845 648.499C37.0205 649.352 37.3282 650.282 37.4825 651.262L36.7771 651.373C36.8458 651.81 36.8816 652.258 36.8816 652.715H37.5956C37.5956 653.209 37.5569 653.695 37.4825 654.168L36.7771 654.057C36.6348 654.962 36.3509 655.819 35.9487 656.606L36.5845 656.931C36.1391 657.802 35.56 658.594 34.8742 659.279L34.3696 658.774C33.7362 659.407 33.0046 659.941 32.1998 660.352L32.5242 660.988Z" stroke="white" stroke-width="1.428" stroke-dasharray="2.86"/>
<path d="M28.3078 361.6C23.3752 361.6 19.377 357.603 19.377 352.675C19.377 347.746 23.3752 343.75 28.3078 343.75C33.2403 343.75 37.2386 347.746 37.2386 352.675C37.2386 357.603 33.2403 361.6 28.3078 361.6Z" stroke="#00E599" stroke-width="0.714"/>
<ellipse cx="28.3077" cy="2.85599" rx="2.85599" ry="2.85778" transform="rotate(90 28.3077 2.85599)" fill="#00E599"/>
<ellipse cx="28.3077" cy="52.836" rx="2.85599" ry="2.85778" transform="rotate(90 28.3077 52.836)" fill="#00E599"/>
<ellipse cx="28.3077" cy="102.816" rx="2.85599" ry="2.85778" transform="rotate(90 28.3077 102.816)" fill="#00E599"/>
<ellipse cx="28.3077" cy="152.795" rx="2.85599" ry="2.85778" transform="rotate(90 28.3077 152.795)" fill="#00E599"/>
<ellipse cx="28.3077" cy="202.775" rx="2.85599" ry="2.85778" transform="rotate(90 28.3077 202.775)" fill="#00E599"/>
<ellipse cx="28.3077" cy="252.755" rx="2.85599" ry="2.85778" transform="rotate(90 28.3077 252.755)" fill="#00E599"/>
<ellipse cx="28.3077" cy="302.735" rx="2.85599" ry="2.85778" transform="rotate(90 28.3077 302.735)" fill="#00E599"/>
<ellipse cx="28.3077" cy="352.715" rx="2.85599" ry="2.85778" transform="rotate(90 28.3077 352.715)" fill="#00E599"/>
<ellipse cx="28.3077" cy="402.695" rx="2.85599" ry="2.85778" transform="rotate(90 28.3077 402.695)" fill="#00E599"/>
<ellipse cx="28.3077" cy="452.675" rx="2.85599" ry="2.85778" transform="rotate(90 28.3077 452.675)" fill="#00E599"/>
<ellipse cx="28.3077" cy="502.655" rx="2.85599" ry="2.85778" transform="rotate(90 28.3077 502.655)" fill="#00E599"/>
<path d="M27.9505 2.49909L27.8207 1003.58" stroke="#6BE599" stroke-width="0.714" stroke-linecap="round" stroke-dasharray="0.71 6.43"/>
<path d="M85.8207 353.58H31.8207" stroke="#00E599" stroke-width="0.714"/>
<path d="M58.8207 53.5799L31.8207 53.5799" stroke="#00E599" stroke-width="0.714"/>
<path d="M58.8207 752.58H31.8207" stroke="#00E599" stroke-width="0.714"/>
<circle cx="28.3207" cy="653.08" r="20" fill="white" fill-opacity="0.15"/>
<circle cx="28.3207" cy="653.08" r="14" fill="#40405A"/>
<path d="M85.8207 652.58H31.8207" stroke="white" stroke-width="0.714"/>
<ellipse cx="28.2071" cy="1002.76" rx="2.85599" ry="2.85778" transform="rotate(-180 28.2071 1002.76)" fill="#00E599"/>
<ellipse cx="28.2071" cy="952.776" rx="2.85599" ry="2.85778" transform="rotate(-180 28.2071 952.776)" fill="#00E599"/>
<ellipse cx="28.2071" cy="902.796" rx="2.85599" ry="2.85778" transform="rotate(-180 28.2071 902.796)" fill="#00E599"/>
<ellipse cx="28.2071" cy="852.816" rx="2.85599" ry="2.85778" transform="rotate(-180 28.2071 852.816)" fill="#00E599"/>
<ellipse cx="28.2071" cy="802.836" rx="2.85599" ry="2.85778" transform="rotate(-180 28.2071 802.836)" fill="#00E599"/>
<ellipse cx="28.2071" cy="752.856" rx="2.85599" ry="2.85778" transform="rotate(-180 28.2071 752.856)" fill="#00E599"/>
<ellipse cx="28.2071" cy="702.876" rx="2.85599" ry="2.85778" transform="rotate(-180 28.2071 702.876)" fill="#00E599"/>
<ellipse cx="28.1768" cy="652.938" rx="2.85599" ry="2.85778" transform="rotate(-180 28.1768 652.938)" fill="white"/>
<ellipse cx="28.2071" cy="602.917" rx="2.85599" ry="2.85778" transform="rotate(-180 28.2071 602.917)" fill="#00E599"/>
<ellipse cx="28.2071" cy="552.937" rx="2.85599" ry="2.85778" transform="rotate(-180 28.2071 552.937)" fill="#00E599"/>
<ellipse cx="28.2071" cy="502.957" rx="2.85599" ry="2.85778" transform="rotate(-180 28.2071 502.957)" fill="#00E599"/>
<g clip-path="url(#clip0)">
<path d="M132.321 640.612H226.321V653.612H132.321V640.612Z" fill="white"/>
<path d="M132.321 655.612H226.321V668.612H132.321V655.612Z" fill="white"/>
<path d="M103.143 651.031H104.559L102.711 645.751H101.063L99.2067 651.031H100.591L100.959 649.839H102.783L103.143 651.031ZM101.255 648.903L101.647 647.631L101.863 646.807H101.879L102.111 647.639L102.495 648.903H101.255ZM109.578 645.751H108.21V648.903C108.21 649.663 107.882 650.031 107.218 650.031C106.562 650.031 106.242 649.663 106.242 648.903V645.751H104.858V648.879C104.858 650.367 105.666 651.111 107.218 651.111C108.778 651.111 109.578 650.367 109.578 648.879V645.751ZM112.913 648.175V649.103H114.225V649.183C114.225 649.775 113.761 650.055 113.137 650.055C112.281 650.055 111.841 649.519 111.841 648.391C111.841 647.303 112.297 646.751 113.097 646.751C113.601 646.751 113.977 646.991 114.113 647.527L115.385 647.023C114.961 646.071 114.257 645.671 113.057 645.671C111.433 645.671 110.425 646.695 110.425 648.399C110.425 650.151 111.457 651.111 112.881 651.111C113.609 651.111 114.105 650.855 114.393 650.415L114.433 651.031H115.393V648.175H112.913Z" fill="white"/>
<path d="M135.193 650.742V642.822H141.133V644.154H136.849V646.122H140.221V647.394H136.849V649.41H141.301V650.742H135.193ZM144.148 650.742L147.04 642.822H149.02L151.912 650.742H150.196L148.384 645.354L148.024 644.154H148L147.664 645.33L145.84 650.742H144.148ZM145.852 648.81V647.586H150.196V648.81H145.852ZM158.829 642.822C159.725 642.822 160.429 643.038 160.941 643.47C161.453 643.902 161.709 644.482 161.709 645.21C161.709 645.986 161.453 646.582 160.941 646.998C160.429 647.406 159.729 647.61 158.841 647.61L158.673 647.706H156.969V650.742H155.337V642.822H158.829ZM158.637 646.446C159.101 646.446 159.445 646.354 159.669 646.17C159.901 645.978 160.017 645.686 160.017 645.294C160.017 644.902 159.901 644.614 159.669 644.43C159.445 644.238 159.101 644.142 158.637 644.142H156.969V646.446H158.637ZM159.609 646.794L162.177 650.742H160.317L158.193 647.274L159.609 646.794ZM167.399 649.41H171.575V650.742H165.743V642.822H167.399V649.41ZM180.084 642.822L177.276 647.778V650.742H175.62V647.778L172.812 642.822H174.576L175.848 645.186L176.448 646.434L177.06 645.186L178.332 642.822H180.084ZM188.993 650.742V642.822H192.461C193.421 642.822 194.129 643.01 194.585 643.386C195.041 643.762 195.269 644.294 195.269 644.982C195.269 645.406 195.141 645.782 194.885 646.11C194.629 646.438 194.253 646.646 193.757 646.734V646.746C194.309 646.826 194.733 647.034 195.029 647.37C195.325 647.706 195.473 648.106 195.473 648.57C195.473 649.25 195.225 649.782 194.729 650.166C194.241 650.55 193.525 650.742 192.581 650.742H188.993ZM190.601 649.494H192.437C192.885 649.494 193.217 649.402 193.433 649.218C193.649 649.034 193.757 648.778 193.757 648.45C193.757 648.114 193.649 647.858 193.433 647.682C193.217 647.506 192.885 647.418 192.437 647.418H190.601V649.494ZM190.601 646.146H192.245C193.117 646.146 193.553 645.806 193.553 645.126C193.553 644.446 193.117 644.106 192.245 644.106H190.601V646.146ZM200.962 642.822V650.742H199.306V642.822H200.962ZM208.763 642.822C209.659 642.822 210.363 643.038 210.875 643.47C211.387 643.902 211.643 644.482 211.643 645.21C211.643 645.986 211.387 646.582 210.875 646.998C210.363 647.406 209.663 647.61 208.775 647.61L208.607 647.706H206.903V650.742H205.271V642.822H208.763ZM208.571 646.446C209.035 646.446 209.379 646.354 209.603 646.17C209.835 645.978 209.951 645.686 209.951 645.294C209.951 644.902 209.835 644.614 209.603 644.43C209.379 644.238 209.035 644.142 208.571 644.142H206.903V646.446H208.571ZM209.543 646.794L212.111 650.742H210.251L208.127 647.274L209.543 646.794ZM218.737 642.822C219.977 642.822 220.937 643.166 221.617 643.854C222.297 644.534 222.637 645.51 222.637 646.782C222.637 648.046 222.297 649.022 221.617 649.71C220.937 650.398 219.977 650.742 218.737 650.742H215.677V642.822H218.737ZM218.653 649.422C219.405 649.422 219.969 649.198 220.345 648.75C220.729 648.294 220.921 647.638 220.921 646.782C220.921 645.926 220.729 645.274 220.345 644.826C219.969 644.37 219.405 644.142 218.653 644.142H217.333V649.422H218.653ZM143.809 657.822V665.742H142.321V661.614L142.393 659.298H142.369L140.173 665.742H138.817L136.633 659.298H136.609L136.693 661.614V665.742H135.193V657.822H137.593L139.021 662.142L139.525 663.93H139.549L140.065 662.154L141.481 657.822H143.809ZM149.774 657.822V665.742H148.118V657.822H149.774ZM157.335 665.862C156.607 665.862 155.967 665.702 155.415 665.382C154.871 665.062 154.447 664.598 154.143 663.99C153.839 663.382 153.687 662.65 153.687 661.794C153.687 660.946 153.847 660.218 154.167 659.61C154.487 658.994 154.939 658.522 155.523 658.194C156.107 657.866 156.791 657.702 157.575 657.702C158.431 657.702 159.123 657.862 159.651 658.182C160.179 658.494 160.599 658.982 160.911 659.646L159.375 660.306C159.247 659.882 159.027 659.57 158.715 659.37C158.411 659.162 158.035 659.058 157.587 659.058C157.139 659.058 156.751 659.166 156.423 659.382C156.095 659.59 155.843 659.898 155.667 660.306C155.491 660.706 155.403 661.198 155.403 661.782C155.403 662.382 155.487 662.89 155.655 663.306C155.823 663.714 156.071 664.022 156.399 664.23C156.735 664.43 157.147 664.53 157.635 664.53C157.899 664.53 158.143 664.498 158.367 664.434C158.599 664.37 158.799 664.274 158.967 664.146C159.135 664.018 159.267 663.854 159.363 663.654C159.459 663.454 159.507 663.222 159.507 662.958V662.778H157.431V661.566H160.935V665.742H159.771L159.651 664.014L159.939 664.218C159.763 664.746 159.451 665.154 159.003 665.442C158.563 665.722 158.007 665.862 157.335 665.862ZM168.497 657.822C169.393 657.822 170.097 658.038 170.609 658.47C171.121 658.902 171.377 659.482 171.377 660.21C171.377 660.986 171.121 661.582 170.609 661.998C170.097 662.406 169.397 662.61 168.509 662.61L168.341 662.706H166.637V665.742H165.005V657.822H168.497ZM168.305 661.446C168.769 661.446 169.113 661.354 169.337 661.17C169.569 660.978 169.685 660.686 169.685 660.294C169.685 659.902 169.569 659.614 169.337 659.43C169.113 659.238 168.769 659.142 168.305 659.142H166.637V661.446H168.305ZM169.277 661.794L171.845 665.742H169.985L167.861 662.274L169.277 661.794ZM174.523 665.742L177.415 657.822H179.395L182.287 665.742H180.571L178.759 660.354L178.399 659.154H178.375L178.039 660.33L176.215 665.742H174.523ZM176.227 663.81V662.586H180.571V663.81H176.227ZM190.957 657.822V659.154H188.305V665.742H186.649V659.154H183.985V657.822H190.957ZM196.216 657.822V665.742H194.56V657.822H196.216ZM203.945 657.702C204.729 657.702 205.405 657.866 205.973 658.194C206.541 658.522 206.977 658.99 207.281 659.598C207.593 660.206 207.749 660.934 207.749 661.782C207.749 662.63 207.593 663.358 207.281 663.966C206.977 664.574 206.541 665.042 205.973 665.37C205.405 665.698 204.729 665.862 203.945 665.862C203.161 665.862 202.481 665.698 201.905 665.37C201.337 665.042 200.897 664.574 200.585 663.966C200.281 663.358 200.129 662.63 200.129 661.782C200.129 660.934 200.281 660.206 200.585 659.598C200.897 658.99 201.337 658.522 201.905 658.194C202.481 657.866 203.161 657.702 203.945 657.702ZM203.945 659.058C203.505 659.058 203.125 659.162 202.805 659.37C202.493 659.578 202.253 659.886 202.085 660.294C201.925 660.702 201.845 661.198 201.845 661.782C201.845 662.366 201.925 662.862 202.085 663.27C202.253 663.678 202.493 663.986 202.805 664.194C203.125 664.402 203.505 664.506 203.945 664.506C204.385 664.506 204.761 664.402 205.073 664.194C205.385 663.986 205.621 663.678 205.781 663.27C205.949 662.862 206.033 662.366 206.033 661.782C206.033 661.198 205.949 660.702 205.781 660.294C205.621 659.886 205.385 659.578 205.073 659.37C204.761 659.162 204.385 659.058 203.945 659.058ZM218.473 657.822V665.742H216.577L213.805 661.086L213.121 659.79H213.109L213.157 661.158V665.742H211.669V657.822H213.553L216.325 662.466L217.009 663.774H217.033L216.985 662.406V657.822H218.473Z" fill="#000023"/>
<path fill-rule="evenodd" clip-rule="evenodd" d="M123.571 668.335C123.176 668.741 122.689 668.945 122.112 668.945H93.3734C93.0099 668.945 92.6678 668.854 92.3471 668.672C92.0263 668.49 91.7751 668.239 91.5933 667.918C91.4116 667.597 91.3207 667.254 91.3207 666.891V641.215C91.3207 640.637 91.5185 640.151 91.9141 639.755C92.3096 639.359 92.7961 639.161 93.3734 639.161H101.584V637.107C101.584 636.829 101.686 636.588 101.889 636.385C102.092 636.182 102.333 636.08 102.611 636.08C102.889 636.08 103.129 636.182 103.332 636.385C103.536 636.588 103.637 636.829 103.637 637.107V639.161H111.848V637.107C111.848 636.829 111.95 636.588 112.153 636.385C112.356 636.182 112.597 636.08 112.874 636.08C113.152 636.08 113.393 636.182 113.596 636.385C113.799 636.588 113.901 636.829 113.901 637.107V639.161H122.112C122.475 639.161 122.817 639.252 123.138 639.434C123.459 639.616 123.71 639.862 123.892 640.172C124.074 640.482 124.165 640.83 124.165 641.215V666.891C124.165 667.447 123.967 667.928 123.571 668.335ZM93.3734 666.891H122.112V641.215H113.901V642.242C113.901 642.52 113.799 642.761 113.596 642.964C113.393 643.168 113.152 643.269 112.874 643.269C112.597 643.269 112.356 643.168 112.153 642.964C111.95 642.761 111.848 642.52 111.848 642.242V641.215H103.637V642.242C103.637 642.52 103.536 642.761 103.332 642.964C103.129 643.168 102.889 643.269 102.611 643.269C102.333 643.269 102.092 643.168 101.889 642.964C101.686 642.761 101.584 642.52 101.584 642.242V641.215H93.3734V666.891Z" fill="white"/>
<path d="M107.631 654.083C105.349 654.083 104.033 655.259 104.033 657.219C104.033 659.011 105.377 660.159 107.029 660.159C108.037 660.159 108.989 659.753 109.241 658.941H109.283V659.165C109.283 660.845 108.751 661.783 107.575 661.783C106.763 661.783 106.455 661.377 106.301 660.733L104.145 661.587C104.719 662.987 105.853 663.603 107.533 663.603C109.969 663.603 111.453 662.203 111.453 658.899C111.453 655.735 110.081 654.083 107.631 654.083ZM107.561 655.973C108.387 655.973 108.877 656.449 108.877 657.205C108.877 657.961 108.387 658.437 107.561 658.437C106.721 658.437 106.245 657.989 106.245 657.205C106.245 656.421 106.721 655.973 107.561 655.973Z" fill="white"/>
</g>
<path d="M114.185 756.071V766.631H112.201V761.127L112.297 758.039H112.265L109.337 766.631H107.529L104.617 758.039H104.585L104.697 761.127V766.631H102.697V756.071H105.897L107.801 761.831L108.473 764.215H108.505L109.193 761.847L111.081 756.071H114.185ZM115.747 766.631L119.603 756.071H122.243L126.099 766.631H123.811L121.395 759.447L120.915 757.847H120.883L120.435 759.415L118.003 766.631H115.747ZM118.019 764.055V762.423H123.811V764.055H118.019ZM131.443 755.911C132.403 755.911 133.246 756.076 133.971 756.407C134.697 756.738 135.315 757.228 135.827 757.879L134.595 759.303C134.158 758.748 133.678 758.343 133.155 758.087C132.643 757.82 132.046 757.687 131.363 757.687C130.915 757.687 130.542 757.746 130.243 757.863C129.955 757.98 129.742 758.135 129.603 758.327C129.475 758.519 129.411 758.732 129.411 758.967C129.411 759.255 129.523 759.5 129.747 759.703C129.971 759.895 130.355 760.055 130.899 760.183L132.867 760.631C133.913 760.866 134.659 761.218 135.107 761.687C135.566 762.146 135.795 762.743 135.795 763.479C135.795 764.172 135.614 764.77 135.251 765.271C134.889 765.762 134.382 766.14 133.731 766.407C133.081 766.663 132.334 766.791 131.491 766.791C130.755 766.791 130.078 766.706 129.459 766.535C128.851 766.354 128.307 766.108 127.827 765.799C127.347 765.49 126.947 765.132 126.627 764.727L127.875 763.239C128.121 763.58 128.425 763.884 128.787 764.151C129.15 764.418 129.561 764.631 130.019 764.791C130.489 764.94 130.979 765.015 131.491 765.015C131.929 765.015 132.297 764.967 132.595 764.871C132.905 764.764 133.134 764.62 133.283 764.439C133.443 764.247 133.523 764.018 133.523 763.751C133.523 763.474 133.427 763.239 133.235 763.047C133.054 762.844 132.713 762.69 132.211 762.583L130.067 762.103C129.449 761.954 128.915 761.762 128.467 761.527C128.03 761.282 127.694 760.972 127.459 760.599C127.235 760.215 127.123 759.762 127.123 759.239C127.123 758.61 127.294 758.044 127.635 757.543C127.977 757.042 128.467 756.647 129.107 756.359C129.758 756.06 130.537 755.911 131.443 755.911ZM141.74 755.911C142.7 755.911 143.543 756.076 144.268 756.407C144.994 756.738 145.612 757.228 146.124 757.879L144.892 759.303C144.455 758.748 143.975 758.343 143.452 758.087C142.94 757.82 142.343 757.687 141.66 757.687C141.212 757.687 140.839 757.746 140.54 757.863C140.252 757.98 140.039 758.135 139.9 758.327C139.772 758.519 139.708 758.732 139.708 758.967C139.708 759.255 139.82 759.5 140.044 759.703C140.268 759.895 140.652 760.055 141.196 760.183L143.164 760.631C144.21 760.866 144.956 761.218 145.404 761.687C145.863 762.146 146.092 762.743 146.092 763.479C146.092 764.172 145.911 764.77 145.548 765.271C145.186 765.762 144.679 766.14 144.028 766.407C143.378 766.663 142.631 766.791 141.788 766.791C141.052 766.791 140.375 766.706 139.756 766.535C139.148 766.354 138.604 766.108 138.124 765.799C137.644 765.49 137.244 765.132 136.924 764.727L138.172 763.239C138.418 763.58 138.722 763.884 139.084 764.151C139.447 764.418 139.858 764.631 140.316 764.791C140.786 764.94 141.276 765.015 141.788 765.015C142.226 765.015 142.594 764.967 142.892 764.871C143.202 764.764 143.431 764.62 143.58 764.439C143.74 764.247 143.82 764.018 143.82 763.751C143.82 763.474 143.724 763.239 143.532 763.047C143.351 762.844 143.01 762.69 142.508 762.583L140.364 762.103C139.746 761.954 139.212 761.762 138.764 761.527C138.327 761.282 137.991 760.972 137.756 760.599C137.532 760.215 137.42 759.762 137.42 759.239C137.42 758.61 137.591 758.044 137.932 757.543C138.274 757.042 138.764 756.647 139.404 756.359C140.055 756.06 140.834 755.911 141.74 755.911ZM164.56 756.071V766.631H162.576V761.127L162.672 758.039H162.64L159.712 766.631H157.904L154.992 758.039H154.96L155.072 761.127V766.631H153.072V756.071H156.272L158.176 761.831L158.848 764.215H158.88L159.568 761.847L161.456 756.071H164.56ZM169.514 756.071V766.631H167.306V756.071H169.514ZM176.595 766.791C175.625 766.791 174.771 766.578 174.035 766.151C173.31 765.724 172.745 765.106 172.339 764.295C171.934 763.484 171.731 762.508 171.731 761.367C171.731 760.236 171.945 759.266 172.371 758.455C172.798 757.634 173.401 757.004 174.179 756.567C174.958 756.13 175.87 755.911 176.915 755.911C178.057 755.911 178.979 756.124 179.683 756.551C180.387 756.967 180.947 757.618 181.363 758.503L179.315 759.383C179.145 758.818 178.851 758.402 178.435 758.135C178.03 757.858 177.529 757.719 176.931 757.719C176.334 757.719 175.817 757.863 175.379 758.151C174.942 758.428 174.606 758.839 174.371 759.383C174.137 759.916 174.019 760.572 174.019 761.351C174.019 762.151 174.131 762.828 174.355 763.383C174.579 763.927 174.91 764.338 175.347 764.615C175.795 764.882 176.345 765.015 176.995 765.015C177.347 765.015 177.673 764.972 177.971 764.887C178.281 764.802 178.547 764.674 178.771 764.503C178.995 764.332 179.171 764.114 179.299 763.847C179.427 763.58 179.491 763.271 179.491 762.919V762.679H176.723V761.063H181.395V766.631H179.843L179.683 764.327L180.067 764.599C179.833 765.303 179.417 765.847 178.819 766.231C178.233 766.604 177.491 766.791 176.595 766.791ZM188.478 756.071C189.672 756.071 190.611 756.359 191.294 756.935C191.976 757.511 192.318 758.284 192.318 759.255C192.318 760.29 191.976 761.084 191.294 761.639C190.611 762.183 189.678 762.455 188.494 762.455L188.27 762.583H185.998V766.631H183.822V756.071H188.478ZM188.222 760.903C188.84 760.903 189.299 760.78 189.598 760.535C189.907 760.279 190.062 759.89 190.062 759.367C190.062 758.844 189.907 758.46 189.598 758.215C189.299 757.959 188.84 757.831 188.222 757.831H185.998V760.903H188.222ZM189.518 761.367L192.942 766.631H190.462L187.63 762.007L189.518 761.367ZM193.513 766.631L197.369 756.071H200.009L203.865 766.631H201.577L199.161 759.447L198.681 757.847H198.649L198.201 759.415L195.769 766.631H193.513ZM195.785 764.055V762.423H201.577V764.055H195.785ZM212.424 756.071V757.847H208.888V766.631H206.68V757.847H203.128V756.071H212.424ZM216.436 756.071V766.631H214.228V756.071H216.436ZM223.741 755.911C224.786 755.911 225.688 756.13 226.445 756.567C227.202 757.004 227.784 757.628 228.189 758.439C228.605 759.25 228.813 760.22 228.813 761.351C228.813 762.482 228.605 763.452 228.189 764.263C227.784 765.074 227.202 765.698 226.445 766.135C225.688 766.572 224.786 766.791 223.741 766.791C222.696 766.791 221.789 766.572 221.021 766.135C220.264 765.698 219.677 765.074 219.261 764.263C218.856 763.452 218.653 762.482 218.653 761.351C218.653 760.22 218.856 759.25 219.261 758.439C219.677 757.628 220.264 757.004 221.021 756.567C221.789 756.13 222.696 755.911 223.741 755.911ZM223.741 757.719C223.154 757.719 222.648 757.858 222.221 758.135C221.805 758.412 221.485 758.823 221.261 759.367C221.048 759.911 220.941 760.572 220.941 761.351C220.941 762.13 221.048 762.791 221.261 763.335C221.485 763.879 221.805 764.29 222.221 764.567C222.648 764.844 223.154 764.983 223.741 764.983C224.328 764.983 224.829 764.844 225.245 764.567C225.661 764.29 225.976 763.879 226.189 763.335C226.413 762.791 226.525 762.13 226.525 761.351C226.525 760.572 226.413 759.911 226.189 759.367C225.976 758.823 225.661 758.412 225.245 758.135C224.829 757.858 224.328 757.719 223.741 757.719ZM240.112 756.071V766.631H237.584L233.888 760.423L232.976 758.695H232.96L233.024 760.519V766.631H231.04V756.071H233.552L237.248 762.263L238.16 764.007H238.192L238.128 762.183V756.071H240.112Z" fill="#00E599"/>
<path d="M80.2247 755.911C81.2913 755.911 82.2087 756.13 82.9767 756.567C83.7553 756.994 84.3527 757.612 84.7687 758.423C85.1847 759.234 85.3927 760.21 85.3927 761.351C85.3927 762.492 85.1847 763.468 84.7687 764.279C84.3527 765.09 83.7553 765.714 82.9767 766.151C82.2087 766.578 81.2913 766.791 80.2247 766.791C79.158 766.791 78.2353 766.578 77.4567 766.151C76.678 765.714 76.0807 765.09 75.6647 764.279C75.2487 763.468 75.0407 762.492 75.0407 761.351C75.0407 760.21 75.2487 759.234 75.6647 758.423C76.0807 757.612 76.678 756.994 77.4567 756.567C78.2353 756.13 79.158 755.911 80.2247 755.911ZM80.2247 758.071C79.7127 758.071 79.2807 758.194 78.9287 758.439C78.5767 758.684 78.31 759.052 78.1287 759.543C77.9473 760.023 77.8567 760.626 77.8567 761.351C77.8567 762.066 77.9473 762.668 78.1287 763.159C78.31 763.65 78.5767 764.018 78.9287 764.263C79.2807 764.508 79.7127 764.631 80.2247 764.631C80.7367 764.631 81.1633 764.508 81.5047 764.263C81.8567 764.018 82.1233 763.65 82.3047 763.159C82.486 762.668 82.5767 762.066 82.5767 761.351C82.5767 760.626 82.486 760.023 82.3047 759.543C82.1233 759.052 81.8567 758.684 81.5047 758.439C81.1633 758.194 80.7367 758.071 80.2247 758.071ZM90.9336 766.791C89.8029 766.791 88.8589 766.572 88.1016 766.135C87.3549 765.687 86.8376 765.036 86.5496 764.183L89.0776 763.095C89.1309 763.479 89.2269 763.788 89.3656 764.023C89.5149 764.247 89.7122 764.412 89.9576 764.519C90.2029 764.615 90.4909 764.663 90.8216 764.663C91.1202 764.663 91.3709 764.615 91.5736 764.519C91.7869 764.412 91.9522 764.263 92.0696 764.071C92.1869 763.879 92.2456 763.65 92.2456 763.383C92.2456 763.106 92.1869 762.882 92.0696 762.711C91.9629 762.54 91.8029 762.418 91.5896 762.343C91.3869 762.268 91.1362 762.231 90.8376 762.231C90.6989 762.231 90.5709 762.236 90.4536 762.247C90.3362 762.247 90.2029 762.258 90.0536 762.279V760.487C90.1389 760.498 90.2242 760.508 90.3096 760.519C90.3949 760.519 90.4962 760.519 90.6136 760.519C91.1149 760.519 91.4722 760.418 91.6856 760.215C91.9096 760.002 92.0216 759.671 92.0216 759.223C92.0216 758.839 91.9096 758.546 91.6856 758.343C91.4722 758.14 91.1682 758.039 90.7736 758.039C90.3576 758.039 90.0162 758.151 89.7496 758.375C89.4829 758.588 89.3122 758.956 89.2376 759.479L86.8216 758.647C86.9389 758.06 87.1896 757.564 87.5736 757.159C87.9576 756.754 88.4376 756.444 89.0136 756.231C89.6002 756.018 90.2456 755.911 90.9496 755.911C91.7602 755.911 92.4429 756.028 92.9976 756.263C93.5522 756.498 93.9736 756.834 94.2616 757.271C94.5496 757.708 94.6936 758.22 94.6936 758.807C94.6936 759.266 94.6189 759.65 94.4696 759.959C94.3309 760.268 94.1496 760.519 93.9256 760.711C93.7122 760.903 93.4936 761.047 93.2696 761.143C93.0456 761.228 92.8589 761.282 92.7096 761.303V761.351C92.9016 761.351 93.1202 761.388 93.3656 761.463C93.6109 761.538 93.8509 761.66 94.0856 761.831C94.3202 761.991 94.5122 762.215 94.6616 762.503C94.8216 762.791 94.9016 763.148 94.9016 763.575C94.9016 764.236 94.7256 764.807 94.3736 765.287C94.0322 765.767 93.5629 766.14 92.9656 766.407C92.3682 766.663 91.6909 766.791 90.9336 766.791Z" fill="white"/>
<path d="M111.238 742.04C111.958 742.04 112.59 742.164 113.134 742.412C113.678 742.66 114.142 743.028 114.526 743.516L113.602 744.584C113.274 744.168 112.914 743.864 112.522 743.672C112.138 743.472 111.69 743.372 111.178 743.372C110.842 743.372 110.562 743.416 110.338 743.504C110.122 743.592 109.962 743.708 109.858 743.852C109.762 743.996 109.714 744.156 109.714 744.332C109.714 744.548 109.798 744.732 109.966 744.884C110.134 745.028 110.422 745.148 110.83 745.244L112.306 745.58C113.09 745.756 113.65 746.02 113.986 746.372C114.33 746.716 114.502 747.164 114.502 747.716C114.502 748.236 114.366 748.684 114.094 749.06C113.822 749.428 113.442 749.712 112.954 749.912C112.466 750.104 111.906 750.2 111.274 750.2C110.722 750.2 110.214 750.136 109.75 750.008C109.294 749.872 108.886 749.688 108.526 749.456C108.166 749.224 107.866 748.956 107.626 748.652L108.562 747.536C108.746 747.792 108.974 748.02 109.246 748.22C109.518 748.42 109.826 748.58 110.17 748.7C110.522 748.812 110.89 748.868 111.274 748.868C111.602 748.868 111.878 748.832 112.102 748.76C112.334 748.68 112.506 748.572 112.618 748.436C112.738 748.292 112.798 748.12 112.798 747.92C112.798 747.712 112.726 747.536 112.582 747.392C112.446 747.24 112.19 747.124 111.814 747.044L110.206 746.684C109.742 746.572 109.342 746.428 109.006 746.252C108.678 746.068 108.426 745.836 108.25 745.556C108.082 745.268 107.998 744.928 107.998 744.536C107.998 744.064 108.126 743.64 108.382 743.264C108.638 742.888 109.006 742.592 109.486 742.376C109.974 742.152 110.558 742.04 111.238 742.04ZM116.068 750.08V742.16H122.008V743.492H117.724V745.46H121.096V746.732H117.724V748.748H122.176V750.08H116.068ZM126.986 742.16C127.594 742.16 128.114 742.264 128.546 742.472C128.978 742.672 129.31 742.964 129.542 743.348C129.782 743.724 129.902 744.18 129.902 744.716C129.902 745.252 129.782 745.712 129.542 746.096C129.31 746.472 128.978 746.764 128.546 746.972C128.114 747.172 127.594 747.272 126.986 747.272H125.318V750.08H123.662V742.16H126.986ZM126.734 745.964C127.23 745.964 127.602 745.86 127.85 745.652C128.098 745.436 128.222 745.124 128.222 744.716C128.222 744.3 128.098 743.988 127.85 743.78C127.602 743.572 127.23 743.468 126.734 743.468H125.318V745.964H126.734ZM137.59 742.16V743.492H134.938V750.08H133.282V743.492H130.618V742.16H137.59ZM138.943 750.08V742.16H144.883V743.492H140.599V745.46H143.971V746.732H140.599V748.748H145.051V750.08H138.943ZM155.153 742.16V750.08H153.665V745.952L153.737 743.636H153.713L151.517 750.08H150.161L147.977 743.636H147.953L148.037 745.952V750.08H146.537V742.16H148.937L150.365 746.48L150.869 748.268H150.893L151.409 746.492L152.825 742.16H155.153ZM157.213 750.08V742.16H160.681C161.641 742.16 162.349 742.348 162.805 742.724C163.261 743.1 163.489 743.632 163.489 744.32C163.489 744.744 163.361 745.12 163.105 745.448C162.849 745.776 162.473 745.984 161.977 746.072V746.084C162.529 746.164 162.953 746.372 163.249 746.708C163.545 747.044 163.693 747.444 163.693 747.908C163.693 748.588 163.445 749.12 162.949 749.504C162.461 749.888 161.745 750.08 160.801 750.08H157.213ZM158.821 748.832H160.657C161.105 748.832 161.437 748.74 161.653 748.556C161.869 748.372 161.977 748.116 161.977 747.788C161.977 747.452 161.869 747.196 161.653 747.02C161.437 746.844 161.105 746.756 160.657 746.756H158.821V748.832ZM158.821 745.484H160.465C161.337 745.484 161.773 745.144 161.773 744.464C161.773 743.784 161.337 743.444 160.465 743.444H158.821V745.484ZM165.275 750.08V742.16H171.215V743.492H166.931V745.46H170.303V746.732H166.931V748.748H171.383V750.08H165.275ZM176.361 742.16C177.257 742.16 177.961 742.376 178.473 742.808C178.985 743.24 179.241 743.82 179.241 744.548C179.241 745.324 178.985 745.92 178.473 746.336C177.961 746.744 177.261 746.948 176.373 746.948L176.205 747.044H174.501V750.08H172.869V742.16H176.361ZM176.169 745.784C176.633 745.784 176.977 745.692 177.201 745.508C177.433 745.316 177.549 745.024 177.549 744.632C177.549 744.24 177.433 743.952 177.201 743.768C176.977 743.576 176.633 743.48 176.169 743.48H174.501V745.784H176.169ZM177.141 746.132L179.709 750.08H177.849L175.725 746.612L177.141 746.132ZM185.885 750.08V745.064C185.885 744.88 185.885 744.692 185.885 744.5C185.893 744.3 185.901 744.096 185.909 743.888C185.637 744.136 185.333 744.352 184.997 744.536C184.661 744.72 184.317 744.848 183.965 744.92L183.749 743.528C183.933 743.512 184.137 743.46 184.361 743.372C184.593 743.276 184.825 743.164 185.057 743.036C185.297 742.9 185.513 742.76 185.705 742.616C185.905 742.464 186.057 742.312 186.161 742.16H187.505V750.08H185.885ZM192.437 742.04C193.157 742.04 193.789 742.164 194.333 742.412C194.877 742.66 195.341 743.028 195.725 743.516L194.801 744.584C194.473 744.168 194.113 743.864 193.721 743.672C193.337 743.472 192.889 743.372 192.377 743.372C192.041 743.372 191.761 743.416 191.537 743.504C191.321 743.592 191.161 743.708 191.057 743.852C190.961 743.996 190.913 744.156 190.913 744.332C190.913 744.548 190.997 744.732 191.165 744.884C191.333 745.028 191.621 745.148 192.029 745.244L193.505 745.58C194.289 745.756 194.849 746.02 195.185 746.372C195.529 746.716 195.701 747.164 195.701 747.716C195.701 748.236 195.565 748.684 195.293 749.06C195.021 749.428 194.641 749.712 194.153 749.912C193.665 750.104 193.105 750.2 192.473 750.2C191.921 750.2 191.413 750.136 190.949 750.008C190.493 749.872 190.085 749.688 189.725 749.456C189.365 749.224 189.065 748.956 188.825 748.652L189.761 747.536C189.945 747.792 190.173 748.02 190.445 748.22C190.717 748.42 191.025 748.58 191.369 748.7C191.721 748.812 192.089 748.868 192.473 748.868C192.801 748.868 193.077 748.832 193.301 748.76C193.533 748.68 193.705 748.572 193.817 748.436C193.937 748.292 193.997 748.12 193.997 747.92C193.997 747.712 193.925 747.536 193.781 747.392C193.645 747.24 193.389 747.124 193.013 747.044L191.405 746.684C190.941 746.572 190.541 746.428 190.205 746.252C189.877 746.068 189.625 745.836 189.449 745.556C189.281 745.268 189.197 744.928 189.197 744.536C189.197 744.064 189.325 743.64 189.581 743.264C189.837 742.888 190.205 742.592 190.685 742.376C191.173 742.152 191.757 742.04 192.437 742.04ZM203.309 742.16V743.492H200.657V750.08H199.001V743.492H196.337V742.16H203.309Z" fill="white"/>
<path d="M147.185 354.071V364.631H145.201V359.127L145.297 356.039H145.265L142.337 364.631H140.529L137.617 356.039H137.585L137.697 359.127V364.631H135.697V354.071H138.897L140.801 359.831L141.473 362.215H141.505L142.193 359.847L144.081 354.071H147.185ZM148.747 364.631L152.603 354.071H155.243L159.099 364.631H156.811L154.395 357.447L153.915 355.847H153.883L153.435 357.415L151.003 364.631H148.747ZM151.019 362.055V360.423H156.811V362.055H151.019ZM162.873 354.071V364.631H160.665V354.071H162.873ZM174.691 354.071V364.631H172.163L168.467 358.423L167.555 356.695H167.539L167.603 358.519V364.631H165.619V354.071H168.131L171.827 360.263L172.739 362.007H172.771L172.707 360.183V354.071H174.691ZM186.519 354.071V364.631H183.991L180.295 358.423L179.383 356.695H179.367L179.431 358.519V364.631H177.447V354.071H179.959L183.655 360.263L184.567 362.007H184.599L184.535 360.183V354.071H186.519ZM189.275 364.631V354.071H197.195V355.847H191.483V358.471H195.979V360.167H191.483V362.855H197.419V364.631H189.275ZM207.752 354.071V355.847H204.216V364.631H202.008V355.847H198.456V354.071H207.752Z" fill="#00E599"/>
<path d="M111.225 353.911C112.291 353.911 113.209 354.13 113.977 354.567C114.755 354.994 115.353 355.612 115.769 356.423C116.185 357.234 116.393 358.21 116.393 359.351C116.393 360.492 116.185 361.468 115.769 362.279C115.353 363.09 114.755 363.714 113.977 364.151C113.209 364.578 112.291 364.791 111.225 364.791C110.158 364.791 109.235 364.578 108.457 364.151C107.678 363.714 107.081 363.09 106.665 362.279C106.249 361.468 106.041 360.492 106.041 359.351C106.041 358.21 106.249 357.234 106.665 356.423C107.081 355.612 107.678 354.994 108.457 354.567C109.235 354.13 110.158 353.911 111.225 353.911ZM111.225 356.071C110.713 356.071 110.281 356.194 109.929 356.439C109.577 356.684 109.31 357.052 109.129 357.543C108.947 358.023 108.857 358.626 108.857 359.351C108.857 360.066 108.947 360.668 109.129 361.159C109.31 361.65 109.577 362.018 109.929 362.263C110.281 362.508 110.713 362.631 111.225 362.631C111.737 362.631 112.163 362.508 112.505 362.263C112.857 362.018 113.123 361.65 113.305 361.159C113.486 360.668 113.577 360.066 113.577 359.351C113.577 358.626 113.486 358.023 113.305 357.543C113.123 357.052 112.857 356.684 112.505 356.439C112.163 356.194 111.737 356.071 111.225 356.071ZM118.078 364.631V362.871C118.984 362.306 119.758 361.778 120.398 361.287C121.038 360.796 121.555 360.332 121.95 359.895C122.355 359.458 122.654 359.042 122.846 358.647C123.038 358.252 123.134 357.868 123.134 357.495C123.134 357.09 123.011 356.754 122.766 356.487C122.531 356.21 122.179 356.071 121.71 356.071C121.208 356.071 120.819 356.258 120.542 356.631C120.264 356.994 120.115 357.527 120.094 358.231L117.742 357.511C117.763 356.722 117.95 356.06 118.302 355.527C118.664 354.994 119.155 354.594 119.774 354.327C120.392 354.05 121.096 353.911 121.886 353.911C122.579 353.911 123.176 354.012 123.678 354.215C124.19 354.407 124.606 354.668 124.926 354.999C125.246 355.319 125.48 355.682 125.63 356.087C125.79 356.482 125.87 356.887 125.87 357.303C125.87 357.986 125.694 358.626 125.342 359.223C124.99 359.81 124.478 360.38 123.806 360.935C123.144 361.479 122.339 362.028 121.39 362.583V362.599C121.571 362.588 121.784 362.578 122.03 362.567C122.275 362.556 122.531 362.551 122.798 362.551C123.064 362.54 123.304 362.535 123.518 362.535H125.998V364.631H118.078Z" fill="white"/>
<path d="M119.82 348.08L122.712 340.16H124.692L127.584 348.08H125.868L124.056 342.692L123.696 341.492H123.672L123.336 342.668L121.512 348.08H119.82ZM121.524 346.148V344.924H125.868V346.148H121.524ZM135.066 340.16V344.96C135.066 346.04 134.778 346.852 134.202 347.396C133.626 347.932 132.786 348.2 131.682 348.2C130.578 348.2 129.738 347.932 129.162 347.396C128.586 346.852 128.298 346.04 128.298 344.96V340.16H129.954V344.888C129.954 345.552 130.094 346.044 130.374 346.364C130.662 346.684 131.098 346.844 131.682 346.844C132.266 346.844 132.698 346.684 132.978 346.364C133.258 346.044 133.398 345.552 133.398 344.888V340.16H135.066ZM140.226 348.2C139.498 348.2 138.858 348.04 138.306 347.72C137.762 347.4 137.338 346.936 137.034 346.328C136.73 345.72 136.578 344.988 136.578 344.132C136.578 343.284 136.738 342.556 137.058 341.948C137.378 341.332 137.83 340.86 138.414 340.532C138.998 340.204 139.682 340.04 140.466 340.04C141.322 340.04 142.014 340.2 142.542 340.52C143.07 340.832 143.49 341.32 143.802 341.984L142.266 342.644C142.138 342.22 141.918 341.908 141.606 341.708C141.302 341.5 140.926 341.396 140.478 341.396C140.03 341.396 139.642 341.504 139.314 341.72C138.986 341.928 138.734 342.236 138.558 342.644C138.382 343.044 138.294 343.536 138.294 344.12C138.294 344.72 138.378 345.228 138.546 345.644C138.714 346.052 138.962 346.36 139.29 346.568C139.626 346.768 140.038 346.868 140.526 346.868C140.79 346.868 141.034 346.836 141.258 346.772C141.49 346.708 141.69 346.612 141.858 346.484C142.026 346.356 142.158 346.192 142.254 345.992C142.35 345.792 142.398 345.56 142.398 345.296V345.116H140.322V343.904H143.826V348.08H142.662L142.542 346.352L142.83 346.556C142.654 347.084 142.342 347.492 141.894 347.78C141.454 348.06 140.898 348.2 140.226 348.2ZM152.258 340.16V344.96C152.258 346.04 151.97 346.852 151.394 347.396C150.818 347.932 149.978 348.2 148.874 348.2C147.77 348.2 146.93 347.932 146.354 347.396C145.778 346.852 145.49 346.04 145.49 344.96V340.16H147.146V344.888C147.146 345.552 147.286 346.044 147.566 346.364C147.854 346.684 148.29 346.844 148.874 346.844C149.458 346.844 149.89 346.684 150.17 346.364C150.45 346.044 150.59 345.552 150.59 344.888V340.16H152.258ZM157.057 340.04C157.777 340.04 158.409 340.164 158.953 340.412C159.497 340.66 159.961 341.028 160.345 341.516L159.421 342.584C159.093 342.168 158.733 341.864 158.341 341.672C157.957 341.472 157.509 341.372 156.997 341.372C156.661 341.372 156.381 341.416 156.157 341.504C155.941 341.592 155.781 341.708 155.677 341.852C155.581 341.996 155.533 342.156 155.533 342.332C155.533 342.548 155.617 342.732 155.785 342.884C155.953 343.028 156.241 343.148 156.649 343.244L158.125 343.58C158.909 343.756 159.469 344.02 159.805 344.372C160.149 344.716 160.321 345.164 160.321 345.716C160.321 346.236 160.185 346.684 159.913 347.06C159.641 347.428 159.261 347.712 158.773 347.912C158.285 348.104 157.725 348.2 157.093 348.2C156.541 348.2 156.033 348.136 155.569 348.008C155.113 347.872 154.705 347.688 154.345 347.456C153.985 347.224 153.685 346.956 153.445 346.652L154.381 345.536C154.565 345.792 154.793 346.02 155.065 346.22C155.337 346.42 155.645 346.58 155.989 346.7C156.341 346.812 156.709 346.868 157.093 346.868C157.421 346.868 157.697 346.832 157.921 346.76C158.153 346.68 158.325 346.572 158.437 346.436C158.557 346.292 158.617 346.12 158.617 345.92C158.617 345.712 158.545 345.536 158.401 345.392C158.265 345.24 158.009 345.124 157.633 345.044L156.025 344.684C155.561 344.572 155.161 344.428 154.825 344.252C154.497 344.068 154.245 343.836 154.069 343.556C153.901 343.268 153.817 342.928 153.817 342.536C153.817 342.064 153.945 341.64 154.201 341.264C154.457 340.888 154.825 340.592 155.305 340.376C155.793 340.152 156.377 340.04 157.057 340.04ZM167.929 340.16V341.492H165.277V348.08H163.621V341.492H160.957V340.16H167.929ZM172.441 348.08V346.952C173.161 346.472 173.769 346.036 174.265 345.644C174.769 345.244 175.173 344.876 175.477 344.54C175.789 344.196 176.013 343.872 176.149 343.568C176.293 343.264 176.365 342.96 176.365 342.656C176.365 342.288 176.253 341.988 176.029 341.756C175.805 341.516 175.489 341.396 175.081 341.396C174.633 341.396 174.281 341.548 174.025 341.852C173.777 342.156 173.641 342.588 173.617 343.148L172.189 342.608C172.229 342.064 172.373 341.604 172.621 341.228C172.877 340.844 173.221 340.552 173.653 340.352C174.093 340.144 174.601 340.04 175.177 340.04C175.657 340.04 176.073 340.108 176.425 340.244C176.785 340.38 177.085 340.568 177.325 340.808C177.565 341.04 177.741 341.308 177.853 341.612C177.973 341.916 178.033 342.232 178.033 342.56C178.033 343.072 177.905 343.556 177.649 344.012C177.401 344.468 177.017 344.92 176.497 345.368C175.977 345.816 175.317 346.288 174.517 346.784V346.796C174.637 346.788 174.781 346.78 174.949 346.772C175.125 346.764 175.305 346.76 175.489 346.76C175.673 346.752 175.833 346.748 175.969 346.748H178.153V348.08H172.441ZM186.586 340.16V348.08H184.69L181.918 343.424L181.234 342.128H181.222L181.27 343.496V348.08H179.782V340.16H181.666L184.438 344.804L185.122 346.112H185.146L185.098 344.744V340.16H186.586ZM191.713 340.16C192.953 340.16 193.913 340.504 194.593 341.192C195.273 341.872 195.613 342.848 195.613 344.12C195.613 345.384 195.273 346.36 194.593 347.048C193.913 347.736 192.953 348.08 191.713 348.08H188.653V340.16H191.713ZM191.629 346.76C192.381 346.76 192.945 346.536 193.321 346.088C193.705 345.632 193.897 344.976 193.897 344.12C193.897 343.264 193.705 342.612 193.321 342.164C192.945 341.708 192.381 341.48 191.629 341.48H190.309V346.76H191.629Z" fill="white"/>
<path d="M77.2247 54.9109C78.2913 54.9109 79.2087 55.1295 79.9767 55.5669C80.7553 55.9935 81.3527 56.6122 81.7687 57.4229C82.1847 58.2335 82.3927 59.2095 82.3927 60.3509C82.3927 61.4922 82.1847 62.4682 81.7687 63.2789C81.3527 64.0895 80.7553 64.7135 79.9767 65.1509C79.2087 65.5775 78.2913 65.7909 77.2247 65.7909C76.158 65.7909 75.2353 65.5775 74.4567 65.1509C73.678 64.7135 73.0807 64.0895 72.6647 63.2789C72.2487 62.4682 72.0407 61.4922 72.0407 60.3509C72.0407 59.2095 72.2487 58.2335 72.6647 57.4229C73.0807 56.6122 73.678 55.9935 74.4567 55.5669C75.2353 55.1295 76.158 54.9109 77.2247 54.9109ZM77.2247 57.0709C76.7127 57.0709 76.2807 57.1935 75.9287 57.4389C75.5767 57.6842 75.31 58.0522 75.1287 58.5429C74.9473 59.0229 74.8567 59.6255 74.8567 60.3509C74.8567 61.0655 74.9473 61.6682 75.1287 62.1589C75.31 62.6495 75.5767 63.0175 75.9287 63.2629C76.2807 63.5082 76.7127 63.6309 77.2247 63.6309C77.7367 63.6309 78.1633 63.5082 78.5047 63.2629C78.8567 63.0175 79.1233 62.6495 79.3047 62.1589C79.486 61.6682 79.5767 61.0655 79.5767 60.3509C79.5767 59.6255 79.486 59.0229 79.3047 58.5429C79.1233 58.0522 78.8567 57.6842 78.5047 57.4389C78.1633 57.1935 77.7367 57.0709 77.2247 57.0709ZM86.1736 65.6309V59.5509C86.1736 59.2735 86.1736 58.9909 86.1736 58.7029C86.1842 58.4042 86.1896 58.1002 86.1896 57.7909C85.8376 58.1109 85.4482 58.3935 85.0216 58.6389C84.5949 58.8735 84.1469 59.0335 83.6776 59.1189L83.4216 56.8469C83.6989 56.8255 83.9922 56.7562 84.3016 56.6389C84.6216 56.5215 84.9362 56.3775 85.2456 56.2069C85.5549 56.0362 85.8322 55.8549 86.0776 55.6629C86.3229 55.4602 86.5096 55.2629 86.6376 55.0709H88.8296V65.6309H86.1736Z" fill="white"/>
<path d="M107.601 56.8469H101.905V59.5189H106.401V61.3109H101.905V65.6309H99.6967V55.0709H107.601V56.8469ZM113.944 54.9109C114.99 54.9109 115.891 55.1295 116.648 55.5669C117.406 56.0042 117.987 56.6282 118.392 57.4389C118.808 58.2495 119.016 59.2202 119.016 60.3509C119.016 61.4815 118.808 62.4522 118.392 63.2629C117.987 64.0735 117.406 64.6975 116.648 65.1349C115.891 65.5722 114.99 65.7909 113.944 65.7909C112.899 65.7909 111.992 65.5722 111.224 65.1349C110.467 64.6975 109.88 64.0735 109.464 63.2629C109.059 62.4522 108.856 61.4815 108.856 60.3509C108.856 59.2202 109.059 58.2495 109.464 57.4389C109.88 56.6282 110.467 56.0042 111.224 55.5669C111.992 55.1295 112.899 54.9109 113.944 54.9109ZM113.944 56.7189C113.358 56.7189 112.851 56.8575 112.424 57.1349C112.008 57.4122 111.688 57.8229 111.464 58.3669C111.251 58.9109 111.144 59.5722 111.144 60.3509C111.144 61.1295 111.251 61.7909 111.464 62.3349C111.688 62.8789 112.008 63.2895 112.424 63.5669C112.851 63.8442 113.358 63.9829 113.944 63.9829C114.531 63.9829 115.032 63.8442 115.448 63.5669C115.864 63.2895 116.179 62.8789 116.392 62.3349C116.616 61.7909 116.728 61.1295 116.728 60.3509C116.728 59.5722 116.616 58.9109 116.392 58.3669C116.179 57.8229 115.864 57.4122 115.448 57.1349C115.032 56.8575 114.531 56.7189 113.944 56.7189ZM125.9 55.0709C127.094 55.0709 128.033 55.3589 128.716 55.9349C129.398 56.5109 129.74 57.2842 129.74 58.2549C129.74 59.2895 129.398 60.0842 128.716 60.6389C128.033 61.1829 127.1 61.4549 125.916 61.4549L125.692 61.5829H123.42V65.6309H121.244V55.0709H125.9ZM125.644 59.9029C126.262 59.9029 126.721 59.7802 127.02 59.5349C127.329 59.2789 127.484 58.8895 127.484 58.3669C127.484 57.8442 127.329 57.4602 127.02 57.2149C126.721 56.9589 126.262 56.8309 125.644 56.8309H123.42V59.9029H125.644ZM126.94 60.3669L130.364 65.6309H127.884L125.052 61.0069L126.94 60.3669ZM143.607 55.0709V65.6309H141.623V60.1269L141.719 57.0389H141.687L138.759 65.6309H136.951L134.039 57.0389H134.007L134.119 60.1269V65.6309H132.119V55.0709H135.319L137.223 60.8309L137.895 63.2149H137.927L138.615 60.8469L140.503 55.0709H143.607ZM145.169 65.6309L149.025 55.0709H151.665L155.521 65.6309H153.233L150.817 58.4469L150.337 56.8469H150.305L149.857 58.4149L147.425 65.6309H145.169ZM147.441 63.0549V61.4229H153.233V63.0549H147.441ZM159.295 63.8549H164.863V65.6309H157.087V55.0709H159.295V63.8549ZM179.205 55.0709V56.8469H175.669V65.6309H173.461V56.8469H169.909V55.0709H179.205ZM181.009 65.6309V55.0709H188.929V56.8469H183.217V59.4709H187.713V61.1669H183.217V63.8549H189.153V65.6309H181.009ZM194.99 54.9109C195.95 54.9109 196.793 55.0762 197.518 55.4069C198.244 55.7375 198.862 56.2282 199.374 56.8789L198.142 58.3029C197.705 57.7482 197.225 57.3429 196.702 57.0869C196.19 56.8202 195.593 56.6869 194.91 56.6869C194.462 56.6869 194.089 56.7455 193.79 56.8629C193.502 56.9802 193.289 57.1349 193.15 57.3269C193.022 57.5189 192.958 57.7322 192.958 57.9669C192.958 58.2549 193.07 58.5002 193.294 58.7029C193.518 58.8949 193.902 59.0549 194.446 59.1829L196.414 59.6309C197.46 59.8655 198.206 60.2175 198.654 60.6869C199.113 61.1455 199.342 61.7429 199.342 62.4789C199.342 63.1722 199.161 63.7695 198.798 64.2709C198.436 64.7615 197.929 65.1402 197.278 65.4069C196.628 65.6629 195.881 65.7909 195.038 65.7909C194.302 65.7909 193.625 65.7055 193.006 65.5349C192.398 65.3535 191.854 65.1082 191.374 64.7989C190.894 64.4895 190.494 64.1322 190.174 63.7269L191.422 62.2389C191.668 62.5802 191.972 62.8842 192.334 63.1509C192.697 63.4175 193.108 63.6309 193.566 63.7909C194.036 63.9402 194.526 64.0149 195.038 64.0149C195.476 64.0149 195.844 63.9669 196.142 63.8709C196.452 63.7642 196.681 63.6202 196.83 63.4389C196.99 63.2469 197.07 63.0175 197.07 62.7509C197.07 62.4735 196.974 62.2389 196.782 62.0469C196.601 61.8442 196.26 61.6895 195.758 61.5829L193.614 61.1029C192.996 60.9535 192.462 60.7615 192.014 60.5269C191.577 60.2815 191.241 59.9722 191.006 59.5989C190.782 59.2149 190.67 58.7615 190.67 58.2389C190.67 57.6095 190.841 57.0442 191.182 56.5429C191.524 56.0415 192.014 55.6469 192.654 55.3589C193.305 55.0602 194.084 54.9109 194.99 54.9109ZM209.486 55.0709V56.8469H205.95V65.6309H203.742V56.8469H200.19V55.0709H209.486ZM220.362 55.0709V65.6309H217.834L214.138 59.4229L213.226 57.6949H213.21L213.274 59.5189V65.6309H211.29V55.0709H213.802L217.498 61.2629L218.41 63.0069H218.442L218.378 61.1829V55.0709H220.362ZM223.119 65.6309V55.0709H231.039V56.8469H225.327V59.4709H229.823V61.1669H225.327V63.8549H231.263V65.6309H223.119ZM241.596 55.0709V56.8469H238.06V65.6309H235.852V56.8469H232.3V55.0709H241.596Z" fill="#00E599"/>
<path d="M91.6908 41.0401C92.4108 41.0401 93.0428 41.1641 93.5868 41.4121C94.1308 41.6601 94.5948 42.0281 94.9788 42.5161L94.0548 43.5841C93.7268 43.1681 93.3668 42.8641 92.9748 42.6721C92.5908 42.4721 92.1428 42.3721 91.6308 42.3721C91.2948 42.3721 91.0148 42.4161 90.7908 42.5041C90.5748 42.5921 90.4148 42.7081 90.3108 42.8521C90.2148 42.9961 90.1668 43.1561 90.1668 43.3321C90.1668 43.5481 90.2508 43.7321 90.4188 43.8841C90.5868 44.0281 90.8748 44.1481 91.2828 44.2441L92.7588 44.5801C93.5428 44.7561 94.1028 45.0201 94.4388 45.3721C94.7828 45.7161 94.9548 46.1641 94.9548 46.7161C94.9548 47.2361 94.8188 47.6841 94.5468 48.0601C94.2748 48.4281 93.8948 48.7121 93.4068 48.9121C92.9188 49.1041 92.3588 49.2001 91.7268 49.2001C91.1748 49.2001 90.6668 49.1361 90.2028 49.0081C89.7468 48.8721 89.3388 48.6881 88.9788 48.4561C88.6188 48.2241 88.3188 47.9561 88.0788 47.6521L89.0148 46.5361C89.1988 46.7921 89.4268 47.0201 89.6988 47.2201C89.9708 47.4201 90.2788 47.5801 90.6228 47.7001C90.9748 47.8121 91.3428 47.8681 91.7268 47.8681C92.0548 47.8681 92.3308 47.8321 92.5548 47.7601C92.7868 47.6801 92.9588 47.5721 93.0708 47.4361C93.1908 47.2921 93.2508 47.1201 93.2508 46.9201C93.2508 46.7121 93.1788 46.5361 93.0348 46.3921C92.8988 46.2401 92.6428 46.1241 92.2668 46.0441L90.6588 45.6841C90.1948 45.5721 89.7948 45.4281 89.4588 45.2521C89.1308 45.0681 88.8788 44.8361 88.7028 44.5561C88.5348 44.2681 88.4508 43.9281 88.4508 43.5361C88.4508 43.0641 88.5788 42.6401 88.8348 42.2641C89.0908 41.8881 89.4588 41.5921 89.9388 41.3761C90.4268 41.1521 91.0108 41.0401 91.6908 41.0401ZM102.563 41.1601V42.4921H99.9108V49.0801H98.2548V42.4921H95.5908V41.1601H102.563ZM102.009 49.0801L104.901 41.1601H106.881L109.773 49.0801H108.057L106.245 43.6921L105.885 42.4921H105.861L105.525 43.6681L103.701 49.0801H102.009ZM103.713 47.1481V45.9241H108.057V47.1481H103.713ZM114.439 41.1601C115.335 41.1601 116.039 41.3761 116.551 41.8081C117.063 42.2401 117.319 42.8201 117.319 43.5481C117.319 44.3241 117.063 44.9201 116.551 45.3361C116.039 45.7441 115.339 45.9481 114.451 45.9481L114.283 46.0441H112.579V49.0801H110.947V41.1601H114.439ZM114.247 44.7841C114.711 44.7841 115.055 44.6921 115.279 44.5081C115.511 44.3161 115.627 44.0241 115.627 43.6321C115.627 43.2401 115.511 42.9521 115.279 42.7681C115.055 42.5761 114.711 42.4801 114.247 42.4801H112.579V44.7841H114.247ZM115.219 45.1321L117.787 49.0801H115.927L113.803 45.6121L115.219 45.1321ZM125.227 41.1601V42.4921H122.575V49.0801H120.919V42.4921H118.255V41.1601H125.227ZM128.236 41.1601V49.0801H126.58V41.1601H128.236ZM137.099 41.1601V49.0801H135.203L132.431 44.4241L131.747 43.1281H131.735L131.783 44.4961V49.0801H130.295V41.1601H132.179L134.951 45.8041L135.635 47.1121H135.659L135.611 45.7441V41.1601H137.099ZM142.418 49.2001C141.69 49.2001 141.05 49.0401 140.498 48.7201C139.954 48.4001 139.53 47.9361 139.226 47.3281C138.922 46.7201 138.77 45.9881 138.77 45.1321C138.77 44.2841 138.93 43.5561 139.25 42.9481C139.57 42.3321 140.022 41.8601 140.606 41.5321C141.19 41.2041 141.874 41.0401 142.658 41.0401C143.514 41.0401 144.206 41.2001 144.734 41.5201C145.262 41.8321 145.682 42.3201 145.994 42.9841L144.458 43.6441C144.33 43.2201 144.11 42.9081 143.798 42.7081C143.494 42.5001 143.118 42.3961 142.67 42.3961C142.222 42.3961 141.834 42.5041 141.506 42.7201C141.178 42.9281 140.926 43.2361 140.75 43.6441C140.574 44.0441 140.486 44.5361 140.486 45.1201C140.486 45.7201 140.57 46.2281 140.738 46.6441C140.906 47.0521 141.154 47.3601 141.482 47.5681C141.818 47.7681 142.23 47.8681 142.718 47.8681C142.982 47.8681 143.226 47.8361 143.45 47.7721C143.682 47.7081 143.882 47.6121 144.05 47.4841C144.218 47.3561 144.35 47.1921 144.446 46.9921C144.542 46.7921 144.59 46.5601 144.59 46.2961V46.1161H142.514V44.9041H146.018V49.0801H144.854L144.734 47.3521L145.022 47.5561C144.846 48.0841 144.534 48.4921 144.086 48.7801C143.646 49.0601 143.09 49.2001 142.418 49.2001ZM160.195 41.1601V46.1641C160.195 47.1161 159.927 47.8601 159.391 48.3961C158.855 48.9321 158.095 49.2001 157.111 49.2001C156.407 49.2001 155.835 49.0721 155.395 48.8161C154.955 48.5601 154.651 48.2001 154.483 47.7361C154.315 47.2721 154.283 46.7401 154.387 46.1401L155.995 45.8521C155.899 46.5561 155.943 47.0641 156.127 47.3761C156.311 47.6881 156.651 47.8441 157.147 47.8441C157.667 47.8441 158.027 47.6841 158.227 47.3641C158.435 47.0441 158.539 46.5681 158.539 45.9361V41.1601H160.195ZM168.747 41.1601V45.9601C168.747 47.0401 168.459 47.8521 167.883 48.3961C167.307 48.9321 166.467 49.2001 165.363 49.2001C164.259 49.2001 163.419 48.9321 162.843 48.3961C162.267 47.8521 161.979 47.0401 161.979 45.9601V41.1601H163.635V45.8881C163.635 46.5521 163.775 47.0441 164.055 47.3641C164.343 47.6841 164.779 47.8441 165.363 47.8441C165.947 47.8441 166.379 47.6841 166.659 47.3641C166.939 47.0441 167.079 46.5521 167.079 45.8881V41.1601H168.747ZM172.31 47.7481H176.486V49.0801H170.654V41.1601H172.31V47.7481ZM182.745 41.1601L179.937 46.1161V49.0801H178.281V46.1161L175.473 41.1601H177.237L178.509 43.5241L179.109 44.7721L179.721 43.5241L180.993 41.1601H182.745ZM190.57 49.0801V47.9521C191.29 47.4721 191.898 47.0361 192.394 46.6441C192.898 46.2441 193.302 45.8761 193.606 45.5401C193.918 45.1961 194.142 44.8721 194.278 44.5681C194.422 44.2641 194.494 43.9601 194.494 43.6561C194.494 43.2881 194.382 42.9881 194.158 42.7561C193.934 42.5161 193.618 42.3961 193.21 42.3961C192.762 42.3961 192.41 42.5481 192.154 42.8521C191.906 43.1561 191.77 43.5881 191.746 44.1481L190.318 43.6081C190.358 43.0641 190.502 42.6041 190.75 42.2281C191.006 41.8441 191.35 41.5521 191.782 41.3521C192.222 41.1441 192.73 41.0401 193.306 41.0401C193.786 41.0401 194.202 41.1081 194.554 41.2441C194.914 41.3801 195.214 41.5681 195.454 41.8081C195.694 42.0401 195.87 42.3081 195.982 42.6121C196.102 42.9161 196.162 43.2321 196.162 43.5601C196.162 44.0721 196.034 44.5561 195.778 45.0121C195.53 45.4681 195.146 45.9201 194.626 46.3681C194.106 46.8161 193.446 47.2881 192.646 47.7841V47.7961C192.766 47.7881 192.91 47.7801 193.078 47.7721C193.254 47.7641 193.434 47.7601 193.618 47.7601C193.802 47.7521 193.962 47.7481 194.098 47.7481H196.282V49.0801H190.57ZM200.696 49.2001C199.68 49.2001 198.896 48.8561 198.344 48.1681C197.8 47.4801 197.528 46.4641 197.528 45.1201C197.528 43.7761 197.8 42.7601 198.344 42.0721C198.896 41.3841 199.68 41.0401 200.696 41.0401C201.712 41.0401 202.492 41.3841 203.036 42.0721C203.588 42.7601 203.864 43.7761 203.864 45.1201C203.864 46.4641 203.588 47.4801 203.036 48.1681C202.492 48.8561 201.712 49.2001 200.696 49.2001ZM200.696 47.8681C201.04 47.8681 201.32 47.7721 201.536 47.5801C201.76 47.3801 201.928 47.0801 202.04 46.6801C202.152 46.2721 202.208 45.7521 202.208 45.1201C202.208 44.4881 202.152 43.9721 202.04 43.5721C201.928 43.1641 201.76 42.8641 201.536 42.6721C201.32 42.4721 201.04 42.3721 200.696 42.3721C200.352 42.3721 200.068 42.4721 199.844 42.6721C199.62 42.8641 199.452 43.1641 199.34 43.5721C199.236 43.9721 199.184 44.4881 199.184 45.1201C199.184 45.7521 199.236 46.2721 199.34 46.6801C199.452 47.0801 199.62 47.3801 199.844 47.5801C200.068 47.7721 200.352 47.8681 200.696 47.8681ZM211.805 41.1601V42.4921H209.153V49.0801H207.497V42.4921H204.833V41.1601H211.805ZM219.962 41.1601V49.0801H218.306V41.1601H219.962ZM214.814 41.1601V49.0801H213.158V41.1601H214.814ZM219.17 44.4121V45.7441H213.986V44.4121H219.17Z" fill="white"/>
<defs>
<linearGradient id="paint0_linear" x1="158.809" y1="117.424" x2="158.809" y2="238.728" gradientUnits="userSpaceOnUse">
<stop stop-color="#192E49"/>
<stop offset="1" stop-color="#142436"/>
</linearGradient>
<linearGradient id="paint1_linear" x1="158.325" y1="138.808" x2="158.325" y2="226.44" gradientUnits="userSpaceOnUse">
<stop stop-color="#192E49"/>
<stop offset="1" stop-color="#142436"/>
</linearGradient>
<linearGradient id="paint2_linear" x1="158.809" y1="416.424" x2="158.809" y2="537.728" gradientUnits="userSpaceOnUse">
<stop stop-color="#192E49"/>
<stop offset="1" stop-color="#142436"/>
</linearGradient>
<linearGradient id="paint3_linear" x1="159.039" y1="437.808" x2="159.039" y2="525.44" gradientUnits="userSpaceOnUse">
<stop stop-color="#192E49"/>
<stop offset="1" stop-color="#142436"/>
</linearGradient>
<linearGradient id="paint4_linear" x1="158.809" y1="815.424" x2="158.809" y2="936.728" gradientUnits="userSpaceOnUse">
<stop stop-color="#192E49"/>
<stop offset="1" stop-color="#142436"/>
</linearGradient>
<linearGradient id="paint5_linear" x1="159.039" y1="836.808" x2="159.039" y2="924.44" gradientUnits="userSpaceOnUse">
<stop stop-color="#192E49"/>
<stop offset="1" stop-color="#142436"/>
</linearGradient>
<clipPath id="clip0">
<rect width="135.66" height="32.8645" fill="white" transform="translate(91.3207 636.08)"/>
</clipPath>
</defs>
</svg>
