<svg width="281" height="281" viewBox="0 0 281 281" fill="none" xmlns="http://www.w3.org/2000/svg">
<g opacity="0.132557">
<path d="M140.5 0L262.177 70.25V210.75L140.5 281L18.8234 210.75V70.25L140.5 0Z" fill="url(#paint0_linear)"/>
<path d="M140.5 0L262.177 70.25V210.75L140.5 281L18.8234 210.75V70.25L140.5 0Z" fill="#00E599"/>
</g>
<path d="M140.5 39L228.402 89.75V191.25L140.5 242L52.5984 191.25V89.75L140.5 39Z" fill="url(#paint1_linear)"/>
<path d="M140.5 39L228.402 89.75V191.25L140.5 242L52.5984 191.25V89.75L140.5 39Z" fill="#010129"/>
<path d="M140.5 39L228.402 89.75V191.25L140.5 242L52.5984 191.25V89.75L140.5 39Z" stroke="#00E599"/>
<path fill-rule="evenodd" clip-rule="evenodd" d="M138.579 122.505C138.93 122.306 139.361 122.306 139.712 122.505L153.062 130.058C153.423 130.262 153.646 130.645 153.646 131.059V146.125C153.646 146.54 153.423 146.922 153.062 147.127L139.712 154.679C139.361 154.878 138.93 154.878 138.579 154.679L125.229 147.127C124.868 146.922 124.645 146.54 124.645 146.125V131.059C124.645 130.645 124.868 130.262 125.229 130.058L138.579 122.505Z" stroke="#00E599" stroke-width="1.5"/>
<path d="M139.145 154.316V138.592" stroke="#00E599" stroke-width="1.5" stroke-linecap="round"/>
<path d="M124.452 131.072L138.804 138.592" stroke="#00E599" stroke-width="1.5" stroke-linecap="round"/>
<path d="M153.155 131.072L138.804 138.592" stroke="#00E599" stroke-width="1.5" stroke-linecap="round"/>
<path fill-rule="evenodd" clip-rule="evenodd" d="M88.177 122.505C88.5286 122.306 88.9588 122.306 89.3104 122.505L102.66 130.058C103.021 130.262 103.244 130.645 103.244 131.059V146.125C103.244 146.54 103.021 146.922 102.66 147.127L89.3104 154.679C88.9588 154.878 88.5286 154.878 88.177 154.679L74.8273 147.127C74.4664 146.922 74.2432 146.54 74.2432 146.125V131.059C74.2432 130.645 74.4664 130.262 74.8273 130.058L88.177 122.505Z" stroke="#00E599" stroke-width="1.5"/>
<path d="M88.7436 154.316V138.592" stroke="#00E599" stroke-width="1.5" stroke-linecap="round"/>
<path d="M74.0503 131.072L88.4021 138.592" stroke="#00E599" stroke-width="1.5" stroke-linecap="round"/>
<path d="M102.754 131.072L88.4019 138.592" stroke="#00E599" stroke-width="1.5" stroke-linecap="round"/>
<path fill-rule="evenodd" clip-rule="evenodd" d="M139.112 73.3206C139.464 73.1217 139.894 73.1217 140.245 73.3206L153.595 80.8735C153.956 81.0777 154.179 81.4603 154.179 81.8751V96.9407C154.179 97.3554 153.956 97.7381 153.595 97.9423L140.245 105.495C139.894 105.694 139.464 105.694 139.112 105.495L125.762 97.9423C125.401 97.7381 125.178 97.3554 125.178 96.9407V81.8751C125.178 81.4603 125.401 81.0777 125.762 80.8735L139.112 73.3206Z" stroke="#00E599" stroke-width="1.5"/>
<path d="M139.679 105.132V89.408" stroke="#00E599" stroke-width="1.5" stroke-linecap="round"/>
<path d="M124.985 81.8877L139.337 89.408" stroke="#00E599" stroke-width="1.5" stroke-linecap="round"/>
<path d="M153.689 81.8877L139.337 89.408" stroke="#00E599" stroke-width="1.5" stroke-linecap="round"/>
<path fill-rule="evenodd" clip-rule="evenodd" d="M190.69 122.505C191.041 122.306 191.471 122.306 191.823 122.505L205.173 130.058C205.534 130.262 205.757 130.645 205.757 131.059V146.125C205.757 146.54 205.534 146.922 205.173 147.127L191.823 154.679C191.471 154.878 191.041 154.878 190.69 154.679L177.34 147.127C176.979 146.922 176.756 146.54 176.756 146.125V131.059C176.756 130.645 176.979 130.262 177.34 130.058L190.69 122.505Z" stroke="#00E599" stroke-width="1.5"/>
<path d="M191.256 154.316V138.592" stroke="#00E599" stroke-width="1.5" stroke-linecap="round"/>
<path d="M176.563 131.072L190.915 138.592" stroke="#00E599" stroke-width="1.5" stroke-linecap="round"/>
<path d="M205.266 131.072L190.915 138.592" stroke="#00E599" stroke-width="1.5" stroke-linecap="round"/>
<path d="M176.221 140.13H154.01" stroke="#6BE599" stroke-width="1.5" stroke-linecap="square"/>
<path d="M139.254 121.508L139.254 107.13" stroke="#6BE599" stroke-width="1.5" stroke-linecap="square"/>
<path fill-rule="evenodd" clip-rule="evenodd" d="M139.112 170.321C139.464 170.122 139.894 170.122 140.245 170.321L153.595 177.873C153.956 178.078 154.179 178.46 154.179 178.875V193.941C154.179 194.355 153.956 194.738 153.595 194.942L140.245 202.495C139.894 202.694 139.464 202.694 139.112 202.495L125.762 194.942C125.401 194.738 125.178 194.355 125.178 193.941V178.875C125.178 178.46 125.401 178.078 125.762 177.873L139.112 170.321Z" stroke="#00E599" stroke-width="1.5"/>
<path d="M139.679 202.132V186.408" stroke="#00E599" stroke-width="1.5" stroke-linecap="round"/>
<path d="M124.985 178.888L139.337 186.408" stroke="#00E599" stroke-width="1.5" stroke-linecap="round"/>
<path d="M153.689 178.888L139.337 186.408" stroke="#00E599" stroke-width="1.5" stroke-linecap="round"/>
<path d="M139.254 170.508L139.254 156.13" stroke="#6BE599" stroke-width="1.5" stroke-linecap="square"/>
<path d="M122.66 140.13L104.266 139.86" stroke="#6BE599" stroke-width="1.5" stroke-linecap="square"/>
<defs>
<linearGradient id="paint0_linear" x1="139.34" y1="32.6743" x2="139.34" y2="202.462" gradientUnits="userSpaceOnUse">
<stop stop-color="#192E49"/>
<stop offset="1" stop-color="#142436"/>
</linearGradient>
<linearGradient id="paint1_linear" x1="139.662" y1="62.6045" x2="139.662" y2="185.262" gradientUnits="userSpaceOnUse">
<stop stop-color="#192E49"/>
<stop offset="1" stop-color="#142436"/>
</linearGradient>
</defs>
</svg>
