<svg width="260" height="1006" viewBox="0 0 260 1006" fill="none" xmlns="http://www.w3.org/2000/svg">
<g opacity="0.132557">
<path d="M159.637 94.0801L246.514 144.27V244.65L159.637 294.839L72.7606 244.65V144.27L159.637 94.0801Z" fill="url(#paint0_linear)"/>
<path d="M159.637 94.0801L246.514 144.27V244.65L159.637 294.839L72.7606 244.65V144.27L159.637 94.0801Z" fill="#00E599"/>
</g>
<path d="M158.923 121.943L221.685 158.201V230.718L158.923 266.976L96.1618 230.718V158.201L158.923 121.943Z" fill="url(#paint1_linear)"/>
<path d="M158.923 121.943L221.685 158.201V230.718L158.923 266.976L96.1618 230.718V158.201L158.923 121.943Z" fill="#010129"/>
<path d="M158.923 121.943L221.685 158.201V230.718L158.923 266.976L96.1618 230.718V158.201L158.923 121.943Z" stroke="#00E599" stroke-width="0.714"/>
<path fill-rule="evenodd" clip-rule="evenodd" d="M158.266 181.603C158.517 181.461 158.824 181.461 159.075 181.603L168.607 186.999C168.865 187.145 169.024 187.418 169.024 187.714V198.479C169.024 198.775 168.865 199.048 168.607 199.194L159.075 204.59C158.824 204.732 158.517 204.732 158.266 204.59L148.734 199.194C148.476 199.048 148.317 198.775 148.317 198.479V187.714C148.317 187.418 148.476 187.145 148.734 186.999L158.266 181.603Z" stroke="#00E599" stroke-width="0.714" stroke-dasharray="1.43"/>
<path d="M158.67 204.331V193.097" stroke="#00E599" stroke-width="0.714" stroke-linecap="round" stroke-dasharray="1.43"/>
<path d="M148.179 187.724L158.426 193.096" stroke="#00E599" stroke-width="0.714" stroke-linecap="round" stroke-dasharray="1.43"/>
<path d="M168.674 187.724L158.426 193.096" stroke="#00E599" stroke-width="0.714" stroke-linecap="round" stroke-dasharray="1.43"/>
<path fill-rule="evenodd" clip-rule="evenodd" d="M122.279 181.603C122.53 181.461 122.837 181.461 123.088 181.603L132.62 186.999C132.878 187.145 133.037 187.418 133.037 187.714V198.479C133.037 198.775 132.878 199.048 132.62 199.194L123.088 204.59C122.837 204.732 122.53 204.732 122.279 204.59L112.747 199.194C112.489 199.048 112.33 198.775 112.33 198.479V187.714C112.33 187.418 112.489 187.145 112.747 186.999L122.279 181.603Z" stroke="#00E599" stroke-width="0.714" stroke-dasharray="1.43"/>
<path d="M122.683 204.331V193.097" stroke="#00E599" stroke-width="0.714" stroke-linecap="round" stroke-dasharray="1.43"/>
<path d="M112.192 187.724L122.44 193.096" stroke="#00E599" stroke-width="0.714" stroke-linecap="round" stroke-dasharray="1.43"/>
<path d="M132.687 187.724L122.44 193.096" stroke="#00E599" stroke-width="0.714" stroke-linecap="round" stroke-dasharray="1.43"/>
<path fill-rule="evenodd" clip-rule="evenodd" d="M158.646 146.464C158.897 146.321 159.205 146.321 159.456 146.464L168.987 151.86C169.245 152.005 169.404 152.279 169.404 152.575V163.339C169.404 163.635 169.245 163.908 168.987 164.054L159.456 169.45C159.205 169.592 158.897 169.592 158.646 169.45L149.114 164.054C148.857 163.908 148.698 163.635 148.698 163.339V152.575C148.698 152.279 148.857 152.005 149.114 151.86L158.646 146.464Z" stroke="#00E599" stroke-width="0.714" stroke-dasharray="1.43"/>
<path d="M159.051 169.191V157.957" stroke="#00E599" stroke-width="0.714" stroke-linecap="round" stroke-dasharray="1.43"/>
<path d="M148.56 152.584L158.807 157.957" stroke="#00E599" stroke-width="0.714" stroke-linecap="round" stroke-dasharray="1.43"/>
<path d="M169.054 152.584L158.807 157.957" stroke="#00E599" stroke-width="0.714" stroke-linecap="round" stroke-dasharray="1.43"/>
<path fill-rule="evenodd" clip-rule="evenodd" d="M195.472 181.603C195.724 181.461 196.031 181.461 196.282 181.603L205.814 186.999C206.071 187.145 206.231 187.418 206.231 187.714V198.479C206.231 198.775 206.071 199.048 205.814 199.194L196.282 204.59C196.031 204.732 195.724 204.732 195.472 204.59L185.941 199.194C185.683 199.048 185.524 198.775 185.524 198.479V187.714C185.524 187.418 185.683 187.145 185.941 186.999L195.472 181.603Z" stroke="#00E599" stroke-width="0.714" stroke-dasharray="1.43"/>
<path d="M195.877 204.331V193.097" stroke="#00E599" stroke-width="0.714" stroke-linecap="round" stroke-dasharray="1.43"/>
<path d="M185.386 187.724L195.633 193.096" stroke="#00E599" stroke-width="0.714" stroke-linecap="round" stroke-dasharray="1.43"/>
<path d="M205.88 187.724L195.633 193.096" stroke="#00E599" stroke-width="0.714" stroke-linecap="round" stroke-dasharray="1.43"/>
<path d="M185.142 194.196H169.284" stroke="#6BE599" stroke-width="0.714" stroke-linecap="square" stroke-dasharray="1.43"/>
<path d="M158.748 180.891L158.748 170.618" stroke="#6BE599" stroke-width="0.714" stroke-linecap="square" stroke-dasharray="1.43"/>
<path fill-rule="evenodd" clip-rule="evenodd" d="M158.646 215.765C158.897 215.623 159.205 215.623 159.456 215.765L168.987 221.161C169.245 221.307 169.404 221.58 169.404 221.876V232.64C169.404 232.936 169.245 233.21 168.987 233.355L159.456 238.752C159.205 238.894 158.897 238.894 158.646 238.752L149.114 233.355C148.857 233.21 148.698 232.936 148.698 232.64V221.876C148.698 221.58 148.857 221.307 149.114 221.161L158.646 215.765Z" stroke="#00E599" stroke-width="0.714" stroke-dasharray="1.43"/>
<path d="M159.051 238.492V227.258" stroke="#00E599" stroke-width="0.714" stroke-linecap="round" stroke-dasharray="1.43"/>
<path d="M148.56 221.886L158.807 227.259" stroke="#00E599" stroke-width="0.714" stroke-linecap="round" stroke-dasharray="1.43"/>
<path d="M169.054 221.886L158.807 227.259" stroke="#00E599" stroke-width="0.714" stroke-linecap="round" stroke-dasharray="1.43"/>
<path d="M158.748 215.899L158.748 205.626" stroke="#6BE599" stroke-width="0.714" stroke-linecap="square" stroke-dasharray="1.43"/>
<path d="M146.9 194.195L133.766 194.002" stroke="#6BE599" stroke-width="0.714" stroke-linecap="square" stroke-dasharray="1.43"/>
<g opacity="0.132557">
<path d="M159.637 393.08L246.514 443.27V543.65L159.637 593.839L72.7606 543.65V443.27L159.637 393.08Z" fill="url(#paint2_linear)"/>
<path d="M159.637 393.08L246.514 443.27V543.65L159.637 593.839L72.7606 543.65V443.27L159.637 393.08Z" fill="#00E599"/>
</g>
<path d="M159.637 420.943L222.399 457.201V529.718L159.637 565.976L96.8759 529.718V457.201L159.637 420.943Z" fill="url(#paint3_linear)"/>
<path d="M159.637 420.943L222.399 457.201V529.718L159.637 565.976L96.8759 529.718V457.201L159.637 420.943Z" fill="#010129"/>
<path d="M159.637 420.943L222.399 457.201V529.718L159.637 565.976L96.8759 529.718V457.201L159.637 420.943Z" stroke="#00E599" stroke-width="0.714"/>
<path fill-rule="evenodd" clip-rule="evenodd" d="M158.266 480.603C158.517 480.461 158.824 480.461 159.075 480.603L168.607 485.999C168.865 486.145 169.024 486.418 169.024 486.714V497.479C169.024 497.775 168.865 498.048 168.607 498.194L159.075 503.59C158.824 503.732 158.517 503.732 158.266 503.59L148.734 498.194C148.476 498.048 148.317 497.775 148.317 497.479V486.714C148.317 486.418 148.476 486.145 148.734 485.999L158.266 480.603Z" stroke="#00E599" stroke-width="1.071"/>
<path d="M158.67 503.331V492.097" stroke="#00E599" stroke-width="1.071" stroke-linecap="round"/>
<path d="M148.179 486.724L158.426 492.096" stroke="#00E599" stroke-width="1.071" stroke-linecap="round"/>
<path d="M168.674 486.724L158.426 492.096" stroke="#00E599" stroke-width="1.071" stroke-linecap="round"/>
<path fill-rule="evenodd" clip-rule="evenodd" d="M122.279 480.603C122.53 480.461 122.837 480.461 123.088 480.603L132.62 485.999C132.878 486.145 133.037 486.418 133.037 486.714V497.479C133.037 497.775 132.878 498.048 132.62 498.194L123.088 503.59C122.837 503.732 122.53 503.732 122.279 503.59L112.747 498.194C112.489 498.048 112.33 497.775 112.33 497.479V486.714C112.33 486.418 112.489 486.145 112.747 485.999L122.279 480.603Z" stroke="#00E599" stroke-width="1.071"/>
<path d="M122.683 503.331V492.097" stroke="#00E599" stroke-width="1.071" stroke-linecap="round"/>
<path d="M112.192 486.724L122.44 492.096" stroke="#00E599" stroke-width="1.071" stroke-linecap="round"/>
<path d="M132.687 486.724L122.44 492.096" stroke="#00E599" stroke-width="1.071" stroke-linecap="round"/>
<path fill-rule="evenodd" clip-rule="evenodd" d="M158.646 445.464C158.897 445.321 159.205 445.321 159.456 445.464L168.987 450.86C169.245 451.005 169.404 451.279 169.404 451.575V462.339C169.404 462.635 169.245 462.908 168.987 463.054L159.456 468.45C159.205 468.592 158.897 468.592 158.646 468.45L149.114 463.054C148.857 462.908 148.698 462.635 148.698 462.339V451.575C148.698 451.279 148.857 451.005 149.114 450.86L158.646 445.464Z" stroke="#00E599" stroke-width="1.071"/>
<path d="M159.051 468.191V456.957" stroke="#00E599" stroke-width="1.071" stroke-linecap="round"/>
<path d="M148.56 451.584L158.807 456.957" stroke="#00E599" stroke-width="1.071" stroke-linecap="round"/>
<path d="M169.054 451.584L158.807 456.957" stroke="#00E599" stroke-width="1.071" stroke-linecap="round"/>
<path fill-rule="evenodd" clip-rule="evenodd" d="M195.472 480.603C195.724 480.461 196.031 480.461 196.282 480.603L205.814 485.999C206.071 486.145 206.231 486.418 206.231 486.714V497.479C206.231 497.775 206.071 498.048 205.814 498.194L196.282 503.59C196.031 503.732 195.724 503.732 195.472 503.59L185.941 498.194C185.683 498.048 185.524 497.775 185.524 497.479V486.714C185.524 486.418 185.683 486.145 185.941 485.999L195.472 480.603Z" stroke="#00E599" stroke-width="1.071"/>
<path d="M195.877 503.331V492.097" stroke="#00E599" stroke-width="1.071" stroke-linecap="round"/>
<path d="M185.386 486.724L195.633 492.096" stroke="#00E599" stroke-width="1.071" stroke-linecap="round"/>
<path d="M205.88 486.724L195.633 492.096" stroke="#00E599" stroke-width="1.071" stroke-linecap="round"/>
<path d="M185.142 493.196H169.284" stroke="#6BE599" stroke-width="1.071" stroke-linecap="square"/>
<path d="M158.748 479.891L158.748 469.618" stroke="#6BE599" stroke-width="1.071" stroke-linecap="square"/>
<path fill-rule="evenodd" clip-rule="evenodd" d="M158.646 514.765C158.897 514.623 159.205 514.623 159.456 514.765L168.987 520.161C169.245 520.307 169.404 520.58 169.404 520.876V531.64C169.404 531.936 169.245 532.21 168.987 532.355L159.456 537.752C159.205 537.894 158.897 537.894 158.646 537.752L149.114 532.355C148.857 532.21 148.698 531.936 148.698 531.64V520.876C148.698 520.58 148.857 520.307 149.114 520.161L158.646 514.765Z" stroke="#00E599" stroke-width="1.071"/>
<path d="M159.051 537.492V526.258" stroke="#00E599" stroke-width="1.071" stroke-linecap="round"/>
<path d="M148.56 520.886L158.807 526.259" stroke="#00E599" stroke-width="1.071" stroke-linecap="round"/>
<path d="M169.054 520.886L158.807 526.259" stroke="#00E599" stroke-width="1.071" stroke-linecap="round"/>
<path d="M158.748 514.899L158.748 504.626" stroke="#6BE599" stroke-width="1.071" stroke-linecap="square"/>
<path d="M146.9 493.195L133.766 493.002" stroke="#6BE599" stroke-width="1.071" stroke-linecap="square"/>
<g opacity="0.132557">
<path d="M159.637 792.08L246.514 842.27V942.65L159.637 992.839L72.7606 942.65V842.27L159.637 792.08Z" fill="url(#paint4_linear)"/>
<path d="M159.637 792.08L246.514 842.27V942.65L159.637 992.839L72.7606 942.65V842.27L159.637 792.08Z" fill="#00E599"/>
</g>
<path d="M159.637 819.943L222.399 856.201V928.718L159.637 964.976L96.8759 928.718V856.201L159.637 819.943Z" fill="url(#paint5_linear)"/>
<path d="M159.637 819.943L222.399 856.201V928.718L159.637 964.976L96.8759 928.718V856.201L159.637 819.943Z" fill="#010129"/>
<path d="M159.637 819.943L222.399 856.201V928.718L159.637 964.976L96.8759 928.718V856.201L159.637 819.943Z" stroke="#00E599" stroke-width="0.714"/>
<path d="M157.416 881.298L163.128 875.582L157.416 869.867L156.068 871.216L160.455 875.582L156.068 879.949L157.416 881.298Z" fill="#00E599"/>
<path d="M157.416 913.448L163.128 907.733L157.416 902.017L156.068 903.366L160.455 907.733L156.068 912.099L157.416 913.448Z" fill="#00E599"/>
<path d="M117.869 866.91V885.319L129.645 889.606V871.036L142.347 866.291L130.818 862.096L117.869 866.91V866.91Z" fill="#00E599"/>
<path d="M130.486 871.699V881.707L142.347 886.006V867.238L130.486 871.699V871.699Z" fill="#00AF92"/>
<path fill-rule="evenodd" clip-rule="evenodd" d="M130.944 922.824L117.811 918.188V900.063L130.978 895.313L142.793 899.473L142.858 918.582L130.944 914.246V922.824ZM118.985 917.304L129.66 921.092V903.721L140.315 899.796L130.917 896.468L118.985 900.796L118.985 917.304ZM141.684 916.86L130.922 912.957L130.924 904.608L141.63 900.7L141.684 916.86Z" fill="#00E599"/>
<path d="M174.988 866.91V885.319L186.765 889.606V871.036L199.467 866.291L187.938 862.096L174.988 866.91V866.91Z" fill="#00E599"/>
<path d="M187.606 871.699V881.707L199.467 886.006V867.238L187.606 871.699V871.699Z" fill="#00AF92"/>
<path fill-rule="evenodd" clip-rule="evenodd" d="M188.064 922.824L174.93 918.188V900.063L188.098 895.313L199.913 899.473L199.978 918.582L188.064 914.246V922.824ZM176.105 917.304L186.78 921.092V903.721L197.434 899.796L188.037 896.468L176.105 900.796L176.105 917.304ZM198.804 916.86L188.041 912.957L188.044 904.608L198.75 900.7L198.804 916.86Z" fill="#00E599"/>
<path d="M28.3078 61.7607C23.3752 61.7607 19.377 57.7646 19.377 52.8357C19.377 47.9068 23.3752 43.9107 28.3078 43.9107C33.2403 43.9107 37.2386 47.9068 37.2386 52.8357C37.2386 57.7646 33.2403 61.7607 28.3078 61.7607Z" stroke="#00E599" stroke-width="0.714"/>
<path d="M28.3078 761.68C23.3752 761.68 19.377 757.684 19.377 752.755C19.377 747.826 23.3752 743.83 28.3078 743.83C33.2403 743.83 37.2386 747.826 37.2386 752.755C37.2386 757.684 33.2403 761.68 28.3078 761.68Z" stroke="#00E599" stroke-width="0.714"/>
<path d="M32.5242 660.988C31.6709 661.423 30.7413 661.73 29.7608 661.884L29.65 661.179C29.2131 661.247 28.7649 661.283 28.3078 661.283V661.997C27.8135 661.997 27.3282 661.958 26.8548 661.884L26.9656 661.179C26.0608 661.037 25.2032 660.753 24.4158 660.352L24.0913 660.988C23.2194 660.543 22.427 659.964 21.7414 659.279L22.246 658.774C21.6125 658.141 21.0779 657.41 20.6669 656.606L20.0311 656.931C19.5951 656.078 19.2873 655.148 19.1331 654.168L19.8384 654.057C19.7697 653.62 19.734 653.172 19.734 652.715H19.02C19.02 652.221 19.0587 651.736 19.1331 651.262L19.8384 651.373C19.9807 650.469 20.2646 649.611 20.6669 648.824L20.0311 648.499C20.4764 647.628 21.0555 646.836 21.7414 646.151L22.246 646.656C22.8793 646.023 23.611 645.489 24.4158 645.079L24.0913 644.442C24.9447 644.007 25.8743 643.7 26.8548 643.546L26.9656 644.251C27.4025 644.183 27.8507 644.147 28.3078 644.147V643.433C28.8021 643.433 29.2874 643.472 29.7608 643.546L29.65 644.251C30.5548 644.393 31.4124 644.677 32.1998 645.079L32.5242 644.442C33.3962 644.887 34.1885 645.466 34.8742 646.151L34.3696 646.656C35.0031 647.289 35.5377 648.02 35.9487 648.824L36.5845 648.499C37.0205 649.352 37.3282 650.282 37.4825 651.262L36.7771 651.373C36.8458 651.81 36.8816 652.258 36.8816 652.715H37.5956C37.5956 653.209 37.5569 653.695 37.4825 654.168L36.7771 654.057C36.6348 654.962 36.3509 655.819 35.9487 656.606L36.5845 656.931C36.1391 657.802 35.56 658.594 34.8742 659.279L34.3696 658.774C33.7362 659.407 33.0046 659.941 32.1998 660.352L32.5242 660.988Z" stroke="white" stroke-width="1.428" stroke-dasharray="2.86"/>
<path d="M28.3078 361.6C23.3752 361.6 19.377 357.603 19.377 352.675C19.377 347.746 23.3752 343.75 28.3078 343.75C33.2403 343.75 37.2386 347.746 37.2386 352.675C37.2386 357.603 33.2403 361.6 28.3078 361.6Z" stroke="#00E599" stroke-width="0.714"/>
<ellipse cx="28.3077" cy="2.85599" rx="2.85599" ry="2.85778" transform="rotate(90 28.3077 2.85599)" fill="#00E599"/>
<ellipse cx="28.3077" cy="52.836" rx="2.85599" ry="2.85778" transform="rotate(90 28.3077 52.836)" fill="#00E599"/>
<ellipse cx="28.3077" cy="102.816" rx="2.85599" ry="2.85778" transform="rotate(90 28.3077 102.816)" fill="#00E599"/>
<ellipse cx="28.3077" cy="152.795" rx="2.85599" ry="2.85778" transform="rotate(90 28.3077 152.795)" fill="#00E599"/>
<ellipse cx="28.3077" cy="202.775" rx="2.85599" ry="2.85778" transform="rotate(90 28.3077 202.775)" fill="#00E599"/>
<ellipse cx="28.3077" cy="252.755" rx="2.85599" ry="2.85778" transform="rotate(90 28.3077 252.755)" fill="#00E599"/>
<ellipse cx="28.3077" cy="302.735" rx="2.85599" ry="2.85778" transform="rotate(90 28.3077 302.735)" fill="#00E599"/>
<ellipse cx="28.3077" cy="352.715" rx="2.85599" ry="2.85778" transform="rotate(90 28.3077 352.715)" fill="#00E599"/>
<ellipse cx="28.3077" cy="402.695" rx="2.85599" ry="2.85778" transform="rotate(90 28.3077 402.695)" fill="#00E599"/>
<ellipse cx="28.3077" cy="452.675" rx="2.85599" ry="2.85778" transform="rotate(90 28.3077 452.675)" fill="#00E599"/>
<ellipse cx="28.3077" cy="502.655" rx="2.85599" ry="2.85778" transform="rotate(90 28.3077 502.655)" fill="#00E599"/>
<path d="M27.9505 2.49909L27.8207 1003.58" stroke="#6BE599" stroke-width="0.714" stroke-linecap="round" stroke-dasharray="0.71 6.43"/>
<path d="M85.8207 353.58H31.8207" stroke="#00E599" stroke-width="0.714"/>
<path d="M58.8207 53.5799L31.8207 53.5799" stroke="#00E599" stroke-width="0.714"/>
<path d="M58.8207 752.58H31.8207" stroke="#00E599" stroke-width="0.714"/>
<circle cx="28.3207" cy="653.08" r="20" fill="white" fill-opacity="0.15"/>
<circle cx="28.3207" cy="653.08" r="14" fill="#40405A"/>
<path d="M85.8207 652.58H31.8207" stroke="white" stroke-width="0.714"/>
<ellipse cx="28.2071" cy="1002.76" rx="2.85599" ry="2.85778" transform="rotate(-180 28.2071 1002.76)" fill="#00E599"/>
<ellipse cx="28.2071" cy="952.776" rx="2.85599" ry="2.85778" transform="rotate(-180 28.2071 952.776)" fill="#00E599"/>
<ellipse cx="28.2071" cy="902.796" rx="2.85599" ry="2.85778" transform="rotate(-180 28.2071 902.796)" fill="#00E599"/>
<ellipse cx="28.2071" cy="852.816" rx="2.85599" ry="2.85778" transform="rotate(-180 28.2071 852.816)" fill="#00E599"/>
<ellipse cx="28.2071" cy="802.836" rx="2.85599" ry="2.85778" transform="rotate(-180 28.2071 802.836)" fill="#00E599"/>
<ellipse cx="28.2071" cy="752.856" rx="2.85599" ry="2.85778" transform="rotate(-180 28.2071 752.856)" fill="#00E599"/>
<ellipse cx="28.2071" cy="702.876" rx="2.85599" ry="2.85778" transform="rotate(-180 28.2071 702.876)" fill="#00E599"/>
<ellipse cx="28.1768" cy="652.938" rx="2.85599" ry="2.85778" transform="rotate(-180 28.1768 652.938)" fill="white"/>
<ellipse cx="28.2071" cy="602.917" rx="2.85599" ry="2.85778" transform="rotate(-180 28.2071 602.917)" fill="#00E599"/>
<ellipse cx="28.2071" cy="552.937" rx="2.85599" ry="2.85778" transform="rotate(-180 28.2071 552.937)" fill="#00E599"/>
<ellipse cx="28.2071" cy="502.957" rx="2.85599" ry="2.85778" transform="rotate(-180 28.2071 502.957)" fill="#00E599"/>
<g clip-path="url(#clip0)">
<path d="M132 641H226V669H132V641Z" fill="white"/>
<path d="M105.578 644.621C105.781 647.47 106.583 649.543 107.984 650.84C107.688 651.189 107.383 651.566 107.07 651.973C105.482 650.415 104.589 647.986 104.391 644.684L105.578 644.621ZM102.086 644.801L103.289 644.863C103.273 648.098 102.445 650.493 100.805 652.051L100.031 651.012C101.375 649.668 102.06 647.598 102.086 644.801ZM109.297 652.082C108.953 651.775 108.615 651.488 108.281 651.223C108.747 650.751 109.042 650.288 109.164 649.832C109.289 649.374 109.352 648.678 109.352 647.746V644.707H115.102V650.543C115.102 650.999 115.005 651.345 114.812 651.582C114.62 651.819 114.352 651.948 114.008 651.969C113.667 651.99 113.094 651.996 112.289 651.988C112.211 651.582 112.109 651.181 111.984 650.785C112.5 650.816 112.951 650.832 113.336 650.832C113.742 650.832 113.945 650.642 113.945 650.262V649.699H110.434C110.371 650.272 110.246 650.729 110.059 651.07C109.874 651.411 109.62 651.749 109.297 652.082ZM113.945 645.762H110.508V646.676H113.945V645.762ZM110.496 648.645H113.945V647.73H110.508C110.508 647.882 110.504 648.186 110.496 648.645Z" fill="white"/>
<path fill-rule="evenodd" clip-rule="evenodd" d="M123.571 668.335C123.176 668.741 122.689 668.945 122.112 668.945H93.3734C93.0099 668.945 92.6678 668.854 92.3471 668.672C92.0263 668.49 91.7751 668.239 91.5933 667.918C91.4116 667.597 91.3207 667.254 91.3207 666.891V641.215C91.3207 640.637 91.5185 640.151 91.9141 639.755C92.3096 639.359 92.7961 639.161 93.3734 639.161H101.584V637.107C101.584 636.829 101.686 636.588 101.889 636.385C102.092 636.182 102.333 636.08 102.611 636.08C102.889 636.08 103.129 636.182 103.332 636.385C103.536 636.588 103.637 636.829 103.637 637.107V639.161H111.848V637.107C111.848 636.829 111.95 636.588 112.153 636.385C112.356 636.182 112.597 636.08 112.874 636.08C113.152 636.08 113.393 636.182 113.596 636.385C113.799 636.588 113.901 636.829 113.901 637.107V639.161H122.112C122.475 639.161 122.817 639.252 123.138 639.434C123.459 639.616 123.71 639.862 123.892 640.172C124.074 640.482 124.165 640.83 124.165 641.215V666.891C124.165 667.447 123.967 667.928 123.571 668.335ZM93.3734 666.891H122.112V641.215H113.901V642.242C113.901 642.52 113.799 642.761 113.596 642.964C113.393 643.168 113.152 643.269 112.874 643.269C112.597 643.269 112.356 643.168 112.153 642.964C111.95 642.761 111.848 642.52 111.848 642.242V641.215H103.637V642.242C103.637 642.52 103.536 642.761 103.332 642.964C103.129 643.168 102.889 643.269 102.611 643.269C102.333 643.269 102.092 643.168 101.889 642.964C101.686 642.761 101.584 642.52 101.584 642.242V641.215H93.3734V666.891Z" fill="white"/>
<path d="M107.631 654.083C105.349 654.083 104.033 655.259 104.033 657.219C104.033 659.011 105.377 660.159 107.029 660.159C108.037 660.159 108.989 659.753 109.241 658.941H109.283V659.165C109.283 660.845 108.751 661.783 107.575 661.783C106.763 661.783 106.455 661.377 106.301 660.733L104.145 661.587C104.719 662.987 105.853 663.603 107.533 663.603C109.969 663.603 111.453 662.203 111.453 658.899C111.453 655.735 110.081 654.083 107.631 654.083ZM107.561 655.973C108.387 655.973 108.877 656.449 108.877 657.205C108.877 657.961 108.387 658.437 107.561 658.437C106.721 658.437 106.245 657.989 106.245 657.205C106.245 656.421 106.721 655.973 107.561 655.973Z" fill="white"/>
<path d="M145.279 650.771L144.564 653.578H142.936L144.102 650.771H145.279ZM142.725 650.771L142.033 653.578H140.381L141.541 650.771H142.725ZM148.578 657.768H153.383V656.619H149.633V650.432H158.891V656.619H155.141V657.768H159.957V659.256H155.141V661.553H153.383V659.256H148.578V657.768ZM157.25 651.85H151.273V652.846H157.25V651.85ZM157.25 655.201V654.205H151.273V655.201H157.25ZM166.672 653.713L167.469 652.682C168.102 653.08 168.715 653.479 169.309 653.877L169.285 653.906C170.051 653.93 170.496 653.924 170.621 653.889C170.75 653.85 170.84 653.762 170.891 653.625C170.945 653.484 170.988 653.08 171.02 652.412H165.734V655.799H173.902C173.812 657.787 173.732 659.031 173.662 659.531C173.596 660.027 173.439 660.436 173.193 660.756C172.947 661.076 172.611 661.277 172.186 661.359C171.764 661.441 170.723 661.482 169.062 661.482C168.977 660.99 168.848 660.4 168.676 659.713C169.684 659.791 170.445 659.83 170.961 659.83C171.301 659.83 171.564 659.75 171.752 659.59C171.939 659.426 172.051 659.186 172.086 658.869C172.125 658.549 172.16 657.979 172.191 657.158H164.105V651.053H166.537C166.662 650.686 166.781 650.311 166.895 649.928L168.781 650.279C168.66 650.537 168.533 650.795 168.4 651.053H172.684C172.664 652.51 172.609 653.457 172.52 653.895C172.43 654.332 172.242 654.686 171.957 654.955C171.676 655.225 170.809 655.35 169.355 655.33C169.266 654.932 169.17 654.555 169.068 654.199L168.453 655.025C167.938 654.619 167.344 654.182 166.672 653.713ZM162.723 657.932H171.312V659.291H162.723V657.932ZM182.369 650.771L181.203 653.578H180.014L180.723 650.771H182.369ZM179.826 650.771L178.643 653.578H177.471L178.186 650.771H179.826ZM192.828 650.08C193.398 650.799 193.949 651.533 194.48 652.283L193.027 653.209C192.582 652.482 192.07 651.701 191.492 650.865L192.828 650.08ZM199.484 659.244H197.82V655.951H194.68V654.451H197.82V652.283L195.207 652.424C195.121 651.986 195 651.479 194.844 650.9C197.141 650.814 199.543 650.658 202.051 650.432L202.402 651.955L199.484 652.178V654.451H202.648V655.951H199.484V659.244ZM202.824 659.619C202.621 660.158 202.43 660.697 202.25 661.236C200.047 661.236 198.168 661.221 196.613 661.189C195.059 661.158 193.957 660.748 193.309 659.959C193.016 660.275 192.539 660.799 191.879 661.529L191.176 659.795C191.43 659.533 191.871 659.119 192.5 658.553V655.611H191.328V654.064H194.07V658.688C194.793 659.363 195.848 659.701 197.234 659.701C200.512 659.701 202.375 659.674 202.824 659.619ZM211.977 650.057H213.629C213.422 650.369 213.203 650.674 212.973 650.971H216.723V652.084C215.883 653.291 214.809 654.271 213.5 655.025H214.648C214.453 655.291 214.254 655.545 214.051 655.787H216.969V656.947C215.531 659.533 213.18 661.084 209.914 661.6C209.641 660.99 209.391 660.514 209.164 660.17C210.469 660.01 211.596 659.715 212.545 659.285C212.236 659.02 211.906 658.752 211.555 658.482L212.574 657.604C212.93 657.877 213.336 658.201 213.793 658.576C214.41 658.139 214.918 657.615 215.316 657.006H212.902C212.059 657.795 211.145 658.439 210.16 658.939C209.887 658.533 209.602 658.154 209.305 657.803C210.688 657.135 211.795 656.361 212.627 655.482C211.9 655.818 211.113 656.096 210.266 656.314C210.07 655.9 209.832 655.467 209.551 655.014C210.469 654.83 211.293 654.586 212.023 654.281C211.723 654.023 211.406 653.764 211.074 653.502L212.059 652.623C212.438 652.912 212.85 653.248 213.295 653.631C213.951 653.221 214.496 652.74 214.93 652.189H211.936C211.447 652.717 210.918 653.225 210.348 653.713C210.004 653.361 209.668 653.037 209.34 652.74C210.527 651.826 211.406 650.932 211.977 650.057ZM205.531 653.314H207.09V651.99C206.664 652.029 206.223 652.061 205.766 652.084C205.711 651.553 205.641 651.072 205.555 650.643C206.883 650.572 208.215 650.408 209.551 650.15L209.879 651.568C209.457 651.662 209.008 651.744 208.531 651.814V653.314H209.773V654.709H208.531V655.523L208.695 655.377C209.086 655.682 209.527 656.084 210.02 656.584L209.129 657.592C208.938 657.334 208.738 657.078 208.531 656.824V661.623H207.09V656.807C206.789 657.717 206.414 658.611 205.965 659.49C205.809 658.779 205.629 658.123 205.426 657.521C205.984 656.686 206.457 655.748 206.844 654.709H205.531V653.314Z" fill="#000023"/>
</g>
<g clip-path="url(#clip1)">
<path d="M117.531 758.68H123.703C123.776 757.544 123.807 756.232 123.797 754.742H126.172C126.141 756.289 126.099 757.602 126.047 758.68H132.5V760.836H126.227C127.122 764.315 129.286 766.654 132.719 767.852C131.979 768.695 131.385 769.414 130.938 770.008C128.099 768.674 126.122 766.526 125.008 763.562C124.143 766.276 122.146 768.461 119.016 770.117C118.599 769.586 118.01 768.919 117.25 768.117C121.042 766.398 123.117 763.971 123.477 760.836H117.531V758.68ZM133.219 761.086H135.234V759.211H133.469V757.273H135.234V754.789H137.234V757.273H139V759.211H137.234V761.086H139.219V763.039H137.188C137.172 763.32 137.148 763.594 137.117 763.859C137.857 764.542 138.693 765.367 139.625 766.336C139.052 766.878 138.583 767.357 138.219 767.773C137.854 767.31 137.37 766.729 136.766 766.031C136.385 767.667 135.771 769.055 134.922 770.195C134.255 769.477 133.677 768.893 133.188 768.445C134.307 767.232 134.966 765.43 135.164 763.039H133.219V761.086ZM139.625 765.18V755.336H147.781V765.008H145.75V757.352H141.656V765.18H139.625ZM146.812 765.555C147.604 765.94 148.255 766.232 148.766 766.43C148.562 767.961 148.333 768.919 148.078 769.305C147.823 769.69 147.354 769.883 146.672 769.883H145.266C144.068 769.883 143.469 769.32 143.469 768.195V766.391C142.703 767.958 141.391 769.232 139.531 770.211C139.167 769.69 138.693 769.096 138.109 768.43C140.078 767.487 141.326 766.37 141.852 765.078C142.378 763.786 142.641 761.534 142.641 758.32H144.719C144.698 760.586 144.547 762.445 144.266 763.898H145.328V767.445C145.328 767.862 145.51 768.07 145.875 768.07H146.047C146.297 768.07 146.461 767.953 146.539 767.719C146.622 767.484 146.714 766.763 146.812 765.555ZM164.625 766.664H161.062C162.052 767.414 163.302 767.904 164.812 768.133C164.49 768.716 164.146 769.388 163.781 770.148C161.875 769.586 160.422 768.591 159.422 767.164C158.63 768.56 157.161 769.586 155.016 770.242C154.682 769.596 154.281 768.982 153.812 768.398C155.625 768.023 156.87 767.445 157.547 766.664H154.219V765.148H158.297C158.359 764.909 158.401 764.643 158.422 764.352H155.062V762.664L153.859 763.852C153.62 763.487 153.365 763.112 153.094 762.727V770.102H151.156V763.492C150.75 764.596 150.26 765.643 149.688 766.633C149.583 765.914 149.417 764.961 149.188 763.773C149.938 762.503 150.531 761.138 150.969 759.68H149.344V757.836H151.156V754.773H153.094V757.836H154.547V759.68H153.094V760.57C153.833 761.258 154.49 761.893 155.062 762.477V758.742H164.062V764.352H160.391C160.37 764.633 160.339 764.898 160.297 765.148H164.625V766.664ZM162.125 762.977V762.117H157V762.977H162.125ZM162.125 760.133H157V760.961H162.125V760.133ZM162.531 758.367H160.688V757.492H158.297V758.367H156.453V757.492H154.438V755.945H156.453V754.773H158.297V755.945H160.688V754.773H162.531V755.945H164.688V757.492H162.531V758.367ZM167.438 754.773C168.198 755.732 168.932 756.711 169.641 757.711L167.703 758.945C167.109 757.977 166.427 756.935 165.656 755.82L167.438 754.773ZM176.312 766.992H174.094V762.602H169.906V760.602H174.094V757.711L170.609 757.898C170.495 757.315 170.333 756.638 170.125 755.867C173.188 755.753 176.391 755.544 179.734 755.242L180.203 757.273L176.312 757.57V760.602H180.531V762.602H176.312V766.992ZM180.766 767.492C180.495 768.211 180.24 768.93 180 769.648C177.062 769.648 174.557 769.628 172.484 769.586C170.411 769.544 168.943 768.997 168.078 767.945C167.688 768.367 167.052 769.065 166.172 770.039L165.234 767.727C165.573 767.378 166.161 766.826 167 766.07V762.148H165.438V760.086H169.094V766.25C170.057 767.151 171.464 767.602 173.312 767.602C177.682 767.602 180.167 767.565 180.766 767.492ZM189.969 754.742H192.172C191.896 755.159 191.604 755.565 191.297 755.961H196.297V757.445C195.177 759.055 193.745 760.362 192 761.367H193.531C193.271 761.721 193.005 762.06 192.734 762.383H196.625V763.93C194.708 767.378 191.573 769.445 187.219 770.133C186.854 769.32 186.521 768.685 186.219 768.227C187.958 768.013 189.461 767.62 190.727 767.047C190.315 766.693 189.875 766.336 189.406 765.977L190.766 764.805C191.24 765.169 191.781 765.602 192.391 766.102C193.214 765.518 193.891 764.82 194.422 764.008H191.203C190.078 765.06 188.859 765.919 187.547 766.586C187.182 766.044 186.802 765.539 186.406 765.07C188.25 764.18 189.727 763.148 190.836 761.977C189.867 762.424 188.818 762.794 187.688 763.086C187.427 762.534 187.109 761.956 186.734 761.352C187.958 761.107 189.057 760.781 190.031 760.375C189.63 760.031 189.208 759.685 188.766 759.336L190.078 758.164C190.583 758.549 191.133 758.997 191.727 759.508C192.602 758.961 193.328 758.32 193.906 757.586H189.914C189.263 758.289 188.557 758.966 187.797 759.617C187.339 759.148 186.891 758.716 186.453 758.32C188.036 757.102 189.208 755.909 189.969 754.742ZM181.375 759.086H183.453V757.32C182.885 757.372 182.297 757.414 181.688 757.445C181.615 756.737 181.521 756.096 181.406 755.523C183.177 755.43 184.953 755.211 186.734 754.867L187.172 756.758C186.609 756.883 186.01 756.992 185.375 757.086V759.086H187.031V760.945H185.375V762.031L185.594 761.836C186.115 762.242 186.703 762.779 187.359 763.445L186.172 764.789C185.917 764.445 185.651 764.104 185.375 763.766V770.164H183.453V763.742C183.052 764.956 182.552 766.148 181.953 767.32C181.745 766.372 181.505 765.497 181.234 764.695C181.979 763.581 182.609 762.331 183.125 760.945H181.375V759.086Z" fill="#00E599"/>
<path d="M95.904 756.28C96.9707 756.28 97.888 756.499 98.656 756.936C99.4347 757.363 100.032 757.981 100.448 758.792C100.864 759.603 101.072 760.579 101.072 761.72C101.072 762.861 100.864 763.837 100.448 764.648C100.032 765.459 99.4347 766.083 98.656 766.52C97.888 766.947 96.9707 767.16 95.904 767.16C94.8267 767.16 93.8987 766.947 93.12 766.52C92.352 766.083 91.76 765.459 91.344 764.648C90.928 763.837 90.72 762.861 90.72 761.72C90.72 760.579 90.928 759.603 91.344 758.792C91.76 757.981 92.352 757.363 93.12 756.936C93.8987 756.499 94.8267 756.28 95.904 756.28ZM95.904 758.44C95.136 758.44 94.5493 758.717 94.144 759.272C93.7387 759.816 93.536 760.632 93.536 761.72C93.536 762.808 93.7387 763.629 94.144 764.184C94.5493 764.728 95.136 765 95.904 765C96.6613 765 97.2427 764.728 97.648 764.184C98.0533 763.629 98.256 762.808 98.256 761.72C98.256 760.632 98.0533 759.816 97.648 759.272C97.2427 758.717 96.6613 758.44 95.904 758.44ZM106.613 767.16C105.482 767.16 104.544 766.941 103.797 766.504C103.05 766.056 102.528 765.405 102.229 764.552L104.757 763.464C104.821 764.04 105.002 764.445 105.301 764.68C105.61 764.915 106.01 765.032 106.501 765.032C106.938 765.032 107.285 764.92 107.541 764.696C107.797 764.461 107.925 764.147 107.925 763.752C107.925 763.347 107.802 763.053 107.557 762.872C107.312 762.691 106.965 762.6 106.517 762.6C106.261 762.6 106 762.616 105.733 762.648V760.856C105.818 760.867 105.904 760.877 105.989 760.888C106.074 760.888 106.176 760.888 106.293 760.888C106.784 760.888 107.141 760.787 107.365 760.584C107.589 760.371 107.701 760.04 107.701 759.592C107.701 759.208 107.589 758.915 107.365 758.712C107.152 758.509 106.848 758.408 106.453 758.408C106.026 758.408 105.68 758.52 105.413 758.744C105.157 758.968 104.992 759.336 104.917 759.848L102.501 759.016C102.618 758.429 102.869 757.933 103.253 757.528C103.637 757.123 104.117 756.813 104.693 756.6C105.28 756.387 105.925 756.28 106.629 756.28C107.834 756.28 108.757 756.541 109.397 757.064C110.048 757.587 110.373 758.291 110.373 759.176C110.373 759.635 110.298 760.019 110.149 760.328C110.01 760.637 109.829 760.888 109.605 761.08C109.392 761.272 109.173 761.416 108.949 761.512C108.725 761.597 108.538 761.651 108.389 761.672V761.72C108.581 761.72 108.8 761.757 109.045 761.832C109.29 761.907 109.53 762.029 109.765 762.2C110 762.371 110.192 762.6 110.341 762.888C110.501 763.165 110.581 763.517 110.581 763.944C110.581 764.605 110.405 765.176 110.053 765.656C109.712 766.136 109.242 766.509 108.645 766.776C108.048 767.032 107.37 767.16 106.613 767.16Z" fill="white"/>
</g>
<path d="M133.02 748.316C133.504 748.629 134.074 748.785 134.73 748.785C136.195 748.785 136.943 747.832 136.975 745.926L136.939 745.914C136.541 746.527 135.926 746.834 135.094 746.834C134.34 746.834 133.719 746.57 133.23 746.043C132.746 745.512 132.504 744.844 132.504 744.039C132.504 743.094 132.797 742.326 133.383 741.736C133.969 741.146 134.732 740.852 135.674 740.852C136.654 740.852 137.424 741.225 137.982 741.971C138.541 742.717 138.82 743.758 138.82 745.094C138.82 746.68 138.482 747.934 137.807 748.855C137.135 749.777 136.166 750.238 134.9 750.238C134.186 750.238 133.559 750.123 133.02 749.893V748.316ZM134.361 743.869C134.361 744.35 134.477 744.727 134.707 745C134.941 745.273 135.26 745.41 135.662 745.41C136.021 745.41 136.316 745.279 136.547 745.018C136.781 744.756 136.898 744.432 136.898 744.045C136.898 743.58 136.781 743.174 136.547 742.826C136.316 742.479 136.006 742.305 135.615 742.305C135.236 742.305 134.932 742.455 134.701 742.756C134.475 743.057 134.361 743.428 134.361 743.869ZM144.926 751.703C144.41 751.242 143.902 750.812 143.402 750.414C144.102 749.707 144.543 749.012 144.727 748.328C144.914 747.641 145.008 746.598 145.008 745.199V740.641H153.633V749.395C153.633 750.078 153.488 750.598 153.199 750.953C152.91 751.309 152.508 751.502 151.992 751.533C151.48 751.564 150.621 751.574 149.414 751.562C149.297 750.953 149.145 750.352 148.957 749.758C149.73 749.805 150.406 749.828 150.984 749.828C151.594 749.828 151.898 749.543 151.898 748.973V748.129H146.631C146.537 748.988 146.35 749.674 146.068 750.186C145.791 750.697 145.41 751.203 144.926 751.703ZM151.898 742.223H146.742V743.594H151.898V742.223ZM146.725 746.547H151.898V745.176H146.742C146.742 745.402 146.736 745.859 146.725 746.547ZM163.646 740.805V750.08H161.742V742.938C161.508 743.141 161.188 743.324 160.781 743.488C160.375 743.648 160.002 743.748 159.662 743.787V742.164C160.732 741.852 161.658 741.398 162.439 740.805H163.646ZM170.941 751.539V740.758H180.199V751.539H178.395V750.719H172.746V751.539H170.941ZM178.395 742.422H172.746V744.883H178.395V742.422ZM172.746 749.055H178.395V746.5H172.746V749.055Z" fill="white"/>
<g clip-path="url(#clip2)">
<path d="M144.344 363.398H150.812V360.477H146V358.445H150.812V355.617H145.25V353.555H151.305C150.956 352.867 150.562 352.19 150.125 351.523L152.266 350.555C152.734 351.242 153.203 352.008 153.672 352.852L152.164 353.555H158.812V355.617H153.172V358.445H158.094V360.477H153.172V363.398H159.656V365.492H144.344V363.398ZM164.453 353.852L165.836 356.688C166.247 355.755 166.635 354.784 167 353.773L168.055 354.258L168.891 353.883L170.156 356.625C170.547 355.693 170.922 354.721 171.281 353.711L172.969 354.43C172.443 355.992 171.859 357.492 171.219 358.93L172.859 362.586L171.094 363.461L170.148 361.18C169.643 362.18 169.115 363.148 168.562 364.086C168.328 363.904 168.096 363.729 167.867 363.562L167.031 363.977L165.82 361.102C165.221 362.232 164.594 363.284 163.938 364.258C163.677 364.013 163.359 363.737 162.984 363.43V366.023H160.891V351.305H175.094V363.305C175.094 364.112 174.94 364.732 174.633 365.164C174.326 365.602 173.893 365.857 173.336 365.93C172.784 366.003 171.75 366.039 170.234 366.039C170.089 365.195 169.927 364.466 169.75 363.852C170.49 363.924 171.24 363.961 172 363.961C172.667 363.961 173 363.633 173 362.977V353.258H162.984V354.617L164.453 353.852ZM162.984 354.93V362.062C163.635 361.052 164.247 359.977 164.82 358.836C164.206 357.471 163.594 356.169 162.984 354.93ZM168.039 356.281C167.674 357.203 167.294 358.089 166.898 358.938L167.984 361.273C168.391 360.508 168.786 359.711 169.172 358.883L168.039 356.281Z" fill="#00E599"/>
<path d="M120.904 352.28C121.971 352.28 122.888 352.499 123.656 352.936C124.435 353.363 125.032 353.981 125.448 354.792C125.864 355.603 126.072 356.579 126.072 357.72C126.072 358.861 125.864 359.837 125.448 360.648C125.032 361.459 124.435 362.083 123.656 362.52C122.888 362.947 121.971 363.16 120.904 363.16C119.827 363.16 118.899 362.947 118.12 362.52C117.352 362.083 116.76 361.459 116.344 360.648C115.928 359.837 115.72 358.861 115.72 357.72C115.72 356.579 115.928 355.603 116.344 354.792C116.76 353.981 117.352 353.363 118.12 352.936C118.899 352.499 119.827 352.28 120.904 352.28ZM120.904 354.44C120.136 354.44 119.549 354.717 119.144 355.272C118.739 355.816 118.536 356.632 118.536 357.72C118.536 358.808 118.739 359.629 119.144 360.184C119.549 360.728 120.136 361 120.904 361C121.661 361 122.243 360.728 122.648 360.184C123.053 359.629 123.256 358.808 123.256 357.72C123.256 356.632 123.053 355.816 122.648 355.272C122.243 354.717 121.661 354.44 120.904 354.44ZM127.757 363V361.24C128.962 360.483 129.933 359.795 130.669 359.176C131.416 358.547 131.96 357.96 132.301 357.416C132.642 356.872 132.813 356.355 132.813 355.864C132.813 355.459 132.69 355.123 132.445 354.856C132.21 354.579 131.858 354.44 131.389 354.44C130.888 354.44 130.493 354.627 130.205 355C129.928 355.363 129.784 355.896 129.773 356.6L127.421 355.88C127.442 355.101 127.629 354.445 127.981 353.912C128.344 353.368 128.834 352.963 129.453 352.696C130.072 352.419 130.776 352.28 131.565 352.28C132.493 352.28 133.25 352.451 133.837 352.792C134.424 353.123 134.856 353.549 135.133 354.072C135.41 354.584 135.549 355.117 135.549 355.672C135.549 356.696 135.16 357.629 134.381 358.472C133.602 359.304 132.498 360.131 131.069 360.952V360.968C131.336 360.947 131.672 360.931 132.077 360.92C132.493 360.909 132.866 360.904 133.197 360.904H135.677V363H127.757Z" fill="white"/>
</g>
<path d="M135.504 345.557C135.504 345.029 135.656 344.561 135.961 344.15C136.266 343.74 136.707 343.439 137.285 343.248C136.824 343.018 136.467 342.725 136.213 342.369C135.963 342.014 135.838 341.619 135.838 341.186C135.838 340.732 135.961 340.322 136.207 339.955C136.457 339.584 136.805 339.295 137.25 339.088C137.695 338.877 138.193 338.771 138.744 338.771C139.299 338.771 139.801 338.875 140.25 339.082C140.699 339.285 141.049 339.572 141.299 339.943C141.549 340.311 141.674 340.717 141.674 341.162C141.674 341.584 141.535 341.977 141.258 342.34C140.984 342.703 140.615 342.99 140.15 343.201C140.717 343.396 141.158 343.699 141.475 344.109C141.791 344.516 141.949 344.992 141.949 345.539C141.949 346.309 141.65 346.936 141.053 347.42C140.455 347.904 139.68 348.146 138.727 348.146C137.773 348.146 136.998 347.904 136.4 347.42C135.803 346.936 135.504 346.314 135.504 345.557ZM137.396 345.387C137.396 345.809 137.518 346.146 137.76 346.4C138.002 346.654 138.326 346.781 138.732 346.781C139.123 346.781 139.443 346.654 139.693 346.4C139.943 346.146 140.068 345.809 140.068 345.387C140.068 344.992 139.941 344.664 139.688 344.402C139.434 344.137 139.115 344.004 138.732 344.004C138.338 344.004 138.016 344.137 137.766 344.402C137.52 344.664 137.396 344.992 137.396 345.387ZM137.678 341.379C137.678 341.711 137.779 341.996 137.982 342.234C138.189 342.469 138.449 342.586 138.762 342.586C139.062 342.586 139.318 342.471 139.529 342.24C139.74 342.01 139.846 341.723 139.846 341.379C139.846 341.035 139.742 340.744 139.535 340.506C139.332 340.268 139.074 340.148 138.762 340.148C138.441 340.148 138.18 340.268 137.977 340.506C137.777 340.744 137.678 341.035 137.678 341.379ZM147.926 349.623C147.41 349.162 146.902 348.732 146.402 348.334C147.102 347.627 147.543 346.932 147.727 346.248C147.914 345.561 148.008 344.518 148.008 343.119V338.561H156.633V347.314C156.633 347.998 156.488 348.518 156.199 348.873C155.91 349.229 155.508 349.422 154.992 349.453C154.48 349.484 153.621 349.494 152.414 349.482C152.297 348.873 152.145 348.271 151.957 347.678C152.73 347.725 153.406 347.748 153.984 347.748C154.594 347.748 154.898 347.463 154.898 346.893V346.049H149.631C149.537 346.908 149.35 347.594 149.068 348.105C148.791 348.617 148.41 349.123 147.926 349.623ZM154.898 340.143H149.742V341.514H154.898V340.143ZM149.725 344.467H154.898V343.096H149.742C149.742 343.322 149.736 343.779 149.725 344.467ZM164.367 346.424H168.217V348H162.182V347.326C162.182 346.854 162.268 346.422 162.439 346.031C162.615 345.641 162.855 345.277 163.16 344.941C163.465 344.602 163.938 344.205 164.578 343.752C165.164 343.314 165.574 342.928 165.809 342.592C166.043 342.252 166.16 341.893 166.16 341.514C166.16 340.697 165.715 340.289 164.824 340.289C164.043 340.289 163.297 340.602 162.586 341.227V339.539C163.379 339.027 164.27 338.771 165.258 338.771C166.164 338.771 166.881 339.004 167.408 339.469C167.936 339.93 168.199 340.566 168.199 341.379C168.199 341.832 168.123 342.242 167.971 342.609C167.818 342.973 167.598 343.314 167.309 343.635C167.02 343.955 166.557 344.34 165.92 344.789C165.307 345.227 164.895 345.564 164.684 345.803C164.473 346.041 164.367 346.248 164.367 346.424ZM173.941 349.459V338.678H183.199V349.459H181.395V348.639H175.746V349.459H173.941ZM181.395 340.342H175.746V342.803H181.395V340.342ZM175.746 346.975H181.395V344.42H175.746V346.975Z" fill="white"/>
<g clip-path="url(#clip3)">
<path d="M76.904 55.28C77.9707 55.28 78.888 55.4987 79.656 55.936C80.4347 56.3627 81.032 56.9813 81.448 57.792C81.864 58.6027 82.072 59.5787 82.072 60.72C82.072 61.8613 81.864 62.8373 81.448 63.648C81.032 64.4587 80.4347 65.0827 79.656 65.52C78.888 65.9467 77.9707 66.16 76.904 66.16C75.8267 66.16 74.8987 65.9467 74.12 65.52C73.352 65.0827 72.76 64.4587 72.344 63.648C71.928 62.8373 71.72 61.8613 71.72 60.72C71.72 59.5787 71.928 58.6027 72.344 57.792C72.76 56.9813 73.352 56.3627 74.12 55.936C74.8987 55.4987 75.8267 55.28 76.904 55.28ZM76.904 57.44C76.136 57.44 75.5493 57.7173 75.144 58.272C74.7387 58.816 74.536 59.632 74.536 60.72C74.536 61.808 74.7387 62.6293 75.144 63.184C75.5493 63.728 76.136 64 76.904 64C77.6613 64 78.2427 63.728 78.648 63.184C79.0533 62.6293 79.256 61.808 79.256 60.72C79.256 59.632 79.0533 58.816 78.648 58.272C78.2427 57.7173 77.6613 57.44 76.904 57.44ZM85.8529 66V59.92C85.8529 59.6427 85.8529 59.36 85.8529 59.072C85.8635 58.7733 85.8689 58.4693 85.8689 58.16C85.5169 58.4907 85.1222 58.7733 84.6849 59.008C84.2582 59.2427 83.8155 59.4027 83.3569 59.488L83.1009 57.216C83.4635 57.1733 83.8582 57.0613 84.2849 56.88C84.7222 56.6987 85.1275 56.48 85.5009 56.224C85.8742 55.9573 86.1462 55.696 86.3169 55.44H88.5089V66H85.8529Z" fill="white"/>
<path d="M111.844 66.2422H114.125V58.5078H116.438V66.2422H119.141V56.8047H112.469V54.6641H126.641V56.8047H121.5V60.2266H126.094V62.3516H121.5V66.2422H127.156V68.3828H111.844V66.2422ZM127.75 56.4453H135.875L135.703 53.6953H138.047C138.073 54.6172 138.112 55.5339 138.164 56.4453H140.312C139.865 55.862 139.422 55.3359 138.984 54.8672L140.375 53.8203C140.99 54.4557 141.583 55.1172 142.156 55.8047L141.328 56.4453H142.922V58.5078H138.305C138.539 61.8984 138.852 64.125 139.242 65.1875C139.638 66.2448 140.01 66.7734 140.359 66.7734C140.453 66.7734 140.539 66.7188 140.617 66.6094C140.695 66.5 140.786 66.1901 140.891 65.6797C141 65.1641 141.104 64.4818 141.203 63.6328C141.922 64.0911 142.604 64.4557 143.25 64.7266C142.969 66.6797 142.625 67.9036 142.219 68.3984C141.812 68.8984 141.198 69.1484 140.375 69.1484C138.906 69.1484 137.878 68.3255 137.289 66.6797C136.701 65.0339 136.279 62.3099 136.023 58.5078H127.75V56.4453ZM128.438 60.2109H135.5V62.2578H133.156V65.2969L136.25 64.8359C136.219 65.8568 136.208 66.6068 136.219 67.0859L128 68.2891L127.734 65.9609L130.922 65.5859V62.2578H128.438V60.2109ZM147.766 64.2891V55.8125L146.359 57.3359C145.682 56.6589 144.927 55.9557 144.094 55.2266L145.375 53.7891C146.109 54.3203 146.906 54.9635 147.766 55.7188V54.4609H153.781V64.2109H152.156V56.1797H149.391V64.2891H147.766ZM156.859 53.9141H158.672V66.8516C158.672 67.4036 158.552 67.8411 158.312 68.1641C158.078 68.487 157.766 68.6875 157.375 68.7656C156.984 68.849 156.193 68.8828 155 68.8672C154.917 68.1693 154.755 67.4401 154.516 66.6797C155.089 66.7422 155.635 66.7734 156.156 66.7734C156.625 66.7734 156.859 66.4922 156.859 65.9297V53.9141ZM154.516 55.0703H156.109V65.5234H154.516V55.0703ZM150.047 57.2422H151.484V61.2578C151.484 62.987 151.284 64.3932 150.883 65.4766L151.922 64.6641C152.807 65.5807 153.625 66.4714 154.375 67.3359L152.828 68.5547C152.172 67.612 151.479 66.6953 150.75 65.8047C150.271 66.9505 149.438 68.0495 148.25 69.1016C147.771 68.4141 147.328 67.8516 146.922 67.4141C148.109 66.5859 148.927 65.6823 149.375 64.7031C149.823 63.7188 150.047 62.4609 150.047 60.9297V57.2422ZM145 57.9453C145.812 58.5391 146.635 59.1953 147.469 59.9141L146.062 61.6016C145.448 61.0078 144.667 60.2839 143.719 59.4297L145 57.9453ZM145.531 62.4141C146.271 62.7266 146.922 62.9714 147.484 63.1484L146 69.0547C145.26 68.7839 144.594 68.5703 144 68.4141C144.542 66.6953 145.052 64.6953 145.531 62.4141ZM164 56.7109H169.688L169.625 53.7266H171.75L171.789 56.7109H173.328C172.677 55.8307 172.188 55.2109 171.859 54.8516L173.172 53.8203C173.859 54.5391 174.438 55.1901 174.906 55.7734L173.695 56.7109H175.125V58.7734H171.859C171.927 60.4245 172.023 61.8151 172.148 62.9453C172.273 64.0703 172.406 64.9297 172.547 65.5234C172.688 66.112 172.784 66.4531 172.836 66.5469C172.888 66.6354 172.958 66.6797 173.047 66.6797C173.229 66.6328 173.391 65.8099 173.531 64.2109C174.24 64.4922 174.849 64.7109 175.359 64.8672C175.141 66.6276 174.849 67.7812 174.484 68.3281C174.12 68.875 173.63 69.1484 173.016 69.1484C172.37 69.1484 171.841 68.9349 171.43 68.5078C171.023 68.0859 170.682 67.2005 170.406 65.8516C170.13 64.5026 169.917 62.1432 169.766 58.7734H164V56.7109ZM161.828 53.8516C162.536 54.7891 163.198 55.7422 163.812 56.7109L161.984 57.8203C161.432 56.8099 160.818 55.8203 160.141 54.8516L161.828 53.8516ZM164.234 60.3984H169.375V62.4297H167.844V65.6953L169.719 65.4141C169.677 66.4036 169.667 67.1276 169.688 67.5859C169.021 67.6797 167.255 67.9661 164.391 68.4453L164.094 67.1016C163.125 67.8151 162.359 68.4505 161.797 69.0078L160.672 67.4766C160.943 67.1328 161.078 66.6953 161.078 66.1641V60.6797H159.75V58.6484H163.141V65.2422C163.557 64.9297 164.047 64.5807 164.609 64.1953C164.625 64.4714 164.701 65.1146 164.836 66.125L165.781 65.9922V62.4297H164.234V60.3984ZM179.953 56.8516L181.336 59.6875C181.747 58.7552 182.135 57.7839 182.5 56.7734L183.555 57.2578L184.391 56.8828L185.656 59.625C186.047 58.6927 186.422 57.7214 186.781 56.7109L188.469 57.4297C187.943 58.9922 187.359 60.4922 186.719 61.9297L188.359 65.5859L186.594 66.4609L185.648 64.1797C185.143 65.1797 184.615 66.1484 184.062 67.0859C183.828 66.9036 183.596 66.7292 183.367 66.5625L182.531 66.9766L181.32 64.1016C180.721 65.2318 180.094 66.2839 179.438 67.2578C179.177 67.013 178.859 66.737 178.484 66.4297V69.0234H176.391V54.3047H190.594V66.3047C190.594 67.112 190.44 67.7318 190.133 68.1641C189.826 68.6016 189.393 68.8568 188.836 68.9297C188.284 69.0026 187.25 69.0391 185.734 69.0391C185.589 68.1953 185.427 67.4661 185.25 66.8516C185.99 66.9245 186.74 66.9609 187.5 66.9609C188.167 66.9609 188.5 66.6328 188.5 65.9766V56.2578H178.484V57.6172L179.953 56.8516ZM178.484 57.9297V65.0625C179.135 64.0521 179.747 62.9766 180.32 61.8359C179.706 60.4714 179.094 59.1693 178.484 57.9297ZM183.539 59.2812C183.174 60.2031 182.794 61.0885 182.398 61.9375L183.484 64.2734C183.891 63.5078 184.286 62.7109 184.672 61.8828L183.539 59.2812Z" fill="#00E599"/>
</g>
<path d="M122.92 41.0781C122.186 42.3945 121.637 43.4551 121.273 44.2598C120.914 45.0645 120.621 45.8477 120.395 46.6094C120.168 47.3711 119.994 48.168 119.873 49H117.84C118.035 47.8164 118.379 46.6191 118.871 45.4082C119.367 44.1934 120.051 42.8848 120.922 41.4824H116.592V39.9238H122.92V41.0781ZM128.955 50.623C128.439 50.1621 127.932 49.7324 127.432 49.334C128.131 48.627 128.572 47.9316 128.756 47.248C128.943 46.5605 129.037 45.5176 129.037 44.1191V39.5605H137.662V48.3145C137.662 48.998 137.518 49.5176 137.229 49.873C136.939 50.2285 136.537 50.4219 136.021 50.4531C135.51 50.4844 134.65 50.4941 133.443 50.4824C133.326 49.873 133.174 49.2715 132.986 48.6777C133.76 48.7246 134.436 48.748 135.014 48.748C135.623 48.748 135.928 48.4629 135.928 47.8926V47.0488H130.66C130.566 47.9082 130.379 48.5938 130.098 49.1055C129.82 49.6172 129.439 50.123 128.955 50.623ZM135.928 41.1426H130.771V42.5137H135.928V41.1426ZM130.754 45.4668H135.928V44.0957H130.771C130.771 44.3223 130.766 44.7793 130.754 45.4668ZM145.396 47.4238H149.246V49H143.211V48.3262C143.211 47.8535 143.297 47.4219 143.469 47.0312C143.645 46.6406 143.885 46.2773 144.189 45.9414C144.494 45.6016 144.967 45.2051 145.607 44.752C146.193 44.3145 146.604 43.9277 146.838 43.5918C147.072 43.252 147.189 42.8926 147.189 42.5137C147.189 41.6973 146.744 41.2891 145.854 41.2891C145.072 41.2891 144.326 41.6016 143.615 42.2266V40.5391C144.408 40.0273 145.299 39.7715 146.287 39.7715C147.193 39.7715 147.91 40.0039 148.438 40.4688C148.965 40.9297 149.229 41.5664 149.229 42.3789C149.229 42.832 149.152 43.2422 149 43.6094C148.848 43.9727 148.627 44.3145 148.338 44.6348C148.049 44.9551 147.586 45.3398 146.949 45.7891C146.336 46.2266 145.924 46.5645 145.713 46.8027C145.502 47.041 145.396 47.248 145.396 47.4238ZM150.447 44.6113C150.447 43.041 150.736 41.8418 151.314 41.0137C151.893 40.1855 152.729 39.7715 153.822 39.7715C155.908 39.7715 156.951 41.3145 156.951 44.4004C156.951 45.9199 156.668 47.0938 156.102 47.9219C155.535 48.7461 154.717 49.1582 153.646 49.1582C151.514 49.1582 150.447 47.6426 150.447 44.6113ZM152.363 44.5645C152.363 46.6582 152.811 47.7051 153.705 47.7051C154.584 47.7051 155.023 46.627 155.023 44.4707C155.023 42.3066 154.596 41.2246 153.74 41.2246C152.822 41.2246 152.363 42.3379 152.363 44.5645ZM162.377 50.459V39.6777H171.635V50.459H169.83V49.6387H164.182V50.459H162.377ZM169.83 41.3418H164.182V43.8027H169.83V41.3418ZM164.182 47.9746H169.83V45.4199H164.182V47.9746ZM179.123 44.4238H177.658V45.7246H178.971V47.166H177.658V48.6484C178.041 48.6953 178.852 48.7188 180.09 48.7188C181.27 48.7188 182.842 48.6973 184.807 48.6543C184.604 49.1621 184.416 49.7168 184.244 50.3184C181.123 50.3184 178.939 50.2812 177.693 50.207C176.451 50.1328 175.559 49.6484 175.016 48.7539C174.852 49.457 174.635 50.0723 174.365 50.5996C174.076 50.2793 173.666 49.8379 173.135 49.2754C173.643 48.2598 173.893 46.7988 173.885 44.8926H175.385C175.385 45.5762 175.359 46.2168 175.309 46.8145C175.504 47.3027 175.775 47.6953 176.123 47.9922V44.4238H173.17V42.9824H175.455V41.9043H173.568V40.4629H175.455V38.9629H177.061V40.4629H178.795V41.9043H177.061V42.9824H179.123V44.4238ZM183.037 44.5996C183.686 44.8809 184.221 45.0918 184.643 45.2324C184.533 46.1621 184.408 46.7676 184.268 47.0488C184.041 47.7285 183.443 48.0684 182.475 48.0684H181.08C180.018 48.0684 179.486 47.5059 179.486 46.3809V42.7363H182.463V41.0488H179.252V39.6191H184.057V44.166H181.08V46.0996C181.08 46.459 181.275 46.6387 181.666 46.6387H182.205C182.521 46.6387 182.729 46.5508 182.826 46.375C182.928 46.1992 182.998 45.6074 183.037 44.5996Z" fill="white"/>
<defs>
<linearGradient id="paint0_linear" x1="158.809" y1="117.424" x2="158.809" y2="238.728" gradientUnits="userSpaceOnUse">
<stop stop-color="#192E49"/>
<stop offset="1" stop-color="#142436"/>
</linearGradient>
<linearGradient id="paint1_linear" x1="158.325" y1="138.808" x2="158.325" y2="226.44" gradientUnits="userSpaceOnUse">
<stop stop-color="#192E49"/>
<stop offset="1" stop-color="#142436"/>
</linearGradient>
<linearGradient id="paint2_linear" x1="158.809" y1="416.424" x2="158.809" y2="537.728" gradientUnits="userSpaceOnUse">
<stop stop-color="#192E49"/>
<stop offset="1" stop-color="#142436"/>
</linearGradient>
<linearGradient id="paint3_linear" x1="159.039" y1="437.808" x2="159.039" y2="525.44" gradientUnits="userSpaceOnUse">
<stop stop-color="#192E49"/>
<stop offset="1" stop-color="#142436"/>
</linearGradient>
<linearGradient id="paint4_linear" x1="158.809" y1="815.424" x2="158.809" y2="936.728" gradientUnits="userSpaceOnUse">
<stop stop-color="#192E49"/>
<stop offset="1" stop-color="#142436"/>
</linearGradient>
<linearGradient id="paint5_linear" x1="159.039" y1="836.808" x2="159.039" y2="924.44" gradientUnits="userSpaceOnUse">
<stop stop-color="#192E49"/>
<stop offset="1" stop-color="#142436"/>
</linearGradient>
<clipPath id="clip0">
<rect width="135.66" height="32.8645" fill="white" transform="translate(91.3207 636.08)"/>
</clipPath>
<clipPath id="clip1">
<rect width="170" height="19" fill="white" transform="translate(90 752)"/>
</clipPath>
<clipPath id="clip2">
<rect width="108" height="19" fill="white" transform="translate(115 348)"/>
</clipPath>
<clipPath id="clip3">
<rect width="161" height="19" fill="white" transform="translate(71 51)"/>
</clipPath>
</defs>
</svg>
