<svg width="709" height="136" viewBox="0 0 709 136" fill="none" xmlns="http://www.w3.org/2000/svg">
<path d="M3.50071 27.5H704.499" stroke="#6BE599" stroke-linecap="round" stroke-dasharray="1 9"/>
<circle cx="493.5" cy="26.5" r="18.5" fill="#40405A"/>
<circle cx="494" cy="27" r="27" fill="white" fill-opacity="0.15"/>
<circle cx="74" cy="27" r="12.5" stroke="#00E599"/>
<circle cx="354" cy="27" r="12.5" stroke="#00E599"/>
<circle cx="494" cy="27" r="12" stroke="white" stroke-width="2" stroke-dasharray="4"/>
<circle cx="635" cy="27" r="12.5" stroke="#00E599"/>
<circle cx="4" cy="27" r="4" fill="#00E599"/>
<circle cx="74" cy="27" r="4" fill="#00E599"/>
<circle cx="144" cy="27" r="4" fill="#00E599"/>
<circle cx="214" cy="27" r="4" fill="#00E599"/>
<circle cx="284" cy="27" r="4" fill="#00E599"/>
<circle cx="354" cy="27" r="4" fill="#00E599"/>
<circle cx="424" cy="27" r="4" fill="#00E599"/>
<circle cx="494" cy="27" r="4" fill="white"/>
<circle cx="565" cy="27" r="4" fill="#00E599"/>
<circle cx="635" cy="27" r="4" fill="#00E599"/>
<circle cx="705" cy="27" r="4" fill="#00E599"/>
<path d="M494.5 30V79" stroke="white"/>
<path fill-rule="evenodd" clip-rule="evenodd" d="M517.651 134.455C517.097 135.025 516.414 135.31 515.605 135.31H475.302C474.792 135.31 474.312 135.182 473.862 134.927C473.412 134.672 473.06 134.32 472.805 133.87C472.55 133.421 472.423 132.941 472.423 132.431V96.446C472.423 95.6363 472.7 94.9541 473.255 94.3994C473.81 93.8446 474.492 93.5672 475.302 93.5672H486.817V90.6884C486.817 90.2986 486.959 89.9612 487.244 89.6763C487.529 89.3915 487.866 89.249 488.256 89.249C488.646 89.249 488.983 89.3915 489.268 89.6763C489.553 89.9612 489.696 90.2986 489.696 90.6884V93.5672H501.211V90.6884C501.211 90.2986 501.353 89.9612 501.638 89.6763C501.923 89.3915 502.26 89.249 502.65 89.249C503.04 89.249 503.377 89.3915 503.662 89.6763C503.947 89.9612 504.09 90.2986 504.09 90.6884V93.5672H515.605C516.115 93.5672 516.594 93.6947 517.044 93.9496C517.494 94.2044 517.846 94.5493 518.101 94.9841C518.356 95.4189 518.484 95.9062 518.484 96.446V132.431C518.484 133.211 518.206 133.885 517.651 134.455ZM475.302 132.431H515.605V96.446H504.09V97.8854C504.09 98.2752 503.947 98.6126 503.662 98.8975C503.377 99.1824 503.04 99.3248 502.65 99.3248C502.26 99.3248 501.923 99.1824 501.638 98.8975C501.353 98.6126 501.211 98.2752 501.211 97.8854V96.446H489.696V97.8854C489.696 98.2752 489.553 98.6126 489.268 98.8975C488.983 99.1824 488.646 99.3248 488.256 99.3248C487.866 99.3248 487.529 99.1824 487.244 98.8975C486.959 98.6126 486.817 98.2752 486.817 97.8854V96.446H475.302V132.431Z" fill="white"/>
<rect x="530" y="94" width="125" height="41" fill="white"/>
<path d="M548.039 108.695L547.086 112.438H544.914L546.469 108.695H548.039ZM544.633 108.695L543.711 112.438H541.508L543.055 108.695H544.633ZM552.438 118.023H558.844V116.492H553.844V108.242H566.188V116.492H561.188V118.023H567.609V120.008H561.188V123.07H558.844V120.008H552.438V118.023ZM564 110.133H556.031V111.461H564V110.133ZM564 114.602V113.273H556.031V114.602H564ZM576.562 112.617L577.625 111.242C578.469 111.773 579.286 112.305 580.078 112.836L580.047 112.875C581.068 112.906 581.661 112.898 581.828 112.852C582 112.799 582.12 112.682 582.188 112.5C582.26 112.312 582.318 111.773 582.359 110.883H575.312V115.398H586.203C586.083 118.049 585.977 119.708 585.883 120.375C585.794 121.036 585.586 121.581 585.258 122.008C584.93 122.435 584.482 122.703 583.914 122.812C583.352 122.922 581.964 122.977 579.75 122.977C579.635 122.32 579.464 121.534 579.234 120.617C580.578 120.721 581.594 120.773 582.281 120.773C582.734 120.773 583.086 120.667 583.336 120.453C583.586 120.234 583.734 119.914 583.781 119.492C583.833 119.065 583.88 118.305 583.922 117.211H573.141V109.07H576.383C576.549 108.581 576.708 108.081 576.859 107.57L579.375 108.039C579.214 108.383 579.044 108.727 578.867 109.07H584.578C584.552 111.013 584.479 112.276 584.359 112.859C584.24 113.443 583.99 113.914 583.609 114.273C583.234 114.633 582.078 114.799 580.141 114.773C580.021 114.242 579.893 113.74 579.758 113.266L578.938 114.367C578.25 113.826 577.458 113.242 576.562 112.617ZM571.297 118.242H582.75V120.055H571.297V118.242ZM597.492 108.695L595.938 112.438H594.352L595.297 108.695H597.492ZM594.102 108.695L592.523 112.438H590.961L591.914 108.695H594.102ZM611.438 107.773C612.198 108.732 612.932 109.711 613.641 110.711L611.703 111.945C611.109 110.977 610.427 109.935 609.656 108.82L611.438 107.773ZM620.312 119.992H618.094V115.602H613.906V113.602H618.094V110.711L614.609 110.898C614.495 110.315 614.333 109.638 614.125 108.867C617.188 108.753 620.391 108.544 623.734 108.242L624.203 110.273L620.312 110.57V113.602H624.531V115.602H620.312V119.992ZM624.766 120.492C624.495 121.211 624.24 121.93 624 122.648C621.062 122.648 618.557 122.628 616.484 122.586C614.411 122.544 612.943 121.997 612.078 120.945C611.688 121.367 611.052 122.065 610.172 123.039L609.234 120.727C609.573 120.378 610.161 119.826 611 119.07V115.148H609.438V113.086H613.094V119.25C614.057 120.151 615.464 120.602 617.312 120.602C621.682 120.602 624.167 120.565 624.766 120.492ZM636.969 107.742H639.172C638.896 108.159 638.604 108.565 638.297 108.961H643.297V110.445C642.177 112.055 640.745 113.362 639 114.367H640.531C640.271 114.721 640.005 115.06 639.734 115.383H643.625V116.93C641.708 120.378 638.573 122.445 634.219 123.133C633.854 122.32 633.521 121.685 633.219 121.227C634.958 121.013 636.461 120.62 637.727 120.047C637.315 119.693 636.875 119.336 636.406 118.977L637.766 117.805C638.24 118.169 638.781 118.602 639.391 119.102C640.214 118.518 640.891 117.82 641.422 117.008H638.203C637.078 118.06 635.859 118.919 634.547 119.586C634.182 119.044 633.802 118.539 633.406 118.07C635.25 117.18 636.727 116.148 637.836 114.977C636.867 115.424 635.818 115.794 634.688 116.086C634.427 115.534 634.109 114.956 633.734 114.352C634.958 114.107 636.057 113.781 637.031 113.375C636.63 113.031 636.208 112.685 635.766 112.336L637.078 111.164C637.583 111.549 638.133 111.997 638.727 112.508C639.602 111.961 640.328 111.32 640.906 110.586H636.914C636.263 111.289 635.557 111.966 634.797 112.617C634.339 112.148 633.891 111.716 633.453 111.32C635.036 110.102 636.208 108.909 636.969 107.742ZM628.375 112.086H630.453V110.32C629.885 110.372 629.297 110.414 628.688 110.445C628.615 109.737 628.521 109.096 628.406 108.523C630.177 108.43 631.953 108.211 633.734 107.867L634.172 109.758C633.609 109.883 633.01 109.992 632.375 110.086V112.086H634.031V113.945H632.375V115.031L632.594 114.836C633.115 115.242 633.703 115.779 634.359 116.445L633.172 117.789C632.917 117.445 632.651 117.104 632.375 116.766V123.164H630.453V116.742C630.052 117.956 629.552 119.148 628.953 120.32C628.745 119.372 628.505 118.497 628.234 117.695C628.979 116.581 629.609 115.331 630.125 113.945H628.375V112.086Z" fill="#000023"/>
<path d="M491.67 101.229C491.949 105.146 493.052 107.997 494.979 109.78C494.57 110.26 494.151 110.779 493.722 111.337C491.537 109.196 490.309 105.855 490.037 101.315L491.67 101.229ZM486.868 101.476L488.522 101.562C488.501 106.009 487.362 109.304 485.106 111.445L484.043 110.016C485.891 108.168 486.832 105.322 486.868 101.476ZM496.783 111.488C496.311 111.065 495.845 110.671 495.387 110.306C496.028 109.658 496.432 109.021 496.601 108.394C496.772 107.764 496.858 106.808 496.858 105.526V101.347H504.765V109.372C504.765 109.998 504.632 110.474 504.367 110.8C504.102 111.126 503.733 111.303 503.261 111.332C502.792 111.361 502.004 111.37 500.897 111.359C500.79 110.8 500.65 110.249 500.479 109.705C501.188 109.748 501.807 109.769 502.337 109.769C502.896 109.769 503.175 109.508 503.175 108.985V108.211H498.346C498.26 108.999 498.088 109.628 497.831 110.097C497.576 110.566 497.227 111.029 496.783 111.488ZM503.175 102.797H498.448V104.054H503.175V102.797ZM498.432 106.761H503.175V105.504H498.448C498.448 105.712 498.443 106.131 498.432 106.761Z" fill="white"/>
<path d="M494.567 114.27C496.29 114.27 497.594 114.821 498.481 115.923C499.368 117.012 499.811 118.602 499.811 120.692C499.811 122.199 499.583 123.434 499.127 124.397C498.684 125.36 498.069 126.069 497.284 126.525C496.499 126.968 495.593 127.19 494.567 127.19C493.478 127.19 492.528 126.975 491.717 126.544C490.919 126.101 490.324 125.404 489.931 124.454L492.857 123.295C492.958 123.738 493.148 124.087 493.427 124.34C493.718 124.593 494.117 124.72 494.624 124.72C495.422 124.72 495.998 124.416 496.353 123.808C496.72 123.187 496.904 122.307 496.904 121.167V120.863H496.847C496.632 121.433 496.233 121.851 495.65 122.117C495.08 122.383 494.472 122.516 493.826 122.516C493.028 122.516 492.325 122.358 491.717 122.041C491.109 121.712 490.634 121.256 490.292 120.673C489.95 120.09 489.779 119.4 489.779 118.602C489.779 117.703 489.975 116.93 490.368 116.284C490.773 115.638 491.331 115.144 492.04 114.802C492.762 114.447 493.604 114.27 494.567 114.27ZM494.567 116.778C494.01 116.778 493.573 116.93 493.256 117.234C492.939 117.538 492.781 117.969 492.781 118.526C492.781 119.033 492.946 119.432 493.275 119.723C493.604 120.002 494.035 120.141 494.567 120.141C495.074 120.141 495.498 119.989 495.84 119.685C496.182 119.381 496.353 118.976 496.353 118.469C496.353 117.95 496.182 117.538 495.84 117.234C495.498 116.93 495.074 116.778 494.567 116.778Z" fill="white"/>
</svg>
