<?xml version="1.0" encoding="UTF-8"?>
<svg width="93px" height="108px" viewBox="0 0 93 108" version="1.1" xmlns="http://www.w3.org/2000/svg" xmlns:xlink="http://www.w3.org/1999/xlink">
    <title>smart contracts HEX ICON</title>
    <g id="Homepage" stroke="none" stroke-width="1" fill="none" fill-rule="evenodd">
        <g id="HOMEPAGE-PT-0.1" transform="translate(-1415.000000, -1003.000000)">
            <g id="smart-contracts-HEX-ICON" transform="translate(1410.000000, 1005.500000)">
                <polygon id="Polygon" stroke="#000033" stroke-width="2.88" points="51.5 0 96.1003083 25.75 96.1003083 77.25 51.5 103 6.89969171 77.25 6.89969171 25.75"></polygon>
                <g id="Group" transform="translate(40.497458, 29.823000)">
                    <path d="M2,0 L25.5,0 C26.6045695,-2.02906125e-16 27.5,0.8954305 27.5,2 L27.5,36 C27.5,37.1045695 26.6045695,38 25.5,38 L2,38 C0.8954305,38 1.3527075e-16,37.1045695 0,36 L0,2 C-1.3527075e-16,0.8954305 0.8954305,2.02906125e-16 2,0 Z" id="Rectangle" stroke="#000033" stroke-width="1.5" fill="#FFFFFF"></path>
                    <line x1="4.5" y1="5.5" x2="23.5" y2="5.5" id="Line-2" stroke="#000033" stroke-linecap="square"></line>
                    <line x1="2" y1="5.5" x2="2.5" y2="5.5" id="Line-2" stroke="#C1C3CC" stroke-linecap="square"></line>
                    <line x1="2" y1="14" x2="2.5" y2="14" id="Line-2" stroke="#C1C3CC" stroke-linecap="square"></line>
                    <line x1="4.5" y1="7" x2="19.5" y2="7" id="Line-2" stroke="#C1C3CC" stroke-linecap="square"></line>
                    <line x1="4.5" y1="8.5" x2="23.5" y2="8.5" id="Line-2" stroke="#000033" stroke-linecap="square"></line>
                    <line x1="4.5" y1="10" x2="13.5" y2="10" id="Line-2" stroke="#C1C3CC" stroke-linecap="square"></line>
                    <line x1="4.5" y1="14" x2="23.5" y2="14" id="Line-2" stroke="#000033" stroke-linecap="square"></line>
                    <line x1="4.5" y1="15.5" x2="19.5" y2="15.5" id="Line-2" stroke="#C1C3CC" stroke-linecap="square"></line>
                    <line x1="4.5" y1="17" x2="23.5" y2="17" id="Line-2" stroke="#000033" stroke-linecap="square"></line>
                    <line x1="4.5" y1="18.5" x2="13.5" y2="18.5" id="Line-2" stroke="#C1C3CC" stroke-linecap="square"></line>
                    <line x1="2" y1="22" x2="2.5" y2="22" id="Line-2" stroke="#C1C3CC" stroke-linecap="square"></line>
                    <line x1="4.5" y1="22" x2="23.5" y2="22" id="Line-2" stroke="#000033" stroke-linecap="square"></line>
                    <line x1="4.5" y1="23.5" x2="19.5" y2="23.5" id="Line-2" stroke="#C1C3CC" stroke-linecap="square"></line>
                    <line x1="4.5" y1="25" x2="23.5" y2="25" id="Line-2" stroke="#000033" stroke-linecap="square"></line>
                    <line x1="4.5" y1="26.5" x2="13.5" y2="26.5" id="Line-2" stroke="#C1C3CC" stroke-linecap="square"></line>
                    <line x1="14.5" y1="33" x2="23.5" y2="33" id="Line-2" stroke="#000033" stroke-linecap="square"></line>
                </g>
                <g id="Group" transform="translate(33.997458, 33.323000)" stroke="#000033">
                    <path d="M2,0 L25.5,0 C26.6045695,-2.02906125e-16 27.5,0.8954305 27.5,2 L27.5,36 C27.5,37.1045695 26.6045695,38 25.5,38 L2,38 C0.8954305,38 1.3527075e-16,37.1045695 0,36 L0,2 C-1.3527075e-16,0.8954305 0.8954305,2.02906125e-16 2,0 Z" id="Rectangle" stroke-width="1.5" fill="#FFFFFF"></path>
                    <line x1="4.5" y1="5.5" x2="23.5" y2="5.5" id="Line-2" stroke-linecap="square"></line>
                    <line x1="2" y1="5.5" x2="2.5" y2="5.5" id="Line-2" stroke-linecap="square"></line>
                    <line x1="2" y1="14" x2="2.5" y2="14" id="Line-2" stroke-linecap="square"></line>
                    <line x1="4.5" y1="7" x2="19.5" y2="7" id="Line-2" stroke-linecap="square"></line>
                    <line x1="4.5" y1="8.5" x2="23.5" y2="8.5" id="Line-2" stroke-linecap="square"></line>
                    <line x1="4.5" y1="10" x2="13.5" y2="10" id="Line-2" stroke-linecap="square"></line>
                    <line x1="4.5" y1="14" x2="23.5" y2="14" id="Line-2" stroke-linecap="square"></line>
                    <line x1="4.5" y1="15.5" x2="19.5" y2="15.5" id="Line-2" stroke-linecap="square"></line>
                    <line x1="4.5" y1="17" x2="23.5" y2="17" id="Line-2" stroke-linecap="square"></line>
                    <line x1="4.5" y1="18.5" x2="13.5" y2="18.5" id="Line-2" stroke-linecap="square"></line>
                    <line x1="2" y1="22" x2="2.5" y2="22" id="Line-2" stroke-linecap="square"></line>
                    <line x1="4.5" y1="22" x2="23.5" y2="22" id="Line-2" stroke-linecap="square"></line>
                    <line x1="4.5" y1="23.5" x2="19.5" y2="23.5" id="Line-2" stroke-linecap="square"></line>
                    <line x1="4.5" y1="25" x2="23.5" y2="25" id="Line-2" stroke-linecap="square"></line>
                    <line x1="4.5" y1="26.5" x2="13.5" y2="26.5" id="Line-2" stroke-linecap="square"></line>
                    <line x1="14.5" y1="33" x2="23.5" y2="33" id="Line-2" stroke-linecap="square"></line>
                </g>
            </g>
        </g>
    </g>
</svg>