<?xml version="1.0" encoding="UTF-8"?>
<svg width="74px" height="108px" viewBox="0 0 74 108" version="1.1" xmlns="http://www.w3.org/2000/svg" xmlns:xlink="http://www.w3.org/1999/xlink">
    <title>Vote icon</title>
    <g id="Homepage" stroke="none" stroke-width="1" fill="none" fill-rule="evenodd">
        <g id="HOMEPAGE-PT-0.6" transform="translate(-1107.000000, -457.000000)">
            <g id="Vote" transform="translate(1106.000000, 457.000000)">
                <g id="Vote-icon" transform="translate(1.000000, 1.000000)">
                    <polygon id="Path-20" stroke="#070E3A" stroke-width="1.2815712" fill="#FFFFFF" stroke-linejoin="round" points="8.04 35.58532 8.04 72.3094785 40.2251203 90.8980658 40.2251203 52.2709892"></polygon>
                    <polygon id="Path-20" stroke="#070E3A" stroke-width="1.52568" fill="#FFFFFF" stroke-linejoin="round" transform="translate(56.171840, 63.241693) scale(-1, 1) translate(-56.171840, -63.241693) " points="40.07928 35.58532 40.07928 72.3094785 72.2644003 90.8980658 72.2644003 52.2709892"></polygon>
                    <polygon id="Path-21" stroke="#070E3A" stroke-width="1.2815712" fill="#FFFFFF" stroke-linejoin="round" points="72.2644003 35.58532 40.07928 52.2709892 8.04 35.58532 40.2251203 18.1478385"></polygon>
                    <polygon id="Path-20" fill="#070E3A" points="29.1 29.4945643 48.1788683 40.1289177 50.628 38.6863972 31.5797005 28.2245425"></polygon>
                    <polygon id="Path-20-Copy-2" stroke="#070E3A" stroke-width="0.76894272" fill="#FFFFFF" transform="translate(24.186000, 96.664000) scale(-1, -1) rotate(-59.000000) translate(-24.186000, -96.664000) " points="17.4 81.688 17.4 104.374564 30.972 111.64 30.972 88.7623972"></polygon>
                    <polygon id="Path-20-Copy-5" stroke="#070E3A" stroke-width="0.76894272" fill="#FFFFFF" transform="translate(16.386000, 87.928000) scale(-1, -1) rotate(-59.000000) translate(-16.386000, -87.928000) " points="9.6 72.952 9.6 95.6385643 23.172 102.904 23.172 80.0263972"></polygon>
                    <polygon id="Path-20-Copy-4" stroke="#070E3A" stroke-width="0.76894272" fill="#FFFFFF" points="34.8 -3.44613227e-13 34.8 22.6865643 48.372 29.952 48.372 7.07439719"></polygon>
                </g>
            </g>
        </g>
    </g>
</svg>