<svg viewBox="0 0 823.1 311.7" xmlns="http://www.w3.org/2000/svg"><path d="m314 74.6-104.7 39v158.6l-104.7-37.6v-154.5l110.4-40.5 98.5 35.2.5 159.4-104.8-38.8" fill="none" stroke="#01e397" stroke-miterlimit="10" stroke-width="10.72"/><g fill="#003"><path d="m455.4 153.9v61h-14.1l-.6-15.1a34.2 34.2 0 0 1 -14.3 12.5c-6.1 2.9-13.3 4.3-21.8 4.3-11 0-20.5-2.4-28.8-7.3a49.3 49.3 0 0 1 -19.1-21c-4.5-9.1-6.8-19.9-6.8-32.4s2.3-23.2 7-32.3a50.2 50.2 0 0 1 19.7-21.1c8.4-4.9 18.2-7.4 29.4-7.4s22.2 2.3 30.1 6.8 14 11.6 18.6 21.1l-17.6 8.4a27.2 27.2 0 0 0 -11.4-14.7 36.2 36.2 0 0 0 -19.3-5c-11.2 0-20.1 3.9-26.6 11.6s-9.9 18.6-9.9 32.6 3.2 25.1 9.4 32.8 15.4 11.5 27.5 11.5c9.4 0 17-2.3 22.8-7s8.8-11.3 8.8-20.2v-3.4h-36.1v-15.7z"/><path d="m566.4 183.9h-49.7l-11.3 31h-19.6l44.5-118h22.8l44.5 118h-20.2zm-5.8-15.5-13.5-37.9-5.4-17h-.5l-5 16.6-14 38.3z"/><path d="m699.1 101c7.7 3.9 14.1 10 19.4 18.1l-14.5 13c-3.4-7.1-7.5-12.3-12.5-15.5s-11.7-4.9-20-4.9-14.6 1.7-19.2 4.9-6.8 7.5-6.8 12.6 2.2 8.6 6.7 11.4 12.2 5.2 23.5 7.2 19.1 4.4 25.3 7.3 10.9 6.5 13.7 10.9 4.3 9.7 4.3 16.2a29.8 29.8 0 0 1 -5.9 18.2q-5.9 7.8-16.5 12a66.7 66.7 0 0 1 -24.6 4.2c-24 0-40.9-7.9-50.8-23.9l13.4-13.4c3.9 7.1 8.8 12.4 14.8 15.7s13.5 5 22.4 5 15.1-1.4 19.9-4.4 7.3-7 7.3-12.4-2.2-7.7-6.5-10.3-12-5-22.8-7-19.5-4.5-25.9-7.5-11.2-6.7-14.1-11.1a28.7 28.7 0 0 1 -4.4-16.1 31.8 31.8 0 0 1 5.6-18.2c3.7-5.5 9-9.8 16-13.1s15.1-4.8 24.4-4.8c10.8 0 20.1 2 27.8 5.9z"/></g></svg>