<?xml version="1.0" encoding="UTF-8"?>
<svg width="706px" height="457px" viewBox="0 0 706 457" version="1.1" xmlns="http://www.w3.org/2000/svg" xmlns:xlink="http://www.w3.org/1999/xlink">
    <title>GOV image</title>
    <defs>
        <polygon id="path-1" points="99.9 0 186.415938 49.95 186.415938 149.85 99.9 199.8 13.3840622 149.85 13.3840622 49.95"></polygon>
        <filter x="-14.8%" y="-7.5%" width="116.1%" height="130.0%" filterUnits="objectBoundingBox" id="filter-2">
            <feOffset dx="-14" dy="16" in="SourceAlpha" result="shadowOffsetOuter1"></feOffset>
            <feGaussianBlur stdDeviation="7" in="shadowOffsetOuter1" result="shadowBlurOuter1"></feGaussianBlur>
            <feColorMatrix values="0 0 0 0 0.316369017   0 0 0 0 0.366987588   0 0 0 0 0.353495709  0 0 0 0.257409583 0" type="matrix" in="shadowBlurOuter1" result="shadowMatrixOuter1"></feColorMatrix>
            <feOffset dx="-5" dy="8" in="SourceAlpha" result="shadowOffsetOuter2"></feOffset>
            <feGaussianBlur stdDeviation="3" in="shadowOffsetOuter2" result="shadowBlurOuter2"></feGaussianBlur>
            <feColorMatrix values="0 0 0 0 0   0 0 0 0 0   0 0 0 0 0  0 0 0 0.144614907 0" type="matrix" in="shadowBlurOuter2" result="shadowMatrixOuter2"></feColorMatrix>
            <feMerge>
                <feMergeNode in="shadowMatrixOuter1"></feMergeNode>
                <feMergeNode in="shadowMatrixOuter2"></feMergeNode>
            </feMerge>
        </filter>
        <polygon id="path-3" points="98.7751989 3.70187081e-13 184.31703 49.3875995 184.31703 148.162798 98.7751989 197.550398 13.2333674 148.162798 13.2333674 49.3875995"></polygon>
        <filter x="-8.7%" y="-5.3%" width="107.4%" height="121.3%" filterUnits="objectBoundingBox" id="filter-4">
            <feOffset dx="-10" dy="11" in="SourceAlpha" result="shadowOffsetOuter1"></feOffset>
            <feGaussianBlur stdDeviation="5" in="shadowOffsetOuter1" result="shadowBlurOuter1"></feGaussianBlur>
            <feColorMatrix values="0 0 0 0 0.316369017   0 0 0 0 0.366987588   0 0 0 0 0.353495709  0 0 0 0.257409583 0" type="matrix" in="shadowBlurOuter1" result="shadowMatrixOuter1"></feColorMatrix>
            <feOffset dx="-3" dy="5" in="SourceAlpha" result="shadowOffsetOuter2"></feOffset>
            <feGaussianBlur stdDeviation="1.5" in="shadowOffsetOuter2" result="shadowBlurOuter2"></feGaussianBlur>
            <feColorMatrix values="0 0 0 0 0   0 0 0 0 0   0 0 0 0 0  0 0 0 0.144614907 0" type="matrix" in="shadowBlurOuter2" result="shadowMatrixOuter2"></feColorMatrix>
            <feMerge>
                <feMergeNode in="shadowMatrixOuter1"></feMergeNode>
                <feMergeNode in="shadowMatrixOuter2"></feMergeNode>
            </feMerge>
        </filter>
        <polygon id="path-5" points="98.7135188 0 184.201934 49.3567594 184.201934 148.070278 98.7135188 197.427038 13.2251038 148.070278 13.2251038 49.3567594"></polygon>
        <filter x="-6.0%" y="-4.6%" width="104.3%" height="118.2%" filterUnits="objectBoundingBox" id="filter-6">
            <feOffset dx="-8" dy="10" in="SourceAlpha" result="shadowOffsetOuter1"></feOffset>
            <feGaussianBlur stdDeviation="4" in="shadowOffsetOuter1" result="shadowBlurOuter1"></feGaussianBlur>
            <feColorMatrix values="0 0 0 0 0.316369017   0 0 0 0 0.366987588   0 0 0 0 0.353495709  0 0 0 0.257409583 0" type="matrix" in="shadowBlurOuter1" result="shadowMatrixOuter1"></feColorMatrix>
            <feOffset dx="-3" dy="5" in="SourceAlpha" result="shadowOffsetOuter2"></feOffset>
            <feGaussianBlur stdDeviation="2" in="shadowOffsetOuter2" result="shadowBlurOuter2"></feGaussianBlur>
            <feColorMatrix values="0 0 0 0 0   0 0 0 0 0   0 0 0 0 0  0 0 0 0.144614907 0" type="matrix" in="shadowBlurOuter2" result="shadowMatrixOuter2"></feColorMatrix>
            <feMerge>
                <feMergeNode in="shadowMatrixOuter1"></feMergeNode>
                <feMergeNode in="shadowMatrixOuter2"></feMergeNode>
            </feMerge>
        </filter>
    </defs>
    <g id="Page-1" stroke="none" stroke-width="1" fill="none" fill-rule="evenodd">
        <g id="0.1.1-Governance" transform="translate(-1023.000000, -188.000000)">
            <g id="Header-image" transform="translate(266.000000, 189.000000)">
                <g id="GOV-image" transform="translate(757.000000, 0.000000)">
                    <g id="Group-15" opacity="0.197322301" stroke="#979797" stroke-linecap="square">
                        <line x1="384.5" y1="0.377906977" x2="384.5" y2="454.622093" id="Line-4"></line>
                        <line x1="488.5" y1="0.377906977" x2="488.5" y2="454.622093" id="Line-4"></line>
                        <line x1="590.5" y1="0.377906977" x2="590.5" y2="454.622093" id="Line-4"></line>
                        <line x1="279.5" y1="0.377906977" x2="279.5" y2="454.622093" id="Line-4"></line>
                        <line x1="176.5" y1="0.377906977" x2="176.5" y2="366.5" id="Line-4"></line>
                        <line x1="72.5" y1="38.5" x2="72.5" y2="344.5" id="Line-4"></line>
                        <line x1="651.5" y1="429.5" x2="223.5" y2="429.5" id="Line-4"></line>
                        <line x1="661.5" y1="327.5" x2="58.5" y2="327.5" id="Line-4"></line>
                        <line x1="705.383607" y1="225.5" x2="0.5" y2="225.5" id="Line-4"></line>
                        <line x1="661.5" y1="122.5" x2="42.5" y2="122.5" id="Line-4"></line>
                        <line x1="620.5" y1="20.5" x2="150.5" y2="20.5" id="Line-4"></line>
                    </g>
                    <g id="Group-15" transform="translate(106.000000, 60.000000)">
                        <path d="M99.5140873,104.1984 L395.49096,104.1984 L243.376557,226.35 L99.5140873,104.1984 Z" id="Path-11" stroke="#00E599" stroke-width="1.8" stroke-dasharray="3"></path>
                        <g id="Group-13">
                            <g id="Polygon-Copy-14">
                                <use fill="black" fill-opacity="1" filter="url(#filter-2)" xlink:href="#path-1"></use>
                                <use fill="#F0F5F6" fill-rule="evenodd" xlink:href="#path-1"></use>
                            </g>
                            <g id="Group" transform="translate(51.300000, 27.900000)">
                                <polygon id="Path-20" stroke="#000033" stroke-width="1.43054683" fill="#FFFFFF" stroke-linejoin="round" points="8.47067213e-13 53.9975544 8.47067213e-13 109.723195 48.7611928 137.929721 48.7611928 79.3165717"></polygon>
                                <polygon id="Path-20" stroke="#000033" stroke-width="1.43054683" fill="#FFFFFF" stroke-linejoin="round" transform="translate(72.920838, 95.963638) scale(-1, 1) translate(-72.920838, -95.963638) " points="48.5402414 53.9975544 48.5402414 109.723195 97.3014342 137.929721 97.3014342 79.3165717"></polygon>
                                <polygon id="Path-21" stroke="#000033" stroke-width="1.43054683" fill="#FFFFFF" stroke-linejoin="round" points="97.3014342 53.9975544 48.5402414 79.3165717 -2.65746577e-14 53.9975544 48.7611928 27.537729"></polygon>
                                <polygon id="Path-20" fill="#000033" points="31.9063813 44.755375 60.8113028 60.8920594 64.5217933 58.7031629 35.6631843 42.82823"></polygon>
                                <polygon id="Path-20-Copy-4" stroke="#000033" stroke-width="0.953697888" fill="#00E599" points="40.5420115 -4.32518886e-14 40.5420115 34.4248412 61.1039017 45.4494929 61.1039017 10.7347678"></polygon>
                                <path d="M35.7361832,113.951676 L35.7361832,109.321604 C35.7361832,108.858432 35.4866637,108.33827 34.9876247,107.761118 C34.4885857,107.183966 34.2390662,106.89539 34.2390662,106.89539 L27.6089766,99.7733957 C28.1317793,99.6446745 28.5753696,99.3834468 28.9397472,98.9897124 C29.3041249,98.595978 29.5972113,98.1363352 29.8190064,97.6107841 C30.0408016,97.0852329 30.1992266,96.5355587 30.2942817,95.9617615 C30.3893367,95.3879643 30.4368643,94.8612085 30.4368643,94.3814941 L30.4368643,90.4114437 C30.4368643,89.7497686 30.2348723,88.9716561 29.8308883,88.077106 C29.4269044,87.182556 28.9041016,86.2856808 28.26248,85.3864804 C27.6208584,84.4872801 26.8921031,83.637103 26.0762139,82.8359493 C25.2603247,82.0347956 24.4325537,81.3922114 23.5929007,80.9081967 C22.7532478,80.424182 21.9215161,80.1101522 21.0977057,79.9661074 C20.2738953,79.8220626 19.5411793,79.8297801 18.8995577,79.9892598 C18.2579361,80.1487396 17.739094,80.4451626 17.3430313,80.8785288 C16.9469686,81.3118951 16.7489372,81.8594157 16.7489372,82.5210908 L16.7489372,86.4911411 C16.7489372,86.9212299 16.7964648,87.4738316 16.8915198,88.1489461 C16.9865749,88.8240605 17.1489606,89.5545294 17.3786769,90.3403526 C17.6083933,91.1261759 17.9054403,91.9384052 18.269818,92.7770406 C18.6341957,93.6156761 19.0857072,94.4135591 19.6243525,95.1706898 L12.9467353,94.6215074 C12.9467353,94.6215074 12.6932552,94.6284021 12.1862949,94.6421915 C11.6793346,94.6559809 11.4258545,94.8779201 11.4258545,95.3080088 L11.4258545,99.9380801 L35.7361832,113.951676 Z" id="" stroke="#000033" stroke-width="1.78811381" fill="#000033" fill-rule="nonzero"></path>
                            </g>
                        </g>
                        <g id="council-icon" transform="translate(295.200000, 0.000000)">
                            <g id="Group-21" transform="translate(0.000000, -0.000000)">
                                <g id="Polygon-Copy-14">
                                    <use fill="black" fill-opacity="1" filter="url(#filter-4)" xlink:href="#path-3"></use>
                                    <use fill="#F0F5F6" fill-rule="evenodd" xlink:href="#path-3"></use>
                                </g>
                                <g id="Group-20" transform="translate(56.657352, 55.355664)">
                                    <polygon id="Path-3" fill="#FFFFFF" points="77.6303218 74.6815559 77.6303218 70.7084846 74.4727633 68.5097511 74.4727633 26.0761833 76.3344193 25.4786212 76.3344193 19.0872729 80.984833 19.0872729 80.4498472 13.1425409 41.2883457 1.69883709 1.11373738 13.1425409 1.11373738 19.0872729 5.52433867 19.0872729 5.00389277 25.4786212 7.72065033 26.0761833 7.72065033 68.5097511 5.52433867 69.327277 4.22984287 71.3934578 4.22984287 75.8082174 76.9907027 75.8082174"></polygon>
                                    <polygon id="Path-4" stroke="#000000" stroke-width="1.30248" fill="#00E599" stroke-linejoin="round" points="31.6170149 46.5531241 31.6170149 70.9128956 49.8656442 70.9128956 49.8656442 46.5531241"></polygon>
                                    <path d="M47.5524697,66.8075699 L47.5524697,64.3084182 C47.5524697,64.0584137 47.4119826,63.8552851 47.1310083,63.6990323 C46.850034,63.5427795 46.7095468,63.4646531 46.7095468,63.4646531 L42.9766026,61.6833713 C43.2709566,61.4512243 43.5207116,61.1722015 43.7258674,60.8463028 C43.9310232,60.5204042 44.0960399,60.1811124 44.2209173,59.8284275 C44.3457948,59.4757427 44.434993,59.1297543 44.4885119,58.7904626 C44.5420308,58.4511708 44.5687903,58.1520583 44.5687903,57.8931251 L44.5687903,55.7502298 C44.5687903,55.3930805 44.4550626,55.0359313 44.2276072,54.6787821 C44.0001518,54.3216329 43.7057978,54.0001985 43.3445451,53.7144792 C42.9832925,53.4287598 42.5729808,53.1966128 42.1136101,53.0180382 C41.6542394,52.8394636 41.1881789,52.7501762 40.7154285,52.7501762 C40.2426781,52.7501762 39.7743876,52.8394636 39.310557,53.0180382 C38.8467264,53.1966128 38.4341848,53.4287598 38.0729321,53.7144792 C37.7116794,54.0001985 37.4195554,54.3216329 37.1965599,54.6787821 C36.9735644,55.0359313 36.8620667,55.3930805 36.8620667,55.7502298 L36.8620667,57.8931251 C36.8620667,58.1252721 36.8888261,58.4087593 36.9423451,58.7435867 C36.995864,59.0784141 37.0872921,59.4221703 37.2166295,59.7748551 C37.3459669,60.12754 37.5132135,60.4735283 37.7183693,60.8128201 C37.9235251,61.1521119 38.17774,61.4422956 38.4810138,61.6833713 L34.7213101,63.4646531 C34.7213101,63.4646531 34.578593,63.5472439 34.2931588,63.7124254 C34.0077246,63.8776069 33.8650075,64.0762712 33.8650075,64.3084182 L33.8650075,66.8075699" id="" fill="#000033" fill-rule="nonzero"></path>
                                    <path d="M62.0071393,74.6819955 L76.9856593,74.6819955 L76.9856593,70.8802177 C76.9856593,70.1050179 76.4251668,69.4720755 75.7346255,69.4720755 L63.2581731,69.4720755 C62.5685476,69.4720755 62.0071393,70.1050179 62.0071393,70.8802177 L62.0071393,74.6819955 Z M77.5003312,76.4523263 L61.4412822,76.4523263 C60.8411264,76.4523263 60.3530223,75.9749167 60.3530223,75.386056 L60.3530223,71.2532187 C60.3530223,69.4517042 61.8495919,67.9862063 63.6882588,67.9862063 L75.2525058,67.9862063 C77.0920216,67.9862063 78.5877423,69.4517042 78.5877423,71.2532187 L78.5877423,75.386056 C78.5877423,75.9749167 78.1013359,76.4523263 77.5003312,76.4523263 L77.5003312,76.4523263 Z" id="Fill-6" fill="#000000"></path>
                                    <path d="M5.02363931,74.6819955 L20.0021593,74.6819955 L20.0021593,70.8802177 C20.0021593,70.1050179 19.4416668,69.4720755 18.7511255,69.4720755 L6.27467314,69.4720755 C5.58504761,69.4720755 5.02363931,70.1050179 5.02363931,70.8802177 L5.02363931,74.6819955 Z M20.5168312,76.4523263 L4.45778218,76.4523263 C3.85762636,76.4523263 3.36952227,75.9749167 3.36952227,75.386056 L3.36952227,71.2532187 C3.36952227,69.4517042 4.86609186,67.9862063 6.70475875,67.9862063 L18.2690058,67.9862063 C20.1085216,67.9862063 21.6042423,69.4517042 21.6042423,71.2532187 L21.6042423,75.386056 C21.6042423,75.9749167 21.1178359,76.4523263 20.5168312,76.4523263 L20.5168312,76.4523263 Z" id="Fill-6" fill="#000000"></path>
                                    <path d="M1.97654596,18.5047729 L79.8834429,18.5047729 L79.8834429,13.847137 L40.9295548,2.44688777 L1.97654596,13.521517 L1.97654596,18.5047729 Z M80.6840448,20.4324759 L1.17594407,20.4324759 C0.553488876,20.4324759 0.048843,19.92783 0.048843,19.3053748 L0.048843,13.3305083 C0.048843,12.8311375 0.37853325,12.3915505 0.855924732,12.2508827 L40.6104147,0.518305635 C40.8187789,0.456763455 41.0403307,0.456763455 41.248695,0.518305635 L81.0031849,12.2508827 C81.4823347,12.3915505 81.8111458,12.8311375 81.8111458,13.3305083 L81.8111458,19.3053748 C81.8111458,19.92783 81.3056208,20.4324759 80.6840448,20.4324759 L80.6840448,20.4324759 Z" id="Fill-10" fill="#000000"></path>
                                    <path d="M60.2125661,14.2692024 L21.6467194,14.2692024 C21.0251434,14.2692024 20.5204975,13.8316545 20.5204975,13.2927236 C20.5204975,12.7530303 21.0251434,12.3154824 21.6467194,12.3154824 L60.2125661,12.3154824 C60.8341421,12.3154824 61.338788,12.7530303 61.338788,13.2927236 C61.338788,13.8316545 60.8341421,14.2692024 60.2125661,14.2692024" id="Fill-11" fill="#000000"></path>
                                    <path d="M81.8940519,76.6352759 L1.17532865,76.6352759 C0.552873454,76.6352759 0.0491067522,76.197728 0.0491067522,75.658797 C0.0491067522,75.1191038 0.552873454,74.6815559 1.17532865,74.6815559 L81.8940519,74.6815559 C82.515628,74.6815559 83.0202738,75.1191038 83.0202738,75.658797 C83.0202738,76.197728 82.515628,76.6352759 81.8940519,76.6352759" id="Fill-17" fill="#000000"></path>
                                    <rect id="Rectangle" stroke="#000000" stroke-width="1.6281" stroke-linejoin="round" x="5.5360675" y="19.5369362" width="13.0248" height="6.5124"></rect>
                                    <rect id="Rectangle" stroke="#000000" stroke-width="1.6281" stroke-linejoin="round" x="62.8451875" y="19.5369362" width="13.0248" height="6.5124"></rect>
                                    <rect id="Rectangle-Copy-8" stroke="#000000" stroke-width="1.6281" stroke-linejoin="round" transform="translate(56.984028, 53.401416) rotate(-270.000000) translate(-56.984028, -53.401416) " x="52.4253475" y="50.7964562" width="9.11736" height="5.20992"></rect>
                                    <rect id="Rectangle-Copy-8" stroke="#000000" stroke-width="1.6281" stroke-linejoin="round" transform="translate(24.422028, 53.401416) rotate(-270.000000) translate(-24.422028, -53.401416) " x="19.8633475" y="50.7964562" width="9.11736" height="5.20992"></rect>
                                    <rect id="Rectangle-Copy-8" stroke="#000000" stroke-width="1.6281" stroke-linejoin="round" transform="translate(56.984028, 34.841076) rotate(-270.000000) translate(-56.984028, -34.841076) " x="52.4253475" y="32.2361162" width="9.11736" height="5.20992"></rect>
                                    <rect id="Rectangle-Copy-8" stroke="#000000" stroke-width="1.6281" stroke-linejoin="round" transform="translate(41.028648, 34.841076) rotate(-270.000000) translate(-41.028648, -34.841076) " x="36.4699675" y="32.2361162" width="9.11736" height="5.20992"></rect>
                                    <rect id="Rectangle-Copy-8" stroke="#000000" stroke-width="1.6281" stroke-linejoin="round" transform="translate(24.422028, 34.841076) rotate(-270.000000) translate(-24.422028, -34.841076) " x="19.8633475" y="32.2361162" width="9.11736" height="5.20992"></rect>
                                    <rect id="Rectangle" stroke="#000000" stroke-width="1.6281" stroke-linejoin="round" x="64.1476675" y="26.0493362" width="10.41984" height="42.3306"></rect>
                                    <rect id="Rectangle" stroke="#000000" stroke-width="1.6281" stroke-linejoin="round" x="6.8385475" y="26.0493362" width="10.41984" height="42.3306"></rect>
                                </g>
                            </g>
                            <g id="Group-18" transform="translate(56.706723, 55.827549)"></g>
                        </g>
                        <g id="Group-5" transform="translate(147.600000, 164.300000)">
                            <g id="Polygon-Copy-14">
                                <use fill="black" fill-opacity="1" filter="url(#filter-6)" xlink:href="#path-5"></use>
                                <use fill="#F0F5F6" fill-rule="evenodd" xlink:href="#path-5"></use>
                            </g>
                            <path d="M121.268596,83.6425696 L121.268596,79.6285838 C121.268596,79.2270418 121.042954,78.900789 120.59167,78.6498252 C120.140386,78.3988615 119.914744,78.2733796 119.914744,78.2733796 L113.919116,75.412393 C114.391889,75.0395326 114.793031,74.591383 115.122539,74.0679444 C115.452048,73.5445057 115.717088,72.9995559 115.917659,72.4330949 C116.118229,71.8666339 116.261494,71.3109285 116.347453,70.7659786 C116.433412,70.2210288 116.476391,69.7406125 116.476391,69.3247297 L116.476391,65.8829413 C116.476391,65.3093099 116.293728,64.7356785 115.928403,64.1620471 C115.563078,63.5884157 115.090305,63.0721474 114.510083,62.6132423 C113.929861,62.1543372 113.270843,61.7814768 112.53303,61.4946611 C111.795216,61.2078454 111.046658,61.0644375 110.287355,61.0644375 C109.528052,61.0644375 108.775912,61.2078454 108.030936,61.4946611 C107.285959,61.7814768 106.62336,62.1543372 106.043138,62.6132423 C105.462916,63.0721474 104.993724,63.5884157 104.635562,64.1620471 C104.2774,64.7356785 104.098319,65.3093099 104.098319,65.8829413 L104.098319,69.3247297 C104.098319,69.6975901 104.141299,70.1529101 104.227258,70.6906895 C104.313217,71.2284689 104.460063,71.7805892 104.667797,72.3470502 C104.875531,72.9135112 105.144152,73.4692166 105.473661,74.0141664 C105.80317,74.5591163 106.211474,75.0251918 106.698574,75.412393 L100.659966,78.2733796 C100.659966,78.2733796 100.430743,78.4060319 99.9722956,78.6713364 C99.5138485,78.9366409 99.284625,79.2557234 99.284625,79.6285838 L99.284625,83.6425696" id="" stroke="#000033" stroke-width="1.19150276" fill="#000033" fill-rule="nonzero"></path>
                            <g id="Group-3" transform="translate(47.946566, 71.590365)">
                                <g id="Group-2" transform="translate(0.556875, 14.058000)">
                                    <rect id="Rectangle" fill="#FFFFFF" x="0.03728637" y="13.1403641" width="21.9839707" height="38.6204891"></rect>
                                    <rect id="Rectangle-Copy-5" fill="#FFFFFF" x="25.2891446" y="26.8060756" width="21.9839707" height="24.9547775"></rect>
                                    <rect id="Rectangle-Copy-5" fill="#FFFFFF" x="50.5410028" y="1.25713665" width="21.9839707" height="50.5037165"></rect>
                                    <rect id="Rectangle" fill="#00E599" x="0.03728637" y="24.4294301" width="21.9839707" height="27.331423"></rect>
                                    <rect id="Rectangle-Copy-5" fill="#00E599" x="25.2891446" y="38.689303" width="21.9839707" height="13.0715501"></rect>
                                    <rect id="Rectangle-Copy-5" fill="#00E599" x="50.5410028" y="13.7345254" width="21.9839707" height="38.0263277"></rect>
                                    <rect id="Rectangle" stroke="#000033" stroke-width="1.71871637" fill-rule="nonzero" x="0.03728637" y="13.1403641" width="21.9839707" height="38.6204891"></rect>
                                    <rect id="Rectangle-Copy-5" stroke="#000033" stroke-width="1.71871637" fill-rule="nonzero" x="25.2891446" y="26.8060756" width="21.9839707" height="24.9547775"></rect>
                                    <rect id="Rectangle-Copy-5" stroke="#000033" stroke-width="1.71871637" fill-rule="nonzero" x="50.5410028" y="1.25713665" width="21.9839707" height="50.5037165"></rect>
                                    <path d="M47.3591502,23.1940833 L47.3591502,19.0744664 C47.3591502,18.6623575 47.1274099,18.327519 46.6639292,18.069951 C46.2004485,17.8123829 45.9687081,17.6835989 45.9687081,17.6835989 L39.8110357,14.7473232 C40.2965869,14.3646506 40.7085698,13.9047077 41.0469843,13.3674943 C41.3853988,12.830281 41.6576017,12.2709904 41.8635932,11.6896225 C42.0695846,11.1082546 42.2167213,10.5379254 42.3050034,9.97863473 C42.3932854,9.41934411 42.4374264,8.92628528 42.4374264,8.49945823 L42.4374264,4.96709642 C42.4374264,4.37836946 42.2498271,3.78964249 41.8746284,3.20091552 C41.4994298,2.61218856 41.0138785,2.08233429 40.4179747,1.61135271 C39.822071,1.14037114 39.145242,0.757698609 38.3874878,0.463335125 C37.6297336,0.168971642 36.8609442,0.0217899 36.0811195,0.0217899 C35.3012948,0.0217899 34.5288269,0.168971642 33.7637159,0.463335125 C32.9986049,0.757698609 32.3180975,1.14037114 31.7221937,1.61135271 C31.1262899,2.08233429 30.6444171,2.61218856 30.2765753,3.20091552 C29.9087334,3.78964249 29.7248125,4.37836946 29.7248125,4.96709642 L29.7248125,8.49945823 C29.7248125,8.88213076 29.7689535,9.34943279 29.8572356,9.90136432 C29.9455176,10.4532959 30.0963328,11.0199456 30.309681,11.6013134 C30.5230293,12.1826813 30.7989107,12.7530106 31.1373252,13.3123012 C31.4757396,13.8715918 31.8950793,14.3499325 32.3953442,14.7473232 L26.1935308,17.6835989 C26.1935308,17.6835989 25.9581121,17.819742 25.4872745,18.0920283 C25.016437,18.3643145 24.7810182,18.6917938 24.7810182,19.0744664 L24.7810182,23.1940833" id="" stroke="#000033" stroke-width="1.19150276" fill="#FFFFFF" fill-rule="nonzero"></path>
                                </g>
                                <rect id="Rectangle" fill="#FFFFFF" x="76.349736" y="27.1983641" width="21.9839707" height="38.6204891"></rect>
                                <rect id="Rectangle" fill="#00E599" x="76.349736" y="38.4874301" width="21.9839707" height="27.331423"></rect>
                                <rect id="Rectangle" stroke="#000033" stroke-width="1.71871637" fill-rule="nonzero" x="76.349736" y="27.1983641" width="21.9839707" height="38.6204891"></rect>
                                <path d="M98.6307874,23.6333958 L98.6307874,19.5137789 C98.6307874,19.10167 98.3990471,18.7668315 97.9355663,18.5092635 C97.4720856,18.2516954 97.2403453,18.1229114 97.2403453,18.1229114 L91.0826729,15.1866357 C91.5682241,14.8039631 91.980207,14.3440202 92.3186215,13.8068068 C92.657036,13.2695935 92.9292389,12.7103029 93.1352303,12.128935 C93.3412218,11.5475671 93.4883585,10.9772379 93.5766406,10.4179472 C93.6649226,9.85865661 93.7090636,9.36559778 93.7090636,8.93877073 L93.7090636,5.40640892 C93.7090636,4.81768196 93.5214643,4.22895499 93.1462656,3.64022802 C92.7710669,3.05150106 92.2855157,2.52164679 91.6896119,2.05066521 C91.0937081,1.57968364 90.4168792,1.19701111 89.659125,0.902647625 C88.9013708,0.608284142 88.1325813,0.4611024 87.3527566,0.4611024 C86.5729319,0.4611024 85.8004641,0.608284142 85.0353531,0.902647625 C84.270242,1.19701111 83.5897346,1.57968364 82.9938309,2.05066521 C82.3979271,2.52164679 81.9160543,3.05150106 81.5482124,3.64022802 C81.1803706,4.22895499 80.9964497,4.81768196 80.9964497,5.40640892 L80.9964497,8.93877073 C80.9964497,9.32144326 81.0405907,9.78874529 81.1288727,10.3406768 C81.2171548,10.8926084 81.3679699,11.4592581 81.5813182,12.0406259 C81.7946665,12.6219938 82.0705478,13.1923231 82.4089623,13.7516137 C82.7473768,14.3109043 83.1667165,14.789245 83.6669814,15.1866357 L77.465168,18.1229114 C77.465168,18.1229114 77.2297492,18.2590545 76.7589117,18.5313408 C76.2880741,18.803627 76.0526554,19.1311063 76.0526554,19.5137789 L76.0526554,23.6333958" id="" stroke="#000033" stroke-width="1.19150276" fill="#FFFFFF" fill-rule="nonzero"></path>
                                <g id="Group-6" transform="translate(0.365895, 1.102288)" fill="#000033" fill-rule="nonzero" stroke="#000033" stroke-width="1.19150276">
                                    <path d="M21.9839707,22.5781321 L21.9839707,18.5641463 C21.9839707,18.1626043 21.7583288,17.8363515 21.3070449,17.5853877 C20.8557611,17.334424 20.6301191,17.2089421 20.6301191,17.2089421 L14.6344908,14.3479555 C15.1072643,13.9750951 15.5084055,13.5269455 15.8379144,13.0035069 C16.1674232,12.4800682 16.4324629,11.9351184 16.6330335,11.3686574 C16.8336041,10.8021964 16.9768689,10.246491 17.0628277,9.70154112 C17.1487865,9.15659129 17.1917659,8.67617498 17.1917659,8.26029222 L17.1917659,4.81850379 C17.1917659,4.24487239 17.0091034,3.67124099 16.6437784,3.09760958 C16.2784534,2.52397818 15.8056798,2.00770991 15.2254577,1.54880479 C14.6452356,1.08989967 13.9862179,0.717039255 13.2484046,0.430223553 C12.5105913,0.143407851 11.7620332,-1.28449851e-12 11.0027302,-1.28449851e-12 C10.2434272,-1.28449851e-12 9.49128744,0.143407851 8.74631092,0.430223553 C8.0013344,0.717039255 7.33873508,1.08989967 6.75851298,1.54880479 C6.17829088,2.00770991 5.70909894,2.52397818 5.35093715,3.09760958 C4.99277536,3.67124099 4.81369446,4.24487239 4.81369446,4.81850379 L4.81369446,8.26029222 C4.81369446,8.63315263 4.85667388,9.08847256 4.94263271,9.626252 C5.02859154,10.1640314 5.17543787,10.7161517 5.38317171,11.2826127 C5.59090555,11.8490737 5.85952689,12.4047791 6.18903574,12.9497289 C6.51854458,13.4946788 6.92684902,13.9607543 7.41394906,14.3479555 L1.37534127,17.2089421 C1.37534127,17.2089421 1.14611773,17.3415944 0.687670637,17.6068989 C0.229223546,17.8722034 1.56075153e-14,18.1912859 1.56075153e-14,18.5641463 L1.56075153e-14,22.5781321" id=""></path>
                                </g>
                            </g>
                        </g>
                    </g>
                </g>
            </g>
        </g>
    </g>
</svg>