<?xml version="1.0" encoding="UTF-8"?>
<svg width="1296px" height="896px" viewBox="0 0 1296 896" version="1.1" xmlns="http://www.w3.org/2000/svg" xmlns:xlink="http://www.w3.org/1999/xlink">
    <title>编组 3</title>
    <defs>
        <polygon id="path-1" points="41.02 0 76.5443621 20.51 76.5443621 61.53 41.02 82.04 5.49563794 61.53 5.49563794 20.51"></polygon>
        <filter x="-38.4%" y="-15.8%" width="148.8%" height="163.4%" filterUnits="objectBoundingBox" id="filter-2">
            <feOffset dx="-12" dy="14" in="SourceAlpha" result="shadowOffsetOuter1"></feOffset>
            <feGaussianBlur stdDeviation="6" in="shadowOffsetOuter1" result="shadowBlurOuter1"></feGaussianBlur>
            <feColorMatrix values="0 0 0 0 0.316369017   0 0 0 0 0.366987588   0 0 0 0 0.353495709  0 0 0 0.257409583 0" type="matrix" in="shadowBlurOuter1" result="shadowMatrixOuter1"></feColorMatrix>
            <feOffset dx="-4" dy="7" in="SourceAlpha" result="shadowOffsetOuter2"></feOffset>
            <feGaussianBlur stdDeviation="2.5" in="shadowOffsetOuter2" result="shadowBlurOuter2"></feGaussianBlur>
            <feColorMatrix values="0 0 0 0 0   0 0 0 0 0   0 0 0 0 0  0 0 0 0.144614907 0" type="matrix" in="shadowBlurOuter2" result="shadowMatrixOuter2"></feColorMatrix>
            <feMerge>
                <feMergeNode in="shadowMatrixOuter1"></feMergeNode>
                <feMergeNode in="shadowMatrixOuter2"></feMergeNode>
            </feMerge>
        </filter>
        <rect id="path-3" x="450" y="9" width="293" height="169"></rect>
        <filter x="-11.4%" y="-6.8%" width="115.7%" height="127.2%" filterUnits="objectBoundingBox" id="filter-4">
            <feOffset dx="-11" dy="12" in="SourceAlpha" result="shadowOffsetOuter1"></feOffset>
            <feGaussianBlur stdDeviation="5.5" in="shadowOffsetOuter1" result="shadowBlurOuter1"></feGaussianBlur>
            <feColorMatrix values="0 0 0 0 0.316369017   0 0 0 0 0.366987588   0 0 0 0 0.353495709  0 0 0 0.257409583 0" type="matrix" in="shadowBlurOuter1" result="shadowMatrixOuter1"></feColorMatrix>
            <feOffset dx="-3" dy="6" in="SourceAlpha" result="shadowOffsetOuter2"></feOffset>
            <feGaussianBlur stdDeviation="2" in="shadowOffsetOuter2" result="shadowBlurOuter2"></feGaussianBlur>
            <feColorMatrix values="0 0 0 0 0   0 0 0 0 0   0 0 0 0 0  0 0 0 0.144614907 0" type="matrix" in="shadowBlurOuter2" result="shadowMatrixOuter2"></feColorMatrix>
            <feMerge>
                <feMergeNode in="shadowMatrixOuter1"></feMergeNode>
                <feMergeNode in="shadowMatrixOuter2"></feMergeNode>
            </feMerge>
        </filter>
        <rect id="path-5" x="450" y="338" width="293" height="169"></rect>
        <filter x="-11.4%" y="-6.8%" width="115.7%" height="127.2%" filterUnits="objectBoundingBox" id="filter-6">
            <feOffset dx="-11" dy="12" in="SourceAlpha" result="shadowOffsetOuter1"></feOffset>
            <feGaussianBlur stdDeviation="5.5" in="shadowOffsetOuter1" result="shadowBlurOuter1"></feGaussianBlur>
            <feColorMatrix values="0 0 0 0 0.316369017   0 0 0 0 0.366987588   0 0 0 0 0.353495709  0 0 0 0.257409583 0" type="matrix" in="shadowBlurOuter1" result="shadowMatrixOuter1"></feColorMatrix>
            <feOffset dx="-3" dy="6" in="SourceAlpha" result="shadowOffsetOuter2"></feOffset>
            <feGaussianBlur stdDeviation="2" in="shadowOffsetOuter2" result="shadowBlurOuter2"></feGaussianBlur>
            <feColorMatrix values="0 0 0 0 0   0 0 0 0 0   0 0 0 0 0  0 0 0 0.144614907 0" type="matrix" in="shadowBlurOuter2" result="shadowMatrixOuter2"></feColorMatrix>
            <feMerge>
                <feMergeNode in="shadowMatrixOuter1"></feMergeNode>
                <feMergeNode in="shadowMatrixOuter2"></feMergeNode>
            </feMerge>
        </filter>
        <rect id="path-7" x="450" y="671.5" width="293" height="169"></rect>
        <filter x="-11.4%" y="-6.8%" width="115.7%" height="127.2%" filterUnits="objectBoundingBox" id="filter-8">
            <feOffset dx="-11" dy="12" in="SourceAlpha" result="shadowOffsetOuter1"></feOffset>
            <feGaussianBlur stdDeviation="5.5" in="shadowOffsetOuter1" result="shadowBlurOuter1"></feGaussianBlur>
            <feColorMatrix values="0 0 0 0 0.316369017   0 0 0 0 0.366987588   0 0 0 0 0.353495709  0 0 0 0.257409583 0" type="matrix" in="shadowBlurOuter1" result="shadowMatrixOuter1"></feColorMatrix>
            <feOffset dx="-3" dy="6" in="SourceAlpha" result="shadowOffsetOuter2"></feOffset>
            <feGaussianBlur stdDeviation="2" in="shadowOffsetOuter2" result="shadowBlurOuter2"></feGaussianBlur>
            <feColorMatrix values="0 0 0 0 0   0 0 0 0 0   0 0 0 0 0  0 0 0 0.144614907 0" type="matrix" in="shadowBlurOuter2" result="shadowMatrixOuter2"></feColorMatrix>
            <feMerge>
                <feMergeNode in="shadowMatrixOuter1"></feMergeNode>
                <feMergeNode in="shadowMatrixOuter2"></feMergeNode>
            </feMerge>
        </filter>
        <polygon id="path-9" points="85.386 0 159.332445 42.693 159.332445 128.079 85.386 170.772 11.4395549 128.079 11.4395549 42.693"></polygon>
        <filter x="-7.6%" y="-5.0%" width="106.5%" height="119.9%" filterUnits="objectBoundingBox" id="filter-10">
            <feOffset dx="-8" dy="9" in="SourceAlpha" result="shadowOffsetOuter1"></feOffset>
            <feGaussianBlur stdDeviation="4" in="shadowOffsetOuter1" result="shadowBlurOuter1"></feGaussianBlur>
            <feColorMatrix values="0 0 0 0 0.316369017   0 0 0 0 0.366987588   0 0 0 0 0.353495709  0 0 0 0.257409583 0" type="matrix" in="shadowBlurOuter1" result="shadowMatrixOuter1"></feColorMatrix>
            <feOffset dx="-2" dy="5" in="SourceAlpha" result="shadowOffsetOuter2"></feOffset>
            <feGaussianBlur stdDeviation="1.5" in="shadowOffsetOuter2" result="shadowBlurOuter2"></feGaussianBlur>
            <feColorMatrix values="0 0 0 0 0   0 0 0 0 0   0 0 0 0 0  0 0 0 0.144614907 0" type="matrix" in="shadowBlurOuter2" result="shadowMatrixOuter2"></feColorMatrix>
            <feMerge>
                <feMergeNode in="shadowMatrixOuter1"></feMergeNode>
                <feMergeNode in="shadowMatrixOuter2"></feMergeNode>
            </feMerge>
        </filter>
        <polygon id="path-11" points="85.386 0 159.332445 42.693 159.332445 128.079 85.386 170.772 11.4395549 128.079 11.4395549 42.693"></polygon>
        <filter x="-7.6%" y="-5.0%" width="106.5%" height="119.9%" filterUnits="objectBoundingBox" id="filter-12">
            <feOffset dx="-8" dy="9" in="SourceAlpha" result="shadowOffsetOuter1"></feOffset>
            <feGaussianBlur stdDeviation="4" in="shadowOffsetOuter1" result="shadowBlurOuter1"></feGaussianBlur>
            <feColorMatrix values="0 0 0 0 0.316369017   0 0 0 0 0.366987588   0 0 0 0 0.353495709  0 0 0 0.257409583 0" type="matrix" in="shadowBlurOuter1" result="shadowMatrixOuter1"></feColorMatrix>
            <feOffset dx="-2" dy="5" in="SourceAlpha" result="shadowOffsetOuter2"></feOffset>
            <feGaussianBlur stdDeviation="1.5" in="shadowOffsetOuter2" result="shadowBlurOuter2"></feGaussianBlur>
            <feColorMatrix values="0 0 0 0 0   0 0 0 0 0   0 0 0 0 0  0 0 0 0.144614907 0" type="matrix" in="shadowBlurOuter2" result="shadowMatrixOuter2"></feColorMatrix>
            <feMerge>
                <feMergeNode in="shadowMatrixOuter1"></feMergeNode>
                <feMergeNode in="shadowMatrixOuter2"></feMergeNode>
            </feMerge>
        </filter>
        <polygon id="path-13" points="983.52 268 1019.04436 288.51 1019.04436 329.53 983.52 350.04 947.995638 329.53 947.995638 288.51"></polygon>
        <filter x="-38.4%" y="-15.8%" width="148.8%" height="163.4%" filterUnits="objectBoundingBox" id="filter-14">
            <feOffset dx="-12" dy="14" in="SourceAlpha" result="shadowOffsetOuter1"></feOffset>
            <feGaussianBlur stdDeviation="6" in="shadowOffsetOuter1" result="shadowBlurOuter1"></feGaussianBlur>
            <feColorMatrix values="0 0 0 0 0.316369017   0 0 0 0 0.366987588   0 0 0 0 0.353495709  0 0 0 0.257409583 0" type="matrix" in="shadowBlurOuter1" result="shadowMatrixOuter1"></feColorMatrix>
            <feOffset dx="-4" dy="7" in="SourceAlpha" result="shadowOffsetOuter2"></feOffset>
            <feGaussianBlur stdDeviation="2.5" in="shadowOffsetOuter2" result="shadowBlurOuter2"></feGaussianBlur>
            <feColorMatrix values="0 0 0 0 0   0 0 0 0 0   0 0 0 0 0  0 0 0 0.144614907 0" type="matrix" in="shadowBlurOuter2" result="shadowMatrixOuter2"></feColorMatrix>
            <feMerge>
                <feMergeNode in="shadowMatrixOuter1"></feMergeNode>
                <feMergeNode in="shadowMatrixOuter2"></feMergeNode>
            </feMerge>
        </filter>
    </defs>
    <g id="Page-1" stroke="none" stroke-width="1" fill="none" fill-rule="evenodd">
        <g id="Governance-中文" transform="translate(-319.000000, -1832.000000)">
            <g id="编组-3" transform="translate(319.000000, 1832.000000)">
                <g id="Group-7-Copy" transform="translate(942.500000, 494.500000)">
                    <g id="Polygon-Copy-14">
                        <use fill="black" fill-opacity="1" filter="url(#filter-2)" xlink:href="#path-1"></use>
                        <use fill="#F0F5F6" fill-rule="evenodd" xlink:href="#path-1"></use>
                    </g>
                    <g id="Group-6" transform="translate(28.500000, 28.000000)" fill="#00E599" fill-rule="nonzero">
                        <path d="M25.02088,25.69712 L25.02088,21.1286343 C25.02088,20.6716225 24.7640674,20.3003004 24.2504423,20.0146681 C23.7368172,19.7290357 23.4800047,19.5862195 23.4800047,19.5862195 L16.6561283,16.3300105 C17.1942118,15.9056424 17.6507674,15.3955846 18.0257953,14.7998371 C18.4008231,14.2040896 18.702476,13.5838593 18.9307538,12.9391463 C19.1590316,12.2944332 19.3220872,11.6619615 19.4199205,11.0417313 C19.5177539,10.421501 19.5666706,9.874719 19.5666706,9.40138537 L19.5666706,5.48414146 C19.5666706,4.83126748 19.3587747,4.1783935 18.942983,3.52551951 C18.5271912,2.87264553 17.9891078,2.28505894 17.3287326,1.76275976 C16.6683575,1.24046057 15.9183018,0.81609248 15.0785655,0.489655488 C14.2388292,0.163218496 13.3868638,0 12.5226692,0 C11.6584746,0 10.8024327,0.163218496 9.95454366,0.489655488 C9.1066546,0.81609248 8.3525225,1.24046057 7.69214737,1.76275976 C7.03177224,2.28505894 6.49776519,2.87264553 6.09012622,3.52551951 C5.68248725,4.1783935 5.47866776,4.83126748 5.47866776,5.48414146 L5.47866776,9.40138537 C5.47866776,9.82575346 5.52758444,10.3439722 5.62541779,10.9560415 C5.72325114,11.5681109 5.89038312,12.1965021 6.12681372,12.8412152 C6.36324433,13.4859282 6.66897355,14.1183999 7.04400141,14.7386302 C7.41902926,15.3588605 7.88373769,15.8893206 8.43812669,16.3300105 L1.56533365,19.5862195 C1.56533365,19.5862195 1.30444471,19.7371966 0.782666823,20.0391508 C0.260888941,20.3411051 0,20.7042662 0,21.1286343 L0,25.69712" id=""></path>
                    </g>
                </g>
                <g id="Group-9" transform="translate(606.500000, 430.000000) rotate(-90.000000) translate(-606.500000, -430.000000) translate(261.500000, 128.500000)">
                    <path d="M320.437329,4.54747351e-13 L320.437329,46.9 C320.437329,68.1629629 303.200292,85.4 281.937329,85.4 L51.6436844,85.4 C30.3807215,85.4 13.1436844,102.637037 13.1436844,123.9 L13.1436844,596.190186 L13.1436844,596.190186" id="Path-5" stroke="#6EEDB1" stroke-width="7"></path>
                    <line x1="351.937329" y1="-4.85119167e-11" x2="351.5" y2="241.5" id="Path-5" stroke="#00E599" stroke-width="56"></line>
                    <path d="M383.437329,-2.72848411e-11 L383.437329,46.9 C383.437329,68.1629629 400.674366,85.4 421.937329,85.4 L639.335595,85.4 C660.598558,85.4 677.835595,102.637037 677.835595,123.9 L677.835595,592.891846 L677.835595,592.891846" id="Path-5" stroke="#00AF92" stroke-width="7"></path>
                    <polygon id="Triangle" fill="#6EEDB1" transform="translate(12.000000, 594.350000) rotate(-180.000000) translate(-12.000000, -594.350000) " points="12 588.75 23.9 599.95 0.1 599.95"></polygon>
                    <polygon id="Triangle" fill="#00AF92" transform="translate(677.500000, 594.250000) rotate(-180.000000) translate(-677.500000, -594.250000) " points="677.5 588.65 689.4 599.85 665.6 599.85"></polygon>
                    <polygon id="Triangle" fill="#00E599" transform="translate(461.400000, 589.150000) rotate(-180.000000) translate(-461.400000, -589.150000) " points="461.4 576.15 488.9 602.15 433.9 602.15"></polygon>
                    <polygon id="Triangle" fill="#00E599" transform="translate(240.400000, 589.150000) rotate(-180.000000) translate(-240.400000, -589.150000) " points="240.4 576.15 267.9 602.15 212.9 602.15"></polygon>
                </g>
                <g id="Group-10" transform="translate(48.000000, 318.000000)">
                    <polygon id="Polygon-Copy-14" fill="#00E599" points="33.915 0 63.2862516 16.9575 63.2862516 50.8725 33.915 67.83 4.54374843 50.8725 4.54374843 16.9575"></polygon>
                    <path d="M33.9616428,50.54 L18.62,44.9370066 L18.62,23.0301836 L34.0018486,17.29 L47.8040557,22.3169763 L47.88,45.4139924 L33.9616428,40.1725997 L33.9616428,50.54 Z M19.9924545,43.8686772 L32.4619632,48.4473427 L32.4619632,27.4511515 L44.9082812,22.7083108 L33.9310105,18.6851049 L19.9915625,23.915911 L19.9924545,43.8686772 Z M33.9357813,38.6147934 L46.5084375,43.331958 L46.4445575,23.8004895 L33.9384804,28.5240361 L33.9357813,38.6147934 Z" id="Shape" fill="#FFFFFF" fill-rule="nonzero"></path>
                </g>
                <path d="M882,298.715454 L882,327.715454 L811,327.715454 C802.54527,327.715454 795.671595,334.48475 795.503163,342.899153 L795.5,343.215454 L795.5,380.219849 C795.5,404.550753 775.973146,424.320917 751.735889,424.713887 L751,424.719849 L704.51044,424.719849 L704.51044,395.719849 L751,395.719849 C759.45473,395.719849 766.328405,388.950552 766.496837,380.53615 L766.5,380.219849 L766.5,343.215454 C766.5,318.884549 786.026854,299.114386 810.264111,298.721416 L811,298.715454 L882,298.715454 Z" id="Path-6" fill="#00E599" fill-rule="nonzero"></path>
                <path d="M882,422.715454 L882,451.715454 L811,451.715454 C802.54527,451.715454 795.671595,458.48475 795.503163,466.899153 L795.5,467.215454 L795.5,504.219849 C795.5,528.550753 775.973146,548.320917 751.735889,548.713887 L751,548.719849 L704.51044,548.719849 L704.51044,519.719849 L751,519.719849 C759.45473,519.719849 766.328405,512.950552 766.496837,504.53615 L766.5,504.219849 L766.5,467.215454 C766.5,442.884549 786.026854,423.114386 810.264111,422.721416 L811,422.715454 L882,422.715454 Z" id="Path-6" fill="#00E599" fill-rule="nonzero" transform="translate(793.255220, 485.717651) scale(1, -1) translate(-793.255220, -485.717651) "></path>
                <g id="Rectangle-Copy-3">
                    <use fill="black" fill-opacity="1" filter="url(#filter-4)" xlink:href="#path-3"></use>
                    <use fill="#F0F5F6" fill-rule="evenodd" xlink:href="#path-3"></use>
                </g>
                <g id="Rectangle-Copy-4">
                    <use fill="black" fill-opacity="1" filter="url(#filter-6)" xlink:href="#path-5"></use>
                    <use fill="#F0F5F6" fill-rule="evenodd" xlink:href="#path-5"></use>
                </g>
                <g id="Rectangle-Copy-6">
                    <use fill="black" fill-opacity="1" filter="url(#filter-8)" xlink:href="#path-7"></use>
                    <use fill="#F0F5F6" fill-rule="evenodd" xlink:href="#path-7"></use>
                </g>
                <path d="M489.22,115 L489.22,55.6 L485.17,55.6 C484.39,56.98 483.31,58.3 481.93,59.56 C480.55,60.82 479.035,61.99 477.385,63.07 C475.735,64.15 474.1,65.065 472.48,65.815 C470.86,66.565 469.39,67.12 468.07,67.48 L468.07,67.48 L469.24,71.53 C472.18,70.75 475.03,69.505 477.79,67.795 C480.55,66.085 482.89,64.03 484.81,61.63 C484.81,62.71 484.795,63.775 484.765,64.825 C484.735,65.875 484.72,66.91 484.72,67.93 L484.72,67.93 L484.72,115 L489.22,115 Z M525.31,115.9 C532.09,115.9 537.385,113.275 541.195,108.025 C545.005,102.775 546.91,95.2 546.91,85.3 C546.91,75.4 545.005,67.825 541.195,62.575 C537.385,57.325 532.09,54.7 525.31,54.7 C518.53,54.7 513.22,57.325 509.38,62.575 C505.54,67.825 503.62,75.4 503.62,85.3 C503.62,95.2 505.54,102.775 509.38,108.025 C513.22,113.275 518.53,115.9 525.31,115.9 Z M525.31,111.85 C521.65,111.85 518.545,110.845 515.995,108.835 C513.445,106.825 511.51,103.825 510.19,99.835 C508.87,95.845 508.21,91 508.21,85.3 C508.21,79.54 508.87,74.68 510.19,70.72 C511.51,66.76 513.445,63.775 515.995,61.765 C518.545,59.755 521.65,58.75 525.31,58.75 C528.97,58.75 532.06,59.755 534.58,61.765 C537.1,63.775 539.02,66.76 540.34,70.72 C541.66,74.68 542.32,79.54 542.32,85.3 C542.32,91.06 541.66,95.92 540.34,99.88 C539.02,103.84 537.1,106.825 534.58,108.835 C532.06,110.845 528.97,111.85 525.31,111.85 Z M558.25,105.52 C559.23,105.52 560.05,105.29 560.71,104.83 C561.37,104.37 561.87,103.745 562.21,102.955 C562.55,102.165 562.72,101.28 562.72,100.3 C562.72,99.32 562.55,98.435 562.21,97.645 C561.87,96.855 561.37,96.225 560.71,95.755 C560.05,95.285 559.23,95.05 558.25,95.05 C557.29,95.05 556.47,95.285 555.79,95.755 C555.11,96.225 554.605,96.855 554.275,97.645 C553.945,98.435 553.78,99.32 553.78,100.3 C553.78,101.28 553.95,102.165 554.29,102.955 C554.63,103.745 555.135,104.37 555.805,104.83 C556.475,105.29 557.29,105.52 558.25,105.52 Z M558.94,115 L571.93,95.2 L570.46,95.2 L557.47,115 L558.94,115 Z M558.25,104.32 C557.55,104.32 556.97,104.15 556.51,103.81 C556.05,103.47 555.705,102.995 555.475,102.385 C555.245,101.775 555.13,101.08 555.13,100.3 C555.13,99.52 555.245,98.825 555.475,98.215 C555.705,97.605 556.05,97.125 556.51,96.775 C556.97,96.425 557.55,96.25 558.25,96.25 C558.97,96.25 559.555,96.425 560.005,96.775 C560.455,97.125 560.795,97.605 561.025,98.215 C561.255,98.825 561.37,99.52 561.37,100.3 C561.37,101.08 561.26,101.775 561.04,102.385 C560.82,102.995 560.48,103.47 560.02,103.81 C559.56,104.15 558.97,104.32 558.25,104.32 Z M571.18,115.15 C572.16,115.15 572.98,114.92 573.64,114.46 C574.3,114 574.8,113.375 575.14,112.585 C575.48,111.795 575.65,110.91 575.65,109.93 C575.65,108.93 575.48,108.035 575.14,107.245 C574.8,106.455 574.3,105.83 573.64,105.37 C572.98,104.91 572.16,104.68 571.18,104.68 C570.22,104.68 569.4,104.91 568.72,105.37 C568.04,105.83 567.53,106.455 567.19,107.245 C566.85,108.035 566.68,108.93 566.68,109.93 C566.68,110.91 566.85,111.795 567.19,112.585 C567.53,113.375 568.04,114 568.72,114.46 C569.4,114.92 570.22,115.15 571.18,115.15 Z M571.18,113.95 C570.48,113.95 569.895,113.775 569.425,113.425 C568.955,113.075 568.605,112.595 568.375,111.985 C568.145,111.375 568.03,110.69 568.03,109.93 C568.03,109.15 568.145,108.455 568.375,107.845 C568.605,107.235 568.955,106.755 569.425,106.405 C569.895,106.055 570.48,105.88 571.18,105.88 C571.9,105.88 572.485,106.055 572.935,106.405 C573.385,106.755 573.725,107.235 573.955,107.845 C574.185,108.455 574.3,109.15 574.3,109.93 C574.3,110.69 574.185,111.375 573.955,111.985 C573.725,112.595 573.385,113.075 572.935,113.425 C572.485,113.775 571.9,113.95 571.18,113.95 Z" id="10%" fill="#000033" fill-rule="nonzero"></path>
                <path d="M1082.71,339 L1082.71,322.08 L1094.14,322.08 L1094.14,318.21 L1082.71,318.21 L1082.71,279.6 L1076.95,279.6 L1048.69,318.66 L1048.69,318.66 L1048.69,322.08 L1078.21,322.08 L1078.21,339 L1082.71,339 Z M1078.21,318.21 L1053.55,318.21 L1073.26,291.21 C1074.04,290.07 1074.895,288.795 1075.825,287.385 C1076.755,285.975 1077.55,284.64 1078.21,283.38 L1078.21,283.38 L1078.39,283.38 C1078.33,284.64 1078.285,285.93 1078.255,287.25 C1078.225,288.57 1078.21,289.83 1078.21,291.03 L1078.21,291.03 L1078.21,318.21 Z M1124.74,339.9 C1131.52,339.9 1136.815,337.275 1140.625,332.025 C1144.435,326.775 1146.34,319.2 1146.34,309.3 C1146.34,299.4 1144.435,291.825 1140.625,286.575 C1136.815,281.325 1131.52,278.7 1124.74,278.7 C1117.96,278.7 1112.65,281.325 1108.81,286.575 C1104.97,291.825 1103.05,299.4 1103.05,309.3 C1103.05,319.2 1104.97,326.775 1108.81,332.025 C1112.65,337.275 1117.96,339.9 1124.74,339.9 Z M1124.74,335.85 C1121.08,335.85 1117.975,334.845 1115.425,332.835 C1112.875,330.825 1110.94,327.825 1109.62,323.835 C1108.3,319.845 1107.64,315 1107.64,309.3 C1107.64,303.54 1108.3,298.68 1109.62,294.72 C1110.94,290.76 1112.875,287.775 1115.425,285.765 C1117.975,283.755 1121.08,282.75 1124.74,282.75 C1128.4,282.75 1131.49,283.755 1134.01,285.765 C1136.53,287.775 1138.45,290.76 1139.77,294.72 C1141.09,298.68 1141.75,303.54 1141.75,309.3 C1141.75,315.06 1141.09,319.92 1139.77,323.88 C1138.45,327.84 1136.53,330.825 1134.01,332.835 C1131.49,334.845 1128.4,335.85 1124.74,335.85 Z M1157.68,329.52 C1158.66,329.52 1159.48,329.29 1160.14,328.83 C1160.8,328.37 1161.3,327.745 1161.64,326.955 C1161.98,326.165 1162.15,325.28 1162.15,324.3 C1162.15,323.32 1161.98,322.435 1161.64,321.645 C1161.3,320.855 1160.8,320.225 1160.14,319.755 C1159.48,319.285 1158.66,319.05 1157.68,319.05 C1156.72,319.05 1155.9,319.285 1155.22,319.755 C1154.54,320.225 1154.035,320.855 1153.705,321.645 C1153.375,322.435 1153.21,323.32 1153.21,324.3 C1153.21,325.28 1153.38,326.165 1153.72,326.955 C1154.06,327.745 1154.565,328.37 1155.235,328.83 C1155.905,329.29 1156.72,329.52 1157.68,329.52 Z M1158.37,339 L1171.36,319.2 L1169.89,319.2 L1156.9,339 L1158.37,339 Z M1157.68,328.32 C1156.98,328.32 1156.4,328.15 1155.94,327.81 C1155.48,327.47 1155.135,326.995 1154.905,326.385 C1154.675,325.775 1154.56,325.08 1154.56,324.3 C1154.56,323.52 1154.675,322.825 1154.905,322.215 C1155.135,321.605 1155.48,321.125 1155.94,320.775 C1156.4,320.425 1156.98,320.25 1157.68,320.25 C1158.4,320.25 1158.985,320.425 1159.435,320.775 C1159.885,321.125 1160.225,321.605 1160.455,322.215 C1160.685,322.825 1160.8,323.52 1160.8,324.3 C1160.8,325.08 1160.69,325.775 1160.47,326.385 C1160.25,326.995 1159.91,327.47 1159.45,327.81 C1158.99,328.15 1158.4,328.32 1157.68,328.32 Z M1170.61,339.15 C1171.59,339.15 1172.41,338.92 1173.07,338.46 C1173.73,338 1174.23,337.375 1174.57,336.585 C1174.91,335.795 1175.08,334.91 1175.08,333.93 C1175.08,332.93 1174.91,332.035 1174.57,331.245 C1174.23,330.455 1173.73,329.83 1173.07,329.37 C1172.41,328.91 1171.59,328.68 1170.61,328.68 C1169.65,328.68 1168.83,328.91 1168.15,329.37 C1167.47,329.83 1166.96,330.455 1166.62,331.245 C1166.28,332.035 1166.11,332.93 1166.11,333.93 C1166.11,334.91 1166.28,335.795 1166.62,336.585 C1166.96,337.375 1167.47,338 1168.15,338.46 C1168.83,338.92 1169.65,339.15 1170.61,339.15 Z M1170.61,337.95 C1169.91,337.95 1169.325,337.775 1168.855,337.425 C1168.385,337.075 1168.035,336.595 1167.805,335.985 C1167.575,335.375 1167.46,334.69 1167.46,333.93 C1167.46,333.15 1167.575,332.455 1167.805,331.845 C1168.035,331.235 1168.385,330.755 1168.855,330.405 C1169.325,330.055 1169.91,329.88 1170.61,329.88 C1171.33,329.88 1171.915,330.055 1172.365,330.405 C1172.815,330.755 1173.155,331.235 1173.385,331.845 C1173.615,332.455 1173.73,333.15 1173.73,333.93 C1173.73,334.69 1173.615,335.375 1173.385,335.985 C1173.155,336.595 1172.815,337.075 1172.365,337.425 C1171.915,337.775 1171.33,337.95 1170.61,337.95 Z" id="40%" fill="#000033" fill-rule="nonzero"></path>
                <path d="M1082.71,569 L1082.71,552.08 L1094.14,552.08 L1094.14,548.21 L1082.71,548.21 L1082.71,509.6 L1076.95,509.6 L1048.69,548.66 L1048.69,548.66 L1048.69,552.08 L1078.21,552.08 L1078.21,569 L1082.71,569 Z M1078.21,548.21 L1053.55,548.21 L1073.26,521.21 C1074.04,520.07 1074.895,518.795 1075.825,517.385 C1076.755,515.975 1077.55,514.64 1078.21,513.38 L1078.21,513.38 L1078.39,513.38 C1078.33,514.64 1078.285,515.93 1078.255,517.25 C1078.225,518.57 1078.21,519.83 1078.21,521.03 L1078.21,521.03 L1078.21,548.21 Z M1124.74,569.9 C1131.52,569.9 1136.815,567.275 1140.625,562.025 C1144.435,556.775 1146.34,549.2 1146.34,539.3 C1146.34,529.4 1144.435,521.825 1140.625,516.575 C1136.815,511.325 1131.52,508.7 1124.74,508.7 C1117.96,508.7 1112.65,511.325 1108.81,516.575 C1104.97,521.825 1103.05,529.4 1103.05,539.3 C1103.05,549.2 1104.97,556.775 1108.81,562.025 C1112.65,567.275 1117.96,569.9 1124.74,569.9 Z M1124.74,565.85 C1121.08,565.85 1117.975,564.845 1115.425,562.835 C1112.875,560.825 1110.94,557.825 1109.62,553.835 C1108.3,549.845 1107.64,545 1107.64,539.3 C1107.64,533.54 1108.3,528.68 1109.62,524.72 C1110.94,520.76 1112.875,517.775 1115.425,515.765 C1117.975,513.755 1121.08,512.75 1124.74,512.75 C1128.4,512.75 1131.49,513.755 1134.01,515.765 C1136.53,517.775 1138.45,520.76 1139.77,524.72 C1141.09,528.68 1141.75,533.54 1141.75,539.3 C1141.75,545.06 1141.09,549.92 1139.77,553.88 C1138.45,557.84 1136.53,560.825 1134.01,562.835 C1131.49,564.845 1128.4,565.85 1124.74,565.85 Z M1157.68,559.52 C1158.66,559.52 1159.48,559.29 1160.14,558.83 C1160.8,558.37 1161.3,557.745 1161.64,556.955 C1161.98,556.165 1162.15,555.28 1162.15,554.3 C1162.15,553.32 1161.98,552.435 1161.64,551.645 C1161.3,550.855 1160.8,550.225 1160.14,549.755 C1159.48,549.285 1158.66,549.05 1157.68,549.05 C1156.72,549.05 1155.9,549.285 1155.22,549.755 C1154.54,550.225 1154.035,550.855 1153.705,551.645 C1153.375,552.435 1153.21,553.32 1153.21,554.3 C1153.21,555.28 1153.38,556.165 1153.72,556.955 C1154.06,557.745 1154.565,558.37 1155.235,558.83 C1155.905,559.29 1156.72,559.52 1157.68,559.52 Z M1158.37,569 L1171.36,549.2 L1169.89,549.2 L1156.9,569 L1158.37,569 Z M1157.68,558.32 C1156.98,558.32 1156.4,558.15 1155.94,557.81 C1155.48,557.47 1155.135,556.995 1154.905,556.385 C1154.675,555.775 1154.56,555.08 1154.56,554.3 C1154.56,553.52 1154.675,552.825 1154.905,552.215 C1155.135,551.605 1155.48,551.125 1155.94,550.775 C1156.4,550.425 1156.98,550.25 1157.68,550.25 C1158.4,550.25 1158.985,550.425 1159.435,550.775 C1159.885,551.125 1160.225,551.605 1160.455,552.215 C1160.685,552.825 1160.8,553.52 1160.8,554.3 C1160.8,555.08 1160.69,555.775 1160.47,556.385 C1160.25,556.995 1159.91,557.47 1159.45,557.81 C1158.99,558.15 1158.4,558.32 1157.68,558.32 Z M1170.61,569.15 C1171.59,569.15 1172.41,568.92 1173.07,568.46 C1173.73,568 1174.23,567.375 1174.57,566.585 C1174.91,565.795 1175.08,564.91 1175.08,563.93 C1175.08,562.93 1174.91,562.035 1174.57,561.245 C1174.23,560.455 1173.73,559.83 1173.07,559.37 C1172.41,558.91 1171.59,558.68 1170.61,558.68 C1169.65,558.68 1168.83,558.91 1168.15,559.37 C1167.47,559.83 1166.96,560.455 1166.62,561.245 C1166.28,562.035 1166.11,562.93 1166.11,563.93 C1166.11,564.91 1166.28,565.795 1166.62,566.585 C1166.96,567.375 1167.47,568 1168.15,568.46 C1168.83,568.92 1169.65,569.15 1170.61,569.15 Z M1170.61,567.95 C1169.91,567.95 1169.325,567.775 1168.855,567.425 C1168.385,567.075 1168.035,566.595 1167.805,565.985 C1167.575,565.375 1167.46,564.69 1167.46,563.93 C1167.46,563.15 1167.575,562.455 1167.805,561.845 C1168.035,561.235 1168.385,560.755 1168.855,560.405 C1169.325,560.055 1169.91,559.88 1170.61,559.88 C1171.33,559.88 1171.915,560.055 1172.365,560.405 C1172.815,560.755 1173.155,561.235 1173.385,561.845 C1173.615,562.455 1173.73,563.15 1173.73,563.93 C1173.73,564.69 1173.615,565.375 1173.385,565.985 C1173.155,566.595 1172.815,567.075 1172.365,567.425 C1171.915,567.775 1171.33,567.95 1170.61,567.95 Z" id="40%" fill="#000033" fill-rule="nonzero"></path>
                <path d="M490.55,450.9 C494.81,450.9 498.5,450.21 501.62,448.83 C504.74,447.45 507.185,445.515 508.955,443.025 C510.725,440.535 511.61,437.64 511.61,434.34 C511.61,430.44 510.425,427.125 508.055,424.395 C505.685,421.665 502.49,419.79 498.47,418.77 L498.47,418.77 L498.47,418.68 C501.77,417.66 504.35,415.95 506.21,413.55 C508.07,411.15 509,408.24 509,404.82 C509,401.76 508.235,399.105 506.705,396.855 C505.175,394.605 503.03,392.865 500.27,391.635 C497.51,390.405 494.27,389.79 490.55,389.79 C486.89,389.79 483.68,390.405 480.92,391.635 C478.16,392.865 476.015,394.605 474.485,396.855 C472.955,399.105 472.19,401.76 472.19,404.82 C472.19,408.3 473.135,411.225 475.025,413.595 C476.915,415.965 479.48,417.66 482.72,418.68 L482.72,418.68 L482.72,418.77 C478.76,419.79 475.58,421.665 473.18,424.395 C470.78,427.125 469.58,430.44 469.58,434.34 C469.58,437.64 470.465,440.535 472.235,443.025 C474.005,445.515 476.465,447.45 479.615,448.83 C482.765,450.21 486.41,450.9 490.55,450.9 Z M490.55,416.7 C486.47,416.7 483.17,415.665 480.65,413.595 C478.13,411.525 476.87,408.75 476.87,405.27 C476.87,401.73 478.115,398.955 480.605,396.945 C483.095,394.935 486.41,393.93 490.55,393.93 C494.81,393.93 498.17,394.935 500.63,396.945 C503.09,398.955 504.32,401.73 504.32,405.27 C504.32,408.75 503.075,411.525 500.585,413.595 C498.095,415.665 494.75,416.7 490.55,416.7 Z M490.55,446.76 C487.31,446.76 484.46,446.22 482,445.14 C479.54,444.06 477.635,442.575 476.285,440.685 C474.935,438.795 474.26,436.56 474.26,433.98 C474.26,431.34 474.935,429.045 476.285,427.095 C477.635,425.145 479.54,423.63 482,422.55 C484.46,421.47 487.31,420.93 490.55,420.93 C493.85,420.93 496.73,421.47 499.19,422.55 C501.65,423.63 503.555,425.145 504.905,427.095 C506.255,429.045 506.93,431.34 506.93,433.98 C506.93,436.56 506.255,438.795 504.905,440.685 C503.555,442.575 501.65,444.06 499.19,445.14 C496.73,446.22 493.85,446.76 490.55,446.76 Z M536.85,450.9 C543.63,450.9 548.925,448.275 552.735,443.025 C556.545,437.775 558.45,430.2 558.45,420.3 C558.45,410.4 556.545,402.825 552.735,397.575 C548.925,392.325 543.63,389.7 536.85,389.7 C530.07,389.7 524.76,392.325 520.92,397.575 C517.08,402.825 515.16,410.4 515.16,420.3 C515.16,430.2 517.08,437.775 520.92,443.025 C524.76,448.275 530.07,450.9 536.85,450.9 Z M536.85,446.85 C533.19,446.85 530.085,445.845 527.535,443.835 C524.985,441.825 523.05,438.825 521.73,434.835 C520.41,430.845 519.75,426 519.75,420.3 C519.75,414.54 520.41,409.68 521.73,405.72 C523.05,401.76 524.985,398.775 527.535,396.765 C530.085,394.755 533.19,393.75 536.85,393.75 C540.51,393.75 543.6,394.755 546.12,396.765 C548.64,398.775 550.56,401.76 551.88,405.72 C553.2,409.68 553.86,414.54 553.86,420.3 C553.86,426.06 553.2,430.92 551.88,434.88 C550.56,438.84 548.64,441.825 546.12,443.835 C543.6,445.845 540.51,446.85 536.85,446.85 Z M562.09,440.52 C563.07,440.52 563.89,440.29 564.55,439.83 C565.21,439.37 565.71,438.745 566.05,437.955 C566.39,437.165 566.56,436.28 566.56,435.3 C566.56,434.32 566.39,433.435 566.05,432.645 C565.71,431.855 565.21,431.225 564.55,430.755 C563.89,430.285 563.07,430.05 562.09,430.05 C561.13,430.05 560.31,430.285 559.63,430.755 C558.95,431.225 558.445,431.855 558.115,432.645 C557.785,433.435 557.62,434.32 557.62,435.3 C557.62,436.28 557.79,437.165 558.13,437.955 C558.47,438.745 558.975,439.37 559.645,439.83 C560.315,440.29 561.13,440.52 562.09,440.52 Z M562.78,450 L575.77,430.2 L574.3,430.2 L561.31,450 L562.78,450 Z M562.09,439.32 C561.39,439.32 560.81,439.15 560.35,438.81 C559.89,438.47 559.545,437.995 559.315,437.385 C559.085,436.775 558.97,436.08 558.97,435.3 C558.97,434.52 559.085,433.825 559.315,433.215 C559.545,432.605 559.89,432.125 560.35,431.775 C560.81,431.425 561.39,431.25 562.09,431.25 C562.81,431.25 563.395,431.425 563.845,431.775 C564.295,432.125 564.635,432.605 564.865,433.215 C565.095,433.825 565.21,434.52 565.21,435.3 C565.21,436.08 565.1,436.775 564.88,437.385 C564.66,437.995 564.32,438.47 563.86,438.81 C563.4,439.15 562.81,439.32 562.09,439.32 Z M575.02,450.15 C576,450.15 576.82,449.92 577.48,449.46 C578.14,449 578.64,448.375 578.98,447.585 C579.32,446.795 579.49,445.91 579.49,444.93 C579.49,443.93 579.32,443.035 578.98,442.245 C578.64,441.455 578.14,440.83 577.48,440.37 C576.82,439.91 576,439.68 575.02,439.68 C574.06,439.68 573.24,439.91 572.56,440.37 C571.88,440.83 571.37,441.455 571.03,442.245 C570.69,443.035 570.52,443.93 570.52,444.93 C570.52,445.91 570.69,446.795 571.03,447.585 C571.37,448.375 571.88,449 572.56,449.46 C573.24,449.92 574.06,450.15 575.02,450.15 Z M575.02,448.95 C574.32,448.95 573.735,448.775 573.265,448.425 C572.795,448.075 572.445,447.595 572.215,446.985 C571.985,446.375 571.87,445.69 571.87,444.93 C571.87,444.15 571.985,443.455 572.215,442.845 C572.445,442.235 572.795,441.755 573.265,441.405 C573.735,441.055 574.32,440.88 575.02,440.88 C575.74,440.88 576.325,441.055 576.775,441.405 C577.225,441.755 577.565,442.235 577.795,442.845 C578.025,443.455 578.14,444.15 578.14,444.93 C578.14,445.69 578.025,446.375 577.795,446.985 C577.565,447.595 577.225,448.075 576.775,448.425 C576.325,448.775 575.74,448.95 575.02,448.95 Z" id="80%" fill="#000033" fill-rule="nonzero"></path>
                <path d="M489.22,788 L489.22,728.6 L485.17,728.6 C484.39,729.98 483.31,731.3 481.93,732.56 C480.55,733.82 479.035,734.99 477.385,736.07 C475.735,737.15 474.1,738.065 472.48,738.815 C470.86,739.565 469.39,740.12 468.07,740.48 L468.07,740.48 L469.24,744.53 C472.18,743.75 475.03,742.505 477.79,740.795 C480.55,739.085 482.89,737.03 484.81,734.63 C484.81,735.71 484.795,736.775 484.765,737.825 C484.735,738.875 484.72,739.91 484.72,740.93 L484.72,740.93 L484.72,788 L489.22,788 Z M525.31,788.9 C532.09,788.9 537.385,786.275 541.195,781.025 C545.005,775.775 546.91,768.2 546.91,758.3 C546.91,748.4 545.005,740.825 541.195,735.575 C537.385,730.325 532.09,727.7 525.31,727.7 C518.53,727.7 513.22,730.325 509.38,735.575 C505.54,740.825 503.62,748.4 503.62,758.3 C503.62,768.2 505.54,775.775 509.38,781.025 C513.22,786.275 518.53,788.9 525.31,788.9 Z M525.31,784.85 C521.65,784.85 518.545,783.845 515.995,781.835 C513.445,779.825 511.51,776.825 510.19,772.835 C508.87,768.845 508.21,764 508.21,758.3 C508.21,752.54 508.87,747.68 510.19,743.72 C511.51,739.76 513.445,736.775 515.995,734.765 C518.545,732.755 521.65,731.75 525.31,731.75 C528.97,731.75 532.06,732.755 534.58,734.765 C537.1,736.775 539.02,739.76 540.34,743.72 C541.66,747.68 542.32,752.54 542.32,758.3 C542.32,764.06 541.66,768.92 540.34,772.88 C539.02,776.84 537.1,779.825 534.58,781.835 C532.06,783.845 528.97,784.85 525.31,784.85 Z M558.25,778.52 C559.23,778.52 560.05,778.29 560.71,777.83 C561.37,777.37 561.87,776.745 562.21,775.955 C562.55,775.165 562.72,774.28 562.72,773.3 C562.72,772.32 562.55,771.435 562.21,770.645 C561.87,769.855 561.37,769.225 560.71,768.755 C560.05,768.285 559.23,768.05 558.25,768.05 C557.29,768.05 556.47,768.285 555.79,768.755 C555.11,769.225 554.605,769.855 554.275,770.645 C553.945,771.435 553.78,772.32 553.78,773.3 C553.78,774.28 553.95,775.165 554.29,775.955 C554.63,776.745 555.135,777.37 555.805,777.83 C556.475,778.29 557.29,778.52 558.25,778.52 Z M558.94,788 L571.93,768.2 L570.46,768.2 L557.47,788 L558.94,788 Z M558.25,777.32 C557.55,777.32 556.97,777.15 556.51,776.81 C556.05,776.47 555.705,775.995 555.475,775.385 C555.245,774.775 555.13,774.08 555.13,773.3 C555.13,772.52 555.245,771.825 555.475,771.215 C555.705,770.605 556.05,770.125 556.51,769.775 C556.97,769.425 557.55,769.25 558.25,769.25 C558.97,769.25 559.555,769.425 560.005,769.775 C560.455,770.125 560.795,770.605 561.025,771.215 C561.255,771.825 561.37,772.52 561.37,773.3 C561.37,774.08 561.26,774.775 561.04,775.385 C560.82,775.995 560.48,776.47 560.02,776.81 C559.56,777.15 558.97,777.32 558.25,777.32 Z M571.18,788.15 C572.16,788.15 572.98,787.92 573.64,787.46 C574.3,787 574.8,786.375 575.14,785.585 C575.48,784.795 575.65,783.91 575.65,782.93 C575.65,781.93 575.48,781.035 575.14,780.245 C574.8,779.455 574.3,778.83 573.64,778.37 C572.98,777.91 572.16,777.68 571.18,777.68 C570.22,777.68 569.4,777.91 568.72,778.37 C568.04,778.83 567.53,779.455 567.19,780.245 C566.85,781.035 566.68,781.93 566.68,782.93 C566.68,783.91 566.85,784.795 567.19,785.585 C567.53,786.375 568.04,787 568.72,787.46 C569.4,787.92 570.22,788.15 571.18,788.15 Z M571.18,786.95 C570.48,786.95 569.895,786.775 569.425,786.425 C568.955,786.075 568.605,785.595 568.375,784.985 C568.145,784.375 568.03,783.69 568.03,782.93 C568.03,782.15 568.145,781.455 568.375,780.845 C568.605,780.235 568.955,779.755 569.425,779.405 C569.895,779.055 570.48,778.88 571.18,778.88 C571.9,778.88 572.485,779.055 572.935,779.405 C573.385,779.755 573.725,780.235 573.955,780.845 C574.185,781.455 574.3,782.15 574.3,782.93 C574.3,783.69 574.185,784.375 573.955,784.985 C573.725,785.595 573.385,786.075 572.935,786.425 C572.485,786.775 571.9,786.95 571.18,786.95 Z" id="10%" fill="#000033" fill-rule="nonzero"></path>
                <g id="Group-11" transform="translate(205.000000, 166.000000)" fill="#FFFFFF" stroke="#000033" stroke-linejoin="round" stroke-width="1.2019616">
                    <polygon id="Path-20" points="4.54747351e-13 16.9043174 4.54747351e-13 52.5056072 31.2010361 70.5258344 31.2010361 33.0798097"></polygon>
                    <polygon id="Path-20" transform="translate(46.660173, 43.715076) scale(-1, 1) translate(-46.660173, -43.715076) " points="31.0596549 16.9043174 31.0596549 52.5056072 62.260691 70.5258344 62.260691 33.0798097"></polygon>
                    <polygon id="Path-21" points="62.260691 16.9043174 31.0596549 33.0798097 0 16.9043174 31.2010361 -7.07525743e-12"></polygon>
                </g>
                <g id="Group-11" transform="translate(205.000000, 276.000000)" fill="#FFFFFF" stroke="#000033" stroke-linejoin="round" stroke-width="1.2019616">
                    <polygon id="Path-20" points="4.54747351e-13 16.9043174 4.54747351e-13 52.5056072 31.2010361 70.5258344 31.2010361 33.0798097"></polygon>
                    <polygon id="Path-20" transform="translate(46.660173, 43.715076) scale(-1, 1) translate(-46.660173, -43.715076) " points="31.0596549 16.9043174 31.0596549 52.5056072 62.260691 70.5258344 62.260691 33.0798097"></polygon>
                    <polygon id="Path-21" points="62.260691 16.9043174 31.0596549 33.0798097 0 16.9043174 31.2010361 -7.07525743e-12"></polygon>
                </g>
                <g id="Group-11" transform="translate(192.500000, 369.500000)" fill="#00E599" stroke="#000033" stroke-linejoin="round" stroke-width="1.717088">
                    <polygon id="Path-20" points="6.82121026e-13 24.1490248 6.82121026e-13 75.0080102 44.5729087 100.751192 44.5729087 47.256871"></polygon>
                    <polygon id="Path-20" transform="translate(66.657390, 62.450108) scale(-1, 1) translate(-66.657390, -62.450108) " points="44.3709356 24.1490248 44.3709356 75.0080102 88.9438443 100.751192 88.9438443 47.256871"></polygon>
                    <polygon id="Path-21" points="88.9438443 24.1490248 44.3709356 47.256871 0 24.1490248 44.5729087 -1.01075106e-11"></polygon>
                </g>
                <text id="每年约生成200万GAS-（可由理事会调" font-family="MicrosoftYaHei, Microsoft YaHei" font-size="16" font-weight="normal" line-spacing="32" letter-spacing="-0.130081301" fill="#000033">
                    <tspan x="4.01095655" y="500">每年约生成200万GAS</tspan>
                    <tspan x="10.0853659" y="532">（可由理事会调整）</tspan>
                </text>
                <text id="所有NEO持有者按比例分享" font-family="MicrosoftYaHei-Bold, Microsoft YaHei" font-size="16" font-weight="bold" line-spacing="32" letter-spacing="-0.130081301" fill="#000033">
                    <tspan x="593" y="74">所有NEO持有者</tspan>
                    <tspan x="593" y="106">按比例分享</tspan>
                </text>
                <text id="NEO持有者" font-family="MicrosoftYaHei-Bold, Microsoft YaHei" font-size="16" font-weight="bold" line-spacing="32" letter-spacing="-0.130081301" fill="#000033">
                    <tspan x="948" y="209">NEO持有者</tspan>
                </text>
                <text id="理事会成员的投票者按比例分享" font-family="MicrosoftYaHei-Bold, Microsoft YaHei" font-size="16" font-weight="bold" line-spacing="32" letter-spacing="-0.130081301" fill="#000033">
                    <tspan x="593" y="408">理事会成员的投</tspan>
                    <tspan x="593" y="440">票者按比例分享</tspan>
                </text>
                <text id="21名Neo理事会成员平分" font-family="MicrosoftYaHei-Bold, Microsoft YaHei" font-size="16" font-weight="bold" line-spacing="32" letter-spacing="-0.130081301" fill="#000033">
                    <tspan x="593" y="751">21名Neo理事会</tspan>
                    <tspan x="593" y="783">成员平分</tspan>
                </text>
                <text id="每个区块-生成5个GAS" font-family="MicrosoftYaHei-Bold, Microsoft YaHei" font-size="20" font-weight="bold" line-spacing="36" letter-spacing="-0.162601626" fill="#000033">
                    <tspan x="42.3252033" y="423">每个区块</tspan>
                    <tspan x="25.2155901" y="459">生成5个GAS</tspan>
                </text>
                <g id="Group-11" transform="translate(205.000000, 495.000000)" fill="#FFFFFF" stroke="#000033" stroke-linejoin="round" stroke-width="1.2019616">
                    <polygon id="Path-20" points="4.54747351e-13 16.9043174 4.54747351e-13 52.5056072 31.2010361 70.5258344 31.2010361 33.0798097"></polygon>
                    <polygon id="Path-20" transform="translate(46.660173, 43.715076) scale(-1, 1) translate(-46.660173, -43.715076) " points="31.0596549 16.9043174 31.0596549 52.5056072 62.260691 70.5258344 62.260691 33.0798097"></polygon>
                    <polygon id="Path-21" points="62.260691 16.9043174 31.0596549 33.0798097 0 16.9043174 31.2010361 -7.07525743e-12"></polygon>
                </g>
                <g id="Group-11" transform="translate(205.000000, 604.000000)" fill="#FFFFFF" stroke="#000033" stroke-linejoin="round" stroke-width="1.2019616">
                    <polygon id="Path-20" points="4.54747351e-13 16.9043174 4.54747351e-13 52.5056072 31.2010361 70.5258344 31.2010361 33.0798097"></polygon>
                    <polygon id="Path-20" transform="translate(46.660173, 43.715076) scale(-1, 1) translate(-46.660173, -43.715076) " points="31.0596549 16.9043174 31.0596549 52.5056072 62.260691 70.5258344 62.260691 33.0798097"></polygon>
                    <polygon id="Path-21" points="62.260691 16.9043174 31.0596549 33.0798097 0 16.9043174 31.2010361 -7.07525743e-12"></polygon>
                </g>
                <g id="council-icon" transform="translate(908.000000, 673.000000)">
                    <g id="Polygon-Copy-14">
                        <use fill="black" fill-opacity="1" filter="url(#filter-10)" xlink:href="#path-9"></use>
                        <use fill="#F0F5F6" fill-rule="evenodd" xlink:href="#path-9"></use>
                    </g>
                    <g id="icon" transform="translate(49.020000, 48.260000)">
                        <polygon id="Path-3" fill="#FFFFFF" points="67.06468 64.150384 67.06468 60.7158714 64.3351356 58.8151812 64.3351356 22.1335783 65.94444 21.617017 65.94444 16.0920303 69.9644797 16.0920303 69.5020124 10.95312 35.64894 1.06063578 0.920089567 10.95312 0.920089567 16.0920303 4.732824 16.0920303 4.2829257 21.617017 6.6314207 22.1335783 6.6314207 58.8151812 4.732824 59.5218895 3.6138 61.307995 3.6138 65.124324 66.5117628 65.124324"></polygon>
                        <polygon id="Path-4" fill="#00E599" points="27.2885797 39.834824 27.2885797 60.892574 43.0635665 60.892574 43.0635665 39.834824"></polygon>
                        <g id="Group-18" fill="#000000">
                            <path d="M7.52628,58.362832 L14.36932,58.362832 L14.36932,23.042592 L7.52628,23.042592 L7.52628,58.362832 Z M15.34288,60.309952 L6.55272,60.309952 C6.01464,60.309952 5.57916,59.874472 5.57916,59.336392 L5.57916,22.069032 C5.57916,21.530952 6.01464,21.095472 6.55272,21.095472 L15.34288,21.095472 C15.88096,21.095472 16.3172,21.530952 16.3172,22.069032 L16.3172,59.336392 C16.3172,59.874472 15.88096,60.309952 15.34288,60.309952 L15.34288,60.309952 Z" id="Fill-1"></path>
                            <path d="M4.732824,64.150764 L17.162624,64.150764 L17.162624,61.347884 C17.162624,60.776364 16.696744,60.309724 16.124464,60.309724 L5.770984,60.309724 C5.197944,60.309724 4.732824,60.776364 4.732824,61.347884 L4.732824,64.150764 Z M18.136944,66.098644 L3.759264,66.098644 C3.221184,66.098644 2.784944,65.662404 2.784944,65.124324 L2.784944,61.347884 C2.784944,59.701724 4.124064,58.362604 5.770984,58.362604 L16.124464,58.362604 C17.770624,58.362604 19.110504,59.701724 19.110504,61.347884 L19.110504,65.124324 C19.110504,65.662404 18.674264,66.098644 18.136944,66.098644 L18.136944,66.098644 Z" id="Fill-3"></path>
                            <path d="M5.56092,21.095472 L16.33468,21.095472 L16.33468,17.254432 L5.56092,17.254432 L5.56092,21.095472 Z M17.30824,23.042592 L4.58736,23.042592 C4.04928,23.042592 3.6138,22.606352 3.6138,22.069032 L3.6138,16.280872 C3.6138,15.742792 4.04928,15.307312 4.58736,15.307312 L17.30824,15.307312 C17.84632,15.307312 18.28256,15.742792 18.28256,16.280872 L18.28256,22.069032 C18.28256,22.606352 17.84632,23.042592 17.30824,23.042592 L17.30824,23.042592 Z" id="Fill-4"></path>
                            <path d="M56.3084,58.362832 L63.15144,58.362832 L63.15144,23.042592 L56.3084,23.042592 L56.3084,58.362832 Z M64.125,60.309952 L55.33484,60.309952 C54.796,60.309952 54.36052,59.874472 54.36052,59.336392 L54.36052,22.069032 C54.36052,21.530952 54.796,21.095472 55.33484,21.095472 L64.125,21.095472 C64.66308,21.095472 65.09856,21.530952 65.09856,22.069032 L65.09856,59.336392 C65.09856,59.874472 64.66308,60.309952 64.125,60.309952 L64.125,60.309952 Z" id="Fill-5"></path>
                            <path d="M53.51464,64.150764 L65.94444,64.150764 L65.94444,61.347884 C65.94444,60.776364 65.47932,60.309724 64.90628,60.309724 L54.5528,60.309724 C53.98052,60.309724 53.51464,60.776364 53.51464,61.347884 L53.51464,64.150764 Z M66.91876,66.098644 L52.54108,66.098644 C52.00376,66.098644 51.56676,65.662404 51.56676,65.124324 L51.56676,61.347884 C51.56676,59.701724 52.90664,58.362604 54.5528,58.362604 L64.90628,58.362604 C66.5532,58.362604 67.89232,59.701724 67.89232,61.347884 L67.89232,65.124324 C67.89232,65.662404 67.45684,66.098644 66.91876,66.098644 L66.91876,66.098644 Z" id="Fill-6"></path>
                            <path d="M54.34304,21.095472 L65.11756,21.095472 L65.11756,17.254432 L54.34304,17.254432 L54.34304,21.095472 Z M66.09112,23.042592 L53.36948,23.042592 C52.8314,23.042592 52.39516,22.606352 52.39516,22.069032 L52.39516,16.280872 C52.39516,15.742792 52.8314,15.307312 53.36948,15.307312 L66.09112,15.307312 C66.62844,15.307312 67.06468,15.742792 67.06468,16.280872 L67.06468,22.069032 C67.06468,22.606352 66.62844,23.042592 66.09112,23.042592 L66.09112,23.042592 Z" id="Fill-7"></path>
                            <path d="M19.1102,64.150992 L51.56676,64.150992 L51.56676,62.231992 L19.1102,62.231992 L19.1102,64.150992 Z M52.54108,66.098112 L18.13664,66.098112 C17.59856,66.098112 17.16308,65.661872 17.16308,65.124552 L17.16308,61.258432 C17.16308,60.720352 17.59856,60.284112 18.13664,60.284112 L52.54108,60.284112 C53.07916,60.284112 53.51464,60.720352 53.51464,61.258432 L53.51464,65.124552 C53.51464,65.661872 53.07916,66.098112 52.54108,66.098112 L52.54108,66.098112 Z" id="Fill-8"></path>
                            <path d="M28.23324,60.284112 L42.44372,60.284112 L42.44372,40.562112 L28.23324,40.562112 L28.23324,60.284112 Z M43.41804,62.231232 L27.26044,62.231232 C26.72236,62.231232 26.28688,61.795752 26.28688,61.258432 L26.28688,39.588552 C26.28688,39.050472 26.72236,38.614992 27.26044,38.614992 L43.41804,38.614992 C43.95536,38.614992 44.3916,39.050472 44.3916,39.588552 L44.3916,61.258432 C44.3916,61.795752 43.95536,62.231232 43.41804,62.231232 L43.41804,62.231232 Z" id="Fill-9"></path>
                            <path d="M1.947424,15.307008 L68.730904,15.307008 L68.730904,11.843688 L35.338784,1.988768 L1.947424,11.843688 L1.947424,15.307008 Z M69.704464,17.254888 L0.973864,17.254888 C0.435784,17.254888 -0.000456,16.818648 -0.000456,16.280568 L-0.000456,11.115608 C-0.000456,10.683928 0.284544,10.303928 0.697224,10.182328 L35.062904,0.040128 C35.243024,-0.013072 35.434544,-0.013072 35.614664,0.040128 L69.980344,10.182328 C70.394544,10.303928 70.678784,10.683928 70.678784,11.115608 L70.678784,16.280568 C70.678784,16.818648 70.241784,17.254888 69.704464,17.254888 L69.704464,17.254888 Z" id="Fill-10"></path>
                            <path d="M52.00794,11.92706 L18.66978,11.92706 C18.13246,11.92706 17.69622,11.49082 17.69622,10.9535 C17.69622,10.41542 18.13246,9.97918 18.66978,9.97918 L52.00794,9.97918 C52.54526,9.97918 52.9815,10.41542 52.9815,10.9535 C52.9815,11.49082 52.54526,11.92706 52.00794,11.92706" id="Fill-11"></path>
                            <path d="M20.04044,48.296632 L22.41316,48.296632 L22.41316,42.576872 L20.04044,42.576872 L20.04044,48.296632 Z M23.38672,50.243752 L19.06688,50.243752 C18.5288,50.243752 18.09332,49.808272 18.09332,49.270192 L18.09332,41.602552 C18.09332,41.065232 18.5288,40.628992 19.06688,40.628992 L23.38672,40.628992 C23.9248,40.628992 24.36104,41.065232 24.36104,41.602552 L24.36104,49.270192 C24.36104,49.808272 23.9248,50.243752 23.38672,50.243752 L23.38672,50.243752 Z" id="Fill-12"></path>
                            <path d="M48.18932,48.296632 L50.5628,48.296632 L50.5628,42.576872 L48.18932,42.576872 L48.18932,48.296632 Z M51.53636,50.243752 L47.21576,50.243752 C46.67844,50.243752 46.2422,49.808272 46.2422,49.270192 L46.2422,41.602552 C46.2422,41.065232 46.67844,40.628992 47.21576,40.628992 L51.53636,40.628992 C52.07368,40.628992 52.50992,41.065232 52.50992,41.602552 L52.50992,49.270192 C52.50992,49.808272 52.07368,50.243752 51.53636,50.243752 L51.53636,50.243752 Z" id="Fill-13"></path>
                            <path d="M21.98756,31.926992 L24.36104,31.926992 L24.36104,26.207232 L21.98756,26.207232 L21.98756,31.926992 Z M25.3346,33.874872 L21.014,33.874872 C20.47592,33.874872 20.04044,33.438632 20.04044,32.901312 L20.04044,25.233672 C20.04044,24.696352 20.47592,24.260112 21.014,24.260112 L25.3346,24.260112 C25.87192,24.260112 26.30816,24.696352 26.30816,25.233672 L26.30816,32.901312 C26.30816,33.438632 25.87192,33.874872 25.3346,33.874872 L25.3346,33.874872 Z" id="Fill-14"></path>
                            <path d="M34.4622,31.926992 L36.83568,31.926992 L36.83568,26.207232 L34.4622,26.207232 L34.4622,31.926992 Z M37.80924,33.874872 L33.48864,33.874872 C32.95056,33.874872 32.51508,33.438632 32.51508,32.901312 L32.51508,25.233672 C32.51508,24.696352 32.95056,24.260112 33.48864,24.260112 L37.80924,24.260112 C38.34656,24.260112 38.7828,24.696352 38.7828,25.233672 L38.7828,32.901312 C38.7828,33.438632 38.34656,33.874872 37.80924,33.874872 L37.80924,33.874872 Z" id="Fill-15"></path>
                            <path d="M46.93684,31.926992 L49.31032,31.926992 L49.31032,26.207232 L46.93684,26.207232 L46.93684,31.926992 Z M50.28388,33.874872 L45.96252,33.874872 C45.4252,33.874872 44.98972,33.438632 44.98972,32.901312 L44.98972,25.233672 C44.98972,24.696352 45.4252,24.260112 45.96252,24.260112 L50.28388,24.260112 C50.8212,24.260112 51.25744,24.696352 51.25744,25.233672 L51.25744,32.901312 C51.25744,33.438632 50.8212,33.874872 50.28388,33.874872 L50.28388,33.874872 Z" id="Fill-16"></path>
                            <path d="M70.750452,66.098264 L0.973332,66.098264 C0.435252,66.098264 -0.000228000001,65.662024 -0.000228000001,65.124704 C-0.000228000001,64.586624 0.435252,64.150384 0.973332,64.150384 L70.750452,64.150384 C71.287772,64.150384 71.724012,64.586624 71.724012,65.124704 C71.724012,65.662024 71.287772,66.098264 70.750452,66.098264" id="Fill-17"></path>
                        </g>
                    </g>
                </g>
                <g id="council-icon-copy" transform="translate(908.000000, 0.000000)">
                    <g id="Polygon-Copy-14">
                        <use fill="black" fill-opacity="1" filter="url(#filter-12)" xlink:href="#path-11"></use>
                        <use fill="#F0F5F6" fill-rule="evenodd" xlink:href="#path-11"></use>
                    </g>
                    <g id="Group-35" transform="translate(55.000000, 52.000000)" fill-rule="nonzero">
                        <polygon id="Path" fill="#00E599" points="0 11.579925 0 55.8593525 29.0467742 66.171 29.0467742 21.505575 60.375 10.0910775 31.9403226 0"></polygon>
                        <polygon id="Path" fill="#00AF92" points="30.912 23.6027586 30.912 47.2983103 59.409 57.477 59.409 13.041"></polygon>
                    </g>
                </g>
                <g id="Polygon-Copy-14">
                    <use fill="black" fill-opacity="1" filter="url(#filter-14)" xlink:href="#path-13"></use>
                    <use fill="#F0F5F6" fill-rule="evenodd" xlink:href="#path-13"></use>
                </g>
                <text id="7个共识节点的投票者按比例分享" font-family="MicrosoftYaHei-Bold, Microsoft YaHei" font-size="16" font-weight="bold" line-spacing="32" letter-spacing="-0.130081301" fill="#000033">
                    <tspan x="1050" y="383">7个共识节点的投票者按比例分享</tspan>
                </text>
                <text id="14个非共识节点理事会成员的投票者按比例" font-family="MicrosoftYaHei-Bold, Microsoft YaHei" font-size="16" font-weight="bold" line-spacing="32" letter-spacing="-0.130081301" fill="#000033">
                    <tspan x="1050" y="611">14个非共识节点理事会成员的投票</tspan>
                    <tspan x="1050" y="643">者按比例分享</tspan>
                </text>
                <text id="理事会成员" font-family="MicrosoftYaHei-Bold, Microsoft YaHei" font-size="16" font-weight="bold" line-spacing="32" letter-spacing="-0.130081301" fill="#000033">
                    <tspan x="953.825203" y="881">理事会成员</tspan>
                </text>
                <path d="M996.52088,321.69712 L996.52088,317.128634 C996.52088,316.671623 996.264067,316.3003 995.750442,316.014668 C995.236817,315.729036 994.980005,315.58622 994.980005,315.58622 L988.156128,312.330011 C988.694212,311.905642 989.150767,311.395585 989.525795,310.799837 C989.900823,310.20409 990.202476,309.583859 990.430754,308.939146 C990.659032,308.294433 990.822087,307.661962 990.919921,307.041731 C991.017754,306.421501 991.066671,305.874719 991.066671,305.401385 L991.066671,301.484141 C991.066671,300.831267 990.858775,300.178393 990.442983,299.52552 C990.027191,298.872646 989.489108,298.285059 988.828733,297.76276 C988.168357,297.240461 987.418302,296.816092 986.578566,296.489655 C985.738829,296.163218 984.886864,296 984.022669,296 C983.158475,296 982.302433,296.163218 981.454544,296.489655 C980.606655,296.816092 979.852523,297.240461 979.192147,297.76276 C978.531772,298.285059 977.997765,298.872646 977.590126,299.52552 C977.182487,300.178393 976.978668,300.831267 976.978668,301.484141 L976.978668,305.401385 C976.978668,305.825753 977.027584,306.343972 977.125418,306.956042 C977.223251,307.568111 977.390383,308.196502 977.626814,308.841215 C977.863244,309.485928 978.168974,310.1184 978.544001,310.73863 C978.919029,311.35886 979.383738,311.889321 979.938127,312.330011 L973.065334,315.58622 C973.065334,315.58622 972.804445,315.737197 972.282667,316.039151 C971.760889,316.341105 971.5,316.704266 971.5,317.128634 L971.5,321.69712" id="" fill="#000033" fill-rule="nonzero"></path>
            </g>
        </g>
    </g>
</svg>