<?xml version="1.0" encoding="UTF-8"?>
<svg width="1296px" height="896px" viewBox="0 0 1296 896" version="1.1" xmlns="http://www.w3.org/2000/svg" xmlns:xlink="http://www.w3.org/1999/xlink">
    <title>编组 3</title>
    <defs>
        <polygon id="path-1" points="41.02 0 76.5443621 20.51 76.5443621 61.53 41.02 82.04 5.49563794 61.53 5.49563794 20.51"></polygon>
        <filter x="-38.4%" y="-15.8%" width="148.8%" height="163.4%" filterUnits="objectBoundingBox" id="filter-2">
            <feOffset dx="-12" dy="14" in="SourceAlpha" result="shadowOffsetOuter1"></feOffset>
            <feGaussianBlur stdDeviation="6" in="shadowOffsetOuter1" result="shadowBlurOuter1"></feGaussianBlur>
            <feColorMatrix values="0 0 0 0 0.316369017   0 0 0 0 0.366987588   0 0 0 0 0.353495709  0 0 0 0.257409583 0" type="matrix" in="shadowBlurOuter1" result="shadowMatrixOuter1"></feColorMatrix>
            <feOffset dx="-4" dy="7" in="SourceAlpha" result="shadowOffsetOuter2"></feOffset>
            <feGaussianBlur stdDeviation="2.5" in="shadowOffsetOuter2" result="shadowBlurOuter2"></feGaussianBlur>
            <feColorMatrix values="0 0 0 0 0   0 0 0 0 0   0 0 0 0 0  0 0 0 0.144614907 0" type="matrix" in="shadowBlurOuter2" result="shadowMatrixOuter2"></feColorMatrix>
            <feMerge>
                <feMergeNode in="shadowMatrixOuter1"></feMergeNode>
                <feMergeNode in="shadowMatrixOuter2"></feMergeNode>
            </feMerge>
        </filter>
        <rect id="path-3" x="461" y="9" width="293" height="169"></rect>
        <filter x="-11.4%" y="-6.8%" width="115.7%" height="127.2%" filterUnits="objectBoundingBox" id="filter-4">
            <feOffset dx="-11" dy="12" in="SourceAlpha" result="shadowOffsetOuter1"></feOffset>
            <feGaussianBlur stdDeviation="5.5" in="shadowOffsetOuter1" result="shadowBlurOuter1"></feGaussianBlur>
            <feColorMatrix values="0 0 0 0 0.316369017   0 0 0 0 0.366987588   0 0 0 0 0.353495709  0 0 0 0.257409583 0" type="matrix" in="shadowBlurOuter1" result="shadowMatrixOuter1"></feColorMatrix>
            <feOffset dx="-3" dy="6" in="SourceAlpha" result="shadowOffsetOuter2"></feOffset>
            <feGaussianBlur stdDeviation="2" in="shadowOffsetOuter2" result="shadowBlurOuter2"></feGaussianBlur>
            <feColorMatrix values="0 0 0 0 0   0 0 0 0 0   0 0 0 0 0  0 0 0 0.144614907 0" type="matrix" in="shadowBlurOuter2" result="shadowMatrixOuter2"></feColorMatrix>
            <feMerge>
                <feMergeNode in="shadowMatrixOuter1"></feMergeNode>
                <feMergeNode in="shadowMatrixOuter2"></feMergeNode>
            </feMerge>
        </filter>
        <rect id="path-5" x="461" y="338" width="293" height="169"></rect>
        <filter x="-11.4%" y="-6.8%" width="115.7%" height="127.2%" filterUnits="objectBoundingBox" id="filter-6">
            <feOffset dx="-11" dy="12" in="SourceAlpha" result="shadowOffsetOuter1"></feOffset>
            <feGaussianBlur stdDeviation="5.5" in="shadowOffsetOuter1" result="shadowBlurOuter1"></feGaussianBlur>
            <feColorMatrix values="0 0 0 0 0.316369017   0 0 0 0 0.366987588   0 0 0 0 0.353495709  0 0 0 0.257409583 0" type="matrix" in="shadowBlurOuter1" result="shadowMatrixOuter1"></feColorMatrix>
            <feOffset dx="-3" dy="6" in="SourceAlpha" result="shadowOffsetOuter2"></feOffset>
            <feGaussianBlur stdDeviation="2" in="shadowOffsetOuter2" result="shadowBlurOuter2"></feGaussianBlur>
            <feColorMatrix values="0 0 0 0 0   0 0 0 0 0   0 0 0 0 0  0 0 0 0.144614907 0" type="matrix" in="shadowBlurOuter2" result="shadowMatrixOuter2"></feColorMatrix>
            <feMerge>
                <feMergeNode in="shadowMatrixOuter1"></feMergeNode>
                <feMergeNode in="shadowMatrixOuter2"></feMergeNode>
            </feMerge>
        </filter>
        <rect id="path-7" x="461" y="671.5" width="293" height="169"></rect>
        <filter x="-11.4%" y="-6.8%" width="115.7%" height="127.2%" filterUnits="objectBoundingBox" id="filter-8">
            <feOffset dx="-11" dy="12" in="SourceAlpha" result="shadowOffsetOuter1"></feOffset>
            <feGaussianBlur stdDeviation="5.5" in="shadowOffsetOuter1" result="shadowBlurOuter1"></feGaussianBlur>
            <feColorMatrix values="0 0 0 0 0.316369017   0 0 0 0 0.366987588   0 0 0 0 0.353495709  0 0 0 0.257409583 0" type="matrix" in="shadowBlurOuter1" result="shadowMatrixOuter1"></feColorMatrix>
            <feOffset dx="-3" dy="6" in="SourceAlpha" result="shadowOffsetOuter2"></feOffset>
            <feGaussianBlur stdDeviation="2" in="shadowOffsetOuter2" result="shadowBlurOuter2"></feGaussianBlur>
            <feColorMatrix values="0 0 0 0 0   0 0 0 0 0   0 0 0 0 0  0 0 0 0.144614907 0" type="matrix" in="shadowBlurOuter2" result="shadowMatrixOuter2"></feColorMatrix>
            <feMerge>
                <feMergeNode in="shadowMatrixOuter1"></feMergeNode>
                <feMergeNode in="shadowMatrixOuter2"></feMergeNode>
            </feMerge>
        </filter>
        <polygon id="path-9" points="85.386 0 159.332445 42.693 159.332445 128.079 85.386 170.772 11.4395549 128.079 11.4395549 42.693"></polygon>
        <filter x="-7.6%" y="-5.0%" width="106.5%" height="119.9%" filterUnits="objectBoundingBox" id="filter-10">
            <feOffset dx="-8" dy="9" in="SourceAlpha" result="shadowOffsetOuter1"></feOffset>
            <feGaussianBlur stdDeviation="4" in="shadowOffsetOuter1" result="shadowBlurOuter1"></feGaussianBlur>
            <feColorMatrix values="0 0 0 0 0.316369017   0 0 0 0 0.366987588   0 0 0 0 0.353495709  0 0 0 0.257409583 0" type="matrix" in="shadowBlurOuter1" result="shadowMatrixOuter1"></feColorMatrix>
            <feOffset dx="-2" dy="5" in="SourceAlpha" result="shadowOffsetOuter2"></feOffset>
            <feGaussianBlur stdDeviation="1.5" in="shadowOffsetOuter2" result="shadowBlurOuter2"></feGaussianBlur>
            <feColorMatrix values="0 0 0 0 0   0 0 0 0 0   0 0 0 0 0  0 0 0 0.144614907 0" type="matrix" in="shadowBlurOuter2" result="shadowMatrixOuter2"></feColorMatrix>
            <feMerge>
                <feMergeNode in="shadowMatrixOuter1"></feMergeNode>
                <feMergeNode in="shadowMatrixOuter2"></feMergeNode>
            </feMerge>
        </filter>
        <polygon id="path-11" points="85.386 0 159.332445 42.693 159.332445 128.079 85.386 170.772 11.4395549 128.079 11.4395549 42.693"></polygon>
        <filter x="-7.6%" y="-5.0%" width="106.5%" height="119.9%" filterUnits="objectBoundingBox" id="filter-12">
            <feOffset dx="-8" dy="9" in="SourceAlpha" result="shadowOffsetOuter1"></feOffset>
            <feGaussianBlur stdDeviation="4" in="shadowOffsetOuter1" result="shadowBlurOuter1"></feGaussianBlur>
            <feColorMatrix values="0 0 0 0 0.316369017   0 0 0 0 0.366987588   0 0 0 0 0.353495709  0 0 0 0.257409583 0" type="matrix" in="shadowBlurOuter1" result="shadowMatrixOuter1"></feColorMatrix>
            <feOffset dx="-2" dy="5" in="SourceAlpha" result="shadowOffsetOuter2"></feOffset>
            <feGaussianBlur stdDeviation="1.5" in="shadowOffsetOuter2" result="shadowBlurOuter2"></feGaussianBlur>
            <feColorMatrix values="0 0 0 0 0   0 0 0 0 0   0 0 0 0 0  0 0 0 0.144614907 0" type="matrix" in="shadowBlurOuter2" result="shadowMatrixOuter2"></feColorMatrix>
            <feMerge>
                <feMergeNode in="shadowMatrixOuter1"></feMergeNode>
                <feMergeNode in="shadowMatrixOuter2"></feMergeNode>
            </feMerge>
        </filter>
        <polygon id="path-13" points="994.52 268 1030.04436 288.51 1030.04436 329.53 994.52 350.04 958.995638 329.53 958.995638 288.51"></polygon>
        <filter x="-38.4%" y="-15.8%" width="148.8%" height="163.4%" filterUnits="objectBoundingBox" id="filter-14">
            <feOffset dx="-12" dy="14" in="SourceAlpha" result="shadowOffsetOuter1"></feOffset>
            <feGaussianBlur stdDeviation="6" in="shadowOffsetOuter1" result="shadowBlurOuter1"></feGaussianBlur>
            <feColorMatrix values="0 0 0 0 0.316369017   0 0 0 0 0.366987588   0 0 0 0 0.353495709  0 0 0 0.257409583 0" type="matrix" in="shadowBlurOuter1" result="shadowMatrixOuter1"></feColorMatrix>
            <feOffset dx="-4" dy="7" in="SourceAlpha" result="shadowOffsetOuter2"></feOffset>
            <feGaussianBlur stdDeviation="2.5" in="shadowOffsetOuter2" result="shadowBlurOuter2"></feGaussianBlur>
            <feColorMatrix values="0 0 0 0 0   0 0 0 0 0   0 0 0 0 0  0 0 0 0.144614907 0" type="matrix" in="shadowBlurOuter2" result="shadowMatrixOuter2"></feColorMatrix>
            <feMerge>
                <feMergeNode in="shadowMatrixOuter1"></feMergeNode>
                <feMergeNode in="shadowMatrixOuter2"></feMergeNode>
            </feMerge>
        </filter>
    </defs>
    <g id="Page-1" stroke="none" stroke-width="1" fill="none" fill-rule="evenodd">
        <g id="Governance-s-2" transform="translate(-319.000000, -1832.000000)">
            <g id="编组-3" transform="translate(308.000000, 1832.000000)">
                <g id="Group-7-Copy" transform="translate(953.500000, 494.500000)">
                    <g id="Polygon-Copy-14">
                        <use fill="black" fill-opacity="1" filter="url(#filter-2)" xlink:href="#path-1"></use>
                        <use fill="#F0F5F6" fill-rule="evenodd" xlink:href="#path-1"></use>
                    </g>
                    <g id="Group-6" transform="translate(28.500000, 28.000000)" fill="#00E599" fill-rule="nonzero">
                        <path d="M25.02088,25.69712 L25.02088,21.1286343 C25.02088,20.6716225 24.7640674,20.3003004 24.2504423,20.0146681 C23.7368172,19.7290357 23.4800047,19.5862195 23.4800047,19.5862195 L16.6561283,16.3300105 C17.1942118,15.9056424 17.6507674,15.3955846 18.0257953,14.7998371 C18.4008231,14.2040896 18.702476,13.5838593 18.9307538,12.9391463 C19.1590316,12.2944332 19.3220872,11.6619615 19.4199205,11.0417313 C19.5177539,10.421501 19.5666706,9.874719 19.5666706,9.40138537 L19.5666706,5.48414146 C19.5666706,4.83126748 19.3587747,4.1783935 18.942983,3.52551951 C18.5271912,2.87264553 17.9891078,2.28505894 17.3287326,1.76275976 C16.6683575,1.24046057 15.9183018,0.81609248 15.0785655,0.489655488 C14.2388292,0.163218496 13.3868638,0 12.5226692,0 C11.6584746,0 10.8024327,0.163218496 9.95454366,0.489655488 C9.1066546,0.81609248 8.3525225,1.24046057 7.69214737,1.76275976 C7.03177224,2.28505894 6.49776519,2.87264553 6.09012622,3.52551951 C5.68248725,4.1783935 5.47866776,4.83126748 5.47866776,5.48414146 L5.47866776,9.40138537 C5.47866776,9.82575346 5.52758444,10.3439722 5.62541779,10.9560415 C5.72325114,11.5681109 5.89038312,12.1965021 6.12681372,12.8412152 C6.36324433,13.4859282 6.66897355,14.1183999 7.04400141,14.7386302 C7.41902926,15.3588605 7.88373769,15.8893206 8.43812669,16.3300105 L1.56533365,19.5862195 C1.56533365,19.5862195 1.30444471,19.7371966 0.782666823,20.0391508 C0.260888941,20.3411051 0,20.7042662 0,21.1286343 L0,25.69712" id=""></path>
                    </g>
                </g>
                <g id="Group-9" transform="translate(617.500000, 430.000000) rotate(-90.000000) translate(-617.500000, -430.000000) translate(272.500000, 128.500000)">
                    <path d="M320.437329,4.54747351e-13 L320.437329,46.9 C320.437329,68.1629629 303.200292,85.4 281.937329,85.4 L51.6436844,85.4 C30.3807215,85.4 13.1436844,102.637037 13.1436844,123.9 L13.1436844,596.190186 L13.1436844,596.190186" id="Path-5" stroke="#6EEDB1" stroke-width="7"></path>
                    <line x1="351.937329" y1="-4.85119167e-11" x2="351.5" y2="241.5" id="Path-5" stroke="#00E599" stroke-width="56"></line>
                    <path d="M383.437329,-2.72848411e-11 L383.437329,46.9 C383.437329,68.1629629 400.674366,85.4 421.937329,85.4 L639.335595,85.4 C660.598558,85.4 677.835595,102.637037 677.835595,123.9 L677.835595,592.891846 L677.835595,592.891846" id="Path-5" stroke="#00AF92" stroke-width="7"></path>
                    <polygon id="Triangle" fill="#6EEDB1" transform="translate(12.000000, 594.350000) rotate(-180.000000) translate(-12.000000, -594.350000) " points="12 588.75 23.9 599.95 0.1 599.95"></polygon>
                    <polygon id="Triangle" fill="#00AF92" transform="translate(677.500000, 594.250000) rotate(-180.000000) translate(-677.500000, -594.250000) " points="677.5 588.65 689.4 599.85 665.6 599.85"></polygon>
                    <polygon id="Triangle" fill="#00E599" transform="translate(461.400000, 589.150000) rotate(-180.000000) translate(-461.400000, -589.150000) " points="461.4 576.15 488.9 602.15 433.9 602.15"></polygon>
                    <polygon id="Triangle" fill="#00E599" transform="translate(240.400000, 589.150000) rotate(-180.000000) translate(-240.400000, -589.150000) " points="240.4 576.15 267.9 602.15 212.9 602.15"></polygon>
                </g>
                <g id="Group-10" transform="translate(59.000000, 318.000000)">
                    <polygon id="Polygon-Copy-14" fill="#00E599" points="33.915 0 63.2862516 16.9575 63.2862516 50.8725 33.915 67.83 4.54374843 50.8725 4.54374843 16.9575"></polygon>
                    <path d="M33.9616428,50.54 L18.62,44.9370066 L18.62,23.0301836 L34.0018486,17.29 L47.8040557,22.3169763 L47.88,45.4139924 L33.9616428,40.1725997 L33.9616428,50.54 Z M19.9924545,43.8686772 L32.4619632,48.4473427 L32.4619632,27.4511515 L44.9082812,22.7083108 L33.9310105,18.6851049 L19.9915625,23.915911 L19.9924545,43.8686772 Z M33.9357813,38.6147934 L46.5084375,43.331958 L46.4445575,23.8004895 L33.9384804,28.5240361 L33.9357813,38.6147934 Z" id="Shape" fill="#FFFFFF" fill-rule="nonzero"></path>
                </g>
                <path d="M893,298.715454 L893,327.715454 L822,327.715454 C813.54527,327.715454 806.671595,334.48475 806.503163,342.899153 L806.5,343.215454 L806.5,380.219849 C806.5,404.550753 786.973146,424.320917 762.735889,424.713887 L762,424.719849 L715.51044,424.719849 L715.51044,395.719849 L762,395.719849 C770.45473,395.719849 777.328405,388.950552 777.496837,380.53615 L777.5,380.219849 L777.5,343.215454 C777.5,318.884549 797.026854,299.114386 821.264111,298.721416 L822,298.715454 L893,298.715454 Z" id="Path-6" fill="#00E599" fill-rule="nonzero"></path>
                <path d="M893,422.715454 L893,451.715454 L822,451.715454 C813.54527,451.715454 806.671595,458.48475 806.503163,466.899153 L806.5,467.215454 L806.5,504.219849 C806.5,528.550753 786.973146,548.320917 762.735889,548.713887 L762,548.719849 L715.51044,548.719849 L715.51044,519.719849 L762,519.719849 C770.45473,519.719849 777.328405,512.950552 777.496837,504.53615 L777.5,504.219849 L777.5,467.215454 C777.5,442.884549 797.026854,423.114386 821.264111,422.721416 L822,422.715454 L893,422.715454 Z" id="Path-6" fill="#00E599" fill-rule="nonzero" transform="translate(804.255220, 485.717651) scale(1, -1) translate(-804.255220, -485.717651) "></path>
                <g id="Rectangle-Copy-3">
                    <use fill="black" fill-opacity="1" filter="url(#filter-4)" xlink:href="#path-3"></use>
                    <use fill="#F0F5F6" fill-rule="evenodd" xlink:href="#path-3"></use>
                </g>
                <g id="Rectangle-Copy-4">
                    <use fill="black" fill-opacity="1" filter="url(#filter-6)" xlink:href="#path-5"></use>
                    <use fill="#F0F5F6" fill-rule="evenodd" xlink:href="#path-5"></use>
                </g>
                <g id="Rectangle-Copy-6">
                    <use fill="black" fill-opacity="1" filter="url(#filter-8)" xlink:href="#path-7"></use>
                    <use fill="#F0F5F6" fill-rule="evenodd" xlink:href="#path-7"></use>
                </g>
                <path d="M500.22,115 L500.22,55.6 L496.17,55.6 C495.39,56.98 494.31,58.3 492.93,59.56 C491.55,60.82 490.035,61.99 488.385,63.07 C486.735,64.15 485.1,65.065 483.48,65.815 C481.86,66.565 480.39,67.12 479.07,67.48 L479.07,67.48 L480.24,71.53 C483.18,70.75 486.03,69.505 488.79,67.795 C491.55,66.085 493.89,64.03 495.81,61.63 C495.81,62.71 495.795,63.775 495.765,64.825 C495.735,65.875 495.72,66.91 495.72,67.93 L495.72,67.93 L495.72,115 L500.22,115 Z M536.31,115.9 C543.09,115.9 548.385,113.275 552.195,108.025 C556.005,102.775 557.91,95.2 557.91,85.3 C557.91,75.4 556.005,67.825 552.195,62.575 C548.385,57.325 543.09,54.7 536.31,54.7 C529.53,54.7 524.22,57.325 520.38,62.575 C516.54,67.825 514.62,75.4 514.62,85.3 C514.62,95.2 516.54,102.775 520.38,108.025 C524.22,113.275 529.53,115.9 536.31,115.9 Z M536.31,111.85 C532.65,111.85 529.545,110.845 526.995,108.835 C524.445,106.825 522.51,103.825 521.19,99.835 C519.87,95.845 519.21,91 519.21,85.3 C519.21,79.54 519.87,74.68 521.19,70.72 C522.51,66.76 524.445,63.775 526.995,61.765 C529.545,59.755 532.65,58.75 536.31,58.75 C539.97,58.75 543.06,59.755 545.58,61.765 C548.1,63.775 550.02,66.76 551.34,70.72 C552.66,74.68 553.32,79.54 553.32,85.3 C553.32,91.06 552.66,95.92 551.34,99.88 C550.02,103.84 548.1,106.825 545.58,108.835 C543.06,110.845 539.97,111.85 536.31,111.85 Z M569.25,105.52 C570.23,105.52 571.05,105.29 571.71,104.83 C572.37,104.37 572.87,103.745 573.21,102.955 C573.55,102.165 573.72,101.28 573.72,100.3 C573.72,99.32 573.55,98.435 573.21,97.645 C572.87,96.855 572.37,96.225 571.71,95.755 C571.05,95.285 570.23,95.05 569.25,95.05 C568.29,95.05 567.47,95.285 566.79,95.755 C566.11,96.225 565.605,96.855 565.275,97.645 C564.945,98.435 564.78,99.32 564.78,100.3 C564.78,101.28 564.95,102.165 565.29,102.955 C565.63,103.745 566.135,104.37 566.805,104.83 C567.475,105.29 568.29,105.52 569.25,105.52 Z M569.94,115 L582.93,95.2 L581.46,95.2 L568.47,115 L569.94,115 Z M569.25,104.32 C568.55,104.32 567.97,104.15 567.51,103.81 C567.05,103.47 566.705,102.995 566.475,102.385 C566.245,101.775 566.13,101.08 566.13,100.3 C566.13,99.52 566.245,98.825 566.475,98.215 C566.705,97.605 567.05,97.125 567.51,96.775 C567.97,96.425 568.55,96.25 569.25,96.25 C569.97,96.25 570.555,96.425 571.005,96.775 C571.455,97.125 571.795,97.605 572.025,98.215 C572.255,98.825 572.37,99.52 572.37,100.3 C572.37,101.08 572.26,101.775 572.04,102.385 C571.82,102.995 571.48,103.47 571.02,103.81 C570.56,104.15 569.97,104.32 569.25,104.32 Z M582.18,115.15 C583.16,115.15 583.98,114.92 584.64,114.46 C585.3,114 585.8,113.375 586.14,112.585 C586.48,111.795 586.65,110.91 586.65,109.93 C586.65,108.93 586.48,108.035 586.14,107.245 C585.8,106.455 585.3,105.83 584.64,105.37 C583.98,104.91 583.16,104.68 582.18,104.68 C581.22,104.68 580.4,104.91 579.72,105.37 C579.04,105.83 578.53,106.455 578.19,107.245 C577.85,108.035 577.68,108.93 577.68,109.93 C577.68,110.91 577.85,111.795 578.19,112.585 C578.53,113.375 579.04,114 579.72,114.46 C580.4,114.92 581.22,115.15 582.18,115.15 Z M582.18,113.95 C581.48,113.95 580.895,113.775 580.425,113.425 C579.955,113.075 579.605,112.595 579.375,111.985 C579.145,111.375 579.03,110.69 579.03,109.93 C579.03,109.15 579.145,108.455 579.375,107.845 C579.605,107.235 579.955,106.755 580.425,106.405 C580.895,106.055 581.48,105.88 582.18,105.88 C582.9,105.88 583.485,106.055 583.935,106.405 C584.385,106.755 584.725,107.235 584.955,107.845 C585.185,108.455 585.3,109.15 585.3,109.93 C585.3,110.69 585.185,111.375 584.955,111.985 C584.725,112.595 584.385,113.075 583.935,113.425 C583.485,113.775 582.9,113.95 582.18,113.95 Z" id="10%" fill="#000033" fill-rule="nonzero"></path>
                <path d="M1093.71,339 L1093.71,322.08 L1105.14,322.08 L1105.14,318.21 L1093.71,318.21 L1093.71,279.6 L1087.95,279.6 L1059.69,318.66 L1059.69,318.66 L1059.69,322.08 L1089.21,322.08 L1089.21,339 L1093.71,339 Z M1089.21,318.21 L1064.55,318.21 L1084.26,291.21 C1085.04,290.07 1085.895,288.795 1086.825,287.385 C1087.755,285.975 1088.55,284.64 1089.21,283.38 L1089.21,283.38 L1089.39,283.38 C1089.33,284.64 1089.285,285.93 1089.255,287.25 C1089.225,288.57 1089.21,289.83 1089.21,291.03 L1089.21,291.03 L1089.21,318.21 Z M1135.74,339.9 C1142.52,339.9 1147.815,337.275 1151.625,332.025 C1155.435,326.775 1157.34,319.2 1157.34,309.3 C1157.34,299.4 1155.435,291.825 1151.625,286.575 C1147.815,281.325 1142.52,278.7 1135.74,278.7 C1128.96,278.7 1123.65,281.325 1119.81,286.575 C1115.97,291.825 1114.05,299.4 1114.05,309.3 C1114.05,319.2 1115.97,326.775 1119.81,332.025 C1123.65,337.275 1128.96,339.9 1135.74,339.9 Z M1135.74,335.85 C1132.08,335.85 1128.975,334.845 1126.425,332.835 C1123.875,330.825 1121.94,327.825 1120.62,323.835 C1119.3,319.845 1118.64,315 1118.64,309.3 C1118.64,303.54 1119.3,298.68 1120.62,294.72 C1121.94,290.76 1123.875,287.775 1126.425,285.765 C1128.975,283.755 1132.08,282.75 1135.74,282.75 C1139.4,282.75 1142.49,283.755 1145.01,285.765 C1147.53,287.775 1149.45,290.76 1150.77,294.72 C1152.09,298.68 1152.75,303.54 1152.75,309.3 C1152.75,315.06 1152.09,319.92 1150.77,323.88 C1149.45,327.84 1147.53,330.825 1145.01,332.835 C1142.49,334.845 1139.4,335.85 1135.74,335.85 Z M1168.68,329.52 C1169.66,329.52 1170.48,329.29 1171.14,328.83 C1171.8,328.37 1172.3,327.745 1172.64,326.955 C1172.98,326.165 1173.15,325.28 1173.15,324.3 C1173.15,323.32 1172.98,322.435 1172.64,321.645 C1172.3,320.855 1171.8,320.225 1171.14,319.755 C1170.48,319.285 1169.66,319.05 1168.68,319.05 C1167.72,319.05 1166.9,319.285 1166.22,319.755 C1165.54,320.225 1165.035,320.855 1164.705,321.645 C1164.375,322.435 1164.21,323.32 1164.21,324.3 C1164.21,325.28 1164.38,326.165 1164.72,326.955 C1165.06,327.745 1165.565,328.37 1166.235,328.83 C1166.905,329.29 1167.72,329.52 1168.68,329.52 Z M1169.37,339 L1182.36,319.2 L1180.89,319.2 L1167.9,339 L1169.37,339 Z M1168.68,328.32 C1167.98,328.32 1167.4,328.15 1166.94,327.81 C1166.48,327.47 1166.135,326.995 1165.905,326.385 C1165.675,325.775 1165.56,325.08 1165.56,324.3 C1165.56,323.52 1165.675,322.825 1165.905,322.215 C1166.135,321.605 1166.48,321.125 1166.94,320.775 C1167.4,320.425 1167.98,320.25 1168.68,320.25 C1169.4,320.25 1169.985,320.425 1170.435,320.775 C1170.885,321.125 1171.225,321.605 1171.455,322.215 C1171.685,322.825 1171.8,323.52 1171.8,324.3 C1171.8,325.08 1171.69,325.775 1171.47,326.385 C1171.25,326.995 1170.91,327.47 1170.45,327.81 C1169.99,328.15 1169.4,328.32 1168.68,328.32 Z M1181.61,339.15 C1182.59,339.15 1183.41,338.92 1184.07,338.46 C1184.73,338 1185.23,337.375 1185.57,336.585 C1185.91,335.795 1186.08,334.91 1186.08,333.93 C1186.08,332.93 1185.91,332.035 1185.57,331.245 C1185.23,330.455 1184.73,329.83 1184.07,329.37 C1183.41,328.91 1182.59,328.68 1181.61,328.68 C1180.65,328.68 1179.83,328.91 1179.15,329.37 C1178.47,329.83 1177.96,330.455 1177.62,331.245 C1177.28,332.035 1177.11,332.93 1177.11,333.93 C1177.11,334.91 1177.28,335.795 1177.62,336.585 C1177.96,337.375 1178.47,338 1179.15,338.46 C1179.83,338.92 1180.65,339.15 1181.61,339.15 Z M1181.61,337.95 C1180.91,337.95 1180.325,337.775 1179.855,337.425 C1179.385,337.075 1179.035,336.595 1178.805,335.985 C1178.575,335.375 1178.46,334.69 1178.46,333.93 C1178.46,333.15 1178.575,332.455 1178.805,331.845 C1179.035,331.235 1179.385,330.755 1179.855,330.405 C1180.325,330.055 1180.91,329.88 1181.61,329.88 C1182.33,329.88 1182.915,330.055 1183.365,330.405 C1183.815,330.755 1184.155,331.235 1184.385,331.845 C1184.615,332.455 1184.73,333.15 1184.73,333.93 C1184.73,334.69 1184.615,335.375 1184.385,335.985 C1184.155,336.595 1183.815,337.075 1183.365,337.425 C1182.915,337.775 1182.33,337.95 1181.61,337.95 Z" id="40%" fill="#000033" fill-rule="nonzero"></path>
                <path d="M1093.71,569 L1093.71,552.08 L1105.14,552.08 L1105.14,548.21 L1093.71,548.21 L1093.71,509.6 L1087.95,509.6 L1059.69,548.66 L1059.69,548.66 L1059.69,552.08 L1089.21,552.08 L1089.21,569 L1093.71,569 Z M1089.21,548.21 L1064.55,548.21 L1084.26,521.21 C1085.04,520.07 1085.895,518.795 1086.825,517.385 C1087.755,515.975 1088.55,514.64 1089.21,513.38 L1089.21,513.38 L1089.39,513.38 C1089.33,514.64 1089.285,515.93 1089.255,517.25 C1089.225,518.57 1089.21,519.83 1089.21,521.03 L1089.21,521.03 L1089.21,548.21 Z M1135.74,569.9 C1142.52,569.9 1147.815,567.275 1151.625,562.025 C1155.435,556.775 1157.34,549.2 1157.34,539.3 C1157.34,529.4 1155.435,521.825 1151.625,516.575 C1147.815,511.325 1142.52,508.7 1135.74,508.7 C1128.96,508.7 1123.65,511.325 1119.81,516.575 C1115.97,521.825 1114.05,529.4 1114.05,539.3 C1114.05,549.2 1115.97,556.775 1119.81,562.025 C1123.65,567.275 1128.96,569.9 1135.74,569.9 Z M1135.74,565.85 C1132.08,565.85 1128.975,564.845 1126.425,562.835 C1123.875,560.825 1121.94,557.825 1120.62,553.835 C1119.3,549.845 1118.64,545 1118.64,539.3 C1118.64,533.54 1119.3,528.68 1120.62,524.72 C1121.94,520.76 1123.875,517.775 1126.425,515.765 C1128.975,513.755 1132.08,512.75 1135.74,512.75 C1139.4,512.75 1142.49,513.755 1145.01,515.765 C1147.53,517.775 1149.45,520.76 1150.77,524.72 C1152.09,528.68 1152.75,533.54 1152.75,539.3 C1152.75,545.06 1152.09,549.92 1150.77,553.88 C1149.45,557.84 1147.53,560.825 1145.01,562.835 C1142.49,564.845 1139.4,565.85 1135.74,565.85 Z M1168.68,559.52 C1169.66,559.52 1170.48,559.29 1171.14,558.83 C1171.8,558.37 1172.3,557.745 1172.64,556.955 C1172.98,556.165 1173.15,555.28 1173.15,554.3 C1173.15,553.32 1172.98,552.435 1172.64,551.645 C1172.3,550.855 1171.8,550.225 1171.14,549.755 C1170.48,549.285 1169.66,549.05 1168.68,549.05 C1167.72,549.05 1166.9,549.285 1166.22,549.755 C1165.54,550.225 1165.035,550.855 1164.705,551.645 C1164.375,552.435 1164.21,553.32 1164.21,554.3 C1164.21,555.28 1164.38,556.165 1164.72,556.955 C1165.06,557.745 1165.565,558.37 1166.235,558.83 C1166.905,559.29 1167.72,559.52 1168.68,559.52 Z M1169.37,569 L1182.36,549.2 L1180.89,549.2 L1167.9,569 L1169.37,569 Z M1168.68,558.32 C1167.98,558.32 1167.4,558.15 1166.94,557.81 C1166.48,557.47 1166.135,556.995 1165.905,556.385 C1165.675,555.775 1165.56,555.08 1165.56,554.3 C1165.56,553.52 1165.675,552.825 1165.905,552.215 C1166.135,551.605 1166.48,551.125 1166.94,550.775 C1167.4,550.425 1167.98,550.25 1168.68,550.25 C1169.4,550.25 1169.985,550.425 1170.435,550.775 C1170.885,551.125 1171.225,551.605 1171.455,552.215 C1171.685,552.825 1171.8,553.52 1171.8,554.3 C1171.8,555.08 1171.69,555.775 1171.47,556.385 C1171.25,556.995 1170.91,557.47 1170.45,557.81 C1169.99,558.15 1169.4,558.32 1168.68,558.32 Z M1181.61,569.15 C1182.59,569.15 1183.41,568.92 1184.07,568.46 C1184.73,568 1185.23,567.375 1185.57,566.585 C1185.91,565.795 1186.08,564.91 1186.08,563.93 C1186.08,562.93 1185.91,562.035 1185.57,561.245 C1185.23,560.455 1184.73,559.83 1184.07,559.37 C1183.41,558.91 1182.59,558.68 1181.61,558.68 C1180.65,558.68 1179.83,558.91 1179.15,559.37 C1178.47,559.83 1177.96,560.455 1177.62,561.245 C1177.28,562.035 1177.11,562.93 1177.11,563.93 C1177.11,564.91 1177.28,565.795 1177.62,566.585 C1177.96,567.375 1178.47,568 1179.15,568.46 C1179.83,568.92 1180.65,569.15 1181.61,569.15 Z M1181.61,567.95 C1180.91,567.95 1180.325,567.775 1179.855,567.425 C1179.385,567.075 1179.035,566.595 1178.805,565.985 C1178.575,565.375 1178.46,564.69 1178.46,563.93 C1178.46,563.15 1178.575,562.455 1178.805,561.845 C1179.035,561.235 1179.385,560.755 1179.855,560.405 C1180.325,560.055 1180.91,559.88 1181.61,559.88 C1182.33,559.88 1182.915,560.055 1183.365,560.405 C1183.815,560.755 1184.155,561.235 1184.385,561.845 C1184.615,562.455 1184.73,563.15 1184.73,563.93 C1184.73,564.69 1184.615,565.375 1184.385,565.985 C1184.155,566.595 1183.815,567.075 1183.365,567.425 C1182.915,567.775 1182.33,567.95 1181.61,567.95 Z" id="40%" fill="#000033" fill-rule="nonzero"></path>
                <path d="M501.55,450.9 C505.81,450.9 509.5,450.21 512.62,448.83 C515.74,447.45 518.185,445.515 519.955,443.025 C521.725,440.535 522.61,437.64 522.61,434.34 C522.61,430.44 521.425,427.125 519.055,424.395 C516.685,421.665 513.49,419.79 509.47,418.77 L509.47,418.77 L509.47,418.68 C512.77,417.66 515.35,415.95 517.21,413.55 C519.07,411.15 520,408.24 520,404.82 C520,401.76 519.235,399.105 517.705,396.855 C516.175,394.605 514.03,392.865 511.27,391.635 C508.51,390.405 505.27,389.79 501.55,389.79 C497.89,389.79 494.68,390.405 491.92,391.635 C489.16,392.865 487.015,394.605 485.485,396.855 C483.955,399.105 483.19,401.76 483.19,404.82 C483.19,408.3 484.135,411.225 486.025,413.595 C487.915,415.965 490.48,417.66 493.72,418.68 L493.72,418.68 L493.72,418.77 C489.76,419.79 486.58,421.665 484.18,424.395 C481.78,427.125 480.58,430.44 480.58,434.34 C480.58,437.64 481.465,440.535 483.235,443.025 C485.005,445.515 487.465,447.45 490.615,448.83 C493.765,450.21 497.41,450.9 501.55,450.9 Z M501.55,416.7 C497.47,416.7 494.17,415.665 491.65,413.595 C489.13,411.525 487.87,408.75 487.87,405.27 C487.87,401.73 489.115,398.955 491.605,396.945 C494.095,394.935 497.41,393.93 501.55,393.93 C505.81,393.93 509.17,394.935 511.63,396.945 C514.09,398.955 515.32,401.73 515.32,405.27 C515.32,408.75 514.075,411.525 511.585,413.595 C509.095,415.665 505.75,416.7 501.55,416.7 Z M501.55,446.76 C498.31,446.76 495.46,446.22 493,445.14 C490.54,444.06 488.635,442.575 487.285,440.685 C485.935,438.795 485.26,436.56 485.26,433.98 C485.26,431.34 485.935,429.045 487.285,427.095 C488.635,425.145 490.54,423.63 493,422.55 C495.46,421.47 498.31,420.93 501.55,420.93 C504.85,420.93 507.73,421.47 510.19,422.55 C512.65,423.63 514.555,425.145 515.905,427.095 C517.255,429.045 517.93,431.34 517.93,433.98 C517.93,436.56 517.255,438.795 515.905,440.685 C514.555,442.575 512.65,444.06 510.19,445.14 C507.73,446.22 504.85,446.76 501.55,446.76 Z M547.85,450.9 C554.63,450.9 559.925,448.275 563.735,443.025 C567.545,437.775 569.45,430.2 569.45,420.3 C569.45,410.4 567.545,402.825 563.735,397.575 C559.925,392.325 554.63,389.7 547.85,389.7 C541.07,389.7 535.76,392.325 531.92,397.575 C528.08,402.825 526.16,410.4 526.16,420.3 C526.16,430.2 528.08,437.775 531.92,443.025 C535.76,448.275 541.07,450.9 547.85,450.9 Z M547.85,446.85 C544.19,446.85 541.085,445.845 538.535,443.835 C535.985,441.825 534.05,438.825 532.73,434.835 C531.41,430.845 530.75,426 530.75,420.3 C530.75,414.54 531.41,409.68 532.73,405.72 C534.05,401.76 535.985,398.775 538.535,396.765 C541.085,394.755 544.19,393.75 547.85,393.75 C551.51,393.75 554.6,394.755 557.12,396.765 C559.64,398.775 561.56,401.76 562.88,405.72 C564.2,409.68 564.86,414.54 564.86,420.3 C564.86,426.06 564.2,430.92 562.88,434.88 C561.56,438.84 559.64,441.825 557.12,443.835 C554.6,445.845 551.51,446.85 547.85,446.85 Z M576.09,440.52 C577.07,440.52 577.89,440.29 578.55,439.83 C579.21,439.37 579.71,438.745 580.05,437.955 C580.39,437.165 580.56,436.28 580.56,435.3 C580.56,434.32 580.39,433.435 580.05,432.645 C579.71,431.855 579.21,431.225 578.55,430.755 C577.89,430.285 577.07,430.05 576.09,430.05 C575.13,430.05 574.31,430.285 573.63,430.755 C572.95,431.225 572.445,431.855 572.115,432.645 C571.785,433.435 571.62,434.32 571.62,435.3 C571.62,436.28 571.79,437.165 572.13,437.955 C572.47,438.745 572.975,439.37 573.645,439.83 C574.315,440.29 575.13,440.52 576.09,440.52 Z M576.78,450 L589.77,430.2 L588.3,430.2 L575.31,450 L576.78,450 Z M576.09,439.32 C575.39,439.32 574.81,439.15 574.35,438.81 C573.89,438.47 573.545,437.995 573.315,437.385 C573.085,436.775 572.97,436.08 572.97,435.3 C572.97,434.52 573.085,433.825 573.315,433.215 C573.545,432.605 573.89,432.125 574.35,431.775 C574.81,431.425 575.39,431.25 576.09,431.25 C576.81,431.25 577.395,431.425 577.845,431.775 C578.295,432.125 578.635,432.605 578.865,433.215 C579.095,433.825 579.21,434.52 579.21,435.3 C579.21,436.08 579.1,436.775 578.88,437.385 C578.66,437.995 578.32,438.47 577.86,438.81 C577.4,439.15 576.81,439.32 576.09,439.32 Z M589.02,450.15 C590,450.15 590.82,449.92 591.48,449.46 C592.14,449 592.64,448.375 592.98,447.585 C593.32,446.795 593.49,445.91 593.49,444.93 C593.49,443.93 593.32,443.035 592.98,442.245 C592.64,441.455 592.14,440.83 591.48,440.37 C590.82,439.91 590,439.68 589.02,439.68 C588.06,439.68 587.24,439.91 586.56,440.37 C585.88,440.83 585.37,441.455 585.03,442.245 C584.69,443.035 584.52,443.93 584.52,444.93 C584.52,445.91 584.69,446.795 585.03,447.585 C585.37,448.375 585.88,449 586.56,449.46 C587.24,449.92 588.06,450.15 589.02,450.15 Z M589.02,448.95 C588.32,448.95 587.735,448.775 587.265,448.425 C586.795,448.075 586.445,447.595 586.215,446.985 C585.985,446.375 585.87,445.69 585.87,444.93 C585.87,444.15 585.985,443.455 586.215,442.845 C586.445,442.235 586.795,441.755 587.265,441.405 C587.735,441.055 588.32,440.88 589.02,440.88 C589.74,440.88 590.325,441.055 590.775,441.405 C591.225,441.755 591.565,442.235 591.795,442.845 C592.025,443.455 592.14,444.15 592.14,444.93 C592.14,445.69 592.025,446.375 591.795,446.985 C591.565,447.595 591.225,448.075 590.775,448.425 C590.325,448.775 589.74,448.95 589.02,448.95 Z" id="80%" fill="#000033" fill-rule="nonzero"></path>
                <path d="M500.22,788 L500.22,728.6 L496.17,728.6 C495.39,729.98 494.31,731.3 492.93,732.56 C491.55,733.82 490.035,734.99 488.385,736.07 C486.735,737.15 485.1,738.065 483.48,738.815 C481.86,739.565 480.39,740.12 479.07,740.48 L479.07,740.48 L480.24,744.53 C483.18,743.75 486.03,742.505 488.79,740.795 C491.55,739.085 493.89,737.03 495.81,734.63 C495.81,735.71 495.795,736.775 495.765,737.825 C495.735,738.875 495.72,739.91 495.72,740.93 L495.72,740.93 L495.72,788 L500.22,788 Z M536.31,788.9 C543.09,788.9 548.385,786.275 552.195,781.025 C556.005,775.775 557.91,768.2 557.91,758.3 C557.91,748.4 556.005,740.825 552.195,735.575 C548.385,730.325 543.09,727.7 536.31,727.7 C529.53,727.7 524.22,730.325 520.38,735.575 C516.54,740.825 514.62,748.4 514.62,758.3 C514.62,768.2 516.54,775.775 520.38,781.025 C524.22,786.275 529.53,788.9 536.31,788.9 Z M536.31,784.85 C532.65,784.85 529.545,783.845 526.995,781.835 C524.445,779.825 522.51,776.825 521.19,772.835 C519.87,768.845 519.21,764 519.21,758.3 C519.21,752.54 519.87,747.68 521.19,743.72 C522.51,739.76 524.445,736.775 526.995,734.765 C529.545,732.755 532.65,731.75 536.31,731.75 C539.97,731.75 543.06,732.755 545.58,734.765 C548.1,736.775 550.02,739.76 551.34,743.72 C552.66,747.68 553.32,752.54 553.32,758.3 C553.32,764.06 552.66,768.92 551.34,772.88 C550.02,776.84 548.1,779.825 545.58,781.835 C543.06,783.845 539.97,784.85 536.31,784.85 Z M569.25,778.52 C570.23,778.52 571.05,778.29 571.71,777.83 C572.37,777.37 572.87,776.745 573.21,775.955 C573.55,775.165 573.72,774.28 573.72,773.3 C573.72,772.32 573.55,771.435 573.21,770.645 C572.87,769.855 572.37,769.225 571.71,768.755 C571.05,768.285 570.23,768.05 569.25,768.05 C568.29,768.05 567.47,768.285 566.79,768.755 C566.11,769.225 565.605,769.855 565.275,770.645 C564.945,771.435 564.78,772.32 564.78,773.3 C564.78,774.28 564.95,775.165 565.29,775.955 C565.63,776.745 566.135,777.37 566.805,777.83 C567.475,778.29 568.29,778.52 569.25,778.52 Z M569.94,788 L582.93,768.2 L581.46,768.2 L568.47,788 L569.94,788 Z M569.25,777.32 C568.55,777.32 567.97,777.15 567.51,776.81 C567.05,776.47 566.705,775.995 566.475,775.385 C566.245,774.775 566.13,774.08 566.13,773.3 C566.13,772.52 566.245,771.825 566.475,771.215 C566.705,770.605 567.05,770.125 567.51,769.775 C567.97,769.425 568.55,769.25 569.25,769.25 C569.97,769.25 570.555,769.425 571.005,769.775 C571.455,770.125 571.795,770.605 572.025,771.215 C572.255,771.825 572.37,772.52 572.37,773.3 C572.37,774.08 572.26,774.775 572.04,775.385 C571.82,775.995 571.48,776.47 571.02,776.81 C570.56,777.15 569.97,777.32 569.25,777.32 Z M582.18,788.15 C583.16,788.15 583.98,787.92 584.64,787.46 C585.3,787 585.8,786.375 586.14,785.585 C586.48,784.795 586.65,783.91 586.65,782.93 C586.65,781.93 586.48,781.035 586.14,780.245 C585.8,779.455 585.3,778.83 584.64,778.37 C583.98,777.91 583.16,777.68 582.18,777.68 C581.22,777.68 580.4,777.91 579.72,778.37 C579.04,778.83 578.53,779.455 578.19,780.245 C577.85,781.035 577.68,781.93 577.68,782.93 C577.68,783.91 577.85,784.795 578.19,785.585 C578.53,786.375 579.04,787 579.72,787.46 C580.4,787.92 581.22,788.15 582.18,788.15 Z M582.18,786.95 C581.48,786.95 580.895,786.775 580.425,786.425 C579.955,786.075 579.605,785.595 579.375,784.985 C579.145,784.375 579.03,783.69 579.03,782.93 C579.03,782.15 579.145,781.455 579.375,780.845 C579.605,780.235 579.955,779.755 580.425,779.405 C580.895,779.055 581.48,778.88 582.18,778.88 C582.9,778.88 583.485,779.055 583.935,779.405 C584.385,779.755 584.725,780.235 584.955,780.845 C585.185,781.455 585.3,782.15 585.3,782.93 C585.3,783.69 585.185,784.375 584.955,784.985 C584.725,785.595 584.385,786.075 583.935,786.425 C583.485,786.775 582.9,786.95 582.18,786.95 Z" id="10%" fill="#000033" fill-rule="nonzero"></path>
                <g id="Group-11" transform="translate(216.000000, 166.000000)" fill="#FFFFFF" stroke="#000033" stroke-linejoin="round" stroke-width="1.2019616">
                    <polygon id="Path-20" points="4.54747351e-13 16.9043174 4.54747351e-13 52.5056072 31.2010361 70.5258344 31.2010361 33.0798097"></polygon>
                    <polygon id="Path-20" transform="translate(46.660173, 43.715076) scale(-1, 1) translate(-46.660173, -43.715076) " points="31.0596549 16.9043174 31.0596549 52.5056072 62.260691 70.5258344 62.260691 33.0798097"></polygon>
                    <polygon id="Path-21" points="62.260691 16.9043174 31.0596549 33.0798097 0 16.9043174 31.2010361 -7.07525743e-12"></polygon>
                </g>
                <g id="Group-11" transform="translate(216.000000, 276.000000)" fill="#FFFFFF" stroke="#000033" stroke-linejoin="round" stroke-width="1.2019616">
                    <polygon id="Path-20" points="4.54747351e-13 16.9043174 4.54747351e-13 52.5056072 31.2010361 70.5258344 31.2010361 33.0798097"></polygon>
                    <polygon id="Path-20" transform="translate(46.660173, 43.715076) scale(-1, 1) translate(-46.660173, -43.715076) " points="31.0596549 16.9043174 31.0596549 52.5056072 62.260691 70.5258344 62.260691 33.0798097"></polygon>
                    <polygon id="Path-21" points="62.260691 16.9043174 31.0596549 33.0798097 0 16.9043174 31.2010361 -7.07525743e-12"></polygon>
                </g>
                <g id="Group-11" transform="translate(203.500000, 369.500000)" fill="#00E599" stroke="#000033" stroke-linejoin="round" stroke-width="1.717088">
                    <polygon id="Path-20" points="6.82121026e-13 24.1490248 6.82121026e-13 75.0080102 44.5729087 100.751192 44.5729087 47.256871"></polygon>
                    <polygon id="Path-20" transform="translate(66.657390, 62.450108) scale(-1, 1) translate(-66.657390, -62.450108) " points="44.3709356 24.1490248 44.3709356 75.0080102 88.9438443 100.751192 88.9438443 47.256871"></polygon>
                    <polygon id="Path-21" points="88.9438443 24.1490248 44.3709356 47.256871 0 24.1490248 44.5729087 -1.01075106e-11"></polygon>
                </g>
                <path d="M5.91584096,497.164062 C6.93146596,496.289062 7.84552846,495.273438 8.65802846,494.117188 L8.65802846,494.117188 L20.275216,494.117188 L20.275216,492.992188 L9.39240346,492.992188 C9.66323679,492.549479 9.92104929,492.085938 10.165841,491.601562 L10.165841,491.601562 L8.75959096,491.601562 C7.88459096,493.351562 6.67625762,494.882812 5.13459096,496.195312 C5.43667429,496.539062 5.69709096,496.861979 5.91584096,497.164062 Z M15.337716,506.882812 C16.3481326,506.882812 17.056466,506.658854 17.462716,506.210938 C17.7804243,505.867188 17.9913618,505.315104 18.0955285,504.554688 L18.0955285,504.554688 L20.072091,504.554688 L20.072091,503.460938 L18.181466,503.460938 C18.2231326,502.585938 18.2674035,501.638021 18.3142785,500.617188 L18.3142785,500.617188 L20.634591,500.617188 L20.634591,499.492188 L18.3611535,499.492188 C18.4132368,498.283854 18.4679243,496.981771 18.525216,495.585938 L18.525216,495.585938 L8.19709096,495.585938 L7.49396596,499.492188 L5.19709096,499.492188 L5.19709096,500.617188 L7.29084096,500.617188 L6.79084096,503.382812 L6.79084096,504.554688 L16.7986535,504.554688 C16.7257368,504.919271 16.618966,505.174479 16.478341,505.320312 C16.2700076,505.570312 15.837716,505.695312 15.181466,505.695312 C14.712716,505.695312 13.9418826,505.648438 12.868966,505.554688 C12.9731326,506.044271 13.0512576,506.466146 13.103341,506.820312 C14.009591,506.861979 14.7543826,506.882812 15.337716,506.882812 Z M17.103341,499.492188 L8.76740346,499.492188 L9.25959096,496.679688 L17.197091,496.679688 C17.165841,497.638021 17.134591,498.575521 17.103341,499.492188 L17.103341,499.492188 Z M13.415841,499.382812 L14.259591,498.445312 C13.6554243,497.924479 12.9575076,497.356771 12.165841,496.742188 L12.165841,496.742188 L11.431466,497.554688 C12.1085493,498.138021 12.7700076,498.747396 13.415841,499.382812 L13.415841,499.382812 Z M16.915841,503.460938 L8.07209096,503.460938 L8.56427846,500.617188 L17.0486535,500.617188 C17.0121951,501.585938 16.9679243,502.533854 16.915841,503.460938 L16.915841,503.460938 Z M13.306466,503.335938 L14.134591,502.414062 C13.5304243,501.893229 12.8325076,501.325521 12.040841,500.710938 L12.040841,500.710938 L11.306466,501.523438 C11.837716,501.981771 12.5043826,502.585938 13.306466,503.335938 L13.306466,503.335938 Z M30.3638847,507.148438 L30.3638847,502.929688 L36.5513847,502.929688 L36.5513847,501.804688 L30.3638847,501.804688 L30.3638847,498.429688 L35.5826347,498.429688 L35.5826347,497.335938 L30.3638847,497.335938 L30.3638847,494.554688 L35.8482597,494.554688 L35.8482597,493.429688 L25.0982597,493.429688 C25.337843,492.945312 25.5670097,492.445312 25.7857597,491.929688 L25.7857597,491.929688 L24.5045097,491.570312 C23.7649263,493.643229 22.6555513,495.513021 21.1763847,497.179688 C21.5513847,497.471354 21.8743013,497.763021 22.1451347,498.054688 C23.0149263,496.986979 23.8013847,495.820312 24.5045097,494.554688 L24.5045097,494.554688 L29.0982597,494.554688 L29.0982597,497.335938 L23.5670097,497.335938 L23.5670097,501.804688 L21.0513847,501.804688 L21.0513847,502.929688 L29.0982597,502.929688 L29.0982597,507.148438 L30.3638847,507.148438 Z M29.0982597,501.804688 L24.8013847,501.804688 L24.8013847,498.429688 L29.0982597,498.429688 L29.0982597,501.804688 Z M37.6556784,502.554688 C39.4369284,502.263021 41.1765117,502.002604 42.8744284,501.773438 C42.8952617,501.398438 42.9421367,501.002604 43.0150534,500.585938 C41.9838034,500.752604 40.6713034,500.945312 39.0775534,501.164062 C40.3275534,499.539062 41.6244284,497.611979 42.9681784,495.382812 L42.9681784,495.382812 L41.8119284,494.804688 C41.3744284,495.617188 40.9499492,496.367188 40.5384909,497.054688 C39.8457825,497.080729 39.1140117,497.101562 38.3431784,497.117188 C39.322345,495.679688 40.30672,494.007812 41.2963034,492.101562 L41.2963034,492.101562 L40.1088034,491.632812 C39.1400534,493.830729 38.0827617,495.690104 36.9369284,497.210938 L36.9369284,497.210938 L37.2338034,498.273438 C37.822345,498.221354 38.7103659,498.158854 39.8978659,498.085938 C39.0020325,499.492188 38.1608867,500.596354 37.3744284,501.398438 L37.3744284,501.398438 L37.6556784,502.554688 Z M48.7494284,506.695312 C50.4265117,506.695312 51.3119284,505.867188 51.4056784,504.210938 C51.4994284,502.283854 51.61922,498.945312 51.7650534,494.195312 L51.7650534,494.195312 L45.6556784,494.195312 C45.9577617,493.513021 46.2650534,492.783854 46.5775534,492.007812 L46.5775534,492.007812 L45.2806784,491.648438 C44.603595,493.804688 43.6088034,495.851562 42.2963034,497.789062 C42.71297,497.997396 43.08797,498.200521 43.4213034,498.398438 C43.978595,497.544271 44.541095,496.533854 45.1088034,495.367188 L45.1088034,495.367188 L50.4213034,495.367188 C50.3275534,499.585938 50.2233867,502.429688 50.1088034,503.898438 C50.0671367,504.908854 49.5671367,505.414062 48.6088034,505.414062 C47.61922,505.414062 46.5306784,505.341146 45.3431784,505.195312 C45.4577617,505.726562 45.5515117,506.195312 45.6244284,506.601562 C46.728595,506.664062 47.7702617,506.695312 48.7494284,506.695312 Z M46.9525534,502.242188 L48.1244284,501.492188 C47.3640117,500.367188 46.4838034,499.164062 45.4838034,497.882812 L45.4838034,497.882812 L44.4838034,498.539062 C45.43172,499.861979 46.2546367,501.096354 46.9525534,502.242188 L46.9525534,502.242188 Z M37.1869284,505.976562 C39.509845,505.539062 41.5150534,505.216146 43.2025534,505.007812 C43.2233867,504.611979 43.2546367,504.205729 43.2963034,503.789062 C41.3275534,504.132812 39.197345,504.455729 36.9056784,504.757812 L36.9056784,504.757812 L37.1869284,505.976562 Z M68.2130971,506.132812 L68.2130971,504.960938 L61.4005971,504.960938 L61.4005971,500.976562 L66.9318471,500.976562 L66.9318471,499.773438 L61.4005971,499.773438 L61.4005971,496.164062 L67.3693471,496.164062 L67.3693471,494.960938 L61.4005971,494.960938 L61.4005971,491.648438 L60.0568471,491.648438 L60.0568471,494.960938 L56.5490346,494.960938 C56.8823679,494.263021 57.1870554,493.533854 57.4630971,492.773438 L57.4630971,492.773438 L56.1818471,492.429688 C55.3276804,494.804688 54.1662221,496.815104 52.6974721,498.460938 C53.0412221,498.846354 53.3224721,499.210938 53.5412221,499.554688 C54.4422637,498.544271 55.2391387,497.414062 55.9318471,496.164062 L55.9318471,496.164062 L60.0568471,496.164062 L60.0568471,499.773438 L54.5255971,499.773438 L54.5255971,500.976562 L60.0568471,500.976562 L60.0568471,504.960938 L52.8068471,504.960938 L52.8068471,506.132812 L68.2130971,506.132812 Z M82.0830158,494.226562 L82.8330158,493.289062 C82.0725991,492.747396 81.2548908,492.226562 80.3798908,491.726562 L80.3798908,491.726562 L79.7236408,492.539062 C80.5465574,493.070312 81.3330158,493.632812 82.0830158,494.226562 L82.0830158,494.226562 Z M69.2861408,507.164062 C70.6663491,505.429688 71.3981199,502.752604 71.4814533,499.132812 L71.4814533,499.132812 L74.7236408,499.132812 C74.6819741,500.549479 74.6194741,501.736979 74.5361408,502.695312 C74.4632241,503.528646 74.1246824,503.945312 73.5205158,503.945312 C73.0309324,503.945312 72.4215574,503.893229 71.6923908,503.789062 C71.7965574,504.268229 71.8798908,504.700521 71.9423908,505.085938 C72.6507241,505.127604 73.2184324,505.148438 73.6455158,505.148438 C74.9163491,505.148438 75.6142658,504.429688 75.7392658,502.992188 C75.8434324,501.638021 75.9267658,499.966146 75.9892658,497.976562 L75.9892658,497.976562 L71.4892658,497.976562 L71.4892658,495.601562 L77.3877033,495.601562 C77.4970783,499.028646 77.8538491,501.510417 78.4580158,503.046875 C77.5153074,504.119792 76.4423908,505.059896 75.2392658,505.867188 C75.5621824,506.179688 75.8590574,506.492188 76.1298908,506.804688 C77.1663491,506.085938 78.1246824,505.252604 79.0048908,504.304688 C79.4475991,505.153646 79.9840574,505.820312 80.6142658,506.304688 C81.1975991,506.773438 81.8069741,506.986979 82.4423908,506.945312 C83.1194741,506.882812 83.5569741,506.471354 83.7548908,505.710938 C83.9423908,505.002604 84.1142658,504.091146 84.2705158,502.976562 C83.9267658,502.861979 83.5309324,502.716146 83.0830158,502.539062 C82.9996824,503.341146 82.8850991,504.122396 82.7392658,504.882812 C82.5986408,505.367188 82.3955158,505.609375 82.1298908,505.609375 C81.4007241,505.609375 80.6533283,504.830729 79.8877033,503.273438 C81.1429116,501.705729 82.2184324,499.861979 83.1142658,497.742188 L83.1142658,497.742188 L81.8798908,497.226562 C81.2288491,498.960938 80.3981199,500.513021 79.3877033,501.882812 C78.9762449,500.497396 78.7184324,498.403646 78.6142658,495.601562 L78.6142658,495.601562 L83.9580158,495.601562 L83.9580158,494.445312 L78.5752033,494.445312 C78.5439533,493.398438 78.5309324,492.507812 78.5361408,491.773438 L78.5361408,491.773438 L77.2392658,491.773438 C77.2705158,492.731771 77.3043699,493.622396 77.3408283,494.445312 L77.3408283,494.445312 L70.2392658,494.445312 L70.2392658,498.679688 C70.2392658,502.054688 69.6507241,504.523438 68.4736408,506.085938 C68.7548908,506.450521 69.0257241,506.809896 69.2861408,507.164062 Z M92.648247,505 L92.648247,503.679688 L89.945122,503.679688 L89.945122,492.640625 L85.6404345,493.890625 L85.6404345,495.296875 L88.4216845,494.492188 L88.4216845,503.679688 L85.710747,503.679688 L85.710747,505 L92.648247,505 Z M98.0650407,505.203125 C99.367124,505.203125 100.378843,504.66276 101.100197,503.582031 C101.821551,502.501302 102.182228,500.940104 102.182228,498.898438 C102.182228,494.763021 100.900978,492.695312 98.3384782,492.695312 C96.9947282,492.695312 95.9686865,493.24349 95.2603532,494.339844 C94.5520198,495.436198 94.1978532,497.052083 94.1978532,499.1875 C94.1978532,501.145833 94.5350927,502.638021 95.2095719,503.664062 C95.8840511,504.690104 96.835874,505.203125 98.0650407,505.203125 Z M98.2056657,503.9375 C96.5754573,503.9375 95.7603532,502.330729 95.7603532,499.117188 C95.7603532,495.684896 96.5910823,493.96875 98.2525407,493.96875 C99.8254573,493.96875 100.611916,495.658854 100.611916,499.039062 C100.611916,502.304688 99.8098323,503.9375 98.2056657,503.9375 Z M107.317772,505.203125 C108.619855,505.203125 109.631574,504.66276 110.352928,503.582031 C111.074282,502.501302 111.434959,500.940104 111.434959,498.898438 C111.434959,494.763021 110.153709,492.695312 107.591209,492.695312 C106.247459,492.695312 105.221418,493.24349 104.513084,494.339844 C103.804751,495.436198 103.450584,497.052083 103.450584,499.1875 C103.450584,501.145833 103.787824,502.638021 104.462303,503.664062 C105.136782,504.690104 106.088605,505.203125 107.317772,505.203125 Z M107.458397,503.9375 C105.828189,503.9375 105.013084,502.330729 105.013084,499.117188 C105.013084,495.684896 105.843814,493.96875 107.505272,493.96875 C109.078189,493.96875 109.864647,495.658854 109.864647,499.039062 C109.864647,502.304688 109.062564,503.9375 107.458397,503.9375 Z M116.570503,505.203125 C117.872586,505.203125 118.884305,504.66276 119.605659,503.582031 C120.327013,502.501302 120.687691,500.940104 120.687691,498.898438 C120.687691,494.763021 119.406441,492.695312 116.843941,492.695312 C115.500191,492.695312 114.474149,493.24349 113.765816,494.339844 C113.057482,495.436198 112.703316,497.052083 112.703316,499.1875 C112.703316,501.145833 113.040555,502.638021 113.715034,503.664062 C114.389513,504.690104 115.341336,505.203125 116.570503,505.203125 Z M116.711128,503.9375 C115.08092,503.9375 114.265816,502.330729 114.265816,499.117188 C114.265816,495.684896 115.096545,493.96875 116.758003,493.96875 C118.33092,493.96875 119.117378,495.658854 119.117378,499.039062 C119.117378,502.304688 118.315295,503.9375 116.711128,503.9375 Z M122.448234,507.148438 C125.474276,505.294271 127.182609,502.460938 127.573234,498.648438 L127.573234,498.648438 L133.510734,498.648438 C133.448234,500.304688 133.354484,501.861979 133.229484,503.320312 C133.114901,504.809896 132.500318,505.513021 131.385734,505.429688 C130.687818,505.429688 129.677401,505.341146 128.354484,505.164062 C128.458651,505.726562 128.536776,506.205729 128.588859,506.601562 C129.953443,506.705729 130.922193,506.747396 131.495109,506.726562 C132.588859,506.716146 133.344068,506.476562 133.760734,506.007812 C134.198234,505.497396 134.463859,504.664062 134.557609,503.507812 C134.693026,501.601562 134.812818,499.585938 134.916984,497.460938 L134.916984,497.460938 L127.666984,497.460938 C127.734693,496.445312 127.78938,495.356771 127.831047,494.195312 L127.831047,494.195312 L136.776359,494.195312 L136.776359,492.992188 L121.713859,492.992188 L121.713859,494.195312 L126.424797,494.195312 C126.393547,495.638021 126.328443,496.929688 126.229484,498.070312 C126.021151,501.601562 124.453443,504.257812 121.526359,506.039062 C121.901359,506.455729 122.208651,506.825521 122.448234,507.148438 Z M143.732215,505.203125 C145.253049,505.203125 146.617632,504.859375 147.825965,504.171875 L147.825965,504.171875 L147.825965,498.625 L143.630653,498.625 L143.630653,500.007812 L146.255653,500.007812 L146.255653,503.28125 C145.60982,503.635417 144.825965,503.8125 143.90409,503.8125 C142.565549,503.8125 141.503049,503.390625 140.71659,502.546875 C139.930132,501.703125 139.536903,500.523438 139.536903,499.007812 C139.536903,497.533854 139.963986,496.346354 140.818153,495.445312 C141.67232,494.544271 142.758257,494.09375 144.075965,494.09375 C145.414507,494.09375 146.568153,494.398438 147.536903,495.007812 L147.536903,495.007812 L147.536903,493.320312 C146.630653,492.903646 145.523882,492.695312 144.21659,492.695312 C142.367632,492.695312 140.852007,493.296875 139.669715,494.5 C138.487424,495.703125 137.896278,497.239583 137.896278,499.109375 C137.896278,500.958333 138.431434,502.436198 139.501747,503.542969 C140.572059,504.64974 141.982215,505.203125 143.732215,505.203125 Z M150.789634,505 L151.953697,501.6875 L156.992759,501.6875 L158.227134,505 L159.953697,505 L155.344322,492.898438 L153.672447,492.898438 L149.063072,505 L150.789634,505 Z M156.508384,500.320312 L152.445884,500.320312 L154.258384,495.289062 C154.331301,495.091146 154.396405,494.809896 154.453697,494.445312 L154.453697,494.445312 L154.492759,494.445312 C154.560467,494.846354 154.622967,495.127604 154.680259,495.289062 L154.680259,495.289062 L156.508384,500.320312 Z M164.081428,505.203125 C165.45122,505.203125 166.521532,504.919271 167.292365,504.351562 C168.063199,503.783854 168.448615,502.96875 168.448615,501.90625 C168.448615,501.197917 168.211636,500.559896 167.737678,499.992188 C167.26372,499.424479 166.43299,498.856771 165.24549,498.289062 C164.167365,497.757812 163.466845,497.338542 163.143928,497.03125 C162.821011,496.723958 162.659553,496.325521 162.659553,495.835938 C162.659553,495.283854 162.892626,494.852865 163.358772,494.542969 C163.824917,494.233073 164.427782,494.078125 165.167365,494.078125 C166.281949,494.078125 167.203824,494.330729 167.93299,494.835938 L167.93299,494.835938 L167.93299,493.132812 C167.37049,492.841146 166.487678,492.695312 165.284553,492.695312 C164.055386,492.695312 163.037157,492.989583 162.229865,493.578125 C161.422574,494.166667 161.018928,494.963542 161.018928,495.96875 C161.018928,496.635417 161.211636,497.227865 161.597053,497.746094 C161.98247,498.264323 162.781949,498.825521 163.99549,499.429688 C164.87049,499.861979 165.466845,500.182292 165.784553,500.390625 C166.102261,500.598958 166.352261,500.838542 166.534553,501.109375 C166.716845,501.380208 166.80799,501.684896 166.80799,502.023438 C166.80799,503.231771 165.959032,503.835938 164.261115,503.835938 C163.703824,503.835938 163.115282,503.731771 162.49549,503.523438 C161.875699,503.315104 161.380907,503.049479 161.011115,502.726562 L161.011115,502.726562 L161.011115,504.507812 C161.302782,504.705729 161.767626,504.871094 162.405647,505.003906 C163.043667,505.136719 163.602261,505.203125 164.081428,505.203125 Z M26.1322409,539.75 C24.2936992,537.640625 23.3744284,535.177083 23.3744284,532.359375 C23.3744284,529.5 24.2989075,527.015625 26.1478659,524.90625 L26.1478659,524.90625 L24.8041159,524.90625 C22.9447409,526.963542 22.0150534,529.453125 22.0150534,532.375 C22.0150534,535.260417 22.9447409,537.71875 24.8041159,539.75 L24.8041159,539.75 L26.1322409,539.75 Z M42.5490346,538.867188 C43.9136179,538.856771 44.5959096,538.148438 44.5959096,536.742188 L44.5959096,536.742188 L44.5959096,526.164062 L47.1896596,526.164062 L47.1896596,524.976562 L31.7521596,524.976562 L31.7521596,526.164062 L43.2834096,526.164062 L43.2834096,536.304688 C43.2834096,537.138021 42.8979929,537.554688 42.1271596,537.554688 C41.5125762,537.554688 40.6167429,537.513021 39.4396596,537.429688 C39.5542429,537.898438 39.6375762,538.372396 39.6896596,538.851562 C40.6167429,538.861979 41.5698679,538.867188 42.5490346,538.867188 Z M34.7209096,535.757812 L34.7209096,534.648438 L40.3771596,534.648438 L40.3771596,528.476562 L33.4865346,528.476562 L33.4865346,535.757812 L34.7209096,535.757812 Z M39.1427846,533.539062 L34.7209096,533.539062 L34.7209096,529.585938 L39.1427846,529.585938 L39.1427846,533.539062 Z M50.2002033,538.835938 L50.2002033,537.929688 L60.5127033,537.929688 L60.5127033,538.835938 L61.7939533,538.835938 L61.7939533,526.648438 L56.0127033,526.648438 L56.0127033,523.679688 L54.7002033,523.679688 L54.7002033,526.648438 L48.9189533,526.648438 L48.9189533,538.835938 L50.2002033,538.835938 Z M54.7002033,531.679688 L50.2002033,531.679688 L50.2002033,527.804688 L54.7002033,527.804688 L54.7002033,531.679688 Z M60.5127033,531.679688 L56.0127033,531.679688 L56.0127033,527.804688 L60.5127033,527.804688 L60.5127033,531.679688 Z M54.7002033,536.773438 L50.2002033,536.773438 L50.2002033,532.804688 L54.7002033,532.804688 L54.7002033,536.773438 Z M60.5127033,536.773438 L56.0127033,536.773438 L56.0127033,532.804688 L60.5127033,532.804688 L60.5127033,536.773438 Z M78.991997,538.507812 L78.991997,537.414062 L74.320122,537.414062 L74.320122,535.164062 L78.304497,535.164062 L78.304497,534.070312 L74.320122,534.070312 L74.320122,532.007812 L76.820122,532.007812 L76.820122,532.585938 L77.976372,532.585938 L77.976372,524.523438 L69.507622,524.523438 L69.507622,532.585938 L70.663872,532.585938 L70.663872,532.007812 L73.163872,532.007812 L73.163872,534.070312 L69.179497,534.070312 L69.179497,535.164062 L73.163872,535.164062 L73.163872,537.414062 L68.273247,537.414062 L68.273247,538.507812 L78.991997,538.507812 Z M63.726372,537.757812 C65.4347053,537.226562 67.179497,536.721354 68.960747,536.242188 C68.898247,535.898438 68.8409553,535.492188 68.788872,535.023438 C68.1430386,535.216146 67.476372,535.408854 66.788872,535.601562 L66.788872,535.601562 L66.788872,531.179688 L68.773247,531.179688 L68.773247,530.085938 L66.788872,530.085938 L66.788872,526.179688 L68.898247,526.179688 L68.898247,525.085938 L63.523247,525.085938 L63.523247,526.179688 L65.632622,526.179688 L65.632622,530.085938 L63.679497,530.085938 L63.679497,531.179688 L65.632622,531.179688 L65.632622,535.914062 C64.882622,536.106771 64.1065803,536.299479 63.304497,536.492188 L63.304497,536.492188 L63.726372,537.757812 Z M76.820122,527.742188 L74.320122,527.742188 L74.320122,525.585938 L76.820122,525.585938 L76.820122,527.742188 Z M73.163872,527.742188 L70.663872,527.742188 L70.663872,525.585938 L73.163872,525.585938 L73.163872,527.742188 Z M76.820122,530.945312 L74.320122,530.945312 L74.320122,528.773438 L76.820122,528.773438 L76.820122,530.945312 Z M73.163872,530.945312 L70.663872,530.945312 L70.663872,528.773438 L73.163872,528.773438 L73.163872,530.945312 Z M85.8462907,538.914062 C87.054624,538.903646 87.6587907,538.273438 87.6587907,537.023438 L87.6587907,537.023438 L87.6587907,536.101562 L91.9400407,536.101562 L91.9400407,536.851562 L93.0650407,536.851562 L93.0650407,533.992188 L94.7994157,533.992188 L94.7994157,533.023438 L93.0650407,533.023438 L93.0650407,530.929688 L87.6587907,530.929688 L87.6587907,529.867188 L91.6275407,529.867188 L91.6275407,530.273438 L92.7212907,530.273438 L92.7212907,526.914062 L87.6587907,526.914062 L87.6587907,525.882812 L94.6744157,525.882812 L94.6744157,524.914062 L87.6587907,524.914062 L87.6587907,523.695312 L86.5025407,523.695312 L86.5025407,524.914062 L79.4712907,524.914062 L79.4712907,525.882812 L86.5025407,525.882812 L86.5025407,526.914062 L81.4400407,526.914062 L81.4400407,530.273438 L82.5337907,530.273438 L82.5337907,529.867188 L86.5025407,529.867188 L86.5025407,530.929688 L80.4400407,530.929688 L80.4400407,531.867188 L86.5025407,531.867188 L86.5025407,533.023438 L79.4244157,533.023438 L79.4244157,533.992188 L86.5025407,533.992188 L86.5025407,535.164062 L80.3931657,535.164062 L80.3931657,536.101562 L86.5025407,536.101562 L86.5025407,536.804688 C86.5025407,537.429688 86.195249,537.742188 85.5806657,537.742188 C84.945249,537.742188 84.2212907,537.690104 83.4087907,537.585938 C83.492124,538.096354 83.554624,538.528646 83.5962907,538.882812 C84.523374,538.903646 85.273374,538.914062 85.8462907,538.914062 Z M91.6275407,528.992188 L87.6587907,528.992188 L87.6587907,527.789062 L91.6275407,527.789062 L91.6275407,528.992188 Z M86.5025407,528.992188 L82.5337907,528.992188 L82.5337907,527.789062 L86.5025407,527.789062 L86.5025407,528.992188 Z M91.9400407,533.023438 L87.6587907,533.023438 L87.6587907,531.867188 L91.9400407,531.867188 L91.9400407,533.023438 Z M91.9400407,535.164062 L87.6587907,535.164062 L87.6587907,533.992188 L91.9400407,533.992188 L91.9400407,535.164062 Z M95.9193343,531.070312 C98.5130843,529.570312 100.851626,527.591146 102.934959,525.132812 C104.601626,527.497396 106.945376,529.414062 109.966209,530.882812 C110.237043,530.414062 110.528709,529.971354 110.841209,529.554688 C107.882876,528.429688 105.502668,526.664062 103.700584,524.257812 L103.700584,524.257812 L103.997459,523.867188 L102.325584,523.867188 C100.471418,526.377604 98.0495427,528.398438 95.0599593,529.929688 C95.382876,530.315104 95.6693343,530.695312 95.9193343,531.070312 Z M107.216209,530.476562 L107.216209,529.320312 L98.5912093,529.320312 L98.5912093,530.476562 L107.216209,530.476562 Z M108.184959,539.257812 L109.200584,538.351562 C108.106834,537.174479 106.804751,535.914062 105.294334,534.570312 L105.294334,534.570312 L104.450584,535.351562 C105.023501,535.924479 105.549543,536.455729 106.028709,536.945312 C103.934959,537.049479 101.737043,537.158854 99.4349593,537.273438 C100.445376,536.231771 101.481834,535.039062 102.544334,533.695312 L102.544334,533.695312 L110.106834,533.695312 L110.106834,532.539062 L95.7630843,532.539062 L95.7630843,533.695312 L100.966209,533.695312 C100.122459,534.882812 99.2474593,535.919271 98.3412093,536.804688 C97.9870427,537.117188 97.554751,537.367188 97.0443343,537.554688 L97.0443343,537.554688 L97.7474593,538.851562 C98.195376,538.664062 98.6380843,538.549479 99.0755843,538.507812 C101.783918,538.309896 104.434959,538.132812 107.028709,537.976562 C107.466209,538.445312 107.851626,538.872396 108.184959,539.257812 L108.184959,539.257812 Z M114.273628,527.335938 L115.304878,526.460938 C114.440295,525.513021 113.659045,524.695312 112.961128,524.007812 L112.961128,524.007812 L112.070503,524.757812 C112.726753,525.445312 113.461128,526.304688 114.273628,527.335938 L114.273628,527.335938 Z M114.820503,539.101562 C116.476753,537.518229 117.304878,535.200521 117.304878,532.148438 L117.304878,532.148438 L117.304878,525.726562 L124.648628,525.726562 L124.648628,536.929688 C124.648628,537.481771 124.388211,537.757812 123.867378,537.757812 C123.388211,537.757812 122.596545,537.721354 121.492378,537.648438 C121.596545,538.065104 121.67467,538.466146 121.726753,538.851562 C122.758003,538.882812 123.58092,538.898438 124.195503,538.898438 C125.258003,538.898438 125.789253,538.320312 125.789253,537.164062 L125.789253,537.164062 L125.789253,524.664062 L116.164253,524.664062 L116.164253,532.273438 C116.164253,534.783854 115.445503,536.726562 114.008003,538.101562 C114.289253,538.393229 114.560086,538.726562 114.820503,539.101562 Z M124.164253,531.023438 L124.164253,530.023438 L121.539253,530.023438 L121.539253,528.585938 L123.695503,528.585938 L123.695503,527.585938 L121.539253,527.585938 L121.539253,526.101562 L120.414253,526.101562 L120.414253,527.585938 L118.226753,527.585938 L118.226753,528.585938 L120.414253,528.585938 L120.414253,530.023438 L117.789253,530.023438 L117.789253,531.023438 L124.164253,531.023438 Z M112.961128,536.929688 C113.752795,536.231771 114.690295,535.486979 115.773628,534.695312 C115.721545,534.257812 115.685086,533.804688 115.664253,533.335938 C115.039253,533.856771 114.450711,534.320312 113.898628,534.726562 L113.898628,534.726562 L113.898628,528.648438 L111.054878,528.648438 L111.054878,529.742188 L112.758003,529.742188 L112.758003,534.507812 C112.758003,535.070312 112.586128,535.539062 112.242378,535.914062 L112.242378,535.914062 L112.961128,536.929688 Z M119.601753,536.992188 L119.601753,536.273438 L123.289253,536.273438 L123.289253,532.289062 L118.508003,532.289062 L118.508003,536.992188 L119.601753,536.992188 Z M122.195503,535.273438 L119.601753,535.273438 L119.601753,533.289062 L122.195503,533.289062 L122.195503,535.273438 Z M135.799797,532.804688 C136.987297,532.294271 137.982088,531.690104 138.784172,530.992188 C139.575838,531.606771 140.549797,532.127604 141.706047,532.554688 C141.966463,532.106771 142.22688,531.716146 142.487297,531.382812 C141.341463,531.080729 140.388338,530.669271 139.627922,530.148438 C140.398755,529.190104 140.956047,527.997396 141.299797,526.570312 L141.299797,526.570312 L142.331047,526.570312 L142.331047,525.570312 L137.565422,525.570312 C137.773755,525.070312 137.97688,524.554688 138.174797,524.023438 L138.174797,524.023438 L137.081047,523.695312 C136.560213,525.476562 135.805005,527.028646 134.815422,528.351562 L134.815422,528.351562 L135.752922,529.007812 C136.013338,528.591146 136.268547,528.158854 136.518547,527.710938 C136.862297,528.679688 137.346672,529.513021 137.971672,530.210938 C137.190422,530.835938 136.22688,531.367188 135.081047,531.804688 C135.35188,532.169271 135.591463,532.502604 135.799797,532.804688 Z M127.393547,532.882812 C128.706047,532.164062 129.841463,531.330729 130.799797,530.382812 L130.799797,530.382812 L130.799797,532.695312 L131.846672,532.695312 L131.846672,531.007812 C132.648755,531.361979 133.487297,531.799479 134.362297,532.320312 L134.362297,532.320312 L134.893547,531.460938 C134.049797,531.013021 133.16438,530.570312 132.237297,530.132812 L132.237297,530.132812 L131.846672,530.648438 L131.846672,529.710938 L133.690422,529.710938 L133.690422,530.101562 L134.706047,530.101562 L134.706047,526.726562 L131.846672,526.726562 L131.846672,525.773438 L135.237297,525.773438 L135.237297,524.835938 L131.846672,524.835938 L131.846672,523.773438 L130.799797,523.773438 L130.799797,524.835938 L127.299797,524.835938 L127.299797,525.773438 L130.799797,525.773438 L130.799797,526.726562 L127.940422,526.726562 L127.940422,530.101562 L128.956047,530.101562 L128.956047,529.710938 L130.377922,529.710938 C129.284172,530.679688 128.07063,531.440104 126.737297,531.992188 C126.987297,532.325521 127.206047,532.622396 127.393547,532.882812 Z M138.768547,529.445312 C138.028963,528.674479 137.513338,527.716146 137.221672,526.570312 L137.221672,526.570312 L140.174797,526.570312 C139.91438,527.684896 139.44563,528.643229 138.768547,529.445312 Z M133.690422,528.835938 L131.846672,528.835938 L131.846672,527.601562 L133.690422,527.601562 L133.690422,528.835938 Z M130.799797,528.835938 L128.956047,528.835938 L128.956047,527.601562 L130.799797,527.601562 L130.799797,528.835938 Z M142.315422,538.585938 L142.315422,537.585938 L135.362297,537.585938 L135.362297,536.257812 L140.487297,536.257812 L140.487297,535.257812 L135.362297,535.257812 L135.362297,534.054688 L141.174797,534.054688 L141.174797,533.054688 L128.049797,533.054688 L128.049797,534.054688 L134.237297,534.054688 L134.237297,537.585938 L130.956047,537.585938 L130.956047,534.773438 L129.831047,534.773438 L129.831047,537.585938 L127.018547,537.585938 L127.018547,538.585938 L142.315422,538.585938 Z M149.325965,539.75 C151.174924,537.703125 152.099403,535.213542 152.099403,532.28125 C152.099403,529.380208 151.174924,526.921875 149.325965,524.90625 L149.325965,524.90625 L147.99784,524.90625 C149.836382,527 150.755653,529.458333 150.755653,532.28125 C150.755653,535.15625 149.831174,537.645833 147.982215,539.75 L147.982215,539.75 L149.325965,539.75 Z" id="每年约生成1000万GAS（可由理事会调整）" fill="#000033" fill-rule="nonzero"></path>
                <text id="所有NEO持有者按比例分享" font-family="MicrosoftYaHei-Bold, Microsoft YaHei" font-size="16" font-weight="bold" line-spacing="32" letter-spacing="-0.130081301" fill="#000033">
                    <tspan x="604" y="74">所有NEO持有者</tspan>
                    <tspan x="604" y="106">按比例分享</tspan>
                </text>
                <text id="NEO持有者" font-family="MicrosoftYaHei-Bold, Microsoft YaHei" font-size="16" font-weight="bold" line-spacing="32" letter-spacing="-0.130081301" fill="#000033">
                    <tspan x="959" y="209">NEO持有者</tspan>
                </text>
                <text id="理事会成员的投票者按比例分享" font-family="MicrosoftYaHei-Bold, Microsoft YaHei" font-size="16" font-weight="bold" line-spacing="32" letter-spacing="-0.130081301" fill="#000033">
                    <tspan x="604" y="408">理事会成员的投</tspan>
                    <tspan x="604" y="440">票者按比例分享</tspan>
                </text>
                <text id="21名Neo理事会成员平分" font-family="MicrosoftYaHei-Bold, Microsoft YaHei" font-size="16" font-weight="bold" line-spacing="32" letter-spacing="-0.130081301" fill="#000033">
                    <tspan x="604" y="751">21名Neo理事会</tspan>
                    <tspan x="604" y="783">成员平分</tspan>
                </text>
                <path d="M62.8759845,430.529297 C64.9983803,430.529297 66.4534585,430.504883 67.2412189,430.456055 C68.0289793,430.407227 68.7467527,430.182617 69.3945392,429.782227 C70.0423256,429.381836 70.4248126,428.615234 70.5420001,427.482422 L70.5420001,427.482422 L72.4658283,427.482422 L72.4658283,425.373047 L70.6591876,425.373047 L70.7959064,422.697266 L73.0908283,422.697266 L73.0908283,420.548828 L70.8935626,420.548828 L71.0986408,415.802734 L57.8076251,415.802734 C58.0810626,415.438151 58.3479897,415.060547 58.6084064,414.669922 L58.6084064,414.669922 L72.6416095,414.669922 L72.6416095,412.521484 L59.8974689,412.521484 C60.118823,412.117839 60.336922,411.701172 60.5517658,411.271484 L60.5517658,411.271484 L57.602547,411.271484 C56.5608803,413.289714 55.2522866,414.975911 53.6767658,416.330078 C54.1194741,417.267578 54.5166095,418.166016 54.868172,419.025391 C55.4215574,418.537109 55.9586668,418.00651 56.4795001,417.433594 L56.4795001,417.433594 L56.040047,420.548828 L53.696297,420.548828 L53.696297,422.697266 L55.7470783,422.697266 L55.0830158,427.482422 L67.7392658,427.482422 C67.524422,428.042318 66.8538491,428.322266 65.727547,428.322266 C64.790047,428.322266 63.5986408,428.302734 62.1533283,428.263672 C62.4137449,428.992839 62.6546303,429.748047 62.8759845,430.529297 Z M68.2470783,420.548828 L64.711922,420.548828 L65.7861408,419.474609 C65.1220783,418.940755 64.4026772,418.419922 63.6279376,417.912109 L63.6279376,417.912109 L68.3642658,417.912109 L68.2470783,420.548828 Z M63.2373126,420.548828 L58.7060626,420.548828 L59.086922,417.912109 L62.2998126,417.912109 L61.2353595,418.966797 C61.9319741,419.48112 62.5992918,420.008464 63.2373126,420.548828 L63.2373126,420.548828 Z M68.0029376,425.373047 L64.2041095,425.373047 L65.3173908,424.318359 C64.5231199,423.719401 63.7711668,423.179036 63.0615314,422.697266 L63.0615314,422.697266 L68.149422,422.697266 C68.0973387,423.791016 68.0485105,424.682943 68.0029376,425.373047 L68.0029376,425.373047 Z M62.758797,425.373047 L58.0127033,425.373047 L58.3935626,422.697266 L61.8505939,422.697266 L60.727547,423.771484 C61.4697345,424.311849 62.1468178,424.845703 62.758797,425.373047 L62.758797,425.373047 Z M75.2719766,422.501953 C78.91781,420.145182 81.5545287,417.560547 83.1821329,414.748047 C84.8357787,417.703776 87.4594766,420.203776 91.0532266,422.248047 C91.5349975,421.505859 92.153487,420.626953 92.9086954,419.611328 C89.2758829,417.658203 86.528487,415.177734 84.6665079,412.169922 L84.6665079,412.169922 L84.9985391,411.623047 L81.9711954,411.623047 C80.044112,414.891276 77.2055704,417.658203 73.4555704,419.923828 C74.2889037,421.04362 74.8943725,421.902995 75.2719766,422.501953 Z M84.6469766,430.626953 L84.6469766,418.732422 L81.6586954,418.732422 L81.6586954,430.626953 L84.6469766,430.626953 Z M112.433594,429.806641 L112.433594,427.169922 L97.2578125,427.169922 L97.2578125,415.099609 L111.828125,415.099609 L111.828125,412.462891 L94.484375,412.462891 L94.484375,429.806641 L112.433594,429.806641 Z M108.371094,427.091797 L110.675781,425.060547 L106.291016,421.007812 C107.501953,419.686198 108.651042,418.289714 109.738281,416.818359 L109.738281,416.818359 L107.316406,415.216797 C106.352865,416.597005 105.314453,417.908854 104.201172,419.152344 L104.201172,419.152344 L99.875,415.392578 L98,417.306641 C99.4453125,418.563151 100.871094,419.842448 102.277344,421.144531 C100.858073,422.52474 99.3346354,423.804036 97.7070312,424.982422 C98.6835937,425.972005 99.3346354,426.66862 99.6601562,427.072266 C101.28776,425.835286 102.83724,424.497396 104.308594,423.058594 C105.682292,424.380208 107.036458,425.724609 108.371094,427.091797 L108.371094,427.091797 Z M113.892086,428.439453 C115.975419,427.710286 118.091305,426.994141 120.239742,426.291016 C120.109534,425.457682 120.024898,424.611328 119.985836,423.751953 L119.985836,423.751953 L118.01318,424.386719 L118.01318,418.673828 L120.005367,418.673828 L120.005367,416.076172 L118.01318,416.076172 L118.01318,411.349609 L115.415523,411.349609 L115.415523,416.076172 L113.384273,416.076172 L113.384273,418.673828 L115.415523,418.673828 L115.415523,425.158203 C114.634273,425.386068 113.840003,425.607422 113.032711,425.822266 L113.032711,425.822266 L113.892086,428.439453 Z M119.41943,430.822266 C122.414221,428.927734 124.285966,426.82487 125.034664,424.513672 C126.213049,427.541016 128.117346,429.572266 130.747555,430.607422 C131.372555,429.578776 131.899898,428.745443 132.329586,428.107422 C129.784013,427.150391 127.951331,425.503255 126.831539,423.166016 L126.831539,423.166016 L132.329586,423.166016 L132.329586,420.685547 L130.962398,420.685547 L130.962398,414.357422 L126.187008,414.357422 L126.216305,411.466797 L123.677242,411.466797 L123.647945,414.357422 L120.493648,414.357422 L120.493648,416.837891 L123.599117,416.837891 C123.547034,418.413411 123.475419,419.695964 123.384273,420.685547 L123.384273,420.685547 L119.321773,420.685547 L119.321773,423.166016 L122.94482,423.166016 C122.261226,425.26237 120.487138,426.98112 117.622555,428.322266 C118.247555,429.142578 118.846513,429.975911 119.41943,430.822266 Z M128.462398,420.685547 L125.942867,420.685547 C126.020992,419.722005 126.082841,418.439453 126.128414,416.837891 L126.128414,416.837891 L128.462398,416.837891 L128.462398,420.685547 Z M55.6491838,465.806641 L55.6491838,463.091797 L48.4616838,463.091797 L48.4616838,459.771484 L54.1843401,459.771484 L54.1843401,457.134766 L48.4616838,457.134766 L48.4616838,453.892578 L54.9460588,453.892578 L54.9460588,451.255859 L48.4616838,451.255859 L48.4616838,447.388672 L45.5319963,447.388672 L45.5319963,451.255859 L42.0163713,451.255859 C42.3418921,450.468099 42.6478817,449.660807 42.9343401,448.833984 L42.9343401,448.833984 L40.0241838,448.111328 C39.0866838,451.080078 37.9473609,453.45638 36.6062151,455.240234 C37.0879859,456.399089 37.5306942,457.51888 37.9343401,458.599609 C38.995538,457.141276 39.9525692,455.572266 40.8054338,453.892578 L40.8054338,453.892578 L45.5319963,453.892578 L45.5319963,457.134766 L39.7507463,457.134766 L39.7507463,459.771484 L45.5319963,459.771484 L45.5319963,463.091797 L37.3093401,463.091797 L37.3093401,465.806641 L55.6491838,465.806641 Z M66.3068947,466.685547 C67.3485614,465.878255 68.3381447,464.966797 69.2756447,463.951172 C70.2066343,465.722005 71.3817645,466.607422 72.8010353,466.607422 C73.2762957,466.607422 73.7483009,466.447917 74.2170509,466.128906 C74.6858009,465.809896 75.0634051,465.077474 75.3498634,463.931641 C75.6363218,462.785807 75.7990822,461.861328 75.8381447,461.158203 C74.7574155,460.702474 73.9240822,460.305339 73.3381447,459.966797 C73.3316343,460.513672 73.2697853,461.163086 73.1525978,461.915039 C73.0354103,462.666992 72.9279884,463.13737 72.8303322,463.326172 C72.7326759,463.514974 72.608978,463.609375 72.4592384,463.609375 C72.0686134,463.609375 71.6291603,462.974609 71.1408791,461.705078 C72.5796811,459.771484 73.8719989,457.538411 75.0178322,455.005859 L75.0178322,455.005859 L72.6154884,453.892578 C71.9449155,455.442057 71.1799416,456.877604 70.3205666,458.199219 C70.1057228,456.714844 69.9657489,454.960286 69.9006447,452.935547 L69.9006447,452.935547 L75.5061134,452.935547 L75.5061134,450.591797 L73.3576759,450.591797 L74.8615822,449.771484 C74.015228,448.716797 73.3641864,447.942057 72.9084572,447.447266 L72.9084572,447.447266 L70.8576759,448.560547 C71.6193947,449.458984 72.1727801,450.136068 72.5178322,450.591797 L72.5178322,450.591797 L69.8518166,450.591797 L69.8225197,447.369141 L67.0490822,447.369141 L67.1369728,450.591797 L57.9670509,450.591797 L57.9670509,457.212891 C57.9540301,460.494141 57.4071551,463.013672 56.3264259,464.771484 C57.1467384,465.370443 57.9149676,466.008464 58.6311134,466.685547 C59.8876239,464.673828 60.5256447,461.646484 60.5451759,457.603516 L60.5451759,457.603516 L63.3967384,457.603516 C63.3967384,458.684245 63.3495379,459.569661 63.2551369,460.259766 C63.1607358,460.94987 62.765228,461.294922 62.0686134,461.294922 C61.7105405,461.294922 61.2222593,461.236328 60.6037697,461.119141 C60.7860614,461.913411 60.9423114,462.863932 61.0725197,463.970703 C62.8628843,464.048828 63.9745379,463.936523 64.4074806,463.633789 C64.8404233,463.331055 65.1936134,462.942057 65.4670509,462.466797 C65.7404884,461.991536 65.9162697,460.717122 65.9943947,458.643555 C66.0725197,456.569987 66.1115822,455.435547 66.1115822,455.240234 L66.1115822,455.240234 L60.5451759,455.240234 L60.5451759,452.935547 L67.2346291,452.935547 C67.4038999,456.373047 67.7261655,459.068359 68.2014259,461.021484 C67.0230405,462.382161 65.7144468,463.580078 64.2756447,464.615234 C65.0048114,465.227214 65.6818947,465.917318 66.3068947,466.685547 Z M81.2224181,464.263672 C82.9672097,464.263672 84.3653217,463.799805 85.416754,462.87207 C86.4681863,461.944336 86.9939024,460.692708 86.9939024,459.117188 C86.9939024,457.710938 86.5446837,456.604167 85.6462462,455.796875 C84.7478087,454.989583 83.5401264,454.585938 82.0231993,454.585938 C81.5609597,454.585938 81.1410379,454.608724 80.7634337,454.654297 L80.7634337,454.654297 L80.7634337,451.470703 L86.3005431,451.470703 L86.3005431,448.873047 L78.0485899,448.873047 L78.0485899,457.222656 C79.0511941,457.105469 79.878017,457.046875 80.5290587,457.046875 C82.6970274,457.046875 83.7810118,457.828125 83.7810118,459.390625 C83.7810118,460.152344 83.5205951,460.751302 82.9997618,461.1875 C82.4789285,461.623698 81.7758035,461.841797 80.8903868,461.841797 C79.7510639,461.841797 78.6573139,461.519531 77.6091368,460.875 L77.6091368,460.875 L77.6091368,463.609375 C78.5596576,464.045573 79.7640847,464.263672 81.2224181,464.263672 Z M90.1711446,458.501953 C93.8169779,456.145182 96.4536966,453.560547 98.0813008,450.748047 C99.7349466,453.703776 102.358645,456.203776 105.952395,458.248047 C106.434165,457.505859 107.052655,456.626953 107.807863,455.611328 C104.175051,453.658203 101.427655,451.177734 99.5656758,448.169922 L99.5656758,448.169922 L99.8977071,447.623047 L96.8703633,447.623047 C94.94328,450.891276 92.1047383,453.658203 88.3547383,455.923828 C89.1880716,457.04362 89.7935404,457.902995 90.1711446,458.501953 Z M99.5461446,466.626953 L99.5461446,454.732422 L96.5578633,454.732422 L96.5578633,466.626953 L99.5461446,466.626953 Z M116.492918,464.263672 C118.647866,464.263672 120.464272,463.83724 121.942137,462.984375 L121.942137,462.984375 L121.942137,455.464844 L115.66284,455.464844 L115.66284,458.052734 L118.71948,458.052734 L118.71948,461.158203 C118.185626,461.41862 117.498777,461.548828 116.658934,461.548828 C115.246173,461.548828 114.131264,461.10612 113.314207,460.220703 C112.49715,459.335286 112.088621,458.101562 112.088621,456.519531 C112.088621,454.963542 112.541095,453.710286 113.446043,452.759766 C114.350991,451.809245 115.532631,451.333984 116.990965,451.333984 C118.683673,451.333984 120.115965,451.675781 121.28784,452.359375 L121.28784,452.359375 L121.28784,449.302734 C120.083413,448.847005 118.673908,448.619141 117.059324,448.619141 C114.552814,448.619141 112.532957,449.366211 110.999754,450.860352 C109.466551,452.354492 108.699949,454.292969 108.699949,456.675781 C108.699949,459.026042 109.396564,460.878255 110.789793,462.232422 C112.183022,463.586589 114.084064,464.263672 116.492918,464.263672 Z M126.652582,464 L127.765863,460.533203 L133.26391,460.533203 L134.396723,464 L137.912348,464 L132.48266,448.873047 L128.693598,448.873047 L123.156488,464 L126.652582,464 Z M132.502191,458.042969 L128.468988,458.042969 L130.197504,452.759766 C130.334223,452.349609 130.422113,451.923177 130.461176,451.480469 L130.461176,451.480469 L130.549066,451.480469 C130.594639,452.027344 130.672764,452.466797 130.783441,452.798828 L130.783441,452.798828 L132.502191,458.042969 Z M143.228262,464.263672 C145.122793,464.263672 146.584381,463.882812 147.613027,463.121094 C148.641673,462.359375 149.155996,461.252604 149.155996,459.800781 C149.155996,458.811198 148.87442,457.958333 148.311269,457.242188 C147.748118,456.526042 146.71459,455.845703 145.210683,455.201172 C143.928131,454.641276 143.124095,454.19694 142.798574,453.868164 C142.473053,453.539388 142.310293,453.179688 142.310293,452.789062 C142.310293,452.300781 142.547923,451.911784 143.023183,451.62207 C143.498444,451.332357 144.133209,451.1875 144.92748,451.1875 C146.288157,451.1875 147.476308,451.532552 148.491933,452.222656 L148.491933,452.222656 L148.491933,449.195312 C147.489329,448.811198 146.249095,448.619141 144.77123,448.619141 C143.006907,448.619141 141.589264,449.008138 140.518301,449.786133 C139.447337,450.564128 138.911855,451.65625 138.911855,453.0625 C138.911855,454.976562 140.093496,456.434896 142.456777,457.4375 C143.960683,458.0625 144.888418,458.557292 145.23998,458.921875 C145.591543,459.286458 145.767324,459.673828 145.767324,460.083984 C145.767324,460.559245 145.54597,460.948242 145.103262,461.250977 C144.660553,461.553711 143.999746,461.705078 143.12084,461.705078 C141.571361,461.705078 140.187897,461.200521 138.970449,460.191406 L138.970449,460.191406 L138.970449,463.423828 C140.07722,463.983724 141.496491,464.263672 143.228262,464.263672 Z" id="每个区块生成5个GAS" fill="#000033" fill-rule="nonzero"></path>
                <g id="Group-11" transform="translate(216.000000, 495.000000)" fill="#FFFFFF" stroke="#000033" stroke-linejoin="round" stroke-width="1.2019616">
                    <polygon id="Path-20" points="4.54747351e-13 16.9043174 4.54747351e-13 52.5056072 31.2010361 70.5258344 31.2010361 33.0798097"></polygon>
                    <polygon id="Path-20" transform="translate(46.660173, 43.715076) scale(-1, 1) translate(-46.660173, -43.715076) " points="31.0596549 16.9043174 31.0596549 52.5056072 62.260691 70.5258344 62.260691 33.0798097"></polygon>
                    <polygon id="Path-21" points="62.260691 16.9043174 31.0596549 33.0798097 0 16.9043174 31.2010361 -7.07525743e-12"></polygon>
                </g>
                <g id="Group-11" transform="translate(216.000000, 604.000000)" fill="#FFFFFF" stroke="#000033" stroke-linejoin="round" stroke-width="1.2019616">
                    <polygon id="Path-20" points="4.54747351e-13 16.9043174 4.54747351e-13 52.5056072 31.2010361 70.5258344 31.2010361 33.0798097"></polygon>
                    <polygon id="Path-20" transform="translate(46.660173, 43.715076) scale(-1, 1) translate(-46.660173, -43.715076) " points="31.0596549 16.9043174 31.0596549 52.5056072 62.260691 70.5258344 62.260691 33.0798097"></polygon>
                    <polygon id="Path-21" points="62.260691 16.9043174 31.0596549 33.0798097 0 16.9043174 31.2010361 -7.07525743e-12"></polygon>
                </g>
                <g id="council-icon" transform="translate(919.000000, 673.000000)">
                    <g id="Polygon-Copy-14">
                        <use fill="black" fill-opacity="1" filter="url(#filter-10)" xlink:href="#path-9"></use>
                        <use fill="#F0F5F6" fill-rule="evenodd" xlink:href="#path-9"></use>
                    </g>
                    <g id="icon" transform="translate(49.020000, 48.260000)">
                        <polygon id="Path-3" fill="#FFFFFF" points="67.06468 64.150384 67.06468 60.7158714 64.3351356 58.8151812 64.3351356 22.1335783 65.94444 21.617017 65.94444 16.0920303 69.9644797 16.0920303 69.5020124 10.95312 35.64894 1.06063578 0.920089567 10.95312 0.920089567 16.0920303 4.732824 16.0920303 4.2829257 21.617017 6.6314207 22.1335783 6.6314207 58.8151812 4.732824 59.5218895 3.6138 61.307995 3.6138 65.124324 66.5117628 65.124324"></polygon>
                        <polygon id="Path-4" fill="#00E599" points="27.2885797 39.834824 27.2885797 60.892574 43.0635665 60.892574 43.0635665 39.834824"></polygon>
                        <g id="Group-18" fill="#000000">
                            <path d="M7.52628,58.362832 L14.36932,58.362832 L14.36932,23.042592 L7.52628,23.042592 L7.52628,58.362832 Z M15.34288,60.309952 L6.55272,60.309952 C6.01464,60.309952 5.57916,59.874472 5.57916,59.336392 L5.57916,22.069032 C5.57916,21.530952 6.01464,21.095472 6.55272,21.095472 L15.34288,21.095472 C15.88096,21.095472 16.3172,21.530952 16.3172,22.069032 L16.3172,59.336392 C16.3172,59.874472 15.88096,60.309952 15.34288,60.309952 L15.34288,60.309952 Z" id="Fill-1"></path>
                            <path d="M4.732824,64.150764 L17.162624,64.150764 L17.162624,61.347884 C17.162624,60.776364 16.696744,60.309724 16.124464,60.309724 L5.770984,60.309724 C5.197944,60.309724 4.732824,60.776364 4.732824,61.347884 L4.732824,64.150764 Z M18.136944,66.098644 L3.759264,66.098644 C3.221184,66.098644 2.784944,65.662404 2.784944,65.124324 L2.784944,61.347884 C2.784944,59.701724 4.124064,58.362604 5.770984,58.362604 L16.124464,58.362604 C17.770624,58.362604 19.110504,59.701724 19.110504,61.347884 L19.110504,65.124324 C19.110504,65.662404 18.674264,66.098644 18.136944,66.098644 L18.136944,66.098644 Z" id="Fill-3"></path>
                            <path d="M5.56092,21.095472 L16.33468,21.095472 L16.33468,17.254432 L5.56092,17.254432 L5.56092,21.095472 Z M17.30824,23.042592 L4.58736,23.042592 C4.04928,23.042592 3.6138,22.606352 3.6138,22.069032 L3.6138,16.280872 C3.6138,15.742792 4.04928,15.307312 4.58736,15.307312 L17.30824,15.307312 C17.84632,15.307312 18.28256,15.742792 18.28256,16.280872 L18.28256,22.069032 C18.28256,22.606352 17.84632,23.042592 17.30824,23.042592 L17.30824,23.042592 Z" id="Fill-4"></path>
                            <path d="M56.3084,58.362832 L63.15144,58.362832 L63.15144,23.042592 L56.3084,23.042592 L56.3084,58.362832 Z M64.125,60.309952 L55.33484,60.309952 C54.796,60.309952 54.36052,59.874472 54.36052,59.336392 L54.36052,22.069032 C54.36052,21.530952 54.796,21.095472 55.33484,21.095472 L64.125,21.095472 C64.66308,21.095472 65.09856,21.530952 65.09856,22.069032 L65.09856,59.336392 C65.09856,59.874472 64.66308,60.309952 64.125,60.309952 L64.125,60.309952 Z" id="Fill-5"></path>
                            <path d="M53.51464,64.150764 L65.94444,64.150764 L65.94444,61.347884 C65.94444,60.776364 65.47932,60.309724 64.90628,60.309724 L54.5528,60.309724 C53.98052,60.309724 53.51464,60.776364 53.51464,61.347884 L53.51464,64.150764 Z M66.91876,66.098644 L52.54108,66.098644 C52.00376,66.098644 51.56676,65.662404 51.56676,65.124324 L51.56676,61.347884 C51.56676,59.701724 52.90664,58.362604 54.5528,58.362604 L64.90628,58.362604 C66.5532,58.362604 67.89232,59.701724 67.89232,61.347884 L67.89232,65.124324 C67.89232,65.662404 67.45684,66.098644 66.91876,66.098644 L66.91876,66.098644 Z" id="Fill-6"></path>
                            <path d="M54.34304,21.095472 L65.11756,21.095472 L65.11756,17.254432 L54.34304,17.254432 L54.34304,21.095472 Z M66.09112,23.042592 L53.36948,23.042592 C52.8314,23.042592 52.39516,22.606352 52.39516,22.069032 L52.39516,16.280872 C52.39516,15.742792 52.8314,15.307312 53.36948,15.307312 L66.09112,15.307312 C66.62844,15.307312 67.06468,15.742792 67.06468,16.280872 L67.06468,22.069032 C67.06468,22.606352 66.62844,23.042592 66.09112,23.042592 L66.09112,23.042592 Z" id="Fill-7"></path>
                            <path d="M19.1102,64.150992 L51.56676,64.150992 L51.56676,62.231992 L19.1102,62.231992 L19.1102,64.150992 Z M52.54108,66.098112 L18.13664,66.098112 C17.59856,66.098112 17.16308,65.661872 17.16308,65.124552 L17.16308,61.258432 C17.16308,60.720352 17.59856,60.284112 18.13664,60.284112 L52.54108,60.284112 C53.07916,60.284112 53.51464,60.720352 53.51464,61.258432 L53.51464,65.124552 C53.51464,65.661872 53.07916,66.098112 52.54108,66.098112 L52.54108,66.098112 Z" id="Fill-8"></path>
                            <path d="M28.23324,60.284112 L42.44372,60.284112 L42.44372,40.562112 L28.23324,40.562112 L28.23324,60.284112 Z M43.41804,62.231232 L27.26044,62.231232 C26.72236,62.231232 26.28688,61.795752 26.28688,61.258432 L26.28688,39.588552 C26.28688,39.050472 26.72236,38.614992 27.26044,38.614992 L43.41804,38.614992 C43.95536,38.614992 44.3916,39.050472 44.3916,39.588552 L44.3916,61.258432 C44.3916,61.795752 43.95536,62.231232 43.41804,62.231232 L43.41804,62.231232 Z" id="Fill-9"></path>
                            <path d="M1.947424,15.307008 L68.730904,15.307008 L68.730904,11.843688 L35.338784,1.988768 L1.947424,11.843688 L1.947424,15.307008 Z M69.704464,17.254888 L0.973864,17.254888 C0.435784,17.254888 -0.000456,16.818648 -0.000456,16.280568 L-0.000456,11.115608 C-0.000456,10.683928 0.284544,10.303928 0.697224,10.182328 L35.062904,0.040128 C35.243024,-0.013072 35.434544,-0.013072 35.614664,0.040128 L69.980344,10.182328 C70.394544,10.303928 70.678784,10.683928 70.678784,11.115608 L70.678784,16.280568 C70.678784,16.818648 70.241784,17.254888 69.704464,17.254888 L69.704464,17.254888 Z" id="Fill-10"></path>
                            <path d="M52.00794,11.92706 L18.66978,11.92706 C18.13246,11.92706 17.69622,11.49082 17.69622,10.9535 C17.69622,10.41542 18.13246,9.97918 18.66978,9.97918 L52.00794,9.97918 C52.54526,9.97918 52.9815,10.41542 52.9815,10.9535 C52.9815,11.49082 52.54526,11.92706 52.00794,11.92706" id="Fill-11"></path>
                            <path d="M20.04044,48.296632 L22.41316,48.296632 L22.41316,42.576872 L20.04044,42.576872 L20.04044,48.296632 Z M23.38672,50.243752 L19.06688,50.243752 C18.5288,50.243752 18.09332,49.808272 18.09332,49.270192 L18.09332,41.602552 C18.09332,41.065232 18.5288,40.628992 19.06688,40.628992 L23.38672,40.628992 C23.9248,40.628992 24.36104,41.065232 24.36104,41.602552 L24.36104,49.270192 C24.36104,49.808272 23.9248,50.243752 23.38672,50.243752 L23.38672,50.243752 Z" id="Fill-12"></path>
                            <path d="M48.18932,48.296632 L50.5628,48.296632 L50.5628,42.576872 L48.18932,42.576872 L48.18932,48.296632 Z M51.53636,50.243752 L47.21576,50.243752 C46.67844,50.243752 46.2422,49.808272 46.2422,49.270192 L46.2422,41.602552 C46.2422,41.065232 46.67844,40.628992 47.21576,40.628992 L51.53636,40.628992 C52.07368,40.628992 52.50992,41.065232 52.50992,41.602552 L52.50992,49.270192 C52.50992,49.808272 52.07368,50.243752 51.53636,50.243752 L51.53636,50.243752 Z" id="Fill-13"></path>
                            <path d="M21.98756,31.926992 L24.36104,31.926992 L24.36104,26.207232 L21.98756,26.207232 L21.98756,31.926992 Z M25.3346,33.874872 L21.014,33.874872 C20.47592,33.874872 20.04044,33.438632 20.04044,32.901312 L20.04044,25.233672 C20.04044,24.696352 20.47592,24.260112 21.014,24.260112 L25.3346,24.260112 C25.87192,24.260112 26.30816,24.696352 26.30816,25.233672 L26.30816,32.901312 C26.30816,33.438632 25.87192,33.874872 25.3346,33.874872 L25.3346,33.874872 Z" id="Fill-14"></path>
                            <path d="M34.4622,31.926992 L36.83568,31.926992 L36.83568,26.207232 L34.4622,26.207232 L34.4622,31.926992 Z M37.80924,33.874872 L33.48864,33.874872 C32.95056,33.874872 32.51508,33.438632 32.51508,32.901312 L32.51508,25.233672 C32.51508,24.696352 32.95056,24.260112 33.48864,24.260112 L37.80924,24.260112 C38.34656,24.260112 38.7828,24.696352 38.7828,25.233672 L38.7828,32.901312 C38.7828,33.438632 38.34656,33.874872 37.80924,33.874872 L37.80924,33.874872 Z" id="Fill-15"></path>
                            <path d="M46.93684,31.926992 L49.31032,31.926992 L49.31032,26.207232 L46.93684,26.207232 L46.93684,31.926992 Z M50.28388,33.874872 L45.96252,33.874872 C45.4252,33.874872 44.98972,33.438632 44.98972,32.901312 L44.98972,25.233672 C44.98972,24.696352 45.4252,24.260112 45.96252,24.260112 L50.28388,24.260112 C50.8212,24.260112 51.25744,24.696352 51.25744,25.233672 L51.25744,32.901312 C51.25744,33.438632 50.8212,33.874872 50.28388,33.874872 L50.28388,33.874872 Z" id="Fill-16"></path>
                            <path d="M70.750452,66.098264 L0.973332,66.098264 C0.435252,66.098264 -0.000228000001,65.662024 -0.000228000001,65.124704 C-0.000228000001,64.586624 0.435252,64.150384 0.973332,64.150384 L70.750452,64.150384 C71.287772,64.150384 71.724012,64.586624 71.724012,65.124704 C71.724012,65.662024 71.287772,66.098264 70.750452,66.098264" id="Fill-17"></path>
                        </g>
                    </g>
                </g>
                <g id="council-icon-copy" transform="translate(919.000000, 0.000000)">
                    <g id="Polygon-Copy-14">
                        <use fill="black" fill-opacity="1" filter="url(#filter-12)" xlink:href="#path-11"></use>
                        <use fill="#F0F5F6" fill-rule="evenodd" xlink:href="#path-11"></use>
                    </g>
                    <g id="Group-35" transform="translate(55.000000, 52.000000)" fill-rule="nonzero">
                        <polygon id="Path" fill="#00E599" points="0 11.579925 0 55.8593525 29.0467742 66.171 29.0467742 21.505575 60.375 10.0910775 31.9403226 0"></polygon>
                        <polygon id="Path" fill="#00AF92" points="30.912 23.6027586 30.912 47.2983103 59.409 57.477 59.409 13.041"></polygon>
                    </g>
                </g>
                <g id="Polygon-Copy-14">
                    <use fill="black" fill-opacity="1" filter="url(#filter-14)" xlink:href="#path-13"></use>
                    <use fill="#F0F5F6" fill-rule="evenodd" xlink:href="#path-13"></use>
                </g>
                <text id="7个共识节点的投票者按比例分享" font-family="MicrosoftYaHei-Bold, Microsoft YaHei" font-size="16" font-weight="bold" line-spacing="32" letter-spacing="-0.130081301" fill="#000033">
                    <tspan x="1061" y="383">7个共识节点的投票者按比例分享</tspan>
                </text>
                <text id="14个非共识节点理事会成员的投票者按比例" font-family="MicrosoftYaHei-Bold, Microsoft YaHei" font-size="16" font-weight="bold" line-spacing="32" letter-spacing="-0.130081301" fill="#000033">
                    <tspan x="1061" y="611">14个非共识节点理事会成员的投票</tspan>
                    <tspan x="1061" y="643">者按比例分享</tspan>
                </text>
                <text id="理事会成员" font-family="MicrosoftYaHei-Bold, Microsoft YaHei" font-size="16" font-weight="bold" line-spacing="32" letter-spacing="-0.130081301" fill="#000033">
                    <tspan x="964.825203" y="881">理事会成员</tspan>
                </text>
                <path d="M1007.52088,321.69712 L1007.52088,317.128634 C1007.52088,316.671623 1007.26407,316.3003 1006.75044,316.014668 C1006.23682,315.729036 1005.98,315.58622 1005.98,315.58622 L999.156128,312.330011 C999.694212,311.905642 1000.15077,311.395585 1000.5258,310.799837 C1000.90082,310.20409 1001.20248,309.583859 1001.43075,308.939146 C1001.65903,308.294433 1001.82209,307.661962 1001.91992,307.041731 C1002.01775,306.421501 1002.06667,305.874719 1002.06667,305.401385 L1002.06667,301.484141 C1002.06667,300.831267 1001.85877,300.178393 1001.44298,299.52552 C1001.02719,298.872646 1000.48911,298.285059 999.828733,297.76276 C999.168357,297.240461 998.418302,296.816092 997.578566,296.489655 C996.738829,296.163218 995.886864,296 995.022669,296 C994.158475,296 993.302433,296.163218 992.454544,296.489655 C991.606655,296.816092 990.852523,297.240461 990.192147,297.76276 C989.531772,298.285059 988.997765,298.872646 988.590126,299.52552 C988.182487,300.178393 987.978668,300.831267 987.978668,301.484141 L987.978668,305.401385 C987.978668,305.825753 988.027584,306.343972 988.125418,306.956042 C988.223251,307.568111 988.390383,308.196502 988.626814,308.841215 C988.863244,309.485928 989.168974,310.1184 989.544001,310.73863 C989.919029,311.35886 990.383738,311.889321 990.938127,312.330011 L984.065334,315.58622 C984.065334,315.58622 983.804445,315.737197 983.282667,316.039151 C982.760889,316.341105 982.5,316.704266 982.5,317.128634 L982.5,321.69712" id="" fill="#000033" fill-rule="nonzero"></path>
            </g>
        </g>
    </g>
</svg>