<?xml version="1.0" encoding="UTF-8"?>
<svg width="132px" height="137px" viewBox="0 0 132 137" version="1.1" xmlns="http://www.w3.org/2000/svg" xmlns:xlink="http://www.w3.org/1999/xlink">
    <!-- Generator: Sketch 50.2 (55047) - http://www.bohemiancoding.com/sketch -->
    <title>Group 61</title>
    <desc>Created with Sketch.</desc>
    <defs></defs>
    <g id="Page-1" stroke="none" stroke-width="1" fill="none" fill-rule="evenodd">
        <g id="首页编辑版" transform="translate(-649.000000, -2094.000000)">
            <g id="Group-61" transform="translate(648.000000, 2094.000000)">
                <g id="数字证书" transform="translate(0.739086, 0.074896)">
                    <g id="Group-32" transform="translate(41.528565, 31.372484)">
                        <g id="Group-24" transform="translate(0.594800, 3.175440)">
                            <polygon id="Path-15" fill="#8AD500" points="8.18919202 54.7081824 18.8787505 60.1123078 23.0839657 65.8935492 8.18919202 58.1741321"></polygon>
                            <polygon id="Path-16" fill="#50AC02" points="12.2562101 38.8916044 12.1705525 47.3726489 12.1705525 57.5052654 12.1705525 67.5089717 16.6279982 62.8811652 23.6328797 55.6085615 44.7631402 33.2728857 44.7631402 23.2575518 44.7631402 12.9313088 44.686278 4.48327253"></polygon>
                            <polygon id="Path-17" fill="#58BF00" transform="translate(24.873392, 19.965411) rotate(-9.000000) translate(-24.873392, -19.965411) " points="2.87983736 31.9389306 9.43247647 36.6862961 46.8669464 7.77625276 40.2138953 3.24452659"></polygon>
                            <polygon id="Path-15" fill="#8AD500" points="5.04198071 35.1805697 12.2320604 38.8898424 12.2158192 67.7859798 5.04198071 63.3836941"></polygon>
                            <polygon id="Path-19" fill="#50AC02" points="18.8787505 60.4219786 23.0274533 65.9454559 25.8309149 53.1606089"></polygon>
                            <path d="M15.8504861,43.7904273 L33.1692745,25.317053" id="Line-36" stroke="#74BF35" stroke-linecap="square"></path>
                            <path d="M15.8504861,50.7179427 L27.396345,38.0174978" id="Line-36" stroke="#74BF35" stroke-linecap="square"></path>
                            <path d="M16.2138718,56.9884021 L24.0323965,48.5674304" id="Line-36" stroke="#74BF35" stroke-linecap="square"></path>
                        </g>
                        <g id="Group-31" transform="translate(31.887932, 0.000000)">
                            <g id="Group-29" transform="translate(0.415917, 0.748639)">
                                <polygon id="Path-16" fill="#469800" points="2.20033127 10.8761837 2.10299086 20.5139514 2.10299086 32.0285477 2.10299086 43.396652 6.26194425 29.8969579 10.4208976 34.9438521 10.4208976 24.2772082 10.4208976 12.5425768 10.3335522 2.94231924 6.19835989 0.154973776"></polygon>
                                <polygon id="Path-5" fill="#71D61A" points="6.15505134 0.239457975 4.18133678 0.239457975 0.099339693 10.8750835 1.25359429 10.8750835 2.19918295 10.8750835"></polygon>
                                <polygon id="Rectangle" fill="#83C901" points="0.0671975075 10.8750835 2.20706747 10.8750835 2.10299086 43.3343225 0.0671975075 43.3343225"></polygon>
                                <polygon id="Path-6" fill="#82C604" points="5.70044594 31.6570609 8.40430504 34.85348 10.4514952 34.85348 6.25377671 29.8823433"></polygon>
                            </g>
                            <g id="Group-30" transform="translate(3.868958, 9.370419)">
                                <path d="M3.15847408,10.7750512 C4.70964847,9.30888404 5.96712376,5.91656027 5.96712376,3.19808402 C5.96712376,0.479607765 4.70964847,-0.535589316 3.15847408,0.930577873 C1.6072997,2.39674506 0.349824413,5.78906884 0.349824413,8.50754509 C0.349824413,11.2260213 1.6072997,12.2412184 3.15847408,10.7750512 Z" id="Oval-2" fill="#74BF35"></path>
                                <path d="M2.75992973,10.5082217 C4.27701328,9.08891762 5.5068525,5.80502277 5.5068525,3.17343724 C5.5068525,0.541851706 4.27701328,-0.440896607 2.75992973,0.978407446 C1.24284618,2.3977115 0.0130069633,5.68160635 0.0130069633,8.31319188 C0.0130069633,10.9447774 1.24284618,11.9275257 2.75992973,10.5082217 Z" id="Oval-2" fill="#95D85E"></path>
                                <path d="M0.668711314,7.10192786 C0.729519242,7.05747819 0.783467936,7.04330751 0.831538168,7.05871619 C0.8796084,7.07414791 0.918204414,7.12347808 0.946345438,7.2074128 L0.887499056,7.25032046 C0.866230856,7.19172527 0.839082958,7.15763984 0.804419918,7.14589358 C0.769756879,7.13415947 0.729867579,7.14477457 0.685732793,7.17701338 C0.632771049,7.21569996 0.596491094,7.27752508 0.578854474,7.36103605 C0.560563181,7.44163583 0.563527736,7.53024616 0.585459257,7.62687415 C0.607063441,7.72205993 0.639123851,7.78780141 0.681313151,7.82267366 C0.72350245,7.85756896 0.773203186,7.85509665 0.829107249,7.81450842 C0.923261461,7.74614931 0.961164508,7.63615917 0.943797163,7.48380422 L1.00166277,7.44170641 C1.01313189,7.54283555 1.00497937,7.63294829 0.97785865,7.70987609 C0.951391366,7.78462099 0.906936656,7.84547659 0.846128728,7.88959343 C0.771589977,7.94367214 0.704232856,7.94885818 0.64601891,7.9037607 C0.591075855,7.86304774 0.551491655,7.78432809 0.525632102,7.67044106 C0.500099884,7.55799564 0.498438497,7.44997871 0.521956049,7.34708564 C0.546125803,7.23694759 0.595153337,7.15569763 0.668711314,7.10192786 Z M1.18754025,6.72267178 C1.26796364,6.6638835 1.33662887,6.65931619 1.39517139,6.71118758 C1.44651869,6.75652269 1.48872034,6.84236546 1.52079557,6.96940914 L1.1088709,7.26932009 C1.13243539,7.35836716 1.16547534,7.41861929 1.2076634,7.4486427 C1.25083224,7.47797584 1.29791676,7.47413699 1.3508785,7.43568499 C1.39697484,7.40221751 1.42998884,7.35630843 1.45057519,7.30084724 C1.46723969,7.25328733 1.47507352,7.19693813 1.47473012,7.129636 L1.53455728,7.08612257 C1.53915481,7.16724909 1.53001781,7.24313971 1.50714628,7.31378722 C1.47839259,7.39880988 1.432631,7.46407941 1.36789998,7.51104249 C1.29630355,7.56298651 1.23123531,7.5680598 1.1730226,7.52774158 C1.11252101,7.48744339 1.06901248,7.40618843 1.04217092,7.2875501 C1.01729337,7.17759263 1.01726743,7.07141565 1.04241919,6.96537714 C1.06789706,6.8556822 1.11594382,6.77500768 1.18754025,6.72267178 Z M1.2055425,6.79731184 C1.15552308,6.83384916 1.1208761,6.88784283 1.10225623,6.9621732 C1.08330903,7.03503393 1.08038524,7.11305039 1.0938122,7.19768198 L1.4429674,6.94329992 C1.39191532,6.76763996 1.31244676,6.71922227 1.2055425,6.79731184 Z M1.73285006,6.32405858 C1.76227325,6.30255067 1.78777458,6.28899296 1.81000873,6.28629797 L1.82997624,6.37507606 C1.80087667,6.38277312 1.77439457,6.39703235 1.74889447,6.41565691 C1.70377891,6.44860806 1.67305626,6.50490404 1.65934273,6.58600262 C1.64431986,6.66126515 1.64629993,6.73595382 1.66332141,6.81151467 L1.75268417,7.20820911 L1.69383779,7.2509111 L1.52460501,6.49996746 L1.5834514,6.45695993 L1.61585767,6.60081615 C1.61911374,6.54429132 1.62923769,6.49289593 1.64655685,6.44808317 C1.66616243,6.39312472 1.69558068,6.35130192 1.73285006,6.32405858 Z M1.9456148,5.90895752 L2.00027994,6.15232319 L2.1326843,6.05555623 L2.14970577,6.13140391 L2.01730141,6.22810172 L2.13186906,6.73814955 C2.13907045,6.7702097 2.14855826,6.79213365 2.1596778,6.80100804 C2.17047001,6.80842653 2.18681829,6.80503073 2.2083953,6.78936207 L2.27214554,6.74306829 L2.28916702,6.81890931 L2.21757059,6.8708634 C2.17833967,6.89933139 2.14629655,6.90394278 2.12307669,6.88690522 C2.10149227,6.87207566 2.08546145,6.83627366 2.07302267,6.7809195 L1.95845503,6.27107853 L1.85057,6.34986934 L1.83354852,6.27417788 L1.94143355,6.19533073 L1.89495182,5.98848096 L1.9456148,5.90895752 Z M2.21989651,5.67574262 C2.23362733,5.66568187 2.24703328,5.66436014 2.26011438,5.6717789 C2.2725408,5.67627854 2.28137269,5.69021373 2.28628274,5.71212272 C2.29086544,5.7325711 2.28890884,5.75440555 2.28237447,5.77618872 C2.27551276,5.79650958 2.26636094,5.81170533 2.25263012,5.82175228 C2.23791852,5.83251687 2.22451257,5.83382939 2.21273958,5.82715091 C2.19965849,5.81973225 2.19082659,5.8058065 2.18624389,5.78537218 C2.18133384,5.76347826 2.18230968,5.74237114 2.18949872,5.72350923 C2.19505231,5.70244463 2.20518491,5.68652198 2.21989651,5.67574262 Z M2.25135783,5.96882436 L2.31020422,5.92581682 L2.47943699,6.68083955 L2.42059061,6.72354154 L2.25135783,5.96882436 Z M2.60468193,5.37506337 L2.69491305,5.30893995 L2.71226186,5.38657984 L2.62693461,5.44906417 C2.60143451,5.46773765 2.58476384,5.49016527 2.57757727,5.51927188 C2.57006336,5.54691182 2.57105278,5.58194859 2.58087287,5.62584783 L2.60051303,5.71364629 L2.91043731,5.48713992 L3.07967009,6.24527926 L3.02082371,6.28798125 L2.86861241,5.60637059 L2.61753451,5.7897383 L2.76974581,6.4701764 L2.71089943,6.51287839 L2.55868813,5.8327151 L2.42334145,5.93156176 L2.40631997,5.85557117 L2.54166665,5.75665383 L2.52169915,5.66742811 C2.50762369,5.60453129 2.50662933,5.54908022 2.52067761,5.49963136 C2.53407121,5.44724604 2.56152792,5.40668761 2.60468193,5.37506337 Z M3.26187522,5.20636436 C3.32268315,5.16191469 3.37663184,5.14813467 3.42470207,5.16432465 C3.4727723,5.18053769 3.51136832,5.23106587 3.53950934,5.31661529 L3.48066296,5.35952295 C3.45939476,5.29978184 3.43224686,5.26486301 3.39758382,5.2525438 C3.36292078,5.24023672 3.32303148,5.25056534 3.2788967,5.28280416 C3.22593495,5.32149073 3.189655,5.38386276 3.17201838,5.46846757 C3.15372709,5.5501091 3.15669164,5.64012579 3.17862316,5.73849871 C3.20022734,5.83540337 3.23228775,5.90252516 3.27447705,5.93841311 C3.31666635,5.97432412 3.36636709,5.97237268 3.42227115,5.93178446 C3.51642536,5.86342534 3.55432841,5.75215906 3.53696107,5.59725183 L3.59482668,5.55515403 C3.60629579,5.657976 3.59814327,5.74939093 3.57102255,5.82720421 C3.54455527,5.90280855 3.50010056,5.9641069 3.43929263,6.00822373 C3.36475388,6.06230244 3.29739676,6.06681134 3.23918281,6.0203596 C3.18423976,5.97839654 3.14465556,5.89801009 3.11879601,5.78206561 C3.09326379,5.66758878 3.0916024,5.55787902 3.11511995,5.45365772 C3.13928971,5.34208727 3.18831724,5.26013413 3.26187522,5.20636436 Z M3.79051188,4.81993898 C3.86112754,4.76832 3.92030867,4.75766015 3.96772917,4.79164978 C4.00795446,4.81890647 4.03870429,4.87540791 4.05834445,4.96404856 L4.16734738,5.45600417 L4.11144332,5.49657106 L4.07903704,5.35036957 C4.06826089,5.40963302 4.04930999,5.46796345 4.02251043,5.52169494 C3.98917403,5.58700908 3.94929461,5.63821154 3.90123673,5.67307807 C3.85219808,5.70865617 3.80773102,5.71867173 3.77012442,5.70318659 C3.72924817,5.68837966 3.70209904,5.64822145 3.68835092,5.58635751 C3.66871075,5.49798045 3.67784652,5.4160352 3.71673899,5.33978765 C3.74909338,5.26998885 3.80433783,5.20575773 3.88083812,5.15001465 L4.00964549,5.0527267 L3.99949807,5.00694736 C3.96741913,4.86222555 3.90234101,4.82568604 3.80426371,4.89732882 C3.76307124,4.92741879 3.73234365,4.96357356 3.71175482,5.00945168 C3.68855102,5.05894218 3.67875441,5.11233791 3.68269232,5.17111684 L3.62351737,5.20743085 C3.61630362,5.12366953 3.62871028,5.0461168 3.661392,4.97771074 C3.6894972,4.91434152 3.73264628,4.86223786 3.79051188,4.81993898 Z M4.02503029,5.1221341 L3.89916524,5.21721836 C3.77101131,5.31225169 3.72100918,5.4205627 3.74785074,5.54139396 C3.75701615,5.58265341 3.77500605,5.6072344 3.80214777,5.61661601 C3.82928949,5.62600499 3.86165871,5.61791049 3.89696654,5.59227689 C3.94796674,5.55525057 3.98915179,5.49450931 4.01856016,5.41145487 C4.04764242,5.33203666 4.05579989,5.2609489 4.04270644,5.20187877 L4.02503029,5.1221341 Z M4.18962351,4.26517301 L4.24428864,4.51230237 L4.376693,4.4155354 L4.39371448,4.49255501 L4.26131012,4.58925283 L4.37587776,5.10718861 C4.38307916,5.13974458 4.39256696,5.16205166 4.40368651,5.17115142 C4.41447872,5.17877275 4.43082699,5.17548963 4.452404,5.15982097 L4.51615425,5.11352719 L4.53317572,5.19054014 L4.46157929,5.24249422 C4.42234837,5.27096222 4.39030526,5.27532569 4.36708539,5.25783739 C4.34550097,5.24260217 4.32947015,5.20616914 4.31703138,5.14995857 L4.20246374,4.63222963 L4.0945787,4.71102045 L4.07755722,4.63415706 L4.18544226,4.55530991 L4.13896053,4.34525988 L4.18962351,4.26517301 Z M4.6663422,4.17972029 C4.74676559,4.12093201 4.81543082,4.11730804 4.87397334,4.17113597 C4.92532064,4.21818306 4.96752229,4.30643657 4.99959753,4.43658977 L4.58767285,4.73650072 C4.61123735,4.8277489 4.64427729,4.88974794 4.68646536,4.92102913 C4.7296342,4.95162005 4.77671871,4.9484101 4.82968046,4.9099581 C4.87577679,4.87649061 4.9087908,4.83012734 4.92937715,4.77382762 C4.94604164,4.72553401 4.95387547,4.66813666 4.95353208,4.599437 L5.01335923,4.55592357 C5.01795676,4.63879701 5.00881976,4.7161201 4.98594824,4.78788563 C4.95719454,4.87423595 4.91143296,4.9401693 4.84670194,4.98713239 C4.77510551,5.03907641 4.71003727,5.04327623 4.65182456,5.00124604 C4.59132296,4.95920093 4.54781444,4.8756051 4.52097287,4.75410184 C4.49609533,4.64148905 4.49606939,4.53311096 4.52122115,4.42525566 C4.54669901,4.31367405 4.59474577,4.2320562 4.6663422,4.17972029 Z M4.68434446,4.25617714 C4.63432503,4.29271446 4.59967805,4.34730208 4.58105819,4.42289024 C4.56211099,4.49697381 4.5591872,4.5765625 4.57261416,4.66315063 L4.92176936,4.40876857 C4.87071727,4.22870638 4.79124872,4.17808758 4.68434446,4.25617714 Z" id="certificate" fill="#469800"></path>
                            </g>
                        </g>
                    </g>
                    <g id="waikuang" stroke="#BFC6D3" stroke-dasharray="5" stroke-linecap="square">
                        <path d="M49.9624712,0.867873161 L131.403566,39.1462207 L131.403566,86.7011056 L81.405554,137.006262 L1.39473207,99.9969811 L1.39473207,51.3905019 L49.9624712,0.867873161 Z" id="Line-27"></path>
                        <path d="M130.028319,86.098339 L97.3124807,70.9655155 M54.1888906,51.0185508 L50.0174971,49.0890584" id="Line-27"></path>
                        <path d="M50.1182382,2.60386589 L50.1182382,50.1587508 L0.120226006,100.463907" id="Line-27"></path>
                        <path d="M1.42082808,51.1796748 L80.4208281,88.1796748 L130.569071,37.8107284" id="Line"></path>
                        <path d="M81.5,87.5 L81.5,136.5" id="Line-2"></path>
                    </g>
                </g>
                <g id="数字证书" transform="translate(0.739086, 0.074896)">
                    <g id="Group-32" transform="translate(41.528565, 31.372484)">
                        <g id="Group-24" transform="translate(0.594800, 3.175440)">
                            <polygon id="Path-15" fill="#8AD500" points="8.18919202 54.7081824 18.8787505 60.1123078 23.0839657 65.8935492 8.18919202 58.1741321"></polygon>
                            <polygon id="Path-16" fill="#50AC02" points="12.2562101 38.8916044 12.1705525 47.3726489 12.1705525 57.5052654 12.1705525 67.5089717 16.6279982 62.8811652 23.6328797 55.6085615 44.7631402 33.2728857 44.7631402 23.2575518 44.7631402 12.9313088 44.686278 4.48327253"></polygon>
                            <polygon id="Path-17" fill="#58BF00" transform="translate(24.873392, 19.965411) rotate(-9.000000) translate(-24.873392, -19.965411) " points="2.87983736 31.9389306 9.43247647 36.6862961 46.8669464 7.77625276 40.2138953 3.24452659"></polygon>
                            <polygon id="Path-15" fill="#8AD500" points="5.04198071 35.1805697 12.2320604 38.8898424 12.2158192 67.7859798 5.04198071 63.3836941"></polygon>
                            <polygon id="Path-19" fill="#50AC02" points="18.8787505 60.4219786 23.0274533 65.9454559 25.8309149 53.1606089"></polygon>
                            <path d="M15.8504861,43.7904273 L33.1692745,25.317053" id="Line-36" stroke="#74BF35" stroke-linecap="square"></path>
                            <path d="M15.8504861,50.7179427 L27.396345,38.0174978" id="Line-36" stroke="#74BF35" stroke-linecap="square"></path>
                            <path d="M16.2138718,56.9884021 L24.0323965,48.5674304" id="Line-36" stroke="#74BF35" stroke-linecap="square"></path>
                        </g>
                        <g id="Group-31" transform="translate(31.887932, 0.000000)">
                            <g id="Group-29" transform="translate(0.415917, 0.748639)">
                                <polygon id="Path-16" fill="#469800" points="2.20033127 10.8761837 2.10299086 20.5139514 2.10299086 32.0285477 2.10299086 43.396652 6.26194425 29.8969579 10.4208976 34.9438521 10.4208976 24.2772082 10.4208976 12.5425768 10.3335522 2.94231924 6.19835989 0.154973776"></polygon>
                                <polygon id="Path-5" fill="#71D61A" points="6.15505134 0.239457975 4.18133678 0.239457975 0.099339693 10.8750835 1.25359429 10.8750835 2.19918295 10.8750835"></polygon>
                                <polygon id="Rectangle" fill="#83C901" points="0.0671975075 10.8750835 2.20706747 10.8750835 2.10299086 43.3343225 0.0671975075 43.3343225"></polygon>
                                <polygon id="Path-6" fill="#82C604" points="5.70044594 31.6570609 8.40430504 34.85348 10.4514952 34.85348 6.25377671 29.8823433"></polygon>
                            </g>
                            <g id="Group-30" transform="translate(3.868958, 9.370419)">
                                <path d="M3.15847408,10.7750512 C4.70964847,9.30888404 5.96712376,5.91656027 5.96712376,3.19808402 C5.96712376,0.479607765 4.70964847,-0.535589316 3.15847408,0.930577873 C1.6072997,2.39674506 0.349824413,5.78906884 0.349824413,8.50754509 C0.349824413,11.2260213 1.6072997,12.2412184 3.15847408,10.7750512 Z" id="Oval-2" fill="#74BF35"></path>
                                <path d="M2.75992973,10.5082217 C4.27701328,9.08891762 5.5068525,5.80502277 5.5068525,3.17343724 C5.5068525,0.541851706 4.27701328,-0.440896607 2.75992973,0.978407446 C1.24284618,2.3977115 0.0130069633,5.68160635 0.0130069633,8.31319188 C0.0130069633,10.9447774 1.24284618,11.9275257 2.75992973,10.5082217 Z" id="Oval-2" fill="#95D85E"></path>
                                <path d="M0.668711314,7.10192786 C0.729519242,7.05747819 0.783467936,7.04330751 0.831538168,7.05871619 C0.8796084,7.07414791 0.918204414,7.12347808 0.946345438,7.2074128 L0.887499056,7.25032046 C0.866230856,7.19172527 0.839082958,7.15763984 0.804419918,7.14589358 C0.769756879,7.13415947 0.729867579,7.14477457 0.685732793,7.17701338 C0.632771049,7.21569996 0.596491094,7.27752508 0.578854474,7.36103605 C0.560563181,7.44163583 0.563527736,7.53024616 0.585459257,7.62687415 C0.607063441,7.72205993 0.639123851,7.78780141 0.681313151,7.82267366 C0.72350245,7.85756896 0.773203186,7.85509665 0.829107249,7.81450842 C0.923261461,7.74614931 0.961164508,7.63615917 0.943797163,7.48380422 L1.00166277,7.44170641 C1.01313189,7.54283555 1.00497937,7.63294829 0.97785865,7.70987609 C0.951391366,7.78462099 0.906936656,7.84547659 0.846128728,7.88959343 C0.771589977,7.94367214 0.704232856,7.94885818 0.64601891,7.9037607 C0.591075855,7.86304774 0.551491655,7.78432809 0.525632102,7.67044106 C0.500099884,7.55799564 0.498438497,7.44997871 0.521956049,7.34708564 C0.546125803,7.23694759 0.595153337,7.15569763 0.668711314,7.10192786 Z M1.18754025,6.72267178 C1.26796364,6.6638835 1.33662887,6.65931619 1.39517139,6.71118758 C1.44651869,6.75652269 1.48872034,6.84236546 1.52079557,6.96940914 L1.1088709,7.26932009 C1.13243539,7.35836716 1.16547534,7.41861929 1.2076634,7.4486427 C1.25083224,7.47797584 1.29791676,7.47413699 1.3508785,7.43568499 C1.39697484,7.40221751 1.42998884,7.35630843 1.45057519,7.30084724 C1.46723969,7.25328733 1.47507352,7.19693813 1.47473012,7.129636 L1.53455728,7.08612257 C1.53915481,7.16724909 1.53001781,7.24313971 1.50714628,7.31378722 C1.47839259,7.39880988 1.432631,7.46407941 1.36789998,7.51104249 C1.29630355,7.56298651 1.23123531,7.5680598 1.1730226,7.52774158 C1.11252101,7.48744339 1.06901248,7.40618843 1.04217092,7.2875501 C1.01729337,7.17759263 1.01726743,7.07141565 1.04241919,6.96537714 C1.06789706,6.8556822 1.11594382,6.77500768 1.18754025,6.72267178 Z M1.2055425,6.79731184 C1.15552308,6.83384916 1.1208761,6.88784283 1.10225623,6.9621732 C1.08330903,7.03503393 1.08038524,7.11305039 1.0938122,7.19768198 L1.4429674,6.94329992 C1.39191532,6.76763996 1.31244676,6.71922227 1.2055425,6.79731184 Z M1.73285006,6.32405858 C1.76227325,6.30255067 1.78777458,6.28899296 1.81000873,6.28629797 L1.82997624,6.37507606 C1.80087667,6.38277312 1.77439457,6.39703235 1.74889447,6.41565691 C1.70377891,6.44860806 1.67305626,6.50490404 1.65934273,6.58600262 C1.64431986,6.66126515 1.64629993,6.73595382 1.66332141,6.81151467 L1.75268417,7.20820911 L1.69383779,7.2509111 L1.52460501,6.49996746 L1.5834514,6.45695993 L1.61585767,6.60081615 C1.61911374,6.54429132 1.62923769,6.49289593 1.64655685,6.44808317 C1.66616243,6.39312472 1.69558068,6.35130192 1.73285006,6.32405858 Z M1.9456148,5.90895752 L2.00027994,6.15232319 L2.1326843,6.05555623 L2.14970577,6.13140391 L2.01730141,6.22810172 L2.13186906,6.73814955 C2.13907045,6.7702097 2.14855826,6.79213365 2.1596778,6.80100804 C2.17047001,6.80842653 2.18681829,6.80503073 2.2083953,6.78936207 L2.27214554,6.74306829 L2.28916702,6.81890931 L2.21757059,6.8708634 C2.17833967,6.89933139 2.14629655,6.90394278 2.12307669,6.88690522 C2.10149227,6.87207566 2.08546145,6.83627366 2.07302267,6.7809195 L1.95845503,6.27107853 L1.85057,6.34986934 L1.83354852,6.27417788 L1.94143355,6.19533073 L1.89495182,5.98848096 L1.9456148,5.90895752 Z M2.21989651,5.67574262 C2.23362733,5.66568187 2.24703328,5.66436014 2.26011438,5.6717789 C2.2725408,5.67627854 2.28137269,5.69021373 2.28628274,5.71212272 C2.29086544,5.7325711 2.28890884,5.75440555 2.28237447,5.77618872 C2.27551276,5.79650958 2.26636094,5.81170533 2.25263012,5.82175228 C2.23791852,5.83251687 2.22451257,5.83382939 2.21273958,5.82715091 C2.19965849,5.81973225 2.19082659,5.8058065 2.18624389,5.78537218 C2.18133384,5.76347826 2.18230968,5.74237114 2.18949872,5.72350923 C2.19505231,5.70244463 2.20518491,5.68652198 2.21989651,5.67574262 Z M2.25135783,5.96882436 L2.31020422,5.92581682 L2.47943699,6.68083955 L2.42059061,6.72354154 L2.25135783,5.96882436 Z M2.60468193,5.37506337 L2.69491305,5.30893995 L2.71226186,5.38657984 L2.62693461,5.44906417 C2.60143451,5.46773765 2.58476384,5.49016527 2.57757727,5.51927188 C2.57006336,5.54691182 2.57105278,5.58194859 2.58087287,5.62584783 L2.60051303,5.71364629 L2.91043731,5.48713992 L3.07967009,6.24527926 L3.02082371,6.28798125 L2.86861241,5.60637059 L2.61753451,5.7897383 L2.76974581,6.4701764 L2.71089943,6.51287839 L2.55868813,5.8327151 L2.42334145,5.93156176 L2.40631997,5.85557117 L2.54166665,5.75665383 L2.52169915,5.66742811 C2.50762369,5.60453129 2.50662933,5.54908022 2.52067761,5.49963136 C2.53407121,5.44724604 2.56152792,5.40668761 2.60468193,5.37506337 Z M3.26187522,5.20636436 C3.32268315,5.16191469 3.37663184,5.14813467 3.42470207,5.16432465 C3.4727723,5.18053769 3.51136832,5.23106587 3.53950934,5.31661529 L3.48066296,5.35952295 C3.45939476,5.29978184 3.43224686,5.26486301 3.39758382,5.2525438 C3.36292078,5.24023672 3.32303148,5.25056534 3.2788967,5.28280416 C3.22593495,5.32149073 3.189655,5.38386276 3.17201838,5.46846757 C3.15372709,5.5501091 3.15669164,5.64012579 3.17862316,5.73849871 C3.20022734,5.83540337 3.23228775,5.90252516 3.27447705,5.93841311 C3.31666635,5.97432412 3.36636709,5.97237268 3.42227115,5.93178446 C3.51642536,5.86342534 3.55432841,5.75215906 3.53696107,5.59725183 L3.59482668,5.55515403 C3.60629579,5.657976 3.59814327,5.74939093 3.57102255,5.82720421 C3.54455527,5.90280855 3.50010056,5.9641069 3.43929263,6.00822373 C3.36475388,6.06230244 3.29739676,6.06681134 3.23918281,6.0203596 C3.18423976,5.97839654 3.14465556,5.89801009 3.11879601,5.78206561 C3.09326379,5.66758878 3.0916024,5.55787902 3.11511995,5.45365772 C3.13928971,5.34208727 3.18831724,5.26013413 3.26187522,5.20636436 Z M3.79051188,4.81993898 C3.86112754,4.76832 3.92030867,4.75766015 3.96772917,4.79164978 C4.00795446,4.81890647 4.03870429,4.87540791 4.05834445,4.96404856 L4.16734738,5.45600417 L4.11144332,5.49657106 L4.07903704,5.35036957 C4.06826089,5.40963302 4.04930999,5.46796345 4.02251043,5.52169494 C3.98917403,5.58700908 3.94929461,5.63821154 3.90123673,5.67307807 C3.85219808,5.70865617 3.80773102,5.71867173 3.77012442,5.70318659 C3.72924817,5.68837966 3.70209904,5.64822145 3.68835092,5.58635751 C3.66871075,5.49798045 3.67784652,5.4160352 3.71673899,5.33978765 C3.74909338,5.26998885 3.80433783,5.20575773 3.88083812,5.15001465 L4.00964549,5.0527267 L3.99949807,5.00694736 C3.96741913,4.86222555 3.90234101,4.82568604 3.80426371,4.89732882 C3.76307124,4.92741879 3.73234365,4.96357356 3.71175482,5.00945168 C3.68855102,5.05894218 3.67875441,5.11233791 3.68269232,5.17111684 L3.62351737,5.20743085 C3.61630362,5.12366953 3.62871028,5.0461168 3.661392,4.97771074 C3.6894972,4.91434152 3.73264628,4.86223786 3.79051188,4.81993898 Z M4.02503029,5.1221341 L3.89916524,5.21721836 C3.77101131,5.31225169 3.72100918,5.4205627 3.74785074,5.54139396 C3.75701615,5.58265341 3.77500605,5.6072344 3.80214777,5.61661601 C3.82928949,5.62600499 3.86165871,5.61791049 3.89696654,5.59227689 C3.94796674,5.55525057 3.98915179,5.49450931 4.01856016,5.41145487 C4.04764242,5.33203666 4.05579989,5.2609489 4.04270644,5.20187877 L4.02503029,5.1221341 Z M4.18962351,4.26517301 L4.24428864,4.51230237 L4.376693,4.4155354 L4.39371448,4.49255501 L4.26131012,4.58925283 L4.37587776,5.10718861 C4.38307916,5.13974458 4.39256696,5.16205166 4.40368651,5.17115142 C4.41447872,5.17877275 4.43082699,5.17548963 4.452404,5.15982097 L4.51615425,5.11352719 L4.53317572,5.19054014 L4.46157929,5.24249422 C4.42234837,5.27096222 4.39030526,5.27532569 4.36708539,5.25783739 C4.34550097,5.24260217 4.32947015,5.20616914 4.31703138,5.14995857 L4.20246374,4.63222963 L4.0945787,4.71102045 L4.07755722,4.63415706 L4.18544226,4.55530991 L4.13896053,4.34525988 L4.18962351,4.26517301 Z M4.6663422,4.17972029 C4.74676559,4.12093201 4.81543082,4.11730804 4.87397334,4.17113597 C4.92532064,4.21818306 4.96752229,4.30643657 4.99959753,4.43658977 L4.58767285,4.73650072 C4.61123735,4.8277489 4.64427729,4.88974794 4.68646536,4.92102913 C4.7296342,4.95162005 4.77671871,4.9484101 4.82968046,4.9099581 C4.87577679,4.87649061 4.9087908,4.83012734 4.92937715,4.77382762 C4.94604164,4.72553401 4.95387547,4.66813666 4.95353208,4.599437 L5.01335923,4.55592357 C5.01795676,4.63879701 5.00881976,4.7161201 4.98594824,4.78788563 C4.95719454,4.87423595 4.91143296,4.9401693 4.84670194,4.98713239 C4.77510551,5.03907641 4.71003727,5.04327623 4.65182456,5.00124604 C4.59132296,4.95920093 4.54781444,4.8756051 4.52097287,4.75410184 C4.49609533,4.64148905 4.49606939,4.53311096 4.52122115,4.42525566 C4.54669901,4.31367405 4.59474577,4.2320562 4.6663422,4.17972029 Z M4.68434446,4.25617714 C4.63432503,4.29271446 4.59967805,4.34730208 4.58105819,4.42289024 C4.56211099,4.49697381 4.5591872,4.5765625 4.57261416,4.66315063 L4.92176936,4.40876857 C4.87071727,4.22870638 4.79124872,4.17808758 4.68434446,4.25617714 Z" id="certificate" fill="#469800"></path>
                            </g>
                        </g>
                    </g>
                    <g id="waikuang" stroke="#BFC6D3" stroke-dasharray="5" stroke-linecap="square">
                        <path d="M49.9624712,0.867873161 L131.403566,39.1462207 L131.403566,86.7011056 L81.405554,137.006262 L1.39473207,99.9969811 L1.39473207,51.3905019 L49.9624712,0.867873161 Z" id="Line-27"></path>
                        <path d="M130.028319,86.098339 L97.3124807,70.9655155 M54.1888906,51.0185508 L50.0174971,49.0890584" id="Line-27"></path>
                        <path d="M50.1182382,2.60386589 L50.1182382,50.1587508 L0.120226006,100.463907" id="Line-27"></path>
                        <path d="M1.42082808,51.1796748 L80.4208281,88.1796748 L130.569071,37.8107284" id="Line"></path>
                        <path d="M81.5,87.5 L81.5,136.5" id="Line-2"></path>
                    </g>
                </g>
            </g>
        </g>
    </g>
</svg>