<?xml version="1.0" encoding="utf-8"?>
<!-- Generator: Adobe Illustrator 22.1.0, SVG Export Plug-In . SVG Version: 6.00 Build 0)  -->
<svg version="1.1" id="Layer_1" xmlns="http://www.w3.org/2000/svg" xmlns:xlink="http://www.w3.org/1999/xlink" x="0px" y="0px"
	 viewBox="0 0 395.8 395.8" style="enable-background:new 0 0 395.8 395.8;" xml:space="preserve">
<style type="text/css">
	.st0{fill:#FFFFFF;}
	.st1{fill:#B4E700;}
	.st2{fill:#478E0A;}
</style>
<path class="st0" d="M360.5,141.6l29-0.1v-32.1L197.9,7.4L6.3,109.4v32.8l29-0.1v29.7h12.9l0.1,157.6h-13v30.3h-29v30.3h383.3v-30.3
	h-29v-30.3h-13.1l-0.1-157.6h13.1L360.5,141.6L360.5,141.6z M180.6,171.9V142l34.6-0.1v30h13.1l0.1,157.6h-13.1v30.3h-34.6v-30.3
	h-13.2l-0.1-157.6L180.6,171.9L180.6,171.9z M77.3,329.5l-0.1-157.6h13.1v-29.8l35.2-0.1v29.9h12.7l0.1,157.6h-12.7v30.3H90.3v-30.3
	H77.3z M270.2,359.8v-30.3h-12.8l-0.1-157.6h12.9v-30.1l35.2-0.1v30.1h12.9l0.1,157.6h-12.9v30.3L270.2,359.8L270.2,359.8
	L270.2,359.8z"/>
<polygon class="st1" points="44.5,116.9 197.9,35.3 351.2,116.9 "/>
<g>
	<path class="st2" d="M395.7,353.6h-29v-30.3h-13V178.7h13v-30.3h29v-42.7L197.9,0L0.1,105.8v42h29v30.3h13v144.7h-13v30.3h-29v42.7
		h395.6V353.6z M354.3,335.7v17.9h-42.7v-17.9H354.3z M299.2,353.6h-22.9v-30.3h-13V178.7h13v-30.3h22.9v30.3h13v144.7h-13
		L299.2,353.6L299.2,353.6z M209,353.6h-22.9v-30.3h-13V178.7h13v-30.3H209v30.3h13v144.7h-13V353.6z M119.4,353.6H96.5v-30.3h-13
		V178.7h13v-30.3h22.9v30.3h13v144.7h-13C119.4,323.4,119.4,353.6,119.4,353.6z M131.7,166.3v-17.9h42.7v17.9H131.7z M161.4,323.4
		h-16.7V178.7h16.7V323.4z M173.8,335.1v19.2h-42.7v-18.6L173.8,335.1z M221.3,166.3v-17.9H264v17.9H221.3z M251,323.4h-16.7V178.7
		H251V323.4z M264,335.7v17.9h-42.7v-17.9H264z M324.6,178.7h16.7v144.7h-16.7V178.7z M311.7,166.3v-17.9h42.7v17.9H311.7z
		 M12.4,136v-22.2l185.5-98.9l185.5,98.9V136H12.4z M41.5,166.3v-17.9h42.7v17.9H41.5z M71.2,323.4H54.5V178.7h16.7V323.4z
		 M84.2,335.7v17.9H41.5v-17.9H84.2z M12.4,384.5v-17.9h370.9v17.9H12.4z"/>
	<rect x="150.9" y="82.2" class="st2" width="12.3" height="12.3"/>
	<rect x="191.7" y="82.2" class="st2" width="12.3" height="12.3"/>
	<rect x="232.5" y="82.2" class="st2" width="12.3" height="12.3"/>
</g>
</svg>
