<?xml version="1.0" encoding="iso-8859-1"?>
<!-- Generator: Adobe Illustrator 19.0.0, SVG Export Plug-In . SVG Version: 6.00 Build 0)  -->
<svg version="1.1" id="Layer_1" xmlns="http://www.w3.org/2000/svg" xmlns:xlink="http://www.w3.org/1999/xlink" x="0px" y="0px"
	 viewBox="0 0 395.766 395.766" style="enable-background:new 0 0 395.766 395.766;" xml:space="preserve">
<path style="fill:#FFFFFF;" d="M360.469,141.64l29.026-0.065v-32.129L197.883,7.434L6.271,109.446v32.776l29.026-0.065v29.737
	h12.929l0.065,157.608H35.297v30.319H6.271v30.319H389.56v-30.319h-29.026v-30.319h-13.059l-0.065-157.608h13.123V141.64H360.469z
	 M180.558,171.895v-29.931l34.586-0.065v29.996h13.123l0.065,157.608h-13.123v30.319h-34.586v-30.319h-13.188l-0.065-157.608
	L180.558,171.895L180.558,171.895z M77.317,329.503l-0.065-157.608h13.059v-29.802l35.232-0.065v29.867h12.671l0.065,157.608
	h-12.735v30.319H90.311v-30.319H77.317z M270.222,359.822v-30.319h-12.8l-0.065-157.608h12.865V141.77l35.232-0.065v30.125h12.865
	l0.065,157.608h-12.929v30.319h-35.232V359.822z"/>
<polygon style="fill:#2EA2DB;" points="44.541,116.881 197.883,35.297 351.16,116.881 "/>
<g>
	<path style="fill:#193651;" d="M395.701,353.616h-29.026v-30.319h-12.994V178.683h12.994v-30.319h29.026v-42.667L197.883,0
		L0.065,105.762v42.02h29.026v30.319h12.994V322.78H29.091v30.319H0.065v42.667h395.636V353.616z M354.263,335.709v17.907h-42.667
		v-17.907H354.263z M299.248,353.616h-22.885v-30.319H263.37V178.683h12.994v-30.319h22.885v30.319h12.994v144.679h-12.994V353.616z
		 M209.002,353.616h-22.885v-30.319h-12.994V178.683h12.994v-30.319h22.885v30.319h12.994v144.679h-12.994V353.616z
		 M119.402,353.616H96.517v-30.319H83.523V178.683h12.994v-30.319h22.885v30.319h12.994v144.679h-12.994V353.616z M131.749,166.335
		v-17.907h42.667v17.907H131.749z M161.422,323.362h-16.679V178.683h16.679V323.362z M173.77,335.063v19.2h-42.667v-18.554
		L173.77,335.063z M221.349,166.335v-17.907h42.667v17.907H221.349z M251.022,323.362h-16.679V178.683h16.679V323.362z
		 M264.016,335.709v17.907h-42.667v-17.907H264.016z M324.59,178.683h16.679v144.679H324.59V178.683z M311.661,166.335v-17.907
		h42.667v17.907H311.661z M12.412,136.016v-22.238l185.471-98.909l185.471,98.909v22.238H12.412z M41.503,166.335v-17.907H84.17
		v17.907H41.503z M71.176,323.362H54.497V178.683h16.679V323.362z M84.17,335.709v17.907H41.503v-17.907H84.17z M12.412,384.517
		V366.61h370.941v17.907H12.412z"/>
	<rect x="150.885" y="82.23" style="fill:#193651;" width="12.347" height="12.347"/>
	<rect x="191.677" y="82.23" style="fill:#193651;" width="12.347" height="12.347"/>
	<rect x="232.469" y="82.23" style="fill:#193651;" width="12.347" height="12.347"/>
</g>
<g>
</g>
<g>
</g>
<g>
</g>
<g>
</g>
<g>
</g>
<g>
</g>
<g>
</g>
<g>
</g>
<g>
</g>
<g>
</g>
<g>
</g>
<g>
</g>
<g>
</g>
<g>
</g>
<g>
</g>
</svg>
