<svg width="132" height="137" xmlns="http://www.w3.org/2000/svg"><g fill="none" fill-rule="evenodd"><path fill="#8AD500" d="M50.05 89.33l10.7 5.4 4.2 5.79-14.9-7.72z"/><path fill="#50AC02" d="M54.12 73.51L54.03 82V102.13l4.46-4.63 7-7.27L86.64 67.9V47.55l-.08-8.44z"/><path fill="#58BF00" d="M46.89 69.85l7.21 3.67L86.55 39.1l-7.28-3.44z"/><path fill="#8AD500" d="M46.9 69.8l7.2 3.71-.02 28.9L46.9 98z"/><path fill="#50AC02" d="M60.74 95.04l4.15 5.53 2.8-12.79z"/><path d="M57.71 78.41l17.32-18.47M57.71 85.34l11.55-12.7M58.08 91.61l7.81-8.42" stroke="#74BF35" stroke-linecap="square"/><g><path fill="#469800" d="M75.77 43.07l-.1 9.64v22.88l4.16-13.5L84 67.14v-22.4l-.08-9.6-4.14-2.79z"/><path fill="#71D61A" d="M79.73 32.44h-1.98l-4.08 10.63H75.77z"/><path fill="#83C901" d="M73.64 43.07h2.14l-.1 32.46h-2.04z"/><path fill="#82C604" d="M79.27 63.85l2.7 3.2h2.05l-4.2-4.97z"/><g><path d="M80.18 51.6c1.55-1.47 2.81-4.87 2.81-7.58 0-2.72-1.26-3.74-2.8-2.27-1.56 1.46-2.82 4.86-2.82 7.58 0 2.71 1.26 3.73 2.81 2.26z" fill="#74BF35"/><path d="M79.78 51.33c1.52-1.42 2.75-4.7 2.75-7.34 0-2.63-1.23-3.61-2.75-2.2-1.51 1.43-2.74 4.7-2.74 7.34 0 2.63 1.23 3.62 2.74 2.2z" fill="#95D85E"/><path d="M77.7 47.92c.05-.04.1-.06.16-.04.04.01.08.06.11.15l-.06.04c-.02-.06-.05-.1-.08-.1-.04-.02-.08 0-.12.02a.3.3 0 0 0-.1.19.6.6 0 0 0 0 .26c.02.1.05.17.1.2.04.04.09.03.14 0 .1-.08.14-.19.12-.34l.06-.04c0 .1 0 .2-.03.27a.37.37 0 0 1-.13.18c-.07.05-.14.06-.2.01-.05-.04-.1-.12-.12-.23a.72.72 0 0 1 0-.33.4.4 0 0 1 .14-.24zm.51-.38c.08-.06.15-.06.21-.01.05.04.1.13.13.26l-.42.3c.03.09.06.15.1.18.05.03.1.02.15-.02a.29.29 0 0 0 .1-.13.5.5 0 0 0 .02-.17l.06-.05c0 .09 0 .16-.03.23a.39.39 0 0 1-.14.2c-.07.05-.13.06-.2.02-.05-.04-.1-.13-.12-.24a.7.7 0 0 1 0-.33.4.4 0 0 1 .14-.24zm.02.08a.28.28 0 0 0-.1.16.57.57 0 0 0-.01.24l.35-.26c-.05-.17-.13-.22-.24-.14zm.53-.48a.18.18 0 0 1 .07-.04l.02.1a.24.24 0 0 0-.08.03c-.04.04-.07.1-.09.17a.54.54 0 0 0 0 .23l.1.4-.06.04-.17-.75.06-.05.03.15c0-.06.01-.1.03-.15.02-.06.05-.1.09-.13zm.21-.41l.05.24.14-.1.01.08-.13.1.12.5c0 .04.01.06.02.07l.05-.01.07-.05.01.08-.07.05c-.04.03-.07.03-.1.01l-.04-.1-.12-.51-.1.08-.02-.08.1-.08-.04-.2.05-.08zm.27-.24h.04c.02 0 .03.02.03.04v.06l-.03.05h-.04c-.02 0-.02-.02-.03-.04a.1.1 0 0 1 0-.06l.03-.05zm.04.3l.05-.05.17.76-.05.04-.17-.75zm.35-.6l.09-.06.02.07-.09.07a.12.12 0 0 0-.05.07v.1l.03.1.3-.24.17.76-.05.05-.16-.69-.25.19.15.68-.05.04-.16-.68-.13.1-.02-.08.14-.1-.02-.08a.34.34 0 0 1 0-.17c0-.05.04-.1.08-.13zm.66-.17c.06-.04.11-.05.16-.04.05.02.09.07.11.15l-.05.05c-.03-.06-.05-.1-.09-.11-.03-.01-.07 0-.12.03a.3.3 0 0 0-.1.19.62.62 0 0 0 0 .27c.02.1.06.16.1.2.04.03.1.03.15-.01.1-.07.13-.18.11-.33l.06-.05c.01.1 0 .2-.02.28a.37.37 0 0 1-.14.18c-.07.05-.14.05-.2 0-.05-.03-.1-.11-.12-.23a.74.74 0 0 1 0-.33.4.4 0 0 1 .15-.25zm.53-.38c.07-.05.12-.06.17-.03.04.03.07.08.1.17l.1.5-.05.03-.04-.14a.64.64 0 0 1-.05.17.42.42 0 0 1-.12.15c-.05.04-.1.05-.14.03-.04-.01-.06-.05-.08-.12a.36.36 0 0 1 .03-.24.5.5 0 0 1 .17-.2l.12-.09v-.05c-.04-.14-.1-.18-.2-.1a.28.28 0 0 0-.1.1.32.32 0 0 0-.02.17l-.06.04c0-.09 0-.17.04-.23a.39.39 0 0 1 .13-.16zm.23.3l-.13.1c-.12.09-.17.2-.15.32.01.04.03.07.06.07.02.01.06 0 .1-.02.04-.04.08-.1.11-.18a.38.38 0 0 0 .03-.21l-.02-.08zm.16-.86l.06.25.13-.1.02.08-.13.1.11.51c0 .04.02.06.03.07l.05-.01.06-.05.02.08-.07.05c-.04.03-.08.03-.1.02-.02-.02-.04-.06-.05-.11l-.11-.52-.11.08-.02-.08.11-.08-.05-.2.05-.09zm.48-.08c.08-.06.15-.06.2-.01.06.05.1.13.13.26l-.4.3c.02.1.05.16.1.19.03.03.08.03.13-.01a.28.28 0 0 0 .1-.14c.02-.05.03-.1.03-.17l.06-.05c0 .09 0 .16-.03.24a.39.39 0 0 1-.14.2c-.07.05-.14.05-.2 0-.05-.03-.1-.12-.12-.24a.73.73 0 0 1 0-.33.4.4 0 0 1 .14-.24zm.02.07a.28.28 0 0 0-.1.17.6.6 0 0 0-.01.24l.35-.25c-.05-.18-.13-.23-.24-.16z" fill="#469800"/></g></g><g stroke="#BFC6D3" stroke-dasharray="5" stroke-linecap="square"><path d="M49.7.94l81.44 38.28v47.56l-50 50.3-80-37V51.46L49.7.94zM129.77 86.17L97.05 71.04M53.93 51.09l-4.17-1.93"/><path d="M49.86 2.68v47.55l-50 50.3"/><path d="M1.16 51.25l79 37 50.15-50.36M81.24 87.57v49"/></g><g><path fill="#8AD500" d="M50.05 89.33l10.7 5.4 4.2 5.79-14.9-7.72z"/><path fill="#50AC02" d="M54.12 73.51L54.03 82V102.13l4.46-4.63 7-7.27L86.64 67.9V47.55l-.08-8.44z"/><path fill="#58BF00" d="M46.89 69.85l7.21 3.67L86.55 39.1l-7.28-3.44z"/><path fill="#8AD500" d="M46.9 69.8l7.2 3.71-.02 28.9L46.9 98z"/><path fill="#50AC02" d="M60.74 95.04l4.15 5.53 2.8-12.79z"/><path d="M57.71 78.41l17.32-18.47M57.71 85.34l11.55-12.7M58.08 91.61l7.81-8.42" stroke="#74BF35" stroke-linecap="square"/><g><path fill="#469800" d="M75.77 43.07l-.1 9.64v22.88l4.16-13.5L84 67.14v-22.4l-.08-9.6-4.14-2.79z"/><path fill="#71D61A" d="M79.73 32.44h-1.98l-4.08 10.63H75.77z"/><path fill="#83C901" d="M73.64 43.07h2.14l-.1 32.46h-2.04z"/><path fill="#82C604" d="M79.27 63.85l2.7 3.2h2.05l-4.2-4.97z"/><g><path d="M80.18 51.6c1.55-1.47 2.81-4.87 2.81-7.58 0-2.72-1.26-3.74-2.8-2.27-1.56 1.46-2.82 4.86-2.82 7.58 0 2.71 1.26 3.73 2.81 2.26z" fill="#74BF35"/><path d="M79.78 51.33c1.52-1.42 2.75-4.7 2.75-7.34 0-2.63-1.23-3.61-2.75-2.2-1.51 1.43-2.74 4.7-2.74 7.34 0 2.63 1.23 3.62 2.74 2.2z" fill="#95D85E"/><path d="M77.7 47.92c.05-.04.1-.06.16-.04.04.01.08.06.11.15l-.06.04c-.02-.06-.05-.1-.08-.1-.04-.02-.08 0-.12.02a.3.3 0 0 0-.1.19.6.6 0 0 0 0 .26c.02.1.05.17.1.2.04.04.09.03.14 0 .1-.08.14-.19.12-.34l.06-.04c0 .1 0 .2-.03.27a.37.37 0 0 1-.13.18c-.07.05-.14.06-.2.01-.05-.04-.1-.12-.12-.23a.72.72 0 0 1 0-.33.4.4 0 0 1 .14-.24zm.51-.38c.08-.06.15-.06.21-.01.05.04.1.13.13.26l-.42.3c.03.09.06.15.1.18.05.03.1.02.15-.02a.29.29 0 0 0 .1-.13.5.5 0 0 0 .02-.17l.06-.05c0 .09 0 .16-.03.23a.39.39 0 0 1-.14.2c-.07.05-.13.06-.2.02-.05-.04-.1-.13-.12-.24a.7.7 0 0 1 0-.33.4.4 0 0 1 .14-.24zm.02.08a.28.28 0 0 0-.1.16.57.57 0 0 0-.01.24l.35-.26c-.05-.17-.13-.22-.24-.14zm.53-.48a.18.18 0 0 1 .07-.04l.02.1a.24.24 0 0 0-.08.03c-.04.04-.07.1-.09.17a.54.54 0 0 0 0 .23l.1.4-.06.04-.17-.75.06-.05.03.15c0-.06.01-.1.03-.15.02-.06.05-.1.09-.13zm.21-.41l.05.24.14-.1.01.08-.13.1.12.5c0 .04.01.06.02.07l.05-.01.07-.05.01.08-.07.05c-.04.03-.07.03-.1.01l-.04-.1-.12-.51-.1.08-.02-.08.1-.08-.04-.2.05-.08zm.27-.24h.04c.02 0 .03.02.03.04v.06l-.03.05h-.04c-.02 0-.02-.02-.03-.04a.1.1 0 0 1 0-.06l.03-.05zm.04.3l.05-.05.17.76-.05.04-.17-.75zm.35-.6l.09-.06.02.07-.09.07a.12.12 0 0 0-.05.07v.1l.03.1.3-.24.17.76-.05.05-.16-.69-.25.19.15.68-.05.04-.16-.68-.13.1-.02-.08.14-.1-.02-.08a.34.34 0 0 1 0-.17c0-.05.04-.1.08-.13zm.66-.17c.06-.04.11-.05.16-.04.05.02.09.07.11.15l-.05.05c-.03-.06-.05-.1-.09-.11-.03-.01-.07 0-.12.03a.3.3 0 0 0-.1.19.62.62 0 0 0 0 .27c.02.1.06.16.1.2.04.03.1.03.15-.01.1-.07.13-.18.11-.33l.06-.05c.01.1 0 .2-.02.28a.37.37 0 0 1-.14.18c-.07.05-.14.05-.2 0-.05-.03-.1-.11-.12-.23a.74.74 0 0 1 0-.33.4.4 0 0 1 .15-.25zm.53-.38c.07-.05.12-.06.17-.03.04.03.07.08.1.17l.1.5-.05.03-.04-.14a.64.64 0 0 1-.05.17.42.42 0 0 1-.12.15c-.05.04-.1.05-.14.03-.04-.01-.06-.05-.08-.12a.36.36 0 0 1 .03-.24.5.5 0 0 1 .17-.2l.12-.09v-.05c-.04-.14-.1-.18-.2-.1a.28.28 0 0 0-.1.1.32.32 0 0 0-.02.17l-.06.04c0-.09 0-.17.04-.23a.39.39 0 0 1 .13-.16zm.23.3l-.13.1c-.12.09-.17.2-.15.32.01.04.03.07.06.07.02.01.06 0 .1-.02.04-.04.08-.1.11-.18a.38.38 0 0 0 .03-.21l-.02-.08zm.16-.86l.06.25.13-.1.02.08-.13.1.11.51c0 .04.02.06.03.07l.05-.01.06-.05.02.08-.07.05c-.04.03-.08.03-.1.02-.02-.02-.04-.06-.05-.11l-.11-.52-.11.08-.02-.08.11-.08-.05-.2.05-.09zm.48-.08c.08-.06.15-.06.2-.01.06.05.1.13.13.26l-.4.3c.02.1.05.16.1.19.03.03.08.03.13-.01a.28.28 0 0 0 .1-.14c.02-.05.03-.1.03-.17l.06-.05c0 .09 0 .16-.03.24a.39.39 0 0 1-.14.2c-.07.05-.14.05-.2 0-.05-.03-.1-.12-.12-.24a.73.73 0 0 1 0-.33.4.4 0 0 1 .14-.24zm.02.07a.28.28 0 0 0-.1.17.6.6 0 0 0-.01.24l.35-.25c-.05-.18-.13-.23-.24-.16z" fill="#469800"/></g></g><g stroke="#BFC6D3" stroke-dasharray="5" stroke-linecap="square"><path d="M49.7.94l81.44 38.28v47.56l-50 50.3-80-37V51.46L49.7.94zM129.77 86.17L97.05 71.04M53.93 51.09l-4.17-1.93"/><path d="M49.86 2.68v47.55l-50 50.3"/><path d="M1.16 51.25l79 37 50.15-50.36M81.24 87.57v49"/></g></g></g></svg>