<?xml version="1.0" encoding="UTF-8"?>
<svg width="689px" height="633px" viewBox="0 0 689 633" version="1.1" xmlns="http://www.w3.org/2000/svg" xmlns:xlink="http://www.w3.org/1999/xlink">
    <!-- Generator: Sketch 50.2 (55047) - http://www.bohemiancoding.com/sketch -->
    <title>Group 34</title>
    <desc>Created with Sketch.</desc>
    <defs>
        <polygon id="path-1" points="5.09409676 45.8795776 0.294694204 55.7678727 37.1924909 77.8495679 78.4228675 61.2000645 81.5827246 51.225521 46.5931395 29.2300741"></polygon>
        <filter x="-15.4%" y="-15.4%" width="125.8%" height="143.2%" filterUnits="objectBoundingBox" id="filter-2">
            <feOffset dx="-2" dy="3" in="SourceAlpha" result="shadowOffsetOuter1"></feOffset>
            <feGaussianBlur stdDeviation="3" in="shadowOffsetOuter1" result="shadowBlurOuter1"></feGaussianBlur>
            <feColorMatrix values="0 0 0 0 0.842026753   0 0 0 0 0.933620323   0 0 0 0 0.740957985  0 0 0 0.643823596 0" type="matrix" in="shadowBlurOuter1"></feColorMatrix>
        </filter>
        <filter x="-19.1%" y="-31.3%" width="138.2%" height="162.7%" filterUnits="objectBoundingBox" id="filter-3">
            <feGaussianBlur stdDeviation="3" in="SourceGraphic"></feGaussianBlur>
        </filter>
        <polygon id="path-4" points="5.23263747 47.1273334 0.302708803 57.2845538 38.2039899 79.96679 80.5556812 62.8644812 83.8014748 52.6186668 47.8603016 30.0250247"></polygon>
        <filter x="-15.0%" y="-15.0%" width="125.2%" height="142.0%" filterUnits="objectBoundingBox" id="filter-5">
            <feOffset dx="-2" dy="3" in="SourceAlpha" result="shadowOffsetOuter1"></feOffset>
            <feGaussianBlur stdDeviation="3" in="shadowOffsetOuter1" result="shadowBlurOuter1"></feGaussianBlur>
            <feColorMatrix values="0 0 0 0 0.842026753   0 0 0 0 0.933620323   0 0 0 0 0.740957985  0 0 0 0.643823596 0" type="matrix" in="shadowBlurOuter1"></feColorMatrix>
        </filter>
        <filter x="-18.6%" y="-30.5%" width="137.2%" height="161.0%" filterUnits="objectBoundingBox" id="filter-6">
            <feGaussianBlur stdDeviation="3" in="SourceGraphic"></feGaussianBlur>
        </filter>
        <polygon id="path-7" points="2.89860028 26.106013 0.167684428 31.7325679 21.1629597 44.2973092 44.6235233 34.8235482 46.4215188 29.147917 26.5120381 16.632252"></polygon>
        <filter x="-27.0%" y="-27.1%" width="145.4%" height="175.9%" filterUnits="objectBoundingBox" id="filter-8">
            <feOffset dx="-2" dy="3" in="SourceAlpha" result="shadowOffsetOuter1"></feOffset>
            <feGaussianBlur stdDeviation="3" in="shadowOffsetOuter1" result="shadowBlurOuter1"></feGaussianBlur>
            <feColorMatrix values="0 0 0 0 0.842026753   0 0 0 0 0.933620323   0 0 0 0 0.740957985  0 0 0 0.643823596 0" type="matrix" in="shadowBlurOuter1"></feColorMatrix>
        </filter>
        <filter x="-33.6%" y="-55.1%" width="167.1%" height="210.1%" filterUnits="objectBoundingBox" id="filter-9">
            <feGaussianBlur stdDeviation="3" in="SourceGraphic"></feGaussianBlur>
        </filter>
        <polygon id="path-10" points="3.86850961 12.9439829 0.223793818 20.4532561 28.2443611 37.2223232 59.5551342 24.5785186 61.9547623 17.0037474 35.3833106 0.30017828"></polygon>
        <filter x="-20.2%" y="-20.3%" width="134.0%" height="156.9%" filterUnits="objectBoundingBox" id="filter-11">
            <feOffset dx="-2" dy="3" in="SourceAlpha" result="shadowOffsetOuter1"></feOffset>
            <feGaussianBlur stdDeviation="3" in="shadowOffsetOuter1" result="shadowBlurOuter1"></feGaussianBlur>
            <feColorMatrix values="0 0 0 0 0.842026753   0 0 0 0 0.933620323   0 0 0 0 0.740957985  0 0 0 0.643823596 0" type="matrix" in="shadowBlurOuter1"></feColorMatrix>
        </filter>
        <filter x="-25.2%" y="-41.3%" width="150.3%" height="182.5%" filterUnits="objectBoundingBox" id="filter-12">
            <feGaussianBlur stdDeviation="3" in="SourceGraphic"></feGaussianBlur>
        </filter>
        <polygon id="path-13" points="6.4725932 21.5864683 0.374440414 34.1506018 47.2570261 62.2077505 99.6446165 41.0527808 103.659552 28.3790595 59.2015527 0.431498607"></polygon>
        <filter x="-12.1%" y="-12.1%" width="120.3%" height="134.0%" filterUnits="objectBoundingBox" id="filter-14">
            <feOffset dx="-2" dy="3" in="SourceAlpha" result="shadowOffsetOuter1"></feOffset>
            <feGaussianBlur stdDeviation="3" in="shadowOffsetOuter1" result="shadowBlurOuter1"></feGaussianBlur>
            <feColorMatrix values="0 0 0 0 0.842026753   0 0 0 0 0.933620323   0 0 0 0 0.740957985  0 0 0 0.643823596 0" type="matrix" in="shadowBlurOuter1"></feColorMatrix>
        </filter>
        <filter x="-15.0%" y="-24.7%" width="130.1%" height="149.3%" filterUnits="objectBoundingBox" id="filter-15">
            <feGaussianBlur stdDeviation="3" in="SourceGraphic"></feGaussianBlur>
        </filter>
        <polygon id="path-16" points="9.73499457 33.2445248 0.173244941 52.9447689 73.6839558 96.9376698 155.826375 63.7672113 162.121693 43.8951363 92.412672 0.0740662863"></polygon>
        <filter x="-7.7%" y="-7.7%" width="113.0%" height="121.7%" filterUnits="objectBoundingBox" id="filter-17">
            <feOffset dx="-2" dy="3" in="SourceAlpha" result="shadowOffsetOuter1"></feOffset>
            <feGaussianBlur stdDeviation="3" in="shadowOffsetOuter1" result="shadowBlurOuter1"></feGaussianBlur>
            <feColorMatrix values="0 0 0 0 0.842026753   0 0 0 0 0.933620323   0 0 0 0 0.740957985  0 0 0 0.643823596 0" type="matrix" in="shadowBlurOuter1"></feColorMatrix>
        </filter>
        <polygon id="path-18" points="3.65704032 32.9368429 0.21156029 40.0356271 26.7004034 55.8880252 56.2995957 43.9353851 58.5680498 36.7746833 33.4491074 20.9842028"></polygon>
        <filter x="-21.4%" y="-21.5%" width="136.0%" height="160.2%" filterUnits="objectBoundingBox" id="filter-19">
            <feOffset dx="-2" dy="3" in="SourceAlpha" result="shadowOffsetOuter1"></feOffset>
            <feGaussianBlur stdDeviation="3" in="shadowOffsetOuter1" result="shadowBlurOuter1"></feGaussianBlur>
            <feColorMatrix values="0 0 0 0 0.842026753   0 0 0 0 0.933620323   0 0 0 0 0.740957985  0 0 0 0.643823596 0" type="matrix" in="shadowBlurOuter1"></feColorMatrix>
        </filter>
        <filter x="-26.6%" y="-43.6%" width="153.2%" height="187.3%" filterUnits="objectBoundingBox" id="filter-20">
            <feGaussianBlur stdDeviation="3" in="SourceGraphic"></feGaussianBlur>
        </filter>
        <polygon id="path-21" points="2.5253542 19.4020348 0.146092091 24.3040712 20.7465122 35.8021377 66.7560412 16.4389797 68.3225129 11.4941865 48.6680721 0.038876832"></polygon>
        <filter x="-18.3%" y="-21.0%" width="130.8%" height="158.7%" filterUnits="objectBoundingBox" id="filter-22">
            <feOffset dx="-2" dy="3" in="SourceAlpha" result="shadowOffsetOuter1"></feOffset>
            <feGaussianBlur stdDeviation="3" in="shadowOffsetOuter1" result="shadowBlurOuter1"></feGaussianBlur>
            <feColorMatrix values="0 0 0 0 0.842026753   0 0 0 0 0.933620323   0 0 0 0 0.740957985  0 0 0 0.643823596 0" type="matrix" in="shadowBlurOuter1"></feColorMatrix>
        </filter>
        <filter x="-19.4%" y="-36.3%" width="138.8%" height="172.6%" filterUnits="objectBoundingBox" id="filter-23">
            <feGaussianBlur stdDeviation="3" in="SourceGraphic"></feGaussianBlur>
        </filter>
    </defs>
    <g id="Page-1" stroke="none" stroke-width="1" fill="none" fill-rule="evenodd">
        <g id="Artboard" transform="translate(-1.000000, -80.000000)">
            <g id="Group-34" transform="translate(0.000000, 25.367555)">
                <g id="33" transform="translate(30.368204, 0.317176)" stroke="#BFC6D3" stroke-dasharray="15">
                    <path d="M17.6012594,673.555301 L329.937964,469.999018" id="Stroke-101" transform="translate(174.059100, 572.050143) scale(1, -1) rotate(8.000000) translate(-174.059100, -572.050143) "></path>
                    <path d="M237.164064,194.709405 L479.536729,36.773713" id="Stroke-101" transform="translate(358.358822, 116.077597) scale(1, -1) rotate(8.000000) translate(-358.358822, -116.077597) "></path>
                    <path d="M11.0885666,294.907638 L247.951153,139.461418" id="Stroke-101" transform="translate(129.718012, 217.209609) scale(1, -1) rotate(8.000000) translate(-129.718012, -217.209609) "></path>
                    <path d="M44.8190382,179.35913 L95.2018781,537.851664" id="Stroke-101" transform="translate(70.010458, 358.605397) scale(-1, -1) rotate(8.000000) translate(-70.010458, -358.605397) "></path>
                    <path d="M459.818446,95.4434125 L524.243139,551.287812" id="Stroke-101" transform="translate(492.222359, 323.223864) scale(-1, -1) rotate(8.000000) translate(-492.222359, -323.223864) "></path>
                    <path d="M216.97178,276.40424 L276.3387,685.001527" id="Stroke-101" transform="translate(246.914006, 480.704071) scale(-1, -1) rotate(8.000000) translate(-246.914006, -480.704071) "></path>
                    <path d="M201.973185,655.401837 L609.758043,447.953501" id="Stroke-101" transform="translate(405.847604, 551.631574) scale(-1, -1) rotate(8.000000) translate(-405.847604, -551.631574) "></path>
                    <path d="M20.8496723,242.124227 L426.816409,28.6389836" id="Stroke-101" transform="translate(223.382499, 135.176225) scale(-1, -1) rotate(8.000000) translate(-223.382499, -135.176225) "></path>
                    <path d="M259.938364,299.650433 L645.750975,93.3652492" id="Stroke-101" transform="translate(452.783631, 196.661979) scale(-1, -1) rotate(8.000000) translate(-452.783631, -196.661979) "></path>
                </g>
                <g id="11" transform="translate(0.146555, 62.000000)">
                    <g id="Group-2" transform="translate(0.000000, 0.862693)" stroke="#B1BAC9" stroke-dasharray="15">
                        <g id="Group-13" transform="translate(0.168580, 34.494213)">
                            <path d="M10.7277299,172.342316 L250.494251,17.1376082" id="Stroke-101" opacity="0.261439732" transform="translate(130.840728, 94.655944) scale(1, -1) rotate(8.000000) translate(-130.840728, -94.655944) "></path>
                            <path d="M12.8889219,476.016184 L368.513239,298.6221" id="Stroke-101" opacity="0.176953125" transform="translate(190.529324, 387.411790) scale(-1, -1) rotate(8.000000) translate(-190.529324, -387.411790) "></path>
                            <path d="M120.317844,89.3085934 L246.421332,22.1576839" id="Stroke-101" opacity="0.153180804" transform="translate(183.357433, 55.902816) rotate(8.000000) translate(-183.357433, -55.902816) "></path>
                        </g>
                        <path d="M186.250843,586.140399 L388.125953,484.74083" id="Stroke-101" opacity="0.261439732" transform="translate(287.118345, 535.208248) scale(-1, -1) rotate(8.000000) translate(-287.118345, -535.208248) "></path>
                        <path d="M434.903688,181.627054 L733.739142,20.9249852" id="Stroke-101" opacity="0.261439732" transform="translate(584.191494, 101.463257) scale(-1, -1) rotate(8.000000) translate(-584.191494, -101.463257) "></path>
                        <path d="M395.00674,187.247711 L521.110228,120.096802" id="Stroke-101" opacity="0.153180804" transform="translate(458.046329, 153.841934) scale(-1, -1) rotate(8.000000) translate(-458.046329, -153.841934) "></path>
                    </g>
                    <g id="Group" transform="translate(43.620449, 12.652746)">
                        <g id="Group-3" transform="translate(185.516480, 0.417796)">
                            <g id="Group-4" transform="translate(0.254747, 0.684313)">
                                <g id="Group-21" transform="translate(9.427858, 463.119882)">
                                    <g id="Path-14">
                                        <use fill="black" fill-opacity="1" filter="url(#filter-2)" xlink:href="#path-1"></use>
                                        <use fill="#FFFFFF" fill-rule="evenodd" xlink:href="#path-1"></use>
                                    </g>
                                    <polygon id="Path-14" fill="#D3D9CE" opacity="0.669698661" filter="url(#filter-3)" points="19.2813525 47.897491 19.2813525 54.9388729 38.9204833 65.4660211 66.3995251 54.9388729 66.3995251 50.8552055 43.9494289 36.7424375"></polygon>
                                    <g id="Group-19" transform="translate(18.719963, 0.031604)">
                                        <polygon id="Path-15" fill="#8AD500" points="0 10.727553 18.9126315 19.7815734 18.9126315 57.6519759 0 48.5575675"></polygon>
                                        <polygon id="Path-16" fill="#50AC02" points="19.5449533 19.6400047 19.5449533 57.5605091 47.7551206 47.7739628 47.7551206 9.38762452"></polygon>
                                        <polygon id="Path-17" fill="#58BF00" points="0.654539966 10.2383891 19.3295945 19.2624028 47.3776396 8.74675187 28.8896861 0.0849142503"></polygon>
                                    </g>
                                </g>
                                <g id="Group-21" transform="translate(0.867755, 135.034952)">
                                    <g id="Path-14">
                                        <use fill="black" fill-opacity="1" filter="url(#filter-5)" xlink:href="#path-4"></use>
                                        <use fill="#FFFFFF" fill-rule="evenodd" xlink:href="#path-4"></use>
                                    </g>
                                    <polygon id="Path-14" fill="#D3D9CE" opacity="0.669698661" filter="url(#filter-6)" points="19.8057344 49.2001267 19.8057344 56.4330083 39.9789774 67.2464563 68.2053481 56.4330083 68.2053481 52.2382801 45.1446918 37.7416967"></polygon>
                                    <g id="Group-19" transform="translate(19.229078, 0.032463)">
                                        <polygon id="Path-15" fill="#8AD500" points="0 11.019303 19.4269855 20.3195595 19.4269855 59.2198977 0 49.8781548"></polygon>
                                        <polygon id="Path-16" fill="#50AC02" points="20.0765042 20.1741406 20.0765042 59.1259434 49.0538843 49.0732389 49.0538843 9.6429334"></polygon>
                                        <polygon id="Path-17" fill="#58BF00" points="0.672341047 10.5168356 19.8552884 19.7862693 48.6661372 8.98463136 29.6753794 0.0872236058"></polygon>
                                    </g>
                                </g>
                                <g id="Group-21" transform="translate(96.927804, 0.203307)">
                                    <g id="Path-14">
                                        <use fill="black" fill-opacity="1" filter="url(#filter-8)" xlink:href="#path-7"></use>
                                        <use fill="#FFFFFF" fill-rule="evenodd" xlink:href="#path-7"></use>
                                    </g>
                                    <polygon id="Path-14" fill="#D3D9CE" opacity="0.669698661" filter="url(#filter-9)" points="10.9713137 27.2542293 10.9713137 31.2608574 22.1462075 37.2509271 37.7821018 31.2608574 37.7821018 28.9372031 25.007736 20.9068741"></polygon>
                                    <g id="Group-19" transform="translate(10.651877, 0.017983)">
                                        <polygon id="Path-15" fill="#8AD500" points="0 6.10410239 10.7615072 11.2559453 10.7615072 32.8046445 0 27.6298204"></polygon>
                                        <polygon id="Path-16" fill="#50AC02" points="11.1213057 11.175391 11.1213057 32.7525989 27.1732188 27.1839402 27.1732188 5.34166749"></polygon>
                                        <polygon id="Path-17" fill="#58BF00" points="0.37244085 5.82576243 10.998764 10.9605311 26.9584277 4.9770035 16.4385673 0.0483171956"></polygon>
                                    </g>
                                </g>
                            </g>
                        </g>
                        <g id="Group-21" transform="translate(29.904316, 88.689824)">
                            <g id="Path-14">
                                <use fill="black" fill-opacity="1" filter="url(#filter-11)" xlink:href="#path-10"></use>
                                <use fill="#FFFFFF" fill-rule="evenodd" xlink:href="#path-10"></use>
                            </g>
                            <polygon id="Path-14" fill="#D3D9CE" opacity="0.669698661" filter="url(#filter-12)" points="14.6424579 14.4764072 14.6424579 19.8237052 29.5566163 27.8181301 50.4244841 19.8237052 50.4244841 16.722526 33.3756495 6.00514446"></polygon>
                        </g>
                        <g id="Group-21" transform="translate(0.974623, 408.502972)">
                            <g id="Path-14">
                                <use fill="black" fill-opacity="1" filter="url(#filter-14)" xlink:href="#path-13"></use>
                                <use fill="#FFFFFF" fill-rule="evenodd" xlink:href="#path-13"></use>
                            </g>
                            <polygon id="Path-14" fill="#D3D9CE" opacity="0.669698661" filter="url(#filter-15)" points="24.4990146 24.1504426 24.4990146 33.0972692 49.4526247 46.4731337 84.3676778 33.0972692 84.3676778 27.9085342 55.8424364 9.97675737"></polygon>
                        </g>
                        <g id="Group-12" transform="translate(18.551878, 369.973429)">
                            <g id="dizuo-" transform="translate(7.808746, 49.053743)">
                                <polygon id="Path-26" fill="#8AD500" points="0.79766425 14.0150848 21.7787226 24.2599123 21.7787226 24.9342825 0.79766425 14.6140984"></polygon>
                                <polygon id="Path-27" fill="#64D10E" points="0.63237176 13.6848934 21.8021631 24.048382 22.3603821 23.3873276 1.58072379 12.8766794"></polygon>
                                <polygon id="Path-28" fill="#58BF00" points="1.66994709 12.63251 22.4811226 23.1582497 52.6538056 10.5628069 31.484557 0.813615889"></polygon>
                                <polygon id="Path-39" fill="#4CA005" points="22.5060809 23.4378679 21.9317226 24.1712295 21.9317226 24.8807406 52.744063 11.6732888 52.744063 10.7508055"></polygon>
                            </g>
                            <g id="zhizhu" transform="translate(24.938377, 51.595833)">
                                <polygon id="Path-26" fill="#8AD500" points="0.408135764 6.11559838 6.61855306 9.07809526 6.61855306 13.4146305 0.408135764 9.65518062"></polygon>
                                <polygon id="Path-27" fill="#64D10E" points="0.693883944 5.98775012 6.57058136 8.72188554 7.83363922 7.00991264 2.27787156 4.10671914"></polygon>
                                <polygon id="Path-28" fill="#58BF00" points="2.45167483 3.94741745 7.95910232 6.67213112 18.6447985 2.41423798 13.6510724 0.39708834"></polygon>
                                <polygon id="Path-31" fill="#489804" points="8.14502667 7.04969096 6.90399049 8.83500563 6.90399049 13.4159495 18.7727322 7.98806272 18.7727322 2.73747519"></polygon>
                            </g>
                            <g id="pingmu" transform="translate(0.200502, 0.281566)">
                                <g id="Group-10">
                                    <g id="Group-9">
                                        <polygon id="Path-26" fill="#8AD500" points="0.609264004 24.8783998 9.92912979 29.5714542 9.92912979 67.5969142 0.609264004 62.1069069"></polygon>
                                        <polygon id="Path-27" fill="#64D10E" points="0.810721388 24.6409284 9.60454757 28.8936862 12.5641162 23.3915822 4.0912198 18.9697663"></polygon>
                                        <polygon id="Path-28" fill="#58BF00" points="4.3318124 18.7222073 12.6206165 22.9801005 65.1619466 3.68981958 57.386844 0.139490474"></polygon>
                                        <polygon id="Path-29" fill="#50AC02" points="13.3102792 23.3154611 10.3753778 28.6699717 10.3753778 67.741096 65.3296513 46.8984445 65.3296513 4.01608237"></polygon>
                                    </g>
                                    <g id="Group-5" transform="translate(5.345231, 55.971939) rotate(3.000000) translate(-5.345231, -55.971939) translate(2.345231, 50.971939)">
                                        <polygon id="Path-30" fill="#98E41C" points="0.282128561 0.254869576 3.94153191 2.0857186 3.94153191 8.108671 0.282128561 6.37256063"></polygon>
                                        <polygon id="Path-32" fill="#79B40C" points="4.01135151 2.12305767 5.10174219 3.67849936 5.10174219 9.50485054 4.01135151 8.13872445"></polygon>
                                        <polygon id="Path-33" fill="#478E0A" points="0.266297767 6.45359615 3.90727074 8.16257624 5.04627362 9.54217051 1.13831633 7.74464637"></polygon>
                                    </g>
                                    <g id="Group-7" transform="translate(58.235121, 45.789017)">
                                        <g id="Group-6" transform="translate(3.821814, 0.073046)">
                                            <polygon id="Path-28" fill="#AAD905" points="1.00594319 0.738373428 0.713356999 1.54471414 2.01665669 1.05478626 2.32942091 0.237885474"></polygon>
                                            <polygon id="Path-34" fill="#C9FA1D" points="0.957888533 0.75778714 0.41692732 0.545766766 0.127808584 1.29470033 0.675570035 1.51088462"></polygon>
                                            <polygon id="Path-35" fill="#B4E700" points="0.437979972 0.496453268 0.982361939 0.702143762 2.32768006 0.205763323 1.81886281 0.0202530382"></polygon>
                                        </g>
                                        <g id="Group-6" transform="translate(2.072164, 0.701693)">
                                            <polygon id="Path-28" fill="#AAD905" points="1.00594319 0.738373428 0.713356999 1.54471414 2.01665669 1.05478626 2.32942091 0.237885474"></polygon>
                                            <polygon id="Path-34" fill="#C9FA1D" points="0.957888533 0.75778714 0.41692732 0.545766766 0.127808584 1.29470033 0.675570035 1.51088462"></polygon>
                                            <polygon id="Path-35" fill="#B4E700" points="0.437979972 0.496453268 0.982361939 0.702143762 2.32768006 0.205763323 1.81886281 0.0202530382"></polygon>
                                        </g>
                                        <g id="Group-6" transform="translate(0.189494, 1.441117)">
                                            <polygon id="Path-28" fill="#AAD905" points="1.00594319 0.738373428 0.713356999 1.54471414 2.01665669 1.05478626 2.32942091 0.237885474"></polygon>
                                            <polygon id="Path-34" fill="#C9FA1D" points="0.957888533 0.75778714 0.41692732 0.545766766 0.127808584 1.29470033 0.675570035 1.51088462"></polygon>
                                            <polygon id="Path-35" fill="#B4E700" points="0.437979972 0.496453268 0.982361939 0.702143762 2.32768006 0.205763323 1.81886281 0.0202530382"></polygon>
                                        </g>
                                    </g>
                                    <g id="Group-8" transform="translate(13.458215, 9.819662)">
                                        <polygon id="Path-36" fill="#58BC04" points="1.00678635 17.8331801 48.5264004 0.999578868 48.5264004 34.8206949 1.00678635 52.6732133"></polygon>
                                        <polygon id="Path-37" fill="#8AD500" points="0.885566692 17.8255331 0.619450464 17.641882 0.619450464 52.4417213 0.885566692 52.6411677"></polygon>
                                        <polygon id="Path-38" fill="#62CB08" points="0.667077295 17.6042031 0.947418968 17.7879897 48.5510496 0.885818726 48.1587667 0.606106579"></polygon>
                                    </g>
                                </g>
                            </g>
                        </g>
                        <g id="Group-11" transform="translate(47.225207, 54.913801)">
                            <g id="Group-5" transform="translate(28.944520, 13.252047) scale(-1, -1) rotate(180.000000) translate(-28.944520, -13.252047) translate(25.944520, 8.252047)">
                                <polygon id="Path-30" fill="#98E41C" points="0.282128561 0.254869576 3.94153191 2.0857186 3.94153191 8.108671 0.282128561 6.37256063"></polygon>
                                <polygon id="Path-32" fill="#79B40C" points="4.01135151 2.12305767 5.10174219 3.67849936 5.10174219 9.50485054 4.01135151 8.13872445"></polygon>
                                <polygon id="Path-33" fill="#478E0A" points="0.266297767 6.45359615 3.90727074 8.16257624 5.04627362 9.54217051 1.13831633 7.74464637"></polygon>
                            </g>
                            <g id="Group-5" transform="translate(28.944520, 21.159015) scale(-1, -1) rotate(180.000000) translate(-28.944520, -21.159015) translate(25.944520, 16.159015)">
                                <polygon id="Path-30" fill="#98E41C" points="0.282128561 0.254869576 3.94153191 2.0857186 3.94153191 8.108671 0.282128561 6.37256063"></polygon>
                                <polygon id="Path-32" fill="#79B40C" points="4.01135151 2.12305767 5.10174219 3.67849936 5.10174219 9.50485054 4.01135151 8.13872445"></polygon>
                                <polygon id="Path-33" fill="#478E0A" points="0.266297767 6.45359615 3.90727074 8.16257624 5.04627362 9.54217051 1.13831633 7.74464637"></polygon>
                            </g>
                            <g id="Group-10">
                                <g id="Group-9">
                                    <polygon id="Path-26" fill="#8AD500" points="0.609264004 12.3445232 9.92912979 17.0375775 9.92912979 55.0630376 0.609264004 49.5730303"></polygon>
                                    <polygon id="Path-27" fill="#64D10E" points="0.810721388 12.1070518 9.60454757 16.3598095 12.5641162 10.8577055 4.0912198 6.43588969"></polygon>
                                    <polygon id="Path-28" fill="#58BF00" points="4.3318124 6.18833068 12.6206165 10.4462238 28.9995308 4.23562379 21.2244281 0.685294683"></polygon>
                                    <polygon id="Path-29" fill="#50AC02" points="13.3102792 10.7815844 10.3753778 16.1360951 10.3753778 55.2072194 29.2022095 47.4253983 29.2022095 4.54303612"></polygon>
                                </g>
                                <g id="Group-5" transform="translate(5.345231, 43.438063) rotate(3.000000) translate(-5.345231, -43.438063) translate(2.345231, 38.438063)">
                                    <polygon id="Path-30" fill="#98E41C" points="0.282128561 0.254869576 3.94153191 2.0857186 3.94153191 8.108671 0.282128561 6.37256063"></polygon>
                                    <polygon id="Path-32" fill="#79B40C" points="4.01135151 2.12305767 5.10174219 3.67849936 5.10174219 9.50485054 4.01135151 8.13872445"></polygon>
                                    <polygon id="Path-33" fill="#478E0A" points="0.266297767 6.45359615 3.90727074 8.16257624 5.04627362 9.54217051 1.13831633 7.74464637"></polygon>
                                </g>
                                <g id="Group-8" transform="translate(11.832871, 10.712799)">
                                    <polygon id="Path-36" fill="#58BC04" points="1.00678635 6.15261961 15.5512768 0.965687136 15.5512768 29.0445543 1.00678635 35.2504038"></polygon>
                                    <polygon id="Path-37" fill="#8AD500" points="0.885566692 6.12724827 0.619450464 5.94359713 0.619450464 35.0384724 0.885566692 35.2379188"></polygon>
                                    <polygon id="Path-37" fill="#8AD500" points="15.4708993 34.1920558 15.2047831 34.0084047 15.2047831 34.1754987 15.4708993 34.392264"></polygon>
                                    <polygon id="Path-38" fill="#62CB08" points="0.667077295 5.90591827 0.947418968 6.08970488 15.5820514 0.839232103 15.1897685 0.559519956"></polygon>
                                    <polygon id="Path-38" fill="#62CB08" transform="translate(8.234310, 37.247319) rotate(-2.000000) translate(-8.234310, -37.247319) " points="0.955597718 39.7762874 0.947047 40.0211479 15.5215721 34.6567251 15.2940086 34.4734907"></polygon>
                                </g>
                                <polygon id="Path-2" fill="#479901" points="12.9043223 50.6806836 12.9043223 50.5254899 26.9942932 44.7429852 26.9942932 44.8933659"></polygon>
                            </g>
                        </g>
                    </g>
                </g>
                <g id="44" transform="translate(592.912373, 181.030658) rotate(-1.000000) translate(-592.912373, -181.030658) translate(511.412373, 132.530658)">
                    <g id="Path-14">
                        <use fill="black" fill-opacity="1" filter="url(#filter-17)" xlink:href="#path-16"></use>
                        <use fill="#FFFFFF" fill-rule="evenodd" xlink:href="#path-16"></use>
                    </g>
                </g>
                <g id="22" transform="translate(483.964970, 146.003061)">
                    <g id="Group-21" transform="translate(0.777745, 0.687462)">
                        <g id="Path-14">
                            <use fill="black" fill-opacity="1" filter="url(#filter-19)" xlink:href="#path-18"></use>
                            <use fill="#FFFFFF" fill-rule="evenodd" xlink:href="#path-18"></use>
                        </g>
                        <polygon id="Path-14" fill="#D3D9CE" opacity="0.669698661" filter="url(#filter-20)" points="13.8420385 34.3854983 13.8420385 39.4404902 27.9409252 46.9979056 47.6680659 39.4404902 47.6680659 36.5088347 31.5511937 26.3773111"></polygon>
                        <g id="Group-19" transform="translate(13.439019, 0.022688)">
                            <polygon id="Path-15" fill="#8AD500" points="0 7.70128557 13.5773345 14.2011459 13.5773345 41.3882205 0 34.8593657"></polygon>
                            <polygon id="Path-16" fill="#50AC02" points="14.0312769 14.099514 14.0312769 41.3225567 34.2832909 34.2968177 34.2832909 6.73935399"></polygon>
                            <polygon id="Path-17" fill="#58BF00" points="0.469892732 7.35011592 13.8766713 13.8284345 34.0122982 6.27927299 20.739839 0.0609597444"></polygon>
                        </g>
                    </g>
                    <g id="Group-21" transform="translate(7.306492, 349.948568)">
                        <g id="Path-14">
                            <use fill="black" fill-opacity="1" filter="url(#filter-22)" xlink:href="#path-21"></use>
                            <use fill="#FFFFFF" fill-rule="evenodd" xlink:href="#path-21"></use>
                        </g>
                        <polygon id="Path-14" fill="#D3D9CE" opacity="0.669698661" filter="url(#filter-23)" points="11.2297465 21.2379896 11.2297465 24.7286935 20.9656749 29.9474358 57.6029052 14.1758934 57.6029052 12.1514507 46.4734651 5.1551686"></polygon>
                    </g>
                </g>
                <g id="55" transform="translate(499.397752, 454.262518)">
                    <g id="Group-5" transform="translate(49.237087, 10.899759) scale(-1, -1) rotate(180.000000) translate(-49.237087, -10.899759) translate(46.237087, 5.899759)">
                        <polygon id="Path-30" fill="#98E41C" points="0.282128561 0.254869576 3.94153191 2.0857186 3.94153191 8.108671 0.282128561 6.37256063"></polygon>
                        <polygon id="Path-32" fill="#79B40C" points="4.01135151 2.12305767 5.10174219 3.67849936 5.10174219 9.50485054 4.01135151 8.13872445"></polygon>
                        <polygon id="Path-33" fill="#478E0A" points="0.266297767 6.45359615 3.90727074 8.16257624 5.04627362 9.54217051 1.13831633 7.74464637"></polygon>
                    </g>
                    <g id="Group-5" transform="translate(49.237087, 18.806728) scale(-1, -1) rotate(180.000000) translate(-49.237087, -18.806728) translate(46.237087, 13.806728)">
                        <polygon id="Path-30" fill="#98E41C" points="0.282128561 0.254869576 3.94153191 2.0857186 3.94153191 8.108671 0.282128561 6.37256063"></polygon>
                        <polygon id="Path-32" fill="#79B40C" points="4.01135151 2.12305767 5.10174219 3.67849936 5.10174219 9.50485054 4.01135151 8.13872445"></polygon>
                        <polygon id="Path-33" fill="#478E0A" points="0.266297767 6.45359615 3.90727074 8.16257624 5.04627362 9.54217051 1.13831633 7.74464637"></polygon>
                    </g>
                    <g id="Group-10">
                        <g id="Group-9">
                            <polygon id="Path-26" fill="#8AD500" points="0.609264004 19.0292574 9.92912979 23.7223117 9.92912979 61.7477718 0.609264004 56.2577645"></polygon>
                            <polygon id="Path-27" fill="#64D10E" points="0.810721388 18.791786 9.60454757 23.0445437 12.5641162 17.5424397 4.0912198 13.1206239"></polygon>
                            <polygon id="Path-28" fill="#58BF00" points="4.3318124 12.8730649 12.6206165 17.130958 49.1616584 3.62197791 41.3865557 0.0716488071"></polygon>
                            <polygon id="Path-29" fill="#50AC02" points="13.3102792 17.4663186 10.3753778 22.8208293 10.3753778 61.8919536 49.2723023 46.7614801 49.2723023 3.879118"></polygon>
                        </g>
                        <g id="Group-5" transform="translate(5.345231, 50.122797) rotate(3.000000) translate(-5.345231, -50.122797) translate(2.345231, 45.122797)">
                            <polygon id="Path-30" fill="#98E41C" points="0.282128561 0.254869576 3.94153191 2.0857186 3.94153191 8.108671 0.282128561 6.37256063"></polygon>
                            <polygon id="Path-32" fill="#79B40C" points="4.01135151 2.12305767 5.10174219 3.67849936 5.10174219 9.50485054 4.01135151 8.13872445"></polygon>
                            <polygon id="Path-33" fill="#478E0A" points="0.266297767 6.45359615 3.90727074 8.16257624 5.04627362 9.54217051 1.13831633 7.74464637"></polygon>
                        </g>
                        <g id="Group-7" transform="translate(12.969616, 15.991733)">
                            <g id="Group-6" transform="translate(9.170166, 0.175269)">
                                <polygon id="Path-28" fill="#AAD905" points="2.41368782 1.77167356 1.71164845 3.70642969 4.83882167 2.53088323 5.58927677 0.570788964"></polygon>
                                <polygon id="Path-34" fill="#C9FA1D" points="2.29838416 1.81825536 1.00038691 1.30952783 0.306667441 3.10653966 1.62098137 3.62525821"></polygon>
                                <polygon id="Path-35" fill="#B4E700" points="1.05090122 1.19120366 2.35710632 1.6847431 5.58509972 0.49371419 4.36422957 0.0485956983"></polygon>
                            </g>
                            <g id="Group-6" transform="translate(4.972007, 1.683661)">
                                <polygon id="Path-28" fill="#AAD905" points="2.41368782 1.77167356 1.71164845 3.70642969 4.83882167 2.53088323 5.58927677 0.570788964"></polygon>
                                <polygon id="Path-34" fill="#C9FA1D" points="2.29838416 1.81825536 1.00038691 1.30952783 0.306667441 3.10653966 1.62098137 3.62525821"></polygon>
                                <polygon id="Path-35" fill="#B4E700" points="1.05090122 1.19120366 2.35710632 1.6847431 5.58509972 0.49371419 4.36422957 0.0485956983"></polygon>
                            </g>
                            <g id="Group-6" transform="translate(0.454678, 3.457857)">
                                <polygon id="Path-28" fill="#AAD905" points="2.41368782 1.77167356 1.71164845 3.70642969 4.83882167 2.53088323 5.58927677 0.570788964"></polygon>
                                <polygon id="Path-34" fill="#C9FA1D" points="2.29838416 1.81825536 1.00038691 1.30952783 0.306667441 3.10653966 1.62098137 3.62525821"></polygon>
                                <polygon id="Path-35" fill="#B4E700" points="1.05090122 1.19120366 2.35710632 1.6847431 5.58509972 0.49371419 4.36422957 0.0485956983"></polygon>
                            </g>
                        </g>
                        <g id="Group-8" transform="translate(13.369468, 14.205060)">
                            <polygon id="Path-36" fill="#58BC04" points="1.00678635 12.001762 32.8676188 0.552882045 32.8676188 28.6317492 1.00678635 41.0995463"></polygon>
                            <polygon id="Path-37" fill="#8AD500" points="0.885566692 11.9763907 0.619450464 11.7927396 0.619450464 40.8876148 0.885566692 41.0870612"></polygon>
                            <polygon id="Path-38" fill="#62CB08" points="0.667077295 11.7550607 0.947418968 11.9388473 32.8047673 0.47873532 32.4124843 0.199023173"></polygon>
                        </g>
                    </g>
                </g>
            </g>
        </g>
    </g>
</svg>