<svg width="689" height="633" xmlns="http://www.w3.org/2000/svg" xmlns:xlink="http://www.w3.org/1999/xlink"><style>@keyframes m1{0%{transform:translate(18.719963px,-6px)}to{transform:translate(18.719963px,.031604px)}}@keyframes m2{0%{transform:translate(10.651877px,.017983px)}to{transform:translate(10.651877px,-3px)}}@keyframes m3{0%{transform:translate(13.439019px,.022688px)}to{transform:translate(13.439019px,-5px)}}@keyframes m4{0%{transform:translate(499.397752px,454.262518px)}to{transform:translate(499.397752px,440.262518px)}}@keyframes m5{0%{transform:translate(18.551878px,359px)}to{transform:translate(18.551878px,369.973429px)}}</style><defs><path id="path-1" d="M5.1 45.88L.3 55.77l36.9 22.08L78.41 61.2l3.16-9.97-34.99-22z"/><filter x="-15.4%" y="-15.4%" width="125.8%" height="143.2%" filterUnits="objectBoundingBox" id="filter-2"><feOffset dx="-2" dy="3" in="SourceAlpha" result="shadowOffsetOuter1"/><feGaussianBlur stdDeviation="3" in="shadowOffsetOuter1" result="shadowBlurOuter1"/><feColorMatrix values="0 0 0 0 0.842026753 0 0 0 0 0.933620323 0 0 0 0 0.740957985 0 0 0 0.643823596 0" in="shadowBlurOuter1"/></filter><filter x="-19.1%" y="-31.3%" width="138.2%" height="162.7%" filterUnits="objectBoundingBox" id="filter-3"><feGaussianBlur stdDeviation="3" in="SourceGraphic"/></filter><path id="path-4" d="M5.23 47.13L.3 57.28l37.9 22.69 42.36-17.1 3.24-10.25-35.94-22.6z"/><filter x="-15%" y="-15%" width="125.2%" height="142%" filterUnits="objectBoundingBox" id="filter-5"><feOffset dx="-2" dy="3" in="SourceAlpha" result="shadowOffsetOuter1"/><feGaussianBlur stdDeviation="3" in="shadowOffsetOuter1" result="shadowBlurOuter1"/><feColorMatrix values="0 0 0 0 0.842026753 0 0 0 0 0.933620323 0 0 0 0 0.740957985 0 0 0 0.643823596 0" in="shadowBlurOuter1"/></filter><filter x="-18.6%" y="-30.5%" width="137.2%" height="161%" filterUnits="objectBoundingBox" id="filter-6"><feGaussianBlur stdDeviation="3" in="SourceGraphic"/></filter><path id="path-7" d="M2.9 26.1L.17 31.74l21 12.57 23.45-9.48 1.8-5.67-19.9-12.52z"/><filter x="-27%" y="-27.1%" width="145.4%" height="175.9%" filterUnits="objectBoundingBox" id="filter-8"><feOffset dx="-2" dy="3" in="SourceAlpha" result="shadowOffsetOuter1"/><feGaussianBlur stdDeviation="3" in="shadowOffsetOuter1" result="shadowBlurOuter1"/><feColorMatrix values="0 0 0 0 0.842026753 0 0 0 0 0.933620323 0 0 0 0 0.740957985 0 0 0 0.643823596 0" in="shadowBlurOuter1"/></filter><filter x="-33.6%" y="-55.1%" width="167.1%" height="210.1%" filterUnits="objectBoundingBox" id="filter-9"><feGaussianBlur stdDeviation="3" in="SourceGraphic"/></filter><path id="path-10" d="M3.87 12.94L.22 20.45l28.02 16.77 31.32-12.64 2.4-7.58L35.37.3z"/><filter x="-20.2%" y="-20.3%" width="134%" height="156.9%" filterUnits="objectBoundingBox" id="filter-11"><feOffset dx="-2" dy="3" in="SourceAlpha" result="shadowOffsetOuter1"/><feGaussianBlur stdDeviation="3" in="shadowOffsetOuter1" result="shadowBlurOuter1"/><feColorMatrix values="0 0 0 0 0.842026753 0 0 0 0 0.933620323 0 0 0 0 0.740957985 0 0 0 0.643823596 0" in="shadowBlurOuter1"/></filter><filter x="-25.2%" y="-41.3%" width="150.3%" height="182.5%" filterUnits="objectBoundingBox" id="filter-12"><feGaussianBlur stdDeviation="3" in="SourceGraphic"/></filter><path id="path-13" d="M6.47 21.59L.37 34.15l46.89 28.06 52.38-21.16 4.02-12.67L59.2.43z"/><filter x="-12.1%" y="-12.1%" width="120.3%" height="134%" filterUnits="objectBoundingBox" id="filter-14"><feOffset dx="-2" dy="3" in="SourceAlpha" result="shadowOffsetOuter1"/><feGaussianBlur stdDeviation="3" in="shadowOffsetOuter1" result="shadowBlurOuter1"/><feColorMatrix values="0 0 0 0 0.842026753 0 0 0 0 0.933620323 0 0 0 0 0.740957985 0 0 0 0.643823596 0" in="shadowBlurOuter1"/></filter><filter x="-15%" y="-24.7%" width="130.1%" height="149.3%" filterUnits="objectBoundingBox" id="filter-15"><feGaussianBlur stdDeviation="3" in="SourceGraphic"/></filter><path id="path-16" d="M9.73 33.24L.17 52.94l73.51 44 82.15-33.17 6.3-19.87L92.4.07z"/><filter x="-7.7%" y="-7.7%" width="113%" height="121.7%" filterUnits="objectBoundingBox" id="filter-17"><feOffset dx="-2" dy="3" in="SourceAlpha" result="shadowOffsetOuter1"/><feGaussianBlur stdDeviation="3" in="shadowOffsetOuter1" result="shadowBlurOuter1"/><feColorMatrix values="0 0 0 0 0.842026753 0 0 0 0 0.933620323 0 0 0 0 0.740957985 0 0 0 0.643823596 0" in="shadowBlurOuter1"/></filter><path id="path-18" d="M3.66 32.94L.2 40.04 26.7 55.89l29.6-11.95 2.27-7.17-25.12-15.79z"/><filter x="-21.4%" y="-21.5%" width="136%" height="160.2%" filterUnits="objectBoundingBox" id="filter-19"><feOffset dx="-2" dy="3" in="SourceAlpha" result="shadowOffsetOuter1"/><feGaussianBlur stdDeviation="3" in="shadowOffsetOuter1" result="shadowBlurOuter1"/><feColorMatrix values="0 0 0 0 0.842026753 0 0 0 0 0.933620323 0 0 0 0 0.740957985 0 0 0 0.643823596 0" in="shadowBlurOuter1"/></filter><filter x="-26.6%" y="-43.6%" width="153.2%" height="187.3%" filterUnits="objectBoundingBox" id="filter-20"><feGaussianBlur stdDeviation="3" in="SourceGraphic"/></filter><path id="path-21" d="M2.53 19.4L.15 24.3l20.6 11.5 46-19.36 1.57-4.95L48.67.04z"/><filter x="-18.3%" y="-21%" width="130.8%" height="158.7%" filterUnits="objectBoundingBox" id="filter-22"><feOffset dx="-2" dy="3" in="SourceAlpha" result="shadowOffsetOuter1"/><feGaussianBlur stdDeviation="3" in="shadowOffsetOuter1" result="shadowBlurOuter1"/><feColorMatrix values="0 0 0 0 0.842026753 0 0 0 0 0.933620323 0 0 0 0 0.740957985 0 0 0 0.643823596 0" in="shadowBlurOuter1"/></filter><filter x="-19.4%" y="-36.3%" width="138.8%" height="172.6%" filterUnits="objectBoundingBox" id="filter-23"><feGaussianBlur stdDeviation="3" in="SourceGraphic"/></filter></defs><g id="Page-1" fill="none" fill-rule="evenodd"><g id="Artboard" transform="translate(-1 -80)"><g id="Group-34" transform="translate(0 25.37)"><g id="33" transform="translate(30.37 .32)" stroke="#BFC6D3" stroke-dasharray="15"><path d="M17.6 673.56L329.94 470" id="Stroke-101" transform="scale(1 -1) rotate(8 8354.76 0)"/><path d="M237.16 194.7L479.54 36.78" id="Stroke-101" transform="scale(1 -1) rotate(8 2018.35 0)"/><path d="M11.09 294.9l236.86-155.44" id="Stroke-101" transform="scale(1 -1) rotate(8 3235.96 0)"/><path d="M44.82 179.36l50.38 358.5" id="Stroke-101" transform="rotate(-172 70.01 358.6)"/><path d="M459.82 95.44l64.42 455.85" id="Stroke-101" transform="rotate(-172 492.22 323.22)"/><path d="M216.97 276.4L276.34 685" id="Stroke-101" transform="rotate(-172 246.91 480.7)"/><path d="M201.97 655.4l407.79-207.45" id="Stroke-101" transform="rotate(-172 405.85 551.63)"/><path d="M20.85 242.12L426.82 28.64" id="Stroke-101" transform="rotate(-172 223.38 135.18)"/><path d="M259.94 299.65L645.75 93.37" id="Stroke-101" transform="rotate(-172 452.78 196.66)"/></g><g id="11" transform="translate(.15 62)"><g id="Group-2" transform="translate(0 .86)" stroke="#B1BAC9" stroke-dasharray="15"><g id="Group-13" transform="translate(.17 34.5)"><path d="M10.73 172.34l239.76-155.2" id="Stroke-101" opacity=".26" transform="scale(1 -1) rotate(8 1484.48 0)"/><path d="M12.89 476.02l355.62-177.4" id="Stroke-101" opacity=".18" transform="rotate(-172 190.53 387.41)"/><path d="M120.32 89.3l126.1-67.14" id="Stroke-101" opacity=".15" transform="rotate(8 183.36 55.9)"/></g><path d="M186.25 586.14l201.88-101.4" id="Stroke-101" opacity=".26" transform="rotate(-172 287.12 535.2)"/><path d="M434.9 181.63l298.84-160.7" id="Stroke-101" opacity=".26" transform="rotate(-172 584.2 101.46)"/><path d="M395 187.25l126.11-67.15" id="Stroke-101" opacity=".15" transform="rotate(-172 458.05 153.84)"/></g><g id="Group" transform="translate(43.62 12.65)"><g id="Group-3" transform="translate(185.52 .42)"><g id="Group-4" transform="translate(.25 .68)"><g id="Group-21" transform="translate(9.43 463.12)"><g id="Path-14"><use fill="#000" filter="url(#filter-2)" xlink:href="#path-1"/><use fill="#FFF" xlink:href="#path-1"/></g><path id="Path-14" fill="#D3D9CE" opacity=".67" filter="url(#filter-3)" d="M19.28 47.9v7.04l19.64 10.53L66.4 54.94v-4.08L43.95 36.74z"/><g transform="translate(18.72 .03)" style="animation:m1 2s alternate linear infinite"><path id="Path-15" fill="#8AD500" d="M0 10.73l18.91 9.05v37.87L0 48.55z"/><path id="Path-16" fill="#50AC02" d="M19.54 19.64v37.92l28.22-9.79V9.4z"/><path id="Path-17" fill="#58BF00" d="M.65 10.24l18.68 9.02L47.38 8.75 28.89.08z"/></g></g><g id="Group-21" transform="translate(.87 135.03)"><g id="Path-14"><use fill="#000" filter="url(#filter-5)" xlink:href="#path-4"/><use fill="#FFF" xlink:href="#path-4"/></g><path id="Path-14" fill="#D3D9CE" opacity=".67" filter="url(#filter-6)" d="M19.8 49.2v7.23l20.18 10.82L68.2 56.43v-4.2L45.14 37.75z"/><g transform="translate(19.23 .03)" style="animation:m1 1.5s alternate linear infinite"><path id="Path-15" fill="#8AD500" d="M0 11.02l19.43 9.3v38.9L0 49.88z"/><path id="Path-16" fill="#50AC02" d="M20.08 20.17v38.96l28.97-10.06V9.64z"/><path id="Path-17" fill="#58BF00" d="M.67 10.52l19.19 9.27 28.8-10.8L29.69.08z"/></g></g><g id="Group-21" transform="translate(96.93 .2)"><g id="Path-14"><use fill="#000" filter="url(#filter-8)" xlink:href="#path-7"/><use fill="#FFF" xlink:href="#path-7"/></g><path id="Path-14" fill="#D3D9CE" opacity=".67" filter="url(#filter-9)" d="M10.97 27.25v4.01l11.18 6 15.63-6v-2.32L25.01 20.9z"/><g transform="translate(10.65 .02)" style="animation:m2 2s alternate linear infinite"><path id="Path-15" fill="#8AD500" d="M0 6.1l10.76 5.16V32.8L0 27.63z"/><path id="Path-16" fill="#50AC02" d="M11.12 11.18v21.57l16.05-5.57V5.34z"/><path id="Path-17" fill="#58BF00" d="M.37 5.83L11 10.96l15.96-5.98L16.44.05z"/></g></g></g></g><g id="Group-21" transform="translate(29.9 88.69)"><g id="Path-14"><use fill="#000" filter="url(#filter-11)" xlink:href="#path-10"/><use fill="#FFF" xlink:href="#path-10"/></g><path id="Path-14" fill="#D3D9CE" opacity=".67" filter="url(#filter-12)" d="M14.64 14.48v5.34l14.92 8 20.86-8v-3.1L33.38 6.01z"/></g><g id="Group-21" transform="translate(.97 408.5)"><g id="Path-14"><use fill="#000" filter="url(#filter-14)" xlink:href="#path-13"/><use fill="#FFF" xlink:href="#path-13"/></g><path id="Path-14" fill="#D3D9CE" opacity=".67" filter="url(#filter-15)" d="M24.5 24.15v8.95l24.95 13.37L84.37 33.1v-5.2L55.84 9.99z"/></g><g transform="translate(18.55 369.97)" style="animation:m5 3s alternate linear infinite"><g id="dizuo-" transform="translate(7.8 49.05)"><path id="Path-26" fill="#8AD500" d="M.8 14.02l20.98 10.24v.67L.8 14.61z"/><path id="Path-27" fill="#64D10E" d="M.63 13.68L21.8 24.05l.56-.66L1.58 12.88z"/><path id="Path-28" fill="#58BF00" d="M1.67 12.63l20.81 10.53 30.17-12.6L31.48.81z"/><path id="Path-39" fill="#4CA005" d="M22.5 23.44l-.57.73v.71l30.81-13.2v-.93z"/></g><g id="zhizhu" transform="translate(24.94 51.6)"><path id="Path-26" fill="#8AD500" d="M.4 6.12l6.22 2.96v4.33L.4 9.66z"/><path id="Path-27" fill="#64D10E" d="M.7 5.99l5.87 2.73 1.26-1.71-5.55-2.9z"/><path id="Path-28" fill="#58BF00" d="M2.45 3.95l5.5 2.72 10.7-4.26-5-2.01z"/><path id="Path-31" fill="#489804" d="M8.15 7.05L6.9 8.84v4.58l11.87-5.43V2.74z"/></g><g id="pingmu" transform="translate(.2 .28)"><g id="Group-10"><g id="Group-9"><path id="Path-26" fill="#8AD500" d="M.6 24.88l9.33 4.7V67.6L.6 62.1z"/><path id="Path-27" fill="#64D10E" d="M.81 24.64l8.8 4.25 2.95-5.5-8.47-4.42z"/><path id="Path-28" fill="#58BF00" d="M4.33 18.72l8.3 4.26L65.15 3.69 57.4.14z"/><path id="Path-29" fill="#50AC02" d="M13.31 23.32l-2.93 5.35v39.07L65.33 46.9V4.02z"/></g><g id="Group-5" transform="rotate(3 -969.1 75.27)"><path id="Path-30" fill="#98E41C" d="M.28.25L3.94 2.1V8.1L.28 6.37z"/><path id="Path-32" fill="#79B40C" d="M4.01 2.12l1.1 1.56V9.5L4 8.14z"/><path id="Path-33" fill="#478E0A" d="M.27 6.45L3.9 8.16l1.14 1.38-3.91-1.8z"/></g><g id="Group-7" transform="translate(58.24 45.79)"><g id="Group-6" transform="translate(3.82 .07)"><path id="Path-28" fill="#AAD905" d="M1 .74l-.29.8 1.3-.49.32-.81z"/><path id="Path-34" fill="#C9FA1D" d="M.96.76L.42.55l-.3.74.56.22z"/><path id="Path-35" fill="#B4E700" d="M.44.5l.54.2L2.33.2 1.82.03z"/></g><g id="Group-6" transform="translate(2.07 .7)"><path id="Path-28" fill="#AAD905" d="M1 .74l-.29.8 1.3-.49.32-.81z"/><path id="Path-34" fill="#C9FA1D" d="M.96.76L.42.55l-.3.74.56.22z"/><path id="Path-35" fill="#B4E700" d="M.44.5l.54.2L2.33.2 1.82.03z"/></g><g id="Group-6" transform="translate(.19 1.44)"><path id="Path-28" fill="#AAD905" d="M1 .74l-.29.8 1.3-.49.32-.81z"/><path id="Path-34" fill="#C9FA1D" d="M.96.76L.42.55l-.3.74.56.22z"/><path id="Path-35" fill="#B4E700" d="M.44.5l.54.2L2.33.2 1.82.03z"/></g></g><g id="Group-8" transform="translate(13.46 9.82)"><path id="Path-36" fill="#58BC04" d="M1 17.83L48.54 1v33.82L1 52.67z"/><path id="Path-37" fill="#8AD500" d="M.89 17.83l-.27-.19v34.8l.27.2z"/><path id="Path-38" fill="#62CB08" d="M.67 17.6l.28.19L48.55.89l-.4-.28z"/></g></g></g></g><g id="Group-11" transform="translate(47.23 54.91)"><g id="Group-5" transform="translate(25.94 8.25)"><path id="Path-30" fill="#98E41C" d="M.28.25L3.94 2.1V8.1L.28 6.37z"/><path id="Path-32" fill="#79B40C" d="M4.01 2.12l1.1 1.56V9.5L4 8.14z"/><path id="Path-33" fill="#478E0A" d="M.27 6.45L3.9 8.16l1.14 1.38-3.91-1.8z"/></g><g id="Group-5" transform="translate(25.94 16.16)"><path id="Path-30" fill="#98E41C" d="M.28.25L3.94 2.1V8.1L.28 6.37z"/><path id="Path-32" fill="#79B40C" d="M4.01 2.12l1.1 1.56V9.5L4 8.14z"/><path id="Path-33" fill="#478E0A" d="M.27 6.45L3.9 8.16l1.14 1.38-3.91-1.8z"/></g><g id="Group-10"><g id="Group-9"><path id="Path-26" fill="#8AD500" d="M.6 12.34l9.33 4.7v38.02L.6 49.57z"/><path id="Path-27" fill="#64D10E" d="M.81 12.1l8.8 4.26 2.95-5.5L4.1 6.44z"/><path id="Path-28" fill="#58BF00" d="M4.33 6.19l8.3 4.26L29 4.24 21.22.69z"/><path id="Path-29" fill="#50AC02" d="M13.31 10.78l-2.93 5.36V55.2l18.82-7.78V4.54z"/></g><g id="Group-5" transform="rotate(3 -729.77 69)"><path id="Path-30" fill="#98E41C" d="M.28.25L3.94 2.1V8.1L.28 6.37z"/><path id="Path-32" fill="#79B40C" d="M4.01 2.12l1.1 1.56V9.5L4 8.14z"/><path id="Path-33" fill="#478E0A" d="M.27 6.45L3.9 8.16l1.14 1.38-3.91-1.8z"/></g><g id="Group-8" transform="translate(11.83 10.71)"><path id="Path-36" fill="#58BC04" d="M1 6.15L15.56.97v28.07L1.01 35.25z"/><path id="Path-37" fill="#8AD500" d="M.89 6.13l-.27-.19v29.1l.27.2zM15.47 34.2l-.27-.2v.18l.27.21z"/><path id="Path-38" fill="#62CB08" d="M.67 5.9l.28.19L15.58.84 15.2.56z"/><path id="Path-38" fill="#62CB08" transform="rotate(-2 8.23 37.25)" d="M.96 39.78l-.01.24 14.57-5.36-.23-.19z"/></g><path id="Path-2" fill="#479901" d="M12.9 50.68v-.15L27 44.74v.15z"/></g></g></g></g><g id="44" transform="rotate(-1 7930.46 -29186.26)"><g id="Path-14"><use fill="#000" filter="url(#filter-17)" xlink:href="#path-16"/><use fill="#FFF" xlink:href="#path-16"/></g></g><g id="22" transform="translate(483.96 146)"><g id="Group-21" transform="translate(.78 .69)"><g id="Path-14"><use fill="#000" filter="url(#filter-19)" xlink:href="#path-18"/><use fill="#FFF" xlink:href="#path-18"/></g><path id="Path-14" fill="#D3D9CE" opacity=".67" filter="url(#filter-20)" d="M13.84 34.39v5.05L27.94 47l19.73-7.56v-2.93L31.55 26.38z"/><g transform="translate(13.44 .02)" style="animation:m3 1.5s alternate linear infinite"><path id="Path-15" fill="#8AD500" d="M0 7.7l13.58 6.5V41.4L0 34.86z"/><path id="Path-16" fill="#50AC02" d="M14.03 14.1v27.22l20.25-7.02V6.74z"/><path id="Path-17" fill="#58BF00" d="M.47 7.35l13.4 6.48 20.14-7.55L20.74.06z"/></g></g><g id="Group-21" transform="translate(7.3 349.95)"><g id="Path-14"><use fill="#000" filter="url(#filter-22)" xlink:href="#path-21"/><use fill="#FFF" xlink:href="#path-21"/></g><path id="Path-14" fill="#D3D9CE" opacity=".67" filter="url(#filter-23)" d="M11.23 21.24v3.49l9.74 5.22L57.6 14.18v-2.03l-11.13-7z"/></g></g><g transform="translate(499.4 454.26)" style="animation:m4 1.8s alternate linear infinite"><g id="Group-5" transform="translate(46.24 5.9)"><path id="Path-30" fill="#98E41C" d="M.28.25L3.94 2.1V8.1L.28 6.37z"/><path id="Path-32" fill="#79B40C" d="M4.01 2.12l1.1 1.56V9.5L4 8.14z"/><path id="Path-33" fill="#478E0A" d="M.27 6.45L3.9 8.16l1.14 1.38-3.91-1.8z"/></g><g id="Group-5" transform="translate(46.24 13.8)"><path id="Path-30" fill="#98E41C" d="M.28.25L3.94 2.1V8.1L.28 6.37z"/><path id="Path-32" fill="#79B40C" d="M4.01 2.12l1.1 1.56V9.5L4 8.14z"/><path id="Path-33" fill="#478E0A" d="M.27 6.45L3.9 8.16l1.14 1.38-3.91-1.8z"/></g><g id="Group-10"><g id="Group-9"><path id="Path-26" fill="#8AD500" d="M.6 19.03l9.33 4.7v38.02L.6 56.25z"/><path id="Path-27" fill="#64D10E" d="M.81 18.8l8.8 4.24 2.95-5.5-8.47-4.42z"/><path id="Path-28" fill="#58BF00" d="M4.33 12.87l8.3 4.26 36.53-13.5L41.4.06z"/><path id="Path-29" fill="#50AC02" d="M13.31 17.47l-2.93 5.35V61.9l38.9-15.13V3.88z"/></g><g id="Group-5" transform="rotate(3 -857.41 72.34)"><path id="Path-30" fill="#98E41C" d="M.28.25L3.94 2.1V8.1L.28 6.37z"/><path id="Path-32" fill="#79B40C" d="M4.01 2.12l1.1 1.56V9.5L4 8.14z"/><path id="Path-33" fill="#478E0A" d="M.27 6.45L3.9 8.16l1.14 1.38-3.91-1.8z"/></g><g id="Group-7" transform="translate(12.97 16)"><g id="Group-6" transform="translate(9.17 .18)"><path id="Path-28" fill="#AAD905" d="M2.41 1.77l-.7 1.94 3.13-1.18.75-1.96z"/><path id="Path-34" fill="#C9FA1D" d="M2.3 1.82L1 1.3l-.7 1.8 1.32.52z"/><path id="Path-35" fill="#B4E700" d="M1.05 1.2l1.3.48L5.6.5 4.36.05z"/></g><g id="Group-6" transform="translate(4.97 1.68)"><path id="Path-28" fill="#AAD905" d="M2.41 1.77l-.7 1.94 3.13-1.18.75-1.96z"/><path id="Path-34" fill="#C9FA1D" d="M2.3 1.82L1 1.3l-.7 1.8 1.32.52z"/><path id="Path-35" fill="#B4E700" d="M1.05 1.2l1.3.48L5.6.5 4.36.05z"/></g><g id="Group-6" transform="translate(.45 3.46)"><path id="Path-28" fill="#AAD905" d="M2.41 1.77l-.7 1.94 3.13-1.18.75-1.96z"/><path id="Path-34" fill="#C9FA1D" d="M2.3 1.82L1 1.3l-.7 1.8 1.32.52z"/><path id="Path-35" fill="#B4E700" d="M1.05 1.2l1.3.48L5.6.5 4.36.05z"/></g></g><g id="Group-8" transform="translate(13.37 14.2)"><path id="Path-36" fill="#58BC04" d="M1 12L32.88.55v28.08L1 41.1z"/><path id="Path-37" fill="#8AD500" d="M.89 11.98l-.27-.19v29.1l.27.2z"/><path id="Path-38" fill="#62CB08" d="M.67 11.76l.28.18L32.8.48 32.41.2z"/></g></g></g></g></g></g></svg>