<?xml version="1.0" encoding="iso-8859-1"?>
<!-- Generator: Adobe Illustrator 19.0.0, SVG Export Plug-In . SVG Version: 6.00 Build 0)  -->
<svg version="1.1" id="Layer_1" xmlns="http://www.w3.org/2000/svg" xmlns:xlink="http://www.w3.org/1999/xlink" x="0px" y="0px"
	 viewBox="0 0 394.99 394.99" style="enable-background:new 0 0 394.99 394.99;" xml:space="preserve">
<path style="fill:#FFFFFF;" d="M202.359,6.206L202.359,6.206c-60.574,0-110.028,49.455-110.028,110.028l0,0
	c0,60.574,49.455,110.028,110.028,110.028l0,0c60.574,0,110.028-49.455,110.028-110.028l0,0
	C312.452,55.661,262.997,6.206,202.359,6.206z"/>
<path style="fill:#193651;" d="M202.359,232.404c-64.259,0-116.234-51.911-116.234-116.234S138.1,0,202.359,0
	s116.234,51.911,116.234,116.234S266.682,232.404,202.359,232.404z M202.359,12.347c-57.471,0-103.822,46.352-103.822,103.822
	s46.352,103.822,103.822,103.822S306.181,173.64,306.181,116.17S259.894,12.347,202.359,12.347z"/>
<path style="fill:#FDBF5E;" d="M202.359,201.503c-46.998,0-85.333-38.335-85.333-85.333s38.335-85.333,85.333-85.333
	s85.333,38.335,85.333,85.333S249.357,201.503,202.359,201.503z"/>
<rect x="10.747" y="226.263" style="fill:#FFFFFF;" width="58.699" height="135.37"/>
<g>
	<path style="fill:#193651;" d="M202.359,110.675c-8.016,0-14.869-6.788-14.869-14.804s6.788-14.804,14.869-14.804
		s14.869,6.788,14.869,14.804h12.347c0-12.994-9.244-23.467-21.01-26.57V59.41h-12.347v9.891
		c-12.347,3.103-21.01,13.576-21.01,26.57c0,14.804,12.347,27.216,27.216,27.216c8.016,0,14.869,6.788,14.869,14.869
		s-6.788,14.804-14.869,14.804c-8.016,0-14.869-6.788-14.869-14.804h-12.347c0,12.994,9.244,23.467,21.01,26.57v8.663h12.347v-8.663
		c12.347-3.103,21.01-13.576,21.01-26.57C229.575,123.022,217.228,110.675,202.359,110.675z"/>
	<rect x="33.632" y="253.479" style="fill:#193651;" width="12.347" height="12.347"/>
	<rect x="33.632" y="288.065" style="fill:#193651;" width="12.347" height="12.347"/>
	<rect x="33.632" y="322.715" style="fill:#193651;" width="12.347" height="12.347"/>
	<rect x="253.688" y="109.446" style="fill:#193651;" width="12.347" height="13.576"/>
	<rect x="138.747" y="109.446" style="fill:#193651;" width="12.347" height="13.576"/>
	<path style="fill:#193651;" d="M387.83,282.505c-6.206-12.994-21.01-19.135-34.004-14.222l-84.04,28.444
		c0.646-1.875,0.646-4.331,0.646-6.788c0-16.097-12.994-29.026-29.026-29.026h-62.448c-1.875,0-4.331-0.646-6.206-1.228
		l-40.21-21.01l-0.646-0.646c-3.685-1.228-7.434-1.875-11.119-1.875H75.652v-16.679H4.605v147.717h71.111v-12.994h15.451
		l115.006,38.335c4.331,1.228,8.663,2.457,13.576,2.457c6.788,0,13.576-1.875,19.782-4.978l136.598-72.339
		C388.476,311.596,394.036,296.081,387.83,282.505z M63.304,355.426v0.646H16.953V232.404h46.352V355.426z M369.922,307.846
		l-136.598,71.693c-7.434,3.685-16.097,4.331-24.113,1.875L92.395,342.497H75.07v-93.349h45.123c2.457,0,4.331,0.646,6.788,1.228
		l40.21,21.01l0.646,0.646c3.103,1.228,6.788,1.875,10.537,1.875h62.448c9.244,0,16.679,7.434,16.679,16.679
		c0,4.913-2.457,9.244-5.56,12.347l-11.766,4.331h-50.683c-12.994,0-23.467,10.537-23.467,23.467h12.347
		c0-6.206,4.913-11.119,11.119-11.119h51.329c6.206,0,11.766-1.875,16.679-5.56l99.556-34.004
		c7.434-2.457,15.451,0.646,18.554,8.016C379.813,294.853,377.357,304.162,369.922,307.846z"/>
</g>
<g>
</g>
<g>
</g>
<g>
</g>
<g>
</g>
<g>
</g>
<g>
</g>
<g>
</g>
<g>
</g>
<g>
</g>
<g>
</g>
<g>
</g>
<g>
</g>
<g>
</g>
<g>
</g>
<g>
</g>
</svg>
