<?xml version="1.0" encoding="UTF-8"?>
<svg width="132px" height="137px" viewBox="0 0 132 137" version="1.1" xmlns="http://www.w3.org/2000/svg" xmlns:xlink="http://www.w3.org/1999/xlink">
    <!-- Generator: Sketch 50.2 (55047) - http://www.bohemiancoding.com/sketch -->
    <title>Group 66</title>
    <desc>Created with Sketch.</desc>
    <defs></defs>
    <g id="Page-1" stroke="none" stroke-width="1" fill="none" fill-rule="evenodd">
        <g id="首页编辑版" transform="translate(-363.000000, -2417.000000)">
            <g id="Group-66" transform="translate(362.000000, 2417.000000)">
                <g id="数字资产" transform="translate(0.257429, 0.074896)">
                    <g id="Group-34" transform="translate(43.000000, 37.000000)">
                        <g id="Group-33" transform="translate(0.638174, 0.587707)">
                            <polygon id="Combined-Shape" fill="#BFC6D3" points="33.0762331 38.0719306 39.5257529 39.574889 24.7582674 54.6923548 10.8567989 68.9170787 15.6886291 55.9455587 0.741035636 42.8387967 19.6610793 3.50208299 42.4475764 0.143836671"></polygon>
                            <polygon id="Combined-Shape" fill="#50AC02" points="39.6666796 39.3900199 46.1161994 40.8929783 31.3487139 56.0104441 17.4472454 70.235168 22.2790756 57.263648 7.33148213 44.156886 26.2515258 4.82017229 49.0380229 1.46192597"></polygon>
                            <path d="M31.4238405,48.1493698 L32.2931878,51.0645273" id="Line-14" stroke="#74BF35" stroke-linecap="square"></path>
                            <path d="M35.5884111,44.4740808 L39.542679,44.4740808" id="Line-15" stroke="#74BF35" stroke-linecap="square"></path>
                            <path d="M24.7588096,48.3296371 L16.4761162,41.8379022" id="Line-10" stroke="#74BF35" stroke-linecap="square"></path>
                            <path d="M31.4238405,41.8379022 L28.3389199,14.1580269" id="Line-7" stroke="#74BF35" stroke-linecap="square"></path>
                            <polygon id="Path-53" fill="#58BF00" points="26.3267146 4.77556982 19.7439284 3.50499323 0.783386483 42.9883828 7.30952985 44.1578908"></polygon>
                            <polygon id="Path-54" fill="#3E8700" points="0.911594484 43.0205742 7.41050136 44.1453999 22.3229573 57.2324333 15.6326443 55.8960738"></polygon>
                            <polygon id="Path-55" fill="#58BF00" points="15.6384503 55.9641981 10.9045831 68.8797595 17.4665824 70.2420527 22.3221832 57.1919845"></polygon>
                            <polygon id="Path-56" fill="#429000" points="19.7736056 3.49920005 26.3731341 4.80229079 49.0122955 1.48853694 42.4835379 0.155821156"></polygon>
                            <path d="M35.160569,40.4211013 L38.8836343,19.4303841" id="Line-38" stroke="#74BF35" stroke-linecap="square"></path>
                            <path d="M27.5257079,52.8162252 L26.2076186,56.7704931" id="Line-11" stroke="#74BF35" stroke-linecap="square"></path>
                            <path d="M27.5257079,43.8150362 L20.4303841,28.6570092" id="Line-8" stroke="#74BF35" stroke-linecap="square"></path>
                            <g id="Group-32" transform="translate(37.385522, 34.665726)">
                                <g id="Group-24" transform="translate(0.641933, 0.189342)">
                                    <polygon id="Path-17" fill="#58BF00" transform="translate(7.861584, 5.999093) rotate(-9.000000) translate(-7.861584, -5.999093) " points="1.07429271 5.65996985 8.14617953 10.7835287 14.6488759 5.78034662 7.5747796 1.21465688"></polygon>
                                    <polygon id="Path-15" fill="#8AD500" points="1.1245499 6.67033366 8.88438969 10.6735385 8.88438969 21.2481189 1.1245499 17.4453833"></polygon>
                                    <polygon id="Path-16" fill="#50AC02" points="8.91045311 10.6754401 8.81800775 10.4491863 8.81800775 21.2456117 14.6090518 15.4120501 14.5260987 4.65598349"></polygon>
                                </g>
                            </g>
                            <g id="Group-32" transform="translate(33.183435, 45.967965)">
                                <g id="Group-24" transform="translate(0.442033, 0.130380)">
                                    <polygon id="Path-17" fill="#58BF00" transform="translate(5.413457, 4.130953) rotate(-9.000000) translate(-5.413457, -4.130953) " points="0.739753916 3.89743393 5.60942856 7.42549725 10.0871608 3.98032492 5.21596471 0.836408151"></polygon>
                                    <polygon id="Path-15" fill="#8AD500" points="0.774360825 4.59316664 6.11775729 7.34975844 6.11775729 14.6313747 0.774360825 12.0128253"></polygon>
                                    <polygon id="Path-16" fill="#50AC02" points="6.13570446 7.35106789 6.07204694 7.19527038 6.07204694 14.6296483 10.059738 10.6126797 10.0026169 3.2060927"></polygon>
                                </g>
                            </g>
                            <g id="Group-32" transform="translate(40.680745, 37.291566)">
                                <g id="Group-24" transform="translate(0.127495, 0.037606)">
                                    <polygon id="Path-17" fill="#58BF00" transform="translate(1.561399, 1.191487) rotate(-9.000000) translate(-1.561399, -1.191487) " points="0.213366595 1.12413356 1.61792272 2.14172988 2.90943123 1.14804174 1.50443628 0.241244494"></polygon>
                                    <polygon id="Path-15" fill="#8AD500" points="0.223348236 1.32480316 1.76453955 2.1198846 1.76453955 4.22011499 0.223348236 3.464849"></polygon>
                                    <polygon id="Path-16" fill="#50AC02" points="1.76971603 2.12026228 1.75135535 2.07532573 1.75135535 4.21961704 2.90152171 3.0610062 2.8850463 0.924730598"></polygon>
                                </g>
                            </g>
                            <g id="Group-32" transform="translate(40.680745, 56.512679)">
                                <g id="Group-24" transform="translate(0.126501, 0.037312)">
                                    <polygon id="Path-17" fill="#58BF00" transform="translate(1.549230, 1.182201) rotate(-9.000000) translate(-1.549230, -1.182201) " points="0.211703695 1.11537248 1.60531323 2.12503803 2.88675621 1.13909433 1.49271126 0.239364324"></polygon>
                                    <polygon id="Path-15" fill="#8AD500" points="0.221607543 1.31447814 1.75078738 2.103363 1.75078738 4.18722498 0.221607543 3.43784526"></polygon>
                                    <polygon id="Path-16" fill="#50AC02" points="1.75592353 2.10373774 1.73770594 2.05915142 1.73770594 4.18673092 2.87890833 3.03714986 2.86256133 0.917523592"></polygon>
                                </g>
                            </g>
                        </g>
                    </g>
                    <g id="waikuang" stroke="#BFC6D3" stroke-dasharray="5" stroke-linecap="square">
                        <path d="M49.9624712,0.867873161 L131.403566,39.1462207 L131.403566,86.7011056 L81.405554,137.006262 L1.39473207,99.9969811 L1.39473207,51.3905019 L49.9624712,0.867873161 Z" id="Line-27"></path>
                        <path d="M130.028319,86.098339 L88.9700625,66.6828394 M54.1888906,51.0185508 L50.0174971,49.0890584" id="Line-27"></path>
                        <path d="M50.1182382,2.60386589 L50.1182382,50.1587508 L0.120226006,100.463907" id="Line-27"></path>
                        <path d="M1.42082808,51.1796748 L80.4208281,88.1796748 L130.569071,37.8107284" id="Line"></path>
                        <path d="M81.5,87.5 L81.5,136.5" id="Line-2"></path>
                    </g>
                </g>
                <g id="数字资产" transform="translate(0.257429, 0.074896)">
                    <g id="Group-34" transform="translate(43.000000, 37.000000)">
                        <g id="Group-33" transform="translate(0.638174, 0.587707)">
                            <polygon id="Combined-Shape" fill="#BFC6D3" points="33.0762331 38.0719306 39.5257529 39.574889 24.7582674 54.6923548 10.8567989 68.9170787 15.6886291 55.9455587 0.741035636 42.8387967 19.6610793 3.50208299 42.4475764 0.143836671"></polygon>
                            <polygon id="Combined-Shape" fill="#50AC02" points="39.6666796 39.3900199 46.1161994 40.8929783 31.3487139 56.0104441 17.4472454 70.235168 22.2790756 57.263648 7.33148213 44.156886 26.2515258 4.82017229 49.0380229 1.46192597"></polygon>
                            <path d="M31.4238405,48.1493698 L32.2931878,51.0645273" id="Line-14" stroke="#74BF35" stroke-linecap="square"></path>
                            <path d="M35.5884111,44.4740808 L39.542679,44.4740808" id="Line-15" stroke="#74BF35" stroke-linecap="square"></path>
                            <path d="M24.7588096,48.3296371 L16.4761162,41.8379022" id="Line-10" stroke="#74BF35" stroke-linecap="square"></path>
                            <path d="M31.4238405,41.8379022 L28.3389199,14.1580269" id="Line-7" stroke="#74BF35" stroke-linecap="square"></path>
                            <polygon id="Path-53" fill="#58BF00" points="26.3267146 4.77556982 19.7439284 3.50499323 0.783386483 42.9883828 7.30952985 44.1578908"></polygon>
                            <polygon id="Path-54" fill="#3E8700" points="0.911594484 43.0205742 7.41050136 44.1453999 22.3229573 57.2324333 15.6326443 55.8960738"></polygon>
                            <polygon id="Path-55" fill="#58BF00" points="15.6384503 55.9641981 10.9045831 68.8797595 17.4665824 70.2420527 22.3221832 57.1919845"></polygon>
                            <polygon id="Path-56" fill="#429000" points="19.7736056 3.49920005 26.3731341 4.80229079 49.0122955 1.48853694 42.4835379 0.155821156"></polygon>
                            <path d="M35.160569,40.4211013 L38.8836343,19.4303841" id="Line-38" stroke="#74BF35" stroke-linecap="square"></path>
                            <path d="M27.5257079,52.8162252 L26.2076186,56.7704931" id="Line-11" stroke="#74BF35" stroke-linecap="square"></path>
                            <path d="M27.5257079,43.8150362 L20.4303841,28.6570092" id="Line-8" stroke="#74BF35" stroke-linecap="square"></path>
                            <g id="Group-32" transform="translate(37.385522, 34.665726)">
                                <g id="Group-24" transform="translate(0.641933, 0.189342)">
                                    <polygon id="Path-17" fill="#58BF00" transform="translate(7.861584, 5.999093) rotate(-9.000000) translate(-7.861584, -5.999093) " points="1.07429271 5.65996985 8.14617953 10.7835287 14.6488759 5.78034662 7.5747796 1.21465688"></polygon>
                                    <polygon id="Path-15" fill="#8AD500" points="1.1245499 6.67033366 8.88438969 10.6735385 8.88438969 21.2481189 1.1245499 17.4453833"></polygon>
                                    <polygon id="Path-16" fill="#50AC02" points="8.91045311 10.6754401 8.81800775 10.4491863 8.81800775 21.2456117 14.6090518 15.4120501 14.5260987 4.65598349"></polygon>
                                </g>
                            </g>
                            <g id="Group-32" transform="translate(33.183435, 45.967965)">
                                <g id="Group-24" transform="translate(0.442033, 0.130380)">
                                    <polygon id="Path-17" fill="#58BF00" transform="translate(5.413457, 4.130953) rotate(-9.000000) translate(-5.413457, -4.130953) " points="0.739753916 3.89743393 5.60942856 7.42549725 10.0871608 3.98032492 5.21596471 0.836408151"></polygon>
                                    <polygon id="Path-15" fill="#8AD500" points="0.774360825 4.59316664 6.11775729 7.34975844 6.11775729 14.6313747 0.774360825 12.0128253"></polygon>
                                    <polygon id="Path-16" fill="#50AC02" points="6.13570446 7.35106789 6.07204694 7.19527038 6.07204694 14.6296483 10.059738 10.6126797 10.0026169 3.2060927"></polygon>
                                </g>
                            </g>
                            <g id="Group-32" transform="translate(40.680745, 37.291566)">
                                <g id="Group-24" transform="translate(0.127495, 0.037606)">
                                    <polygon id="Path-17" fill="#58BF00" transform="translate(1.561399, 1.191487) rotate(-9.000000) translate(-1.561399, -1.191487) " points="0.213366595 1.12413356 1.61792272 2.14172988 2.90943123 1.14804174 1.50443628 0.241244494"></polygon>
                                    <polygon id="Path-15" fill="#8AD500" points="0.223348236 1.32480316 1.76453955 2.1198846 1.76453955 4.22011499 0.223348236 3.464849"></polygon>
                                    <polygon id="Path-16" fill="#50AC02" points="1.76971603 2.12026228 1.75135535 2.07532573 1.75135535 4.21961704 2.90152171 3.0610062 2.8850463 0.924730598"></polygon>
                                </g>
                            </g>
                            <g id="Group-32" transform="translate(40.680745, 56.512679)">
                                <g id="Group-24" transform="translate(0.126501, 0.037312)">
                                    <polygon id="Path-17" fill="#58BF00" transform="translate(1.549230, 1.182201) rotate(-9.000000) translate(-1.549230, -1.182201) " points="0.211703695 1.11537248 1.60531323 2.12503803 2.88675621 1.13909433 1.49271126 0.239364324"></polygon>
                                    <polygon id="Path-15" fill="#8AD500" points="0.221607543 1.31447814 1.75078738 2.103363 1.75078738 4.18722498 0.221607543 3.43784526"></polygon>
                                    <polygon id="Path-16" fill="#50AC02" points="1.75592353 2.10373774 1.73770594 2.05915142 1.73770594 4.18673092 2.87890833 3.03714986 2.86256133 0.917523592"></polygon>
                                </g>
                            </g>
                        </g>
                    </g>
                    <g id="waikuang" stroke="#BFC6D3" stroke-dasharray="5" stroke-linecap="square">
                        <path d="M49.9624712,0.867873161 L131.403566,39.1462207 L131.403566,86.7011056 L81.405554,137.006262 L1.39473207,99.9969811 L1.39473207,51.3905019 L49.9624712,0.867873161 Z" id="Line-27"></path>
                        <path d="M130.028319,86.098339 L88.9700625,66.6828394 M54.1888906,51.0185508 L50.0174971,49.0890584" id="Line-27"></path>
                        <path d="M50.1182382,2.60386589 L50.1182382,50.1587508 L0.120226006,100.463907" id="Line-27"></path>
                        <path d="M1.42082808,51.1796748 L80.4208281,88.1796748 L130.569071,37.8107284" id="Line"></path>
                        <path d="M81.5,87.5 L81.5,136.5" id="Line-2"></path>
                    </g>
                </g>
                <g id="数字资产" transform="translate(0.257429, 0.074896)">
                    <g id="Group-34" transform="translate(43.000000, 37.000000)">
                        <g id="Group-33" transform="translate(0.638174, 0.587707)">
                            <polygon id="Combined-Shape" fill="#BFC6D3" points="33.0762331 38.0719306 39.5257529 39.574889 24.7582674 54.6923548 10.8567989 68.9170787 15.6886291 55.9455587 0.741035636 42.8387967 19.6610793 3.50208299 42.4475764 0.143836671"></polygon>
                            <polygon id="Combined-Shape" fill="#50AC02" points="39.6666796 39.3900199 46.1161994 40.8929783 31.3487139 56.0104441 17.4472454 70.235168 22.2790756 57.263648 7.33148213 44.156886 26.2515258 4.82017229 49.0380229 1.46192597"></polygon>
                            <path d="M31.4238405,48.1493698 L32.2931878,51.0645273" id="Line-14" stroke="#74BF35" stroke-linecap="square"></path>
                            <path d="M35.5884111,44.4740808 L39.542679,44.4740808" id="Line-15" stroke="#74BF35" stroke-linecap="square"></path>
                            <path d="M24.7588096,48.3296371 L16.4761162,41.8379022" id="Line-10" stroke="#74BF35" stroke-linecap="square"></path>
                            <path d="M31.4238405,41.8379022 L28.3389199,14.1580269" id="Line-7" stroke="#74BF35" stroke-linecap="square"></path>
                            <polygon id="Path-53" fill="#58BF00" points="26.3267146 4.77556982 19.7439284 3.50499323 0.783386483 42.9883828 7.30952985 44.1578908"></polygon>
                            <polygon id="Path-54" fill="#3E8700" points="0.911594484 43.0205742 7.41050136 44.1453999 22.3229573 57.2324333 15.6326443 55.8960738"></polygon>
                            <polygon id="Path-55" fill="#58BF00" points="15.6384503 55.9641981 10.9045831 68.8797595 17.4665824 70.2420527 22.3221832 57.1919845"></polygon>
                            <polygon id="Path-56" fill="#429000" points="19.7736056 3.49920005 26.3731341 4.80229079 49.0122955 1.48853694 42.4835379 0.155821156"></polygon>
                            <path d="M35.160569,40.4211013 L38.8836343,19.4303841" id="Line-38" stroke="#74BF35" stroke-linecap="square"></path>
                            <path d="M27.5257079,52.8162252 L26.2076186,56.7704931" id="Line-11" stroke="#74BF35" stroke-linecap="square"></path>
                            <path d="M27.5257079,43.8150362 L20.4303841,28.6570092" id="Line-8" stroke="#74BF35" stroke-linecap="square"></path>
                            <g id="Group-32" transform="translate(37.385522, 34.665726)">
                                <g id="Group-24" transform="translate(0.641933, 0.189342)">
                                    <polygon id="Path-17" fill="#58BF00" transform="translate(7.861584, 5.999093) rotate(-9.000000) translate(-7.861584, -5.999093) " points="1.07429271 5.65996985 8.14617953 10.7835287 14.6488759 5.78034662 7.5747796 1.21465688"></polygon>
                                    <polygon id="Path-15" fill="#8AD500" points="1.1245499 6.67033366 8.88438969 10.6735385 8.88438969 21.2481189 1.1245499 17.4453833"></polygon>
                                    <polygon id="Path-16" fill="#50AC02" points="8.91045311 10.6754401 8.81800775 10.4491863 8.81800775 21.2456117 14.6090518 15.4120501 14.5260987 4.65598349"></polygon>
                                </g>
                            </g>
                            <g id="Group-32" transform="translate(33.183435, 45.967965)">
                                <g id="Group-24" transform="translate(0.442033, 0.130380)">
                                    <polygon id="Path-17" fill="#58BF00" transform="translate(5.413457, 4.130953) rotate(-9.000000) translate(-5.413457, -4.130953) " points="0.739753916 3.89743393 5.60942856 7.42549725 10.0871608 3.98032492 5.21596471 0.836408151"></polygon>
                                    <polygon id="Path-15" fill="#8AD500" points="0.774360825 4.59316664 6.11775729 7.34975844 6.11775729 14.6313747 0.774360825 12.0128253"></polygon>
                                    <polygon id="Path-16" fill="#50AC02" points="6.13570446 7.35106789 6.07204694 7.19527038 6.07204694 14.6296483 10.059738 10.6126797 10.0026169 3.2060927"></polygon>
                                </g>
                            </g>
                            <g id="Group-32" transform="translate(40.680745, 37.291566)">
                                <g id="Group-24" transform="translate(0.127495, 0.037606)">
                                    <polygon id="Path-17" fill="#58BF00" transform="translate(1.561399, 1.191487) rotate(-9.000000) translate(-1.561399, -1.191487) " points="0.213366595 1.12413356 1.61792272 2.14172988 2.90943123 1.14804174 1.50443628 0.241244494"></polygon>
                                    <polygon id="Path-15" fill="#8AD500" points="0.223348236 1.32480316 1.76453955 2.1198846 1.76453955 4.22011499 0.223348236 3.464849"></polygon>
                                    <polygon id="Path-16" fill="#50AC02" points="1.76971603 2.12026228 1.75135535 2.07532573 1.75135535 4.21961704 2.90152171 3.0610062 2.8850463 0.924730598"></polygon>
                                </g>
                            </g>
                            <g id="Group-32" transform="translate(40.680745, 56.512679)">
                                <g id="Group-24" transform="translate(0.126501, 0.037312)">
                                    <polygon id="Path-17" fill="#58BF00" transform="translate(1.549230, 1.182201) rotate(-9.000000) translate(-1.549230, -1.182201) " points="0.211703695 1.11537248 1.60531323 2.12503803 2.88675621 1.13909433 1.49271126 0.239364324"></polygon>
                                    <polygon id="Path-15" fill="#8AD500" points="0.221607543 1.31447814 1.75078738 2.103363 1.75078738 4.18722498 0.221607543 3.43784526"></polygon>
                                    <polygon id="Path-16" fill="#50AC02" points="1.75592353 2.10373774 1.73770594 2.05915142 1.73770594 4.18673092 2.87890833 3.03714986 2.86256133 0.917523592"></polygon>
                                </g>
                            </g>
                        </g>
                    </g>
                    <g id="waikuang" stroke="#BFC6D3" stroke-dasharray="5" stroke-linecap="square">
                        <path d="M49.9624712,0.867873161 L131.403566,39.1462207 L131.403566,86.7011056 L81.405554,137.006262 L1.39473207,99.9969811 L1.39473207,51.3905019 L49.9624712,0.867873161 Z" id="Line-27"></path>
                        <path d="M130.028319,86.098339 L88.9700625,66.6828394 M54.1888906,51.0185508 L50.0174971,49.0890584" id="Line-27"></path>
                        <path d="M50.1182382,2.60386589 L50.1182382,50.1587508 L0.120226006,100.463907" id="Line-27"></path>
                        <path d="M1.42082808,51.1796748 L80.4208281,88.1796748 L130.569071,37.8107284" id="Line"></path>
                        <path d="M81.5,87.5 L81.5,136.5" id="Line-2"></path>
                    </g>
                </g>
            </g>
        </g>
    </g>
</svg>