<?xml version="1.0" encoding="utf-8"?>
<!-- Generator: Adobe Illustrator 22.1.0, SVG Export Plug-In . SVG Version: 6.00 Build 0)  -->
<svg version="1.1" id="Layer_1" xmlns="http://www.w3.org/2000/svg" xmlns:xlink="http://www.w3.org/1999/xlink" x="0px" y="0px"
	 viewBox="0 0 395 395" style="enable-background:new 0 0 395 395;" xml:space="preserve">
<style type="text/css">
	.st0{fill:#FFFFFF;}
	.st1{fill:#478E0A;}
	.st2{fill:#B4E700;}
</style>
<path class="st0" d="M202.4,6.2L202.4,6.2c-60.6,0-110,49.5-110,110l0,0c0,60.6,49.5,110,110,110l0,0c60.6,0,110-49.5,110-110l0,0
	C312.5,55.7,263,6.2,202.4,6.2z"/>
<path class="st1" d="M202.4,232.4c-64.3,0-116.2-51.9-116.2-116.2S138.1,0,202.4,0s116.2,51.9,116.2,116.2S266.7,232.4,202.4,232.4z
	 M202.4,12.3c-57.5,0-103.8,46.4-103.8,103.8S144.9,220,202.4,220s103.8-46.4,103.8-103.8S259.9,12.3,202.4,12.3z"/>
<path class="st2" d="M202.4,201.5c-47,0-85.3-38.3-85.3-85.3s38.3-85.3,85.3-85.3s85.3,38.3,85.3,85.3S249.4,201.5,202.4,201.5z"/>
<rect x="10.7" y="226.3" class="st0" width="58.7" height="135.4"/>
<g>
	<path class="st1" d="M202.4,110.7c-8,0-14.9-6.8-14.9-14.8s6.8-14.8,14.9-14.8s14.9,6.8,14.9,14.8h12.3c0-13-9.2-23.5-21-26.6v-9.9
		h-12.3v9.9c-12.3,3.1-21,13.6-21,26.6c0,14.8,12.3,27.2,27.2,27.2c8,0,14.9,6.8,14.9,14.9s-6.8,14.8-14.9,14.8
		c-8,0-14.9-6.8-14.9-14.8h-12.3c0,13,9.2,23.5,21,26.6v8.7h12.3v-8.7c12.3-3.1,21-13.6,21-26.6C229.6,123,217.2,110.7,202.4,110.7z
		"/>
	<rect x="33.6" y="253.5" class="st1" width="12.3" height="12.3"/>
	<rect x="33.6" y="288.1" class="st1" width="12.3" height="12.3"/>
	<rect x="33.6" y="322.7" class="st1" width="12.3" height="12.3"/>
	<rect x="253.7" y="109.4" class="st1" width="12.3" height="13.6"/>
	<rect x="138.7" y="109.4" class="st1" width="12.3" height="13.6"/>
	<path class="st1" d="M387.8,282.5c-6.2-13-21-19.1-34-14.2l-84,28.4c0.6-1.9,0.6-4.3,0.6-6.8c0-16.1-13-29-29-29H179
		c-1.9,0-4.3-0.6-6.2-1.2l-40.2-21l-0.6-0.6c-3.7-1.2-7.4-1.9-11.1-1.9H75.7v-16.7h-71v147.7h71.1v-13h15.5l115,38.3
		c4.3,1.2,8.7,2.5,13.6,2.5c6.8,0,13.6-1.9,19.8-5l136.6-72.3C388.5,311.6,394,296.1,387.8,282.5z M63.3,355.4v0.6H17V232.4h46.4
		L63.3,355.4L63.3,355.4z M369.9,307.8l-136.6,71.7c-7.4,3.7-16.1,4.3-24.1,1.9L92.4,342.5H75.1v-93.3h45.1c2.5,0,4.3,0.6,6.8,1.2
		l40.2,21l0.6,0.6c3.1,1.2,6.8,1.9,10.5,1.9h62.4c9.2,0,16.7,7.4,16.7,16.7c0,4.9-2.5,9.2-5.6,12.3l-11.8,4.3h-50.7
		c-13,0-23.5,10.5-23.5,23.5h12.3c0-6.2,4.9-11.1,11.1-11.1h51.3c6.2,0,11.8-1.9,16.7-5.6l99.6-34c7.4-2.5,15.5,0.6,18.6,8
		C379.8,294.9,377.4,304.2,369.9,307.8z"/>
</g>
</svg>
