<svg width="132" height="137" xmlns="http://www.w3.org/2000/svg"><g fill="none" fill-rule="evenodd"><path fill="#BFC6D3" d="M75.97 75.73l6.45 1.5-14.77 15.12-13.9 14.23 4.83-12.97-14.94-13.1 18.92-39.35 22.78-3.35z"/><path fill="#50AC02" d="M82.56 77.05l6.45 1.5-14.77 15.12-13.9 14.23 4.83-12.97-14.94-13.11 18.92-39.34 22.78-3.36z"/><path d="M74.32 85.81l.87 2.92M78.48 82.14h3.96M67.65 86l-8.28-6.5M74.32 79.5l-3.09-27.68" stroke="#74BF35" stroke-linecap="square"/><path fill="#58BF00" d="M69.22 42.44l-6.58-1.27-18.96 39.48 6.53 1.17z"/><path fill="#3E8700" d="M43.8 80.68l6.5 1.13L65.23 94.9l-6.7-1.34z"/><path fill="#58BF00" d="M58.53 93.63l-4.73 12.91 6.56 1.36 4.86-13.05z"/><path fill="#429000" d="M62.67 41.16l6.6 1.3 22.64-3.3-6.53-1.34z"/><path d="M78.06 78.08l3.72-20.99M70.42 90.48l-1.32 3.95M70.42 81.48l-7.1-15.16" stroke="#74BF35" stroke-linecap="square"/><path fill="#58BF00" d="M82.03 79.24l7.78 3.96 5.64-5.96-7.7-3.4z"/><path fill="#8AD500" d="M82.05 79.19l7.76 4v10.58l-7.76-3.8z"/><path fill="#50AC02" d="M89.83 83.2l-.09-.23v10.8l5.8-5.84-.1-10.76z"/><path fill="#58BF00" d="M77.28 88.4l5.36 2.72 3.89-4.1-5.3-2.35z"/><path fill="#8AD500" d="M77.3 88.35l5.34 2.76v7.28l-5.34-2.62z"/><path fill="#50AC02" d="M82.66 91.11l-.07-.15v7.43l4-4.02-.07-7.4z"/><g><path fill="#58BF00" d="M83.92 76.33l1.55.78 1.12-1.18-1.53-.68z"/><path fill="#8AD500" d="M83.93 76.32l1.54.8v2.1l-1.54-.76z"/><path fill="#50AC02" d="M85.47 77.11l-.01-.04v2.14l1.15-1.16-.02-2.13z"/></g><g><path fill="#58BF00" d="M83.92 95.54l1.53.78 1.12-1.18-1.52-.67z"/><path fill="#8AD500" d="M83.92 95.53l1.53.79v2.08l-1.53-.75z"/><path fill="#50AC02" d="M85.46 96.32l-.02-.05v2.13l1.14-1.15-.01-2.12z"/></g><g stroke="#BFC6D3" stroke-dasharray="5" stroke-linecap="square"><path d="M49.22.94l81.44 38.28v47.56l-50 50.3-80-37V51.46L49.21.94zM129.29 86.17L88.23 66.76M53.45 51.09l-4.18-1.93"/><path d="M49.38 2.68v47.55l-50 50.3"/><path d="M.68 51.25l79 37 50.15-50.36M80.76 87.57v49"/></g><g><path fill="#BFC6D3" d="M75.97 75.73l6.45 1.5-14.77 15.12-13.9 14.23 4.83-12.97-14.94-13.1 18.92-39.35 22.78-3.35z"/><path fill="#50AC02" d="M82.56 77.05l6.45 1.5-14.77 15.12-13.9 14.23 4.83-12.97-14.94-13.11 18.92-39.34 22.78-3.36z"/><path d="M74.32 85.81l.87 2.92M78.48 82.14h3.96M67.65 86l-8.28-6.5M74.32 79.5l-3.09-27.68" stroke="#74BF35" stroke-linecap="square"/><path fill="#58BF00" d="M69.22 42.44l-6.58-1.27-18.96 39.48 6.53 1.17z"/><path fill="#3E8700" d="M43.8 80.68l6.5 1.13L65.23 94.9l-6.7-1.34z"/><path fill="#58BF00" d="M58.53 93.63l-4.73 12.91 6.56 1.36 4.86-13.05z"/><path fill="#429000" d="M62.67 41.16l6.6 1.3 22.64-3.3-6.53-1.34z"/><path d="M78.06 78.08l3.72-20.99M70.42 90.48l-1.32 3.95M70.42 81.48l-7.1-15.16" stroke="#74BF35" stroke-linecap="square"/><path fill="#58BF00" d="M82.03 79.24l7.78 3.96 5.64-5.96-7.7-3.4z"/><path fill="#8AD500" d="M82.05 79.19l7.76 4v10.58l-7.76-3.8z"/><path fill="#50AC02" d="M89.83 83.2l-.09-.23v10.8l5.8-5.84-.1-10.76z"/><path fill="#58BF00" d="M77.28 88.4l5.36 2.72 3.89-4.1-5.3-2.35z"/><path fill="#8AD500" d="M77.3 88.35l5.34 2.76v7.28l-5.34-2.62z"/><path fill="#50AC02" d="M82.66 91.11l-.07-.15v7.43l4-4.02-.07-7.4z"/><g><path fill="#58BF00" d="M83.92 76.33l1.55.78 1.12-1.18-1.53-.68z"/><path fill="#8AD500" d="M83.93 76.32l1.54.8v2.1l-1.54-.76z"/><path fill="#50AC02" d="M85.47 77.11l-.01-.04v2.14l1.15-1.16-.02-2.13z"/></g><g><path fill="#58BF00" d="M83.92 95.54l1.53.78 1.12-1.18-1.52-.67z"/><path fill="#8AD500" d="M83.92 95.53l1.53.79v2.08l-1.53-.75z"/><path fill="#50AC02" d="M85.46 96.32l-.02-.05v2.13l1.14-1.15-.01-2.12z"/></g><g stroke="#BFC6D3" stroke-dasharray="5" stroke-linecap="square"><path d="M49.22.94l81.44 38.28v47.56l-50 50.3-80-37V51.46L49.21.94zM129.29 86.17L88.23 66.76M53.45 51.09l-4.18-1.93"/><path d="M49.38 2.68v47.55l-50 50.3"/><path d="M.68 51.25l79 37 50.15-50.36M80.76 87.57v49"/></g></g><g><path fill="#BFC6D3" d="M75.97 75.73l6.45 1.5-14.77 15.12-13.9 14.23 4.83-12.97-14.94-13.1 18.92-39.35 22.78-3.35z"/><path fill="#50AC02" d="M82.56 77.05l6.45 1.5-14.77 15.12-13.9 14.23 4.83-12.97-14.94-13.11 18.92-39.34 22.78-3.36z"/><path d="M74.32 85.81l.87 2.92M78.48 82.14h3.96M67.65 86l-8.28-6.5M74.32 79.5l-3.09-27.68" stroke="#74BF35" stroke-linecap="square"/><path fill="#58BF00" d="M69.22 42.44l-6.58-1.27-18.96 39.48 6.53 1.17z"/><path fill="#3E8700" d="M43.8 80.68l6.5 1.13L65.23 94.9l-6.7-1.34z"/><path fill="#58BF00" d="M58.53 93.63l-4.73 12.91 6.56 1.36 4.86-13.05z"/><path fill="#429000" d="M62.67 41.16l6.6 1.3 22.64-3.3-6.53-1.34z"/><path d="M78.06 78.08l3.72-20.99M70.42 90.48l-1.32 3.95M70.42 81.48l-7.1-15.16" stroke="#74BF35" stroke-linecap="square"/><path fill="#58BF00" d="M82.03 79.24l7.78 3.96 5.64-5.96-7.7-3.4z"/><path fill="#8AD500" d="M82.05 79.19l7.76 4v10.58l-7.76-3.8z"/><path fill="#50AC02" d="M89.83 83.2l-.09-.23v10.8l5.8-5.84-.1-10.76z"/><path fill="#58BF00" d="M77.28 88.4l5.36 2.72 3.89-4.1-5.3-2.35z"/><path fill="#8AD500" d="M77.3 88.35l5.34 2.76v7.28l-5.34-2.62z"/><path fill="#50AC02" d="M82.66 91.11l-.07-.15v7.43l4-4.02-.07-7.4z"/><g><path fill="#58BF00" d="M83.92 76.33l1.55.78 1.12-1.18-1.53-.68z"/><path fill="#8AD500" d="M83.93 76.32l1.54.8v2.1l-1.54-.76z"/><path fill="#50AC02" d="M85.47 77.11l-.01-.04v2.14l1.15-1.16-.02-2.13z"/></g><g><path fill="#58BF00" d="M83.92 95.54l1.53.78 1.12-1.18-1.52-.67z"/><path fill="#8AD500" d="M83.92 95.53l1.53.79v2.08l-1.53-.75z"/><path fill="#50AC02" d="M85.46 96.32l-.02-.05v2.13l1.14-1.15-.01-2.12z"/></g><g stroke="#BFC6D3" stroke-dasharray="5" stroke-linecap="square"><path d="M49.22.94l81.44 38.28v47.56l-50 50.3-80-37V51.46L49.21.94zM129.29 86.17L88.23 66.76M53.45 51.09l-4.18-1.93"/><path d="M49.38 2.68v47.55l-50 50.3"/><path d="M.68 51.25l79 37 50.15-50.36M80.76 87.57v49"/></g></g></g></svg>