<?xml version="1.0" encoding="utf-8"?>
<!-- Generator: Adobe Illustrator 22.1.0, SVG Export Plug-In . SVG Version: 6.00 Build 0)  -->
<svg version="1.1" id="Layer_1" xmlns="http://www.w3.org/2000/svg" xmlns:xlink="http://www.w3.org/1999/xlink" x="0px" y="0px"
	 viewBox="0 0 395.6 395.6" style="enable-background:new 0 0 395.6 395.6;" xml:space="preserve">
<style type="text/css">
	.st0{fill:#FFFFFF;}
	.st1{fill:#4FAB02;}
	.st2{fill:#8AD500;}
	.st3{fill:#B4E700;}
	.st4{fill:#E0E0E0;}
</style>
<g>
	<polygon class="st0" points="380.8,333.2 356.1,389.4 331.3,333.2 	"/>
	<rect x="331.4" y="179.8" class="st0" width="48.8" height="153.4"/>
</g>
<path class="st1" d="M316.5,0v34.6h-27.2v152.7h12.3V47h14.8v140.3h8.7v146.5c0,0.3,0,0.6,0.1,0.9s0.3,0.6,0.5,0.9l24.8,56.2
	c1.2,2.5,3.1,3.7,5.6,3.7s5-1.2,5.6-3.7l24.8-56.2c0-0.3,0.1-0.6,0.3-0.9c0.1-0.3,0.3-0.6,0.3-0.9V187.3h8.6V0H316.5z M356.1,374
	l-14.9-34.6h29.7L356.1,374z M374.6,327h-36.5V187.3h36.5V327z"/>
<rect x="329.4" y="12.9" class="st2" width="53.3" height="161.4"/>
<polygon class="st0" points="90.9,6.2 6.2,90.9 6.2,389.4 268.3,389.4 268.3,6.2 "/>
<rect x="56.9" y="137.2" class="st3" width="161.4" height="73.6"/>
<rect x="87.1" y="168.1" class="st1" width="100.1" height="12.3"/>
<path class="st4" d="M90.9,90.9V7.4c0-0.6-0.6-0.6-1.2-0.6L7.4,89.7c-0.6,0.6,0,1.2,0.6,1.2H90.9L90.9,90.9z"/>
<g>
	<path class="st1" d="M88.4,0L0,88.4v307.3h274.5V0H88.4z M84.7,21v63.7H21L84.7,21z M262.1,383.3H12.3V97H97V12.3h165L262.1,383.3
		L262.1,383.3z"/>
	<rect x="49.5" y="254.7" class="st1" width="174.9" height="12.3"/>
	<rect x="49.5" y="290.5" class="st1" width="174.9" height="12.3"/>
	<rect x="49.5" y="327" class="st1" width="174.9" height="12.3"/>
	<rect x="143.5" y="48.8" class="st1" width="12.3" height="12.3"/>
	<rect x="176.2" y="48.8" class="st1" width="12.3" height="12.3"/>
	<rect x="208.4" y="48.8" class="st1" width="12.3" height="12.3"/>
</g>
</svg>
