<svg width="132" height="138" xmlns="http://www.w3.org/2000/svg"><g fill="none" fill-rule="evenodd"><path fill="#50AC02" d="M59.88 59.6l-.08 8.04v40.8l19.3-20.41 4.28-8.38-.07-45.14z"/><path fill="#58BF00" d="M53.02 56.13l6.84 3.47 23.51-25.05-6.9-3.26z"/><path fill="#8AD500" d="M53.04 56.08l6.82 3.52.24 48.76-6.8-4.17z"/><path d="M63.29 76.84L79.7 59.32M63.29 83.4l10.95-12.04M63.63 89.35l7.42-7.98" stroke="#74BF35" stroke-linecap="square"/><g><path fill="#83C901" d="M62.56 69.52l1.94.5V72l-1.94-.64z"/><path fill="#58BF00" d="M62.53 69.52l1.95.5 9.61-9.92-2-.35z"/><path fill="#469800" d="M64.47 70.01v2l9.62-10.14v-1.78z"/><path fill="#58BF00" d="M62.05 60.54l2.06.52 5.44-5.62 3.88-4.5-1.83-.34-2.08 2.18-4.24 4.26z"/><path fill="#83C901" d="M65.26 49h2.03v8.46l-2.03-.42zM63.05 45.98l2.21.23v5.23l-2.21-.52z"/><path fill="#469800" d="M65.22 46.22l-.06 5.36 2.12-2.49v8.31L64 60.97l-.09 7.43 9.55-9.92v-7.66l-3.95 4.6V46.9l1.2-1.72-.1-5.18z"/><path fill="#83C901" d="M62.02 60.53l2.03.45-.1 7.42-1.93-.5z"/><path fill="#58BF00" d="M63.06 45.98l2.18.29L70.62 40h-1.88z"/></g><path fill="#74BF35" d="M83.4 79.62l-6.65 4.21 2.32 4.21z"/><g stroke="#BFC6D3" stroke-dasharray="5" stroke-linecap="square"><path d="M49.29 1.33l81.44 38.28v47.55l-50 50.3-80.01-37v-48.6L49.29 1.32zM129.35 86.56L88.3 67.15M53.51 51.48l-4.17-1.93"/><path d="M49.44 3.07v47.55l-50 50.3"/><path d="M.75 51.64l79 37 50.14-50.37M80.82 87.96v49"/></g><g><path fill="#50AC02" d="M59.88 59.6l-.08 8.04v40.8l19.3-20.41 4.28-8.38-.07-45.14z"/><path fill="#58BF00" d="M53.02 56.13l6.84 3.47 23.51-25.05-6.9-3.26z"/><path fill="#8AD500" d="M53.04 56.08l6.82 3.52.24 48.76-6.8-4.17z"/><path d="M63.29 76.84L79.7 59.32M63.29 83.4l10.95-12.04M63.63 89.35l7.42-7.98" stroke="#74BF35" stroke-linecap="square"/><g><path fill="#83C901" d="M62.56 69.52l1.94.5V72l-1.94-.64z"/><path fill="#58BF00" d="M62.53 69.52l1.95.5 9.61-9.92-2-.35z"/><path fill="#469800" d="M64.47 70.01v2l9.62-10.14v-1.78z"/><path fill="#58BF00" d="M62.05 60.54l2.06.52 5.44-5.62 3.88-4.5-1.83-.34-2.08 2.18-4.24 4.26z"/><path fill="#83C901" d="M65.26 49h2.03v8.46l-2.03-.42zM63.05 45.98l2.21.23v5.23l-2.21-.52z"/><path fill="#469800" d="M65.22 46.22l-.06 5.36 2.12-2.49v8.31L64 60.97l-.09 7.43 9.55-9.92v-7.66l-3.95 4.6V46.9l1.2-1.72-.1-5.18z"/><path fill="#83C901" d="M62.02 60.53l2.03.45-.1 7.42-1.93-.5z"/><path fill="#58BF00" d="M63.06 45.98l2.18.29L70.62 40h-1.88z"/></g><path fill="#74BF35" d="M83.4 79.62l-6.65 4.21 2.32 4.21z"/><g stroke="#BFC6D3" stroke-dasharray="5" stroke-linecap="square"><path d="M49.29 1.33l81.44 38.28v47.55l-50 50.3-80.01-37v-48.6L49.29 1.32zM129.35 86.56L88.3 67.15M53.51 51.48l-4.17-1.93"/><path d="M49.44 3.07v47.55l-50 50.3"/><path d="M.75 51.64l79 37 50.14-50.37M80.82 87.96v49"/></g></g><g><path fill="#50AC02" d="M59.88 59.6l-.08 8.04v40.8l19.3-20.41 4.28-8.38-.07-45.14z"/><path fill="#58BF00" d="M53.02 56.13l6.84 3.47 23.51-25.05-6.9-3.26z"/><path fill="#8AD500" d="M53.04 56.08l6.82 3.52.24 48.76-6.8-4.17z"/><path d="M63.29 76.84L79.7 59.32M63.29 83.4l10.95-12.04M63.63 89.35l7.42-7.98" stroke="#74BF35" stroke-linecap="square"/><g><path fill="#83C901" d="M62.56 69.52l1.94.5V72l-1.94-.64z"/><path fill="#58BF00" d="M62.53 69.52l1.95.5 9.61-9.92-2-.35z"/><path fill="#469800" d="M64.47 70.01v2l9.62-10.14v-1.78z"/><path fill="#58BF00" d="M62.05 60.54l2.06.52 5.44-5.62 3.88-4.5-1.83-.34-2.08 2.18-4.24 4.26z"/><path fill="#83C901" d="M65.26 49h2.03v8.46l-2.03-.42zM63.05 45.98l2.21.23v5.23l-2.21-.52z"/><path fill="#469800" d="M65.22 46.22l-.06 5.36 2.12-2.49v8.31L64 60.97l-.09 7.43 9.55-9.92v-7.66l-3.95 4.6V46.9l1.2-1.72-.1-5.18z"/><path fill="#83C901" d="M62.02 60.53l2.03.45-.1 7.42-1.93-.5z"/><path fill="#58BF00" d="M63.06 45.98l2.18.29L70.62 40h-1.88z"/></g><path fill="#74BF35" d="M83.4 79.62l-6.65 4.21 2.32 4.21z"/><g stroke="#BFC6D3" stroke-dasharray="5" stroke-linecap="square"><path d="M49.29 1.33l81.44 38.28v47.55l-50 50.3-80.01-37v-48.6L49.29 1.32zM129.35 86.56L88.3 67.15M53.51 51.48l-4.17-1.93"/><path d="M49.44 3.07v47.55l-50 50.3"/><path d="M.75 51.64l79 37 50.14-50.37M80.82 87.96v49"/></g></g></g></svg>