<?xml version="1.0" encoding="UTF-8"?>
<svg width="132px" height="138px" viewBox="0 0 132 138" version="1.1" xmlns="http://www.w3.org/2000/svg" xmlns:xlink="http://www.w3.org/1999/xlink">
    <!-- Generator: Sketch 50.2 (55047) - http://www.bohemiancoding.com/sketch -->
    <title>Group 62</title>
    <desc>Created with Sketch.</desc>
    <defs></defs>
    <g id="Page-1" stroke="none" stroke-width="1" fill="none" fill-rule="evenodd">
        <g id="首页编辑版" transform="translate(-649.000000, -2747.000000)">
            <g id="Group-62" transform="translate(647.000000, 2746.000000)">
                <g id="智能合约" transform="translate(0.739086, 0.727089)">
                    <g id="Group-45" transform="translate(50.169603, 29.735438)">
                        <g id="Group-44">
                            <g id="Group-24" transform="translate(0.297815, 0.776551)">
                                <polygon id="Path-16" fill="#50AC02" points="10.6734091 29.360819 10.5921864 37.4027493 10.5921864 47.0107398 10.5921864 78.1980421 29.9025658 57.7912204 34.1754882 49.4105374 34.1083454 4.26906497"></polygon>
                                <polygon id="Path-17" fill="#58BF00" transform="translate(19.006484, 15.200660) rotate(-9.000000) translate(-19.006484, -15.200660) " points="2.33008371 23.3827283 8.54345366 27.8842945 35.6828849 6.81411648 29.374302 2.51702477"></polygon>
                                <polygon id="Path-15" fill="#8AD500" points="3.83270329 25.8419266 10.6505097 29.3591482 10.8962327 78.1252692 4.09382664 73.950916"></polygon>
                                <path d="M14.081588,46.5964227 L30.5036795,29.079525" id="Line-36" stroke="#74BF35" stroke-linecap="square"></path>
                                <path d="M14.081588,53.1652593 L25.029649,41.1223921" id="Line-36" stroke="#74BF35" stroke-linecap="square"></path>
                                <path d="M14.426159,59.1110596 L21.8398721,51.1260918" id="Line-36" stroke="#74BF35" stroke-linecap="square"></path>
                            </g>
                            <g id="Group-34" transform="translate(10.728280, 9.215473)">
                                <g id="Group-31" transform="translate(0.000000, 0.040174)">
                                    <g id="Group-29" transform="translate(0.394382, 0.709878)">
                                        <g id="Group-33" transform="translate(0.715050, 19.692174)">
                                            <polygon id="Rectangle" fill="#83C901" points="1.81301451 10.400355 3.74970695 10.9018564 3.74970695 12.875764 1.81301451 12.2426629"></polygon>
                                            <polygon id="Path-17" fill="#58BF00" transform="translate(7.576639, 5.765771) rotate(-9.000000) translate(-7.576639, -5.765771) " points="1.13244395 9.43253057 2.97680451 10.2447975 14.020835 1.94056744 12.1030392 1.28674495"></polygon>
                                            <polygon id="Path-61" fill="#469800" points="3.72297965 10.8939423 3.72297965 12.89019 13.3450531 2.74596716 13.3450531 0.966612247"></polygon>
                                        </g>
                                        <polygon id="Path-17" fill="#58BF00" transform="translate(7.726231, 16.418471) rotate(-9.000000) translate(-7.726231, -16.418471) " points="1.35352898 20.1629176 3.30617347 21.0014607 9.56377657 16.2989794 14.0989322 12.4549578 12.3473261 11.835481 9.94816171 13.6615161 5.09576622 17.2083892"></polygon>
                                        <polygon id="Rectangle" fill="#83C901" points="5.23040994 9.56899687 7.25948609 9.56899687 7.25948609 18.0368771 5.23040994 17.6124224"></polygon>
                                        <polygon id="Rectangle" fill="#83C901" points="3.01568301 6.54852735 5.23040994 6.78638672 5.23040994 12.0148464 3.01568301 11.4871396"></polygon>
                                        <polygon id="Path-16" fill="#469800" points="5.18663716 6.79689732 5.13245594 12.1492634 7.2449956 9.6654532 7.2449956 17.974509 3.9828551 21.5457785 3.89055458 28.9754999 13.4388431 19.0486252 13.4388431 11.396715 9.48562861 15.9927313 9.48562861 7.46838671 10.6794987 5.75226787 10.5966757 0.567425791"></polygon>
                                        <polygon id="Rectangle" fill="#83C901" points="1.99064437 21.0974168 4.01972052 21.5472489 3.92103258 28.9754999 1.99064437 28.4712365"></polygon>
                                    </g>
                                </g>
                                <polygon id="Path-17" fill="#58BF00" transform="translate(7.227181, 4.480974) rotate(-9.000000) translate(-7.227181, -4.480974) " points="3.02682582 6.67456936 5.1378256 7.29676996 11.4275355 1.95938617 9.56997806 1.66517797"></polygon>
                            </g>
                        </g>
                        <polygon id="Path-60" fill="#74BF35" points="34.5004004 50.1565915 27.8459808 54.3690767 30.1629252 58.5815618"></polygon>
                    </g>
                    <g id="waikuang" transform="translate(0.585130, 0.735438)" stroke="#BFC6D3" stroke-dasharray="5" stroke-linecap="square">
                        <path d="M49.9624712,0.867873161 L131.403566,39.1462207 L131.403566,86.7011056 L81.405554,137.006262 L1.39473207,99.9969811 L1.39473207,51.3905019 L49.9624712,0.867873161 Z" id="Line-27"></path>
                        <path d="M130.028319,86.098339 L88.9700625,66.6828394 M54.1888906,51.0185508 L50.0174971,49.0890584" id="Line-27"></path>
                        <path d="M50.1182382,2.60386589 L50.1182382,50.1587508 L0.120226006,100.463907" id="Line-27"></path>
                        <path d="M1.42082808,51.1796748 L80.4208281,88.1796748 L130.569071,37.8107284" id="Line"></path>
                        <path d="M81.5,87.5 L81.5,136.5" id="Line-2"></path>
                    </g>
                </g>
                <g id="智能合约" transform="translate(0.739086, 0.727089)">
                    <g id="Group-45" transform="translate(50.169603, 29.735438)">
                        <g id="Group-44">
                            <g id="Group-24" transform="translate(0.297815, 0.776551)">
                                <polygon id="Path-16" fill="#50AC02" points="10.6734091 29.360819 10.5921864 37.4027493 10.5921864 47.0107398 10.5921864 78.1980421 29.9025658 57.7912204 34.1754882 49.4105374 34.1083454 4.26906497"></polygon>
                                <polygon id="Path-17" fill="#58BF00" transform="translate(19.006484, 15.200660) rotate(-9.000000) translate(-19.006484, -15.200660) " points="2.33008371 23.3827283 8.54345366 27.8842945 35.6828849 6.81411648 29.374302 2.51702477"></polygon>
                                <polygon id="Path-15" fill="#8AD500" points="3.83270329 25.8419266 10.6505097 29.3591482 10.8962327 78.1252692 4.09382664 73.950916"></polygon>
                                <path d="M14.081588,46.5964227 L30.5036795,29.079525" id="Line-36" stroke="#74BF35" stroke-linecap="square"></path>
                                <path d="M14.081588,53.1652593 L25.029649,41.1223921" id="Line-36" stroke="#74BF35" stroke-linecap="square"></path>
                                <path d="M14.426159,59.1110596 L21.8398721,51.1260918" id="Line-36" stroke="#74BF35" stroke-linecap="square"></path>
                            </g>
                            <g id="Group-34" transform="translate(10.728280, 9.215473)">
                                <g id="Group-31" transform="translate(0.000000, 0.040174)">
                                    <g id="Group-29" transform="translate(0.394382, 0.709878)">
                                        <g id="Group-33" transform="translate(0.715050, 19.692174)">
                                            <polygon id="Rectangle" fill="#83C901" points="1.81301451 10.400355 3.74970695 10.9018564 3.74970695 12.875764 1.81301451 12.2426629"></polygon>
                                            <polygon id="Path-17" fill="#58BF00" transform="translate(7.576639, 5.765771) rotate(-9.000000) translate(-7.576639, -5.765771) " points="1.13244395 9.43253057 2.97680451 10.2447975 14.020835 1.94056744 12.1030392 1.28674495"></polygon>
                                            <polygon id="Path-61" fill="#469800" points="3.72297965 10.8939423 3.72297965 12.89019 13.3450531 2.74596716 13.3450531 0.966612247"></polygon>
                                        </g>
                                        <polygon id="Path-17" fill="#58BF00" transform="translate(7.726231, 16.418471) rotate(-9.000000) translate(-7.726231, -16.418471) " points="1.35352898 20.1629176 3.30617347 21.0014607 9.56377657 16.2989794 14.0989322 12.4549578 12.3473261 11.835481 9.94816171 13.6615161 5.09576622 17.2083892"></polygon>
                                        <polygon id="Rectangle" fill="#83C901" points="5.23040994 9.56899687 7.25948609 9.56899687 7.25948609 18.0368771 5.23040994 17.6124224"></polygon>
                                        <polygon id="Rectangle" fill="#83C901" points="3.01568301 6.54852735 5.23040994 6.78638672 5.23040994 12.0148464 3.01568301 11.4871396"></polygon>
                                        <polygon id="Path-16" fill="#469800" points="5.18663716 6.79689732 5.13245594 12.1492634 7.2449956 9.6654532 7.2449956 17.974509 3.9828551 21.5457785 3.89055458 28.9754999 13.4388431 19.0486252 13.4388431 11.396715 9.48562861 15.9927313 9.48562861 7.46838671 10.6794987 5.75226787 10.5966757 0.567425791"></polygon>
                                        <polygon id="Rectangle" fill="#83C901" points="1.99064437 21.0974168 4.01972052 21.5472489 3.92103258 28.9754999 1.99064437 28.4712365"></polygon>
                                    </g>
                                </g>
                                <polygon id="Path-17" fill="#58BF00" transform="translate(7.227181, 4.480974) rotate(-9.000000) translate(-7.227181, -4.480974) " points="3.02682582 6.67456936 5.1378256 7.29676996 11.4275355 1.95938617 9.56997806 1.66517797"></polygon>
                            </g>
                        </g>
                        <polygon id="Path-60" fill="#74BF35" points="34.5004004 50.1565915 27.8459808 54.3690767 30.1629252 58.5815618"></polygon>
                    </g>
                    <g id="waikuang" transform="translate(0.585130, 0.735438)" stroke="#BFC6D3" stroke-dasharray="5" stroke-linecap="square">
                        <path d="M49.9624712,0.867873161 L131.403566,39.1462207 L131.403566,86.7011056 L81.405554,137.006262 L1.39473207,99.9969811 L1.39473207,51.3905019 L49.9624712,0.867873161 Z" id="Line-27"></path>
                        <path d="M130.028319,86.098339 L88.9700625,66.6828394 M54.1888906,51.0185508 L50.0174971,49.0890584" id="Line-27"></path>
                        <path d="M50.1182382,2.60386589 L50.1182382,50.1587508 L0.120226006,100.463907" id="Line-27"></path>
                        <path d="M1.42082808,51.1796748 L80.4208281,88.1796748 L130.569071,37.8107284" id="Line"></path>
                        <path d="M81.5,87.5 L81.5,136.5" id="Line-2"></path>
                    </g>
                </g>
                <g id="智能合约" transform="translate(0.739086, 0.727089)">
                    <g id="Group-45" transform="translate(50.169603, 29.735438)">
                        <g id="Group-44">
                            <g id="Group-24" transform="translate(0.297815, 0.776551)">
                                <polygon id="Path-16" fill="#50AC02" points="10.6734091 29.360819 10.5921864 37.4027493 10.5921864 47.0107398 10.5921864 78.1980421 29.9025658 57.7912204 34.1754882 49.4105374 34.1083454 4.26906497"></polygon>
                                <polygon id="Path-17" fill="#58BF00" transform="translate(19.006484, 15.200660) rotate(-9.000000) translate(-19.006484, -15.200660) " points="2.33008371 23.3827283 8.54345366 27.8842945 35.6828849 6.81411648 29.374302 2.51702477"></polygon>
                                <polygon id="Path-15" fill="#8AD500" points="3.83270329 25.8419266 10.6505097 29.3591482 10.8962327 78.1252692 4.09382664 73.950916"></polygon>
                                <path d="M14.081588,46.5964227 L30.5036795,29.079525" id="Line-36" stroke="#74BF35" stroke-linecap="square"></path>
                                <path d="M14.081588,53.1652593 L25.029649,41.1223921" id="Line-36" stroke="#74BF35" stroke-linecap="square"></path>
                                <path d="M14.426159,59.1110596 L21.8398721,51.1260918" id="Line-36" stroke="#74BF35" stroke-linecap="square"></path>
                            </g>
                            <g id="Group-34" transform="translate(10.728280, 9.215473)">
                                <g id="Group-31" transform="translate(0.000000, 0.040174)">
                                    <g id="Group-29" transform="translate(0.394382, 0.709878)">
                                        <g id="Group-33" transform="translate(0.715050, 19.692174)">
                                            <polygon id="Rectangle" fill="#83C901" points="1.81301451 10.400355 3.74970695 10.9018564 3.74970695 12.875764 1.81301451 12.2426629"></polygon>
                                            <polygon id="Path-17" fill="#58BF00" transform="translate(7.576639, 5.765771) rotate(-9.000000) translate(-7.576639, -5.765771) " points="1.13244395 9.43253057 2.97680451 10.2447975 14.020835 1.94056744 12.1030392 1.28674495"></polygon>
                                            <polygon id="Path-61" fill="#469800" points="3.72297965 10.8939423 3.72297965 12.89019 13.3450531 2.74596716 13.3450531 0.966612247"></polygon>
                                        </g>
                                        <polygon id="Path-17" fill="#58BF00" transform="translate(7.726231, 16.418471) rotate(-9.000000) translate(-7.726231, -16.418471) " points="1.35352898 20.1629176 3.30617347 21.0014607 9.56377657 16.2989794 14.0989322 12.4549578 12.3473261 11.835481 9.94816171 13.6615161 5.09576622 17.2083892"></polygon>
                                        <polygon id="Rectangle" fill="#83C901" points="5.23040994 9.56899687 7.25948609 9.56899687 7.25948609 18.0368771 5.23040994 17.6124224"></polygon>
                                        <polygon id="Rectangle" fill="#83C901" points="3.01568301 6.54852735 5.23040994 6.78638672 5.23040994 12.0148464 3.01568301 11.4871396"></polygon>
                                        <polygon id="Path-16" fill="#469800" points="5.18663716 6.79689732 5.13245594 12.1492634 7.2449956 9.6654532 7.2449956 17.974509 3.9828551 21.5457785 3.89055458 28.9754999 13.4388431 19.0486252 13.4388431 11.396715 9.48562861 15.9927313 9.48562861 7.46838671 10.6794987 5.75226787 10.5966757 0.567425791"></polygon>
                                        <polygon id="Rectangle" fill="#83C901" points="1.99064437 21.0974168 4.01972052 21.5472489 3.92103258 28.9754999 1.99064437 28.4712365"></polygon>
                                    </g>
                                </g>
                                <polygon id="Path-17" fill="#58BF00" transform="translate(7.227181, 4.480974) rotate(-9.000000) translate(-7.227181, -4.480974) " points="3.02682582 6.67456936 5.1378256 7.29676996 11.4275355 1.95938617 9.56997806 1.66517797"></polygon>
                            </g>
                        </g>
                        <polygon id="Path-60" fill="#74BF35" points="34.5004004 50.1565915 27.8459808 54.3690767 30.1629252 58.5815618"></polygon>
                    </g>
                    <g id="waikuang" transform="translate(0.585130, 0.735438)" stroke="#BFC6D3" stroke-dasharray="5" stroke-linecap="square">
                        <path d="M49.9624712,0.867873161 L131.403566,39.1462207 L131.403566,86.7011056 L81.405554,137.006262 L1.39473207,99.9969811 L1.39473207,51.3905019 L49.9624712,0.867873161 Z" id="Line-27"></path>
                        <path d="M130.028319,86.098339 L88.9700625,66.6828394 M54.1888906,51.0185508 L50.0174971,49.0890584" id="Line-27"></path>
                        <path d="M50.1182382,2.60386589 L50.1182382,50.1587508 L0.120226006,100.463907" id="Line-27"></path>
                        <path d="M1.42082808,51.1796748 L80.4208281,88.1796748 L130.569071,37.8107284" id="Line"></path>
                        <path d="M81.5,87.5 L81.5,136.5" id="Line-2"></path>
                    </g>
                </g>
            </g>
        </g>
    </g>
</svg>