<?xml version="1.0" encoding="UTF-8"?>
<svg width="18px" height="14px" viewBox="0 0 18 14" version="1.1" xmlns="http://www.w3.org/2000/svg" xmlns:xlink="http://www.w3.org/1999/xlink">
    <!-- Generator: Sketch 50.2 (55047) - http://www.bohemiancoding.com/sketch -->
    <title>Group 24</title>
    <desc>Created with Sketch.</desc>
    <defs></defs>
    <g id="Page-1" stroke="none" stroke-width="1" fill="none" fill-rule="evenodd">
        <g id="Artboard-8" transform="translate(-299.000000, -400.000000)">
            <g id="Group-24" transform="translate(300.000000, 400.000000)">
                <polygon id="Path-21" stroke="#478E0A" points="0.294192075 3.54821215 2.82063253 2.32137551 16.488823 2.32137551 16.488823 13.1138755 0.294192075 13.1138755"></polygon>
                <path d="M5.78956563,2.83029213 L5.78956563,0.609790107" id="Line-3" stroke="#478E0A" stroke-linecap="square"></path>
                <path d="M12.1606653,2.83029213 L12.1606653,0.609790107" id="Line-3" stroke="#478E0A" stroke-linecap="square"></path>
                <g id="Group-15" transform="translate(1.507951, 5.076799)" fill="#B4E700">
                    <polygon id="Rectangle-6" points="1.66611037 0.311073373 4.63460533 0.311073373 3.85803102 2.27332726 0.710097548 2.27332726"></polygon>
                    <polygon id="Rectangle-6" points="6.03617716 0.311073373 9.00467212 0.311073373 8.22809782 2.27332726 5.08016434 2.27332726"></polygon>
                    <polygon id="Rectangle-6" points="10.6582906 0.311073373 13.6267856 0.311073373 12.8502113 2.27332726 9.7022778 2.27332726"></polygon>
                    <polygon id="Rectangle-6" points="1.22055135 3.17799893 4.18904632 3.17799893 3.41247201 5.14025282 0.264538537 5.14025282"></polygon>
                    <polygon id="Rectangle-6" points="5.59061815 3.17799893 8.55911311 3.17799893 7.7825388 5.14025282 4.63460533 5.14025282"></polygon>
                    <polygon id="Rectangle-6" points="9.96068494 3.17799893 12.9291799 3.17799893 12.1526056 5.14025282 9.00467212 5.14025282"></polygon>
                </g>
            </g>
        </g>
    </g>
</svg>