<svg width="64" height="76" xmlns="http://www.w3.org/2000/svg"><g fill="none" fill-rule="evenodd"><path d="M63.13 13.69v48.24l-16.07-8.95" stroke="#E6E6E6" stroke-dasharray="4,4"/><path d="M25.32 55.12v19.6L.52 62.68V14.46L17.2 22.2" stroke="#E3E3E3" stroke-dasharray="4,4"/><path d="M1.44 13.05L37.5.21l25.53 11.74-18.55 8.27" stroke="#E3E3E3" stroke-dasharray="4"/><g><path stroke="#4A940A" d="M20.44 27.54l4.04-1.97h21.88v23.1H20.44zM46.63 28.24l1.08.88v2.23l-1.08-.95M46.63 32.53l1.08.88v2.23l-1.08-.96M20.13 46.28l-.83-.84v-2.23l.83.92"/><path stroke="#4A940A" d="M22.91 31.35H43.9v14.93H22.9z"/><path fill="#B4E700" d="M22.81 28.67h.95l-.25.63h-1zM24.68 28.67h.94l-.24.63h-1zM26.55 28.67h.94l-.25.63h-1z"/></g></g></svg>