<svg width="132" height="138" xmlns="http://www.w3.org/2000/svg"><g fill="none" fill-rule="evenodd"><path fill="#58BF00" d="M64.72 70.9l12.9 6.18 6.75-7.18-12.96-5.98z"/><path fill="#479603" d="M71.4 63.98l12.8 5.95v8.6l-12.96-6.08z"/><path fill="#58BF00" d="M64.55 79.52l12.9 6.18 6.76-7.19-12.97-5.98zM78.49 56.43l12.9 6.18 6.75-7.18-12.96-5.98z"/><path fill="#8AD500" d="M64.61 62.42l12.85 6.1v8.19L64.6 70.55zM64.56 79.51l12.91 6.17-.01 8.66-12.9-6.69z"/><path d="M78.52 75.88l5.68 2.71" stroke="#FFF" stroke-width=".2" stroke-linecap="square"/><path fill="#D5D5D5" d="M77.46 85.87v8.46l6.71-6.96.47-.48 6.84-7.1v-8.77z"/><path fill="#50AC02" d="M77.46 68.52v8.38l6.71-6.98.04 8.59-6.75 7.16v8.67l14.02-14.56V71.1l6.7-7.02v-8.7l-6.7 6.93v-8.64z"/><path fill="#58BF00" d="M64.61 62.42l12.85 6.1 14.05-14.84-12.9-5.9z"/><path d="M78.24 47.27l13.24 6.34M91.44 53.7l-14 14.77M64.05 79.33l13.24 6.33M64.05 79.33l13.24 6.33M84.19 78.61l-6.67 7.04M98.18 55.33l-6.67 7.04M64.23 70.47l13.24 6.33M77.4 68.56v8.14m0 9.03v9.1M91.44 53.77v8.64" stroke="#FFF" stroke-width=".2" stroke-linecap="square"/><g><path fill="#58BF00" d="M64.72 70.9l12.9 6.18 6.75-7.18-12.96-5.98z"/><path fill="#479603" d="M71.4 63.98l12.8 5.95v8.6l-12.96-6.08z"/><path fill="#58BF00" d="M64.55 79.52l12.9 6.18 6.76-7.19-12.97-5.98zM78.49 56.43l12.9 6.18 6.75-7.18-12.96-5.98z"/><path fill="#8AD500" d="M64.61 62.42l12.85 6.1v8.19L64.6 70.55zM64.56 79.51l12.91 6.17-.01 8.66-12.9-6.69z"/><path d="M78.52 75.88l5.68 2.71" stroke="#FFF" stroke-width=".2" stroke-linecap="square"/><path fill="#D5D5D5" d="M77.46 85.87v8.46l6.71-6.96.47-.48 6.84-7.1v-8.77z"/><path fill="#50AC02" d="M77.46 68.52v8.38l6.71-6.98.04 8.59-6.75 7.16v8.67l14.02-14.56V71.1l6.7-7.02v-8.7l-6.7 6.93v-8.64z"/><path fill="#58BF00" d="M64.61 62.42l12.85 6.1 14.05-14.84-12.9-5.9z"/><path d="M78.24 47.27l13.24 6.34M91.44 53.7l-14 14.77M64.05 79.33l13.24 6.33M64.05 79.33l13.24 6.33M84.19 78.61l-6.67 7.04M98.18 55.33l-6.67 7.04M64.23 70.47l13.24 6.33M77.4 68.56v8.14m0 9.03v9.1M91.44 53.77v8.64" stroke="#FFF" stroke-width=".2" stroke-linecap="square"/></g><g><path fill="#8AD500" d="M50.79 76.96l12.91 6.16-.01 25.68-12.9-6.68z"/><path fill="#8AD500" d="M54.57 98.29l12.91 6.16-.01 8.66-12.9-6.68zM60.63 91.88l12.91 6.16-.01 8.66-12.9-6.68z"/><path fill="#50AC02" d="M63.66 82.78v25.82l3.87-4v8.44l6.06-6.25v-8.5l4.1-4.25v-8.67l6.7-7.03v-8.93l-6.7 7.01-.14-8.18z"/><path fill="#58BF00" d="M50.84 76.89l12.85 6.1 14.05-14.84-12.91-5.9zM52.17 56.4l12.26 6.2 14.05-14.83-12.32-6.01z"/><path fill="#58BF00" d="M47.96 60.59l12.64 6.05 4.32-4.46-12.7-5.85z"/><path d="M50.88 76.9l12.64 6.05M77.67 68.17l-14 14.77M67.53 104.58l-3.77 3.98M77.61 68.21v8.32M77.67 85.49v8.56M67.5 104.68v8.56M84.39 78.35l-6.68 7.04M84.44 69.48v8.76M84.35 69.52l-6.63 7M63.67 83.04v25.51l-12.89-6.49M64.88 62.18l12.6 6.04M52.07 56.05l12.62 6.03M78.95 47.27l-14 14.77M66 41.2L52 55.97" stroke="#FFF" stroke-width=".2" stroke-linecap="square"/></g><path fill="#58BF00" d="M55.54 44.11l12.5 5.98 6.78-7.37-12.33-5.68z"/><path fill="#8AD500" d="M67.99 49.97l-.01 8.65-12.52-6v-8.65"/><path fill="#50AC02" d="M67.99 50.22v8.4l6.75-7.08v-8.71z"/><path d="M68.05 50.18v8.31M55.4 52.57l12.61 6.03M82.13 35.17l-14 14.77M55.49 44.07l12.45 5.95.1.05" stroke="#FFF" stroke-width=".2" stroke-linecap="square"/><path fill="#8AD500" d="M60.52 66.64l-5.4 5.81L48 69.16v-8.65z"/><path stroke="#FFF" stroke-width=".2" stroke-linecap="square" d="M48.02 60.61l12.45 5.96.1.05"/><path fill="#58BF00" d="M38.1 70.85l12.63 5.97 4.33-4.46-12.68-5.77z"/><path stroke="#FFF" stroke-width=".2" stroke-linecap="square" d="M38.16 70.8l12.45 5.95.1.05"/><path stroke="#FFF" stroke-width=".2" stroke-linecap="square" d="M38.16 70.8l12.45 5.95.1.05"/><g><path fill="#8AD500" d="M38.07 70.93l12.68 6-.01 25.02-12.9-6.68z"/><path d="M50.73 76.83v25.22-25.22z" stroke="#FFF" stroke-width=".2" stroke-linecap="square"/></g><path d="M64.85 62.14l-14 14.77 14-14.77zm-22.4 4.23l12.45 5.96.1.05-12.55-6z" stroke="#FFF" stroke-width=".2" stroke-linecap="square"/><g stroke="#BFC6D3" stroke-dasharray="5" stroke-linecap="square"><path d="M49.2 1.04l81.44 38.28v47.56l-50 50.3-80-37V51.56L49.2 1.04zM129.27 86.27L96.55 71.14M53.43 51.19l-4.17-1.93"/><path d="M49.36 2.78v47.55l-50 50.3"/><path d="M.66 51.35l79 37L129.8 38M80.74 87.67v49"/></g><g><path fill="#58BF00" d="M64.72 70.9l12.9 6.18 6.75-7.18-12.96-5.98z"/><path fill="#479603" d="M71.4 63.98l12.8 5.95v8.6l-12.96-6.08z"/><path fill="#58BF00" d="M64.55 79.52l12.9 6.18 6.76-7.19-12.97-5.98zM78.49 56.43l12.9 6.18 6.75-7.18-12.96-5.98z"/><path fill="#8AD500" d="M64.61 62.42l12.85 6.1v8.19L64.6 70.55zM64.56 79.51l12.91 6.17-.01 8.66-12.9-6.69z"/><path d="M78.52 75.88l5.68 2.71" stroke="#FFF" stroke-width=".2" stroke-linecap="square"/><path fill="#D5D5D5" d="M77.46 85.87v8.46l6.71-6.96.47-.48 6.84-7.1v-8.77z"/><path fill="#50AC02" d="M77.46 68.52v8.38l6.71-6.98.04 8.59-6.75 7.16v8.67l14.02-14.56V71.1l6.7-7.02v-8.7l-6.7 6.93v-8.64z"/><path fill="#58BF00" d="M64.61 62.42l12.85 6.1 14.05-14.84-12.9-5.9z"/><path d="M78.24 47.27l13.24 6.34M91.44 53.7l-14 14.77M64.05 79.33l13.24 6.33M64.05 79.33l13.24 6.33M84.19 78.61l-6.67 7.04M98.18 55.33l-6.67 7.04M64.23 70.47l13.24 6.33M77.4 68.56v8.14m0 9.03v9.1M91.44 53.77v8.64" stroke="#FFF" stroke-width=".2" stroke-linecap="square"/><g><path fill="#58BF00" d="M64.72 70.9l12.9 6.18 6.75-7.18-12.96-5.98z"/><path fill="#479603" d="M71.4 63.98l12.8 5.95v8.6l-12.96-6.08z"/><path fill="#58BF00" d="M64.55 79.52l12.9 6.18 6.76-7.19-12.97-5.98zM78.49 56.43l12.9 6.18 6.75-7.18-12.96-5.98z"/><path fill="#8AD500" d="M64.61 62.42l12.85 6.1v8.19L64.6 70.55zM64.56 79.51l12.91 6.17-.01 8.66-12.9-6.69z"/><path d="M78.52 75.88l5.68 2.71" stroke="#FFF" stroke-width=".2" stroke-linecap="square"/><path fill="#D5D5D5" d="M77.46 85.87v8.46l6.71-6.96.47-.48 6.84-7.1v-8.77z"/><path fill="#50AC02" d="M77.46 68.52v8.38l6.71-6.98.04 8.59-6.75 7.16v8.67l14.02-14.56V71.1l6.7-7.02v-8.7l-6.7 6.93v-8.64z"/><path fill="#58BF00" d="M64.61 62.42l12.85 6.1 14.05-14.84-12.9-5.9z"/><path d="M78.24 47.27l13.24 6.34M91.44 53.7l-14 14.77M64.05 79.33l13.24 6.33M64.05 79.33l13.24 6.33M84.19 78.61l-6.67 7.04M98.18 55.33l-6.67 7.04M64.23 70.47l13.24 6.33M77.4 68.56v8.14m0 9.03v9.1M91.44 53.77v8.64" stroke="#FFF" stroke-width=".2" stroke-linecap="square"/></g><g><path fill="#8AD500" d="M50.79 76.96l12.91 6.16-.01 25.68-12.9-6.68z"/><path fill="#8AD500" d="M54.57 98.29l12.91 6.16-.01 8.66-12.9-6.68zM60.63 91.88l12.91 6.16-.01 8.66-12.9-6.68z"/><path fill="#50AC02" d="M63.66 82.78v25.82l3.87-4v8.44l6.06-6.25v-8.5l4.1-4.25v-8.67l6.7-7.03v-8.93l-6.7 7.01-.14-8.18z"/><path fill="#58BF00" d="M50.84 76.89l12.85 6.1 14.05-14.84-12.91-5.9zM52.17 56.4l12.26 6.2 14.05-14.83-12.32-6.01z"/><path fill="#58BF00" d="M47.96 60.59l12.64 6.05 4.32-4.46-12.7-5.85z"/><path d="M50.88 76.9l12.64 6.05M77.67 68.17l-14 14.77M67.53 104.58l-3.77 3.98M77.61 68.21v8.32M77.67 85.49v8.56M67.5 104.68v8.56M84.39 78.35l-6.68 7.04M84.44 69.48v8.76M84.35 69.52l-6.63 7M63.67 83.04v25.51l-12.89-6.49M64.88 62.18l12.6 6.04M52.07 56.05l12.62 6.03M78.95 47.27l-14 14.77M66 41.2L52 55.97" stroke="#FFF" stroke-width=".2" stroke-linecap="square"/></g><path fill="#58BF00" d="M55.54 44.11l12.5 5.98 6.78-7.37-12.33-5.68z"/><path fill="#8AD500" d="M67.99 49.97l-.01 8.65-12.52-6v-8.65"/><path fill="#50AC02" d="M67.99 50.22v8.4l6.75-7.08v-8.71z"/><path d="M68.05 50.18v8.31M55.4 52.57l12.61 6.03M82.13 35.17l-14 14.77M55.49 44.07l12.45 5.95.1.05" stroke="#FFF" stroke-width=".2" stroke-linecap="square"/><path fill="#8AD500" d="M60.52 66.64l-5.4 5.81L48 69.16v-8.65z"/><path stroke="#FFF" stroke-width=".2" stroke-linecap="square" d="M48.02 60.61l12.45 5.96.1.05"/><path fill="#58BF00" d="M38.1 70.85l12.63 5.97 4.33-4.46-12.68-5.77z"/><path stroke="#FFF" stroke-width=".2" stroke-linecap="square" d="M38.16 70.8l12.45 5.95.1.05"/><path stroke="#FFF" stroke-width=".2" stroke-linecap="square" d="M38.16 70.8l12.45 5.95.1.05"/><g><path fill="#8AD500" d="M38.07 70.93l12.68 6-.01 25.02-12.9-6.68z"/><path d="M50.73 76.83v25.22-25.22z" stroke="#FFF" stroke-width=".2" stroke-linecap="square"/></g><path d="M64.85 62.14l-14 14.77 14-14.77zm-22.4 4.23l12.45 5.96.1.05-12.55-6z" stroke="#FFF" stroke-width=".2" stroke-linecap="square"/><g stroke="#BFC6D3" stroke-dasharray="5" stroke-linecap="square"><path d="M49.2 1.04l81.44 38.28v47.56l-50 50.3-80-37V51.56L49.2 1.04zM129.27 86.27L96.55 71.14M53.43 51.19l-4.17-1.93"/><path d="M49.36 2.78v47.55l-50 50.3"/><path d="M.66 51.35l79 37L129.8 38M80.74 87.67v49"/></g></g><g><path fill="#58BF00" d="M64.72 70.9l12.9 6.18 6.75-7.18-12.96-5.98z"/><path fill="#479603" d="M71.4 63.98l12.8 5.95v8.6l-12.96-6.08z"/><path fill="#58BF00" d="M64.55 79.52l12.9 6.18 6.76-7.19-12.97-5.98zM78.49 56.43l12.9 6.18 6.75-7.18-12.96-5.98z"/><path fill="#8AD500" d="M64.61 62.42l12.85 6.1v8.19L64.6 70.55zM64.56 79.51l12.91 6.17-.01 8.66-12.9-6.69z"/><path d="M78.52 75.88l5.68 2.71" stroke="#FFF" stroke-width=".2" stroke-linecap="square"/><path fill="#D5D5D5" d="M77.46 85.87v8.46l6.71-6.96.47-.48 6.84-7.1v-8.77z"/><path fill="#50AC02" d="M77.46 68.52v8.38l6.71-6.98.04 8.59-6.75 7.16v8.67l14.02-14.56V71.1l6.7-7.02v-8.7l-6.7 6.93v-8.64z"/><path fill="#58BF00" d="M64.61 62.42l12.85 6.1 14.05-14.84-12.9-5.9z"/><path d="M78.24 47.27l13.24 6.34M91.44 53.7l-14 14.77M64.05 79.33l13.24 6.33M64.05 79.33l13.24 6.33M84.19 78.61l-6.67 7.04M98.18 55.33l-6.67 7.04M64.23 70.47l13.24 6.33M77.4 68.56v8.14m0 9.03v9.1M91.44 53.77v8.64" stroke="#FFF" stroke-width=".2" stroke-linecap="square"/><g><path fill="#58BF00" d="M64.72 70.9l12.9 6.18 6.75-7.18-12.96-5.98z"/><path fill="#479603" d="M71.4 63.98l12.8 5.95v8.6l-12.96-6.08z"/><path fill="#58BF00" d="M64.55 79.52l12.9 6.18 6.76-7.19-12.97-5.98zM78.49 56.43l12.9 6.18 6.75-7.18-12.96-5.98z"/><path fill="#8AD500" d="M64.61 62.42l12.85 6.1v8.19L64.6 70.55zM64.56 79.51l12.91 6.17-.01 8.66-12.9-6.69z"/><path d="M78.52 75.88l5.68 2.71" stroke="#FFF" stroke-width=".2" stroke-linecap="square"/><path fill="#D5D5D5" d="M77.46 85.87v8.46l6.71-6.96.47-.48 6.84-7.1v-8.77z"/><path fill="#50AC02" d="M77.46 68.52v8.38l6.71-6.98.04 8.59-6.75 7.16v8.67l14.02-14.56V71.1l6.7-7.02v-8.7l-6.7 6.93v-8.64z"/><path fill="#58BF00" d="M64.61 62.42l12.85 6.1 14.05-14.84-12.9-5.9z"/><path d="M78.24 47.27l13.24 6.34M91.44 53.7l-14 14.77M64.05 79.33l13.24 6.33M64.05 79.33l13.24 6.33M84.19 78.61l-6.67 7.04M98.18 55.33l-6.67 7.04M64.23 70.47l13.24 6.33M77.4 68.56v8.14m0 9.03v9.1M91.44 53.77v8.64" stroke="#FFF" stroke-width=".2" stroke-linecap="square"/></g><g><path fill="#8AD500" d="M50.79 76.96l12.91 6.16-.01 25.68-12.9-6.68z"/><path fill="#8AD500" d="M54.57 98.29l12.91 6.16-.01 8.66-12.9-6.68zM60.63 91.88l12.91 6.16-.01 8.66-12.9-6.68z"/><path fill="#50AC02" d="M63.66 82.78v25.82l3.87-4v8.44l6.06-6.25v-8.5l4.1-4.25v-8.67l6.7-7.03v-8.93l-6.7 7.01-.14-8.18z"/><path fill="#58BF00" d="M50.84 76.89l12.85 6.1 14.05-14.84-12.91-5.9zM52.17 56.4l12.26 6.2 14.05-14.83-12.32-6.01z"/><path fill="#58BF00" d="M47.96 60.59l12.64 6.05 4.32-4.46-12.7-5.85z"/><path d="M50.88 76.9l12.64 6.05M77.67 68.17l-14 14.77M67.53 104.58l-3.77 3.98M77.61 68.21v8.32M77.67 85.49v8.56M67.5 104.68v8.56M84.39 78.35l-6.68 7.04M84.44 69.48v8.76M84.35 69.52l-6.63 7M63.67 83.04v25.51l-12.89-6.49M64.88 62.18l12.6 6.04M52.07 56.05l12.62 6.03M78.95 47.27l-14 14.77M66 41.2L52 55.97" stroke="#FFF" stroke-width=".2" stroke-linecap="square"/></g><path fill="#58BF00" d="M55.54 44.11l12.5 5.98 6.78-7.37-12.33-5.68z"/><path fill="#8AD500" d="M67.99 49.97l-.01 8.65-12.52-6v-8.65"/><path fill="#50AC02" d="M67.99 50.22v8.4l6.75-7.08v-8.71z"/><path d="M68.05 50.18v8.31M55.4 52.57l12.61 6.03M82.13 35.17l-14 14.77M55.49 44.07l12.45 5.95.1.05" stroke="#FFF" stroke-width=".2" stroke-linecap="square"/><path fill="#8AD500" d="M60.52 66.64l-5.4 5.81L48 69.16v-8.65z"/><path stroke="#FFF" stroke-width=".2" stroke-linecap="square" d="M48.02 60.61l12.45 5.96.1.05"/><path fill="#58BF00" d="M38.1 70.85l12.63 5.97 4.33-4.46-12.68-5.77z"/><path stroke="#FFF" stroke-width=".2" stroke-linecap="square" d="M38.16 70.8l12.45 5.95.1.05"/><path stroke="#FFF" stroke-width=".2" stroke-linecap="square" d="M38.16 70.8l12.45 5.95.1.05"/><g><path fill="#8AD500" d="M38.07 70.93l12.68 6-.01 25.02-12.9-6.68z"/><path d="M50.73 76.83v25.22-25.22z" stroke="#FFF" stroke-width=".2" stroke-linecap="square"/></g><path d="M64.85 62.14l-14 14.77 14-14.77zm-22.4 4.23l12.45 5.96.1.05-12.55-6z" stroke="#FFF" stroke-width=".2" stroke-linecap="square"/><g stroke="#BFC6D3" stroke-dasharray="5" stroke-linecap="square"><path d="M49.2 1.04l81.44 38.28v47.56l-50 50.3-80-37V51.56L49.2 1.04zM129.27 86.27L96.55 71.14M53.43 51.19l-4.17-1.93"/><path d="M49.36 2.78v47.55l-50 50.3"/><path d="M.66 51.35l79 37L129.8 38M80.74 87.67v49"/></g></g><g><path fill="#58BF00" d="M64.72 70.9l12.9 6.18 6.75-7.18-12.96-5.98z"/><path fill="#479603" d="M71.4 63.98l12.8 5.95v8.6l-12.96-6.08z"/><path fill="#58BF00" d="M64.55 79.52l12.9 6.18 6.76-7.19-12.97-5.98zM78.49 56.43l12.9 6.18 6.75-7.18-12.96-5.98z"/><path fill="#8AD500" d="M64.61 62.42l12.85 6.1v8.19L64.6 70.55zM64.56 79.51l12.91 6.17-.01 8.66-12.9-6.69z"/><path d="M78.52 75.88l5.68 2.71" stroke="#FFF" stroke-width=".2" stroke-linecap="square"/><path fill="#D5D5D5" d="M77.46 85.87v8.46l6.71-6.96.47-.48 6.84-7.1v-8.77z"/><path fill="#50AC02" d="M77.46 68.52v8.38l6.71-6.98.04 8.59-6.75 7.16v8.67l14.02-14.56V71.1l6.7-7.02v-8.7l-6.7 6.93v-8.64z"/><path fill="#58BF00" d="M64.61 62.42l12.85 6.1 14.05-14.84-12.9-5.9z"/><path d="M78.24 47.27l13.24 6.34M91.44 53.7l-14 14.77M64.05 79.33l13.24 6.33M64.05 79.33l13.24 6.33M84.19 78.61l-6.67 7.04M98.18 55.33l-6.67 7.04M64.23 70.47l13.24 6.33M77.4 68.56v8.14m0 9.03v9.1M91.44 53.77v8.64" stroke="#FFF" stroke-width=".2" stroke-linecap="square"/><g><path fill="#58BF00" d="M64.72 70.9l12.9 6.18 6.75-7.18-12.96-5.98z"/><path fill="#479603" d="M71.4 63.98l12.8 5.95v8.6l-12.96-6.08z"/><path fill="#58BF00" d="M64.55 79.52l12.9 6.18 6.76-7.19-12.97-5.98zM78.49 56.43l12.9 6.18 6.75-7.18-12.96-5.98z"/><path fill="#8AD500" d="M64.61 62.42l12.85 6.1v8.19L64.6 70.55zM64.56 79.51l12.91 6.17-.01 8.66-12.9-6.69z"/><path d="M78.52 75.88l5.68 2.71" stroke="#FFF" stroke-width=".2" stroke-linecap="square"/><path fill="#D5D5D5" d="M77.46 85.87v8.46l6.71-6.96.47-.48 6.84-7.1v-8.77z"/><path fill="#50AC02" d="M77.46 68.52v8.38l6.71-6.98.04 8.59-6.75 7.16v8.67l14.02-14.56V71.1l6.7-7.02v-8.7l-6.7 6.93v-8.64z"/><path fill="#58BF00" d="M64.61 62.42l12.85 6.1 14.05-14.84-12.9-5.9z"/><path d="M78.24 47.27l13.24 6.34M91.44 53.7l-14 14.77M64.05 79.33l13.24 6.33M64.05 79.33l13.24 6.33M84.19 78.61l-6.67 7.04M98.18 55.33l-6.67 7.04M64.23 70.47l13.24 6.33M77.4 68.56v8.14m0 9.03v9.1M91.44 53.77v8.64" stroke="#FFF" stroke-width=".2" stroke-linecap="square"/></g><g><path fill="#8AD500" d="M50.79 76.96l12.91 6.16-.01 25.68-12.9-6.68z"/><path fill="#8AD500" d="M54.57 98.29l12.91 6.16-.01 8.66-12.9-6.68zM60.63 91.88l12.91 6.16-.01 8.66-12.9-6.68z"/><path fill="#50AC02" d="M63.66 82.78v25.82l3.87-4v8.44l6.06-6.25v-8.5l4.1-4.25v-8.67l6.7-7.03v-8.93l-6.7 7.01-.14-8.18z"/><path fill="#58BF00" d="M50.84 76.89l12.85 6.1 14.05-14.84-12.91-5.9zM52.17 56.4l12.26 6.2 14.05-14.83-12.32-6.01z"/><path fill="#58BF00" d="M47.96 60.59l12.64 6.05 4.32-4.46-12.7-5.85z"/><path d="M50.88 76.9l12.64 6.05M77.67 68.17l-14 14.77M67.53 104.58l-3.77 3.98M77.61 68.21v8.32M77.67 85.49v8.56M67.5 104.68v8.56M84.39 78.35l-6.68 7.04M84.44 69.48v8.76M84.35 69.52l-6.63 7M63.67 83.04v25.51l-12.89-6.49M64.88 62.18l12.6 6.04M52.07 56.05l12.62 6.03M78.95 47.27l-14 14.77M66 41.2L52 55.97" stroke="#FFF" stroke-width=".2" stroke-linecap="square"/></g><path fill="#58BF00" d="M55.54 44.11l12.5 5.98 6.78-7.37-12.33-5.68z"/><path fill="#8AD500" d="M67.99 49.97l-.01 8.65-12.52-6v-8.65"/><path fill="#50AC02" d="M67.99 50.22v8.4l6.75-7.08v-8.71z"/><path d="M68.05 50.18v8.31M55.4 52.57l12.61 6.03M82.13 35.17l-14 14.77M55.49 44.07l12.45 5.95.1.05" stroke="#FFF" stroke-width=".2" stroke-linecap="square"/><path fill="#8AD500" d="M60.52 66.64l-5.4 5.81L48 69.16v-8.65z"/><path stroke="#FFF" stroke-width=".2" stroke-linecap="square" d="M48.02 60.61l12.45 5.96.1.05"/><path fill="#58BF00" d="M38.1 70.85l12.63 5.97 4.33-4.46-12.68-5.77z"/><path stroke="#FFF" stroke-width=".2" stroke-linecap="square" d="M38.16 70.8l12.45 5.95.1.05"/><path stroke="#FFF" stroke-width=".2" stroke-linecap="square" d="M38.16 70.8l12.45 5.95.1.05"/><g><path fill="#8AD500" d="M38.07 70.93l12.68 6-.01 25.02-12.9-6.68z"/><path d="M50.73 76.83v25.22-25.22z" stroke="#FFF" stroke-width=".2" stroke-linecap="square"/></g><path d="M64.85 62.14l-14 14.77 14-14.77zm-22.4 4.23l12.45 5.96.1.05-12.55-6z" stroke="#FFF" stroke-width=".2" stroke-linecap="square"/><g stroke="#BFC6D3" stroke-dasharray="5" stroke-linecap="square"><path d="M49.2 1.04l81.44 38.28v47.56l-50 50.3-80-37V51.56L49.2 1.04zM129.27 86.27L96.55 71.14M53.43 51.19l-4.17-1.93"/><path d="M49.36 2.78v47.55l-50 50.3"/><path d="M.66 51.35l79 37L129.8 38M80.74 87.67v49"/></g></g></g></svg>