<?xml version="1.0" encoding="UTF-8"?>
<svg width="132px" height="138px" viewBox="0 0 132 138" version="1.1" xmlns="http://www.w3.org/2000/svg" xmlns:xlink="http://www.w3.org/1999/xlink">
    <!-- Generator: Sketch 50.2 (55047) - http://www.bohemiancoding.com/sketch -->
    <title>Group 52</title>
    <desc>Created with Sketch.</desc>
    <defs></defs>
    <g id="Page-1" stroke="none" stroke-width="1" fill="none" fill-rule="evenodd">
        <g id="首页编辑版" transform="translate(-363.000000, -2096.000000)">
            <g id="Group-52" transform="translate(361.000000, 2095.000000)">
                <g id="A">
                    <g transform="translate(0.757429, 0.310871)">
                        <g id="jichusheshi-" transform="translate(37.579498, 35.021752)">
                            <g id="凹陷方块" transform="translate(25.000000, 11.000000)">
                                <g id="Group-19" transform="translate(0.445222, 0.082315)">
                                    <polygon id="Path-17" fill="#58BF00" transform="translate(12.777010, 25.076110) rotate(-9.000000) translate(-12.777010, -25.076110) " points="2.99208353 23.9414142 14.7730227 32.0636264 22.5619355 26.0240387 10.6940284 18.0885943"></polygon>
                                    <polygon id="Path-15" fill="#479603" points="9.62414532 18.5618773 22.4169361 24.5152588 22.4169361 33.1168368 9.45773524 27.035476"></polygon>
                                    <polygon id="Path-17" fill="#58BF00" transform="translate(12.612754, 33.694191) rotate(-9.000000) translate(-12.612754, -33.694191) " points="2.82782848 32.5594947 14.6087677 40.6817068 22.3976804 34.6421192 10.5297733 26.7066748"></polygon>
                                    <polygon id="Path-17" fill="#58BF00" transform="translate(26.547896, 10.607748) rotate(-9.000000) translate(-26.547896, -10.607748) " points="16.7629697 9.47305192 28.5439089 17.5952641 36.3328217 11.5556764 24.4649145 3.620232"></polygon>
                                    <polygon id="Path-15" fill="#8AD500" points="2.83069962 17.0012141 15.6759372 23.1080573 15.6759372 31.2935722 2.83069962 25.1378639"></polygon>
                                    <polygon id="Path-15" fill="#8AD500" points="2.77540398 34.0984317 15.6900039 40.261713 15.6759372 48.9209566 2.77540398 42.2350815"></polygon>
                                    <path d="M16.7387001,30.4632696 L22.4131899,33.1778301" id="Line-28" stroke="#FFFFFF" stroke-width="0.2" stroke-linecap="square"></path>
                                    <polygon id="Path-16" fill="#D5D5D5" points="15.6759372 40.4594248 15.6759372 48.9162328 22.3895044 41.9584598 22.8546496 41.4763949 29.6989406 34.3831429 29.6989406 25.609231"></polygon>
                                    <polygon id="Path-16" fill="#50AC02" points="15.6759372 23.1028675 15.6759372 31.4806579 22.3895044 24.5004943 22.4255004 33.0910822 15.6759372 40.2566325 15.6759372 48.9209566 29.6989406 34.3620027 29.6989406 25.6876079 36.392674 18.6619046 36.392674 9.95811105 29.6989406 16.8930563 29.6989406 8.25267376"></polygon>
                                    <polygon id="Path-17" fill="#58BF00" transform="translate(16.291914, 12.727763) rotate(-9.000000) translate(-16.291914, -12.727763) " points="2.32643077 14.8438743 14.062724 22.8824168 30.2573974 10.4248842 18.4341363 2.57310947"></polygon>
                                </g>
                                <path d="M16.9056369,1.94110484 L30.1452028,8.27464373" id="Line-28" stroke="#FFFFFF" stroke-width="0.2" stroke-linecap="square"></path>
                                <path d="M30.1024378,8.36988693 L16.099131,23.1401572" id="Line-28" stroke="#FFFFFF" stroke-width="0.2" stroke-linecap="square"></path>
                                <path d="M2.71199923,33.9962221 L15.9515651,40.329761" id="Line-28" stroke="#FFFFFF" stroke-width="0.2" stroke-linecap="square"></path>
                                <path d="M2.71199923,33.9962221 L15.9515651,40.329761" id="Line-28" stroke="#FFFFFF" stroke-width="0.2" stroke-linecap="square"></path>
                                <path d="M22.8524035,33.2815741 L16.178664,40.3208355" id="Line-28" stroke="#FFFFFF" stroke-width="0.2" stroke-linecap="square"></path>
                                <path d="M36.8451104,9.997103 L30.1713709,17.0363644" id="Line-28" stroke="#FFFFFF" stroke-width="0.2" stroke-linecap="square"></path>
                                <path d="M2.88863841,25.1370751 L16.1282043,31.470614" id="Line-28" stroke="#FFFFFF" stroke-width="0.2" stroke-linecap="square"></path>
                                <path d="M16.0608403,23.2299154 C16.0608403,26.8605877 16.0608403,29.5733691 16.0608403,31.3682595 M16.0608403,40.3983137 C16.0608403,46.0285574 16.0608403,49.0636763 16.0608403,49.5036705" id="Line-3" stroke="#FFFFFF" stroke-width="0.2" stroke-linecap="square"></path>
                                <path d="M30.1069362,8.44110484 C30.1069362,9.76669337 30.1069362,13.1524372 30.1069362,17.0748165" id="Line-3" stroke="#FFFFFF" stroke-width="0.2" stroke-linecap="square"></path>
                            </g>
                            <g id="凹陷方块" transform="translate(25.000000, 11.000000)">
                                <g id="Group-19" transform="translate(0.445222, 0.082315)">
                                    <polygon id="Path-17" fill="#58BF00" transform="translate(12.777010, 25.076110) rotate(-9.000000) translate(-12.777010, -25.076110) " points="2.99208353 23.9414142 14.7730227 32.0636264 22.5619355 26.0240387 10.6940284 18.0885943"></polygon>
                                    <polygon id="Path-15" fill="#479603" points="9.62414532 18.5618773 22.4169361 24.5152588 22.4169361 33.1168368 9.45773524 27.035476"></polygon>
                                    <polygon id="Path-17" fill="#58BF00" transform="translate(12.612754, 33.694191) rotate(-9.000000) translate(-12.612754, -33.694191) " points="2.82782848 32.5594947 14.6087677 40.6817068 22.3976804 34.6421192 10.5297733 26.7066748"></polygon>
                                    <polygon id="Path-17" fill="#58BF00" transform="translate(26.547896, 10.607748) rotate(-9.000000) translate(-26.547896, -10.607748) " points="16.7629697 9.47305192 28.5439089 17.5952641 36.3328217 11.5556764 24.4649145 3.620232"></polygon>
                                    <polygon id="Path-15" fill="#8AD500" points="2.83069962 17.0012141 15.6759372 23.1080573 15.6759372 31.2935722 2.83069962 25.1378639"></polygon>
                                    <polygon id="Path-15" fill="#8AD500" points="2.77540398 34.0984317 15.6900039 40.261713 15.6759372 48.9209566 2.77540398 42.2350815"></polygon>
                                    <path d="M16.7387001,30.4632696 L22.4131899,33.1778301" id="Line-28" stroke="#FFFFFF" stroke-width="0.2" stroke-linecap="square"></path>
                                    <polygon id="Path-16" fill="#D5D5D5" points="15.6759372 40.4594248 15.6759372 48.9162328 22.3895044 41.9584598 22.8546496 41.4763949 29.6989406 34.3831429 29.6989406 25.609231"></polygon>
                                    <polygon id="Path-16" fill="#50AC02" points="15.6759372 23.1028675 15.6759372 31.4806579 22.3895044 24.5004943 22.4255004 33.0910822 15.6759372 40.2566325 15.6759372 48.9209566 29.6989406 34.3620027 29.6989406 25.6876079 36.392674 18.6619046 36.392674 9.95811105 29.6989406 16.8930563 29.6989406 8.25267376"></polygon>
                                    <polygon id="Path-17" fill="#58BF00" transform="translate(16.291914, 12.727763) rotate(-9.000000) translate(-16.291914, -12.727763) " points="2.32643077 14.8438743 14.062724 22.8824168 30.2573974 10.4248842 18.4341363 2.57310947"></polygon>
                                </g>
                                <path d="M16.9056369,1.94110484 L30.1452028,8.27464373" id="Line-28" stroke="#FFFFFF" stroke-width="0.2" stroke-linecap="square"></path>
                                <path d="M30.1024378,8.36988693 L16.099131,23.1401572" id="Line-28" stroke="#FFFFFF" stroke-width="0.2" stroke-linecap="square"></path>
                                <path d="M2.71199923,33.9962221 L15.9515651,40.329761" id="Line-28" stroke="#FFFFFF" stroke-width="0.2" stroke-linecap="square"></path>
                                <path d="M2.71199923,33.9962221 L15.9515651,40.329761" id="Line-28" stroke="#FFFFFF" stroke-width="0.2" stroke-linecap="square"></path>
                                <path d="M22.8524035,33.2815741 L16.178664,40.3208355" id="Line-28" stroke="#FFFFFF" stroke-width="0.2" stroke-linecap="square"></path>
                                <path d="M36.8451104,9.997103 L30.1713709,17.0363644" id="Line-28" stroke="#FFFFFF" stroke-width="0.2" stroke-linecap="square"></path>
                                <path d="M2.88863841,25.1370751 L16.1282043,31.470614" id="Line-28" stroke="#FFFFFF" stroke-width="0.2" stroke-linecap="square"></path>
                                <path d="M16.0608403,23.2299154 C16.0608403,26.8605877 16.0608403,29.5733691 16.0608403,31.3682595 M16.0608403,40.3983137 C16.0608403,46.0285574 16.0608403,49.0636763 16.0608403,49.5036705" id="Line-3" stroke="#FFFFFF" stroke-width="0.2" stroke-linecap="square"></path>
                                <path d="M30.1069362,8.44110484 C30.1069362,9.76669337 30.1069362,13.1524372 30.1069362,17.0748165" id="Line-3" stroke="#FFFFFF" stroke-width="0.2" stroke-linecap="square"></path>
                            </g>
                            <g id="凹陷方块" transform="translate(10.229114, 5.468362)">
                                <g id="Group-19" transform="translate(0.445222, 0.082315)">
                                    <polygon id="Path-15" fill="#8AD500" points="3.77540398 37.0760755 16.6900039 43.2393568 16.6759372 68.9209566 3.77540398 62.2350815"></polygon>
                                    <polygon id="Path-15" fill="#8AD500" points="7.55479123 58.4071095 20.4693912 64.5703908 20.4553245 73.2296344 7.55479123 66.5437593"></polygon>
                                    <polygon id="Path-15" fill="#8AD500" points="13.6183973 51.9967597 26.5329973 58.160041 26.5189306 66.8192846 13.6183973 60.1334095"></polygon>
                                    <polygon id="Path-16" fill="#50AC02" points="16.6534909 42.8978322 16.6534909 51.2756226 16.6534909 60.0515972 16.6534909 68.7159213 20.5141354 64.7077253 20.5249734 73.1570906 26.5811432 66.9048135 26.5811432 58.4088404 30.6764943 54.1569675 30.6764943 45.4825726 37.3702277 38.4568694 37.3702277 29.5250267 30.6764943 36.5388959 30.535734 28.3603384"></polygon>
                                    <polygon id="Path-17" fill="#58BF00" transform="translate(17.291914, 32.727763) rotate(-9.000000) translate(-17.291914, -32.727763) " points="3.32643077 34.8438743 15.062724 42.8824168 31.2573974 30.4248842 19.4341363 22.5731095"></polygon>
                                    <polygon id="Path-17" fill="#58BF00" transform="translate(18.327093, 12.290004) rotate(-9.000000) translate(-18.327093, -12.290004) " points="4.65742785 14.4009926 15.8020839 22.4497806 31.9967573 9.99224804 20.7651333 2.1302278"></polygon>
                                    <polygon id="Path-17" fill="#58BF00" transform="translate(9.443064, 21.594111) rotate(-9.000000) translate(-9.443064, -21.594111) " points="1.18757633 19.387219 12.725701 27.3414067 17.6985512 23.6142346 6.07345852 15.8468147"></polygon>
                                </g>
                                <path d="M4.31646909,37.107568 L16.9515651,43.1519408" id="Line-28" stroke="#FFFFFF" stroke-width="0.2" stroke-linecap="square"></path>
                                <path d="M31.1024378,28.3698869 L17.099131,43.1401572" id="Line-28" stroke="#FFFFFF" stroke-width="0.2" stroke-linecap="square"></path>
                                <path d="M20.9601451,64.7834855 L17.194165,68.755729" id="Line-28" stroke="#FFFFFF" stroke-width="0.2" stroke-linecap="square"></path>
                                <path d="M31.047447,28.4118306 C31.047447,29.7374191 31.047447,32.8038875 31.047447,36.7262667" id="Line-3" stroke="#FFFFFF" stroke-width="0.2" stroke-linecap="square"></path>
                                <path d="M31.1055994,45.6886246 C31.1055994,47.0142132 31.1055994,50.3299546 31.1055994,54.2523339" id="Line-3" stroke="#FFFFFF" stroke-width="0.2" stroke-linecap="square"></path>
                                <path d="M20.9319687,64.8799298 C20.9319687,66.2055184 20.9319687,69.5212598 20.9319687,73.4436391" id="Line-3" stroke="#FFFFFF" stroke-width="0.2" stroke-linecap="square"></path>
                                <path d="M37.8225994,38.5452256 L31.1488599,45.584487" id="Line-28" stroke="#FFFFFF" stroke-width="0.2" stroke-linecap="square"></path>
                                <path d="M37.8758328,29.6813828 L37.8758328,38.4417641" id="Line-3" stroke="#FFFFFF" stroke-width="0.2" stroke-linecap="square"></path>
                                <path d="M37.7794308,29.7205697 L31.1508012,36.7113934" id="Line-28" stroke="#FFFFFF" stroke-width="0.2" stroke-linecap="square"></path>
                                <path d="M17.099131,43.2364816 C17.099131,44.5620701 17.099131,64.8269182 17.099131,68.7492975 L4.21398562,62.2622524" id="Line-3" stroke="#FFFFFF" stroke-width="0.2" stroke-linecap="square"></path>
                                <path d="M18.3102925,22.3825224 L30.921761,28.4155923" id="Line-28" stroke="#FFFFFF" stroke-width="0.2" stroke-linecap="square"></path>
                                <path d="M5.50856854,16.249632 L18.120037,22.2827019" id="Line-28" stroke="#FFFFFF" stroke-width="0.2" stroke-linecap="square"></path>
                                <path d="M32.3816329,7.46834895 L18.3783261,22.2386193" id="Line-28" stroke="#FFFFFF" stroke-width="0.2" stroke-linecap="square"></path>
                                <path d="M19.4426336,1.40305818 L5.43932677,16.1733285" id="Line-28" stroke="#FFFFFF" stroke-width="0.2" stroke-linecap="square"></path>
                            </g>
                            <polygon id="Path-17" fill="#58BF00" transform="translate(28.869802, 9.242874) rotate(-9.000000) translate(-28.869802, -9.242874) " points="19.2425717 8.26154086 30.6575288 16.125576 38.4970331 9.89810592 27.2116357 2.36017269"></polygon>
                            <polyline id="Path-15" fill="#8AD500" points="31.652473 15.6343384 31.6384063 24.2848259 19.1269325 18.2852658 19.1269325 9.63410039"></polyline>
                            <polygon id="Path-16" fill="#50AC02" points="31.652473 15.8858641 31.652473 24.2848259 38.4020363 17.2119439 38.4020363 8.49587824"></polygon>
                            <path d="M31.709368,15.8427819 C31.709368,17.1683704 31.709368,20.2348388 31.709368,24.1572181" id="Line-3" stroke="#FFFFFF" stroke-width="0.2" stroke-linecap="square"></path>
                            <path d="M19.0647877,18.2356968 L31.6762562,24.2687666" id="Line-28" stroke="#FFFFFF" stroke-width="0.2" stroke-linecap="square"></path>
                            <path d="M45.7980459,0.841557088 L31.7947391,15.6118274" id="Line-28" stroke="#FFFFFF" stroke-width="0.2" stroke-linecap="square"></path>
                            <polyline id="Line-28" stroke="#FFFFFF" stroke-width="0.2" stroke-linecap="square" points="19.1501588 9.73454907 31.5994451 15.6900342 31.6939221 15.7382203"></polyline>
                            <polygon id="Path-15" fill="#8AD500" points="24.1812471 32.3071506 18.7806238 38.1210473 11.6621242 34.8314677 11.6621242 26.1803022"></polygon>
                            <polyline id="Line-28" stroke="#FFFFFF" stroke-width="0.2" stroke-linecap="square" points="11.6853505 26.2807509 24.1346367 32.2362361 24.2291138 32.2844221"></polyline>
                            <polygon id="Path-17" fill="#58BF00" transform="translate(10.262672, 37.364768) rotate(-9.000000) translate(-10.262672, -37.364768) " points="2.00955794 35.1969942 13.5429359 43.0729468 18.515786 39.3457747 6.89544013 31.6565899"></polygon>
                            <polyline id="Line-28" stroke="#FFFFFF" stroke-width="0.2" stroke-linecap="square" points="1.82215898 36.4624665 14.2714452 42.4179516 14.3659223 42.4661377"></polyline>
                            <polyline id="Line-28" stroke="#FFFFFF" stroke-width="0.2" stroke-linecap="square" points="1.82215898 36.4624665 14.2714452 42.4179516 14.3659223 42.4661377"></polyline>
                            <g id="Group-18" transform="translate(0.756973, 36.091253)">
                                <polygon id="Path-15" fill="#8AD500" points="0.974443316 0.501458732 13.6591532 6.50098471 13.6450865 31.5282586 0.74455329 24.8423835"></polygon>
                                <path d="M13.6313056,6.40148889 C13.6313056,9.23195809 13.6313056,27.8768258 13.6313056,31.6220567 L13.6313056,6.40148889 Z" id="Line-3" stroke="#FFFFFF" stroke-width="0.2" stroke-linecap="square"></path>
                            </g>
                            <path d="M28.5157705,27.8037968 L14.5124637,42.5740671 L28.5157705,27.8037968 Z M6.11767921,32.0418412 L18.5669655,37.9973264 L18.6614425,38.0455124 L6.11767921,32.0418412 Z" id="Line-28" stroke="#FFFFFF" stroke-width="0.2" stroke-linecap="square"></path>
                        </g>
                        <g id="waikuang" transform="translate(0.481154, 0.864023)" stroke="#BFC6D3" stroke-dasharray="5" stroke-linecap="square">
                            <path d="M49.9624712,0.867873161 L131.403566,39.1462207 L131.403566,86.7011056 L81.405554,137.006262 L1.39473207,99.9969811 L1.39473207,51.3905019 L49.9624712,0.867873161 Z" id="Line-27"></path>
                            <path d="M130.028319,86.098339 L97.3124807,70.9655155 M54.1888906,51.0185508 L50.0174971,49.0890584" id="Line-27"></path>
                            <path d="M50.1182382,2.60386589 L50.1182382,50.1587508 L0.120226006,100.463907" id="Line-27"></path>
                            <path d="M1.42082808,51.1796748 L80.4208281,88.1796748 L130.569071,37.8107284" id="Line"></path>
                            <path d="M81.5,87.5 L81.5,136.5" id="Line-2"></path>
                        </g>
                    </g>
                </g>
                <g id="A">
                    <g transform="translate(0.757429, 0.310871)">
                        <g id="jichusheshi-" transform="translate(37.579498, 35.021752)">
                            <g id="凹陷方块" transform="translate(25.000000, 11.000000)">
                                <g id="Group-19" transform="translate(0.445222, 0.082315)">
                                    <polygon id="Path-17" fill="#58BF00" transform="translate(12.777010, 25.076110) rotate(-9.000000) translate(-12.777010, -25.076110) " points="2.99208353 23.9414142 14.7730227 32.0636264 22.5619355 26.0240387 10.6940284 18.0885943"></polygon>
                                    <polygon id="Path-15" fill="#479603" points="9.62414532 18.5618773 22.4169361 24.5152588 22.4169361 33.1168368 9.45773524 27.035476"></polygon>
                                    <polygon id="Path-17" fill="#58BF00" transform="translate(12.612754, 33.694191) rotate(-9.000000) translate(-12.612754, -33.694191) " points="2.82782848 32.5594947 14.6087677 40.6817068 22.3976804 34.6421192 10.5297733 26.7066748"></polygon>
                                    <polygon id="Path-17" fill="#58BF00" transform="translate(26.547896, 10.607748) rotate(-9.000000) translate(-26.547896, -10.607748) " points="16.7629697 9.47305192 28.5439089 17.5952641 36.3328217 11.5556764 24.4649145 3.620232"></polygon>
                                    <polygon id="Path-15" fill="#8AD500" points="2.83069962 17.0012141 15.6759372 23.1080573 15.6759372 31.2935722 2.83069962 25.1378639"></polygon>
                                    <polygon id="Path-15" fill="#8AD500" points="2.77540398 34.0984317 15.6900039 40.261713 15.6759372 48.9209566 2.77540398 42.2350815"></polygon>
                                    <path d="M16.7387001,30.4632696 L22.4131899,33.1778301" id="Line-28" stroke="#FFFFFF" stroke-width="0.2" stroke-linecap="square"></path>
                                    <polygon id="Path-16" fill="#D5D5D5" points="15.6759372 40.4594248 15.6759372 48.9162328 22.3895044 41.9584598 22.8546496 41.4763949 29.6989406 34.3831429 29.6989406 25.609231"></polygon>
                                    <polygon id="Path-16" fill="#50AC02" points="15.6759372 23.1028675 15.6759372 31.4806579 22.3895044 24.5004943 22.4255004 33.0910822 15.6759372 40.2566325 15.6759372 48.9209566 29.6989406 34.3620027 29.6989406 25.6876079 36.392674 18.6619046 36.392674 9.95811105 29.6989406 16.8930563 29.6989406 8.25267376"></polygon>
                                    <polygon id="Path-17" fill="#58BF00" transform="translate(16.291914, 12.727763) rotate(-9.000000) translate(-16.291914, -12.727763) " points="2.32643077 14.8438743 14.062724 22.8824168 30.2573974 10.4248842 18.4341363 2.57310947"></polygon>
                                </g>
                                <path d="M16.9056369,1.94110484 L30.1452028,8.27464373" id="Line-28" stroke="#FFFFFF" stroke-width="0.2" stroke-linecap="square"></path>
                                <path d="M30.1024378,8.36988693 L16.099131,23.1401572" id="Line-28" stroke="#FFFFFF" stroke-width="0.2" stroke-linecap="square"></path>
                                <path d="M2.71199923,33.9962221 L15.9515651,40.329761" id="Line-28" stroke="#FFFFFF" stroke-width="0.2" stroke-linecap="square"></path>
                                <path d="M2.71199923,33.9962221 L15.9515651,40.329761" id="Line-28" stroke="#FFFFFF" stroke-width="0.2" stroke-linecap="square"></path>
                                <path d="M22.8524035,33.2815741 L16.178664,40.3208355" id="Line-28" stroke="#FFFFFF" stroke-width="0.2" stroke-linecap="square"></path>
                                <path d="M36.8451104,9.997103 L30.1713709,17.0363644" id="Line-28" stroke="#FFFFFF" stroke-width="0.2" stroke-linecap="square"></path>
                                <path d="M2.88863841,25.1370751 L16.1282043,31.470614" id="Line-28" stroke="#FFFFFF" stroke-width="0.2" stroke-linecap="square"></path>
                                <path d="M16.0608403,23.2299154 C16.0608403,26.8605877 16.0608403,29.5733691 16.0608403,31.3682595 M16.0608403,40.3983137 C16.0608403,46.0285574 16.0608403,49.0636763 16.0608403,49.5036705" id="Line-3" stroke="#FFFFFF" stroke-width="0.2" stroke-linecap="square"></path>
                                <path d="M30.1069362,8.44110484 C30.1069362,9.76669337 30.1069362,13.1524372 30.1069362,17.0748165" id="Line-3" stroke="#FFFFFF" stroke-width="0.2" stroke-linecap="square"></path>
                            </g>
                            <g id="凹陷方块" transform="translate(25.000000, 11.000000)">
                                <g id="Group-19" transform="translate(0.445222, 0.082315)">
                                    <polygon id="Path-17" fill="#58BF00" transform="translate(12.777010, 25.076110) rotate(-9.000000) translate(-12.777010, -25.076110) " points="2.99208353 23.9414142 14.7730227 32.0636264 22.5619355 26.0240387 10.6940284 18.0885943"></polygon>
                                    <polygon id="Path-15" fill="#479603" points="9.62414532 18.5618773 22.4169361 24.5152588 22.4169361 33.1168368 9.45773524 27.035476"></polygon>
                                    <polygon id="Path-17" fill="#58BF00" transform="translate(12.612754, 33.694191) rotate(-9.000000) translate(-12.612754, -33.694191) " points="2.82782848 32.5594947 14.6087677 40.6817068 22.3976804 34.6421192 10.5297733 26.7066748"></polygon>
                                    <polygon id="Path-17" fill="#58BF00" transform="translate(26.547896, 10.607748) rotate(-9.000000) translate(-26.547896, -10.607748) " points="16.7629697 9.47305192 28.5439089 17.5952641 36.3328217 11.5556764 24.4649145 3.620232"></polygon>
                                    <polygon id="Path-15" fill="#8AD500" points="2.83069962 17.0012141 15.6759372 23.1080573 15.6759372 31.2935722 2.83069962 25.1378639"></polygon>
                                    <polygon id="Path-15" fill="#8AD500" points="2.77540398 34.0984317 15.6900039 40.261713 15.6759372 48.9209566 2.77540398 42.2350815"></polygon>
                                    <path d="M16.7387001,30.4632696 L22.4131899,33.1778301" id="Line-28" stroke="#FFFFFF" stroke-width="0.2" stroke-linecap="square"></path>
                                    <polygon id="Path-16" fill="#D5D5D5" points="15.6759372 40.4594248 15.6759372 48.9162328 22.3895044 41.9584598 22.8546496 41.4763949 29.6989406 34.3831429 29.6989406 25.609231"></polygon>
                                    <polygon id="Path-16" fill="#50AC02" points="15.6759372 23.1028675 15.6759372 31.4806579 22.3895044 24.5004943 22.4255004 33.0910822 15.6759372 40.2566325 15.6759372 48.9209566 29.6989406 34.3620027 29.6989406 25.6876079 36.392674 18.6619046 36.392674 9.95811105 29.6989406 16.8930563 29.6989406 8.25267376"></polygon>
                                    <polygon id="Path-17" fill="#58BF00" transform="translate(16.291914, 12.727763) rotate(-9.000000) translate(-16.291914, -12.727763) " points="2.32643077 14.8438743 14.062724 22.8824168 30.2573974 10.4248842 18.4341363 2.57310947"></polygon>
                                </g>
                                <path d="M16.9056369,1.94110484 L30.1452028,8.27464373" id="Line-28" stroke="#FFFFFF" stroke-width="0.2" stroke-linecap="square"></path>
                                <path d="M30.1024378,8.36988693 L16.099131,23.1401572" id="Line-28" stroke="#FFFFFF" stroke-width="0.2" stroke-linecap="square"></path>
                                <path d="M2.71199923,33.9962221 L15.9515651,40.329761" id="Line-28" stroke="#FFFFFF" stroke-width="0.2" stroke-linecap="square"></path>
                                <path d="M2.71199923,33.9962221 L15.9515651,40.329761" id="Line-28" stroke="#FFFFFF" stroke-width="0.2" stroke-linecap="square"></path>
                                <path d="M22.8524035,33.2815741 L16.178664,40.3208355" id="Line-28" stroke="#FFFFFF" stroke-width="0.2" stroke-linecap="square"></path>
                                <path d="M36.8451104,9.997103 L30.1713709,17.0363644" id="Line-28" stroke="#FFFFFF" stroke-width="0.2" stroke-linecap="square"></path>
                                <path d="M2.88863841,25.1370751 L16.1282043,31.470614" id="Line-28" stroke="#FFFFFF" stroke-width="0.2" stroke-linecap="square"></path>
                                <path d="M16.0608403,23.2299154 C16.0608403,26.8605877 16.0608403,29.5733691 16.0608403,31.3682595 M16.0608403,40.3983137 C16.0608403,46.0285574 16.0608403,49.0636763 16.0608403,49.5036705" id="Line-3" stroke="#FFFFFF" stroke-width="0.2" stroke-linecap="square"></path>
                                <path d="M30.1069362,8.44110484 C30.1069362,9.76669337 30.1069362,13.1524372 30.1069362,17.0748165" id="Line-3" stroke="#FFFFFF" stroke-width="0.2" stroke-linecap="square"></path>
                            </g>
                            <g id="凹陷方块" transform="translate(10.229114, 5.468362)">
                                <g id="Group-19" transform="translate(0.445222, 0.082315)">
                                    <polygon id="Path-15" fill="#8AD500" points="3.77540398 37.0760755 16.6900039 43.2393568 16.6759372 68.9209566 3.77540398 62.2350815"></polygon>
                                    <polygon id="Path-15" fill="#8AD500" points="7.55479123 58.4071095 20.4693912 64.5703908 20.4553245 73.2296344 7.55479123 66.5437593"></polygon>
                                    <polygon id="Path-15" fill="#8AD500" points="13.6183973 51.9967597 26.5329973 58.160041 26.5189306 66.8192846 13.6183973 60.1334095"></polygon>
                                    <polygon id="Path-16" fill="#50AC02" points="16.6534909 42.8978322 16.6534909 51.2756226 16.6534909 60.0515972 16.6534909 68.7159213 20.5141354 64.7077253 20.5249734 73.1570906 26.5811432 66.9048135 26.5811432 58.4088404 30.6764943 54.1569675 30.6764943 45.4825726 37.3702277 38.4568694 37.3702277 29.5250267 30.6764943 36.5388959 30.535734 28.3603384"></polygon>
                                    <polygon id="Path-17" fill="#58BF00" transform="translate(17.291914, 32.727763) rotate(-9.000000) translate(-17.291914, -32.727763) " points="3.32643077 34.8438743 15.062724 42.8824168 31.2573974 30.4248842 19.4341363 22.5731095"></polygon>
                                    <polygon id="Path-17" fill="#58BF00" transform="translate(18.327093, 12.290004) rotate(-9.000000) translate(-18.327093, -12.290004) " points="4.65742785 14.4009926 15.8020839 22.4497806 31.9967573 9.99224804 20.7651333 2.1302278"></polygon>
                                    <polygon id="Path-17" fill="#58BF00" transform="translate(9.443064, 21.594111) rotate(-9.000000) translate(-9.443064, -21.594111) " points="1.18757633 19.387219 12.725701 27.3414067 17.6985512 23.6142346 6.07345852 15.8468147"></polygon>
                                </g>
                                <path d="M4.31646909,37.107568 L16.9515651,43.1519408" id="Line-28" stroke="#FFFFFF" stroke-width="0.2" stroke-linecap="square"></path>
                                <path d="M31.1024378,28.3698869 L17.099131,43.1401572" id="Line-28" stroke="#FFFFFF" stroke-width="0.2" stroke-linecap="square"></path>
                                <path d="M20.9601451,64.7834855 L17.194165,68.755729" id="Line-28" stroke="#FFFFFF" stroke-width="0.2" stroke-linecap="square"></path>
                                <path d="M31.047447,28.4118306 C31.047447,29.7374191 31.047447,32.8038875 31.047447,36.7262667" id="Line-3" stroke="#FFFFFF" stroke-width="0.2" stroke-linecap="square"></path>
                                <path d="M31.1055994,45.6886246 C31.1055994,47.0142132 31.1055994,50.3299546 31.1055994,54.2523339" id="Line-3" stroke="#FFFFFF" stroke-width="0.2" stroke-linecap="square"></path>
                                <path d="M20.9319687,64.8799298 C20.9319687,66.2055184 20.9319687,69.5212598 20.9319687,73.4436391" id="Line-3" stroke="#FFFFFF" stroke-width="0.2" stroke-linecap="square"></path>
                                <path d="M37.8225994,38.5452256 L31.1488599,45.584487" id="Line-28" stroke="#FFFFFF" stroke-width="0.2" stroke-linecap="square"></path>
                                <path d="M37.8758328,29.6813828 L37.8758328,38.4417641" id="Line-3" stroke="#FFFFFF" stroke-width="0.2" stroke-linecap="square"></path>
                                <path d="M37.7794308,29.7205697 L31.1508012,36.7113934" id="Line-28" stroke="#FFFFFF" stroke-width="0.2" stroke-linecap="square"></path>
                                <path d="M17.099131,43.2364816 C17.099131,44.5620701 17.099131,64.8269182 17.099131,68.7492975 L4.21398562,62.2622524" id="Line-3" stroke="#FFFFFF" stroke-width="0.2" stroke-linecap="square"></path>
                                <path d="M18.3102925,22.3825224 L30.921761,28.4155923" id="Line-28" stroke="#FFFFFF" stroke-width="0.2" stroke-linecap="square"></path>
                                <path d="M5.50856854,16.249632 L18.120037,22.2827019" id="Line-28" stroke="#FFFFFF" stroke-width="0.2" stroke-linecap="square"></path>
                                <path d="M32.3816329,7.46834895 L18.3783261,22.2386193" id="Line-28" stroke="#FFFFFF" stroke-width="0.2" stroke-linecap="square"></path>
                                <path d="M19.4426336,1.40305818 L5.43932677,16.1733285" id="Line-28" stroke="#FFFFFF" stroke-width="0.2" stroke-linecap="square"></path>
                            </g>
                            <polygon id="Path-17" fill="#58BF00" transform="translate(28.869802, 9.242874) rotate(-9.000000) translate(-28.869802, -9.242874) " points="19.2425717 8.26154086 30.6575288 16.125576 38.4970331 9.89810592 27.2116357 2.36017269"></polygon>
                            <polyline id="Path-15" fill="#8AD500" points="31.652473 15.6343384 31.6384063 24.2848259 19.1269325 18.2852658 19.1269325 9.63410039"></polyline>
                            <polygon id="Path-16" fill="#50AC02" points="31.652473 15.8858641 31.652473 24.2848259 38.4020363 17.2119439 38.4020363 8.49587824"></polygon>
                            <path d="M31.709368,15.8427819 C31.709368,17.1683704 31.709368,20.2348388 31.709368,24.1572181" id="Line-3" stroke="#FFFFFF" stroke-width="0.2" stroke-linecap="square"></path>
                            <path d="M19.0647877,18.2356968 L31.6762562,24.2687666" id="Line-28" stroke="#FFFFFF" stroke-width="0.2" stroke-linecap="square"></path>
                            <path d="M45.7980459,0.841557088 L31.7947391,15.6118274" id="Line-28" stroke="#FFFFFF" stroke-width="0.2" stroke-linecap="square"></path>
                            <polyline id="Line-28" stroke="#FFFFFF" stroke-width="0.2" stroke-linecap="square" points="19.1501588 9.73454907 31.5994451 15.6900342 31.6939221 15.7382203"></polyline>
                            <polygon id="Path-15" fill="#8AD500" points="24.1812471 32.3071506 18.7806238 38.1210473 11.6621242 34.8314677 11.6621242 26.1803022"></polygon>
                            <polyline id="Line-28" stroke="#FFFFFF" stroke-width="0.2" stroke-linecap="square" points="11.6853505 26.2807509 24.1346367 32.2362361 24.2291138 32.2844221"></polyline>
                            <polygon id="Path-17" fill="#58BF00" transform="translate(10.262672, 37.364768) rotate(-9.000000) translate(-10.262672, -37.364768) " points="2.00955794 35.1969942 13.5429359 43.0729468 18.515786 39.3457747 6.89544013 31.6565899"></polygon>
                            <polyline id="Line-28" stroke="#FFFFFF" stroke-width="0.2" stroke-linecap="square" points="1.82215898 36.4624665 14.2714452 42.4179516 14.3659223 42.4661377"></polyline>
                            <polyline id="Line-28" stroke="#FFFFFF" stroke-width="0.2" stroke-linecap="square" points="1.82215898 36.4624665 14.2714452 42.4179516 14.3659223 42.4661377"></polyline>
                            <g id="Group-18" transform="translate(0.756973, 36.091253)">
                                <polygon id="Path-15" fill="#8AD500" points="0.974443316 0.501458732 13.6591532 6.50098471 13.6450865 31.5282586 0.74455329 24.8423835"></polygon>
                                <path d="M13.6313056,6.40148889 C13.6313056,9.23195809 13.6313056,27.8768258 13.6313056,31.6220567 L13.6313056,6.40148889 Z" id="Line-3" stroke="#FFFFFF" stroke-width="0.2" stroke-linecap="square"></path>
                            </g>
                            <path d="M28.5157705,27.8037968 L14.5124637,42.5740671 L28.5157705,27.8037968 Z M6.11767921,32.0418412 L18.5669655,37.9973264 L18.6614425,38.0455124 L6.11767921,32.0418412 Z" id="Line-28" stroke="#FFFFFF" stroke-width="0.2" stroke-linecap="square"></path>
                        </g>
                        <g id="waikuang" transform="translate(0.481154, 0.864023)" stroke="#BFC6D3" stroke-dasharray="5" stroke-linecap="square">
                            <path d="M49.9624712,0.867873161 L131.403566,39.1462207 L131.403566,86.7011056 L81.405554,137.006262 L1.39473207,99.9969811 L1.39473207,51.3905019 L49.9624712,0.867873161 Z" id="Line-27"></path>
                            <path d="M130.028319,86.098339 L97.3124807,70.9655155 M54.1888906,51.0185508 L50.0174971,49.0890584" id="Line-27"></path>
                            <path d="M50.1182382,2.60386589 L50.1182382,50.1587508 L0.120226006,100.463907" id="Line-27"></path>
                            <path d="M1.42082808,51.1796748 L80.4208281,88.1796748 L130.569071,37.8107284" id="Line"></path>
                            <path d="M81.5,87.5 L81.5,136.5" id="Line-2"></path>
                        </g>
                    </g>
                </g>
                <g id="A">
                    <g transform="translate(0.757429, 0.310871)">
                        <g id="jichusheshi-" transform="translate(37.579498, 35.021752)">
                            <g id="凹陷方块" transform="translate(25.000000, 11.000000)">
                                <g id="Group-19" transform="translate(0.445222, 0.082315)">
                                    <polygon id="Path-17" fill="#58BF00" transform="translate(12.777010, 25.076110) rotate(-9.000000) translate(-12.777010, -25.076110) " points="2.99208353 23.9414142 14.7730227 32.0636264 22.5619355 26.0240387 10.6940284 18.0885943"></polygon>
                                    <polygon id="Path-15" fill="#479603" points="9.62414532 18.5618773 22.4169361 24.5152588 22.4169361 33.1168368 9.45773524 27.035476"></polygon>
                                    <polygon id="Path-17" fill="#58BF00" transform="translate(12.612754, 33.694191) rotate(-9.000000) translate(-12.612754, -33.694191) " points="2.82782848 32.5594947 14.6087677 40.6817068 22.3976804 34.6421192 10.5297733 26.7066748"></polygon>
                                    <polygon id="Path-17" fill="#58BF00" transform="translate(26.547896, 10.607748) rotate(-9.000000) translate(-26.547896, -10.607748) " points="16.7629697 9.47305192 28.5439089 17.5952641 36.3328217 11.5556764 24.4649145 3.620232"></polygon>
                                    <polygon id="Path-15" fill="#8AD500" points="2.83069962 17.0012141 15.6759372 23.1080573 15.6759372 31.2935722 2.83069962 25.1378639"></polygon>
                                    <polygon id="Path-15" fill="#8AD500" points="2.77540398 34.0984317 15.6900039 40.261713 15.6759372 48.9209566 2.77540398 42.2350815"></polygon>
                                    <path d="M16.7387001,30.4632696 L22.4131899,33.1778301" id="Line-28" stroke="#FFFFFF" stroke-width="0.2" stroke-linecap="square"></path>
                                    <polygon id="Path-16" fill="#D5D5D5" points="15.6759372 40.4594248 15.6759372 48.9162328 22.3895044 41.9584598 22.8546496 41.4763949 29.6989406 34.3831429 29.6989406 25.609231"></polygon>
                                    <polygon id="Path-16" fill="#50AC02" points="15.6759372 23.1028675 15.6759372 31.4806579 22.3895044 24.5004943 22.4255004 33.0910822 15.6759372 40.2566325 15.6759372 48.9209566 29.6989406 34.3620027 29.6989406 25.6876079 36.392674 18.6619046 36.392674 9.95811105 29.6989406 16.8930563 29.6989406 8.25267376"></polygon>
                                    <polygon id="Path-17" fill="#58BF00" transform="translate(16.291914, 12.727763) rotate(-9.000000) translate(-16.291914, -12.727763) " points="2.32643077 14.8438743 14.062724 22.8824168 30.2573974 10.4248842 18.4341363 2.57310947"></polygon>
                                </g>
                                <path d="M16.9056369,1.94110484 L30.1452028,8.27464373" id="Line-28" stroke="#FFFFFF" stroke-width="0.2" stroke-linecap="square"></path>
                                <path d="M30.1024378,8.36988693 L16.099131,23.1401572" id="Line-28" stroke="#FFFFFF" stroke-width="0.2" stroke-linecap="square"></path>
                                <path d="M2.71199923,33.9962221 L15.9515651,40.329761" id="Line-28" stroke="#FFFFFF" stroke-width="0.2" stroke-linecap="square"></path>
                                <path d="M2.71199923,33.9962221 L15.9515651,40.329761" id="Line-28" stroke="#FFFFFF" stroke-width="0.2" stroke-linecap="square"></path>
                                <path d="M22.8524035,33.2815741 L16.178664,40.3208355" id="Line-28" stroke="#FFFFFF" stroke-width="0.2" stroke-linecap="square"></path>
                                <path d="M36.8451104,9.997103 L30.1713709,17.0363644" id="Line-28" stroke="#FFFFFF" stroke-width="0.2" stroke-linecap="square"></path>
                                <path d="M2.88863841,25.1370751 L16.1282043,31.470614" id="Line-28" stroke="#FFFFFF" stroke-width="0.2" stroke-linecap="square"></path>
                                <path d="M16.0608403,23.2299154 C16.0608403,26.8605877 16.0608403,29.5733691 16.0608403,31.3682595 M16.0608403,40.3983137 C16.0608403,46.0285574 16.0608403,49.0636763 16.0608403,49.5036705" id="Line-3" stroke="#FFFFFF" stroke-width="0.2" stroke-linecap="square"></path>
                                <path d="M30.1069362,8.44110484 C30.1069362,9.76669337 30.1069362,13.1524372 30.1069362,17.0748165" id="Line-3" stroke="#FFFFFF" stroke-width="0.2" stroke-linecap="square"></path>
                            </g>
                            <g id="凹陷方块" transform="translate(25.000000, 11.000000)">
                                <g id="Group-19" transform="translate(0.445222, 0.082315)">
                                    <polygon id="Path-17" fill="#58BF00" transform="translate(12.777010, 25.076110) rotate(-9.000000) translate(-12.777010, -25.076110) " points="2.99208353 23.9414142 14.7730227 32.0636264 22.5619355 26.0240387 10.6940284 18.0885943"></polygon>
                                    <polygon id="Path-15" fill="#479603" points="9.62414532 18.5618773 22.4169361 24.5152588 22.4169361 33.1168368 9.45773524 27.035476"></polygon>
                                    <polygon id="Path-17" fill="#58BF00" transform="translate(12.612754, 33.694191) rotate(-9.000000) translate(-12.612754, -33.694191) " points="2.82782848 32.5594947 14.6087677 40.6817068 22.3976804 34.6421192 10.5297733 26.7066748"></polygon>
                                    <polygon id="Path-17" fill="#58BF00" transform="translate(26.547896, 10.607748) rotate(-9.000000) translate(-26.547896, -10.607748) " points="16.7629697 9.47305192 28.5439089 17.5952641 36.3328217 11.5556764 24.4649145 3.620232"></polygon>
                                    <polygon id="Path-15" fill="#8AD500" points="2.83069962 17.0012141 15.6759372 23.1080573 15.6759372 31.2935722 2.83069962 25.1378639"></polygon>
                                    <polygon id="Path-15" fill="#8AD500" points="2.77540398 34.0984317 15.6900039 40.261713 15.6759372 48.9209566 2.77540398 42.2350815"></polygon>
                                    <path d="M16.7387001,30.4632696 L22.4131899,33.1778301" id="Line-28" stroke="#FFFFFF" stroke-width="0.2" stroke-linecap="square"></path>
                                    <polygon id="Path-16" fill="#D5D5D5" points="15.6759372 40.4594248 15.6759372 48.9162328 22.3895044 41.9584598 22.8546496 41.4763949 29.6989406 34.3831429 29.6989406 25.609231"></polygon>
                                    <polygon id="Path-16" fill="#50AC02" points="15.6759372 23.1028675 15.6759372 31.4806579 22.3895044 24.5004943 22.4255004 33.0910822 15.6759372 40.2566325 15.6759372 48.9209566 29.6989406 34.3620027 29.6989406 25.6876079 36.392674 18.6619046 36.392674 9.95811105 29.6989406 16.8930563 29.6989406 8.25267376"></polygon>
                                    <polygon id="Path-17" fill="#58BF00" transform="translate(16.291914, 12.727763) rotate(-9.000000) translate(-16.291914, -12.727763) " points="2.32643077 14.8438743 14.062724 22.8824168 30.2573974 10.4248842 18.4341363 2.57310947"></polygon>
                                </g>
                                <path d="M16.9056369,1.94110484 L30.1452028,8.27464373" id="Line-28" stroke="#FFFFFF" stroke-width="0.2" stroke-linecap="square"></path>
                                <path d="M30.1024378,8.36988693 L16.099131,23.1401572" id="Line-28" stroke="#FFFFFF" stroke-width="0.2" stroke-linecap="square"></path>
                                <path d="M2.71199923,33.9962221 L15.9515651,40.329761" id="Line-28" stroke="#FFFFFF" stroke-width="0.2" stroke-linecap="square"></path>
                                <path d="M2.71199923,33.9962221 L15.9515651,40.329761" id="Line-28" stroke="#FFFFFF" stroke-width="0.2" stroke-linecap="square"></path>
                                <path d="M22.8524035,33.2815741 L16.178664,40.3208355" id="Line-28" stroke="#FFFFFF" stroke-width="0.2" stroke-linecap="square"></path>
                                <path d="M36.8451104,9.997103 L30.1713709,17.0363644" id="Line-28" stroke="#FFFFFF" stroke-width="0.2" stroke-linecap="square"></path>
                                <path d="M2.88863841,25.1370751 L16.1282043,31.470614" id="Line-28" stroke="#FFFFFF" stroke-width="0.2" stroke-linecap="square"></path>
                                <path d="M16.0608403,23.2299154 C16.0608403,26.8605877 16.0608403,29.5733691 16.0608403,31.3682595 M16.0608403,40.3983137 C16.0608403,46.0285574 16.0608403,49.0636763 16.0608403,49.5036705" id="Line-3" stroke="#FFFFFF" stroke-width="0.2" stroke-linecap="square"></path>
                                <path d="M30.1069362,8.44110484 C30.1069362,9.76669337 30.1069362,13.1524372 30.1069362,17.0748165" id="Line-3" stroke="#FFFFFF" stroke-width="0.2" stroke-linecap="square"></path>
                            </g>
                            <g id="凹陷方块" transform="translate(10.229114, 5.468362)">
                                <g id="Group-19" transform="translate(0.445222, 0.082315)">
                                    <polygon id="Path-15" fill="#8AD500" points="3.77540398 37.0760755 16.6900039 43.2393568 16.6759372 68.9209566 3.77540398 62.2350815"></polygon>
                                    <polygon id="Path-15" fill="#8AD500" points="7.55479123 58.4071095 20.4693912 64.5703908 20.4553245 73.2296344 7.55479123 66.5437593"></polygon>
                                    <polygon id="Path-15" fill="#8AD500" points="13.6183973 51.9967597 26.5329973 58.160041 26.5189306 66.8192846 13.6183973 60.1334095"></polygon>
                                    <polygon id="Path-16" fill="#50AC02" points="16.6534909 42.8978322 16.6534909 51.2756226 16.6534909 60.0515972 16.6534909 68.7159213 20.5141354 64.7077253 20.5249734 73.1570906 26.5811432 66.9048135 26.5811432 58.4088404 30.6764943 54.1569675 30.6764943 45.4825726 37.3702277 38.4568694 37.3702277 29.5250267 30.6764943 36.5388959 30.535734 28.3603384"></polygon>
                                    <polygon id="Path-17" fill="#58BF00" transform="translate(17.291914, 32.727763) rotate(-9.000000) translate(-17.291914, -32.727763) " points="3.32643077 34.8438743 15.062724 42.8824168 31.2573974 30.4248842 19.4341363 22.5731095"></polygon>
                                    <polygon id="Path-17" fill="#58BF00" transform="translate(18.327093, 12.290004) rotate(-9.000000) translate(-18.327093, -12.290004) " points="4.65742785 14.4009926 15.8020839 22.4497806 31.9967573 9.99224804 20.7651333 2.1302278"></polygon>
                                    <polygon id="Path-17" fill="#58BF00" transform="translate(9.443064, 21.594111) rotate(-9.000000) translate(-9.443064, -21.594111) " points="1.18757633 19.387219 12.725701 27.3414067 17.6985512 23.6142346 6.07345852 15.8468147"></polygon>
                                </g>
                                <path d="M4.31646909,37.107568 L16.9515651,43.1519408" id="Line-28" stroke="#FFFFFF" stroke-width="0.2" stroke-linecap="square"></path>
                                <path d="M31.1024378,28.3698869 L17.099131,43.1401572" id="Line-28" stroke="#FFFFFF" stroke-width="0.2" stroke-linecap="square"></path>
                                <path d="M20.9601451,64.7834855 L17.194165,68.755729" id="Line-28" stroke="#FFFFFF" stroke-width="0.2" stroke-linecap="square"></path>
                                <path d="M31.047447,28.4118306 C31.047447,29.7374191 31.047447,32.8038875 31.047447,36.7262667" id="Line-3" stroke="#FFFFFF" stroke-width="0.2" stroke-linecap="square"></path>
                                <path d="M31.1055994,45.6886246 C31.1055994,47.0142132 31.1055994,50.3299546 31.1055994,54.2523339" id="Line-3" stroke="#FFFFFF" stroke-width="0.2" stroke-linecap="square"></path>
                                <path d="M20.9319687,64.8799298 C20.9319687,66.2055184 20.9319687,69.5212598 20.9319687,73.4436391" id="Line-3" stroke="#FFFFFF" stroke-width="0.2" stroke-linecap="square"></path>
                                <path d="M37.8225994,38.5452256 L31.1488599,45.584487" id="Line-28" stroke="#FFFFFF" stroke-width="0.2" stroke-linecap="square"></path>
                                <path d="M37.8758328,29.6813828 L37.8758328,38.4417641" id="Line-3" stroke="#FFFFFF" stroke-width="0.2" stroke-linecap="square"></path>
                                <path d="M37.7794308,29.7205697 L31.1508012,36.7113934" id="Line-28" stroke="#FFFFFF" stroke-width="0.2" stroke-linecap="square"></path>
                                <path d="M17.099131,43.2364816 C17.099131,44.5620701 17.099131,64.8269182 17.099131,68.7492975 L4.21398562,62.2622524" id="Line-3" stroke="#FFFFFF" stroke-width="0.2" stroke-linecap="square"></path>
                                <path d="M18.3102925,22.3825224 L30.921761,28.4155923" id="Line-28" stroke="#FFFFFF" stroke-width="0.2" stroke-linecap="square"></path>
                                <path d="M5.50856854,16.249632 L18.120037,22.2827019" id="Line-28" stroke="#FFFFFF" stroke-width="0.2" stroke-linecap="square"></path>
                                <path d="M32.3816329,7.46834895 L18.3783261,22.2386193" id="Line-28" stroke="#FFFFFF" stroke-width="0.2" stroke-linecap="square"></path>
                                <path d="M19.4426336,1.40305818 L5.43932677,16.1733285" id="Line-28" stroke="#FFFFFF" stroke-width="0.2" stroke-linecap="square"></path>
                            </g>
                            <polygon id="Path-17" fill="#58BF00" transform="translate(28.869802, 9.242874) rotate(-9.000000) translate(-28.869802, -9.242874) " points="19.2425717 8.26154086 30.6575288 16.125576 38.4970331 9.89810592 27.2116357 2.36017269"></polygon>
                            <polyline id="Path-15" fill="#8AD500" points="31.652473 15.6343384 31.6384063 24.2848259 19.1269325 18.2852658 19.1269325 9.63410039"></polyline>
                            <polygon id="Path-16" fill="#50AC02" points="31.652473 15.8858641 31.652473 24.2848259 38.4020363 17.2119439 38.4020363 8.49587824"></polygon>
                            <path d="M31.709368,15.8427819 C31.709368,17.1683704 31.709368,20.2348388 31.709368,24.1572181" id="Line-3" stroke="#FFFFFF" stroke-width="0.2" stroke-linecap="square"></path>
                            <path d="M19.0647877,18.2356968 L31.6762562,24.2687666" id="Line-28" stroke="#FFFFFF" stroke-width="0.2" stroke-linecap="square"></path>
                            <path d="M45.7980459,0.841557088 L31.7947391,15.6118274" id="Line-28" stroke="#FFFFFF" stroke-width="0.2" stroke-linecap="square"></path>
                            <polyline id="Line-28" stroke="#FFFFFF" stroke-width="0.2" stroke-linecap="square" points="19.1501588 9.73454907 31.5994451 15.6900342 31.6939221 15.7382203"></polyline>
                            <polygon id="Path-15" fill="#8AD500" points="24.1812471 32.3071506 18.7806238 38.1210473 11.6621242 34.8314677 11.6621242 26.1803022"></polygon>
                            <polyline id="Line-28" stroke="#FFFFFF" stroke-width="0.2" stroke-linecap="square" points="11.6853505 26.2807509 24.1346367 32.2362361 24.2291138 32.2844221"></polyline>
                            <polygon id="Path-17" fill="#58BF00" transform="translate(10.262672, 37.364768) rotate(-9.000000) translate(-10.262672, -37.364768) " points="2.00955794 35.1969942 13.5429359 43.0729468 18.515786 39.3457747 6.89544013 31.6565899"></polygon>
                            <polyline id="Line-28" stroke="#FFFFFF" stroke-width="0.2" stroke-linecap="square" points="1.82215898 36.4624665 14.2714452 42.4179516 14.3659223 42.4661377"></polyline>
                            <polyline id="Line-28" stroke="#FFFFFF" stroke-width="0.2" stroke-linecap="square" points="1.82215898 36.4624665 14.2714452 42.4179516 14.3659223 42.4661377"></polyline>
                            <g id="Group-18" transform="translate(0.756973, 36.091253)">
                                <polygon id="Path-15" fill="#8AD500" points="0.974443316 0.501458732 13.6591532 6.50098471 13.6450865 31.5282586 0.74455329 24.8423835"></polygon>
                                <path d="M13.6313056,6.40148889 C13.6313056,9.23195809 13.6313056,27.8768258 13.6313056,31.6220567 L13.6313056,6.40148889 Z" id="Line-3" stroke="#FFFFFF" stroke-width="0.2" stroke-linecap="square"></path>
                            </g>
                            <path d="M28.5157705,27.8037968 L14.5124637,42.5740671 L28.5157705,27.8037968 Z M6.11767921,32.0418412 L18.5669655,37.9973264 L18.6614425,38.0455124 L6.11767921,32.0418412 Z" id="Line-28" stroke="#FFFFFF" stroke-width="0.2" stroke-linecap="square"></path>
                        </g>
                        <g id="waikuang" transform="translate(0.481154, 0.864023)" stroke="#BFC6D3" stroke-dasharray="5" stroke-linecap="square">
                            <path d="M49.9624712,0.867873161 L131.403566,39.1462207 L131.403566,86.7011056 L81.405554,137.006262 L1.39473207,99.9969811 L1.39473207,51.3905019 L49.9624712,0.867873161 Z" id="Line-27"></path>
                            <path d="M130.028319,86.098339 L97.3124807,70.9655155 M54.1888906,51.0185508 L50.0174971,49.0890584" id="Line-27"></path>
                            <path d="M50.1182382,2.60386589 L50.1182382,50.1587508 L0.120226006,100.463907" id="Line-27"></path>
                            <path d="M1.42082808,51.1796748 L80.4208281,88.1796748 L130.569071,37.8107284" id="Line"></path>
                            <path d="M81.5,87.5 L81.5,136.5" id="Line-2"></path>
                        </g>
                    </g>
                </g>
                <g id="A">
                    <g transform="translate(0.757429, 0.310871)">
                        <g id="jichusheshi-" transform="translate(37.579498, 35.021752)">
                            <g id="凹陷方块" transform="translate(25.000000, 11.000000)">
                                <g id="Group-19" transform="translate(0.445222, 0.082315)">
                                    <polygon id="Path-17" fill="#58BF00" transform="translate(12.777010, 25.076110) rotate(-9.000000) translate(-12.777010, -25.076110) " points="2.99208353 23.9414142 14.7730227 32.0636264 22.5619355 26.0240387 10.6940284 18.0885943"></polygon>
                                    <polygon id="Path-15" fill="#479603" points="9.62414532 18.5618773 22.4169361 24.5152588 22.4169361 33.1168368 9.45773524 27.035476"></polygon>
                                    <polygon id="Path-17" fill="#58BF00" transform="translate(12.612754, 33.694191) rotate(-9.000000) translate(-12.612754, -33.694191) " points="2.82782848 32.5594947 14.6087677 40.6817068 22.3976804 34.6421192 10.5297733 26.7066748"></polygon>
                                    <polygon id="Path-17" fill="#58BF00" transform="translate(26.547896, 10.607748) rotate(-9.000000) translate(-26.547896, -10.607748) " points="16.7629697 9.47305192 28.5439089 17.5952641 36.3328217 11.5556764 24.4649145 3.620232"></polygon>
                                    <polygon id="Path-15" fill="#8AD500" points="2.83069962 17.0012141 15.6759372 23.1080573 15.6759372 31.2935722 2.83069962 25.1378639"></polygon>
                                    <polygon id="Path-15" fill="#8AD500" points="2.77540398 34.0984317 15.6900039 40.261713 15.6759372 48.9209566 2.77540398 42.2350815"></polygon>
                                    <path d="M16.7387001,30.4632696 L22.4131899,33.1778301" id="Line-28" stroke="#FFFFFF" stroke-width="0.2" stroke-linecap="square"></path>
                                    <polygon id="Path-16" fill="#D5D5D5" points="15.6759372 40.4594248 15.6759372 48.9162328 22.3895044 41.9584598 22.8546496 41.4763949 29.6989406 34.3831429 29.6989406 25.609231"></polygon>
                                    <polygon id="Path-16" fill="#50AC02" points="15.6759372 23.1028675 15.6759372 31.4806579 22.3895044 24.5004943 22.4255004 33.0910822 15.6759372 40.2566325 15.6759372 48.9209566 29.6989406 34.3620027 29.6989406 25.6876079 36.392674 18.6619046 36.392674 9.95811105 29.6989406 16.8930563 29.6989406 8.25267376"></polygon>
                                    <polygon id="Path-17" fill="#58BF00" transform="translate(16.291914, 12.727763) rotate(-9.000000) translate(-16.291914, -12.727763) " points="2.32643077 14.8438743 14.062724 22.8824168 30.2573974 10.4248842 18.4341363 2.57310947"></polygon>
                                </g>
                                <path d="M16.9056369,1.94110484 L30.1452028,8.27464373" id="Line-28" stroke="#FFFFFF" stroke-width="0.2" stroke-linecap="square"></path>
                                <path d="M30.1024378,8.36988693 L16.099131,23.1401572" id="Line-28" stroke="#FFFFFF" stroke-width="0.2" stroke-linecap="square"></path>
                                <path d="M2.71199923,33.9962221 L15.9515651,40.329761" id="Line-28" stroke="#FFFFFF" stroke-width="0.2" stroke-linecap="square"></path>
                                <path d="M2.71199923,33.9962221 L15.9515651,40.329761" id="Line-28" stroke="#FFFFFF" stroke-width="0.2" stroke-linecap="square"></path>
                                <path d="M22.8524035,33.2815741 L16.178664,40.3208355" id="Line-28" stroke="#FFFFFF" stroke-width="0.2" stroke-linecap="square"></path>
                                <path d="M36.8451104,9.997103 L30.1713709,17.0363644" id="Line-28" stroke="#FFFFFF" stroke-width="0.2" stroke-linecap="square"></path>
                                <path d="M2.88863841,25.1370751 L16.1282043,31.470614" id="Line-28" stroke="#FFFFFF" stroke-width="0.2" stroke-linecap="square"></path>
                                <path d="M16.0608403,23.2299154 C16.0608403,26.8605877 16.0608403,29.5733691 16.0608403,31.3682595 M16.0608403,40.3983137 C16.0608403,46.0285574 16.0608403,49.0636763 16.0608403,49.5036705" id="Line-3" stroke="#FFFFFF" stroke-width="0.2" stroke-linecap="square"></path>
                                <path d="M30.1069362,8.44110484 C30.1069362,9.76669337 30.1069362,13.1524372 30.1069362,17.0748165" id="Line-3" stroke="#FFFFFF" stroke-width="0.2" stroke-linecap="square"></path>
                            </g>
                            <g id="凹陷方块" transform="translate(25.000000, 11.000000)">
                                <g id="Group-19" transform="translate(0.445222, 0.082315)">
                                    <polygon id="Path-17" fill="#58BF00" transform="translate(12.777010, 25.076110) rotate(-9.000000) translate(-12.777010, -25.076110) " points="2.99208353 23.9414142 14.7730227 32.0636264 22.5619355 26.0240387 10.6940284 18.0885943"></polygon>
                                    <polygon id="Path-15" fill="#479603" points="9.62414532 18.5618773 22.4169361 24.5152588 22.4169361 33.1168368 9.45773524 27.035476"></polygon>
                                    <polygon id="Path-17" fill="#58BF00" transform="translate(12.612754, 33.694191) rotate(-9.000000) translate(-12.612754, -33.694191) " points="2.82782848 32.5594947 14.6087677 40.6817068 22.3976804 34.6421192 10.5297733 26.7066748"></polygon>
                                    <polygon id="Path-17" fill="#58BF00" transform="translate(26.547896, 10.607748) rotate(-9.000000) translate(-26.547896, -10.607748) " points="16.7629697 9.47305192 28.5439089 17.5952641 36.3328217 11.5556764 24.4649145 3.620232"></polygon>
                                    <polygon id="Path-15" fill="#8AD500" points="2.83069962 17.0012141 15.6759372 23.1080573 15.6759372 31.2935722 2.83069962 25.1378639"></polygon>
                                    <polygon id="Path-15" fill="#8AD500" points="2.77540398 34.0984317 15.6900039 40.261713 15.6759372 48.9209566 2.77540398 42.2350815"></polygon>
                                    <path d="M16.7387001,30.4632696 L22.4131899,33.1778301" id="Line-28" stroke="#FFFFFF" stroke-width="0.2" stroke-linecap="square"></path>
                                    <polygon id="Path-16" fill="#D5D5D5" points="15.6759372 40.4594248 15.6759372 48.9162328 22.3895044 41.9584598 22.8546496 41.4763949 29.6989406 34.3831429 29.6989406 25.609231"></polygon>
                                    <polygon id="Path-16" fill="#50AC02" points="15.6759372 23.1028675 15.6759372 31.4806579 22.3895044 24.5004943 22.4255004 33.0910822 15.6759372 40.2566325 15.6759372 48.9209566 29.6989406 34.3620027 29.6989406 25.6876079 36.392674 18.6619046 36.392674 9.95811105 29.6989406 16.8930563 29.6989406 8.25267376"></polygon>
                                    <polygon id="Path-17" fill="#58BF00" transform="translate(16.291914, 12.727763) rotate(-9.000000) translate(-16.291914, -12.727763) " points="2.32643077 14.8438743 14.062724 22.8824168 30.2573974 10.4248842 18.4341363 2.57310947"></polygon>
                                </g>
                                <path d="M16.9056369,1.94110484 L30.1452028,8.27464373" id="Line-28" stroke="#FFFFFF" stroke-width="0.2" stroke-linecap="square"></path>
                                <path d="M30.1024378,8.36988693 L16.099131,23.1401572" id="Line-28" stroke="#FFFFFF" stroke-width="0.2" stroke-linecap="square"></path>
                                <path d="M2.71199923,33.9962221 L15.9515651,40.329761" id="Line-28" stroke="#FFFFFF" stroke-width="0.2" stroke-linecap="square"></path>
                                <path d="M2.71199923,33.9962221 L15.9515651,40.329761" id="Line-28" stroke="#FFFFFF" stroke-width="0.2" stroke-linecap="square"></path>
                                <path d="M22.8524035,33.2815741 L16.178664,40.3208355" id="Line-28" stroke="#FFFFFF" stroke-width="0.2" stroke-linecap="square"></path>
                                <path d="M36.8451104,9.997103 L30.1713709,17.0363644" id="Line-28" stroke="#FFFFFF" stroke-width="0.2" stroke-linecap="square"></path>
                                <path d="M2.88863841,25.1370751 L16.1282043,31.470614" id="Line-28" stroke="#FFFFFF" stroke-width="0.2" stroke-linecap="square"></path>
                                <path d="M16.0608403,23.2299154 C16.0608403,26.8605877 16.0608403,29.5733691 16.0608403,31.3682595 M16.0608403,40.3983137 C16.0608403,46.0285574 16.0608403,49.0636763 16.0608403,49.5036705" id="Line-3" stroke="#FFFFFF" stroke-width="0.2" stroke-linecap="square"></path>
                                <path d="M30.1069362,8.44110484 C30.1069362,9.76669337 30.1069362,13.1524372 30.1069362,17.0748165" id="Line-3" stroke="#FFFFFF" stroke-width="0.2" stroke-linecap="square"></path>
                            </g>
                            <g id="凹陷方块" transform="translate(10.229114, 5.468362)">
                                <g id="Group-19" transform="translate(0.445222, 0.082315)">
                                    <polygon id="Path-15" fill="#8AD500" points="3.77540398 37.0760755 16.6900039 43.2393568 16.6759372 68.9209566 3.77540398 62.2350815"></polygon>
                                    <polygon id="Path-15" fill="#8AD500" points="7.55479123 58.4071095 20.4693912 64.5703908 20.4553245 73.2296344 7.55479123 66.5437593"></polygon>
                                    <polygon id="Path-15" fill="#8AD500" points="13.6183973 51.9967597 26.5329973 58.160041 26.5189306 66.8192846 13.6183973 60.1334095"></polygon>
                                    <polygon id="Path-16" fill="#50AC02" points="16.6534909 42.8978322 16.6534909 51.2756226 16.6534909 60.0515972 16.6534909 68.7159213 20.5141354 64.7077253 20.5249734 73.1570906 26.5811432 66.9048135 26.5811432 58.4088404 30.6764943 54.1569675 30.6764943 45.4825726 37.3702277 38.4568694 37.3702277 29.5250267 30.6764943 36.5388959 30.535734 28.3603384"></polygon>
                                    <polygon id="Path-17" fill="#58BF00" transform="translate(17.291914, 32.727763) rotate(-9.000000) translate(-17.291914, -32.727763) " points="3.32643077 34.8438743 15.062724 42.8824168 31.2573974 30.4248842 19.4341363 22.5731095"></polygon>
                                    <polygon id="Path-17" fill="#58BF00" transform="translate(18.327093, 12.290004) rotate(-9.000000) translate(-18.327093, -12.290004) " points="4.65742785 14.4009926 15.8020839 22.4497806 31.9967573 9.99224804 20.7651333 2.1302278"></polygon>
                                    <polygon id="Path-17" fill="#58BF00" transform="translate(9.443064, 21.594111) rotate(-9.000000) translate(-9.443064, -21.594111) " points="1.18757633 19.387219 12.725701 27.3414067 17.6985512 23.6142346 6.07345852 15.8468147"></polygon>
                                </g>
                                <path d="M4.31646909,37.107568 L16.9515651,43.1519408" id="Line-28" stroke="#FFFFFF" stroke-width="0.2" stroke-linecap="square"></path>
                                <path d="M31.1024378,28.3698869 L17.099131,43.1401572" id="Line-28" stroke="#FFFFFF" stroke-width="0.2" stroke-linecap="square"></path>
                                <path d="M20.9601451,64.7834855 L17.194165,68.755729" id="Line-28" stroke="#FFFFFF" stroke-width="0.2" stroke-linecap="square"></path>
                                <path d="M31.047447,28.4118306 C31.047447,29.7374191 31.047447,32.8038875 31.047447,36.7262667" id="Line-3" stroke="#FFFFFF" stroke-width="0.2" stroke-linecap="square"></path>
                                <path d="M31.1055994,45.6886246 C31.1055994,47.0142132 31.1055994,50.3299546 31.1055994,54.2523339" id="Line-3" stroke="#FFFFFF" stroke-width="0.2" stroke-linecap="square"></path>
                                <path d="M20.9319687,64.8799298 C20.9319687,66.2055184 20.9319687,69.5212598 20.9319687,73.4436391" id="Line-3" stroke="#FFFFFF" stroke-width="0.2" stroke-linecap="square"></path>
                                <path d="M37.8225994,38.5452256 L31.1488599,45.584487" id="Line-28" stroke="#FFFFFF" stroke-width="0.2" stroke-linecap="square"></path>
                                <path d="M37.8758328,29.6813828 L37.8758328,38.4417641" id="Line-3" stroke="#FFFFFF" stroke-width="0.2" stroke-linecap="square"></path>
                                <path d="M37.7794308,29.7205697 L31.1508012,36.7113934" id="Line-28" stroke="#FFFFFF" stroke-width="0.2" stroke-linecap="square"></path>
                                <path d="M17.099131,43.2364816 C17.099131,44.5620701 17.099131,64.8269182 17.099131,68.7492975 L4.21398562,62.2622524" id="Line-3" stroke="#FFFFFF" stroke-width="0.2" stroke-linecap="square"></path>
                                <path d="M18.3102925,22.3825224 L30.921761,28.4155923" id="Line-28" stroke="#FFFFFF" stroke-width="0.2" stroke-linecap="square"></path>
                                <path d="M5.50856854,16.249632 L18.120037,22.2827019" id="Line-28" stroke="#FFFFFF" stroke-width="0.2" stroke-linecap="square"></path>
                                <path d="M32.3816329,7.46834895 L18.3783261,22.2386193" id="Line-28" stroke="#FFFFFF" stroke-width="0.2" stroke-linecap="square"></path>
                                <path d="M19.4426336,1.40305818 L5.43932677,16.1733285" id="Line-28" stroke="#FFFFFF" stroke-width="0.2" stroke-linecap="square"></path>
                            </g>
                            <polygon id="Path-17" fill="#58BF00" transform="translate(28.869802, 9.242874) rotate(-9.000000) translate(-28.869802, -9.242874) " points="19.2425717 8.26154086 30.6575288 16.125576 38.4970331 9.89810592 27.2116357 2.36017269"></polygon>
                            <polyline id="Path-15" fill="#8AD500" points="31.652473 15.6343384 31.6384063 24.2848259 19.1269325 18.2852658 19.1269325 9.63410039"></polyline>
                            <polygon id="Path-16" fill="#50AC02" points="31.652473 15.8858641 31.652473 24.2848259 38.4020363 17.2119439 38.4020363 8.49587824"></polygon>
                            <path d="M31.709368,15.8427819 C31.709368,17.1683704 31.709368,20.2348388 31.709368,24.1572181" id="Line-3" stroke="#FFFFFF" stroke-width="0.2" stroke-linecap="square"></path>
                            <path d="M19.0647877,18.2356968 L31.6762562,24.2687666" id="Line-28" stroke="#FFFFFF" stroke-width="0.2" stroke-linecap="square"></path>
                            <path d="M45.7980459,0.841557088 L31.7947391,15.6118274" id="Line-28" stroke="#FFFFFF" stroke-width="0.2" stroke-linecap="square"></path>
                            <polyline id="Line-28" stroke="#FFFFFF" stroke-width="0.2" stroke-linecap="square" points="19.1501588 9.73454907 31.5994451 15.6900342 31.6939221 15.7382203"></polyline>
                            <polygon id="Path-15" fill="#8AD500" points="24.1812471 32.3071506 18.7806238 38.1210473 11.6621242 34.8314677 11.6621242 26.1803022"></polygon>
                            <polyline id="Line-28" stroke="#FFFFFF" stroke-width="0.2" stroke-linecap="square" points="11.6853505 26.2807509 24.1346367 32.2362361 24.2291138 32.2844221"></polyline>
                            <polygon id="Path-17" fill="#58BF00" transform="translate(10.262672, 37.364768) rotate(-9.000000) translate(-10.262672, -37.364768) " points="2.00955794 35.1969942 13.5429359 43.0729468 18.515786 39.3457747 6.89544013 31.6565899"></polygon>
                            <polyline id="Line-28" stroke="#FFFFFF" stroke-width="0.2" stroke-linecap="square" points="1.82215898 36.4624665 14.2714452 42.4179516 14.3659223 42.4661377"></polyline>
                            <polyline id="Line-28" stroke="#FFFFFF" stroke-width="0.2" stroke-linecap="square" points="1.82215898 36.4624665 14.2714452 42.4179516 14.3659223 42.4661377"></polyline>
                            <g id="Group-18" transform="translate(0.756973, 36.091253)">
                                <polygon id="Path-15" fill="#8AD500" points="0.974443316 0.501458732 13.6591532 6.50098471 13.6450865 31.5282586 0.74455329 24.8423835"></polygon>
                                <path d="M13.6313056,6.40148889 C13.6313056,9.23195809 13.6313056,27.8768258 13.6313056,31.6220567 L13.6313056,6.40148889 Z" id="Line-3" stroke="#FFFFFF" stroke-width="0.2" stroke-linecap="square"></path>
                            </g>
                            <path d="M28.5157705,27.8037968 L14.5124637,42.5740671 L28.5157705,27.8037968 Z M6.11767921,32.0418412 L18.5669655,37.9973264 L18.6614425,38.0455124 L6.11767921,32.0418412 Z" id="Line-28" stroke="#FFFFFF" stroke-width="0.2" stroke-linecap="square"></path>
                        </g>
                        <g id="waikuang" transform="translate(0.481154, 0.864023)" stroke="#BFC6D3" stroke-dasharray="5" stroke-linecap="square">
                            <path d="M49.9624712,0.867873161 L131.403566,39.1462207 L131.403566,86.7011056 L81.405554,137.006262 L1.39473207,99.9969811 L1.39473207,51.3905019 L49.9624712,0.867873161 Z" id="Line-27"></path>
                            <path d="M130.028319,86.098339 L97.3124807,70.9655155 M54.1888906,51.0185508 L50.0174971,49.0890584" id="Line-27"></path>
                            <path d="M50.1182382,2.60386589 L50.1182382,50.1587508 L0.120226006,100.463907" id="Line-27"></path>
                            <path d="M1.42082808,51.1796748 L80.4208281,88.1796748 L130.569071,37.8107284" id="Line"></path>
                            <path d="M81.5,87.5 L81.5,136.5" id="Line-2"></path>
                        </g>
                    </g>
                </g>
            </g>
        </g>
    </g>
</svg>