<?xml version="1.0" encoding="utf-8"?>
<!-- Generator: Adobe Illustrator 22.1.0, SVG Export Plug-In . SVG Version: 6.00 Build 0)  -->
<svg version="1.1" id="Layer_1" xmlns="http://www.w3.org/2000/svg" xmlns:xlink="http://www.w3.org/1999/xlink" x="0px" y="0px"
	 viewBox="0 0 395.6 395.6" style="enable-background:new 0 0 395.6 395.6;" xml:space="preserve">
<style type="text/css">
	.st0{fill:#FFFFFF;}
	.st1{fill:#E0E0E0;}
	.st2{fill:#4FAB02;}
	.st3{fill:#B4E700;}
	.st4{fill:#8AD500;}
	.st5{fill:#4FBF9F;}
	.st6{fill:#55D55E;}
</style>
<path class="st0" d="M363.5,356.1L245.4,207.7c-6.8-8.7-10.5-19.1-10.5-29.7V41.4h1.2c8.7,0,16.1-5.6,17.9-14.2
	c1.9-11.1-6.8-21-17.3-21h-1.9h-74.1h-1.2c-8.7,0-16.1,5.6-17.9,14.2c-1.9,11.1,6.2,21,17.3,21h1.9V178c0,10.5-3.7,21-10.5,29.7
	L32.2,356.1c-10.5,13.6-0.6,33.4,16.1,33.4h112.5H235h112.5C364.8,389.4,374,369.6,363.5,356.1z"/>
<path class="st1" d="M362.9,356.1l-89.7-113.1H122.4L32.2,356.1c-10.5,13.6-0.6,33.4,16.1,33.4h298.6
	C364.1,389.4,373.4,369.6,362.9,356.1z"/>
<g>
	<path class="st2" d="M367.9,352.4l-118.1-149c-5.6-7.4-8.7-16.7-8.7-26v-30.9l55.7,9.9L371,74.8l-9.2-8l-69.3,76.7l-51.3-9.2V47
		c9.2-1.9,16.7-9.2,18.6-18.6c2-7.1-2.5-28.4-23.5-28.4h-76.7c-11.8,0-21.7,8-24.1,19.1c-1.2,6.8,0.6,14.2,4.9,19.8
		c3.7,4.3,8.7,6.8,14.2,8v71.7l-51.3-9.2l-79.7,82.9l8.7,8.7l75.4-77.9l47,8.7V178c0,9.2-3.1,18.6-8.7,26L27.8,352.4
		c-6.2,8-7.4,18.6-3.1,27.8c4.3,9.9,13.6,15.5,23.5,15.5h298.6c10.5,0,19.1-5.6,24.1-14.9C375.9,371.5,374.7,360.4,367.9,352.4z
		 M359.8,375.2c-2.5,4.9-7.4,8-13,8H48.3c-5.6,0-10.5-3.1-13-8c-1.9-5-1.2-10.5,1.9-14.9l118-148.9c7.4-9.2,11.8-21,11.8-33.4v-4.3
		h22.2v-12.3h-22.2v-21h22.2V128h-22.2v-21h22.2V94.6h-22.2v-21h22.2V61.3h-22.2V41.5c0-3.7-2.5-6.2-6.2-6.2h-1.9
		c-3.9,0.3-12.9-4.1-11.1-13.6c1.2-5,6.2-9.2,11.8-9.2h76.7c10.4,0,11.8,10.5,11.1,13.6c-1.2,5-6.2,9.2-11.8,9.2h-0.6
		c-3.7,0-6.2,2.5-6.2,6.2v136.6c0,12.3,4.3,24.1,11.8,33.4l118,149C361.7,364.7,362.3,370.3,359.8,375.2z"/>
	<path class="st2" d="M290,353h-12.3v-12.3H290V353z M265.2,353h-12.3v-12.3h12.3V353z M240.5,353h-12.3v-12.3h12.3V353z M215.8,353
		h-12.3v-12.3h12.3L215.8,353L215.8,353z M191.1,353h-12.3v-12.3h12.3V353z M166.3,353H154v-12.3h12.3V353z M141.6,353h-12.3v-12.3
		h12.3V353z M116.8,353h-12.3v-12.3h12.3V353z"/>
</g>
<circle class="st3" cx="294.9" cy="150.2" r="24.8"/>
<circle class="st4" cx="30.9" cy="195.9" r="24.8"/>
<circle class="st5" cx="104.5" cy="116.2" r="24.8"/>
<circle class="st6" cx="366" cy="71.1" r="23.5"/>
</svg>
