<svg width="1997" height="1137" xmlns="http://www.w3.org/2000/svg"><g fill="none" fill-rule="evenodd"><path d="M1996 4.9l-555.12 222.08m-94.63 39.78l-60.43 24M736.3 314.46L3 582M78 1l662.98 303.82M655 1l405 189M1286 295l482 229M972.48 833.89L1589 1135M427.42 564.17L739 720M1293.28 725.1l616.52 301.12M278.8 484.38l58.31 29.8M-326.35 731.7l56.94 31.24M.97 905.71l376.4 229.57M750.27 300.09l.18-297.98M1281.32 1137l.32-424.5M1064.3 187.94L1065 2M963 1137V841M1536.5 2.95L1070 190M750.5 729.05L4 996M1932.02 469.04l-646.2 245.03M1273 717L778.05 913.86m-99.18 44.28L234.72 1137" stroke="#B1BAC9" stroke-width="2" stroke-dasharray="10"/><g stroke="#4FAB02" stroke-width="3"><path d="M1281.64 310.98V719.9l-216.2-108.37M961.19 603.22v225.03l-210.16-102V317.48L977 424.33" stroke-dasharray="10,10"/><path d="M758.8 305.58l305.65-108.85 216.36 99.5-227.82 89.18" stroke-dasharray="10"/></g><path d="M354.9 518.55c.69.43.72 1.03.09 1.8-.5.61-1.38 1.3-2.69 2.04-1.3.74-2.48 1.24-3.55 1.52-1.31.34-2.34.3-3.03-.13-.7-.44-.72-1.04-.08-1.8.52-.63 1.44-1.3 2.74-2.04 1.32-.75 2.5-1.26 3.55-1.52 1.3-.35 2.29-.3 2.97.13zm-.66.38c-.55-.35-1.37-.35-2.49 0-.81.25-1.78.7-2.87 1.32-1.1.62-1.88 1.17-2.37 1.65-.63.64-.68 1.15-.12 1.5.55.34 1.4.34 2.53 0 .84-.26 1.8-.7 2.89-1.31a10.83 10.83 0 0 0 2.32-1.66c.62-.66.65-1.16.11-1.5zm6.44 3.43l.41.25-8.7 5.05-.52-.32 7.8-4.5c-.99.12-1.88.08-2.68-.12l.75-.44c.4.1.85.16 1.35.18.52 0 1.06-.02 1.6-.1zm5.79 3.32c.72.44.8 1.04.22 1.81-.46.62-1.31 1.3-2.58 2.06a13.95 13.95 0 0 1-3.5 1.52c-1.3.34-2.34.3-3.08-.14-.74-.44-.8-1.05-.2-1.81a9.18 9.18 0 0 1 2.62-2.05 13.84 13.84 0 0 1 3.5-1.53c1.29-.34 2.3-.3 3.02.14zm-.65.38c-.58-.35-1.42-.35-2.52 0-.81.25-1.76.7-2.82 1.32a10.46 10.46 0 0 0-2.28 1.66c-.6.65-.6 1.16-.01 1.5.58.35 1.45.35 2.56.02.83-.27 1.78-.7 2.84-1.32a9.88 9.88 0 0 0 2.23-1.67c.59-.66.58-1.16 0-1.5zm7.58 3.73c.75.44.85 1.04.3 1.81a8.42 8.42 0 0 1-2.52 2.07c-1.24.74-2.4 1.25-3.46 1.52-1.3.34-2.35.3-3.12-.14-.76-.44-.85-1.05-.28-1.82a8.7 8.7 0 0 1 2.57-2.05c1.26-.75 2.4-1.26 3.45-1.53 1.3-.35 2.31-.3 3.06.14zm-.63.38c-.6-.35-1.45-.36-2.55 0-.8.25-1.75.7-2.8 1.32a9.93 9.93 0 0 0-2.22 1.67c-.57.64-.56 1.15.05 1.5.6.35 1.48.36 2.59.02.82-.27 1.76-.7 2.8-1.33a9.38 9.38 0 0 0 2.19-1.67c.56-.66.53-1.16-.06-1.5zm6.99 3.48l.45.26-8.34 5.07-.56-.32 7.46-4.53c-1 .12-1.91.08-2.75-.13l.72-.44c.41.1.88.16 1.4.18.53.02 1.08-.01 1.62-.09zm6.3 3.37c.8.44.94 1.04.43 1.82-.4.63-1.19 1.32-2.4 2.08-1.2.74-2.35 1.25-3.4 1.53-1.3.34-2.37.3-3.18-.15-.8-.44-.94-1.06-.42-1.83a7.93 7.93 0 0 1 2.46-2.07 12.58 12.58 0 0 1 3.4-1.53c1.29-.35 2.32-.3 3.11.15zm-.62.38c-.63-.35-1.5-.36-2.58 0-.8.25-1.72.7-2.74 1.32a9.07 9.07 0 0 0-2.14 1.67c-.54.66-.49 1.17.16 1.53.64.35 1.52.35 2.63 0 .81-.25 1.73-.7 2.75-1.32 1-.63 1.7-1.2 2.1-1.68.52-.66.45-1.17-.18-1.52zm7.35 3.51l.47.26-8.1 5.1-.6-.32 7.26-4.56c-1 .12-1.93.08-2.8-.13l.7-.44a7.81 7.81 0 0 0 3.07.1zm6.63 3.4c.83.44 1.03 1.05.57 1.84a7 7 0 0 1-2.3 2.08 11.95 11.95 0 0 1-3.35 1.54c-1.29.33-2.38.29-3.23-.16-.84-.45-1.02-1.06-.55-1.84a7.23 7.23 0 0 1 2.35-2.08c1.2-.75 2.3-1.27 3.34-1.54 1.28-.34 2.34-.3 3.17.15zm-.6.38c-.67-.36-1.54-.36-2.62-.01-.8.26-1.7.7-2.69 1.34a8.28 8.28 0 0 0-2.05 1.67c-.5.66-.42 1.18.26 1.53.68.36 1.58.36 2.67.02.81-.26 1.72-.7 2.7-1.33a7.83 7.83 0 0 0 2-1.69c.5-.67.4-1.18-.27-1.53zm7.7 3.54l.5.26-7.87 5.12-.62-.32 7.04-4.57a8.2 8.2 0 0 1-2.86-.14l.68-.44a8.2 8.2 0 0 0 3.12.1z" fill="#4FAB02"/><path d="M1357.15 260.26l14.14 10.38 67.53-27.55-3.08-2.37-64.6 26.64-11.15-8.25-2.84 1.15z" stroke="#D3D8E0"/><path d="M1356.88 253.44l14.13 10.38 67.53-27.54-13.57-10.5-68.1 27.66z" stroke="#4A4A4A"/><path d="M1357.03 256.85l14.13 10.38 67.53-27.54-3.07-2.38-64.6 26.64-11.16-8.25-2.83 1.15z" stroke="#4A4A4A"/><path d="M1369.39 251.62c.84-.34 1.94-.28 3.32.2 1.1.39 2.3 1 3.6 1.88a9.69 9.69 0 0 1 2.58 2.3c.55.82.4 1.4-.43 1.75-.84.35-1.96.27-3.32-.2a15.64 15.64 0 0 1-3.6-1.88 9.36 9.36 0 0 1-2.59-2.3c-.55-.82-.4-1.4.44-1.75zm.66.45c-.68.28-.74.77-.17 1.47.42.52 1.18 1.15 2.26 1.88 1.08.73 2.04 1.26 2.9 1.6 1.15.47 2.08.56 2.76.28.66-.27.71-.77.16-1.47a10.81 10.81 0 0 0-2.25-1.88 15.99 15.99 0 0 0-2.9-1.6c-1.18-.47-2.1-.56-2.76-.28zm6.72-3.3l.5-.2 8.72 5.9-.6.24-7.8-5.27c.16.6.03 1.12-.4 1.56l-.75-.51c.2-.22.34-.47.4-.77.06-.3.04-.62-.07-.95zm6.44-2.84c.84-.34 1.95-.28 3.32.2 1.1.39 2.31 1 3.6 1.88a9.69 9.69 0 0 1 2.59 2.3c.54.82.4 1.4-.44 1.75-.84.35-1.95.27-3.32-.2a15.64 15.64 0 0 1-3.6-1.88 9.36 9.36 0 0 1-2.58-2.3c-.56-.82-.4-1.4.43-1.75zm.66.45c-.67.28-.73.77-.16 1.47.42.52 1.18 1.15 2.26 1.88 1.07.73 2.04 1.26 2.9 1.6 1.15.47 2.08.56 2.75.28.67-.27.72-.77.17-1.47a10.81 10.81 0 0 0-2.25-1.88 15.99 15.99 0 0 0-2.91-1.6c-1.17-.47-2.1-.56-2.76-.28zm7.25-3.7c.85-.35 1.95-.29 3.33.2 1.1.38 2.3 1 3.6 1.88a9.69 9.69 0 0 1 2.58 2.3c.54.81.4 1.4-.44 1.74-.84.35-1.95.28-3.32-.2a15.64 15.64 0 0 1-3.6-1.88 9.36 9.36 0 0 1-2.58-2.3c-.56-.82-.4-1.4.43-1.74zm.66.44c-.67.28-.73.77-.16 1.48.42.52 1.18 1.15 2.26 1.87 1.07.73 2.04 1.26 2.9 1.61 1.15.46 2.08.56 2.75.28.67-.28.72-.77.17-1.48a10.81 10.81 0 0 0-2.25-1.88 15.99 15.99 0 0 0-2.91-1.6c-1.17-.46-2.09-.55-2.76-.28zm6.73-3.3l.5-.2 8.72 5.9-.6.25-7.8-5.27c.15.6.02 1.12-.4 1.55l-.75-.5c.2-.22.34-.48.4-.77.06-.3.04-.63-.07-.96zm6.44-2.83c.84-.35 1.95-.29 3.32.2 1.1.38 2.3 1 3.6 1.88a9.69 9.69 0 0 1 2.59 2.3c.54.81.4 1.4-.44 1.74-.84.35-1.96.28-3.32-.2a15.64 15.64 0 0 1-3.6-1.88 9.36 9.36 0 0 1-2.59-2.3c-.55-.82-.4-1.4.44-1.74zm.66.44c-.67.28-.74.77-.16 1.48.42.52 1.18 1.15 2.25 1.87 1.08.73 2.04 1.26 2.9 1.61 1.16.46 2.09.56 2.76.28.67-.28.72-.77.16-1.48a10.81 10.81 0 0 0-2.24-1.88 15.99 15.99 0 0 0-2.91-1.6c-1.18-.46-2.1-.55-2.76-.28zm6.73-3.3l.49-.2 8.73 5.9-.61.25-7.8-5.27c.16.6.03 1.12-.39 1.55l-.76-.5c.2-.22.34-.48.41-.77.06-.3.04-.63-.07-.96zm5.91-2.43l.5-.2 8.72 5.9-.6.24-7.8-5.27c.16.6.03 1.12-.4 1.56l-.75-.51c.2-.22.34-.47.4-.77.06-.3.04-.62-.07-.95z" fill="#4FAB02"/><g><path d="M693 946.58l14.13 10.37 67.53-27.54-3.07-2.38-64.6 26.64-11.16-8.25-2.83 1.16z" stroke="#D3D8E0"/><path d="M692.72 939.76l14.14 10.37 67.52-27.54-13.57-10.5-68.09 27.67z" stroke="#4A4A4A"/><path d="M692.88 943.17L707 953.54 774.54 926l-3.08-2.37-64.6 26.64-11.15-8.25-2.83 1.15z" stroke="#4A4A4A"/><path d="M705.23 937.94c.84-.35 1.95-.28 3.32.2 1.1.38 2.31 1 3.6 1.88a9.69 9.69 0 0 1 2.59 2.3c.54.81.4 1.4-.44 1.75-.84.34-1.95.27-3.32-.2a15.64 15.64 0 0 1-3.6-1.89 9.36 9.36 0 0 1-2.58-2.3c-.56-.82-.41-1.4.43-1.74zm.66.44c-.67.28-.73.77-.16 1.48.42.52 1.18 1.15 2.26 1.87 1.07.73 2.04 1.27 2.9 1.61 1.15.46 2.08.56 2.75.28.67-.27.72-.77.16-1.48a10.81 10.81 0 0 0-2.24-1.88 15.99 15.99 0 0 0-2.91-1.6c-1.17-.46-2.1-.55-2.76-.28zm6.73-3.3l.49-.2 8.73 5.9-.61.25-7.8-5.27c.16.6.03 1.12-.39 1.56l-.76-.52c.2-.21.34-.47.41-.76.06-.3.04-.63-.07-.96zm6.44-2.83c.84-.35 1.94-.28 3.32.2 1.1.38 2.3 1 3.6 1.88a9.69 9.69 0 0 1 2.59 2.3c.54.81.4 1.4-.44 1.75-.84.34-1.96.27-3.32-.2a15.64 15.64 0 0 1-3.6-1.89 9.36 9.36 0 0 1-2.59-2.3c-.55-.82-.4-1.4.44-1.74zm.66.44c-.68.28-.74.77-.16 1.48.42.52 1.18 1.15 2.25 1.87 1.08.73 2.04 1.27 2.9 1.61 1.15.46 2.08.56 2.76.28.66-.27.71-.77.16-1.48a10.81 10.81 0 0 0-2.25-1.88 15.99 15.99 0 0 0-2.9-1.6c-1.18-.46-2.1-.55-2.76-.28zm7.25-3.7c.84-.34 1.94-.28 3.32.2 1.1.39 2.3 1 3.6 1.88a9.69 9.69 0 0 1 2.59 2.3c.54.82.4 1.4-.44 1.75-.84.35-1.96.27-3.32-.2a15.64 15.64 0 0 1-3.6-1.88 9.36 9.36 0 0 1-2.59-2.3c-.55-.82-.4-1.4.44-1.75zm.66.45c-.68.28-.74.77-.16 1.47.42.52 1.18 1.15 2.25 1.88 1.08.73 2.04 1.26 2.9 1.6 1.16.47 2.08.56 2.76.28.67-.27.72-.77.16-1.47a10.81 10.81 0 0 0-2.24-1.88 15.99 15.99 0 0 0-2.92-1.6c-1.17-.47-2.08-.56-2.75-.28zm6.73-3.3l.49-.2 8.73 5.9-.61.24-7.8-5.27c.16.6.03 1.12-.4 1.56l-.75-.51c.2-.22.34-.47.41-.77.06-.3.04-.62-.07-.95zm6.44-2.84c.84-.34 1.94-.28 3.32.2 1.1.39 2.3 1 3.6 1.88a9.69 9.69 0 0 1 2.58 2.3c.55.82.4 1.4-.43 1.75-.84.35-1.96.27-3.32-.2a15.64 15.64 0 0 1-3.6-1.88 9.36 9.36 0 0 1-2.59-2.3c-.55-.82-.4-1.4.44-1.75zm.66.45c-.68.28-.74.77-.17 1.47.42.52 1.18 1.15 2.26 1.88 1.08.73 2.04 1.26 2.9 1.6 1.15.47 2.08.56 2.76.28.66-.27.71-.77.16-1.47a10.81 10.81 0 0 0-2.25-1.88 15.99 15.99 0 0 0-2.9-1.6c-1.18-.47-2.1-.56-2.76-.28zm6.72-3.3l.5-.2 8.72 5.9-.6.24-7.8-5.27c.16.6.03 1.12-.4 1.56l-.75-.51c.2-.22.34-.47.4-.77.06-.3.04-.62-.07-.95zm5.92-2.44l.49-.2 8.73 5.9-.61.25-7.8-5.27c.16.6.03 1.12-.39 1.56l-.76-.52c.2-.21.34-.47.41-.76.06-.3.04-.63-.07-.96z" fill="#4FAB02"/></g><g><path d="M415.02 549.3l-15.3 8.58-63.67-35.57 14.75-8.76 64.22 35.75z" stroke="#4A4A4A"/><path d="M414.43 557.28l-14.71 8.6-63.6-35.53 3.82-1.9 59.78 33.53 11.55-6.52 3.16 1.82z" stroke="#BEC6D1" opacity=".67"/><path d="M414.43 553.28l-14.71 8.6-63.6-35.53 3.82-1.9 59.78 33.53 11.55-6.52 3.16 1.82z" stroke="#4A4A4A"/></g></g></svg>