<svg width="1997" height="1142" xmlns="http://www.w3.org/2000/svg" xmlns:xlink="http://www.w3.org/1999/xlink"><style>@keyframes m1{0%{transform:translate(8.827554px,.014903px)}to{transform:translate(8.827554px,-3px)}}@keyframes m2{0%{transform:translate(20px,0)}to{transform:translate(20px,-10px)}}@keyframes m3{0%{transform:translate(11.756965px,.019849px)}to{transform:translate(11.756965px,-5px)}}</style><defs><path id="path-1" d="M5.47 49.26L.32 59.88l39.61 23.7L84.2 65.71 87.6 55 50.02 31.38z"/><filter x="-14.3%" y="-14.4%" width="124.1%" height="140.2%" filterUnits="objectBoundingBox" id="filter-2"><feOffset dx="-2" dy="3" in="SourceAlpha" result="shadowOffsetOuter1"/><feGaussianBlur stdDeviation="3" in="shadowOffsetOuter1" result="shadowBlurOuter1"/><feColorMatrix values="0 0 0 0 0.842026753 0 0 0 0 0.933620323 0 0 0 0 0.740957985 0 0 0 0.643823596 0" in="shadowBlurOuter1"/></filter><filter x="-17.8%" y="-29.2%" width="135.6%" height="158.4%" filterUnits="objectBoundingBox" id="filter-3"><feGaussianBlur stdDeviation="3" in="SourceGraphic"/></filter><path id="path-4" d="M3.2 28.81L.19 35.02 23.36 48.9l25.9-10.45 1.98-6.27-21.98-13.81z"/><filter x="-24.5%" y="-24.6%" width="141.1%" height="168.8%" filterUnits="objectBoundingBox" id="filter-5"><feOffset dx="-2" dy="3" in="SourceAlpha" result="shadowOffsetOuter1"/><feGaussianBlur stdDeviation="3" in="shadowOffsetOuter1" result="shadowBlurOuter1"/><feColorMatrix values="0 0 0 0 0.842026753 0 0 0 0 0.933620323 0 0 0 0 0.740957985 0 0 0 0.643823596 0" in="shadowBlurOuter1"/></filter><filter x="-30.4%" y="-49.9%" width="160.8%" height="199.8%" filterUnits="objectBoundingBox" id="filter-6"><feGaussianBlur stdDeviation="3" in="SourceGraphic"/></filter><path id="path-7" d="M2.4 21.63L.14 26.3l17.4 10.41 19.44-7.85 1.5-4.7-16.5-10.38z"/><filter x="-32.6%" y="-32.7%" width="154.8%" height="191.6%" filterUnits="objectBoundingBox" id="filter-8"><feOffset dx="-2" dy="3" in="SourceAlpha" result="shadowOffsetOuter1"/><feGaussianBlur stdDeviation="3" in="shadowOffsetOuter1" result="shadowBlurOuter1"/><feColorMatrix values="0 0 0 0 0.842026753 0 0 0 0 0.933620323 0 0 0 0 0.740957985 0 0 0 0.643823596 0" in="shadowBlurOuter1"/></filter><filter x="-40.5%" y="-66.4%" width="181%" height="232.9%" filterUnits="objectBoundingBox" id="filter-9"><feGaussianBlur stdDeviation="3" in="SourceGraphic"/></filter></defs><g id="Page-1" fill="none" fill-rule="evenodd"><g id="首页主背景" transform="translate(-105 -39)"><g id="虚线背景" transform="translate(-222 -44)"><path d="M2323 92.9l-555.12 222.08m-94.63 39.78l-60.43 24M1063.3 402.46L330 670M405 89l662.98 303.82M982 89l405 189M1613 383l482 229M1299.48 921.89L1916 1223M754.42 652.17L1066 808M1620.28 813.1l616.52 301.12M605.8 572.38l58.31 29.8M.65 819.7l56.94 31.24m270.38 142.77l376.4 229.57M1077.27 388.09l.18-297.98M1608.32 1225l.32-424.5M1391.3 275.94L1392 90M1290 1225V929M1863.5 90.95L1397 278M1077.5 817.05L331 1084M2259.02 557.04l-646.2 245.03M1600 805l-494.95 196.86m-99.18 44.28L561.72 1225" id="Stroke-101" stroke="#B1BAC9" stroke-width="2" stroke-dasharray="10"/><path d="M1608.64 398.98V807.9l-216.2-108.37M1288.19 714.2v202.05l-210.16-102V405.48l210.16 94.77" id="Stroke-902" stroke="#4FAB02" stroke-width="3" stroke-dasharray="10,10"/><path d="M1085.8 393.58l305.65-108.85 216.36 99.5-224.34 86.72" id="Stroke-101" stroke="#4FAB02" stroke-width="3" stroke-dasharray="10"/><g id="三角形左边" transform="translate(329 85)"><path id="Fill-85" stroke="#B4EE73" stroke-width="2" d="M.05 543.39V.29L670 306.65z"/><path id="Fill-85" stroke-opacity=".57" stroke="#B4EE73" d="M36.4 505.81V40.57L610.33 303z"/><path id="Fill-85" stroke-opacity=".46" stroke="#B4EE73" d="M80.93 468.83V82.4l476.72 217.99z"/><path id="Fill-85" stroke-opacity=".16" stroke="#B4EE73" d="M78.12 435.18V119.46l389.47 178.1z"/><path id="Fill-85" stroke-opacity=".15" stroke="#B4EE73" d="M86.53 449.21V105.43l424.09 193.92z"/><path id="Fill-85" d="M28.78 457.77V94.31l448.37 205.03z"/></g><g id="三角形右边" transform="translate(1665 585)" opacity=".76" stroke="#76CB2D"><path id="Fill-85" stroke-width="2" d="M595.85.05v511.23L.48 221.96z"/><path id="Fill-85" stroke-opacity=".46" transform="rotate(180 310.27 253.53)" d="M40.43 485.23V21.83L580.1 284.07z"/><path id="Fill-85" stroke-opacity=".25" transform="rotate(180 323.81 250.64)" d="M82.95 457.46V43.81l481.73 234.1z"/><path id="Fill-85" stroke-opacity=".15" transform="rotate(180 336.75 247.64)" d="M126.17 428.46V66.82l421.16 204.66z"/><path id="Fill-85" stroke-opacity=".12" transform="rotate(180 351.88 244.36)" d="M176.05 395.34V93.38L527.7 264.27z"/></g><g id="Group-21" transform="translate(1633 744.77)"><g id="Path-14"><use fill="#000" filter="url(#filter-2)" xlink:href="#path-1"/><use fill="#FFF" xlink:href="#path-1"/></g><path id="Path-14" fill="#D3D9CE" opacity=".67" filter="url(#filter-3)" d="M20.7 51.43v7.56l21.09 11.3 29.5-11.3V54.6l-24.1-15.15z"/><g transform="translate(20.1 .03)" style="animation:m2 1.5s alternate infinite"><path id="Path-15" fill="#8AD500" d="M0 11.52l20.3 9.72V61.9L0 52.13z"/><path id="Path-16" fill="#50AC02" d="M20.98 21.09V61.8l30.3-10.5V10.07z"/><path id="Path-17" fill="#58BF00" d="M.7 11l20.05 9.68L50.87 9.4 31.02.1z"/></g></g><g id="Group-21" transform="translate(971.45 353.93)"><g id="Path-14"><use fill="#000" filter="url(#filter-5)" xlink:href="#path-4"/><use fill="#FFF" xlink:href="#path-4"/></g><path id="Path-14" fill="#D3D9CE" opacity=".67" filter="url(#filter-6)" d="M12.11 30.08v4.42l12.33 6.62L41.7 34.5v-2.56l-14.1-8.86z"/><g transform="translate(11.76 .02)" style="animation:m1 2s alternate infinite"><path id="Path-15" fill="#8AD500" d="M0 6.74l11.88 5.68v23.79L0 30.5z"/><path id="Path-16" fill="#50AC02" d="M12.28 12.33v23.82L29.99 30V5.9z"/><path id="Path-17" fill="#58BF00" d="M.41 6.43l11.73 5.67 17.62-6.6L18.14.04z"/></g></g><g id="Group-21" transform="translate(630.28 1160.69)"><g id="Path-14"><use fill="#000" filter="url(#filter-8)" xlink:href="#path-7"/><use fill="#FFF" xlink:href="#path-7"/></g><path id="Path-14" fill="#D3D9CE" opacity=".67" filter="url(#filter-9)" d="M9.1 22.59v3.32l9.25 4.96 12.96-4.96v-1.93l-10.59-6.65z"/><g transform="translate(8.83 .01)" style="animation:m3 1s alternate infinite"><path id="Path-15" fill="#8AD500" d="M0 5.06l8.92 4.27v17.86L0 22.89z"/><path id="Path-16" fill="#50AC02" d="M9.22 9.26v17.88l13.3-4.61V4.43z"/><path id="Path-17" fill="#58BF00" d="M.3 4.83l8.82 4.25 13.22-4.96L13.62.04z"/></g></g><g id="10101" transform="translate(661 304)"><path d="M20.9 302.55c.69.43.72 1.03.09 1.8-.5.61-1.38 1.3-2.69 2.04-1.3.74-2.48 1.24-3.55 1.52-1.31.34-2.34.3-3.03-.13-.7-.44-.72-1.04-.08-1.8.52-.63 1.44-1.3 2.74-2.04 1.32-.75 2.5-1.26 3.55-1.52 1.3-.35 2.29-.3 2.97.13zm-.66.38c-.55-.35-1.37-.35-2.49 0-.81.25-1.78.7-2.87 1.32-1.1.62-1.88 1.17-2.37 1.65-.63.64-.68 1.15-.12 1.5.55.34 1.4.34 2.53 0 .84-.26 1.8-.7 2.89-1.31a10.83 10.83 0 0 0 2.32-1.66c.62-.66.65-1.16.11-1.5zm6.44 3.43l.41.25-8.7 5.05-.52-.32 7.8-4.5c-.99.12-1.88.08-2.68-.12l.75-.44c.4.1.85.16 1.35.18.52 0 1.06-.02 1.6-.1zm5.79 3.32c.72.44.8 1.04.22 1.81-.46.62-1.31 1.3-2.58 2.06a13.95 13.95 0 0 1-3.5 1.52c-1.3.34-2.34.3-3.08-.14-.74-.44-.8-1.05-.2-1.81a9.18 9.18 0 0 1 2.62-2.05 13.84 13.84 0 0 1 3.5-1.53c1.29-.34 2.3-.3 3.02.14zm-.65.38c-.58-.35-1.42-.35-2.52 0-.81.25-1.76.7-2.82 1.32a10.46 10.46 0 0 0-2.28 1.66c-.6.65-.6 1.16-.01 1.5.58.35 1.45.35 2.56.02.83-.27 1.78-.7 2.84-1.32a9.88 9.88 0 0 0 2.23-1.67c.59-.66.58-1.16 0-1.5zm7.58 3.73c.75.44.85 1.04.3 1.81a8.42 8.42 0 0 1-2.52 2.07c-1.24.74-2.4 1.25-3.46 1.52-1.3.34-2.35.3-3.12-.14-.76-.44-.85-1.05-.28-1.82a8.7 8.7 0 0 1 2.57-2.05c1.26-.75 2.4-1.26 3.45-1.53 1.3-.35 2.31-.3 3.06.14zm-.63.38c-.6-.35-1.45-.36-2.55 0-.8.25-1.75.7-2.8 1.32a9.93 9.93 0 0 0-2.22 1.67c-.57.64-.56 1.15.05 1.5.6.35 1.48.36 2.59.02.82-.27 1.76-.7 2.8-1.33a9.38 9.38 0 0 0 2.19-1.67c.56-.66.53-1.16-.06-1.5zm6.99 3.48l.45.26-8.34 5.07-.56-.32 7.46-4.53c-1 .12-1.91.08-2.75-.13l.72-.44c.41.1.88.16 1.4.18.53.02 1.08-.01 1.62-.09zm6.3 3.37c.8.44.94 1.04.43 1.82-.4.63-1.19 1.32-2.4 2.08-1.2.74-2.35 1.25-3.4 1.53-1.3.34-2.37.3-3.18-.15-.8-.44-.94-1.06-.42-1.83a7.93 7.93 0 0 1 2.46-2.07 12.58 12.58 0 0 1 3.4-1.53c1.29-.35 2.32-.3 3.11.15zm-.62.38c-.63-.35-1.5-.36-2.58 0-.8.25-1.72.7-2.74 1.32a9.07 9.07 0 0 0-2.14 1.67c-.54.66-.49 1.17.16 1.53.64.35 1.52.35 2.63 0 .81-.25 1.73-.7 2.75-1.32 1-.63 1.7-1.2 2.1-1.68.52-.66.45-1.17-.18-1.52zm7.35 3.51l.47.26-8.1 5.1-.6-.32 7.26-4.56c-1 .12-1.93.08-2.8-.13l.7-.44a7.81 7.81 0 0 0 3.07.1zm6.63 3.4c.83.44 1.03 1.05.57 1.84a7 7 0 0 1-2.3 2.08 11.95 11.95 0 0 1-3.35 1.54c-1.29.33-2.38.29-3.23-.16-.84-.45-1.02-1.06-.55-1.84a7.23 7.23 0 0 1 2.35-2.08c1.2-.75 2.3-1.27 3.34-1.54 1.28-.34 2.34-.3 3.17.15zm-.6.38c-.67-.36-1.54-.36-2.62-.01-.8.26-1.7.7-2.69 1.34a8.28 8.28 0 0 0-2.05 1.67c-.5.66-.42 1.18.26 1.53.68.36 1.58.36 2.67.02.81-.26 1.72-.7 2.7-1.33a7.83 7.83 0 0 0 2-1.69c.5-.67.4-1.18-.27-1.53zm7.7 3.54l.5.26-7.87 5.12-.62-.32 7.04-4.57a8.2 8.2 0 0 1-2.86-.14l.68-.44a8.2 8.2 0 0 0 3.12.1z" id="10010101" fill="#4FAB02"/><g id="101010" transform="translate(1020)"><path d="M4.3 49.83l15.44 8.3 63.04-36.67-3.37-1.92L19.15 54.9l-12.2-6.62-2.65 1.54z" id="Path-11" stroke="#D3D8E0" transform="rotate(8 43.53 38.83)"/><path d="M4.48 43.04l15.44 8.3 63.04-36.66-14.9-8.5L4.48 43.03z" id="Path-11" stroke="#4A4A4A" transform="rotate(8 43.71 28.76)"/><path d="M4.18 46.42l15.44 8.3 63.04-36.66-3.38-1.93L19.02 51.5 6.82 44.9l-2.64 1.53z" id="Path-11" stroke="#4A4A4A" transform="rotate(8 43.4 35.43)"/><path d="M15.39 35.62c.84-.34 1.94-.28 3.32.2 1.1.39 2.3 1 3.6 1.88a9.69 9.69 0 0 1 2.58 2.3c.55.82.4 1.4-.43 1.75-.84.35-1.96.27-3.32-.2a15.64 15.64 0 0 1-3.6-1.88 9.36 9.36 0 0 1-2.59-2.3c-.55-.82-.4-1.4.44-1.75zm.66.45c-.68.28-.74.77-.17 1.47.42.52 1.18 1.15 2.26 1.88 1.08.73 2.04 1.26 2.9 1.6 1.15.47 2.08.56 2.76.28.66-.27.71-.77.16-1.47a10.81 10.81 0 0 0-2.25-1.88 15.99 15.99 0 0 0-2.9-1.6c-1.18-.47-2.1-.56-2.76-.28zm6.72-3.3l.5-.2 8.72 5.9-.6.24-7.8-5.27c.16.6.03 1.12-.4 1.56l-.75-.51c.2-.22.34-.47.4-.77.06-.3.04-.62-.07-.95zm6.44-2.84c.84-.34 1.95-.28 3.32.2 1.1.39 2.31 1 3.6 1.88a9.69 9.69 0 0 1 2.59 2.3c.54.82.4 1.4-.44 1.75-.84.35-1.95.27-3.32-.2a15.64 15.64 0 0 1-3.6-1.88 9.36 9.36 0 0 1-2.58-2.3c-.56-.82-.4-1.4.43-1.75zm.66.45c-.67.28-.73.77-.16 1.47.42.52 1.18 1.15 2.26 1.88 1.07.73 2.04 1.26 2.9 1.6 1.15.47 2.08.56 2.75.28.67-.27.72-.77.17-1.47a10.81 10.81 0 0 0-2.25-1.88 15.99 15.99 0 0 0-2.91-1.6c-1.17-.47-2.1-.56-2.76-.28zm7.25-3.7c.85-.35 1.95-.29 3.33.2 1.1.38 2.3 1 3.6 1.88a9.69 9.69 0 0 1 2.58 2.3c.54.81.4 1.4-.44 1.74-.84.35-1.95.28-3.32-.2a15.64 15.64 0 0 1-3.6-1.88 9.36 9.36 0 0 1-2.58-2.3c-.56-.82-.4-1.4.43-1.74zm.66.44c-.67.28-.73.77-.16 1.48.42.52 1.18 1.15 2.26 1.87 1.07.73 2.04 1.26 2.9 1.61 1.15.46 2.08.56 2.75.28.67-.28.72-.77.17-1.48A10.81 10.81 0 0 0 43.45 29a15.99 15.99 0 0 0-2.91-1.6c-1.17-.46-2.09-.55-2.76-.28zm6.73-3.3l.5-.2 8.72 5.9-.6.25-7.8-5.27c.15.6.02 1.12-.4 1.55l-.75-.5c.2-.22.34-.48.4-.77.06-.3.04-.63-.07-.96zM50.95 21c.84-.35 1.95-.29 3.32.2 1.1.38 2.3 1 3.6 1.88a9.69 9.69 0 0 1 2.59 2.3c.54.81.4 1.4-.44 1.74-.84.35-1.96.28-3.32-.2a15.64 15.64 0 0 1-3.6-1.88 9.36 9.36 0 0 1-2.59-2.3c-.55-.82-.4-1.4.44-1.74zm.66.44c-.67.28-.74.77-.16 1.48.42.52 1.18 1.15 2.25 1.87 1.08.73 2.04 1.26 2.9 1.61 1.16.46 2.09.56 2.76.28.67-.28.72-.77.16-1.48a10.81 10.81 0 0 0-2.24-1.88 15.99 15.99 0 0 0-2.91-1.6c-1.18-.46-2.1-.55-2.76-.28zm6.73-3.3l.49-.2 8.73 5.9-.61.25-7.8-5.27c.16.6.03 1.12-.39 1.55l-.76-.5c.2-.22.34-.48.41-.77.06-.3.04-.63-.07-.96zm5.91-2.43l.5-.2 8.72 5.9-.6.24-7.8-5.27c.16.6.03 1.12-.4 1.56l-.75-.51c.2-.22.34-.47.4-.77.06-.3.04-.62-.07-.95z" id="1001011" fill="#4FAB02"/></g><g id="101010" transform="translate(355.85 686.32)"><path d="M4.3 49.83l15.44 8.3 63.04-36.67-3.37-1.92L19.15 54.9l-12.2-6.62-2.65 1.54z" id="Path-11" stroke="#D3D8E0" transform="rotate(8 43.53 38.83)"/><path d="M4.48 43.04l15.44 8.3 63.04-36.66-14.9-8.5L4.48 43.03z" id="Path-11" stroke="#4A4A4A" transform="rotate(8 43.71 28.76)"/><path d="M4.18 46.42l15.44 8.3 63.04-36.66-3.38-1.93L19.02 51.5 6.82 44.9l-2.64 1.53z" id="Path-11" stroke="#4A4A4A" transform="rotate(8 43.4 35.43)"/><path d="M15.39 35.62c.84-.34 1.94-.28 3.32.2 1.1.39 2.3 1 3.6 1.88a9.69 9.69 0 0 1 2.58 2.3c.55.82.4 1.4-.43 1.75-.84.35-1.96.27-3.32-.2a15.64 15.64 0 0 1-3.6-1.88 9.36 9.36 0 0 1-2.59-2.3c-.55-.82-.4-1.4.44-1.75zm.66.45c-.68.28-.74.77-.17 1.47.42.52 1.18 1.15 2.26 1.88 1.08.73 2.04 1.26 2.9 1.6 1.15.47 2.08.56 2.76.28.66-.27.71-.77.16-1.47a10.81 10.81 0 0 0-2.25-1.88 15.99 15.99 0 0 0-2.9-1.6c-1.18-.47-2.1-.56-2.76-.28zm6.72-3.3l.5-.2 8.72 5.9-.6.24-7.8-5.27c.16.6.03 1.12-.4 1.56l-.75-.51c.2-.22.34-.47.4-.77.06-.3.04-.62-.07-.95zm6.44-2.84c.84-.34 1.95-.28 3.32.2 1.1.39 2.31 1 3.6 1.88a9.69 9.69 0 0 1 2.59 2.3c.54.82.4 1.4-.44 1.75-.84.35-1.95.27-3.32-.2a15.64 15.64 0 0 1-3.6-1.88 9.36 9.36 0 0 1-2.58-2.3c-.56-.82-.4-1.4.43-1.75zm.66.45c-.67.28-.73.77-.16 1.47.42.52 1.18 1.15 2.26 1.88 1.07.73 2.04 1.26 2.9 1.6 1.15.47 2.08.56 2.75.28.67-.27.72-.77.17-1.47a10.81 10.81 0 0 0-2.25-1.88 15.99 15.99 0 0 0-2.91-1.6c-1.17-.47-2.1-.56-2.76-.28zm7.25-3.7c.85-.35 1.95-.29 3.33.2 1.1.38 2.3 1 3.6 1.88a9.69 9.69 0 0 1 2.58 2.3c.54.81.4 1.4-.44 1.74-.84.35-1.95.28-3.32-.2a15.64 15.64 0 0 1-3.6-1.88 9.36 9.36 0 0 1-2.58-2.3c-.56-.82-.4-1.4.43-1.74zm.66.44c-.67.28-.73.77-.16 1.48.42.52 1.18 1.15 2.26 1.87 1.07.73 2.04 1.26 2.9 1.61 1.15.46 2.08.56 2.75.28.67-.28.72-.77.17-1.48A10.81 10.81 0 0 0 43.45 29a15.99 15.99 0 0 0-2.91-1.6c-1.17-.46-2.09-.55-2.76-.28zm6.73-3.3l.5-.2 8.72 5.9-.6.25-7.8-5.27c.15.6.02 1.12-.4 1.55l-.75-.5c.2-.22.34-.48.4-.77.06-.3.04-.63-.07-.96zM50.95 21c.84-.35 1.95-.29 3.32.2 1.1.38 2.3 1 3.6 1.88a9.69 9.69 0 0 1 2.59 2.3c.54.81.4 1.4-.44 1.74-.84.35-1.96.28-3.32-.2a15.64 15.64 0 0 1-3.6-1.88 9.36 9.36 0 0 1-2.59-2.3c-.55-.82-.4-1.4.44-1.74zm.66.44c-.67.28-.74.77-.16 1.48.42.52 1.18 1.15 2.25 1.87 1.08.73 2.04 1.26 2.9 1.61 1.16.46 2.09.56 2.76.28.67-.28.72-.77.16-1.48a10.81 10.81 0 0 0-2.24-1.88 15.99 15.99 0 0 0-2.91-1.6c-1.18-.46-2.1-.55-2.76-.28zm6.73-3.3l.49-.2 8.73 5.9-.61.25-7.8-5.27c.16.6.03 1.12-.39 1.55l-.76-.5c.2-.22.34-.48.41-.77.06-.3.04-.63-.07-.96zm5.91-2.43l.5-.2 8.72 5.9-.6.24-7.8-5.27c.16.6.03 1.12-.4 1.56l-.75-.51c.2-.22.34-.47.4-.77.06-.3.04-.62-.07-.95z" id="1001011" fill="#4FAB02"/></g><g id="Group-27" transform="translate(.38 295.04)"><path d="M1.94 38.94l15.44 8.31 63.04-36.67-14.9-8.5L1.94 38.94z" id="Path-11" stroke="#4A4A4A" transform="scale(-1 1) rotate(1 0 -4692.7)"/><path d="M1.97 46.92l14.85 8.33L79.8 18.63l-3.84-1.83-59.2 34.56-11.66-6.32-3.12 1.88z" id="Path-11" stroke="#BEC6D1" opacity=".67" transform="scale(-1 1) rotate(1 0 -4652.56)"/><path d="M1.97 42.92l14.85 8.33L79.8 14.63l-3.84-1.83-59.2 34.56-11.66-6.32-3.12 1.88z" id="Path-11" stroke="#4A4A4A" transform="scale(-1 1) rotate(1 0 -4656.56)"/></g></g></g></g></g></svg>