<svg xmlns="http://www.w3.org/2000/svg" width="890" height="565"><style>@keyframes m1{0%{transform:translate(8.827554px,.014903px)}to{transform:translate(8.827554px,-3px)}}@keyframes m2{0%{transform:translate(20px,0)}to{transform:translate(20px,-10px)}}@keyframes m3{0%{transform:translate(11.756965px,.019849px)}to{transform:translate(11.756965px,-5px)}}</style><defs><filter x="-3.1%" y="-12%" width="106.2%" height="124%" filterUnits="objectBoundingBox" id="filter-1"><feGaussianBlur stdDeviation="8.15" in="SourceGraphic"/></filter><filter x="-2.2%" y="-5.9%" width="104.5%" height="111.8%" filterUnits="objectBoundingBox" id="filter-2"><feGaussianBlur stdDeviation="8.15" in="SourceGraphic"/></filter></defs><g id="Page-1" fill="none" fill-rule="evenodd"><g id="Artboard-6" transform="translate(-52 -65)"><g id="Group-9" transform="translate(-170 64)"><g id="xia-" transform="translate(0 137)"><g id="xia" transform="translate(252 46)" stroke="#BFC6D3" stroke-linecap="square"><path d="M312.38 40.54l11.8-4.33M584.42.97l273.3 125.96-511.72 190L1.43 154.58 209.8 78.17l48.58-17.82" id="Line-4"/><path id="Line-4" d="M859.05 127.94v20.55l-513.13 190L.25 176.14v-20.9"/><path d="M346.06 337.62v-20.84" id="Line-30"/><path d="M312.38 40.54l11.8-4.33M584.42.97l273.3 125.96-511.72 190L1.43 154.58 209.8 78.17l48.58-17.82" id="Line-4"/><path id="Line-4" d="M859.05 127.94v20.55l-513.13 190L.25 176.14v-20.9"/><path d="M346.06 337.62v-20.84M346.06 337.62v-20.84" id="Line-30"/></g><g id="xia" transform="translate(252 46)" stroke="#BFC6D3" stroke-linecap="square"><path d="M312.38 40.54l11.8-4.33M584.42.97l273.3 125.96-511.72 190L1.43 154.58 209.8 78.17l48.58-17.82" id="Line-4"/><path id="Line-4" d="M859.05 127.94v20.55l-513.13 190L.25 176.14v-20.9"/><path d="M346.06 337.62v-20.84" id="Line-30"/></g><g transform="translate(252 46)"><path id="Path-5" fill="#EFEFEF" d="M345.56 317.52l512.67-190.29L583.8.51v162.93l-51 19.59-57.06-25.86-1.55 45.04-53.42 20.24-58.13-27.44V96.15L323.8 36.1l-10.88 4.26v86.88l-53.86 19.5V60l-119.34 44.08L2.41 154.72z"/><path id="Path-47" fill="#D8D8D8" d="M.45 154.53L346.5 317.48v21.01L.35 176.04z"/><path id="Path-48" fill="#E1E1E1" d="M346.45 316.92v22.3L858.8 148.47l-.17-21.39z"/><path id="Path-49" fill-opacity=".16" fill="#8B8B8B" filter="url(#filter-1)" d="M11 185.27l339.26 146.95L804.3 163.95l40.6 18.33-499.64 185.27L52.34 228.68z"/><path d="M312.38 40.54l11.8-4.33M584.42.97l273.3 125.96-511.72 190L1.43 154.58 209.8 78.17l48.58-17.82" id="Line-4" stroke="#BFC6D3" stroke-linecap="square"/><path id="Line-4" stroke="#BFC6D3" stroke-linecap="square" d="M859.05 127.47v21.02l-513.13 190L.25 176.14v-20.9"/></g><path id="Path-5" fill="#EFEFEF" d="M597.56 363.52l512.67-190.29L766.87 12.22 575.81 82.09l-184.08 68-137.32 50.63z"/><path id="Path-47" fill="#D8D8D8" d="M252.45 200.53L598.5 363.48v21.01L252.35 222.04z"/><path id="Path-48" fill="#E1E1E1" d="M598.45 362.92v22.3l512.35-190.75-.17-21.39z"/><path d="M564.38 86.54l11.8-4.33m533.54 90.72l-511.71 190-344.58-162.35L767.36 12.2l342.36 160.73z" id="Line-4" stroke="#BFC6D3" stroke-linecap="square"/><path d="M564.38 86.54l11.8-4.33m533.54 90.72l-511.71 190-344.58-162.35L767.36 12.2l342.36 160.73z" id="Line-4" stroke="#BFC6D3" stroke-linecap="square"/><path id="Line-4" stroke="#BFC6D3" stroke-linecap="square" d="M1111.05 173.47v21.02l-513.13 190-345.67-162.35v-20.9"/></g><g id="Group-8" transform="translate(224)"><g id="Group-5" transform="translate(245.67 .54)"><g id="Group-4"><path id="Path-3" fill="#DDEDDF" d="M167.68 115.97L221 95.77l56.3 89.64V76.53l53.48-20.19v253.63l-52.03 20.02-56.25-90.66v109.8l-54.82 20.23z"/><path id="Path-4" fill="#C8DEC9" d="M109.51 89.44l57.8 26.71v252.8l-57.8-27.49zM279.6 330.74l-57.8-27.48v-64.58zM220.34 49.92l57.79 26.71v110.58l-57.8-91.03z"/><path id="Path-46" fill="#F4F4F4" d="M57.48 21.04l51.67 86.02V242.3L59.8 164.4v108.65L5.54 293.23V40.56z"/><path d="M290.26 31.87L334.5 15.5" id="Line-7" stroke="#76CB2D" stroke-width=".6" stroke-linecap="square" stroke-dasharray="3"/><g id="Group" opacity=".4" transform="translate(1.1 18.85)" stroke="#BFC6D3" stroke-linecap="square"><path d="M56.68 1.8L4.35 21.39 56.68 1.8zM56.72 255.31L6.58 274.14" id="Line-4"/><path d="M4.2 22.5l.19 249.74M58.33 146.06V254.6" id="Line-31"/><path d="M56.57 2l35.4 58.64M58.55 145.39l36.7 58.72" id="Line-33"/></g><path id="Line-4" stroke="#76CB2D" stroke-width=".6" stroke-linecap="square" d="M162.51 113.43l-51.34-24.45 52.1-19.1 57.04 26.3-47.37 17.86"/><path d="M163.75 105.2l-28.78-13.7 29.2-10.71 31.99 14.74-26.56 10.01" id="Line-4" stroke="#76CB2D" stroke-width=".6" stroke-linecap="square" stroke-dasharray="3"/><path id="Line-4" stroke="#76CB2D" stroke-width=".6" stroke-linecap="square" d="M221.8 349.27l-53.78 19.98-58.26-27.24"/><path d="M167.83 120.13v83.54" id="Line-31" stroke="#76CB2D" stroke-width=".6" stroke-linecap="square"/><path d="M167.83 203.57v165.7M109.43 90.06v127.07m0 51.49v72.76" id="Line-31" stroke="#76CB2D" stroke-width=".6" stroke-linecap="square" stroke-dasharray="3"/><path d="M221.96 239.1v109.86" id="Line-31" stroke="#76CB2D" stroke-width=".6" stroke-linecap="square"/><path id="Line-4" stroke="#76CB2D" stroke-width=".6" stroke-linecap="square" d="M329.97 56.9l-52.33 19.58-56.81-26.77 48.02-17.53"/><path d="M331.6 57.13l-52.06-24.36m-10.9-5.1L220.53 5.14" id="Line-2" stroke="#76CB2D" stroke-width=".6" stroke-linecap="square" stroke-dasharray="3"/><path id="Line-4" stroke="#76CB2D" stroke-width=".6" stroke-linecap="square" d="M330 310.97l-51.58 19.01-54.85-25.47-1.14-.53"/><path d="M277.49 76.48v108.16M219.85 50.3v44.65M330.97 226.35v83.97" id="Line-31" stroke="#76CB2D" stroke-width=".6" stroke-linecap="square"/><path d="M221.53 97l55.25 88.08M222.9 239.1l55.58 89.77" id="Line-33" stroke="#76CB2D" stroke-width=".6" stroke-linecap="square"/><path id="Rectangle-4" stroke="#76CB2D" stroke-width=".3" d="M162.89 110.24h9.69v9.69h-9.69zM216.4 5.68l2.33-4.59 4.59 2.34-2.34 4.59z"/><path id="Rectangle-4" stroke="#76CB2D" stroke-width=".3" d="M166.16 113.51h3.15v3.15h-3.15zM261.79 17.43h25.64v24.93h-25.64z"/><path id="Rectangle-4" stroke="#76CB2D" stroke-width=".3" d="M267.22 30l7.5-7.49L282 29.8l-7.5 7.5z"/><path id="Rectangle-4" fill="#76CB2D" d="M328.4 225.04h5.13v5.14h-5.13z"/><path d="M331.11 57.71v170.22" id="Line-32" stroke="#76CB2D" stroke-width=".6" stroke-linecap="square" stroke-dasharray="3"/><path id="Rectangle-11" stroke="#76CB2D" stroke-width=".3" d="M325.21 221.59h11.52v11.52h-11.52z"/><path id="Rectangle-12" fill="#76CB2D" d="M220.07 235.07h5.18v5.18h-5.18zM106.61 210.54h5.18v5.18h-5.18z"/><path d="M109.43 215.56v51.96" id="Line" stroke="#76CB2D" stroke-width=".6" stroke-linecap="square"/><path d="M220.53 347.81l-160.7-75.62" id="Line-34" stroke="#BFC6D3" stroke-width=".6" opacity=".6" stroke-linecap="square" stroke-dasharray="3"/><path d="M167.33 369.48L6.63 293.86" id="Line-34" stroke="#BFC6D3" stroke-width=".6" opacity=".4" stroke-linecap="square" stroke-dasharray="3"/><path d="M167.33 116.22L6.63 40.59M221.96 239.07l-160.7-75.62M220.35 95.93L59.65 20.31" id="Line-34" stroke="#BFC6D3" stroke-width=".6" opacity=".6" stroke-linecap="square" stroke-dasharray="3"/><path d="M271.8 30.04h5.92M274.76 33v-5.92" id="Line-35" stroke="#76CB2D" stroke-width=".3" stroke-linecap="square"/><path id="Rectangle-4" stroke="#76CB2D" stroke-width=".3" fill="#FFF" d="M160.81 360.32h13.49v13.49h-13.49z"/><path id="Rectangle-4" stroke="#76CB2D" stroke-width=".3" fill="#FFF" d="M164.28 363.79h6.55v6.55h-6.55z"/><path id="Rectangle-4" stroke="#76CB2D" stroke-width=".3" d="M321.37 9.1l5.08-2.26 2.26 5.08-5.08 2.26z"/><path id="Rectangle-4" stroke="#E6E8EE" stroke-width=".6" fill="#FFF" d="M3.1 38.24l5.27.1-.1 5.26-5.26-.1zM3.8 289.73l5.27.1-.1 5.26-5.26-.1z"/><path id="Rectangle-4" stroke="#E6E8EE" stroke-width=".6" fill="#E6E8EE" d="M57.02 270.52l5.26.1-.1 5.26-5.26-.1z"/><path id="Rectangle-4" stroke="#E6E8EE" stroke-width=".6" fill="#FFF" d="M93.04 220.93l7.58.14-.14 7.58-7.58-.14zM55.8 17.92l5.27.1-.1 5.26-5.26-.1z"/><path d="M59.6 178.75c3.38.49 5.78-.32 7.22-2.4" id="Path-20" stroke="#E6E8EE"/><g id="Group-2" transform="translate(.98 .65)"><g id="Group" opacity=".4" transform="translate(.1 18.2)" stroke="#BFC6D3" stroke-linecap="square"><path d="M56.68 1.8L4.35 21.39 56.68 1.8zM56.72 255.31L6.58 274.14" id="Line-4"/><path d="M4.2 22.5l.19 249.74M58.33 146.06V254.6" id="Line-31"/><path d="M56.57 2l35.4 58.64M58.55 145.39l36.7 58.72" id="Line-33"/></g><path id="Line-4" stroke="#76CB2D" stroke-width=".6" stroke-linecap="square" d="M161.53 112.78l-51.34-24.45 52.1-19.1 57.04 26.3-47.37 17.86"/><path d="M162.77 104.55l-28.79-13.7 29.21-10.71 31.98 14.74-26.56 10.01" id="Line-4" stroke="#76CB2D" stroke-width=".6" stroke-linecap="square" stroke-dasharray="3"/><path id="Line-4" stroke="#76CB2D" stroke-width=".6" stroke-linecap="square" d="M220.82 348.62l-53.78 19.98-58.26-27.24"/><path d="M166.85 119.48v83.54" id="Line-31" stroke="#76CB2D" stroke-width=".6" stroke-linecap="square"/><path d="M166.85 202.92v165.7M108.45 89.42v127.06m0 51.49v72.76" id="Line-31" stroke="#76CB2D" stroke-width=".6" stroke-linecap="square" stroke-dasharray="3"/><path d="M220.98 238.45V348.3" id="Line-31" stroke="#76CB2D" stroke-width=".6" stroke-linecap="square"/><path id="Line-4" stroke="#76CB2D" stroke-width=".6" stroke-linecap="square" d="M328.99 56.26l-52.34 19.57-56.8-26.76 48.02-17.54"/><path d="M330.62 56.49l-52.06-24.37m-10.9-5.1L219.55 4.5" id="Line-2" stroke="#76CB2D" stroke-width=".6" stroke-linecap="square" stroke-dasharray="3"/><path id="Line-4" stroke="#76CB2D" stroke-width=".6" stroke-linecap="square" d="M329.03 310.32l-51.59 19.02-54.85-25.48-1.14-.53"/><path d="M276.5 75.83v108.16M218.87 49.65V94.3M329.98 225.7v83.97" id="Line-31" stroke="#76CB2D" stroke-width=".6" stroke-linecap="square"/><path d="M220.55 96.35l55.24 88.08M221.91 238.45l55.6 89.77" id="Line-33" stroke="#76CB2D" stroke-width=".6" stroke-linecap="square"/><path id="Rectangle-4" stroke="#76CB2D" stroke-width=".3" d="M161.91 109.59h9.69v9.69h-9.69zM215.41 5.03l2.34-4.59 4.59 2.34L220 7.37z"/><path id="Rectangle-4" stroke="#76CB2D" stroke-width=".3" d="M165.18 112.86h3.15v3.15h-3.15zM260.81 16.78h25.64v24.93h-25.64z"/><path id="Rectangle-4" stroke="#76CB2D" stroke-width=".3" d="M266.24 29.36l7.5-7.5 7.28 7.29-7.5 7.49z"/><path id="Rectangle-4" fill="#76CB2D" d="M327.42 224.39h5.13v5.14h-5.13z"/><path d="M330.13 57.06v170.22" id="Line-32" stroke="#76CB2D" stroke-width=".6" stroke-linecap="square" stroke-dasharray="3"/><path id="Rectangle-11" stroke="#76CB2D" stroke-width=".3" d="M324.22 220.94h11.52v11.52h-11.52z"/><path id="Rectangle-12" fill="#76CB2D" d="M219.08 234.42h5.18v5.18h-5.18zM105.63 209.89h5.18v5.18h-5.18z"/><path d="M108.45 214.91v51.96" id="Line" stroke="#76CB2D" stroke-width=".6" stroke-linecap="square"/><path d="M219.55 347.16l-160.7-75.62" id="Line-34" stroke="#BFC6D3" stroke-width=".6" opacity=".6" stroke-linecap="square" stroke-dasharray="3"/><path d="M166.35 368.83L5.65 293.21" id="Line-34" stroke="#BFC6D3" stroke-width=".6" opacity=".4" stroke-linecap="square" stroke-dasharray="3"/><path d="M166.35 115.57L5.65 39.94M220.98 238.42L60.28 162.8M219.37 95.28L58.67 19.66" id="Line-34" stroke="#BFC6D3" stroke-width=".6" opacity=".6" stroke-linecap="square" stroke-dasharray="3"/><path d="M270.82 29.39h5.91M273.78 32.34v-5.9" id="Line-35" stroke="#76CB2D" stroke-width=".3" stroke-linecap="square"/><path id="Rectangle-4" stroke="#76CB2D" stroke-width=".3" fill="#FFF" d="M159.83 359.67h13.49v13.49h-13.49z"/><path id="Rectangle-4" stroke="#76CB2D" stroke-width=".3" fill="#FFF" d="M163.3 363.14h6.55v6.55h-6.55z"/></g><path id="Rectangle-4" stroke="#76CB2D" stroke-width=".3" d="M321.37 9.1l5.08-2.26 2.26 5.08-5.08 2.26z"/><path id="Rectangle-4" stroke="#E6E8EE" stroke-width=".6" fill="#FFF" d="M3.1 38.24l5.27.1-.1 5.26-5.26-.1zM3.8 289.73l5.27.1-.1 5.26-5.26-.1z"/><path id="Rectangle-4" stroke="#E6E8EE" stroke-width=".6" fill="#E6E8EE" d="M57.02 270.52l5.26.1-.1 5.26-5.26-.1z"/><path id="Rectangle-4" stroke="#E6E8EE" stroke-width=".6" fill="#FFF" d="M93.04 220.93l7.58.14-.14 7.58-7.58-.14zM55.8 17.92l5.27.1-.1 5.26-5.26-.1z"/><path d="M59.6 178.75c3.38.49 5.78-.32 7.22-2.4" id="Path-20" stroke="#E6E8EE"/><path id="Rectangle-4" stroke="#76CB2D" stroke-width=".3" d="M321.37 9.1l5.08-2.26 2.26 5.08-5.08 2.26z"/><path id="Rectangle-4" stroke="#E6E8EE" stroke-width=".6" fill="#FFF" d="M3.1 38.24l5.27.1-.1 5.26-5.26-.1zM3.8 289.73l5.27.1-.1 5.26-5.26-.1z"/><path id="Rectangle-4" stroke="#E6E8EE" stroke-width=".6" fill="#E6E8EE" d="M57.02 270.52l5.26.1-.1 5.26-5.26-.1z"/><path id="Rectangle-4" stroke="#E6E8EE" stroke-width=".6" fill="#FFF" d="M93.04 220.93l7.58.14-.14 7.58-7.58-.14zM55.8 17.92l5.27.1-.1 5.26-5.26-.1z"/><path d="M59.6 178.75c3.38.49 5.78-.32 7.22-2.4" id="Path-20" stroke="#E6E8EE"/><g id="Group-2" transform="translate(.98 .65)"><g id="Group" opacity=".4" transform="translate(.1 18.2)" stroke="#BFC6D3" stroke-linecap="square"><path d="M56.68 1.8L4.35 21.39 56.68 1.8zM56.72 255.31L6.58 274.14" id="Line-4"/><path d="M4.2 22.5l.19 249.74M58.33 146.06V254.6" id="Line-31"/><path d="M56.57 2l35.4 58.64M58.55 145.39l36.7 58.72" id="Line-33"/></g><path id="Line-4" stroke="#76CB2D" stroke-width=".6" stroke-linecap="square" d="M161.53 112.78l-51.34-24.45 52.1-19.1 57.04 26.3-47.37 17.86"/><path d="M162.77 104.55l-28.79-13.7 29.21-10.71 31.98 14.74-26.56 10.01" id="Line-4" stroke="#76CB2D" stroke-width=".6" stroke-linecap="square" stroke-dasharray="3"/><path id="Line-4" stroke="#76CB2D" stroke-width=".6" stroke-linecap="square" d="M220.82 348.62l-53.78 19.98-58.26-27.24"/><path d="M166.85 119.48v83.54" id="Line-31" stroke="#76CB2D" stroke-width=".6" stroke-linecap="square"/><path d="M166.85 202.92v165.7M108.45 89.42v127.06m0 51.49v72.76" id="Line-31" stroke="#76CB2D" stroke-width=".6" stroke-linecap="square" stroke-dasharray="3"/><path d="M220.98 238.45V348.3" id="Line-31" stroke="#76CB2D" stroke-width=".6" stroke-linecap="square"/><path id="Line-4" stroke="#76CB2D" stroke-width=".6" stroke-linecap="square" d="M328.99 56.26l-52.34 19.57-56.8-26.76 48.02-17.54"/><path d="M330.62 56.49l-52.06-24.37m-10.9-5.1L219.55 4.5" id="Line-2" stroke="#76CB2D" stroke-width=".6" stroke-linecap="square" stroke-dasharray="3"/><path id="Line-4" stroke="#76CB2D" stroke-width=".6" stroke-linecap="square" d="M329.03 310.32l-51.59 19.02-54.85-25.48-1.14-.53"/><path d="M276.5 75.83v108.16M218.87 49.65V94.3M329.98 225.7v83.97" id="Line-31" stroke="#76CB2D" stroke-width=".6" stroke-linecap="square"/><path d="M220.55 96.35l55.24 88.08M221.91 238.45l55.6 89.77" id="Line-33" stroke="#76CB2D" stroke-width=".6" stroke-linecap="square"/><path id="Rectangle-4" stroke="#76CB2D" stroke-width=".3" d="M161.91 109.59h9.69v9.69h-9.69zM215.41 5.03l2.34-4.59 4.59 2.34L220 7.37z"/><path id="Rectangle-4" stroke="#76CB2D" stroke-width=".3" d="M165.18 112.86h3.15v3.15h-3.15zM260.81 16.78h25.64v24.93h-25.64z"/><path id="Rectangle-4" stroke="#76CB2D" stroke-width=".3" d="M266.24 29.36l7.5-7.5 7.28 7.29-7.5 7.49z"/><path id="Rectangle-4" fill="#76CB2D" d="M327.42 224.39h5.13v5.14h-5.13z"/><path d="M330.13 57.06v170.22" id="Line-32" stroke="#76CB2D" stroke-width=".6" stroke-linecap="square" stroke-dasharray="3"/><path id="Rectangle-11" stroke="#76CB2D" stroke-width=".3" d="M324.22 220.94h11.52v11.52h-11.52z"/><path id="Rectangle-12" fill="#76CB2D" d="M219.08 234.42h5.18v5.18h-5.18zM105.63 209.89h5.18v5.18h-5.18z"/><path d="M108.45 214.91v51.96" id="Line" stroke="#76CB2D" stroke-width=".6" stroke-linecap="square"/><path d="M219.55 347.16l-160.7-75.62" id="Line-34" stroke="#BFC6D3" stroke-width=".6" opacity=".6" stroke-linecap="square" stroke-dasharray="3"/><path d="M166.35 368.83L5.65 293.21" id="Line-34" stroke="#BFC6D3" stroke-width=".6" opacity=".4" stroke-linecap="square" stroke-dasharray="3"/><path d="M166.35 115.57L5.65 39.94M220.98 238.42L60.28 162.8M219.37 95.28L58.67 19.66" id="Line-34" stroke="#BFC6D3" stroke-width=".6" opacity=".6" stroke-linecap="square" stroke-dasharray="3"/><path d="M270.82 29.39h5.91M273.78 32.34v-5.9" id="Line-35" stroke="#76CB2D" stroke-width=".3" stroke-linecap="square"/><path id="Rectangle-4" stroke="#76CB2D" stroke-width=".3" fill="#FFF" d="M159.83 359.67h13.49v13.49h-13.49z"/><path id="Rectangle-4" stroke="#76CB2D" stroke-width=".3" fill="#FFF" d="M163.3 363.14h6.55v6.55h-6.55z"/></g><path id="Rectangle-4" stroke="#76CB2D" stroke-width=".3" d="M321.37 9.1l5.08-2.26 2.26 5.08-5.08 2.26z"/><path id="Rectangle-4" stroke="#E6E8EE" stroke-width=".6" fill="#FFF" d="M3.1 38.24l5.27.1-.1 5.26-5.26-.1zM3.8 289.73l5.27.1-.1 5.26-5.26-.1z"/><path id="Rectangle-4" stroke="#E6E8EE" stroke-width=".6" fill="#E6E8EE" d="M57.02 270.52l5.26.1-.1 5.26-5.26-.1z"/><path id="Rectangle-4" stroke="#E6E8EE" stroke-width=".6" fill="#FFF" d="M93.04 220.93l7.58.14-.14 7.58-7.58-.14zM55.8 17.92l5.27.1-.1 5.26-5.26-.1z"/><path d="M59.6 178.75c3.38.49 5.78-.32 7.22-2.4" id="Path-20" stroke="#E6E8EE"/></g><g id="Group-3" transform="translate(.98 .65)"><path d="M56.79 20.01L4.45 39.58 56.8 20.01zM56.83 273.52L6.69 292.34" id="Line-4" stroke="#BFC6D3" stroke-linecap="square"/><path d="M4.3 40.7l.2 249.74M58.44 164.27V272.8" id="Line-31" stroke="#BFC6D3" stroke-linecap="square"/><path d="M56.67 20.2l35.4 58.64M58.66 163.6l36.7 58.71" id="Line-33" stroke="#BFC6D3" stroke-linecap="square"/><path id="Line-4" stroke="#76CB2D" stroke-width=".6" stroke-linecap="square" d="M161.53 112.78l-51.34-24.45 52.1-19.1 57.04 26.3-47.37 17.86"/><path d="M162.77 104.55l-28.79-13.7 29.21-10.71 31.98 14.74-26.56 10.01" id="Line-4" stroke="#76CB2D" stroke-width=".6" stroke-linecap="square" stroke-dasharray="3"/><path id="Line-4" stroke="#76CB2D" stroke-width=".6" stroke-linecap="square" d="M220.82 348.62l-53.78 19.98-58.26-27.24"/><path d="M166.85 119.48v83.54" id="Line-31" stroke="#76CB2D" stroke-width=".6" stroke-linecap="square"/><path d="M166.85 202.92v165.7M108.45 89.42v127.06m0 51.49v72.76" id="Line-31" stroke="#76CB2D" stroke-width=".6" stroke-linecap="square" stroke-dasharray="3"/><path d="M220.98 238.45V348.3" id="Line-31" stroke="#76CB2D" stroke-width=".6" stroke-linecap="square"/><path id="Line-4" stroke="#76CB2D" stroke-width=".6" stroke-linecap="square" d="M328.99 56.26l-52.34 19.57-56.8-26.76 48.02-17.54"/><path d="M330.62 56.49l-52.06-24.37m-10.9-5.1L219.55 4.5" id="Line-2" stroke="#76CB2D" stroke-width=".6" stroke-linecap="square" stroke-dasharray="3"/><path id="Line-4" stroke="#76CB2D" stroke-width=".6" stroke-linecap="square" d="M329.03 310.32l-51.59 19.02-54.85-25.48-1.14-.53"/><path d="M276.5 75.83v108.16M218.87 49.65V94.3M329.98 225.7v83.97" id="Line-31" stroke="#76CB2D" stroke-width=".6" stroke-linecap="square"/><path d="M220.55 96.35l55.24 88.08M221.91 238.45l55.6 89.77" id="Line-33" stroke="#76CB2D" stroke-width=".6" stroke-linecap="square"/><path id="Rectangle-4" stroke="#76CB2D" stroke-width=".3" d="M161.91 109.59h9.69v9.69h-9.69zM215.41 5.03l2.34-4.59 4.59 2.34L220 7.37z"/><path id="Rectangle-4" stroke="#76CB2D" stroke-width=".3" d="M165.18 112.86h3.15v3.15h-3.15zM260.81 16.78h25.64v24.93h-25.64z"/><path id="Rectangle-4" stroke="#76CB2D" stroke-width=".3" d="M266.24 29.36l7.5-7.5 7.28 7.29-7.5 7.49z"/><path id="Rectangle-4" fill="#76CB2D" d="M327.42 224.39h5.13v5.14h-5.13z"/><path d="M330.13 57.06v170.22" id="Line-32" stroke="#76CB2D" stroke-width=".6" stroke-linecap="square" stroke-dasharray="3"/><path id="Rectangle-11" stroke="#76CB2D" stroke-width=".3" d="M324.22 220.94h11.52v11.52h-11.52z"/><path id="Rectangle-12" fill="#76CB2D" d="M219.08 234.42h5.18v5.18h-5.18zM105.63 209.89h5.18v5.18h-5.18z"/><path d="M108.45 214.91v51.96" id="Line" stroke="#76CB2D" stroke-width=".6" stroke-linecap="square"/><path d="M219.55 347.16l-160.7-75.62" id="Line-34" stroke="#BFC6D3" stroke-width=".6" opacity=".6" stroke-linecap="square" stroke-dasharray="3"/><path d="M166.35 368.83L5.65 293.21" id="Line-34" stroke="#BFC6D3" stroke-width=".6" opacity=".4" stroke-linecap="square" stroke-dasharray="3"/><path d="M166.35 115.57L5.65 39.94M220.98 238.42L60.28 162.8M219.37 95.28L58.67 19.66" id="Line-34" stroke="#BFC6D3" stroke-width=".6" opacity=".6" stroke-linecap="square" stroke-dasharray="3"/><path d="M270.82 29.39h5.91M273.78 32.34v-5.9" id="Line-35" stroke="#76CB2D" stroke-width=".3" stroke-linecap="square"/><path id="Rectangle-4" stroke="#76CB2D" stroke-width=".3" fill="#FFF" d="M159.83 359.67h13.49v13.49h-13.49z"/><path id="Rectangle-4" stroke="#76CB2D" stroke-width=".3" fill="#FFF" d="M163.3 363.14h6.55v6.55h-6.55z"/><path id="Path-45" fill-opacity=".44" fill="#E4F8E2" d="M108.79 88.89l57.56 26.66 53.11-20.29-57.13-26.37z"/><path id="Path-45" fill-opacity=".44" fill="#E4F8E2" d="M134.16 91.16l29.86 13.82 27.54-10.52-29.63-13.68zM221.52 49.73L279.1 76.4l53.1-20.29-57.12-26.37z"/><path id="Rectangle-4" stroke="#76CB2D" stroke-width=".3" d="M320.38 8.45l5.08-2.26 2.26 5.08-5.08 2.26z"/><path id="Rectangle-4" stroke="#E6E8EE" stroke-width=".6" fill="#FFF" d="M2.12 37.6l5.26.09-.1 5.26-5.26-.1zM2.83 289.08l5.26.1-.1 5.26-5.26-.1z"/><path id="Rectangle-4" stroke="#E6E8EE" stroke-width=".6" fill="#E6E8EE" d="M56.04 269.87l5.26.1-.1 5.26-5.26-.1z"/><path id="Rectangle-4" stroke="#E6E8EE" stroke-width=".6" fill="#FFF" d="M92.06 220.28l7.58.14-.14 7.58-7.58-.14zM54.83 17.27l5.26.1-.1 5.26-5.26-.1z"/><path d="M58.62 178.1c3.37.49 5.78-.32 7.22-2.4" id="Path-20" stroke="#E6E8EE"/></g></g><g id="Group-7" transform="translate(0 106)" stroke="#DFDFDF" stroke-dasharray="13" stroke-linecap="square"><g id="Group-6" transform="translate(576)"><path d="M.5 1.5h256M.5 1.5h256M.5 1.5h256" id="Line-40"/></g><g id="Group-6" transform="matrix(1 0 0 -1 52.99 85.04)"><path d="M.38 1.5h195.98M.38 1.5h195.98M.38 1.5h195.98" id="Line-40"/></g><g id="Group-6" transform="translate(576 138)"><path d="M.55 7.38h283.09M.55 7.38h283.09M.55 7.38h283.09" id="Line-40"/></g><g id="Group-6" transform="translate(.49 93.35)"><path d="M.15 7.38H76.3M.15 7.38H76.3M.15 7.38H76.3" id="Line-40"/></g><g id="Group-6" transform="translate(.49 93.35)"><path d="M.15 7.38H76.3M.15 7.38H76.3M.15 7.38H76.3" id="Line-40"/></g><g id="Group-6" transform="translate(576 11.03)"><path d="M.2 7.38h104.6M.2 7.38h104.6M.2 7.38h104.6" id="Line-40"/></g><g id="Group-6" transform="translate(639.63 82.04)"><path d="M.5 7.38h255.33M.5 7.38h255.33M.5 7.38h255.33" id="Line-40"/></g><g id="Group-6" transform="translate(628.5 300.18)"><path d="M.36 27.33h185.82M.36 27.33h185.82M.36 27.33h185.82" id="Line-40"/></g><g id="Group-6" transform="translate(673.63 280.65)"><path d="M.15 27.33h76.51M.15 27.33h76.51M.15 27.33h76.51" id="Line-40"/></g><g id="Group-6" transform="translate(38.99 145.5)"><path d="M.42 7.38h213.77M.42 7.38h213.77M.42 7.38h213.77" id="Line-40"/></g></g></g></g></g></g></svg>