<svg xmlns="http://www.w3.org/2000/svg" width="1240" height="151"><style>@keyframes light{0%{stroke-dashoffset: 1240}100%{stroke-dashoffset: 0}}.rect{stroke:#808080;fill:#FFFFFF}@keyframes color{from{stroke:#808080;fill:#FFFFFF}to{stroke:#50AC02;fill:#50AC02}}.text{fill:#808080}@keyframes textcolor{from{fill:#808080}to{fill:#50AC02}}.sign{fill:#808080}</style><g xmlns="http://www.w3.org/2000/svg" id="Group-56"><path d="M120 20.5h980" id="lAni" stroke="#50AC02" style="animation:light 4s 1s" stroke-dasharray="1240"/><g class="intro-text" id="diAs"><path class="rect" transform="translate(105 7)" stroke-width="4" style="animation:color 0.5s forwards 0.5s" d="M8 8h16v16H8z"/><text class="text" id="da" font-family="Microsoft YaHei,PingFangSC-Medium, PingFang SC" font-size="30" font-weight="300" style="animation:textcolor 0.3s forwards 0.5s"><tspan x="60" y="100">DIGITAL</tspan> <tspan x="50" y="150">ASSESTS</tspan></text></g><g class="intro-text" id="diId"><path class="rect" transform="translate(105 7)" stroke-width="4" style="animation:color 0.5s forwards 1.5s" d="M336 8h16v16h-16z"/><text class="text" id="di" font-family="Microsoft YaHei,PingFangSC-Medium, PingFang SC" font-size="30" font-weight="300" style="animation:textcolor 0.3s forwards 1.5s"><tspan x="401" y="100">DIGITAL</tspan> <tspan x="389" y="150">IDENTITY</tspan></text></g><g class="intro-text" id="smCo"><path class="rect" transform="translate(105 7)" stroke-width="4" style="animation:color 0.5s forwards 2.5s" d="M663 8h16v16h-16z"/><text class="text" id="sc" font-family="Microsoft YaHei,PingFangSC-Medium, PingFang SC" font-size="30" font-weight="300" style="animation:textcolor 0.3s forwards 2.5s"><tspan x="725" y="100">SMART</tspan> <tspan x="700" y="150">CONTRACT</tspan></text></g><g class="intro-text" id="smEc"><path class="rect" transform="translate(105 7)" stroke-width="4" style="animation:color 0.5s forwards 3s" d="M991 8h16v16h-16z"/><text class="text" id="se" font-family="Microsoft YaHei,PingFangSC-Medium, PingFang SC" font-size="30" font-weight="300" style="animation:textcolor 0.3s forwards 3s"><tspan x="1055" y="100">SMART</tspan> <tspan x="1030" y="150">ECONOMY</tspan></text></g><g class="sign" style="animation:textcolor 0.2s forwards 1s"><path d="M12 0h6v29h-6z" transform="translate(270 92)"/><path d="M0 11h29v6H0z" transform="translate(270 92)"/></g><g class="sign" style="animation:textcolor 0.2s forwards 1.9s"><path d="M12 0h6v29h-6z" transform="translate(605 92)"/><path d="M0 11h29v6H0z" transform="translate(605 92)"/></g><g class="sign" style="animation:textcolor 0.2s forwards 2.8s"><path d="M12 0h29v6H12zM12 11h29v6H12z" transform="translate(915 95)"/></g></g></svg>