<?xml version="1.0" encoding="UTF-8"?>
<svg width="1997px" height="1142px" viewBox="0 0 1997 1142" version="1.1" xmlns="http://www.w3.org/2000/svg" xmlns:xlink="http://www.w3.org/1999/xlink">
    <!-- Generator: Sketch 50.2 (55047) - http://www.bohemiancoding.com/sketch -->
    <title>虚线背景</title>
    <desc>Created with Sketch.</desc>
  <style>
    #g1{animation: m1 2s alternate infinite;}
    #g2{animation: m2 1.5s alternate infinite;}
    #g3{animation: m3 1s alternate infinite;}
    @keyframes m1{
    0%{transform: translate(8.827554px, 0.014903px);}
    100%{transform: translate(8.827554px, -3px);}
    }
    @keyframes m2{
    0%{transform: translate(20px,0px);}
    100%{transform: translate(20px,-10px);}
    }
    @keyframes m3{
    0%{transform: translate(11.756965px, 0.019849px);}
    100%{transform: translate(11.756965px, -5px);}
    }
  </style>
    <defs>
        <polygon id="path-1" points="5.46932413 49.259033 0.316401159 59.8756925 39.932062 83.5839089 84.1994373 65.7080155 87.5920472 54.9987546 50.0251554 31.3831396"></polygon>
        <filter x="-14.3%" y="-14.4%" width="124.1%" height="140.2%" filterUnits="objectBoundingBox" id="filter-2">
            <feOffset dx="-2" dy="3" in="SourceAlpha" result="shadowOffsetOuter1"></feOffset>
            <feGaussianBlur stdDeviation="3" in="shadowOffsetOuter1" result="shadowBlurOuter1"></feGaussianBlur>
            <feColorMatrix values="0 0 0 0 0.842026753   0 0 0 0 0.933620323   0 0 0 0 0.740957985  0 0 0 0.643823596 0" type="matrix" in="shadowBlurOuter1"></feColorMatrix>
        </filter>
        <filter x="-17.8%" y="-29.2%" width="135.6%" height="158.4%" filterUnits="objectBoundingBox" id="filter-3">
            <feGaussianBlur stdDeviation="3" in="SourceGraphic"></feGaussianBlur>
        </filter>
        <polygon id="path-4" points="3.19931812 28.8144044 0.185080997 35.0246911 23.3585296 48.8929726 49.2530301 38.4363479 51.2375602 32.1718933 29.2625528 18.3577797"></polygon>
        <filter x="-24.5%" y="-24.6%" width="141.1%" height="168.8%" filterUnits="objectBoundingBox" id="filter-5">
            <feOffset dx="-2" dy="3" in="SourceAlpha" result="shadowOffsetOuter1"></feOffset>
            <feGaussianBlur stdDeviation="3" in="shadowOffsetOuter1" result="shadowBlurOuter1"></feGaussianBlur>
            <feColorMatrix values="0 0 0 0 0.842026753   0 0 0 0 0.933620323   0 0 0 0 0.740957985  0 0 0 0.643823596 0" type="matrix" in="shadowBlurOuter1"></feColorMatrix>
        </filter>
        <filter x="-30.4%" y="-49.9%" width="160.8%" height="199.8%" filterUnits="objectBoundingBox" id="filter-6">
            <feGaussianBlur stdDeviation="3" in="SourceGraphic"></feGaussianBlur>
        </filter>
        <polygon id="path-7" points="2.40216357 21.6348952 0.138965496 26.2978028 17.5384275 36.7106093 36.9809535 28.8593979 38.4710103 24.1558192 21.9713813 13.7836838"></polygon>
        <filter x="-32.6%" y="-32.7%" width="154.8%" height="191.6%" filterUnits="objectBoundingBox" id="filter-8">
            <feOffset dx="-2" dy="3" in="SourceAlpha" result="shadowOffsetOuter1"></feOffset>
            <feGaussianBlur stdDeviation="3" in="shadowOffsetOuter1" result="shadowBlurOuter1"></feGaussianBlur>
            <feColorMatrix values="0 0 0 0 0.842026753   0 0 0 0 0.933620323   0 0 0 0 0.740957985  0 0 0 0.643823596 0" type="matrix" in="shadowBlurOuter1"></feColorMatrix>
        </filter>
        <filter x="-40.5%" y="-66.4%" width="181.0%" height="232.9%" filterUnits="objectBoundingBox" id="filter-9">
            <feGaussianBlur stdDeviation="3" in="SourceGraphic"></feGaussianBlur>
        </filter>
    </defs>
    <g id="Page-1" stroke="none" stroke-width="1" fill="none" fill-rule="evenodd">
        <g id="首页主背景" transform="translate(-105.000000, -39.000000)">
            <g id="虚线背景" transform="translate(-222.000000, -44.000000)">
                <path d="M1636.16399,426.793843 L2154.97077,129.623158 M2243.14303,77.0536292 L2299.65194,44.8727263" id="Stroke-101" stroke="#B1BAC9" stroke-width="2" stroke-dasharray="10" transform="translate(1967.907962, 235.833285) scale(-1, -1) rotate(8.000000) translate(-1967.907962, -235.833285) "></path>
                <path d="M352.430894,718.945699 L1041.3535,351.952943" id="Stroke-101" stroke="#B1BAC9" stroke-width="2" stroke-dasharray="10" transform="translate(696.796758, 535.847813) scale(-1, -1) rotate(8.000000) translate(-696.796758, -535.847813) "></path>
                <path d="M429.303776,436.560196 L1043.54596,43.4294024" id="Stroke-101" stroke="#B1BAC9" stroke-width="2" stroke-dasharray="10" transform="translate(736.781726, 240.429402) scale(1, -1) rotate(8.000000) translate(-736.781726, -240.429402) "></path>
                <path d="M997.153585,305.706364 L1371.90844,62.1805936" id="Stroke-101" stroke="#B1BAC9" stroke-width="2" stroke-dasharray="10" transform="translate(1184.898908, 183.694929) scale(1, -1) rotate(8.000000) translate(-1184.898908, -183.694929) "></path>
                <path d="M1631.32158,645.010784 L2076.76015,351.157961" id="Stroke-101" stroke="#B1BAC9" stroke-width="2" stroke-dasharray="10" transform="translate(1854.160077, 497.782421) scale(1, -1) rotate(8.000000) translate(-1854.160077, -497.782421) "></path>
                <path d="M1323.48225,1265.14196 L1892.09603,881.157266" id="Stroke-101" stroke="#B1BAC9" stroke-width="2" stroke-dasharray="10" transform="translate(1607.982248, 1072.781568) scale(1, -1) rotate(8.000000) translate(-1607.982248, -1072.781568) "></path>
                <path d="M766.783375,828.956373 L1053.64243,631.278549" id="Stroke-101" stroke="#B1BAC9" stroke-width="2" stroke-dasharray="10" transform="translate(910.283375, 730.095979) scale(1, -1) rotate(8.000000) translate(-910.283375, -730.095979) "></path>
                <path d="M1644.27978,1156.36272 L2212.89356,772.378026" id="Stroke-101" stroke="#B1BAC9" stroke-width="2" stroke-dasharray="10" transform="translate(1928.779782, 964.002328) scale(1, -1) rotate(8.000000) translate(-1928.779782, -964.002328) "></path>
                <path d="M608.150938,606.091515 L661.757255,568.471278" id="Stroke-101" stroke="#B1BAC9" stroke-width="2" stroke-dasharray="10" transform="translate(634.954096, 587.281397) scale(1, -1) rotate(8.000000) translate(-634.954096, -587.281397) "></path>
                <path d="M32.1535127,1270.28333 L84.2003292,1231.42256 M332.079319,1052.41399 L672.867279,772.695615" id="Stroke-101" stroke="#B1BAC9" stroke-width="2" stroke-dasharray="10" transform="translate(352.510396, 1021.489473) scale(1, -1) rotate(8.000000) translate(-352.510396, -1021.489473) "></path>
                <path d="M1056,91.5991968 L1097.2916,386.696409" id="Stroke-101" stroke="#B1BAC9" stroke-width="2" stroke-dasharray="10" transform="translate(1077.000000, 239.099197) scale(-1, -1) rotate(8.000000) translate(-1077.000000, -239.099197) "></path>
                <path d="M1579.10443,802.55197 L1637.85617,1222.95735" id="Stroke-101" stroke="#B1BAC9" stroke-width="2" stroke-dasharray="10" transform="translate(1608.480301, 1012.754659) scale(-1, -1) rotate(8.000000) translate(-1608.480301, -1012.754659) "></path>
                <path d="M1378.23143,91.0259341 L1403.41705,275.25351" id="Stroke-101" stroke="#B1BAC9" stroke-width="2" stroke-dasharray="10" transform="translate(1391.231432, 183.025934) scale(-1, -1) rotate(8.000000) translate(-1391.231432, -183.025934) "></path>
                <path d="M1269.40238,930.440326 L1310.59762,1223.55967" id="Stroke-101" stroke="#B1BAC9" stroke-width="2" stroke-dasharray="10" transform="translate(1290.000000, 1077.000000) scale(-1, -1) rotate(8.000000) translate(-1290.000000, -1077.000000) "></path>
                <path d="M1412.47184,309.603769 L1848.39272,59.4473129" id="Stroke-101" stroke="#B1BAC9" stroke-width="2" stroke-dasharray="10" transform="translate(1630.337707, 184.505883) scale(-1, -1) rotate(8.000000) translate(-1630.337707, -184.505883) "></path>
                <path d="M352.740794,1135.13751 L1054.82356,766.892113" id="Stroke-101" stroke="#B1BAC9" stroke-width="2" stroke-dasharray="10" transform="translate(703.998953, 950.753394) scale(-1, -1) rotate(8.000000) translate(-703.998953, -950.753394) "></path>
                <path d="M1633.01118,845.842798 L2238.82442,513.262401" id="Stroke-101" stroke="#B1BAC9" stroke-width="2" stroke-dasharray="10" transform="translate(1935.917800, 679.552600) scale(-1, -1) rotate(8.000000) translate(-1935.917800, -679.552600) "></path>
                <path d="M595.997232,1295.20671 L1058.7324,1031.37487 M1150.78449,973.724918 L1565.72141,734.793287" id="Stroke-101" stroke="#B1BAC9" stroke-width="2" stroke-dasharray="10" transform="translate(1080.859320, 1015.000000) scale(-1, -1) rotate(8.000000) translate(-1080.859320, -1015.000000) "></path>
                <path d="M1608.64488,807.892013 L1608.64488,398.982427 L1392.43765,507.358774" id="Stroke-902" stroke="#4FAB02" stroke-width="3" stroke-dasharray="10,10" transform="translate(1500.541266, 603.437220) scale(1, -1) translate(-1500.541266, -603.437220) "></path>
                <path d="M1288.18976,607.535966 L1288.18976,405.484041 L1078.0328,507.483879 L1078.0328,916.254458 L1288.18976,821.48567" id="Stroke-902" stroke="#4FAB02" stroke-width="3" stroke-dasharray="10,10" transform="translate(1183.111281, 660.869250) scale(1, -1) translate(-1183.111281, -660.869250) "></path>
                <path d="M1606.56917,370.838912 L1292.59049,289.050195 L1085.72631,407.030837 L1316.76717,473.860946" id="Stroke-101" stroke="#4FAB02" stroke-width="3" stroke-dasharray="10" transform="translate(1346.147740, 381.455570) scale(-1, 1) rotate(5.000000) translate(-1346.147740, -381.455570) "></path>
                <g id="三角形左边" transform="translate(329.000000, 85.000000)">
                    <polygon id="Fill-85" stroke="#B4EE73" stroke-width="2" points="0.0457152431 543.387842 0.0457152431 0.293949843 670.003116 306.649033"></polygon>
                    <polygon id="Fill-85" stroke-opacity="0.57458673" stroke="#B4EE73" points="36.4056375 505.809697 36.4056375 40.5683927 610.324548 303.007431"></polygon>
                    <polygon id="Fill-85" stroke-opacity="0.460909194" stroke="#B4EE73" points="80.9260923 468.833492 80.9260923 82.3861238 557.645271 300.378109"></polygon>
                    <polygon id="Fill-85" stroke-opacity="0.161713089" stroke="#B4EE73" points="78.1225045 435.177928 78.1225045 119.463221 467.586294 297.555457"></polygon>
                    <polygon id="Fill-85" stroke-opacity="0.154495018" stroke="#B4EE73" points="86.5282787 449.213378 86.5282787 105.427771 510.620162 299.354585"></polygon>
                    <polygon id="Fill-85" points="28.7811555 457.773479 28.7811555 94.3117896 477.145337 299.33773"></polygon>
                </g>
                <g id="三角形右边" transform="translate(1665.000000, 585.000000)" opacity="0.76015625" stroke="#76CB2D">
                    <polygon id="Fill-85" stroke-width="2" transform="translate(298.165147, 255.667923) scale(-1, -1) translate(-298.165147, -255.667923) " points="0.479620088 511.283328 0.479620088 0.0525173609 595.850673 289.372974"></polygon>
                    <polygon id="Fill-85" stroke-opacity="0.457795516" transform="translate(310.268808, 253.528214) scale(-1, -1) translate(-310.268808, -253.528214) " points="40.4294788 485.232759 40.4294788 21.8236686 580.108138 284.080416"></polygon>
                    <polygon id="Fill-85" stroke-opacity="0.2518399" transform="translate(323.814639, 250.638279) scale(-1, -1) translate(-323.814639, -250.638279) " points="82.9482152 457.464486 82.9482152 43.8120708 564.681063 277.910062"></polygon>
                    <polygon id="Fill-85" stroke-opacity="0.151437953" transform="translate(336.749729, 247.637147) scale(-1, -1) translate(-336.749729, -247.637147) " points="126.170433 428.456526 126.170433 66.8177682 547.329024 271.47971"></polygon>
                    <polygon id="Fill-85" stroke-opacity="0.118970788" transform="translate(351.876457, 244.357385) scale(-1, -1) translate(-351.876457, -244.357385) " points="176.046955 395.337952 176.046955 93.3768194 527.705958 264.265449"></polygon>
                </g>
                <g id="Group-21" transform="translate(1633.000000, 744.771360)">
                    <g id="Path-14">
                        <use fill="black" fill-opacity="1" filter="url(#filter-2)" xlink:href="#path-1"></use>
                        <use fill="#FFFFFF" fill-rule="evenodd" xlink:href="#path-1"></use>
                    </g>
                    <polygon id="Path-14" fill="#D3D9CE" opacity="0.669698661" filter="url(#filter-3)" points="20.7016025 51.4255845 20.7016025 58.9856293 41.787337 70.2881994 71.2904646 58.9856293 71.2904646 54.6011619 47.186711 39.448858"></polygon>
                    <g id="g2" transform="translate(20.098862, 0.033932)">
                        <polygon id="Path-15" fill="#8AD500" points="0 11.5177366 20.3057218 21.2386694 20.3057218 61.8985773 0 52.1342817"></polygon>
                        <polygon id="Path-16" fill="#50AC02" points="20.98462 21.0866727 20.98462 61.8003732 51.2727271 51.2929572 51.2727271 10.0791099"></polygon>
                        <polygon id="Path-17" fill="#58BF00" points="0.702752891 10.9925412 20.753398 20.681257 50.8674411 9.39103108 31.0176788 0.0911689706"></polygon>
                    </g>
                </g>
                <g id="Group-21" transform="translate(971.447467, 353.934117)">
                    <g id="Path-14">
                        <use fill="black" fill-opacity="1" filter="url(#filter-5)" xlink:href="#path-4"></use>
                        <use fill="#FFFFFF" fill-rule="evenodd" xlink:href="#path-4"></use>
                    </g>
                    <polygon id="Path-14" fill="#D3D9CE" opacity="0.669698661" filter="url(#filter-6)" points="12.1095424 30.0817433 12.1095424 34.5040426 24.4437853 41.1155574 41.7018392 34.5040426 41.7018392 31.9393188 27.6021856 23.0758762"></polygon>
                    <g id="g1" transform="translate(11.756965, 0.019849)">
                        <polygon id="Path-15" fill="#8AD500" points="0 6.73737787 11.8779692 12.4237032 11.8779692 36.2079913 0 30.4963005"></polygon>
                        <polygon id="Path-16" fill="#50AC02" points="12.2750953 12.3347918 12.2750953 36.1505461 29.9923284 30.0041621 29.9923284 5.89584349"></polygon>
                        <polygon id="Path-17" fill="#58BF00" points="0.411080055 6.43016129 12.1398404 12.0976411 29.7552536 5.49334712 18.1440009 0.0533299057"></polygon>
                    </g>
                </g>
                <g id="Group-21" transform="translate(630.280662, 1160.689897)">
                    <g id="Path-14">
                        <use fill="black" fill-opacity="1" filter="url(#filter-8)" xlink:href="#path-7"></use>
                        <use fill="#FFFFFF" fill-rule="evenodd" xlink:href="#path-7"></use>
                    </g>
                    <polygon id="Path-14" fill="#D3D9CE" opacity="0.669698661" filter="url(#filter-9)" points="9.09228166 22.5864591 9.09228166 25.9068811 18.3532766 30.8710451 31.3112467 25.9068811 31.3112467 23.9811938 20.7247177 17.3262011"></polygon>
                    <g id="g3" transform="translate(8.827554, 0.014903)">
                        <polygon id="Path-15" fill="#8AD500" points="0 5.05866658 8.91840821 9.32816499 8.91840821 27.1862673 0 22.8977236"></polygon>
                        <polygon id="Path-16" fill="#50AC02" points="9.21658481 9.26140705 9.21658481 27.1431354 22.5193231 22.5282083 22.5193231 4.42681219"></polygon>
                        <polygon id="Path-17" fill="#58BF00" points="0.308653748 4.82799728 9.11503056 9.08334575 22.3413188 4.12460337 13.623171 0.0400420189"></polygon>
                    </g>
                </g>
                <g id="010101" transform="translate(661.000000, 304.000000)">
                    <path d="M20.9017302,302.548267 C21.5859103,302.980647 21.6200707,303.577866 20.9900539,304.346812 C20.4917173,304.962573 19.6061028,305.645836 18.3018292,306.393319 C17.0059922,307.133409 15.8197698,307.634423 14.7484325,307.913615 C13.4353773,308.250797 12.4146533,308.209385 11.7154446,307.77568 C11.0188183,307.342202 11.0036076,306.738517 11.6428214,305.978518 C12.1630263,305.352223 13.0762878,304.675724 14.3841925,303.936697 C15.7006487,303.190288 16.8754083,302.683937 17.930204,302.41575 C19.2351446,302.069716 20.2201325,302.116114 20.9017302,302.548267 Z M20.2396725,302.92927 C19.6917269,302.582448 18.8650675,302.578031 17.7522335,302.927825 C16.935423,303.183733 15.9692126,303.628653 14.877314,304.248403 C13.7827114,304.867913 12.9981128,305.415887 12.5128798,305.899522 C11.8792001,306.543 11.832226,307.048089 12.3904744,307.39582 C12.9422585,307.738655 13.797466,307.737452 14.9200157,307.400977 C15.7563958,307.138658 16.7205394,306.706018 17.8075773,306.08584 C18.8919112,305.465424 19.6681731,304.904253 20.1297522,304.426669 C20.7519086,303.769712 20.7813033,303.27121 20.2396725,302.92927 Z M26.6823736,306.361737 L27.0928758,306.614243 L18.3856378,311.656068 L17.8663193,311.342053 L25.6645175,306.838461 C24.6804427,306.959519 23.7874215,306.918967 22.9869925,306.716941 L23.7420043,306.279041 C24.1332268,306.374934 24.585356,306.435515 25.0900077,306.455718 C25.6066892,306.468844 26.1470477,306.438533 26.6823736,306.361737 Z M32.4675066,309.679551 C33.1941063,310.115671 33.2728101,310.716818 32.6897933,311.489907 C32.2291875,312.108994 31.3803984,312.795504 30.1113913,313.546096 C28.850488,314.289267 27.683334,314.791962 26.6165191,315.071552 C25.3086982,315.409196 24.2697141,315.366174 23.5280859,314.928728 C22.78904,314.491511 22.7289532,313.883869 23.3214997,313.119756 C23.8031479,312.490062 24.6800772,311.810359 25.9530481,311.068253 C27.234238,310.318735 28.3894359,309.810659 29.4405351,309.542146 C30.7399088,309.195621 31.7434893,309.243658 32.4675066,309.679551 Z M31.8234149,310.062138 C31.241435,309.712315 30.4017576,309.70675 29.2977479,310.057322 C28.4873864,310.313799 27.539372,310.760324 26.4767512,311.382654 C25.4114264,312.004747 24.6555427,312.555252 24.1987943,313.041398 C23.6032014,313.688234 23.5928671,314.196553 24.1851497,314.547285 C24.770475,314.893077 25.6383677,314.892992 26.752919,314.555813 C27.5825175,314.292895 28.529291,313.858724 29.587051,313.235965 C30.6421072,312.612967 31.3888283,312.049192 31.8222554,311.569126 C32.4054991,310.908738 32.3985867,310.407035 31.8234149,310.062138 Z M39.3989162,313.787733 C40.1497885,314.225993 40.2539803,314.829386 39.6978571,315.604847 C39.2588409,316.225837 38.4311236,316.914205 37.1822959,317.666577 C35.9413819,318.411509 34.7851389,318.915166 33.7209118,319.194985 C32.4160858,319.532892 31.3666534,319.488949 30.6007525,319.049364 C29.837434,318.610006 29.7516689,318.000101 30.3175121,317.233634 C30.777098,316.601994 31.6332379,315.920459 32.8862197,315.17659 C34.1472299,314.425292 35.2912346,313.91623 36.3402187,313.647531 C37.636407,313.300725 38.6506263,313.3497 39.3989162,313.787733 Z M38.7651046,314.171226 C38.1636502,313.819686 37.3165239,313.813465 36.2175635,314.164482 C35.4108921,314.421284 34.4732896,314.868727 33.4274216,315.492534 C32.3788497,316.116103 31.6393967,316.668057 31.1989475,317.15564 C30.6251478,317.804398 30.635779,318.314565 31.2475362,318.667014 C31.8520537,319.014498 32.727205,319.015054 33.8371797,318.67747 C34.6628977,318.414211 35.5997318,317.979163 36.6407391,317.354927 C37.6790424,316.730453 38.4088601,316.165187 38.8261785,315.683701 C39.3871563,315.02135 39.3594688,314.517815 38.7651046,314.171226 Z M45.758678,317.652261 L46.2079548,317.908185 L37.8741925,322.982937 L37.3067935,322.664683 L44.7712697,318.131669 C43.7776762,318.251887 42.8587596,318.209053 42.0160588,318.0033 L42.7386399,317.56254 C43.1502228,317.660229 43.6200971,317.722374 44.139103,317.743842 C44.6696156,317.758188 45.2193864,317.728707 45.758678,317.652261 Z M52.0602029,321.015602 C52.8534948,321.457602 53.00223,322.064923 52.4931068,322.844527 C52.0918213,323.468844 51.3009294,324.160458 50.0873682,324.915939 C48.8813878,325.663952 47.7442134,326.16929 46.6845086,326.449507 C45.3849169,326.787876 44.3172245,326.742324 43.508904,326.298998 C42.7031659,325.8559 42.5725247,325.242039 43.0917006,324.471457 C43.5127298,323.836418 44.3325375,323.15168 45.5505855,322.404731 C46.7763294,321.650324 47.9007723,321.139537 48.94606,320.870512 C50.2366814,320.523215 51.2694934,320.573829 52.0602029,321.015602 Z M51.4443572,321.40068 C50.8088685,321.046139 49.9487242,321.03877 48.8585881,321.390565 C48.0583656,321.647936 47.1389593,322.096982 46.122369,322.723371 C45.1030749,323.349522 44.3923368,323.904007 43.9803723,324.394102 C43.4446593,325.046217 43.4919302,325.559615 44.1377218,325.915064 C44.7757804,326.265505 45.6636169,326.267179 46.7655932,325.928891 C47.5845295,325.665033 48.5039936,325.228455 49.5157231,324.601637 C50.5247486,323.974582 51.2250254,323.406711 51.6141918,322.922743 C52.136257,322.256961 52.0722624,321.750226 51.4443572,321.40068 Z M58.7883129,324.912606 L59.2622522,325.170704 L51.166039,330.2664 L50.5680585,329.945449 L57.8202709,325.393721 C56.8206229,325.513406 55.8852356,325.469119 55.0156477,325.260996 L55.7176013,324.818417 C56.1421345,324.917248 56.6232955,324.980388 57.1514314,325.002661 C57.6907413,325.017783 58.2464989,324.988829 58.7883129,324.912606 Z M65.4182886,328.304905 C66.2540001,328.750645 66.4472787,329.361893 65.9851555,330.145641 C65.6216008,330.773284 64.8675344,331.468145 63.6892396,332.226735 C62.5181929,332.977828 61.4000869,333.484847 60.3449045,333.765463 C59.050547,334.104293 57.9645946,334.057131 57.1138545,333.610065 C56.2656969,333.163228 56.0901795,332.54541 56.5626882,331.770714 C56.9451607,331.132275 57.7286361,330.444334 58.9117505,329.694305 C60.1022279,328.936789 61.2071092,328.424277 62.2487004,328.154926 C63.5337549,327.807139 64.5851596,327.859392 65.4182886,328.304905 Z M64.8204089,328.691566 C64.1508858,328.334025 63.2777235,328.325508 62.1964117,328.678081 C61.4026383,328.93602 60.501428,329.386671 59.5141155,330.015642 C58.5240991,330.644373 57.8420759,331.20139 57.4585961,331.693996 C56.9609698,332.34947 57.0448806,332.866098 57.7247064,333.224547 C58.3963061,333.577946 59.2968279,333.580738 60.3908059,333.241745 C61.2029605,332.977289 62.1050544,332.539179 63.0875061,331.90978 C64.0672539,331.280143 64.7379899,330.709668 65.0990043,330.223218 C65.5821568,329.554006 65.4818551,329.04407 64.8204089,328.691566 Z M72.5147468,332.234384 L73.0133486,332.494657 L65.1546846,337.611295 L64.5261225,337.287649 L71.5660711,332.717206 C70.5603687,332.836357 69.6085106,332.790618 68.7120357,332.580125 L69.3933618,332.135728 C69.8308452,332.2357 70.3232931,332.299836 70.860559,332.322913 C71.4086661,332.338811 71.9704104,332.310385 72.5147468,332.234384 Z" id="010010101" fill="#4FAB02"></path>
                    <g id="0101010" transform="translate(1020.000000, 0.000000)">
                        <path d="M4.30299579,49.8263464 L19.7432519,58.1334118 L82.7812704,21.4620763 L79.4056698,19.5351764 L19.1481905,54.9093902 L6.94893603,48.2919772 L4.30299579,49.8263464 Z" id="Path-11" stroke="#D3D8E0" transform="translate(43.530376, 38.831880) rotate(8.000000) translate(-43.530376, -38.831880) "></path>
                        <path d="M4.48274238,43.0401552 L19.9229985,51.3472206 L82.961017,14.6758851 L68.0617983,6.1709385 L4.48274238,43.0401552 Z" id="Path-11" stroke="#4A4A4A" transform="translate(43.710122, 28.757106) rotate(8.000000) translate(-43.710122, -28.757106) "></path>
                        <path d="M4.17813381,46.4208635 L19.61839,54.7279289 L82.6564084,18.0565934 L79.2808078,16.1296935 L19.0233285,51.5039073 L6.82407405,44.8864943 L4.17813381,46.4208635 Z" id="Path-11" stroke="#4A4A4A" transform="translate(43.405514, 35.426397) rotate(8.000000) translate(-43.405514, -35.426397) "></path>
                        <path d="M15.3864812,35.622792 C16.2282032,35.2763944 17.3313402,35.3406868 18.7081161,35.8239275 C19.811007,36.2072572 21.0140041,36.8284589 22.3097567,37.7038466 C23.5932852,38.5709759 24.4439336,39.3371812 24.8935009,40.002665 C25.4359057,40.8159891 25.2984711,41.4041083 24.4567491,41.7505059 C23.6150271,42.0969034 22.4996661,42.0243526 21.1351143,41.5493703 C20.0102118,41.1618101 18.8170021,40.5365806 17.5334737,39.6694512 C16.2377211,38.7940635 15.3772852,38.0318862 14.9497294,37.3706328 C14.3951006,36.5490503 14.5447592,35.9691895 15.3864812,35.622792 Z M16.0465816,36.0687442 C15.3712465,36.3466678 15.3097161,36.8371048 15.8840018,37.5442858 C16.3043298,38.0623346 17.0645774,38.6929858 18.1402965,39.4197228 C19.2160156,40.1464597 20.1793634,40.6802393 21.0425639,41.0293198 C22.1918735,41.4865697 23.1213137,41.5824772 23.7966488,41.3045536 C24.4621964,41.0306579 24.5115028,40.5319625 23.9592285,39.8290121 C23.5266765,39.3027049 22.7884404,38.6762841 21.7127213,37.9495472 C20.6370022,37.2228102 19.6516429,36.6848002 18.8006665,36.343978 C17.6293453,35.8824977 16.7121292,35.7948485 16.0465816,36.0687442 Z M22.774243,32.7685201 L23.2636162,32.5671262 L31.9916098,38.4636056 L31.384787,38.7133341 L23.5858235,33.4444911 C23.7468042,34.0426923 23.6167615,34.5613244 23.1956954,35.0003877 L22.4378024,34.4883684 C22.638548,34.2728647 22.7781731,34.0160691 22.8468904,33.7220095 C22.9033836,33.4196915 22.8816181,33.0964237 22.774243,32.7685201 Z M29.2129076,29.9327423 C30.0546296,29.5863447 31.1577665,29.6506371 32.5345424,30.1338778 C33.6374333,30.5172075 34.8404305,31.1384092 36.136183,32.0137969 C37.4197115,32.8809262 38.2703599,33.6471315 38.7199273,34.3126153 C39.262332,35.1259394 39.1248975,35.7140586 38.2831755,36.0604561 C37.4414535,36.4068537 36.3260925,36.3343029 34.9615406,35.8593206 C33.8366382,35.4717604 32.6434285,34.8465309 31.3599,33.9794015 C30.0641475,33.1040138 29.2037116,32.3418364 28.7761558,31.6805831 C28.221527,30.8590006 28.3711856,30.2791398 29.2129076,29.9327423 Z M29.8730079,30.3786945 C29.1976728,30.6566181 29.1361424,31.1470551 29.7104282,31.8542361 C30.1307561,32.3722849 30.8910038,33.0029361 31.9667229,33.7296731 C33.042442,34.45641 34.0057897,34.9901896 34.8689902,35.3392701 C36.0182998,35.79652 36.94774,35.8924275 37.6230751,35.6145039 C38.2886227,35.3406082 38.3379291,34.8419128 37.7856549,34.1389623 C37.3531028,33.6126552 36.6148668,32.9862344 35.5391477,32.2594975 C34.4634286,31.5327605 33.4780693,30.9947505 32.6270928,30.6539283 C31.4557717,30.1924479 30.5385556,30.1047988 29.8730079,30.3786945 Z M37.1244422,26.6768738 C37.9661642,26.3304763 39.0693011,26.3947687 40.4460771,26.8780093 C41.548968,27.2613391 42.7519651,27.8825407 44.0477177,28.7579284 C45.3312461,29.6250577 46.1818946,30.391263 46.6314619,31.0567469 C47.1738667,31.870071 47.0364321,32.4581902 46.1947101,32.8045877 C45.3529881,33.1509852 44.2376271,33.0784345 42.8730753,32.6034521 C41.7481728,32.2158919 40.5549631,31.5906624 39.2714346,30.7235331 C37.9756821,29.8481454 37.1152462,29.085968 36.6876904,28.4247146 C36.1330616,27.6031322 36.2827202,27.0232713 37.1244422,26.6768738 Z M37.7845426,27.122826 C37.1092075,27.4007496 37.047677,27.8911867 37.6219628,28.5983676 C38.0422908,29.1164164 38.8025384,29.7470677 39.8782575,30.4738046 C40.9539766,31.2005416 41.9173244,31.7343211 42.7805249,32.0834016 C43.9298345,32.5406515 44.8592746,32.6365591 45.5346097,32.3586355 C46.2001574,32.0847397 46.2494637,31.5860443 45.6971895,30.8830939 C45.2646375,30.3567867 44.5264014,29.730366 43.4506823,29.003629 C42.3749632,28.276892 41.3896039,27.738882 40.5386274,27.3980598 C39.3673063,26.9365795 38.4500902,26.8489303 37.7845426,27.122826 Z M44.5122039,23.822602 L45.0015772,23.621208 L53.7295708,29.5176874 L53.122748,29.7674159 L45.3237845,24.498573 C45.4847651,25.0967741 45.3547224,25.6154063 44.9336564,26.0544695 L44.1757634,25.5424503 C44.376509,25.3269465 44.5161341,25.0701509 44.5848514,24.7760913 C44.6413446,24.4737734 44.619579,24.1505055 44.5122039,23.822602 Z M50.9508686,20.9868241 C51.7925906,20.6404265 52.8957275,20.7047189 54.2725034,21.1879596 C55.3753943,21.5712894 56.5783915,22.192491 57.874144,23.0678787 C59.1576725,23.935008 60.0083209,24.7012133 60.4578882,25.3666971 C61.000293,26.1800212 60.8628585,26.7681404 60.0211364,27.114538 C59.1794144,27.4609355 58.0640534,27.3883848 56.6995016,26.9134024 C55.5745992,26.5258422 54.3813895,25.9006127 53.097861,25.0334834 C51.8021084,24.1580957 50.9416726,23.3959183 50.5141168,22.7346649 C49.9594879,21.9130824 50.1091466,21.3332216 50.9508686,20.9868241 Z M51.6109689,21.4327763 C50.9356338,21.7106999 50.8741034,22.2011369 51.4483892,22.9083179 C51.8687171,23.4263667 52.6289647,24.0570179 53.7046838,24.7837549 C54.7804029,25.5104919 55.7437507,26.0442714 56.6069512,26.3933519 C57.7562608,26.8506018 58.685701,26.9465094 59.3610361,26.6685858 C60.0265837,26.39469 60.0758901,25.8959946 59.5236159,25.1930442 C59.0910638,24.666737 58.3528277,24.0403162 57.2771086,23.3135793 C56.2013895,22.5868423 55.2160302,22.0488323 54.3650538,21.7080101 C53.1937326,21.2465298 52.2765166,21.1588806 51.6109689,21.4327763 Z M58.3386303,18.1325522 L58.8280036,17.9311583 L67.5559972,23.8276377 L66.9491743,24.0773662 L59.1502108,18.8085232 C59.3111915,19.4067244 59.1811488,19.9253566 58.7600828,20.3644198 L58.0021898,19.8524006 C58.2029353,19.6368968 58.3425604,19.3801012 58.4112777,19.0860416 C58.4677709,18.7837236 58.4460054,18.4604558 58.3386303,18.1325522 Z M64.253522,15.698371 L64.7428953,15.4969771 L73.4708889,21.3934565 L72.8640661,21.6431849 L65.0651026,16.374342 C65.2260832,16.9725431 65.0960405,17.4911753 64.6749745,17.9302385 L63.9170815,17.4182193 C64.117827,17.2027156 64.2574522,16.94592 64.3261694,16.6518604 C64.3826626,16.3495424 64.3608971,16.0262745 64.253522,15.698371 Z" id="01001011" fill="#4FAB02"></path>
                    </g>
                    <g id="0101010" transform="translate(355.845656, 686.315159)">
                        <path d="M4.30299579,49.8263464 L19.7432519,58.1334118 L82.7812704,21.4620763 L79.4056698,19.5351764 L19.1481905,54.9093902 L6.94893603,48.2919772 L4.30299579,49.8263464 Z" id="Path-11" stroke="#D3D8E0" transform="translate(43.530376, 38.831880) rotate(8.000000) translate(-43.530376, -38.831880) "></path>
                        <path d="M4.48274238,43.0401552 L19.9229985,51.3472206 L82.961017,14.6758851 L68.0617983,6.1709385 L4.48274238,43.0401552 Z" id="Path-11" stroke="#4A4A4A" transform="translate(43.710122, 28.757106) rotate(8.000000) translate(-43.710122, -28.757106) "></path>
                        <path d="M4.17813381,46.4208635 L19.61839,54.7279289 L82.6564084,18.0565934 L79.2808078,16.1296935 L19.0233285,51.5039073 L6.82407405,44.8864943 L4.17813381,46.4208635 Z" id="Path-11" stroke="#4A4A4A" transform="translate(43.405514, 35.426397) rotate(8.000000) translate(-43.405514, -35.426397) "></path>
                        <path d="M15.3864812,35.622792 C16.2282032,35.2763944 17.3313402,35.3406868 18.7081161,35.8239275 C19.811007,36.2072572 21.0140041,36.8284589 22.3097567,37.7038466 C23.5932852,38.5709759 24.4439336,39.3371812 24.8935009,40.002665 C25.4359057,40.8159891 25.2984711,41.4041083 24.4567491,41.7505059 C23.6150271,42.0969034 22.4996661,42.0243526 21.1351143,41.5493703 C20.0102118,41.1618101 18.8170021,40.5365806 17.5334737,39.6694512 C16.2377211,38.7940635 15.3772852,38.0318862 14.9497294,37.3706328 C14.3951006,36.5490503 14.5447592,35.9691895 15.3864812,35.622792 Z M16.0465816,36.0687442 C15.3712465,36.3466678 15.3097161,36.8371048 15.8840018,37.5442858 C16.3043298,38.0623346 17.0645774,38.6929858 18.1402965,39.4197228 C19.2160156,40.1464597 20.1793634,40.6802393 21.0425639,41.0293198 C22.1918735,41.4865697 23.1213137,41.5824772 23.7966488,41.3045536 C24.4621964,41.0306579 24.5115028,40.5319625 23.9592285,39.8290121 C23.5266765,39.3027049 22.7884404,38.6762841 21.7127213,37.9495472 C20.6370022,37.2228102 19.6516429,36.6848002 18.8006665,36.343978 C17.6293453,35.8824977 16.7121292,35.7948485 16.0465816,36.0687442 Z M22.774243,32.7685201 L23.2636162,32.5671262 L31.9916098,38.4636056 L31.384787,38.7133341 L23.5858235,33.4444911 C23.7468042,34.0426923 23.6167615,34.5613244 23.1956954,35.0003877 L22.4378024,34.4883684 C22.638548,34.2728647 22.7781731,34.0160691 22.8468904,33.7220095 C22.9033836,33.4196915 22.8816181,33.0964237 22.774243,32.7685201 Z M29.2129076,29.9327423 C30.0546296,29.5863447 31.1577665,29.6506371 32.5345424,30.1338778 C33.6374333,30.5172075 34.8404305,31.1384092 36.136183,32.0137969 C37.4197115,32.8809262 38.2703599,33.6471315 38.7199273,34.3126153 C39.262332,35.1259394 39.1248975,35.7140586 38.2831755,36.0604561 C37.4414535,36.4068537 36.3260925,36.3343029 34.9615406,35.8593206 C33.8366382,35.4717604 32.6434285,34.8465309 31.3599,33.9794015 C30.0641475,33.1040138 29.2037116,32.3418364 28.7761558,31.6805831 C28.221527,30.8590006 28.3711856,30.2791398 29.2129076,29.9327423 Z M29.8730079,30.3786945 C29.1976728,30.6566181 29.1361424,31.1470551 29.7104282,31.8542361 C30.1307561,32.3722849 30.8910038,33.0029361 31.9667229,33.7296731 C33.042442,34.45641 34.0057897,34.9901896 34.8689902,35.3392701 C36.0182998,35.79652 36.94774,35.8924275 37.6230751,35.6145039 C38.2886227,35.3406082 38.3379291,34.8419128 37.7856549,34.1389623 C37.3531028,33.6126552 36.6148668,32.9862344 35.5391477,32.2594975 C34.4634286,31.5327605 33.4780693,30.9947505 32.6270928,30.6539283 C31.4557717,30.1924479 30.5385556,30.1047988 29.8730079,30.3786945 Z M37.1244422,26.6768738 C37.9661642,26.3304763 39.0693011,26.3947687 40.4460771,26.8780093 C41.548968,27.2613391 42.7519651,27.8825407 44.0477177,28.7579284 C45.3312461,29.6250577 46.1818946,30.391263 46.6314619,31.0567469 C47.1738667,31.870071 47.0364321,32.4581902 46.1947101,32.8045877 C45.3529881,33.1509852 44.2376271,33.0784345 42.8730753,32.6034521 C41.7481728,32.2158919 40.5549631,31.5906624 39.2714346,30.7235331 C37.9756821,29.8481454 37.1152462,29.085968 36.6876904,28.4247146 C36.1330616,27.6031322 36.2827202,27.0232713 37.1244422,26.6768738 Z M37.7845426,27.122826 C37.1092075,27.4007496 37.047677,27.8911867 37.6219628,28.5983676 C38.0422908,29.1164164 38.8025384,29.7470677 39.8782575,30.4738046 C40.9539766,31.2005416 41.9173244,31.7343211 42.7805249,32.0834016 C43.9298345,32.5406515 44.8592746,32.6365591 45.5346097,32.3586355 C46.2001574,32.0847397 46.2494637,31.5860443 45.6971895,30.8830939 C45.2646375,30.3567867 44.5264014,29.730366 43.4506823,29.003629 C42.3749632,28.276892 41.3896039,27.738882 40.5386274,27.3980598 C39.3673063,26.9365795 38.4500902,26.8489303 37.7845426,27.122826 Z M44.5122039,23.822602 L45.0015772,23.621208 L53.7295708,29.5176874 L53.122748,29.7674159 L45.3237845,24.498573 C45.4847651,25.0967741 45.3547224,25.6154063 44.9336564,26.0544695 L44.1757634,25.5424503 C44.376509,25.3269465 44.5161341,25.0701509 44.5848514,24.7760913 C44.6413446,24.4737734 44.619579,24.1505055 44.5122039,23.822602 Z M50.9508686,20.9868241 C51.7925906,20.6404265 52.8957275,20.7047189 54.2725034,21.1879596 C55.3753943,21.5712894 56.5783915,22.192491 57.874144,23.0678787 C59.1576725,23.935008 60.0083209,24.7012133 60.4578882,25.3666971 C61.000293,26.1800212 60.8628585,26.7681404 60.0211364,27.114538 C59.1794144,27.4609355 58.0640534,27.3883848 56.6995016,26.9134024 C55.5745992,26.5258422 54.3813895,25.9006127 53.097861,25.0334834 C51.8021084,24.1580957 50.9416726,23.3959183 50.5141168,22.7346649 C49.9594879,21.9130824 50.1091466,21.3332216 50.9508686,20.9868241 Z M51.6109689,21.4327763 C50.9356338,21.7106999 50.8741034,22.2011369 51.4483892,22.9083179 C51.8687171,23.4263667 52.6289647,24.0570179 53.7046838,24.7837549 C54.7804029,25.5104919 55.7437507,26.0442714 56.6069512,26.3933519 C57.7562608,26.8506018 58.685701,26.9465094 59.3610361,26.6685858 C60.0265837,26.39469 60.0758901,25.8959946 59.5236159,25.1930442 C59.0910638,24.666737 58.3528277,24.0403162 57.2771086,23.3135793 C56.2013895,22.5868423 55.2160302,22.0488323 54.3650538,21.7080101 C53.1937326,21.2465298 52.2765166,21.1588806 51.6109689,21.4327763 Z M58.3386303,18.1325522 L58.8280036,17.9311583 L67.5559972,23.8276377 L66.9491743,24.0773662 L59.1502108,18.8085232 C59.3111915,19.4067244 59.1811488,19.9253566 58.7600828,20.3644198 L58.0021898,19.8524006 C58.2029353,19.6368968 58.3425604,19.3801012 58.4112777,19.0860416 C58.4677709,18.7837236 58.4460054,18.4604558 58.3386303,18.1325522 Z M64.253522,15.698371 L64.7428953,15.4969771 L73.4708889,21.3934565 L72.8640661,21.6431849 L65.0651026,16.374342 C65.2260832,16.9725431 65.0960405,17.4911753 64.6749745,17.9302385 L63.9170815,17.4182193 C64.117827,17.2027156 64.2574522,16.94592 64.3261694,16.6518604 C64.3826626,16.3495424 64.3608971,16.0262745 64.253522,15.698371 Z" id="01001011" fill="#4FAB02"></path>
                    </g>
                    <g id="Group-27" transform="translate(0.377590, 295.044410)">
                        <path d="M1.94040485,38.9445369 L17.380661,47.2516022 L80.4186794,10.5802668 L65.5194608,2.07532012 L1.94040485,38.9445369 Z" id="Path-11" stroke="#4A4A4A" transform="translate(41.167785, 24.661488) scale(-1, 1) rotate(1.000000) translate(-41.167785, -24.661488) "></path>
                        <path d="M1.96870577,46.9202019 L16.8246949,55.2535759 L79.7882971,18.6255308 L75.9452866,16.7980908 L16.7503113,51.3554881 L5.08843251,45.0403336 L1.96870577,46.9202019 Z" id="Path-11" stroke="#BEC6D1" opacity="0.673158482" transform="translate(40.916676, 36.031237) scale(-1, 1) rotate(1.000000) translate(-40.916676, -36.031237) "></path>
                        <path d="M1.96870577,42.9202019 L16.8246949,51.2535759 L79.7882971,14.6255308 L75.9452866,12.7980908 L16.7503113,47.3554881 L5.08843251,41.0403336 L1.96870577,42.9202019 Z" id="Path-11" stroke="#4A4A4A" transform="translate(40.916676, 32.031237) scale(-1, 1) rotate(1.000000) translate(-40.916676, -32.031237) "></path>
                    </g>
                </g>
            </g>
        </g>
    </g>
</svg>