<svg xmlns="http://www.w3.org/2000/svg" viewBox="0 0 1213.84 863.67"><defs><style>.cls-1{fill:#00a62c;stroke:#00a62c;stroke-miterlimit:10;stroke-width:5px}</style></defs><g id="图层_2" data-name="图层 2"><g id="图层_1-2" data-name="图层 1"><path class="cls-1" d="M84.33 441.88l-.5 402-35-16V455.7l-11.59 4.1v400.07l-34.76-15 .12-402.21 47.49-17zm-77.48 1.64l30 14.15 42.9-15.41L50 428zM4.7 843.87l30.41 13V459.3L4.7 445zm46.13-18l31.36 15V443.59L51 454.78zM185.33 403.88l-.5 402-35-16V417.7l-11.59 4.1v400.07l-34.76-15 .12-402.21 47.49-17zm-77.48 1.64l30 14.15 42.9-15.41L151 390zm-2.15 400.35l30.41 13V421.3L105.7 407zm46.13-18l31.36 15V405.59L152 416.78zM290.33 364.88l-.5 402-35-16V378.7l-11.59 4.1v400.07l-34.76-15 .12-402.21 47.49-17zm-77.48 1.64l30 14.15 42.9-15.41L256 351zm-2.15 400.35l30.41 13V382.3L210.7 368zm46.13-18l31.36 15V366.59L257 377.78zM391.33 326.88l-.5 402-35-16V340.7l-11.59 4.1v400.07l-34.76-15 .12-402.21 47.49-17zm-77.48 1.64l30 14.15 42.9-15.41L357 313zm-2.15 400.35l30.41 13V344.3L311.7 330zm46.13-18l31.36 15V328.59L358 339.78zM492.33 288.88l-.5 402-35-16V302.7l-11.59 4.1v400.07l-34.76-15 .12-402.21 47.49-17zm-77.48 1.64l30 14.15 42.9-15.41L458 275zm-2.15 400.35l30.41 13V306.3L412.7 292zm46.13-18l31.36 15V290.59L459 301.78zM593.33 250.88l-.5 402-35-16V264.7l-11.59 4.1v400.07l-34.76-15 .12-402.21 47.49-17zm-77.48 1.64l30 14.15 42.9-15.41L559 237zm-2.15 400.35l30.41 13V268.3L513.7 254zm46.13-18l31.36 15V252.59L560 263.78zM698.33 211.88l-.5 402-35-16V225.7l-11.59 4.1v400.07l-34.76-15 .12-402.21 47.49-17zm-77.48 1.64l30 14.15 42.9-15.41L664 198zm-2.15 400.35l30.41 13V229.3L618.7 215zm46.13-18l31.36 15V213.59L665 224.78zM799.33 173.88l-.5 402-35-16V187.7l-11.59 4.1v400.07l-34.76-15 .12-402.21 47.49-17zm-77.48 1.64l30 14.15 42.9-15.41L765 160zm-2.15 400.35l30.41 13V191.3L719.7 177zm46.13-18l31.36 15V175.59L766 186.78zM904.33 133.88l-.5 402-35-16V147.7l-11.59 4.1v400.07l-34.76-15 .12-402.21 47.49-17zm-77.48 1.64l30 14.15 42.9-15.41L870 120zm-2.15 400.35l30.41 13V151.3L824.7 137zm46.13-18l31.36 15V135.59L871 146.78zM1005.33 95.88l-.5 402-35-16V109.7l-11.59 4.1v400.07l-34.76-15 .12-402.21 47.49-17zm-77.48 1.64l30 14.15 42.9-15.41L971 82zm-2.15 400.35l30.41 13V113.3L925.7 99zm46.13-18l31.36 15V97.59L972 108.78zM1110.33 56.88l-.5 402-35-16V70.7l-11.59 4.1v400.07l-34.76-15 .12-402.21 47.49-17zm-77.48 1.64l30 14.15 42.9-15.41L1076 43zm-2.15 400.35l30.41 13V74.3L1030.7 60zm46.13-18l31.36 15V58.59L1077 69.78zM1211.33 18.88l-.5 402-35-16V32.7l-11.59 4.1v400.07l-34.76-15 .12-402.21 47.49-17zm-77.48 1.64l30 14.15 42.9-15.41L1177 5zm-2.15 400.35l30.41 13V36.3L1131.7 22zm46.13-18l31.36 15V20.59L1178 31.78z"/></g></g></svg>