<?xml version="1.0" encoding="UTF-8"?>
<svg width="1155px" height="1037px" viewBox="0 0 1155 1037" version="1.1" xmlns="http://www.w3.org/2000/svg" xmlns:xlink="http://www.w3.org/1999/xlink">
    <!-- Generator: Sketch 50.2 (55047) - http://www.bohemiancoding.com/sketch -->
    <title>Group 26</title>
    <desc>Created with Sketch.</desc>
    <defs></defs>
    <g id="Page-1" stroke="none" stroke-width="1" fill="none" fill-rule="evenodd">
        <g id="Artboard-7" transform="translate(-518.000000, -676.000000)" stroke="#92D45A">
            <g id="Group-26" transform="translate(473.000000, 652.000000)">
                <polygon id="Path-43" transform="translate(622.185873, 541.913618) rotate(83.000000) translate(-622.185873, -541.913618) " points="146.838192 173.613234 722.31599 -26.5794064 1097.53355 154.371308 1097.53355 919.463194 526.708516 1110.40664 146.838192 919.463194"></polygon>
                <polygon id="Path-43" opacity="0.6" transform="translate(596.512211, 529.249035) rotate(83.000000) translate(-596.512211, -529.249035) " points="177.820853 204.84609 684.707897 28.5142556 1015.20357 187.897594 1015.20357 861.79877 512.414727 1029.98382 177.820853 861.79877"></polygon>
                <polygon id="Path-43" opacity="0.3" transform="translate(602.962330, 525.400918) rotate(83.000000) translate(-602.962330, -525.400918) " points="223.284968 231.226099 682.939871 71.3250062 982.639691 215.856878 982.639691 826.963402 526.701116 979.47683 223.284968 826.963402"></polygon>
                <polygon id="Path-43" opacity="0.1" transform="translate(602.962330, 535.696763) rotate(83.000000) translate(-602.962330, -535.696763) " points="264.102671 273.147586 674.341783 130.436865 941.821989 259.430652 941.821989 804.839384 534.899676 940.95666 264.102671 804.839384"></polygon>
            </g>
        </g>
    </g>
</svg>