<?xml version="1.0" encoding="UTF-8"?>
<svg width="797px" height="376px" viewBox="0 0 797 376" version="1.1" xmlns="http://www.w3.org/2000/svg" xmlns:xlink="http://www.w3.org/1999/xlink">
    <!-- Generator: Sketch 50.2 (55047) - http://www.bohemiancoding.com/sketch -->
    <title>右侧</title>
    <desc>Created with Sketch.</desc>
    <defs></defs>
    <g id="Page-1" stroke="none" stroke-width="1" fill="none" fill-rule="evenodd" stroke-dasharray="15">
        <g id="Artboard-5" transform="translate(-7.000000, -61.000000)" stroke="#B1BAC9">
            <g id="右侧" transform="translate(413.500000, 249.506722) scale(1, -1) translate(-413.500000, -249.506722) translate(0.000000, -15.993278)">
                <path d="M4.7016912,412.556434 L768.525079,301.103903" id="Stroke-101" transform="translate(386.571230, 356.686734) scale(-1, -1) rotate(8.000000) translate(-386.571230, -356.686734) "></path>
                <path d="M112.634136,317.803939 L668.453849,237.123222" id="Stroke-101" opacity="0.547098214" transform="translate(390.500000, 277.706053) scale(-1, -1) rotate(8.000000) translate(-390.500000, -277.706053) "></path>
                <path d="M267.342948,248.268388 L823.162661,167.587671" id="Stroke-101" opacity="0.547098214" transform="translate(545.208812, 208.170502) scale(-1, -1) rotate(8.000000) translate(-545.208812, -208.170502) "></path>
                <path d="M37.9343289,430.856797 L646.585421,342.216509" id="Stroke-101" opacity="0.737555804" transform="translate(342.131571, 386.799340) scale(-1, -1) rotate(8.000000) translate(-342.131571, -386.799340) "></path>
                <path d="M168.691261,327.629087 L724.510974,246.94837" id="Stroke-101" opacity="0.328348214" transform="translate(446.557125, 287.531201) scale(-1, -1) rotate(8.000000) translate(-446.557125, -287.531201) "></path>
                <path d="M75.7833573,209.020494 L771.119614,103.2163" id="Stroke-101" opacity="0.328348214" transform="translate(423.665765, 156.299131) scale(-1, -1) rotate(8.000000) translate(-423.665765, -156.299131) "></path>
                <path d="M197.543257,491.444288 L753.36297,410.763571" id="Stroke-101" opacity="0.701060268" transform="translate(475.409120, 451.346402) scale(-1, -1) rotate(8.000000) translate(-475.409120, -451.346402) "></path>
                <path d="M244.723236,119.742138 L800.54295,39.0614211" id="Stroke-101" opacity="0.459988839" transform="translate(522.589100, 79.644252) scale(-1, -1) rotate(8.000000) translate(-522.589100, -79.644252) "></path>
                <path d="M186.010418,183.080068 L741.830131,102.399352" id="Stroke-101" opacity="0.701060268" transform="translate(463.876282, 142.982182) scale(-1, -1) rotate(8.000000) translate(-463.876282, -142.982182) "></path>
            </g>
        </g>
    </g>
</svg>