<svg width="1996" height="1143" xmlns="http://www.w3.org/2000/svg" xmlns:xlink="http://www.w3.org/1999/xlink"><defs><path id="b" d="M5.47 49.26L.32 59.88l39.61 23.7L84.2 65.71 87.6 55 50.02 31.38z"/><filter x="-14.3%" y="-14.4%" width="124.1%" height="140.2%" filterUnits="objectBoundingBox" id="a"><feOffset dx="-2" dy="3" in="SourceAlpha" result="shadowOffsetOuter1"/><feGaussianBlur stdDeviation="3" in="shadowOffsetOuter1" result="shadowBlurOuter1"/><feColorMatrix values="0 0 0 0 0.842026753 0 0 0 0 0.933620323 0 0 0 0 0.740957985 0 0 0 0.643823596 0" in="shadowBlurOuter1"/></filter><filter x="-17.8%" y="-29.2%" width="135.6%" height="158.4%" filterUnits="objectBoundingBox" id="c"><feGaussianBlur stdDeviation="3" in="SourceGraphic"/></filter></defs><g fill="none" fill-rule="evenodd"><path stroke="#B4EE73" stroke-width="2" d="M1.05 545.39V2.29L671 308.65z"/><path stroke-opacity=".57" stroke="#B4EE73" d="M37.4 507.81V42.57L611.33 305z"/><path stroke-opacity=".46" stroke="#B4EE73" d="M81.93 470.83V84.4l476.72 217.99z"/><path stroke-opacity=".16" stroke="#B4EE73" d="M79.12 437.18V121.46l389.47 178.1z"/><path stroke-opacity=".15" stroke="#B4EE73" d="M87.53 451.21V107.43l424.09 193.92z"/><path d="M29.78 459.77V96.31l448.37 205.03z"/><g opacity=".76" stroke="#76CB2D"><path stroke-width="2" d="M1932.85 502.05v511.23l-595.37-289.32z"/><path stroke-opacity=".46" d="M1917.1 523.82v463.41l-539.67-262.25z"/><path stroke-opacity=".25" d="M1901.68 545.81v413.65l-481.73-234.1z"/><path stroke-opacity=".15" d="M1884.33 568.82v361.64l-421.16-204.67z"/><path stroke-opacity=".12" d="M1864.7 595.38v301.96l-351.65-170.9z"/></g><g><g transform="translate(1305 661.77)"><use fill="#000" filter="url(#a)" xlink:href="#b"/><use fill="#FFF" xlink:href="#b"/></g><path fill="#D3D9CE" opacity=".67" filter="url(#c)" d="M20.7 51.43v7.56l21.09 11.3 29.5-11.3V54.6l-24.1-15.15z" transform="translate(1305 661.77)"/><path fill="#8AD500" d="M1325.1 673.32l20.3 9.72v40.66l-20.3-9.76z"/><path fill="#50AC02" d="M1346.08 682.9v40.7l30.3-10.5v-41.22z"/><path fill="#58BF00" d="M1325.8 672.8l20.05 9.69 30.12-11.3-19.85-9.3z"/></g></g></svg>