<svg width="777" height="1305" xmlns="http://www.w3.org/2000/svg"><defs><linearGradient x1="50%" y1="100%" x2="50%" y2="0%" id="a"><stop stop-color="#FFF" stop-opacity="0" offset="0%"/><stop stop-color="#FFF" offset="100%"/></linearGradient><linearGradient x1="50%" y1="0%" x2="50%" y2="100%" id="b"><stop stop-color="#FFF" stop-opacity="0" offset="0%"/><stop stop-color="#FFF" offset="100%"/></linearGradient></defs><g fill="none" fill-rule="evenodd"><path d="M314.08 152.34L1.25 3.6v987.37h-1V3.13L.1 3.05l.16-.35V.47h1v2.02L314.7 151.53h.4v.18l.16.08-.17.35v989.89h-1z" transform="translate(2 163)" stroke="url(#a)" stroke-linecap="square"/><path d="M2.75 168.57a2.76 2.76 0 1 1 .01-5.51 2.76 2.76 0 0 1 0 5.51zM316.58 317.8a2.76 2.76 0 1 1 .02-5.51 2.76 2.76 0 0 1-.02 5.51z" fill="#FFF"/><g transform="translate(2)" stroke="url(#b)" stroke-linecap="square"><path d="M1.41 164.93L458.78 1.27l.47-.17-.34-.94-.47.17L1.08 164l-.47.17.33.94zM316.06 315l457.36-163.66.47-.17-.33-.94-.47.17-457.37 163.66-.47.16.34.95z"/></g></g></svg>