<?xml version="1.0" encoding="UTF-8"?>
<svg width="777px" height="1305px" viewBox="0 0 777 1305" version="1.1" xmlns="http://www.w3.org/2000/svg" xmlns:xlink="http://www.w3.org/1999/xlink">
    <!-- Generator: Sketch 50.2 (55047) - http://www.bohemiancoding.com/sketch -->
    <title>neoline2</title>
    <desc>Created with Sketch.</desc>
    <defs>
        <linearGradient x1="50%" y1="100%" x2="50%" y2="-2.48949813e-15%" id="linearGradient-1">
            <stop stop-color="#FFFFFF" stop-opacity="0" offset="0%"></stop>
            <stop stop-color="#FFFFFF" offset="100%"></stop>
        </linearGradient>
        <linearGradient x1="50%" y1="-2.48949813e-15%" x2="50%" y2="100%" id="linearGradient-2">
            <stop stop-color="#FFFFFF" stop-opacity="0" offset="0%"></stop>
            <stop stop-color="#FFFFFF" offset="100%"></stop>
        </linearGradient>
    </defs>
    <g id="Welcome" stroke="none" stroke-width="1" fill="none" fill-rule="evenodd">
        <g id="Artboard-7" transform="translate(-202.000000, -96.000000)">
            <g id="neoline2" transform="translate(202.000000, 96.000000)">
                <g transform="translate(2.000000, 163.000000)" id="Combined-Shape" stroke="url(#linearGradient-1)" stroke-linecap="square" stroke-width="1">
                    <polygon points="314.084816 152.343946 1.25291144 3.60215093 1.25291144 990.970747 0.252911441 990.970747 0.252911441 3.12668218 0.0866536615 3.0476318 0.252911441 2.69796049 0.252911441 0.46581339 1.25291144 0.46581339 1.25291144 2.49487024 314.691796 151.525266 315.084816 151.525266 315.084816 151.712134 315.251073 151.791184 315.084816 152.140856 315.084816 1142.0302 314.084816 1142.0302"></polygon>
                </g>
                <g id="neo" transform="translate(0.000000, 163.000000)" fill="#FFFFFF" fill-rule="evenodd">
                    <path d="M2.75291144,5.57405887 C1.23252043,5.57405887 0,4.33689508 0,2.81077621 C0,1.28465733 1.23252043,0.0474935422 2.75291144,0.0474935422 C4.27330245,0.0474935422 5.50582288,1.28465733 5.50582288,2.81077621 C5.50582288,4.33689508 4.27330245,5.57405887 2.75291144,5.57405887 Z M316.584816,154.791323 C315.064425,154.791323 313.831904,153.554159 313.831904,152.02804 C313.831904,150.501921 315.064425,149.264757 316.584816,149.264757 C318.105207,149.264757 319.337727,150.501921 319.337727,152.02804 C319.337727,153.554159 318.105207,154.791323 316.584816,154.791323 Z" id="Combined-Shape"></path>
                </g>
                <g id="neo" transform="translate(2.000000, 0.000000)" fill-rule="evenodd" stroke="url(#linearGradient-2)" stroke-linecap="square" stroke-width="1">
                    <g id="Group">
                        <polygon id="Combined-Shape" points="1.41411462 164.929771 458.778324 1.27242363 459.249093 1.10396974 458.912185 0.16243209 458.441416 0.330885974 1.07720685 163.988234 0.606438021 164.156688 0.94334579 165.098225"></polygon>
                        <polygon id="Combined-Shape" points="316.05875 314.997655 773.422959 151.340307 773.893728 151.171854 773.55682 150.230316 773.086052 150.39877 315.721842 314.056118 315.251073 314.224571 315.587981 315.166109"></polygon>
                    </g>
                </g>
            </g>
        </g>
    </g>
</svg>