<svg id="图层_1" xmlns="http://www.w3.org/2000/svg" xmlns:xlink="http://www.w3.org/1999/xlink" viewBox="0 0 1366 586"><style>.st1{fill:#fff}</style><g id="图层_1_1_"><defs><path id="SVGID_1_" d="M634 200.3h27.2l146.2 233.4h.8V200.3l23.9-.1v265.4h-30.2L658.6 236.3h-.7v229l-23.9.3z"/></defs><use xlink:href="#SVGID_1_" overflow="visible" fill="#fff"/><clipPath id="SVGID_2_"><use xlink:href="#SVGID_1_" overflow="visible"/></clipPath><g clip-path="url(#SVGID_2_)"><path class="st1" d="M-549.2-33.1h2175.4v812.2H-549.2z"/></g><defs><path id="SVGID_3_" d="M910.3 465.6V200.3H1068l-10 22.1H934.2v95.2h128.6l-10 22H934.2v104h139.3l-10 22z"/></defs><use xlink:href="#SVGID_3_" overflow="visible" fill="#fff"/><clipPath id="SVGID_4_"><use xlink:href="#SVGID_3_" overflow="visible"/></clipPath><g clip-path="url(#SVGID_4_)"><path class="st1" d="M-549.2-33.1h2175.4v812.2H-549.2z"/></g><defs><path id="SVGID_5_" d="M1366 333c0 20.6-2.6 39.4-7.7 56.4s-12.7 31.6-22.8 43.7c-10 12.1-22.7 21.7-37.1 28.1-14.7 6.6-31.6 9.9-50.7 9.9s-36-3.3-50.7-9.9c-14.4-6.4-27.1-16-37.1-28.1-10-12.1-17.6-26.7-22.8-43.7-5.1-17-7.7-35.8-7.7-56.4s2.6-39.4 7.7-56.4 12.7-31.6 22.8-43.7c10-12.1 22.7-21.7 37.1-28.1 14.7-6.6 31.6-9.9 50.7-9.9s36 3.3 50.7 9.9c14.4 6.4 27.1 16 37.1 28.1 10 12.1 17.6 26.7 22.8 43.7 5.2 17 7.7 35.8 7.7 56.4zm-210.9 0c0 14.4 1.7 28.7 5.2 42.6 3.1 13.3 8.7 26 16.3 37.3a86.15 86.15 0 0 0 28.7 26.3c11.6 6.6 25.8 9.9 42.4 9.9 16.4 0 30.5-3.3 42.3-9.9a84.43 84.43 0 0 0 28.8-26.3c7.7-11.3 13.2-24 16.4-37.3 6.9-28 6.9-57.2 0-85.3-3.2-13.3-8.7-26-16.4-37.3a84.43 84.43 0 0 0-28.8-26.3c-11.8-6.6-25.8-9.9-42.3-9.9-16.7 0-30.8 3.3-42.4 9.9a85.04 85.04 0 0 0-28.7 26.3c-7.7 11.3-13.2 24-16.3 37.3-3.5 14-5.2 28.3-5.2 42.7z"/></defs><use xlink:href="#SVGID_5_" overflow="visible" fill="#fff"/><clipPath id="SVGID_6_"><use xlink:href="#SVGID_5_" overflow="visible"/></clipPath><g clip-path="url(#SVGID_6_)"><path class="st1" d="M-549.2-33.1h2175.4v812.2H-549.2z"/></g><path class="st1" d="M651 516.4a6.4 6.4 0 0 0-2.5-2.9c-1.1-.7-2.4-1.1-3.7-1.1-.8 0-1.5.1-2.2.4-.7.3-1.4.7-1.9 1.2-.6.5-1 1.1-1.4 1.8-.4.7-.5 1.4-.5 2.1-.1 1.2.4 2.5 1.3 3.3.9.8 2 1.5 3.2 2 1.3.6 2.7 1.1 4.2 1.6s2.9 1.2 4.2 2c1.3.8 2.4 1.8 3.2 3.1.9 1.6 1.3 3.3 1.3 5.1 0 1.5-.3 3.1-.9 4.5-.6 1.3-1.4 2.5-2.5 3.5s-2.3 1.7-3.6 2.3c-1.4.5-2.9.8-4.4.8-2.8.1-5.5-.8-7.8-2.5-2.2-1.7-3.8-4.1-4.4-6.9l3.4-1.1c.6 2 1.6 3.8 3.1 5.2 1.6 1.4 3.6 2.1 5.7 2 4.3.1 7.9-3.3 8-7.7v-.3c0-1-.2-1.9-.6-2.8a7 7 0 0 0-1.5-1.9c-.7-.5-1.4-1-2.2-1.3-.8-.4-1.7-.7-2.6-1-1.2-.5-2.5-1-3.7-1.5-1.2-.5-2.3-1.1-3.3-1.9-1-.7-1.8-1.6-2.4-2.7-.6-1.2-1-2.5-.9-3.8a8.93 8.93 0 0 1 6-8.3c1.2-.4 2.4-.7 3.7-.6 1.9 0 3.7.6 5.3 1.6 1.6 1 2.9 2.4 3.8 4.1l-3.4 1.7zM680.9 514.4h.2c.8-1.6 2.1-2.9 3.6-3.8a11.49 11.49 0 0 1 11.3.2c1.8 1.2 3.1 2.8 4 4.8.8-2 2.3-3.7 4.2-4.8 1.9-1.1 4-1.6 6.2-1.6 1.9-.1 3.8.3 5.5 1.1 1.4.7 2.5 1.7 3.3 3 .8 1.4 1.4 2.9 1.7 4.4.3 1.8.4 3.6.4 5.4v22.2h-3.4v-22.7c0-1.3-.1-2.6-.2-3.9-.1-1.1-.5-2.2-1-3.3-.5-1-1.3-1.7-2.3-2.3-1.2-.6-2.6-.9-4-.8-3-.2-5.8 1.4-7.3 4-.7 1.2-1.2 2.6-1.4 4-.3 1.5-.4 3.1-.5 4.6v20.4h-3.5v-21.9c0-1.4-.1-2.7-.3-4.1-.2-1.2-.5-2.4-1.1-3.6-.6-1-1.4-1.9-2.4-2.5-1.3-.7-2.7-1.1-4.1-1-1.6-.1-3.2.4-4.5 1.3-1.1.9-2.1 2-2.7 3.3-.7 1.4-1.1 2.9-1.3 4.4-.2 1.5-.3 3-.3 4.5v19.5h-3.4V510h3.4l-.1 4.4zM776.6 545.3h-3.5V539h-.1a15.03 15.03 0 0 1-5.8 5.3 17.35 17.35 0 0 1-7.7 1.9c-2.5 0-5-.5-7.3-1.5-2.1-.9-4-2.3-5.5-4-1.5-1.7-2.7-3.7-3.5-5.9-.8-2.4-1.2-4.8-1.2-7.3s.4-4.9 1.2-7.2c.8-2.1 1.9-4.1 3.5-5.8 1.5-1.7 3.4-3 5.4-3.8 2.3-.9 4.7-1.4 7.2-1.4 2.7 0 5.4.6 7.8 1.8 2.4 1.1 4.4 2.9 5.9 5.1h.2v-6h3.5l-.1 35.1zm-17.3-32.9c-1.9 0-3.9.4-5.6 1.3-1.7.8-3.1 2-4.3 3.4a15.5 15.5 0 0 0-2.8 4.8c-.7 1.8-1 3.7-1 5.5 0 2 .3 4 1 5.9.6 1.8 1.6 3.5 2.8 4.9a13.35 13.35 0 0 0 10.2 4.7c2.1 0 4.1-.4 6-1.3 1.7-.8 3.2-2 4.4-3.5 1.2-1.5 2.1-3.2 2.7-5 .6-2 .9-4 .9-6.1 0-2-.3-3.9-1-5.8-.6-1.7-1.6-3.3-2.9-4.6-1.3-1.3-2.8-2.4-4.5-3.1-1.9-.7-3.9-1.1-5.9-1.1zM804.4 514.5h.2c.6-1.5 1.7-2.9 3-3.9 1.4-1 3-1.5 4.7-1.5.7 0 1.3.1 2 .2l1.8.6-1.8 3.1c-.4-.2-.8-.4-1.2-.5-.4-.1-.8-.2-1.3-.2-1.6-.1-3.2.5-4.4 1.6-1 1.1-1.7 2.4-2.1 3.9-.4 1.6-.7 3.2-.7 4.9v22.6H801V510h3.5l-.1 4.5zM840.2 545.3h-3.5v-32.2h-3.9V510h3.9v-12.7h3.5V510h6.2v3.2h-6.2v32.1zM901.3 528c-.1 2.1.3 4.2 1 6.1.6 1.8 1.6 3.4 3 4.7 1.3 1.3 2.8 2.3 4.6 3 1.8.7 3.7 1.1 5.7 1.1 2.6 0 5.2-.7 7.4-2.2 2.2-1.5 3.9-3.5 5.1-5.8l2.9 1.7c-1.5 2.9-3.7 5.3-6.5 7.1-2.8 1.7-6.1 2.5-9.3 2.5-2.4 0-4.9-.5-7.1-1.5-2.1-1-3.9-2.3-5.4-4-1.5-1.7-2.7-3.7-3.5-5.9-.8-2.3-1.2-4.7-1.2-7.1 0-2.4.4-4.8 1.2-7 .8-2.2 2-4.1 3.5-5.9 1.5-1.7 3.3-3 5.4-4 2.2-1 4.6-1.5 7-1.5 2.5 0 4.9.5 7.2 1.5 2.1.9 3.9 2.3 5.4 4 1.5 1.8 2.6 3.8 3.3 6 .8 2.3 1.2 4.8 1.2 7.2h-30.9zm27.2-3.2c-.4-3.3-1.9-6.3-4.3-8.6a13.9 13.9 0 0 0-4.1-2.7c-1.6-.7-3.3-1-5.1-1-1.7 0-3.5.3-5.1 1a13 13 0 0 0-4.3 2.7c-1.2 1.1-2.2 2.4-3 3.9-.8 1.5-1.3 3.1-1.4 4.8h27.3zM980 518.1c-1.6-1.8-3.5-3.2-5.6-4.3-2.2-1-4.5-1.5-6.9-1.5a13.86 13.86 0 0 0-10.4 4.5c-1.3 1.4-2.3 3.1-3.1 4.9a15.65 15.65 0 0 0 3.1 16.4c1.3 1.4 2.9 2.5 4.6 3.4 1.8.8 3.8 1.3 5.8 1.3 2.5 0 5-.6 7.2-1.7s4.2-2.7 5.8-4.6v4.7c-1.8 1.6-3.8 2.8-6 3.6-2.2.8-4.5 1.3-6.9 1.3-4.9 0-9.6-1.9-13-5.4-1.6-1.7-2.9-3.7-3.8-5.9-1.8-4.7-1.8-9.8 0-14.5a17.7 17.7 0 0 1 16.8-11.1c2.2 0 4.4.4 6.5 1.1 2.1.7 4.1 1.9 5.8 3.3l.1 4.5zM1016.9 509.2c2.5 0 5 .5 7.3 1.4 4.5 1.8 8 5.3 9.8 9.7 1.9 4.7 1.9 9.9 0 14.6-1.8 4.4-5.4 7.9-9.8 9.7-2.3 1-4.8 1.4-7.3 1.4s-4.9-.5-7.2-1.5c-2.2-.9-4.2-2.3-5.8-4-1.7-1.7-3-3.7-3.9-5.9-1-2.2-1.5-4.6-1.5-7.1 0-4.9 1.9-9.6 5.3-13.1 1.7-1.7 3.7-3.1 5.9-4 2.3-.8 4.7-1.2 7.2-1.2zm-.2 3.2c-4 0-7.8 1.6-10.5 4.6-1.3 1.4-2.4 3.1-3.1 4.9-.7 1.9-1.1 3.9-1.1 5.9a15.62 15.62 0 0 0 4.2 10.6 14.27 14.27 0 0 0 10.5 4.5c2.1 0 4.1-.4 6-1.2 1.8-.7 3.5-1.8 4.9-3.2 1.4-1.4 2.5-3 3.3-4.8.8-1.9 1.2-3.9 1.2-6 .1-4.1-1.5-8.1-4.4-11-1.4-1.4-3-2.5-4.9-3.2-2-.8-4-1.1-6.1-1.1zM1059.9 515.5h.2c2-3.9 6.1-6.3 10.5-6.3 1.9-.1 3.9.3 5.7 1 1.4.6 2.7 1.7 3.6 2.9.9 1.4 1.6 3 1.9 4.6.4 2 .6 4.1.5 6.2v21.4h-3.4V524c0-1.5-.1-3-.2-4.5-.1-1.3-.5-2.5-1.1-3.7-.6-1.1-1.5-1.9-2.6-2.5-1.4-.7-3-1-4.6-.9-3.6-.3-7 1.8-8.5 5-.7 1.6-1.2 3.3-1.5 5-.3 1.8-.4 3.6-.4 5.4v17.5h-3.4V510h3.4l-.1 5.5zM1121.5 509.2c2.5 0 5 .5 7.3 1.4 2.2.9 4.2 2.2 5.9 3.9 1.7 1.7 3 3.7 3.9 5.9 1.9 4.7 1.9 9.9 0 14.6a17.95 17.95 0 0 1-9.8 9.7c-2.3 1-4.8 1.4-7.3 1.4s-4.9-.5-7.2-1.5c-2.2-.9-4.2-2.3-5.8-4-1.7-1.7-3-3.7-4-5.9s-1.5-4.6-1.4-7.1c0-4.9 1.9-9.6 5.3-13.1a17.4 17.4 0 0 1 13.1-5.3zm-.3 3.2c-4 0-7.8 1.7-10.5 4.6-1.3 1.4-2.4 3.1-3.1 4.9-.7 1.9-1.1 3.9-1.1 5.9a15.62 15.62 0 0 0 4.2 10.6 14.27 14.27 0 0 0 10.5 4.5c2.1 0 4.1-.4 6-1.2 1.8-.7 3.5-1.8 4.9-3.2 1.4-1.4 2.5-3 3.3-4.8a15.8 15.8 0 0 0 0-12.1c-.8-1.8-1.9-3.5-3.3-4.9-1.4-1.4-3-2.5-4.9-3.2-1.8-.7-3.9-1.1-6-1.1zM1164.4 514.4h.2c.8-1.6 2.1-2.9 3.6-3.8a11.49 11.49 0 0 1 11.3.2c1.8 1.2 3.1 2.8 3.9 4.8.8-2 2.3-3.7 4.2-4.8 1.9-1.1 4-1.6 6.2-1.6 1.9-.1 3.8.3 5.6 1.1 1.4.7 2.5 1.7 3.3 3 .8 1.4 1.4 2.9 1.7 4.4.3 1.8.4 3.6.4 5.4v22.2h-3.4v-22.7c0-1.3-.1-2.6-.2-3.9-.1-1.1-.5-2.2-1-3.3-.5-1-1.3-1.7-2.3-2.3-1.2-.6-2.6-.9-4-.8-3-.2-5.8 1.4-7.3 4-.7 1.2-1.2 2.6-1.4 4-.3 1.5-.4 3-.4 4.6v20.4h-3.4v-21.8c0-1.4-.1-2.7-.3-4.1-.2-1.2-.5-2.4-1.1-3.6-.6-1-1.4-1.9-2.4-2.5-1.3-.7-2.7-1.1-4.1-1-1.6-.1-3.2.4-4.5 1.3-1.1.9-2.1 2-2.7 3.3-.6 1.4-1.1 2.9-1.3 4.4-.2 1.5-.3 3-.3 4.5v19.5h-3.5V510h3.4l-.2 4.4zM1222.6 510h3.6l15.1 32 13.6-32h3.5l-23.8 56h-3.5l8.5-20.1-17-35.9zM490.8 101.4v382.3l-201.1-94.8V173.6zM1.8 490.7L198 583.3V202.8L1.8 110.2zM482.7 94l3.3-1.1 1.8-.7L294.2.9l-1.8.6-5.1 1.9-2.4.8L9.5 103.1l193.6 91.3 81.8-29.3 4.8-1.7z"/></g></svg>