<?xml version="1.0" encoding="utf-8"?>
<!-- Generator: Adobe Illustrator 22.0.1, SVG Export Plug-In . SVG Version: 6.00 Build 0)  -->
<svg version="1.1" id="图层_1" xmlns="http://www.w3.org/2000/svg" xmlns:xlink="http://www.w3.org/1999/xlink" x="0px" y="0px"
	 viewBox="0 0 1366 586" style="enable-background:new 0 0 1366 586;" xml:space="preserve">
<style type="text/css">
	.st0{clip-path:url(#SVGID_2_);}
	.st1{fill:#FFFFFF;}
	.st2{clip-path:url(#SVGID_4_);}
	.st3{clip-path:url(#SVGID_6_);}
</style>
<title>NEO-LOGO</title>
<g id="图层_1_1_">
	<g>
		<defs>
			<polygon id="SVGID_1_" points="634,200.3 661.2,200.3 807.4,433.7 808.2,433.7 808.2,200.3 832.1,200.2 832.1,465.6 801.9,465.6 
				658.6,236.3 657.9,236.3 657.9,465.3 634,465.6 			"/>
		</defs>
		<use xlink:href="#SVGID_1_"  style="overflow:visible;fill:#FFFFFF;"/>
		<clipPath id="SVGID_2_">
			<use xlink:href="#SVGID_1_"  style="overflow:visible;"/>
		</clipPath>
		<g class="st0">
			<rect x="-549.2" y="-33.1" class="st1" width="2175.4" height="812.2"/>
		</g>
	</g>
	<g>
		<defs>
			<polygon id="SVGID_3_" points="910.3,465.6 910.3,200.3 1068,200.3 1058,222.4 934.2,222.4 934.2,317.6 1062.8,317.6 
				1052.8,339.6 934.2,339.6 934.2,443.6 1073.5,443.6 1063.5,465.6 			"/>
		</defs>
		<use xlink:href="#SVGID_3_"  style="overflow:visible;fill:#FFFFFF;"/>
		<clipPath id="SVGID_4_">
			<use xlink:href="#SVGID_3_"  style="overflow:visible;"/>
		</clipPath>
		<g class="st2">
			<rect x="-549.2" y="-33.1" class="st1" width="2175.4" height="812.2"/>
		</g>
	</g>
	<g>
		<defs>
			<path id="SVGID_5_" d="M1366,333c0,20.6-2.6,39.4-7.7,56.4s-12.7,31.6-22.8,43.7c-10,12.1-22.7,21.7-37.1,28.1
				c-14.7,6.6-31.6,9.9-50.7,9.9c-19.1,0-36-3.3-50.7-9.9c-14.4-6.4-27.1-16-37.1-28.1c-10-12.1-17.6-26.7-22.8-43.7
				c-5.1-17-7.7-35.8-7.7-56.4c0-20.6,2.6-39.4,7.7-56.4c5.1-17,12.7-31.6,22.8-43.7c10-12.1,22.7-21.7,37.1-28.1
				c14.7-6.6,31.6-9.9,50.7-9.9s36,3.3,50.7,9.9c14.4,6.4,27.1,16,37.1,28.1c10,12.1,17.6,26.7,22.8,43.7
				C1363.5,293.6,1366,312.4,1366,333z M1155.1,333c0,14.4,1.7,28.7,5.2,42.6c3.1,13.3,8.7,26,16.3,37.3
				c7.4,10.8,17.2,19.8,28.7,26.3c11.6,6.6,25.8,9.9,42.4,9.9c16.4,0,30.5-3.3,42.3-9.9c11.5-6.4,21.4-15.4,28.8-26.3
				c7.7-11.3,13.2-24,16.4-37.3c6.9-28,6.9-57.2,0-85.3c-3.2-13.3-8.7-26-16.4-37.3c-7.4-10.9-17.3-19.9-28.8-26.3
				c-11.8-6.6-25.8-9.9-42.3-9.9c-16.7,0-30.8,3.3-42.4,9.9c-11.4,6.4-21.3,15.4-28.7,26.3c-7.7,11.3-13.2,24-16.3,37.3
				C1156.8,304.3,1155.1,318.6,1155.1,333L1155.1,333z"/>
		</defs>
		<use xlink:href="#SVGID_5_"  style="overflow:visible;fill:#FFFFFF;"/>
		<clipPath id="SVGID_6_">
			<use xlink:href="#SVGID_5_"  style="overflow:visible;"/>
		</clipPath>
		<g class="st3">
			<rect x="-549.2" y="-33.1" class="st1" width="2175.4" height="812.2"/>
		</g>
	</g>
	<path class="st1" d="M651,516.4c-0.5-1.2-1.4-2.2-2.5-2.9c-1.1-0.7-2.4-1.1-3.7-1.1c-0.8,0-1.5,0.1-2.2,0.4
		c-0.7,0.3-1.4,0.7-1.9,1.2c-0.6,0.5-1,1.1-1.4,1.8c-0.4,0.7-0.5,1.4-0.5,2.1c-0.1,1.2,0.4,2.5,1.3,3.3c0.9,0.8,2,1.5,3.2,2
		c1.3,0.6,2.7,1.1,4.2,1.6c1.5,0.5,2.9,1.2,4.2,2c1.3,0.8,2.4,1.8,3.2,3.1c0.9,1.6,1.3,3.3,1.3,5.1c0,1.5-0.3,3.1-0.9,4.5
		c-0.6,1.3-1.4,2.5-2.5,3.5c-1.1,1-2.3,1.7-3.6,2.3c-1.4,0.5-2.9,0.8-4.4,0.8c-2.8,0.1-5.5-0.8-7.8-2.5c-2.2-1.7-3.8-4.1-4.4-6.9
		l3.4-1.1c0.6,2,1.6,3.8,3.1,5.2c1.6,1.4,3.6,2.1,5.7,2c4.3,0.1,7.9-3.3,8-7.7c0-0.1,0-0.2,0-0.3c0-1-0.2-1.9-0.6-2.8
		c-0.4-0.7-0.9-1.4-1.5-1.9c-0.7-0.5-1.4-1-2.2-1.3c-0.8-0.4-1.7-0.7-2.6-1c-1.2-0.5-2.5-1-3.7-1.5c-1.2-0.5-2.3-1.1-3.3-1.9
		c-1-0.7-1.8-1.6-2.4-2.7c-0.6-1.2-1-2.5-0.9-3.8c0-1.3,0.3-2.5,0.8-3.6c1-2.2,2.9-3.9,5.2-4.7c1.2-0.4,2.4-0.7,3.7-0.6
		c1.9,0,3.7,0.6,5.3,1.6c1.6,1,2.9,2.4,3.8,4.1L651,516.4z"/>
	<path class="st1" d="M680.9,514.4h0.2c0.8-1.6,2.1-2.9,3.6-3.8c1.6-0.9,3.4-1.4,5.3-1.4c2.1,0,4.2,0.5,6,1.6c1.8,1.2,3.1,2.8,4,4.8
		c0.8-2,2.3-3.7,4.2-4.8c1.9-1.1,4-1.6,6.2-1.6c1.9-0.1,3.8,0.3,5.5,1.1c1.4,0.7,2.5,1.7,3.3,3c0.8,1.4,1.4,2.9,1.7,4.4
		c0.3,1.8,0.4,3.6,0.4,5.4v22.2h-3.4v-22.7c0-1.3-0.1-2.6-0.2-3.9c-0.1-1.1-0.5-2.2-1-3.3c-0.5-1-1.3-1.7-2.3-2.3
		c-1.2-0.6-2.6-0.9-4-0.8c-3-0.2-5.8,1.4-7.3,4c-0.7,1.2-1.2,2.6-1.4,4c-0.3,1.5-0.4,3.1-0.5,4.6v20.4h-3.5v-21.9
		c0-1.4-0.1-2.7-0.3-4.1c-0.2-1.2-0.5-2.4-1.1-3.6c-0.6-1-1.4-1.9-2.4-2.5c-1.3-0.7-2.7-1.1-4.1-1c-1.6-0.1-3.2,0.4-4.5,1.3
		c-1.1,0.9-2.1,2-2.7,3.3c-0.7,1.4-1.1,2.9-1.3,4.4c-0.2,1.5-0.3,3-0.3,4.5v19.5h-3.4V510h3.4L680.9,514.4z"/>
	<path class="st1" d="M776.6,545.3h-3.5V539H773c-0.7,1.1-1.5,2.1-2.5,3c-1,0.9-2.1,1.7-3.3,2.3c-1.2,0.6-2.5,1.1-3.8,1.4
		c-1.3,0.3-2.6,0.5-3.9,0.5c-2.5,0-5-0.5-7.3-1.5c-2.1-0.9-4-2.3-5.5-4c-1.5-1.7-2.7-3.7-3.5-5.9c-0.8-2.4-1.2-4.8-1.2-7.3
		c0-2.5,0.4-4.9,1.2-7.2c0.8-2.1,1.9-4.1,3.5-5.8c1.5-1.7,3.4-3,5.4-3.8c2.3-0.9,4.7-1.4,7.2-1.4c2.7,0,5.4,0.6,7.8,1.8
		c2.4,1.1,4.4,2.9,5.9,5.1h0.2v-6h3.5L776.6,545.3z M759.3,512.4c-1.9,0-3.9,0.4-5.6,1.3c-1.7,0.8-3.1,2-4.3,3.4
		c-1.2,1.4-2.2,3.1-2.8,4.8c-0.7,1.8-1,3.7-1,5.5c0,2,0.3,4,1,5.9c0.6,1.8,1.6,3.5,2.8,4.9c1.2,1.4,2.7,2.6,4.4,3.4
		c1.8,0.9,3.8,1.3,5.8,1.3c2.1,0,4.1-0.4,6-1.3c1.7-0.8,3.2-2,4.4-3.5c1.2-1.5,2.1-3.2,2.7-5c0.6-2,0.9-4,0.9-6.1c0-2-0.3-3.9-1-5.8
		c-0.6-1.7-1.6-3.3-2.9-4.6c-1.3-1.3-2.8-2.4-4.5-3.1C763.3,512.8,761.3,512.4,759.3,512.4z"/>
	<path class="st1" d="M804.4,514.5h0.2c0.6-1.5,1.7-2.9,3-3.9c1.4-1,3-1.5,4.7-1.5c0.7,0,1.3,0.1,2,0.2c0.6,0.2,1.2,0.4,1.8,0.6
		l-1.8,3.1c-0.4-0.2-0.8-0.4-1.2-0.5c-0.4-0.1-0.8-0.2-1.3-0.2c-1.6-0.1-3.2,0.5-4.4,1.6c-1,1.1-1.7,2.4-2.1,3.9
		c-0.4,1.6-0.7,3.2-0.7,4.9c0,1.7,0,3.2,0,4.5v18.1H801V510h3.5L804.4,514.5z"/>
	<path class="st1" d="M840.2,545.3h-3.5v-32.2h-3.9V510h3.9v-12.7h3.5V510h6.2v3.2h-6.2V545.3z"/>
	<path class="st1" d="M901.3,528c-0.1,2.1,0.3,4.2,1,6.1c0.6,1.8,1.6,3.4,3,4.7c1.3,1.3,2.8,2.3,4.6,3c1.8,0.7,3.7,1.1,5.7,1.1
		c2.6,0,5.2-0.7,7.4-2.2c2.2-1.5,3.9-3.5,5.1-5.8l2.9,1.7c-1.5,2.9-3.7,5.3-6.5,7.1c-2.8,1.7-6.1,2.5-9.3,2.5
		c-2.4,0-4.9-0.5-7.1-1.5c-2.1-1-3.9-2.3-5.4-4c-1.5-1.7-2.7-3.7-3.5-5.9c-0.8-2.3-1.2-4.7-1.2-7.1c0-2.4,0.4-4.8,1.2-7
		c0.8-2.2,2-4.1,3.5-5.9c1.5-1.7,3.3-3,5.4-4c2.2-1,4.6-1.5,7-1.5c2.5,0,4.9,0.5,7.2,1.5c2.1,0.9,3.9,2.3,5.4,4
		c1.5,1.8,2.6,3.8,3.3,6c0.8,2.3,1.2,4.8,1.2,7.2H901.3z M928.5,524.8c-0.4-3.3-1.9-6.3-4.3-8.6c-1.2-1.1-2.6-2.1-4.1-2.7
		c-1.6-0.7-3.3-1-5.1-1c-1.7,0-3.5,0.3-5.1,1c-1.6,0.6-3,1.5-4.3,2.7c-1.2,1.1-2.2,2.4-3,3.9c-0.8,1.5-1.3,3.1-1.4,4.8H928.5z"/>
	<path class="st1" d="M980,518.1c-1.6-1.8-3.5-3.2-5.6-4.3c-2.2-1-4.5-1.5-6.9-1.5c-2,0-4,0.4-5.8,1.2c-1.8,0.8-3.3,1.9-4.6,3.3
		c-1.3,1.4-2.3,3.1-3.1,4.9c-0.7,1.8-1.1,3.8-1.1,5.7c0,4,1.5,7.8,4.2,10.7c1.3,1.4,2.9,2.5,4.6,3.4c1.8,0.8,3.8,1.3,5.8,1.3
		c2.5,0,5-0.6,7.2-1.7c2.2-1.1,4.2-2.7,5.8-4.6v4.7c-1.8,1.6-3.8,2.8-6,3.6c-2.2,0.8-4.5,1.3-6.9,1.3c-4.9,0-9.6-1.9-13-5.4
		c-1.6-1.7-2.9-3.7-3.8-5.9c-1.8-4.7-1.8-9.8,0-14.5c0.9-2.2,2.2-4.2,3.8-5.8c1.6-1.7,3.6-3,5.8-3.9c2.3-1,4.8-1.4,7.2-1.4
		c2.2,0,4.4,0.4,6.5,1.1c2.1,0.7,4.1,1.9,5.8,3.3L980,518.1z"/>
	<path class="st1" d="M1016.9,509.2c2.5,0,5,0.5,7.3,1.4c4.5,1.8,8,5.3,9.8,9.7c1.9,4.7,1.9,9.9,0,14.6c-1.8,4.4-5.4,7.9-9.8,9.7
		c-2.3,1-4.8,1.4-7.3,1.4c-2.5,0-4.9-0.5-7.2-1.5c-2.2-0.9-4.2-2.3-5.8-4c-1.7-1.7-3-3.7-3.9-5.9c-1-2.2-1.5-4.6-1.5-7.1
		c0-4.9,1.9-9.6,5.3-13.1c1.7-1.7,3.7-3.1,5.9-4C1012,509.6,1014.4,509.2,1016.9,509.2z M1016.7,512.4c-4,0-7.8,1.6-10.5,4.6
		c-1.3,1.4-2.4,3.1-3.1,4.9c-0.7,1.9-1.1,3.9-1.1,5.9c0,2,0.4,3.9,1.1,5.7c0.7,1.8,1.8,3.5,3.1,4.9c1.3,1.4,2.9,2.5,4.7,3.3
		c1.8,0.8,3.8,1.2,5.8,1.2c2.1,0,4.1-0.4,6-1.2c1.8-0.7,3.5-1.8,4.9-3.2c1.4-1.4,2.5-3,3.3-4.8c0.8-1.9,1.2-3.9,1.2-6
		c0.1-4.1-1.5-8.1-4.4-11c-1.4-1.4-3-2.5-4.9-3.2C1020.8,512.7,1018.8,512.4,1016.7,512.4L1016.7,512.4z"/>
	<path class="st1" d="M1059.9,515.5h0.2c2-3.9,6.1-6.3,10.5-6.3c1.9-0.1,3.9,0.3,5.7,1c1.4,0.6,2.7,1.7,3.6,2.9
		c0.9,1.4,1.6,3,1.9,4.6c0.4,2,0.6,4.1,0.5,6.2v21.4h-3.4V524c0-1.5-0.1-3-0.2-4.5c-0.1-1.3-0.5-2.5-1.1-3.7
		c-0.6-1.1-1.5-1.9-2.6-2.5c-1.4-0.7-3-1-4.6-0.9c-3.6-0.3-7,1.8-8.5,5c-0.7,1.6-1.2,3.3-1.5,5c-0.3,1.8-0.4,3.6-0.4,5.4v17.5h-3.4
		V510h3.4L1059.9,515.5z"/>
	<path class="st1" d="M1121.5,509.2c2.5,0,5,0.5,7.3,1.4c2.2,0.9,4.2,2.2,5.9,3.9c1.7,1.7,3,3.7,3.9,5.9c1.9,4.7,1.9,9.9,0,14.6
		c-0.9,2.2-2.3,4.2-3.9,5.8c-1.7,1.7-3.7,3-5.9,3.9c-2.3,1-4.8,1.4-7.3,1.4c-2.5,0-4.9-0.5-7.2-1.5c-2.2-0.9-4.2-2.3-5.8-4
		c-1.7-1.7-3-3.7-4-5.9c-1-2.2-1.5-4.6-1.4-7.1c0-4.9,1.9-9.6,5.3-13.1c1.7-1.7,3.7-3.1,5.9-4C1116.5,509.6,1119,509.1,1121.5,509.2
		z M1121.2,512.4c-4,0-7.8,1.7-10.5,4.6c-1.3,1.4-2.4,3.1-3.1,4.9c-0.7,1.9-1.1,3.9-1.1,5.9c0,2,0.4,3.9,1.1,5.7
		c0.7,1.8,1.8,3.5,3.1,4.9c1.3,1.4,2.9,2.5,4.7,3.3c1.8,0.8,3.8,1.2,5.8,1.2c2.1,0,4.1-0.4,6-1.2c1.8-0.7,3.5-1.8,4.9-3.2
		c1.4-1.4,2.5-3,3.3-4.8c0.8-1.9,1.2-3.9,1.2-6c0-2.1-0.4-4.2-1.2-6.1c-0.8-1.8-1.9-3.5-3.3-4.9c-1.4-1.4-3-2.5-4.9-3.2
		C1125.4,512.8,1123.3,512.4,1121.2,512.4L1121.2,512.4z"/>
	<path class="st1" d="M1164.4,514.4h0.2c0.8-1.6,2.1-2.9,3.6-3.8c1.6-0.9,3.4-1.4,5.3-1.4c2.1,0,4.2,0.5,6,1.6
		c1.8,1.2,3.1,2.8,3.9,4.8c0.8-2,2.3-3.7,4.2-4.8c1.9-1.1,4-1.6,6.2-1.6c1.9-0.1,3.8,0.3,5.6,1.1c1.4,0.7,2.5,1.7,3.3,3
		c0.8,1.4,1.4,2.9,1.7,4.4c0.3,1.8,0.4,3.6,0.4,5.4v22.2h-3.4v-22.7c0-1.3-0.1-2.6-0.2-3.9c-0.1-1.1-0.5-2.2-1-3.3
		c-0.5-1-1.3-1.7-2.3-2.3c-1.2-0.6-2.6-0.9-4-0.8c-3-0.2-5.8,1.4-7.3,4c-0.7,1.2-1.2,2.6-1.4,4c-0.3,1.5-0.4,3-0.4,4.6v20.4h-3.4
		v-21.8c0-1.4-0.1-2.7-0.3-4.1c-0.2-1.2-0.5-2.4-1.1-3.6c-0.6-1-1.4-1.9-2.4-2.5c-1.3-0.7-2.7-1.1-4.1-1c-1.6-0.1-3.2,0.4-4.5,1.3
		c-1.1,0.9-2.1,2-2.7,3.3c-0.6,1.4-1.1,2.9-1.3,4.4c-0.2,1.5-0.3,3-0.3,4.5v19.5h-3.5V510h3.4L1164.4,514.4z"/>
	<path class="st1" d="M1222.6,510h3.6l15.1,32l13.6-32h3.5l-23.8,56h-3.5l8.5-20.1L1222.6,510z"/>
	<polygon class="st1" points="490.8,101.4 490.8,483.7 289.7,388.9 289.7,173.6 	"/>
	<polygon class="st1" points="1.8,490.7 198,583.3 198,202.8 1.8,110.2 	"/>
	<polygon class="st1" points="482.7,94 486,92.9 487.8,92.2 294.2,0.9 292.4,1.5 287.3,3.4 284.9,4.2 9.5,103.1 203.1,194.4 
		284.9,165.1 289.7,163.4 	"/>
</g>
</svg>
