<?xml version="1.0" encoding="utf-8"?>
<!-- Generator: Adobe Illustrator 23.0.6, SVG Export Plug-In . SVG Version: 6.00 Build 0)  -->
<svg version="1.1" id="Layer_1" xmlns="http://www.w3.org/2000/svg" xmlns:xlink="http://www.w3.org/1999/xlink" x="0px" y="0px"
	 viewBox="0 0 65 26" style="enable-background:new 0 0 65 26;" xml:space="preserve">
<style type="text/css">
	.st0{fill:#FFFFFF;}
</style>
<title>logo files</title>
<path class="st0" d="M35.8,8c0.9,0.9,1.4,2.1,1.3,3.3v7.4h-1.9v-6.8c0.1-0.9-0.2-1.8-0.7-2.6c-0.6-0.5-1.3-0.8-2.1-0.8
	c-0.6,0-1.2,0.1-1.7,0.4c-0.6,0.3-1.1,0.7-1.4,1.3c-0.3,0.7-0.5,1.5-0.5,2.3v6.2H27V7.5l1.7,0.7v0.7c0.3-0.7,0.9-1.2,1.6-1.5
	c0.7-0.3,1.5-0.5,2.3-0.5C33.8,6.9,34.9,7.3,35.8,8z"/>
<path class="st0" d="M50.2,13.6h-8.7c0,1,0.5,2,1.2,2.7c0.7,0.7,1.6,1.1,2.6,1c0.7,0,1.4-0.2,2.1-0.4c0.5-0.3,0.9-0.7,1.1-1.3
	l1.6,0.8c-0.5,0.8-1.1,1.4-1.9,1.9c-0.9,0.4-1.9,0.6-2.9,0.6c-1.5,0.1-3-0.5-4.1-1.6c-1.1-1.2-1.6-2.8-1.5-4.4
	c-0.1-1.6,0.4-3.1,1.4-4.4c1.1-1.1,2.6-1.7,4.1-1.6c1,0,1.9,0.2,2.7,0.7c0.8,0.5,1.4,1.2,1.8,2c0.4,0.8,0.6,1.8,0.6,2.7
	C50.3,12.7,50.3,13.2,50.2,13.6z M42.7,9.4c-0.6,0.7-1.1,1.6-1.2,2.6h7c0-1-0.4-1.9-1-2.6c-0.6-0.6-1.4-0.9-2.3-0.9
	C44.3,8.4,43.4,8.8,42.7,9.4z"/>
<path class="st0" d="M62.6,8.5c1,1.3,1.5,2.8,1.4,4.4c0.1,1.6-0.4,3.2-1.4,4.4c-1.1,1.1-2.6,1.7-4.1,1.6c-1.5,0.1-3.1-0.5-4.1-1.6
	c-1.1-1.2-1.6-2.8-1.5-4.4c-0.1-1.6,0.4-3.2,1.5-4.4c1-1.1,2.6-1.7,4.1-1.6C60,6.8,61.5,7.4,62.6,8.5z M55.7,9.7
	c-0.7,0.9-1.1,2-1,3.2c-0.1,1.2,0.3,2.3,1,3.2c0.7,0.8,1.7,1.2,2.8,1.2c1,0,2-0.4,2.7-1.2c0.7-0.9,1.1-2,1-3.2
	c0.1-1.2-0.3-2.3-1-3.2c-0.7-0.8-1.7-1.2-2.7-1.2C57.4,8.5,56.4,8.9,55.7,9.7z"/>
<polygon class="st0" points="1.9,4.7 1.9,20.7 12.3,24.5 12.3,8.3 23.6,4.1 13.3,0.5 "/>
<polygon class="st0" points="13.1,8.9 13.1,17.5 23.6,21.3 23.6,5 "/>
</svg>
