<svg id="图层_1" data-name="图层 1" xmlns="http://www.w3.org/2000/svg" xmlns:xlink="http://www.w3.org/1999/xlink" viewBox="0 0 583.76 249.2"><defs><style>.cls-1{fill:none}.cls-14{fill:url(#未命名的渐变)}</style><clipPath id="clip-path"><path d="M418.58 221.32a8 8 0 0 0-2.39-1.82 6.64 6.64 0 0 0-3-.64 5.92 5.92 0 0 0-2.49.52 6.16 6.16 0 0 0-2 1.43 6.73 6.73 0 0 0-1.31 2.08 6.52 6.52 0 0 0-.48 2.46 6.8 6.8 0 0 0 1.79 4.57 6.44 6.44 0 0 0 2 1.44 5.66 5.66 0 0 0 2.47.54 6.67 6.67 0 0 0 3.08-.74 8 8 0 0 0 2.49-2v2a8.34 8.34 0 0 1-2.56 1.56 8.17 8.17 0 0 1-3 .54 7.66 7.66 0 0 1-5.56-2.31 7.79 7.79 0 0 1-1.62-2.51 8.13 8.13 0 0 1-.59-3.11 8 8 0 0 1 .59-3.08 7.56 7.56 0 0 1 4.11-4.18 7.83 7.83 0 0 1 3.07-.61 8.52 8.52 0 0 1 2.8.46 7.92 7.92 0 0 1 2.47 1.41z" clip-path="url(#clip-path-11)" fill="none"/></clipPath><clipPath id="clip-path-2"><path d="M434.38 217.46a8.07 8.07 0 0 1 3.13.61 7.86 7.86 0 0 1 2.52 1.65 7.76 7.76 0 0 1 1.69 2.51 8.18 8.18 0 0 1 0 6.26A7.74 7.74 0 0 1 440 231a7.85 7.85 0 0 1-2.52 1.66 8.07 8.07 0 0 1-3.13.61 7.58 7.58 0 0 1-3.06-.62 7.88 7.88 0 0 1-2.49-1.7 8.23 8.23 0 0 1-1.69-2.51 7.48 7.48 0 0 1-.62-3 7.86 7.86 0 0 1 .61-3.08 7.94 7.94 0 0 1 1.67-2.52 7.86 7.86 0 0 1 2.51-1.7 7.69 7.69 0 0 1 3.1-.68zm-.1 1.38a6 6 0 0 0-2.51.52 6.12 6.12 0 0 0-2 1.43 6.81 6.81 0 0 0-1.77 4.61 6.64 6.64 0 0 0 1.8 4.54 6.35 6.35 0 0 0 2 1.43 5.92 5.92 0 0 0 2.49.52 6.83 6.83 0 0 0 2.59-.49A6.27 6.27 0 0 0 439 230a6.56 6.56 0 0 0 1.39-2.06 6.4 6.4 0 0 0 .51-2.56 6.6 6.6 0 0 0-.51-2.61 6.51 6.51 0 0 0-1.39-2.08 6.29 6.29 0 0 0-2.08-1.38 6.79 6.79 0 0 0-2.6-.47z" clip-path="url(#clip-path)" fill="none"/></clipPath><clipPath id="clip-path-3"><path d="M452.76 220.17h.07a5 5 0 0 1 4.45-2.71 5.76 5.76 0 0 1 2.42.44 3.77 3.77 0 0 1 1.52 1.26 5.15 5.15 0 0 1 .8 2 13.76 13.76 0 0 1 .23 2.64v9.14h-1.47v-9.14a17.76 17.76 0 0 0-.1-1.92 4.09 4.09 0 0 0-.48-1.57 2.72 2.72 0 0 0-1.1-1.07 4.13 4.13 0 0 0-2-.39 3.71 3.71 0 0 0-3.64 2.16 7.12 7.12 0 0 0-.62 2.13 17 17 0 0 0-.16 2.33v7.47h-1.4v-15.13h1.47z" clip-path="url(#clip-path-2)" fill="none"/></clipPath><clipPath id="clip-path-4"><path d="M479.11 217.46a8.07 8.07 0 0 1 3.13.61 7.86 7.86 0 0 1 2.52 1.65 7.76 7.76 0 0 1 1.69 2.51 8.18 8.18 0 0 1 0 6.26 7.74 7.74 0 0 1-1.69 2.51 7.85 7.85 0 0 1-2.52 1.66 8.07 8.07 0 0 1-3.13.61 7.58 7.58 0 0 1-3.06-.62 7.88 7.88 0 0 1-2.49-1.7 8.23 8.23 0 0 1-1.69-2.51 7.48 7.48 0 0 1-.62-3 7.86 7.86 0 0 1 .61-3.08 7.94 7.94 0 0 1 1.67-2.52 7.86 7.86 0 0 1 2.51-1.7 7.69 7.69 0 0 1 3.07-.68zm-.1 1.38a6 6 0 0 0-2.51.52 6.12 6.12 0 0 0-2 1.43 6.81 6.81 0 0 0-1.79 4.61 6.64 6.64 0 0 0 1.8 4.54 6.35 6.35 0 0 0 2 1.43 5.92 5.92 0 0 0 2.49.52 6.83 6.83 0 0 0 2.59-.49 6.27 6.27 0 0 0 2.1-1.38 6.56 6.56 0 0 0 1.39-2.06 6.4 6.4 0 0 0 .51-2.56 6.6 6.6 0 0 0-.51-2.61 6.51 6.51 0 0 0-1.39-2.08 6.29 6.29 0 0 0-2.08-1.38 6.79 6.79 0 0 0-2.59-.47z" clip-path="url(#clip-path-3)" fill="none"/></clipPath><clipPath id="clip-path-5"><path d="M497.5 219.71h.07a3.82 3.82 0 0 1 1.56-1.64 4.45 4.45 0 0 1 2.24-.59 4.66 4.66 0 0 1 2.57.7 4.51 4.51 0 0 1 1.69 2 4.44 4.44 0 0 1 1.79-2.06 5.08 5.08 0 0 1 2.64-.69 5.25 5.25 0 0 1 2.38.46 3.6 3.6 0 0 1 1.43 1.28 5 5 0 0 1 .7 1.9 14.2 14.2 0 0 1 .18 2.33v9.5h-1.47v-9.7a13.36 13.36 0 0 0-.1-1.67 3.73 3.73 0 0 0-.44-1.39 2.54 2.54 0 0 0-1-1 3.51 3.51 0 0 0-1.72-.36 3.37 3.37 0 0 0-3.13 1.7 5 5 0 0 0-.61 1.72 11.6 11.6 0 0 0-.16 2v8.72h-1.47v-9.34a13.06 13.06 0 0 0-.11-1.74 4.48 4.48 0 0 0-.48-1.52 2.84 2.84 0 0 0-1-1.08 3.32 3.32 0 0 0-1.77-.41 3.1 3.1 0 0 0-1.92.56 3.81 3.81 0 0 0-1.15 1.41 6.4 6.4 0 0 0-.56 1.87 13.53 13.53 0 0 0-.15 1.93v8.32H496v-15.11h1.47z" clip-path="url(#clip-path-4)" fill="none"/></clipPath><clipPath id="clip-path-6"><path class="cls-1" d="M277.82 220.57a2.89 2.89 0 0 0-1.06-1.25 2.85 2.85 0 0 0-1.59-.46 2.59 2.59 0 0 0-1 .18 2.65 2.65 0 0 0-.82.51 2.81 2.81 0 0 0-.59.75 1.91 1.91 0 0 0-.23.92 1.86 1.86 0 0 0 .54 1.43 4.75 4.75 0 0 0 1.36.87q.82.36 1.79.69a8.62 8.62 0 0 1 1.78.79 4.4 4.4 0 0 1 1.36 1.33 3.94 3.94 0 0 1 .54 2.2 4.78 4.78 0 0 1-.38 1.92 4.41 4.41 0 0 1-1 1.49 4.85 4.85 0 0 1-1.56 1 5.2 5.2 0 0 1-1.9.34 5.4 5.4 0 0 1-3.33-1.06 5 5 0 0 1-1.88-2.93l1.44-.46a5 5 0 0 0 1.34 2.23 3.42 3.42 0 0 0 2.42.85 3.36 3.36 0 0 0 3.42-3.3v-.2a2.62 2.62 0 0 0-.25-1.18 2.42 2.42 0 0 0-.66-.82 4 4 0 0 0-1-.56q-.54-.23-1.1-.43l-1.57-.62a6.67 6.67 0 0 1-1.43-.8 3.84 3.84 0 0 1-1-1.15 3.16 3.16 0 0 1-.39-1.62 3.5 3.5 0 0 1 .34-1.56 4 4 0 0 1 .9-1.21 3.94 3.94 0 0 1 1.31-.79 4.5 4.5 0 0 1 1.65-.26 4.26 4.26 0 0 1 2.26.69 4.07 4.07 0 0 1 1.61 1.74z"/></clipPath><clipPath id="clip-path-7"><path d="M290.6 219.71h.07a3.82 3.82 0 0 1 1.56-1.64 4.45 4.45 0 0 1 2.24-.59 4.66 4.66 0 0 1 2.57.7 4.51 4.51 0 0 1 1.69 2 4.44 4.44 0 0 1 1.79-2.06 5.08 5.08 0 0 1 2.64-.69 5.25 5.25 0 0 1 2.38.46 3.6 3.6 0 0 1 1.43 1.28 5 5 0 0 1 .7 1.9 14.2 14.2 0 0 1 .18 2.33v9.5h-1.47v-9.7a13.36 13.36 0 0 0-.1-1.67 3.73 3.73 0 0 0-.44-1.39 2.54 2.54 0 0 0-1-1 3.51 3.51 0 0 0-1.72-.36 3.37 3.37 0 0 0-3.13 1.7 5 5 0 0 0-.61 1.72 11.6 11.6 0 0 0-.16 2v8.72h-1.47v-9.34a13.06 13.06 0 0 0-.11-1.74 4.48 4.48 0 0 0-.48-1.52 2.84 2.84 0 0 0-1-1.08 3.32 3.32 0 0 0-1.77-.41 3.1 3.1 0 0 0-1.92.56 3.81 3.81 0 0 0-1.15 1.41 6.4 6.4 0 0 0-.56 1.87 13.53 13.53 0 0 0-.15 1.93v8.32h-1.47v-15.11h1.47z" clip-path="url(#clip-path-6)" fill="none"/></clipPath><clipPath id="clip-path-8"><path d="M331.57 233h-1.47v-2.72h-.1a5.49 5.49 0 0 1-1.06 1.29 6.62 6.62 0 0 1-1.41 1 7 7 0 0 1-1.62.59 7.39 7.39 0 0 1-1.67.2 7.48 7.48 0 0 1-3.11-.62 6.92 6.92 0 0 1-2.34-1.7 7.65 7.65 0 0 1-1.54-2.53 9.19 9.19 0 0 1-.52-3.13 8.91 8.91 0 0 1 .52-3.1 7.48 7.48 0 0 1 1.48-2.47 6.62 6.62 0 0 1 2.33-1.64 7.75 7.75 0 0 1 3.08-.59 7.53 7.53 0 0 1 3.33.75 6.18 6.18 0 0 1 2.51 2.2h.07v-2.62h1.47zm-7.44-14.09a5.27 5.27 0 0 0-2.39.54 5.85 5.85 0 0 0-1.85 1.44 6.69 6.69 0 0 0-1.2 2.07 6.86 6.86 0 0 0-.43 2.38 7.66 7.66 0 0 0 .41 2.51 6.38 6.38 0 0 0 1.2 2.11 5.86 5.86 0 0 0 1.88 1.46 5.53 5.53 0 0 0 2.48.54 5.78 5.78 0 0 0 2.56-.54 5.39 5.39 0 0 0 1.87-1.47 6.61 6.61 0 0 0 1.15-2.16 8.49 8.49 0 0 0 .39-2.61 7 7 0 0 0-.43-2.46 5.68 5.68 0 0 0-1.23-2 6 6 0 0 0-1.92-1.33 6.11 6.11 0 0 0-2.49-.48z" clip-path="url(#clip-path-7)" fill="none"/></clipPath><clipPath id="clip-path-9"><path d="M343.47 219.78h.07a4.19 4.19 0 0 1 1.26-1.67 3.19 3.19 0 0 1 2-.62 3.32 3.32 0 0 1 .84.1 6 6 0 0 1 .77.26l-.79 1.31a1.91 1.91 0 0 0-.51-.23 2.1 2.1 0 0 0-.54-.07 2.45 2.45 0 0 0-1.88.69 4 4 0 0 0-.92 1.67 8 8 0 0 0-.3 2.08v9.7H342v-15.19h1.47z" clip-path="url(#clip-path-8)" fill="none"/></clipPath><clipPath id="clip-path-10"><path clip-path="url(#clip-path-9)" fill="none" d="M358.77 232.95h-1.49v-13.76h-1.67v-1.38h1.67v-5.41h1.47v5.41h2.66v1.38h-2.66l.02 13.76z"/></clipPath><clipPath id="clip-path-11"><path d="M384.89 225.51a7 7 0 0 0 .41 2.62 5.59 5.59 0 0 0 3.21 3.31 6.43 6.43 0 0 0 2.44.46 5.4 5.4 0 0 0 3.15-1 6.92 6.92 0 0 0 2.18-2.44l1.25.72a7.73 7.73 0 0 1-2.79 3 7.49 7.49 0 0 1-4 1.06 7 7 0 0 1-3-.64 7.17 7.17 0 0 1-2.33-1.72 7.46 7.46 0 0 1-1.47-2.52 9.09 9.09 0 0 1-.51-3 8.62 8.62 0 0 1 .52-3 7.72 7.72 0 0 1 1.49-2.51 7.22 7.22 0 0 1 2.31-1.72 6.92 6.92 0 0 1 3-.64 7.11 7.11 0 0 1 3.06.64 6.72 6.72 0 0 1 2.29 1.74 7.68 7.68 0 0 1 1.43 2.56 9.63 9.63 0 0 1 .49 3.1zm11.67-1.38a6.15 6.15 0 0 0-1.85-3.69 5.93 5.93 0 0 0-1.75-1.16 5.4 5.4 0 0 0-2.16-.43 5.67 5.67 0 0 0-2.18.43 6.16 6.16 0 0 0-1.82 1.15 6.26 6.26 0 0 0-1.29 1.67 5.29 5.29 0 0 0-.61 2z" clip-path="url(#clip-path-10)" fill="none"/></clipPath><clipPath id="clip-path-12"><path class="cls-1" d="M270.53 85.33h11.64l62.58 99.85h.32V85.33l10.21-.07v113.6h-12.89l-61.32-98.12h-.31v98l-10.22.13-.01-113.54z"/></clipPath><linearGradient id="未命名的渐变" x1="229.7" y1="335.99" x2="229.7" y2="-11.56" gradientTransform="matrix(1 0 0 -1 0 320.92)" gradientUnits="userSpaceOnUse"><stop offset="0" stop-color="#58bf00"/><stop offset=".23" stop-color="#58bf00"/><stop offset=".42" stop-color="#58bf00"/><stop offset=".61" stop-color="#29b800"/><stop offset=".78" stop-color="#00ae1d"/><stop offset=".99" stop-color="#00a62c"/></linearGradient><clipPath id="clip-path-13"><path class="cls-1" d="M388.78 198.86V85.33h67.5l-4.3 9.44H399v40.69h55l-4.3 9.44H399v44.56h59.59l-4.31 9.4h-65.5z"/></clipPath><clipPath id="clip-path-14"><path class="cls-1" d="M583.75 142.09a83.15 83.15 0 0 1-3.3 24.14 52.89 52.89 0 0 1-9.75 18.71 43.47 43.47 0 0 1-15.88 12 57.54 57.54 0 0 1-43.4 0 43.41 43.41 0 0 1-15.88-12 52.89 52.89 0 0 1-9.75-18.71 83.15 83.15 0 0 1-3.3-24.14 83.18 83.18 0 0 1 3.3-24.14 53 53 0 0 1 9.75-18.71 43.47 43.47 0 0 1 15.88-12 57.58 57.58 0 0 1 43.4 0 43.53 43.53 0 0 1 15.88 12 53 53 0 0 1 9.75 18.76 83.18 83.18 0 0 1 3.3 24.09zm-90.26 0a76.11 76.11 0 0 0 2.2 18.24 48.31 48.31 0 0 0 7 16A36.58 36.58 0 0 0 515 187.57q7.47 4.25 18.16 4.25 10.53 0 18.08-4.25a36.37 36.37 0 0 0 12.35-11.24 48.44 48.44 0 0 0 7-16 76.73 76.73 0 0 0 0-36.48 48.41 48.41 0 0 0-7-16A36.38 36.38 0 0 0 551.2 96.6q-7.55-4.24-18.08-4.25-10.7 0-18.16 4.25a36.59 36.59 0 0 0-12.27 11.25 48.29 48.29 0 0 0-7 16 76.11 76.11 0 0 0-2.19 18.24z"/></clipPath><linearGradient id="未命名的渐变_4" x1="269.86" y1="95.53" x2="279.95" y2="95.53" xlink:href="#未命名的渐变"/><linearGradient id="未命名的渐变_5" x1="289.14" y1="95.75" x2="307.85" y2="95.75" xlink:href="#未命名的渐变"/><linearGradient id="未命名的渐变_6" x1="316.79" y1="95.5" x2="331.57" y2="95.5" xlink:href="#未命名的渐变"/><linearGradient id="未命名的渐变_7" x1="341.99" y1="95.7" x2="348.41" y2="95.7" xlink:href="#未命名的渐变"/><linearGradient id="未命名的渐变_8" x1="355.62" y1="98.25" x2="361.43" y2="98.25" xlink:href="#未命名的渐变"/><linearGradient id="未命名的渐变_9" x1="383.43" y1="95.55" x2="398.04" y2="95.55" xlink:href="#未命名的渐变"/><linearGradient id="未命名的渐变_10" x1="405.51" y1="95.56" x2="418.79" y2="95.56" xlink:href="#未命名的渐变"/><linearGradient id="未命名的渐变_11" x1="426.52" y1="95.55" x2="442.34" y2="95.55" xlink:href="#未命名的渐变"/><linearGradient id="未命名的渐变_12" x1="451.28" y1="95.72" x2="462.29" y2="95.72" xlink:href="#未命名的渐变"/><linearGradient id="未命名的渐变_13" x1="471.25" y1="95.55" x2="487.07" y2="95.55" xlink:href="#未命名的渐变"/><linearGradient id="未命名的渐变_14" x1="496.04" y1="95.75" x2="514.75" y2="95.75" xlink:href="#未命名的渐变"/><linearGradient id="未命名的渐变_15" x1="522.41" y1="91.11" x2="537.72" y2="91.11" xlink:href="#未命名的渐变"/><clipPath id="clip-path-15"><path clip-path="url(#clip-path-5)" fill="none" d="M522.41 217.81h1.54l6.46 13.7 5.8-13.7h1.51l-10.16 24h-1.51l3.64-8.59-7.28-15.41z"/></clipPath><linearGradient id="未命名的渐变_17" x1="10.56" y1="93" x2="496.19" y2="366.52" gradientTransform="matrix(1 0 0 -1 0 320.92)" gradientUnits="userSpaceOnUse"><stop offset="0" stop-color="#beeb00"/><stop offset=".23" stop-color="#58bf00"/><stop offset=".42" stop-color="#58bf00"/><stop offset=".61" stop-color="#29b800"/><stop offset=".78" stop-color="#00ae1d"/><stop offset=".99" stop-color="#00a62c"/></linearGradient><linearGradient id="未命名的渐变_18" x1="-16.05" y1="140.25" x2="469.58" y2="413.77" xlink:href="#未命名的渐变_17"/><linearGradient id="未命名的渐变_19" x1="-46.29" y1="193.94" x2="439.34" y2="467.46" xlink:href="#未命名的渐变_17"/></defs><g id="图层_2" data-name="图层 2"><g id="图层_1-2" data-name="图层 1-2"><g clip-path="url(#clip-path-12)"><path class="cls-14" d="M-235.72-14.54h930.84v347.55h-930.84z"/></g><g clip-path="url(#clip-path-13)"><path class="cls-14" d="M-235.72-14.54h930.84v347.55h-930.84z"/></g><g clip-path="url(#clip-path-14)"><path class="cls-14" d="M-235.72-14.54h930.84v347.55h-930.84z"/></g><path d="M277.82 220.57a2.89 2.89 0 0 0-1.06-1.25 2.85 2.85 0 0 0-1.59-.46 2.59 2.59 0 0 0-1 .18 2.65 2.65 0 0 0-.82.51 2.81 2.81 0 0 0-.59.75 1.91 1.91 0 0 0-.23.92 1.86 1.86 0 0 0 .54 1.43 4.75 4.75 0 0 0 1.36.87q.82.36 1.79.69a8.62 8.62 0 0 1 1.78.79 4.4 4.4 0 0 1 1.36 1.33 3.94 3.94 0 0 1 .54 2.2 4.78 4.78 0 0 1-.38 1.92 4.41 4.41 0 0 1-1 1.49 4.85 4.85 0 0 1-1.56 1 5.2 5.2 0 0 1-1.9.34 5.4 5.4 0 0 1-3.33-1.06 5 5 0 0 1-1.88-2.93l1.44-.46a5 5 0 0 0 1.34 2.23 3.42 3.42 0 0 0 2.42.85 3.36 3.36 0 0 0 3.42-3.3v-.2a2.62 2.62 0 0 0-.25-1.18 2.42 2.42 0 0 0-.66-.82 4 4 0 0 0-1-.56q-.54-.23-1.1-.43l-1.57-.62a6.67 6.67 0 0 1-1.43-.8 3.84 3.84 0 0 1-1-1.15 3.16 3.16 0 0 1-.39-1.62 3.5 3.5 0 0 1 .34-1.56 4 4 0 0 1 .9-1.21 3.94 3.94 0 0 1 1.31-.79 4.5 4.5 0 0 1 1.65-.26 4.26 4.26 0 0 1 2.26.69 4.07 4.07 0 0 1 1.61 1.74z" fill="url(#未命名的渐变_4)"/><path d="M290.6 219.71h.07a3.82 3.82 0 0 1 1.56-1.64 4.45 4.45 0 0 1 2.24-.59 4.66 4.66 0 0 1 2.57.7 4.51 4.51 0 0 1 1.69 2 4.44 4.44 0 0 1 1.79-2.06 5.08 5.08 0 0 1 2.64-.69 5.25 5.25 0 0 1 2.38.46 3.6 3.6 0 0 1 1.43 1.28 5 5 0 0 1 .7 1.9 14.2 14.2 0 0 1 .18 2.33v9.5h-1.47v-9.7a13.36 13.36 0 0 0-.1-1.67 3.73 3.73 0 0 0-.44-1.39 2.54 2.54 0 0 0-1-1 3.51 3.51 0 0 0-1.72-.36 3.37 3.37 0 0 0-3.13 1.7 5 5 0 0 0-.61 1.72 11.6 11.6 0 0 0-.16 2v8.72h-1.47v-9.34a13.06 13.06 0 0 0-.11-1.74 4.48 4.48 0 0 0-.48-1.52 2.84 2.84 0 0 0-1-1.08 3.32 3.32 0 0 0-1.77-.41 3.1 3.1 0 0 0-1.92.56 3.81 3.81 0 0 0-1.15 1.41 6.4 6.4 0 0 0-.56 1.87 13.53 13.53 0 0 0-.15 1.93v8.32h-1.47v-15.11h1.47z" fill="url(#未命名的渐变_5)"/><path d="M331.57 233h-1.47v-2.72h-.1a5.49 5.49 0 0 1-1.06 1.29 6.62 6.62 0 0 1-1.41 1 7 7 0 0 1-1.62.59 7.39 7.39 0 0 1-1.67.2 7.48 7.48 0 0 1-3.11-.62 6.92 6.92 0 0 1-2.34-1.7 7.65 7.65 0 0 1-1.54-2.53 9.19 9.19 0 0 1-.52-3.13 8.91 8.91 0 0 1 .52-3.1 7.48 7.48 0 0 1 1.48-2.47 6.62 6.62 0 0 1 2.33-1.64 7.75 7.75 0 0 1 3.08-.59 7.53 7.53 0 0 1 3.33.75 6.18 6.18 0 0 1 2.51 2.2h.07v-2.62h1.47zm-7.44-14.09a5.27 5.27 0 0 0-2.39.54 5.85 5.85 0 0 0-1.85 1.44 6.69 6.69 0 0 0-1.2 2.07 6.86 6.86 0 0 0-.43 2.38 7.66 7.66 0 0 0 .41 2.51 6.38 6.38 0 0 0 1.2 2.11 5.86 5.86 0 0 0 1.88 1.46 5.53 5.53 0 0 0 2.48.54 5.78 5.78 0 0 0 2.56-.54 5.39 5.39 0 0 0 1.87-1.47 6.61 6.61 0 0 0 1.15-2.16 8.49 8.49 0 0 0 .39-2.61 7 7 0 0 0-.43-2.46 5.68 5.68 0 0 0-1.23-2 6 6 0 0 0-1.92-1.33 6.11 6.11 0 0 0-2.49-.48z" fill="url(#未命名的渐变_6)"/><path d="M343.47 219.78h.07a4.19 4.19 0 0 1 1.26-1.67 3.19 3.19 0 0 1 2-.62 3.32 3.32 0 0 1 .84.1 6 6 0 0 1 .77.26l-.79 1.31a1.91 1.91 0 0 0-.51-.23 2.1 2.1 0 0 0-.54-.07 2.45 2.45 0 0 0-1.88.69 4 4 0 0 0-.92 1.67 8 8 0 0 0-.3 2.08v9.7H342v-15.19h1.47z" fill="url(#未命名的渐变_7)"/><path d="M358.77 233h-1.49v-13.81h-1.67v-1.38h1.67v-5.41h1.47v5.41h2.66v1.38h-2.66z" fill="url(#未命名的渐变_8)"/><path d="M384.89 225.51a7 7 0 0 0 .41 2.62 5.59 5.59 0 0 0 3.21 3.31 6.43 6.43 0 0 0 2.44.46 5.4 5.4 0 0 0 3.15-1 6.92 6.92 0 0 0 2.18-2.44l1.25.72a7.73 7.73 0 0 1-2.79 3 7.49 7.49 0 0 1-4 1.06 7 7 0 0 1-3-.64 7.17 7.17 0 0 1-2.33-1.72 7.46 7.46 0 0 1-1.47-2.52 9.09 9.09 0 0 1-.51-3 8.62 8.62 0 0 1 .52-3 7.72 7.72 0 0 1 1.49-2.51 7.22 7.22 0 0 1 2.31-1.72 6.92 6.92 0 0 1 3-.64 7.11 7.11 0 0 1 3.06.64 6.72 6.72 0 0 1 2.29 1.74 7.68 7.68 0 0 1 1.43 2.56 9.63 9.63 0 0 1 .49 3.1zm11.67-1.38a6.15 6.15 0 0 0-1.85-3.69 5.93 5.93 0 0 0-1.75-1.16 5.4 5.4 0 0 0-2.16-.43 5.67 5.67 0 0 0-2.18.43 6.16 6.16 0 0 0-1.82 1.15 6.26 6.26 0 0 0-1.29 1.67 5.29 5.29 0 0 0-.61 2z" fill="url(#未命名的渐变_9)"/><path d="M418.58 221.32a8 8 0 0 0-2.39-1.82 6.64 6.64 0 0 0-3-.64 5.92 5.92 0 0 0-2.49.52 6.16 6.16 0 0 0-2 1.43 6.73 6.73 0 0 0-1.31 2.08 6.52 6.52 0 0 0-.48 2.46 6.8 6.8 0 0 0 1.79 4.57 6.44 6.44 0 0 0 2 1.44 5.66 5.66 0 0 0 2.47.54 6.67 6.67 0 0 0 3.08-.74 8 8 0 0 0 2.49-2v2a8.34 8.34 0 0 1-2.56 1.56 8.17 8.17 0 0 1-3 .54 7.66 7.66 0 0 1-5.56-2.31 7.79 7.79 0 0 1-1.62-2.51 8.13 8.13 0 0 1-.59-3.11 8 8 0 0 1 .59-3.08 7.56 7.56 0 0 1 4.11-4.18 7.83 7.83 0 0 1 3.07-.61 8.52 8.52 0 0 1 2.8.46 7.92 7.92 0 0 1 2.47 1.41z" fill="url(#未命名的渐变_10)"/><path d="M434.38 217.46a8.07 8.07 0 0 1 3.13.61 7.86 7.86 0 0 1 2.52 1.65 7.76 7.76 0 0 1 1.69 2.51 8.18 8.18 0 0 1 0 6.26A7.74 7.74 0 0 1 440 231a7.85 7.85 0 0 1-2.52 1.66 8.07 8.07 0 0 1-3.13.61 7.58 7.58 0 0 1-3.06-.62 7.88 7.88 0 0 1-2.49-1.7 8.23 8.23 0 0 1-1.69-2.51 7.48 7.48 0 0 1-.62-3 7.86 7.86 0 0 1 .61-3.08 7.94 7.94 0 0 1 1.67-2.52 7.86 7.86 0 0 1 2.51-1.7 7.69 7.69 0 0 1 3.1-.68zm-.1 1.38a6 6 0 0 0-2.51.52 6.12 6.12 0 0 0-2 1.43 6.81 6.81 0 0 0-1.77 4.61 6.64 6.64 0 0 0 1.8 4.54 6.35 6.35 0 0 0 2 1.43 5.92 5.92 0 0 0 2.49.52 6.83 6.83 0 0 0 2.59-.49A6.27 6.27 0 0 0 439 230a6.56 6.56 0 0 0 1.39-2.06 6.4 6.4 0 0 0 .51-2.56 6.6 6.6 0 0 0-.51-2.61 6.51 6.51 0 0 0-1.39-2.08 6.29 6.29 0 0 0-2.08-1.38 6.79 6.79 0 0 0-2.6-.47z" fill="url(#未命名的渐变_11)"/><path d="M452.76 220.17h.07a5 5 0 0 1 4.45-2.71 5.76 5.76 0 0 1 2.42.44 3.77 3.77 0 0 1 1.52 1.26 5.15 5.15 0 0 1 .8 2 13.76 13.76 0 0 1 .23 2.64v9.14h-1.47v-9.14a17.76 17.76 0 0 0-.1-1.92 4.09 4.09 0 0 0-.48-1.57 2.72 2.72 0 0 0-1.1-1.07 4.13 4.13 0 0 0-2-.39 3.71 3.71 0 0 0-3.64 2.16 7.12 7.12 0 0 0-.62 2.13 17 17 0 0 0-.16 2.33v7.47h-1.4v-15.13h1.47z" fill="url(#未命名的渐变_12)"/><path d="M479.11 217.46a8.07 8.07 0 0 1 3.13.61 7.86 7.86 0 0 1 2.52 1.65 7.76 7.76 0 0 1 1.69 2.51 8.18 8.18 0 0 1 0 6.26 7.74 7.74 0 0 1-1.69 2.51 7.85 7.85 0 0 1-2.52 1.66 8.07 8.07 0 0 1-3.13.61 7.58 7.58 0 0 1-3.06-.62 7.88 7.88 0 0 1-2.49-1.7 8.23 8.23 0 0 1-1.69-2.51 7.48 7.48 0 0 1-.62-3 7.86 7.86 0 0 1 .61-3.08 7.94 7.94 0 0 1 1.67-2.52 7.86 7.86 0 0 1 2.51-1.7 7.69 7.69 0 0 1 3.07-.68zm-.1 1.38a6 6 0 0 0-2.51.52 6.12 6.12 0 0 0-2 1.43 6.81 6.81 0 0 0-1.79 4.61 6.64 6.64 0 0 0 1.8 4.54 6.35 6.35 0 0 0 2 1.43 5.92 5.92 0 0 0 2.49.52 6.83 6.83 0 0 0 2.59-.49 6.27 6.27 0 0 0 2.1-1.38 6.56 6.56 0 0 0 1.39-2.06 6.4 6.4 0 0 0 .51-2.56 6.6 6.6 0 0 0-.51-2.61 6.51 6.51 0 0 0-1.39-2.08 6.29 6.29 0 0 0-2.08-1.38 6.79 6.79 0 0 0-2.59-.47z" fill="url(#未命名的渐变_13)"/><path d="M497.5 219.71h.07a3.82 3.82 0 0 1 1.56-1.64 4.45 4.45 0 0 1 2.24-.59 4.66 4.66 0 0 1 2.57.7 4.51 4.51 0 0 1 1.69 2 4.44 4.44 0 0 1 1.79-2.06 5.08 5.08 0 0 1 2.64-.69 5.25 5.25 0 0 1 2.38.46 3.6 3.6 0 0 1 1.43 1.28 5 5 0 0 1 .7 1.9 14.2 14.2 0 0 1 .18 2.33v9.5h-1.47v-9.7a13.36 13.36 0 0 0-.1-1.67 3.73 3.73 0 0 0-.44-1.39 2.54 2.54 0 0 0-1-1 3.51 3.51 0 0 0-1.72-.36 3.37 3.37 0 0 0-3.13 1.7 5 5 0 0 0-.61 1.72 11.6 11.6 0 0 0-.16 2v8.72h-1.47v-9.34a13.06 13.06 0 0 0-.11-1.74 4.48 4.48 0 0 0-.48-1.52 2.84 2.84 0 0 0-1-1.08 3.32 3.32 0 0 0-1.77-.41 3.1 3.1 0 0 0-1.92.56 3.81 3.81 0 0 0-1.15 1.41 6.4 6.4 0 0 0-.56 1.87 13.53 13.53 0 0 0-.15 1.93v8.32H496v-15.11h1.47z" fill="url(#未命名的渐变_14)"/><path d="M522.41 217.81h1.54l6.46 13.7 5.8-13.7h1.51l-10.16 24h-1.51l3.64-8.59z" fill="url(#未命名的渐变_15)"/><g clip-path="url(#clip-path-15)"><path class="cls-14" d="M-235.72-14.54h930.84v347.55h-930.84z"/></g><path fill="url(#未命名的渐变_17)" d="M209.26 43v163.58L123.21 166V73.9L209.26 43z"/><path fill="url(#未命名的渐变_18)" d="M0 209.59l83.99 39.61V86.38L0 46.75v162.84z"/><path fill="url(#未命名的渐变_19)" d="M205.81 39.84l1.39-.49.76-.27L125.13 0l-.77.27-2.18.79-1.03.37L3.33 43.74l82.83 39.08 34.99-12.57 2.06-.74 82.6-29.67z"/></g></g></svg>