<svg width="132" height="138" xmlns="http://www.w3.org/2000/svg"><g fill="none" fill-rule="evenodd"><path fill="#58BF00" d="M82.66 86.61l2.82 1.43 2.03-2.15-2.78-1.23z"/><path fill="#8AD500" d="M82.67 86.6l2.8 1.44v3.82l-2.8-1.37z"/><path fill="#50AC02" d="M85.48 88.04l-.03-.08v3.9l2.1-2.1-.04-3.9z"/><path fill="#58BF00" d="M76.16 88.73l4.23 2.15 3.07-3.24-4.19-1.85z"/><path fill="#8AD500" d="M76.17 88.7l4.22 2.17v5.75l-4.22-2.07z"/><path fill="#50AC02" d="M80.4 90.87l-.05-.12v5.87l3.15-3.17-.05-5.85z"/><path fill="#58BF00" d="M76.2 95.18l1.38.7 1-1.06-1.36-.6z"/><path fill="#8AD500" d="M76.2 95.17l1.38.7v1.88l-1.38-.67z"/><path fill="#50AC02" d="M77.59 95.88l-.02-.04v1.91l1.03-1.03-.02-1.91z"/><path fill="#58BF00" d="M61.26 58.06l6.33 3.22 19.3-20.53-6.39-3.02z"/><path fill="#A9E834" d="M69.8 78l-3.57 11.55-10.98-5.42 5.94-10.33z"/><path fill="#8AD500" d="M61.29 57.94l6.32 3.26-.02 19.02-6.3-3.86z"/><path fill="#3E8007" d="M68.4 82.36l-4.89-3V77.7l4.15 2.33 2.2-2.33z"/><path fill="#58BF00" d="M52.1 67.84l6.34 3.22 5.37-5.74-6.4-3.01z"/><path fill="#8AD500" d="M52.07 67.71l6.32 3.26-.02 39.41-6.3-3.87zM76.34 60.73l6.3 3.34v20.7l-6.3-3.88z"/><path fill="#50AC02" d="M58.4 70.97l-.07 39.5 20.56-21.6v-20.6l-1.5 1.68 2.85-10.74 3.91 3.08-1.51 1.78v20.87l4.32-4.54-.07-39.71-19.3 20.46v19.08l2.12-2.2-3.55 11.52-4.51-3.01 2.05-2.14V65.36z"/><path fill="#3E8007" d="M84.15 62.3l-4.24-1.89.3-1.29z"/><path fill="#58BF00" d="M79.38 62.48l3.25 1.6 1.52-1.78-4.25-1.92zM77.4 69.94l1.48-1.65-.91-.53z"/><g><path fill="#58BF00" d="M58.63 52.88l4.23 2.14 3.06-3.23-4.18-1.85z"/><path fill="#8AD500" d="M58.64 52.85l4.22 2.17v5.74l-4.22-2.06z"/><path fill="#50AC02" d="M62.87 55.02l-.05-.12v5.86l3.14-3.17-.04-5.84z"/></g><g><path fill="#58BF00" d="M58.63 52.88l4.23 2.14 3.06-3.23-4.18-1.85z"/><path fill="#8AD500" d="M58.64 52.85l4.22 2.17v5.74l-4.22-2.06z"/><path fill="#50AC02" d="M62.87 55.02l-.05-.12v5.86l3.14-3.17-.04-5.84z"/></g><g><path fill="#58BF00" d="M55.12 52.52l2.81 1.43 2.04-2.15-2.78-1.23z"/><path fill="#8AD500" d="M55.12 52.5l2.8 1.45v3.82l-2.8-1.38z"/><path fill="#50AC02" d="M57.94 53.95l-.04-.08v3.9l2.1-2.11-.03-3.89z"/></g><g><path fill="#58BF00" d="M54.41 59.3l1.39.7 1-1.06-1.37-.6z"/><path fill="#8AD500" d="M54.42 59.29l1.37.7v1.88l-1.37-.67z"/><path fill="#50AC02" d="M55.8 60l-.02-.04v1.91l1.03-1.03-.02-1.9z"/></g><g stroke="#BFC6D3" stroke-dasharray="5" stroke-linecap="square"><path d="M49.3 1.42l81.45 38.28v47.55l-50 50.3-80.01-37v-48.6L49.3 1.41zM129.37 86.65L88.31 67.24M53.53 51.57l-4.17-1.93"/><path d="M49.46 3.16V50.7l-50 50.3"/><path d="M.76 51.73l79 37 50.15-50.37M80.84 88.05v49"/></g><g><path fill="#58BF00" d="M82.66 86.61l2.82 1.43 2.03-2.15-2.78-1.23z"/><path fill="#8AD500" d="M82.67 86.6l2.8 1.44v3.82l-2.8-1.37z"/><path fill="#50AC02" d="M85.48 88.04l-.03-.08v3.9l2.1-2.1-.04-3.9z"/><path fill="#58BF00" d="M76.16 88.73l4.23 2.15 3.07-3.24-4.19-1.85z"/><path fill="#8AD500" d="M76.17 88.7l4.22 2.17v5.75l-4.22-2.07z"/><path fill="#50AC02" d="M80.4 90.87l-.05-.12v5.87l3.15-3.17-.05-5.85z"/><path fill="#58BF00" d="M76.2 95.18l1.38.7 1-1.06-1.36-.6z"/><path fill="#8AD500" d="M76.2 95.17l1.38.7v1.88l-1.38-.67z"/><path fill="#50AC02" d="M77.59 95.88l-.02-.04v1.91l1.03-1.03-.02-1.91z"/><path fill="#58BF00" d="M61.26 58.06l6.33 3.22 19.3-20.53-6.39-3.02z"/><path fill="#A9E834" d="M69.8 78l-3.57 11.55-10.98-5.42 5.94-10.33z"/><path fill="#8AD500" d="M61.29 57.94l6.32 3.26-.02 19.02-6.3-3.86z"/><path fill="#3E8007" d="M68.4 82.36l-4.89-3V77.7l4.15 2.33 2.2-2.33z"/><path fill="#58BF00" d="M52.1 67.84l6.34 3.22 5.37-5.74-6.4-3.01z"/><path fill="#8AD500" d="M52.07 67.71l6.32 3.26-.02 39.41-6.3-3.87zM76.34 60.73l6.3 3.34v20.7l-6.3-3.88z"/><path fill="#50AC02" d="M58.4 70.97l-.07 39.5 20.56-21.6v-20.6l-1.5 1.68 2.85-10.74 3.91 3.08-1.51 1.78v20.87l4.32-4.54-.07-39.71-19.3 20.46v19.08l2.12-2.2-3.55 11.52-4.51-3.01 2.05-2.14V65.36z"/><path fill="#3E8007" d="M84.15 62.3l-4.24-1.89.3-1.29z"/><path fill="#58BF00" d="M79.38 62.48l3.25 1.6 1.52-1.78-4.25-1.92zM77.4 69.94l1.48-1.65-.91-.53z"/><g><path fill="#58BF00" d="M58.63 52.88l4.23 2.14 3.06-3.23-4.18-1.85z"/><path fill="#8AD500" d="M58.64 52.85l4.22 2.17v5.74l-4.22-2.06z"/><path fill="#50AC02" d="M62.87 55.02l-.05-.12v5.86l3.14-3.17-.04-5.84z"/></g><g><path fill="#58BF00" d="M58.63 52.88l4.23 2.14 3.06-3.23-4.18-1.85z"/><path fill="#8AD500" d="M58.64 52.85l4.22 2.17v5.74l-4.22-2.06z"/><path fill="#50AC02" d="M62.87 55.02l-.05-.12v5.86l3.14-3.17-.04-5.84z"/></g><g><path fill="#58BF00" d="M55.12 52.52l2.81 1.43 2.04-2.15-2.78-1.23z"/><path fill="#8AD500" d="M55.12 52.5l2.8 1.45v3.82l-2.8-1.38z"/><path fill="#50AC02" d="M57.94 53.95l-.04-.08v3.9l2.1-2.11-.03-3.89z"/></g><g><path fill="#58BF00" d="M54.41 59.3l1.39.7 1-1.06-1.37-.6z"/><path fill="#8AD500" d="M54.42 59.29l1.37.7v1.88l-1.37-.67z"/><path fill="#50AC02" d="M55.8 60l-.02-.04v1.91l1.03-1.03-.02-1.9z"/></g><g stroke="#BFC6D3" stroke-dasharray="5" stroke-linecap="square"><path d="M49.3 1.42l81.45 38.28v47.55l-50 50.3-80.01-37v-48.6L49.3 1.41zM129.37 86.65L88.31 67.24M53.53 51.57l-4.17-1.93"/><path d="M49.46 3.16V50.7l-50 50.3"/><path d="M.76 51.73l79 37 50.15-50.37M80.84 88.05v49"/></g></g><g><path fill="#58BF00" d="M82.66 86.61l2.82 1.43 2.03-2.15-2.78-1.23z"/><path fill="#8AD500" d="M82.67 86.6l2.8 1.44v3.82l-2.8-1.37z"/><path fill="#50AC02" d="M85.48 88.04l-.03-.08v3.9l2.1-2.1-.04-3.9z"/><path fill="#58BF00" d="M76.16 88.73l4.23 2.15 3.07-3.24-4.19-1.85z"/><path fill="#8AD500" d="M76.17 88.7l4.22 2.17v5.75l-4.22-2.07z"/><path fill="#50AC02" d="M80.4 90.87l-.05-.12v5.87l3.15-3.17-.05-5.85z"/><path fill="#58BF00" d="M76.2 95.18l1.38.7 1-1.06-1.36-.6z"/><path fill="#8AD500" d="M76.2 95.17l1.38.7v1.88l-1.38-.67z"/><path fill="#50AC02" d="M77.59 95.88l-.02-.04v1.91l1.03-1.03-.02-1.91z"/><path fill="#58BF00" d="M61.26 58.06l6.33 3.22 19.3-20.53-6.39-3.02z"/><path fill="#A9E834" d="M69.8 78l-3.57 11.55-10.98-5.42 5.94-10.33z"/><path fill="#8AD500" d="M61.29 57.94l6.32 3.26-.02 19.02-6.3-3.86z"/><path fill="#3E8007" d="M68.4 82.36l-4.89-3V77.7l4.15 2.33 2.2-2.33z"/><path fill="#58BF00" d="M52.1 67.84l6.34 3.22 5.37-5.74-6.4-3.01z"/><path fill="#8AD500" d="M52.07 67.71l6.32 3.26-.02 39.41-6.3-3.87zM76.34 60.73l6.3 3.34v20.7l-6.3-3.88z"/><path fill="#50AC02" d="M58.4 70.97l-.07 39.5 20.56-21.6v-20.6l-1.5 1.68 2.85-10.74 3.91 3.08-1.51 1.78v20.87l4.32-4.54-.07-39.71-19.3 20.46v19.08l2.12-2.2-3.55 11.52-4.51-3.01 2.05-2.14V65.36z"/><path fill="#3E8007" d="M84.15 62.3l-4.24-1.89.3-1.29z"/><path fill="#58BF00" d="M79.38 62.48l3.25 1.6 1.52-1.78-4.25-1.92zM77.4 69.94l1.48-1.65-.91-.53z"/><g><path fill="#58BF00" d="M58.63 52.88l4.23 2.14 3.06-3.23-4.18-1.85z"/><path fill="#8AD500" d="M58.64 52.85l4.22 2.17v5.74l-4.22-2.06z"/><path fill="#50AC02" d="M62.87 55.02l-.05-.12v5.86l3.14-3.17-.04-5.84z"/></g><g><path fill="#58BF00" d="M58.63 52.88l4.23 2.14 3.06-3.23-4.18-1.85z"/><path fill="#8AD500" d="M58.64 52.85l4.22 2.17v5.74l-4.22-2.06z"/><path fill="#50AC02" d="M62.87 55.02l-.05-.12v5.86l3.14-3.17-.04-5.84z"/></g><g><path fill="#58BF00" d="M55.12 52.52l2.81 1.43 2.04-2.15-2.78-1.23z"/><path fill="#8AD500" d="M55.12 52.5l2.8 1.45v3.82l-2.8-1.38z"/><path fill="#50AC02" d="M57.94 53.95l-.04-.08v3.9l2.1-2.11-.03-3.89z"/></g><g><path fill="#58BF00" d="M54.41 59.3l1.39.7 1-1.06-1.37-.6z"/><path fill="#8AD500" d="M54.42 59.29l1.37.7v1.88l-1.37-.67z"/><path fill="#50AC02" d="M55.8 60l-.02-.04v1.91l1.03-1.03-.02-1.9z"/></g><g stroke="#BFC6D3" stroke-dasharray="5" stroke-linecap="square"><path d="M49.3 1.42l81.45 38.28v47.55l-50 50.3-80.01-37v-48.6L49.3 1.41zM129.37 86.65L88.31 67.24M53.53 51.57l-4.17-1.93"/><path d="M49.46 3.16V50.7l-50 50.3"/><path d="M.76 51.73l79 37 50.15-50.37M80.84 88.05v49"/></g></g></g></svg>