<svg width="132" height="138" xmlns="http://www.w3.org/2000/svg"><g fill="none" fill-rule="evenodd"><g stroke-linecap="square"><path d="M65.13 58.45l19.18 8.64" stroke="#4FAB00" stroke-width="1.7"/><path d="M84.33 68.27L65.47 59.4" stroke="#3E8800" stroke-width=".7"/></g><path fill="#50AC02" d="M62.35 67.93l-.06 5.47v13l2.88-3 4.52-4.68 5.13-5.32V60.27l-.05-5.45z"/><path fill="#58BF00" d="M46.95 61.1l15.39 6.83 12.43-12.95-15.43-6.69z"/><path fill="#8AD500" d="M46.74 61l15.6 6.93-.02 18.64-15.58-7.38z"/><path fill="#50AC02" d="M92.67 73.13l-.04 3.63v8.61l1.9-1.98 3-3.11 3.4-3.52v-8.7l-.03-3.61z"/><path fill="#58BF00" d="M82.46 68.6l10.2 4.53 8.24-8.58-10.23-4.43z"/><path fill="#8AD500" d="M82.32 68.53l10.34 4.6V85.5l-10.34-4.9z"/><path fill="#4FAB00" d="M54.08 76.71L43.17 88.15l22.91 10.1-1.37.9-23.79-10.56 11.93-12.82z"/><path fill="#3E8800" d="M40.97 88.56v.87l23.62 10.45v-.8z"/><g stroke-linecap="square"><path d="M71.79 93.5l14.14-15.57" stroke="#4FAB00" stroke-width="1.7"/><path d="M87.05 78.27L72.8 93.47" stroke="#3E8800" stroke-width=".7"/></g><g><path fill="#50AC02" d="M71.45 99.33l-.03 2.61v6.21l1.37-1.43 2.16-2.24 2.46-2.54v-6.27l-.03-2.6z"/><path fill="#58BF00" d="M64.09 96.06l7.35 3.27 5.94-6.2-7.37-3.19z"/><path fill="#8AD500" d="M63.99 96.01l7.45 3.32v8.9l-7.45-3.52z"/></g><path fill="#3E8800" d="M54.07 76.71v1.02L43.9 88.5l-.8-.36z"/><g stroke="#BFC6D3" stroke-dasharray="5" stroke-linecap="square"><path d="M49.93 1.3l81.44 38.29v47.55l-50 50.3-80-37V51.83L49.92 1.31zM130 86.54l-24.74-11.45m-51.1-23.63l-4.18-1.93"/><path d="M50.09 3.04V50.6l-50 50.3"/><path d="M1.39 51.62l79 37 50.15-50.37M81.47 87.94v49"/></g><g><g stroke-linecap="square"><path d="M65.13 58.45l19.18 8.64" stroke="#4FAB00" stroke-width="1.7"/><path d="M84.33 68.27L65.47 59.4" stroke="#3E8800" stroke-width=".7"/></g><path fill="#50AC02" d="M62.35 67.93l-.06 5.47v13l2.88-3 4.52-4.68 5.13-5.32V60.27l-.05-5.45z"/><path fill="#58BF00" d="M46.95 61.1l15.39 6.83 12.43-12.95-15.43-6.69z"/><path fill="#8AD500" d="M46.74 61l15.6 6.93-.02 18.64-15.58-7.38z"/><path fill="#50AC02" d="M92.67 73.13l-.04 3.63v8.61l1.9-1.98 3-3.11 3.4-3.52v-8.7l-.03-3.61z"/><path fill="#58BF00" d="M82.46 68.6l10.2 4.53 8.24-8.58-10.23-4.43z"/><path fill="#8AD500" d="M82.32 68.53l10.34 4.6V85.5l-10.34-4.9z"/><path fill="#4FAB00" d="M54.08 76.71L43.17 88.15l22.91 10.1-1.37.9-23.79-10.56 11.93-12.82z"/><path fill="#3E8800" d="M40.97 88.56v.87l23.62 10.45v-.8z"/><g stroke-linecap="square"><path d="M71.79 93.5l14.14-15.57" stroke="#4FAB00" stroke-width="1.7"/><path d="M87.05 78.27L72.8 93.47" stroke="#3E8800" stroke-width=".7"/></g><g><path fill="#50AC02" d="M71.45 99.33l-.03 2.61v6.21l1.37-1.43 2.16-2.24 2.46-2.54v-6.27l-.03-2.6z"/><path fill="#58BF00" d="M64.09 96.06l7.35 3.27 5.94-6.2-7.37-3.19z"/><path fill="#8AD500" d="M63.99 96.01l7.45 3.32v8.9l-7.45-3.52z"/></g><path fill="#3E8800" d="M54.07 76.71v1.02L43.9 88.5l-.8-.36z"/><g stroke="#BFC6D3" stroke-dasharray="5" stroke-linecap="square"><path d="M49.93 1.3l81.44 38.29v47.55l-50 50.3-80-37V51.83L49.92 1.31zM130 86.54l-24.74-11.45m-51.1-23.63l-4.18-1.93"/><path d="M50.09 3.04V50.6l-50 50.3"/><path d="M1.39 51.62l79 37 50.15-50.37M81.47 87.94v49"/></g></g><g><g stroke-linecap="square"><path d="M65.13 58.45l19.18 8.64" stroke="#4FAB00" stroke-width="1.7"/><path d="M84.33 68.27L65.47 59.4" stroke="#3E8800" stroke-width=".7"/></g><path fill="#50AC02" d="M62.35 67.93l-.06 5.47v13l2.88-3 4.52-4.68 5.13-5.32V60.27l-.05-5.45z"/><path fill="#58BF00" d="M46.95 61.1l15.39 6.83 12.43-12.95-15.43-6.69z"/><path fill="#8AD500" d="M46.74 61l15.6 6.93-.02 18.64-15.58-7.38z"/><path fill="#50AC02" d="M92.67 73.13l-.04 3.63v8.61l1.9-1.98 3-3.11 3.4-3.52v-8.7l-.03-3.61z"/><path fill="#58BF00" d="M82.46 68.6l10.2 4.53 8.24-8.58-10.23-4.43z"/><path fill="#8AD500" d="M82.32 68.53l10.34 4.6V85.5l-10.34-4.9z"/><path fill="#4FAB00" d="M54.08 76.71L43.17 88.15l22.91 10.1-1.37.9-23.79-10.56 11.93-12.82z"/><path fill="#3E8800" d="M40.97 88.56v.87l23.62 10.45v-.8z"/><g stroke-linecap="square"><path d="M71.79 93.5l14.14-15.57" stroke="#4FAB00" stroke-width="1.7"/><path d="M87.05 78.27L72.8 93.47" stroke="#3E8800" stroke-width=".7"/></g><g><path fill="#50AC02" d="M71.45 99.33l-.03 2.61v6.21l1.37-1.43 2.16-2.24 2.46-2.54v-6.27l-.03-2.6z"/><path fill="#58BF00" d="M64.09 96.06l7.35 3.27 5.94-6.2-7.37-3.19z"/><path fill="#8AD500" d="M63.99 96.01l7.45 3.32v8.9l-7.45-3.52z"/></g><path fill="#3E8800" d="M54.07 76.71v1.02L43.9 88.5l-.8-.36z"/><g stroke="#BFC6D3" stroke-dasharray="5" stroke-linecap="square"><path d="M49.93 1.3l81.44 38.29v47.55l-50 50.3-80-37V51.83L49.92 1.31zM130 86.54l-24.74-11.45m-51.1-23.63l-4.18-1.93"/><path d="M50.09 3.04V50.6l-50 50.3"/><path d="M1.39 51.62l79 37 50.15-50.37M81.47 87.94v49"/></g></g></g></svg>