<?xml version="1.0" encoding="utf-8"?>
<!-- Generator: Adobe Illustrator 22.1.0, SVG Export Plug-In . SVG Version: 6.00 Build 0)  -->
<svg version="1.1" id="Layer_1" xmlns="http://www.w3.org/2000/svg" xmlns:xlink="http://www.w3.org/1999/xlink" x="0px" y="0px"
	 viewBox="0 0 396.2 396.2" style="enable-background:new 0 0 396.2 396.2;" xml:space="preserve">
<style type="text/css">
	.st0{fill:#E0E0E0;}
	.st1{fill:#FFFFFF;}
	.st2{fill:#478E0A;}
	.st3{fill:#8AD500;}
	.st4{fill:#B4E700;}
	.st5{fill:#4FBF9F;}
</style>
<circle class="st0" cx="197.8" cy="197.8" r="194.7"/>
<circle class="st1" cx="67.4" cy="34" r="27.8"/>
<path class="st2" d="M67.4,68.6c-18.6,0-34-15.5-34-34s15.5-33.9,34-33.9s34,15.5,34,34C102,53.1,86.6,68.6,67.4,68.6z M67.4,12.3
	c-11.8,0-21.7,9.9-21.7,21.7s10,22.2,21.7,22.2S89,46.3,89,34.6S79.8,12.3,67.4,12.3z"/>
<path class="st3" d="M90.2,82.8L90.2,82.8C83.5,85.9,76,87.1,68,87.1s-15.5-1.9-22.2-4.3l0,0l0,0c-21.7,0-38.9,17.3-38.9,38.9V168
	c0,1.2,1.2,2.5,2.5,2.5h117.4c1.2,0,2.5-1.2,2.5-2.5v-46.4C129.2,100.1,111.9,82.8,90.2,82.8z"/>
<path class="st2" d="M126.7,177.4H9.2c-5.6,0-9.2-4.3-9.2-9.2v-46.4C0,97,20.4,76.6,45.1,76.6h1.2l1.2,0.6c13,5.6,27.2,5.6,40.2,0
	l1.2-0.6h1.2c25.3,0,45.1,20.4,45.1,45.1v46.4C135.4,173.1,131.7,177.4,126.7,177.4z M12.3,165H123v-43.2
	c0-17.9-14.2-32.1-31.5-32.8c-14.8,6.2-32.1,6.2-47,0c-17.9,0.6-32.1,14.8-32.1,32.8C12.3,121.8,12.3,165,12.3,165z"/>
<circle class="st1" cx="327.6" cy="85.9" r="27.8"/>
<path class="st2" d="M327.6,120.5c-18.6,0-34-15.5-34-34s15.5-34.7,34-34.7c18.6,0,34,15.5,34,34S346.8,120.5,327.6,120.5z
	 M327.6,64.2c-11.8,0-21.7,9.9-21.7,21.7s9.9,21.7,21.7,21.7c11.8,0,21.7-9.9,21.7-21.7S340,64.2,327.6,64.2z"/>
<path class="st4" d="M350.5,134.8L350.5,134.8c-6.8,3.1-14.2,4.3-22.2,4.3c-8,0-15.5-1.9-22.2-4.3l0,0l0,0
	c-21.7,0-38.9,17.3-38.9,38.9V220c0,1.2,1.2,2.5,2.5,2.5H387c1.2,0,2.5-1.2,2.5-2.5v-46.4C389.4,152,372.2,134.8,350.5,134.8z"/>
<path class="st2" d="M387,229.3H269.5c-4.9,0-8.7-3.7-8.7-8.7v-46.4c0-24.8,20.4-45.1,45.1-45.1h1.2l1.2,0.6c13,5.6,27.2,5.6,40.2,0
	l1.2-0.6h1.2c25.3,0,45.1,20.4,45.1,45.1v46.4C395.6,225,392,229.3,387,229.3z M272.6,216.9h110.7v-43.2c0-17.9-14.2-32.1-32.1-32.8
	c-14.9,6.2-32.1,6.2-47,0c-17.9,0.6-32.1,14.8-32.1,32.8v43.2H272.6z"/>
<circle class="st1" cx="173.1" cy="252.8" r="27.8"/>
<path class="st2" d="M173.1,286.8c-18.6,0-34-15.5-34-34s15.5-34,34-34s34,15.5,34,34C207.7,271.4,192.3,286.8,173.1,286.8z
	 M173.1,230.6c-11.8,0-21.7,9.9-21.7,21.7s9.9,21.7,21.7,21.7s21.7-9.9,21.7-21.7S185.5,230.6,173.1,230.6z"/>
<path class="st5" d="M195.9,301L195.9,301c-6.8,3.1-14.2,4.3-22.2,4.3s-15.5-1.9-22.2-4.3l0,0l0,0c-21.7,0-38.9,17.3-38.9,38.9v46.4
	c0,1.2,1.2,2.5,2.5,2.5h117.5c1.2,0,2.5-1.2,2.5-2.5v-46.4C234.9,318.4,217,301,195.9,301z"/>
<g>
	<path class="st2" d="M232.4,395.6H115c-4.9,0-8.7-3.7-8.7-8.7v-47c0-24.8,20.4-45.1,45.1-45.1h1.2l1.2,0.6c13,5.6,27.2,5.6,40.2,0
		l1.2-0.6h1.2c25.3,0,45.1,20.4,45.1,45.1v46.4C241.1,391.9,236.7,395.6,232.4,395.6z M118,383.3h110.7V340
		c0-17.9-14.2-32.1-32.1-32.8c-14.9,6.2-32.1,6.2-47,0c-17.9,0.6-32.1,14.9-32.1,32.8v43.2H118z"/>
	<path class="st2" d="M299.2,325.7c19.1-20.4,32.1-45.8,37.1-72.9l-12.3-2.5c-4.9,26-17.3,50.1-35.9,68.6l-1.9-22.2l-12.3,1.2
		l4.9,42l42-4.9l-1.2-12.3L299.2,325.7z"/>
	<path class="st2" d="M242.9,37.1l-9.9,7.4l12.3,16.1c-27.2-6.2-55.7-5-81.6,4.3l4.3,11.8c24.8-8.7,51.9-9.9,77.3-3.1l-17.9,13.6
		l7.4,9.9l34-25.3L242.9,37.1z"/>
	<path class="st2" d="M53.8,234.2l20.4,8.7l5-11.1l-38.9-16.7L23.5,254l11.1,4.9l8.1-18.5c8,26.6,23.5,50.7,44.5,68.6l8-9.2
		C75.4,282.5,61.2,259.6,53.8,234.2z"/>
	<rect x="147.7" y="339.4" class="st2" width="12.3" height="12.3"/>
	<rect x="186.7" y="339.4" class="st2" width="12.3" height="12.3"/>
	<rect x="302.3" y="172.4" class="st2" width="12.3" height="12.3"/>
	<rect x="341.3" y="172.4" class="st2" width="12.3" height="12.3"/>
	<rect x="42" y="120.5" class="st2" width="12.3" height="12.3"/>
	<rect x="81" y="120.5" class="st2" width="12.3" height="12.3"/>
</g>
</svg>
