<?xml version="1.0" encoding="UTF-8"?>
<svg width="132px" height="138px" viewBox="0 0 132 138" version="1.1" xmlns="http://www.w3.org/2000/svg" xmlns:xlink="http://www.w3.org/1999/xlink">
    <!-- Generator: Sketch 50.2 (55047) - http://www.bohemiancoding.com/sketch -->
    <title>Group 67</title>
    <desc>Created with Sketch.</desc>
    <defs></defs>
    <g id="Page-1" stroke="none" stroke-width="1" fill="none" fill-rule="evenodd">
        <g id="首页编辑版" transform="translate(-363.000000, -2747.000000)">
            <g id="Group-67" transform="translate(361.000000, 2746.000000)">
                <g id="交易机制" transform="translate(0.757429, 0.817111)">
                    <g transform="translate(51.036144, 36.151503)">
                        <g id="Group-32" transform="translate(32.238109, 48.146727)">
                            <g id="Group-24" transform="translate(0.231957, 0.068417)">
                                <polygon id="Path-17" fill="#58BF00" transform="translate(2.840717, 2.167721) rotate(-9.000000) translate(-2.840717, -2.167721) " points="0.388186559 2.0451821 2.94355288 3.89653663 5.29324705 2.08867922 2.73708236 0.43890596"></polygon>
                                <polygon id="Path-15" fill="#8AD500" points="0.406346567 2.41026849 3.21029886 3.85679262 3.21029886 7.67782754 0.406346567 6.30374129"></polygon>
                                <polygon id="Path-16" fill="#50AC02" points="3.21971665 3.85747975 3.18631231 3.77572486 3.18631231 7.6769216 5.27885694 5.56901359 5.24888256 1.68240014"></polygon>
                            </g>
                        </g>
                        <g id="Group-32" transform="translate(25.421504, 49.004673)">
                            <g id="Group-24" transform="translate(0.348658, 0.102839)">
                                <polygon id="Path-17" fill="#58BF00" transform="translate(4.269921, 3.258332) rotate(-9.000000) translate(-4.269921, -3.258332) " points="0.583488611 3.07414163 4.42449524 5.85693835 7.95635319 3.13952276 4.11414653 0.659725646"></polygon>
                                <polygon id="Path-15" fill="#8AD500" points="0.610785171 3.62290806 4.82544482 5.79719857 4.82544482 11.5406493 0.610785171 9.47524112"></polygon>
                                <polygon id="Path-16" fill="#50AC02" points="4.83960084 5.79823141 4.78939031 5.6753445 4.78939031 11.5392875 7.93472322 8.37086171 7.88966831 2.52883903"></polygon>
                            </g>
                        </g>
                        <g id="Group-32" transform="translate(26.098102, 57.981208)">
                            <g id="Group-24" transform="translate(0.113841, 0.033578)">
                                <polygon id="Path-17" fill="#58BF00" transform="translate(1.394182, 1.063886) rotate(-9.000000) translate(-1.394182, -1.063886) " points="0.190516313 1.00374561 1.44465291 1.91236346 2.59784861 1.02509336 1.34332019 0.215408657"></polygon>
                                <polygon id="Path-15" fill="#8AD500" points="0.199428981 1.18292469 1.57556795 1.89285768 1.57556795 3.76816601 0.199428981 3.09378448"></polygon>
                                <polygon id="Path-16" fill="#50AC02" points="1.58019007 1.89319492 1.56379571 1.85307081 1.56379571 3.76772139 2.59078615 2.73319081 2.57607517 0.825697503"></polygon>
                            </g>
                        </g>
                        <g id="Group-32" transform="translate(0.838146, 0.684568)">
                            <g id="Group-24" transform="translate(0.522483, 0.154110)">
                                <polygon id="Path-17" fill="#58BF00" transform="translate(22.937550, 12.688500) rotate(-9.000000) translate(-22.937550, -12.688500) " points="8.92192178 19.1363791 14.677886 23.3065563 36.9531786 6.05119916 31.1090106 2.07044376"></polygon>
                                <polygon id="Path-8" fill="#A9E834" points="18.6382299 41.1873978 15.076648 52.7448953 4.09368505 47.3213587 10.0401835 36.9883614"></polygon>
                                <polygon id="Path-15" fill="#8AD500" points="10.1351173 21.1347786 16.4510216 24.3930751 16.4367549 43.4161014 10.1351173 39.549049"></polygon>
                                <polygon id="Path-9" fill="#3E8007" points="17.2462198 45.5500257 12.3588142 42.5435972 12.3588142 40.8880882 16.503535 43.219057 18.708967 40.8880882"></polygon>
                                <polygon id="Path-17" fill="#58BF00" transform="translate(6.814940, 29.870419) rotate(-9.000000) translate(-6.814940, -29.870419) " points="0.838089529 30.1043813 6.59405372 34.2745585 12.7917904 29.4470345 6.94762243 25.4662791"></polygon>
                                <polygon id="Path-15" fill="#8AD500" points="0.915295888 30.9032888 7.23120012 34.1615853 7.21693352 73.5733142 0.915295888 69.7062617"></polygon>
                                <polygon id="Path-15" fill="#8AD500" points="25.1885764 23.9272258 31.490214 27.2601221 31.490214 47.9534395 25.1885764 44.086387"></polygon>
                                <polygon id="Path-16" fill="#50AC02" points="7.25241371 34.1631331 7.1771704 73.6660394 27.7371155 52.0693484 27.7371155 31.4694708 26.2422166 33.1390628 29.0851901 22.4032382 32.9953559 25.4847902 31.4808571 27.2646658 31.4808571 48.1368266 35.8071262 43.5924032 35.7362952 3.88128049 16.4347627 24.3429197 16.4347627 43.4274648 18.5603994 41.2145128 15.0055343 52.7448953 10.4954552 49.7294721 12.5449713 47.5906656 12.5449713 28.5477246"></polygon>
                            </g>
                        </g>
                        <polygon id="Path-10" fill="#3E8007" points="34.3578717 26.3274451 30.1183456 24.4460138 30.4077816 23.1509853"></polygon>
                        <polygon id="Path-17" fill="#58BF00" transform="translate(31.935799, 26.186966) rotate(-9.000000) translate(-31.935799, -26.186966) " points="29.5635385 26.1366226 32.528382 28.2240186 34.3080587 26.7045181 30.4015107 24.1499131"></polygon>
                        <polygon id="Path-17" fill="#58BF00" transform="translate(28.294150, 32.817246) rotate(-9.000000) translate(-28.294150, -32.817246) " points="27.4311715 33.8516746 29.1571284 32.4513519 28.3384008 31.7828167"></polygon>
                        <g id="Group-32" transform="translate(7.887881, 13.151157)">
                            <g id="Group-24" transform="translate(0.348658, 0.102839)">
                                <polygon id="Path-17" fill="#58BF00" transform="translate(4.269921, 3.258332) rotate(-9.000000) translate(-4.269921, -3.258332) " points="0.583488611 3.07414163 4.42449524 5.85693835 7.95635319 3.13952276 4.11414653 0.659725646"></polygon>
                                <polygon id="Path-15" fill="#8AD500" points="0.610785171 3.62290806 4.82544482 5.79719857 4.82544482 11.5406493 0.610785171 9.47524112"></polygon>
                                <polygon id="Path-16" fill="#50AC02" points="4.83960084 5.79823141 4.78939031 5.6753445 4.78939031 11.5392875 7.93472322 8.37086171 7.88966831 2.52883903"></polygon>
                            </g>
                        </g>
                        <g id="Group-32" transform="translate(7.887881, 13.151157)">
                            <g id="Group-24" transform="translate(0.348658, 0.102839)">
                                <polygon id="Path-17" fill="#58BF00" transform="translate(4.269921, 3.258332) rotate(-9.000000) translate(-4.269921, -3.258332) " points="0.583488611 3.07414163 4.42449524 5.85693835 7.95635319 3.13952276 4.11414653 0.659725646"></polygon>
                                <polygon id="Path-15" fill="#8AD500" points="0.610785171 3.62290806 4.82544482 5.79719857 4.82544482 11.5406493 0.610785171 9.47524112"></polygon>
                                <polygon id="Path-16" fill="#50AC02" points="4.83960084 5.79823141 4.78939031 5.6753445 4.78939031 11.5392875 7.93472322 8.37086171 7.88966831 2.52883903"></polygon>
                            </g>
                        </g>
                        <g id="Group-32" transform="translate(4.691664, 14.053415)">
                            <g id="Group-24" transform="translate(0.231957, 0.068417)">
                                <polygon id="Path-17" fill="#58BF00" transform="translate(2.840717, 2.167721) rotate(-9.000000) translate(-2.840717, -2.167721) " points="0.388186559 2.0451821 2.94355288 3.89653663 5.29324705 2.08867922 2.73708236 0.43890596"></polygon>
                                <polygon id="Path-15" fill="#8AD500" points="0.406346567 2.41026849 3.21029886 3.85679262 3.21029886 7.67782754 0.406346567 6.30374129"></polygon>
                                <polygon id="Path-16" fill="#50AC02" points="3.21971665 3.85747975 3.18631231 3.77572486 3.18631231 7.6769216 5.27885694 5.56901359 5.24888256 1.68240014"></polygon>
                            </g>
                        </g>
                        <g id="Group-32" transform="translate(4.311221, 22.103958)">
                            <g id="Group-24" transform="translate(0.113841, 0.033578)">
                                <polygon id="Path-17" fill="#58BF00" transform="translate(1.394182, 1.063886) rotate(-9.000000) translate(-1.394182, -1.063886) " points="0.190516313 1.00374561 1.44465291 1.91236346 2.59784861 1.02509336 1.34332019 0.215408657"></polygon>
                                <polygon id="Path-15" fill="#8AD500" points="0.199428981 1.18292469 1.57556795 1.89285768 1.57556795 3.76816601 0.199428981 3.09378448"></polygon>
                                <polygon id="Path-16" fill="#50AC02" points="1.58019007 1.89319492 1.56379571 1.85307081 1.56379571 3.76772139 2.59078615 2.73319081 2.57607517 0.825697503"></polygon>
                            </g>
                        </g>
                    </g>
                    <g id="waikuang" transform="translate(0.585130, 0.735438)" stroke="#BFC6D3" stroke-dasharray="5" stroke-linecap="square">
                        <path d="M49.9624712,0.867873161 L131.403566,39.1462207 L131.403566,86.7011056 L81.405554,137.006262 L1.39473207,99.9969811 L1.39473207,51.3905019 L49.9624712,0.867873161 Z" id="Line-27"></path>
                        <path d="M130.028319,86.098339 L88.9700625,66.6828394 M54.1888906,51.0185508 L50.0174971,49.0890584" id="Line-27"></path>
                        <path d="M50.1182382,2.60386589 L50.1182382,50.1587508 L0.120226006,100.463907" id="Line-27"></path>
                        <path d="M1.42082808,51.1796748 L80.4208281,88.1796748 L130.569071,37.8107284" id="Line"></path>
                        <path d="M81.5,87.5 L81.5,136.5" id="Line-2"></path>
                    </g>
                </g>
                <g id="交易机制" transform="translate(0.757429, 0.817111)">
                    <g transform="translate(51.036144, 36.151503)">
                        <g id="Group-32" transform="translate(32.238109, 48.146727)">
                            <g id="Group-24" transform="translate(0.231957, 0.068417)">
                                <polygon id="Path-17" fill="#58BF00" transform="translate(2.840717, 2.167721) rotate(-9.000000) translate(-2.840717, -2.167721) " points="0.388186559 2.0451821 2.94355288 3.89653663 5.29324705 2.08867922 2.73708236 0.43890596"></polygon>
                                <polygon id="Path-15" fill="#8AD500" points="0.406346567 2.41026849 3.21029886 3.85679262 3.21029886 7.67782754 0.406346567 6.30374129"></polygon>
                                <polygon id="Path-16" fill="#50AC02" points="3.21971665 3.85747975 3.18631231 3.77572486 3.18631231 7.6769216 5.27885694 5.56901359 5.24888256 1.68240014"></polygon>
                            </g>
                        </g>
                        <g id="Group-32" transform="translate(25.421504, 49.004673)">
                            <g id="Group-24" transform="translate(0.348658, 0.102839)">
                                <polygon id="Path-17" fill="#58BF00" transform="translate(4.269921, 3.258332) rotate(-9.000000) translate(-4.269921, -3.258332) " points="0.583488611 3.07414163 4.42449524 5.85693835 7.95635319 3.13952276 4.11414653 0.659725646"></polygon>
                                <polygon id="Path-15" fill="#8AD500" points="0.610785171 3.62290806 4.82544482 5.79719857 4.82544482 11.5406493 0.610785171 9.47524112"></polygon>
                                <polygon id="Path-16" fill="#50AC02" points="4.83960084 5.79823141 4.78939031 5.6753445 4.78939031 11.5392875 7.93472322 8.37086171 7.88966831 2.52883903"></polygon>
                            </g>
                        </g>
                        <g id="Group-32" transform="translate(26.098102, 57.981208)">
                            <g id="Group-24" transform="translate(0.113841, 0.033578)">
                                <polygon id="Path-17" fill="#58BF00" transform="translate(1.394182, 1.063886) rotate(-9.000000) translate(-1.394182, -1.063886) " points="0.190516313 1.00374561 1.44465291 1.91236346 2.59784861 1.02509336 1.34332019 0.215408657"></polygon>
                                <polygon id="Path-15" fill="#8AD500" points="0.199428981 1.18292469 1.57556795 1.89285768 1.57556795 3.76816601 0.199428981 3.09378448"></polygon>
                                <polygon id="Path-16" fill="#50AC02" points="1.58019007 1.89319492 1.56379571 1.85307081 1.56379571 3.76772139 2.59078615 2.73319081 2.57607517 0.825697503"></polygon>
                            </g>
                        </g>
                        <g id="Group-32" transform="translate(0.838146, 0.684568)">
                            <g id="Group-24" transform="translate(0.522483, 0.154110)">
                                <polygon id="Path-17" fill="#58BF00" transform="translate(22.937550, 12.688500) rotate(-9.000000) translate(-22.937550, -12.688500) " points="8.92192178 19.1363791 14.677886 23.3065563 36.9531786 6.05119916 31.1090106 2.07044376"></polygon>
                                <polygon id="Path-8" fill="#A9E834" points="18.6382299 41.1873978 15.076648 52.7448953 4.09368505 47.3213587 10.0401835 36.9883614"></polygon>
                                <polygon id="Path-15" fill="#8AD500" points="10.1351173 21.1347786 16.4510216 24.3930751 16.4367549 43.4161014 10.1351173 39.549049"></polygon>
                                <polygon id="Path-9" fill="#3E8007" points="17.2462198 45.5500257 12.3588142 42.5435972 12.3588142 40.8880882 16.503535 43.219057 18.708967 40.8880882"></polygon>
                                <polygon id="Path-17" fill="#58BF00" transform="translate(6.814940, 29.870419) rotate(-9.000000) translate(-6.814940, -29.870419) " points="0.838089529 30.1043813 6.59405372 34.2745585 12.7917904 29.4470345 6.94762243 25.4662791"></polygon>
                                <polygon id="Path-15" fill="#8AD500" points="0.915295888 30.9032888 7.23120012 34.1615853 7.21693352 73.5733142 0.915295888 69.7062617"></polygon>
                                <polygon id="Path-15" fill="#8AD500" points="25.1885764 23.9272258 31.490214 27.2601221 31.490214 47.9534395 25.1885764 44.086387"></polygon>
                                <polygon id="Path-16" fill="#50AC02" points="7.25241371 34.1631331 7.1771704 73.6660394 27.7371155 52.0693484 27.7371155 31.4694708 26.2422166 33.1390628 29.0851901 22.4032382 32.9953559 25.4847902 31.4808571 27.2646658 31.4808571 48.1368266 35.8071262 43.5924032 35.7362952 3.88128049 16.4347627 24.3429197 16.4347627 43.4274648 18.5603994 41.2145128 15.0055343 52.7448953 10.4954552 49.7294721 12.5449713 47.5906656 12.5449713 28.5477246"></polygon>
                            </g>
                        </g>
                        <polygon id="Path-10" fill="#3E8007" points="34.3578717 26.3274451 30.1183456 24.4460138 30.4077816 23.1509853"></polygon>
                        <polygon id="Path-17" fill="#58BF00" transform="translate(31.935799, 26.186966) rotate(-9.000000) translate(-31.935799, -26.186966) " points="29.5635385 26.1366226 32.528382 28.2240186 34.3080587 26.7045181 30.4015107 24.1499131"></polygon>
                        <polygon id="Path-17" fill="#58BF00" transform="translate(28.294150, 32.817246) rotate(-9.000000) translate(-28.294150, -32.817246) " points="27.4311715 33.8516746 29.1571284 32.4513519 28.3384008 31.7828167"></polygon>
                        <g id="Group-32" transform="translate(7.887881, 13.151157)">
                            <g id="Group-24" transform="translate(0.348658, 0.102839)">
                                <polygon id="Path-17" fill="#58BF00" transform="translate(4.269921, 3.258332) rotate(-9.000000) translate(-4.269921, -3.258332) " points="0.583488611 3.07414163 4.42449524 5.85693835 7.95635319 3.13952276 4.11414653 0.659725646"></polygon>
                                <polygon id="Path-15" fill="#8AD500" points="0.610785171 3.62290806 4.82544482 5.79719857 4.82544482 11.5406493 0.610785171 9.47524112"></polygon>
                                <polygon id="Path-16" fill="#50AC02" points="4.83960084 5.79823141 4.78939031 5.6753445 4.78939031 11.5392875 7.93472322 8.37086171 7.88966831 2.52883903"></polygon>
                            </g>
                        </g>
                        <g id="Group-32" transform="translate(7.887881, 13.151157)">
                            <g id="Group-24" transform="translate(0.348658, 0.102839)">
                                <polygon id="Path-17" fill="#58BF00" transform="translate(4.269921, 3.258332) rotate(-9.000000) translate(-4.269921, -3.258332) " points="0.583488611 3.07414163 4.42449524 5.85693835 7.95635319 3.13952276 4.11414653 0.659725646"></polygon>
                                <polygon id="Path-15" fill="#8AD500" points="0.610785171 3.62290806 4.82544482 5.79719857 4.82544482 11.5406493 0.610785171 9.47524112"></polygon>
                                <polygon id="Path-16" fill="#50AC02" points="4.83960084 5.79823141 4.78939031 5.6753445 4.78939031 11.5392875 7.93472322 8.37086171 7.88966831 2.52883903"></polygon>
                            </g>
                        </g>
                        <g id="Group-32" transform="translate(4.691664, 14.053415)">
                            <g id="Group-24" transform="translate(0.231957, 0.068417)">
                                <polygon id="Path-17" fill="#58BF00" transform="translate(2.840717, 2.167721) rotate(-9.000000) translate(-2.840717, -2.167721) " points="0.388186559 2.0451821 2.94355288 3.89653663 5.29324705 2.08867922 2.73708236 0.43890596"></polygon>
                                <polygon id="Path-15" fill="#8AD500" points="0.406346567 2.41026849 3.21029886 3.85679262 3.21029886 7.67782754 0.406346567 6.30374129"></polygon>
                                <polygon id="Path-16" fill="#50AC02" points="3.21971665 3.85747975 3.18631231 3.77572486 3.18631231 7.6769216 5.27885694 5.56901359 5.24888256 1.68240014"></polygon>
                            </g>
                        </g>
                        <g id="Group-32" transform="translate(4.311221, 22.103958)">
                            <g id="Group-24" transform="translate(0.113841, 0.033578)">
                                <polygon id="Path-17" fill="#58BF00" transform="translate(1.394182, 1.063886) rotate(-9.000000) translate(-1.394182, -1.063886) " points="0.190516313 1.00374561 1.44465291 1.91236346 2.59784861 1.02509336 1.34332019 0.215408657"></polygon>
                                <polygon id="Path-15" fill="#8AD500" points="0.199428981 1.18292469 1.57556795 1.89285768 1.57556795 3.76816601 0.199428981 3.09378448"></polygon>
                                <polygon id="Path-16" fill="#50AC02" points="1.58019007 1.89319492 1.56379571 1.85307081 1.56379571 3.76772139 2.59078615 2.73319081 2.57607517 0.825697503"></polygon>
                            </g>
                        </g>
                    </g>
                    <g id="waikuang" transform="translate(0.585130, 0.735438)" stroke="#BFC6D3" stroke-dasharray="5" stroke-linecap="square">
                        <path d="M49.9624712,0.867873161 L131.403566,39.1462207 L131.403566,86.7011056 L81.405554,137.006262 L1.39473207,99.9969811 L1.39473207,51.3905019 L49.9624712,0.867873161 Z" id="Line-27"></path>
                        <path d="M130.028319,86.098339 L88.9700625,66.6828394 M54.1888906,51.0185508 L50.0174971,49.0890584" id="Line-27"></path>
                        <path d="M50.1182382,2.60386589 L50.1182382,50.1587508 L0.120226006,100.463907" id="Line-27"></path>
                        <path d="M1.42082808,51.1796748 L80.4208281,88.1796748 L130.569071,37.8107284" id="Line"></path>
                        <path d="M81.5,87.5 L81.5,136.5" id="Line-2"></path>
                    </g>
                </g>
                <g id="交易机制" transform="translate(0.757429, 0.817111)">
                    <g transform="translate(51.036144, 36.151503)">
                        <g id="Group-32" transform="translate(32.238109, 48.146727)">
                            <g id="Group-24" transform="translate(0.231957, 0.068417)">
                                <polygon id="Path-17" fill="#58BF00" transform="translate(2.840717, 2.167721) rotate(-9.000000) translate(-2.840717, -2.167721) " points="0.388186559 2.0451821 2.94355288 3.89653663 5.29324705 2.08867922 2.73708236 0.43890596"></polygon>
                                <polygon id="Path-15" fill="#8AD500" points="0.406346567 2.41026849 3.21029886 3.85679262 3.21029886 7.67782754 0.406346567 6.30374129"></polygon>
                                <polygon id="Path-16" fill="#50AC02" points="3.21971665 3.85747975 3.18631231 3.77572486 3.18631231 7.6769216 5.27885694 5.56901359 5.24888256 1.68240014"></polygon>
                            </g>
                        </g>
                        <g id="Group-32" transform="translate(25.421504, 49.004673)">
                            <g id="Group-24" transform="translate(0.348658, 0.102839)">
                                <polygon id="Path-17" fill="#58BF00" transform="translate(4.269921, 3.258332) rotate(-9.000000) translate(-4.269921, -3.258332) " points="0.583488611 3.07414163 4.42449524 5.85693835 7.95635319 3.13952276 4.11414653 0.659725646"></polygon>
                                <polygon id="Path-15" fill="#8AD500" points="0.610785171 3.62290806 4.82544482 5.79719857 4.82544482 11.5406493 0.610785171 9.47524112"></polygon>
                                <polygon id="Path-16" fill="#50AC02" points="4.83960084 5.79823141 4.78939031 5.6753445 4.78939031 11.5392875 7.93472322 8.37086171 7.88966831 2.52883903"></polygon>
                            </g>
                        </g>
                        <g id="Group-32" transform="translate(26.098102, 57.981208)">
                            <g id="Group-24" transform="translate(0.113841, 0.033578)">
                                <polygon id="Path-17" fill="#58BF00" transform="translate(1.394182, 1.063886) rotate(-9.000000) translate(-1.394182, -1.063886) " points="0.190516313 1.00374561 1.44465291 1.91236346 2.59784861 1.02509336 1.34332019 0.215408657"></polygon>
                                <polygon id="Path-15" fill="#8AD500" points="0.199428981 1.18292469 1.57556795 1.89285768 1.57556795 3.76816601 0.199428981 3.09378448"></polygon>
                                <polygon id="Path-16" fill="#50AC02" points="1.58019007 1.89319492 1.56379571 1.85307081 1.56379571 3.76772139 2.59078615 2.73319081 2.57607517 0.825697503"></polygon>
                            </g>
                        </g>
                        <g id="Group-32" transform="translate(0.838146, 0.684568)">
                            <g id="Group-24" transform="translate(0.522483, 0.154110)">
                                <polygon id="Path-17" fill="#58BF00" transform="translate(22.937550, 12.688500) rotate(-9.000000) translate(-22.937550, -12.688500) " points="8.92192178 19.1363791 14.677886 23.3065563 36.9531786 6.05119916 31.1090106 2.07044376"></polygon>
                                <polygon id="Path-8" fill="#A9E834" points="18.6382299 41.1873978 15.076648 52.7448953 4.09368505 47.3213587 10.0401835 36.9883614"></polygon>
                                <polygon id="Path-15" fill="#8AD500" points="10.1351173 21.1347786 16.4510216 24.3930751 16.4367549 43.4161014 10.1351173 39.549049"></polygon>
                                <polygon id="Path-9" fill="#3E8007" points="17.2462198 45.5500257 12.3588142 42.5435972 12.3588142 40.8880882 16.503535 43.219057 18.708967 40.8880882"></polygon>
                                <polygon id="Path-17" fill="#58BF00" transform="translate(6.814940, 29.870419) rotate(-9.000000) translate(-6.814940, -29.870419) " points="0.838089529 30.1043813 6.59405372 34.2745585 12.7917904 29.4470345 6.94762243 25.4662791"></polygon>
                                <polygon id="Path-15" fill="#8AD500" points="0.915295888 30.9032888 7.23120012 34.1615853 7.21693352 73.5733142 0.915295888 69.7062617"></polygon>
                                <polygon id="Path-15" fill="#8AD500" points="25.1885764 23.9272258 31.490214 27.2601221 31.490214 47.9534395 25.1885764 44.086387"></polygon>
                                <polygon id="Path-16" fill="#50AC02" points="7.25241371 34.1631331 7.1771704 73.6660394 27.7371155 52.0693484 27.7371155 31.4694708 26.2422166 33.1390628 29.0851901 22.4032382 32.9953559 25.4847902 31.4808571 27.2646658 31.4808571 48.1368266 35.8071262 43.5924032 35.7362952 3.88128049 16.4347627 24.3429197 16.4347627 43.4274648 18.5603994 41.2145128 15.0055343 52.7448953 10.4954552 49.7294721 12.5449713 47.5906656 12.5449713 28.5477246"></polygon>
                            </g>
                        </g>
                        <polygon id="Path-10" fill="#3E8007" points="34.3578717 26.3274451 30.1183456 24.4460138 30.4077816 23.1509853"></polygon>
                        <polygon id="Path-17" fill="#58BF00" transform="translate(31.935799, 26.186966) rotate(-9.000000) translate(-31.935799, -26.186966) " points="29.5635385 26.1366226 32.528382 28.2240186 34.3080587 26.7045181 30.4015107 24.1499131"></polygon>
                        <polygon id="Path-17" fill="#58BF00" transform="translate(28.294150, 32.817246) rotate(-9.000000) translate(-28.294150, -32.817246) " points="27.4311715 33.8516746 29.1571284 32.4513519 28.3384008 31.7828167"></polygon>
                        <g id="Group-32" transform="translate(7.887881, 13.151157)">
                            <g id="Group-24" transform="translate(0.348658, 0.102839)">
                                <polygon id="Path-17" fill="#58BF00" transform="translate(4.269921, 3.258332) rotate(-9.000000) translate(-4.269921, -3.258332) " points="0.583488611 3.07414163 4.42449524 5.85693835 7.95635319 3.13952276 4.11414653 0.659725646"></polygon>
                                <polygon id="Path-15" fill="#8AD500" points="0.610785171 3.62290806 4.82544482 5.79719857 4.82544482 11.5406493 0.610785171 9.47524112"></polygon>
                                <polygon id="Path-16" fill="#50AC02" points="4.83960084 5.79823141 4.78939031 5.6753445 4.78939031 11.5392875 7.93472322 8.37086171 7.88966831 2.52883903"></polygon>
                            </g>
                        </g>
                        <g id="Group-32" transform="translate(7.887881, 13.151157)">
                            <g id="Group-24" transform="translate(0.348658, 0.102839)">
                                <polygon id="Path-17" fill="#58BF00" transform="translate(4.269921, 3.258332) rotate(-9.000000) translate(-4.269921, -3.258332) " points="0.583488611 3.07414163 4.42449524 5.85693835 7.95635319 3.13952276 4.11414653 0.659725646"></polygon>
                                <polygon id="Path-15" fill="#8AD500" points="0.610785171 3.62290806 4.82544482 5.79719857 4.82544482 11.5406493 0.610785171 9.47524112"></polygon>
                                <polygon id="Path-16" fill="#50AC02" points="4.83960084 5.79823141 4.78939031 5.6753445 4.78939031 11.5392875 7.93472322 8.37086171 7.88966831 2.52883903"></polygon>
                            </g>
                        </g>
                        <g id="Group-32" transform="translate(4.691664, 14.053415)">
                            <g id="Group-24" transform="translate(0.231957, 0.068417)">
                                <polygon id="Path-17" fill="#58BF00" transform="translate(2.840717, 2.167721) rotate(-9.000000) translate(-2.840717, -2.167721) " points="0.388186559 2.0451821 2.94355288 3.89653663 5.29324705 2.08867922 2.73708236 0.43890596"></polygon>
                                <polygon id="Path-15" fill="#8AD500" points="0.406346567 2.41026849 3.21029886 3.85679262 3.21029886 7.67782754 0.406346567 6.30374129"></polygon>
                                <polygon id="Path-16" fill="#50AC02" points="3.21971665 3.85747975 3.18631231 3.77572486 3.18631231 7.6769216 5.27885694 5.56901359 5.24888256 1.68240014"></polygon>
                            </g>
                        </g>
                        <g id="Group-32" transform="translate(4.311221, 22.103958)">
                            <g id="Group-24" transform="translate(0.113841, 0.033578)">
                                <polygon id="Path-17" fill="#58BF00" transform="translate(1.394182, 1.063886) rotate(-9.000000) translate(-1.394182, -1.063886) " points="0.190516313 1.00374561 1.44465291 1.91236346 2.59784861 1.02509336 1.34332019 0.215408657"></polygon>
                                <polygon id="Path-15" fill="#8AD500" points="0.199428981 1.18292469 1.57556795 1.89285768 1.57556795 3.76816601 0.199428981 3.09378448"></polygon>
                                <polygon id="Path-16" fill="#50AC02" points="1.58019007 1.89319492 1.56379571 1.85307081 1.56379571 3.76772139 2.59078615 2.73319081 2.57607517 0.825697503"></polygon>
                            </g>
                        </g>
                    </g>
                    <g id="waikuang" transform="translate(0.585130, 0.735438)" stroke="#BFC6D3" stroke-dasharray="5" stroke-linecap="square">
                        <path d="M49.9624712,0.867873161 L131.403566,39.1462207 L131.403566,86.7011056 L81.405554,137.006262 L1.39473207,99.9969811 L1.39473207,51.3905019 L49.9624712,0.867873161 Z" id="Line-27"></path>
                        <path d="M130.028319,86.098339 L88.9700625,66.6828394 M54.1888906,51.0185508 L50.0174971,49.0890584" id="Line-27"></path>
                        <path d="M50.1182382,2.60386589 L50.1182382,50.1587508 L0.120226006,100.463907" id="Line-27"></path>
                        <path d="M1.42082808,51.1796748 L80.4208281,88.1796748 L130.569071,37.8107284" id="Line"></path>
                        <path d="M81.5,87.5 L81.5,136.5" id="Line-2"></path>
                    </g>
                </g>
            </g>
        </g>
    </g>
</svg>