<?xml version="1.0" encoding="UTF-8"?>
<svg width="132px" height="138px" viewBox="0 0 132 138" version="1.1" xmlns="http://www.w3.org/2000/svg" xmlns:xlink="http://www.w3.org/1999/xlink">
    <!-- Generator: Sketch 50.2 (55047) - http://www.bohemiancoding.com/sketch -->
    <title>Group 69</title>
    <desc>Created with Sketch.</desc>
    <defs></defs>
    <g id="Page-1" stroke="none" stroke-width="1" fill="none" fill-rule="evenodd">
        <g id="首页编辑版" transform="translate(-927.000000, -2094.000000)">
            <g id="Group-69" transform="translate(925.000000, 2094.000000)">
                <g id="Group-53">
                    <g id="3" transform="translate(0.489086, 0.074896)">
                        <g id="Group-28" transform="translate(0.501780, 0.000000)">
                            <g id="Group-27" transform="translate(41.084626, 44.916712)">
                                <g id="Group-26" transform="translate(35.060657, 18.426122) rotate(72.000000) translate(-35.060657, -18.426122) translate(27.060657, 9.426122)" stroke-linecap="square">
                                    <path d="M0.184934609,16.9817298 L14.3288275,1.40677382" id="Line-5" stroke="#4FAB00" stroke-width="1.7"></path>
                                    <path d="M15.4536351,1.75043956 L1.20106678,16.9531791" id="Line-6" stroke="#3E8800" stroke-width="0.7"></path>
                                </g>
                                <g id="Group-25" transform="translate(4.678153, 0.918479)">
                                    <polygon id="Path-16" fill="#50AC02" points="17.5956045 22.0179904 17.5403266 27.4911091 17.5403266 34.0300456 17.5403266 40.485792 20.4168743 37.4993044 24.9373727 32.8060354 30.0708213 27.4911091 30.0708213 21.0278591 30.0708213 14.3639684 30.0212194 8.91215112"></polygon>
                                    <polygon id="Path-17" fill="#58BF00" transform="translate(16.115929, 12.195361) rotate(-9.000000) translate(-16.115929, -12.195361) " points="1.89571393 12.9733878 16.0289391 22.1294763 30.336144 11.2781746 16.1381195 2.26124581"></polygon>
                                    <polygon id="Path-15" fill="#8AD500" points="1.98318221 15.0806477 17.5800198 22.0168533 17.5695388 40.6645551 1.98318221 33.2811236"></polygon>
                                </g>
                                <g id="Group-25" transform="translate(40.935112, 13.550797)">
                                    <polygon id="Path-16" fill="#50AC02" points="11.6586777 14.5889079 11.6220511 18.2153435 11.6220511 22.5479798 11.6220511 26.825495 13.5280239 24.8466772 16.5232625 21.7369624 19.924636 18.2153435 19.924636 13.9328565 19.924636 9.51742684 19.8917702 5.90510531"></polygon>
                                    <polygon id="Path-17" fill="#58BF00" transform="translate(10.678259, 8.080529) rotate(-9.000000) translate(-10.678259, -8.080529) " points="1.25608175 8.59604151 10.6206203 14.6627774 20.1004362 7.47280961 10.6929622 1.49827965"></polygon>
                                    <polygon id="Path-15" fill="#8AD500" points="1.31403739 9.9922916 11.6483515 14.5881545 11.6414068 26.9439417 1.31403739 22.0517513"></polygon>
                                </g>
                                <polygon id="Path-50" fill="#4FAB00" points="14.0042042 31.7209154 3.08988108 43.1629375 26.0047344 53.2491108 24.6331114 54.151449 0.848700913 43.602892 12.7770145 30.7808669"></polygon>
                                <polygon id="Path-51" fill="#3E8800" points="0.890853129 43.5732207 0.890853129 44.4424615 24.5165805 54.8893871 24.5165805 54.0826364"></polygon>
                                <g id="Group-26" transform="translate(31.525510, 31.528283)" stroke-linecap="square">
                                    <path d="M0.184934609,16.9817298 L14.3288275,1.40677382" id="Line-5" stroke="#4FAB00" stroke-width="1.7"></path>
                                    <path d="M15.4536351,1.75043956 L1.20106678,16.9531791" id="Line-6" stroke="#3E8800" stroke-width="0.7"></path>
                                </g>
                                <g id="Group-25" transform="translate(22.963790, 43.815087)">
                                    <polygon id="Path-16" fill="#50AC02" points="8.40759382 10.5207138 8.38118074 13.1358987 8.38118074 16.2603565 8.38118074 19.3450639 9.75566292 17.9180499 11.9156634 15.6754956 14.3685459 13.1358987 14.3685459 10.0476058 14.3685459 6.86344206 14.3448449 4.25843548"></polygon>
                                    <polygon id="Path-17" fill="#58BF00" transform="translate(7.700570, 5.827230) rotate(-9.000000) translate(-7.700570, -5.827230) " points="0.905816718 6.1989899 7.6590042 10.5739844 14.4953234 5.38897716 7.7111732 1.08047645"></polygon>
                                    <polygon id="Path-15" fill="#8AD500" points="0.947611118 7.20588827 8.40014709 10.5201705 8.39513901 19.4304812 0.947611118 15.9025039"></polygon>
                                </g>
                                <polygon id="Path-52" fill="#3E8800" points="13.9969286 31.7217064 13.9969286 32.7431715 3.82793246 43.504031 3.02890781 43.1500072"></polygon>
                            </g>
                            <g id="waikuang" transform="translate(0.976027, 0.364368)" stroke="#BFC6D3" stroke-dasharray="5" stroke-linecap="square">
                                <path d="M49.9624712,0.867873161 L131.403566,39.1462207 L131.403566,86.7011056 L81.405554,137.006262 L1.39473207,99.9969811 L1.39473207,51.3905019 L49.9624712,0.867873161 Z" id="Line-27"></path>
                                <path d="M130.028319,86.098339 L105.290234,74.6556529 M54.1888906,51.0185508 L50.0174971,49.0890584" id="Line-27"></path>
                                <path d="M50.1182382,2.60386589 L50.1182382,50.1587508 L0.120226006,100.463907" id="Line-27"></path>
                                <path d="M1.42082808,51.1796748 L80.4208281,88.1796748 L130.569071,37.8107284" id="Line"></path>
                                <path d="M81.5,87.5 L81.5,136.5" id="Line-2"></path>
                            </g>
                        </g>
                    </g>
                </g>
                <g id="Group-53">
                    <g id="3" transform="translate(0.489086, 0.074896)">
                        <g id="Group-28" transform="translate(0.501780, 0.000000)">
                            <g id="Group-27" transform="translate(41.084626, 44.916712)">
                                <g id="Group-26" transform="translate(35.060657, 18.426122) rotate(72.000000) translate(-35.060657, -18.426122) translate(27.060657, 9.426122)" stroke-linecap="square">
                                    <path d="M0.184934609,16.9817298 L14.3288275,1.40677382" id="Line-5" stroke="#4FAB00" stroke-width="1.7"></path>
                                    <path d="M15.4536351,1.75043956 L1.20106678,16.9531791" id="Line-6" stroke="#3E8800" stroke-width="0.7"></path>
                                </g>
                                <g id="Group-25" transform="translate(4.678153, 0.918479)">
                                    <polygon id="Path-16" fill="#50AC02" points="17.5956045 22.0179904 17.5403266 27.4911091 17.5403266 34.0300456 17.5403266 40.485792 20.4168743 37.4993044 24.9373727 32.8060354 30.0708213 27.4911091 30.0708213 21.0278591 30.0708213 14.3639684 30.0212194 8.91215112"></polygon>
                                    <polygon id="Path-17" fill="#58BF00" transform="translate(16.115929, 12.195361) rotate(-9.000000) translate(-16.115929, -12.195361) " points="1.89571393 12.9733878 16.0289391 22.1294763 30.336144 11.2781746 16.1381195 2.26124581"></polygon>
                                    <polygon id="Path-15" fill="#8AD500" points="1.98318221 15.0806477 17.5800198 22.0168533 17.5695388 40.6645551 1.98318221 33.2811236"></polygon>
                                </g>
                                <g id="Group-25" transform="translate(40.935112, 13.550797)">
                                    <polygon id="Path-16" fill="#50AC02" points="11.6586777 14.5889079 11.6220511 18.2153435 11.6220511 22.5479798 11.6220511 26.825495 13.5280239 24.8466772 16.5232625 21.7369624 19.924636 18.2153435 19.924636 13.9328565 19.924636 9.51742684 19.8917702 5.90510531"></polygon>
                                    <polygon id="Path-17" fill="#58BF00" transform="translate(10.678259, 8.080529) rotate(-9.000000) translate(-10.678259, -8.080529) " points="1.25608175 8.59604151 10.6206203 14.6627774 20.1004362 7.47280961 10.6929622 1.49827965"></polygon>
                                    <polygon id="Path-15" fill="#8AD500" points="1.31403739 9.9922916 11.6483515 14.5881545 11.6414068 26.9439417 1.31403739 22.0517513"></polygon>
                                </g>
                                <polygon id="Path-50" fill="#4FAB00" points="14.0042042 31.7209154 3.08988108 43.1629375 26.0047344 53.2491108 24.6331114 54.151449 0.848700913 43.602892 12.7770145 30.7808669"></polygon>
                                <polygon id="Path-51" fill="#3E8800" points="0.890853129 43.5732207 0.890853129 44.4424615 24.5165805 54.8893871 24.5165805 54.0826364"></polygon>
                                <g id="Group-26" transform="translate(31.525510, 31.528283)" stroke-linecap="square">
                                    <path d="M0.184934609,16.9817298 L14.3288275,1.40677382" id="Line-5" stroke="#4FAB00" stroke-width="1.7"></path>
                                    <path d="M15.4536351,1.75043956 L1.20106678,16.9531791" id="Line-6" stroke="#3E8800" stroke-width="0.7"></path>
                                </g>
                                <g id="Group-25" transform="translate(22.963790, 43.815087)">
                                    <polygon id="Path-16" fill="#50AC02" points="8.40759382 10.5207138 8.38118074 13.1358987 8.38118074 16.2603565 8.38118074 19.3450639 9.75566292 17.9180499 11.9156634 15.6754956 14.3685459 13.1358987 14.3685459 10.0476058 14.3685459 6.86344206 14.3448449 4.25843548"></polygon>
                                    <polygon id="Path-17" fill="#58BF00" transform="translate(7.700570, 5.827230) rotate(-9.000000) translate(-7.700570, -5.827230) " points="0.905816718 6.1989899 7.6590042 10.5739844 14.4953234 5.38897716 7.7111732 1.08047645"></polygon>
                                    <polygon id="Path-15" fill="#8AD500" points="0.947611118 7.20588827 8.40014709 10.5201705 8.39513901 19.4304812 0.947611118 15.9025039"></polygon>
                                </g>
                                <polygon id="Path-52" fill="#3E8800" points="13.9969286 31.7217064 13.9969286 32.7431715 3.82793246 43.504031 3.02890781 43.1500072"></polygon>
                            </g>
                            <g id="waikuang" transform="translate(0.976027, 0.364368)" stroke="#BFC6D3" stroke-dasharray="5" stroke-linecap="square">
                                <path d="M49.9624712,0.867873161 L131.403566,39.1462207 L131.403566,86.7011056 L81.405554,137.006262 L1.39473207,99.9969811 L1.39473207,51.3905019 L49.9624712,0.867873161 Z" id="Line-27"></path>
                                <path d="M130.028319,86.098339 L105.290234,74.6556529 M54.1888906,51.0185508 L50.0174971,49.0890584" id="Line-27"></path>
                                <path d="M50.1182382,2.60386589 L50.1182382,50.1587508 L0.120226006,100.463907" id="Line-27"></path>
                                <path d="M1.42082808,51.1796748 L80.4208281,88.1796748 L130.569071,37.8107284" id="Line"></path>
                                <path d="M81.5,87.5 L81.5,136.5" id="Line-2"></path>
                            </g>
                        </g>
                    </g>
                </g>
                <g id="Group-53">
                    <g id="3" transform="translate(0.489086, 0.074896)">
                        <g id="Group-28" transform="translate(0.501780, 0.000000)">
                            <g id="Group-27" transform="translate(41.084626, 44.916712)">
                                <g id="Group-26" transform="translate(35.060657, 18.426122) rotate(72.000000) translate(-35.060657, -18.426122) translate(27.060657, 9.426122)" stroke-linecap="square">
                                    <path d="M0.184934609,16.9817298 L14.3288275,1.40677382" id="Line-5" stroke="#4FAB00" stroke-width="1.7"></path>
                                    <path d="M15.4536351,1.75043956 L1.20106678,16.9531791" id="Line-6" stroke="#3E8800" stroke-width="0.7"></path>
                                </g>
                                <g id="Group-25" transform="translate(4.678153, 0.918479)">
                                    <polygon id="Path-16" fill="#50AC02" points="17.5956045 22.0179904 17.5403266 27.4911091 17.5403266 34.0300456 17.5403266 40.485792 20.4168743 37.4993044 24.9373727 32.8060354 30.0708213 27.4911091 30.0708213 21.0278591 30.0708213 14.3639684 30.0212194 8.91215112"></polygon>
                                    <polygon id="Path-17" fill="#58BF00" transform="translate(16.115929, 12.195361) rotate(-9.000000) translate(-16.115929, -12.195361) " points="1.89571393 12.9733878 16.0289391 22.1294763 30.336144 11.2781746 16.1381195 2.26124581"></polygon>
                                    <polygon id="Path-15" fill="#8AD500" points="1.98318221 15.0806477 17.5800198 22.0168533 17.5695388 40.6645551 1.98318221 33.2811236"></polygon>
                                </g>
                                <g id="Group-25" transform="translate(40.935112, 13.550797)">
                                    <polygon id="Path-16" fill="#50AC02" points="11.6586777 14.5889079 11.6220511 18.2153435 11.6220511 22.5479798 11.6220511 26.825495 13.5280239 24.8466772 16.5232625 21.7369624 19.924636 18.2153435 19.924636 13.9328565 19.924636 9.51742684 19.8917702 5.90510531"></polygon>
                                    <polygon id="Path-17" fill="#58BF00" transform="translate(10.678259, 8.080529) rotate(-9.000000) translate(-10.678259, -8.080529) " points="1.25608175 8.59604151 10.6206203 14.6627774 20.1004362 7.47280961 10.6929622 1.49827965"></polygon>
                                    <polygon id="Path-15" fill="#8AD500" points="1.31403739 9.9922916 11.6483515 14.5881545 11.6414068 26.9439417 1.31403739 22.0517513"></polygon>
                                </g>
                                <polygon id="Path-50" fill="#4FAB00" points="14.0042042 31.7209154 3.08988108 43.1629375 26.0047344 53.2491108 24.6331114 54.151449 0.848700913 43.602892 12.7770145 30.7808669"></polygon>
                                <polygon id="Path-51" fill="#3E8800" points="0.890853129 43.5732207 0.890853129 44.4424615 24.5165805 54.8893871 24.5165805 54.0826364"></polygon>
                                <g id="Group-26" transform="translate(31.525510, 31.528283)" stroke-linecap="square">
                                    <path d="M0.184934609,16.9817298 L14.3288275,1.40677382" id="Line-5" stroke="#4FAB00" stroke-width="1.7"></path>
                                    <path d="M15.4536351,1.75043956 L1.20106678,16.9531791" id="Line-6" stroke="#3E8800" stroke-width="0.7"></path>
                                </g>
                                <g id="Group-25" transform="translate(22.963790, 43.815087)">
                                    <polygon id="Path-16" fill="#50AC02" points="8.40759382 10.5207138 8.38118074 13.1358987 8.38118074 16.2603565 8.38118074 19.3450639 9.75566292 17.9180499 11.9156634 15.6754956 14.3685459 13.1358987 14.3685459 10.0476058 14.3685459 6.86344206 14.3448449 4.25843548"></polygon>
                                    <polygon id="Path-17" fill="#58BF00" transform="translate(7.700570, 5.827230) rotate(-9.000000) translate(-7.700570, -5.827230) " points="0.905816718 6.1989899 7.6590042 10.5739844 14.4953234 5.38897716 7.7111732 1.08047645"></polygon>
                                    <polygon id="Path-15" fill="#8AD500" points="0.947611118 7.20588827 8.40014709 10.5201705 8.39513901 19.4304812 0.947611118 15.9025039"></polygon>
                                </g>
                                <polygon id="Path-52" fill="#3E8800" points="13.9969286 31.7217064 13.9969286 32.7431715 3.82793246 43.504031 3.02890781 43.1500072"></polygon>
                            </g>
                            <g id="waikuang" transform="translate(0.976027, 0.364368)" stroke="#BFC6D3" stroke-dasharray="5" stroke-linecap="square">
                                <path d="M49.9624712,0.867873161 L131.403566,39.1462207 L131.403566,86.7011056 L81.405554,137.006262 L1.39473207,99.9969811 L1.39473207,51.3905019 L49.9624712,0.867873161 Z" id="Line-27"></path>
                                <path d="M130.028319,86.098339 L105.290234,74.6556529 M54.1888906,51.0185508 L50.0174971,49.0890584" id="Line-27"></path>
                                <path d="M50.1182382,2.60386589 L50.1182382,50.1587508 L0.120226006,100.463907" id="Line-27"></path>
                                <path d="M1.42082808,51.1796748 L80.4208281,88.1796748 L130.569071,37.8107284" id="Line"></path>
                                <path d="M81.5,87.5 L81.5,136.5" id="Line-2"></path>
                            </g>
                        </g>
                    </g>
                </g>
            </g>
        </g>
    </g>
</svg>