<svg xmlns="http://www.w3.org/2000/svg" viewBox="0 0 221.84 157.89"><defs><style>.cls-1{fill:#00a62c;stroke:#00a62c;stroke-miterlimit:10;}</style></defs><title>资源 4</title><g id="图层_2" data-name="图层 2"><g id="图层_1-2" data-name="图层 1"><path class="cls-1" d="M15.46,80.77l-.09,73.44L9,151.28v-68L6.86,84v73.09L.51,154.39l0-73.48,8.68-3.09Zm-14.16.3,5.48,2.59,7.84-2.82-5.43-2.6ZM.91,154.21l5.56,2.37V84L.91,81.33Zm8.43-3.29,5.73,2.74V81.08l-5.69,2Z"/><path class="cls-1" d="M33.91,73.83l-.09,73.44-6.39-2.93v-68l-2.12.75v73.09L19,147.45,19,74l8.68-3.1Zm-14.15.3,5.47,2.58,7.84-2.81-5.43-2.6Zm-.4,73.14,5.56,2.37V77l-5.56-2.62ZM27.79,144l5.73,2.74V74.14l-5.69,2Z"/><path class="cls-1" d="M53.09,66.7,53,140.14l-6.39-2.92v-68L44.49,70v73.08l-6.35-2.74,0-73.47,8.67-3.1ZM38.94,67l5.48,2.59,7.83-2.82-5.43-2.6Zm-.39,73.14,5.55,2.38V69.89l-5.55-2.63ZM47,136.85l5.73,2.74V67l-5.69,2Z"/><path class="cls-1" d="M71.54,59.76l-.09,73.44-6.39-2.92v-68L62.94,63v73.08l-6.35-2.74,0-73.48,8.67-3.09Zm-14.15.3,5.48,2.59,7.83-2.82-5.43-2.6ZM57,133.2l5.55,2.37V62.94L57,60.32Zm8.42-3.29,5.73,2.74V60.07l-5.69,2Z"/><path class="cls-1" d="M90,52.82l-.09,73.44-6.39-2.93v-68l-2.11.75v73.09l-6.35-2.74,0-73.48,8.67-3.1Zm-14.15.3,5.48,2.58,7.83-2.81-5.43-2.6Zm-.39,73.14L81,128.63V56l-5.55-2.62ZM83.87,123l5.73,2.74V53.13l-5.69,2Z"/><path class="cls-1" d="M108.45,45.88l-.1,73.43L102,116.39v-68l-2.11.75v73.09L93.5,119.5l0-73.48,8.67-3.1Zm-14.16.3,5.48,2.58L107.6,46l-5.42-2.6Zm-.39,73.13,5.55,2.38V49.06L93.9,46.44Zm8.43-3.28,5.72,2.74V46.19l-5.69,2Z"/><path class="cls-1" d="M127.63,38.75l-.09,73.44-6.4-2.92v-68L119,42v73.08l-6.35-2.74,0-73.47,8.67-3.1Zm-14.16.3L119,41.64l7.84-2.82-5.43-2.6Zm-.39,73.14,5.56,2.38V41.94l-5.56-2.63Zm8.43-3.29,5.73,2.74V39.07l-5.7,2Z"/><path class="cls-1" d="M146.08,31.81,146,105.25l-6.39-2.92v-68l-2.12.75v73.08l-6.35-2.74,0-73.48,8.68-3.09Zm-14.16.3,5.48,2.59,7.84-2.82-5.43-2.6Zm-.39,73.14,5.56,2.37V35l-5.56-2.62ZM140,102l5.73,2.74V32.12L140,34.17Z"/><path class="cls-1" d="M165.26,24.5l-.09,73.44L158.78,95V27l-2.12.75v73.08l-6.35-2.74,0-73.47,8.68-3.1Zm-14.16.3,5.48,2.59,7.84-2.82L159,22Zm-.39,73.14,5.56,2.38V27.69l-5.56-2.63Zm8.43-3.29,5.73,2.74V24.82l-5.69,2Z"/><path class="cls-1" d="M183.71,17.56,183.62,91l-6.39-2.92v-68l-2.12.75V93.92l-6.35-2.74,0-73.48,8.68-3.09Zm-14.15.3L175,20.45l7.84-2.82L177.44,15ZM169.16,91l5.56,2.37V20.74l-5.56-2.62Zm8.43-3.29,5.73,2.74V17.87l-5.69,2.05Z"/><path class="cls-1" d="M202.89,10.44l-.09,73.43L196.41,81V13l-2.12.75V86.8l-6.35-2.74,0-73.48,8.67-3.1Zm-14.15.3,5.48,2.58,7.83-2.81-5.43-2.6Zm-.39,73.13,5.55,2.38V13.62L188.35,11Zm8.42-3.28,5.73,2.74V10.75l-5.69,2Z"/><path class="cls-1" d="M221.34,3.5l-.09,73.43L214.86,74V6l-2.12.75V79.86l-6.35-2.74,0-73.48,8.67-3.1Zm-14.15.3,5.48,2.58,7.83-2.81L215.07,1Zm-.39,73.13,5.55,2.38V6.68L206.8,4.06Zm8.42-3.29L221,76.38V3.81l-5.69,2Z"/></g></g></svg>