<?xml version="1.0" encoding="utf-8"?>
<!-- Generator: Adobe Illustrator 22.1.0, SVG Export Plug-In . SVG Version: 6.00 Build 0)  -->
<svg version="1.1" id="Layer_1" xmlns="http://www.w3.org/2000/svg" xmlns:xlink="http://www.w3.org/1999/xlink" x="0px" y="0px"
	 viewBox="0 0 400 400" style="enable-background:new 0 0 400 400;" xml:space="preserve">
<style type="text/css">
	.st0{fill:#FFFFFF;}
	.st1{fill:#8AD500;}
	.st2{fill:#478E0A;}
</style>
<g>
	<circle class="st0" cx="200.2" cy="200.3" r="41.4"/>
	<circle class="st0" cx="122.3" cy="278.2" r="29"/>
	<circle class="st0" cx="38.3" cy="362.2" r="18.6"/>
	<circle class="st0" cx="38.3" cy="362.2" r="18.6"/>
	
		<ellipse transform="matrix(0.9951 -9.853759e-02 9.853759e-02 0.9951 -36.4374 13.9472)" class="st0" cx="123" cy="375.9" rx="18.6" ry="18.6"/>
	<circle class="st0" cx="24.7" cy="277.5" r="18.6"/>
	<circle class="st0" cx="278.1" cy="122.4" r="29"/>
	<circle class="st0" cx="362.2" cy="38.3" r="18.6"/>
	<circle class="st0" cx="122.3" cy="122.4" r="29"/>
	<circle class="st0" cx="38.3" cy="38.3" r="18.6"/>
	<path class="st0" d="M138.4,14.8c-7.4-11.1-23.5-11.1-30.9,0c-4.3,6.2-4.3,14.2,0,20.4c7.4,11.1,23.5,11.1,30.9,0
		C142.8,29,142.8,21,138.4,14.8z"/>
	<circle class="st0" cx="278.1" cy="278.2" r="29"/>
	<circle class="st0" cx="362.8" cy="362.2" r="18.6"/>
	<circle class="st0" cx="375.8" cy="277.5" r="18.6"/>
</g>
<circle class="st1" cx="200.2" cy="200.3" r="16.7"/>
<g>
	
		<rect x="71" y="71.2" transform="matrix(0.7071 -0.7071 0.7071 0.7071 -32.1304 77.2578)" class="st2" width="12.3" height="12.3"/>
	
		<rect x="71.3" y="317" transform="matrix(0.7071 -0.7071 0.7071 0.7071 -205.8453 149.4831)" class="st2" width="12.3" height="12.3"/>
	<path class="st2" d="M362.2,63c13.6,0,24.8-11.1,24.8-24.8c0-14.2-10.5-24.8-24.8-24.8c-13.6,0-24.8,11.1-24.8,24.8
		C337.5,51.9,348.6,63,362.2,63z M362.2,25.9c6.8,0,12.3,5.6,12.3,12.3s-5,12.3-12.3,12.3c-6.8,0-12.3-5.6-12.3-12.3
		C349.8,31.5,355.4,25.9,362.2,25.9z"/>
	<path class="st2" d="M38.3,63c5.4,0,10.5-1.8,14.6-4.8l-1.7,1.7l8.7,8.7l8.7-8.7l-8.7-8.8l-1.7,1.7c3-4.1,4.8-9.1,4.8-14.6
		c0-13.6-11.1-24.8-24.8-24.8c-13.6,0-24.8,11.1-24.8,24.8C13.5,51.9,24.7,63,38.3,63z M38.3,25.9c6.8,0,12.3,5.6,12.3,12.3
		s-5.6,12.3-12.3,12.3s-12.3-5.6-12.3-12.3C25.9,31.5,31.4,25.9,38.3,25.9z"/>
	<path class="st2" d="M68.5,340.7l-8.7-8.7l-8.7,8.7l2.1,2.1c-4.2-3.4-9.5-5.3-15.5-5.3c-13.6,0-24.8,11.1-24.8,24.8
		c0,13.6,11.1,24.8,24.8,24.8c13.6,0,24.8-11.1,24.8-24.8c0-5.9-2-11.3-5.4-15.6l2.8,2.8L68.5,340.7z M37.6,374.6
		c-6.8,0-12.3-5.6-12.3-12.3s5.6-12.3,12.3-12.3S50,355.5,50,362.3C50,369.1,45.1,374.6,37.6,374.6z"/>
	<path class="st2" d="M360.9,337.5c-13.6,0-24.8,11.1-24.8,24.8c0,13.6,11.1,24.8,24.8,24.8c13.6,0,24.8-11.1,24.8-24.8
		C385.7,348.6,374.6,337.5,360.9,337.5z M360.9,374.6c-6.8,0-12.3-5.6-12.3-12.3s5.6-12.3,12.3-12.3s12.3,5.6,12.3,12.3
		C373.4,369.1,367.7,374.6,360.9,374.6z"/>
	<path class="st2" d="M375.8,252.8c-11.8,0-21,8-24.1,18.6h-39c-3.1-16.1-17.3-28.4-34.6-28.4c-7.4,0-14.2,2.5-19.8,6.2l-20.4-20.4
		c6.2-8,9.9-17.9,9.9-29s-3.7-21-9.9-29l20.4-20.4c5.6,3.7,12.3,6.2,19.8,6.2c19.1,0,35.2-15.5,35.2-35.2
		c0-19.1-15.5-35.2-35.2-35.2c-19.1,0-35.2,15.5-35.2,35.2c0,7.4,2.5,14.2,6.2,19.8l-20.4,20.4c-8-6.2-17.9-9.9-29-9.9
		s-21,3.7-29,9.9l-19.8-19.1c3.7-5.6,6.2-12.3,6.2-19.8c0-17.3-12.3-31.5-29-34.7V48.9c11.1-2.5,19.1-12.3,19.1-24.1
		C147.2,11.2,136,0,122.4,0c-13.6,0-24.8,11.1-24.8,24.8c0,11.1,7.4,20.4,17.9,23.5v39.6c-5.1,1-9.8,2.9-13.8,5.7l-7.3-7.3l-8.7,8.7
		l7.2,7.2c-4.1,5.7-6.4,12.7-6.4,20.3c0,19.1,15.5,35.2,35.2,35.2c7.4,0,14.2-2.5,19.8-6.2l20.4,20.4c-6.2,8-9.9,17.9-9.9,29
		s3.7,21,9.9,29l-19.8,19.8c-5.6-3.7-12.3-6.2-19.8-6.2c-17.3,0-31.5,12.3-34.7,28.4l-38.9-0.6c-2.5-10.5-12.3-18.6-24.1-18.6
		C11.2,252.8,0,263.9,0,277.5s11.1,24.8,24.8,24.8c11.1,0,21-8,23.5-18.6l38.9,0.6c0.6,4.9,3.1,9.9,5.6,14.2l-7.4,7.4l8.7,8.7
		l7.4-7.4c4.3,3.1,8.7,5,14.2,5.6l0.6,38.9c-10.5,3.1-18.6,12.3-18.6,23.5c0,13.6,11.1,24.8,24.8,24.8c13.6,0,24.8-11.1,24.8-24.8
		c0-11.8-8-21-18.6-24.1l-0.6-38.9c16.1-3.1,28.4-17.3,28.4-34.6c0-7.4-2.5-14.2-6.2-19.8l20.4-20.4c8,6.2,17.9,9.9,29,9.9
		s21-3.7,29-9.9l20.4,20.4c-3.7,5.6-6.2,12.3-6.2,19.8c0,19.1,15.5,35.2,35.2,35.2c17.3,0,31.5-12.3,34.6-29l38.9-0.6
		c3.1,10.5,12.3,18.6,23.5,18.6c13.6,0,24.8-11.1,24.8-24.8C400.5,264,389.4,252.8,375.8,252.8z M278.1,99.5
		c12.3,0,22.9,9.9,22.9,22.9s-10.5,22.2-22.9,22.2s-22.2-9.9-22.2-22.2S265.8,99.5,278.1,99.5z M110.6,24.7
		c0-6.8,5.6-12.3,12.3-12.3s12.3,5.6,12.3,12.3c0,6.8-5.6,12.3-12.3,12.3S110.6,31.5,110.6,24.7z M122.3,145.3
		c-12.3,0-22.9-9.9-22.9-22.9s9.9-22.9,22.9-22.9s22.9,9.9,22.9,22.9S134.7,145.3,122.3,145.3z M24.7,289.9
		c-6.8,0-12.3-5.6-12.3-12.3c0-6.8,5.6-12.3,12.3-12.3S37,270.8,37,277.6C37,284.4,31.4,289.9,24.7,289.9z M135.3,375.9
		c0,6.8-5.6,12.3-12.3,12.3c-6.8,0-12.3-5.6-12.3-12.3s5.6-12.3,12.3-12.3C129.8,363.5,135.3,369.1,135.3,375.9z M122.3,301.1
		c-12.3,0-22.9-9.9-22.9-22.9s9.9-22.9,22.9-22.9c12.3,0,22.9,9.9,22.9,22.9C145.2,291.2,134.7,301.1,122.3,301.1z M200.2,235.5
		c-19.1,0-35.2-15.5-35.2-35.2c0-19.1,15.5-35.2,35.2-35.2c19.1,0,35.2,15.5,35.2,35.2C235.5,219.4,219.4,235.5,200.2,235.5z
		 M278.1,301.1c-12.3,0-22.9-9.9-22.9-22.9c0-12.3,9.9-22.9,22.9-22.9s22.9,9.9,22.9,22.9C301,290.5,290.5,301.1,278.1,301.1z
		 M375.8,289.9c-6.8,0-12.3-5.6-12.3-12.3c0-6.8,5.6-12.3,12.3-12.3c6.8,0,12.3,5.6,12.3,12.3C388.2,284.4,382.6,289.9,375.8,289.9z
		"/>
</g>
</svg>
