<?xml version="1.0" encoding="utf-8"?>
<!-- Generator: Adobe Illustrator 22.1.0, SVG Export Plug-In . SVG Version: 6.00 Build 0)  -->
<svg version="1.1" id="Layer_1" xmlns="http://www.w3.org/2000/svg" xmlns:xlink="http://www.w3.org/1999/xlink" x="0px" y="0px"
	 viewBox="0 0 403.1 403.1" style="enable-background:new 0 0 403.1 403.1;" xml:space="preserve">
<style type="text/css">
	.st0{fill:#FFFFFF;}
	.st1{fill:#50AC02;}
	.st2{fill:#B4E700;}
	.st3{fill:#8AD500;}
	.st4{fill:#4FAB02;}
</style>
<path class="st0" d="M396.9,6.3c-94.4,0-180.4,36.1-244.8,95.2c-39.6-0.5-79.3,14.4-109.4,44.5c-11.8,11.8-21,24.8-28.4,38.9
	c25-12.8,52.9-18.2,80.4-16.1c-9,13.6-17.1,27.9-24.2,42.7l121.1,121.1c14.9-7.1,29.1-15.3,42.7-24.2c2.2,27.6-3,55.7-15.6,81.1
	c14.2-6.8,27.2-16.7,38.9-28.4c30.4-30.4,45.3-70.7,44.5-110.7C361,186.2,396.9,100.5,396.9,6.3z"/>
<path class="st1" d="M288.1,23l92.1,92.1C390.8,80.5,396.9,44,396.9,6.3C359.2,6.3,322.7,12.5,288.1,23z"/>
<circle class="st2" cx="275.8" cy="127.5" r="37.7"/>
<path class="st3" d="M87.2,228.9c-24.8,38.3-46.4,133.5-46.4,133.5s95.2-21.7,133.5-46.4L87.2,228.9z"/>
<g>
	<path class="st4" d="M403.1,0.2h-6.2c-92.1,0-179.9,35.2-246.6,95.2h-0.6c-42,0-82.2,16.7-111.9,46.4C25.9,153.5,16,167.1,8.7,182
		L0,198.7l16.7-8.7c20.4-10.5,43.3-16.1,66.2-16.1c0.6,0,0.6,0,1.2,0C77.3,185,70.5,196.8,65,208.5l-1.9,3.7l16.7,16.7
		c-24.7,42-43.9,128.6-45.1,132.3l-1.9,9.2l9.2-1.9c3.7-0.6,90.2-20.4,131-45.1l16.7,16.7l3.7-1.9c11.8-5.6,23.5-12.3,34.6-19.1
		c0,22.9-4.9,45.8-16.1,67.4l-8.7,16.7l16.7-8.7c14.9-7.4,28.4-17.3,40.2-29c29.7-29.7,46.4-69.9,46.4-111.9v-0.6
		c60-66.8,95.2-154.6,95.2-246.6V0h1.4L403.1,0.2L403.1,0.2z M82.9,162.1c-18.6,0-36.5,3.1-53.8,9.2c5-7.4,11.1-14.9,17.3-21
		c24.8-24.8,56.2-38.9,90.2-42C120,125,105.1,143,91.5,162.7l0,0C89.1,162.1,86,162.1,82.9,162.1z M49.5,353.7
		c5.6-23.5,21.7-82.8,39.6-115l75.4,76.1C132.3,332.7,72.3,348.2,49.5,353.7z M252.9,356.8c-6.8,6.8-13.6,12.3-21,17.3
		c7.4-20.4,10.5-42,9.2-63c19.8-13.6,37.7-28.4,54.4-45.1C292.5,300.6,277.6,332.2,252.9,356.8z M192.9,325.4L78,210.4
		C136.7,91.7,258.5,15,390.8,12.5C388.3,144.8,311.6,266.6,192.9,325.4z"/>
	
		<rect x="136.8" y="214.8" transform="matrix(0.7071 -0.7071 0.7071 0.7071 -114.36 165.8242)" class="st4" width="12.3" height="12.3"/>
	
		<rect x="156.5" y="234.6" transform="matrix(0.7071 -0.7071 0.7071 0.7071 -122.6082 185.5493)" class="st4" width="12.3" height="12.3"/>
	
		<rect x="176.2" y="254.4" transform="matrix(0.7071 -0.7071 0.7071 0.7071 -130.8554 205.274)" class="st4" width="12.3" height="12.3"/>
</g>
</svg>
