<svg width="133" height="138" xmlns="http://www.w3.org/2000/svg"><g fill="none" fill-rule="evenodd"><path fill="#5DC900" d="M82.84 91.53l15.17 8.04v-3.3L82.84 88.3z"/><path fill="#58BF00" d="M48.31 89.15l34.84 17.3 12.18-17.09-2.4-1L82.5 102.5 53.3 88.4l11.2-12.01 30.83 12.97 1.36-2.1-33.12-13.82z"/><path fill="#499F00" d="M60.65 72.76v31.86l2.04-2.88v-31.1z"/><path fill="#54B600" d="M41.56 63.07l19.16 9.76 1.97-2.18-19.22-9.67z"/><path fill="#58BF00" d="M43.89 93.52l15.16 8.03v-3.3L43.9 90.29z"/><path fill="#499F00" d="M43.82 66.15V93.6l2.03-2.28V65.93z"/><path fill="#58BF00" d="M40.79 48.55l2.81 1.48 15.24-16.24-2.86-1.33zM45.86 71.15v5l11-11.61-2.88-1.28z"/><path fill="#8AD500" d="M40.79 48.53l2.8 1.5.17 31.6-2.8-1.92z"/><path fill="#50AC02" d="M43.61 50.02l-.04 3.85L58.8 37.13l-2.03 2.23V64.6L45.86 76.1V51.36l-2.3 2.5v27.81l12.51-13.22 2.73-2.9V33.75z"/><path fill="#9AD928" d="M41.67 63.04l4.07 2.1 14.93 7.66v31.8l-19-10.23v-2.02l16.99 8.82V74.21l-12.88-6.73-1.85-.96v27l-2.26-1.17V80.2z"/><path fill="#50AD00" d="M99.61 70.78v31.86l2.03-2.88v-31.1zM82.77 64.17v27.45l2.04-2.28v-25.4z"/><path fill="#A9EB30" d="M80.63 61.06l4.07 2.1 14.92 7.66v31.8L80.63 92.38v-2.02l16.98 8.82V72.23L84.73 65.5l-1.85-.96v27l-2.25-1.17V78.21z"/><path fill="#8AD500" d="M53.9 42.5l2.86-3.17.1 25.23-2.96-1.24z"/><path fill="#50AC02" d="M45.86 62.17v17.08l-2.3 2.43v-20.1z"/><path fill="#54B600" d="M51.9 65.22l5.56 2.8-1.75 2.24-6.68-3.43z"/><path fill="#8AD500" d="M41.45 62.64l2.11 1.1V81.6l-2.11-1.63zM48.26 89.13v2.49l35.01 17.2v-2.5z"/><path fill="#499F00" d="M96.72 87.28l-13.48 19.01v2.53l13.48-18.97z"/><path fill="#8AD500" d="M92.93 88.35l-1.56 2.12-26.77-11.7V76.4z"/><path fill="#50AC02" d="M64.6 76.28v2.53L55.13 89.3l-1.93-.87z"/><path fill="#54B600" d="M47.44 55.88l34.84 17.3L94.46 56.1l-2.4-1-10.43 14.15-29.2-14.12 11.21-12L94.46 56.1l1.37-2.1L62.7 40.19z"/><path fill="#9AD928" d="M47.4 55.86v2.5l35 17.18v-2.49z"/><path fill="#499F00" d="M95.85 54L82.37 73.03v2.53l13.48-18.97z"/><path fill="#9AD928" d="M92.02 55.08l-1.41 2.16L63.73 45.5v-2.37z"/><path fill="#499F00" d="M63.73 43.02v2.52l-9.47 10.48-1.93-.86zM60.69 79.12v5.7l2.01-2.85V77.4z"/><path fill="#9AD928" d="M58.66 80.5v5.82l2.02-1.24v-5.11z"/><path fill="#58BF00" d="M57.96 90.64l6.06 2.92-1.24 2.7-5.64-2.8z"/><path fill="#50AC02" d="M56.8 45.19l.03 8.04 1.97-2.16.02-7.7z"/><path fill="#8AD500" d="M53.91 47.43v8.44l1.36.63 1.56-2.78-.03-8.81z"/><path fill="#5DC900" d="M80.52 61.1l19.15 9.75 1.98-2.18L82.43 59z"/><path fill="#A9EB30" d="M84.21 62.95l-.54 2.02 7.5 3.89.82-1.95zM80.63 82.73v4l2.25.34v-3.8z"/><path fill="#50AD00" d="M84.8 82.17v6.36l-1.9-.88v-4.63z"/><path fill="#58BF00" d="M88.75 94.01l-2.12 2.87 2.8.68 1.56-2.2z"/><g stroke="#BFC6D3" stroke-dasharray="5" stroke-linecap="square"><path d="M50.67 1.3l81.44 38.27v47.56l-50 50.3-80.01-37V51.81L50.67 1.29zM130.73 86.52L103.22 73.6M50.82 3.03v31.44M38.44 63.04L.83 100.89"/><path d="M2.13 51.6l79 37 50.14-50.36M82.2 87.92v49"/></g><g><path fill="#5DC900" d="M82.84 91.53l15.17 8.04v-3.3L82.84 88.3z"/><path fill="#58BF00" d="M48.31 89.15l34.84 17.3 12.18-17.09-2.4-1L82.5 102.5 53.3 88.4l11.2-12.01 30.83 12.97 1.36-2.1-33.12-13.82z"/><path fill="#499F00" d="M60.65 72.76v31.86l2.04-2.88v-31.1z"/><path fill="#54B600" d="M41.56 63.07l19.16 9.76 1.97-2.18-19.22-9.67z"/><path fill="#58BF00" d="M43.89 93.52l15.16 8.03v-3.3L43.9 90.29z"/><path fill="#499F00" d="M43.82 66.15V93.6l2.03-2.28V65.93z"/><path fill="#58BF00" d="M40.79 48.55l2.81 1.48 15.24-16.24-2.86-1.33zM45.86 71.15v5l11-11.61-2.88-1.28z"/><path fill="#8AD500" d="M40.79 48.53l2.8 1.5.17 31.6-2.8-1.92z"/><path fill="#50AC02" d="M43.61 50.02l-.04 3.85L58.8 37.13l-2.03 2.23V64.6L45.86 76.1V51.36l-2.3 2.5v27.81l12.51-13.22 2.73-2.9V33.75z"/><path fill="#9AD928" d="M41.67 63.04l4.07 2.1 14.93 7.66v31.8l-19-10.23v-2.02l16.99 8.82V74.21l-12.88-6.73-1.85-.96v27l-2.26-1.17V80.2z"/><path fill="#50AD00" d="M99.61 70.78v31.86l2.03-2.88v-31.1zM82.77 64.17v27.45l2.04-2.28v-25.4z"/><path fill="#A9EB30" d="M80.63 61.06l4.07 2.1 14.92 7.66v31.8L80.63 92.38v-2.02l16.98 8.82V72.23L84.73 65.5l-1.85-.96v27l-2.25-1.17V78.21z"/><path fill="#8AD500" d="M53.9 42.5l2.86-3.17.1 25.23-2.96-1.24z"/><path fill="#50AC02" d="M45.86 62.17v17.08l-2.3 2.43v-20.1z"/><path fill="#54B600" d="M51.9 65.22l5.56 2.8-1.75 2.24-6.68-3.43z"/><path fill="#8AD500" d="M41.45 62.64l2.11 1.1V81.6l-2.11-1.63zM48.26 89.13v2.49l35.01 17.2v-2.5z"/><path fill="#499F00" d="M96.72 87.28l-13.48 19.01v2.53l13.48-18.97z"/><path fill="#8AD500" d="M92.93 88.35l-1.56 2.12-26.77-11.7V76.4z"/><path fill="#50AC02" d="M64.6 76.28v2.53L55.13 89.3l-1.93-.87z"/><path fill="#54B600" d="M47.44 55.88l34.84 17.3L94.46 56.1l-2.4-1-10.43 14.15-29.2-14.12 11.21-12L94.46 56.1l1.37-2.1L62.7 40.19z"/><path fill="#9AD928" d="M47.4 55.86v2.5l35 17.18v-2.49z"/><path fill="#499F00" d="M95.85 54L82.37 73.03v2.53l13.48-18.97z"/><path fill="#9AD928" d="M92.02 55.08l-1.41 2.16L63.73 45.5v-2.37z"/><path fill="#499F00" d="M63.73 43.02v2.52l-9.47 10.48-1.93-.86zM60.69 79.12v5.7l2.01-2.85V77.4z"/><path fill="#9AD928" d="M58.66 80.5v5.82l2.02-1.24v-5.11z"/><path fill="#58BF00" d="M57.96 90.64l6.06 2.92-1.24 2.7-5.64-2.8z"/><path fill="#50AC02" d="M56.8 45.19l.03 8.04 1.97-2.16.02-7.7z"/><path fill="#8AD500" d="M53.91 47.43v8.44l1.36.63 1.56-2.78-.03-8.81z"/><path fill="#5DC900" d="M80.52 61.1l19.15 9.75 1.98-2.18L82.43 59z"/><path fill="#A9EB30" d="M84.21 62.95l-.54 2.02 7.5 3.89.82-1.95zM80.63 82.73v4l2.25.34v-3.8z"/><path fill="#50AD00" d="M84.8 82.17v6.36l-1.9-.88v-4.63z"/><path fill="#58BF00" d="M88.75 94.01l-2.12 2.87 2.8.68 1.56-2.2z"/><g stroke="#BFC6D3" stroke-dasharray="5" stroke-linecap="square"><path d="M50.67 1.3l81.44 38.27v47.56l-50 50.3-80.01-37V51.81L50.67 1.29zM130.73 86.52L103.22 73.6M50.82 3.03v31.44M38.44 63.04L.83 100.89"/><path d="M2.13 51.6l79 37 50.14-50.36M82.2 87.92v49"/></g></g><g><path fill="#5DC900" d="M82.84 91.53l15.17 8.04v-3.3L82.84 88.3z"/><path fill="#58BF00" d="M48.31 89.15l34.84 17.3 12.18-17.09-2.4-1L82.5 102.5 53.3 88.4l11.2-12.01 30.83 12.97 1.36-2.1-33.12-13.82z"/><path fill="#499F00" d="M60.65 72.76v31.86l2.04-2.88v-31.1z"/><path fill="#54B600" d="M41.56 63.07l19.16 9.76 1.97-2.18-19.22-9.67z"/><path fill="#58BF00" d="M43.89 93.52l15.16 8.03v-3.3L43.9 90.29z"/><path fill="#499F00" d="M43.82 66.15V93.6l2.03-2.28V65.93z"/><path fill="#58BF00" d="M40.79 48.55l2.81 1.48 15.24-16.24-2.86-1.33zM45.86 71.15v5l11-11.61-2.88-1.28z"/><path fill="#8AD500" d="M40.79 48.53l2.8 1.5.17 31.6-2.8-1.92z"/><path fill="#50AC02" d="M43.61 50.02l-.04 3.85L58.8 37.13l-2.03 2.23V64.6L45.86 76.1V51.36l-2.3 2.5v27.81l12.51-13.22 2.73-2.9V33.75z"/><path fill="#9AD928" d="M41.67 63.04l4.07 2.1 14.93 7.66v31.8l-19-10.23v-2.02l16.99 8.82V74.21l-12.88-6.73-1.85-.96v27l-2.26-1.17V80.2z"/><path fill="#50AD00" d="M99.61 70.78v31.86l2.03-2.88v-31.1zM82.77 64.17v27.45l2.04-2.28v-25.4z"/><path fill="#A9EB30" d="M80.63 61.06l4.07 2.1 14.92 7.66v31.8L80.63 92.38v-2.02l16.98 8.82V72.23L84.73 65.5l-1.85-.96v27l-2.25-1.17V78.21z"/><path fill="#8AD500" d="M53.9 42.5l2.86-3.17.1 25.23-2.96-1.24z"/><path fill="#50AC02" d="M45.86 62.17v17.08l-2.3 2.43v-20.1z"/><path fill="#54B600" d="M51.9 65.22l5.56 2.8-1.75 2.24-6.68-3.43z"/><path fill="#8AD500" d="M41.45 62.64l2.11 1.1V81.6l-2.11-1.63zM48.26 89.13v2.49l35.01 17.2v-2.5z"/><path fill="#499F00" d="M96.72 87.28l-13.48 19.01v2.53l13.48-18.97z"/><path fill="#8AD500" d="M92.93 88.35l-1.56 2.12-26.77-11.7V76.4z"/><path fill="#50AC02" d="M64.6 76.28v2.53L55.13 89.3l-1.93-.87z"/><path fill="#54B600" d="M47.44 55.88l34.84 17.3L94.46 56.1l-2.4-1-10.43 14.15-29.2-14.12 11.21-12L94.46 56.1l1.37-2.1L62.7 40.19z"/><path fill="#9AD928" d="M47.4 55.86v2.5l35 17.18v-2.49z"/><path fill="#499F00" d="M95.85 54L82.37 73.03v2.53l13.48-18.97z"/><path fill="#9AD928" d="M92.02 55.08l-1.41 2.16L63.73 45.5v-2.37z"/><path fill="#499F00" d="M63.73 43.02v2.52l-9.47 10.48-1.93-.86zM60.69 79.12v5.7l2.01-2.85V77.4z"/><path fill="#9AD928" d="M58.66 80.5v5.82l2.02-1.24v-5.11z"/><path fill="#58BF00" d="M57.96 90.64l6.06 2.92-1.24 2.7-5.64-2.8z"/><path fill="#50AC02" d="M56.8 45.19l.03 8.04 1.97-2.16.02-7.7z"/><path fill="#8AD500" d="M53.91 47.43v8.44l1.36.63 1.56-2.78-.03-8.81z"/><path fill="#5DC900" d="M80.52 61.1l19.15 9.75 1.98-2.18L82.43 59z"/><path fill="#A9EB30" d="M84.21 62.95l-.54 2.02 7.5 3.89.82-1.95zM80.63 82.73v4l2.25.34v-3.8z"/><path fill="#50AD00" d="M84.8 82.17v6.36l-1.9-.88v-4.63z"/><path fill="#58BF00" d="M88.75 94.01l-2.12 2.87 2.8.68 1.56-2.2z"/><g stroke="#BFC6D3" stroke-dasharray="5" stroke-linecap="square"><path d="M50.67 1.3l81.44 38.27v47.56l-50 50.3-80.01-37V51.81L50.67 1.29zM130.73 86.52L103.22 73.6M50.82 3.03v31.44M38.44 63.04L.83 100.89"/><path d="M2.13 51.6l79 37 50.14-50.36M82.2 87.92v49"/></g></g></g></svg>