<?xml version="1.0" encoding="UTF-8"?>
<svg width="133px" height="138px" viewBox="0 0 133 138" version="1.1" xmlns="http://www.w3.org/2000/svg" xmlns:xlink="http://www.w3.org/1999/xlink">
    <!-- Generator: Sketch 50.2 (55047) - http://www.bohemiancoding.com/sketch -->
    <title>Group 65</title>
    <desc>Created with Sketch.</desc>
    <defs></defs>
    <g id="Page-1" stroke="none" stroke-width="1" fill="none" fill-rule="evenodd">
        <g id="首页编辑版" transform="translate(-926.000000, -2747.000000)">
            <g id="Group-65" transform="translate(926.000000, 2746.000000)">
                <g id="多语言" transform="translate(0.489086, 0.727089)">
                    <g id="Group-46" transform="translate(38.096929, 32.000000)">
                        <polygon id="Path-17" fill="#5DC900" transform="translate(51.844809, 62.203343) rotate(-9.000000) translate(-51.844809, -62.203343) " points="44.7248278 58.6497501 58.4500189 68.9570256 58.9647899 65.7068897 45.2316722 55.4496606"></polygon>
                        <polygon id="Path-17" fill="#58BF00" transform="translate(34.207389, 58.311894) rotate(-9.000000) translate(-34.207389, -58.311894) " points="10.1667201 53.6044144 41.8716991 76.1446568 56.5705956 61.1674326 54.3575342 59.7962406 41.848656 72.1415373 15.2154739 53.6356334 28.1603957 43.5333886 56.5705956 61.1674326 58.2480571 59.3131926 27.6983121 40.4791314"></polygon>
                        <polygon id="Path-16" fill="#499F00" points="22.0678719 41.0309562 22.0678719 72.8896662 24.1005704 70.0167918 24.1005704 38.9152268"></polygon>
                        <polygon id="Path-17" fill="#54B600" transform="translate(13.545723, 35.170539) rotate(-9.000000) translate(-13.545723, -35.170539) " points="3.70583792 29.7391191 21.0975741 42.3700762 23.3856076 40.5281883 5.91713837 27.9710013"></polygon>
                        <polygon id="Path-17" fill="#58BF00" transform="translate(12.887990, 64.184444) rotate(-9.000000) translate(-12.887990, -64.184444) " points="5.76800938 60.6308515 19.4932005 70.9381269 20.0079715 67.687991 6.27485377 57.4307619"></polygon>
                        <polygon id="Path-16" fill="#499F00" points="5.23062879 34.4257429 5.23062879 61.8773814 7.26332731 59.5956411 7.26332731 34.2034756"></polygon>
                        <polygon id="Path-17" fill="#58BF00" transform="translate(11.236816, 9.508430) rotate(-9.000000) translate(-11.236816, -9.508430) " points="1.16838598 15.3223501 3.71714981 17.2168279 21.3052469 3.56199734 18.6947789 1.80003211"></polygon>
                        <polygon id="Path-17" fill="#58BF00" transform="translate(12.638444, 37.772460) rotate(-9.000000) translate(-12.638444, -37.772460) " points="7.07700487 38.5657189 6.29514334 43.5021982 18.9817445 33.7550179 16.3379525 32.0427211"></polygon>
                        <polygon id="Path-15" fill="#8AD500" points="2.20408756 16.8024187 5.01175268 18.2945215 5.17099701 49.8981046 2.37331229 47.9801382"></polygon>
                        <polygon id="Path-16" fill="#50AC02" points="5.02659294 18.2956043 4.98231431 22.1396418 20.213939 5.40523773 18.1812405 7.63758691 18.1812405 32.8738039 7.27012187 44.3607815 7.27012187 19.6281869 4.97395546 22.1396418 4.97395546 49.9452661 17.4883233 36.7203331 20.213939 33.8144299 20.213939 2.03453382"></polygon>
                        <polygon id="Path-15" fill="#9AD928" points="3.08873808 31.317707 7.1582172 33.4081775 22.0815365 41.0742097 22.0815365 72.8658657 3.08873808 62.6470316 3.08873808 60.6270606 20.0701227 69.442745 20.0701227 42.4804985 7.19136788 35.7576334 5.3410324 34.7917359 5.3410324 50.0969285 5.3410324 61.7983758 3.08873808 60.6270606 3.08873808 48.4615925"></polygon>
                        <polygon id="Path-16" fill="#50AD00" points="61.0246904 39.0498549 61.0246904 70.9085648 63.0573889 68.0356905 63.0573889 36.9341254"></polygon>
                        <polygon id="Path-16" fill="#50AD00" points="44.1874472 32.4446415 44.1874472 59.89628 46.2201457 57.6145398 46.2201457 32.2223742"></polygon>
                        <polygon id="Path-15" fill="#A9EB30" points="42.0455565 29.3366057 46.1150356 31.4270761 61.0383549 39.0931083 61.0383549 70.8847643 42.0455565 60.6659302 42.0455565 58.6459592 59.0269411 67.4616436 59.0269411 40.4993971 46.1481863 33.776532 44.2978508 32.8106346 44.2978508 48.1158271 44.2978508 59.8172745 42.0455565 58.6459592 42.0455565 46.4804911"></polygon>
                        <polygon id="Path-15" fill="#8AD500" points="15.3165517 10.7741549 18.177378 7.60632916 18.2834611 32.8279693 15.3165517 31.5897693"></polygon>
                        <polygon id="Path-62" fill="#50AC02" points="7.2735795 30.4451168 7.2735795 47.5184607 4.98187012 49.9512889 4.98187012 29.8439082"></polygon>
                        <polygon id="Path-63" fill="#54B600" points="13.3084074 33.4977888 18.8784894 36.2982477 17.1250013 38.534323 10.4402358 35.0998036"></polygon>
                        <polygon id="Path-64" fill="#8AD500" points="2.85919124 30.9117569 4.97350613 32.0103417 4.97350613 49.8819655 2.85919124 48.2484359"></polygon>
                        <polygon id="Path-65" fill="#8AD500" points="9.67431153 57.3985619 9.67431153 59.8915961 44.6863444 77.0850966 44.6863444 74.5943578"></polygon>
                        <polygon id="Path-66" fill="#499F00" points="58.1304434 55.5488551 44.6539413 74.5634549 44.6539413 77.0885464 58.1304434 58.123528"></polygon>
                        <polygon id="Path-67" fill="#8AD500" points="54.3452327 56.6204311 52.7819795 58.7435364 26.0144352 47.0407969 26.0144352 44.6711741"></polygon>
                        <polygon id="Path-68" fill="#50AC02" points="26.0137506 44.5559843 26.0137506 47.0835969 16.5452924 57.5634806 14.6119636 56.6960817"></polygon>
                        <polygon id="Path-17" fill="#54B600" transform="translate(33.338351, 25.044083) rotate(-9.000000) translate(-33.338351, -25.044083) " points="9.29768219 20.3366031 41.0026611 42.8768454 55.7015576 27.8996212 53.4884962 26.5284293 40.9796181 38.8737259 14.346436 20.3678221 27.2913577 10.2655773 55.7015576 27.8996212 57.3790191 26.0453812 26.8292742 7.21132005"></polygon>
                        <polygon id="Path-65" fill="#9AD928" points="8.80527359 24.1307506 8.80527359 26.6237847 43.8173065 43.8172852 43.8173065 41.3265465"></polygon>
                        <polygon id="Path-66" fill="#499F00" points="57.2614055 22.2810437 43.7849034 41.2956436 43.7849034 43.8207351 57.2614055 24.8557167"></polygon>
                        <polygon id="Path-67" fill="#9AD928" points="53.4307803 23.3576457 52.0222117 25.5100687 25.1453973 13.7729856 25.1453973 11.4033628"></polygon>
                        <polygon id="Path-68" fill="#499F00" points="25.1447127 11.288173 25.1447127 13.8157855 15.6762544 24.2956692 13.7429257 23.4282703"></polygon>
                        <polygon id="Path-69" fill="#499F00" points="22.103019 47.3950717 22.103019 53.0974555 24.1156496 50.2462636 24.1156496 45.672126"></polygon>
                        <polygon id="Path-70" fill="#9AD928" points="20.0749345 48.769357 20.0749345 54.590496 22.0915382 53.3483067 22.0915382 48.2433978"></polygon>
                        <polygon id="Path-71" fill="#58BF00" points="19.3718938 58.9177392 25.4312948 61.8351674 24.1955961 64.5372873 18.5524987 61.7275132"></polygon>
                        <polygon id="Path-72" fill="#50AC02" points="18.2173516 13.4615616 18.2394593 21.5018685 20.2100853 19.3452577 20.2328296 11.6457369"></polygon>
                        <polygon id="Path-73" fill="#8AD500" points="15.3283976 15.7001495 15.3283976 24.138885 16.6875951 24.7758557 18.2418945 21.9885965 18.2100181 13.1782341"></polygon>
                        <polygon id="Path-17" fill="#5DC900" transform="translate(52.502541, 33.189437) rotate(-9.000000) translate(-52.502541, -33.189437) " points="42.6626564 27.7580177 60.0543926 40.3889748 62.342426 38.547087 44.8739568 25.9899"></polygon>
                        <polygon id="Path-74" fill="#A9EB30" points="45.6252893 31.2274375 45.0815896 33.2445124 52.576452 37.1322345 53.4061682 35.1818398"></polygon>
                        <polygon id="Path-75" fill="#A9EB30" points="42.0434061 51.0014869 42.0434061 55.0041071 44.2974727 55.3472499 44.2974727 51.5487955"></polygon>
                        <polygon id="Path-76" fill="#50AD00" points="46.212596 50.4388695 46.212596 56.803048 44.3111377 55.9196794 44.3111377 51.2976053"></polygon>
                        <polygon id="Path-77" fill="#58BF00" points="50.1667781 62.2835116 48.0462206 65.1545895 50.8510818 65.8369616 52.3999503 63.6285531"></polygon>
                    </g>
                    <g id="waikuang" transform="translate(0.216625, 0.697905)" stroke="#BFC6D3" stroke-dasharray="5" stroke-linecap="square">
                        <path d="M49.9624712,0.867873161 L131.403566,39.1462207 L131.403566,86.7011056 L81.405554,137.006262 L1.39473207,99.9969811 L1.39473207,51.3905019 L49.9624712,0.867873161 Z" id="Line-27"></path>
                        <path d="M130.028319,86.098339 L102.513782,73.1637025" id="Line-27"></path>
                        <path d="M50.1182382,2.60386589 L50.1182382,34.0436089 M37.7388096,62.6142277 L0.120226006,100.463907" id="Line-27"></path>
                        <path d="M1.42082808,51.1796748 L80.4208281,88.1796748 L130.569071,37.8107284" id="Line"></path>
                        <path d="M81.5,87.5 L81.5,136.5" id="Line-2"></path>
                    </g>
                </g>
                <g id="多语言" transform="translate(0.489086, 0.727089)">
                    <g id="Group-46" transform="translate(38.096929, 32.000000)">
                        <polygon id="Path-17" fill="#5DC900" transform="translate(51.844809, 62.203343) rotate(-9.000000) translate(-51.844809, -62.203343) " points="44.7248278 58.6497501 58.4500189 68.9570256 58.9647899 65.7068897 45.2316722 55.4496606"></polygon>
                        <polygon id="Path-17" fill="#58BF00" transform="translate(34.207389, 58.311894) rotate(-9.000000) translate(-34.207389, -58.311894) " points="10.1667201 53.6044144 41.8716991 76.1446568 56.5705956 61.1674326 54.3575342 59.7962406 41.848656 72.1415373 15.2154739 53.6356334 28.1603957 43.5333886 56.5705956 61.1674326 58.2480571 59.3131926 27.6983121 40.4791314"></polygon>
                        <polygon id="Path-16" fill="#499F00" points="22.0678719 41.0309562 22.0678719 72.8896662 24.1005704 70.0167918 24.1005704 38.9152268"></polygon>
                        <polygon id="Path-17" fill="#54B600" transform="translate(13.545723, 35.170539) rotate(-9.000000) translate(-13.545723, -35.170539) " points="3.70583792 29.7391191 21.0975741 42.3700762 23.3856076 40.5281883 5.91713837 27.9710013"></polygon>
                        <polygon id="Path-17" fill="#58BF00" transform="translate(12.887990, 64.184444) rotate(-9.000000) translate(-12.887990, -64.184444) " points="5.76800938 60.6308515 19.4932005 70.9381269 20.0079715 67.687991 6.27485377 57.4307619"></polygon>
                        <polygon id="Path-16" fill="#499F00" points="5.23062879 34.4257429 5.23062879 61.8773814 7.26332731 59.5956411 7.26332731 34.2034756"></polygon>
                        <polygon id="Path-17" fill="#58BF00" transform="translate(11.236816, 9.508430) rotate(-9.000000) translate(-11.236816, -9.508430) " points="1.16838598 15.3223501 3.71714981 17.2168279 21.3052469 3.56199734 18.6947789 1.80003211"></polygon>
                        <polygon id="Path-17" fill="#58BF00" transform="translate(12.638444, 37.772460) rotate(-9.000000) translate(-12.638444, -37.772460) " points="7.07700487 38.5657189 6.29514334 43.5021982 18.9817445 33.7550179 16.3379525 32.0427211"></polygon>
                        <polygon id="Path-15" fill="#8AD500" points="2.20408756 16.8024187 5.01175268 18.2945215 5.17099701 49.8981046 2.37331229 47.9801382"></polygon>
                        <polygon id="Path-16" fill="#50AC02" points="5.02659294 18.2956043 4.98231431 22.1396418 20.213939 5.40523773 18.1812405 7.63758691 18.1812405 32.8738039 7.27012187 44.3607815 7.27012187 19.6281869 4.97395546 22.1396418 4.97395546 49.9452661 17.4883233 36.7203331 20.213939 33.8144299 20.213939 2.03453382"></polygon>
                        <polygon id="Path-15" fill="#9AD928" points="3.08873808 31.317707 7.1582172 33.4081775 22.0815365 41.0742097 22.0815365 72.8658657 3.08873808 62.6470316 3.08873808 60.6270606 20.0701227 69.442745 20.0701227 42.4804985 7.19136788 35.7576334 5.3410324 34.7917359 5.3410324 50.0969285 5.3410324 61.7983758 3.08873808 60.6270606 3.08873808 48.4615925"></polygon>
                        <polygon id="Path-16" fill="#50AD00" points="61.0246904 39.0498549 61.0246904 70.9085648 63.0573889 68.0356905 63.0573889 36.9341254"></polygon>
                        <polygon id="Path-16" fill="#50AD00" points="44.1874472 32.4446415 44.1874472 59.89628 46.2201457 57.6145398 46.2201457 32.2223742"></polygon>
                        <polygon id="Path-15" fill="#A9EB30" points="42.0455565 29.3366057 46.1150356 31.4270761 61.0383549 39.0931083 61.0383549 70.8847643 42.0455565 60.6659302 42.0455565 58.6459592 59.0269411 67.4616436 59.0269411 40.4993971 46.1481863 33.776532 44.2978508 32.8106346 44.2978508 48.1158271 44.2978508 59.8172745 42.0455565 58.6459592 42.0455565 46.4804911"></polygon>
                        <polygon id="Path-15" fill="#8AD500" points="15.3165517 10.7741549 18.177378 7.60632916 18.2834611 32.8279693 15.3165517 31.5897693"></polygon>
                        <polygon id="Path-62" fill="#50AC02" points="7.2735795 30.4451168 7.2735795 47.5184607 4.98187012 49.9512889 4.98187012 29.8439082"></polygon>
                        <polygon id="Path-63" fill="#54B600" points="13.3084074 33.4977888 18.8784894 36.2982477 17.1250013 38.534323 10.4402358 35.0998036"></polygon>
                        <polygon id="Path-64" fill="#8AD500" points="2.85919124 30.9117569 4.97350613 32.0103417 4.97350613 49.8819655 2.85919124 48.2484359"></polygon>
                        <polygon id="Path-65" fill="#8AD500" points="9.67431153 57.3985619 9.67431153 59.8915961 44.6863444 77.0850966 44.6863444 74.5943578"></polygon>
                        <polygon id="Path-66" fill="#499F00" points="58.1304434 55.5488551 44.6539413 74.5634549 44.6539413 77.0885464 58.1304434 58.123528"></polygon>
                        <polygon id="Path-67" fill="#8AD500" points="54.3452327 56.6204311 52.7819795 58.7435364 26.0144352 47.0407969 26.0144352 44.6711741"></polygon>
                        <polygon id="Path-68" fill="#50AC02" points="26.0137506 44.5559843 26.0137506 47.0835969 16.5452924 57.5634806 14.6119636 56.6960817"></polygon>
                        <polygon id="Path-17" fill="#54B600" transform="translate(33.338351, 25.044083) rotate(-9.000000) translate(-33.338351, -25.044083) " points="9.29768219 20.3366031 41.0026611 42.8768454 55.7015576 27.8996212 53.4884962 26.5284293 40.9796181 38.8737259 14.346436 20.3678221 27.2913577 10.2655773 55.7015576 27.8996212 57.3790191 26.0453812 26.8292742 7.21132005"></polygon>
                        <polygon id="Path-65" fill="#9AD928" points="8.80527359 24.1307506 8.80527359 26.6237847 43.8173065 43.8172852 43.8173065 41.3265465"></polygon>
                        <polygon id="Path-66" fill="#499F00" points="57.2614055 22.2810437 43.7849034 41.2956436 43.7849034 43.8207351 57.2614055 24.8557167"></polygon>
                        <polygon id="Path-67" fill="#9AD928" points="53.4307803 23.3576457 52.0222117 25.5100687 25.1453973 13.7729856 25.1453973 11.4033628"></polygon>
                        <polygon id="Path-68" fill="#499F00" points="25.1447127 11.288173 25.1447127 13.8157855 15.6762544 24.2956692 13.7429257 23.4282703"></polygon>
                        <polygon id="Path-69" fill="#499F00" points="22.103019 47.3950717 22.103019 53.0974555 24.1156496 50.2462636 24.1156496 45.672126"></polygon>
                        <polygon id="Path-70" fill="#9AD928" points="20.0749345 48.769357 20.0749345 54.590496 22.0915382 53.3483067 22.0915382 48.2433978"></polygon>
                        <polygon id="Path-71" fill="#58BF00" points="19.3718938 58.9177392 25.4312948 61.8351674 24.1955961 64.5372873 18.5524987 61.7275132"></polygon>
                        <polygon id="Path-72" fill="#50AC02" points="18.2173516 13.4615616 18.2394593 21.5018685 20.2100853 19.3452577 20.2328296 11.6457369"></polygon>
                        <polygon id="Path-73" fill="#8AD500" points="15.3283976 15.7001495 15.3283976 24.138885 16.6875951 24.7758557 18.2418945 21.9885965 18.2100181 13.1782341"></polygon>
                        <polygon id="Path-17" fill="#5DC900" transform="translate(52.502541, 33.189437) rotate(-9.000000) translate(-52.502541, -33.189437) " points="42.6626564 27.7580177 60.0543926 40.3889748 62.342426 38.547087 44.8739568 25.9899"></polygon>
                        <polygon id="Path-74" fill="#A9EB30" points="45.6252893 31.2274375 45.0815896 33.2445124 52.576452 37.1322345 53.4061682 35.1818398"></polygon>
                        <polygon id="Path-75" fill="#A9EB30" points="42.0434061 51.0014869 42.0434061 55.0041071 44.2974727 55.3472499 44.2974727 51.5487955"></polygon>
                        <polygon id="Path-76" fill="#50AD00" points="46.212596 50.4388695 46.212596 56.803048 44.3111377 55.9196794 44.3111377 51.2976053"></polygon>
                        <polygon id="Path-77" fill="#58BF00" points="50.1667781 62.2835116 48.0462206 65.1545895 50.8510818 65.8369616 52.3999503 63.6285531"></polygon>
                    </g>
                    <g id="waikuang" transform="translate(0.216625, 0.697905)" stroke="#BFC6D3" stroke-dasharray="5" stroke-linecap="square">
                        <path d="M49.9624712,0.867873161 L131.403566,39.1462207 L131.403566,86.7011056 L81.405554,137.006262 L1.39473207,99.9969811 L1.39473207,51.3905019 L49.9624712,0.867873161 Z" id="Line-27"></path>
                        <path d="M130.028319,86.098339 L102.513782,73.1637025" id="Line-27"></path>
                        <path d="M50.1182382,2.60386589 L50.1182382,34.0436089 M37.7388096,62.6142277 L0.120226006,100.463907" id="Line-27"></path>
                        <path d="M1.42082808,51.1796748 L80.4208281,88.1796748 L130.569071,37.8107284" id="Line"></path>
                        <path d="M81.5,87.5 L81.5,136.5" id="Line-2"></path>
                    </g>
                </g>
                <g id="多语言" transform="translate(0.489086, 0.727089)">
                    <g id="Group-46" transform="translate(38.096929, 32.000000)">
                        <polygon id="Path-17" fill="#5DC900" transform="translate(51.844809, 62.203343) rotate(-9.000000) translate(-51.844809, -62.203343) " points="44.7248278 58.6497501 58.4500189 68.9570256 58.9647899 65.7068897 45.2316722 55.4496606"></polygon>
                        <polygon id="Path-17" fill="#58BF00" transform="translate(34.207389, 58.311894) rotate(-9.000000) translate(-34.207389, -58.311894) " points="10.1667201 53.6044144 41.8716991 76.1446568 56.5705956 61.1674326 54.3575342 59.7962406 41.848656 72.1415373 15.2154739 53.6356334 28.1603957 43.5333886 56.5705956 61.1674326 58.2480571 59.3131926 27.6983121 40.4791314"></polygon>
                        <polygon id="Path-16" fill="#499F00" points="22.0678719 41.0309562 22.0678719 72.8896662 24.1005704 70.0167918 24.1005704 38.9152268"></polygon>
                        <polygon id="Path-17" fill="#54B600" transform="translate(13.545723, 35.170539) rotate(-9.000000) translate(-13.545723, -35.170539) " points="3.70583792 29.7391191 21.0975741 42.3700762 23.3856076 40.5281883 5.91713837 27.9710013"></polygon>
                        <polygon id="Path-17" fill="#58BF00" transform="translate(12.887990, 64.184444) rotate(-9.000000) translate(-12.887990, -64.184444) " points="5.76800938 60.6308515 19.4932005 70.9381269 20.0079715 67.687991 6.27485377 57.4307619"></polygon>
                        <polygon id="Path-16" fill="#499F00" points="5.23062879 34.4257429 5.23062879 61.8773814 7.26332731 59.5956411 7.26332731 34.2034756"></polygon>
                        <polygon id="Path-17" fill="#58BF00" transform="translate(11.236816, 9.508430) rotate(-9.000000) translate(-11.236816, -9.508430) " points="1.16838598 15.3223501 3.71714981 17.2168279 21.3052469 3.56199734 18.6947789 1.80003211"></polygon>
                        <polygon id="Path-17" fill="#58BF00" transform="translate(12.638444, 37.772460) rotate(-9.000000) translate(-12.638444, -37.772460) " points="7.07700487 38.5657189 6.29514334 43.5021982 18.9817445 33.7550179 16.3379525 32.0427211"></polygon>
                        <polygon id="Path-15" fill="#8AD500" points="2.20408756 16.8024187 5.01175268 18.2945215 5.17099701 49.8981046 2.37331229 47.9801382"></polygon>
                        <polygon id="Path-16" fill="#50AC02" points="5.02659294 18.2956043 4.98231431 22.1396418 20.213939 5.40523773 18.1812405 7.63758691 18.1812405 32.8738039 7.27012187 44.3607815 7.27012187 19.6281869 4.97395546 22.1396418 4.97395546 49.9452661 17.4883233 36.7203331 20.213939 33.8144299 20.213939 2.03453382"></polygon>
                        <polygon id="Path-15" fill="#9AD928" points="3.08873808 31.317707 7.1582172 33.4081775 22.0815365 41.0742097 22.0815365 72.8658657 3.08873808 62.6470316 3.08873808 60.6270606 20.0701227 69.442745 20.0701227 42.4804985 7.19136788 35.7576334 5.3410324 34.7917359 5.3410324 50.0969285 5.3410324 61.7983758 3.08873808 60.6270606 3.08873808 48.4615925"></polygon>
                        <polygon id="Path-16" fill="#50AD00" points="61.0246904 39.0498549 61.0246904 70.9085648 63.0573889 68.0356905 63.0573889 36.9341254"></polygon>
                        <polygon id="Path-16" fill="#50AD00" points="44.1874472 32.4446415 44.1874472 59.89628 46.2201457 57.6145398 46.2201457 32.2223742"></polygon>
                        <polygon id="Path-15" fill="#A9EB30" points="42.0455565 29.3366057 46.1150356 31.4270761 61.0383549 39.0931083 61.0383549 70.8847643 42.0455565 60.6659302 42.0455565 58.6459592 59.0269411 67.4616436 59.0269411 40.4993971 46.1481863 33.776532 44.2978508 32.8106346 44.2978508 48.1158271 44.2978508 59.8172745 42.0455565 58.6459592 42.0455565 46.4804911"></polygon>
                        <polygon id="Path-15" fill="#8AD500" points="15.3165517 10.7741549 18.177378 7.60632916 18.2834611 32.8279693 15.3165517 31.5897693"></polygon>
                        <polygon id="Path-62" fill="#50AC02" points="7.2735795 30.4451168 7.2735795 47.5184607 4.98187012 49.9512889 4.98187012 29.8439082"></polygon>
                        <polygon id="Path-63" fill="#54B600" points="13.3084074 33.4977888 18.8784894 36.2982477 17.1250013 38.534323 10.4402358 35.0998036"></polygon>
                        <polygon id="Path-64" fill="#8AD500" points="2.85919124 30.9117569 4.97350613 32.0103417 4.97350613 49.8819655 2.85919124 48.2484359"></polygon>
                        <polygon id="Path-65" fill="#8AD500" points="9.67431153 57.3985619 9.67431153 59.8915961 44.6863444 77.0850966 44.6863444 74.5943578"></polygon>
                        <polygon id="Path-66" fill="#499F00" points="58.1304434 55.5488551 44.6539413 74.5634549 44.6539413 77.0885464 58.1304434 58.123528"></polygon>
                        <polygon id="Path-67" fill="#8AD500" points="54.3452327 56.6204311 52.7819795 58.7435364 26.0144352 47.0407969 26.0144352 44.6711741"></polygon>
                        <polygon id="Path-68" fill="#50AC02" points="26.0137506 44.5559843 26.0137506 47.0835969 16.5452924 57.5634806 14.6119636 56.6960817"></polygon>
                        <polygon id="Path-17" fill="#54B600" transform="translate(33.338351, 25.044083) rotate(-9.000000) translate(-33.338351, -25.044083) " points="9.29768219 20.3366031 41.0026611 42.8768454 55.7015576 27.8996212 53.4884962 26.5284293 40.9796181 38.8737259 14.346436 20.3678221 27.2913577 10.2655773 55.7015576 27.8996212 57.3790191 26.0453812 26.8292742 7.21132005"></polygon>
                        <polygon id="Path-65" fill="#9AD928" points="8.80527359 24.1307506 8.80527359 26.6237847 43.8173065 43.8172852 43.8173065 41.3265465"></polygon>
                        <polygon id="Path-66" fill="#499F00" points="57.2614055 22.2810437 43.7849034 41.2956436 43.7849034 43.8207351 57.2614055 24.8557167"></polygon>
                        <polygon id="Path-67" fill="#9AD928" points="53.4307803 23.3576457 52.0222117 25.5100687 25.1453973 13.7729856 25.1453973 11.4033628"></polygon>
                        <polygon id="Path-68" fill="#499F00" points="25.1447127 11.288173 25.1447127 13.8157855 15.6762544 24.2956692 13.7429257 23.4282703"></polygon>
                        <polygon id="Path-69" fill="#499F00" points="22.103019 47.3950717 22.103019 53.0974555 24.1156496 50.2462636 24.1156496 45.672126"></polygon>
                        <polygon id="Path-70" fill="#9AD928" points="20.0749345 48.769357 20.0749345 54.590496 22.0915382 53.3483067 22.0915382 48.2433978"></polygon>
                        <polygon id="Path-71" fill="#58BF00" points="19.3718938 58.9177392 25.4312948 61.8351674 24.1955961 64.5372873 18.5524987 61.7275132"></polygon>
                        <polygon id="Path-72" fill="#50AC02" points="18.2173516 13.4615616 18.2394593 21.5018685 20.2100853 19.3452577 20.2328296 11.6457369"></polygon>
                        <polygon id="Path-73" fill="#8AD500" points="15.3283976 15.7001495 15.3283976 24.138885 16.6875951 24.7758557 18.2418945 21.9885965 18.2100181 13.1782341"></polygon>
                        <polygon id="Path-17" fill="#5DC900" transform="translate(52.502541, 33.189437) rotate(-9.000000) translate(-52.502541, -33.189437) " points="42.6626564 27.7580177 60.0543926 40.3889748 62.342426 38.547087 44.8739568 25.9899"></polygon>
                        <polygon id="Path-74" fill="#A9EB30" points="45.6252893 31.2274375 45.0815896 33.2445124 52.576452 37.1322345 53.4061682 35.1818398"></polygon>
                        <polygon id="Path-75" fill="#A9EB30" points="42.0434061 51.0014869 42.0434061 55.0041071 44.2974727 55.3472499 44.2974727 51.5487955"></polygon>
                        <polygon id="Path-76" fill="#50AD00" points="46.212596 50.4388695 46.212596 56.803048 44.3111377 55.9196794 44.3111377 51.2976053"></polygon>
                        <polygon id="Path-77" fill="#58BF00" points="50.1667781 62.2835116 48.0462206 65.1545895 50.8510818 65.8369616 52.3999503 63.6285531"></polygon>
                    </g>
                    <g id="waikuang" transform="translate(0.216625, 0.697905)" stroke="#BFC6D3" stroke-dasharray="5" stroke-linecap="square">
                        <path d="M49.9624712,0.867873161 L131.403566,39.1462207 L131.403566,86.7011056 L81.405554,137.006262 L1.39473207,99.9969811 L1.39473207,51.3905019 L49.9624712,0.867873161 Z" id="Line-27"></path>
                        <path d="M130.028319,86.098339 L102.513782,73.1637025" id="Line-27"></path>
                        <path d="M50.1182382,2.60386589 L50.1182382,34.0436089 M37.7388096,62.6142277 L0.120226006,100.463907" id="Line-27"></path>
                        <path d="M1.42082808,51.1796748 L80.4208281,88.1796748 L130.569071,37.8107284" id="Line"></path>
                        <path d="M81.5,87.5 L81.5,136.5" id="Line-2"></path>
                    </g>
                </g>
            </g>
        </g>
    </g>
</svg>