<svg width="132" height="138" xmlns="http://www.w3.org/2000/svg"><g fill="none" fill-rule="evenodd"><path fill="#58BF00" d="M51.54 103.94l4.99 3.04 25.23-27.7-5.65-2.9z"/><path fill="#8AD500" d="M76.1 52.96l8.37-8.94-2.19 35.66-6.18-2.97zM70.7 74.4l4.94 1.57v9.82l-4.94-2.6zM57.46 91.63l5.17 2.31.5 5.54-6.17-3.26zM63.01 67.01l7.54-9.41-2.19 35.66-5.35-3.08z"/><path fill="#58BF00" d="M49.86 84.82l6.37 3.23 12.14-13.47-6.42-3.03zM57.54 91.78l5.09 2.1 5.74-6-5.26-1.61z"/><path fill="#58BF00" d="M57.43 86.37l5.2 1.8 5.61-6.21-5.13-1.4zM69.27 65.6l1.44 7.35 11-12.68-4.78-2.13zM51.94 68.2l9.4 4.5 4-4.5-9.25-4.26z"/><path fill="#8AD500" d="M61.36 72.6v6.31l-9.4-4.5v-6.32"/><path fill="#50AC02" d="M61.36 72.62v6.3l3.98-4.28v-6.55z"/><path fill="#8AD500" d="M57.79 86.31l4.84 1.93v2.28l-4.84-2.1zM49.44 65.77l6.34 3.27-.01 43.1-6.33-3.88z"/><path fill="#58BF00" d="M62.67 58.17L74 63.52l4.55-5.35-11.27-5.22z"/><path fill="#8AD500" d="M73.88 63.38v2.21l-11.41-5.68v-2.2"/><path fill="#50AC02" d="M73.88 63.39v2.38l4.67-5.14V58.1z"/><g><path fill="#58BF00" d="M62.67 54.14L74 59.49l4.55-5.35-11.27-5.22z"/><path fill="#8AD500" d="M73.88 59.35v2.2l-11.41-5.67v-2.2"/><path fill="#50AC02" d="M73.88 59.36v2.38l4.67-5.14v-2.53z"/></g><path fill="#58BF00" d="M49.42 65.82l6.37 3.23L84.4 38.7l-6.42-3.03z"/><g><path fill="#8AD500" d="M85.47 36v5.65l-1.12-.52v-2.37l-7.13-3.9v-.46"/><path fill="#58BF00" d="M71.01 38.93l6.8 3.32L86.76 32l-6.72-3.18z"/><path fill="#8AD500" d="M77.71 42.04v2.2l-6.7-3.18v-2.2"/><path fill="#50AC02" d="M77.71 42.15v2.39l7.74-8.64v5.75l1.3-2.05v-7.67z"/></g><g><path fill="#8AD500" d="M53.97 110.64v5.65l-1.11-.52v-2.37l-3.65-2.34v-.46"/><path fill="#58BF00" d="M47.72 105.42l6.1 2.93 1.45-1.71-6.01-2.8z"/><path fill="#58BF00" d="M49.18 109.14l6.1 4.93 8.18-8.81-.9-.37-6.82 7.19-1.31-.85z"/><path fill="#8AD500" d="M53.78 108.34v9.82l-6.02-3.44v-9.32"/><path fill="#50AC02" d="M53.79 108.33v9.93l9.67-10.84v-2.17l-8.2 8.8v-7.48z"/></g><path fill="#50AC02" d="M55.8 69.04l-.07 7.48v35.64l3.31-3.57V89.2l9.14-10.34v-4.08l-9.14 9.95V71.36l9.14-9.85v20.41l-5.5 6.28v2.52l5.5-6.06v3.15l-5.5 6.1v5.1l8.28-8.56V81.1l3.96-4.55v9.76l3.21-3.33v-9.92l3.48-4.03v-8.67l-10.65 11.9V58.51L81.6 47.02V79.4L59.04 102.8v5.8l25.43-26.44v-38.2l-.07-5.26z"/><g stroke="#BFC6D3" stroke-dasharray="5" stroke-linecap="square"><path d="M49.52 1.33l81.44 38.28v47.55l-50 50.3-80-37v-48.6L49.51 1.32zM129.58 86.56L88.53 67.15M53.75 51.48l-4.18-1.93"/><path d="M49.67 3.07v47.55l-50 50.3"/><path d="M.98 51.64l79 37 50.15-50.37M81.06 87.96v49"/></g><g><path fill="#58BF00" d="M51.54 103.94l4.99 3.04 25.23-27.7-5.65-2.9z"/><path fill="#8AD500" d="M76.1 52.96l8.37-8.94-2.19 35.66-6.18-2.97zM70.7 74.4l4.94 1.57v9.82l-4.94-2.6zM57.46 91.63l5.17 2.31.5 5.54-6.17-3.26zM63.01 67.01l7.54-9.41-2.19 35.66-5.35-3.08z"/><path fill="#58BF00" d="M49.86 84.82l6.37 3.23 12.14-13.47-6.42-3.03zM57.54 91.78l5.09 2.1 5.74-6-5.26-1.61z"/><path fill="#58BF00" d="M57.43 86.37l5.2 1.8 5.61-6.21-5.13-1.4zM69.27 65.6l1.44 7.35 11-12.68-4.78-2.13zM51.94 68.2l9.4 4.5 4-4.5-9.25-4.26z"/><path fill="#8AD500" d="M61.36 72.6v6.31l-9.4-4.5v-6.32"/><path fill="#50AC02" d="M61.36 72.62v6.3l3.98-4.28v-6.55z"/><path fill="#8AD500" d="M57.79 86.31l4.84 1.93v2.28l-4.84-2.1zM49.44 65.77l6.34 3.27-.01 43.1-6.33-3.88z"/><path fill="#58BF00" d="M62.67 58.17L74 63.52l4.55-5.35-11.27-5.22z"/><path fill="#8AD500" d="M73.88 63.38v2.21l-11.41-5.68v-2.2"/><path fill="#50AC02" d="M73.88 63.39v2.38l4.67-5.14V58.1z"/><g><path fill="#58BF00" d="M62.67 54.14L74 59.49l4.55-5.35-11.27-5.22z"/><path fill="#8AD500" d="M73.88 59.35v2.2l-11.41-5.67v-2.2"/><path fill="#50AC02" d="M73.88 59.36v2.38l4.67-5.14v-2.53z"/></g><path fill="#58BF00" d="M49.42 65.82l6.37 3.23L84.4 38.7l-6.42-3.03z"/><g><path fill="#8AD500" d="M85.47 36v5.65l-1.12-.52v-2.37l-7.13-3.9v-.46"/><path fill="#58BF00" d="M71.01 38.93l6.8 3.32L86.76 32l-6.72-3.18z"/><path fill="#8AD500" d="M77.71 42.04v2.2l-6.7-3.18v-2.2"/><path fill="#50AC02" d="M77.71 42.15v2.39l7.74-8.64v5.75l1.3-2.05v-7.67z"/></g><g><path fill="#8AD500" d="M53.97 110.64v5.65l-1.11-.52v-2.37l-3.65-2.34v-.46"/><path fill="#58BF00" d="M47.72 105.42l6.1 2.93 1.45-1.71-6.01-2.8z"/><path fill="#58BF00" d="M49.18 109.14l6.1 4.93 8.18-8.81-.9-.37-6.82 7.19-1.31-.85z"/><path fill="#8AD500" d="M53.78 108.34v9.82l-6.02-3.44v-9.32"/><path fill="#50AC02" d="M53.79 108.33v9.93l9.67-10.84v-2.17l-8.2 8.8v-7.48z"/></g><path fill="#50AC02" d="M55.8 69.04l-.07 7.48v35.64l3.31-3.57V89.2l9.14-10.34v-4.08l-9.14 9.95V71.36l9.14-9.85v20.41l-5.5 6.28v2.52l5.5-6.06v3.15l-5.5 6.1v5.1l8.28-8.56V81.1l3.96-4.55v9.76l3.21-3.33v-9.92l3.48-4.03v-8.67l-10.65 11.9V58.51L81.6 47.02V79.4L59.04 102.8v5.8l25.43-26.44v-38.2l-.07-5.26z"/><g stroke="#BFC6D3" stroke-dasharray="5" stroke-linecap="square"><path d="M49.52 1.33l81.44 38.28v47.55l-50 50.3-80-37v-48.6L49.51 1.32zM129.58 86.56L88.53 67.15M53.75 51.48l-4.18-1.93"/><path d="M49.67 3.07v47.55l-50 50.3"/><path d="M.98 51.64l79 37 50.15-50.37M81.06 87.96v49"/></g><g><path fill="#58BF00" d="M51.54 103.94l4.99 3.04 25.23-27.7-5.65-2.9z"/><path fill="#8AD500" d="M76.1 52.96l8.37-8.94-2.19 35.66-6.18-2.97zM70.7 74.4l4.94 1.57v9.82l-4.94-2.6zM57.46 91.63l5.17 2.31.5 5.54-6.17-3.26zM63.01 67.01l7.54-9.41-2.19 35.66-5.35-3.08z"/><path fill="#58BF00" d="M49.86 84.82l6.37 3.23 12.14-13.47-6.42-3.03zM57.54 91.78l5.09 2.1 5.74-6-5.26-1.61z"/><path fill="#58BF00" d="M57.43 86.37l5.2 1.8 5.61-6.21-5.13-1.4zM69.27 65.6l1.44 7.35 11-12.68-4.78-2.13zM51.94 68.2l9.4 4.5 4-4.5-9.25-4.26z"/><path fill="#8AD500" d="M61.36 72.6v6.31l-9.4-4.5v-6.32"/><path fill="#50AC02" d="M61.36 72.62v6.3l3.98-4.28v-6.55z"/><path fill="#8AD500" d="M57.79 86.31l4.84 1.93v2.28l-4.84-2.1zM49.44 65.77l6.34 3.27-.01 43.1-6.33-3.88z"/><path fill="#58BF00" d="M62.67 58.17L74 63.52l4.55-5.35-11.27-5.22z"/><path fill="#8AD500" d="M73.88 63.38v2.21l-11.41-5.68v-2.2"/><path fill="#50AC02" d="M73.88 63.39v2.38l4.67-5.14V58.1z"/><g><path fill="#58BF00" d="M62.67 54.14L74 59.49l4.55-5.35-11.27-5.22z"/><path fill="#8AD500" d="M73.88 59.35v2.2l-11.41-5.67v-2.2"/><path fill="#50AC02" d="M73.88 59.36v2.38l4.67-5.14v-2.53z"/></g><path fill="#58BF00" d="M49.42 65.82l6.37 3.23L84.4 38.7l-6.42-3.03z"/><g><path fill="#8AD500" d="M85.47 36v5.65l-1.12-.52v-2.37l-7.13-3.9v-.46"/><path fill="#58BF00" d="M71.01 38.93l6.8 3.32L86.76 32l-6.72-3.18z"/><path fill="#8AD500" d="M77.71 42.04v2.2l-6.7-3.18v-2.2"/><path fill="#50AC02" d="M77.71 42.15v2.39l7.74-8.64v5.75l1.3-2.05v-7.67z"/></g><g><path fill="#8AD500" d="M53.97 110.64v5.65l-1.11-.52v-2.37l-3.65-2.34v-.46"/><path fill="#58BF00" d="M47.72 105.42l6.1 2.93 1.45-1.71-6.01-2.8z"/><path fill="#58BF00" d="M49.18 109.14l6.1 4.93 8.18-8.81-.9-.37-6.82 7.19-1.31-.85z"/><path fill="#8AD500" d="M53.78 108.34v9.82l-6.02-3.44v-9.32"/><path fill="#50AC02" d="M53.79 108.33v9.93l9.67-10.84v-2.17l-8.2 8.8v-7.48z"/></g><path fill="#50AC02" d="M55.8 69.04l-.07 7.48v35.64l3.31-3.57V89.2l9.14-10.34v-4.08l-9.14 9.95V71.36l9.14-9.85v20.41l-5.5 6.28v2.52l5.5-6.06v3.15l-5.5 6.1v5.1l8.28-8.56V81.1l3.96-4.55v9.76l3.21-3.33v-9.92l3.48-4.03v-8.67l-10.65 11.9V58.51L81.6 47.02V79.4L59.04 102.8v5.8l25.43-26.44v-38.2l-.07-5.26z"/><g stroke="#BFC6D3" stroke-dasharray="5" stroke-linecap="square"><path d="M49.52 1.33l81.44 38.28v47.55l-50 50.3-80-37v-48.6L49.51 1.32zM129.58 86.56L88.53 67.15M53.75 51.48l-4.18-1.93"/><path d="M49.67 3.07v47.55l-50 50.3"/><path d="M.98 51.64l79 37 50.15-50.37M81.06 87.96v49"/></g></g></g></g></svg>