<?xml version="1.0" encoding="utf-8"?>
<!-- Generator: Adobe Illustrator 22.1.0, SVG Export Plug-In . SVG Version: 6.00 Build 0)  -->
<svg version="1.1" id="Layer_1" xmlns="http://www.w3.org/2000/svg" xmlns:xlink="http://www.w3.org/1999/xlink" x="0px" y="0px"
	 viewBox="0 0 397.4 397.4" style="enable-background:new 0 0 397.4 397.4;" xml:space="preserve">
<style type="text/css">
	.st0{fill:#E1E6E9;}
	.st1{fill:#FFFFFF;}
	.st2{fill:#B4E700;}
	.st3{fill:#478E0A;}
	.st4{fill:#4FBF9F;}
	.st5{fill:#8AD500;}
</style>
<path class="st0" d="M195.9,26.6h70.5v67.4c0-6.8-6.8-13-15.5-13c-4.3,0-8.2,1.4-11,3.7c-2.8,2.3-4.5,5.6-4.5,9.2v34.6h-39.6
	L195.9,26.6L195.9,26.6z"/>
<path class="st1" d="M360.4,196.5v-17.9l29-38.9V30.9c0-6.8-6.8-13-15.5-13s-15.5,5.6-15.5,13v-6.8c0-6.8-6.8-13-15.5-13
	s-15.5,5.6-15.5,13v-4.3c0.6-7.4-6.2-13-14.9-13s-15.5,5.6-15.5,13v4.3c0-6.8-6.8-13-15.5-13s-15.5,5.6-15.5,13V94
	c0-6.8-6.8-13-15.4-13l0,0c-8.7,0-15.5,5.6-15.5,13v50.1l37.1,34V196"/>
<path class="st2" d="M369.1,196.5v69.9h-66.8c6.8,0,13-6.8,13-15.4c0-4.3-1.4-8.2-3.7-11c-2.3-2.8-5.6-4.5-9.2-4.5h-35.2v-39H369.1
	L369.1,196.5z"/>
<rect x="339.4" y="219.4" class="st3" width="12.3" height="12.3"/>
<path class="st1" d="M199.7,361h17.9l38.9,29h108.8c6.8,0,13-6.8,13-15.5s-5.6-15.5-13-15.5h6.8c6.8,0,13-6.8,13-15.5
	s-5.6-15.5-13-15.5h4.3c6.8,0,13-6.8,13-15.5s-5.6-15.5-13-15.5h-4.3c6.8,0,13-6.8,13-15.5s-5.6-15.5-13-15.5h-69.8
	c6.8,0,13-6.8,13-15.5l0,0c0-8.7-5.6-15.5-13-15.5h-50.1l-34,37.1h-17.9"/>
<path class="st4" d="M199.7,267.6v102h-69.9v-66.8c0,6.8,6.8,13,15.5,13s15.5-5.6,15.5-13v-35.2H199.7L199.7,267.6z"/>
<rect x="164.5" y="340" class="st3" width="12.3" height="12.3"/>
<path class="st1" d="M123.7,218.8v-17.9l-88.4-0.6v17.9L6.2,257.1v108.8c0,6.8,6.8,13,15.5,13s15.5-6.2,15.5-13v6.8
	c0,6.8,6.8,13,15.5,13s15.5-5.6,15.5-13v4.3c0,6.8,6.8,13,15.5,13s15.5-5.6,15.5-13v-4.3c0,6.8,6.8,13,15.5,13s15.5-5.6,15.5-13
	v-69.8c0,6.8,6.8,13,15.5,13c8.7,0,15.5-5.6,15.5-13v-50.1L123.7,218.8z"/>
<path class="st5" d="M127.9,160.7v39.6H26v-70.5h67.4c-6.8,0-13,6.8-13,15.5s5.6,15.5,13,15.5L127.9,160.7L127.9,160.7z"/>
<rect x="43.9" y="165" class="st3" width="12.3" height="12.3"/>
<path class="st1" d="M178,35.8l-38.9-29H30.3C23.5,6.8,18,13.6,18,22.2s5.6,15.5,12.3,15.5h-6.9c-6.8,0-13,6.8-13,14.8
	c0,8.7,5.6,15.4,13,15.4h-4.3c-7.4,0-13,6.8-13,15.5s5.6,15.5,13,15.5h4.3c-6.8,0-13,6.8-13,15.5s5.6,15.5,13,15.5h69.9
	c-6.8,0-13,6.8-13,15.5c0,8.7,5.6,15.5,13,15.5h50.1l34-37.1h17.9V37L178,35.8z"/>
<g>
	<path class="st3" d="M395.6,141.5V30.9c0-4.9-2.5-10.5-6.8-13.6c-7.4-6.2-18.6-6.8-26.6-1.9c-3.7-6.2-10.5-9.9-19.1-9.9
		c-5,0-9.2,1.2-13,3.7c-3.1-5.6-9.9-8.7-17.3-8.7c-7.4,0-14.2,3.1-17.9,8.7c-3.7-2.5-8-3.7-13-3.7c-10.5,0-19.1,6.8-21,15.5h-71.8
		v9.2h-9.9L141.6,0.6H30.3c-10.5,0-18.6,9.9-18.6,21.7c0,4.3,1.2,8,3.1,11.8C8.7,37.7,4.3,44.5,4.3,52.6c0,4.9,1.2,9.2,3.7,13
		C3.1,69.2,0,76,0,83.4c0,7.4,3.1,14.2,8.7,17.9c-2.5,3.7-3.7,8-3.7,13c0,10.5,6.8,19.1,15.5,21V207h9.2v9.9L0,255.3V366
		c0,10.5,9.9,19.1,21.7,19.1c4.3,0,8-1.2,11.8-3.1c3.7,6.2,10.5,9.9,19.1,9.9c5,0,9.2-1.2,13-3.7c3.7,4.9,10.5,8.7,17.9,8.7
		c7.4,0,14.2-3.1,17.9-8.7c3.7,2.5,8,3.7,13,3.7c10.5,0,19.1-6.8,21-15.5h71.7v-9.2h9.9l38.9,29h110.7c10.5,0,19.1-9.9,19.1-21.7
		c0-4.3-1.2-8-3.1-11.8c6.2-3.7,9.9-10.5,9.9-19.1c0-4.9-1.2-9.2-3.7-13c4.9-3.7,8.7-10.5,8.7-17.9c0-7.4-3.1-14.2-8-17.9
		c2.5-3.7,3.7-8,3.7-13c0-10.5-6.8-19.1-15.5-21v-71.7h-9.2v-9.9L395.6,141.5z M202.1,32.7h58.7v43.9c-2.5-1.2-6.2-1.9-9.2-1.9
		c-11.8,0-21.7,8.7-21.7,19.1v28.4h-27.8V32.7z M23.5,123c-3.7,0-6.8-4.3-6.8-9.2s3.1-9.2,6.8-9.2l0,0h40.8V92.1H23.5h-4.3
		c-3.7,0-6.8-4.3-6.8-9.2c0-5,3.1-9.2,6.8-9.2h45.1V61.3H23.5l0,0c-3.7,0-6.8-4.3-6.8-9.2c0-4.3,3.1-8,6.8-8h40.8V31.7H30.3
		c-3.1,0-6.2-4.3-6.2-9.2s3.1-9.2,6.2-9.2h106.3l38.9,29h13.6v74.2h-14.2l-34,36.8H93.3c-3.7,0-6.8-4.3-6.8-9.2s3.1-9.2,6.8-9.2l0,0
		H118v-12.3H93.3H23.5V123z M93.3,166.3h28.4v27.8H32.1v-58.7H76c-1.2,2.5-1.9,6.2-1.9,9.2C74.8,156.4,82.8,166.3,93.3,166.3z
		 M122.4,277.5v94.6c0,3.7-4.3,6.8-9.2,6.8s-9.2-3.1-9.2-6.8v-40.8H91.5v45.1c0,3.7-4.3,6.8-9.2,6.8s-9.2-3.1-9.2-6.8v-45.1H60.6
		v40.8c0,3.7-4.3,6.8-9.2,6.8s-9.3-3.1-9.3-6.8v-40.8H30.9v33.4c0,3.7-4.3,6.8-9.2,6.8s-9.2-3.1-9.2-6.8V259l29-38.9v-13.6h74.2
		v14.2l37.1,34v47.6c0,3.7-4.3,6.8-9.2,6.8c-4.9,0-9.2-3.1-9.2-6.8v-24.8L122.4,277.5L122.4,277.5z M193.5,364.1h-58.7v-43.9
		c2.5,1.2,6.2,1.9,9.2,1.9c11.8,0,21.7-8.7,21.7-19.1v-28.4h27.8V364.1z M165.7,261.4v-11.8l-37.1-34v-9.2h6.2v-40.2h11.8l34-37.1
		h9.2v6.2H230v11.8l37.1,34v9.2h-6.2v40.2h-11.8l-34,37.1h-9.2v-6.2H165.7L165.7,261.4z M372.2,273.8c3.7,0,6.8,4.3,6.8,9.2
		c0,2.5-0.6,4.9-2.5,6.8c-0.6,0.6-2.5,2.5-4.3,2.5h-40.8v12.3h45.1c3.7,0,6.8,4.3,6.8,9.2s-3.1,9.2-6.8,9.2h-45.1v12.3h40.8
		c3.7,0,6.8,4.3,6.8,9.2s-3.1,9.2-6.8,9.2h-40.8v12.3h33.4c3.7,0,6.8,4.3,6.8,9.2s-3.1,9.2-6.8,9.2H258.4l-38.9-29h-13.6v-74h14.2
		l34-37.1h47.6c3.7,0,6.8,4.3,6.8,9.2s-3.1,9.2-6.8,9.2h-24.8v10.5L372.2,273.8L372.2,273.8L372.2,273.8z M302.3,230.5h-28.4v-27.8
		h89.7v58.7h-43.9c1.2-2.5,1.9-6.2,1.9-9.2C320.8,240.4,312.8,230.5,302.3,230.5z M354.2,176.2v13.6H280v-14.2l-37.1-34V93.9
		c0-3.7,4.3-6.8,9.2-6.8s9.2,3.1,9.2,6.8v24.8h12.3V24c0-3.7,4.3-6.8,9.2-6.8s9.2,3.1,9.2,6.8v40.8h12.3V19.7c0-3.7,4.3-6.8,9.2-6.8
		s9.2,3.1,9.2,6.8v45.1h12.3V24c0-3.7,4.3-6.8,9.2-6.8c5,0,9.2,3.1,9.2,6.8v40.8h12.3v-34c0-3.7,4.3-6.8,9.2-6.8
		c2.5,0,5,0.6,6.8,2.5c-0.6,1.2,0.6,2.5,0.6,4.3v106.3L354.2,176.2z"/>
	<rect x="218.8" y="44.5" class="st3" width="12.3" height="12.3"/>
</g>
</svg>
