<?xml version="1.0" encoding="iso-8859-1"?>
<!-- Generator: Adobe Illustrator 19.0.0, SVG Export Plug-In . SVG Version: 6.00 Build 0)  -->
<svg version="1.1" id="Layer_1" xmlns="http://www.w3.org/2000/svg" xmlns:xlink="http://www.w3.org/1999/xlink" x="0px" y="0px"
	 viewBox="0 0 397.446 397.446" style="enable-background:new 0 0 397.446 397.446;" xml:space="preserve">
<path style="fill:#E1E6E9;" d="M195.943,26.57h70.465v67.362c0-6.788-6.788-12.994-15.451-12.994c-4.331,0-8.21,1.422-10.99,3.685
	c-2.78,2.327-4.461,5.56-4.461,9.244v34.586h-39.564V26.57z"/>
<path style="fill:#FFFFFF;" d="M360.404,196.525v-17.907l29.026-38.917v-108.8c0-6.788-6.788-12.994-15.451-12.994
	s-15.451,5.56-15.451,12.994v-6.788c0-6.788-6.788-12.994-15.451-12.994c-8.663,0-15.451,5.56-15.451,12.994v-4.331
	c0.646-7.434-6.206-12.994-14.869-12.994c-8.663,0-15.451,5.56-15.451,12.994v4.331c0-6.788-6.788-12.994-15.451-12.994
	c-8.663,0-15.451,5.56-15.451,12.994v69.883c0-6.788-6.788-12.994-15.45-12.994l0,0c-8.663,0-15.451,5.56-15.451,12.994v50.101
	l37.107,34.004v17.907"/>
<path style="fill:#FDBF5E;" d="M369.067,196.525v69.883h-66.78c6.788,0,12.994-6.788,12.994-15.45c0-4.331-1.422-8.21-3.685-10.99
	c-2.327-2.78-5.56-4.461-9.244-4.461h-35.232v-38.982L369.067,196.525L369.067,196.525z"/>
<rect x="339.394" y="219.41" style="fill:#193651;" width="12.347" height="12.347"/>
<path style="fill:#FFFFFF;" d="M199.693,360.986H217.6l38.917,29.026h108.8c6.788,0,12.994-6.788,12.994-15.451
	c0-8.663-5.56-15.451-12.994-15.451h6.788c6.788,0,12.994-6.788,12.994-15.451c0-8.663-5.56-15.451-12.994-15.451h4.331
	c6.788,0,12.994-6.788,12.994-15.451c0-8.663-5.56-15.451-12.994-15.451h-4.331c6.788,0,12.994-6.788,12.994-15.451
	c0-8.663-5.56-15.451-12.994-15.451h-69.818c6.788,0,12.994-6.788,12.994-15.451l0,0c0-8.663-5.56-15.451-12.994-15.451h-50.101
	l-34.004,37.107h-17.907"/>
<path style="fill:#4FBF9F;" d="M199.693,267.636v102.012H129.81v-66.78c0,6.788,6.788,12.994,15.451,12.994
	s15.451-5.56,15.451-12.994v-35.232L199.693,267.636L199.693,267.636z"/>
<rect x="164.461" y="339.976" style="fill:#193651;" width="12.347" height="12.347"/>
<path style="fill:#FFFFFF;" d="M123.669,218.828v-17.907l-88.372-0.646v17.907L6.206,257.099v108.8
	c0,6.788,6.788,12.994,15.451,12.994s15.451-6.206,15.451-12.994v6.788c0,6.788,6.788,12.994,15.451,12.994
	s15.451-5.56,15.451-12.994v4.331c0,6.788,6.788,12.994,15.451,12.994s15.451-5.56,15.451-12.994v-4.331
	c0,6.788,6.788,12.994,15.451,12.994s15.451-5.56,15.451-12.994v-69.818c0,6.788,6.788,12.994,15.451,12.994
	c8.663,0,15.451-5.56,15.451-12.994v-50.101L123.669,218.828z"/>
<path style="fill:#F16051;" d="M127.935,160.711v39.564H25.988V129.81h67.362c-6.788,0-12.994,6.788-12.994,15.451
	s5.56,15.451,12.994,15.451H127.935z"/>
<rect x="43.895" y="165.042" style="fill:#193651;" width="12.347" height="12.347"/>
<path style="fill:#FFFFFF;" d="M178.036,35.814L139.119,6.788h-108.8c-6.788,0-12.347,6.788-12.347,15.451
	s5.56,15.451,12.347,15.451h-6.853c-6.788,0-12.994,6.788-12.994,14.804c0,8.663,5.56,15.45,12.994,15.45h-4.331
	c-7.434,0-12.994,6.788-12.994,15.451s5.624,15.451,12.994,15.451h4.331c-6.788,0-12.994,6.788-12.994,15.451
	s5.56,15.451,12.994,15.451h69.883c-6.788,0-12.994,6.788-12.994,15.451c0,8.663,5.56,15.451,12.994,15.451h50.101l34.004-37.107
	h17.907V37.042L178.036,35.814z"/>
<g>
	<path style="fill:#193651;" d="M395.636,141.511V30.901c0-4.913-2.457-10.537-6.788-13.576c-7.434-6.206-18.554-6.788-26.57-1.875
		c-3.685-6.206-10.537-9.891-19.135-9.891c-4.978,0-9.244,1.228-12.994,3.685c-3.103-5.56-9.891-8.663-17.325-8.663
		c-7.434,0-14.222,3.103-17.907,8.663c-3.685-2.457-8.016-3.685-12.994-3.685c-10.537,0-19.135,6.788-21.01,15.451h-71.758v9.244
		h-9.891L141.576,0.582H30.319c-10.537,0-18.554,9.891-18.554,21.657c0,4.331,1.228,8.016,3.103,11.766
		C8.663,37.689,4.331,44.541,4.331,52.558c0,4.913,1.228,9.244,3.685,12.994C3.103,69.172,0,76.024,0,83.394
		c0,7.434,3.103,14.222,8.663,17.907c-2.457,3.685-3.685,8.016-3.685,12.994c0,10.537,6.788,19.135,15.451,21.01v71.693h9.244v9.891
		L0,255.289v110.675c0,10.537,9.891,19.135,21.657,19.135c4.331,0,8.016-1.228,11.766-3.103c3.685,6.206,10.537,9.891,19.135,9.891
		c4.978,0,9.244-1.228,12.994-3.685c3.685,4.913,10.537,8.663,17.907,8.663c7.37,0,14.222-3.103,17.907-8.663
		c3.685,2.457,8.016,3.685,12.994,3.685c10.537,0,19.135-6.788,21.01-15.451h71.693v-9.244h9.891l38.917,29.026h110.675
		c10.537,0,19.135-9.891,19.135-21.657c0-4.331-1.228-8.016-3.103-11.766c6.206-3.685,9.891-10.537,9.891-19.135
		c0-4.913-1.228-9.244-3.685-12.994c4.913-3.685,8.663-10.537,8.663-17.907c0-7.434-3.103-14.222-8.016-17.907
		c2.457-3.685,3.685-8.016,3.685-12.994c0-10.537-6.788-19.135-15.451-21.01v-71.693h-9.244v-9.891L395.636,141.511z M202.15,32.711
		h58.699v43.895c-2.457-1.228-6.206-1.875-9.244-1.875c-11.766,0-21.657,8.663-21.657,19.135v28.444H202.15V32.711z M23.467,122.958
		c-3.685,0-6.788-4.331-6.788-9.244s3.103-9.244,6.788-9.244l0,0h40.792V92.121H23.467h-4.331c-3.685,0-6.788-4.331-6.788-9.244
		c0-4.978,3.103-9.244,6.788-9.244h45.123V61.285H23.467l0,0c-3.685,0-6.788-4.331-6.788-9.244c0-4.331,3.103-8.016,6.788-8.016
		h40.792V31.677H30.319c-3.103,0-6.206-4.331-6.206-9.244s3.103-9.244,6.206-9.244h106.343l38.917,29.026h13.576v74.214h-14.222
		l-34.004,36.849h-47.58c-3.685,0-6.788-4.331-6.788-9.244s3.103-9.244,6.788-9.244l0,0h24.695V122.44h-24.76H23.467V122.958z
		 M93.349,166.271h28.444v27.798H32.129V135.37h43.895c-1.228,2.457-1.875,6.206-1.875,9.244
		C74.796,156.38,82.812,166.271,93.349,166.271z M122.376,277.527v94.578c0,3.685-4.331,6.788-9.244,6.788
		c-4.913,0-9.244-3.103-9.244-6.788v-40.792H91.539v45.123c0,3.685-4.331,6.788-9.244,6.788c-4.913,0-9.244-3.103-9.244-6.788
		v-45.123H60.574v40.792c0,3.685-4.331,6.788-9.244,6.788s-9.309-3.103-9.309-6.788v-40.792H30.901v33.358
		c0,3.685-4.331,6.788-9.244,6.788s-9.244-3.103-9.244-6.788V258.974l29.026-38.917v-13.576h74.214v14.222l37.107,34.004v47.58
		c0,3.685-4.331,6.788-9.244,6.788c-4.913,0-9.244-3.103-9.244-6.788v-24.76H122.376z M193.487,364.089h-58.699v-43.895
		c2.457,1.228,6.206,1.875,9.244,1.875c11.766,0,21.657-8.663,21.657-19.135v-28.444h27.798V364.089z M165.689,261.43v-11.766
		l-37.107-34.004v-9.244h6.206v-40.21h11.766l34.004-37.107h9.244v6.206h40.21v11.766l37.107,34.004v9.244h-6.206v40.21h-11.766
		l-34.004,37.107h-9.244v-6.206H165.689L165.689,261.43z M372.17,273.842c3.685,0,6.788,4.331,6.788,9.244
		c0,2.457-0.646,4.913-2.457,6.788c-0.646,0.646-2.457,2.457-4.331,2.457h-40.792v12.347h45.123c3.685,0,6.788,4.331,6.788,9.244
		s-3.103,9.244-6.788,9.244h-45.123v12.347h40.792c3.685,0,6.788,4.331,6.788,9.244s-3.103,9.244-6.788,9.244h-40.792v12.347h33.358
		c3.685,0,6.788,4.331,6.788,9.244s-3.103,9.244-6.788,9.244H258.392l-38.917-29.026h-13.576v-73.955h14.222l34.004-37.107h47.58
		c3.685,0,6.788,4.331,6.788,9.244s-3.103,9.244-6.788,9.244h-24.76v10.537h95.224V273.842z M302.287,230.529h-28.444v-27.798
		h89.665v58.699h-43.895c1.228-2.457,1.875-6.206,1.875-9.244C320.84,240.42,312.824,230.529,302.287,230.529z M354.198,176.162
		v13.576h-74.15v-14.222l-37.107-34.004v-47.58c0-3.685,4.331-6.788,9.244-6.788c4.913,0,9.244,3.103,9.244,6.788v24.76h12.348
		V24.048c0-3.685,4.331-6.788,9.244-6.788s9.244,3.103,9.244,6.788V64.84h12.347V19.717c0-3.685,4.331-6.788,9.244-6.788
		s9.244,3.103,9.244,6.788V64.84h12.347V24.048c0-3.685,4.331-6.788,9.244-6.788c4.978,0,9.244,3.103,9.244,6.788V64.84h12.347
		V30.836c0-3.685,4.331-6.788,9.244-6.788c2.457,0,4.978,0.646,6.788,2.457c-0.646,1.228,0.646,2.457,0.646,4.331V137.18
		L354.198,176.162z"/>
	<rect x="218.828" y="44.477" style="fill:#193651;" width="12.347" height="12.347"/>
</g>
<g>
</g>
<g>
</g>
<g>
</g>
<g>
</g>
<g>
</g>
<g>
</g>
<g>
</g>
<g>
</g>
<g>
</g>
<g>
</g>
<g>
</g>
<g>
</g>
<g>
</g>
<g>
</g>
<g>
</g>
</svg>
