<?xml version="1.0" encoding="UTF-8"?>
<svg width="132px" height="138px" viewBox="0 0 132 138" version="1.1" xmlns="http://www.w3.org/2000/svg" xmlns:xlink="http://www.w3.org/1999/xlink">
    <!-- Generator: Sketch 50.2 (55047) - http://www.bohemiancoding.com/sketch -->
    <title>Group 64</title>
    <desc>Created with Sketch.</desc>
    <defs></defs>
    <g id="Page-1" stroke="none" stroke-width="1" fill="none" fill-rule="evenodd">
        <g id="首页编辑版" transform="translate(-929.000000, -2418.000000)">
            <g id="Group-64" transform="translate(927.000000, 2417.000000)">
                <g id="DBFT" transform="translate(0.971053, 0.727089)">
                    <g id="Group-42" transform="translate(45.602466, 26.628110)">
                        <g id="Group-24" transform="translate(0.419349, 0.028940)">
                            <polygon id="Path-17" fill="#58BF00" transform="translate(21.660065, 65.244194) rotate(-9.000000) translate(-21.660065, -65.244194) " points="4.80625512 75.0355283 9.25922887 78.8191013 38.5138753 55.4185762 33.3848313 51.6692867"></polygon>
                            <polygon id="Path-15" fill="#8AD500" points="31.1097444 26.5736075 39.4743858 17.6358682 37.2874387 53.3002798 31.1097444 50.3234715"></polygon>
                            <polygon id="Path-15" fill="#8AD500" points="25.7085378 48.0212624 30.6427882 49.5819681 30.6427882 59.4027947 25.7085378 56.8099567"></polygon>
                            <polygon id="Path-15" fill="#8AD500" points="12.4676007 65.2489933 17.6354723 67.557736 18.1416453 73.0944714 11.9639509 69.8317317"></polygon>
                            <polygon id="Path-15" fill="#8AD500" points="18.0218626 40.6265204 25.5575159 31.2130436 23.3705688 66.8774552 18.0218626 63.7995917"></polygon>
                            <polygon id="Path-17" fill="#58BF00" transform="translate(14.137359, 53.409697) rotate(-9.000000) translate(-14.137359, -53.409697) " points="4.19813335 56.9282162 9.97657971 61.1146816 24.0765853 49.7010165 18.2095906 45.7047127"></polygon>
                            <polygon id="Path-17" fill="#58BF00" transform="translate(17.998455, 63.668354) rotate(-9.000000) translate(-17.998455, -63.668354) " points="12.3480791 64.5200797 17.0398154 67.388508 23.6488312 62.3565314 18.711908 59.9481996"></polygon>
                            <polygon id="Path-17" fill="#58BF00" transform="translate(17.875748, 57.989105) rotate(-9.000000) translate(-17.875748, -57.989105) " points="12.1929701 59.1107654 17.041345 61.7092589 23.5585251 56.4437962 18.7134375 54.2689505"></polygon>
                            <polygon id="Path-17" fill="#58BF00" transform="translate(30.857197, 38.840514) rotate(-9.000000) translate(-30.857197, -38.840514) " points="24.2976726 38.1790079 24.5688526 45.6641115 37.4167209 34.8646657 33.0319011 32.0169165"></polygon>
                            <g id="Group-41" transform="translate(6.229116, 35.704158)">
                                <polygon id="Path-17" fill="#58BF00" transform="translate(7.440494, 6.238163) rotate(-9.000000) translate(-7.440494, -6.238163) " points="0.823426818 5.0676582 9.39695863 10.9741679 14.0575607 7.16373909 5.58133832 1.50215752"></polygon>
                                <polyline id="Path-15" fill="#8AD500" points="10.1419125 10.5101362 10.1419125 16.8238368 0.744810205 12.3176947 0.734244996 6.00348483"></polyline>
                                <polygon id="Path-16" fill="#50AC02" points="10.1419125 10.5300278 10.1419125 16.8383096 14.115109 12.5499366 14.115109 6.00348483"></polygon>
                            </g>
                            <polygon id="Path-15" fill="#8AD500" points="12.7926947 59.9259511 17.6354723 61.8590518 17.6354723 64.1330475 12.7926947 62.0294993"></polygon>
                            <polygon id="Path-15" fill="#8AD500" points="4.44627188 39.3875558 10.7868453 42.6585788 10.772523 85.7617602 4.44627188 81.8796035"></polygon>
                            <g id="Group-43" transform="translate(16.146272, 19.725385)">
                                <g id="Group-41" transform="translate(0.043495, 4.433876)">
                                    <polygon id="Path-17" fill="#58BF00" transform="translate(9.439733, 7.698865) rotate(-9.000000) translate(-9.439733, -7.698865) " points="1.59356749 6.38414718 11.955793 13.4456402 17.2858979 8.86956815 6.98088922 1.95208995"></polygon>
                                    <polyline id="Path-15" fill="#8AD500" points="12.701777 12.8401471 12.701777 15.0466128 1.28506869 9.36995387 1.27885647 7.16318878"></polyline>
                                    <polygon id="Path-16" fill="#50AC02" points="12.701777 12.8433333 12.701777 15.2282941 17.3690403 10.0858791 17.3690403 7.56087729"></polygon>
                                </g>
                                <g id="Group-41" transform="translate(0.043495, 0.402976)">
                                    <polygon id="Path-17" fill="#58BF00" transform="translate(9.439733, 7.698865) rotate(-9.000000) translate(-9.439733, -7.698865) " points="1.59356749 6.38414718 11.955793 13.4456402 17.2858979 8.86956815 6.98088922 1.95208995"></polygon>
                                    <polyline id="Path-15" fill="#8AD500" points="12.701777 12.8401471 12.701777 15.0466128 1.28506869 9.36995387 1.27885647 7.16318878"></polyline>
                                    <polygon id="Path-16" fill="#50AC02" points="12.701777 12.8433333 12.701777 15.2282941 17.3690403 10.0858791 17.3690403 7.56087729"></polygon>
                                </g>
                            </g>
                            <polygon id="Path-17" fill="#58BF00" transform="translate(21.934607, 25.970065) rotate(-9.000000) translate(-21.934607, -25.970065) " points="2.53958526 36.5289155 8.31803161 40.715381 41.3296277 15.2210524 35.4626331 11.2247486"></polygon>
                            <g id="Group-43" transform="translate(24.353977, 0.837680)">
                                <g id="Group-41" transform="translate(0.043495, 0.269868)">
                                    <polyline id="Path-15" fill="#8AD500" points="16.0750536 8.50949021 16.0750536 14.1574119 14.9631166 13.6385987 14.9631166 11.2704062 7.82693943 7.36592989 7.82693943 6.91188245"></polyline>
                                    <polygon id="Path-17" fill="#58BF00" transform="translate(9.508515, 8.044247) rotate(-9.000000) translate(-9.508515, -8.044247) " points="1.18771031 10.165975 7.38682578 14.5014879 17.8293201 5.77850351 11.6874214 1.58700544"></polygon>
                                    <polyline id="Path-15" fill="#8AD500" points="8.32103895 14.5436519 8.32103895 16.7501176 1.62206466 13.5703536 1.61585244 11.3635885"></polyline>
                                    <polygon id="Path-16" fill="#50AC02" points="8.32103895 14.6610189 8.32103895 17.0459797 16.0575977 8.40782711 16.0575977 14.1574119 17.3690403 12.1052878 17.3690403 4.437871"></polygon>
                                </g>
                            </g>
                            <g id="Group-43" transform="translate(2.228403, 75.477027)">
                                <g id="Group-41" transform="translate(0.043495, 0.269868)">
                                    <polyline id="Path-15" fill="#8AD500" points="6.70603476 8.50949021 6.70603476 14.1574119 5.59409769 13.6385987 5.59409769 11.2704062 1.94860123 8.92487438 1.94860123 8.47082695"></polyline>
                                    <polygon id="Path-17" fill="#58BF00" transform="translate(4.242041, 3.968876) rotate(-9.000000) translate(-4.242041, -3.968876) " points="0.610799042 2.70718794 6.16588134 6.55324437 7.87328197 5.08654964 2.37541647 1.38450804"></polygon>
                                    <polygon id="Path-17" fill="#58BF00" transform="translate(9.470173, 7.692008) rotate(-9.000000) translate(-9.470173, -7.692008) " points="2.11880201 5.83655397 7.36531653 11.6577723 16.8215437 4.23562698 15.9940631 3.72624379 8.13462412 9.76530503 6.96965349 8.7241175"></polygon>
                                    <polyline id="Path-15" fill="#8AD500" points="6.51839886 6.20881045 6.51839886 16.0277902 0.4963051 12.5885389 0.490092884 3.26831118"></polyline>
                                    <polygon id="Path-16" fill="#50AC02" points="6.52070362 6.20104767 6.52070362 16.1270701 16.1992259 5.29116687 16.1992259 3.11825416 8.00002144 11.9283057 8.00002144 4.437871"></polygon>
                                </g>
                            </g>
                            <polygon id="Path-16" fill="#50AC02" points="10.8081418 42.6601326 10.7326046 50.1391437 10.7326046 59.0745939 10.7326046 85.7733618 14.0499543 82.2101276 14.0499543 62.799714 23.1852072 52.4613897 23.1852072 48.3881831 14.0499543 58.334916 14.0499543 44.9748208 23.1852072 35.1224138 23.1852072 55.5400339 17.6955333 61.8190182 17.6955333 64.338601 23.1852072 58.2717059 23.1852072 61.4220005 17.6955333 67.5338248 17.6955333 72.6274569 25.9633036 64.061221 25.9633036 54.723175 29.9223254 50.1726819 29.9223254 52.3644921 29.9223254 59.9325323 33.1373042 56.6068872 33.1373042 46.682645 36.6148722 42.6601326 36.6148722 33.9825117 25.9633036 45.8871062 25.9633036 32.1262257 36.6148722 20.6384661 36.6148722 53.0058226 14.0499543 76.4197782 14.0499543 82.2101276 39.4743858 55.7764148 39.4743858 17.5804694 39.4066048 12.317137"></polygon>
                        </g>
                    </g>
                    <g id="waikuang" transform="translate(0.585130, 0.735438)" stroke="#BFC6D3" stroke-dasharray="5" stroke-linecap="square">
                        <path d="M49.9624712,0.867873161 L131.403566,39.1462207 L131.403566,86.7011056 L81.405554,137.006262 L1.39473207,99.9969811 L1.39473207,51.3905019 L49.9624712,0.867873161 Z" id="Line-27"></path>
                        <path d="M130.028319,86.098339 L88.9700625,66.6828394 M54.1888906,51.0185508 L50.0174971,49.0890584" id="Line-27"></path>
                        <path d="M50.1182382,2.60386589 L50.1182382,50.1587508 L0.120226006,100.463907" id="Line-27"></path>
                        <path d="M1.42082808,51.1796748 L80.4208281,88.1796748 L130.569071,37.8107284" id="Line"></path>
                        <path d="M81.5,87.5 L81.5,136.5" id="Line-2"></path>
                    </g>
                </g>
                <g id="Group-63">
                    <g id="DBFT" transform="translate(0.971053, 0.727089)">
                        <g id="Group-42" transform="translate(45.602466, 26.628110)">
                            <g id="Group-24" transform="translate(0.419349, 0.028940)">
                                <polygon id="Path-17" fill="#58BF00" transform="translate(21.660065, 65.244194) rotate(-9.000000) translate(-21.660065, -65.244194) " points="4.80625512 75.0355283 9.25922887 78.8191013 38.5138753 55.4185762 33.3848313 51.6692867"></polygon>
                                <polygon id="Path-15" fill="#8AD500" points="31.1097444 26.5736075 39.4743858 17.6358682 37.2874387 53.3002798 31.1097444 50.3234715"></polygon>
                                <polygon id="Path-15" fill="#8AD500" points="25.7085378 48.0212624 30.6427882 49.5819681 30.6427882 59.4027947 25.7085378 56.8099567"></polygon>
                                <polygon id="Path-15" fill="#8AD500" points="12.4676007 65.2489933 17.6354723 67.557736 18.1416453 73.0944714 11.9639509 69.8317317"></polygon>
                                <polygon id="Path-15" fill="#8AD500" points="18.0218626 40.6265204 25.5575159 31.2130436 23.3705688 66.8774552 18.0218626 63.7995917"></polygon>
                                <polygon id="Path-17" fill="#58BF00" transform="translate(14.137359, 53.409697) rotate(-9.000000) translate(-14.137359, -53.409697) " points="4.19813335 56.9282162 9.97657971 61.1146816 24.0765853 49.7010165 18.2095906 45.7047127"></polygon>
                                <polygon id="Path-17" fill="#58BF00" transform="translate(17.998455, 63.668354) rotate(-9.000000) translate(-17.998455, -63.668354) " points="12.3480791 64.5200797 17.0398154 67.388508 23.6488312 62.3565314 18.711908 59.9481996"></polygon>
                                <polygon id="Path-17" fill="#58BF00" transform="translate(17.875748, 57.989105) rotate(-9.000000) translate(-17.875748, -57.989105) " points="12.1929701 59.1107654 17.041345 61.7092589 23.5585251 56.4437962 18.7134375 54.2689505"></polygon>
                                <polygon id="Path-17" fill="#58BF00" transform="translate(30.857197, 38.840514) rotate(-9.000000) translate(-30.857197, -38.840514) " points="24.2976726 38.1790079 24.5688526 45.6641115 37.4167209 34.8646657 33.0319011 32.0169165"></polygon>
                                <g id="Group-41" transform="translate(6.229116, 35.704158)">
                                    <polygon id="Path-17" fill="#58BF00" transform="translate(7.440494, 6.238163) rotate(-9.000000) translate(-7.440494, -6.238163) " points="0.823426818 5.0676582 9.39695863 10.9741679 14.0575607 7.16373909 5.58133832 1.50215752"></polygon>
                                    <polyline id="Path-15" fill="#8AD500" points="10.1419125 10.5101362 10.1419125 16.8238368 0.744810205 12.3176947 0.734244996 6.00348483"></polyline>
                                    <polygon id="Path-16" fill="#50AC02" points="10.1419125 10.5300278 10.1419125 16.8383096 14.115109 12.5499366 14.115109 6.00348483"></polygon>
                                </g>
                                <polygon id="Path-15" fill="#8AD500" points="12.7926947 59.9259511 17.6354723 61.8590518 17.6354723 64.1330475 12.7926947 62.0294993"></polygon>
                                <polygon id="Path-15" fill="#8AD500" points="4.44627188 39.3875558 10.7868453 42.6585788 10.772523 85.7617602 4.44627188 81.8796035"></polygon>
                                <g id="Group-43" transform="translate(16.146272, 19.725385)">
                                    <g id="Group-41" transform="translate(0.043495, 4.433876)">
                                        <polygon id="Path-17" fill="#58BF00" transform="translate(9.439733, 7.698865) rotate(-9.000000) translate(-9.439733, -7.698865) " points="1.59356749 6.38414718 11.955793 13.4456402 17.2858979 8.86956815 6.98088922 1.95208995"></polygon>
                                        <polyline id="Path-15" fill="#8AD500" points="12.701777 12.8401471 12.701777 15.0466128 1.28506869 9.36995387 1.27885647 7.16318878"></polyline>
                                        <polygon id="Path-16" fill="#50AC02" points="12.701777 12.8433333 12.701777 15.2282941 17.3690403 10.0858791 17.3690403 7.56087729"></polygon>
                                    </g>
                                    <g id="Group-41" transform="translate(0.043495, 0.402976)">
                                        <polygon id="Path-17" fill="#58BF00" transform="translate(9.439733, 7.698865) rotate(-9.000000) translate(-9.439733, -7.698865) " points="1.59356749 6.38414718 11.955793 13.4456402 17.2858979 8.86956815 6.98088922 1.95208995"></polygon>
                                        <polyline id="Path-15" fill="#8AD500" points="12.701777 12.8401471 12.701777 15.0466128 1.28506869 9.36995387 1.27885647 7.16318878"></polyline>
                                        <polygon id="Path-16" fill="#50AC02" points="12.701777 12.8433333 12.701777 15.2282941 17.3690403 10.0858791 17.3690403 7.56087729"></polygon>
                                    </g>
                                </g>
                                <polygon id="Path-17" fill="#58BF00" transform="translate(21.934607, 25.970065) rotate(-9.000000) translate(-21.934607, -25.970065) " points="2.53958526 36.5289155 8.31803161 40.715381 41.3296277 15.2210524 35.4626331 11.2247486"></polygon>
                                <g id="Group-43" transform="translate(24.353977, 0.837680)">
                                    <g id="Group-41" transform="translate(0.043495, 0.269868)">
                                        <polyline id="Path-15" fill="#8AD500" points="16.0750536 8.50949021 16.0750536 14.1574119 14.9631166 13.6385987 14.9631166 11.2704062 7.82693943 7.36592989 7.82693943 6.91188245"></polyline>
                                        <polygon id="Path-17" fill="#58BF00" transform="translate(9.508515, 8.044247) rotate(-9.000000) translate(-9.508515, -8.044247) " points="1.18771031 10.165975 7.38682578 14.5014879 17.8293201 5.77850351 11.6874214 1.58700544"></polygon>
                                        <polyline id="Path-15" fill="#8AD500" points="8.32103895 14.5436519 8.32103895 16.7501176 1.62206466 13.5703536 1.61585244 11.3635885"></polyline>
                                        <polygon id="Path-16" fill="#50AC02" points="8.32103895 14.6610189 8.32103895 17.0459797 16.0575977 8.40782711 16.0575977 14.1574119 17.3690403 12.1052878 17.3690403 4.437871"></polygon>
                                    </g>
                                </g>
                                <g id="Group-43" transform="translate(2.228403, 75.477027)">
                                    <g id="Group-41" transform="translate(0.043495, 0.269868)">
                                        <polyline id="Path-15" fill="#8AD500" points="6.70603476 8.50949021 6.70603476 14.1574119 5.59409769 13.6385987 5.59409769 11.2704062 1.94860123 8.92487438 1.94860123 8.47082695"></polyline>
                                        <polygon id="Path-17" fill="#58BF00" transform="translate(4.242041, 3.968876) rotate(-9.000000) translate(-4.242041, -3.968876) " points="0.610799042 2.70718794 6.16588134 6.55324437 7.87328197 5.08654964 2.37541647 1.38450804"></polygon>
                                        <polygon id="Path-17" fill="#58BF00" transform="translate(9.470173, 7.692008) rotate(-9.000000) translate(-9.470173, -7.692008) " points="2.11880201 5.83655397 7.36531653 11.6577723 16.8215437 4.23562698 15.9940631 3.72624379 8.13462412 9.76530503 6.96965349 8.7241175"></polygon>
                                        <polyline id="Path-15" fill="#8AD500" points="6.51839886 6.20881045 6.51839886 16.0277902 0.4963051 12.5885389 0.490092884 3.26831118"></polyline>
                                        <polygon id="Path-16" fill="#50AC02" points="6.52070362 6.20104767 6.52070362 16.1270701 16.1992259 5.29116687 16.1992259 3.11825416 8.00002144 11.9283057 8.00002144 4.437871"></polygon>
                                    </g>
                                </g>
                                <polygon id="Path-16" fill="#50AC02" points="10.8081418 42.6601326 10.7326046 50.1391437 10.7326046 59.0745939 10.7326046 85.7733618 14.0499543 82.2101276 14.0499543 62.799714 23.1852072 52.4613897 23.1852072 48.3881831 14.0499543 58.334916 14.0499543 44.9748208 23.1852072 35.1224138 23.1852072 55.5400339 17.6955333 61.8190182 17.6955333 64.338601 23.1852072 58.2717059 23.1852072 61.4220005 17.6955333 67.5338248 17.6955333 72.6274569 25.9633036 64.061221 25.9633036 54.723175 29.9223254 50.1726819 29.9223254 52.3644921 29.9223254 59.9325323 33.1373042 56.6068872 33.1373042 46.682645 36.6148722 42.6601326 36.6148722 33.9825117 25.9633036 45.8871062 25.9633036 32.1262257 36.6148722 20.6384661 36.6148722 53.0058226 14.0499543 76.4197782 14.0499543 82.2101276 39.4743858 55.7764148 39.4743858 17.5804694 39.4066048 12.317137"></polygon>
                            </g>
                        </g>
                        <g id="waikuang" transform="translate(0.585130, 0.735438)" stroke="#BFC6D3" stroke-dasharray="5" stroke-linecap="square">
                            <path d="M49.9624712,0.867873161 L131.403566,39.1462207 L131.403566,86.7011056 L81.405554,137.006262 L1.39473207,99.9969811 L1.39473207,51.3905019 L49.9624712,0.867873161 Z" id="Line-27"></path>
                            <path d="M130.028319,86.098339 L88.9700625,66.6828394 M54.1888906,51.0185508 L50.0174971,49.0890584" id="Line-27"></path>
                            <path d="M50.1182382,2.60386589 L50.1182382,50.1587508 L0.120226006,100.463907" id="Line-27"></path>
                            <path d="M1.42082808,51.1796748 L80.4208281,88.1796748 L130.569071,37.8107284" id="Line"></path>
                            <path d="M81.5,87.5 L81.5,136.5" id="Line-2"></path>
                        </g>
                    </g>
                    <g id="DBFT" transform="translate(0.971053, 0.727089)">
                        <g id="Group-42" transform="translate(45.602466, 26.628110)">
                            <g id="Group-24" transform="translate(0.419349, 0.028940)">
                                <polygon id="Path-17" fill="#58BF00" transform="translate(21.660065, 65.244194) rotate(-9.000000) translate(-21.660065, -65.244194) " points="4.80625512 75.0355283 9.25922887 78.8191013 38.5138753 55.4185762 33.3848313 51.6692867"></polygon>
                                <polygon id="Path-15" fill="#8AD500" points="31.1097444 26.5736075 39.4743858 17.6358682 37.2874387 53.3002798 31.1097444 50.3234715"></polygon>
                                <polygon id="Path-15" fill="#8AD500" points="25.7085378 48.0212624 30.6427882 49.5819681 30.6427882 59.4027947 25.7085378 56.8099567"></polygon>
                                <polygon id="Path-15" fill="#8AD500" points="12.4676007 65.2489933 17.6354723 67.557736 18.1416453 73.0944714 11.9639509 69.8317317"></polygon>
                                <polygon id="Path-15" fill="#8AD500" points="18.0218626 40.6265204 25.5575159 31.2130436 23.3705688 66.8774552 18.0218626 63.7995917"></polygon>
                                <polygon id="Path-17" fill="#58BF00" transform="translate(14.137359, 53.409697) rotate(-9.000000) translate(-14.137359, -53.409697) " points="4.19813335 56.9282162 9.97657971 61.1146816 24.0765853 49.7010165 18.2095906 45.7047127"></polygon>
                                <polygon id="Path-17" fill="#58BF00" transform="translate(17.998455, 63.668354) rotate(-9.000000) translate(-17.998455, -63.668354) " points="12.3480791 64.5200797 17.0398154 67.388508 23.6488312 62.3565314 18.711908 59.9481996"></polygon>
                                <polygon id="Path-17" fill="#58BF00" transform="translate(17.875748, 57.989105) rotate(-9.000000) translate(-17.875748, -57.989105) " points="12.1929701 59.1107654 17.041345 61.7092589 23.5585251 56.4437962 18.7134375 54.2689505"></polygon>
                                <polygon id="Path-17" fill="#58BF00" transform="translate(30.857197, 38.840514) rotate(-9.000000) translate(-30.857197, -38.840514) " points="24.2976726 38.1790079 24.5688526 45.6641115 37.4167209 34.8646657 33.0319011 32.0169165"></polygon>
                                <g id="Group-41" transform="translate(6.229116, 35.704158)">
                                    <polygon id="Path-17" fill="#58BF00" transform="translate(7.440494, 6.238163) rotate(-9.000000) translate(-7.440494, -6.238163) " points="0.823426818 5.0676582 9.39695863 10.9741679 14.0575607 7.16373909 5.58133832 1.50215752"></polygon>
                                    <polyline id="Path-15" fill="#8AD500" points="10.1419125 10.5101362 10.1419125 16.8238368 0.744810205 12.3176947 0.734244996 6.00348483"></polyline>
                                    <polygon id="Path-16" fill="#50AC02" points="10.1419125 10.5300278 10.1419125 16.8383096 14.115109 12.5499366 14.115109 6.00348483"></polygon>
                                </g>
                                <polygon id="Path-15" fill="#8AD500" points="12.7926947 59.9259511 17.6354723 61.8590518 17.6354723 64.1330475 12.7926947 62.0294993"></polygon>
                                <polygon id="Path-15" fill="#8AD500" points="4.44627188 39.3875558 10.7868453 42.6585788 10.772523 85.7617602 4.44627188 81.8796035"></polygon>
                                <g id="Group-43" transform="translate(16.146272, 19.725385)">
                                    <g id="Group-41" transform="translate(0.043495, 4.433876)">
                                        <polygon id="Path-17" fill="#58BF00" transform="translate(9.439733, 7.698865) rotate(-9.000000) translate(-9.439733, -7.698865) " points="1.59356749 6.38414718 11.955793 13.4456402 17.2858979 8.86956815 6.98088922 1.95208995"></polygon>
                                        <polyline id="Path-15" fill="#8AD500" points="12.701777 12.8401471 12.701777 15.0466128 1.28506869 9.36995387 1.27885647 7.16318878"></polyline>
                                        <polygon id="Path-16" fill="#50AC02" points="12.701777 12.8433333 12.701777 15.2282941 17.3690403 10.0858791 17.3690403 7.56087729"></polygon>
                                    </g>
                                    <g id="Group-41" transform="translate(0.043495, 0.402976)">
                                        <polygon id="Path-17" fill="#58BF00" transform="translate(9.439733, 7.698865) rotate(-9.000000) translate(-9.439733, -7.698865) " points="1.59356749 6.38414718 11.955793 13.4456402 17.2858979 8.86956815 6.98088922 1.95208995"></polygon>
                                        <polyline id="Path-15" fill="#8AD500" points="12.701777 12.8401471 12.701777 15.0466128 1.28506869 9.36995387 1.27885647 7.16318878"></polyline>
                                        <polygon id="Path-16" fill="#50AC02" points="12.701777 12.8433333 12.701777 15.2282941 17.3690403 10.0858791 17.3690403 7.56087729"></polygon>
                                    </g>
                                </g>
                                <polygon id="Path-17" fill="#58BF00" transform="translate(21.934607, 25.970065) rotate(-9.000000) translate(-21.934607, -25.970065) " points="2.53958526 36.5289155 8.31803161 40.715381 41.3296277 15.2210524 35.4626331 11.2247486"></polygon>
                                <g id="Group-43" transform="translate(24.353977, 0.837680)">
                                    <g id="Group-41" transform="translate(0.043495, 0.269868)">
                                        <polyline id="Path-15" fill="#8AD500" points="16.0750536 8.50949021 16.0750536 14.1574119 14.9631166 13.6385987 14.9631166 11.2704062 7.82693943 7.36592989 7.82693943 6.91188245"></polyline>
                                        <polygon id="Path-17" fill="#58BF00" transform="translate(9.508515, 8.044247) rotate(-9.000000) translate(-9.508515, -8.044247) " points="1.18771031 10.165975 7.38682578 14.5014879 17.8293201 5.77850351 11.6874214 1.58700544"></polygon>
                                        <polyline id="Path-15" fill="#8AD500" points="8.32103895 14.5436519 8.32103895 16.7501176 1.62206466 13.5703536 1.61585244 11.3635885"></polyline>
                                        <polygon id="Path-16" fill="#50AC02" points="8.32103895 14.6610189 8.32103895 17.0459797 16.0575977 8.40782711 16.0575977 14.1574119 17.3690403 12.1052878 17.3690403 4.437871"></polygon>
                                    </g>
                                </g>
                                <g id="Group-43" transform="translate(2.228403, 75.477027)">
                                    <g id="Group-41" transform="translate(0.043495, 0.269868)">
                                        <polyline id="Path-15" fill="#8AD500" points="6.70603476 8.50949021 6.70603476 14.1574119 5.59409769 13.6385987 5.59409769 11.2704062 1.94860123 8.92487438 1.94860123 8.47082695"></polyline>
                                        <polygon id="Path-17" fill="#58BF00" transform="translate(4.242041, 3.968876) rotate(-9.000000) translate(-4.242041, -3.968876) " points="0.610799042 2.70718794 6.16588134 6.55324437 7.87328197 5.08654964 2.37541647 1.38450804"></polygon>
                                        <polygon id="Path-17" fill="#58BF00" transform="translate(9.470173, 7.692008) rotate(-9.000000) translate(-9.470173, -7.692008) " points="2.11880201 5.83655397 7.36531653 11.6577723 16.8215437 4.23562698 15.9940631 3.72624379 8.13462412 9.76530503 6.96965349 8.7241175"></polygon>
                                        <polyline id="Path-15" fill="#8AD500" points="6.51839886 6.20881045 6.51839886 16.0277902 0.4963051 12.5885389 0.490092884 3.26831118"></polyline>
                                        <polygon id="Path-16" fill="#50AC02" points="6.52070362 6.20104767 6.52070362 16.1270701 16.1992259 5.29116687 16.1992259 3.11825416 8.00002144 11.9283057 8.00002144 4.437871"></polygon>
                                    </g>
                                </g>
                                <polygon id="Path-16" fill="#50AC02" points="10.8081418 42.6601326 10.7326046 50.1391437 10.7326046 59.0745939 10.7326046 85.7733618 14.0499543 82.2101276 14.0499543 62.799714 23.1852072 52.4613897 23.1852072 48.3881831 14.0499543 58.334916 14.0499543 44.9748208 23.1852072 35.1224138 23.1852072 55.5400339 17.6955333 61.8190182 17.6955333 64.338601 23.1852072 58.2717059 23.1852072 61.4220005 17.6955333 67.5338248 17.6955333 72.6274569 25.9633036 64.061221 25.9633036 54.723175 29.9223254 50.1726819 29.9223254 52.3644921 29.9223254 59.9325323 33.1373042 56.6068872 33.1373042 46.682645 36.6148722 42.6601326 36.6148722 33.9825117 25.9633036 45.8871062 25.9633036 32.1262257 36.6148722 20.6384661 36.6148722 53.0058226 14.0499543 76.4197782 14.0499543 82.2101276 39.4743858 55.7764148 39.4743858 17.5804694 39.4066048 12.317137"></polygon>
                            </g>
                        </g>
                        <g id="waikuang" transform="translate(0.585130, 0.735438)" stroke="#BFC6D3" stroke-dasharray="5" stroke-linecap="square">
                            <path d="M49.9624712,0.867873161 L131.403566,39.1462207 L131.403566,86.7011056 L81.405554,137.006262 L1.39473207,99.9969811 L1.39473207,51.3905019 L49.9624712,0.867873161 Z" id="Line-27"></path>
                            <path d="M130.028319,86.098339 L88.9700625,66.6828394 M54.1888906,51.0185508 L50.0174971,49.0890584" id="Line-27"></path>
                            <path d="M50.1182382,2.60386589 L50.1182382,50.1587508 L0.120226006,100.463907" id="Line-27"></path>
                            <path d="M1.42082808,51.1796748 L80.4208281,88.1796748 L130.569071,37.8107284" id="Line"></path>
                            <path d="M81.5,87.5 L81.5,136.5" id="Line-2"></path>
                        </g>
                    </g>
                </g>
            </g>
        </g>
    </g>
</svg>