<?xml version="1.0" encoding="UTF-8"?>
<svg width="132px" height="138px" viewBox="0 0 132 138" version="1.1" xmlns="http://www.w3.org/2000/svg" xmlns:xlink="http://www.w3.org/1999/xlink">
    <!-- Generator: Sketch 50.2 (55047) - http://www.bohemiancoding.com/sketch -->
    <title>Group 68</title>
    <desc>Created with Sketch.</desc>
    <defs></defs>
    <g id="Page-1" stroke="none" stroke-width="1" fill="none" fill-rule="evenodd">
        <g id="首页编辑版" transform="translate(-649.000000, -2417.000000)">
            <g id="Group-68" transform="translate(648.000000, 2416.000000)">
                <g id="VM" transform="translate(0.239086, 0.727089)">
                    <g id="Group-35" transform="translate(40.472510, 30.550813)">
                        <g id="Group-38" transform="translate(38.012266, 7.363821)">
                            <g id="Group-37" transform="translate(0.027472, 0.895182)">
                                <polygon id="Path-15" fill="#8AD500" points="1.07303572 8.10462071 3.18899415 9.16688252 2.92904572 12.4254305 1.07303572 11.4713461"></polygon>
                                <polygon id="Path-16" fill="#50AC02" points="2.90930437 9.03491016 2.90930437 12.6528562 10.2129242 4.72552876 10.2129242 1.17566703"></polygon>
                                <polygon id="Path-17" fill="#58BF00" transform="translate(5.607360, 4.776056) rotate(-9.000000) translate(-5.607360, -4.776056) " points="0.604382566 7.36253443 2.27245678 8.69712571 10.6103372 2.11330767 8.90703993 0.854985519"></polygon>
                            </g>
                            <g id="Group-37" transform="translate(0.027472, 20.472601)">
                                <polygon id="Path-15" fill="#8AD500" points="1.07303572 8.10462071 3.18899415 9.16688252 2.92904572 12.4254305 1.07303572 11.4713461"></polygon>
                                <polygon id="Path-16" fill="#50AC02" points="2.90930437 9.03491016 2.90930437 12.6528562 10.2129242 4.72552876 10.2129242 1.17566703"></polygon>
                                <polygon id="Path-17" fill="#58BF00" transform="translate(5.607360, 4.776056) rotate(-9.000000) translate(-5.607360, -4.776056) " points="0.604382566 7.36253443 2.27245678 8.69712571 10.6103372 2.11330767 8.90703993 0.854985519"></polygon>
                            </g>
                            <g id="Group-37" transform="translate(0.027472, 10.847401)">
                                <polygon id="Path-15" fill="#8AD500" points="1.07303572 8.10462071 3.18899415 9.16688252 2.92904572 12.4254305 1.07303572 11.4713461"></polygon>
                                <polygon id="Path-16" fill="#50AC02" points="2.90930437 9.03491016 2.90930437 12.6528562 10.2129242 4.72552876 10.2129242 1.17566703"></polygon>
                                <polygon id="Path-17" fill="#58BF00" transform="translate(5.607360, 4.776056) rotate(-9.000000) translate(-5.607360, -4.776056) " points="0.604382566 7.36253443 2.27245678 8.69712571 10.6103372 2.11330767 8.90703993 0.854985519"></polygon>
                            </g>
                        </g>
                        <g id="Group-36" transform="translate(17.851474, 45.958118)">
                            <g id="Group-17" transform="translate(0.820317, 14.434091)">
                                <polygon id="Path-15" fill="#8AD500" points="1.0608054 3.3083586 3.41801678 4.49173517 3.12843009 16.0774171 1.0608054 15.0145519"></polygon>
                                <polygon id="Path-16" fill="#50AC02" points="3.10643792 4.34471586 3.10643792 16.0878198 5.77328113 13.1287713 5.77328113 1.46151435"></polygon>
                                <polygon id="Path-17" fill="#58BF00" transform="translate(3.433737, 2.428972) rotate(-9.000000) translate(-3.433737, -2.428972) " points="0.94824739 2.93547909 2.80650863 4.42223502 5.9192267 1.83750056 4.02172637 0.435709647"></polygon>
                            </g>
                            <g id="Group-17" transform="translate(7.970715, 7.114801)">
                                <polygon id="Path-15" fill="#8AD500" points="1.0608054 3.3083586 3.41801678 4.49173517 3.12843009 16.0774171 1.0608054 15.0145519"></polygon>
                                <polygon id="Path-16" fill="#50AC02" points="3.10643792 4.34471586 3.10643792 16.0878198 5.77328113 13.1287713 5.77328113 1.46151435"></polygon>
                                <polygon id="Path-17" fill="#58BF00" transform="translate(3.433737, 2.428972) rotate(-9.000000) translate(-3.433737, -2.428972) " points="0.94824739 2.93547909 2.80650863 4.42223502 5.9192267 1.83750056 4.02172637 0.435709647"></polygon>
                            </g>
                            <g id="Group-17" transform="translate(14.300795, 0.000000)">
                                <polygon id="Path-15" fill="#8AD500" points="1.0608054 3.3083586 3.41801678 4.49173517 3.12843009 16.0774171 1.0608054 15.0145519"></polygon>
                                <polygon id="Path-16" fill="#50AC02" points="3.10643792 4.34471586 3.10643792 16.0878198 5.77328113 13.1287713 5.77328113 1.46151435"></polygon>
                                <polygon id="Path-17" fill="#58BF00" transform="translate(3.433737, 2.428972) rotate(-9.000000) translate(-3.433737, -2.428972) " points="0.94824739 2.93547909 2.80650863 4.42223502 5.9192267 1.83750056 4.02172637 0.435709647"></polygon>
                            </g>
                        </g>
                        <g id="Group-39" transform="translate(2.356412, 1.730139)">
                            <g id="Group-24" transform="translate(0.067727, 0.811323)">
                                <polygon id="Path-17" fill="#58BF00" transform="translate(25.071807, 29.319819) rotate(-9.000000) translate(-25.071807, -29.319819) " points="20.8663725 28.0470368 26.8947525 32.4145783 29.277241 30.6104805 23.4170017 26.2250601"></polygon>
                                <polygon id="Path-15" fill="#8AD500" points="4.63858532 32.3658664 11.253406 35.7783702 11.2458296 54.658388 9.42521449 53.7736718 9.42521449 57.2522858 11.2384642 58.2060123 11.2384642 73.0129052 4.63858532 68.9628346"></polygon>
                                <polygon id="Path-15" fill="#8AD500" points="27.1966108 15.4193749 29.3877255 16.5664725 29.3727837 29.9821808 27.1966108 28.7793423"></polygon>
                                <polygon id="Path-57" fill="#50AC02" points="27.2167312 15.4291826 27.2167312 17.9015908 25.3614624 16.9849707"></polygon>
                                <polygon id="Path-17" fill="#58BF00" transform="translate(22.883338, 18.368032) rotate(-9.000000) translate(-22.883338, -18.368032) " points="2.64942928 29.3835822 8.67780927 33.7511238 27.8660667 18.932339 25.5650051 17.3920562 27.6187855 16.1655343 29.5761321 17.5901101 43.1172474 7.15409559 36.9964892 2.9849407"></polygon>
                                <polygon id="Path-17" fill="#58BF00" transform="translate(18.039168, 50.779203) rotate(-9.000000) translate(-18.039168, -50.779203) " points="8.48502344 55.7926014 10.1386256 57.320308 27.5933117 45.4376719 25.6834887 44.2380987"></polygon>
                                <polygon id="Path-16" fill="#50AC02" points="11.2756235 35.7799912 11.1968192 43.5824901 11.1968192 54.7788213 24.681646 43.1679341 26.4131395 44.0358758 11.1968192 58.4206771 11.1968192 73.0356357 41.1817612 41.5386873 41.1817612 21.3967773 41.1817612 11.8967094 41.1110484 4.12457789 29.3720389 16.4953699 29.3720389 29.8608812 27.3096386 32.0484482 27.8828003 18.1597614"></polygon>
                                <polygon id="Path-16" fill="#469701" points="26.0799232 29.7753009 26.0196027 37.1639672 30.6096277 31.857728 30.6096277 24.2453684 29.3894522 25.8120549 29.3513863 29.8756709 27.3417189 32.0233351 27.4657957 27.9459087"></polygon>
                                <polygon id="Path-7" fill="#8AD500" points="26.3876644 40.7504419 24.5811447 42.5235411 24.5811447 43.1172666 26.3876644 44.0479727"></polygon>
                            </g>
                            <polygon id="Path-58" fill="#50AC02" points="9.48183691 54.5726321 9.45939867 58.039064 24.7440633 43.9846043 24.7440633 43.2444802 11.2736232 55.4491625"></polygon>
                        </g>
                        <g id="Group-40" transform="translate(14.797048, 0.351049)">
                            <g id="Group-17" transform="translate(0.161712, 14.576458)">
                                <polygon id="Path-15" fill="#8AD500" points="1.0608054 3.3083586 3.41801678 4.49173517 3.12843009 16.0774171 1.0608054 15.0145519"></polygon>
                                <polygon id="Path-16" fill="#50AC02" points="3.10643792 4.34471586 3.10643792 16.0878198 5.77328113 13.1287713 5.77328113 1.46151435"></polygon>
                                <polygon id="Path-17" fill="#58BF00" transform="translate(3.433737, 2.428972) rotate(-9.000000) translate(-3.433737, -2.428972) " points="0.94824739 2.93547909 2.80650863 4.42223502 5.9192267 1.83750056 4.02172637 0.435709647"></polygon>
                            </g>
                            <g id="Group-17" transform="translate(7.110716, 5.995982)">
                                <polygon id="Path-15" fill="#8AD500" points="1.0608054 3.3083586 3.41801678 4.49173517 3.12843009 16.0774171 1.0608054 15.0145519"></polygon>
                                <polygon id="Path-16" fill="#50AC02" points="3.10643792 4.34471586 3.10643792 16.0878198 5.77328113 13.1287713 5.77328113 1.46151435"></polygon>
                                <polygon id="Path-17" fill="#58BF00" transform="translate(3.433737, 2.428972) rotate(-9.000000) translate(-3.433737, -2.428972) " points="0.94824739 2.93547909 2.80650863 4.42223502 5.9192267 1.83750056 4.02172637 0.435709647"></polygon>
                            </g>
                            <g id="Group-17" transform="translate(14.261114, 0.044117)">
                                <polygon id="Path-15" fill="#8AD500" points="1.0608054 3.3083586 3.41801678 4.49173517 3.12843009 16.0774171 1.0608054 15.0145519"></polygon>
                                <polygon id="Path-16" fill="#50AC02" points="3.10643792 4.34471586 3.10643792 16.0878198 5.77328113 13.1287713 5.77328113 1.46151435"></polygon>
                                <polygon id="Path-17" fill="#58BF00" transform="translate(3.433737, 2.428972) rotate(-9.000000) translate(-3.433737, -2.428972) " points="0.94824739 2.93547909 2.80650863 4.42223502 5.9192267 1.83750056 4.02172637 0.435709647"></polygon>
                            </g>
                        </g>
                        <g id="Group-17" transform="translate(0.035029, 42.253433)">
                            <g id="Group-37" transform="translate(0.969781, 0.545233)">
                                <polygon id="Path-15" fill="#8AD500" points="1.07303572 8.10462071 3.18899415 9.16688252 2.92904572 12.4254305 1.07303572 11.4713461"></polygon>
                                <polygon id="Path-16" fill="#50AC02" points="2.90930437 9.03491016 2.90930437 12.6528562 10.2129242 4.72552876 10.2129242 1.17566703"></polygon>
                                <polygon id="Path-17" fill="#58BF00" transform="translate(5.607360, 4.776056) rotate(-9.000000) translate(-5.607360, -4.776056) " points="0.604382566 7.36253443 2.27245678 8.69712571 10.6103372 2.11330767 8.90703993 0.854985519"></polygon>
                            </g>
                            <g id="Group-37" transform="translate(0.969781, 19.986860)">
                                <polygon id="Path-15" fill="#8AD500" points="1.07303572 8.10462071 3.18899415 9.16688252 2.92904572 12.4254305 1.07303572 11.4713461"></polygon>
                                <polygon id="Path-16" fill="#50AC02" points="2.90930437 9.03491016 2.90930437 12.6528562 10.2129242 4.72552876 10.2129242 1.17566703"></polygon>
                                <polygon id="Path-17" fill="#58BF00" transform="translate(5.607360, 4.776056) rotate(-9.000000) translate(-5.607360, -4.776056) " points="0.604382566 7.36253443 2.27245678 8.69712571 10.6103372 2.11330767 8.90703993 0.854985519"></polygon>
                            </g>
                            <g id="Group-37" transform="translate(0.969781, 9.766271)">
                                <polygon id="Path-15" fill="#8AD500" points="1.07303572 8.10462071 3.18899415 9.16688252 2.92904572 12.4254305 1.07303572 11.4713461"></polygon>
                                <polygon id="Path-16" fill="#50AC02" points="2.90930437 9.03491016 2.90930437 12.6528562 10.2129242 4.72552876 10.2129242 1.17566703"></polygon>
                                <polygon id="Path-17" fill="#58BF00" transform="translate(5.607360, 4.776056) rotate(-9.000000) translate(-5.607360, -4.776056) " points="0.604382566 7.36253443 2.27245678 8.69712571 10.6103372 2.11330767 8.90703993 0.854985519"></polygon>
                            </g>
                        </g>
                        <polygon id="Path-59" fill="#469701" points="26.747015 45.2757209 28.8244228 43.272865 28.8244228 46.5882579 26.747015 48.5435386 26.747015 51.5433509 31.2772866 47.2602796 31.2772866 38.2438858 26.747015 42.7062126"></polygon>
                    </g>
                    <g id="waikuang" transform="translate(0.472510, 0.550813)" stroke="#BFC6D3" stroke-dasharray="5" stroke-linecap="square">
                        <path d="M49.9624712,0.867873161 L131.403566,39.1462207 L131.403566,86.7011056 L81.405554,137.006262 L1.39473207,99.9969811 L1.39473207,51.3905019 L49.9624712,0.867873161 Z" id="Line-27"></path>
                        <path d="M130.028319,86.098339 L88.9700625,66.6828394 M54.1888906,51.0185508 L50.0174971,49.0890584" id="Line-27"></path>
                        <path d="M50.1182382,2.60386589 L50.1182382,50.1587508 L0.120226006,100.463907" id="Line-27"></path>
                        <path d="M1.42082808,51.1796748 L80.4208281,88.1796748 L130.569071,37.8107284" id="Line"></path>
                        <path d="M81.5,87.5 L81.5,136.5" id="Line-2"></path>
                    </g>
                </g>
                <g id="VM" transform="translate(0.239086, 0.727089)">
                    <g id="Group-35" transform="translate(40.472510, 30.550813)">
                        <g id="Group-38" transform="translate(38.012266, 7.363821)">
                            <g id="Group-37" transform="translate(0.027472, 0.895182)">
                                <polygon id="Path-15" fill="#8AD500" points="1.07303572 8.10462071 3.18899415 9.16688252 2.92904572 12.4254305 1.07303572 11.4713461"></polygon>
                                <polygon id="Path-16" fill="#50AC02" points="2.90930437 9.03491016 2.90930437 12.6528562 10.2129242 4.72552876 10.2129242 1.17566703"></polygon>
                                <polygon id="Path-17" fill="#58BF00" transform="translate(5.607360, 4.776056) rotate(-9.000000) translate(-5.607360, -4.776056) " points="0.604382566 7.36253443 2.27245678 8.69712571 10.6103372 2.11330767 8.90703993 0.854985519"></polygon>
                            </g>
                            <g id="Group-37" transform="translate(0.027472, 20.472601)">
                                <polygon id="Path-15" fill="#8AD500" points="1.07303572 8.10462071 3.18899415 9.16688252 2.92904572 12.4254305 1.07303572 11.4713461"></polygon>
                                <polygon id="Path-16" fill="#50AC02" points="2.90930437 9.03491016 2.90930437 12.6528562 10.2129242 4.72552876 10.2129242 1.17566703"></polygon>
                                <polygon id="Path-17" fill="#58BF00" transform="translate(5.607360, 4.776056) rotate(-9.000000) translate(-5.607360, -4.776056) " points="0.604382566 7.36253443 2.27245678 8.69712571 10.6103372 2.11330767 8.90703993 0.854985519"></polygon>
                            </g>
                            <g id="Group-37" transform="translate(0.027472, 10.847401)">
                                <polygon id="Path-15" fill="#8AD500" points="1.07303572 8.10462071 3.18899415 9.16688252 2.92904572 12.4254305 1.07303572 11.4713461"></polygon>
                                <polygon id="Path-16" fill="#50AC02" points="2.90930437 9.03491016 2.90930437 12.6528562 10.2129242 4.72552876 10.2129242 1.17566703"></polygon>
                                <polygon id="Path-17" fill="#58BF00" transform="translate(5.607360, 4.776056) rotate(-9.000000) translate(-5.607360, -4.776056) " points="0.604382566 7.36253443 2.27245678 8.69712571 10.6103372 2.11330767 8.90703993 0.854985519"></polygon>
                            </g>
                        </g>
                        <g id="Group-36" transform="translate(17.851474, 45.958118)">
                            <g id="Group-17" transform="translate(0.820317, 14.434091)">
                                <polygon id="Path-15" fill="#8AD500" points="1.0608054 3.3083586 3.41801678 4.49173517 3.12843009 16.0774171 1.0608054 15.0145519"></polygon>
                                <polygon id="Path-16" fill="#50AC02" points="3.10643792 4.34471586 3.10643792 16.0878198 5.77328113 13.1287713 5.77328113 1.46151435"></polygon>
                                <polygon id="Path-17" fill="#58BF00" transform="translate(3.433737, 2.428972) rotate(-9.000000) translate(-3.433737, -2.428972) " points="0.94824739 2.93547909 2.80650863 4.42223502 5.9192267 1.83750056 4.02172637 0.435709647"></polygon>
                            </g>
                            <g id="Group-17" transform="translate(7.970715, 7.114801)">
                                <polygon id="Path-15" fill="#8AD500" points="1.0608054 3.3083586 3.41801678 4.49173517 3.12843009 16.0774171 1.0608054 15.0145519"></polygon>
                                <polygon id="Path-16" fill="#50AC02" points="3.10643792 4.34471586 3.10643792 16.0878198 5.77328113 13.1287713 5.77328113 1.46151435"></polygon>
                                <polygon id="Path-17" fill="#58BF00" transform="translate(3.433737, 2.428972) rotate(-9.000000) translate(-3.433737, -2.428972) " points="0.94824739 2.93547909 2.80650863 4.42223502 5.9192267 1.83750056 4.02172637 0.435709647"></polygon>
                            </g>
                            <g id="Group-17" transform="translate(14.300795, 0.000000)">
                                <polygon id="Path-15" fill="#8AD500" points="1.0608054 3.3083586 3.41801678 4.49173517 3.12843009 16.0774171 1.0608054 15.0145519"></polygon>
                                <polygon id="Path-16" fill="#50AC02" points="3.10643792 4.34471586 3.10643792 16.0878198 5.77328113 13.1287713 5.77328113 1.46151435"></polygon>
                                <polygon id="Path-17" fill="#58BF00" transform="translate(3.433737, 2.428972) rotate(-9.000000) translate(-3.433737, -2.428972) " points="0.94824739 2.93547909 2.80650863 4.42223502 5.9192267 1.83750056 4.02172637 0.435709647"></polygon>
                            </g>
                        </g>
                        <g id="Group-39" transform="translate(2.356412, 1.730139)">
                            <g id="Group-24" transform="translate(0.067727, 0.811323)">
                                <polygon id="Path-17" fill="#58BF00" transform="translate(25.071807, 29.319819) rotate(-9.000000) translate(-25.071807, -29.319819) " points="20.8663725 28.0470368 26.8947525 32.4145783 29.277241 30.6104805 23.4170017 26.2250601"></polygon>
                                <polygon id="Path-15" fill="#8AD500" points="4.63858532 32.3658664 11.253406 35.7783702 11.2458296 54.658388 9.42521449 53.7736718 9.42521449 57.2522858 11.2384642 58.2060123 11.2384642 73.0129052 4.63858532 68.9628346"></polygon>
                                <polygon id="Path-15" fill="#8AD500" points="27.1966108 15.4193749 29.3877255 16.5664725 29.3727837 29.9821808 27.1966108 28.7793423"></polygon>
                                <polygon id="Path-57" fill="#50AC02" points="27.2167312 15.4291826 27.2167312 17.9015908 25.3614624 16.9849707"></polygon>
                                <polygon id="Path-17" fill="#58BF00" transform="translate(22.883338, 18.368032) rotate(-9.000000) translate(-22.883338, -18.368032) " points="2.64942928 29.3835822 8.67780927 33.7511238 27.8660667 18.932339 25.5650051 17.3920562 27.6187855 16.1655343 29.5761321 17.5901101 43.1172474 7.15409559 36.9964892 2.9849407"></polygon>
                                <polygon id="Path-17" fill="#58BF00" transform="translate(18.039168, 50.779203) rotate(-9.000000) translate(-18.039168, -50.779203) " points="8.48502344 55.7926014 10.1386256 57.320308 27.5933117 45.4376719 25.6834887 44.2380987"></polygon>
                                <polygon id="Path-16" fill="#50AC02" points="11.2756235 35.7799912 11.1968192 43.5824901 11.1968192 54.7788213 24.681646 43.1679341 26.4131395 44.0358758 11.1968192 58.4206771 11.1968192 73.0356357 41.1817612 41.5386873 41.1817612 21.3967773 41.1817612 11.8967094 41.1110484 4.12457789 29.3720389 16.4953699 29.3720389 29.8608812 27.3096386 32.0484482 27.8828003 18.1597614"></polygon>
                                <polygon id="Path-16" fill="#469701" points="26.0799232 29.7753009 26.0196027 37.1639672 30.6096277 31.857728 30.6096277 24.2453684 29.3894522 25.8120549 29.3513863 29.8756709 27.3417189 32.0233351 27.4657957 27.9459087"></polygon>
                                <polygon id="Path-7" fill="#8AD500" points="26.3876644 40.7504419 24.5811447 42.5235411 24.5811447 43.1172666 26.3876644 44.0479727"></polygon>
                            </g>
                            <polygon id="Path-58" fill="#50AC02" points="9.48183691 54.5726321 9.45939867 58.039064 24.7440633 43.9846043 24.7440633 43.2444802 11.2736232 55.4491625"></polygon>
                        </g>
                        <g id="Group-40" transform="translate(14.797048, 0.351049)">
                            <g id="Group-17" transform="translate(0.161712, 14.576458)">
                                <polygon id="Path-15" fill="#8AD500" points="1.0608054 3.3083586 3.41801678 4.49173517 3.12843009 16.0774171 1.0608054 15.0145519"></polygon>
                                <polygon id="Path-16" fill="#50AC02" points="3.10643792 4.34471586 3.10643792 16.0878198 5.77328113 13.1287713 5.77328113 1.46151435"></polygon>
                                <polygon id="Path-17" fill="#58BF00" transform="translate(3.433737, 2.428972) rotate(-9.000000) translate(-3.433737, -2.428972) " points="0.94824739 2.93547909 2.80650863 4.42223502 5.9192267 1.83750056 4.02172637 0.435709647"></polygon>
                            </g>
                            <g id="Group-17" transform="translate(7.110716, 5.995982)">
                                <polygon id="Path-15" fill="#8AD500" points="1.0608054 3.3083586 3.41801678 4.49173517 3.12843009 16.0774171 1.0608054 15.0145519"></polygon>
                                <polygon id="Path-16" fill="#50AC02" points="3.10643792 4.34471586 3.10643792 16.0878198 5.77328113 13.1287713 5.77328113 1.46151435"></polygon>
                                <polygon id="Path-17" fill="#58BF00" transform="translate(3.433737, 2.428972) rotate(-9.000000) translate(-3.433737, -2.428972) " points="0.94824739 2.93547909 2.80650863 4.42223502 5.9192267 1.83750056 4.02172637 0.435709647"></polygon>
                            </g>
                            <g id="Group-17" transform="translate(14.261114, 0.044117)">
                                <polygon id="Path-15" fill="#8AD500" points="1.0608054 3.3083586 3.41801678 4.49173517 3.12843009 16.0774171 1.0608054 15.0145519"></polygon>
                                <polygon id="Path-16" fill="#50AC02" points="3.10643792 4.34471586 3.10643792 16.0878198 5.77328113 13.1287713 5.77328113 1.46151435"></polygon>
                                <polygon id="Path-17" fill="#58BF00" transform="translate(3.433737, 2.428972) rotate(-9.000000) translate(-3.433737, -2.428972) " points="0.94824739 2.93547909 2.80650863 4.42223502 5.9192267 1.83750056 4.02172637 0.435709647"></polygon>
                            </g>
                        </g>
                        <g id="Group-17" transform="translate(0.035029, 42.253433)">
                            <g id="Group-37" transform="translate(0.969781, 0.545233)">
                                <polygon id="Path-15" fill="#8AD500" points="1.07303572 8.10462071 3.18899415 9.16688252 2.92904572 12.4254305 1.07303572 11.4713461"></polygon>
                                <polygon id="Path-16" fill="#50AC02" points="2.90930437 9.03491016 2.90930437 12.6528562 10.2129242 4.72552876 10.2129242 1.17566703"></polygon>
                                <polygon id="Path-17" fill="#58BF00" transform="translate(5.607360, 4.776056) rotate(-9.000000) translate(-5.607360, -4.776056) " points="0.604382566 7.36253443 2.27245678 8.69712571 10.6103372 2.11330767 8.90703993 0.854985519"></polygon>
                            </g>
                            <g id="Group-37" transform="translate(0.969781, 19.986860)">
                                <polygon id="Path-15" fill="#8AD500" points="1.07303572 8.10462071 3.18899415 9.16688252 2.92904572 12.4254305 1.07303572 11.4713461"></polygon>
                                <polygon id="Path-16" fill="#50AC02" points="2.90930437 9.03491016 2.90930437 12.6528562 10.2129242 4.72552876 10.2129242 1.17566703"></polygon>
                                <polygon id="Path-17" fill="#58BF00" transform="translate(5.607360, 4.776056) rotate(-9.000000) translate(-5.607360, -4.776056) " points="0.604382566 7.36253443 2.27245678 8.69712571 10.6103372 2.11330767 8.90703993 0.854985519"></polygon>
                            </g>
                            <g id="Group-37" transform="translate(0.969781, 9.766271)">
                                <polygon id="Path-15" fill="#8AD500" points="1.07303572 8.10462071 3.18899415 9.16688252 2.92904572 12.4254305 1.07303572 11.4713461"></polygon>
                                <polygon id="Path-16" fill="#50AC02" points="2.90930437 9.03491016 2.90930437 12.6528562 10.2129242 4.72552876 10.2129242 1.17566703"></polygon>
                                <polygon id="Path-17" fill="#58BF00" transform="translate(5.607360, 4.776056) rotate(-9.000000) translate(-5.607360, -4.776056) " points="0.604382566 7.36253443 2.27245678 8.69712571 10.6103372 2.11330767 8.90703993 0.854985519"></polygon>
                            </g>
                        </g>
                        <polygon id="Path-59" fill="#469701" points="26.747015 45.2757209 28.8244228 43.272865 28.8244228 46.5882579 26.747015 48.5435386 26.747015 51.5433509 31.2772866 47.2602796 31.2772866 38.2438858 26.747015 42.7062126"></polygon>
                    </g>
                    <g id="waikuang" transform="translate(0.472510, 0.550813)" stroke="#BFC6D3" stroke-dasharray="5" stroke-linecap="square">
                        <path d="M49.9624712,0.867873161 L131.403566,39.1462207 L131.403566,86.7011056 L81.405554,137.006262 L1.39473207,99.9969811 L1.39473207,51.3905019 L49.9624712,0.867873161 Z" id="Line-27"></path>
                        <path d="M130.028319,86.098339 L88.9700625,66.6828394 M54.1888906,51.0185508 L50.0174971,49.0890584" id="Line-27"></path>
                        <path d="M50.1182382,2.60386589 L50.1182382,50.1587508 L0.120226006,100.463907" id="Line-27"></path>
                        <path d="M1.42082808,51.1796748 L80.4208281,88.1796748 L130.569071,37.8107284" id="Line"></path>
                        <path d="M81.5,87.5 L81.5,136.5" id="Line-2"></path>
                    </g>
                </g>
                <g id="VM" transform="translate(0.239086, 0.727089)">
                    <g id="Group-35" transform="translate(40.472510, 30.550813)">
                        <g id="Group-38" transform="translate(38.012266, 7.363821)">
                            <g id="Group-37" transform="translate(0.027472, 0.895182)">
                                <polygon id="Path-15" fill="#8AD500" points="1.07303572 8.10462071 3.18899415 9.16688252 2.92904572 12.4254305 1.07303572 11.4713461"></polygon>
                                <polygon id="Path-16" fill="#50AC02" points="2.90930437 9.03491016 2.90930437 12.6528562 10.2129242 4.72552876 10.2129242 1.17566703"></polygon>
                                <polygon id="Path-17" fill="#58BF00" transform="translate(5.607360, 4.776056) rotate(-9.000000) translate(-5.607360, -4.776056) " points="0.604382566 7.36253443 2.27245678 8.69712571 10.6103372 2.11330767 8.90703993 0.854985519"></polygon>
                            </g>
                            <g id="Group-37" transform="translate(0.027472, 20.472601)">
                                <polygon id="Path-15" fill="#8AD500" points="1.07303572 8.10462071 3.18899415 9.16688252 2.92904572 12.4254305 1.07303572 11.4713461"></polygon>
                                <polygon id="Path-16" fill="#50AC02" points="2.90930437 9.03491016 2.90930437 12.6528562 10.2129242 4.72552876 10.2129242 1.17566703"></polygon>
                                <polygon id="Path-17" fill="#58BF00" transform="translate(5.607360, 4.776056) rotate(-9.000000) translate(-5.607360, -4.776056) " points="0.604382566 7.36253443 2.27245678 8.69712571 10.6103372 2.11330767 8.90703993 0.854985519"></polygon>
                            </g>
                            <g id="Group-37" transform="translate(0.027472, 10.847401)">
                                <polygon id="Path-15" fill="#8AD500" points="1.07303572 8.10462071 3.18899415 9.16688252 2.92904572 12.4254305 1.07303572 11.4713461"></polygon>
                                <polygon id="Path-16" fill="#50AC02" points="2.90930437 9.03491016 2.90930437 12.6528562 10.2129242 4.72552876 10.2129242 1.17566703"></polygon>
                                <polygon id="Path-17" fill="#58BF00" transform="translate(5.607360, 4.776056) rotate(-9.000000) translate(-5.607360, -4.776056) " points="0.604382566 7.36253443 2.27245678 8.69712571 10.6103372 2.11330767 8.90703993 0.854985519"></polygon>
                            </g>
                        </g>
                        <g id="Group-36" transform="translate(17.851474, 45.958118)">
                            <g id="Group-17" transform="translate(0.820317, 14.434091)">
                                <polygon id="Path-15" fill="#8AD500" points="1.0608054 3.3083586 3.41801678 4.49173517 3.12843009 16.0774171 1.0608054 15.0145519"></polygon>
                                <polygon id="Path-16" fill="#50AC02" points="3.10643792 4.34471586 3.10643792 16.0878198 5.77328113 13.1287713 5.77328113 1.46151435"></polygon>
                                <polygon id="Path-17" fill="#58BF00" transform="translate(3.433737, 2.428972) rotate(-9.000000) translate(-3.433737, -2.428972) " points="0.94824739 2.93547909 2.80650863 4.42223502 5.9192267 1.83750056 4.02172637 0.435709647"></polygon>
                            </g>
                            <g id="Group-17" transform="translate(7.970715, 7.114801)">
                                <polygon id="Path-15" fill="#8AD500" points="1.0608054 3.3083586 3.41801678 4.49173517 3.12843009 16.0774171 1.0608054 15.0145519"></polygon>
                                <polygon id="Path-16" fill="#50AC02" points="3.10643792 4.34471586 3.10643792 16.0878198 5.77328113 13.1287713 5.77328113 1.46151435"></polygon>
                                <polygon id="Path-17" fill="#58BF00" transform="translate(3.433737, 2.428972) rotate(-9.000000) translate(-3.433737, -2.428972) " points="0.94824739 2.93547909 2.80650863 4.42223502 5.9192267 1.83750056 4.02172637 0.435709647"></polygon>
                            </g>
                            <g id="Group-17" transform="translate(14.300795, 0.000000)">
                                <polygon id="Path-15" fill="#8AD500" points="1.0608054 3.3083586 3.41801678 4.49173517 3.12843009 16.0774171 1.0608054 15.0145519"></polygon>
                                <polygon id="Path-16" fill="#50AC02" points="3.10643792 4.34471586 3.10643792 16.0878198 5.77328113 13.1287713 5.77328113 1.46151435"></polygon>
                                <polygon id="Path-17" fill="#58BF00" transform="translate(3.433737, 2.428972) rotate(-9.000000) translate(-3.433737, -2.428972) " points="0.94824739 2.93547909 2.80650863 4.42223502 5.9192267 1.83750056 4.02172637 0.435709647"></polygon>
                            </g>
                        </g>
                        <g id="Group-39" transform="translate(2.356412, 1.730139)">
                            <g id="Group-24" transform="translate(0.067727, 0.811323)">
                                <polygon id="Path-17" fill="#58BF00" transform="translate(25.071807, 29.319819) rotate(-9.000000) translate(-25.071807, -29.319819) " points="20.8663725 28.0470368 26.8947525 32.4145783 29.277241 30.6104805 23.4170017 26.2250601"></polygon>
                                <polygon id="Path-15" fill="#8AD500" points="4.63858532 32.3658664 11.253406 35.7783702 11.2458296 54.658388 9.42521449 53.7736718 9.42521449 57.2522858 11.2384642 58.2060123 11.2384642 73.0129052 4.63858532 68.9628346"></polygon>
                                <polygon id="Path-15" fill="#8AD500" points="27.1966108 15.4193749 29.3877255 16.5664725 29.3727837 29.9821808 27.1966108 28.7793423"></polygon>
                                <polygon id="Path-57" fill="#50AC02" points="27.2167312 15.4291826 27.2167312 17.9015908 25.3614624 16.9849707"></polygon>
                                <polygon id="Path-17" fill="#58BF00" transform="translate(22.883338, 18.368032) rotate(-9.000000) translate(-22.883338, -18.368032) " points="2.64942928 29.3835822 8.67780927 33.7511238 27.8660667 18.932339 25.5650051 17.3920562 27.6187855 16.1655343 29.5761321 17.5901101 43.1172474 7.15409559 36.9964892 2.9849407"></polygon>
                                <polygon id="Path-17" fill="#58BF00" transform="translate(18.039168, 50.779203) rotate(-9.000000) translate(-18.039168, -50.779203) " points="8.48502344 55.7926014 10.1386256 57.320308 27.5933117 45.4376719 25.6834887 44.2380987"></polygon>
                                <polygon id="Path-16" fill="#50AC02" points="11.2756235 35.7799912 11.1968192 43.5824901 11.1968192 54.7788213 24.681646 43.1679341 26.4131395 44.0358758 11.1968192 58.4206771 11.1968192 73.0356357 41.1817612 41.5386873 41.1817612 21.3967773 41.1817612 11.8967094 41.1110484 4.12457789 29.3720389 16.4953699 29.3720389 29.8608812 27.3096386 32.0484482 27.8828003 18.1597614"></polygon>
                                <polygon id="Path-16" fill="#469701" points="26.0799232 29.7753009 26.0196027 37.1639672 30.6096277 31.857728 30.6096277 24.2453684 29.3894522 25.8120549 29.3513863 29.8756709 27.3417189 32.0233351 27.4657957 27.9459087"></polygon>
                                <polygon id="Path-7" fill="#8AD500" points="26.3876644 40.7504419 24.5811447 42.5235411 24.5811447 43.1172666 26.3876644 44.0479727"></polygon>
                            </g>
                            <polygon id="Path-58" fill="#50AC02" points="9.48183691 54.5726321 9.45939867 58.039064 24.7440633 43.9846043 24.7440633 43.2444802 11.2736232 55.4491625"></polygon>
                        </g>
                        <g id="Group-40" transform="translate(14.797048, 0.351049)">
                            <g id="Group-17" transform="translate(0.161712, 14.576458)">
                                <polygon id="Path-15" fill="#8AD500" points="1.0608054 3.3083586 3.41801678 4.49173517 3.12843009 16.0774171 1.0608054 15.0145519"></polygon>
                                <polygon id="Path-16" fill="#50AC02" points="3.10643792 4.34471586 3.10643792 16.0878198 5.77328113 13.1287713 5.77328113 1.46151435"></polygon>
                                <polygon id="Path-17" fill="#58BF00" transform="translate(3.433737, 2.428972) rotate(-9.000000) translate(-3.433737, -2.428972) " points="0.94824739 2.93547909 2.80650863 4.42223502 5.9192267 1.83750056 4.02172637 0.435709647"></polygon>
                            </g>
                            <g id="Group-17" transform="translate(7.110716, 5.995982)">
                                <polygon id="Path-15" fill="#8AD500" points="1.0608054 3.3083586 3.41801678 4.49173517 3.12843009 16.0774171 1.0608054 15.0145519"></polygon>
                                <polygon id="Path-16" fill="#50AC02" points="3.10643792 4.34471586 3.10643792 16.0878198 5.77328113 13.1287713 5.77328113 1.46151435"></polygon>
                                <polygon id="Path-17" fill="#58BF00" transform="translate(3.433737, 2.428972) rotate(-9.000000) translate(-3.433737, -2.428972) " points="0.94824739 2.93547909 2.80650863 4.42223502 5.9192267 1.83750056 4.02172637 0.435709647"></polygon>
                            </g>
                            <g id="Group-17" transform="translate(14.261114, 0.044117)">
                                <polygon id="Path-15" fill="#8AD500" points="1.0608054 3.3083586 3.41801678 4.49173517 3.12843009 16.0774171 1.0608054 15.0145519"></polygon>
                                <polygon id="Path-16" fill="#50AC02" points="3.10643792 4.34471586 3.10643792 16.0878198 5.77328113 13.1287713 5.77328113 1.46151435"></polygon>
                                <polygon id="Path-17" fill="#58BF00" transform="translate(3.433737, 2.428972) rotate(-9.000000) translate(-3.433737, -2.428972) " points="0.94824739 2.93547909 2.80650863 4.42223502 5.9192267 1.83750056 4.02172637 0.435709647"></polygon>
                            </g>
                        </g>
                        <g id="Group-17" transform="translate(0.035029, 42.253433)">
                            <g id="Group-37" transform="translate(0.969781, 0.545233)">
                                <polygon id="Path-15" fill="#8AD500" points="1.07303572 8.10462071 3.18899415 9.16688252 2.92904572 12.4254305 1.07303572 11.4713461"></polygon>
                                <polygon id="Path-16" fill="#50AC02" points="2.90930437 9.03491016 2.90930437 12.6528562 10.2129242 4.72552876 10.2129242 1.17566703"></polygon>
                                <polygon id="Path-17" fill="#58BF00" transform="translate(5.607360, 4.776056) rotate(-9.000000) translate(-5.607360, -4.776056) " points="0.604382566 7.36253443 2.27245678 8.69712571 10.6103372 2.11330767 8.90703993 0.854985519"></polygon>
                            </g>
                            <g id="Group-37" transform="translate(0.969781, 19.986860)">
                                <polygon id="Path-15" fill="#8AD500" points="1.07303572 8.10462071 3.18899415 9.16688252 2.92904572 12.4254305 1.07303572 11.4713461"></polygon>
                                <polygon id="Path-16" fill="#50AC02" points="2.90930437 9.03491016 2.90930437 12.6528562 10.2129242 4.72552876 10.2129242 1.17566703"></polygon>
                                <polygon id="Path-17" fill="#58BF00" transform="translate(5.607360, 4.776056) rotate(-9.000000) translate(-5.607360, -4.776056) " points="0.604382566 7.36253443 2.27245678 8.69712571 10.6103372 2.11330767 8.90703993 0.854985519"></polygon>
                            </g>
                            <g id="Group-37" transform="translate(0.969781, 9.766271)">
                                <polygon id="Path-15" fill="#8AD500" points="1.07303572 8.10462071 3.18899415 9.16688252 2.92904572 12.4254305 1.07303572 11.4713461"></polygon>
                                <polygon id="Path-16" fill="#50AC02" points="2.90930437 9.03491016 2.90930437 12.6528562 10.2129242 4.72552876 10.2129242 1.17566703"></polygon>
                                <polygon id="Path-17" fill="#58BF00" transform="translate(5.607360, 4.776056) rotate(-9.000000) translate(-5.607360, -4.776056) " points="0.604382566 7.36253443 2.27245678 8.69712571 10.6103372 2.11330767 8.90703993 0.854985519"></polygon>
                            </g>
                        </g>
                        <polygon id="Path-59" fill="#469701" points="26.747015 45.2757209 28.8244228 43.272865 28.8244228 46.5882579 26.747015 48.5435386 26.747015 51.5433509 31.2772866 47.2602796 31.2772866 38.2438858 26.747015 42.7062126"></polygon>
                    </g>
                    <g id="waikuang" transform="translate(0.472510, 0.550813)" stroke="#BFC6D3" stroke-dasharray="5" stroke-linecap="square">
                        <path d="M49.9624712,0.867873161 L131.403566,39.1462207 L131.403566,86.7011056 L81.405554,137.006262 L1.39473207,99.9969811 L1.39473207,51.3905019 L49.9624712,0.867873161 Z" id="Line-27"></path>
                        <path d="M130.028319,86.098339 L88.9700625,66.6828394 M54.1888906,51.0185508 L50.0174971,49.0890584" id="Line-27"></path>
                        <path d="M50.1182382,2.60386589 L50.1182382,50.1587508 L0.120226006,100.463907" id="Line-27"></path>
                        <path d="M1.42082808,51.1796748 L80.4208281,88.1796748 L130.569071,37.8107284" id="Line"></path>
                        <path d="M81.5,87.5 L81.5,136.5" id="Line-2"></path>
                    </g>
                </g>
            </g>
        </g>
    </g>
</svg>