<?xml version="1.0" encoding="iso-8859-1"?>
<!-- Generator: Adobe Illustrator 19.0.0, SVG Export Plug-In . SVG Version: 6.00 Build 0)  -->
<svg version="1.1" id="Layer_1" xmlns="http://www.w3.org/2000/svg" xmlns:xlink="http://www.w3.org/1999/xlink" x="0px" y="0px"
	 viewBox="0 0 399.485 399.485" style="enable-background:new 0 0 399.485 399.485;" xml:space="preserve">
<path style="fill:#FDBF5E;" d="M73.667,293.092v97.034h204.606v-45.123h38.335c19.135,0,34.586-14.869,34.586-34.004v-18.554
	L73.667,293.092z"/>
<g>
	<path style="fill:#193651;" d="M232.503,39.031c-4.913-1.228-9.244-2.457-14.222-3.103l1.875-12.347
		c5.56,0.646,10.537,1.875,16.097,3.103L232.503,39.031z"/>
	<path style="fill:#193651;" d="M199.792,34.7V22.353c-5.56,0-10.537,0.646-16.097,1.228l9.244-12.994l-9.891-7.434L159.582,34.7
		l31.547,22.885l7.434-9.891l-15.451-11.766C188.608,35.282,194.233,34.7,199.792,34.7z"/>
	<path style="fill:#193651;" d="M182.467,255.985c-5.56-0.646-10.537-1.875-16.097-3.103l3.103-11.766
		c4.913,1.228,9.244,2.457,14.222,3.103L182.467,255.985z"/>
	<path style="fill:#193651;" d="M211.493,221.981l-7.434,9.891l15.451,11.766c-5.56,0.646-11.119,1.228-16.679,1.228v12.347
		c5.56,0,10.537-0.646,16.097-1.228l-9.891,12.994l9.891,7.434l23.467-31.547L211.493,221.981z"/>
	<path style="fill:#193651;" d="M88.471,179.314c-1.875-4.913-3.685-10.537-4.978-15.451l11.766-3.103
		c1.228,4.913,2.457,9.244,4.331,14.222L88.471,179.314z"/>
	<path style="fill:#193651;" d="M120.018,186.167l-2.457,19.135c-3.685-4.331-6.788-8.663-9.891-13.576l-10.537,6.206
		c2.457,4.913,5.56,9.244,9.244,13.576l-16.097-1.875l-1.228,12.347l38.917,4.913l4.913-38.917L120.018,186.167z"/>
	<path style="fill:#193651;" d="M301.158,113.827c-1.228-4.978-2.457-9.244-4.331-14.222l11.766-4.331
		c1.875,4.978,3.685,10.537,4.913,15.451L301.158,113.827z"/>
	<path style="fill:#193651;" d="M307.299,53.835l-38.917-4.978l-4.913,38.917l12.347,1.228l2.457-19.135
		c3.685,4.331,6.788,8.663,9.891,13.576l10.537-6.206c-2.457-4.913-5.56-9.244-9.244-13.576l16.097,1.875L307.299,53.835z"/>
	<path style="fill:#193651;" d="M278.273,227.541l-8.663-9.244c3.685-3.685,6.788-6.788,9.891-11.119l9.891,7.434
		C285.707,219.524,281.958,223.856,278.273,227.541z"/>
	<path style="fill:#193651;" d="M325.271,194.183l-15.451-35.879l-35.879,15.451l4.913,11.119l17.907-7.434
		c-1.875,4.913-4.331,10.537-6.788,15.451l10.537,6.206c2.457-4.913,4.913-9.891,6.788-14.869l6.206,14.869L325.271,194.183z"/>
	<path style="fill:#193651;" d="M116.334,74.846l-9.891-8.016c3.103-4.331,6.788-8.016,11.119-12.347l8.663,8.663
		C122.475,67.476,119.372,71.161,116.334,74.846z"/>
	<path style="fill:#193651;" d="M116.915,97.73l-17.907,7.434c1.875-4.913,4.331-10.537,6.788-15.451l-10.537-6.206
		c-2.457,4.978-4.978,9.891-6.788,14.804l-6.206-14.804l-11.766,4.913L85.95,124.3l35.879-15.451L116.915,97.73z"/>
	<rect x="120.018" y="348.106" style="fill:#193651;" width="12.347" height="12.347"/>
	<rect x="168.827" y="348.106" style="fill:#193651;" width="12.347" height="12.347"/>
	<rect x="217.699" y="348.106" style="fill:#193651;" width="12.347" height="12.347"/>
	<path style="fill:#193651;" d="M284.479,396.332H67.461V288.761c-44.477-35.232-69.236-87.79-67.362-144.032l12.347,0.646
		c-1.875,53.139,22.238,103.24,64.905,136.016l2.457,1.875v100.719h192.259v-45.123h44.541c15.451,0,28.444-12.347,28.444-27.798
		v-80.42h36.461l-27.798-79.127l11.766-4.331l34.004,95.806h-41.438v68.008c0,22.238-17.907,40.21-40.792,40.21h-31.547v45.123
		H284.479z"/>
</g>
<g>
	<path style="fill:#F16051;" d="M243.687,130.506l6.788-4.913l-5.56-12.994l-8.663,1.228c-3.685-5.56-8.016-9.891-13.576-13.576
		l1.228-8.663l-12.994-5.56l-4.913,6.788c-6.206-1.228-12.994-1.228-19.135,0l-4.913-6.788l-12.994,5.56l1.228,8.663
		c-5.56,3.685-9.891,8.016-13.576,13.576l-8.663-1.228l-3.103,12.994l6.788,4.913c-1.228,6.206-1.228,12.994,0,19.135l-6.788,4.913
		l5.56,12.994l8.663-1.228c3.685,5.56,8.016,9.891,13.576,13.576l-1.875,7.434l12.994,5.56l4.913-6.788
		c6.206,1.228,12.994,1.228,19.135,0l4.913,6.788l12.994-5.56l-1.875-8.663c5.56-3.685,9.891-8.016,13.576-13.576l8.663,1.228
		l5.56-12.994l-6.788-4.913C244.915,142.854,244.915,136.712,243.687,130.506z M197.917,174.401
		c-19.135,0-34.651-15.451-34.651-34.586s15.451-34.651,34.651-34.651c19.135,0,34.586,15.451,34.586,34.651
		C232.503,158.951,217.053,174.401,197.917,174.401z"/>
	<circle style="fill:#F16051;" cx="197.917" cy="139.751" r="16.097"/>
</g>
<g>
</g>
<g>
</g>
<g>
</g>
<g>
</g>
<g>
</g>
<g>
</g>
<g>
</g>
<g>
</g>
<g>
</g>
<g>
</g>
<g>
</g>
<g>
</g>
<g>
</g>
<g>
</g>
<g>
</g>
</svg>
