<svg width="132" height="138" xmlns="http://www.w3.org/2000/svg"><g fill="none" fill-rule="evenodd"><path fill="#8AD500" d="M78.82 46.64l2.12 1.06-.26 3.26-1.86-.95z"/><path fill="#50AC02" d="M80.66 47.57v3.62l7.3-7.93v-3.55z"/><path fill="#58BF00" d="M78.82 46.65l1.86 1.06 7.2-7.81-1.88-.98z"/><path fill="#8AD500" d="M78.82 66.22l2.12 1.06-.26 3.26-1.86-.95z"/><path fill="#50AC02" d="M80.66 67.15v3.62l7.3-7.93v-3.55z"/><path fill="#58BF00" d="M78.82 66.23l1.86 1.05 7.2-7.8L86 58.5z"/><g><path fill="#8AD500" d="M78.82 56.6l2.12 1.06-.26 3.25-1.86-.95z"/><path fill="#50AC02" d="M80.66 57.52v3.62l7.3-7.93v-3.55z"/><path fill="#58BF00" d="M78.82 56.6l1.86 1.06 7.2-7.8-1.88-.98z"/></g><g><path fill="#8AD500" d="M59.44 93.98l2.36 1.18-.29 11.59-2.07-1.07z"/><path fill="#50AC02" d="M61.49 95.01v11.75l2.67-2.96V92.13z"/><path fill="#58BF00" d="M59.44 93.99l2.07 1.18 2.67-3.04-2.1-1.1z"/><g><path fill="#8AD500" d="M66.6 86.66l2.35 1.18-.29 11.59-2.07-1.06z"/><path fill="#50AC02" d="M68.64 87.7v11.74l2.67-2.96V84.81z"/><path fill="#58BF00" d="M66.6 86.67l2.06 1.18 2.67-3.04-2.1-1.1z"/></g><g><path fill="#8AD500" d="M72.92 79.54l2.36 1.19L75 92.3l-2.07-1.06z"/><path fill="#50AC02" d="M74.97 80.58v11.74l2.67-2.96V77.7z"/><path fill="#58BF00" d="M72.92 79.55L75 80.73l2.67-3.04-2.1-1.09z"/></g></g><g><path fill="#58BF00" d="M62.85 61.54l6.64 3.37 2.07-2.15-6.47-3.42z"/><path fill="#8AD500" d="M46.77 65.19l6.62 3.4v18.89l-1.83-.89v3.48l1.81.96v14.8l-6.6-4.05zM69.33 48.24l2.2 1.15-.02 13.41-2.18-1.2z"/><path fill="#50AC02" d="M69.35 48.25v2.47l-1.85-.92z"/><path fill="#58BF00" d="M46.76 65.23l6.63 3.37 16.64-17.63-2.51-1.17 1.83-1.53 2.16 1.1 11.74-12.42-6.7-3.16zM51.52 90.04l1.87 1.26 15.39-14.47-2.08-.89z"/><path fill="#50AC02" d="M53.41 68.6l-.08 7.8v11.2l13.49-11.61 1.73.87-15.22 14.38v14.61l29.99-31.5V44.73l-.07-7.78L71.5 49.31v13.37l-2.06 2.19.57-13.9z"/><path fill="#469701" d="M68.22 62.6l-.06 7.38 4.59-5.3v-7.62l-1.22 1.57-.04 4.07-2.01 2.14.12-4.07z"/><path fill="#8AD500" d="M68.52 73.57l-1.8 1.77v.6l1.8.93z"/><path fill="#50AC02" d="M51.55 86.58l-.02 3.47L66.8 75.99v-.74l-13.47 12.2z"/></g><g><path fill="#8AD500" d="M55.73 48.51l2.36 1.19-.3 11.58-2.06-1.06z"/><path fill="#50AC02" d="M57.78 49.55v11.74l2.66-2.96V46.67z"/><path fill="#58BF00" d="M55.73 48.52l2.07 1.18 2.67-3.04-2.1-1.09z"/><g><path fill="#8AD500" d="M62.68 39.93l2.36 1.19-.3 11.58-2.06-1.06z"/><path fill="#50AC02" d="M64.73 40.97v11.74l2.66-2.96V38.1z"/><path fill="#58BF00" d="M62.68 39.94l2.07 1.18 2.67-3.04-2.1-1.09z"/></g><g><path fill="#8AD500" d="M69.83 33.98l2.36 1.18-.3 11.59-2.06-1.06z"/><path fill="#50AC02" d="M71.88 35.02v11.74l2.66-2.96V32.13z"/><path fill="#58BF00" d="M69.83 34l2.07 1.17 2.67-3.04-2.1-1.09z"/></g></g><g><path fill="#8AD500" d="M41.79 81.18l2.12 1.06-.26 3.26-1.86-.95z"/><path fill="#50AC02" d="M43.63 82.11v3.62l7.3-7.93v-3.55z"/><path fill="#58BF00" d="M41.79 81.19l1.85 1.06 7.2-7.81-1.87-.98z"/><g><path fill="#8AD500" d="M41.79 100.62l2.12 1.07-.26 3.25-1.86-.95z"/><path fill="#50AC02" d="M43.63 101.55v3.62l7.3-7.93V93.7z"/><path fill="#58BF00" d="M41.79 100.63l1.85 1.06 7.2-7.8-1.87-.98z"/></g><g><path fill="#8AD500" d="M41.79 90.4l2.12 1.06-.26 3.26-1.86-.95z"/><path fill="#50AC02" d="M43.63 91.33v3.62l7.3-7.93v-3.55z"/><path fill="#58BF00" d="M41.79 90.41l1.85 1.06 7.2-7.8-1.87-.99z"/></g></g><path fill="#469701" d="M66.46 75.55l2.08-2v3.32l-2.08 1.95v3l4.53-4.28v-9.02l-4.53 4.46z"/><g stroke="#BFC6D3" stroke-dasharray="5" stroke-linecap="square"><path d="M49.67 1.15l81.45 38.27v47.56l-50 50.3-80.01-37V51.66L49.67 1.15zM129.74 86.38L88.68 66.96M53.9 51.3l-4.17-1.93"/><path d="M49.83 2.88v47.56l-50 50.3"/><path d="M1.13 51.46l79 37 50.15-50.37M81.21 87.78v49"/></g><g><path fill="#8AD500" d="M78.82 46.64l2.12 1.06-.26 3.26-1.86-.95z"/><path fill="#50AC02" d="M80.66 47.57v3.62l7.3-7.93v-3.55z"/><path fill="#58BF00" d="M78.82 46.65l1.86 1.06 7.2-7.81-1.88-.98z"/><path fill="#8AD500" d="M78.82 66.22l2.12 1.06-.26 3.26-1.86-.95z"/><path fill="#50AC02" d="M80.66 67.15v3.62l7.3-7.93v-3.55z"/><path fill="#58BF00" d="M78.82 66.23l1.86 1.05 7.2-7.8L86 58.5z"/><g><path fill="#8AD500" d="M78.82 56.6l2.12 1.06-.26 3.25-1.86-.95z"/><path fill="#50AC02" d="M80.66 57.52v3.62l7.3-7.93v-3.55z"/><path fill="#58BF00" d="M78.82 56.6l1.86 1.06 7.2-7.8-1.88-.98z"/></g><g><path fill="#8AD500" d="M59.44 93.98l2.36 1.18-.29 11.59-2.07-1.07z"/><path fill="#50AC02" d="M61.49 95.01v11.75l2.67-2.96V92.13z"/><path fill="#58BF00" d="M59.44 93.99l2.07 1.18 2.67-3.04-2.1-1.1z"/><g><path fill="#8AD500" d="M66.6 86.66l2.35 1.18-.29 11.59-2.07-1.06z"/><path fill="#50AC02" d="M68.64 87.7v11.74l2.67-2.96V84.81z"/><path fill="#58BF00" d="M66.6 86.67l2.06 1.18 2.67-3.04-2.1-1.1z"/></g><g><path fill="#8AD500" d="M72.92 79.54l2.36 1.19L75 92.3l-2.07-1.06z"/><path fill="#50AC02" d="M74.97 80.58v11.74l2.67-2.96V77.7z"/><path fill="#58BF00" d="M72.92 79.55L75 80.73l2.67-3.04-2.1-1.09z"/></g></g><g><path fill="#58BF00" d="M62.85 61.54l6.64 3.37 2.07-2.15-6.47-3.42z"/><path fill="#8AD500" d="M46.77 65.19l6.62 3.4v18.89l-1.83-.89v3.48l1.81.96v14.8l-6.6-4.05zM69.33 48.24l2.2 1.15-.02 13.41-2.18-1.2z"/><path fill="#50AC02" d="M69.35 48.25v2.47l-1.85-.92z"/><path fill="#58BF00" d="M46.76 65.23l6.63 3.37 16.64-17.63-2.51-1.17 1.83-1.53 2.16 1.1 11.74-12.42-6.7-3.16zM51.52 90.04l1.87 1.26 15.39-14.47-2.08-.89z"/><path fill="#50AC02" d="M53.41 68.6l-.08 7.8v11.2l13.49-11.61 1.73.87-15.22 14.38v14.61l29.99-31.5V44.73l-.07-7.78L71.5 49.31v13.37l-2.06 2.19.57-13.9z"/><path fill="#469701" d="M68.22 62.6l-.06 7.38 4.59-5.3v-7.62l-1.22 1.57-.04 4.07-2.01 2.14.12-4.07z"/><path fill="#8AD500" d="M68.52 73.57l-1.8 1.77v.6l1.8.93z"/><path fill="#50AC02" d="M51.55 86.58l-.02 3.47L66.8 75.99v-.74l-13.47 12.2z"/></g><g><path fill="#8AD500" d="M55.73 48.51l2.36 1.19-.3 11.58-2.06-1.06z"/><path fill="#50AC02" d="M57.78 49.55v11.74l2.66-2.96V46.67z"/><path fill="#58BF00" d="M55.73 48.52l2.07 1.18 2.67-3.04-2.1-1.09z"/><g><path fill="#8AD500" d="M62.68 39.93l2.36 1.19-.3 11.58-2.06-1.06z"/><path fill="#50AC02" d="M64.73 40.97v11.74l2.66-2.96V38.1z"/><path fill="#58BF00" d="M62.68 39.94l2.07 1.18 2.67-3.04-2.1-1.09z"/></g><g><path fill="#8AD500" d="M69.83 33.98l2.36 1.18-.3 11.59-2.06-1.06z"/><path fill="#50AC02" d="M71.88 35.02v11.74l2.66-2.96V32.13z"/><path fill="#58BF00" d="M69.83 34l2.07 1.17 2.67-3.04-2.1-1.09z"/></g></g><g><path fill="#8AD500" d="M41.79 81.18l2.12 1.06-.26 3.26-1.86-.95z"/><path fill="#50AC02" d="M43.63 82.11v3.62l7.3-7.93v-3.55z"/><path fill="#58BF00" d="M41.79 81.19l1.85 1.06 7.2-7.81-1.87-.98z"/><g><path fill="#8AD500" d="M41.79 100.62l2.12 1.07-.26 3.25-1.86-.95z"/><path fill="#50AC02" d="M43.63 101.55v3.62l7.3-7.93V93.7z"/><path fill="#58BF00" d="M41.79 100.63l1.85 1.06 7.2-7.8-1.87-.98z"/></g><g><path fill="#8AD500" d="M41.79 90.4l2.12 1.06-.26 3.26-1.86-.95z"/><path fill="#50AC02" d="M43.63 91.33v3.62l7.3-7.93v-3.55z"/><path fill="#58BF00" d="M41.79 90.41l1.85 1.06 7.2-7.8-1.87-.99z"/></g></g><path fill="#469701" d="M66.46 75.55l2.08-2v3.32l-2.08 1.95v3l4.53-4.28v-9.02l-4.53 4.46z"/><g stroke="#BFC6D3" stroke-dasharray="5" stroke-linecap="square"><path d="M49.67 1.15l81.45 38.27v47.56l-50 50.3-80.01-37V51.66L49.67 1.15zM129.74 86.38L88.68 66.96M53.9 51.3l-4.17-1.93"/><path d="M49.83 2.88v47.56l-50 50.3"/><path d="M1.13 51.46l79 37 50.15-50.37M81.21 87.78v49"/></g></g><g><path fill="#8AD500" d="M78.82 46.64l2.12 1.06-.26 3.26-1.86-.95z"/><path fill="#50AC02" d="M80.66 47.57v3.62l7.3-7.93v-3.55z"/><path fill="#58BF00" d="M78.82 46.65l1.86 1.06 7.2-7.81-1.88-.98z"/><path fill="#8AD500" d="M78.82 66.22l2.12 1.06-.26 3.26-1.86-.95z"/><path fill="#50AC02" d="M80.66 67.15v3.62l7.3-7.93v-3.55z"/><path fill="#58BF00" d="M78.82 66.23l1.86 1.05 7.2-7.8L86 58.5z"/><g><path fill="#8AD500" d="M78.82 56.6l2.12 1.06-.26 3.25-1.86-.95z"/><path fill="#50AC02" d="M80.66 57.52v3.62l7.3-7.93v-3.55z"/><path fill="#58BF00" d="M78.82 56.6l1.86 1.06 7.2-7.8-1.88-.98z"/></g><g><path fill="#8AD500" d="M59.44 93.98l2.36 1.18-.29 11.59-2.07-1.07z"/><path fill="#50AC02" d="M61.49 95.01v11.75l2.67-2.96V92.13z"/><path fill="#58BF00" d="M59.44 93.99l2.07 1.18 2.67-3.04-2.1-1.1z"/><g><path fill="#8AD500" d="M66.6 86.66l2.35 1.18-.29 11.59-2.07-1.06z"/><path fill="#50AC02" d="M68.64 87.7v11.74l2.67-2.96V84.81z"/><path fill="#58BF00" d="M66.6 86.67l2.06 1.18 2.67-3.04-2.1-1.1z"/></g><g><path fill="#8AD500" d="M72.92 79.54l2.36 1.19L75 92.3l-2.07-1.06z"/><path fill="#50AC02" d="M74.97 80.58v11.74l2.67-2.96V77.7z"/><path fill="#58BF00" d="M72.92 79.55L75 80.73l2.67-3.04-2.1-1.09z"/></g></g><g><path fill="#58BF00" d="M62.85 61.54l6.64 3.37 2.07-2.15-6.47-3.42z"/><path fill="#8AD500" d="M46.77 65.19l6.62 3.4v18.89l-1.83-.89v3.48l1.81.96v14.8l-6.6-4.05zM69.33 48.24l2.2 1.15-.02 13.41-2.18-1.2z"/><path fill="#50AC02" d="M69.35 48.25v2.47l-1.85-.92z"/><path fill="#58BF00" d="M46.76 65.23l6.63 3.37 16.64-17.63-2.51-1.17 1.83-1.53 2.16 1.1 11.74-12.42-6.7-3.16zM51.52 90.04l1.87 1.26 15.39-14.47-2.08-.89z"/><path fill="#50AC02" d="M53.41 68.6l-.08 7.8v11.2l13.49-11.61 1.73.87-15.22 14.38v14.61l29.99-31.5V44.73l-.07-7.78L71.5 49.31v13.37l-2.06 2.19.57-13.9z"/><path fill="#469701" d="M68.22 62.6l-.06 7.38 4.59-5.3v-7.62l-1.22 1.57-.04 4.07-2.01 2.14.12-4.07z"/><path fill="#8AD500" d="M68.52 73.57l-1.8 1.77v.6l1.8.93z"/><path fill="#50AC02" d="M51.55 86.58l-.02 3.47L66.8 75.99v-.74l-13.47 12.2z"/></g><g><path fill="#8AD500" d="M55.73 48.51l2.36 1.19-.3 11.58-2.06-1.06z"/><path fill="#50AC02" d="M57.78 49.55v11.74l2.66-2.96V46.67z"/><path fill="#58BF00" d="M55.73 48.52l2.07 1.18 2.67-3.04-2.1-1.09z"/><g><path fill="#8AD500" d="M62.68 39.93l2.36 1.19-.3 11.58-2.06-1.06z"/><path fill="#50AC02" d="M64.73 40.97v11.74l2.66-2.96V38.1z"/><path fill="#58BF00" d="M62.68 39.94l2.07 1.18 2.67-3.04-2.1-1.09z"/></g><g><path fill="#8AD500" d="M69.83 33.98l2.36 1.18-.3 11.59-2.06-1.06z"/><path fill="#50AC02" d="M71.88 35.02v11.74l2.66-2.96V32.13z"/><path fill="#58BF00" d="M69.83 34l2.07 1.17 2.67-3.04-2.1-1.09z"/></g></g><g><path fill="#8AD500" d="M41.79 81.18l2.12 1.06-.26 3.26-1.86-.95z"/><path fill="#50AC02" d="M43.63 82.11v3.62l7.3-7.93v-3.55z"/><path fill="#58BF00" d="M41.79 81.19l1.85 1.06 7.2-7.81-1.87-.98z"/><g><path fill="#8AD500" d="M41.79 100.62l2.12 1.07-.26 3.25-1.86-.95z"/><path fill="#50AC02" d="M43.63 101.55v3.62l7.3-7.93V93.7z"/><path fill="#58BF00" d="M41.79 100.63l1.85 1.06 7.2-7.8-1.87-.98z"/></g><g><path fill="#8AD500" d="M41.79 90.4l2.12 1.06-.26 3.26-1.86-.95z"/><path fill="#50AC02" d="M43.63 91.33v3.62l7.3-7.93v-3.55z"/><path fill="#58BF00" d="M41.79 90.41l1.85 1.06 7.2-7.8-1.87-.99z"/></g></g><path fill="#469701" d="M66.46 75.55l2.08-2v3.32l-2.08 1.95v3l4.53-4.28v-9.02l-4.53 4.46z"/><g stroke="#BFC6D3" stroke-dasharray="5" stroke-linecap="square"><path d="M49.67 1.15l81.45 38.27v47.56l-50 50.3-80.01-37V51.66L49.67 1.15zM129.74 86.38L88.68 66.96M53.9 51.3l-4.17-1.93"/><path d="M49.83 2.88v47.56l-50 50.3"/><path d="M1.13 51.46l79 37 50.15-50.37M81.21 87.78v49"/></g></g></g></svg>