<?xml version="1.0" encoding="utf-8"?>
<!-- Generator: Adobe Illustrator 22.1.0, SVG Export Plug-In . SVG Version: 6.00 Build 0)  -->
<svg version="1.1" id="Layer_1" xmlns="http://www.w3.org/2000/svg" xmlns:xlink="http://www.w3.org/1999/xlink" x="0px" y="0px"
	 viewBox="0 0 399.5 399.5" style="enable-background:new 0 0 399.5 399.5;" xml:space="preserve">
<style type="text/css">
	.st0{fill:#8AD500;}
	.st1{fill:#478E0A;}
	.st2{fill:#B4E700;}
</style>
<path class="st0" d="M73.7,293.1v97h204.6V345h38.3c19.1,0,34.6-14.9,34.6-34v-18.6L73.7,293.1z"/>
<g>
	<path class="st1" d="M232.5,39c-4.9-1.2-9.2-2.5-14.2-3.1l1.9-12.3c5.6,0.6,10.5,1.9,16.1,3.1L232.5,39z"/>
	<path class="st1" d="M199.8,34.7V22.4c-5.6,0-10.5,0.6-16.1,1.2l9.2-13L183,3.2l-23.5,31.5l31.5,22.9l7.4-9.9l-15.5-11.8
		C188.6,35.3,194.2,34.7,199.8,34.7z"/>
	<path class="st1" d="M182.5,256c-5.6-0.6-10.5-1.9-16.1-3.1l3.1-11.8c4.9,1.2,9.2,2.5,14.2,3.1L182.5,256z"/>
	<path class="st1" d="M211.5,222l-7.4,9.9l15.5,11.8c-5.6,0.6-11.1,1.2-16.7,1.2v12.3c5.6,0,10.5-0.6,16.1-1.2l-9.9,13l9.9,7.4
		l23.5-31.5L211.5,222z"/>
	<path class="st1" d="M88.5,179.3c-1.9-4.9-3.7-10.5-5-15.5l11.8-3.1c1.2,4.9,2.5,9.2,4.3,14.2L88.5,179.3z"/>
	<path class="st1" d="M120,186.2l-2.5,19.1c-3.7-4.3-6.8-8.7-9.9-13.6l-10.5,6.2c2.5,4.9,5.6,9.2,9.2,13.6l-16.1-1.9L89.1,222
		l38.9,4.9l4.9-38.9L120,186.2z"/>
	<path class="st1" d="M301.2,113.8c-1.2-5-2.5-9.2-4.3-14.2l11.8-4.3c1.9,5,3.7,10.5,4.9,15.5L301.2,113.8z"/>
	<path class="st1" d="M307.3,53.8l-38.9-5l-4.9,38.9l12.3,1.2l2.5-19.1c3.7,4.3,6.8,8.7,9.9,13.6l10.5-6.2
		c-2.5-4.9-5.6-9.2-9.2-13.6l16.1,1.9L307.3,53.8z"/>
	<path class="st1" d="M278.3,227.5l-8.7-9.2c3.7-3.7,6.8-6.8,9.9-11.1l9.9,7.4C285.7,219.5,282,223.9,278.3,227.5z"/>
	<path class="st1" d="M325.3,194.2l-15.5-35.9l-35.9,15.5l4.9,11.1l17.9-7.4c-1.9,4.9-4.3,10.5-6.8,15.5l10.5,6.2
		c2.5-4.9,4.9-9.9,6.8-14.9l6.2,14.9L325.3,194.2z"/>
	<path class="st1" d="M116.3,74.8l-9.9-8c3.1-4.3,6.8-8,11.1-12.3l8.7,8.7C122.5,67.5,119.4,71.2,116.3,74.8z"/>
	<path class="st1" d="M116.9,97.7L99,105.2c1.9-4.9,4.3-10.5,6.8-15.5l-10.5-6.2c-2.5,5-5,9.9-6.8,14.8l-6.2-14.8l-11.8,4.9
		l15.5,35.9l35.9-15.5L116.9,97.7z"/>
	<rect x="120" y="348.1" class="st1" width="12.3" height="12.3"/>
	<rect x="168.8" y="348.1" class="st1" width="12.3" height="12.3"/>
	<rect x="217.7" y="348.1" class="st1" width="12.3" height="12.3"/>
	<path class="st1" d="M284.5,396.3h-217V288.8C23,253.5-1.8,201,0.1,144.7l12.3,0.6c-1.9,53.1,22.2,103.2,64.9,136l2.5,1.9V384
		h192.3v-45.1h44.5c15.5,0,28.4-12.3,28.4-27.8v-80.4h36.5l-27.8-79.1l11.8-4.3l34,95.8H358v68c0,22.2-17.9,40.2-40.8,40.2h-31.5
		v45.1L284.5,396.3L284.5,396.3z"/>
</g>
<g>
	<path class="st2" d="M243.7,130.5l6.8-4.9l-5.6-13l-8.7,1.2c-3.7-5.6-8-9.9-13.6-13.6l1.2-8.7l-13-5.6l-4.9,6.8
		c-6.2-1.2-13-1.2-19.1,0l-4.9-6.8l-13,5.6l1.2,8.7c-5.6,3.7-9.9,8-13.6,13.6l-8.7-1.2l-3.1,13l6.8,4.9c-1.2,6.2-1.2,13,0,19.1
		l-6.8,4.9l5.6,13l8.7-1.2c3.7,5.6,8,9.9,13.6,13.6l-1.9,7.4l13,5.6l4.9-6.8c6.2,1.2,13,1.2,19.1,0l4.9,6.8l13-5.6l-1.9-8.7
		c5.6-3.7,9.9-8,13.6-13.6l8.7,1.2l5.6-13l-6.8-4.9C244.9,142.9,244.9,136.7,243.7,130.5z M197.9,174.4c-19.1,0-34.7-15.5-34.7-34.6
		s15.5-34.7,34.7-34.7c19.1,0,34.6,15.5,34.6,34.7C232.5,159,217.1,174.4,197.9,174.4z"/>
	<circle class="st2" cx="197.9" cy="139.8" r="16.1"/>
</g>
</svg>
