<svg id="Layer_1" data-name="Layer 1" xmlns="http://www.w3.org/2000/svg" viewBox="0 0 348 197"><defs><style>.cls-1{fill:#ebfdf7;}.cls-2{fill:#02e49b;}.cls-3{fill:#2b393f;}.cls-4{fill:#d9dbdc;}.cls-5{fill:#fff;}</style></defs><title>Blog</title><rect class="cls-1" x="-0.07" y="0.16" width="348.14" height="196.84"/><path class="cls-2" d="M225.84,130.22V82.13a5.79,5.79,0,0,0-2.89-5l-57-33a2.9,2.9,0,0,0-4.35,2.51V93.47a8.14,8.14,0,0,0,4.12,7.08l35.59,20.38a2.89,2.89,0,0,1,1.46,2.52v9.78l6-5.52a2.92,2.92,0,0,1,3.41-.37l9.34,5.39A2.9,2.9,0,0,0,225.84,130.22Z"/><path class="cls-3" d="M193.7,149.19V101.1a5.8,5.8,0,0,0-2.89-5l-57-33a2.9,2.9,0,0,0-4.35,2.51v48.22a5.8,5.8,0,0,0,2.94,5l3.36,1.91a8.16,8.16,0,0,1,2.87,2.73l10,15.85.19-9.26a1,1,0,0,1,1.52-.87l39,22.5A2.91,2.91,0,0,0,193.7,149.19Z"/><path class="cls-4" d="M177.23,112.51,138,90a1.92,1.92,0,0,1-1-1.67V83.85a1,1,0,0,1,1.45-.84l39.22,22.51a2,2,0,0,1,1,1.68v4.47A1,1,0,0,1,177.23,112.51Z"/><path class="cls-4" d="M148.57,111.72,123.11,96.87a1.93,1.93,0,0,1-1-1.66V90.74a1,1,0,0,1,1.46-.83l25.46,14.85a1.93,1.93,0,0,1,.95,1.66v4.46A1,1,0,0,1,148.57,111.72Z"/><path class="cls-5" d="M216.5,97.66,190.69,82.88a1.94,1.94,0,0,1-1-1.68V76.73a1,1,0,0,1,1.45-.83L217,90.68a1.92,1.92,0,0,1,1,1.67v4.47A1,1,0,0,1,216.5,97.66Z"/><path class="cls-5" d="M185.06,79.84l-7.78-4.73a2,2,0,0,1-1-1.68V69a1,1,0,0,1,1.45-.84l7.78,4.74a1.92,1.92,0,0,1,1,1.67V79A1,1,0,0,1,185.06,79.84Z"/><path class="cls-5" d="M216.49,112.5l-14-8a1.93,1.93,0,0,1-.95-1.66V98.38a1,1,0,0,1,1.46-.84l14,8a1.93,1.93,0,0,1,.95,1.67v4.46A1,1,0,0,1,216.49,112.5Z"/></svg>