<svg viewBox="0 0 348 197" xmlns="http://www.w3.org/2000/svg"><path d="m-.07.16h348.14v196.84h-348.14z" fill="#ebfdf7"/><path d="m225.84 130.22v-48.09a5.79 5.79 0 0 0 -2.89-5l-57-33a2.9 2.9 0 0 0 -4.35 2.51v46.83a8.14 8.14 0 0 0 4.12 7.08l35.59 20.38a2.89 2.89 0 0 1 1.46 2.52v9.78l6-5.52a2.92 2.92 0 0 1 3.41-.37l9.34 5.39a2.9 2.9 0 0 0 4.32-2.51z" fill="#02e49b"/><path d="m193.7 149.19v-48.09a5.8 5.8 0 0 0 -2.89-5l-57-33a2.9 2.9 0 0 0 -4.35 2.51v48.22a5.8 5.8 0 0 0 2.94 5l3.36 1.91a8.16 8.16 0 0 1 2.87 2.73l10 15.85.19-9.26a1 1 0 0 1 1.52-.87l39 22.5a2.91 2.91 0 0 0 4.36-2.5z" fill="#2b393f"/><path d="m177.23 112.51-39.23-22.51a1.92 1.92 0 0 1 -1-1.67v-4.48a1 1 0 0 1 1.45-.84l39.22 22.51a2 2 0 0 1 1 1.68v4.47a1 1 0 0 1 -1.44.84z" fill="#d9dbdc"/><path d="m148.57 111.72-25.46-14.85a1.93 1.93 0 0 1 -1-1.66v-4.47a1 1 0 0 1 1.46-.83l25.46 14.85a1.93 1.93 0 0 1 .95 1.66v4.46a1 1 0 0 1 -1.41.84z" fill="#d9dbdc"/><g fill="#fff"><path d="m216.5 97.66-25.81-14.78a1.94 1.94 0 0 1 -1-1.68v-4.47a1 1 0 0 1 1.45-.83l25.86 14.78a1.92 1.92 0 0 1 1 1.67v4.47a1 1 0 0 1 -1.5.84z"/><path d="m185.06 79.84-7.78-4.73a2 2 0 0 1 -1-1.68v-4.43a1 1 0 0 1 1.45-.84l7.78 4.74a1.92 1.92 0 0 1 1 1.67v4.43a1 1 0 0 1 -1.45.84z"/><path d="m216.49 112.5-14-8a1.93 1.93 0 0 1 -.95-1.66v-4.46a1 1 0 0 1 1.46-.84l14 8a1.93 1.93 0 0 1 .95 1.67v4.46a1 1 0 0 1 -1.46.83z"/></g></svg>