<svg width="361" height="58" viewBox="0 0 361 58" fill="none" xmlns="http://www.w3.org/2000/svg" preserveAspectRatio="none meet">
<rect width="28.6541" height="50.1447" fill="#1565D8"/>
<rect x="32.2351" width="28.6541" height="50.1447" fill="#1565D8"/>
<rect x="64.4695" width="28.6541" height="50.1447" fill="#1565D8"/>
<path d="M7.16431 14.3271H14.2998C17.0794 14.3271 19.1408 14.7422 20.484 15.5724C21.8365 16.3932 22.5127 17.6757 22.5127 19.42C22.5127 20.5672 22.2189 21.5466 21.6313 22.3581C21.0436 23.1696 20.2695 23.692 19.3087 23.9252V24.0651C20.5773 24.4009 21.496 24.9605 22.065 25.744C22.634 26.5275 22.9185 27.5442 22.9185 28.7941C22.9185 30.6503 22.2189 32.1147 20.8198 33.1874C19.43 34.2507 17.5318 34.7824 15.1253 34.7824H7.16431V14.3271ZM12.6909 22.1762H14.3558C15.1487 22.1762 15.7596 22.013 16.1887 21.6865C16.6271 21.3601 16.8463 20.8751 16.8463 20.2315C16.8463 19.0842 15.9788 18.5105 14.2439 18.5105H12.6909V22.1762ZM12.6909 26.2197V30.515H14.6356C16.3612 30.515 17.224 29.7875 17.224 28.3324C17.224 27.6515 16.9908 27.1291 16.5245 26.7654C16.0674 26.4016 15.4005 26.2197 14.5237 26.2197H12.6909Z" fill="white"/>
<path d="M53.7265 28.8641C53.7265 30.1326 53.4047 31.2612 52.7611 32.25C52.1175 33.2293 51.1894 33.9942 49.9768 34.5445C48.7642 35.0855 47.3418 35.356 45.7095 35.356C44.3477 35.356 43.205 35.2627 42.2816 35.0762C41.3582 34.8803 40.3975 34.5445 39.3994 34.0688V29.1439C40.4534 29.6849 41.5494 30.1093 42.6874 30.4171C43.8253 30.7156 44.87 30.8648 45.8214 30.8648C46.6422 30.8648 47.2438 30.7249 47.6263 30.4451C48.0087 30.1559 48.1999 29.7875 48.1999 29.3398C48.1999 29.0599 48.1206 28.8174 47.9621 28.6122C47.8128 28.3977 47.5656 28.1832 47.2205 27.9686C46.8847 27.7541 45.98 27.3157 44.5062 26.6534C43.1724 26.0472 42.1697 25.4595 41.4981 24.8905C40.8358 24.3216 40.3415 23.6686 40.015 22.9318C39.6979 22.1949 39.5393 21.3228 39.5393 20.3154C39.5393 18.4313 40.2249 16.9622 41.596 15.9082C42.9672 14.8542 44.8513 14.3271 47.2485 14.3271C49.3659 14.3271 51.5252 14.8168 53.7265 15.7962L52.0335 20.0636C50.1214 19.1868 48.4704 18.7484 47.0806 18.7484C46.3624 18.7484 45.8401 18.8743 45.5136 19.1262C45.1871 19.378 45.0239 19.6905 45.0239 20.0636C45.0239 20.4646 45.2291 20.8238 45.6395 21.1409C46.0593 21.458 47.1879 22.0363 49.0254 22.8758C50.7883 23.6686 52.0102 24.5221 52.6911 25.4362C53.3813 26.341 53.7265 27.4836 53.7265 28.8641Z" fill="white"/>
<path d="M89.3218 34.7824H82.0743L74.603 20.3714H74.4771C74.6543 22.638 74.7429 24.3682 74.7429 25.5621V34.7824H69.8459V14.3271H77.0654L84.5088 28.5423H84.5927C84.4621 26.4809 84.3969 24.8253 84.3969 23.5754V14.3271H89.3218V34.7824Z" fill="white"/>
<rect y="53.7261" width="93.1258" height="3.58176" fill="#1565D8"/>
<path d="M106.079 2.82572H113.215C115.994 2.82572 118.056 3.24079 119.399 4.07094C120.751 4.89176 121.428 6.17429 121.428 7.91854C121.428 9.06582 121.134 10.0452 120.546 10.8567C119.958 11.6682 119.184 12.1905 118.224 12.4237V12.5636C119.492 12.8994 120.411 13.4591 120.98 14.2426C121.549 15.0261 121.833 16.0428 121.833 17.2927C121.833 19.1489 121.134 20.6133 119.735 21.6859C118.345 22.7493 116.447 23.2809 114.04 23.2809H106.079V2.82572ZM111.606 10.6748H113.271C114.063 10.6748 114.674 10.5116 115.103 10.1851C115.542 9.85866 115.761 9.37363 115.761 8.73003C115.761 7.58275 114.894 7.0091 113.159 7.0091H111.606V10.6748ZM111.606 14.7183V19.0136H113.55C115.276 19.0136 116.139 18.2861 116.139 16.831C116.139 16.1501 115.906 15.6277 115.439 15.2639C114.982 14.9002 114.315 14.7183 113.438 14.7183H111.606Z" fill="#183B56"/>
<path d="M130.536 23.2809H125.065V1.51054H130.536V23.2809Z" fill="#183B56"/>
<path d="M149.466 15.3199C149.466 17.913 148.766 19.937 147.367 21.3921C145.977 22.8379 144.028 23.5608 141.519 23.5608C139.112 23.5608 137.196 22.8192 135.769 21.3362C134.351 19.8531 133.642 17.8477 133.642 15.3199C133.642 12.7362 134.337 10.7308 135.727 9.30367C137.126 7.86723 139.084 7.14902 141.603 7.14902C143.161 7.14902 144.536 7.48014 145.73 8.1424C146.924 8.80465 147.843 9.75605 148.487 10.9966C149.14 12.2278 149.466 13.6689 149.466 15.3199ZM139.196 15.3199C139.196 16.6817 139.378 17.7217 139.742 18.44C140.106 19.1489 140.717 19.5033 141.575 19.5033C142.424 19.5033 143.021 19.1489 143.366 18.44C143.72 17.7217 143.897 16.6817 143.897 15.3199C143.897 13.9674 143.72 12.9461 143.366 12.2558C143.011 11.5656 142.405 11.2205 141.547 11.2205C140.707 11.2205 140.106 11.5656 139.742 12.2558C139.378 12.9367 139.196 13.9581 139.196 15.3199Z" fill="#183B56"/>
<path d="M159.82 23.5608C157.226 23.5608 155.258 22.8612 153.915 21.4621C152.581 20.0629 151.914 18.0529 151.914 15.4318C151.914 12.8015 152.637 10.7634 154.083 9.31766C155.529 7.8719 157.586 7.14902 160.253 7.14902C162.091 7.14902 163.821 7.5501 165.444 8.35226L163.835 12.3957C163.173 12.1066 162.562 11.8781 162.002 11.7102C161.443 11.5329 160.86 11.4443 160.253 11.4443C159.367 11.4443 158.682 11.7895 158.197 12.4797C157.711 13.1699 157.469 14.1446 157.469 15.4039C157.469 17.9409 158.406 19.2095 160.281 19.2095C161.886 19.2095 163.425 18.7431 164.898 17.8104V22.1616C163.49 23.0944 161.797 23.5608 159.82 23.5608Z" fill="#183B56"/>
<path d="M173.349 14.3685C174.011 13.3145 174.576 12.4937 175.042 11.906L178.596 7.42884H184.696L179.197 14.1726L185.046 23.2809H178.792L175.322 17.6005L173.545 18.9576V23.2809H168.046V1.51054H173.545V10.0732C173.545 11.5376 173.442 12.9694 173.237 14.3685H173.349Z" fill="#183B56"/>
<path d="M194.154 23.5608C191.561 23.5608 189.593 22.8612 188.25 21.4621C186.916 20.0629 186.249 18.0529 186.249 15.4318C186.249 12.8015 186.972 10.7634 188.418 9.31766C189.863 7.8719 191.92 7.14902 194.588 7.14902C196.425 7.14902 198.156 7.5501 199.779 8.35226L198.17 12.3957C197.507 12.1066 196.896 11.8781 196.337 11.7102C195.777 11.5329 195.194 11.4443 194.588 11.4443C193.702 11.4443 193.016 11.7895 192.531 12.4797C192.046 13.1699 191.804 14.1446 191.804 15.4039C191.804 17.9409 192.741 19.2095 194.616 19.2095C196.22 19.2095 197.759 18.7431 199.233 17.8104V22.1616C197.824 23.0944 196.131 23.5608 194.154 23.5608Z" fill="#183B56"/>
<path d="M212.357 23.2809V14.6343C212.357 12.5077 211.727 11.4443 210.468 11.4443C209.572 11.4443 208.91 11.8221 208.481 12.5776C208.061 13.3238 207.852 14.569 207.852 16.3133V23.2809H202.381V1.51054H207.852V4.60261C207.852 6.00173 207.777 7.59674 207.628 9.38762H207.879C208.402 8.5668 209.022 7.98849 209.74 7.6527C210.459 7.31691 211.293 7.14902 212.245 7.14902C214.017 7.14902 215.393 7.66203 216.372 8.68806C217.361 9.70475 217.855 11.1319 217.855 12.9694V23.2809H212.357Z" fill="#183B56"/>
<path d="M231.916 23.2809L230.867 21.1822H230.755C230.018 22.0963 229.267 22.7213 228.503 23.0571C227.738 23.3929 226.749 23.5608 225.536 23.5608C224.044 23.5608 222.869 23.113 222.011 22.2176C221.153 21.3222 220.723 20.0629 220.723 18.44C220.723 16.7517 221.311 15.4971 222.486 14.6763C223.662 13.8462 225.364 13.3798 227.593 13.2772L230.238 13.1932V12.9694C230.238 11.6635 229.594 11.0106 228.307 11.0106C227.15 11.0106 225.681 11.4024 223.899 12.1859L222.318 8.57613C224.165 7.62472 226.497 7.14902 229.314 7.14902C231.347 7.14902 232.919 7.6527 234.029 8.66007C235.148 9.66744 235.708 11.0759 235.708 12.8854V23.2809H231.916ZM227.859 19.6992C228.521 19.6992 229.086 19.4893 229.552 19.0696C230.028 18.6498 230.265 18.1042 230.265 17.4326V16.2014L229.006 16.2573C227.206 16.3226 226.306 16.9849 226.306 18.2441C226.306 19.2141 226.824 19.6992 227.859 19.6992Z" fill="#183B56"/>
<path d="M244.928 23.2809H239.458V7.42884H244.928V23.2809ZM239.318 3.48331C239.318 2.66249 239.546 2.05153 240.003 1.65045C240.46 1.24937 241.197 1.04883 242.214 1.04883C243.231 1.04883 243.972 1.25403 244.439 1.66444C244.905 2.07485 245.138 2.68114 245.138 3.48331C245.138 5.08764 244.163 5.8898 242.214 5.8898C240.283 5.8898 239.318 5.08764 239.318 3.48331Z" fill="#183B56"/>
<path d="M258.752 23.2809V14.6343C258.752 13.5803 258.598 12.7875 258.29 12.2558C257.992 11.7148 257.506 11.4443 256.835 11.4443C255.911 11.4443 255.245 11.8128 254.834 12.5496C254.424 13.2865 254.219 14.5504 254.219 16.3413V23.2809H248.748V7.42884H252.875L253.561 9.38762H253.883C254.349 8.64142 254.993 8.08177 255.814 7.70867C256.644 7.33557 257.595 7.14902 258.668 7.14902C260.421 7.14902 261.783 7.65737 262.753 8.67406C263.733 9.69076 264.222 11.1225 264.222 12.9694V23.2809H258.752Z" fill="#183B56"/>
<path d="M266.657 17.7824V13.4171H274.562V17.7824H266.657Z" fill="#183B56"/>
<path d="M286.748 7.14902C288.474 7.14902 289.84 7.8719 290.848 9.31766C291.864 10.7634 292.373 12.7642 292.373 15.3199C292.373 17.8943 291.86 19.9137 290.834 21.3781C289.817 22.8332 288.399 23.5608 286.58 23.5608C285.993 23.5608 285.47 23.4955 285.013 23.3649C284.556 23.2436 284.146 23.0711 283.782 22.8472C283.428 22.6233 283.013 22.2502 282.537 21.7279H282.201L281.334 23.2809H277.066V1.51054H282.537V6.43546C282.537 7.0231 282.472 8.03513 282.341 9.47157H282.537C283.069 8.65074 283.679 8.05845 284.37 7.69468C285.069 7.3309 285.862 7.14902 286.748 7.14902ZM284.747 11.4443C283.983 11.4443 283.423 11.7102 283.069 12.2418C282.714 12.7735 282.537 13.6083 282.537 14.7463V15.5158C282.537 16.8123 282.714 17.7451 283.069 18.314C283.423 18.8737 284.001 19.1535 284.803 19.1535C285.447 19.1535 285.941 18.8271 286.286 18.1741C286.632 17.5119 286.804 16.5418 286.804 15.2639C286.804 12.7175 286.119 11.4443 284.747 11.4443Z" fill="#183B56"/>
<path d="M305.846 23.2809L304.797 21.1822H304.685C303.948 22.0963 303.197 22.7213 302.432 23.0571C301.668 23.3929 300.679 23.5608 299.466 23.5608C297.974 23.5608 296.799 23.113 295.94 22.2176C295.082 21.3222 294.653 20.0629 294.653 18.44C294.653 16.7517 295.241 15.4971 296.416 14.6763C297.591 13.8462 299.294 13.3798 301.523 13.2772L304.167 13.1932V12.9694C304.167 11.6635 303.524 11.0106 302.237 11.0106C301.08 11.0106 299.611 11.4024 297.829 12.1859L296.248 8.57613C298.095 7.62472 300.427 7.14902 303.244 7.14902C305.277 7.14902 306.849 7.6527 307.959 8.66007C309.078 9.66744 309.638 11.0759 309.638 12.8854V23.2809H305.846ZM301.789 19.6992C302.451 19.6992 303.015 19.4893 303.482 19.0696C303.957 18.6498 304.195 18.1042 304.195 17.4326V16.2014L302.936 16.2573C301.136 16.3226 300.236 16.9849 300.236 18.2441C300.236 19.2141 300.753 19.6992 301.789 19.6992Z" fill="#183B56"/>
<path d="M325.602 18.412C325.602 20.1096 325.024 21.3921 323.867 22.2596C322.71 23.127 321.05 23.5608 318.886 23.5608C317.711 23.5608 316.689 23.4955 315.822 23.3649C314.955 23.2436 314.068 23.0151 313.164 22.6793V18.3C314.013 18.6731 314.941 18.981 315.948 19.2235C316.965 19.466 317.869 19.5872 318.662 19.5872C319.847 19.5872 320.439 19.3167 320.439 18.7758C320.439 18.4959 320.271 18.2487 319.935 18.0342C319.609 17.8104 318.648 17.3813 317.053 16.747C315.598 16.1501 314.581 15.4738 314.003 14.7183C313.425 13.9534 313.136 12.988 313.136 11.8221C313.136 10.3484 313.705 9.20107 314.843 8.38025C315.981 7.55943 317.59 7.14902 319.67 7.14902C320.714 7.14902 321.694 7.26561 322.608 7.4988C323.531 7.72266 324.487 8.05378 325.476 8.49218L323.993 12.018C323.265 11.6915 322.496 11.4164 321.684 11.1925C320.873 10.9593 320.211 10.8427 319.698 10.8427C318.802 10.8427 318.354 11.0619 318.354 11.5003C318.354 11.7708 318.508 12.004 318.816 12.1999C319.133 12.3864 320.038 12.7735 321.53 13.3611C322.64 13.8182 323.466 14.2659 324.007 14.7043C324.557 15.1427 324.958 15.6604 325.21 16.2573C325.471 16.845 325.602 17.5632 325.602 18.412Z" fill="#183B56"/>
<path d="M336.291 23.5608C333.652 23.5608 331.6 22.8612 330.135 21.4621C328.68 20.0536 327.952 18.0529 327.952 15.4598C327.952 12.7828 328.629 10.7308 329.981 9.30367C331.334 7.86723 333.264 7.14902 335.774 7.14902C338.161 7.14902 340.004 7.77396 341.3 9.02385C342.606 10.2644 343.259 12.0553 343.259 14.3965V16.831H333.479C333.516 17.7171 333.838 18.412 334.444 18.9157C335.06 19.4193 335.895 19.6712 336.949 19.6712C337.91 19.6712 338.791 19.5826 339.593 19.4054C340.405 19.2188 341.281 18.9063 342.224 18.4679V22.3995C341.365 22.8379 340.479 23.141 339.565 23.3089C338.651 23.4768 337.56 23.5608 336.291 23.5608ZM335.969 10.8707C335.326 10.8707 334.785 11.0759 334.346 11.4863C333.917 11.8874 333.666 12.5217 333.591 13.3891H338.292C338.273 12.6243 338.054 12.0133 337.634 11.5563C337.224 11.0992 336.669 10.8707 335.969 10.8707Z" fill="#183B56"/>
<path d="M351.276 23.5608C350.147 23.5608 349.159 23.239 348.31 22.5954C347.47 21.9518 346.817 21.005 346.351 19.7551C345.894 18.5053 345.665 17.0455 345.665 15.3759C345.665 12.8015 346.183 10.7867 347.218 9.33165C348.254 7.87656 349.676 7.14902 351.486 7.14902C352.372 7.14902 353.146 7.32624 353.808 7.68068C354.48 8.03513 355.091 8.63209 355.641 9.47157H355.753C355.576 8.23101 355.487 6.99045 355.487 5.74989V1.51054H361V23.2809H356.872L355.697 21.2802H355.487C354.545 22.8006 353.141 23.5608 351.276 23.5608ZM353.514 19.2375C354.391 19.2375 355.007 18.9623 355.361 18.412C355.725 17.8617 355.921 17.0129 355.949 15.8656V15.4318C355.949 14.0327 355.748 13.0393 355.347 12.4517C354.946 11.8547 354.317 11.5563 353.459 11.5563C352.74 11.5563 352.181 11.8967 351.78 12.5776C351.388 13.2492 351.192 14.2099 351.192 15.4598C351.192 16.6911 351.392 17.6285 351.794 18.2721C352.195 18.9157 352.768 19.2375 353.514 19.2375Z" fill="#183B56"/>
<path d="M119.455 45.7229C119.455 46.9915 119.133 48.1201 118.489 49.1088C117.846 50.0882 116.918 50.853 115.705 51.4034C114.493 51.9444 113.07 52.2149 111.438 52.2149C110.076 52.2149 108.933 52.1216 108.01 51.935C107.086 51.7392 106.126 51.4034 105.128 50.9277V46.0027C106.182 46.5437 107.278 46.9681 108.416 47.2759C109.554 47.5744 110.598 47.7237 111.55 47.7237C112.37 47.7237 112.972 47.5838 113.355 47.3039C113.737 47.0148 113.928 46.6463 113.928 46.1986C113.928 45.9188 113.849 45.6763 113.69 45.4711C113.541 45.2565 113.294 45.042 112.949 44.8275C112.613 44.6129 111.708 44.1745 110.234 43.5123C108.901 42.906 107.898 42.3184 107.226 41.7494C106.564 41.1804 106.07 40.5275 105.743 39.7906C105.426 39.0537 105.268 38.1816 105.268 37.1743C105.268 35.2901 105.953 33.821 107.324 32.767C108.695 31.713 110.58 31.186 112.977 31.186C115.094 31.186 117.253 31.6757 119.455 32.6551L117.762 36.9224C115.85 36.0456 114.199 35.6072 112.809 35.6072C112.091 35.6072 111.568 35.7332 111.242 35.985C110.915 36.2368 110.752 36.5493 110.752 36.9224C110.752 37.3235 110.957 37.6826 111.368 37.9997C111.788 38.3169 112.916 38.8952 114.754 39.7347C116.517 40.5275 117.738 41.381 118.419 42.2951C119.11 43.1998 119.455 44.3424 119.455 45.7229Z" fill="#183B56"/>
<path d="M129.948 52.2149C127.308 52.2149 125.256 51.5153 123.792 50.1162C122.337 48.7077 121.609 46.707 121.609 44.1139C121.609 41.4369 122.286 39.3849 123.638 37.9578C124.991 36.5213 126.921 35.8031 129.431 35.8031C131.818 35.8031 133.661 36.4281 134.957 37.6779C136.263 38.9185 136.916 40.7094 136.916 43.0506V45.4851H127.136C127.173 46.3712 127.495 47.0661 128.101 47.5698C128.717 48.0734 129.552 48.3253 130.606 48.3253C131.566 48.3253 132.448 48.2367 133.25 48.0595C134.062 47.8729 134.938 47.5604 135.88 47.122V51.0536C135.022 51.492 134.136 51.7951 133.222 51.963C132.308 52.1309 131.217 52.2149 129.948 52.2149ZM129.626 39.5248C128.983 39.5248 128.442 39.73 128.003 40.1404C127.574 40.5415 127.322 41.1758 127.248 42.0432H131.949C131.93 41.2784 131.711 40.6674 131.291 40.2104C130.881 39.7533 130.326 39.5248 129.626 39.5248Z" fill="#183B56"/>
<path d="M149.578 35.8031C150.054 35.8031 150.506 35.8404 150.935 35.915L151.243 35.971L150.753 41.1338C150.305 41.0219 149.685 40.9659 148.892 40.9659C147.698 40.9659 146.831 41.2411 146.29 41.7914C145.749 42.3324 145.478 43.1159 145.478 44.1419V51.935H140.008V36.0829H144.079L144.933 38.6154H145.199C145.656 37.7759 146.29 37.0996 147.101 36.5866C147.922 36.0643 148.748 35.8031 149.578 35.8031Z" fill="#183B56"/>
<path d="M157.623 51.935L151.579 36.0829H157.287L159.973 45.4571C159.983 45.5037 160.001 45.583 160.029 45.6949C160.057 45.8069 160.085 45.9421 160.113 46.1007C160.141 46.2499 160.165 46.4132 160.183 46.5904C160.211 46.7583 160.225 46.9168 160.225 47.0661H160.323C160.323 46.581 160.407 46.054 160.575 45.4851L163.387 36.0829H169.082L163.038 51.935H157.623Z" fill="#183B56"/>
<path d="M176.483 51.935H171.013V36.0829H176.483V51.935ZM170.873 32.1374C170.873 31.3166 171.101 30.7056 171.558 30.3045C172.015 29.9035 172.752 29.7029 173.769 29.7029C174.785 29.7029 175.527 29.9081 175.993 30.3185C176.46 30.729 176.693 31.3352 176.693 32.1374C176.693 33.7417 175.718 34.5439 173.769 34.5439C171.838 34.5439 170.873 33.7417 170.873 32.1374Z" fill="#183B56"/>
<path d="M187.522 52.2149C184.929 52.2149 182.961 51.5153 181.618 50.1162C180.284 48.717 179.617 46.707 179.617 44.0859C179.617 41.4556 180.34 39.4175 181.786 37.9718C183.232 36.526 185.288 35.8031 187.956 35.8031C189.793 35.8031 191.524 36.2042 193.147 37.0064L191.538 41.0498C190.875 40.7607 190.264 40.5322 189.705 40.3643C189.145 40.187 188.562 40.0984 187.956 40.0984C187.07 40.0984 186.384 40.4435 185.899 41.1338C185.414 41.824 185.172 42.7987 185.172 44.058C185.172 46.595 186.109 47.8636 187.984 47.8636C189.588 47.8636 191.127 47.3972 192.601 46.4645V50.8157C191.193 51.7485 189.5 52.2149 187.522 52.2149Z" fill="#183B56"/>
<path d="M203.402 52.2149C200.763 52.2149 198.711 51.5153 197.246 50.1162C195.791 48.7077 195.063 46.707 195.063 44.1139C195.063 41.4369 195.74 39.3849 197.092 37.9578C198.445 36.5213 200.376 35.8031 202.885 35.8031C205.272 35.8031 207.115 36.4281 208.411 37.6779C209.717 38.9185 210.37 40.7094 210.37 43.0506V45.4851H200.59C200.627 46.3712 200.949 47.0661 201.555 47.5698C202.171 48.0734 203.006 48.3253 204.06 48.3253C205.021 48.3253 205.902 48.2367 206.704 48.0595C207.516 47.8729 208.392 47.5604 209.335 47.122V51.0536C208.476 51.492 207.59 51.7951 206.676 51.963C205.762 52.1309 204.671 52.2149 203.402 52.2149ZM203.08 39.5248C202.437 39.5248 201.896 39.73 201.457 40.1404C201.028 40.5415 200.777 41.1758 200.702 42.0432H205.403C205.384 41.2784 205.165 40.6674 204.745 40.2104C204.335 39.7533 203.78 39.5248 203.08 39.5248Z" fill="#183B56"/>
<path d="M240.703 51.935H233.456L225.984 37.524H225.858C226.035 39.7906 226.124 41.5209 226.124 42.7148V51.935H221.227V31.4798H228.447L235.89 45.6949H235.974C235.843 43.6336 235.778 41.9779 235.778 40.728V31.4798H240.703V51.935Z" fill="#183B56"/>
<path d="M252.456 52.2149C249.816 52.2149 247.764 51.5153 246.299 50.1162C244.844 48.7077 244.117 46.707 244.117 44.1139C244.117 41.4369 244.793 39.3849 246.146 37.9578C247.498 36.5213 249.429 35.8031 251.938 35.8031C254.326 35.8031 256.168 36.4281 257.465 37.6779C258.77 38.9185 259.423 40.7094 259.423 43.0506V45.4851H249.643C249.681 46.3712 250.003 47.0661 250.609 47.5698C251.224 48.0734 252.059 48.3253 253.113 48.3253C254.074 48.3253 254.955 48.2367 255.758 48.0595C256.569 47.8729 257.446 47.5604 258.388 47.122V51.0536C257.53 51.492 256.644 51.7951 255.73 51.963C254.815 52.1309 253.724 52.2149 252.456 52.2149ZM252.134 39.5248C251.49 39.5248 250.949 39.73 250.511 40.1404C250.082 40.5415 249.83 41.1758 249.755 42.0432H254.456C254.438 41.2784 254.219 40.6674 253.799 40.2104C253.388 39.7533 252.833 39.5248 252.134 39.5248Z" fill="#183B56"/>
<path d="M270.281 47.8916C271.017 47.8916 271.899 47.7097 272.925 47.3459V51.3334C272.188 51.6505 271.484 51.8744 270.812 52.005C270.15 52.1449 269.371 52.2149 268.476 52.2149C266.638 52.2149 265.314 51.7671 264.502 50.8717C263.691 49.9669 263.285 48.5818 263.285 46.7163V40.1824H261.368V37.9578L263.803 36.2368L265.216 32.9069H268.797V36.0829H272.687V40.1824H268.797V46.3525C268.797 47.3785 269.292 47.8916 270.281 47.8916Z" fill="#183B56"/>
<path d="M289.337 51.935L287.546 44.3798L287.126 42.0992L286.846 40.2663H286.762C286.305 42.878 285.997 44.5243 285.839 45.2052L284.23 51.935H278.479L274.156 36.0829H279.543L280.83 42.1691C281.24 44.2585 281.478 45.9934 281.543 47.3739H281.627C281.655 46.5158 281.912 44.8834 282.397 42.4769L283.866 36.0829H289.91L291.253 42.5609C291.682 44.6223 291.953 46.2266 292.065 47.3739H292.149C292.205 46.665 292.298 45.7835 292.429 44.7295C292.559 43.6662 292.704 42.8127 292.862 42.1691L294.262 36.0829H299.536L295.185 51.935H289.337Z" fill="#183B56"/>
<path d="M316.913 43.974C316.913 46.5671 316.214 48.5911 314.815 50.0462C313.425 51.492 311.475 52.2149 308.966 52.2149C306.56 52.2149 304.643 51.4733 303.216 49.9902C301.798 48.5072 301.089 46.5018 301.089 43.974C301.089 41.3903 301.784 39.3849 303.174 37.9578C304.573 36.5213 306.532 35.8031 309.05 35.8031C310.608 35.8031 311.984 36.1342 313.178 36.7965C314.372 37.4587 315.29 38.4102 315.934 39.6507C316.587 40.8819 316.913 42.323 316.913 43.974ZM306.644 43.974C306.644 45.3358 306.826 46.3758 307.189 47.0941C307.553 47.8029 308.164 48.1574 309.022 48.1574C309.871 48.1574 310.468 47.8029 310.813 47.0941C311.168 46.3758 311.345 45.3358 311.345 43.974C311.345 42.6215 311.168 41.6002 310.813 40.9099C310.459 40.2197 309.852 39.8746 308.994 39.8746C308.155 39.8746 307.553 40.2197 307.189 40.9099C306.826 41.5908 306.644 42.6122 306.644 43.974Z" fill="#183B56"/>
<path d="M329.617 35.8031C330.093 35.8031 330.546 35.8404 330.975 35.915L331.282 35.971L330.793 41.1338C330.345 41.0219 329.725 40.9659 328.932 40.9659C327.738 40.9659 326.87 41.2411 326.329 41.7914C325.788 42.3324 325.518 43.1159 325.518 44.1419V51.935H320.047V36.0829H324.119L324.972 38.6154H325.238C325.695 37.7759 326.329 37.0996 327.141 36.5866C327.962 36.0643 328.787 35.8031 329.617 35.8031Z" fill="#183B56"/>
<path d="M338.81 43.0226C339.472 41.9686 340.036 41.1478 340.503 40.5601L344.056 36.0829H350.157L344.658 42.8267L350.506 51.935H344.252L340.782 46.2546L339.006 47.6117V51.935H333.507V30.1646H339.006V38.7273C339.006 40.1917 338.903 41.6235 338.698 43.0226H338.81Z" fill="#183B56"/>
</svg>
