<?xml version="1.0" encoding="UTF-8"?>
<svg width="423px" height="415px" viewBox="0 0 423 415" version="1.1" xmlns="http://www.w3.org/2000/svg" xmlns:xlink="http://www.w3.org/1999/xlink">
    <title>neo 2 illustration</title>
    <defs>
        <polygon id="path-1" points="210.6575 176 268.384588 209.32875 268.384588 275.98625 210.6575 309.315 152.930412 275.98625 152.930412 209.32875"></polygon>
        <filter x="-39.4%" y="-16.1%" width="150.4%" height="164.5%" filterUnits="objectBoundingBox" id="filter-2">
            <feOffset dx="-20" dy="23" in="SourceAlpha" result="shadowOffsetOuter1"></feOffset>
            <feGaussianBlur stdDeviation="10" in="shadowOffsetOuter1" result="shadowBlurOuter1"></feGaussianBlur>
            <feColorMatrix values="0 0 0 0 0.316369017   0 0 0 0 0.366987588   0 0 0 0 0.353495709  0 0 0 0.257409583 0" type="matrix" in="shadowBlurOuter1" result="shadowMatrixOuter1"></feColorMatrix>
            <feOffset dx="-7" dy="11" in="SourceAlpha" result="shadowOffsetOuter2"></feOffset>
            <feGaussianBlur stdDeviation="4.5" in="shadowOffsetOuter2" result="shadowBlurOuter2"></feGaussianBlur>
            <feColorMatrix values="0 0 0 0 0   0 0 0 0 0   0 0 0 0 0  0 0 0 0.144614907 0" type="matrix" in="shadowBlurOuter2" result="shadowMatrixOuter2"></feColorMatrix>
            <feMerge>
                <feMergeNode in="shadowMatrixOuter1"></feMergeNode>
                <feMergeNode in="shadowMatrixOuter2"></feMergeNode>
            </feMerge>
        </filter>
        <polygon id="path-3" points="70.9945 85.5 105.630753 105.49725 105.630753 145.49175 70.9945 165.489 36.358247 145.49175 36.358247 105.49725"></polygon>
        <filter x="-39.6%" y="-16.3%" width="150.4%" height="165.0%" filterUnits="objectBoundingBox" id="filter-4">
            <feOffset dx="-12" dy="14" in="SourceAlpha" result="shadowOffsetOuter1"></feOffset>
            <feGaussianBlur stdDeviation="6" in="shadowOffsetOuter1" result="shadowBlurOuter1"></feGaussianBlur>
            <feColorMatrix values="0 0 0 0 0.316369017   0 0 0 0 0.366987588   0 0 0 0 0.353495709  0 0 0 0.257409583 0" type="matrix" in="shadowBlurOuter1" result="shadowMatrixOuter1"></feColorMatrix>
            <feOffset dx="-4" dy="7" in="SourceAlpha" result="shadowOffsetOuter2"></feOffset>
            <feGaussianBlur stdDeviation="2.5" in="shadowOffsetOuter2" result="shadowBlurOuter2"></feGaussianBlur>
            <feColorMatrix values="0 0 0 0 0   0 0 0 0 0   0 0 0 0 0  0 0 0 0.144614907 0" type="matrix" in="shadowBlurOuter2" result="shadowMatrixOuter2"></feColorMatrix>
            <feMerge>
                <feMergeNode in="shadowMatrixOuter1"></feMergeNode>
                <feMergeNode in="shadowMatrixOuter2"></feMergeNode>
            </feMerge>
        </filter>
        <polygon id="path-5" points="150.4945 4.5 185.130753 24.49725 185.130753 64.49175 150.4945 84.489 115.858247 64.49175 115.858247 24.49725"></polygon>
        <filter x="-39.6%" y="-16.3%" width="150.4%" height="165.0%" filterUnits="objectBoundingBox" id="filter-6">
            <feOffset dx="-12" dy="14" in="SourceAlpha" result="shadowOffsetOuter1"></feOffset>
            <feGaussianBlur stdDeviation="6" in="shadowOffsetOuter1" result="shadowBlurOuter1"></feGaussianBlur>
            <feColorMatrix values="0 0 0 0 0.316369017   0 0 0 0 0.366987588   0 0 0 0 0.353495709  0 0 0 0.257409583 0" type="matrix" in="shadowBlurOuter1" result="shadowMatrixOuter1"></feColorMatrix>
            <feOffset dx="-4" dy="7" in="SourceAlpha" result="shadowOffsetOuter2"></feOffset>
            <feGaussianBlur stdDeviation="2.5" in="shadowOffsetOuter2" result="shadowBlurOuter2"></feGaussianBlur>
            <feColorMatrix values="0 0 0 0 0   0 0 0 0 0   0 0 0 0 0  0 0 0 0.144614907 0" type="matrix" in="shadowBlurOuter2" result="shadowMatrixOuter2"></feColorMatrix>
            <feMerge>
                <feMergeNode in="shadowMatrixOuter1"></feMergeNode>
                <feMergeNode in="shadowMatrixOuter2"></feMergeNode>
            </feMerge>
        </filter>
        <polygon id="path-7" points="271.9945 4.5 306.630753 24.49725 306.630753 64.49175 271.9945 84.489 237.358247 64.49175 237.358247 24.49725"></polygon>
        <filter x="-39.6%" y="-16.3%" width="150.4%" height="165.0%" filterUnits="objectBoundingBox" id="filter-8">
            <feOffset dx="-12" dy="14" in="SourceAlpha" result="shadowOffsetOuter1"></feOffset>
            <feGaussianBlur stdDeviation="6" in="shadowOffsetOuter1" result="shadowBlurOuter1"></feGaussianBlur>
            <feColorMatrix values="0 0 0 0 0.316369017   0 0 0 0 0.366987588   0 0 0 0 0.353495709  0 0 0 0.257409583 0" type="matrix" in="shadowBlurOuter1" result="shadowMatrixOuter1"></feColorMatrix>
            <feOffset dx="-4" dy="7" in="SourceAlpha" result="shadowOffsetOuter2"></feOffset>
            <feGaussianBlur stdDeviation="2.5" in="shadowOffsetOuter2" result="shadowBlurOuter2"></feGaussianBlur>
            <feColorMatrix values="0 0 0 0 0   0 0 0 0 0   0 0 0 0 0  0 0 0 0.144614907 0" type="matrix" in="shadowBlurOuter2" result="shadowMatrixOuter2"></feColorMatrix>
            <feMerge>
                <feMergeNode in="shadowMatrixOuter1"></feMergeNode>
                <feMergeNode in="shadowMatrixOuter2"></feMergeNode>
            </feMerge>
        </filter>
        <polygon id="path-9" points="348.9945 85.5 383.630753 105.49725 383.630753 145.49175 348.9945 165.489 314.358247 145.49175 314.358247 105.49725"></polygon>
        <filter x="-39.6%" y="-16.3%" width="150.4%" height="165.0%" filterUnits="objectBoundingBox" id="filter-10">
            <feOffset dx="-12" dy="14" in="SourceAlpha" result="shadowOffsetOuter1"></feOffset>
            <feGaussianBlur stdDeviation="6" in="shadowOffsetOuter1" result="shadowBlurOuter1"></feGaussianBlur>
            <feColorMatrix values="0 0 0 0 0.316369017   0 0 0 0 0.366987588   0 0 0 0 0.353495709  0 0 0 0.257409583 0" type="matrix" in="shadowBlurOuter1" result="shadowMatrixOuter1"></feColorMatrix>
            <feOffset dx="-4" dy="7" in="SourceAlpha" result="shadowOffsetOuter2"></feOffset>
            <feGaussianBlur stdDeviation="2.5" in="shadowOffsetOuter2" result="shadowBlurOuter2"></feGaussianBlur>
            <feColorMatrix values="0 0 0 0 0   0 0 0 0 0   0 0 0 0 0  0 0 0 0.144614907 0" type="matrix" in="shadowBlurOuter2" result="shadowMatrixOuter2"></feColorMatrix>
            <feMerge>
                <feMergeNode in="shadowMatrixOuter1"></feMergeNode>
                <feMergeNode in="shadowMatrixOuter2"></feMergeNode>
            </feMerge>
        </filter>
    </defs>
    <g id="Page-1" stroke="none" stroke-width="1" fill="none" fill-rule="evenodd">
        <g id="Discover-S-3" transform="translate(-819.000000, -201.000000)">
            <g id="neo-2-illustration" transform="translate(819.000000, 201.000000)">
                <text id="arrow_downward---material-copy-2" transform="translate(122.158663, 184.420003) rotate(129.000000) translate(-122.158663, -184.420003) " font-family="material" font-size="51" font-weight="normal" fill="#00E599">
                    <tspan x="96.6586635" y="201.920003"></tspan>
                </text>
                <text id="arrow_downward---material-copy-2" transform="translate(294.158663, 184.420003) scale(-1, 1) rotate(129.000000) translate(-294.158663, -184.420003) " font-family="material" font-size="51" font-weight="normal" fill="#00E599">
                    <tspan x="268.658663" y="201.920003"></tspan>
                </text>
                <text id="arrow_downward---material-copy-3" transform="translate(247.658663, 127.420003) scale(-1, 1) rotate(158.000000) translate(-247.658663, -127.420003) " font-family="material" font-size="51" font-weight="normal" fill="#00E599">
                    <tspan x="222.158663" y="144.920003"></tspan>
                </text>
                <text id="arrow_downward---material-copy-3" transform="translate(173.158663, 127.420003) rotate(158.000000) translate(-173.158663, -127.420003) " font-family="material" font-size="51" font-weight="normal" fill="#00E599">
                    <tspan x="147.658663" y="144.920003"></tspan>
                </text>
                <circle id="Oval" fill="#00E599" cx="21.5" cy="21.5" r="21.5"></circle>
                <text id="2" font-family="NunitoSans-ExtraBold, Nunito Sans" font-size="24" font-weight="600" letter-spacing="-0.195121951" fill="#000033">
                    <tspan x="14" y="30">2</tspan>
                </text>
                <g id="Polygon-Copy-10">
                    <use fill="black" fill-opacity="1" filter="url(#filter-2)" xlink:href="#path-1"></use>
                    <use fill="#F0F5F6" fill-rule="evenodd" xlink:href="#path-1"></use>
                </g>
                <polygon id="Path" fill="#00E599" fill-rule="nonzero" points="182.22 221.488625 182.22 263.201129 209.582903 272.915 209.582903 230.838875 239.095 220.086087 212.30871 210.58"></polygon>
                <polygon id="Path" fill="#00AF92" fill-rule="nonzero" points="211.34 232.814483 211.34 255.136379 238.185 264.725 238.185 222.865"></polygon>
                <g id="Polygon-Copy-14">
                    <use fill="black" fill-opacity="1" filter="url(#filter-4)" xlink:href="#path-3"></use>
                    <use fill="#F0F5F6" fill-rule="evenodd" xlink:href="#path-3"></use>
                </g>
                <path d="M71.4348854,145.287 L53.113,138.708496 L53.113,112.98758 L71.4829015,106.248 L87.9663029,112.150199 L88.057,139.268528 L71.4348854,133.114581 L71.4348854,145.287 Z M54.7520652,137.454165 L69.6438805,142.83 L69.6438805,118.178261 L84.508,112.609667 L71.3983025,107.886 L54.751,114.027517 L54.7520652,137.454165 Z M71.404,131.285552 L86.419,136.824 L86.3427108,113.892 L71.4072235,119.437941 L71.404,131.285552 Z" id="Shape" fill="#00E599" fill-rule="nonzero"></path>
                <g id="Polygon-Copy-14">
                    <use fill="black" fill-opacity="1" filter="url(#filter-6)" xlink:href="#path-5"></use>
                    <use fill="#F0F5F6" fill-rule="evenodd" xlink:href="#path-5"></use>
                </g>
                <path d="M150.934885,64.287 L132.613,57.7084959 L132.613,31.9875798 L150.982901,25.248 L167.466303,31.1501993 L167.557,58.2685275 L150.934885,52.1145807 L150.934885,64.287 Z M134.252065,56.4541648 L149.143881,61.83 L149.143881,37.1782615 L164.008,31.6096672 L150.898303,26.886 L134.251,33.027517 L134.252065,56.4541648 Z M150.904,50.2855522 L165.919,55.824 L165.842711,32.892 L150.907223,38.4379409 L150.904,50.2855522 Z" id="Shape" fill="#00E599" fill-rule="nonzero"></path>
                <g id="Polygon-Copy-14">
                    <use fill="black" fill-opacity="1" filter="url(#filter-8)" xlink:href="#path-7"></use>
                    <use fill="#F0F5F6" fill-rule="evenodd" xlink:href="#path-7"></use>
                </g>
                <path d="M268.934885,64.287 L250.613,57.7084959 L250.613,31.9875798 L268.982901,25.248 L285.466303,31.1501993 L285.557,58.2685275 L268.934885,52.1145807 L268.934885,64.287 Z M252.252065,56.4541648 L267.143881,61.83 L267.143881,37.1782615 L282.008,31.6096672 L268.898303,26.886 L252.251,33.027517 L252.252065,56.4541648 Z M268.904,50.2855522 L283.919,55.824 L283.842711,32.892 L268.907223,38.4379409 L268.904,50.2855522 Z" id="Shape" fill="#00E599" fill-rule="nonzero"></path>
                <g id="Polygon-Copy-14">
                    <use fill="black" fill-opacity="1" filter="url(#filter-10)" xlink:href="#path-9"></use>
                    <use fill="#F0F5F6" fill-rule="evenodd" xlink:href="#path-9"></use>
                </g>
                <path d="M349.434885,145.287 L331.113,138.708496 L331.113,112.98758 L349.482901,106.248 L365.966303,112.150199 L366.057,139.268528 L349.434885,133.114581 L349.434885,145.287 Z M332.752065,137.454165 L347.643881,142.83 L347.643881,118.178261 L362.508,112.609667 L349.398303,107.886 L332.751,114.027517 L332.752065,137.454165 Z M349.404,131.285552 L364.419,136.824 L364.342711,113.892 L349.407223,119.437941 L349.404,131.285552 Z" id="Shape" fill="#00E599" fill-rule="nonzero"></path>
                <path d="M72.688,365.376 L72.688,357.632 C73.424,356.656 74.032,355.584 74.56,354.48 L83.12,354.48 L83.12,352.656 L75.328,352.656 C75.552,352.08 75.76,351.504 75.936,350.912 L73.936,350.432 C73.744,351.168 73.504,351.904 73.232,352.656 L68.912,352.656 L68.912,354.48 L72.384,354.48 C71.424,356.32 70.08,358 68.4,359.088 C68.704,359.552 69.136,360.416 69.344,360.928 C69.856,360.576 70.304,360.224 70.752,359.808 L70.752,365.376 L72.688,365.376 Z M83.072,364.992 L83.072,363.232 L79.28,363.232 L79.28,359.584 L82.448,359.584 L82.448,357.824 L79.28,357.824 L79.28,355.168 L77.36,355.168 L77.36,357.824 L74.112,357.824 L74.112,359.584 L77.36,359.584 L77.36,363.232 L73.488,363.232 L73.488,364.992 L83.072,364.992 Z M87.696,364 L87.696,359.248 C87.696,357.888 87.52,356.4 87.408,355.12 L87.488,355.12 L88.688,357.664 L92.112,364 L94.512,364 L94.512,352.16 L92.272,352.16 L92.272,356.88 C92.272,358.224 92.448,359.792 92.576,361.024 L92.496,361.024 L91.312,358.464 L87.872,352.16 L85.456,352.16 L85.456,364 L87.696,364 Z M101.136,364.224 C102.256,364.224 103.392,363.84 104.272,363.232 L103.472,361.792 C102.832,362.192 102.192,362.416 101.456,362.416 C100.128,362.416 99.168,361.648 98.976,360.176 L104.496,360.176 C104.56,359.968 104.608,359.536 104.608,359.104 C104.608,356.624 103.328,354.816 100.864,354.816 C98.72,354.816 96.688,356.624 96.688,359.536 C96.688,362.48 98.64,364.224 101.136,364.224 Z M102.592,358.624 L98.944,358.624 C99.12,357.312 99.952,356.64 100.896,356.64 C102.048,356.64 102.592,357.408 102.592,358.624 Z M110.288,364.224 C112.528,364.224 114.592,362.496 114.592,359.536 C114.592,356.544 112.528,354.816 110.288,354.816 C108.048,354.816 105.984,356.544 105.984,359.536 C105.984,362.496 108.048,364.224 110.288,364.224 Z M110.288,362.304 C109.072,362.304 108.384,361.216 108.384,359.536 C108.384,357.84 109.072,356.736 110.288,356.736 C111.504,356.736 112.192,357.84 112.192,359.536 C112.192,361.216 111.504,362.304 110.288,362.304 Z M130.576,364.944 L130.576,363.12 L118.512,363.12 L118.512,352.976 L130.16,352.976 L130.16,351.152 L116.656,351.152 L116.656,364.944 L130.576,364.944 Z M120.32,362.416 C121.712,361.568 123.104,360.496 124.416,359.248 C125.696,360.416 126.848,361.52 127.584,362.384 L129.072,360.976 C128.272,360.096 127.072,359.008 125.744,357.904 C126.816,356.752 127.776,355.504 128.576,354.192 L126.768,353.472 C126.096,354.608 125.28,355.696 124.32,356.72 C123.12,355.728 121.888,354.784 120.848,353.968 L119.52,355.136 C120.608,355.984 121.824,356.992 123.008,358.016 C121.728,359.168 120.32,360.192 118.864,360.944 C119.296,361.296 120,362.032 120.32,362.416 Z M145.44,365.424 C145.744,364.912 146.336,364.112 146.768,363.728 C144.88,362.928 143.632,361.36 142.88,359.408 L146.464,359.408 L146.464,357.616 L145.456,357.616 L145.456,352.976 L141.904,352.976 L141.904,350.608 L140.064,350.608 L140.064,352.976 L137.728,352.976 L137.728,354.752 L140.064,354.752 L140.064,356.256 C140.064,356.72 140.048,357.152 140.016,357.616 L137.328,357.616 L137.328,359.408 L139.728,359.408 C139.28,361.2 138.16,362.816 135.616,363.984 C136.032,364.304 136.656,364.992 136.912,365.424 C139.6,364.144 140.88,362.32 141.44,360.32 C142.256,362.624 143.488,364.4 145.44,365.424 Z M132.512,362.88 C133.952,362.208 135.728,361.36 137.392,360.544 L136.944,358.864 L135.52,359.472 L135.52,355.936 L137.072,355.936 L137.072,354.128 L135.52,354.128 L135.52,350.656 L133.744,350.656 L133.744,354.128 L132.032,354.128 L132.032,355.936 L133.744,355.936 L133.744,360.208 C132.992,360.496 132.304,360.768 131.744,360.96 L132.512,362.88 Z M143.68,357.616 L141.872,357.616 C141.888,357.168 141.904,356.72 141.904,356.272 L141.904,354.752 L143.68,354.752 L143.68,357.616 Z M160.496,362.896 L160.496,360.752 L162.688,360.752 L162.688,359.088 L160.496,359.088 L160.496,357.584 L162.256,357.584 L162.256,356.032 L160.496,356.032 L160.496,354.352 L158.72,354.352 L158.72,356.032 L157.776,356.032 C158.064,355.36 158.384,354.592 158.672,353.808 L162.528,353.808 L162.528,352.144 L159.216,352.144 C159.36,351.664 159.472,351.2 159.584,350.72 L157.696,350.384 C157.616,350.976 157.504,351.568 157.376,352.144 L155.68,352.144 L155.68,353.808 L156.96,353.808 C156.917333,353.946667 156.875457,354.079012 156.835073,354.203457 L156.7191,354.551506 C156.627358,354.81916 156.549333,355.027556 156.496,355.152 C156.256,355.712 156.048,356.112 155.76,356.192 C155.952,356.656 156.224,357.488 156.32,357.84 C156.464,357.68 157.04,357.584 157.6,357.584 L158.72,357.584 L158.72,359.088 L155.76,359.088 L155.76,360.752 L158.72,360.752 L158.72,362.896 L160.496,362.896 Z M149.68,365.296 C149.936,364.96 150.384,364.56 152.912,362.688 C152.72,362.368 152.48,361.696 152.368,361.232 L151.2,362.096 L151.2,359.856 L152.72,359.856 L152.72,358.24 L151.2,358.24 L151.2,356.576 L152.272,356.576 L152.272,354.976 L149.152,354.976 C149.424,354.56 149.664,354.128 149.904,353.648 L152.656,353.648 L152.656,352.016 L150.544,352.016 C150.672,351.648 150.784,351.296 150.88,350.944 L149.312,350.496 C148.96,351.872 148.4,353.232 147.664,354.144 C147.936,354.544 148.384,355.472 148.512,355.856 C148.608,355.76 148.72,355.632 148.8,355.488 L148.8,356.576 L149.536,356.576 L149.536,358.24 L148.112,358.24 L148.112,359.856 L149.536,359.856 L149.536,362.368 C149.536,363.216 149.072,363.808 148.736,364.08 C149.024,364.32 149.488,364.96 149.648,365.296 C149.648,365.264 149.648,365.232 149.664,365.2 L149.68,365.296 Z M153.648,354.544 L155.296,354.016 C155.104,353.136 154.672,351.84 154.288,350.832 L152.72,351.296 C153.088,352.304 153.488,353.664 153.648,354.544 Z M153.248,365.392 C153.712,364.592 154.336,363.648 154.72,363.648 C155.024,363.648 155.504,364.048 156.064,364.384 C156.928,364.912 157.888,365.152 159.264,365.152 C160.256,365.152 161.696,365.104 162.496,365.04 C162.512,364.56 162.752,363.632 162.912,363.136 C161.872,363.28 160.24,363.376 159.28,363.376 C158.048,363.376 157.056,363.232 156.256,362.752 C155.872,362.528 155.584,362.304 155.312,362.16 L155.312,355.632 L152.672,355.632 L152.672,357.344 L153.6,357.344 L153.6,362.368 C153.088,362.656 152.56,363.104 152.08,363.616 L153.248,365.392 Z M166.736,354.512 L168.192,353.312 C167.664,352.592 166.512,351.504 165.648,350.752 L164.304,351.808 C165.152,352.608 166.256,353.776 166.736,354.512 Z M170.24,362.896 C171.44,361.92 172.048,360.496 172.352,359.056 L174.448,359.056 L174.448,362.656 L176.352,362.656 L176.352,359.056 L178.496,359.056 L178.496,357.232 L176.352,357.232 L176.352,355.024 L178.176,355.024 L178.176,353.184 L176.352,353.184 L176.352,350.896 L174.448,350.896 L174.448,353.184 L172.64,353.184 L172.64,350.864 L170.752,350.864 L170.752,353.184 L168.752,353.184 L168.752,355.024 L170.752,355.024 L170.752,356.032 C170.752,356.432 170.752,356.816 170.72,357.232 L168.608,357.232 L168.608,359.056 L170.416,359.056 C170.144,359.984 169.68,360.848 168.832,361.552 C169.232,361.808 169.984,362.512 170.24,362.896 Z M174.448,357.232 L172.608,357.232 C172.624,356.816 172.64,356.448 172.64,356.064 L172.64,355.024 L174.448,355.024 L174.448,357.232 Z M164.976,365.376 C165.552,364.416 166.256,363.376 166.736,363.376 C167.088,363.376 167.632,363.872 168.368,364.256 C169.536,364.912 170.88,365.088 172.912,365.088 C174.544,365.088 177.168,364.992 178.32,364.928 C178.336,364.384 178.656,363.456 178.848,362.944 C177.248,363.184 174.672,363.312 172.976,363.312 C171.2,363.312 169.728,363.216 168.64,362.608 C168.288,362.416 168,362.224 167.744,362.064 L167.744,356.224 L164.016,356.224 L164.016,358 L165.872,358 L165.872,361.888 C165.184,362.192 164.432,362.784 163.696,363.568 L164.976,365.376 Z M180.848,355.408 C182.368,354.352 184.08,352.704 185.232,351.184 L183.392,350.448 C182.64,351.568 181.104,353.008 179.776,353.856 C180.096,354.24 180.592,354.992 180.848,355.408 Z M194.224,353.168 L194.224,351.36 L186.448,351.36 L186.448,353.168 L194.224,353.168 Z M184.112,365.424 L184.112,357.008 C184.752,356.224 185.328,355.408 185.808,354.592 L184,353.904 C182.944,355.728 181.184,357.584 179.536,358.72 C179.936,359.104 180.576,359.952 180.848,360.336 C181.296,359.984 181.744,359.568 182.208,359.12 L182.208,365.424 L184.112,365.424 Z M188.416,365.328 C189.792,365.328 190.816,365.296 191.504,365.008 C192.224,364.736 192.432,364.224 192.432,363.2 L192.432,357.568 L194.624,357.568 L194.624,355.76 L185.776,355.76 L185.776,357.568 L190.48,357.568 L190.48,363.168 C190.48,363.408 190.384,363.472 190.096,363.472 L189.669364,363.471254 C189.336466,363.469948 188.878997,363.466356 188.414956,363.456478 L188.01835,363.446379 C187.952898,363.444408 187.888,363.442286 187.824,363.44 C188.08,363.968 188.336,364.768 188.416,365.328 Z M210.304,354.32 L210.304,352.464 L204.64,352.464 L204.688,352.448 C204.48,351.84 203.952,350.928 203.52,350.24 L201.696,350.88 C201.984,351.36 202.288,351.936 202.512,352.464 L196.272,352.464 L196.272,354.32 L210.304,354.32 Z M208.8,358.976 L210.432,357.744 C209.552,356.72 207.696,355.312 206.32,354.368 L204.816,355.44 C206.24,356.48 208.016,357.984 208.8,358.976 Z M197.664,358.896 C199.088,358.032 200.816,356.576 201.904,355.168 L200.064,354.464 C199.136,355.616 197.584,356.784 196.16,357.504 C196.592,357.824 197.312,358.512 197.664,358.896 Z M197.184,365.376 C199.536,364.8 201.6,363.984 203.296,362.784 C204.912,364 206.912,364.816 209.44,365.296 C209.68,364.784 210.176,364 210.592,363.584 C208.24,363.232 206.32,362.544 204.784,361.536 C205.824,360.512 206.672,359.264 207.312,357.776 L205.392,357.216 C204.928,358.464 204.224,359.504 203.312,360.368 C202.432,359.504 201.744,358.464 201.264,357.296 L199.552,357.824 C200.16,359.248 200.944,360.48 201.888,361.504 C200.32,362.544 198.352,363.232 196.032,363.68 C196.4,364.096 196.96,364.944 197.184,365.376 Z M218.832,365.504 C220.304,364.288 221.664,362.384 222.496,360.24 L223.872,360.24 C223.648,362.4 223.328,363.376 223.024,363.664 C222.864,363.84 222.72,363.856 222.432,363.856 L222.193383,363.855298 C221.864296,363.85284 221.370667,363.841778 220.848,363.792 C221.136,364.24 221.328,364.928 221.344,365.408 C222.144,365.424 222.896,365.424 223.344,365.376 C223.84,365.328 224.256,365.184 224.64,364.768 C225.168,364.24 225.536,362.784 225.872,359.328 C225.904,359.088 225.936,358.576 225.936,358.576 L217.088,358.576 C217.328,358.256 217.552,357.936 217.76,357.6 L224.656,357.6 L224.656,351.12 L214.128,351.12 L214.128,357.6 L215.536,357.6 C214.56,358.912 213.152,360.064 211.696,360.832 C212.096,361.12 212.816,361.824 213.136,362.176 C213.968,361.664 214.832,360.992 215.616,360.24 L217.008,360.24 C216,361.664 214.544,362.896 212.976,363.68 C213.376,363.984 214.08,364.656 214.384,365.04 C216.176,363.936 217.968,362.224 219.152,360.24 L220.528,360.24 C219.808,361.92 218.672,363.376 217.328,364.336 C217.76,364.592 218.512,365.184 218.832,365.504 Z M222.72,353.648 L216,353.648 L216,352.656 L222.72,352.656 L222.72,353.648 Z M222.72,356.08 L216,356.08 L216,355.072 L222.72,355.072 L222.72,356.08 Z M229.264,365.44 C231.088,363.088 231.488,359.312 231.536,356.656 L242.736,356.656 L242.736,354.832 L231.536,354.832 L231.536,353.392 C235.04,353.184 238.848,352.768 241.744,352.064 L240.192,350.512 C237.632,351.152 233.36,351.6 229.552,351.792 L229.552,356.176 C229.552,358.56 229.408,361.888 227.68,364.128 C228.112,364.368 228.928,365.056 229.264,365.44 Z M234.304,365.392 L234.304,364.672 L239.648,364.672 L239.648,365.344 L241.664,365.344 L241.664,358.416 L232.368,358.416 L232.368,365.392 L234.304,365.392 Z M239.648,362.896 L234.304,362.896 L234.304,360.176 L239.648,360.176 L239.648,362.896 Z M249.536,354.32 L249.536,353.264 L253.12,353.264 L253.12,354.176 L255.024,354.176 L255.024,353.264 L258.4,353.264 L258.4,351.552 L255.024,351.552 L255.024,350.448 L253.12,350.448 L253.12,351.552 L249.536,351.552 L249.536,350.448 L247.648,350.448 L247.648,351.552 L244.224,351.552 L244.224,353.264 L247.648,353.264 L247.648,354.32 L249.536,354.32 Z M247.44,365.168 C247.824,365.088 248.144,364.912 248.384,364.64 C249.104,363.856 249.328,362.4 249.328,360.64 C249.328,359.216 249.168,357.808 248.352,356.496 C248.832,356.096 249.296,355.68 249.68,355.232 L248.144,354.368 C247.888,354.656 247.6,354.944 247.28,355.232 C246.864,354.848 246.4,354.496 245.824,354.16 L244.592,355.136 C245.152,355.472 245.6,355.84 245.984,356.208 C245.28,356.656 244.544,357.072 243.792,357.376 C244.16,357.696 244.672,358.256 244.928,358.64 C245.6,358.32 246.288,357.952 246.944,357.52 C247.088,357.808 247.216,358.096 247.296,358.4 C246.56,359.456 245.056,360.592 243.792,361.104 C244.176,361.456 244.64,362.048 244.896,362.48 C245.76,361.968 246.768,361.184 247.584,360.368 L247.584,360.528 C247.584,361.984 247.44,362.976 247.104,363.392 C246.976,363.552 246.864,363.632 246.624,363.648 C246.304,363.696 245.712,363.696 244.928,363.648 C245.248,364.112 245.424,364.736 245.44,365.28 C246.208,365.312 246.832,365.296 247.44,365.168 Z M250.384,365.424 C252.288,364.192 253.344,362.672 253.92,361.136 C254.688,363.008 255.808,364.464 257.472,365.328 C257.728,364.832 258.272,364.128 258.672,363.776 C256.656,362.912 255.424,361.056 254.768,358.768 L258.352,358.768 L258.352,357.008 L256.752,357.008 L257.904,356.192 C257.552,355.616 256.752,354.832 256.048,354.304 L254.768,355.2 C255.376,355.728 256.064,356.448 256.432,357.008 L254.608,357.008 L254.608,354.48 L252.832,354.48 L252.832,357.008 L249.536,357.008 L249.536,358.768 L252.688,358.768 C252.384,360.56 251.488,362.56 248.976,364.192 C249.44,364.496 250.064,365.024 250.384,365.424 Z M260.64,355.216 C262.144,354.24 263.776,352.672 264.832,351.2 L263.024,350.464 C262.352,351.536 260.944,352.832 259.696,353.6 C259.984,354 260.448,354.784 260.64,355.216 Z M273.696,356.448 L273.696,350.912 L265.776,350.912 L265.776,356.448 L273.696,356.448 Z M271.776,353.04 L267.616,353.04 L267.616,352.24 L271.776,352.24 L271.776,353.04 Z M263.712,365.376 L263.712,356.688 C264.24,356.016 264.72,355.344 265.104,354.672 L263.44,353.952 C262.512,355.52 260.944,357.072 259.52,358.064 C259.808,358.528 260.288,359.616 260.432,360.032 C260.912,359.664 261.392,359.216 261.872,358.736 L261.872,365.376 L263.712,365.376 Z M271.776,355.12 L267.616,355.12 L267.616,354.288 L271.776,354.288 L271.776,355.12 Z M269.104,365.376 C270.192,365.376 270.992,365.376 271.584,365.104 C272.208,364.832 272.368,364.384 272.368,363.504 L272.368,361.232 L274.56,361.232 L274.544,359.616 L272.368,359.616 L272.368,358.704 L274.224,358.704 L274.224,357.152 L264.96,357.152 L264.96,358.704 L270.432,358.704 L270.432,359.616 L264.576,359.616 L264.576,361.232 L266.816,361.232 L265.632,362.016 C266.304,362.688 267.12,363.632 267.472,364.24 L268.896,363.232 C268.496,362.672 267.712,361.84 267.072,361.232 L270.432,361.232 L270.432,363.456 C270.432,363.632 270.368,363.696 270.144,363.712 L269.89575,363.7115 C269.565,363.71 269.016,363.704 268.512,363.68 C268.752,364.16 269.024,364.864 269.104,365.376 Z M281.84,364.224 C283.488,364.224 284.88,363.584 285.68,362.8 L285.68,357.456 L281.472,357.456 L281.472,359.392 L283.568,359.392 L283.568,361.728 C283.232,362.016 282.656,362.176 282.08,362.176 C279.76,362.176 278.576,360.624 278.576,358.048 C278.576,355.504 279.952,353.968 281.92,353.968 C282.992,353.968 283.664,354.4 284.24,354.96 L285.504,353.456 C284.736,352.672 283.552,351.936 281.84,351.936 C278.688,351.936 276.16,354.224 276.16,358.128 C276.16,362.08 278.608,364.224 281.84,364.224 Z M289.104,364 L289.936,360.96 L293.776,360.96 L294.608,364 L297.088,364 L293.28,352.16 L290.496,352.16 L286.704,364 L289.104,364 Z M293.264,359.12 L290.448,359.12 L290.8,357.824 C291.152,356.592 291.504,355.248 291.808,353.952 L291.872,353.952 C292.224,355.232 292.544,356.592 292.912,357.824 L293.264,359.12 Z M302.016,364.224 C304.752,364.224 306.368,362.576 306.368,360.64 C306.368,358.928 305.424,358.016 303.984,357.424 L302.432,356.768 C301.424,356.368 300.576,356.064 300.576,355.216 C300.576,354.432 301.248,353.968 302.288,353.968 C303.264,353.968 304.048,354.32 304.8,354.944 L306,353.456 C305.04,352.48 303.664,351.936 302.288,351.936 C299.888,351.936 298.192,353.424 298.192,355.36 C298.192,357.088 299.392,358.048 300.592,358.544 L302.176,359.216 C303.232,359.664 303.952,359.936 303.952,360.816 C303.952,361.648 303.296,362.176 302.064,362.176 C301.024,362.176 299.904,361.648 299.056,360.864 L297.696,362.496 C298.848,363.6 300.432,364.224 302.016,364.224 Z M319.488,365.2 C320.128,365.088 320.576,364.912 321.024,364.32 C321.68,363.472 321.856,360.928 322.064,353.776 C322.0752,353.6192 322.07856,353.25856 322.079568,353.056288 L322.08,352.930144 C322.08,352.9184 322.08,352.912 322.08,352.912 L317.568,352.912 C317.808,352.24 318.032,351.568 318.192,350.88 L316.384,350.464 C315.92,352.336 315.152,354.272 314.224,355.616 L314.224,353.024 L311.744,353.024 C312.016,352.336 312.304,351.536 312.576,350.736 L310.496,350.448 C310.432,351.2 310.24,352.224 310.032,353.024 L308.224,353.024 L308.224,364.912 L309.952,364.912 L309.952,363.744 L314.224,363.744 L314.224,356.272 C314.656,356.56 315.2,356.928 315.456,357.168 C315.952,356.48 316.448,355.6 316.864,354.64 L320.288,354.64 C320.112,360.288 319.904,362.688 319.44,363.2 C319.232,363.408 319.056,363.472 318.736,363.472 L318.50814,363.47165 C318.027645,363.469728 317.218462,363.457231 316.352,363.376 C316.688,363.904 316.944,364.704 316.976,365.232 C317.92,365.264 318.88,365.28 319.488,365.2 Z M312.496,357.28 L309.952,357.28 L309.952,354.688 L312.496,354.688 L312.496,357.28 Z M317.808,361.2 L319.424,360.208 C318.928,359.28 317.872,357.76 317.072,356.656 L315.584,357.504 C316.368,358.672 317.36,360.24 317.808,361.2 Z M312.496,362.064 L309.952,362.064 L309.952,358.928 L312.496,358.928 L312.496,362.064 Z M327.952,365.392 L327.952,358.24 C328.56,358.992 329.184,359.84 329.536,360.4 L330.608,358.656 C330.256,358.272 328.576,356.656 327.952,356.144 L327.952,355.36 L329.792,355.36 L329.792,353.6 L327.952,353.6 L327.952,350.448 L326.08,350.448 L326.08,353.6 L323.696,353.6 L323.696,355.36 L325.728,355.36 C325.232,357.328 324.256,359.568 323.184,360.832 C323.552,361.344 324.048,362.256 324.256,362.8 C324.944,361.872 325.568,360.496 326.08,358.992 L326.08,365.392 L327.952,365.392 Z M337.152,365.472 C337.424,364.912 338.016,364.224 338.512,363.856 C337.072,363.04 335.952,362.144 335.056,361.056 C336.592,358.832 337.6,355.888 338.08,352.096 L336.864,351.712 L336.56,351.792 L329.968,351.792 L329.968,353.632 L330.784,353.632 L330.304,353.728 C330.832,356.784 331.536,359.12 332.672,361.024 C331.616,362.24 330.336,363.168 328.912,363.776 C329.328,364.128 329.84,364.864 330.112,365.36 C331.52,364.656 332.752,363.76 333.808,362.608 C334.704,363.664 335.792,364.592 337.152,365.472 Z M333.888,359.36 C333.072,357.824 332.512,355.968 332.08,353.632 L336.016,353.632 C335.584,355.856 334.88,357.776 333.888,359.36 Z M344.72,365.36 L344.72,359.6 C345.344,360.288 346.016,361.056 346.416,361.552 L347.504,359.936 C347.283765,359.732706 346.740651,359.242408 346.159551,358.731008 L345.76965,358.389865 C345.380374,358.051433 345.002353,357.729882 344.72,357.504 L344.72,356.944 L347.6,356.944 L347.6,355.184 L344.72,355.184 L344.72,352.8 C345.68,352.56 346.592,352.288 347.376,351.968 L346.032,350.512 C344.48,351.216 341.92,351.808 339.6,352.16 C339.824,352.56 340.08,353.216 340.16,353.648 C341.008,353.536 341.904,353.392 342.8,353.216 L342.8,355.184 L339.776,355.184 L339.776,356.944 L342.464,356.944 C341.744,358.608 340.56,360.416 339.424,361.52 C339.728,362.016 340.208,362.816 340.4,363.392 C341.264,362.48 342.096,361.152 342.8,359.712 L342.8,365.36 L344.72,365.36 Z M349.744,365.36 C351.216,365.36 352.272,365.296 352.928,364.976 C353.584,364.656 353.808,364.16 353.808,363.024 L353.808,350.72 L351.92,350.72 L351.92,363.008 C351.92,363.328 351.792,363.408 351.488,363.424 L351.092053,363.42309 C350.613333,363.420587 349.850667,363.4112 349.088,363.376 C349.376,363.92 349.664,364.8 349.744,365.36 Z M350.416,361.328 L350.416,352.384 L348.512,352.384 L348.512,361.328 L350.416,361.328 Z" id="在Neo区块链进行交易后获得GAS的权利" fill="#000033" fill-rule="nonzero"></path>
            </g>
        </g>
    </g>
</svg>