<?xml version="1.0" encoding="UTF-8"?>
<svg width="423px" height="415px" viewBox="0 0 423 415" version="1.1" xmlns="http://www.w3.org/2000/svg" xmlns:xlink="http://www.w3.org/1999/xlink">
    <title>neo 2 illustration</title>
    <defs>
        <polygon id="path-1" points="210.6575 176 268.384588 209.32875 268.384588 275.98625 210.6575 309.315 152.930412 275.98625 152.930412 209.32875"></polygon>
        <filter x="-39.4%" y="-16.1%" width="150.4%" height="164.5%" filterUnits="objectBoundingBox" id="filter-2">
            <feOffset dx="-20" dy="23" in="SourceAlpha" result="shadowOffsetOuter1"></feOffset>
            <feGaussianBlur stdDeviation="10" in="shadowOffsetOuter1" result="shadowBlurOuter1"></feGaussianBlur>
            <feColorMatrix values="0 0 0 0 0.316369017   0 0 0 0 0.366987588   0 0 0 0 0.353495709  0 0 0 0.257409583 0" type="matrix" in="shadowBlurOuter1" result="shadowMatrixOuter1"></feColorMatrix>
            <feOffset dx="-7" dy="11" in="SourceAlpha" result="shadowOffsetOuter2"></feOffset>
            <feGaussianBlur stdDeviation="4.5" in="shadowOffsetOuter2" result="shadowBlurOuter2"></feGaussianBlur>
            <feColorMatrix values="0 0 0 0 0   0 0 0 0 0   0 0 0 0 0  0 0 0 0.144614907 0" type="matrix" in="shadowBlurOuter2" result="shadowMatrixOuter2"></feColorMatrix>
            <feMerge>
                <feMergeNode in="shadowMatrixOuter1"></feMergeNode>
                <feMergeNode in="shadowMatrixOuter2"></feMergeNode>
            </feMerge>
        </filter>
        <polygon id="path-3" points="70.9945 85.5 105.630753 105.49725 105.630753 145.49175 70.9945 165.489 36.358247 145.49175 36.358247 105.49725"></polygon>
        <filter x="-39.6%" y="-16.3%" width="150.4%" height="165.0%" filterUnits="objectBoundingBox" id="filter-4">
            <feOffset dx="-12" dy="14" in="SourceAlpha" result="shadowOffsetOuter1"></feOffset>
            <feGaussianBlur stdDeviation="6" in="shadowOffsetOuter1" result="shadowBlurOuter1"></feGaussianBlur>
            <feColorMatrix values="0 0 0 0 0.316369017   0 0 0 0 0.366987588   0 0 0 0 0.353495709  0 0 0 0.257409583 0" type="matrix" in="shadowBlurOuter1" result="shadowMatrixOuter1"></feColorMatrix>
            <feOffset dx="-4" dy="7" in="SourceAlpha" result="shadowOffsetOuter2"></feOffset>
            <feGaussianBlur stdDeviation="2.5" in="shadowOffsetOuter2" result="shadowBlurOuter2"></feGaussianBlur>
            <feColorMatrix values="0 0 0 0 0   0 0 0 0 0   0 0 0 0 0  0 0 0 0.144614907 0" type="matrix" in="shadowBlurOuter2" result="shadowMatrixOuter2"></feColorMatrix>
            <feMerge>
                <feMergeNode in="shadowMatrixOuter1"></feMergeNode>
                <feMergeNode in="shadowMatrixOuter2"></feMergeNode>
            </feMerge>
        </filter>
        <polygon id="path-5" points="150.4945 4.5 185.130753 24.49725 185.130753 64.49175 150.4945 84.489 115.858247 64.49175 115.858247 24.49725"></polygon>
        <filter x="-39.6%" y="-16.3%" width="150.4%" height="165.0%" filterUnits="objectBoundingBox" id="filter-6">
            <feOffset dx="-12" dy="14" in="SourceAlpha" result="shadowOffsetOuter1"></feOffset>
            <feGaussianBlur stdDeviation="6" in="shadowOffsetOuter1" result="shadowBlurOuter1"></feGaussianBlur>
            <feColorMatrix values="0 0 0 0 0.316369017   0 0 0 0 0.366987588   0 0 0 0 0.353495709  0 0 0 0.257409583 0" type="matrix" in="shadowBlurOuter1" result="shadowMatrixOuter1"></feColorMatrix>
            <feOffset dx="-4" dy="7" in="SourceAlpha" result="shadowOffsetOuter2"></feOffset>
            <feGaussianBlur stdDeviation="2.5" in="shadowOffsetOuter2" result="shadowBlurOuter2"></feGaussianBlur>
            <feColorMatrix values="0 0 0 0 0   0 0 0 0 0   0 0 0 0 0  0 0 0 0.144614907 0" type="matrix" in="shadowBlurOuter2" result="shadowMatrixOuter2"></feColorMatrix>
            <feMerge>
                <feMergeNode in="shadowMatrixOuter1"></feMergeNode>
                <feMergeNode in="shadowMatrixOuter2"></feMergeNode>
            </feMerge>
        </filter>
        <polygon id="path-7" points="271.9945 4.5 306.630753 24.49725 306.630753 64.49175 271.9945 84.489 237.358247 64.49175 237.358247 24.49725"></polygon>
        <filter x="-39.6%" y="-16.3%" width="150.4%" height="165.0%" filterUnits="objectBoundingBox" id="filter-8">
            <feOffset dx="-12" dy="14" in="SourceAlpha" result="shadowOffsetOuter1"></feOffset>
            <feGaussianBlur stdDeviation="6" in="shadowOffsetOuter1" result="shadowBlurOuter1"></feGaussianBlur>
            <feColorMatrix values="0 0 0 0 0.316369017   0 0 0 0 0.366987588   0 0 0 0 0.353495709  0 0 0 0.257409583 0" type="matrix" in="shadowBlurOuter1" result="shadowMatrixOuter1"></feColorMatrix>
            <feOffset dx="-4" dy="7" in="SourceAlpha" result="shadowOffsetOuter2"></feOffset>
            <feGaussianBlur stdDeviation="2.5" in="shadowOffsetOuter2" result="shadowBlurOuter2"></feGaussianBlur>
            <feColorMatrix values="0 0 0 0 0   0 0 0 0 0   0 0 0 0 0  0 0 0 0.144614907 0" type="matrix" in="shadowBlurOuter2" result="shadowMatrixOuter2"></feColorMatrix>
            <feMerge>
                <feMergeNode in="shadowMatrixOuter1"></feMergeNode>
                <feMergeNode in="shadowMatrixOuter2"></feMergeNode>
            </feMerge>
        </filter>
        <polygon id="path-9" points="348.9945 85.5 383.630753 105.49725 383.630753 145.49175 348.9945 165.489 314.358247 145.49175 314.358247 105.49725"></polygon>
        <filter x="-39.6%" y="-16.3%" width="150.4%" height="165.0%" filterUnits="objectBoundingBox" id="filter-10">
            <feOffset dx="-12" dy="14" in="SourceAlpha" result="shadowOffsetOuter1"></feOffset>
            <feGaussianBlur stdDeviation="6" in="shadowOffsetOuter1" result="shadowBlurOuter1"></feGaussianBlur>
            <feColorMatrix values="0 0 0 0 0.316369017   0 0 0 0 0.366987588   0 0 0 0 0.353495709  0 0 0 0.257409583 0" type="matrix" in="shadowBlurOuter1" result="shadowMatrixOuter1"></feColorMatrix>
            <feOffset dx="-4" dy="7" in="SourceAlpha" result="shadowOffsetOuter2"></feOffset>
            <feGaussianBlur stdDeviation="2.5" in="shadowOffsetOuter2" result="shadowBlurOuter2"></feGaussianBlur>
            <feColorMatrix values="0 0 0 0 0   0 0 0 0 0   0 0 0 0 0  0 0 0 0.144614907 0" type="matrix" in="shadowBlurOuter2" result="shadowMatrixOuter2"></feColorMatrix>
            <feMerge>
                <feMergeNode in="shadowMatrixOuter1"></feMergeNode>
                <feMergeNode in="shadowMatrixOuter2"></feMergeNode>
            </feMerge>
        </filter>
    </defs>
    <g id="Page-1" stroke="none" stroke-width="1" fill="none" fill-rule="evenodd">
        <g id="Discover-S-2" transform="translate(-756.000000, -753.000000)">
            <g id="neo-2-illustration" transform="translate(756.000000, 753.000000)">
                <path d="M34.28,380 L34.28,368.02 L38.88,368.02 L38.88,365.9 L27.1,365.9 L27.1,368.02 L31.7,368.02 L31.7,380 L34.28,380 Z M42.92,380 L42.92,374.46 C42.92,373.7 43.1366667,373.093333 43.57,372.64 C44.0033333,372.186667 44.58,371.96 45.3,371.96 C45.9133333,371.96 46.3633333,372.133333 46.65,372.48 C46.9366667,372.826667 47.08,373.38 47.08,374.14 L47.08,374.14 L47.08,380 L49.58,380 L49.58,374 C49.58,372.653333 49.2933333,371.646667 48.72,370.98 C48.1466667,370.313333 47.2733333,369.98 46.1,369.98 C45.42,369.98 44.8033333,370.116667 44.25,370.39 C43.6966667,370.663333 43.2533333,371.06 42.92,371.58 L42.92,371.58 L42.92,365.9 L40.42,365.9 L40.42,380 L42.92,380 Z M56.76,380.16 C57.4533333,380.16 58.1433333,380.046667 58.83,379.82 C59.5166667,379.593333 60.0866667,379.293333 60.54,378.92 L60.54,378.92 L59.82,377.2 C58.9266667,377.893333 57.94,378.24 56.86,378.24 C55.9933333,378.24 55.3266667,378.02 54.86,377.58 C54.3933333,377.14 54.12,376.466667 54.04,375.56 L54.04,375.56 L60.7,375.56 L60.7,374.86 C60.7,373.34 60.31,372.146667 59.53,371.28 C58.75,370.413333 57.6866667,369.98 56.34,369.98 C55.42,369.98 54.5966667,370.193333 53.87,370.62 C53.1433333,371.046667 52.58,371.646667 52.18,372.42 C51.78,373.193333 51.58,374.08 51.58,375.08 C51.58,376.653333 52.0433333,377.893333 52.97,378.8 C53.8966667,379.706667 55.16,380.16 56.76,380.16 Z M58.56,374.22 L54.04,374.22 C54.1333333,373.42 54.3833333,372.806667 54.79,372.38 C55.1966667,371.953333 55.7333333,371.74 56.4,371.74 C57.0666667,371.74 57.5866667,371.95 57.96,372.37 C58.3333333,372.79 58.5333333,373.406667 58.56,374.22 L58.56,374.22 Z M70.66,380 L70.66,374.72 C70.66,373.213333 71.4866667,372.373333 73.14,372.2 L73.14,372.2 L74.6,372.06 L74.44,369.96 L73.68,370.02 C72.0933333,370.126667 71.0466667,370.766667 70.54,371.94 L70.54,371.94 L70.54,370.22 L68.16,370.22 L68.16,380 L70.66,380 Z M78.44,368.14 L78.44,365.68 L75.68,365.68 L75.68,368.14 L78.44,368.14 Z M78.32,380 L78.32,370.22 L75.82,370.22 L75.82,380 L78.32,380 Z M85.4,383.76 C87.0533333,383.76 88.3033333,383.366667 89.15,382.58 C89.9966667,381.793333 90.42,380.633333 90.42,379.1 L90.42,379.1 L90.42,370.22 L87.94,370.22 L87.94,371.7 C87.6466667,371.153333 87.22,370.73 86.66,370.43 C86.1,370.13 85.46,369.98 84.74,369.98 C83.8866667,369.98 83.1266667,370.183333 82.46,370.59 C81.7933333,370.996667 81.2766667,371.57 80.91,372.31 C80.5433333,373.05 80.36,373.9 80.36,374.86 C80.36,375.82 80.5466667,376.666667 80.92,377.4 C81.2933333,378.133333 81.81,378.703333 82.47,379.11 C83.13,379.516667 83.8866667,379.72 84.74,379.72 C85.46,379.72 86.1,379.57 86.66,379.27 C87.22,378.97 87.6466667,378.546667 87.94,378 L87.94,378 L87.94,379.28 C87.94,380.986667 87.0733333,381.84 85.34,381.84 C84.0466667,381.84 82.7933333,381.473333 81.58,380.74 L81.58,380.74 L80.88,382.5 C81.4666667,382.9 82.1533333,383.21 82.94,383.43 C83.7266667,383.65 84.5466667,383.76 85.4,383.76 Z M85.4,377.78 C84.6133333,377.78 83.9933333,377.516667 83.54,376.99 C83.0866667,376.463333 82.86,375.753333 82.86,374.86 C82.86,373.94 83.0866667,373.22 83.54,372.7 C83.9933333,372.18 84.6133333,371.92 85.4,371.92 C86.2,371.92 86.8233333,372.18 87.27,372.7 C87.7166667,373.22 87.94,373.94 87.94,374.86 C87.94,375.766667 87.7166667,376.48 87.27,377 C86.8233333,377.52 86.2,377.78 85.4,377.78 Z M95.5,380 L95.5,374.46 C95.5,373.7 95.7166667,373.093333 96.15,372.64 C96.5833333,372.186667 97.16,371.96 97.88,371.96 C98.4933333,371.96 98.9433333,372.133333 99.23,372.48 C99.5166667,372.826667 99.66,373.38 99.66,374.14 L99.66,374.14 L99.66,380 L102.16,380 L102.16,374 C102.16,372.653333 101.873333,371.646667 101.3,370.98 C100.726667,370.313333 99.8533333,369.98 98.68,369.98 C98,369.98 97.3833333,370.116667 96.83,370.39 C96.2766667,370.663333 95.8333333,371.06 95.5,371.58 L95.5,371.58 L95.5,365.9 L93,365.9 L93,380 L95.5,380 Z M109.4,380.14 C109.733333,380.14 110.1,380.12 110.5,380.08 L110.5,380.08 L110.62,378.22 C110.3,378.26 109.993333,378.28 109.7,378.28 C108.486667,378.28 107.88,377.626667 107.88,376.32 L107.88,376.32 L107.88,372.1 L110.46,372.1 L110.46,370.22 L107.88,370.22 L107.88,367.3 L105.38,367.3 L105.38,370.22 L103.5,370.22 L103.5,372.1 L105.38,372.1 L105.38,376.36 C105.38,377.613333 105.706667,378.556667 106.36,379.19 C107.013333,379.823333 108.026667,380.14 109.4,380.14 Z M122.2,380.14 C122.533333,380.14 122.9,380.12 123.3,380.08 L123.3,380.08 L123.42,378.22 C123.1,378.26 122.793333,378.28 122.5,378.28 C121.286667,378.28 120.68,377.626667 120.68,376.32 L120.68,376.32 L120.68,372.1 L123.26,372.1 L123.26,370.22 L120.68,370.22 L120.68,367.3 L118.18,367.3 L118.18,370.22 L116.3,370.22 L116.3,372.1 L118.18,372.1 L118.18,376.36 C118.18,377.613333 118.506667,378.556667 119.16,379.19 C119.813333,379.823333 120.826667,380.14 122.2,380.14 Z M129.34,380.16 C130.34,380.16 131.216667,379.953333 131.97,379.54 C132.723333,379.126667 133.303333,378.533333 133.71,377.76 C134.116667,376.986667 134.32,376.086667 134.32,375.06 C134.32,374.033333 134.116667,373.136667 133.71,372.37 C133.303333,371.603333 132.723333,371.013333 131.97,370.6 C131.216667,370.186667 130.34,369.98 129.34,369.98 C128.34,369.98 127.463333,370.186667 126.71,370.6 C125.956667,371.013333 125.373333,371.603333 124.96,372.37 C124.546667,373.136667 124.34,374.033333 124.34,375.06 C124.34,376.086667 124.546667,376.986667 124.96,377.76 C125.373333,378.533333 125.956667,379.126667 126.71,379.54 C127.463333,379.953333 128.34,380.16 129.34,380.16 Z M129.32,378.22 C128.52,378.22 127.906667,377.953333 127.48,377.42 C127.053333,376.886667 126.84,376.1 126.84,375.06 C126.84,374.033333 127.056667,373.25 127.49,372.71 C127.923333,372.17 128.54,371.9 129.34,371.9 C130.14,371.9 130.753333,372.17 131.18,372.71 C131.606667,373.25 131.82,374.033333 131.82,375.06 C131.82,376.1 131.606667,376.886667 131.18,377.42 C130.753333,377.953333 130.133333,378.22 129.32,378.22 Z M146.26,380.16 C146.98,380.16 147.673333,380.05 148.34,379.83 C149.006667,379.61 149.553333,379.306667 149.98,378.92 L149.98,378.92 L149.26,377.18 C148.846667,377.513333 148.41,377.766667 147.95,377.94 C147.49,378.113333 147.033333,378.2 146.58,378.2 C145.713333,378.2 145.04,377.93 144.56,377.39 C144.08,376.85 143.84,376.08 143.84,375.08 C143.84,374.066667 144.08,373.29 144.56,372.75 C145.04,372.21 145.713333,371.94 146.58,371.94 C147.033333,371.94 147.49,372.026667 147.95,372.2 C148.41,372.373333 148.846667,372.626667 149.26,372.96 L149.26,372.96 L149.98,371.2 C149.58,370.826667 149.05,370.53 148.39,370.31 C147.73,370.09 147.053333,369.98 146.36,369.98 C145.346667,369.98 144.453333,370.193333 143.68,370.62 C142.906667,371.046667 142.31,371.65 141.89,372.43 C141.47,373.21 141.26,374.106667 141.26,375.12 C141.26,376.133333 141.46,377.02 141.86,377.78 C142.26,378.54 142.836667,379.126667 143.59,379.54 C144.343333,379.953333 145.233333,380.16 146.26,380.16 Z M154.06,380 L154.06,365.9 L151.56,365.9 L151.56,380 L154.06,380 Z M159.76,380.16 C160.4,380.16 160.963333,380.013333 161.45,379.72 C161.936667,379.426667 162.293333,379.02 162.52,378.5 L162.52,378.5 L162.52,380 L164.9,380 L164.9,374.06 C164.9,372.673333 164.566667,371.646667 163.9,370.98 C163.233333,370.313333 162.213333,369.98 160.84,369.98 C160.146667,369.98 159.413333,370.093333 158.64,370.32 C157.866667,370.546667 157.206667,370.833333 156.66,371.18 L156.66,371.18 L157.36,372.9 C157.906667,372.58 158.463333,372.33 159.03,372.15 C159.596667,371.97 160.14,371.88 160.66,371.88 C161.326667,371.88 161.803333,372.026667 162.09,372.32 C162.376667,372.613333 162.52,373.093333 162.52,373.76 L162.52,373.76 L162.52,374.22 L162.02,374.22 C160.566667,374.22 159.426667,374.313333 158.6,374.5 C157.773333,374.686667 157.176667,374.986667 156.81,375.4 C156.443333,375.813333 156.26,376.38 156.26,377.1 C156.26,377.673333 156.413333,378.193333 156.72,378.66 C157.026667,379.126667 157.446667,379.493333 157.98,379.76 C158.513333,380.026667 159.106667,380.16 159.76,380.16 Z M160.26,378.36 C159.806667,378.36 159.433333,378.223333 159.14,377.95 C158.846667,377.676667 158.7,377.326667 158.7,376.9 C158.7,376.553333 158.806667,376.28 159.02,376.08 C159.233333,375.88 159.586667,375.74 160.08,375.66 C160.573333,375.58 161.266667,375.54 162.16,375.54 L162.16,375.54 L162.52,375.54 L162.52,375.96 C162.52,376.666667 162.31,377.243333 161.89,377.69 C161.47,378.136667 160.926667,378.36 160.26,378.36 Z M170.06,368.14 L170.06,365.68 L167.3,365.68 L167.3,368.14 L170.06,368.14 Z M169.94,380 L169.94,370.22 L167.44,370.22 L167.44,380 L169.94,380 Z M175.02,380 L175.02,374.54 C175.02,373.726667 175.206667,373.093333 175.58,372.64 C175.953333,372.186667 176.466667,371.96 177.12,371.96 C177.693333,371.96 178.103333,372.13 178.35,372.47 C178.596667,372.81 178.72,373.353333 178.72,374.1 L178.72,374.1 L178.72,380 L181.22,380 L181.22,374.54 C181.22,373.726667 181.406667,373.093333 181.78,372.64 C182.153333,372.186667 182.673333,371.96 183.34,371.96 C183.9,371.96 184.306667,372.13 184.56,372.47 C184.813333,372.81 184.94,373.353333 184.94,374.1 L184.94,374.1 L184.94,380 L187.44,380 L187.44,374 C187.44,372.64 187.166667,371.63 186.62,370.97 C186.073333,370.31 185.246667,369.98 184.14,369.98 C183.433333,369.98 182.793333,370.143333 182.22,370.47 C181.646667,370.796667 181.206667,371.246667 180.9,371.82 C180.42,370.593333 179.44,369.98 177.96,369.98 C177.293333,369.98 176.7,370.116667 176.18,370.39 C175.66,370.663333 175.253333,371.066667 174.96,371.6 L174.96,371.6 L174.96,370.22 L172.52,370.22 L172.52,380 L175.02,380 Z M202.26,380.18 C203.206667,380.18 204.136667,380.086667 205.05,379.9 C205.963333,379.713333 206.74,379.46 207.38,379.14 L207.38,379.14 L207.38,372.38 L202.04,372.38 L202.04,374.22 L205.08,374.22 L205.08,377.76 C204.173333,378.013333 203.266667,378.14 202.36,378.14 C199.32,378.14 197.8,376.406667 197.8,372.94 C197.8,371.246667 198.17,369.97 198.91,369.11 C199.65,368.25 200.746667,367.82 202.2,367.82 C202.96,367.82 203.656667,367.93 204.29,368.15 C204.923333,368.37 205.566667,368.733333 206.22,369.24 L206.22,369.24 L207.08,367.38 C206.506667,366.846667 205.786667,366.436667 204.92,366.15 C204.053333,365.863333 203.126667,365.72 202.14,365.72 C200.726667,365.72 199.496667,366.01 198.45,366.59 C197.403333,367.17 196.596667,368.003333 196.03,369.09 C195.463333,370.176667 195.18,371.46 195.18,372.94 C195.18,374.433333 195.463333,375.723333 196.03,376.81 C196.596667,377.896667 197.413333,378.73 198.48,379.31 C199.546667,379.89 200.806667,380.18 202.26,380.18 Z M211.36,380 L212.78,376.7 L219.64,376.7 L221.06,380 L223.62,380 L217.24,365.9 L215.14,365.9 L208.76,380 L211.36,380 Z M218.78,374.7 L213.62,374.7 L216.2,368.7 L218.78,374.7 Z M229.9,380.18 C231.046667,380.18 232.043333,380.01 232.89,379.67 C233.736667,379.33 234.383333,378.843333 234.83,378.21 C235.276667,377.576667 235.5,376.84 235.5,376 C235.5,375.226667 235.303333,374.586667 234.91,374.08 C234.516667,373.573333 233.95,373.156667 233.21,372.83 C232.47,372.503333 231.506667,372.206667 230.32,371.94 C229.2,371.686667 228.406667,371.413333 227.94,371.12 C227.473333,370.826667 227.24,370.406667 227.24,369.86 C227.24,369.206667 227.503333,368.696667 228.03,368.33 C228.556667,367.963333 229.273333,367.78 230.18,367.78 C231.7,367.78 233.086667,368.28 234.34,369.28 L234.34,369.28 L235.2,367.4 C234.626667,366.88 233.893333,366.47 233,366.17 C232.106667,365.87 231.166667,365.72 230.18,365.72 C229.1,365.72 228.146667,365.903333 227.32,366.27 C226.493333,366.636667 225.853333,367.146667 225.4,367.8 C224.946667,368.453333 224.72,369.193333 224.72,370.02 C224.72,370.82 224.906667,371.48 225.28,372 C225.653333,372.52 226.206667,372.946667 226.94,373.28 C227.673333,373.613333 228.626667,373.906667 229.8,374.16 C230.933333,374.413333 231.743333,374.68 232.23,374.96 C232.716667,375.24 232.96,375.646667 232.96,376.18 C232.96,376.793333 232.696667,377.27 232.17,377.61 C231.643333,377.95 230.893333,378.12 229.92,378.12 C229.04,378.12 228.223333,378 227.47,377.76 C226.716667,377.52 226,377.14 225.32,376.62 L225.32,376.62 L224.46,378.5 C225.113333,379.033333 225.913333,379.446667 226.86,379.74 C227.806667,380.033333 228.82,380.18 229.9,380.18 Z M238.66,382.66 C239.233333,382.086667 239.64,381.516667 239.88,380.95 C240.12,380.383333 240.24,379.753333 240.24,379.06 L240.24,379.06 L240.24,377.24 L237.44,377.24 L237.44,380 L238.72,380 C238.626667,380.573333 238.266667,381.193333 237.64,381.86 L237.64,381.86 L238.66,382.66 Z M250.54,380 L250.54,374.46 C250.54,373.7 250.756667,373.093333 251.19,372.64 C251.623333,372.186667 252.2,371.96 252.92,371.96 C253.533333,371.96 253.983333,372.133333 254.27,372.48 C254.556667,372.826667 254.7,373.38 254.7,374.14 L254.7,374.14 L254.7,380 L257.2,380 L257.2,374 C257.2,372.653333 256.913333,371.646667 256.34,370.98 C255.766667,370.313333 254.893333,369.98 253.72,369.98 C253.013333,369.98 252.38,370.126667 251.82,370.42 C251.26,370.713333 250.813333,371.133333 250.48,371.68 L250.48,371.68 L250.48,370.22 L248.04,370.22 L248.04,380 L250.54,380 Z M264.38,380.16 C265.073333,380.16 265.763333,380.046667 266.45,379.82 C267.136667,379.593333 267.706667,379.293333 268.16,378.92 L268.16,378.92 L267.44,377.2 C266.546667,377.893333 265.56,378.24 264.48,378.24 C263.613333,378.24 262.946667,378.02 262.48,377.58 C262.013333,377.14 261.74,376.466667 261.66,375.56 L261.66,375.56 L268.32,375.56 L268.32,374.86 C268.32,373.34 267.93,372.146667 267.15,371.28 C266.37,370.413333 265.306667,369.98 263.96,369.98 C263.04,369.98 262.216667,370.193333 261.49,370.62 C260.763333,371.046667 260.2,371.646667 259.8,372.42 C259.4,373.193333 259.2,374.08 259.2,375.08 C259.2,376.653333 259.663333,377.893333 260.59,378.8 C261.516667,379.706667 262.78,380.16 264.38,380.16 Z M266.18,374.22 L261.66,374.22 C261.753333,373.42 262.003333,372.806667 262.41,372.38 C262.816667,371.953333 263.353333,371.74 264.02,371.74 C264.686667,371.74 265.206667,371.95 265.58,372.37 C265.953333,372.79 266.153333,373.406667 266.18,374.22 L266.18,374.22 Z M275,380.16 C275.693333,380.16 276.383333,380.046667 277.07,379.82 C277.756667,379.593333 278.326667,379.293333 278.78,378.92 L278.78,378.92 L278.06,377.2 C277.166667,377.893333 276.18,378.24 275.1,378.24 C274.233333,378.24 273.566667,378.02 273.1,377.58 C272.633333,377.14 272.36,376.466667 272.28,375.56 L272.28,375.56 L278.94,375.56 L278.94,374.86 C278.94,373.34 278.55,372.146667 277.77,371.28 C276.99,370.413333 275.926667,369.98 274.58,369.98 C273.66,369.98 272.836667,370.193333 272.11,370.62 C271.383333,371.046667 270.82,371.646667 270.42,372.42 C270.02,373.193333 269.82,374.08 269.82,375.08 C269.82,376.653333 270.283333,377.893333 271.21,378.8 C272.136667,379.706667 273.4,380.16 275,380.16 Z M276.8,374.22 L272.28,374.22 C272.373333,373.42 272.623333,372.806667 273.03,372.38 C273.436667,371.953333 273.973333,371.74 274.64,371.74 C275.306667,371.74 275.826667,371.95 276.2,372.37 C276.573333,372.79 276.773333,373.406667 276.8,374.22 L276.8,374.22 Z M284.78,380.16 C285.486667,380.16 286.116667,380.006667 286.67,379.7 C287.223333,379.393333 287.646667,378.966667 287.94,378.42 L287.94,378.42 L287.94,380 L290.42,380 L290.42,365.9 L287.92,365.9 L287.92,371.66 C287.626667,371.126667 287.206667,370.713333 286.66,370.42 C286.113333,370.126667 285.486667,369.98 284.78,369.98 C283.926667,369.98 283.173333,370.186667 282.52,370.6 C281.866667,371.013333 281.356667,371.6 280.99,372.36 C280.623333,373.12 280.44,374.006667 280.44,375.02 C280.44,376.033333 280.623333,376.93 280.99,377.71 C281.356667,378.49 281.87,379.093333 282.53,379.52 C283.19,379.946667 283.94,380.16 284.78,380.16 Z M285.44,378.22 C284.653333,378.22 284.04,377.94 283.6,377.38 C283.16,376.82 282.94,376.033333 282.94,375.02 C282.94,374.02 283.16,373.253333 283.6,372.72 C284.04,372.186667 284.66,371.92 285.46,371.92 C286.246667,371.92 286.856667,372.19 287.29,372.73 C287.723333,373.27 287.94,374.046667 287.94,375.06 C287.94,376.073333 287.723333,376.853333 287.29,377.4 C286.856667,377.946667 286.24,378.22 285.44,378.22 Z M297.64,380.16 C298.333333,380.16 299.023333,380.046667 299.71,379.82 C300.396667,379.593333 300.966667,379.293333 301.42,378.92 L301.42,378.92 L300.7,377.2 C299.806667,377.893333 298.82,378.24 297.74,378.24 C296.873333,378.24 296.206667,378.02 295.74,377.58 C295.273333,377.14 295,376.466667 294.92,375.56 L294.92,375.56 L301.58,375.56 L301.58,374.86 C301.58,373.34 301.19,372.146667 300.41,371.28 C299.63,370.413333 298.566667,369.98 297.22,369.98 C296.3,369.98 295.476667,370.193333 294.75,370.62 C294.023333,371.046667 293.46,371.646667 293.06,372.42 C292.66,373.193333 292.46,374.08 292.46,375.08 C292.46,376.653333 292.923333,377.893333 293.85,378.8 C294.776667,379.706667 296.04,380.16 297.64,380.16 Z M299.44,374.22 L294.92,374.22 C295.013333,373.42 295.263333,372.806667 295.67,372.38 C296.076667,371.953333 296.613333,371.74 297.28,371.74 C297.946667,371.74 298.466667,371.95 298.84,372.37 C299.213333,372.79 299.413333,373.406667 299.44,374.22 L299.44,374.22 Z M307.42,380.16 C308.126667,380.16 308.756667,380.006667 309.31,379.7 C309.863333,379.393333 310.286667,378.966667 310.58,378.42 L310.58,378.42 L310.58,380 L313.06,380 L313.06,365.9 L310.56,365.9 L310.56,371.66 C310.266667,371.126667 309.846667,370.713333 309.3,370.42 C308.753333,370.126667 308.126667,369.98 307.42,369.98 C306.566667,369.98 305.813333,370.186667 305.16,370.6 C304.506667,371.013333 303.996667,371.6 303.63,372.36 C303.263333,373.12 303.08,374.006667 303.08,375.02 C303.08,376.033333 303.263333,376.93 303.63,377.71 C303.996667,378.49 304.51,379.093333 305.17,379.52 C305.83,379.946667 306.58,380.16 307.42,380.16 Z M308.08,378.22 C307.293333,378.22 306.68,377.94 306.24,377.38 C305.8,376.82 305.58,376.033333 305.58,375.02 C305.58,374.02 305.8,373.253333 306.24,372.72 C306.68,372.186667 307.3,371.92 308.1,371.92 C308.886667,371.92 309.496667,372.19 309.93,372.73 C310.363333,373.27 310.58,374.046667 310.58,375.06 C310.58,376.073333 310.363333,376.853333 309.93,377.4 C309.496667,377.946667 308.88,378.22 308.08,378.22 Z M325.76,380.14 C326.093333,380.14 326.46,380.12 326.86,380.08 L326.86,380.08 L326.98,378.22 C326.66,378.26 326.353333,378.28 326.06,378.28 C324.846667,378.28 324.24,377.626667 324.24,376.32 L324.24,376.32 L324.24,372.1 L326.82,372.1 L326.82,370.22 L324.24,370.22 L324.24,367.3 L321.74,367.3 L321.74,370.22 L319.86,370.22 L319.86,372.1 L321.74,372.1 L321.74,376.36 C321.74,377.613333 322.066667,378.556667 322.72,379.19 C323.373333,379.823333 324.386667,380.14 325.76,380.14 Z M332.9,380.16 C333.9,380.16 334.776667,379.953333 335.53,379.54 C336.283333,379.126667 336.863333,378.533333 337.27,377.76 C337.676667,376.986667 337.88,376.086667 337.88,375.06 C337.88,374.033333 337.676667,373.136667 337.27,372.37 C336.863333,371.603333 336.283333,371.013333 335.53,370.6 C334.776667,370.186667 333.9,369.98 332.9,369.98 C331.9,369.98 331.023333,370.186667 330.27,370.6 C329.516667,371.013333 328.933333,371.603333 328.52,372.37 C328.106667,373.136667 327.9,374.033333 327.9,375.06 C327.9,376.086667 328.106667,376.986667 328.52,377.76 C328.933333,378.533333 329.516667,379.126667 330.27,379.54 C331.023333,379.953333 331.9,380.16 332.9,380.16 Z M332.88,378.22 C332.08,378.22 331.466667,377.953333 331.04,377.42 C330.613333,376.886667 330.4,376.1 330.4,375.06 C330.4,374.033333 330.616667,373.25 331.05,372.71 C331.483333,372.17 332.1,371.9 332.9,371.9 C333.7,371.9 334.313333,372.17 334.74,372.71 C335.166667,373.25 335.38,374.033333 335.38,375.06 C335.38,376.1 335.166667,376.886667 334.74,377.42 C334.313333,377.953333 333.693333,378.22 332.88,378.22 Z M347.86,383.6 L347.86,378.5 C348.153333,379.02 348.573333,379.426667 349.12,379.72 C349.666667,380.013333 350.286667,380.16 350.98,380.16 C351.833333,380.16 352.586667,379.953333 353.24,379.54 C353.893333,379.126667 354.403333,378.54 354.77,377.78 C355.136667,377.02 355.32,376.133333 355.32,375.12 C355.32,374.106667 355.136667,373.21 354.77,372.43 C354.403333,371.65 353.89,371.046667 353.23,370.62 C352.57,370.193333 351.82,369.98 350.98,369.98 C350.273333,369.98 349.643333,370.13 349.09,370.43 C348.536667,370.73 348.113333,371.153333 347.82,371.7 L347.82,371.7 L347.82,370.22 L345.36,370.22 L345.36,383.6 L347.86,383.6 Z M350.32,378.22 C349.52,378.22 348.903333,377.946667 348.47,377.4 C348.036667,376.853333 347.82,376.08 347.82,375.08 C347.82,374.066667 348.036667,373.286667 348.47,372.74 C348.903333,372.193333 349.52,371.92 350.32,371.92 C351.106667,371.92 351.72,372.2 352.16,372.76 C352.6,373.32 352.82,374.106667 352.82,375.12 C352.82,376.106667 352.6,376.87 352.16,377.41 C351.72,377.95 351.106667,378.22 350.32,378.22 Z M362.02,380.16 C362.713333,380.16 363.403333,380.046667 364.09,379.82 C364.776667,379.593333 365.346667,379.293333 365.8,378.92 L365.8,378.92 L365.08,377.2 C364.186667,377.893333 363.2,378.24 362.12,378.24 C361.253333,378.24 360.586667,378.02 360.12,377.58 C359.653333,377.14 359.38,376.466667 359.3,375.56 L359.3,375.56 L365.96,375.56 L365.96,374.86 C365.96,373.34 365.57,372.146667 364.79,371.28 C364.01,370.413333 362.946667,369.98 361.6,369.98 C360.68,369.98 359.856667,370.193333 359.13,370.62 C358.403333,371.046667 357.84,371.646667 357.44,372.42 C357.04,373.193333 356.84,374.08 356.84,375.08 C356.84,376.653333 357.303333,377.893333 358.23,378.8 C359.156667,379.706667 360.42,380.16 362.02,380.16 Z M363.82,374.22 L359.3,374.22 C359.393333,373.42 359.643333,372.806667 360.05,372.38 C360.456667,371.953333 360.993333,371.74 361.66,371.74 C362.326667,371.74 362.846667,371.95 363.22,372.37 C363.593333,372.79 363.793333,373.406667 363.82,374.22 L363.82,374.22 Z M370.5,380 L370.5,374.72 C370.5,373.213333 371.326667,372.373333 372.98,372.2 L372.98,372.2 L374.44,372.06 L374.28,369.96 L373.52,370.02 C371.933333,370.126667 370.886667,370.766667 370.38,371.94 L370.38,371.94 L370.38,370.22 L368,370.22 L368,380 L370.5,380 Z M378.84,380 L378.84,372.1 L381.42,372.1 L381.42,370.22 L378.84,370.22 L378.84,369.76 C378.84,369.066667 379.006667,368.563333 379.34,368.25 C379.673333,367.936667 380.233333,367.76 381.02,367.72 L381.02,367.72 L381.96,367.68 L381.8,365.82 L380.82,365.88 C379.286667,365.96 378.156667,366.353333 377.43,367.06 C376.703333,367.766667 376.34,368.82 376.34,370.22 L376.34,370.22 L374.46,370.22 L374.46,372.1 L376.34,372.1 L376.34,380 L378.84,380 Z M387.28,380.16 C388.28,380.16 389.156667,379.953333 389.91,379.54 C390.663333,379.126667 391.243333,378.533333 391.65,377.76 C392.056667,376.986667 392.26,376.086667 392.26,375.06 C392.26,374.033333 392.056667,373.136667 391.65,372.37 C391.243333,371.603333 390.663333,371.013333 389.91,370.6 C389.156667,370.186667 388.28,369.98 387.28,369.98 C386.28,369.98 385.403333,370.186667 384.65,370.6 C383.896667,371.013333 383.313333,371.603333 382.9,372.37 C382.486667,373.136667 382.28,374.033333 382.28,375.06 C382.28,376.086667 382.486667,376.986667 382.9,377.76 C383.313333,378.533333 383.896667,379.126667 384.65,379.54 C385.403333,379.953333 386.28,380.16 387.28,380.16 Z M387.26,378.22 C386.46,378.22 385.846667,377.953333 385.42,377.42 C384.993333,376.886667 384.78,376.1 384.78,375.06 C384.78,374.033333 384.996667,373.25 385.43,372.71 C385.863333,372.17 386.48,371.9 387.28,371.9 C388.08,371.9 388.693333,372.17 389.12,372.71 C389.546667,373.25 389.76,374.033333 389.76,375.06 C389.76,376.1 389.546667,376.886667 389.12,377.42 C388.693333,377.953333 388.073333,378.22 387.26,378.22 Z M396.82,380 L396.82,374.72 C396.82,373.213333 397.646667,372.373333 399.3,372.2 L399.3,372.2 L400.76,372.06 L400.6,369.96 L399.84,370.02 C398.253333,370.126667 397.206667,370.766667 396.7,371.94 L396.7,371.94 L396.7,370.22 L394.32,370.22 L394.32,380 L396.82,380 Z M404.48,380 L404.48,374.54 C404.48,373.726667 404.666667,373.093333 405.04,372.64 C405.413333,372.186667 405.926667,371.96 406.58,371.96 C407.153333,371.96 407.563333,372.13 407.81,372.47 C408.056667,372.81 408.18,373.353333 408.18,374.1 L408.18,374.1 L408.18,380 L410.68,380 L410.68,374.54 C410.68,373.726667 410.866667,373.093333 411.24,372.64 C411.613333,372.186667 412.133333,371.96 412.8,371.96 C413.36,371.96 413.766667,372.13 414.02,372.47 C414.273333,372.81 414.4,373.353333 414.4,374.1 L414.4,374.1 L414.4,380 L416.9,380 L416.9,374 C416.9,372.64 416.626667,371.63 416.08,370.97 C415.533333,370.31 414.706667,369.98 413.6,369.98 C412.893333,369.98 412.253333,370.143333 411.68,370.47 C411.106667,370.796667 410.666667,371.246667 410.36,371.82 C409.88,370.593333 408.9,369.98 407.42,369.98 C406.753333,369.98 406.16,370.116667 405.64,370.39 C405.12,370.663333 404.713333,371.066667 404.42,371.6 L404.42,371.6 L404.42,370.22 L401.98,370.22 L401.98,380 L404.48,380 Z M75.27,408.14 C75.6033333,408.14 75.97,408.12 76.37,408.08 L76.37,408.08 L76.49,406.22 C76.17,406.26 75.8633333,406.28 75.57,406.28 C74.3566667,406.28 73.75,405.626667 73.75,404.32 L73.75,404.32 L73.75,400.1 L76.33,400.1 L76.33,398.22 L73.75,398.22 L73.75,395.3 L71.25,395.3 L71.25,398.22 L69.37,398.22 L69.37,400.1 L71.25,400.1 L71.25,404.36 C71.25,405.613333 71.5766667,406.556667 72.23,407.19 C72.8833333,407.823333 73.8966667,408.14 75.27,408.14 Z M80.45,408 L80.45,402.72 C80.45,401.213333 81.2766667,400.373333 82.93,400.2 L82.93,400.2 L84.39,400.06 L84.23,397.96 L83.47,398.02 C81.8833333,398.126667 80.8366667,398.766667 80.33,399.94 L80.33,399.94 L80.33,398.22 L77.95,398.22 L77.95,408 L80.45,408 Z M88.73,408.16 C89.37,408.16 89.9333333,408.013333 90.42,407.72 C90.9066667,407.426667 91.2633333,407.02 91.49,406.5 L91.49,406.5 L91.49,408 L93.87,408 L93.87,402.06 C93.87,400.673333 93.5366667,399.646667 92.87,398.98 C92.2033333,398.313333 91.1833333,397.98 89.81,397.98 C89.1166667,397.98 88.3833333,398.093333 87.61,398.32 C86.8366667,398.546667 86.1766667,398.833333 85.63,399.18 L85.63,399.18 L86.33,400.9 C86.8766667,400.58 87.4333333,400.33 88,400.15 C88.5666667,399.97 89.11,399.88 89.63,399.88 C90.2966667,399.88 90.7733333,400.026667 91.06,400.32 C91.3466667,400.613333 91.49,401.093333 91.49,401.76 L91.49,401.76 L91.49,402.22 L90.99,402.22 C89.5366667,402.22 88.3966667,402.313333 87.57,402.5 C86.7433333,402.686667 86.1466667,402.986667 85.78,403.4 C85.4133333,403.813333 85.23,404.38 85.23,405.1 C85.23,405.673333 85.3833333,406.193333 85.69,406.66 C85.9966667,407.126667 86.4166667,407.493333 86.95,407.76 C87.4833333,408.026667 88.0766667,408.16 88.73,408.16 Z M89.23,406.36 C88.7766667,406.36 88.4033333,406.223333 88.11,405.95 C87.8166667,405.676667 87.67,405.326667 87.67,404.9 C87.67,404.553333 87.7766667,404.28 87.99,404.08 C88.2033333,403.88 88.5566667,403.74 89.05,403.66 C89.5433333,403.58 90.2366667,403.54 91.13,403.54 L91.13,403.54 L91.49,403.54 L91.49,403.96 C91.49,404.666667 91.28,405.243333 90.86,405.69 C90.44,406.136667 89.8966667,406.36 89.23,406.36 Z M98.91,408 L98.91,402.46 C98.91,401.7 99.1266667,401.093333 99.56,400.64 C99.9933333,400.186667 100.57,399.96 101.29,399.96 C101.903333,399.96 102.353333,400.133333 102.64,400.48 C102.926667,400.826667 103.07,401.38 103.07,402.14 L103.07,402.14 L103.07,408 L105.57,408 L105.57,402 C105.57,400.653333 105.283333,399.646667 104.71,398.98 C104.136667,398.313333 103.263333,397.98 102.09,397.98 C101.383333,397.98 100.75,398.126667 100.19,398.42 C99.63,398.713333 99.1833333,399.133333 98.85,399.68 L98.85,399.68 L98.85,398.22 L96.41,398.22 L96.41,408 L98.91,408 Z M111.71,408.16 C112.963333,408.16 113.956667,407.893333 114.69,407.36 C115.423333,406.826667 115.79,406.106667 115.79,405.2 C115.79,404.453333 115.563333,403.85 115.11,403.39 C114.656667,402.93 113.943333,402.593333 112.97,402.38 L112.97,402.38 L111.31,402 C110.883333,401.906667 110.573333,401.773333 110.38,401.6 C110.186667,401.426667 110.09,401.206667 110.09,400.94 C110.09,400.58 110.243333,400.3 110.55,400.1 C110.856667,399.9 111.283333,399.8 111.83,399.8 C112.843333,399.8 113.856667,400.166667 114.87,400.9 L114.87,400.9 L115.57,399.2 C115.076667,398.813333 114.506667,398.513333 113.86,398.3 C113.213333,398.086667 112.543333,397.98 111.85,397.98 C111.05,397.98 110.346667,398.106667 109.74,398.36 C109.133333,398.613333 108.66,398.97 108.32,399.43 C107.98,399.89 107.81,400.42 107.81,401.02 C107.81,401.74 108.03,402.326667 108.47,402.78 C108.91,403.233333 109.583333,403.56 110.49,403.76 L110.49,403.76 L112.09,404.12 C112.623333,404.253333 112.993333,404.4 113.2,404.56 C113.406667,404.72 113.51,404.946667 113.51,405.24 C113.51,405.586667 113.36,405.853333 113.06,406.04 C112.76,406.226667 112.323333,406.32 111.75,406.32 C110.403333,406.32 109.21,405.94 108.17,405.18 L108.17,405.18 L107.47,406.92 C107.976667,407.32 108.593333,407.626667 109.32,407.84 C110.046667,408.053333 110.843333,408.16 111.71,408.16 Z M120.93,408.16 C121.57,408.16 122.133333,408.013333 122.62,407.72 C123.106667,407.426667 123.463333,407.02 123.69,406.5 L123.69,406.5 L123.69,408 L126.07,408 L126.07,402.06 C126.07,400.673333 125.736667,399.646667 125.07,398.98 C124.403333,398.313333 123.383333,397.98 122.01,397.98 C121.316667,397.98 120.583333,398.093333 119.81,398.32 C119.036667,398.546667 118.376667,398.833333 117.83,399.18 L117.83,399.18 L118.53,400.9 C119.076667,400.58 119.633333,400.33 120.2,400.15 C120.766667,399.97 121.31,399.88 121.83,399.88 C122.496667,399.88 122.973333,400.026667 123.26,400.32 C123.546667,400.613333 123.69,401.093333 123.69,401.76 L123.69,401.76 L123.69,402.22 L123.19,402.22 C121.736667,402.22 120.596667,402.313333 119.77,402.5 C118.943333,402.686667 118.346667,402.986667 117.98,403.4 C117.613333,403.813333 117.43,404.38 117.43,405.1 C117.43,405.673333 117.583333,406.193333 117.89,406.66 C118.196667,407.126667 118.616667,407.493333 119.15,407.76 C119.683333,408.026667 120.276667,408.16 120.93,408.16 Z M121.43,406.36 C120.976667,406.36 120.603333,406.223333 120.31,405.95 C120.016667,405.676667 119.87,405.326667 119.87,404.9 C119.87,404.553333 119.976667,404.28 120.19,404.08 C120.403333,403.88 120.756667,403.74 121.25,403.66 C121.743333,403.58 122.436667,403.54 123.33,403.54 L123.33,403.54 L123.69,403.54 L123.69,403.96 C123.69,404.666667 123.48,405.243333 123.06,405.69 C122.64,406.136667 122.096667,406.36 121.43,406.36 Z M133.07,408.16 C133.79,408.16 134.483333,408.05 135.15,407.83 C135.816667,407.61 136.363333,407.306667 136.79,406.92 L136.79,406.92 L136.07,405.18 C135.656667,405.513333 135.22,405.766667 134.76,405.94 C134.3,406.113333 133.843333,406.2 133.39,406.2 C132.523333,406.2 131.85,405.93 131.37,405.39 C130.89,404.85 130.65,404.08 130.65,403.08 C130.65,402.066667 130.89,401.29 131.37,400.75 C131.85,400.21 132.523333,399.94 133.39,399.94 C133.843333,399.94 134.3,400.026667 134.76,400.2 C135.22,400.373333 135.656667,400.626667 136.07,400.96 L136.07,400.96 L136.79,399.2 C136.39,398.826667 135.86,398.53 135.2,398.31 C134.54,398.09 133.863333,397.98 133.17,397.98 C132.156667,397.98 131.263333,398.193333 130.49,398.62 C129.716667,399.046667 129.12,399.65 128.7,400.43 C128.28,401.21 128.07,402.106667 128.07,403.12 C128.07,404.133333 128.27,405.02 128.67,405.78 C129.07,406.54 129.646667,407.126667 130.4,407.54 C131.153333,407.953333 132.043333,408.16 133.07,408.16 Z M143.07,408.14 C143.403333,408.14 143.77,408.12 144.17,408.08 L144.17,408.08 L144.29,406.22 C143.97,406.26 143.663333,406.28 143.37,406.28 C142.156667,406.28 141.55,405.626667 141.55,404.32 L141.55,404.32 L141.55,400.1 L144.13,400.1 L144.13,398.22 L141.55,398.22 L141.55,395.3 L139.05,395.3 L139.05,398.22 L137.17,398.22 L137.17,400.1 L139.05,400.1 L139.05,404.36 C139.05,405.613333 139.376667,406.556667 140.03,407.19 C140.683333,407.823333 141.696667,408.14 143.07,408.14 Z M148.37,396.14 L148.37,393.68 L145.61,393.68 L145.61,396.14 L148.37,396.14 Z M148.25,408 L148.25,398.22 L145.75,398.22 L145.75,408 L148.25,408 Z M155.29,408.16 C156.29,408.16 157.166667,407.953333 157.92,407.54 C158.673333,407.126667 159.253333,406.533333 159.66,405.76 C160.066667,404.986667 160.27,404.086667 160.27,403.06 C160.27,402.033333 160.066667,401.136667 159.66,400.37 C159.253333,399.603333 158.673333,399.013333 157.92,398.6 C157.166667,398.186667 156.29,397.98 155.29,397.98 C154.29,397.98 153.413333,398.186667 152.66,398.6 C151.906667,399.013333 151.323333,399.603333 150.91,400.37 C150.496667,401.136667 150.29,402.033333 150.29,403.06 C150.29,404.086667 150.496667,404.986667 150.91,405.76 C151.323333,406.533333 151.906667,407.126667 152.66,407.54 C153.413333,407.953333 154.29,408.16 155.29,408.16 Z M155.27,406.22 C154.47,406.22 153.856667,405.953333 153.43,405.42 C153.003333,404.886667 152.79,404.1 152.79,403.06 C152.79,402.033333 153.006667,401.25 153.44,400.71 C153.873333,400.17 154.49,399.9 155.29,399.9 C156.09,399.9 156.703333,400.17 157.13,400.71 C157.556667,401.25 157.77,402.033333 157.77,403.06 C157.77,404.1 157.556667,404.886667 157.13,405.42 C156.703333,405.953333 156.083333,406.22 155.27,406.22 Z M164.83,408 L164.83,402.46 C164.83,401.7 165.046667,401.093333 165.48,400.64 C165.913333,400.186667 166.49,399.96 167.21,399.96 C167.823333,399.96 168.273333,400.133333 168.56,400.48 C168.846667,400.826667 168.99,401.38 168.99,402.14 L168.99,402.14 L168.99,408 L171.49,408 L171.49,402 C171.49,400.653333 171.203333,399.646667 170.63,398.98 C170.056667,398.313333 169.183333,397.98 168.01,397.98 C167.303333,397.98 166.67,398.126667 166.11,398.42 C165.55,398.713333 165.103333,399.133333 164.77,399.68 L164.77,399.68 L164.77,398.22 L162.33,398.22 L162.33,408 L164.83,408 Z M177.63,408.16 C178.883333,408.16 179.876667,407.893333 180.61,407.36 C181.343333,406.826667 181.71,406.106667 181.71,405.2 C181.71,404.453333 181.483333,403.85 181.03,403.39 C180.576667,402.93 179.863333,402.593333 178.89,402.38 L178.89,402.38 L177.23,402 C176.803333,401.906667 176.493333,401.773333 176.3,401.6 C176.106667,401.426667 176.01,401.206667 176.01,400.94 C176.01,400.58 176.163333,400.3 176.47,400.1 C176.776667,399.9 177.203333,399.8 177.75,399.8 C178.763333,399.8 179.776667,400.166667 180.79,400.9 L180.79,400.9 L181.49,399.2 C180.996667,398.813333 180.426667,398.513333 179.78,398.3 C179.133333,398.086667 178.463333,397.98 177.77,397.98 C176.97,397.98 176.266667,398.106667 175.66,398.36 C175.053333,398.613333 174.58,398.97 174.24,399.43 C173.9,399.89 173.73,400.42 173.73,401.02 C173.73,401.74 173.95,402.326667 174.39,402.78 C174.83,403.233333 175.503333,403.56 176.41,403.76 L176.41,403.76 L178.01,404.12 C178.543333,404.253333 178.913333,404.4 179.12,404.56 C179.326667,404.72 179.43,404.946667 179.43,405.24 C179.43,405.586667 179.28,405.853333 178.98,406.04 C178.68,406.226667 178.243333,406.32 177.67,406.32 C176.323333,406.32 175.13,405.94 174.09,405.18 L174.09,405.18 L173.39,406.92 C173.896667,407.32 174.513333,407.626667 175.24,407.84 C175.966667,408.053333 176.763333,408.16 177.63,408.16 Z M193.61,408.16 C194.61,408.16 195.486667,407.953333 196.24,407.54 C196.993333,407.126667 197.573333,406.533333 197.98,405.76 C198.386667,404.986667 198.59,404.086667 198.59,403.06 C198.59,402.033333 198.386667,401.136667 197.98,400.37 C197.573333,399.603333 196.993333,399.013333 196.24,398.6 C195.486667,398.186667 194.61,397.98 193.61,397.98 C192.61,397.98 191.733333,398.186667 190.98,398.6 C190.226667,399.013333 189.643333,399.603333 189.23,400.37 C188.816667,401.136667 188.61,402.033333 188.61,403.06 C188.61,404.086667 188.816667,404.986667 189.23,405.76 C189.643333,406.533333 190.226667,407.126667 190.98,407.54 C191.733333,407.953333 192.61,408.16 193.61,408.16 Z M193.59,406.22 C192.79,406.22 192.176667,405.953333 191.75,405.42 C191.323333,404.886667 191.11,404.1 191.11,403.06 C191.11,402.033333 191.326667,401.25 191.76,400.71 C192.193333,400.17 192.81,399.9 193.61,399.9 C194.41,399.9 195.023333,400.17 195.45,400.71 C195.876667,401.25 196.09,402.033333 196.09,403.06 C196.09,404.1 195.876667,404.886667 195.45,405.42 C195.023333,405.953333 194.403333,406.22 193.59,406.22 Z M203.15,408 L203.15,402.46 C203.15,401.7 203.366667,401.093333 203.8,400.64 C204.233333,400.186667 204.81,399.96 205.53,399.96 C206.143333,399.96 206.593333,400.133333 206.88,400.48 C207.166667,400.826667 207.31,401.38 207.31,402.14 L207.31,402.14 L207.31,408 L209.81,408 L209.81,402 C209.81,400.653333 209.523333,399.646667 208.95,398.98 C208.376667,398.313333 207.503333,397.98 206.33,397.98 C205.623333,397.98 204.99,398.126667 204.43,398.42 C203.87,398.713333 203.423333,399.133333 203.09,399.68 L203.09,399.68 L203.09,398.22 L200.65,398.22 L200.65,408 L203.15,408 Z M222.47,408.14 C222.803333,408.14 223.17,408.12 223.57,408.08 L223.57,408.08 L223.69,406.22 C223.37,406.26 223.063333,406.28 222.77,406.28 C221.556667,406.28 220.95,405.626667 220.95,404.32 L220.95,404.32 L220.95,400.1 L223.53,400.1 L223.53,398.22 L220.95,398.22 L220.95,395.3 L218.45,395.3 L218.45,398.22 L216.57,398.22 L216.57,400.1 L218.45,400.1 L218.45,404.36 C218.45,405.613333 218.776667,406.556667 219.43,407.19 C220.083333,407.823333 221.096667,408.14 222.47,408.14 Z M227.65,408 L227.65,402.46 C227.65,401.7 227.866667,401.093333 228.3,400.64 C228.733333,400.186667 229.31,399.96 230.03,399.96 C230.643333,399.96 231.093333,400.133333 231.38,400.48 C231.666667,400.826667 231.81,401.38 231.81,402.14 L231.81,402.14 L231.81,408 L234.31,408 L234.31,402 C234.31,400.653333 234.023333,399.646667 233.45,398.98 C232.876667,398.313333 232.003333,397.98 230.83,397.98 C230.15,397.98 229.533333,398.116667 228.98,398.39 C228.426667,398.663333 227.983333,399.06 227.65,399.58 L227.65,399.58 L227.65,393.9 L225.15,393.9 L225.15,408 L227.65,408 Z M241.49,408.16 C242.183333,408.16 242.873333,408.046667 243.56,407.82 C244.246667,407.593333 244.816667,407.293333 245.27,406.92 L245.27,406.92 L244.55,405.2 C243.656667,405.893333 242.67,406.24 241.59,406.24 C240.723333,406.24 240.056667,406.02 239.59,405.58 C239.123333,405.14 238.85,404.466667 238.77,403.56 L238.77,403.56 L245.43,403.56 L245.43,402.86 C245.43,401.34 245.04,400.146667 244.26,399.28 C243.48,398.413333 242.416667,397.98 241.07,397.98 C240.15,397.98 239.326667,398.193333 238.6,398.62 C237.873333,399.046667 237.31,399.646667 236.91,400.42 C236.51,401.193333 236.31,402.08 236.31,403.08 C236.31,404.653333 236.773333,405.893333 237.7,406.8 C238.626667,407.706667 239.89,408.16 241.49,408.16 Z M243.29,402.22 L238.77,402.22 C238.863333,401.42 239.113333,400.806667 239.52,400.38 C239.926667,399.953333 240.463333,399.74 241.13,399.74 C241.796667,399.74 242.316667,399.95 242.69,400.37 C243.063333,400.79 243.263333,401.406667 243.29,402.22 L243.29,402.22 Z M255.51,408 L255.51,398.16 L263.07,408 L265.01,408 L265.01,393.9 L262.59,393.9 L262.59,403.72 L255.03,393.9 L253.11,393.9 L253.11,408 L255.51,408 Z M272.47,408.16 C273.163333,408.16 273.853333,408.046667 274.54,407.82 C275.226667,407.593333 275.796667,407.293333 276.25,406.92 L276.25,406.92 L275.53,405.2 C274.636667,405.893333 273.65,406.24 272.57,406.24 C271.703333,406.24 271.036667,406.02 270.57,405.58 C270.103333,405.14 269.83,404.466667 269.75,403.56 L269.75,403.56 L276.41,403.56 L276.41,402.86 C276.41,401.34 276.02,400.146667 275.24,399.28 C274.46,398.413333 273.396667,397.98 272.05,397.98 C271.13,397.98 270.306667,398.193333 269.58,398.62 C268.853333,399.046667 268.29,399.646667 267.89,400.42 C267.49,401.193333 267.29,402.08 267.29,403.08 C267.29,404.653333 267.753333,405.893333 268.68,406.8 C269.606667,407.706667 270.87,408.16 272.47,408.16 Z M274.27,402.22 L269.75,402.22 C269.843333,401.42 270.093333,400.806667 270.5,400.38 C270.906667,399.953333 271.443333,399.74 272.11,399.74 C272.776667,399.74 273.296667,399.95 273.67,400.37 C274.043333,400.79 274.243333,401.406667 274.27,402.22 L274.27,402.22 Z M282.91,408.16 C283.91,408.16 284.786667,407.953333 285.54,407.54 C286.293333,407.126667 286.873333,406.533333 287.28,405.76 C287.686667,404.986667 287.89,404.086667 287.89,403.06 C287.89,402.033333 287.686667,401.136667 287.28,400.37 C286.873333,399.603333 286.293333,399.013333 285.54,398.6 C284.786667,398.186667 283.91,397.98 282.91,397.98 C281.91,397.98 281.033333,398.186667 280.28,398.6 C279.526667,399.013333 278.943333,399.603333 278.53,400.37 C278.116667,401.136667 277.91,402.033333 277.91,403.06 C277.91,404.086667 278.116667,404.986667 278.53,405.76 C278.943333,406.533333 279.526667,407.126667 280.28,407.54 C281.033333,407.953333 281.91,408.16 282.91,408.16 Z M282.89,406.22 C282.09,406.22 281.476667,405.953333 281.05,405.42 C280.623333,404.886667 280.41,404.1 280.41,403.06 C280.41,402.033333 280.626667,401.25 281.06,400.71 C281.493333,400.17 282.11,399.9 282.91,399.9 C283.71,399.9 284.323333,400.17 284.75,400.71 C285.176667,401.25 285.39,402.033333 285.39,403.06 C285.39,404.1 285.176667,404.886667 284.75,405.42 C284.323333,405.953333 283.703333,406.22 282.89,406.22 Z M297.87,408 L297.87,402.46 C297.87,401.7 298.086667,401.093333 298.52,400.64 C298.953333,400.186667 299.53,399.96 300.25,399.96 C300.863333,399.96 301.313333,400.133333 301.6,400.48 C301.886667,400.826667 302.03,401.38 302.03,402.14 L302.03,402.14 L302.03,408 L304.53,408 L304.53,402 C304.53,400.653333 304.243333,399.646667 303.67,398.98 C303.096667,398.313333 302.223333,397.98 301.05,397.98 C300.343333,397.98 299.71,398.126667 299.15,398.42 C298.59,398.713333 298.143333,399.133333 297.81,399.68 L297.81,399.68 L297.81,398.22 L295.37,398.22 L295.37,408 L297.87,408 Z M311.71,408.16 C312.403333,408.16 313.093333,408.046667 313.78,407.82 C314.466667,407.593333 315.036667,407.293333 315.49,406.92 L315.49,406.92 L314.77,405.2 C313.876667,405.893333 312.89,406.24 311.81,406.24 C310.943333,406.24 310.276667,406.02 309.81,405.58 C309.343333,405.14 309.07,404.466667 308.99,403.56 L308.99,403.56 L315.65,403.56 L315.65,402.86 C315.65,401.34 315.26,400.146667 314.48,399.28 C313.7,398.413333 312.636667,397.98 311.29,397.98 C310.37,397.98 309.546667,398.193333 308.82,398.62 C308.093333,399.046667 307.53,399.646667 307.13,400.42 C306.73,401.193333 306.53,402.08 306.53,403.08 C306.53,404.653333 306.993333,405.893333 307.92,406.8 C308.846667,407.706667 310.11,408.16 311.71,408.16 Z M313.51,402.22 L308.99,402.22 C309.083333,401.42 309.333333,400.806667 309.74,400.38 C310.146667,399.953333 310.683333,399.74 311.35,399.74 C312.016667,399.74 312.536667,399.95 312.91,400.37 C313.283333,400.79 313.483333,401.406667 313.51,402.22 L313.51,402.22 Z M322.39,408.14 C322.723333,408.14 323.09,408.12 323.49,408.08 L323.49,408.08 L323.61,406.22 C323.29,406.26 322.983333,406.28 322.69,406.28 C321.476667,406.28 320.87,405.626667 320.87,404.32 L320.87,404.32 L320.87,400.1 L323.45,400.1 L323.45,398.22 L320.87,398.22 L320.87,395.3 L318.37,395.3 L318.37,398.22 L316.49,398.22 L316.49,400.1 L318.37,400.1 L318.37,404.36 C318.37,405.613333 318.696667,406.556667 319.35,407.19 C320.003333,407.823333 321.016667,408.14 322.39,408.14 Z M329.95,408 L332.29,401.7 L334.69,408 L336.87,408 L340.71,398.22 L338.27,398.22 L335.79,405.06 L333.29,398.22 L331.49,398.22 L328.99,405.02 L326.49,398.22 L323.93,398.22 L327.79,408 L329.95,408 Z M346.65,408.16 C347.65,408.16 348.526667,407.953333 349.28,407.54 C350.033333,407.126667 350.613333,406.533333 351.02,405.76 C351.426667,404.986667 351.63,404.086667 351.63,403.06 C351.63,402.033333 351.426667,401.136667 351.02,400.37 C350.613333,399.603333 350.033333,399.013333 349.28,398.6 C348.526667,398.186667 347.65,397.98 346.65,397.98 C345.65,397.98 344.773333,398.186667 344.02,398.6 C343.266667,399.013333 342.683333,399.603333 342.27,400.37 C341.856667,401.136667 341.65,402.033333 341.65,403.06 C341.65,404.086667 341.856667,404.986667 342.27,405.76 C342.683333,406.533333 343.266667,407.126667 344.02,407.54 C344.773333,407.953333 345.65,408.16 346.65,408.16 Z M346.63,406.22 C345.83,406.22 345.216667,405.953333 344.79,405.42 C344.363333,404.886667 344.15,404.1 344.15,403.06 C344.15,402.033333 344.366667,401.25 344.8,400.71 C345.233333,400.17 345.85,399.9 346.65,399.9 C347.45,399.9 348.063333,400.17 348.49,400.71 C348.916667,401.25 349.13,402.033333 349.13,403.06 C349.13,404.1 348.916667,404.886667 348.49,405.42 C348.063333,405.953333 347.443333,406.22 346.63,406.22 Z M356.19,408 L356.19,402.72 C356.19,401.213333 357.016667,400.373333 358.67,400.2 L358.67,400.2 L360.13,400.06 L359.97,397.96 L359.21,398.02 C357.623333,398.126667 356.576667,398.766667 356.07,399.94 L356.07,399.94 L356.07,398.22 L353.69,398.22 L353.69,408 L356.19,408 Z M363.85,408 L363.85,403.54 L368.05,408 L371.15,408 L366.43,402.92 L370.83,398.24 L367.79,398.24 L363.85,402.5 L363.85,393.9 L361.35,393.9 L361.35,408 L363.85,408 Z M374.65,408 L374.65,405.24 L371.85,405.24 L371.85,408 L374.65,408 Z" id="TherighttoclaimGAS,neededtoperformtransactionsontheNeonetwork." fill="#000033" fill-rule="nonzero"></path>
                <text id="arrow_downward---material-copy-2" transform="translate(122.158663, 184.420003) rotate(129.000000) translate(-122.158663, -184.420003) " font-family="material" font-size="51" font-weight="normal" fill="#00E599">
                    <tspan x="96.6586635" y="201.920003"></tspan>
                </text>
                <text id="arrow_downward---material-copy-2" transform="translate(294.158663, 184.420003) scale(-1, 1) rotate(129.000000) translate(-294.158663, -184.420003) " font-family="material" font-size="51" font-weight="normal" fill="#00E599">
                    <tspan x="268.658663" y="201.920003"></tspan>
                </text>
                <text id="arrow_downward---material-copy-3" transform="translate(247.658663, 127.420003) scale(-1, 1) rotate(158.000000) translate(-247.658663, -127.420003) " font-family="material" font-size="51" font-weight="normal" fill="#00E599">
                    <tspan x="222.158663" y="144.920003"></tspan>
                </text>
                <text id="arrow_downward---material-copy-3" transform="translate(173.158663, 127.420003) rotate(158.000000) translate(-173.158663, -127.420003) " font-family="material" font-size="51" font-weight="normal" fill="#00E599">
                    <tspan x="147.658663" y="144.920003"></tspan>
                </text>
                <circle id="Oval" fill="#00E599" cx="21.5" cy="21.5" r="21.5"></circle>
                <text id="2" font-family="NunitoSans-ExtraBold, Nunito Sans" font-size="24" font-weight="600" letter-spacing="-0.195121951" fill="#000033">
                    <tspan x="14" y="30">2</tspan>
                </text>
                <g id="Polygon-Copy-10">
                    <use fill="black" fill-opacity="1" filter="url(#filter-2)" xlink:href="#path-1"></use>
                    <use fill="#F0F5F6" fill-rule="evenodd" xlink:href="#path-1"></use>
                </g>
                <polygon id="Path" fill="#00E599" fill-rule="nonzero" points="182.22 221.488625 182.22 263.201129 209.582903 272.915 209.582903 230.838875 239.095 220.086087 212.30871 210.58"></polygon>
                <polygon id="Path" fill="#00AF92" fill-rule="nonzero" points="211.34 232.814483 211.34 255.136379 238.185 264.725 238.185 222.865"></polygon>
                <g id="Polygon-Copy-14">
                    <use fill="black" fill-opacity="1" filter="url(#filter-4)" xlink:href="#path-3"></use>
                    <use fill="#F0F5F6" fill-rule="evenodd" xlink:href="#path-3"></use>
                </g>
                <path d="M71.4348854,145.287 L53.113,138.708496 L53.113,112.98758 L71.4829015,106.248 L87.9663029,112.150199 L88.057,139.268528 L71.4348854,133.114581 L71.4348854,145.287 Z M54.7520652,137.454165 L69.6438805,142.83 L69.6438805,118.178261 L84.508,112.609667 L71.3983025,107.886 L54.751,114.027517 L54.7520652,137.454165 Z M71.404,131.285552 L86.419,136.824 L86.3427108,113.892 L71.4072235,119.437941 L71.404,131.285552 Z" id="Shape" fill="#00E599" fill-rule="nonzero"></path>
                <g id="Polygon-Copy-14">
                    <use fill="black" fill-opacity="1" filter="url(#filter-6)" xlink:href="#path-5"></use>
                    <use fill="#F0F5F6" fill-rule="evenodd" xlink:href="#path-5"></use>
                </g>
                <path d="M150.934885,64.287 L132.613,57.7084959 L132.613,31.9875798 L150.982901,25.248 L167.466303,31.1501993 L167.557,58.2685275 L150.934885,52.1145807 L150.934885,64.287 Z M134.252065,56.4541648 L149.143881,61.83 L149.143881,37.1782615 L164.008,31.6096672 L150.898303,26.886 L134.251,33.027517 L134.252065,56.4541648 Z M150.904,50.2855522 L165.919,55.824 L165.842711,32.892 L150.907223,38.4379409 L150.904,50.2855522 Z" id="Shape" fill="#00E599" fill-rule="nonzero"></path>
                <g id="Polygon-Copy-14">
                    <use fill="black" fill-opacity="1" filter="url(#filter-8)" xlink:href="#path-7"></use>
                    <use fill="#F0F5F6" fill-rule="evenodd" xlink:href="#path-7"></use>
                </g>
                <path d="M268.934885,64.287 L250.613,57.7084959 L250.613,31.9875798 L268.982901,25.248 L285.466303,31.1501993 L285.557,58.2685275 L268.934885,52.1145807 L268.934885,64.287 Z M252.252065,56.4541648 L267.143881,61.83 L267.143881,37.1782615 L282.008,31.6096672 L268.898303,26.886 L252.251,33.027517 L252.252065,56.4541648 Z M268.904,50.2855522 L283.919,55.824 L283.842711,32.892 L268.907223,38.4379409 L268.904,50.2855522 Z" id="Shape" fill="#00E599" fill-rule="nonzero"></path>
                <g id="Polygon-Copy-14">
                    <use fill="black" fill-opacity="1" filter="url(#filter-10)" xlink:href="#path-9"></use>
                    <use fill="#F0F5F6" fill-rule="evenodd" xlink:href="#path-9"></use>
                </g>
                <path d="M349.434885,145.287 L331.113,138.708496 L331.113,112.98758 L349.482901,106.248 L365.966303,112.150199 L366.057,139.268528 L349.434885,133.114581 L349.434885,145.287 Z M332.752065,137.454165 L347.643881,142.83 L347.643881,118.178261 L362.508,112.609667 L349.398303,107.886 L332.751,114.027517 L332.752065,137.454165 Z M349.404,131.285552 L364.419,136.824 L364.342711,113.892 L349.407223,119.437941 L349.404,131.285552 Z" id="Shape" fill="#00E599" fill-rule="nonzero"></path>
            </g>
        </g>
    </g>
</svg>