<svg viewBox="0 0 348 197" xmlns="http://www.w3.org/2000/svg"><path d="m-13.6.93h373.7v195.32h-373.7z" fill="none"/><path d="m.13 0h347.87v196.38h-347.87z" fill="#ebfdf7"/><path d="m207.36 147.66-64.4-37a5.81 5.81 0 0 1 -2.92-5v-60a2.91 2.91 0 0 1 4.35-2.52l64.4 37a5.81 5.81 0 0 1 2.92 5v60a2.91 2.91 0 0 1 -4.35 2.52z" fill="#2b393f"/><g fill="#02e49b"><path d="m143.84 116-8.08-4.68a2 2 0 0 1 -1-1.68v-9.35a1 1 0 0 1 1.45-.83l8.09 4.68a1.93 1.93 0 0 1 1 1.67v9.35a1 1 0 0 1 -1.46.84z"/><path d="m156.65 94-8.09-4.68a2 2 0 0 1 -1-1.68v-9.35a1 1 0 0 1 1.45-.84l8.08 4.68a1.92 1.92 0 0 1 1 1.67v9.35a1 1 0 0 1 -1.44.85z"/><path d="m171.38 118.57-8.08-4.68a1.92 1.92 0 0 1 -1-1.67v-9.35a1 1 0 0 1 1.45-.84l8.08 4.68a2 2 0 0 1 1 1.68v9.35a1 1 0 0 1 -1.45.83z"/><path d="m171.38 101.77-8.08-4.68a1.92 1.92 0 0 1 -1-1.67v-9.35a1 1 0 0 1 1.45-.84l8.08 4.68a2 2 0 0 1 1 1.68v9.34a1 1 0 0 1 -1.45.84z"/><path d="m186.14 127-8.08-4.67a2 2 0 0 1 -1-1.68v-9.35a1 1 0 0 1 1.46-.83l8.08 4.67a1.94 1.94 0 0 1 1 1.68v9.35a1 1 0 0 1 -1.46.83z"/><path d="m186.14 110.17-8.08-4.68a1.92 1.92 0 0 1 -1-1.67v-9.35a1 1 0 0 1 1.46-.84l8.08 4.68a1.94 1.94 0 0 1 1 1.68v9.34a1 1 0 0 1 -1.46.84z"/><path d="m200.87 134.76-8.08-4.68a1.93 1.93 0 0 1 -1-1.68v-9.34a1 1 0 0 1 1.45-.84l8.08 4.68a1.92 1.92 0 0 1 1 1.67v9.35a1 1 0 0 1 -1.45.84z"/><path d="m158.73 158.43-8.08-4.68a1.92 1.92 0 0 1 -1-1.67v-9.35a1 1 0 0 1 1.46-.84l8.08 4.68a1.94 1.94 0 0 1 1 1.68v9.35a1 1 0 0 1 -1.46.83z"/></g><path d="m164 62-8.08-4.67a2 2 0 0 1 -1-1.68v-13.32a3.71 3.71 0 0 1 5.57-3.2 9.88 9.88 0 0 1 4.93 8.56v13.52a1 1 0 0 1 -1.42.79z" fill="#d9dbdc"/><path d="m195.62 77.91-8.08-4.68a1.92 1.92 0 0 1 -1-1.67v-13.36a3.7 3.7 0 0 1 5.6-3.2 9.91 9.91 0 0 1 4.94 8.56v13.51a1 1 0 0 1 -1.46.84z" fill="#d9dbdc"/></svg>