<svg id="Layer_1" data-name="Layer 1" xmlns="http://www.w3.org/2000/svg" viewBox="0 0 348 197"><defs><style>.cls-1{fill:none;}.cls-2{fill:#ebfdf7;}.cls-3{fill:#2b393f;}.cls-4{fill:#02e49b;}.cls-5{fill:#d9dbdc;}</style></defs><title>Event</title><rect class="cls-1" x="-13.6" y="0.93" width="373.7" height="195.32"/><rect class="cls-2" x="0.13" width="347.87" height="196.38"/><path class="cls-3" d="M207.36,147.66l-64.4-37a5.81,5.81,0,0,1-2.92-5v-60a2.91,2.91,0,0,1,4.35-2.52l64.4,37a5.81,5.81,0,0,1,2.92,5v60A2.91,2.91,0,0,1,207.36,147.66Z"/><path class="cls-4" d="M143.84,116l-8.08-4.68a2,2,0,0,1-1-1.68v-9.35a1,1,0,0,1,1.45-.83l8.09,4.68a1.93,1.93,0,0,1,1,1.67v9.35A1,1,0,0,1,143.84,116Z"/><path class="cls-4" d="M156.65,94l-8.09-4.68a2,2,0,0,1-1-1.68V78.29a1,1,0,0,1,1.45-.84l8.08,4.68a1.92,1.92,0,0,1,1,1.67v9.35A1,1,0,0,1,156.65,94Z"/><path class="cls-4" d="M171.38,118.57l-8.08-4.68a1.92,1.92,0,0,1-1-1.67v-9.35a1,1,0,0,1,1.45-.84l8.08,4.68a2,2,0,0,1,1,1.68v9.35A1,1,0,0,1,171.38,118.57Z"/><path class="cls-4" d="M171.38,101.77l-8.08-4.68a1.92,1.92,0,0,1-1-1.67V86.07a1,1,0,0,1,1.45-.84l8.08,4.68a2,2,0,0,1,1,1.68v9.34A1,1,0,0,1,171.38,101.77Z"/><path class="cls-4" d="M186.14,127l-8.08-4.67a2,2,0,0,1-1-1.68v-9.35a1,1,0,0,1,1.46-.83l8.08,4.67a1.94,1.94,0,0,1,1,1.68v9.35A1,1,0,0,1,186.14,127Z"/><path class="cls-4" d="M186.14,110.17l-8.08-4.68a1.92,1.92,0,0,1-1-1.67V94.47a1,1,0,0,1,1.46-.84l8.08,4.68a1.94,1.94,0,0,1,1,1.68v9.34A1,1,0,0,1,186.14,110.17Z"/><path class="cls-4" d="M200.87,134.76l-8.08-4.68a1.93,1.93,0,0,1-1-1.68v-9.34a1,1,0,0,1,1.45-.84l8.08,4.68a1.92,1.92,0,0,1,1,1.67v9.35A1,1,0,0,1,200.87,134.76Z"/><path class="cls-4" d="M158.73,158.43l-8.08-4.68a1.92,1.92,0,0,1-1-1.67v-9.35a1,1,0,0,1,1.46-.84l8.08,4.68a1.94,1.94,0,0,1,1,1.68v9.35A1,1,0,0,1,158.73,158.43Z"/><path class="cls-5" d="M164,62l-8.08-4.67a2,2,0,0,1-1-1.68V42.33a3.71,3.71,0,0,1,5.57-3.2h0a9.88,9.88,0,0,1,4.93,8.56V61.21A1,1,0,0,1,164,62Z"/><path class="cls-5" d="M195.62,77.91l-8.08-4.68a1.92,1.92,0,0,1-1-1.67V58.2A3.7,3.7,0,0,1,192.14,55h0a9.91,9.91,0,0,1,4.94,8.56V77.07A1,1,0,0,1,195.62,77.91Z"/></svg>