<?xml version="1.0" encoding="UTF-8"?>
<svg width="683px" height="377px" viewBox="0 0 683 377" version="1.1" xmlns="http://www.w3.org/2000/svg" xmlns:xlink="http://www.w3.org/1999/xlink">
    <title>neo_color_dark</title>
    <defs>
        <filter x="-24.9%" y="-64.5%" width="149.9%" height="229.0%" filterUnits="objectBoundingBox" id="filter-1">
            <feOffset dx="-30" dy="35" in="SourceAlpha" result="shadowOffsetOuter1"></feOffset>
            <feGaussianBlur stdDeviation="15" in="shadowOffsetOuter1" result="shadowBlurOuter1"></feGaussianBlur>
            <feColorMatrix values="0 0 0 0 0.316369017   0 0 0 0 0.366987588   0 0 0 0 0.353495709  0 0 0 0.257409583 0" type="matrix" in="shadowBlurOuter1" result="shadowMatrixOuter1"></feColorMatrix>
            <feMerge>
                <feMergeNode in="shadowMatrixOuter1"></feMergeNode>
                <feMergeNode in="SourceGraphic"></feMergeNode>
            </feMerge>
        </filter>
    </defs>
    <g id="Page-1" stroke="none" stroke-width="1" fill="none" fill-rule="evenodd">
        <g id="0.3.1-Discover-NEO---Neo-Defined" transform="translate(-1031.000000, -238.000000)" fill-rule="nonzero">
            <g id="neo_color_dark" transform="translate(1123.000000, 330.000000)" filter="url(#filter-1)">
                <path d="M272.46342,60.9704612 C279.202798,66.9075322 282.572487,75.7329079 282.572487,87.1256658 L282.572487,146.335914 L267.81004,146.335914 L267.81004,92.2604299 C267.81004,82.6327472 265.724042,75.5724466 261.552046,71.2399894 C257.38005,66.9075322 251.924363,64.8215342 245.024524,64.8215342 C240.187521,64.8146536 235.412801,65.9122903 231.064384,68.0307618 C226.565945,70.4377351 222.880907,74.1227736 220.473933,78.6212128 C217.585629,83.4350541 216.301938,89.6930478 216.301938,97.0742712 L216.301938,146.335914 L201.379029,146.335914 L201.379029,56.4775426 L215.018247,62.0936908 L215.339169,68.1912232 C218.163469,62.7884325 222.669337,58.4515348 228.17608,55.8356971 C233.867673,53.0623773 240.138846,51.6871202 246.468677,51.8241626 C256.952153,51.8241626 265.617068,54.8729288 272.46342,60.9704612 Z" id="Path" fill="#000033"></path>
                <path d="M387.995612,105.578724 L318.194913,105.578724 C318.997219,115.045946 322.206447,122.266708 327.501672,127.401472 C332.796898,132.536236 339.857199,135.264079 348.361652,135.264079 C354.228758,135.427129 360.052924,134.21834 365.370558,131.733929 C369.628638,129.617091 372.905167,125.938181 374.516856,121.464401 L386.872382,128.043317 C383.507258,134.347215 378.377087,139.53315 372.109936,142.966225 C366.012403,146.496376 357.989334,148.261451 348.361652,148.261451 C334.401512,148.261451 323.490138,143.928994 315.467069,135.424541 C307.444,126.920088 303.592927,115.045946 303.592927,99.962576 C303.592927,84.8792065 307.283539,73.1655259 314.985685,64.6610729 C322.687831,56.1566198 333.278282,51.8241626 347.238422,51.8241626 C355.119188,51.6136104 362.90137,53.6147429 369.703015,57.6007722 C375.872254,61.2940685 380.834128,66.7019533 383.984078,73.1655259 C387.252386,80.0274504 388.899418,87.548896 388.797919,95.1487347 C388.770167,98.6396906 388.502097,102.124594 387.995612,105.578724 L387.995612,105.578724 Z M327.501672,72.0422963 C322.52737,76.8561376 319.478604,83.5955155 318.355374,92.4208913 L374.516856,92.4208913 C373.554088,83.7559768 370.665783,77.016599 366.012403,72.2027576 C361.359023,67.3889163 355.10103,64.8215342 347.238422,64.8215342 C339.375814,64.8215342 332.475975,67.2284549 327.501672,72.0422963 L327.501672,72.0422963 Z" id="Shape" fill="#000033"></path>
                <path d="M486.839821,64.6610729 C494.86289,73.1655259 498.874424,84.8792065 498.874424,99.962576 C498.874424,115.045946 494.86289,126.920088 486.839821,135.424541 C478.816752,143.928994 467.905378,148.261451 453.945238,148.261451 C439.985098,148.261451 429.073725,143.928994 421.050656,135.424541 C413.027587,126.920088 409.176514,115.045946 409.176514,99.962576 C409.176514,84.8792065 413.188048,73.1655259 421.050656,64.6610729 C428.913263,56.1566198 439.985098,51.8241626 453.945238,51.8241626 C467.905378,51.8241626 478.977213,56.1566198 486.839821,64.6610729 Z M431.96203,74.1282942 C426.666804,80.3862879 423.938961,89.0512023 423.938961,99.962576 C423.938961,110.87395 426.666804,119.699326 431.96203,125.957319 C437.257255,132.215313 444.638478,135.424541 453.945238,135.424541 C463.251998,135.424541 470.793683,132.215313 476.088909,125.957319 C481.384134,119.699326 483.951516,111.034411 483.951516,99.962576 C483.951516,88.8907409 481.384134,80.3862879 476.088909,74.1282942 C470.793683,67.8703004 463.41246,64.6610729 453.945238,64.6610729 C444.478017,64.6610729 437.257255,67.7098391 431.96203,74.1282942 Z" id="Shape" fill="#000033"></path>
                <polygon id="Path" fill="#00E599" points="0 34.0129497 0 162.863436 83.7608393 192.869714 83.7608393 62.8959977 174.100595 29.6804925 92.104831 0.31606029"></polygon>
                <polygon id="Path" fill="#00AF92" points="90.5002172 67.7098391 90.5002172 137.189616 174.100595 167.035432 174.100595 36.7407931"></polygon>
            </g>
        </g>
    </g>
</svg>