<?xml version="1.0" encoding="UTF-8"?>
<svg width="988px" height="573px" viewBox="0 0 988 573" version="1.1" xmlns="http://www.w3.org/2000/svg" xmlns:xlink="http://www.w3.org/1999/xlink">
    <title>编组 4</title>
    <defs>
        <rect id="path-1" x="663" y="0.893684374" width="293" height="169"></rect>
        <filter x="-11.4%" y="-6.8%" width="115.7%" height="127.2%" filterUnits="objectBoundingBox" id="filter-2">
            <feOffset dx="-11" dy="12" in="SourceAlpha" result="shadowOffsetOuter1"></feOffset>
            <feGaussianBlur stdDeviation="5.5" in="shadowOffsetOuter1" result="shadowBlurOuter1"></feGaussianBlur>
            <feColorMatrix values="0 0 0 0 0.316369017   0 0 0 0 0.366987588   0 0 0 0 0.353495709  0 0 0 0.257409583 0" type="matrix" in="shadowBlurOuter1" result="shadowMatrixOuter1"></feColorMatrix>
            <feOffset dx="-3" dy="6" in="SourceAlpha" result="shadowOffsetOuter2"></feOffset>
            <feGaussianBlur stdDeviation="2" in="shadowOffsetOuter2" result="shadowBlurOuter2"></feGaussianBlur>
            <feColorMatrix values="0 0 0 0 0   0 0 0 0 0   0 0 0 0 0  0 0 0 0.144614907 0" type="matrix" in="shadowBlurOuter2" result="shadowMatrixOuter2"></feColorMatrix>
            <feMerge>
                <feMergeNode in="shadowMatrixOuter1"></feMergeNode>
                <feMergeNode in="shadowMatrixOuter2"></feMergeNode>
            </feMerge>
        </filter>
        <rect id="path-3" x="662" y="187.893684" width="293" height="169"></rect>
        <filter x="-11.4%" y="-6.8%" width="115.7%" height="127.2%" filterUnits="objectBoundingBox" id="filter-4">
            <feOffset dx="-11" dy="12" in="SourceAlpha" result="shadowOffsetOuter1"></feOffset>
            <feGaussianBlur stdDeviation="5.5" in="shadowOffsetOuter1" result="shadowBlurOuter1"></feGaussianBlur>
            <feColorMatrix values="0 0 0 0 0.316369017   0 0 0 0 0.366987588   0 0 0 0 0.353495709  0 0 0 0.257409583 0" type="matrix" in="shadowBlurOuter1" result="shadowMatrixOuter1"></feColorMatrix>
            <feOffset dx="-3" dy="6" in="SourceAlpha" result="shadowOffsetOuter2"></feOffset>
            <feGaussianBlur stdDeviation="2" in="shadowOffsetOuter2" result="shadowBlurOuter2"></feGaussianBlur>
            <feColorMatrix values="0 0 0 0 0   0 0 0 0 0   0 0 0 0 0  0 0 0 0.144614907 0" type="matrix" in="shadowBlurOuter2" result="shadowMatrixOuter2"></feColorMatrix>
            <feMerge>
                <feMergeNode in="shadowMatrixOuter1"></feMergeNode>
                <feMergeNode in="shadowMatrixOuter2"></feMergeNode>
            </feMerge>
        </filter>
        <rect id="path-5" x="660" y="379.393684" width="293" height="169"></rect>
        <filter x="-11.4%" y="-6.8%" width="115.7%" height="127.2%" filterUnits="objectBoundingBox" id="filter-6">
            <feOffset dx="-11" dy="12" in="SourceAlpha" result="shadowOffsetOuter1"></feOffset>
            <feGaussianBlur stdDeviation="5.5" in="shadowOffsetOuter1" result="shadowBlurOuter1"></feGaussianBlur>
            <feColorMatrix values="0 0 0 0 0.316369017   0 0 0 0 0.366987588   0 0 0 0 0.353495709  0 0 0 0.257409583 0" type="matrix" in="shadowBlurOuter1" result="shadowMatrixOuter1"></feColorMatrix>
            <feOffset dx="-3" dy="6" in="SourceAlpha" result="shadowOffsetOuter2"></feOffset>
            <feGaussianBlur stdDeviation="2" in="shadowOffsetOuter2" result="shadowBlurOuter2"></feGaussianBlur>
            <feColorMatrix values="0 0 0 0 0   0 0 0 0 0   0 0 0 0 0  0 0 0 0.144614907 0" type="matrix" in="shadowBlurOuter2" result="shadowMatrixOuter2"></feColorMatrix>
            <feMerge>
                <feMergeNode in="shadowMatrixOuter1"></feMergeNode>
                <feMergeNode in="shadowMatrixOuter2"></feMergeNode>
            </feMerge>
        </filter>
    </defs>
    <g id="Page-1" stroke="none" stroke-width="1" fill="none" fill-rule="evenodd">
        <g id="Discover-S-3" transform="translate(-289.000000, -827.000000)">
            <g id="编组-5" transform="translate(289.000000, 827.000000)">
                <g id="编组-4" transform="translate(0.000000, 0.606316)">
                    <g id="Illustration" transform="translate(31.000000, 0.000000)">
                        <polygon id="Triangle" fill="#6EEDB1" transform="translate(636.000000, 88.493684) rotate(-270.000000) translate(-636.000000, -88.493684) " points="636 82.8936844 647.9 94.0936844 624.1 94.0936844"></polygon>
                        <polygon id="Triangle" fill="#00AF92" transform="translate(636.400000, 464.493684) rotate(-270.000000) translate(-636.400000, -464.493684) " points="636.4 458.893684 648.3 470.093684 624.5 470.093684"></polygon>
                        <polygon id="Triangle" fill="#00E599" transform="translate(612.000000, 277.093684) rotate(-270.000000) translate(-612.000000, -277.093684) " points="612 264.093684 669.5 290.093684 554.5 290.093684"></polygon>
                        <path d="M520.043645,-21 L520.043645,25.9 C520.043645,47.1629629 502.806608,64.4 481.543645,64.4 L401.25,64.4 C379.987037,64.4 362.75,81.6370371 362.75,102.9 L362.75,353.690186 L362.75,353.690186" id="Path-5" stroke="#6EEDB1" stroke-width="7" transform="translate(441.396822, 166.345093) scale(-1, 1) rotate(-90.000000) translate(-441.396822, -166.345093) "></path>
                        <path d="M520.543645,199 L520.543645,245.9 C520.543645,267.162963 503.306608,284.4 482.043645,284.4 L401.75,284.4 C380.487037,284.4 363.25,301.637037 363.25,322.9 L363.25,573.690186 L363.25,573.690186" id="Path-5" stroke="#00AF92" stroke-width="7" transform="translate(441.896822, 386.345093) scale(-1, -1) rotate(-90.000000) translate(-441.896822, -386.345093) "></path>
                        <line x1="254.218665" y1="276.17502" x2="599.5" y2="276.393684" id="Path-5" stroke="#00E599" stroke-width="56"></line>
                        <polygon id="Polygon-Copy-14" fill="#00E599" points="33.915 173.893684 63.2862516 190.851184 63.2862516 224.766184 33.915 241.723684 4.54374843 224.766184 4.54374843 190.851184"></polygon>
                        <path d="M33.9616428,224.433684 L18.62,218.830691 L18.62,196.923868 L34.0018486,191.183684 L47.8040557,196.210661 L47.88,219.307677 L33.9616428,214.066284 L33.9616428,224.433684 Z M19.9924545,217.762362 L32.4619632,222.341027 L32.4619632,201.344836 L44.9082813,196.601995 L33.9310105,192.578789 L19.9915625,197.809595 L19.9924545,217.762362 Z M33.9357813,212.508478 L46.5084375,217.225642 L46.4445575,197.694174 L33.9384804,202.41772 L33.9357813,212.508478 Z" id="Shape" fill="#FFFFFF" fill-rule="nonzero"></path>
                        <g id="Rectangle-Copy-3">
                            <use fill="black" fill-opacity="1" filter="url(#filter-2)" xlink:href="#path-1"></use>
                            <use fill="#F0F5F6" fill-rule="evenodd" xlink:href="#path-1"></use>
                        </g>
                        <text id="10%" font-family="WorkSans-Light, Work Sans" font-size="90" font-weight="300" fill="#000033">
                            <tspan x="679" y="106.893684">10</tspan>
                            <tspan x="765.58" y="106.893684" font-size="30">%</tspan>
                        </text>
                        <g id="Rectangle-Copy-4">
                            <use fill="black" fill-opacity="1" filter="url(#filter-4)" xlink:href="#path-3"></use>
                            <use fill="#F0F5F6" fill-rule="evenodd" xlink:href="#path-3"></use>
                        </g>
                        <text id="80%" font-family="WorkSans-Light, Work Sans" font-size="90" font-weight="300" letter-spacing="-7.7" fill="#000033">
                            <tspan x="676" y="299.893684">80</tspan>
                            <tspan x="768.42" y="299.893684" font-size="30">%</tspan>
                        </text>
                        <g id="Rectangle-Copy-6">
                            <use fill="black" fill-opacity="1" filter="url(#filter-6)" xlink:href="#path-5"></use>
                            <use fill="#F0F5F6" fill-rule="evenodd" xlink:href="#path-5"></use>
                        </g>
                        <text id="10%" font-family="WorkSans-Light, Work Sans" font-size="90" font-weight="300" fill="#000033">
                            <tspan x="676" y="495.893684">10</tspan>
                            <tspan x="762.58" y="495.893684" font-size="30">%</tspan>
                        </text>
                        <polygon id="Path-20" stroke="#000033" stroke-width="1.2019616" fill="#FFFFFF" stroke-linejoin="round" points="157 38.7980018 157 74.3992915 188.201036 92.4195188 188.201036 54.9734941"></polygon>
                        <polygon id="Path-20" stroke="#000033" stroke-width="1.2019616" fill="#FFFFFF" stroke-linejoin="round" transform="translate(203.660173, 65.608760) scale(-1, 1) translate(-203.660173, -65.608760) " points="188.059655 38.7980018 188.059655 74.3992915 219.260691 92.4195188 219.260691 54.9734941"></polygon>
                        <polygon id="Path-21" stroke="#000033" stroke-width="1.2019616" fill="#FFFFFF" stroke-linejoin="round" points="219.260691 38.7980018 188.059655 54.9734941 157 38.7980018 188.201036 21.8936844"></polygon>
                        <polygon id="Path-20" stroke="#000033" stroke-width="1.2019616" fill="#FFFFFF" stroke-linejoin="round" points="157 148.798002 157 184.399292 188.201036 202.419519 188.201036 164.973494"></polygon>
                        <polygon id="Path-20" stroke="#000033" stroke-width="1.2019616" fill="#FFFFFF" stroke-linejoin="round" transform="translate(203.660173, 175.608760) scale(-1, 1) translate(-203.660173, -175.608760) " points="188.059655 148.798002 188.059655 184.399292 219.260691 202.419519 219.260691 164.973494"></polygon>
                        <polygon id="Path-21" stroke="#000033" stroke-width="1.2019616" fill="#FFFFFF" stroke-linejoin="round" points="219.260691 148.798002 188.059655 164.973494 157 148.798002 188.201036 131.893684"></polygon>
                        <polygon id="Path-20" stroke="#000033" stroke-width="1.717088" fill="#00E599" stroke-linejoin="round" points="144.5 249.542709 144.5 300.401695 189.072909 326.144876 189.072909 272.650555"></polygon>
                        <polygon id="Path-20" stroke="#000033" stroke-width="1.717088" fill="#00E599" stroke-linejoin="round" transform="translate(211.157390, 287.843793) scale(-1, 1) translate(-211.157390, -287.843793) " points="188.870936 249.542709 188.870936 300.401695 233.443844 326.144876 233.443844 272.650555"></polygon>
                        <polygon id="Path-21" stroke="#000033" stroke-width="1.717088" fill="#00E599" stroke-linejoin="round" points="233.443844 249.542709 188.870936 272.650555 144.5 249.542709 189.072909 225.393684"></polygon>
                        <polygon id="Path-20" stroke="#000033" stroke-width="1.2019616" fill="#FFFFFF" stroke-linejoin="round" points="157 367.798002 157 403.399292 188.201036 421.419519 188.201036 383.973494"></polygon>
                        <polygon id="Path-20" stroke="#000033" stroke-width="1.2019616" fill="#FFFFFF" stroke-linejoin="round" transform="translate(203.660173, 394.608760) scale(-1, 1) translate(-203.660173, -394.608760) " points="188.059655 367.798002 188.059655 403.399292 219.260691 421.419519 219.260691 383.973494"></polygon>
                        <polygon id="Path-21" stroke="#000033" stroke-width="1.2019616" fill="#FFFFFF" stroke-linejoin="round" points="219.260691 367.798002 188.059655 383.973494 157 367.798002 188.201036 350.893684"></polygon>
                        <polygon id="Path-20" stroke="#000033" stroke-width="1.2019616" fill="#FFFFFF" stroke-linejoin="round" points="157 476.798002 157 512.399292 188.201036 530.419519 188.201036 492.973494"></polygon>
                        <polygon id="Path-20" stroke="#000033" stroke-width="1.2019616" fill="#FFFFFF" stroke-linejoin="round" transform="translate(203.660173, 503.608760) scale(-1, 1) translate(-203.660173, -503.608760) " points="188.059655 476.798002 188.059655 512.399292 219.260691 530.419519 219.260691 492.973494"></polygon>
                        <polygon id="Path-21" stroke="#000033" stroke-width="1.2019616" fill="#FFFFFF" stroke-linejoin="round" points="219.260691 476.798002 188.059655 492.973494 157 476.798002 188.201036 459.893684"></polygon>
                    </g>
                    <g id="Group-7" transform="translate(31.000000, 173.393684)"></g>
                    <g id="Group-4" transform="translate(188.000000, 131.393684)"></g>
                    <g id="Group-3" transform="translate(175.500000, 224.893684)"></g>
                    <g id="Group-2" transform="translate(188.000000, 350.393684)"></g>
                    <g id="Group" transform="translate(188.000000, 459.393684)"></g>
                    <path d="M848.203125,71.5577469 C849.588542,69.8025385 850.28125,67.1619135 850.28125,63.6358719 L850.28125,63.6358719 L850.28125,63.1827469 L851.9375,63.1827469 L851.9375,71.4014969 L854,71.4014969 L854,63.1827469 L855.75,63.1827469 L855.75,61.2452469 L850.28125,61.2452469 L850.28125,59.1514969 C852.427083,58.9327469 854.234375,58.6358719 855.703125,58.2608719 L855.703125,58.2608719 L854.8125,56.1671219 C853.135417,56.6983719 850.947917,57.0733719 848.25,57.2921219 L848.25,57.2921219 L848.25,63.5577469 C848.25,66.5056635 847.614583,68.6671219 846.34375,70.0421219 C846.947917,70.4587885 847.567708,70.9639969 848.203125,71.5577469 Z M841.96875,71.5421219 C842.697917,70.4848302 843.138021,68.7869135 843.289062,66.4483719 L843.289062,66.4483719 L847.140625,66.4483719 L847.140625,60.6358719 L843.34375,60.6358719 L843.34375,59.0733719 C844.864583,58.9796219 846.34375,58.7452469 847.78125,58.3702469 L847.78125,58.3702469 L846.890625,56.3233719 C845.276042,56.9067052 843.427083,57.2764969 841.34375,57.4327469 L841.34375,57.4327469 L841.343707,64.4584134 C841.32345,66.828912 840.943257,68.5963982 840.203125,69.7608719 C840.838542,70.3337885 841.427083,70.9275385 841.96875,71.5421219 Z M845.171875,64.6671219 L843.34375,64.6671219 L843.34375,62.4171219 L845.171875,62.4171219 L845.171875,64.6671219 Z M864.994919,71.4639969 C866.609502,71.4639969 867.69544,71.4379552 868.252731,71.3858719 C868.810023,71.3337885 869.244919,71.1319656 869.557419,70.7804031 C869.869919,70.4288406 870.026169,69.9275385 870.026169,69.2764969 L870.026169,69.2764969 L870.026169,60.8077469 L861.783981,60.8077469 C862.018356,60.4379552 862.23971,60.0577469 862.448044,59.6671219 L862.448044,59.6671219 L871.510544,59.6671219 L871.510544,57.7139969 L863.416794,57.7139969 C863.609502,57.2764969 863.791794,56.8285802 863.963669,56.3702469 L863.963669,56.3702469 L861.494919,55.9952469 C861.312627,56.5837885 861.104294,57.1567052 860.869919,57.7139969 L860.869919,57.7139969 L856.244919,57.7139969 L856.244919,59.6671219 L859.877731,59.6671219 C858.908981,61.3077469 857.651169,62.7921219 856.104294,64.1202469 C856.291794,64.9014969 856.468877,65.7139969 856.635544,66.5577469 C857.422002,65.9327469 858.161585,65.263476 858.854294,64.5499344 L858.854294,64.5499344 L858.854294,71.4327469 L861.104294,71.4327469 L861.104294,68.2608719 L867.776169,68.2608719 L867.776169,68.5264969 C867.776169,69.1098302 867.479294,69.4014969 866.885544,69.4014969 C866.11471,69.4014969 865.281377,69.3754552 864.385544,69.3233719 C864.64596,70.0421219 864.849085,70.7556635 864.994919,71.4639969 Z M867.776169,63.7764969 L861.104294,63.7764969 L861.104294,62.6358719 L867.776169,62.6358719 L867.776169,63.7764969 Z M867.776169,66.5889969 L861.104294,66.5889969 L861.104294,65.4483719 L867.776169,65.4483719 L867.776169,66.5889969 Z M875.583587,69.3936844 L875.583587,62.5108719 C875.583587,61.6410802 875.56015,60.997851 875.513275,60.5811844 L875.513275,60.5811844 L875.552337,60.5811844 C875.672129,60.8311844 875.864837,61.1593094 876.130462,61.5655594 L876.130462,61.5655594 L881.255462,69.3936844 L883.896087,69.3936844 L883.896087,57.2921219 L881.450775,57.2921219 L881.450775,64.1905594 C881.450775,65.013476 881.476817,65.5707677 881.5289,65.8624344 L881.5289,65.8624344 L881.489837,65.8624344 C881.416921,65.7270177 881.2164,65.4067052 880.888275,64.9014969 L880.888275,64.9014969 L875.950775,57.2921219 L873.138275,57.2921219 L873.138275,69.3936844 L875.583587,69.3936844 Z M893.742569,69.3936844 L893.742569,67.2843094 L889.156631,67.2843094 L889.156631,64.3546219 L893.156631,64.3546219 L893.156631,62.2530594 L889.156631,62.2530594 L889.156631,59.4014969 L893.461319,59.4014969 L893.461319,57.2921219 L886.578506,57.2921219 L886.578506,69.3936844 L893.742569,69.3936844 Z M900.690612,69.6046219 C902.466654,69.6046219 903.902852,69.0173823 904.999206,67.8429031 C906.09556,66.668424 906.643737,65.138476 906.643737,63.2530594 C906.643737,61.4457677 906.116394,59.966601 905.061706,58.8155594 C904.007019,57.6645177 902.615091,57.0889969 900.885925,57.0889969 C899.068216,57.0889969 897.605977,57.684049 896.499206,58.8741531 C895.392435,60.0642573 894.83905,61.607226 894.83905,63.5030594 C894.83905,65.294726 895.380716,66.7595698 896.46405,67.8975906 C897.547383,69.0356115 898.956237,69.6046219 900.690612,69.6046219 Z M900.737487,67.3702469 C899.747904,67.3702469 898.969258,66.996549 898.40155,66.2491531 C897.833841,65.5017573 897.549987,64.5395177 897.549987,63.3624344 C897.549987,62.169726 897.840352,61.1983719 898.421081,60.4483719 C899.00181,59.6983719 899.797383,59.3233719 900.8078,59.3233719 C901.802591,59.3233719 902.573425,59.6892573 903.1203,60.4210281 C903.667175,61.152799 903.940612,62.1488927 903.940612,63.4093094 C903.940612,64.6176427 903.659362,65.5798823 903.096862,66.2960281 C902.534362,67.012174 901.747904,67.3702469 900.737487,67.3702469 Z M907.912093,71.3858719 C908.719385,71.3858719 909.365218,71.357226 909.849593,71.2999344 C910.333968,71.2426427 910.694646,71.0512365 910.931625,70.7257156 C911.168604,70.4001948 911.287093,69.9379552 911.287093,69.3389969 L911.287093,69.3389969 L911.287093,65.2999344 L912.537093,65.0733719 C912.474593,64.1671219 912.443343,63.4796219 912.443343,63.0108719 L912.443343,63.0108719 L911.287093,63.2296219 L911.287093,60.8389969 L912.693343,60.8389969 L912.693343,58.8858719 L911.287093,58.8858719 L911.287093,56.1983719 L909.130843,56.1983719 L909.130843,58.8858719 L907.505843,58.8858719 L907.505843,60.8389969 L909.130843,60.8389969 L909.130843,63.5968094 C908.521468,63.6957677 907.95376,63.7817052 907.427718,63.8546219 L907.427718,63.8546219 L907.552718,66.0733719 L909.130843,65.7296219 L909.130843,68.7296219 C909.130843,69.1462885 908.979802,69.3546219 908.677718,69.3546219 C908.443343,69.3546219 908.04751,69.3389969 907.490218,69.3077469 C907.646468,70.0160802 907.787093,70.7087885 907.912093,71.3858719 Z M922.958968,63.0108719 L922.958968,61.1358719 L918.771468,61.1358719 L918.771468,59.8546219 L921.974593,59.8546219 L921.974593,57.9796219 L918.771468,57.9796219 L918.771468,56.1983719 L916.615218,56.1983719 L916.615218,57.9796219 L913.490218,57.9796219 L913.490218,59.8546219 L916.615218,59.8546219 L916.615218,61.1358719 L912.693343,61.1358719 L912.693343,63.0108719 L922.958968,63.0108719 Z M916.162093,71.4952469 C917.344385,71.4848302 918.254541,71.4457677 918.892562,71.3780594 C919.530583,71.310351 920.034489,71.0421219 920.404281,70.5733719 C920.774073,70.1046219 920.958968,69.4327469 920.958968,68.5577469 L920.958968,68.5577469 L920.958968,66.1671219 L922.787093,66.1671219 L922.787093,64.2921219 L920.958968,64.2921219 L920.958968,63.3233719 L918.802718,63.3233719 L918.802718,64.2921219 L912.787093,64.2921219 L912.787093,66.1671219 L914.435531,66.1671219 L913.443343,66.9171219 C914.182927,67.8129552 914.781885,68.5942052 915.240218,69.2608719 L915.240218,69.2608719 L916.880843,68.1046219 C916.417302,67.4848302 915.873031,66.8389969 915.248031,66.1671219 L915.248031,66.1671219 L918.802718,66.1671219 L918.802718,68.2296219 C918.802718,69.0837885 918.45376,69.5108719 917.755843,69.5108719 C917.151677,69.5108719 916.474593,69.4900385 915.724593,69.4483719 C915.880843,70.0733719 916.026677,70.7556635 916.162093,71.4952469 Z M932.157012,71.4639969 C933.771596,71.4639969 934.857533,71.4379552 935.414825,71.3858719 C935.972116,71.3337885 936.407012,71.1319656 936.719512,70.7804031 C937.032012,70.4288406 937.188262,69.9275385 937.188262,69.2764969 L937.188262,69.2764969 L937.188262,60.8077469 L928.946075,60.8077469 C929.18045,60.4379552 929.401804,60.0577469 929.610137,59.6671219 L929.610137,59.6671219 L938.672637,59.6671219 L938.672637,57.7139969 L930.578887,57.7139969 C930.771596,57.2764969 930.953887,56.8285802 931.125762,56.3702469 L931.125762,56.3702469 L928.657012,55.9952469 C928.474721,56.5837885 928.266387,57.1567052 928.032012,57.7139969 L928.032012,57.7139969 L923.407012,57.7139969 L923.407012,59.6671219 L927.039825,59.6671219 C926.071075,61.3077469 924.813262,62.7921219 923.266387,64.1202469 C923.453887,64.9014969 923.630971,65.7139969 923.797637,66.5577469 C924.584096,65.9327469 925.323679,65.263476 926.016387,64.5499344 L926.016387,64.5499344 L926.016387,71.4327469 L928.266387,71.4327469 L928.266387,68.2608719 L934.938262,68.2608719 L934.938262,68.5264969 C934.938262,69.1098302 934.641387,69.4014969 934.047637,69.4014969 C933.276804,69.4014969 932.443471,69.3754552 931.547637,69.3233719 C931.808054,70.0421219 932.011179,70.7556635 932.157012,71.4639969 Z M934.938262,63.7764969 L928.266387,63.7764969 L928.266387,62.6358719 L934.938262,62.6358719 L934.938262,63.7764969 Z M934.938262,66.5889969 L928.266387,66.5889969 L928.266387,65.4483719 L934.938262,65.4483719 L934.938262,66.5889969 Z M943.558181,71.5108719 L943.558181,70.8546219 L950.855056,70.8546219 L950.855056,71.5108719 L952.980056,71.5108719 L952.980056,63.4639969 L947.519118,63.4639969 C948.196202,63.1098302 948.852452,62.7139969 949.487868,62.2764969 L949.487868,62.2764969 L954.698806,62.2764969 L954.698806,60.4327469 L951.815993,60.4327469 C952.623285,59.6983719 953.396723,58.8910802 954.136306,58.0108719 L954.136306,58.0108719 L952.558181,56.8077469 C951.912348,57.6358719 951.230056,58.404101 950.511306,59.1124344 L950.511306,59.1124344 L950.511306,57.4014969 L946.761306,57.4014969 L946.761306,56.0108719 L944.636306,56.0108719 L944.636306,57.4014969 L940.526931,57.4014969 L940.526931,59.2452469 L944.636306,59.2452469 L944.636306,60.4327469 L939.261306,60.4327469 L939.261306,62.2764969 L946.190993,62.2764969 C944.352452,63.1723302 942.000889,63.8806635 939.136306,64.4014969 C939.417556,65.1410802 939.631098,65.7921219 939.776931,66.3546219 C940.344639,66.1983719 940.896723,66.0369135 941.433181,65.8702469 L941.433181,65.8702469 L941.433181,71.5108719 L943.558181,71.5108719 Z M949.026931,60.4327469 L946.761306,60.4327469 L946.761306,59.2452469 L950.370681,59.2452469 C949.938389,59.6619135 949.490473,60.0577469 949.026931,60.4327469 L949.026931,60.4327469 Z M950.855056,66.3077469 L943.558181,66.3077469 L943.558181,65.2139969 L950.855056,65.2139969 L950.855056,66.3077469 Z M950.855056,69.1046219 L943.558181,69.1046219 L943.558181,68.0108719 L950.855056,68.0108719 L950.855056,69.1046219 Z M855.34375,93.2296219 L855.34375,89.7921219 L851.710938,89.7921219 L851.078125,87.9952469 L848.765625,88.4483719 C848.911458,88.7608719 849.083333,89.2087885 849.28125,89.7921219 L849.28125,89.7921219 L845.71875,89.7921219 L845.71875,93.1671219 L847.8125,93.1671219 L847.8125,91.6983719 L853.25,91.6983719 L853.25,93.2296219 L855.34375,93.2296219 Z M840.6875,103.432747 C841.911458,103.396289 842.639323,103.344205 842.871094,103.276497 C843.102865,103.208789 843.309896,103.099414 843.492188,102.948372 C843.674479,102.79733 843.815104,102.590299 843.914062,102.327278 C844.013021,102.064257 844.0625,101.750455 844.0625,101.385872 L844.0625,101.385872 L844.0625,97.4718094 L845.09375,97.1983719 C845.041667,96.6358719 845.03125,95.9275385 845.0625,95.0733719 C844.729167,95.1723302 844.395833,95.2660802 844.0625,95.3546219 L844.0625,95.3546219 L844.0625,93.0264969 L845.1875,93.0264969 L845.1875,91.0264969 L844.0625,91.0264969 L844.0625,88.1358719 L842,88.1358719 L842,91.0264969 L840.4375,91.0264969 L840.4375,93.0264969 L842,93.0264969 L842,95.8702469 C841.395833,96.0056635 840.796875,96.1306635 840.203125,96.2452469 L840.203125,96.2452469 L840.5625,98.4639969 L842,98.0499344 L842,100.667122 C842,100.937955 841.946615,101.128059 841.839844,101.237434 C841.733073,101.346809 841.526042,101.401497 841.21875,101.401497 C840.942708,101.401497 840.630208,101.385872 840.28125,101.354622 C840.458333,102.000455 840.59375,102.693164 840.6875,103.432747 Z M845.859375,103.620247 C847.942708,103.193164 849.653646,102.456184 850.992188,101.409309 C852.122396,102.081184 853.270833,102.812955 854.4375,103.604622 L854.4375,103.604622 L855.6875,101.792122 C854.526042,101.130664 853.442708,100.531705 852.4375,99.9952469 C853.3125,98.9171219 853.924479,97.6202469 854.273438,96.1046219 L854.273438,96.1046219 L855.6875,96.1046219 L855.6875,94.2296219 L850.195312,94.2296219 L850.71875,92.8546219 L848.59375,92.2764969 C848.416667,92.9535802 848.223958,93.6046219 848.015625,94.2296219 L848.015625,94.2296219 L845.46875,94.2296219 L845.46875,96.1046219 L847.320312,96.1046219 C846.919271,97.0629552 846.473958,97.9483719 845.984375,98.7608719 C846.942708,99.2035802 847.921875,99.6931635 848.921875,100.229622 C847.802083,100.875455 846.395833,101.349414 844.703125,101.651497 C845.151042,102.29733 845.536458,102.95358 845.859375,103.620247 Z M850.523438,99.0030594 C849.799479,98.638476 849.125,98.3129552 848.5,98.0264969 C848.802083,97.4483719 849.106771,96.8077469 849.414062,96.1046219 L849.414062,96.1046219 L852.054688,96.1046219 C851.809896,97.2296219 851.299479,98.1957677 850.523438,99.0030594 Z M868.073044,103.167122 C868.692835,103.167122 869.217575,103.090299 869.647262,102.936653 C870.07695,102.783007 870.401169,102.566861 870.619919,102.288216 C870.838669,102.00957 871.031377,101.504361 871.198044,100.772591 C871.36471,100.04082 871.500127,99.1827469 871.604294,98.1983719 C870.875127,97.9796219 870.099085,97.7139969 869.276169,97.4014969 C869.130335,99.2348302 868.992315,100.294726 868.862106,100.581184 C868.731898,100.867643 868.463669,101.010872 868.057419,101.010872 L868.057419,101.010872 L866.963669,101.010872 C866.432419,101.010872 866.166794,100.682747 866.166794,100.026497 L866.166794,100.026497 L866.166794,96.6593094 C868.026169,95.1645177 869.838669,93.5733719 871.604294,91.8858719 L871.604294,91.8858719 L869.573044,90.2921219 C868.432419,91.5994135 867.297002,92.7921219 866.166794,93.8702469 L866.166794,93.8702469 L866.166794,88.1046219 L863.854294,88.1046219 L863.854294,100.776497 C863.854294,102.370247 864.604294,103.167122 866.104294,103.167122 L866.104294,103.167122 L868.073044,103.167122 Z M857.682419,103.698372 C858.974085,103.000455 860.776169,102.29733 863.088669,101.588997 C863.036585,100.838997 863.02096,100.052539 863.041794,99.2296219 L863.041794,99.2296219 L859.416794,100.463997 L859.416794,94.9171219 L862.994919,94.9171219 L862.994919,92.7608719 L859.416794,92.7608719 L859.416794,88.2921219 L857.104294,88.2921219 L857.104294,100.479622 C857.104294,101.115039 856.922002,101.573372 856.557419,101.854622 L856.557419,101.854622 L857.682419,103.698372 Z M875.317962,103.401497 L875.317962,91.5186844 C875.630462,90.529101 875.901296,89.5212885 876.130462,88.4952469 L876.130462,88.4952469 L874.302337,88.1358719 C873.812754,90.5525385 873.041921,92.8910802 871.989837,95.1514969 C872.239837,96.4431635 872.406504,97.4119135 872.489837,98.0577469 C872.844004,97.4275385 873.177337,96.7869135 873.489837,96.1358719 L873.489837,96.1358719 L873.489837,103.401497 L875.317962,103.401497 Z M882.692962,103.260872 C883.729421,103.286914 884.530202,103.273893 885.095306,103.221809 C885.66041,103.169726 886.099212,102.95358 886.411712,102.573372 C886.724212,102.193164 886.880462,101.646289 886.880462,100.932747 L886.880462,100.932747 L886.880462,88.3077469 L884.927337,88.3077469 L884.927337,100.182747 C884.927337,100.849414 884.666921,101.182747 884.146087,101.182747 C883.719004,101.182747 883.104421,101.156705 882.302337,101.104622 C882.489837,101.948372 882.620046,102.667122 882.692962,103.260872 Z M877.067962,103.448372 C880.078379,101.365039 881.583587,97.6410802 881.583587,92.2764969 L881.583587,92.2764969 L878.771087,92.2764969 C878.880462,91.7817052 878.971608,91.2712885 879.044525,90.7452469 L879.044525,90.7452469 L881.677337,90.7452469 L881.677337,88.8389969 L876.208587,88.8389969 L876.208587,90.7452469 L877.130462,90.7452469 C876.880462,92.8389969 876.302337,94.6723302 875.396087,96.2452469 C875.791921,96.9639969 876.120046,97.6098302 876.380462,98.1827469 C876.604421,97.8650385 876.812754,97.529101 877.005462,97.1749344 C877.536712,97.6176427 878.034108,98.0811844 878.49765,98.5655594 C877.815358,99.888476 876.828379,100.995247 875.536712,101.885872 C876.151296,102.448372 876.661712,102.969205 877.067962,103.448372 Z M883.974212,99.9639969 L883.974212,89.4796219 L882.224212,89.4796219 L882.224212,99.9639969 L883.974212,99.9639969 Z M879.24765,96.6202469 C878.7789,96.2452469 878.299733,95.8754552 877.81015,95.5108719 C877.987233,95.0785802 878.148692,94.6306635 878.294525,94.1671219 L878.294525,94.1671219 L879.630462,94.1671219 C879.578379,95.0421219 879.450775,95.8598302 879.24765,96.6202469 Z M889.719131,103.573372 C890.786839,103.10983 891.673558,102.562955 892.379287,101.932747 C893.085017,101.302539 893.603246,100.596809 893.933975,99.8155594 C894.264704,99.0343094 894.474339,97.9119135 894.562881,96.4483719 L894.562881,96.4483719 L898.422256,96.4483719 C898.359756,98.7452469 898.280329,100.053841 898.183975,100.374153 C898.087621,100.694466 897.859756,100.854622 897.500381,100.854622 C896.896214,100.854622 895.917048,100.79733 894.562881,100.682747 C894.687881,101.39108 894.797256,102.177539 894.891006,103.042122 C895.844131,103.073372 896.857152,103.088997 897.930069,103.088997 C898.716527,103.088997 899.328506,102.900195 899.766006,102.522591 C900.203506,102.144986 900.461319,101.60983 900.539444,100.917122 C900.617569,100.224414 900.726944,98.2139969 900.867569,94.8858719 C901.226944,95.2087885 901.599339,95.5212885 901.984756,95.8233719 C902.547256,95.0317052 903.047256,94.3650385 903.484756,93.8233719 C901.297256,92.3337885 899.536839,90.4379552 898.203506,88.1358719 L898.203506,88.1358719 L896.266006,89.1358719 C897.307673,91.0317052 898.627985,92.7504552 900.226944,94.2921219 L900.226944,94.2921219 L891.086319,94.2921219 C892.732152,92.8233719 894.099339,91.0629552 895.187881,89.0108719 L895.187881,89.0108719 L893.094131,88.1046219 C891.896214,90.3858719 890.120173,92.3546219 887.766006,94.0108719 C888.234756,94.5108719 888.708714,95.0994135 889.187881,95.7764969 C889.458714,95.5942052 889.724339,95.404101 889.984756,95.2061844 L889.984756,95.2061844 L889.984756,96.4483719 L892.211319,96.4483719 C892.122777,97.5889969 891.946996,98.4132156 891.683975,98.9210281 C891.420954,99.4288406 890.988662,99.9080073 890.3871,100.358528 C889.785537,100.809049 889.021214,101.219205 888.094131,101.588997 C888.531631,102.04733 889.073298,102.708789 889.719131,103.573372 Z M919.042175,91.0108719 L919.042175,89.3546219 L912.917175,89.3546219 C912.760925,88.9067052 912.583841,88.4379552 912.385925,87.9483719 L912.385925,87.9483719 L909.8703,88.3233719 C910.02655,88.6775385 910.172383,89.0212885 910.3078,89.3546219 L910.3078,89.3546219 L903.948425,89.3546219 L903.948425,91.0108719 L919.042175,91.0108719 Z M917.198425,95.5264969 L917.198425,91.6827469 L905.6203,91.6827469 L905.6203,95.5264969 L917.198425,95.5264969 Z M915.104675,94.0264969 L907.71405,94.0264969 L907.71405,93.1827469 L915.104675,93.1827469 L915.104675,94.0264969 Z M909.338332,103.400779 C909.86448,103.400142 910.342584,103.399079 910.772644,103.397591 C911.525248,103.394986 912.096862,103.221809 912.487487,102.878059 C912.878112,102.534309 913.073425,102.010872 913.073425,101.307747 L913.073425,101.307747 L913.073425,100.557747 L919.167175,100.557747 L919.167175,98.8702469 L914.667175,98.8702469 L917.604675,97.9483719 L917.604675,96.1983719 L904.948425,96.1983719 L904.948425,97.8233719 L914.073425,97.8233719 L910.948425,98.6671219 L910.948425,98.8702469 L903.823425,98.8702469 L903.823425,100.557747 L910.948425,100.557747 C910.948425,100.901497 910.871602,101.146289 910.717956,101.292122 C910.56431,101.437955 910.27655,101.510872 909.854675,101.510872 C909.141133,101.510872 908.391133,101.490039 907.604675,101.448372 C907.823425,102.187955 907.979675,102.838997 908.073425,103.401497 L908.073425,103.401497 L909.338332,103.400779 Z" id="所有NEO持有者按比例分享" fill="#000033" fill-rule="nonzero"></path>
                    <path d="M855.796875,259.963997 L855.796875,258.182747 L851.546875,258.182747 L851.546875,256.823372 L855.109375,256.823372 L855.109375,255.042122 L851.546875,255.042122 L851.546875,253.917122 L855.03125,253.917122 L855.03125,245.807747 L846.0625,245.807747 L846.0625,253.917122 L849.546875,253.917122 L849.546875,255.042122 L845.984375,255.042122 L845.984375,256.823372 L849.546875,256.823372 L849.546875,258.182747 L845.671875,258.182747 C845.640625,257.495247 845.645833,256.781705 845.6875,256.042122 C845.161458,256.198372 844.619792,256.352018 844.0625,256.503059 L844.0625,256.503059 L844.0625,253.167122 L845.515625,253.167122 L845.515625,251.229622 L844.0625,251.229622 L844.0625,247.948372 L845.625,247.948372 L845.625,245.979622 L840.5,245.979622 L840.5,247.948372 L842.0625,247.948372 L842.0625,251.229622 L840.5625,251.229622 L840.5625,253.167122 L842.0625,253.167122 L842.0625,257.010872 L840.203125,257.432747 L840.640625,259.651497 C842.223958,259.14108 843.703125,258.695768 845.078125,258.315559 L845.078125,258.315559 L845.078125,259.963997 L855.796875,259.963997 Z M853.078125,249.042122 L851.546875,249.042122 L851.546875,247.557747 L853.078125,247.557747 L853.078125,249.042122 Z M849.546875,249.042122 L848.015625,249.042122 L848.015625,247.557747 L849.546875,247.557747 L849.546875,249.042122 Z M853.078125,252.167122 L851.546875,252.167122 L851.546875,250.667122 L853.078125,250.667122 L853.078125,252.167122 Z M849.546875,252.167122 L848.015625,252.167122 L848.015625,250.667122 L849.546875,250.667122 L849.546875,252.167122 Z M861.698044,260.369813 C861.763727,260.369765 861.827046,260.369712 861.888003,260.369656 L862.506059,260.368788 C862.548111,260.3687 862.587801,260.368607 862.625127,260.368511 L862.820729,260.367884 C862.848603,260.367771 862.874114,260.367655 862.897262,260.367534 L863.007795,260.366763 L863.007795,260.366763 L863.041794,260.366341 C863.203252,260.363736 863.467575,260.286914 863.834762,260.135872 C864.20195,259.98483 864.47669,259.746549 864.658981,259.421028 C864.841273,259.095507 864.932419,258.693164 864.932419,258.213997 L864.932419,258.213997 L864.932419,257.760872 L868.276169,257.760872 L868.276169,258.463997 L870.369919,258.463997 L870.369919,255.682747 L871.588669,255.682747 L871.588669,254.276497 L870.369919,254.276497 L870.369919,252.213997 L864.932419,252.213997 L864.932419,251.495247 L870.151169,251.495247 L870.151169,248.198372 L864.932419,248.198372 L864.932419,247.495247 L871.479294,247.495247 L871.479294,246.088997 L864.932419,246.088997 L864.932419,245.073372 L862.807419,245.073372 L862.807419,246.088997 L856.276169,246.088997 L856.276169,247.495247 L862.807419,247.495247 L862.807419,248.198372 L857.619919,248.198372 L857.619919,251.495247 L862.807419,251.495247 L862.807419,252.213997 L857.166794,252.213997 L857.166794,253.557747 L862.807419,253.557747 L862.807419,254.276497 L856.166794,254.276497 L856.166794,255.682747 L862.807419,255.682747 L862.807419,256.417122 L857.135544,256.417122 L857.135544,257.760872 L862.807419,257.760872 C862.797002,258.271289 862.515752,258.526497 861.963669,258.526497 C861.609502,258.526497 860.937627,258.479622 859.948044,258.385872 C860.093877,259.083789 860.198044,259.745247 860.260544,260.370247 L860.260544,260.370247 L861.698044,260.369813 Z M868.119919,250.245247 L864.932419,250.245247 L864.932419,249.448372 L868.119919,249.448372 L868.119919,250.245247 Z M862.807419,250.245247 L859.651169,250.245247 L859.651169,249.448372 L862.807419,249.448372 L862.807419,250.245247 Z M868.276169,254.276497 L864.932419,254.276497 L864.932419,253.557747 L868.276169,253.557747 L868.276169,254.276497 Z M868.276169,256.417122 L864.932419,256.417122 L864.932419,255.682747 L868.276169,255.682747 L868.276169,256.417122 Z M886.114837,252.510872 C886.500254,251.958789 886.969004,251.344205 887.521087,250.667122 C884.531504,249.281705 882.364837,247.604622 881.021087,245.635872 L881.021087,245.635872 L881.458587,245.104622 L878.771087,245.104622 C877.646087,246.990039 875.375254,248.833789 871.958587,250.635872 C872.594004,251.437955 873.062754,252.052539 873.364837,252.479622 C874.146087,252.021289 874.875254,251.562955 875.552337,251.104622 L875.552337,251.104622 L875.552337,252.260872 L883.927337,252.260872 L883.927337,251.198372 C884.604421,251.656705 885.333587,252.094205 886.114837,252.510872 Z M882.739837,250.323372 L876.614837,250.323372 C877.958587,249.312955 879.000254,248.323372 879.739837,247.354622 C880.562754,248.417122 881.562754,249.406705 882.739837,250.323372 L882.739837,250.323372 Z M884.333587,260.745247 L886.239837,259.588997 C885.094004,258.088997 884.026296,256.740039 883.036712,255.542122 L883.036712,255.542122 L886.927337,255.542122 L886.927337,253.573372 L872.583587,253.573372 L872.583587,255.542122 L876.442962,255.542122 C875.505462,256.771289 874.557546,257.729622 873.599212,258.417122 L873.599212,258.417122 L874.536712,260.307747 C875.182546,260.182747 875.729421,260.104622 876.177337,260.073372 C879.156504,259.896289 881.635671,259.771289 883.614837,259.698372 C883.864837,260.062955 884.104421,260.411914 884.333587,260.745247 L884.333587,260.745247 Z M877.347337,257.900872 L877.099212,257.901497 C877.932546,257.01608 878.620046,256.229622 879.161712,255.542122 L879.161712,255.542122 L882.458587,255.542122 L881.114837,256.354622 C881.489837,256.844205 881.844004,257.312955 882.177337,257.760872 C880.000254,257.854622 878.307546,257.901497 877.099212,257.901497 L877.347337,257.900872 Z M895.812881,260.542122 C896.646214,259.896289 897.437881,259.167122 898.187881,258.354622 C898.932673,259.771289 899.872777,260.479622 901.008194,260.479622 C901.388402,260.479622 901.766006,260.352018 902.141006,260.096809 C902.516006,259.841601 902.818089,259.255664 903.047256,258.338997 C903.276423,257.42233 903.406631,256.682747 903.437881,256.120247 C902.573298,255.755664 901.906631,255.437955 901.437881,255.167122 C901.432673,255.604622 901.383194,256.124153 901.289444,256.725716 C901.195694,257.327278 901.109756,257.70358 901.031631,257.854622 C900.953506,258.005664 900.854548,258.081184 900.734756,258.081184 C900.422256,258.081184 900.070694,257.573372 899.680069,256.557747 C900.83111,255.010872 901.864964,253.224414 902.781631,251.198372 L902.781631,251.198372 L900.859756,250.307747 C900.323298,251.54733 899.711319,252.695768 899.023819,253.753059 C898.851944,252.565559 898.739964,251.161914 898.687881,249.542122 L898.687881,249.542122 L903.172256,249.542122 L903.172256,247.667122 L901.453506,247.667122 L902.656631,247.010872 C901.979548,246.167122 901.458714,245.54733 901.094131,245.151497 L901.094131,245.151497 L899.453506,246.042122 C900.062881,246.760872 900.505589,247.302539 900.781631,247.667122 L900.781631,247.667122 L898.648819,247.667122 L898.625381,245.088997 L896.406631,245.088997 L896.476944,247.667122 L889.141006,247.667122 L889.141006,252.963997 C889.130589,255.588997 888.693089,257.604622 887.828506,259.010872 C888.484756,259.490039 889.099339,260.000455 889.672256,260.542122 C890.677464,258.932747 891.187881,256.510872 891.203506,253.276497 L891.203506,253.276497 L893.484756,253.276497 C893.484756,254.14108 893.446996,254.849414 893.371475,255.401497 C893.295954,255.95358 892.979548,256.229622 892.422256,256.229622 C892.135798,256.229622 891.745173,256.182747 891.250381,256.088997 C891.396214,256.724414 891.521214,257.48483 891.625381,258.370247 C893.057673,258.432747 893.946996,258.342903 894.29335,258.100716 C894.639704,257.858528 894.922256,257.54733 895.141006,257.167122 C895.359756,256.786914 895.500381,255.767382 895.562881,254.108528 C895.625381,252.449674 895.656631,251.542122 895.656631,251.385872 L895.656631,251.385872 L891.203506,251.385872 L891.203506,249.542122 L896.555069,249.542122 C896.690485,252.292122 896.948298,254.448372 897.328506,256.010872 C896.385798,257.099414 895.338923,258.057747 894.187881,258.885872 C894.771214,259.375455 895.312881,259.927539 895.812881,260.542122 Z M917.323425,250.620247 L917.323425,245.620247 L905.71405,245.620247 L905.71405,250.620247 L917.323425,250.620247 Z M915.073425,248.760872 L907.96405,248.760872 L907.96405,247.479622 L915.073425,247.479622 L915.073425,248.760872 Z M907.292175,257.042122 L907.292175,253.573372 L915.792175,253.573372 L915.792175,256.792122 L917.979675,256.792122 L917.979675,251.698372 L905.104675,251.698372 L905.104675,257.042122 L907.292175,257.042122 Z M904.854675,260.557747 C907.927591,260.151497 910.122904,259.195768 911.440612,257.690559 C913.893737,258.695768 916.016133,259.646289 917.8078,260.542122 L917.8078,260.542122 L919.010925,258.542122 C917.000508,257.698372 914.818216,256.854622 912.46405,256.010872 C912.677591,255.463997 912.818216,254.870247 912.885925,254.229622 L912.885925,254.229622 L910.635925,254.229622 C910.563008,256.635872 908.281758,258.031705 903.792175,258.417122 C904.229675,259.240039 904.583841,259.95358 904.854675,260.557747 Z M922.365218,260.323372 L922.365218,259.104622 L924.583968,259.104622 L924.583968,260.229622 L926.755843,260.229622 L926.755843,250.924934 C927.490218,251.242643 928.104802,251.562955 928.599593,251.885872 C928.98501,251.198372 929.349593,250.490039 929.693343,249.760872 L929.693343,249.760872 L932.412093,249.760872 C932.412093,250.380664 932.401677,251.187955 932.380843,252.182747 L932.380843,252.182747 L932.310531,255.378059 C932.284489,256.513476 932.250635,257.154101 932.208968,257.299934 C932.167302,257.445768 932.087875,257.577278 931.970687,257.694466 C931.8535,257.811653 931.70376,257.898893 931.521468,257.956184 C931.339177,258.013476 931.123031,258.042122 930.873031,258.042122 C930.003239,258.042122 929.182927,258.010872 928.412093,257.948372 C928.651677,258.604622 928.849593,259.39108 929.005843,260.307747 C930.729802,260.307747 931.848291,260.263476 932.361312,260.174934 C932.874333,260.086393 933.274073,259.919726 933.560531,259.674934 C933.846989,259.430143 934.057927,259.113736 934.193343,258.725716 C934.32876,258.337695 934.409489,257.659309 934.435531,256.690559 L934.435531,256.690559 L934.615218,247.698372 L930.583968,247.698372 C930.844385,247.036914 931.089177,246.35983 931.318343,245.667122 L931.318343,245.667122 L929.162093,245.104622 C928.396468,247.406705 927.594385,249.260872 926.755843,250.667122 L926.755843,250.667122 L926.755843,247.620247 L924.099593,247.620247 L924.802718,245.495247 L922.474593,245.135872 C922.354802,245.771289 922.143864,246.599414 921.841781,247.620247 L921.841781,247.620247 L920.193343,247.620247 L920.193343,260.323372 L922.365218,260.323372 Z M924.583968,252.338997 L922.365218,252.338997 L922.365218,249.667122 L924.583968,249.667122 L924.583968,252.338997 Z M929.662093,256.213997 L931.630843,254.901497 C930.76626,253.620247 929.958968,252.531705 929.208968,251.635872 L929.208968,251.635872 L927.396468,252.885872 C928.115218,253.802539 928.870427,254.911914 929.662093,256.213997 L929.662093,256.213997 Z M924.583968,257.057747 L922.365218,257.057747 L922.365218,254.385872 L924.583968,254.385872 L924.583968,257.057747 Z M936.141387,260.432747 C937.761179,260.417122 938.707793,260.206184 938.981231,259.799934 C939.254668,259.393684 939.391387,258.917122 939.391387,258.370247 L939.391387,258.370247 L939.391387,254.284309 L940.735137,253.963997 C940.724721,253.495247 940.745554,252.812955 940.797637,251.917122 L940.797637,251.917122 L939.391387,252.221809 L939.391387,249.870247 L940.891387,249.870247 L940.891387,247.838997 L939.391387,247.838997 L939.391387,245.088997 L937.375762,245.088997 L937.375762,247.838997 L935.688262,247.838997 L935.688262,249.870247 L937.375762,249.870247 L937.375762,252.628059 L935.469512,252.979622 L935.688262,255.213997 L937.375762,254.784309 L937.375762,257.588997 C937.375762,257.89108 937.322377,258.092903 937.215606,258.194466 C937.108835,258.296028 936.873158,258.346809 936.508575,258.346809 C936.248158,258.346809 935.948679,258.333789 935.610137,258.307747 C935.860137,259.20358 936.037221,259.911914 936.141387,260.432747 Z M942.360137,251.385872 C943.745554,250.469205 944.422637,249.177539 944.391387,247.510872 L944.391387,247.510872 L946.907012,247.510872 L946.907012,248.995247 C946.907012,249.557747 947.045033,249.979622 947.321075,250.260872 C947.597116,250.542122 948.013783,250.682747 948.571075,250.682747 L948.571075,250.682747 L950.532012,250.667122 C950.594512,250.229622 950.724721,249.588997 950.922637,248.745247 C950.146596,248.771289 949.62446,248.756966 949.356231,248.702278 C949.088002,248.647591 948.953887,248.427539 948.953887,248.042122 L948.953887,248.042122 L948.953887,245.604622 L942.375762,245.604622 C942.422637,247.068164 942.318471,248.066861 942.063262,248.600716 C941.808054,249.13457 941.354929,249.615039 940.703887,250.042122 C941.308054,250.510872 941.860137,250.958789 942.360137,251.385872 Z M941.219512,260.557747 C942.891387,260.000455 944.362741,259.292122 945.633575,258.432747 C946.784616,259.250455 948.052846,259.92233 949.438262,260.448372 C949.802846,259.906705 950.318471,259.219205 950.985137,258.385872 C949.672637,258.021289 948.490346,257.552539 947.438262,256.979622 C948.521596,255.943164 949.391387,254.745247 950.047637,253.385872 L950.047637,253.385872 L950.047637,251.495247 L941.313262,251.495247 L941.313262,253.432747 L947.610137,253.432747 C947.130971,254.318164 946.474721,255.10983 945.641387,255.807747 C944.761179,255.125455 944.005971,254.344205 943.375762,253.463997 L943.375762,253.463997 L941.688262,254.495247 C942.349721,255.42233 943.078887,256.260872 943.875762,257.010872 C942.740346,257.635872 941.396596,258.156705 939.844512,258.573372 C940.469512,259.427539 940.927846,260.088997 941.219512,260.557747 Z M854.875,284.323372 L854.875,280.245247 L851,280.245247 L851,279.276497 L855.375,279.276497 L855.375,277.651497 L840.671875,277.651497 L840.671875,279.276497 L845.078125,279.276497 L845.078125,280.245247 L841.21875,280.245247 L841.21875,284.323372 L854.875,284.323372 Z M848.96875,280.245247 L847.109375,280.245247 L847.109375,279.276497 L848.96875,279.276497 L848.96875,280.245247 Z M852.859375,282.823372 L851,282.823372 L851,281.745247 L852.859375,281.745247 L852.859375,282.823372 Z M848.96875,282.823372 L847.109375,282.823372 L847.109375,281.745247 L848.96875,281.745247 L848.96875,282.823372 Z M845.078125,282.823372 L843.234375,282.823372 L843.234375,281.745247 L845.078125,281.745247 L845.078125,282.823372 Z M854.6875,286.620247 L854.6875,285.073372 L841.375,285.073372 L841.375,286.620247 L854.6875,286.620247 Z M845.5,292.448372 C846.453125,292.448372 847.200521,292.432747 847.742187,292.401497 C848.283854,292.370247 848.683594,292.216601 848.941406,291.940559 C849.199219,291.664518 849.328125,291.26608 849.328125,290.745247 L849.328125,290.745247 L849.328125,289.073372 L855.796875,289.073372 L855.796875,287.401497 L840.265625,287.401497 L840.265625,289.073372 L844.242187,289.073372 C842.460937,289.870247 841.114583,290.401497 840.203125,290.667122 C840.567708,291.167122 840.9375,291.740039 841.3125,292.385872 L841.3125,292.385872 L845.609375,290.417122 L844.609375,289.073372 L847.21875,289.073372 L847.21875,290.073372 C847.21875,290.521289 847.036458,290.745247 846.671875,290.745247 C846.203125,290.745247 845.677083,290.729622 845.09375,290.698372 C845.229167,291.177539 845.364583,291.760872 845.5,292.448372 Z M854.71875,292.323372 L855.640625,290.682747 C854.005208,290.088997 852.53125,289.568164 851.21875,289.120247 L851.21875,289.120247 L850.34375,290.588997 C852.010417,291.213997 853.46875,291.792122 854.71875,292.323372 L854.71875,292.323372 Z M860.526169,292.510872 L860.526169,291.854622 L867.823044,291.854622 L867.823044,292.510872 L869.948044,292.510872 L869.948044,284.463997 L864.487106,284.463997 C865.16419,284.10983 865.82044,283.713997 866.455856,283.276497 L866.455856,283.276497 L871.666794,283.276497 L871.666794,281.432747 L868.783981,281.432747 C869.591273,280.698372 870.36471,279.89108 871.104294,279.010872 L871.104294,279.010872 L869.526169,277.807747 C868.880335,278.635872 868.198044,279.404101 867.479294,280.112434 L867.479294,280.112434 L867.479294,278.401497 L863.729294,278.401497 L863.729294,277.010872 L861.604294,277.010872 L861.604294,278.401497 L857.494919,278.401497 L857.494919,280.245247 L861.604294,280.245247 L861.604294,281.432747 L856.229294,281.432747 L856.229294,283.276497 L863.158981,283.276497 C861.32044,284.17233 858.968877,284.880664 856.104294,285.401497 C856.385544,286.14108 856.599085,286.792122 856.744919,287.354622 C857.312627,287.198372 857.86471,287.036914 858.401169,286.870247 L858.401169,286.870247 L858.401169,292.510872 L860.526169,292.510872 Z M865.994919,281.432747 L863.729294,281.432747 L863.729294,280.245247 L867.338669,280.245247 C866.906377,280.661914 866.45846,281.057747 865.994919,281.432747 L865.994919,281.432747 Z M867.823044,287.307747 L860.526169,287.307747 L860.526169,286.213997 L867.823044,286.213997 L867.823044,287.307747 Z M867.823044,290.104622 L860.526169,290.104622 L860.526169,289.010872 L867.823044,289.010872 L867.823044,290.104622 Z M887.083587,282.229622 L887.083587,278.792122 L883.450775,278.792122 L882.817962,276.995247 L880.505462,277.448372 C880.651296,277.760872 880.823171,278.208789 881.021087,278.792122 L881.021087,278.792122 L877.458587,278.792122 L877.458587,282.167122 L879.552337,282.167122 L879.552337,280.698372 L884.989837,280.698372 L884.989837,282.229622 L887.083587,282.229622 Z M872.427337,292.432747 C873.651296,292.396289 874.37916,292.344205 874.610931,292.276497 C874.842702,292.208789 875.049733,292.099414 875.232025,291.948372 C875.414317,291.79733 875.554942,291.590299 875.6539,291.327278 C875.752858,291.064257 875.802337,290.750455 875.802337,290.385872 L875.802337,290.385872 L875.802337,286.471809 L876.833587,286.198372 C876.781504,285.635872 876.771087,284.927539 876.802337,284.073372 C876.469004,284.17233 876.135671,284.26608 875.802337,284.354622 L875.802337,284.354622 L875.802337,282.026497 L876.927337,282.026497 L876.927337,280.026497 L875.802337,280.026497 L875.802337,277.135872 L873.739837,277.135872 L873.739837,280.026497 L872.177337,280.026497 L872.177337,282.026497 L873.739837,282.026497 L873.739837,284.870247 C873.135671,285.005664 872.536712,285.130664 871.942962,285.245247 L871.942962,285.245247 L872.302337,287.463997 L873.739837,287.049934 L873.739837,289.667122 C873.739837,289.937955 873.686452,290.128059 873.579681,290.237434 C873.47291,290.346809 873.265879,290.401497 872.958587,290.401497 C872.682546,290.401497 872.370046,290.385872 872.021087,290.354622 C872.198171,291.000455 872.333587,291.693164 872.427337,292.432747 Z M877.599212,292.620247 C879.682546,292.193164 881.393483,291.456184 882.732025,290.409309 C883.862233,291.081184 885.010671,291.812955 886.177337,292.604622 L886.177337,292.604622 L887.427337,290.792122 C886.265879,290.130664 885.182546,289.531705 884.177337,288.995247 C885.052337,287.917122 885.664317,286.620247 886.013275,285.104622 L886.013275,285.104622 L887.427337,285.104622 L887.427337,283.229622 L881.93515,283.229622 L882.458587,281.854622 L880.333587,281.276497 C880.156504,281.95358 879.963796,282.604622 879.755462,283.229622 L879.755462,283.229622 L877.208587,283.229622 L877.208587,285.104622 L879.06015,285.104622 C878.659108,286.062955 878.213796,286.948372 877.724212,287.760872 C878.682546,288.20358 879.661712,288.693164 880.661712,289.229622 C879.541921,289.875455 878.135671,290.349414 876.442962,290.651497 C876.890879,291.29733 877.276296,291.95358 877.599212,292.620247 Z M882.263275,288.003059 C881.539317,287.638476 880.864837,287.312955 880.239837,287.026497 C880.541921,286.448372 880.846608,285.807747 881.1539,285.104622 L881.1539,285.104622 L883.794525,285.104622 C883.549733,286.229622 883.039317,287.195768 882.263275,288.003059 Z M899.812881,292.167122 C900.432673,292.167122 900.957412,292.090299 901.3871,291.936653 C901.816787,291.783007 902.141006,291.566861 902.359756,291.288216 C902.578506,291.00957 902.771214,290.504361 902.937881,289.772591 C903.104548,289.04082 903.239964,288.182747 903.344131,287.198372 C902.614964,286.979622 901.838923,286.713997 901.016006,286.401497 C900.870173,288.23483 900.732152,289.294726 900.601944,289.581184 C900.471735,289.867643 900.203506,290.010872 899.797256,290.010872 L899.797256,290.010872 L898.703506,290.010872 C898.172256,290.010872 897.906631,289.682747 897.906631,289.026497 L897.906631,289.026497 L897.906631,285.659309 C899.766006,284.164518 901.578506,282.573372 903.344131,280.885872 L903.344131,280.885872 L901.312881,279.292122 C900.172256,280.599414 899.036839,281.792122 897.906631,282.870247 L897.906631,282.870247 L897.906631,277.104622 L895.594131,277.104622 L895.594131,289.776497 C895.594131,291.370247 896.344131,292.167122 897.844131,292.167122 L897.844131,292.167122 L899.812881,292.167122 Z M889.422256,292.698372 C890.713923,292.000455 892.516006,291.29733 894.828506,290.588997 C894.776423,289.838997 894.760798,289.052539 894.781631,288.229622 L894.781631,288.229622 L891.156631,289.463997 L891.156631,283.917122 L894.734756,283.917122 L894.734756,281.760872 L891.156631,281.760872 L891.156631,277.292122 L888.844131,277.292122 L888.844131,289.479622 C888.844131,290.115039 888.661839,290.573372 888.297256,290.854622 L888.297256,290.854622 L889.422256,292.698372 Z M907.0578,292.401497 L907.0578,280.518684 C907.3703,279.529101 907.641133,278.521289 907.8703,277.495247 L907.8703,277.495247 L906.042175,277.135872 C905.552591,279.552539 904.781758,281.89108 903.729675,284.151497 C903.979675,285.443164 904.146341,286.411914 904.229675,287.057747 C904.583841,286.427539 904.917175,285.786914 905.229675,285.135872 L905.229675,285.135872 L905.229675,292.401497 L907.0578,292.401497 Z M914.4328,292.260872 C915.469258,292.286914 916.270039,292.273893 916.835144,292.221809 C917.400248,292.169726 917.83905,291.95358 918.15155,291.573372 C918.46405,291.193164 918.6203,290.646289 918.6203,289.932747 L918.6203,289.932747 L918.6203,277.307747 L916.667175,277.307747 L916.667175,289.182747 C916.667175,289.849414 916.406758,290.182747 915.885925,290.182747 C915.458841,290.182747 914.844258,290.156705 914.042175,290.104622 C914.229675,290.948372 914.359883,291.667122 914.4328,292.260872 Z M908.8078,292.448372 C911.818216,290.365039 913.323425,286.64108 913.323425,281.276497 L913.323425,281.276497 L910.510925,281.276497 C910.6203,280.781705 910.711446,280.271289 910.784362,279.745247 L910.784362,279.745247 L913.417175,279.745247 L913.417175,277.838997 L907.948425,277.838997 L907.948425,279.745247 L908.8703,279.745247 C908.6203,281.838997 908.042175,283.67233 907.135925,285.245247 C907.531758,285.963997 907.859883,286.60983 908.1203,287.182747 C908.344258,286.865039 908.552591,286.529101 908.7453,286.174934 C909.27655,286.617643 909.773946,287.081184 910.237487,287.565559 C909.555196,288.888476 908.568216,289.995247 907.27655,290.885872 C907.891133,291.448372 908.40155,291.969205 908.8078,292.448372 Z M915.71405,288.963997 L915.71405,278.479622 L913.96405,278.479622 L913.96405,288.963997 L915.71405,288.963997 Z M910.987487,285.620247 C910.518737,285.245247 910.039571,284.875455 909.549987,284.510872 C909.727071,284.07858 909.888529,283.630664 910.034362,283.167122 L910.034362,283.167122 L911.3703,283.167122 C911.318216,284.042122 911.190612,284.85983 910.987487,285.620247 Z M921.458968,292.573372 C922.526677,292.10983 923.413396,291.562955 924.119125,290.932747 C924.824854,290.302539 925.343083,289.596809 925.673812,288.815559 C926.004541,288.034309 926.214177,286.911914 926.302718,285.448372 L926.302718,285.448372 L930.162093,285.448372 C930.099593,287.745247 930.020166,289.053841 929.923812,289.374153 C929.827458,289.694466 929.599593,289.854622 929.240218,289.854622 C928.636052,289.854622 927.656885,289.79733 926.302718,289.682747 C926.427718,290.39108 926.537093,291.177539 926.630843,292.042122 C927.583968,292.073372 928.596989,292.088997 929.669906,292.088997 C930.456364,292.088997 931.068343,291.900195 931.505843,291.522591 C931.943343,291.144986 932.201156,290.60983 932.279281,289.917122 C932.357406,289.224414 932.466781,287.213997 932.607406,283.885872 C932.966781,284.208789 933.339177,284.521289 933.724593,284.823372 C934.287093,284.031705 934.787093,283.365039 935.224593,282.823372 C933.037093,281.333789 931.276677,279.437955 929.943343,277.135872 L929.943343,277.135872 L928.005843,278.135872 C929.04751,280.031705 930.367823,281.750455 931.966781,283.292122 L931.966781,283.292122 L922.826156,283.292122 C924.471989,281.823372 925.839177,280.062955 926.927718,278.010872 L926.927718,278.010872 L924.833968,277.104622 C923.636052,279.385872 921.86001,281.354622 919.505843,283.010872 C919.974593,283.510872 920.448552,284.099414 920.927718,284.776497 C921.198552,284.594205 921.464177,284.404101 921.724593,284.206184 L921.724593,284.206184 L921.724593,285.448372 L923.951156,285.448372 C923.862614,286.588997 923.686833,287.413216 923.423812,287.921028 C923.160791,288.428841 922.7285,288.908007 922.126937,289.358528 C921.525375,289.809049 920.761052,290.219205 919.833968,290.588997 C920.271468,291.04733 920.813135,291.708789 921.458968,292.573372 Z M950.782012,280.010872 L950.782012,278.354622 L944.657012,278.354622 C944.500762,277.906705 944.323679,277.437955 944.125762,276.948372 L944.125762,276.948372 L941.610137,277.323372 C941.766387,277.677539 941.912221,278.021289 942.047637,278.354622 L942.047637,278.354622 L935.688262,278.354622 L935.688262,280.010872 L950.782012,280.010872 Z M948.938262,284.526497 L948.938262,280.682747 L937.360137,280.682747 L937.360137,284.526497 L948.938262,284.526497 Z M946.844512,283.026497 L939.453887,283.026497 L939.453887,282.182747 L946.844512,282.182747 L946.844512,283.026497 Z M941.07817,292.400779 C941.604318,292.400142 942.082421,292.399079 942.512481,292.397591 C943.265085,292.394986 943.8367,292.221809 944.227325,291.878059 C944.61795,291.534309 944.813262,291.010872 944.813262,290.307747 L944.813262,290.307747 L944.813262,289.557747 L950.907012,289.557747 L950.907012,287.870247 L946.407012,287.870247 L949.344512,286.948372 L949.344512,285.198372 L936.688262,285.198372 L936.688262,286.823372 L945.813262,286.823372 L942.688262,287.667122 L942.688262,287.870247 L935.563262,287.870247 L935.563262,289.557747 L942.688262,289.557747 C942.688262,289.901497 942.611439,290.146289 942.457793,290.292122 C942.304148,290.437955 942.016387,290.510872 941.594512,290.510872 C940.880971,290.510872 940.130971,290.490039 939.344512,290.448372 C939.563262,291.187955 939.719512,291.838997 939.813262,292.401497 L939.813262,292.401497 L941.07817,292.400779 Z" id="理事会成员的投票者按比例分享" fill="#000033" fill-rule="nonzero"></path>
                    <path d="M848.804688,459.393684 L848.804688,457.292122 L843.8125,457.292122 L843.8125,457.245247 L846.335938,454.971809 C848.054688,453.419726 848.914062,451.935351 848.914062,450.518684 C848.914062,449.445768 848.565104,448.605924 847.867188,447.999153 C847.169271,447.392382 846.223958,447.088997 845.03125,447.088997 C843.713542,447.088997 842.536458,447.432747 841.5,448.120247 L841.5,448.120247 L841.5,450.362434 C842.46875,449.529101 843.471354,449.112434 844.507812,449.112434 C845.742188,449.112434 846.359375,449.687955 846.359375,450.838997 C846.359375,451.349414 846.213542,451.841601 845.921875,452.315559 C845.630208,452.789518 845.119792,453.375455 844.390625,454.073372 L844.390625,454.073372 L840.914062,457.409309 L840.914062,459.393684 L848.804688,459.393684 Z M858.729294,459.393684 L858.729294,457.385872 L856.221481,457.385872 L856.221481,447.081184 L851.104294,448.159309 L851.104294,450.229622 L853.698044,449.643684 L853.698044,457.385872 L851.174606,457.385872 L851.174606,459.393684 L858.729294,459.393684 Z M864.552337,461.463997 L864.552337,460.713997 L871.677337,460.713997 L871.677337,461.417122 L873.927337,461.417122 L873.927337,454.260872 L867.317962,454.260872 C870.146087,452.885872 872.307546,451.307747 873.802337,449.526497 L873.802337,449.526497 L873.802337,447.635872 L866.0914,447.635872 C866.4039,447.17233 866.687754,446.693164 866.942962,446.198372 L866.942962,446.198372 L864.505462,446.026497 C863.390879,447.880664 861.833587,449.490039 859.833587,450.854622 C860.416921,451.479622 860.885671,452.000455 861.239837,452.417122 C862.510671,451.552539 863.617442,450.604622 864.56015,449.573372 L864.56015,449.573372 L870.880462,449.573372 C869.927337,450.45358 868.8414,451.242643 867.62265,451.940559 C866.804942,451.383268 865.963796,450.823372 865.099212,450.260872 L865.099212,450.260872 L863.567962,451.667122 C864.083587,452.000455 864.719004,452.45358 865.474212,453.026497 C863.760671,453.781705 861.838796,454.401497 859.708587,454.885872 C860.114837,455.635872 860.432546,456.26608 860.661712,456.776497 C861.224212,456.60983 861.771087,456.437955 862.302337,456.260872 L862.302337,456.260872 L862.302337,461.463997 L864.552337,461.463997 Z M871.677337,458.760872 L864.552337,458.760872 L864.552337,456.213997 L871.677337,456.213997 L871.677337,458.760872 Z M879.187881,459.393684 L879.187013,452.229333 C879.182383,451.500937 879.159235,450.951555 879.117569,450.581184 L879.117569,450.581184 L879.156631,450.581184 C879.276423,450.831184 879.469131,451.159309 879.734756,451.565559 L879.734756,451.565559 L884.859756,459.393684 L887.500381,459.393684 L887.500381,447.292122 L885.055069,447.292122 L885.05585,454.429466 C885.060537,455.122278 885.086319,455.599934 885.133194,455.862434 L885.133194,455.862434 L885.094131,455.862434 C885.086029,455.847388 885.076352,455.830059 885.065099,455.810447 L884.97868,455.665386 C884.873356,455.492932 884.711319,455.238302 884.492569,454.901497 L884.492569,454.901497 L879.555069,447.292122 L876.742569,447.292122 L876.742569,459.393684 L879.187881,459.393684 Z M893.768737,459.604622 C895.044779,459.604622 896.076029,459.383268 896.862487,458.940559 L896.862487,458.940559 L896.862487,457.088997 C896.133321,457.557747 895.292175,457.792122 894.33905,457.792122 C892.813008,457.792122 892.005716,457.122851 891.917175,455.784309 L891.917175,455.784309 L897.604675,455.784309 L897.604675,454.713997 C897.604675,453.417122 897.259623,452.397591 896.569519,451.655403 C895.879414,450.913216 894.922383,450.542122 893.698425,450.542122 C892.469258,450.542122 891.448425,450.973111 890.635925,451.835091 C889.823425,452.69707 889.417175,453.818164 889.417175,455.198372 C889.417175,456.583789 889.798685,457.664518 890.561706,458.440559 C891.324727,459.216601 892.393737,459.604622 893.768737,459.604622 Z M895.253112,454.206184 L891.909362,454.206184 C891.992696,453.622851 892.201029,453.154101 892.534362,452.799934 C892.867696,452.445768 893.250508,452.268684 893.6828,452.268684 C894.729675,452.268684 895.253112,452.914518 895.253112,454.206184 L895.253112,454.206184 Z M903.185531,459.604622 C904.617823,459.604622 905.753239,459.185351 906.591781,458.346809 C907.430323,457.508268 907.849593,456.380664 907.849593,454.963997 C907.849593,453.615039 907.440739,452.54082 906.623031,451.741341 C905.805323,450.941861 904.701156,450.542122 903.310531,450.542122 C901.873031,450.542122 900.7285,450.948372 899.876937,451.760872 C899.025375,452.573372 898.599593,453.690559 898.599593,455.112434 C898.599593,456.497851 899.012354,457.592903 899.837875,458.397591 C900.663396,459.202278 901.779281,459.604622 903.185531,459.604622 Z M903.263656,457.667122 C901.857406,457.667122 901.154281,456.805143 901.154281,455.081184 C901.154281,454.253059 901.337875,453.612434 901.705062,453.159309 C902.07225,452.706184 902.586573,452.479622 903.248031,452.479622 C904.607406,452.479622 905.287093,453.323372 905.287093,455.010872 C905.287093,456.781705 904.612614,457.667122 903.263656,457.667122 Z M924.1492,460.963997 L924.1492,459.182747 L919.8992,459.182747 L919.8992,457.823372 L923.4617,457.823372 L923.4617,456.042122 L919.8992,456.042122 L919.8992,454.917122 L923.383575,454.917122 L923.383575,446.807747 L914.414825,446.807747 L914.414825,454.917122 L917.8992,454.917122 L917.8992,456.042122 L914.3367,456.042122 L914.3367,457.823372 L917.8992,457.823372 L917.8992,459.182747 L914.0242,459.182747 C913.99295,458.495247 913.998158,457.781705 914.039825,457.042122 C913.513783,457.198372 912.972116,457.352018 912.414825,457.503059 L912.414825,457.503059 L912.414825,454.167122 L913.86795,454.167122 L913.86795,452.229622 L912.414825,452.229622 L912.414825,448.948372 L913.977325,448.948372 L913.977325,446.979622 L908.852325,446.979622 L908.852325,448.948372 L910.414825,448.948372 L910.414825,452.229622 L908.914825,452.229622 L908.914825,454.167122 L910.414825,454.167122 L910.414825,458.010872 L908.55545,458.432747 L908.99295,460.651497 C910.576283,460.14108 912.05545,459.695768 913.43045,459.315559 L913.43045,459.315559 L913.43045,460.963997 L924.1492,460.963997 Z M921.43045,450.042122 L919.8992,450.042122 L919.8992,448.557747 L921.43045,448.557747 L921.43045,450.042122 Z M917.8992,450.042122 L916.36795,450.042122 L916.36795,448.557747 L917.8992,448.557747 L917.8992,450.042122 Z M921.43045,453.167122 L919.8992,453.167122 L919.8992,451.667122 L921.43045,451.667122 L921.43045,453.167122 Z M917.8992,453.167122 L916.36795,453.167122 L916.36795,451.667122 L917.8992,451.667122 L917.8992,453.167122 Z M930.050368,461.369813 C930.116051,461.369765 930.179371,461.369712 930.240328,461.369656 L930.858383,461.368788 C930.900436,461.3687 930.940125,461.368607 930.977452,461.368511 L931.173054,461.367884 C931.200928,461.367771 931.226439,461.367655 931.249587,461.367534 L931.36012,461.366763 L931.36012,461.366763 L931.394118,461.366341 C931.555577,461.363736 931.8199,461.286914 932.187087,461.135872 C932.554275,460.98483 932.829014,460.746549 933.011306,460.421028 C933.193598,460.095507 933.284743,459.693164 933.284743,459.213997 L933.284743,459.213997 L933.284743,458.760872 L936.628493,458.760872 L936.628493,459.463997 L938.722243,459.463997 L938.722243,456.682747 L939.940993,456.682747 L939.940993,455.276497 L938.722243,455.276497 L938.722243,453.213997 L933.284743,453.213997 L933.284743,452.495247 L938.503493,452.495247 L938.503493,449.198372 L933.284743,449.198372 L933.284743,448.495247 L939.831618,448.495247 L939.831618,447.088997 L933.284743,447.088997 L933.284743,446.073372 L931.159743,446.073372 L931.159743,447.088997 L924.628493,447.088997 L924.628493,448.495247 L931.159743,448.495247 L931.159743,449.198372 L925.972243,449.198372 L925.972243,452.495247 L931.159743,452.495247 L931.159743,453.213997 L925.519118,453.213997 L925.519118,454.557747 L931.159743,454.557747 L931.159743,455.276497 L924.519118,455.276497 L924.519118,456.682747 L931.159743,456.682747 L931.159743,457.417122 L925.487868,457.417122 L925.487868,458.760872 L931.159743,458.760872 C931.149327,459.271289 930.868077,459.526497 930.315993,459.526497 C929.961827,459.526497 929.289952,459.479622 928.300368,459.385872 C928.446202,460.083789 928.550368,460.745247 928.612868,461.370247 L928.612868,461.370247 L930.050368,461.369813 Z M936.472243,451.245247 L933.284743,451.245247 L933.284743,450.448372 L936.472243,450.448372 L936.472243,451.245247 Z M931.159743,451.245247 L928.003493,451.245247 L928.003493,450.448372 L931.159743,450.448372 L931.159743,451.245247 Z M936.628493,455.276497 L933.284743,455.276497 L933.284743,454.557747 L936.628493,454.557747 L936.628493,455.276497 Z M936.628493,457.417122 L933.284743,457.417122 L933.284743,456.682747 L936.628493,456.682747 L936.628493,457.417122 Z M954.467162,453.510872 C954.852579,452.958789 955.321329,452.344205 955.873412,451.667122 C952.883829,450.281705 950.717162,448.604622 949.373412,446.635872 L949.373412,446.635872 L949.810912,446.104622 L947.123412,446.104622 C945.998412,447.990039 943.727579,449.833789 940.310912,451.635872 C940.946329,452.437955 941.415079,453.052539 941.717162,453.479622 C942.498412,453.021289 943.227579,452.562955 943.904662,452.104622 L943.904662,452.104622 L943.904662,453.260872 L952.279662,453.260872 L952.279662,452.198372 C952.956745,452.656705 953.685912,453.094205 954.467162,453.510872 Z M951.092162,451.323372 L944.967162,451.323372 C946.310912,450.312955 947.352579,449.323372 948.092162,448.354622 C948.915079,449.417122 949.915079,450.406705 951.092162,451.323372 L951.092162,451.323372 Z M952.685912,461.745247 L954.592162,460.588997 C953.446329,459.088997 952.37862,457.740039 951.389037,456.542122 L951.389037,456.542122 L955.279662,456.542122 L955.279662,454.573372 L940.935912,454.573372 L940.935912,456.542122 L944.795287,456.542122 C943.857787,457.771289 942.90987,458.729622 941.951537,459.417122 L941.951537,459.417122 L942.889037,461.307747 C943.53487,461.182747 944.081745,461.104622 944.529662,461.073372 C947.508829,460.896289 949.987995,460.771289 951.967162,460.698372 C952.217162,461.062955 952.456745,461.411914 952.685912,461.745247 L952.685912,461.745247 Z M945.699662,458.900872 L945.451537,458.901497 C946.28487,458.01608 946.97237,457.229622 947.514037,456.542122 L947.514037,456.542122 L950.810912,456.542122 L949.467162,457.354622 C949.842162,457.844205 950.196329,458.312955 950.529662,458.760872 C948.352579,458.854622 946.65987,458.901497 945.451537,458.901497 L945.699662,458.900872 Z M848.203125,493.542122 C849.036458,492.896289 849.828125,492.167122 850.578125,491.354622 C851.322917,492.771289 852.263021,493.479622 853.398438,493.479622 C853.778646,493.479622 854.15625,493.352018 854.53125,493.096809 C854.90625,492.841601 855.208333,492.255664 855.4375,491.338997 C855.666667,490.42233 855.796875,489.682747 855.828125,489.120247 C854.963542,488.755664 854.296875,488.437955 853.828125,488.167122 C853.822917,488.604622 853.773438,489.124153 853.679688,489.725716 C853.585938,490.327278 853.5,490.70358 853.421875,490.854622 C853.34375,491.005664 853.244792,491.081184 853.125,491.081184 C852.8125,491.081184 852.460938,490.573372 852.070312,489.557747 C853.221354,488.010872 854.255208,486.224414 855.171875,484.198372 L855.171875,484.198372 L853.25,483.307747 C852.713542,484.54733 852.101562,485.695768 851.414062,486.753059 C851.242188,485.565559 851.130208,484.161914 851.078125,482.542122 L851.078125,482.542122 L855.5625,482.542122 L855.5625,480.667122 L853.84375,480.667122 L855.046875,480.010872 C854.369792,479.167122 853.848958,478.54733 853.484375,478.151497 L853.484375,478.151497 L851.84375,479.042122 C852.453125,479.760872 852.895833,480.302539 853.171875,480.667122 L853.171875,480.667122 L851.039062,480.667122 L851.015625,478.088997 L848.796875,478.088997 L848.867188,480.667122 L841.53125,480.667122 L841.53125,485.963997 C841.520833,488.588997 841.083333,490.604622 840.21875,492.010872 C840.875,492.490039 841.489583,493.000455 842.0625,493.542122 C843.067708,491.932747 843.578125,489.510872 843.59375,486.276497 L843.59375,486.276497 L845.875,486.276497 C845.875,487.14108 845.83724,487.849414 845.761719,488.401497 C845.686198,488.95358 845.369792,489.229622 844.8125,489.229622 C844.526042,489.229622 844.135417,489.182747 843.640625,489.088997 C843.786458,489.724414 843.911458,490.48483 844.015625,491.370247 C845.447917,491.432747 846.33724,491.342903 846.683594,491.100716 C847.029948,490.858528 847.3125,490.54733 847.53125,490.167122 C847.75,489.786914 847.890625,488.767382 847.953125,487.108528 C848.015625,485.449674 848.046875,484.542122 848.046875,484.385872 L848.046875,484.385872 L843.59375,484.385872 L843.59375,482.542122 L848.945312,482.542122 C849.080729,485.292122 849.338542,487.448372 849.71875,489.010872 C848.776042,490.099414 847.729167,491.057747 846.578125,491.885872 C847.161458,492.375455 847.703125,492.927539 848.203125,493.542122 Z M869.713669,483.620247 L869.713669,478.620247 L858.104294,478.620247 L858.104294,483.620247 L869.713669,483.620247 Z M867.463669,481.760872 L860.354294,481.760872 L860.354294,480.479622 L867.463669,480.479622 L867.463669,481.760872 Z M859.682419,490.042122 L859.682419,486.573372 L868.182419,486.573372 L868.182419,489.792122 L870.369919,489.792122 L870.369919,484.698372 L857.494919,484.698372 L857.494919,490.042122 L859.682419,490.042122 Z M857.244919,493.557747 C860.317835,493.151497 862.513148,492.195768 863.830856,490.690559 C866.283981,491.695768 868.406377,492.646289 870.198044,493.542122 L870.198044,493.542122 L871.401169,491.542122 C869.390752,490.698372 867.20846,489.854622 864.854294,489.010872 C865.067835,488.463997 865.20846,487.870247 865.276169,487.229622 L865.276169,487.229622 L863.026169,487.229622 C862.953252,489.635872 860.672002,491.031705 856.182419,491.417122 C856.619919,492.240039 856.974085,492.95358 857.244919,493.557747 Z M880.911712,493.417122 L880.911712,488.557747 L887.364837,488.557747 L887.364837,486.495247 L880.911712,486.495247 L880.911712,480.760872 L886.677337,480.760872 L886.677337,478.698372 L872.864837,478.698372 L872.864837,480.760872 L878.536712,480.760872 L878.536712,486.495247 L872.177337,486.495247 L872.177337,488.557747 L878.536712,488.557747 L878.536712,493.417122 L880.911712,493.417122 Z M875.942962,486.182747 L877.833587,484.932747 C876.760671,483.51608 875.724212,482.224414 874.724212,481.057747 L874.724212,481.057747 L873.083587,482.167122 C873.937754,483.250455 874.890879,484.588997 875.942962,486.182747 L875.942962,486.182747 Z M883.208587,486.229622 C884.437754,484.948372 885.604421,483.646289 886.708587,482.323372 L886.708587,482.323372 L884.864837,481.073372 C883.906504,482.396289 882.823171,483.682747 881.614837,484.932747 L881.614837,484.932747 L883.208587,486.229622 Z M889.719131,493.573372 C890.786839,493.10983 891.673558,492.562955 892.379287,491.932747 C893.085017,491.302539 893.603246,490.596809 893.933975,489.815559 C894.264704,489.034309 894.474339,487.911914 894.562881,486.448372 L894.562881,486.448372 L898.422256,486.448372 C898.359756,488.745247 898.280329,490.053841 898.183975,490.374153 C898.087621,490.694466 897.859756,490.854622 897.500381,490.854622 C896.896214,490.854622 895.917048,490.79733 894.562881,490.682747 C894.687881,491.39108 894.797256,492.177539 894.891006,493.042122 C895.844131,493.073372 896.857152,493.088997 897.930069,493.088997 C898.716527,493.088997 899.328506,492.900195 899.766006,492.522591 C900.203506,492.144986 900.461319,491.60983 900.539444,490.917122 C900.617569,490.224414 900.726944,488.213997 900.867569,484.885872 C901.226944,485.208789 901.599339,485.521289 901.984756,485.823372 C902.547256,485.031705 903.047256,484.365039 903.484756,483.823372 C901.297256,482.333789 899.536839,480.437955 898.203506,478.135872 L898.203506,478.135872 L896.266006,479.135872 C897.307673,481.031705 898.627985,482.750455 900.226944,484.292122 L900.226944,484.292122 L891.086319,484.292122 C892.732152,482.823372 894.099339,481.062955 895.187881,479.010872 L895.187881,479.010872 L893.094131,478.104622 C891.896214,480.385872 890.120173,482.354622 887.766006,484.010872 C888.234756,484.510872 888.708714,485.099414 889.187881,485.776497 C889.458714,485.594205 889.724339,485.404101 889.984756,485.206184 L889.984756,485.206184 L889.984756,486.448372 L892.211319,486.448372 C892.122777,487.588997 891.946996,488.413216 891.683975,488.921028 C891.420954,489.428841 890.988662,489.908007 890.3871,490.358528 C889.785537,490.809049 889.021214,491.219205 888.094131,491.588997 C888.531631,492.04733 889.073298,492.708789 889.719131,493.573372 Z" id="21名Neo理事会成员平分" fill="#000033" fill-rule="nonzero"></path>
                    <text id="每个区块-生成5个GAS" font-family="MicrosoftYaHei-Bold, Microsoft YaHei" font-size="20" font-weight="bold" line-spacing="36" letter-spacing="-0.162601626" fill="#000033">
                        <tspan x="25.3252033" y="286.393684">每个区块</tspan>
                        <tspan x="8.21559007" y="322.393684">生成5个GAS</tspan>
                    </text>
                </g>
            </g>
        </g>
    </g>
</svg>