<?xml version="1.0" encoding="UTF-8" standalone="no"?>
<svg
   xmlns:dc="http://purl.org/dc/elements/1.1/"
   xmlns:cc="http://creativecommons.org/ns#"
   xmlns:rdf="http://www.w3.org/1999/02/22-rdf-syntax-ns#"
   xmlns:svg="http://www.w3.org/2000/svg"
   xmlns="http://www.w3.org/2000/svg"
   xmlns:sodipodi="http://sodipodi.sourceforge.net/DTD/sodipodi-0.dtd"
   xmlns:inkscape="http://www.inkscape.org/namespaces/inkscape"
   width="232.84084"
   height="131.06323"
   viewBox="0 0 61.605802 34.677147"
   version="1.1"
   id="svg16"
   inkscape:version="1.0.1 (c497b03c, 2020-09-10)"
   sodipodi:docname="IEEE.svg">
  <defs
     id="defs10">
    <clipPath
       id="clip413">
      <path
         d="M 56.160156,686 H 100 v 25 H 56.160156 Z m 0,0"
         id="path3358" />
    </clipPath>
    <clipPath
       id="clip414">
      <path
         d="m 103,679.01562 h 16 V 698 h -16 z m 0,0"
         id="path3361" />
    </clipPath>
    <clipPath
       id="clip415">
      <path
         d="m 122,679.01562 h 16 V 698 h -16 z m 0,0"
         id="path3364" />
    </clipPath>
    <clipPath
       id="clip416">
      <path
         d="m 141,679.01562 h 14 V 698 h -14 z m 0,0"
         id="path3367" />
    </clipPath>
    <clipPath
       id="clip417">
      <path
         d="m 159,679.01562 h 14 V 698 h -14 z m 0,0"
         id="path3370" />
    </clipPath>
    <clipPath
       id="clip418">
      <path
         d="m 175,679.01562 h 15.125 V 698 H 175 Z m 0,0"
         id="path3373" />
    </clipPath>
    <clipPath
       id="clip1">
      <path
         d="m 595,31 h 17.37109 V 50 H 595 Z m 0,0"
         id="path12837" />
    </clipPath>
    <clipPath
       id="clip2">
      <path
         d="m 72,79 h 83 v 24.37891 H 72 Z m 0,0"
         id="path12840" />
    </clipPath>
  </defs>
  <sodipodi:namedview
     id="base"
     pagecolor="#00ffff"
     bordercolor="#666666"
     borderopacity="1.0"
     inkscape:pageopacity="0"
     inkscape:pageshadow="2"
     inkscape:zoom="2.6199528"
     inkscape:cx="165.22179"
     inkscape:cy="48.723889"
     inkscape:document-units="px"
     inkscape:current-layer="layer1"
     inkscape:document-rotation="0"
     showgrid="false"
     units="px"
     fit-margin-top="0.5"
     lock-margins="true"
     fit-margin-left="0.5"
     fit-margin-right="0.5"
     fit-margin-bottom="0.5"
     inkscape:window-width="1440"
     inkscape:window-height="874"
     inkscape:window-x="0"
     inkscape:window-y="26"
     inkscape:window-maximized="0" />
  <metadata
     id="metadata13">
    <rdf:RDF>
      <cc:Work
         rdf:about="">
        <dc:format>image/svg+xml</dc:format>
        <dc:type
           rdf:resource="http://purl.org/dc/dcmitype/StillImage" />
        <dc:title></dc:title>
      </cc:Work>
    </rdf:RDF>
  </metadata>
  <g
     inkscape:label="Layer 1"
     inkscape:groupmode="layer"
     id="layer1"
     transform="translate(129.35074,-20.872909)">
    <g
       id="g13718"
       transform="translate(157.6335,42.356881)">
      <path
         style="fill:#0a70a3;fill-opacity:1;fill-rule:nonzero;stroke:none;stroke-width:0.352778"
         d="m -282.76822,4.1257005 c -0.24253,0 -0.41203,0.0055 -0.64905,0.011007 l -0.0372,-0.035828 c -0.0179,-0.2783628 -0.0234,-0.4781797 -0.0482,-0.7579219 l -0.0427,-0.5277873 c -0.15021,-0.0055 -0.44786,-0.0055 -0.59945,-0.0055 h -0.32797 c -0.16399,0 -0.32108,0 -0.58153,0.0055 l -0.23702,0.4547517 c -0.1447,0.2783664 -0.24254,0.4795591 -0.38172,0.7593013 l -0.0248,0.053742 -0.0482,0.037208 c -0.23013,0 -0.39411,0 -0.62976,0.0055 l -0.0248,-0.055121 c 0.10886,-0.2053272 1.74597,-3.10471961 2.31648,-4.20852601 l 0.0482,-0.0234244 c 0.31557,-0.006879 0.61874,-0.0179211 0.84887,-0.0179211 l 0.0372,0.0289278 c 0.0234,0.50987326 0.24805,2.80844281 0.41754,4.23884731 z m -0.95222,-3.86815187 -1.08589,2.06154517 c 0.15158,0.011007 0.27974,0.011007 0.41203,0.011007 h 0.41341 c 0.1571,0 0.26596,0 0.41755,-0.011007 z m 0,0"
         id="path13195" />
      <path
         style="fill:#0a70a3;fill-opacity:1;fill-rule:nonzero;stroke:none;stroke-width:0.352778"
         d="m -279.77925,4.1133004 c -0.21222,0 -0.35691,0.0055 -0.56913,0.017921 l -0.0248,-0.042718 0.0482,-0.2287553 c -0.19293,0.1378021 -0.44787,0.3073012 -0.8723,0.3073012 -0.72761,0 -1.14653,-0.5443255 -1.14653,-1.2112942 0,-0.3334844 0.11576,-0.7703256 0.32246,-1.10381 0.5085,-0.8061501 1.30914,-0.91088277 1.92099,-0.91088277 0.15296,0 0.26045,0.006879 0.41203,0.0192969 0.21222,-0.98805295 0.25494,-1.20027348 0.29766,-1.50344012 l 0.0482,-0.0427179 c 0.24253,-0.0358316 0.40652,-0.0661458 0.64905,-0.11024306 l 0.0303,0.0372039 c -0.27285,1.02526043 -0.91502,3.85713115 -1.0666,4.73632045 z m -0.0179,-2.685796 c -0.0482,-0.012418 -0.15021,-0.019297 -0.27837,-0.019297 -0.82544,0 -1.23059,0.3596676 -1.4497,0.8185539 -0.0413,0.092329 -0.15158,0.3582916 -0.15158,0.6490582 0,0.4492378 0.24943,0.8075295 0.75241,0.8075295 0.14607,0 0.5333,-0.1102431 0.6904,-0.3031702 z m 0,0"
         id="path13197" />
      <path
         style="fill:#0a70a3;fill-opacity:1;fill-rule:nonzero;stroke:none;stroke-width:0.352778"
         d="m -277.55923,4.1201902 c -0.26045,0.0055 -0.44235,0.011007 -0.70418,0.023424 l -0.0537,-0.037208 c -0.0427,-0.5636189 -0.27285,-2.4239714 -0.3514,-3.0730261 l 0.0358,-0.0427178 c 0.23013,0 0.39412,-0.0124178 0.61874,-0.0303036 l 0.0427,0.0358281 c 0.0234,0.345888 0.0358,0.5884227 0.0661,0.9343108 l 0.14607,1.6922291 c 1.02389,-1.9885095 1.15756,-2.2434444 1.33946,-2.6196502 l 0.0551,-0.0248002 h 0.23013 c 0.12127,0 0.20671,0 0.32797,-0.005503 l 0.0289,0.0427214 c -0.18052,0.314191 -0.41065,0.6903967 -0.59945,1.0307708 l -0.50849,0.9150174 c -0.21911,0.3872301 -0.41341,0.7289835 -0.61874,1.1272379 z m 0,0"
         id="path13199" />
      <path
         style="fill:#0a70a3;fill-opacity:1;fill-rule:nonzero;stroke:none;stroke-width:0.352778"
         d="m -273.40582,4.1257005 h -0.1571 c -0.15158,0 -0.26045,0.0055 -0.41203,0.011007 l -0.0303,-0.035828 0.0413,-0.2425347 c -0.28525,0.2301346 -0.58704,0.3031701 -0.8847,0.3031701 -0.7152,0 -1.12172,-0.5333012 -1.12172,-1.1823594 0,-0.447862 0.19292,-0.8667856 0.28525,-1.0252604 0.50298,-0.8846997 1.40009,-0.98805296 2.03674,-0.98805296 0.28525,0 0.90399,0.0124178 0.90399,0.0124178 l 0.0303,0.0427179 c -0.49196,2.1400946 -0.57051,2.4846033 -0.64905,3.0675157 z m -1.16996,-0.4368376 c 0.18741,0 0.49058,-0.085436 0.70418,-0.3031667 0.15021,-0.6187404 0.27147,-1.255395 0.43546,-1.9526814 -0.073,0 -0.16399,-0.012382 -0.26045,-0.012382 -0.58153,0 -1.16995,0.1818993 -1.47312,0.903993 -0.0372,0.085436 -0.13367,0.3279705 -0.13367,0.6118472 0,0.4313273 0.25493,0.752408 0.7276,0.752408"
         id="path13201" />
      <path
         style="fill:#0a70a3;fill-opacity:1;fill-rule:nonzero;stroke:none;stroke-width:0.352778"
         d="m -269.9001,4.1257005 c -0.23151,0 -0.3886,0.0055 -0.61873,0.017921 l -0.0248,-0.042721 c 0.0854,-0.40652 0.1695,-0.6779931 0.25494,-1.0790026 l 0.14469,-0.6917761 c 0.0193,-0.09095 0.0675,-0.2838767 0.0675,-0.447862 0,-0.4492413 -0.39412,-0.4671554 -0.51539,-0.4671554 -0.36931,0 -0.66146,0.217731 -0.80064,0.3210843 -0.1695,0.7827257 -0.34589,1.5654514 -0.49058,2.3523116 l -0.0427,0.037204 c -0.23151,0 -0.38861,0.0055 -0.61874,0.017921 l -0.0303,-0.042721 c 0.19982,-0.7992604 0.58153,-2.4859792 0.63666,-3.0316841 l 0.0427,-0.041342 c 0.23564,-0.0316794 0.40652,-0.0620113 0.64216,-0.11024304 l 0.0317,0.0427214 -0.0854,0.31005634 c 0.44235,-0.34037406 0.87919,-0.37069179 1.01837,-0.37069179 0.1819,0 0.87919,0.0303036 0.87919,0.80615369 0,0.1998168 -0.0786,0.6063368 -0.19982,1.1699557 l -0.091,0.4313238 c -0.0606,0.2907665 -0.11576,0.4905834 -0.15158,0.7813499 z m 0,0"
         id="path13203" />
      <path
         style="fill:#0a70a3;fill-opacity:1;fill-rule:nonzero;stroke:none;stroke-width:0.352778"
         d="m -266.81467,4.0292405 c -0.21221,0.1212674 -0.57051,0.1694992 -0.78272,0.1694992 -0.78135,0 -1.32154,-0.5884228 -1.32154,-1.3587484 0,-0.5043593 0.21911,-1.2857092 0.88608,-1.6922291 0.3514,-0.21221701 0.72071,-0.24253473 0.8847,-0.24253473 0.42581,0 0.75792,0.10335333 0.93982,0.24253473 l 0.0179,0.042718 c -0.0661,0.1763888 -0.10197,0.3031701 -0.15158,0.479559 l -0.0606,0.017921 c -0.0965,-0.1639887 -0.36242,-0.3031701 -0.68488,-0.3031701 -0.75792,0 -1.16995,0.8006397 -1.16995,1.4069765 0,0.7083143 0.55121,0.9163967 0.84335,0.9163967 0.10198,0 0.41755,-0.013794 0.73863,-0.2921423 l 0.0496,0.023424 c -0.0675,0.2011926 -0.10335,0.3403776 -0.15158,0.5470807 z m 0,0"
         id="path13205" />
      <path
         style="fill:#0a70a3;fill-opacity:1;fill-rule:nonzero;stroke:none;stroke-width:0.352778"
         d="m -265.66814,4.1201902 c -0.23564,0 -0.40652,0.0055 -0.64216,0.017921 l -0.0303,-0.037208 c 0.19293,-0.7028004 0.62425,-2.7037101 0.65457,-3.0316841 l 0.0427,-0.042718 c 0.24805,-0.0303036 0.41755,-0.0537457 0.66008,-0.0964636 l 0.0303,0.0427179 c -0.0303,-0.006879 -0.5333,2.3040799 -0.67248,3.1157475 z m 0.86679,-3.9963126 c -0.23565,0.0303036 -0.39963,0.0482318 -0.63666,0.0854392 l -0.0358,-0.0496076 c 0.0482,-0.20670661 0.0854,-0.35140195 0.12678,-0.55810503 l 0.0551,-0.041342 c 0.23702,-0.0303036 0.39963,-0.0496111 0.62976,-0.0854393 l 0.0496,0.0427179 c -0.0551,0.19981686 -0.091,0.35140195 -0.13918,0.55810856 z m 0,0"
         id="path13207" />
      <path
         style="fill:#0a70a3;fill-opacity:1;fill-rule:nonzero;stroke:none;stroke-width:0.352778"
         d="m -262.16241,4.1257005 c -0.23151,0 -0.38861,0.0055 -0.61874,0.017921 l -0.0248,-0.042721 c 0.0854,-0.40652 0.1695,-0.6779931 0.25494,-1.0790026 l 0.14607,-0.6917761 c 0.0179,-0.09095 0.0661,-0.2838767 0.0661,-0.447862 0,-0.4492413 -0.39412,-0.4671554 -0.51538,-0.4671554 -0.36932,0 -0.66008,0.217731 -0.80064,0.3210843 -0.1695,0.7827257 -0.34451,1.5654514 -0.49058,2.3523116 l -0.0427,0.037204 c -0.23013,0 -0.38861,0.0055 -0.61874,0.017921 l -0.0303,-0.042721 c 0.19981,-0.7992604 0.58153,-2.4859792 0.63665,-3.0316841 l 0.0427,-0.041342 c 0.23702,-0.0316794 0.40652,-0.0620113 0.64354,-0.11024304 l 0.0303,0.0427214 -0.0854,0.31005634 c 0.44234,-0.34037406 0.87919,-0.37069179 1.01837,-0.37069179 0.1819,0 0.87918,0.0303036 0.87918,0.80615369 0,0.1998168 -0.0785,0.6063368 -0.20119,1.1699557 l -0.0896,0.4313238 c -0.0606,0.2907665 -0.11576,0.4905834 -0.15158,0.7813499 z m 0,0"
         id="path13209" />
      <path
         style="fill:#0a70a3;fill-opacity:1;fill-rule:nonzero;stroke:none;stroke-width:0.352778"
         d="m -257.93046,1.0085808 c -0.1695,0.6848828 -0.32108,1.310513 -0.46715,1.9940199 l -0.1695,0.8020191 c -0.21222,1.0059671 -0.38861,1.8548386 -1.71566,1.8548386 -0.3638,0 -0.9095,-0.085439 -1.24988,-0.4547517 v -0.049611 c 0.0909,-0.1391814 0.15159,-0.2411553 0.24254,-0.3872265 h 0.0482 c 0.16399,0.212217 0.46715,0.4313237 0.91639,0.4313237 0.904,0 0.97565,-0.8364678 1.04318,-1.0445503 l 0.0593,-0.2466692 c -0.39963,0.2783628 -0.75654,0.2838732 -0.89021,0.2838732 -0.7152,0 -1.0914,-0.5457014 -1.0914,-1.1754662 0,-0.1515815 0.0234,-0.6669687 0.34588,-1.1644418 0.56913,-0.87918927 1.48002,-0.87918927 2.17593,-0.87918927 0.30316,0 0.7276,-0.0123825 0.7276,-0.0123825 z m -0.74551,0.4354583 c 0,0 -0.1819,-0.00413 -0.23703,-0.00413 -0.5457,0 -1.13412,0.096464 -1.46761,0.8047743 -0.14469,0.3169497 -0.16398,0.5649983 -0.16398,0.6986658 0,0.6297648 0.40652,0.7758359 0.70969,0.7758359 0.33348,0 0.57602,-0.1694991 0.70968,-0.2976562 z m 0,0"
         id="path13211" />
      <path
         style="fill:#0a70a3;fill-opacity:1;fill-rule:nonzero;stroke:none;stroke-width:0.352778"
         d="m -254.57769,4.1257005 c -0.23564,0 -0.39963,0.0055 -0.64216,0.011007 l -0.0303,-0.035828 c 0.14607,-0.5953125 0.82407,-3.41340019 0.87919,-3.7537743 -0.66697,0.006879 -0.95774,0.0192969 -1.24299,0.0248003 l -0.0303,-0.0372075 c 0.0537,-0.17500953 0.0909,-0.29627689 0.13367,-0.47266578 l 0.0482,-0.0303036 c 0.27836,0.006879 0.72209,0.0124178 1.08589,0.0124178 0.3514,0 1.59439,-0.005503 1.95819,-0.0179211 l 0.0303,0.0358316 c -0.0482,0.15847484 -0.0854,0.29765626 -0.13367,0.47266579 l -0.0427,0.0316794 c -0.24254,-0.0192969 -0.59945,-0.0192969 -1.13275,-0.0248003 -0.12127,0.41341323 -0.17087,0.71520399 -0.26734,1.14101739 l -0.30868,1.3821727 c -0.0909,0.4120304 -0.17639,0.8006398 -0.25494,1.2236979 z m 0,0"
         id="path13213" />
      <path
         style="fill:#0a70a3;fill-opacity:1;fill-rule:nonzero;stroke:none;stroke-width:0.352778"
         d="m -250.89419,3.9562049 c -0.20671,0.119888 -0.52228,0.2425348 -0.98806,0.2425348 -1.03766,0 -1.40697,-0.6187405 -1.40697,-1.3174063 0,-1.0597127 0.64768,-1.97610593 1.69774,-1.97610593 0.7152,0 1.2237,0.32797393 1.2237,1.13550343 0,0.2466693 -0.0537,0.4588863 -0.073,0.5512153 l -0.0413,0.028928 c -0.31557,0 -0.89159,-0.0055 -1.41938,-0.0055 -0.27285,0 -0.47267,0 -0.74552,0.012418 -0.005,0.035828 -0.0179,0.1446954 -0.0179,0.2604488 0,0.7951294 0.6904,0.8130434 0.90951,0.8130434 0.50298,0 0.76343,-0.1943029 1.00045,-0.363802 l 0.0482,0.030304 c -0.0661,0.1998133 -0.10886,0.3389947 -0.15709,0.5457013 z m -0.0785,-1.7652682 c 0.0234,-0.1391814 0.0303,-0.1998169 0.0303,-0.2659627 -0.0124,-0.5512153 -0.46715,-0.5953125 -0.62563,-0.5953125 -0.69728,0 -0.93293,0.6435443 -1.00045,0.8681649 0,0 1.20716,-0.00688 1.59577,-0.00688"
         id="path13215" />
      <path
         style="fill:#0a70a3;fill-opacity:1;fill-rule:nonzero;stroke:none;stroke-width:0.352778"
         d="m -247.94106,4.0292405 c -0.21221,0.1212674 -0.5705,0.1694992 -0.78272,0.1694992 -0.78135,0 -1.32154,-0.5884228 -1.32154,-1.3587484 0,-0.5043593 0.21773,-1.2857092 0.8847,-1.6922291 0.35278,-0.21221701 0.72072,-0.24253473 0.88608,-0.24253473 0.42443,0 0.75654,0.10335333 0.93844,0.24253473 l 0.0193,0.042718 c -0.0661,0.1763888 -0.10335,0.3031701 -0.15159,0.479559 l -0.0606,0.017921 c -0.0965,-0.1639887 -0.3638,-0.3031701 -0.68488,-0.3031701 -0.75793,0 -1.16996,0.8006397 -1.16996,1.4069765 0,0.7083143 0.55121,0.9163967 0.84198,0.9163967 0.10198,0 0.41755,-0.013794 0.74001,-0.2921423 l 0.0482,0.023424 c -0.0662,0.2011926 -0.10335,0.3403776 -0.15158,0.5470807 z m 0,0"
         id="path13217" />
      <path
         style="fill:#0a70a3;fill-opacity:1;fill-rule:nonzero;stroke:none;stroke-width:0.352778"
         d="m -244.77708,4.1257005 c -0.23013,0 -0.39274,0.0055 -0.61736,0.011007 l -0.0317,-0.035828 c 0.0551,-0.2191068 0.12127,-0.4781797 0.17088,-0.6972865 l 0.17501,-0.7634322 c 0.0358,-0.1639888 0.13918,-0.6311442 0.13918,-0.7951294 0,-0.424434 -0.37483,-0.4423516 -0.48507,-0.4423516 -0.37483,0 -0.73312,0.249428 -0.83647,0.3389983 l -0.24253,1.0803819 c -0.0965,0.4244376 -0.1695,0.8309575 -0.25494,1.2609054 l -0.0427,0.037208 c -0.22324,0 -0.38585,0.0055 -0.61185,0.011007 l -0.0358,-0.035828 c 0.0854,-0.3886095 0.91502,-3.7358638 1.00735,-4.64536725 l 0.0482,-0.0358281 c 0.24116,-0.0358316 0.41754,-0.0606354 0.66146,-0.11024305 l 0.0289,0.0427179 c -0.17088,0.63803036 -0.30317,1.27330553 -0.46165,1.9168499 0.18879,-0.1281572 0.54709,-0.35828825 1.05007,-0.35828825 0.15709,0 0.83647,0.0358281 0.83647,0.76481165 0,0.2673386 -0.0593,0.5457014 -0.10887,0.7634323 l -0.16398,0.7331146 c -0.0661,0.3031701 -0.12678,0.6187405 -0.18191,0.9219106 z m 0,0"
         id="path13219" />
      <path
         style="fill:#0a70a3;fill-opacity:1;fill-rule:nonzero;stroke:none;stroke-width:0.352778"
         d="m -241.27135,4.1257005 c -0.23014,0 -0.38861,0.0055 -0.61736,0.017921 l -0.0248,-0.042721 c 0.0841,-0.40652 0.16949,-0.6779931 0.25356,-1.0790026 l 0.14607,-0.6917761 c 0.0179,-0.09095 0.0675,-0.2838767 0.0675,-0.447862 0,-0.4492413 -0.3955,-0.4671554 -0.51676,-0.4671554 -0.36932,0 -0.66008,0.217731 -0.80064,0.3210843 -0.1695,0.7827257 -0.34451,1.5654514 -0.49059,2.3523116 l -0.0427,0.037204 c -0.23014,0 -0.38723,0.0055 -0.61737,0.017921 l -0.0303,-0.042721 c 0.19982,-0.7992604 0.58153,-2.4859792 0.63528,-3.0316841 l 0.0427,-0.041342 c 0.23702,-0.0316794 0.40652,-0.0620113 0.64354,-0.11024304 l 0.0303,0.0427214 -0.0854,0.31005634 c 0.44373,-0.34037406 0.87919,-0.37069179 1.01837,-0.37069179 0.1819,0 0.88057,0.0303036 0.88057,0.80615369 0,0.1998168 -0.0786,0.6063368 -0.2012,1.1699557 l -0.0909,0.4313238 c -0.0606,0.2907665 -0.11575,0.4905834 -0.15158,0.7813499 z m 0,0"
         id="path13221" />
      <path
         style="fill:#0a70a3;fill-opacity:1;fill-rule:nonzero;stroke:none;stroke-width:0.352778"
         d="m -238.61449,0.90522747 c 0.75103,0 1.29673,0.38309553 1.29673,1.18924563 0,0.6366545 -0.29077,2.1028872 -1.72255,2.1028872 -0.38171,0 -1.2609,-0.09095 -1.2609,-1.2112943 0,-0.9825425 0.53467,-2.08083853 1.68672,-2.08083853 m -0.41342,2.84427083 c 0.9164,0 1.06799,-1.4800121 1.06799,-1.6853429 0,-0.5884192 -0.3583,-0.7152005 -0.63115,-0.7152005 -0.83647,0 -1.0666,1.2429913 -1.0666,1.679829 0,0.3872301 0.1819,0.7207144 0.62976,0.7207144"
         id="path13223" />
      <path
         style="fill:#0a70a3;fill-opacity:1;fill-rule:nonzero;stroke:none;stroke-width:0.352778"
         d="m -236.38345,4.1257005 c -0.22462,0.0055 -0.38861,0.0055 -0.61736,0.017921 l -0.0248,-0.037208 c 0.0896,-0.4905834 0.73863,-3.14606168 0.95222,-4.65639155 l 0.0413,-0.0427214 c 0.24805,-0.0358281 0.41892,-0.0661458 0.66834,-0.11437408 l 0.0289,0.0358281 c -0.30316,1.31051301 -0.91502,4.20163633 -1.00045,4.75974483 z m 0,0"
         id="path13225" />
      <path
         style="fill:#0a70a3;fill-opacity:1;fill-rule:nonzero;stroke:none;stroke-width:0.352778"
         d="m -233.75277,0.90522747 c 0.7524,0 1.29811,0.38309553 1.29811,1.18924563 0,0.6366545 -0.29077,2.1028872 -1.72255,2.1028872 -0.38172,0 -1.26091,-0.09095 -1.26091,-1.2112943 0,-0.9825425 0.53468,-2.08083853 1.68535,-2.08083853 m -0.41204,2.84427083 c 0.9164,0 1.06798,-1.4800121 1.06798,-1.6853429 0,-0.5884192 -0.35829,-0.7152005 -0.63114,-0.7152005 -0.83647,0 -1.0666,1.2429913 -1.0666,1.679829 0,0.3872301 0.1819,0.7207144 0.62976,0.7207144"
         id="path13227" />
      <path
         style="fill:#0a70a3;fill-opacity:1;fill-rule:nonzero;stroke:none;stroke-width:0.352778"
         d="m -228.79873,1.0085808 c -0.1695,0.6848828 -0.32108,1.310513 -0.46578,1.9940199 l -0.16949,0.8020191 c -0.21222,1.0059671 -0.38861,1.8548386 -1.71566,1.8548386 -0.3638,0 -0.90951,-0.085439 -1.24988,-0.4547517 v -0.049611 c 0.0909,-0.1391814 0.15158,-0.2411553 0.24253,-0.3872265 h 0.0482 c 0.16399,0.212217 0.46716,0.4313237 0.91502,0.4313237 0.90399,0 0.97703,-0.8364678 1.04455,-1.0445503 l 0.0593,-0.2466692 c -0.39963,0.2783628 -0.75792,0.2838732 -0.89021,0.2838732 -0.7152,0 -1.09141,-0.5457014 -1.09141,-1.1754662 0,-0.1515815 0.0248,-0.6669687 0.34451,-1.1644418 0.57051,-0.87918927 1.48001,-0.87918927 2.1773,-0.87918927 0.30317,0 0.72761,-0.0123825 0.72761,-0.0123825 z m -0.74552,0.4354583 c 0,0 -0.1819,-0.00413 -0.23564,-0.00413 -0.5457,0 -1.13413,0.096464 -1.46761,0.8047743 -0.14607,0.3169497 -0.16399,0.5649983 -0.16399,0.6986658 0,0.6297648 0.40652,0.7758359 0.70969,0.7758359 0.33349,0 0.57602,-0.1694991 0.70969,-0.2976562 z m 0,0"
         id="path13229" />
      <path
         style="fill:#0a70a3;fill-opacity:1;fill-rule:nonzero;stroke:none;stroke-width:0.352778"
         d="m -225.51073,1.0154705 c -0.72898,1.1754662 -2.43086,4.0321407 -2.66237,4.5475243 l -0.0482,0.035832 h -0.27285 c -0.12127,0 -0.23703,0 -0.35829,0.00688 l -0.0179,-0.042721 c 0.17639,-0.2673385 0.77583,-1.1947595 0.9219,-1.462098 -0.23151,-1.5089506 -0.45475,-3.0068803 -0.48507,-3.0799159 l 0.0413,-0.0427178 c 0.23151,0 0.39412,-0.0124178 0.63114,-0.0303036 l 0.0482,0.0303036 c 0.0317,0.3348637 0.0496,0.5691293 0.0909,0.8984791 l 0.17639,1.4304045 0.5898,-1.0431744 c 0.22875,-0.4051441 0.45889,-0.8185538 0.67662,-1.2553915 l 0.0496,-0.0358317 c 0.0661,0.005503 0.1323,0.005503 0.19982,0.005503 0.1447,0 0.24943,-0.005503 0.38861,-0.0124178 z m 0,0"
         id="path13231" />
      <path
         style="fill:#0a70a3;fill-opacity:1;fill-rule:nonzero;stroke:none;stroke-width:0.352778"
         d="m -263.83121,11.582266 c -0.23152,0.0069 -0.38861,0.01242 -0.61323,0.0248 l -0.0303,-0.03721 c 0.2136,-0.988053 0.0923,-0.406524 0.58843,-2.6733964 -0.11438,0 -0.29077,0.0055 -0.46027,0.0055 l -0.0358,-0.035832 c 0.0414,-0.1515815 0.073,-0.2549348 0.10887,-0.4065199 l 0.0482,-0.042718 c 0.1571,0.012382 0.27285,0.017921 0.42995,0.017921 l 0.0909,-0.4368376 c 0.13367,-0.6476789 0.24942,-1.1947596 1.09692,-1.1947596 0.21359,0 0.35277,0.037208 0.44372,0.055122 l 0.0303,0.048232 c -0.0427,0.1529609 -0.073,0.2618246 -0.11024,0.4120339 l -0.0482,0.037204 c -0.0413,-0.0055 -0.12677,-0.042718 -0.23564,-0.042718 -0.38172,0 -0.44235,0.2494245 -0.55259,0.734494 l -0.0841,0.38723 h 0.10335 c 0.17639,0 0.29628,0 0.47267,-0.0055 l 0.0303,0.048232 c -0.0427,0.1212673 -0.073,0.2425347 -0.11576,0.3886059 l -0.0482,0.042721 c -0.1943,-0.00688 -0.33348,-0.012418 -0.5333,-0.012418 -0.1943,0.9632491 -0.39412,1.7032577 -0.5333,2.6499677 z m 0,0"
         id="path13233" />
      <path
         style="fill:#0a70a3;fill-opacity:1;fill-rule:nonzero;stroke:none;stroke-width:0.352778"
         d="m -261.00624,8.3631685 c 0.75241,0 1.29812,0.3817161 1.29812,1.1878698 0,0.6366547 -0.29077,2.1042627 -1.72255,2.1042627 -0.38172,0 -1.26091,-0.09232 -1.26091,-1.212673 0,-0.9839187 0.5333,-2.0794595 1.68534,-2.0794595 m -0.41203,2.8428945 c 0.91502,0 1.0666,-1.4800152 1.0666,-1.6867183 0,-0.5856675 -0.35691,-0.715204 -0.62976,-0.715204 -0.83647,0 -1.06798,1.2443703 -1.06798,1.6798293 0,0.388606 0.18328,0.722093 0.63114,0.722093"
         id="path13235" />
      <path
         style="fill:#0a70a3;fill-opacity:1;fill-rule:nonzero;stroke:none;stroke-width:0.352778"
         d="m -258.80413,11.582266 c -0.23703,0 -0.40101,0.0069 -0.63114,0.01242 l -0.0303,-0.03721 c 0.25494,-0.952225 0.60083,-2.514921 0.66146,-3.031684 l 0.0413,-0.041342 c 0.24392,-0.031679 0.41893,-0.055122 0.65595,-0.1033533 l 0.0303,0.042721 c -0.0482,0.1750095 -0.0854,0.332105 -0.13367,0.5319219 0.0909,-0.1502057 0.35829,-0.5994471 0.78824,-0.5994471 0.13367,0 0.21773,0.030304 0.27974,0.067525 l 0.0179,0.053742 c -0.091,0.2177309 -0.15158,0.3706918 -0.23702,0.5939367 l -0.0606,0.019297 c -0.0427,-0.030304 -0.13918,-0.086815 -0.25494,-0.086815 -0.16261,0 -0.53881,0.086815 -0.7276,0.8736753 -0.0551,0.2315105 -0.29628,1.2733095 -0.3514,1.6619155 z m 0,0"
         id="path13237" />
      <path
         style="fill:#0a70a3;fill-opacity:1;fill-rule:nonzero;stroke:none;stroke-width:0.352778"
         d="m -252.21849,11.576755 c -0.17639,0 -0.41341,0.01238 -0.65457,0.01238 l -0.0248,-0.03168 c 0.18053,-0.752408 0.30869,-1.278819 0.47267,-2.036741 -0.23013,-0.00688 -0.39412,-0.00688 -0.61874,-0.00688 h -0.63665 c -0.26596,0 -0.45476,0 -0.72761,0.019297 -0.1626,0.666969 -0.29076,1.346344 -0.42994,2.013313 l -0.0427,0.03583 c -0.24254,0 -0.41341,0 -0.64906,0.01242 l -0.0303,-0.04272 c 0.0675,-0.272852 0.81304,-3.4630109 0.94671,-4.2195535 l 0.0427,-0.037207 c 0.24253,0 0.41203,-0.0055 0.64768,-0.012418 l 0.0303,0.035832 c -0.17501,0.7276042 -0.15709,0.6132266 -0.39411,1.6922292 0.0248,0 0.24804,0.00688 0.41203,0.00688 0.54019,0 1.15204,-0.00688 1.56545,-0.017921 0.21222,-0.9715182 0.28387,-1.328427 0.3514,-1.6674253 l 0.0413,-0.037208 c 0.24254,0 0.41341,-0.0055 0.65595,-0.012418 l 0.0234,0.035832 c -0.38172,1.6371076 -0.80064,3.4698976 -0.93982,4.2209296 z m 0,0"
         id="path13239" />
      <path
         style="fill:#0a70a3;fill-opacity:1;fill-rule:nonzero;stroke:none;stroke-width:0.352778"
         d="m -248.69071,11.576755 c -0.21773,0.0055 -0.3762,0.01238 -0.59394,0.02342 l -0.0303,-0.04272 0.073,-0.290767 c -0.31557,0.260449 -0.66698,0.376206 -0.98806,0.376206 -0.74,0 -0.90399,-0.502983 -0.90399,-0.830957 0,-0.217731 0.0482,-0.447862 0.1571,-0.9274214 l 0.12815,-0.5636154 c 0.0606,-0.267342 0.10887,-0.4547552 0.17639,-0.8364714 l 0.0413,-0.042718 c 0.22462,0 0.38172,-0.012418 0.60634,-0.0248 l 0.0303,0.035828 c -0.22324,0.9219071 -0.47266,1.8851562 -0.47266,2.1593842 0,0.176389 0.0482,0.520901 0.52089,0.520901 0.27423,0 0.54709,-0.114377 0.80754,-0.351402 0.31557,-1.4193798 0.45475,-2.1042625 0.48369,-2.2971897 l 0.0482,-0.037207 c 0.22599,-0.0055 0.38309,-0.017921 0.61322,-0.030304 l 0.0248,0.042718 c -0.18878,0.7096901 -0.61873,2.6678817 -0.67937,3.0799157 z m 0,0"
         id="path13241" />
      <path
         style="fill:#0a70a3;fill-opacity:1;fill-rule:nonzero;stroke:none;stroke-width:0.352778"
         d="m -243.3894,11.582266 c -0.2191,0 -0.3762,0.0069 -0.59531,0.01242 l -0.0358,-0.04272 c 0.091,-0.352778 0.17501,-0.722094 0.26045,-1.080382 l 0.10886,-0.46578 c 0.0854,-0.363802 0.12127,-0.593933 0.12127,-0.70969 0,-0.40652 -0.3514,-0.4189236 -0.45475,-0.4189236 -0.3762,0 -0.67937,0.2191103 -0.81166,0.3334879 -0.007,0.1212673 -0.0427,0.4189236 -0.12816,0.7951257 l -0.13781,0.636655 c -0.0675,0.30868 -0.12953,0.593933 -0.18327,0.903993 l -0.0427,0.03583 c -0.22324,0 -0.38172,0.0069 -0.60634,0.01242 l -0.0303,-0.04823 c 0.0965,-0.370692 0.46715,-1.8631078 0.46715,-2.2379342 0,-0.3996302 -0.34037,-0.4313273 -0.45475,-0.4313273 -0.32659,0 -0.62425,0.2246207 -0.73449,0.3224636 l -0.19982,0.9039929 c -0.11438,0.531922 -0.19982,0.902614 -0.29077,1.442805 l -0.0427,0.02893 c -0.23014,0.0069 -0.38723,0.0069 -0.61186,0.0193 l -0.0358,-0.04272 c 0.23564,-0.891593 0.58704,-2.5287009 0.64768,-3.0316844 l 0.0358,-0.035832 c 0.24392,-0.03168 0.41342,-0.060632 0.64355,-0.1033533 l 0.0372,0.042721 -0.0799,0.3086805 c 0.17087,-0.1460711 0.56499,-0.3706918 1.03766,-0.3706918 0.13918,0 0.50987,0.042718 0.66008,0.4437274 0.50436,-0.4010095 0.98254,-0.4437274 1.14653,-0.4437274 0.44235,0 0.82406,0.2439105 0.82406,0.7400043 0,0.2067066 -0.0482,0.4313273 -0.10197,0.673862 l -0.10335,0.4602657 c -0.11025,0.478179 -0.16399,0.824064 -0.26734,1.310513 z m 0,0"
         id="path13243" />
      <path
         style="fill:#0a70a3;fill-opacity:1;fill-rule:nonzero;stroke:none;stroke-width:0.352778"
         d="m -239.87953,11.582266 h -0.1571 c -0.15158,0 -0.26045,0.0069 -0.41203,0.01242 l -0.0303,-0.03721 0.0413,-0.242535 c -0.28388,0.231511 -0.58705,0.30317 -0.8847,0.30317 -0.71521,0 -1.12173,-0.533301 -1.12173,-1.182359 0,-0.4478619 0.19431,-0.8667856 0.28525,-1.023881 0.50299,-0.886079 1.40147,-0.988053 2.03813,-0.988053 0.28387,0 0.90261,0.011007 0.90261,0.011007 l 0.0303,0.042718 c -0.49058,2.140095 -0.57051,2.485983 -0.64906,3.068892 z m -1.16996,-0.436838 c 0.18879,0 0.49196,-0.08544 0.7028,-0.303167 0.15159,-0.61874 0.27285,-1.2553946 0.43822,-1.9526811 -0.0744,0 -0.16537,-0.012418 -0.26183,-0.012418 -0.58153,0 -1.16995,0.1832821 -1.47312,0.903993 -0.0358,0.085439 -0.13367,0.3279741 -0.13367,0.6132301 0,0.429948 0.25494,0.751029 0.7276,0.751029"
         id="path13245" />
      <path
         style="fill:#0a70a3;fill-opacity:1;fill-rule:nonzero;stroke:none;stroke-width:0.352778"
         d="m -236.3738,11.582266 c -0.23014,0 -0.38861,0.0069 -0.61874,0.01792 l -0.0248,-0.04272 c 0.0854,-0.40652 0.17087,-0.677993 0.25493,-1.079003 l 0.14607,-0.6917757 c 0.0179,-0.089574 0.0662,-0.2838768 0.0662,-0.447862 0,-0.4492413 -0.39274,-0.4671554 -0.51539,-0.4671554 -0.36931,0 -0.66008,0.2191068 -0.80064,0.3210843 -0.1695,0.7827257 -0.34451,1.5640718 -0.49058,2.3536878 l -0.0427,0.03583 c -0.23013,0 -0.38722,0.0069 -0.61873,0.01792 l -0.0289,-0.04272 c 0.19981,-0.80064 0.58153,-2.4859791 0.63527,-3.031684 l 0.0427,-0.041342 c 0.23703,-0.031679 0.40652,-0.060632 0.64354,-0.110243 l 0.0289,0.042721 -0.0841,0.3086805 c 0.44373,-0.3389983 0.87919,-0.369316 1.01837,-0.369316 0.1819,0 0.88057,0.030304 0.88057,0.8061537 0,0.1998133 -0.0799,0.6063368 -0.20119,1.1713318 l -0.0909,0.429948 c -0.0606,0.290767 -0.11438,0.490583 -0.15021,0.782726 z m 0,0"
         id="path13247" />
      <path
         style="fill:#0a70a3;fill-opacity:1;fill-rule:nonzero;stroke:none;stroke-width:0.352778"
         d="m -234.88828,11.576755 c -0.23564,0 -0.40652,0.0055 -0.64216,0.01792 l -0.0303,-0.03721 c 0.19293,-0.7028 0.62425,-2.7037101 0.65457,-3.0316841 l 0.0427,-0.041342 c 0.24942,-0.031679 0.41892,-0.055122 0.66008,-0.09646 l 0.0317,0.041339 c -0.0317,-0.0055 -0.53468,2.3027041 -0.67386,3.1171241 z m 0.86679,-3.9963122 c -0.23565,0.030304 -0.39963,0.048232 -0.63528,0.085439 l -0.0372,-0.049608 c 0.0496,-0.2067066 0.0854,-0.3514019 0.12678,-0.5567292 l 0.0551,-0.042718 c 0.23703,-0.030304 0.39964,-0.049611 0.63115,-0.085439 l 0.0482,0.042718 c -0.0551,0.1998169 -0.091,0.351402 -0.13918,0.5567292 z m 0,0"
         id="path13249" />
      <path
         style="fill:#0a70a3;fill-opacity:1;fill-rule:nonzero;stroke:none;stroke-width:0.352778"
         d="m -232.7344,11.569866 c -0.2012,0.04823 -0.35967,0.05512 -0.43822,0.05512 -0.57602,0 -0.72072,-0.297656 -0.72072,-0.600826 0,-0.230131 0.12679,-0.763433 0.30317,-1.4979265 l 0.15159,-0.6297648 h -0.12127 c -0.11575,0 -0.20119,0 -0.31557,0.0055 l -0.0303,-0.042721 c 0.0427,-0.1391814 0.073,-0.2480451 0.10886,-0.3996302 l 0.0427,-0.030304 c 0.15848,0.0055 0.26045,0.0055 0.41892,0.0055 0.073,-0.2797422 0.10887,-0.4795591 0.16261,-0.7579219 l 0.0441,-0.042718 c 0.23565,-0.048232 0.39963,-0.089574 0.62977,-0.1502057 l 0.0303,0.034431 c -0.0482,0.1639887 -0.0786,0.2866319 -0.12127,0.4506207 l -0.11575,0.465776 c 0.24942,0 0.41892,0 0.66146,-0.011007 l 0.0303,0.041342 c -0.0551,0.1460711 -0.0854,0.2549348 -0.12816,0.401006 l -0.0413,0.035832 c -0.23151,-0.0055 -0.39412,-0.0055 -0.62425,-0.0055 l -0.32797,1.3697684 c -0.0303,0.121268 -0.11576,0.497473 -0.11576,0.618741 0,0.194303 0.14056,0.260449 0.29766,0.260449 0.15709,0 0.30317,-0.06063 0.35691,-0.07855 l 0.0317,0.0303 c -0.0496,0.157099 -0.0854,0.267342 -0.12816,0.424438 z m 0,0"
         id="path13251" />
      <path
         style="fill:#0a70a3;fill-opacity:1;fill-rule:nonzero;stroke:none;stroke-width:0.352778"
         d="m -229.03437,8.4720357 c -0.72761,1.176842 -2.43086,4.0321373 -2.66099,4.5461483 l -0.0496,0.0372 h -0.27284 c -0.1199,0 -0.23565,0 -0.35692,0.0055 l -0.0179,-0.04272 c 0.17639,-0.265963 0.77584,-1.193384 0.92053,-1.460723 -0.23013,-1.50895 -0.45475,-3.0068799 -0.48369,-3.0799155 l 0.0413,-0.042718 c 0.23151,0 0.3955,-0.011007 0.63114,-0.030304 l 0.0482,0.030304 c 0.0303,0.3348637 0.0482,0.5691294 0.0909,0.8971033 l 0.17639,1.4317802 0.58843,-1.0431743 c 0.23013,-0.4065199 0.46026,-0.8185538 0.67799,-1.2553915 l 0.0482,-0.035832 c 0.0675,0.0055 0.13367,0.0055 0.20119,0.0055 0.1447,0 0.24805,-0.0055 0.38723,-0.011007 z m 0,0"
         id="path13253" />
      <path
         style="fill:#0a70a3;fill-opacity:1;fill-rule:nonzero;stroke:none;stroke-width:0.352778"
         d="m -266.3985,-18.985375 h 3.7524 v 13.5461128 h -3.7524 z m 0,0"
         id="path13255" />
      <path
         style="fill:#0a70a3;fill-opacity:1;fill-rule:nonzero;stroke:none;stroke-width:0.352778"
         d="M -260.67688,-5.4392622 V -18.985375 h 10.31875 v 2.62516 h -6.56774 v 2.79604 h 6.04132 v 2.626543 h -6.04132 v 2.8704505 h 6.56774 v 2.6279193 z m 0,0"
         id="path13257" />
      <path
         style="fill:#0a70a3;fill-opacity:1;fill-rule:nonzero;stroke:none;stroke-width:0.352778"
         d="M -248.25663,-5.4392622 V -18.985375 h 10.316 v 2.62516 h -6.5636 v 2.79604 h 6.03856 v 2.626543 h -6.03856 v 2.8704505 h 6.5636 v 2.6279193 z m 0,0"
         id="path13259" />
      <path
         style="fill:#0a70a3;fill-opacity:1;fill-rule:nonzero;stroke:none;stroke-width:0.352778"
         d="M -235.83912,-5.4392622 V -18.985375 h 10.31875 v 2.62516 h -6.5636 v 2.79604 h 6.03856 v 2.626543 h -6.03856 v 2.8704505 h 6.5636 v 2.6279193 z m 0,0"
         id="path13261" />
      <path
         style="fill:#0a70a3;fill-opacity:1;fill-rule:nonzero;stroke:none;stroke-width:0.352778"
         d="m -278.43429,-18.833794 c 0.59945,-0.465776 1.35186,-0.07854 1.85484,0.350023 0.52641,0.402389 1.07625,0.858517 1.55719,1.325672 l 0.0882,0.04961 c 1.33394,1.238857 2.57418,2.614136 3.59255,4.069345 0.16398,0.253559 0.31006,0.540191 0.21773,0.876434 -0.339,0.848871 -1.0294,1.525488 -1.6316,2.2654928 -1.305,1.4056007 -2.68166,2.7643455 -4.22369,3.848862 -0.31143,0.2204861 -0.73174,0.4230582 -1.10518,0.2494245 -1.13413,-0.5939332 -2.09049,-1.5668272 -3.08405,-2.4529063 -1.15067,-1.0679818 -2.30684,-2.31097 -3.17914,-3.611838 -0.12953,-0.181902 -0.16674,-0.407899 -0.16261,-0.647678 0.113,-0.449242 0.41893,-0.818554 0.71107,-1.197515 1.03077,-1.313272 2.29306,-2.560398 3.56912,-3.698657 0.0303,-0.02893 0.0841,-0.09095 0.13091,-0.121267 0.54709,-0.474045 1.09141,-0.892969 1.66467,-1.305003 m 1.75425,-1.367013 -0.67662,-0.960491 c -0.0841,-0.04961 -0.18741,-0.133671 -0.27836,-0.158475 -0.19982,-0.08682 -0.41617,0.01792 -0.57878,0.141937 l -1.22508,1.595769 c -1.96646,2.434992 -4.29396,4.708758 -6.83369,6.451974 -0.19981,0.157096 -0.49885,0.31006 -0.56086,0.569129 -0.0661,0.231511 0.0551,0.424438 0.19844,0.567754 2.03398,1.401463 3.9784,3.0633775 5.70783,4.9595581 0.30731,0.3238394 0.55673,0.6435442 0.85714,0.9467144 0.50574,0.6738585 1.10106,1.351855 1.56545,2.0753247 0.14608,0.1529609 0.17088,0.4023853 0.39964,0.4768003 0.17776,0.062011 0.39825,0.1047327 0.56913,0 l 0.16949,-0.1694991 c 2.10427,-2.9806971 4.77215,-5.6568447 7.75285,-7.8176084 0.29903,-0.267342 0.86816,-0.366561 0.87643,-0.861275 -0.0207,-0.227376 -0.15296,-0.453376 -0.35002,-0.577399 l -0.0482,-0.0083 c -1.53375,-1.043174 -2.96415,-2.224151 -4.3105,-3.562226 l -1.48828,-1.554427 c -0.60358,-0.668349 -1.18787,-1.409736 -1.74597,-2.115291 m -1.53376,1.733574 c 0.61185,-0.416168 1.16031,0.165365 1.63435,0.498849 1.83279,1.474502 3.56223,3.162597 4.87826,5.069802 0.16674,0.245289 0.24116,0.627009 0.0937,0.905372 -0.34314,0.570509 -0.8034,1.090027 -1.24024,1.619194 v 0.02755 c -1.09003,1.1603068 -2.23931,2.3523112 -3.48368,3.3334744 -0.60634,0.3706918 -1.16306,1.1768419 -1.94441,0.6766136 -1.77905,-1.300868 -3.4823,-2.9173064 -4.92511,-4.650878 -0.24529,-0.381716 -0.62701,-0.693151 -0.79788,-1.125858 -0.23703,-0.585664 0.28663,-1.005967 0.58566,-1.446939 1.47175,-1.814876 3.3004,-3.5953 5.19934,-4.907192 m 0.38585,1.196135 -0.16536,0.531922 -0.83096,2.382629 c 0.20808,0.02067 0.46578,0 0.66973,0.02067 v 0.0193 l -0.12127,2.694055 0.0207,0.02893 c 0.26596,0.0248 0.59807,0.03859 0.86954,-0.0083 v -0.04272 l -0.10886,-2.611381 0.0165,-0.0882 0.73174,-0.01242 c -0.36518,-0.964628 -0.71934,-1.938898 -1.05971,-2.914551 z m -2.82911,3.731729 c -0.46578,0.234266 -1.15204,0.587044 -1.07625,1.226454 0.0992,0.348643 0.47818,0.574639 0.77721,0.719335 1.65365,0.727604 3.84887,0.752408 5.59484,0.209461 0.43133,-0.166744 1.0101,-0.407899 1.08865,-0.935686 -0.004,-0.436838 -0.46578,-0.71107 -0.79788,-0.87781 v -0.02067 c 0.11575,-0.04686 0.24804,-0.08682 0.36793,-0.100598 v -0.01101 c -0.58429,-0.104732 -1.14928,-0.257693 -1.71566,-0.407899 0.10887,0.249425 0.18742,0.511249 0.27837,0.768943 0.17087,-0.05374 0.34589,-0.09508 0.52916,-0.119888 0.29904,0.115753 0.72623,0.282497 0.76895,0.655944 0.0331,0.348647 -0.35002,0.519522 -0.59118,0.660083 -1.2802,0.465776 -2.72162,0.511252 -4.05694,0.158474 -0.36932,-0.117132 -0.90124,-0.265962 -0.94672,-0.735873 0.26183,-0.61874 0.93845,-0.746897 1.50482,-0.897103 -0.29076,-0.187413 -0.58704,-0.354157 -0.86816,-0.56224 -0.30455,0.01792 -0.58291,0.150206 -0.85714,0.270098 m 2.36471,2.685796 c -0.0496,0.9563554 -0.062,1.8410586 -0.13229,2.801549 0.37758,0.033055 0.80615,0.066146 1.20854,0.00826 l -0.11989,-2.673392 -0.0207,-0.126782 c -0.30868,0.01101 -0.59944,0.02342 -0.93569,-0.0096"
         id="path13263" />
      <path
         style="fill:#0a70a3;fill-opacity:1;fill-rule:nonzero;stroke:none;stroke-width:0.352778"
         d="m -274.76181,-5.3827613 c -0.33487,0 -0.63252,0.2315104 -0.63252,0.6283854 0,0.3982544 0.29765,0.6311406 0.63252,0.6311406 0.3321,0 0.62976,-0.2328862 0.62976,-0.6311406 0,-0.396875 -0.29766,-0.6283854 -0.62976,-0.6283854 m 0,1.1134549 v -0.00141 c -0.24943,0.00141 -0.45062,-0.1929236 -0.45062,-0.4836901 0,-0.2880113 0.20119,-0.4809349 0.45062,-0.4809349 0.24391,0 0.45061,0.1929236 0.45061,0.4809349 0,0.2907665 -0.2067,0.4850694 -0.45061,0.4850694 m 0.28112,-0.6187405 c 0,-0.1543402 -0.10198,-0.2039478 -0.27837,-0.2039478 h -0.25218 v 0.6766172 h 0.1447 v -0.283845 h 0.0689 l 0.15572,0.2838767 h 0.17225 l -0.17501,-0.2962804 c 0.0923,-0.00826 0.16399,-0.052363 0.16399,-0.1763889 m -0.2577,0.073036 h -0.12815 V -4.978995 h 0.10197 c 0.0551,0 0.12954,0.0055 0.12954,0.075791 0,0.075794 -0.0372,0.088195 -0.10336,0.088195"
         id="path13265" />
    </g>
  </g>
</svg>
