<svg xmlns="http://www.w3.org/2000/svg" viewBox="0 0 1254.9 419.1"><defs><style>.cls-1{fill:#bd5f76;}.cls-2{fill:#be706d;}.cls-3{fill:#bd4e4a;}.cls-4{fill:#eb703b;}.cls-5{fill:#8d835c;}.cls-6{fill:#8c6845;}.cls-7{fill:#8c9557;}.cls-8{fill:#7c8e72;}.cls-9{fill:#4a8256;}.cls-10{fill:#23ad7e;}.cls-11{fill:#7c7e79;}.cls-12{fill:#637da6;}.cls-13{fill:#6d5b6e;}.cls-14{fill:#42746c;}.cls-15{fill:#768178;}.cls-16{fill:#c093c2;}.cls-17{fill:#72c38a;}.cls-18{fill:#f09486;}.cls-19{fill:#f3b26b;}.cls-20{fill:#60c2d0;}</style></defs><g id="Layer_2" data-name="Layer 2"><g id="Layer_2-2" data-name="Layer 2"><g id="Group_1" data-name="Group 1"><path id="Path_1" data-name="Path 1" class="cls-1" d="M340,279.7c-6.4,7.8-13.3,15.4-20.4,22.6a64.9,64.9,0,0,0-45,5c-25.7,12.4-58.3,16.3-85.1-5.8a129.6,129.6,0,0,1,6.8-15.8,80.3,80.3,0,0,1,13.9-19.3,61.1,61.1,0,0,0,43.1,6.3,98.3,98.3,0,0,0,36.3-13.4A99.1,99.1,0,0,0,340,279.7Z"/><path id="Path_2" data-name="Path 2" class="cls-2" d="M404.5,194.2A100.3,100.3,0,0,1,393,208.7a40.1,40.1,0,0,0-6.4,45.6,106,106,0,0,1,7.6,15.5,86.3,86.3,0,0,1-22.5,8,102.3,102.3,0,0,1-31.7,1.9,63.6,63.6,0,0,0,11.3-22.5c7.7-30.2-5.7-56.7,2.7-90.5a76.5,76.5,0,0,0,27.2,14.7A67.3,67.3,0,0,1,404.5,194.2Z"/><path id="Path_3" data-name="Path 3" class="cls-1" d="M354.5,117a44.5,44.5,0,0,1,22.3-1.5,74.4,74.4,0,0,1-9.1,20.1A108.1,108.1,0,0,0,354,166.7a104.7,104.7,0,0,1-23.5-30.9A45.7,45.7,0,0,1,354.5,117Z"/><path id="Path_4" data-name="Path 4" class="cls-3" d="M354,166.7c-8.4,33.8,5,60.3-2.7,90.5A63.6,63.6,0,0,1,340,279.7a100,100,0,0,1-50.4-20.4c29.3-18.7,35.7-50.8,31.8-79.2a65.6,65.6,0,0,1,9.1-44.3A106.4,106.4,0,0,0,354,166.7Z"/><path id="Path_5" data-name="Path 5" class="cls-4" d="M330.6,135.8a65.1,65.1,0,0,0-9.2,44.3c3.9,28.3-2.5,60.5-31.8,79.2a116.8,116.8,0,0,1-12.9-11.4,80.6,80.6,0,0,1-14.1-19.2,61.2,61.2,0,0,0,19.4-39,98.9,98.9,0,0,0-1.6-38.7,99,99,0,0,0,35-41.6C320.9,117.9,325.9,126.8,330.6,135.8Z"/><path id="Path_6" data-name="Path 6" class="cls-4" d="M212.3,61.2a106.2,106.2,0,0,1-36.7,12.7,44.5,44.5,0,0,1-5-50.2,76.4,76.4,0,0,1,16.3,14.8A107.8,107.8,0,0,0,212.3,61.2Z"/><path id="Path_7" data-name="Path 7" class="cls-5" d="M322.7,54.8a91.1,91.1,0,0,1,.7,23.9,101.7,101.7,0,0,1-8.1,30.7,60.1,60.1,0,0,0-17.8-17.7c-26.4-16.6-55.7-12.1-85.2-30.5a78.4,78.4,0,0,0,22.4-21.3,64.9,64.9,0,0,1,19.4-18.2A103.8,103.8,0,0,1,264.2,37a40.2,40.2,0,0,0,41.4,20.3A108.4,108.4,0,0,1,322.7,54.8Z"/><path id="Path_8" data-name="Path 8" class="cls-6" d="M315.3,109.4A98.1,98.1,0,0,1,280.4,151c-8.7-33.6-37.3-49.6-65.5-54.7a65.2,65.2,0,0,1-39.3-22.4,106.2,106.2,0,0,0,36.7-12.7c29.5,18.4,58.8,13.9,85.2,30.5A60.1,60.1,0,0,1,315.3,109.4Z"/><path id="Path_9" data-name="Path 9" class="cls-7" d="M280.4,151a124,124,0,0,1-14.9,8.8,78.3,78.3,0,0,1-22.5,7.4,61.2,61.2,0,0,0-31.2-30.4,99.2,99.2,0,0,0-37.2-10.5,99.4,99.4,0,0,0-28.8-46.1,303.4,303.4,0,0,1,29.8-6.3,65,65,0,0,0,39.3,22.4C243.1,101.4,271.7,117.4,280.4,151Z"/><path id="Path_10" data-name="Path 10" class="cls-7" d="M68.1,163.3a107.7,107.7,0,0,1,.8,38.8,44.7,44.7,0,0,1-49.4-10.7,76.1,76.1,0,0,1,19.2-10.9A106,106,0,0,0,68.1,163.3Z"/><path id="Path_11" data-name="Path 11" class="cls-8" d="M145.8,80.2a62.3,62.3,0,0,0-22.4,11.6C99.5,111.7,94.8,141,68.1,163.3a76.3,76.3,0,0,0-13.4-27.8,65.6,65.6,0,0,1-11.2-24.1,96.6,96.6,0,0,1,17.7-4.9,40.1,40.1,0,0,0,32-33.1,109.8,109.8,0,0,1,2.9-17,83.3,83.3,0,0,1,23,6.7A97.3,97.3,0,0,1,145.8,80.2Z"/><path id="Path_12" data-name="Path 12" class="cls-9" d="M174.6,126.3c-34.7-2-58.8,20.2-72.3,45.4a65.4,65.4,0,0,1-33.4,30.5,106,106,0,0,0-.8-38.9c26.7-22.3,31.4-51.6,55.3-71.5a62.3,62.3,0,0,1,22.4-11.6A99.4,99.4,0,0,1,174.6,126.3Z"/><path id="Path_13" data-name="Path 13" class="cls-10" d="M178.4,143.2a81.8,81.8,0,0,1,.1,23.7,61.1,61.1,0,0,0-38.6,20.3,99.5,99.5,0,0,0-21.5,32.1,99.1,99.1,0,0,0-52.7,13.1,283.1,283.1,0,0,1,3.2-30.3,64.8,64.8,0,0,0,33.4-30.4c13.5-25.2,37.6-47.5,72.3-45.4A137.7,137.7,0,0,1,178.4,143.2Z"/><path id="Path_14" data-name="Path 14" class="cls-10" d="M157.9,343.3a44.7,44.7,0,0,1-25.5,43.6,76.3,76.3,0,0,1-4.5-21.6,106.2,106.2,0,0,0-7.2-33.3A107.8,107.8,0,0,1,157.9,343.3Z"/><path id="Path_15" data-name="Path 15" class="cls-11" d="M297.4,334.2a74.7,74.7,0,0,0-5.5,30.3,66.3,66.3,0,0,1-5,26.1,97.1,97.1,0,0,1-17.3-6.4,40,40,0,0,0-45.3,8,108.3,108.3,0,0,1-12.4,12,89.2,89.2,0,0,1-14.6-18.9,102,102,0,0,1-11.6-29.6,62.5,62.5,0,0,0,24.9,3.9C241.7,357.5,262.7,336.5,297.4,334.2Z"/><path id="Path_16" data-name="Path 16" class="cls-12" d="M353.2,340a80.4,80.4,0,0,1-21.9-2.4,104.7,104.7,0,0,0-33.9-3.5,105.3,105.3,0,0,1,22.2-31.8A44.7,44.7,0,0,1,353.2,340Z"/><path id="Path_17" data-name="Path 17" class="cls-13" d="M319.6,302.3a104.6,104.6,0,0,0-22.2,31.9c-34.7,2.3-55.7,23.3-86.8,25.4a62,62,0,0,1-24.9-3.9,99.1,99.1,0,0,1,3.8-54.2c26.8,22.1,59.4,18.2,85.2,5.8A64.6,64.6,0,0,1,319.6,302.3Z"/><path id="Path_18" data-name="Path 18" class="cls-12" d="M189.5,301.5a99,99,0,0,0-3.8,54.2,301.3,301.3,0,0,1-27.8-12.4,64.8,64.8,0,0,0-18.7-41.2c-19.8-20.7-33.5-50.5-20.8-82.8a141,141,0,0,1,17.2,1.6,79.7,79.7,0,0,1,22.6,7.3,61.3,61.3,0,0,0,7.3,42.9A99.8,99.8,0,0,0,189.5,301.5Z"/><path id="Path_19" data-name="Path 19" class="cls-14" d="M139.2,302.1a64.8,64.8,0,0,1,18.7,41.2A107.8,107.8,0,0,0,120.7,332c-13-32.2-39.4-45.8-51-74.7a62.1,62.1,0,0,1-4-24.9,99.3,99.3,0,0,1,52.7-13.1C105.7,251.7,119.4,281.4,139.2,302.1Z"/><path id="Path_20" data-name="Path 20" class="cls-15" d="M120.7,332a75.7,75.7,0,0,0-30.6,4.2,65.8,65.8,0,0,1-26.4,3.3,102.7,102.7,0,0,1,.8-18.4,40.1,40.1,0,0,0-21.6-40.7,111.9,111.9,0,0,1-15.3-8.1,88.3,88.3,0,0,1,13.5-19.7,99,99,0,0,1,24.6-20.1,61.9,61.9,0,0,0,4,24.8C81.3,286.2,107.7,299.8,120.7,332Z"/><path id="Path_21" data-name="Path 21" class="cls-16" d="M42.9,280.4a39.9,39.9,0,0,1,21.6,40.7,102,102,0,0,0-.8,18.3,45,45,0,0,1-36.3-22.1,46.5,46.5,0,0,1,.2-45A111.9,111.9,0,0,0,42.9,280.4Z"/><path id="Path_22" data-name="Path 22" class="cls-16" d="M210.2,266.4a81.8,81.8,0,0,0-13.9,19.2,124.6,124.6,0,0,0-6.8,15.9,99.8,99.8,0,0,1-24-30.4,61.4,61.4,0,0,1-7.3-43C179.3,238.6,192.2,256.3,210.2,266.4Z"/><path id="Path_23" data-name="Path 23" class="cls-16" d="M394.2,269.8a53.5,53.5,0,0,1-.5,47.3A46.8,46.8,0,0,1,353.2,340a44.7,44.7,0,0,0-33.6-37.7c7.2-7.2,14-14.8,20.4-22.6a102.3,102.3,0,0,0,31.7-1.9A86.3,86.3,0,0,0,394.2,269.8Z"/><path id="Path_24" data-name="Path 24" class="cls-16" d="M411.6,146a54.4,54.4,0,0,1-7.1,48.2,67.3,67.3,0,0,0-23.3-12.8A76.5,76.5,0,0,1,354,166.7a105.7,105.7,0,0,1,13.8-31.1,77.3,77.3,0,0,0,9-20.1A45.3,45.3,0,0,1,411.6,146Z"/><path id="Path_25" data-name="Path 25" class="cls-17" d="M127.9,365.3a76.3,76.3,0,0,0,4.5,21.6,45.3,45.3,0,0,1-46.1-4.3,54.4,54.4,0,0,1-22.6-43.2,64.1,64.1,0,0,0,26.4-3.3,77.5,77.5,0,0,1,30.6-4.1A105.6,105.6,0,0,1,127.9,365.3Z"/><path id="Path_26" data-name="Path 26" class="cls-17" d="M68.9,202.1a283.1,283.1,0,0,0-3.2,30.3,101.7,101.7,0,0,0-24.6,20.2,86.1,86.1,0,0,0-13.5,19.7A53.5,53.5,0,0,1,.2,233.7a46.9,46.9,0,0,1,19.4-42.3,44.5,44.5,0,0,0,49.3,10.7Z"/><path id="Path_27" data-name="Path 27" class="cls-17" d="M211.8,136.8A61.2,61.2,0,0,1,243,167.2c-23.2,4-44-2.8-64.5-.3a81.8,81.8,0,0,0-.1-23.7,137.7,137.7,0,0,0-3.8-16.9A98.7,98.7,0,0,1,211.8,136.8Z"/><path id="Path_28" data-name="Path 28" class="cls-17" d="M322.7,54.8a108.4,108.4,0,0,0-17.1,2.5A40.2,40.2,0,0,1,264.2,37,97,97,0,0,0,254,21.7a44.7,44.7,0,0,1,42.4-3.4A46.3,46.3,0,0,1,322.7,54.8Z"/><path id="Path_29" data-name="Path 29" class="cls-18" d="M286.8,390.6a44.7,44.7,0,0,1-32.2,27.7,46.3,46.3,0,0,1-42.8-14.1,101.3,101.3,0,0,0,12.4-12.1,40.2,40.2,0,0,1,45.3-7.9A100.1,100.1,0,0,0,286.8,390.6Z"/><path id="Path_30" data-name="Path 30" class="cls-18" d="M276.7,247.9a116.8,116.8,0,0,0,12.9,11.4,100.1,100.1,0,0,1-36.3,13.4,61.6,61.6,0,0,1-43.1-6.3c16.5-16.9,37.3-23.6,52.4-37.6A79.3,79.3,0,0,0,276.7,247.9Z"/><path id="Path_31" data-name="Path 31" class="cls-18" d="M367.6,69.9a47,47,0,0,1,9.2,45.6,44.6,44.6,0,0,0-46.2,20.3c-4.7-9.1-9.7-17.9-15.2-26.4a98.7,98.7,0,0,0,8-30.7,87,87,0,0,0-.7-23.9A53.7,53.7,0,0,1,367.6,69.9Z"/><path id="Path_32" data-name="Path 32" class="cls-18" d="M210.4,0A54.1,54.1,0,0,1,254,21.7a65.4,65.4,0,0,0-19.3,18.1,77,77,0,0,1-22.4,21.3,107.3,107.3,0,0,1-25.4-22.6,76.4,76.4,0,0,0-16.3-14.8A45.3,45.3,0,0,1,210.4,0Z"/><path id="Path_33" data-name="Path 33" class="cls-19" d="M404.4,194.2a45.1,45.1,0,0,1,16.4,39.3,46.4,46.4,0,0,1-26.6,36.3,113,113,0,0,0-7.7-15.6,40.1,40.1,0,0,1,6.5-45.5A93.3,93.3,0,0,0,404.4,194.2Z"/><path id="Path_34" data-name="Path 34" class="cls-19" d="M280.4,151a97.1,97.1,0,0,1,1.5,38.7,61.5,61.5,0,0,1-19.3,39.1c-11-20.9-10.9-42.8-19.6-61.6a76.3,76.3,0,0,0,22.5-7.4A116.6,116.6,0,0,0,280.4,151Z"/><path id="Path_35" data-name="Path 35" class="cls-19" d="M54.7,135.5a75.5,75.5,0,0,1,13.4,27.8,106,106,0,0,1-29.4,17.2,76.8,76.8,0,0,0-19.1,10.9A45.3,45.3,0,0,1,9.3,146.2a54.6,54.6,0,0,1,34.2-34.8A65.6,65.6,0,0,0,54.7,135.5Z"/><path id="Path_36" data-name="Path 36" class="cls-19" d="M170.6,23.7a44.5,44.5,0,0,0,5,50.2,303.4,303.4,0,0,0-29.8,6.3A100,100,0,0,0,119.1,63a90.8,90.8,0,0,0-23-6.7,53.6,53.6,0,0,1,28.3-38A46.8,46.8,0,0,1,170.6,23.7Z"/><path id="Path_37" data-name="Path 37" class="cls-20" d="M353.2,340a45.7,45.7,0,0,1-18.3,42.6,54.7,54.7,0,0,1-48.1,8.1,63.5,63.5,0,0,0,5-26.1,77,77,0,0,1,5.6-30.4,104.9,104.9,0,0,1,33.9,3.4A73.3,73.3,0,0,0,353.2,340Z"/><path id="Path_38" data-name="Path 38" class="cls-20" d="M211.8,404.2a53.6,53.6,0,0,1-45.2,14.2,46.8,46.8,0,0,1-34.2-31.5,44.7,44.7,0,0,0,25.5-43.6,301.3,301.3,0,0,0,27.8,12.4,99,99,0,0,0,11.5,29.6A89.2,89.2,0,0,0,211.8,404.2Z"/><path id="Path_39" data-name="Path 39" class="cls-20" d="M178.5,166.9c-3.5,23.3-16.3,41-20.3,61.3a78.7,78.7,0,0,0-22.6-7.3,141,141,0,0,0-17.2-1.6,101,101,0,0,1,21.5-32.2A61.4,61.4,0,0,1,178.5,166.9Z"/><path id="Path_40" data-name="Path 40" class="cls-20" d="M96.1,56.3a111.1,111.1,0,0,0-2.9,17.1,40.2,40.2,0,0,1-32,33.1,99.9,99.9,0,0,0-17.8,4.9A45.3,45.3,0,0,1,53.3,70,46.4,46.4,0,0,1,96.1,56.3Z"/></g><g id="Group_2" data-name="Group 2"><path id="Path_41" data-name="Path 41" d="M519.4,192.8H490V47h29.4Z"/><path id="Path_42" data-name="Path 42" d="M565.7,84.5l.8,10.7a29.8,29.8,0,0,1,25.1-12.7q27.9,0,28.7,39.1v71.2H591.9V123.7a25.1,25.1,0,0,0-2.7-13.4,10.9,10.9,0,0,0-9.7-4.1,13.4,13.4,0,0,0-12,7.9v78.7H539.1V84.5Z"/><path id="Path_43" data-name="Path 43" d="M670.6,57.9V84.5h14.5v21.2H670.6v53.8a15.7,15.7,0,0,0,1.7,8.8,7.7,7.7,0,0,0,6.8,2.4,21.5,21.5,0,0,0,6.7-.7l-.2,22.1a46.1,46.1,0,0,1-15.6,2.7c-18.3,0-27.5-10.5-27.7-31.5V105.7H629.8V84.5h12.5V57.9Z"/><path id="Path_44" data-name="Path 44" d="M740.3,194.8a44.6,44.6,0,0,1-34-13,52.8,52.8,0,0,1-12.2-37.3v-8.6a61.7,61.7,0,0,1,11.2-39.5,38.8,38.8,0,0,1,32.1-13.9,36.9,36.9,0,0,1,30.8,13,63.1,63.1,0,0,1,10.5,38.6V148H722.4a29.5,29.5,0,0,0,5.3,17.7,18.2,18.2,0,0,0,14.5,5.6,31.7,31.7,0,0,0,23.7-9.8L777,178.7a36.8,36.8,0,0,1-15.1,11.6A53.3,53.3,0,0,1,740.3,194.8Zm-17.8-66.5h28.4v-2.6a32.5,32.5,0,0,0-3.2-14.7,11.2,11.2,0,0,0-10.5-5,11.8,11.8,0,0,0-10.7,5.3,36,36,0,0,0-4,17Z"/><path id="Path_45" data-name="Path 45" d="M846,111.8l-9.4-.8a15.5,15.5,0,0,0-15.7,10.2v71.6H792.5V84.5h26.7l.8,11.6a20.2,20.2,0,0,1,26.3-12.4Z"/><path id="Path_46" data-name="Path 46" d="M953.9,138.6,967.7,47h29.1L970.9,192.8H941.4l-17-85.9-16.8,85.9H877.9L851.9,47h29.4L895,138.5,912.1,47h24.7Z"/><path id="Path_47" data-name="Path 47" d="M999.9,135.1a58.8,58.8,0,0,1,11.6-38.6,44.1,44.1,0,0,1,62.3-2.2l2.2,2.2a59.2,59.2,0,0,1,11.6,38.8v6.9a59.3,59.3,0,0,1-11.5,38.6,44.3,44.3,0,0,1-62.8,1.8l-1.8-1.8A59.4,59.4,0,0,1,999.9,142Zm28.4,7.1c0,19.4,5.2,29,15.6,29s14.6-8.1,15.4-24.2V135.1a46.3,46.3,0,0,0-4.2-22,12.5,12.5,0,0,0-11.6-7.1,12.4,12.4,0,0,0-11.2,7.1,46.2,46.2,0,0,0-4.1,22Z"/><path id="Path_48" data-name="Path 48" d="M1155.6,111.8l-9.4-.8a15.6,15.6,0,0,0-15.7,10.2v71.6h-28.4V84.5h26.7l.8,11.6a20.7,20.7,0,0,1,18.6-13.7,21,21,0,0,1,7.8,1.3Z"/><path id="Path_49" data-name="Path 49" d="M1202.7,151l-7.6,8.5v33.3h-28.3V39h28.3v83.1l3.5-5.2,19.6-32.4h33.7l-31.4,44.6,34.4,63.7h-32.4Z"/><path id="Path_50" data-name="Path 50" d="M558.2,348.4H518.1l-7.8,29.9H479.2l45.5-145.8h26.9l45.9,145.8H566Zm-33.7-24.5h27.2L538.1,272Z"/><path id="Path_51" data-name="Path 51" d="M637.3,378.3H608.9V224.5h28.4Z"/><path id="Path_52" data-name="Path 52" d="M684.7,378.3H656.3V224.5h28.4Z"/><path id="Path_53" data-name="Path 53" d="M702.4,242a14.7,14.7,0,0,1,4.2-10.8,16.9,16.9,0,0,1,22.5,0,14.7,14.7,0,0,1,4.2,10.8,15.5,15.5,0,0,1-30.9.6V242Zm29.8,136.3H703.7V270h28.5Z"/><path id="Path_54" data-name="Path 54" d="M801.4,378.3a32.1,32.1,0,0,1-2.4-8.4,24.6,24.6,0,0,1-20.7,10.4,30.5,30.5,0,0,1-22.5-9,31.5,31.5,0,0,1-8.9-23.4,32.8,32.8,0,0,1,10.8-26.3,47.6,47.6,0,0,1,31.3-9.5h8.6v-8.7a17,17,0,0,0-2.5-10.3,8.8,8.8,0,0,0-7.3-3c-7.1,0-10.6,4.1-10.6,12.4H748.9a31.3,31.3,0,0,1,11.2-24.8,42.2,42.2,0,0,1,28.5-9.7,38.7,38.7,0,0,1,27.6,9.2,34.8,34.8,0,0,1,9.7,26.5v51a54.9,54.9,0,0,0,4,21.9v1.7ZM784.6,358a14.8,14.8,0,0,0,8-1.9,12.5,12.5,0,0,0,4.9-4.5V329.1h-6.7a14.7,14.7,0,0,0-11.4,4.6,17.5,17.5,0,0,0-4.1,12.3q0,12,9.3,12Z"/><path id="Path_55" data-name="Path 55" d="M870,270l.8,10.7A29.7,29.7,0,0,1,895.9,268q27.9,0,28.7,39.1v71.2H896.2V309.2a25.1,25.1,0,0,0-2.7-13.4,11,11,0,0,0-9.7-4.1,13.4,13.4,0,0,0-12,7.9v78.7H843.4V270Z"/><path id="Path_56" data-name="Path 56" d="M981.1,356.7c8.2,0,12.4-5.3,12.5-16h26.6a39.7,39.7,0,0,1-10.9,28.7,37.3,37.3,0,0,1-27.6,10.9,39.7,39.7,0,0,1-31.9-13.1,58.3,58.3,0,0,1-11.2-38.3v-8.6a60.5,60.5,0,0,1,10.8-38.9A38.6,38.6,0,0,1,981.5,268a36.2,36.2,0,0,1,28.2,11,44.6,44.6,0,0,1,10.5,31.4H993.6a28.1,28.1,0,0,0-3-14,10.3,10.3,0,0,0-9.6-4.9,11.3,11.3,0,0,0-10.6,5.2,44.6,44.6,0,0,0-3.4,20.4v11a81.9,81.9,0,0,0,1.3,18.5,13.6,13.6,0,0,0,4.3,7.7A12.8,12.8,0,0,0,981.1,356.7Z"/><path id="Path_57" data-name="Path 57" d="M1076.9,380.3a44.4,44.4,0,0,1-34-13.1,52.4,52.4,0,0,1-12.2-37.2v-8.6a61.1,61.1,0,0,1,11.2-39.5A38.5,38.5,0,0,1,1074,268a36.6,36.6,0,0,1,30.7,13,61.8,61.8,0,0,1,10.5,38.6v14h-56.3a30.1,30.1,0,0,0,5.3,17.6,18.1,18.1,0,0,0,14.5,5.6,32.1,32.1,0,0,0,23.8-9.7l11.1,17.1a37.7,37.7,0,0,1-15.1,11.7A55.3,55.3,0,0,1,1076.9,380.3Zm-17.8-66.5h28.3v-2.6a29.8,29.8,0,0,0-3.2-14.7,11,11,0,0,0-10.4-5,11.7,11.7,0,0,0-10.7,5.3,36,36,0,0,0-4,17Z"/></g></g></g></svg>