<?xml version="1.0" encoding="UTF-8"?>
<svg width="29px" height="30px" viewBox="0 0 29 30" version="1.1" xmlns="http://www.w3.org/2000/svg" xmlns:xlink="http://www.w3.org/1999/xlink">
    <title>Group 4</title>
    <defs>
        <linearGradient x1="100%" y1="50%" x2="0%" y2="100%" id="linearGradient-1">
            <stop stop-color="#00E599" offset="0%"></stop>
            <stop stop-color="#00AF92" offset="100%"></stop>
        </linearGradient>
        <circle id="path-2" cx="14.448" cy="14.448" r="14.448"></circle>
    </defs>
    <g id="Page-1" stroke="none" stroke-width="1" fill="none" fill-rule="evenodd">
        <g id="0.1.1-Discover-NEO---Neo-People---Core-developers" transform="translate(-937.000000, -1390.000000)">
            <g id="Content" transform="translate(266.500000, 710.000000)">
                <g id="Erik-listing" transform="translate(359.000000, 287.500000)">
                    <g id="Group-4" transform="translate(311.500000, 393.000000)">
                        <g id="Oval">
                            <use fill="url(#linearGradient-1)" xlink:href="#path-2"></use>
                            <use fill="#000033" xlink:href="#path-2"></use>
                        </g>
                        <path d="M10.7040016,11.0429906 C11.5665027,11.0429906 12.1065033,10.47299 12.0990033,9.76048912 C12.0915033,9.03298825 11.5665027,8.47798759 10.7190017,8.47798759 C9.87900066,8.47798759 9.324,9.03298825 9.324,9.76048912 C9.324,10.47299 9.85650063,11.0429906 10.6890016,11.0429906 L10.7040016,11.0429906 Z M15.7740077,19.4880007 L15.7740077,15.3404958 C15.7740077,15.1154955 15.7965077,14.8979952 15.8565078,14.732995 C16.036508,14.2904945 16.4415085,13.832994 17.1240093,13.832994 C18.0165104,13.832994 18.3765108,14.5154948 18.3765108,15.512996 L18.3765108,19.4880007 L20.8440137,19.4880007 L20.8440137,15.2279956 C20.8440137,12.9479929 19.6290123,11.8829916 18.0015103,11.8829916 C16.7406755,11.8829916 16.148823,12.5452841 15.8152719,13.0485074 L15.774,13.113 L15.7740077,12.0554919 L13.3065047,12.0554919 L13.3069311,12.068114 C13.3069995,12.0703798 13.3070753,12.0729897 13.3071582,12.0759741 L13.3077352,12.0986169 C13.307844,12.1032207 13.3079588,12.1082598 13.3080791,12.1137645 L13.3088622,12.1526244 C13.3115237,12.2949168 13.3157885,12.6272722 13.3181417,13.3582542 L13.3188171,13.6025846 C13.3189178,13.6455959 13.3190121,13.6897722 13.3190995,13.735144 L13.319161,15.4853397 C13.3177548,16.4978409 13.3140048,17.8042487 13.3065047,19.4880007 L15.7740077,19.4880007 Z M11.9415031,19.4880007 L11.9415031,12.0554919 L9.46650017,12.0554919 L9.46650017,19.4880007 L11.9415031,19.4880007 Z" id="" fill="#FFFFFF" fill-rule="nonzero"></path>
                    </g>
                </g>
            </g>
        </g>
    </g>
</svg>