<svg id="Layer_1" data-name="Layer 1" xmlns="http://www.w3.org/2000/svg" viewBox="0 0 348 197"><defs><style>.cls-1{fill:#ebfdf7;}.cls-2{fill:#d9dbdc;}.cls-3{fill:#2b393f;}.cls-4{fill:#02e49b;}.cls-5{fill:#fff;}</style></defs><title>News</title><rect class="cls-1" x="-0.07" y="0.68" width="348.14" height="195.48"/><path class="cls-2" d="M195.53,149.64l-44.25-30.52a5.58,5.58,0,0,1-2.79-4.83V87.49a2.75,2.75,0,0,1,4.14-2.37L205.56,116a3.66,3.66,0,0,1,1.73,4Z"/><path class="cls-3" d="M192.79,73.36a5.59,5.59,0,0,1,2.74,4.81v71.05a2.75,2.75,0,0,1-4.13,2.38l-48-27.78a5.58,5.58,0,0,1-2.79-4.84V47.62a2.75,2.75,0,0,1,4.14-2.37Z"/><path class="cls-4" d="M175.16,98.6l-26.06-15a2.94,2.94,0,0,1-1.48-2.56l-.13-21.59a1.48,1.48,0,0,1,2.21-1.28l26.06,15a3,3,0,0,1,1.48,2.55l.13,21.6A1.47,1.47,0,0,1,175.16,98.6Z"/><path class="cls-2" d="M187.16,119.41,148.41,96.87a1.82,1.82,0,0,1-.92-1.59V91a.92.92,0,0,1,1.38-.79l38.74,22.53a1.84,1.84,0,0,1,.92,1.59v4.24A.92.92,0,0,1,187.16,119.41Z"/><path class="cls-2" d="M172.54,123.12,148.39,109a1.83,1.83,0,0,1-.9-1.57v-4.24a.91.91,0,0,1,1.39-.78L173,116.53a1.83,1.83,0,0,1,.9,1.57v4.23A.92.92,0,0,1,172.54,123.12Z"/><path class="cls-2" d="M186.38,142.05,179,137.57a1.84,1.84,0,0,1-.92-1.59v-4.24a.92.92,0,0,1,1.37-.8l7.39,4.49a1.83,1.83,0,0,1,.92,1.59v4.24A.92.92,0,0,1,186.38,142.05Z"/><path class="cls-5" d="M160.43,74.28l-3.83-2.22a.91.91,0,0,1-.46-.79V66.84a.46.46,0,0,1,.69-.39l3.83,2.21a.92.92,0,0,1,.46.79v4.43A.47.47,0,0,1,160.43,74.28Z"/><path class="cls-5" d="M152.58,85.64l-3.51-2a2.91,2.91,0,0,1-1.46-2.54V77l4.51,2.62a.91.91,0,0,1,.46.79Z"/><polygon class="cls-5" points="157.16 88.26 152.18 85.41 152.18 79.62 157.16 82.5 157.16 88.26"/><path class="cls-5" d="M161.39,90.68l-5-2.84v-5a.46.46,0,0,1,.69-.4l3.82,2.21a.92.92,0,0,1,.46.8Z"/><path class="cls-5" d="M165.4,87.44l-3.83-2.22a.9.9,0,0,1-.45-.79V80a.45.45,0,0,1,.68-.39l3.83,2.21a.94.94,0,0,1,.46.8V87A.46.46,0,0,1,165.4,87.44Z"/><path class="cls-5" d="M170.16,84.67l-3.83-2.21a.94.94,0,0,1-.46-.79V77.24a.47.47,0,0,1,.69-.4l3.83,2.22a.91.91,0,0,1,.46.79v4.43A.46.46,0,0,1,170.16,84.67Z"/></svg>