<svg viewBox="0 0 348 197" xmlns="http://www.w3.org/2000/svg"><path d="m-.07.68h348.14v195.48h-348.14z" fill="#ebfdf7"/><path d="m195.53 149.64-44.25-30.52a5.58 5.58 0 0 1 -2.79-4.83v-26.8a2.75 2.75 0 0 1 4.14-2.37l52.93 30.88a3.66 3.66 0 0 1 1.73 4z" fill="#d9dbdc"/><path d="m192.79 73.36a5.59 5.59 0 0 1 2.74 4.81v71.05a2.75 2.75 0 0 1 -4.13 2.38l-48-27.78a5.58 5.58 0 0 1 -2.79-4.84v-71.36a2.75 2.75 0 0 1 4.14-2.37z" fill="#2b393f"/><path d="m175.16 98.6-26.06-15a2.94 2.94 0 0 1 -1.48-2.56l-.13-21.59a1.48 1.48 0 0 1 2.21-1.28l26.06 15a3 3 0 0 1 1.48 2.55l.13 21.6a1.47 1.47 0 0 1 -2.21 1.28z" fill="#02e49b"/><path d="m187.16 119.41-38.75-22.54a1.82 1.82 0 0 1 -.92-1.59v-4.28a.92.92 0 0 1 1.38-.79l38.74 22.53a1.84 1.84 0 0 1 .92 1.59v4.24a.92.92 0 0 1 -1.37.84z" fill="#d9dbdc"/><path d="m172.54 123.12-24.15-14.12a1.83 1.83 0 0 1 -.9-1.57v-4.24a.91.91 0 0 1 1.39-.78l24.12 14.12a1.83 1.83 0 0 1 .9 1.57v4.23a.92.92 0 0 1 -1.36.79z" fill="#d9dbdc"/><path d="m186.38 142.05-7.38-4.48a1.84 1.84 0 0 1 -.92-1.59v-4.24a.92.92 0 0 1 1.37-.8l7.39 4.49a1.83 1.83 0 0 1 .92 1.59v4.24a.92.92 0 0 1 -1.38.79z" fill="#d9dbdc"/><g fill="#fff"><path d="m160.43 74.28-3.83-2.22a.91.91 0 0 1 -.46-.79v-4.43a.46.46 0 0 1 .69-.39l3.83 2.21a.92.92 0 0 1 .46.79v4.43a.47.47 0 0 1 -.69.4z"/><path d="m152.58 85.64-3.51-2a2.91 2.91 0 0 1 -1.46-2.54v-4.1l4.51 2.62a.91.91 0 0 1 .46.79z"/><path d="m157.16 88.26-4.98-2.85v-5.79l4.98 2.88z"/><path d="m161.39 90.68-5-2.84v-5a.46.46 0 0 1 .69-.4l3.82 2.21a.92.92 0 0 1 .46.8z"/><path d="m165.4 87.44-3.83-2.22a.9.9 0 0 1 -.45-.79v-4.43a.45.45 0 0 1 .68-.39l3.83 2.21a.94.94 0 0 1 .46.8v4.38a.46.46 0 0 1 -.69.44z"/><path d="m170.16 84.67-3.83-2.21a.94.94 0 0 1 -.46-.79v-4.43a.47.47 0 0 1 .69-.4l3.83 2.22a.91.91 0 0 1 .46.79v4.43a.46.46 0 0 1 -.69.39z"/></g></svg>