<?xml version="1.0" encoding="UTF-8"?>
<svg width="361px" height="415px" viewBox="0 0 361 415" version="1.1" xmlns="http://www.w3.org/2000/svg" xmlns:xlink="http://www.w3.org/1999/xlink">
    <title>neo 1 illustration 2</title>
    <defs>
        <polygon id="path-1" points="247.426 21 293.607671 47.663 293.607671 100.989 247.426 127.652 201.244329 100.989 201.244329 47.663"></polygon>
        <filter x="-39.2%" y="-15.9%" width="150.4%" height="163.8%" filterUnits="objectBoundingBox" id="filter-2">
            <feOffset dx="-16" dy="18" in="SourceAlpha" result="shadowOffsetOuter1"></feOffset>
            <feGaussianBlur stdDeviation="8" in="shadowOffsetOuter1" result="shadowBlurOuter1"></feGaussianBlur>
            <feColorMatrix values="0 0 0 0 0.316369017   0 0 0 0 0.366987588   0 0 0 0 0.353495709  0 0 0 0.257409583 0" type="matrix" in="shadowBlurOuter1" result="shadowMatrixOuter1"></feColorMatrix>
            <feOffset dx="-5" dy="9" in="SourceAlpha" result="shadowOffsetOuter2"></feOffset>
            <feGaussianBlur stdDeviation="3.5" in="shadowOffsetOuter2" result="shadowBlurOuter2"></feGaussianBlur>
            <feColorMatrix values="0 0 0 0 0   0 0 0 0 0   0 0 0 0 0  0 0 0 0.144614907 0" type="matrix" in="shadowBlurOuter2" result="shadowMatrixOuter2"></feColorMatrix>
            <feMerge>
                <feMergeNode in="shadowMatrixOuter1"></feMergeNode>
                <feMergeNode in="shadowMatrixOuter2"></feMergeNode>
            </feMerge>
        </filter>
        <polygon id="path-3" points="139.526 21 185.707671 47.663 185.707671 100.989 139.526 127.652 93.3443293 100.989 93.3443293 47.663"></polygon>
        <filter x="-39.2%" y="-15.9%" width="150.4%" height="163.8%" filterUnits="objectBoundingBox" id="filter-4">
            <feOffset dx="-16" dy="18" in="SourceAlpha" result="shadowOffsetOuter1"></feOffset>
            <feGaussianBlur stdDeviation="8" in="shadowOffsetOuter1" result="shadowBlurOuter1"></feGaussianBlur>
            <feColorMatrix values="0 0 0 0 0.316369017   0 0 0 0 0.366987588   0 0 0 0 0.353495709  0 0 0 0.257409583 0" type="matrix" in="shadowBlurOuter1" result="shadowMatrixOuter1"></feColorMatrix>
            <feOffset dx="-5" dy="9" in="SourceAlpha" result="shadowOffsetOuter2"></feOffset>
            <feGaussianBlur stdDeviation="3.5" in="shadowOffsetOuter2" result="shadowBlurOuter2"></feGaussianBlur>
            <feColorMatrix values="0 0 0 0 0   0 0 0 0 0   0 0 0 0 0  0 0 0 0.144614907 0" type="matrix" in="shadowBlurOuter2" result="shadowMatrixOuter2"></feColorMatrix>
            <feMerge>
                <feMergeNode in="shadowMatrixOuter1"></feMergeNode>
                <feMergeNode in="shadowMatrixOuter2"></feMergeNode>
            </feMerge>
        </filter>
        <polygon id="path-5" points="298.126 109.4 344.307671 136.063 344.307671 189.389 298.126 216.052 251.944329 189.389 251.944329 136.063"></polygon>
        <filter x="-39.2%" y="-15.9%" width="150.4%" height="163.8%" filterUnits="objectBoundingBox" id="filter-6">
            <feOffset dx="-16" dy="18" in="SourceAlpha" result="shadowOffsetOuter1"></feOffset>
            <feGaussianBlur stdDeviation="8" in="shadowOffsetOuter1" result="shadowBlurOuter1"></feGaussianBlur>
            <feColorMatrix values="0 0 0 0 0.316369017   0 0 0 0 0.366987588   0 0 0 0 0.353495709  0 0 0 0.257409583 0" type="matrix" in="shadowBlurOuter1" result="shadowMatrixOuter1"></feColorMatrix>
            <feOffset dx="-5" dy="9" in="SourceAlpha" result="shadowOffsetOuter2"></feOffset>
            <feGaussianBlur stdDeviation="3.5" in="shadowOffsetOuter2" result="shadowBlurOuter2"></feGaussianBlur>
            <feColorMatrix values="0 0 0 0 0   0 0 0 0 0   0 0 0 0 0  0 0 0 0.144614907 0" type="matrix" in="shadowBlurOuter2" result="shadowMatrixOuter2"></feColorMatrix>
            <feMerge>
                <feMergeNode in="shadowMatrixOuter1"></feMergeNode>
                <feMergeNode in="shadowMatrixOuter2"></feMergeNode>
            </feMerge>
        </filter>
        <polygon id="path-7" points="192.826 108.1 239.007671 134.763 239.007671 188.089 192.826 214.752 146.644329 188.089 146.644329 134.763"></polygon>
        <filter x="-39.2%" y="-15.9%" width="150.4%" height="163.8%" filterUnits="objectBoundingBox" id="filter-8">
            <feOffset dx="-16" dy="18" in="SourceAlpha" result="shadowOffsetOuter1"></feOffset>
            <feGaussianBlur stdDeviation="8" in="shadowOffsetOuter1" result="shadowBlurOuter1"></feGaussianBlur>
            <feColorMatrix values="0 0 0 0 0.316369017   0 0 0 0 0.366987588   0 0 0 0 0.353495709  0 0 0 0.257409583 0" type="matrix" in="shadowBlurOuter1" result="shadowMatrixOuter1"></feColorMatrix>
            <feOffset dx="-5" dy="9" in="SourceAlpha" result="shadowOffsetOuter2"></feOffset>
            <feGaussianBlur stdDeviation="3.5" in="shadowOffsetOuter2" result="shadowBlurOuter2"></feGaussianBlur>
            <feColorMatrix values="0 0 0 0 0   0 0 0 0 0   0 0 0 0 0  0 0 0 0.144614907 0" type="matrix" in="shadowBlurOuter2" result="shadowMatrixOuter2"></feColorMatrix>
            <feMerge>
                <feMergeNode in="shadowMatrixOuter1"></feMergeNode>
                <feMergeNode in="shadowMatrixOuter2"></feMergeNode>
            </feMerge>
        </filter>
        <polygon id="path-9" points="246.126 197.8 292.307671 224.463 292.307671 277.789 246.126 304.452 199.944329 277.789 199.944329 224.463"></polygon>
        <filter x="-39.2%" y="-15.9%" width="150.4%" height="163.8%" filterUnits="objectBoundingBox" id="filter-10">
            <feOffset dx="-16" dy="18" in="SourceAlpha" result="shadowOffsetOuter1"></feOffset>
            <feGaussianBlur stdDeviation="8" in="shadowOffsetOuter1" result="shadowBlurOuter1"></feGaussianBlur>
            <feColorMatrix values="0 0 0 0 0.316369017   0 0 0 0 0.366987588   0 0 0 0 0.353495709  0 0 0 0.257409583 0" type="matrix" in="shadowBlurOuter1" result="shadowMatrixOuter1"></feColorMatrix>
            <feOffset dx="-5" dy="9" in="SourceAlpha" result="shadowOffsetOuter2"></feOffset>
            <feGaussianBlur stdDeviation="3.5" in="shadowOffsetOuter2" result="shadowBlurOuter2"></feGaussianBlur>
            <feColorMatrix values="0 0 0 0 0   0 0 0 0 0   0 0 0 0 0  0 0 0 0.144614907 0" type="matrix" in="shadowBlurOuter2" result="shadowMatrixOuter2"></feColorMatrix>
            <feMerge>
                <feMergeNode in="shadowMatrixOuter1"></feMergeNode>
                <feMergeNode in="shadowMatrixOuter2"></feMergeNode>
            </feMerge>
        </filter>
        <polygon id="path-11" points="138.226 197.8 184.407671 224.463 184.407671 277.789 138.226 304.452 92.0443293 277.789 92.0443293 224.463"></polygon>
        <filter x="-39.2%" y="-15.9%" width="150.4%" height="163.8%" filterUnits="objectBoundingBox" id="filter-12">
            <feOffset dx="-16" dy="18" in="SourceAlpha" result="shadowOffsetOuter1"></feOffset>
            <feGaussianBlur stdDeviation="8" in="shadowOffsetOuter1" result="shadowBlurOuter1"></feGaussianBlur>
            <feColorMatrix values="0 0 0 0 0.316369017   0 0 0 0 0.366987588   0 0 0 0 0.353495709  0 0 0 0.257409583 0" type="matrix" in="shadowBlurOuter1" result="shadowMatrixOuter1"></feColorMatrix>
            <feOffset dx="-5" dy="9" in="SourceAlpha" result="shadowOffsetOuter2"></feOffset>
            <feGaussianBlur stdDeviation="3.5" in="shadowOffsetOuter2" result="shadowBlurOuter2"></feGaussianBlur>
            <feColorMatrix values="0 0 0 0 0   0 0 0 0 0   0 0 0 0 0  0 0 0 0.144614907 0" type="matrix" in="shadowBlurOuter2" result="shadowMatrixOuter2"></feColorMatrix>
            <feMerge>
                <feMergeNode in="shadowMatrixOuter1"></feMergeNode>
                <feMergeNode in="shadowMatrixOuter2"></feMergeNode>
            </feMerge>
        </filter>
        <polygon id="path-13" points="88.826 112 135.007671 138.663 135.007671 191.989 88.826 218.652 42.6443293 191.989 42.6443293 138.663"></polygon>
        <filter x="-39.2%" y="-15.9%" width="150.4%" height="163.8%" filterUnits="objectBoundingBox" id="filter-14">
            <feOffset dx="-16" dy="18" in="SourceAlpha" result="shadowOffsetOuter1"></feOffset>
            <feGaussianBlur stdDeviation="8" in="shadowOffsetOuter1" result="shadowBlurOuter1"></feGaussianBlur>
            <feColorMatrix values="0 0 0 0 0.316369017   0 0 0 0 0.366987588   0 0 0 0 0.353495709  0 0 0 0.257409583 0" type="matrix" in="shadowBlurOuter1" result="shadowMatrixOuter1"></feColorMatrix>
            <feOffset dx="-5" dy="9" in="SourceAlpha" result="shadowOffsetOuter2"></feOffset>
            <feGaussianBlur stdDeviation="3.5" in="shadowOffsetOuter2" result="shadowBlurOuter2"></feGaussianBlur>
            <feColorMatrix values="0 0 0 0 0   0 0 0 0 0   0 0 0 0 0  0 0 0 0.144614907 0" type="matrix" in="shadowBlurOuter2" result="shadowMatrixOuter2"></feColorMatrix>
            <feMerge>
                <feMergeNode in="shadowMatrixOuter1"></feMergeNode>
                <feMergeNode in="shadowMatrixOuter2"></feMergeNode>
            </feMerge>
        </filter>
    </defs>
    <g id="Page-1" stroke="none" stroke-width="1" fill="none" fill-rule="evenodd">
        <g id="Discover-S-3" transform="translate(-289.000000, -201.000000)">
            <g id="neo-1-illustration-2" transform="translate(289.000000, 201.000000)">
                <g id="neo-1-illustration">
                    <g id="Polygon-Copy-14">
                        <use fill="black" fill-opacity="1" filter="url(#filter-2)" xlink:href="#path-1"></use>
                        <use fill="#F0F5F6" fill-rule="evenodd" xlink:href="#path-1"></use>
                    </g>
                    <polygon id="Path-20" stroke="#000033" stroke-width="1.58949648" fill="#FFFFFF" stroke-linejoin="round" points="221.14 64.3898631 221.14 94.1423696 247.215152 109.202131 247.215152 77.9079531"></polygon>
                    <polygon id="Path-20" stroke="#000033" stroke-width="1.58949648" fill="#FFFFFF" stroke-linejoin="round" transform="translate(260.134573, 86.795997) scale(-1, 1) translate(-260.134573, -86.795997) " points="247.096997 64.3898631 247.096997 94.1423696 273.172149 109.202131 273.172149 77.9079531"></polygon>
                    <polygon id="Path-21" stroke="#000033" stroke-width="1.58949648" fill="#FFFFFF" stroke-linejoin="round" points="273.172149 64.3898631 247.096997 77.9079531 221.14 64.3898631 247.215152 50.2626836"></polygon>
                    <polygon id="Path-20" fill="#000033" points="238.202005 59.4553661 253.658974 68.0709119 255.643166 66.9022371 240.210964 58.4264431"></polygon>
                    <polygon id="Path-20-Copy-4" stroke="#000033" stroke-width="1.05966432" fill="#00E599" points="242.819927 35.56 242.819927 53.9397853 253.815441 59.825963 253.815441 41.2914056"></polygon>
                    <g id="Polygon-Copy-14">
                        <use fill="black" fill-opacity="1" filter="url(#filter-4)" xlink:href="#path-3"></use>
                        <use fill="#F0F5F6" fill-rule="evenodd" xlink:href="#path-3"></use>
                    </g>
                    <polygon id="Path-20" stroke="#000033" stroke-width="1.58949648" fill="#FFFFFF" stroke-linejoin="round" points="113.24 64.3898631 113.24 94.1423696 139.315152 109.202131 139.315152 77.9079531"></polygon>
                    <polygon id="Path-20" stroke="#000033" stroke-width="1.58949648" fill="#FFFFFF" stroke-linejoin="round" transform="translate(152.234573, 86.795997) scale(-1, 1) translate(-152.234573, -86.795997) " points="139.196997 64.3898631 139.196997 94.1423696 165.272149 109.202131 165.272149 77.9079531"></polygon>
                    <polygon id="Path-21" stroke="#000033" stroke-width="1.58949648" fill="#FFFFFF" stroke-linejoin="round" points="165.272149 64.3898631 139.196997 77.9079531 113.24 64.3898631 139.315152 50.2626836"></polygon>
                    <polygon id="Path-20" fill="#000033" points="130.302005 59.4553661 145.758974 68.0709119 147.743166 66.9022371 132.310964 58.4264431"></polygon>
                    <polygon id="Path-20-Copy-4" stroke="#000033" stroke-width="1.05966432" fill="#00E599" points="134.919927 35.56 134.919927 53.9397853 145.915441 59.825963 145.915441 41.2914056"></polygon>
                    <g id="Polygon-Copy-14">
                        <use fill="black" fill-opacity="1" filter="url(#filter-6)" xlink:href="#path-5"></use>
                        <use fill="#F0F5F6" fill-rule="evenodd" xlink:href="#path-5"></use>
                    </g>
                    <polygon id="Path-20" stroke="#000033" stroke-width="1.58949648" fill="#FFFFFF" stroke-linejoin="round" points="271.84 152.789863 271.84 182.54237 297.915152 197.602131 297.915152 166.307953"></polygon>
                    <polygon id="Path-20" stroke="#000033" stroke-width="1.58949648" fill="#FFFFFF" stroke-linejoin="round" transform="translate(310.834573, 175.195997) scale(-1, 1) translate(-310.834573, -175.195997) " points="297.796997 152.789863 297.796997 182.54237 323.872149 197.602131 323.872149 166.307953"></polygon>
                    <polygon id="Path-21" stroke="#000033" stroke-width="1.58949648" fill="#FFFFFF" stroke-linejoin="round" points="323.872149 152.789863 297.796997 166.307953 271.84 152.789863 297.915152 138.662684"></polygon>
                    <polygon id="Path-20" fill="#000033" points="288.902005 147.855366 304.358974 156.470912 306.343166 155.302237 290.910964 146.826443"></polygon>
                    <polygon id="Path-20-Copy-4" stroke="#000033" stroke-width="1.05966432" fill="#00E599" points="293.519927 123.96 293.519927 142.339785 304.515441 148.225963 304.515441 129.691406"></polygon>
                    <g id="Polygon-Copy-14">
                        <use fill="black" fill-opacity="1" filter="url(#filter-8)" xlink:href="#path-7"></use>
                        <use fill="#F0F5F6" fill-rule="evenodd" xlink:href="#path-7"></use>
                    </g>
                    <polygon id="Path-20" stroke="#000033" stroke-width="1.58949648" fill="#FFFFFF" stroke-linejoin="round" points="166.54 151.489863 166.54 181.24237 192.615152 196.302131 192.615152 165.007953"></polygon>
                    <polygon id="Path-20" stroke="#000033" stroke-width="1.58949648" fill="#FFFFFF" stroke-linejoin="round" transform="translate(205.534573, 173.895997) scale(-1, 1) translate(-205.534573, -173.895997) " points="192.496997 151.489863 192.496997 181.24237 218.572149 196.302131 218.572149 165.007953"></polygon>
                    <polygon id="Path-21" stroke="#000033" stroke-width="1.58949648" fill="#FFFFFF" stroke-linejoin="round" points="218.572149 151.489863 192.496997 165.007953 166.54 151.489863 192.615152 137.362684"></polygon>
                    <polygon id="Path-20" fill="#000033" points="183.602005 146.555366 199.058974 155.170912 201.043166 154.002237 185.610964 145.526443"></polygon>
                    <polygon id="Path-20-Copy-4" stroke="#000033" stroke-width="1.05966432" fill="#00E599" points="188.219927 122.66 188.219927 141.039785 199.215441 146.925963 199.215441 128.391406"></polygon>
                    <g id="Polygon-Copy-14">
                        <use fill="black" fill-opacity="1" filter="url(#filter-10)" xlink:href="#path-9"></use>
                        <use fill="#F0F5F6" fill-rule="evenodd" xlink:href="#path-9"></use>
                    </g>
                    <polygon id="Path-20" stroke="#000033" stroke-width="1.58949648" fill="#FFFFFF" stroke-linejoin="round" points="219.84 241.189863 219.84 270.94237 245.915152 286.002131 245.915152 254.707953"></polygon>
                    <polygon id="Path-20" stroke="#000033" stroke-width="1.58949648" fill="#FFFFFF" stroke-linejoin="round" transform="translate(258.834573, 263.595997) scale(-1, 1) translate(-258.834573, -263.595997) " points="245.796997 241.189863 245.796997 270.94237 271.872149 286.002131 271.872149 254.707953"></polygon>
                    <polygon id="Path-21" stroke="#000033" stroke-width="1.58949648" fill="#FFFFFF" stroke-linejoin="round" points="271.872149 241.189863 245.796997 254.707953 219.84 241.189863 245.915152 227.062684"></polygon>
                    <polygon id="Path-20" fill="#000033" points="236.902005 236.255366 252.358974 244.870912 254.343166 243.702237 238.910964 235.226443"></polygon>
                    <polygon id="Path-20-Copy-4" stroke="#000033" stroke-width="1.05966432" fill="#00E599" points="241.519927 212.36 241.519927 230.739785 252.515441 236.625963 252.515441 218.091406"></polygon>
                    <g id="Polygon-Copy-14">
                        <use fill="black" fill-opacity="1" filter="url(#filter-12)" xlink:href="#path-11"></use>
                        <use fill="#F0F5F6" fill-rule="evenodd" xlink:href="#path-11"></use>
                    </g>
                    <polygon id="Path-20" stroke="#000033" stroke-width="1.58949648" fill="#FFFFFF" stroke-linejoin="round" points="111.94 241.189863 111.94 270.94237 138.015152 286.002131 138.015152 254.707953"></polygon>
                    <polygon id="Path-20" stroke="#000033" stroke-width="1.58949648" fill="#FFFFFF" stroke-linejoin="round" transform="translate(150.934573, 263.595997) scale(-1, 1) translate(-150.934573, -263.595997) " points="137.896997 241.189863 137.896997 270.94237 163.972149 286.002131 163.972149 254.707953"></polygon>
                    <polygon id="Path-21" stroke="#000033" stroke-width="1.58949648" fill="#FFFFFF" stroke-linejoin="round" points="163.972149 241.189863 137.896997 254.707953 111.94 241.189863 138.015152 227.062684"></polygon>
                    <polygon id="Path-20" fill="#000033" points="129.002005 236.255366 144.458974 244.870912 146.443166 243.702237 131.010964 235.226443"></polygon>
                    <polygon id="Path-20-Copy-4" stroke="#000033" stroke-width="1.05966432" fill="#00E599" points="133.619927 212.36 133.619927 230.739785 144.615441 236.625963 144.615441 218.091406"></polygon>
                    <g id="Polygon-Copy-14">
                        <use fill="black" fill-opacity="1" filter="url(#filter-14)" xlink:href="#path-13"></use>
                        <use fill="#F0F5F6" fill-rule="evenodd" xlink:href="#path-13"></use>
                    </g>
                    <polygon id="Path-20" stroke="#000033" stroke-width="1.58949648" fill="#FFFFFF" stroke-linejoin="round" points="62.54 155.389863 62.54 185.14237 88.6151516 200.202131 88.6151516 168.907953"></polygon>
                    <polygon id="Path-20" stroke="#000033" stroke-width="1.58949648" fill="#FFFFFF" stroke-linejoin="round" transform="translate(101.534573, 177.795997) scale(-1, 1) translate(-101.534573, -177.795997) " points="88.4969973 155.389863 88.4969973 185.14237 114.572149 200.202131 114.572149 168.907953"></polygon>
                    <polygon id="Path-21" stroke="#000033" stroke-width="1.58949648" fill="#FFFFFF" stroke-linejoin="round" points="114.572149 155.389863 88.4969973 168.907953 62.54 155.389863 88.6151516 141.262684"></polygon>
                    <polygon id="Path-20" fill="#000033" points="79.6020053 150.455366 95.0589735 159.070912 97.0431662 157.902237 81.6109637 149.426443"></polygon>
                    <polygon id="Path-20-Copy-4" stroke="#000033" stroke-width="1.05966432" fill="#00E599" points="84.2199269 126.56 84.2199269 144.939785 95.2154414 150.825963 95.2154414 132.291406"></polygon>
                    <path d="M81.65,188.7 L81.65,186.227956 C81.65,185.980663 81.5165689,185.702943 81.2497067,185.394796 C80.9828446,185.086648 80.8494135,184.932575 80.8494135,184.932575 L77.3039589,181.130067 C77.5835288,181.061341 77.8207397,180.921869 78.0155914,180.71165 C78.2104431,180.501431 78.3671717,180.256023 78.4857771,179.975426 C78.6043825,179.694829 78.6891007,179.401352 78.7399316,179.094995 C78.7907625,178.788639 78.8161779,178.507398 78.8161779,178.251274 L78.8161779,176.131622 C78.8161779,175.778347 78.7081623,175.362904 78.492131,174.885295 C78.2760997,174.407685 77.9965298,173.928834 77.6534213,173.448741 C77.3103128,172.968649 76.9206093,172.51473 76.4843109,172.086986 C76.0480124,171.659242 75.6053601,171.316159 75.1563539,171.057739 C74.7073477,170.799318 74.2625774,170.631654 73.822043,170.554747 C73.3815086,170.47784 72.9896872,170.48196 72.6465787,170.567108 C72.3034702,170.652256 72.0260182,170.81052 71.8142229,171.041899 C71.6024275,171.273277 71.4965298,171.565604 71.4965298,171.91888 L71.4965298,174.038531 C71.4965298,174.26816 71.5219453,174.5632 71.5727761,174.923651 C71.623607,175.284102 71.7104431,175.674107 71.8332845,176.093666 C71.9561258,176.513225 72.1149723,176.946883 72.309824,177.394639 C72.5046758,177.842396 72.7461225,178.268394 73.0341642,178.672634 L69.4632942,178.37942 C69.4632942,178.37942 69.3277452,178.383101 69.0566471,178.390463 C68.785549,178.397825 68.65,178.516321 68.65,178.74595 L68.65,181.217994 L81.65,188.7 Z" id="-copy" stroke="#000033" stroke-width="1.98679312" fill="#000033" fill-rule="nonzero"></path>
                    <path d="M238.95,273.2 L238.95,270.727956 C238.95,270.480663 238.816569,270.202943 238.549707,269.894796 C238.282845,269.586648 238.149413,269.432575 238.149413,269.432575 L234.603959,265.630067 C234.883529,265.561341 235.12074,265.421869 235.315591,265.21165 C235.510443,265.001431 235.667172,264.756023 235.785777,264.475426 C235.904383,264.194829 235.989101,263.901352 236.039932,263.594995 C236.090762,263.288639 236.116178,263.007398 236.116178,262.751274 L236.116178,260.631622 C236.116178,260.278347 236.008162,259.862904 235.792131,259.385295 C235.5761,258.907685 235.29653,258.428834 234.953421,257.948741 C234.610313,257.468649 234.220609,257.01473 233.784311,256.586986 C233.348012,256.159242 232.90536,255.816159 232.456354,255.557739 C232.007348,255.299318 231.562577,255.131654 231.122043,255.054747 C230.681509,254.97784 230.289687,254.98196 229.946579,255.067108 C229.60347,255.152256 229.326018,255.31052 229.114223,255.541899 C228.902428,255.773277 228.79653,256.065604 228.79653,256.41888 L228.79653,258.538531 C228.79653,258.76816 228.821945,259.0632 228.872776,259.423651 C228.923607,259.784102 229.010443,260.174107 229.133284,260.593666 C229.256126,261.013225 229.414972,261.446883 229.609824,261.894639 C229.804676,262.342396 230.046123,262.768394 230.334164,263.172634 L226.763294,262.87942 C226.763294,262.87942 226.627745,262.883101 226.356647,262.890463 C226.085549,262.897825 225.95,263.016321 225.95,263.24595 L225.95,265.717994 L238.95,273.2 Z" id="" stroke="#000033" stroke-width="1.98679312" fill="#000033" fill-rule="nonzero"></path>
                    <path d="M131.05,273.2 L131.05,270.727956 C131.05,270.480663 130.916569,270.202943 130.649707,269.894796 C130.382845,269.586648 130.249413,269.432575 130.249413,269.432575 L126.703959,265.630067 C126.983529,265.561341 127.22074,265.421869 127.415591,265.21165 C127.610443,265.001431 127.767172,264.756023 127.885777,264.475426 C128.004383,264.194829 128.089101,263.901352 128.139932,263.594995 C128.190762,263.288639 128.216178,263.007398 128.216178,262.751274 L128.216178,260.631622 C128.216178,260.278347 128.108162,259.862904 127.892131,259.385295 C127.6761,258.907685 127.39653,258.428834 127.053421,257.948741 C126.710313,257.468649 126.320609,257.01473 125.884311,256.586986 C125.448012,256.159242 125.00536,255.816159 124.556354,255.557739 C124.107348,255.299318 123.662577,255.131654 123.222043,255.054747 C122.781509,254.97784 122.389687,254.98196 122.046579,255.067108 C121.70347,255.152256 121.426018,255.31052 121.214223,255.541899 C121.002428,255.773277 120.89653,256.065604 120.89653,256.41888 L120.89653,258.538531 C120.89653,258.76816 120.921945,259.0632 120.972776,259.423651 C121.023607,259.784102 121.110443,260.174107 121.233284,260.593666 C121.356126,261.013225 121.514972,261.446883 121.709824,261.894639 C121.904676,262.342396 122.146123,262.768394 122.434164,263.172634 L118.863294,262.87942 C118.863294,262.87942 118.727745,262.883101 118.456647,262.890463 C118.185549,262.897825 118.05,263.016321 118.05,263.24595 L118.05,265.717994 L131.05,273.2 Z" id="-copy" stroke="#000033" stroke-width="1.98679312" fill="#000033" fill-rule="nonzero"></path>
                    <path d="M240.25,97.7 L240.25,95.2279562 C240.25,94.9806635 240.116569,94.7029434 239.849707,94.3947959 C239.582845,94.0866484 239.449413,93.9325746 239.449413,93.9325746 L235.903959,90.130067 C236.183529,90.0613414 236.42074,89.9218691 236.615591,89.7116502 C236.810443,89.5014313 236.967172,89.2560231 237.085777,88.9754258 C237.204383,88.6948285 237.289101,88.4013517 237.339932,88.0949953 C237.390762,87.7886389 237.416178,87.5073985 237.416178,87.2512739 L237.416178,85.1316222 C237.416178,84.7783469 237.308162,84.3629044 237.092131,83.8852947 C236.8761,83.407685 236.59653,82.9288339 236.253421,82.4487413 C235.910313,81.9686488 235.520609,81.5147303 235.084311,81.0869859 C234.648012,80.6592415 234.20536,80.3161591 233.756354,80.0577385 C233.307348,79.799318 232.862577,79.6316542 232.422043,79.5547471 C231.981509,79.4778401 231.589687,79.4819605 231.246579,79.5671084 C230.90347,79.6522563 230.626018,79.8105197 230.414223,80.0418985 C230.202428,80.2732773 230.09653,80.5656043 230.09653,80.9188796 L230.09653,83.0385313 C230.09653,83.2681603 230.121945,83.5632001 230.172776,83.9236508 C230.223607,84.2841016 230.310443,84.6741066 230.433284,85.0936659 C230.556126,85.5132252 230.714972,85.946883 230.909824,86.3946393 C231.104676,86.8423956 231.346123,87.2683938 231.634164,87.6726338 L228.063294,87.3794195 C228.063294,87.3794195 227.927745,87.3831007 227.656647,87.390463 C227.385549,87.3978253 227.25,87.516321 227.25,87.7459499 L227.25,90.2179937 L240.25,97.7 Z" id="" stroke="#000033" stroke-width="1.98679312" fill="#000033" fill-rule="nonzero"></path>
                    <path d="M132.35,97.7 L132.35,95.2279562 C132.35,94.9806635 132.216569,94.7029434 131.949707,94.3947959 C131.682845,94.0866484 131.549413,93.9325746 131.549413,93.9325746 L128.003959,90.130067 C128.283529,90.0613414 128.52074,89.9218691 128.715591,89.7116502 C128.910443,89.5014313 129.067172,89.2560231 129.185777,88.9754258 C129.304383,88.6948285 129.389101,88.4013517 129.439932,88.0949953 C129.490762,87.7886389 129.516178,87.5073985 129.516178,87.2512739 L129.516178,85.1316222 C129.516178,84.7783469 129.408162,84.3629044 129.192131,83.8852947 C128.9761,83.407685 128.69653,82.9288339 128.353421,82.4487413 C128.010313,81.9686488 127.620609,81.5147303 127.184311,81.0869859 C126.748012,80.6592415 126.30536,80.3161591 125.856354,80.0577385 C125.407348,79.799318 124.962577,79.6316542 124.522043,79.5547471 C124.081509,79.4778401 123.689687,79.4819605 123.346579,79.5671084 C123.00347,79.6522563 122.726018,79.8105197 122.514223,80.0418985 C122.302428,80.2732773 122.19653,80.5656043 122.19653,80.9188796 L122.19653,83.0385313 C122.19653,83.2681603 122.221945,83.5632001 122.272776,83.9236508 C122.323607,84.2841016 122.410443,84.6741066 122.533284,85.0936659 C122.656126,85.5132252 122.814972,85.946883 123.009824,86.3946393 C123.204676,86.8423956 123.446123,87.2683938 123.734164,87.6726338 L120.163294,87.3794195 C120.163294,87.3794195 120.027745,87.3831007 119.756647,87.390463 C119.485549,87.3978253 119.35,87.516321 119.35,87.7459499 L119.35,90.2179937 L132.35,97.7 Z" id="-copy" stroke="#000033" stroke-width="1.98679312" fill="#000033" fill-rule="nonzero"></path>
                    <path d="M185.65,184.8 L185.65,182.327956 C185.65,182.080663 185.516569,181.802943 185.249707,181.494796 C184.982845,181.186648 184.849413,181.032575 184.849413,181.032575 L181.303959,177.230067 C181.583529,177.161341 181.82074,177.021869 182.015591,176.81165 C182.210443,176.601431 182.367172,176.356023 182.485777,176.075426 C182.604383,175.794829 182.689101,175.501352 182.739932,175.194995 C182.790762,174.888639 182.816178,174.607398 182.816178,174.351274 L182.816178,172.231622 C182.816178,171.878347 182.708162,171.462904 182.492131,170.985295 C182.2761,170.507685 181.99653,170.028834 181.653421,169.548741 C181.310313,169.068649 180.920609,168.61473 180.484311,168.186986 C180.048012,167.759242 179.60536,167.416159 179.156354,167.157739 C178.707348,166.899318 178.262577,166.731654 177.822043,166.654747 C177.381509,166.57784 176.989687,166.58196 176.646579,166.667108 C176.30347,166.752256 176.026018,166.91052 175.814223,167.141899 C175.602428,167.373277 175.49653,167.665604 175.49653,168.01888 L175.49653,170.138531 C175.49653,170.36816 175.521945,170.6632 175.572776,171.023651 C175.623607,171.384102 175.710443,171.774107 175.833284,172.193666 C175.956126,172.613225 176.114972,173.046883 176.309824,173.494639 C176.504676,173.942396 176.746123,174.368394 177.034164,174.772634 L173.463294,174.47942 C173.463294,174.47942 173.327745,174.483101 173.056647,174.490463 C172.785549,174.497825 172.65,174.616321 172.65,174.84595 L172.65,177.317994 L185.65,184.8 Z" id="" stroke="#000033" stroke-width="1.98679312" fill="#000033" fill-rule="nonzero"></path>
                    <path d="M290.95,186.1 L290.95,183.627956 C290.95,183.380663 290.816569,183.102943 290.549707,182.794796 C290.282845,182.486648 290.149413,182.332575 290.149413,182.332575 L286.603959,178.530067 C286.883529,178.461341 287.12074,178.321869 287.315591,178.11165 C287.510443,177.901431 287.667172,177.656023 287.785777,177.375426 C287.904383,177.094829 287.989101,176.801352 288.039932,176.494995 C288.090762,176.188639 288.116178,175.907398 288.116178,175.651274 L288.116178,173.531622 C288.116178,173.178347 288.008162,172.762904 287.792131,172.285295 C287.5761,171.807685 287.29653,171.328834 286.953421,170.848741 C286.610313,170.368649 286.220609,169.91473 285.784311,169.486986 C285.348012,169.059242 284.90536,168.716159 284.456354,168.457739 C284.007348,168.199318 283.562577,168.031654 283.122043,167.954747 C282.681509,167.87784 282.289687,167.88196 281.946579,167.967108 C281.60347,168.052256 281.326018,168.21052 281.114223,168.441899 C280.902428,168.673277 280.79653,168.965604 280.79653,169.31888 L280.79653,171.438531 C280.79653,171.66816 280.821945,171.9632 280.872776,172.323651 C280.923607,172.684102 281.010443,173.074107 281.133284,173.493666 C281.256126,173.913225 281.414972,174.346883 281.609824,174.794639 C281.804676,175.242396 282.046123,175.668394 282.334164,176.072634 L278.763294,175.77942 C278.763294,175.77942 278.627745,175.783101 278.356647,175.790463 C278.085549,175.797825 277.95,175.916321 277.95,176.14595 L277.95,178.617994 L290.95,186.1 Z" id="" stroke="#000033" stroke-width="1.98679312" fill="#000033" fill-rule="nonzero"></path>
                    <circle id="Oval" fill="#00E599" cx="21.5" cy="21.5" r="21.5"></circle>
                    <text id="1" font-family="NunitoSans-ExtraBold, Nunito Sans" font-size="24" font-weight="600" letter-spacing="-0.195121951" fill="#000033">
                        <tspan x="14" y="30">1</tspan>
                    </text>
                </g>
                <path d="M80.296,373.264 C81.416,373.264 82.184,373.216 82.712,372.912 C83.256,372.64 83.432,372.176 83.432,371.248 L83.432,367.44 L84.84,367.056 L84.6,365.312 L83.432,365.6 L83.432,363.248 L85.112,363.248 L85.112,361.488 L83.432,361.488 L83.432,358.448 L81.56,358.448 L81.56,361.488 L79.656,361.488 L79.656,363.248 L81.56,363.248 L81.56,366.064 C80.776,366.24 80.056,366.4 79.448,366.528 L79.944,368.352 L81.56,367.936 L81.56,371.248 C81.56,371.472 81.48,371.552 81.256,371.552 L80.8736829,371.551231 C80.5730248,371.549884 80.1592727,371.546182 79.752,371.536 C79.992,372.016 80.232,372.768 80.296,373.264 Z M85.56,365.152 C87.72,364.112 88.184,362.336 88.184,360.736 L90.248,360.72 L90.248,362.416 C90.248,364.016 90.584,364.688 92.152,364.688 L93.224,364.688 C93.592,364.688 93.992,364.672 94.232,364.576 C94.168,364.128 94.12,363.472 94.088,362.992 C93.864,363.056 93.464,363.104 93.192,363.104 L92.328,363.104 C92.1098182,363.104 92.0767603,362.945322 92.072553,362.567862 L92.072,358.96 L86.424,358.96 L86.424,360.672 C86.424,361.776 86.184,362.928 84.296,363.792 C84.648,364.048 85.336,364.8 85.56,365.152 Z M93.304,373.408 C93.576,372.88 94.104,372.08 94.504,371.648 C93.128,371.392 91.88,370.976 90.808,370.432 C92.04,369.28 92.968,367.76 93.544,365.808 L92.328,365.28 L91.992,365.36 L85.048,365.36 L85.048,367.136 L85.976,367.136 L85.384,367.344 C85.976,368.528 86.712,369.552 87.592,370.432 C86.504,370.992 85.256,371.408 83.896,371.648 C84.216,372.08 84.632,372.864 84.824,373.392 C86.44,373.008 87.896,372.448 89.176,371.68 C90.344,372.448 91.72,373.024 93.304,373.408 Z M89.192,369.376 C88.376,368.736 87.704,367.984 87.224,367.136 L91.048,367.136 C90.568,368 89.944,368.768 89.192,369.376 Z M109.08,365.232 L109.08,361.328 L105.512,361.328 L105.512,360.464 L109.912,360.464 L109.912,358.976 L96.04,358.976 L96.04,360.464 L100.328,360.464 L100.328,361.328 L96.968,361.328 L96.968,365.232 L109.08,365.232 Z M103.736,361.328 L102.072,361.328 L102.072,360.464 L103.736,360.464 L103.736,361.328 Z M107.192,363.872 L105.512,363.872 L105.512,362.672 L107.192,362.672 L107.192,363.872 Z M103.736,363.872 L102.072,363.872 L102.072,362.672 L103.736,362.672 L103.736,363.872 Z M100.328,363.872 L98.728,363.872 L98.728,362.672 L100.328,362.672 L100.328,363.872 Z M108.312,367.328 L108.312,365.888 L97.72,365.888 L97.72,367.328 L108.312,367.328 Z M103.208,373.12 C103.816,372.864 103.96,372.416 103.96,371.568 L103.96,369.504 L110.232,369.504 L110.232,368.016 L95.816,368.016 L95.816,369.504 L102.04,369.504 L102.04,371.504 C102.04,371.68 101.976,371.728 101.768,371.728 C101.544,371.744 100.84,371.744 100.2,371.712 C100.44,372.192 100.712,372.88 100.792,373.408 C101.832,373.408 102.616,373.392 103.208,373.12 Z M97.112,373.328 C98.36,372.608 99.8,371.424 100.712,370.24 L98.968,369.632 C98.216,370.576 96.936,371.488 95.704,372.048 C96.12,372.336 96.792,372.976 97.112,373.328 Z M108.584,373.152 L110.104,372.08 C109.256,371.344 107.64,370.32 106.408,369.68 L105.016,370.624 C106.28,371.344 107.864,372.416 108.584,373.152 Z M116.904,370.72 C119.56,369.616 120.328,367.824 120.632,365.552 L121.656,365.552 L121.656,368.352 C121.656,370.032 121.976,370.592 123.496,370.592 L124.712,370.592 C125.864,370.592 126.344,370.048 126.536,367.92 C126.008,367.808 125.224,367.504 124.872,367.184 C124.824,368.64 124.76,368.848 124.504,368.848 L123.832,368.848 C123.576,368.848 123.528,368.8 123.528,368.352 L123.528,365.552 L126.296,365.552 L126.296,363.904 L122.328,363.904 L122.328,362.048 L125.64,362.048 L125.64,360.448 L122.328,360.448 L122.328,358.528 L120.44,358.528 L120.44,360.448 L119.176,360.448 C119.32,360.08 119.448,359.696 119.56,359.328 L117.768,358.928 C117.4,360.32 116.712,361.712 115.848,362.592 C116.28,362.816 117.048,363.296 117.416,363.6 C117.784,363.168 118.12,362.64 118.44,362.048 L120.44,362.048 L120.44,363.904 L116.088,363.904 L116.088,365.552 L118.696,365.552 C118.472,367.12 117.896,368.368 115.752,369.136 C116.184,369.504 116.68,370.224 116.904,370.72 Z M114.136,362.624 L115.704,361.408 C115.192,360.672 114.088,359.616 113.176,358.896 L111.736,359.968 C112.632,360.752 113.688,361.856 114.136,362.624 Z M112.808,373.552 C113.672,372.544 114.536,371.616 115.144,371.616 C115.496,371.616 115.992,372.096 116.632,372.464 C117.72,373.088 118.968,373.28 120.872,373.28 C122.424,373.28 124.808,373.2 125.992,373.12 C126.008,372.608 126.312,371.664 126.504,371.152 C124.968,371.376 122.504,371.504 120.904,371.504 C119.256,371.504 117.88,371.424 116.888,370.832 C116.168,370.4 115.784,370.016 115.352,369.936 L115.352,364.592 L111.768,364.592 L111.768,366.352 L113.528,366.352 L113.528,370.448 C112.872,370.816 112.184,371.312 111.544,371.888 L112.808,373.552 Z M141.528,373.376 L141.528,366.432 L139.384,366.432 L139.384,370.624 L136.008,370.624 L136.008,365.6 L140.872,365.6 L140.872,359.792 L138.76,359.792 L138.76,363.76 L136.008,363.76 L136.008,358.448 L133.896,358.448 L133.896,363.76 L131.256,363.76 L131.256,359.792 L129.24,359.792 L129.24,365.6 L133.896,365.6 L133.896,370.624 L130.536,370.624 L130.536,366.448 L128.392,366.448 L128.392,372.512 L139.384,372.512 L139.384,373.376 L141.528,373.376 Z M146.696,372 L146.696,367.248 C146.696,365.888 146.52,364.4 146.408,363.12 L146.488,363.12 L147.688,365.664 L151.112,372 L153.512,372 L153.512,360.16 L151.272,360.16 L151.272,364.88 C151.272,366.224 151.448,367.792 151.576,369.024 L151.496,369.024 L150.312,366.464 L146.872,360.16 L144.456,360.16 L144.456,372 L146.696,372 Z M160.136,372.224 C161.256,372.224 162.392,371.84 163.272,371.232 L162.472,369.792 C161.832,370.192 161.192,370.416 160.456,370.416 C159.128,370.416 158.168,369.648 157.976,368.176 L163.496,368.176 C163.56,367.968 163.608,367.536 163.608,367.104 C163.608,364.624 162.328,362.816 159.864,362.816 C157.72,362.816 155.688,364.624 155.688,367.536 C155.688,370.48 157.64,372.224 160.136,372.224 Z M161.592,366.624 L157.944,366.624 C158.12,365.312 158.952,364.64 159.896,364.64 C161.048,364.64 161.592,365.408 161.592,366.624 Z M169.288,372.224 C171.528,372.224 173.592,370.496 173.592,367.536 C173.592,364.544 171.528,362.816 169.288,362.816 C167.048,362.816 164.984,364.544 164.984,367.536 C164.984,370.496 167.048,372.224 169.288,372.224 Z M169.288,370.304 C168.072,370.304 167.384,369.216 167.384,367.536 C167.384,365.84 168.072,364.736 169.288,364.736 C170.504,364.736 171.192,365.84 171.192,367.536 C171.192,369.216 170.504,370.304 169.288,370.304 Z M189.864,372.896 L189.864,371.168 L185.928,371.168 L185.928,369.648 L189.32,369.648 L189.32,367.936 L185.928,367.936 L185.928,366.56 L189.144,366.56 L189.144,359.12 L180.792,359.12 L180.792,366.56 L183.992,366.56 L183.992,367.936 L180.68,367.936 L180.68,369.648 L183.992,369.648 L183.992,371.168 L179.576,371.168 L179.576,372.896 L189.864,372.896 Z M175.144,371.92 C176.68,371.424 178.6,370.816 180.36,370.192 L180.04,368.4 C179.528,368.576 179,368.736 178.472,368.896 L178.472,365.696 L179.912,365.696 L179.912,363.952 L178.472,363.952 L178.472,361.136 L180.184,361.136 L180.184,359.36 L174.904,359.36 L174.904,361.136 L176.664,361.136 L176.664,363.952 L175.048,363.952 L175.048,365.696 L176.664,365.696 L176.664,369.456 C175.928,369.664 175.272,369.84 174.712,369.984 L175.144,371.92 Z M184.152,362.064 L182.504,362.064 L182.504,360.736 L184.152,360.736 L184.152,362.064 Z M187.336,362.064 L185.752,362.064 L185.752,360.736 L187.336,360.736 L187.336,362.064 Z M184.152,364.944 L182.504,364.944 L182.504,363.568 L184.152,363.568 L184.152,364.944 Z M187.336,364.944 L185.752,364.944 L185.752,363.568 L187.336,363.568 L187.336,364.944 Z M198.36,373.168 C198.984,372.896 199.208,372.512 199.208,371.568 L199.208,371.072 L202.088,371.072 L202.088,371.728 L204.024,371.728 L204.024,368.944 L205.688,368.944 L205.688,367.488 L204.024,367.488 L204.024,365.52 L199.208,365.52 L199.208,364.816 L203.752,364.816 L203.752,361.648 L199.208,361.648 L199.208,360.992 L205.32,360.992 L205.32,359.488 L199.208,359.488 L199.208,358.448 L197.272,358.448 L197.272,359.488 L191.304,359.488 L191.304,360.992 L197.272,360.992 L197.272,361.648 L192.936,361.648 L192.936,364.816 L197.272,364.816 L197.272,365.52 L192.536,365.52 L192.536,366.8 L197.272,366.8 L197.272,367.488 L190.936,367.488 L190.936,368.944 L197.272,368.944 L197.272,369.696 L192.408,369.696 L192.408,371.072 L197.272,371.072 L197.272,371.568 C197.272,371.856 197.176,371.952 196.872,371.968 L196.465453,371.967068 C196.05174,371.96497 195.435692,371.958154 194.904,371.936 C195.144,372.336 195.432,372.992 195.528,373.44 C196.888,373.44 197.752,373.408 198.36,373.168 Z M197.272,363.616 L194.76,363.616 L194.76,362.848 L197.272,362.848 L197.272,363.616 Z M201.8,363.616 L199.208,363.616 L199.208,362.848 L201.8,362.848 L201.8,363.616 Z M202.088,367.488 L199.208,367.488 L199.208,366.8 L202.088,366.8 L202.088,367.488 Z M202.088,369.696 L199.208,369.696 L199.208,368.944 L202.088,368.944 L202.088,369.696 Z M208.136,365.216 C209,364.832 209.8,364.4 210.584,363.952 L210.584,365.008 L218.056,365.008 L218.056,363.824 C218.856,364.288 219.704,364.72 220.536,365.056 C220.84,364.544 221.448,363.776 221.864,363.376 C219.512,362.624 216.984,361.184 215.432,359.872 L215.96,359.2 L215.96,359.2 L214.232,358.368 C212.712,360.416 209.816,362.368 206.776,363.52 C207.224,363.904 207.864,364.736 208.136,365.216 Z M217.16,363.264 L211.656,363.264 C212.616,362.592 213.528,361.872 214.328,361.072 C215.112,361.808 216.104,362.56 217.16,363.264 Z M219.432,373.392 L221.128,372.352 C220.424,371.152 218.952,369.472 217.56,368.256 L215.928,369.088 C216.392,369.52 216.856,370.016 217.304,370.512 L211.736,370.832 C212.632,370.032 213.512,369.104 214.248,368.192 L220.968,368.192 L220.968,366.352 L207.736,366.352 L207.736,368.192 L211.608,368.192 C210.744,369.248 209.88,370.112 209.496,370.4 C209,370.832 208.648,371.088 208.232,371.184 C208.456,371.728 208.776,372.704 208.872,373.12 C208.925153,373.09939 208.979776,373.079883 209.037884,373.061245 L209.127913,373.033909 C209.950702,372.797688 211.562169,372.693424 218.648,372.176 C218.968,372.608 219.24,373.024 219.432,373.392 Z M224.36,373.584 C225.672,371.632 226.008,368.512 226.072,366.176 L228.152,366.176 C228.104,368.192 228.04,368.96 227.88,369.184 C227.752,369.344 227.624,369.376 227.4,369.376 C227.144,369.376 226.6,369.36 226.024,369.312 C226.312,369.792 226.52,370.528 226.552,371.088 C227.288,371.104 227.976,371.104 228.392,371.04 C228.872,370.96 229.192,370.816 229.496,370.4 C229.864,369.936 229.96,368.512 230.008,365.152 C230.008,364.928 230.024,364.432 230.024,364.432 L226.072,364.432 L226.072,362.72 L230.712,362.72 C230.92,365.12 231.272,367.36 231.816,369.168 C230.888,370.208 229.784,371.088 228.552,371.76 C228.952,372.128 229.64,372.912 229.928,373.328 C230.92,372.72 231.816,372 232.632,371.152 C233.336,372.464 234.216,373.264 235.336,373.264 C236.824,373.264 237.464,372.56 237.768,369.6 C237.256,369.392 236.584,368.976 236.152,368.528 C236.072,370.528 235.88,371.328 235.496,371.328 C234.984,371.328 234.472,370.656 234.008,369.504 C235.16,367.952 236.104,366.096 236.76,364.016 L234.856,363.552 C234.472,364.848 233.944,366.032 233.32,367.104 C233.048,365.824 232.824,364.32 232.68,362.72 L237.624,362.72 L237.624,360.832 L235.96,360.832 L236.728,360.016 C236.168,359.488 235,358.752 234.12,358.304 L232.968,359.44 C233.624,359.84 234.424,360.352 235.016,360.832 L232.568,360.832 C232.536,360.048 232.52,359.264 232.536,358.464 L230.536,358.464 C230.536,359.264 230.568,360.048 230.6,360.832 L224.072,360.832 L224.072,365.504 C224.072,367.584 223.96,370.368 222.744,372.288 C223.176,372.512 224.024,373.216 224.36,373.584 Z M251.576,363.552 L251.576,359.088 L241.176,359.088 L241.176,363.552 L251.576,363.552 Z M249.448,361.936 L243.176,361.936 L243.176,360.704 L249.448,360.704 L249.448,361.936 Z M242.488,370.432 L242.488,366.32 L250.216,366.32 L250.216,370.224 L252.296,370.224 L252.296,364.576 L240.504,364.576 L240.504,370.432 L242.488,370.432 Z M240.504,373.536 C246.28,372.224 247.24,370.192 247.24,368.496 L247.24,367.072 L245.16,367.072 L245.16,368.448 C245.16,369.52 244.68,370.992 239.192,371.984 C239.672,372.384 240.264,373.12 240.504,373.536 Z M252.504,373.504 L253.48,371.888 C252.136,371.28 249.512,370.368 247.8,369.872 L246.872,371.28 C248.696,371.872 251.256,372.88 252.504,373.504 Z M266.776,373.2 C267.416,373.088 267.864,372.912 268.312,372.32 C268.968,371.472 269.144,368.928 269.352,361.776 C269.3632,361.6192 269.36656,361.25856 269.367568,361.056288 L269.368,360.930144 C269.368,360.9184 269.368,360.912 269.368,360.912 L264.856,360.912 C265.096,360.24 265.32,359.568 265.48,358.88 L263.672,358.464 C263.208,360.336 262.44,362.272 261.512,363.616 L261.512,361.024 L259.032,361.024 C259.304,360.336 259.592,359.536 259.864,358.736 L257.784,358.448 C257.72,359.2 257.528,360.224 257.32,361.024 L255.512,361.024 L255.512,372.912 L257.24,372.912 L257.24,371.744 L261.512,371.744 L261.512,364.272 C261.944,364.56 262.488,364.928 262.744,365.168 C263.24,364.48 263.736,363.6 264.152,362.64 L267.576,362.64 C267.4,368.288 267.192,370.688 266.728,371.2 C266.52,371.408 266.344,371.472 266.024,371.472 L265.79614,371.47165 C265.315645,371.469728 264.506462,371.457231 263.64,371.376 C263.976,371.904 264.232,372.704 264.264,373.232 C265.208,373.264 266.168,373.28 266.776,373.2 Z M259.784,365.28 L257.24,365.28 L257.24,362.688 L259.784,362.688 L259.784,365.28 Z M265.096,369.2 L266.712,368.208 C266.216,367.28 265.16,365.76 264.36,364.656 L262.872,365.504 C263.656,366.672 264.648,368.24 265.096,369.2 Z M259.784,370.064 L257.24,370.064 L257.24,366.928 L259.784,366.928 L259.784,370.064 Z M275.24,373.392 L275.24,366.24 C275.848,366.992 276.472,367.84 276.824,368.4 L277.896,366.656 C277.544,366.272 275.864,364.656 275.24,364.144 L275.24,363.36 L277.08,363.36 L277.08,361.6 L275.24,361.6 L275.24,358.448 L273.368,358.448 L273.368,361.6 L270.984,361.6 L270.984,363.36 L273.016,363.36 C272.52,365.328 271.544,367.568 270.472,368.832 C270.84,369.344 271.336,370.256 271.544,370.8 C272.232,369.872 272.856,368.496 273.368,366.992 L273.368,373.392 L275.24,373.392 Z M284.44,373.472 C284.712,372.912 285.304,372.224 285.8,371.856 C284.36,371.04 283.24,370.144 282.344,369.056 C283.88,366.832 284.888,363.888 285.368,360.096 L284.152,359.712 L283.848,359.792 L277.256,359.792 L277.256,361.632 L278.072,361.632 L277.592,361.728 C278.12,364.784 278.824,367.12 279.96,369.024 C278.904,370.24 277.624,371.168 276.2,371.776 C276.616,372.128 277.128,372.864 277.4,373.36 C278.808,372.656 280.04,371.76 281.096,370.608 C281.992,371.664 283.08,372.592 284.44,373.472 Z M281.176,367.36 C280.36,365.824 279.8,363.968 279.368,361.632 L283.304,361.632 C282.872,363.856 282.168,365.776 281.176,367.36 Z M292.008,373.36 L292.008,367.6 C292.632,368.288 293.304,369.056 293.704,369.552 L294.792,367.936 C294.571765,367.732706 294.028651,367.242408 293.447551,366.731008 L293.05765,366.389865 C292.668374,366.051433 292.290353,365.729882 292.008,365.504 L292.008,364.944 L294.888,364.944 L294.888,363.184 L292.008,363.184 L292.008,360.8 C292.968,360.56 293.88,360.288 294.664,359.968 L293.32,358.512 C291.768,359.216 289.208,359.808 286.888,360.16 C287.112,360.56 287.368,361.216 287.448,361.648 C288.296,361.536 289.192,361.392 290.088,361.216 L290.088,363.184 L287.064,363.184 L287.064,364.944 L289.752,364.944 C289.032,366.608 287.848,368.416 286.712,369.52 C287.016,370.016 287.496,370.816 287.688,371.392 C288.552,370.48 289.384,369.152 290.088,367.712 L290.088,373.36 L292.008,373.36 Z M297.032,373.36 C298.504,373.36 299.56,373.296 300.216,372.976 C300.872,372.656 301.096,372.16 301.096,371.024 L301.096,358.72 L299.208,358.72 L299.208,371.008 C299.208,371.328 299.08,371.408 298.776,371.424 L298.380053,371.42309 C297.901333,371.420587 297.138667,371.4112 296.376,371.376 C296.664,371.92 296.952,372.8 297.032,373.36 Z M297.704,369.328 L297.704,360.384 L295.8,360.384 L295.8,369.328 L297.704,369.328 Z" id="投票选出Neo理事会成员的权利" fill="#000033" fill-rule="nonzero"></path>
            </g>
        </g>
    </g>
</svg>