<?xml version="1.0" encoding="UTF-8"?>
<svg width="361px" height="415px" viewBox="0 0 361 415" version="1.1" xmlns="http://www.w3.org/2000/svg" xmlns:xlink="http://www.w3.org/1999/xlink">
    <title>neo 1 illustration 2</title>
    <defs>
        <polygon id="path-1" points="247.426 21 293.607671 47.663 293.607671 100.989 247.426 127.652 201.244329 100.989 201.244329 47.663"></polygon>
        <filter x="-39.2%" y="-15.9%" width="150.4%" height="163.8%" filterUnits="objectBoundingBox" id="filter-2">
            <feOffset dx="-16" dy="18" in="SourceAlpha" result="shadowOffsetOuter1"></feOffset>
            <feGaussianBlur stdDeviation="8" in="shadowOffsetOuter1" result="shadowBlurOuter1"></feGaussianBlur>
            <feColorMatrix values="0 0 0 0 0.316369017   0 0 0 0 0.366987588   0 0 0 0 0.353495709  0 0 0 0.257409583 0" type="matrix" in="shadowBlurOuter1" result="shadowMatrixOuter1"></feColorMatrix>
            <feOffset dx="-5" dy="9" in="SourceAlpha" result="shadowOffsetOuter2"></feOffset>
            <feGaussianBlur stdDeviation="3.5" in="shadowOffsetOuter2" result="shadowBlurOuter2"></feGaussianBlur>
            <feColorMatrix values="0 0 0 0 0   0 0 0 0 0   0 0 0 0 0  0 0 0 0.144614907 0" type="matrix" in="shadowBlurOuter2" result="shadowMatrixOuter2"></feColorMatrix>
            <feMerge>
                <feMergeNode in="shadowMatrixOuter1"></feMergeNode>
                <feMergeNode in="shadowMatrixOuter2"></feMergeNode>
            </feMerge>
        </filter>
        <polygon id="path-3" points="139.526 21 185.707671 47.663 185.707671 100.989 139.526 127.652 93.3443293 100.989 93.3443293 47.663"></polygon>
        <filter x="-39.2%" y="-15.9%" width="150.4%" height="163.8%" filterUnits="objectBoundingBox" id="filter-4">
            <feOffset dx="-16" dy="18" in="SourceAlpha" result="shadowOffsetOuter1"></feOffset>
            <feGaussianBlur stdDeviation="8" in="shadowOffsetOuter1" result="shadowBlurOuter1"></feGaussianBlur>
            <feColorMatrix values="0 0 0 0 0.316369017   0 0 0 0 0.366987588   0 0 0 0 0.353495709  0 0 0 0.257409583 0" type="matrix" in="shadowBlurOuter1" result="shadowMatrixOuter1"></feColorMatrix>
            <feOffset dx="-5" dy="9" in="SourceAlpha" result="shadowOffsetOuter2"></feOffset>
            <feGaussianBlur stdDeviation="3.5" in="shadowOffsetOuter2" result="shadowBlurOuter2"></feGaussianBlur>
            <feColorMatrix values="0 0 0 0 0   0 0 0 0 0   0 0 0 0 0  0 0 0 0.144614907 0" type="matrix" in="shadowBlurOuter2" result="shadowMatrixOuter2"></feColorMatrix>
            <feMerge>
                <feMergeNode in="shadowMatrixOuter1"></feMergeNode>
                <feMergeNode in="shadowMatrixOuter2"></feMergeNode>
            </feMerge>
        </filter>
        <polygon id="path-5" points="298.126 109.4 344.307671 136.063 344.307671 189.389 298.126 216.052 251.944329 189.389 251.944329 136.063"></polygon>
        <filter x="-39.2%" y="-15.9%" width="150.4%" height="163.8%" filterUnits="objectBoundingBox" id="filter-6">
            <feOffset dx="-16" dy="18" in="SourceAlpha" result="shadowOffsetOuter1"></feOffset>
            <feGaussianBlur stdDeviation="8" in="shadowOffsetOuter1" result="shadowBlurOuter1"></feGaussianBlur>
            <feColorMatrix values="0 0 0 0 0.316369017   0 0 0 0 0.366987588   0 0 0 0 0.353495709  0 0 0 0.257409583 0" type="matrix" in="shadowBlurOuter1" result="shadowMatrixOuter1"></feColorMatrix>
            <feOffset dx="-5" dy="9" in="SourceAlpha" result="shadowOffsetOuter2"></feOffset>
            <feGaussianBlur stdDeviation="3.5" in="shadowOffsetOuter2" result="shadowBlurOuter2"></feGaussianBlur>
            <feColorMatrix values="0 0 0 0 0   0 0 0 0 0   0 0 0 0 0  0 0 0 0.144614907 0" type="matrix" in="shadowBlurOuter2" result="shadowMatrixOuter2"></feColorMatrix>
            <feMerge>
                <feMergeNode in="shadowMatrixOuter1"></feMergeNode>
                <feMergeNode in="shadowMatrixOuter2"></feMergeNode>
            </feMerge>
        </filter>
        <polygon id="path-7" points="192.826 108.1 239.007671 134.763 239.007671 188.089 192.826 214.752 146.644329 188.089 146.644329 134.763"></polygon>
        <filter x="-39.2%" y="-15.9%" width="150.4%" height="163.8%" filterUnits="objectBoundingBox" id="filter-8">
            <feOffset dx="-16" dy="18" in="SourceAlpha" result="shadowOffsetOuter1"></feOffset>
            <feGaussianBlur stdDeviation="8" in="shadowOffsetOuter1" result="shadowBlurOuter1"></feGaussianBlur>
            <feColorMatrix values="0 0 0 0 0.316369017   0 0 0 0 0.366987588   0 0 0 0 0.353495709  0 0 0 0.257409583 0" type="matrix" in="shadowBlurOuter1" result="shadowMatrixOuter1"></feColorMatrix>
            <feOffset dx="-5" dy="9" in="SourceAlpha" result="shadowOffsetOuter2"></feOffset>
            <feGaussianBlur stdDeviation="3.5" in="shadowOffsetOuter2" result="shadowBlurOuter2"></feGaussianBlur>
            <feColorMatrix values="0 0 0 0 0   0 0 0 0 0   0 0 0 0 0  0 0 0 0.144614907 0" type="matrix" in="shadowBlurOuter2" result="shadowMatrixOuter2"></feColorMatrix>
            <feMerge>
                <feMergeNode in="shadowMatrixOuter1"></feMergeNode>
                <feMergeNode in="shadowMatrixOuter2"></feMergeNode>
            </feMerge>
        </filter>
        <polygon id="path-9" points="246.126 197.8 292.307671 224.463 292.307671 277.789 246.126 304.452 199.944329 277.789 199.944329 224.463"></polygon>
        <filter x="-39.2%" y="-15.9%" width="150.4%" height="163.8%" filterUnits="objectBoundingBox" id="filter-10">
            <feOffset dx="-16" dy="18" in="SourceAlpha" result="shadowOffsetOuter1"></feOffset>
            <feGaussianBlur stdDeviation="8" in="shadowOffsetOuter1" result="shadowBlurOuter1"></feGaussianBlur>
            <feColorMatrix values="0 0 0 0 0.316369017   0 0 0 0 0.366987588   0 0 0 0 0.353495709  0 0 0 0.257409583 0" type="matrix" in="shadowBlurOuter1" result="shadowMatrixOuter1"></feColorMatrix>
            <feOffset dx="-5" dy="9" in="SourceAlpha" result="shadowOffsetOuter2"></feOffset>
            <feGaussianBlur stdDeviation="3.5" in="shadowOffsetOuter2" result="shadowBlurOuter2"></feGaussianBlur>
            <feColorMatrix values="0 0 0 0 0   0 0 0 0 0   0 0 0 0 0  0 0 0 0.144614907 0" type="matrix" in="shadowBlurOuter2" result="shadowMatrixOuter2"></feColorMatrix>
            <feMerge>
                <feMergeNode in="shadowMatrixOuter1"></feMergeNode>
                <feMergeNode in="shadowMatrixOuter2"></feMergeNode>
            </feMerge>
        </filter>
        <polygon id="path-11" points="138.226 197.8 184.407671 224.463 184.407671 277.789 138.226 304.452 92.0443293 277.789 92.0443293 224.463"></polygon>
        <filter x="-39.2%" y="-15.9%" width="150.4%" height="163.8%" filterUnits="objectBoundingBox" id="filter-12">
            <feOffset dx="-16" dy="18" in="SourceAlpha" result="shadowOffsetOuter1"></feOffset>
            <feGaussianBlur stdDeviation="8" in="shadowOffsetOuter1" result="shadowBlurOuter1"></feGaussianBlur>
            <feColorMatrix values="0 0 0 0 0.316369017   0 0 0 0 0.366987588   0 0 0 0 0.353495709  0 0 0 0.257409583 0" type="matrix" in="shadowBlurOuter1" result="shadowMatrixOuter1"></feColorMatrix>
            <feOffset dx="-5" dy="9" in="SourceAlpha" result="shadowOffsetOuter2"></feOffset>
            <feGaussianBlur stdDeviation="3.5" in="shadowOffsetOuter2" result="shadowBlurOuter2"></feGaussianBlur>
            <feColorMatrix values="0 0 0 0 0   0 0 0 0 0   0 0 0 0 0  0 0 0 0.144614907 0" type="matrix" in="shadowBlurOuter2" result="shadowMatrixOuter2"></feColorMatrix>
            <feMerge>
                <feMergeNode in="shadowMatrixOuter1"></feMergeNode>
                <feMergeNode in="shadowMatrixOuter2"></feMergeNode>
            </feMerge>
        </filter>
        <polygon id="path-13" points="88.826 112 135.007671 138.663 135.007671 191.989 88.826 218.652 42.6443293 191.989 42.6443293 138.663"></polygon>
        <filter x="-39.2%" y="-15.9%" width="150.4%" height="163.8%" filterUnits="objectBoundingBox" id="filter-14">
            <feOffset dx="-16" dy="18" in="SourceAlpha" result="shadowOffsetOuter1"></feOffset>
            <feGaussianBlur stdDeviation="8" in="shadowOffsetOuter1" result="shadowBlurOuter1"></feGaussianBlur>
            <feColorMatrix values="0 0 0 0 0.316369017   0 0 0 0 0.366987588   0 0 0 0 0.353495709  0 0 0 0.257409583 0" type="matrix" in="shadowBlurOuter1" result="shadowMatrixOuter1"></feColorMatrix>
            <feOffset dx="-5" dy="9" in="SourceAlpha" result="shadowOffsetOuter2"></feOffset>
            <feGaussianBlur stdDeviation="3.5" in="shadowOffsetOuter2" result="shadowBlurOuter2"></feGaussianBlur>
            <feColorMatrix values="0 0 0 0 0   0 0 0 0 0   0 0 0 0 0  0 0 0 0.144614907 0" type="matrix" in="shadowBlurOuter2" result="shadowMatrixOuter2"></feColorMatrix>
            <feMerge>
                <feMergeNode in="shadowMatrixOuter1"></feMergeNode>
                <feMergeNode in="shadowMatrixOuter2"></feMergeNode>
            </feMerge>
        </filter>
    </defs>
    <g id="Page-1" stroke="none" stroke-width="1" fill="none" fill-rule="evenodd">
        <g id="Discover-S-2" transform="translate(-226.000000, -753.000000)">
            <g id="neo-1-illustration" transform="translate(226.000000, 753.000000)">
                <path d="M58.91,380 L58.91,368.02 L63.51,368.02 L63.51,365.9 L51.73,365.9 L51.73,368.02 L56.33,368.02 L56.33,380 L58.91,380 Z M67.55,380 L67.55,374.46 C67.55,373.7 67.7666667,373.093333 68.2,372.64 C68.6333333,372.186667 69.21,371.96 69.93,371.96 C70.5433333,371.96 70.9933333,372.133333 71.28,372.48 C71.5666667,372.826667 71.71,373.38 71.71,374.14 L71.71,374.14 L71.71,380 L74.21,380 L74.21,374 C74.21,372.653333 73.9233333,371.646667 73.35,370.98 C72.7766667,370.313333 71.9033333,369.98 70.73,369.98 C70.05,369.98 69.4333333,370.116667 68.88,370.39 C68.3266667,370.663333 67.8833333,371.06 67.55,371.58 L67.55,371.58 L67.55,365.9 L65.05,365.9 L65.05,380 L67.55,380 Z M81.39,380.16 C82.0833333,380.16 82.7733333,380.046667 83.46,379.82 C84.1466667,379.593333 84.7166667,379.293333 85.17,378.92 L85.17,378.92 L84.45,377.2 C83.5566667,377.893333 82.57,378.24 81.49,378.24 C80.6233333,378.24 79.9566667,378.02 79.49,377.58 C79.0233333,377.14 78.75,376.466667 78.67,375.56 L78.67,375.56 L85.33,375.56 L85.33,374.86 C85.33,373.34 84.94,372.146667 84.16,371.28 C83.38,370.413333 82.3166667,369.98 80.97,369.98 C80.05,369.98 79.2266667,370.193333 78.5,370.62 C77.7733333,371.046667 77.21,371.646667 76.81,372.42 C76.41,373.193333 76.21,374.08 76.21,375.08 C76.21,376.653333 76.6733333,377.893333 77.6,378.8 C78.5266667,379.706667 79.79,380.16 81.39,380.16 Z M83.19,374.22 L78.67,374.22 C78.7633333,373.42 79.0133333,372.806667 79.42,372.38 C79.8266667,371.953333 80.3633333,371.74 81.03,371.74 C81.6966667,371.74 82.2166667,371.95 82.59,372.37 C82.9633333,372.79 83.1633333,373.406667 83.19,374.22 L83.19,374.22 Z M95.29,380 L95.29,374.72 C95.29,373.213333 96.1166667,372.373333 97.77,372.2 L97.77,372.2 L99.23,372.06 L99.07,369.96 L98.31,370.02 C96.7233333,370.126667 95.6766667,370.766667 95.17,371.94 L95.17,371.94 L95.17,370.22 L92.79,370.22 L92.79,380 L95.29,380 Z M103.07,368.14 L103.07,365.68 L100.31,365.68 L100.31,368.14 L103.07,368.14 Z M102.95,380 L102.95,370.22 L100.45,370.22 L100.45,380 L102.95,380 Z M110.03,383.76 C111.683333,383.76 112.933333,383.366667 113.78,382.58 C114.626667,381.793333 115.05,380.633333 115.05,379.1 L115.05,379.1 L115.05,370.22 L112.57,370.22 L112.57,371.7 C112.276667,371.153333 111.85,370.73 111.29,370.43 C110.73,370.13 110.09,369.98 109.37,369.98 C108.516667,369.98 107.756667,370.183333 107.09,370.59 C106.423333,370.996667 105.906667,371.57 105.54,372.31 C105.173333,373.05 104.99,373.9 104.99,374.86 C104.99,375.82 105.176667,376.666667 105.55,377.4 C105.923333,378.133333 106.44,378.703333 107.1,379.11 C107.76,379.516667 108.516667,379.72 109.37,379.72 C110.09,379.72 110.73,379.57 111.29,379.27 C111.85,378.97 112.276667,378.546667 112.57,378 L112.57,378 L112.57,379.28 C112.57,380.986667 111.703333,381.84 109.97,381.84 C108.676667,381.84 107.423333,381.473333 106.21,380.74 L106.21,380.74 L105.51,382.5 C106.096667,382.9 106.783333,383.21 107.57,383.43 C108.356667,383.65 109.176667,383.76 110.03,383.76 Z M110.03,377.78 C109.243333,377.78 108.623333,377.516667 108.17,376.99 C107.716667,376.463333 107.49,375.753333 107.49,374.86 C107.49,373.94 107.716667,373.22 108.17,372.7 C108.623333,372.18 109.243333,371.92 110.03,371.92 C110.83,371.92 111.453333,372.18 111.9,372.7 C112.346667,373.22 112.57,373.94 112.57,374.86 C112.57,375.766667 112.346667,376.48 111.9,377 C111.453333,377.52 110.83,377.78 110.03,377.78 Z M120.13,380 L120.13,374.46 C120.13,373.7 120.346667,373.093333 120.78,372.64 C121.213333,372.186667 121.79,371.96 122.51,371.96 C123.123333,371.96 123.573333,372.133333 123.86,372.48 C124.146667,372.826667 124.29,373.38 124.29,374.14 L124.29,374.14 L124.29,380 L126.79,380 L126.79,374 C126.79,372.653333 126.503333,371.646667 125.93,370.98 C125.356667,370.313333 124.483333,369.98 123.31,369.98 C122.63,369.98 122.013333,370.116667 121.46,370.39 C120.906667,370.663333 120.463333,371.06 120.13,371.58 L120.13,371.58 L120.13,365.9 L117.63,365.9 L117.63,380 L120.13,380 Z M134.03,380.14 C134.363333,380.14 134.73,380.12 135.13,380.08 L135.13,380.08 L135.25,378.22 C134.93,378.26 134.623333,378.28 134.33,378.28 C133.116667,378.28 132.51,377.626667 132.51,376.32 L132.51,376.32 L132.51,372.1 L135.09,372.1 L135.09,370.22 L132.51,370.22 L132.51,367.3 L130.01,367.3 L130.01,370.22 L128.13,370.22 L128.13,372.1 L130.01,372.1 L130.01,376.36 C130.01,377.613333 130.336667,378.556667 130.99,379.19 C131.643333,379.823333 132.656667,380.14 134.03,380.14 Z M146.83,380.14 C147.163333,380.14 147.53,380.12 147.93,380.08 L147.93,380.08 L148.05,378.22 C147.73,378.26 147.423333,378.28 147.13,378.28 C145.916667,378.28 145.31,377.626667 145.31,376.32 L145.31,376.32 L145.31,372.1 L147.89,372.1 L147.89,370.22 L145.31,370.22 L145.31,367.3 L142.81,367.3 L142.81,370.22 L140.93,370.22 L140.93,372.1 L142.81,372.1 L142.81,376.36 C142.81,377.613333 143.136667,378.556667 143.79,379.19 C144.443333,379.823333 145.456667,380.14 146.83,380.14 Z M153.97,380.16 C154.97,380.16 155.846667,379.953333 156.6,379.54 C157.353333,379.126667 157.933333,378.533333 158.34,377.76 C158.746667,376.986667 158.95,376.086667 158.95,375.06 C158.95,374.033333 158.746667,373.136667 158.34,372.37 C157.933333,371.603333 157.353333,371.013333 156.6,370.6 C155.846667,370.186667 154.97,369.98 153.97,369.98 C152.97,369.98 152.093333,370.186667 151.34,370.6 C150.586667,371.013333 150.003333,371.603333 149.59,372.37 C149.176667,373.136667 148.97,374.033333 148.97,375.06 C148.97,376.086667 149.176667,376.986667 149.59,377.76 C150.003333,378.533333 150.586667,379.126667 151.34,379.54 C152.093333,379.953333 152.97,380.16 153.97,380.16 Z M153.95,378.22 C153.15,378.22 152.536667,377.953333 152.11,377.42 C151.683333,376.886667 151.47,376.1 151.47,375.06 C151.47,374.033333 151.686667,373.25 152.12,372.71 C152.553333,372.17 153.17,371.9 153.97,371.9 C154.77,371.9 155.383333,372.17 155.81,372.71 C156.236667,373.25 156.45,374.033333 156.45,375.06 C156.45,376.1 156.236667,376.886667 155.81,377.42 C155.383333,377.953333 154.763333,378.22 153.95,378.22 Z M171.47,380 L175.75,370.24 L173.29,370.24 L170.45,377.14 L167.69,370.24 L165.05,370.24 L169.29,380 L171.47,380 Z M181.41,380.16 C182.41,380.16 183.286667,379.953333 184.04,379.54 C184.793333,379.126667 185.373333,378.533333 185.78,377.76 C186.186667,376.986667 186.39,376.086667 186.39,375.06 C186.39,374.033333 186.186667,373.136667 185.78,372.37 C185.373333,371.603333 184.793333,371.013333 184.04,370.6 C183.286667,370.186667 182.41,369.98 181.41,369.98 C180.41,369.98 179.533333,370.186667 178.78,370.6 C178.026667,371.013333 177.443333,371.603333 177.03,372.37 C176.616667,373.136667 176.41,374.033333 176.41,375.06 C176.41,376.086667 176.616667,376.986667 177.03,377.76 C177.443333,378.533333 178.026667,379.126667 178.78,379.54 C179.533333,379.953333 180.41,380.16 181.41,380.16 Z M181.39,378.22 C180.59,378.22 179.976667,377.953333 179.55,377.42 C179.123333,376.886667 178.91,376.1 178.91,375.06 C178.91,374.033333 179.126667,373.25 179.56,372.71 C179.993333,372.17 180.61,371.9 181.41,371.9 C182.21,371.9 182.823333,372.17 183.25,372.71 C183.676667,373.25 183.89,374.033333 183.89,375.06 C183.89,376.1 183.676667,376.886667 183.25,377.42 C182.823333,377.953333 182.203333,378.22 181.39,378.22 Z M193.15,380.14 C193.483333,380.14 193.85,380.12 194.25,380.08 L194.25,380.08 L194.37,378.22 C194.05,378.26 193.743333,378.28 193.45,378.28 C192.236667,378.28 191.63,377.626667 191.63,376.32 L191.63,376.32 L191.63,372.1 L194.21,372.1 L194.21,370.22 L191.63,370.22 L191.63,367.3 L189.13,367.3 L189.13,370.22 L187.25,370.22 L187.25,372.1 L189.13,372.1 L189.13,376.36 C189.13,377.613333 189.456667,378.556667 190.11,379.19 C190.763333,379.823333 191.776667,380.14 193.15,380.14 Z M200.47,380.16 C201.163333,380.16 201.853333,380.046667 202.54,379.82 C203.226667,379.593333 203.796667,379.293333 204.25,378.92 L204.25,378.92 L203.53,377.2 C202.636667,377.893333 201.65,378.24 200.57,378.24 C199.703333,378.24 199.036667,378.02 198.57,377.58 C198.103333,377.14 197.83,376.466667 197.75,375.56 L197.75,375.56 L204.41,375.56 L204.41,374.86 C204.41,373.34 204.02,372.146667 203.24,371.28 C202.46,370.413333 201.396667,369.98 200.05,369.98 C199.13,369.98 198.306667,370.193333 197.58,370.62 C196.853333,371.046667 196.29,371.646667 195.89,372.42 C195.49,373.193333 195.29,374.08 195.29,375.08 C195.29,376.653333 195.753333,377.893333 196.68,378.8 C197.606667,379.706667 198.87,380.16 200.47,380.16 Z M202.27,374.22 L197.75,374.22 C197.843333,373.42 198.093333,372.806667 198.5,372.38 C198.906667,371.953333 199.443333,371.74 200.11,371.74 C200.776667,371.74 201.296667,371.95 201.67,372.37 C202.043333,372.79 202.243333,373.406667 202.27,374.22 L202.27,374.22 Z M214.49,368.14 L214.49,365.68 L211.73,365.68 L211.73,368.14 L214.49,368.14 Z M214.37,380 L214.37,370.22 L211.87,370.22 L211.87,380 L214.37,380 Z M219.45,380 L219.45,374.46 C219.45,373.7 219.666667,373.093333 220.1,372.64 C220.533333,372.186667 221.11,371.96 221.83,371.96 C222.443333,371.96 222.893333,372.133333 223.18,372.48 C223.466667,372.826667 223.61,373.38 223.61,374.14 L223.61,374.14 L223.61,380 L226.11,380 L226.11,374 C226.11,372.653333 225.823333,371.646667 225.25,370.98 C224.676667,370.313333 223.803333,369.98 222.63,369.98 C221.923333,369.98 221.29,370.126667 220.73,370.42 C220.17,370.713333 219.723333,371.133333 219.39,371.68 L219.39,371.68 L219.39,370.22 L216.95,370.22 L216.95,380 L219.45,380 Z M238.71,380.16 C239.403333,380.16 240.093333,380.046667 240.78,379.82 C241.466667,379.593333 242.036667,379.293333 242.49,378.92 L242.49,378.92 L241.77,377.2 C240.876667,377.893333 239.89,378.24 238.81,378.24 C237.943333,378.24 237.276667,378.02 236.81,377.58 C236.343333,377.14 236.07,376.466667 235.99,375.56 L235.99,375.56 L242.65,375.56 L242.65,374.86 C242.65,373.34 242.26,372.146667 241.48,371.28 C240.7,370.413333 239.636667,369.98 238.29,369.98 C237.37,369.98 236.546667,370.193333 235.82,370.62 C235.093333,371.046667 234.53,371.646667 234.13,372.42 C233.73,373.193333 233.53,374.08 233.53,375.08 C233.53,376.653333 233.993333,377.893333 234.92,378.8 C235.846667,379.706667 237.11,380.16 238.71,380.16 Z M240.51,374.22 L235.99,374.22 C236.083333,373.42 236.333333,372.806667 236.74,372.38 C237.146667,371.953333 237.683333,371.74 238.35,371.74 C239.016667,371.74 239.536667,371.95 239.91,372.37 C240.283333,372.79 240.483333,373.406667 240.51,374.22 L240.51,374.22 Z M247.19,380 L247.19,365.9 L244.69,365.9 L244.69,380 L247.19,380 Z M254.41,380.16 C255.103333,380.16 255.793333,380.046667 256.48,379.82 C257.166667,379.593333 257.736667,379.293333 258.19,378.92 L258.19,378.92 L257.47,377.2 C256.576667,377.893333 255.59,378.24 254.51,378.24 C253.643333,378.24 252.976667,378.02 252.51,377.58 C252.043333,377.14 251.77,376.466667 251.69,375.56 L251.69,375.56 L258.35,375.56 L258.35,374.86 C258.35,373.34 257.96,372.146667 257.18,371.28 C256.4,370.413333 255.336667,369.98 253.99,369.98 C253.07,369.98 252.246667,370.193333 251.52,370.62 C250.793333,371.046667 250.23,371.646667 249.83,372.42 C249.43,373.193333 249.23,374.08 249.23,375.08 C249.23,376.653333 249.693333,377.893333 250.62,378.8 C251.546667,379.706667 252.81,380.16 254.41,380.16 Z M256.21,374.22 L251.69,374.22 C251.783333,373.42 252.033333,372.806667 252.44,372.38 C252.846667,371.953333 253.383333,371.74 254.05,371.74 C254.716667,371.74 255.236667,371.95 255.61,372.37 C255.983333,372.79 256.183333,373.406667 256.21,374.22 L256.21,374.22 Z M264.85,380.16 C265.57,380.16 266.263333,380.05 266.93,379.83 C267.596667,379.61 268.143333,379.306667 268.57,378.92 L268.57,378.92 L267.85,377.18 C267.436667,377.513333 267,377.766667 266.54,377.94 C266.08,378.113333 265.623333,378.2 265.17,378.2 C264.303333,378.2 263.63,377.93 263.15,377.39 C262.67,376.85 262.43,376.08 262.43,375.08 C262.43,374.066667 262.67,373.29 263.15,372.75 C263.63,372.21 264.303333,371.94 265.17,371.94 C265.623333,371.94 266.08,372.026667 266.54,372.2 C267,372.373333 267.436667,372.626667 267.85,372.96 L267.85,372.96 L268.57,371.2 C268.17,370.826667 267.64,370.53 266.98,370.31 C266.32,370.09 265.643333,369.98 264.95,369.98 C263.936667,369.98 263.043333,370.193333 262.27,370.62 C261.496667,371.046667 260.9,371.65 260.48,372.43 C260.06,373.21 259.85,374.106667 259.85,375.12 C259.85,376.133333 260.05,377.02 260.45,377.78 C260.85,378.54 261.426667,379.126667 262.18,379.54 C262.933333,379.953333 263.823333,380.16 264.85,380.16 Z M274.85,380.14 C275.183333,380.14 275.55,380.12 275.95,380.08 L275.95,380.08 L276.07,378.22 C275.75,378.26 275.443333,378.28 275.15,378.28 C273.936667,378.28 273.33,377.626667 273.33,376.32 L273.33,376.32 L273.33,372.1 L275.91,372.1 L275.91,370.22 L273.33,370.22 L273.33,367.3 L270.83,367.3 L270.83,370.22 L268.95,370.22 L268.95,372.1 L270.83,372.1 L270.83,376.36 C270.83,377.613333 271.156667,378.556667 271.81,379.19 C272.463333,379.823333 273.476667,380.14 274.85,380.14 Z M280.15,368.14 L280.15,365.68 L277.39,365.68 L277.39,368.14 L280.15,368.14 Z M280.03,380 L280.03,370.22 L277.53,370.22 L277.53,380 L280.03,380 Z M287.07,380.16 C288.07,380.16 288.946667,379.953333 289.7,379.54 C290.453333,379.126667 291.033333,378.533333 291.44,377.76 C291.846667,376.986667 292.05,376.086667 292.05,375.06 C292.05,374.033333 291.846667,373.136667 291.44,372.37 C291.033333,371.603333 290.453333,371.013333 289.7,370.6 C288.946667,370.186667 288.07,369.98 287.07,369.98 C286.07,369.98 285.193333,370.186667 284.44,370.6 C283.686667,371.013333 283.103333,371.603333 282.69,372.37 C282.276667,373.136667 282.07,374.033333 282.07,375.06 C282.07,376.086667 282.276667,376.986667 282.69,377.76 C283.103333,378.533333 283.686667,379.126667 284.44,379.54 C285.193333,379.953333 286.07,380.16 287.07,380.16 Z M287.05,378.22 C286.25,378.22 285.636667,377.953333 285.21,377.42 C284.783333,376.886667 284.57,376.1 284.57,375.06 C284.57,374.033333 284.786667,373.25 285.22,372.71 C285.653333,372.17 286.27,371.9 287.07,371.9 C287.87,371.9 288.483333,372.17 288.91,372.71 C289.336667,373.25 289.55,374.033333 289.55,375.06 C289.55,376.1 289.336667,376.886667 288.91,377.42 C288.483333,377.953333 287.863333,378.22 287.05,378.22 Z M296.61,380 L296.61,374.46 C296.61,373.7 296.826667,373.093333 297.26,372.64 C297.693333,372.186667 298.27,371.96 298.99,371.96 C299.603333,371.96 300.053333,372.133333 300.34,372.48 C300.626667,372.826667 300.77,373.38 300.77,374.14 L300.77,374.14 L300.77,380 L303.27,380 L303.27,374 C303.27,372.653333 302.983333,371.646667 302.41,370.98 C301.836667,370.313333 300.963333,369.98 299.79,369.98 C299.083333,369.98 298.45,370.126667 297.89,370.42 C297.33,370.713333 296.883333,371.133333 296.55,371.68 L296.55,371.68 L296.55,370.22 L294.11,370.22 L294.11,380 L296.61,380 Z M309.41,380.16 C310.663333,380.16 311.656667,379.893333 312.39,379.36 C313.123333,378.826667 313.49,378.106667 313.49,377.2 C313.49,376.453333 313.263333,375.85 312.81,375.39 C312.356667,374.93 311.643333,374.593333 310.67,374.38 L310.67,374.38 L309.01,374 C308.583333,373.906667 308.273333,373.773333 308.08,373.6 C307.886667,373.426667 307.79,373.206667 307.79,372.94 C307.79,372.58 307.943333,372.3 308.25,372.1 C308.556667,371.9 308.983333,371.8 309.53,371.8 C310.543333,371.8 311.556667,372.166667 312.57,372.9 L312.57,372.9 L313.27,371.2 C312.776667,370.813333 312.206667,370.513333 311.56,370.3 C310.913333,370.086667 310.243333,369.98 309.55,369.98 C308.75,369.98 308.046667,370.106667 307.44,370.36 C306.833333,370.613333 306.36,370.97 306.02,371.43 C305.68,371.89 305.51,372.42 305.51,373.02 C305.51,373.74 305.73,374.326667 306.17,374.78 C306.61,375.233333 307.283333,375.56 308.19,375.76 L308.19,375.76 L309.79,376.12 C310.323333,376.253333 310.693333,376.4 310.9,376.56 C311.106667,376.72 311.21,376.946667 311.21,377.24 C311.21,377.586667 311.06,377.853333 310.76,378.04 C310.46,378.226667 310.023333,378.32 309.45,378.32 C308.103333,378.32 306.91,377.94 305.87,377.18 L305.87,377.18 L305.17,378.92 C305.676667,379.32 306.293333,379.626667 307.02,379.84 C307.746667,380.053333 308.543333,380.16 309.41,380.16 Z M325.63,380.14 C325.963333,380.14 326.33,380.12 326.73,380.08 L326.73,380.08 L326.85,378.22 C326.53,378.26 326.223333,378.28 325.93,378.28 C324.716667,378.28 324.11,377.626667 324.11,376.32 L324.11,376.32 L324.11,372.1 L326.69,372.1 L326.69,370.22 L324.11,370.22 L324.11,367.3 L321.61,367.3 L321.61,370.22 L319.73,370.22 L319.73,372.1 L321.61,372.1 L321.61,376.36 C321.61,377.613333 321.936667,378.556667 322.59,379.19 C323.243333,379.823333 324.256667,380.14 325.63,380.14 Z M332.77,380.16 C333.77,380.16 334.646667,379.953333 335.4,379.54 C336.153333,379.126667 336.733333,378.533333 337.14,377.76 C337.546667,376.986667 337.75,376.086667 337.75,375.06 C337.75,374.033333 337.546667,373.136667 337.14,372.37 C336.733333,371.603333 336.153333,371.013333 335.4,370.6 C334.646667,370.186667 333.77,369.98 332.77,369.98 C331.77,369.98 330.893333,370.186667 330.14,370.6 C329.386667,371.013333 328.803333,371.603333 328.39,372.37 C327.976667,373.136667 327.77,374.033333 327.77,375.06 C327.77,376.086667 327.976667,376.986667 328.39,377.76 C328.803333,378.533333 329.386667,379.126667 330.14,379.54 C330.893333,379.953333 331.77,380.16 332.77,380.16 Z M332.75,378.22 C331.95,378.22 331.336667,377.953333 330.91,377.42 C330.483333,376.886667 330.27,376.1 330.27,375.06 C330.27,374.033333 330.486667,373.25 330.92,372.71 C331.353333,372.17 331.97,371.9 332.77,371.9 C333.57,371.9 334.183333,372.17 334.61,372.71 C335.036667,373.25 335.25,374.033333 335.25,375.06 C335.25,376.1 335.036667,376.886667 334.61,377.42 C334.183333,377.953333 333.563333,378.22 332.75,378.22 Z M47.48,408.16 C48.1866667,408.16 48.8166667,408.006667 49.37,407.7 C49.9233333,407.393333 50.3466667,406.966667 50.64,406.42 L50.64,406.42 L50.64,408 L53.12,408 L53.12,393.9 L50.62,393.9 L50.62,399.66 C50.3266667,399.126667 49.9066667,398.713333 49.36,398.42 C48.8133333,398.126667 48.1866667,397.98 47.48,397.98 C46.6266667,397.98 45.8733333,398.186667 45.22,398.6 C44.5666667,399.013333 44.0566667,399.6 43.69,400.36 C43.3233333,401.12 43.14,402.006667 43.14,403.02 C43.14,404.033333 43.3233333,404.93 43.69,405.71 C44.0566667,406.49 44.57,407.093333 45.23,407.52 C45.89,407.946667 46.64,408.16 47.48,408.16 Z M48.14,406.22 C47.3533333,406.22 46.74,405.94 46.3,405.38 C45.86,404.82 45.64,404.033333 45.64,403.02 C45.64,402.02 45.86,401.253333 46.3,400.72 C46.74,400.186667 47.36,399.92 48.16,399.92 C48.9466667,399.92 49.5566667,400.19 49.99,400.73 C50.4233333,401.27 50.64,402.046667 50.64,403.06 C50.64,404.073333 50.4233333,404.853333 49.99,405.4 C49.5566667,405.946667 48.94,406.22 48.14,406.22 Z M60.34,408.16 C61.0333333,408.16 61.7233333,408.046667 62.41,407.82 C63.0966667,407.593333 63.6666667,407.293333 64.12,406.92 L64.12,406.92 L63.4,405.2 C62.5066667,405.893333 61.52,406.24 60.44,406.24 C59.5733333,406.24 58.9066667,406.02 58.44,405.58 C57.9733333,405.14 57.7,404.466667 57.62,403.56 L57.62,403.56 L64.28,403.56 L64.28,402.86 C64.28,401.34 63.89,400.146667 63.11,399.28 C62.33,398.413333 61.2666667,397.98 59.92,397.98 C59,397.98 58.1766667,398.193333 57.45,398.62 C56.7233333,399.046667 56.16,399.646667 55.76,400.42 C55.36,401.193333 55.16,402.08 55.16,403.08 C55.16,404.653333 55.6233333,405.893333 56.55,406.8 C57.4766667,407.706667 58.74,408.16 60.34,408.16 Z M62.14,402.22 L57.62,402.22 C57.7133333,401.42 57.9633333,400.806667 58.37,400.38 C58.7766667,399.953333 59.3133333,399.74 59.98,399.74 C60.6466667,399.74 61.1666667,399.95 61.54,400.37 C61.9133333,400.79 62.1133333,401.406667 62.14,402.22 L62.14,402.22 Z M71.02,408.14 C71.3533333,408.14 71.72,408.12 72.12,408.08 L72.12,408.08 L72.24,406.22 C71.92,406.26 71.6133333,406.28 71.32,406.28 C70.1066667,406.28 69.5,405.626667 69.5,404.32 L69.5,404.32 L69.5,400.1 L72.08,400.1 L72.08,398.22 L69.5,398.22 L69.5,395.3 L67,395.3 L67,398.22 L65.12,398.22 L65.12,400.1 L67,400.1 L67,404.36 C67,405.613333 67.3266667,406.556667 67.98,407.19 C68.6333333,407.823333 69.6466667,408.14 71.02,408.14 Z M78.34,408.16 C79.0333333,408.16 79.7233333,408.046667 80.41,407.82 C81.0966667,407.593333 81.6666667,407.293333 82.12,406.92 L82.12,406.92 L81.4,405.2 C80.5066667,405.893333 79.52,406.24 78.44,406.24 C77.5733333,406.24 76.9066667,406.02 76.44,405.58 C75.9733333,405.14 75.7,404.466667 75.62,403.56 L75.62,403.56 L82.28,403.56 L82.28,402.86 C82.28,401.34 81.89,400.146667 81.11,399.28 C80.33,398.413333 79.2666667,397.98 77.92,397.98 C77,397.98 76.1766667,398.193333 75.45,398.62 C74.7233333,399.046667 74.16,399.646667 73.76,400.42 C73.36,401.193333 73.16,402.08 73.16,403.08 C73.16,404.653333 73.6233333,405.893333 74.55,406.8 C75.4766667,407.706667 76.74,408.16 78.34,408.16 Z M80.14,402.22 L75.62,402.22 C75.7133333,401.42 75.9633333,400.806667 76.37,400.38 C76.7766667,399.953333 77.3133333,399.74 77.98,399.74 C78.6466667,399.74 79.1666667,399.95 79.54,400.37 C79.9133333,400.79 80.1133333,401.406667 80.14,402.22 L80.14,402.22 Z M86.82,408 L86.82,402.72 C86.82,401.213333 87.6466667,400.373333 89.3,400.2 L89.3,400.2 L90.76,400.06 L90.6,397.96 L89.84,398.02 C88.2533333,398.126667 87.2066667,398.766667 86.7,399.94 L86.7,399.94 L86.7,398.22 L84.32,398.22 L84.32,408 L86.82,408 Z M94.48,408 L94.48,402.54 C94.48,401.726667 94.6666667,401.093333 95.04,400.64 C95.4133333,400.186667 95.9266667,399.96 96.58,399.96 C97.1533333,399.96 97.5633333,400.13 97.81,400.47 C98.0566667,400.81 98.18,401.353333 98.18,402.1 L98.18,402.1 L98.18,408 L100.68,408 L100.68,402.54 C100.68,401.726667 100.866667,401.093333 101.24,400.64 C101.613333,400.186667 102.133333,399.96 102.8,399.96 C103.36,399.96 103.766667,400.13 104.02,400.47 C104.273333,400.81 104.4,401.353333 104.4,402.1 L104.4,402.1 L104.4,408 L106.9,408 L106.9,402 C106.9,400.64 106.626667,399.63 106.08,398.97 C105.533333,398.31 104.706667,397.98 103.6,397.98 C102.893333,397.98 102.253333,398.143333 101.68,398.47 C101.106667,398.796667 100.666667,399.246667 100.36,399.82 C99.88,398.593333 98.9,397.98 97.42,397.98 C96.7533333,397.98 96.16,398.116667 95.64,398.39 C95.12,398.663333 94.7133333,399.066667 94.42,399.6 L94.42,399.6 L94.42,398.22 L91.98,398.22 L91.98,408 L94.48,408 Z M112.06,396.14 L112.06,393.68 L109.3,393.68 L109.3,396.14 L112.06,396.14 Z M111.94,408 L111.94,398.22 L109.44,398.22 L109.44,408 L111.94,408 Z M117.02,408 L117.02,402.46 C117.02,401.7 117.236667,401.093333 117.67,400.64 C118.103333,400.186667 118.68,399.96 119.4,399.96 C120.013333,399.96 120.463333,400.133333 120.75,400.48 C121.036667,400.826667 121.18,401.38 121.18,402.14 L121.18,402.14 L121.18,408 L123.68,408 L123.68,402 C123.68,400.653333 123.393333,399.646667 122.82,398.98 C122.246667,398.313333 121.373333,397.98 120.2,397.98 C119.493333,397.98 118.86,398.126667 118.3,398.42 C117.74,398.713333 117.293333,399.133333 116.96,399.68 L116.96,399.68 L116.96,398.22 L114.52,398.22 L114.52,408 L117.02,408 Z M130.86,408.16 C131.553333,408.16 132.243333,408.046667 132.93,407.82 C133.616667,407.593333 134.186667,407.293333 134.64,406.92 L134.64,406.92 L133.92,405.2 C133.026667,405.893333 132.04,406.24 130.96,406.24 C130.093333,406.24 129.426667,406.02 128.96,405.58 C128.493333,405.14 128.22,404.466667 128.14,403.56 L128.14,403.56 L134.8,403.56 L134.8,402.86 C134.8,401.34 134.41,400.146667 133.63,399.28 C132.85,398.413333 131.786667,397.98 130.44,397.98 C129.52,397.98 128.696667,398.193333 127.97,398.62 C127.243333,399.046667 126.68,399.646667 126.28,400.42 C125.88,401.193333 125.68,402.08 125.68,403.08 C125.68,404.653333 126.143333,405.893333 127.07,406.8 C127.996667,407.706667 129.26,408.16 130.86,408.16 Z M132.66,402.22 L128.14,402.22 C128.233333,401.42 128.483333,400.806667 128.89,400.38 C129.296667,399.953333 129.833333,399.74 130.5,399.74 C131.166667,399.74 131.686667,399.95 132.06,400.37 C132.433333,400.79 132.633333,401.406667 132.66,402.22 L132.66,402.22 Z M144.88,408 L144.88,398.16 L152.44,408 L154.38,408 L154.38,393.9 L151.96,393.9 L151.96,403.72 L144.4,393.9 L142.48,393.9 L142.48,408 L144.88,408 Z M161.84,408.16 C162.533333,408.16 163.223333,408.046667 163.91,407.82 C164.596667,407.593333 165.166667,407.293333 165.62,406.92 L165.62,406.92 L164.9,405.2 C164.006667,405.893333 163.02,406.24 161.94,406.24 C161.073333,406.24 160.406667,406.02 159.94,405.58 C159.473333,405.14 159.2,404.466667 159.12,403.56 L159.12,403.56 L165.78,403.56 L165.78,402.86 C165.78,401.34 165.39,400.146667 164.61,399.28 C163.83,398.413333 162.766667,397.98 161.42,397.98 C160.5,397.98 159.676667,398.193333 158.95,398.62 C158.223333,399.046667 157.66,399.646667 157.26,400.42 C156.86,401.193333 156.66,402.08 156.66,403.08 C156.66,404.653333 157.123333,405.893333 158.05,406.8 C158.976667,407.706667 160.24,408.16 161.84,408.16 Z M163.64,402.22 L159.12,402.22 C159.213333,401.42 159.463333,400.806667 159.87,400.38 C160.276667,399.953333 160.813333,399.74 161.48,399.74 C162.146667,399.74 162.666667,399.95 163.04,400.37 C163.413333,400.79 163.613333,401.406667 163.64,402.22 L163.64,402.22 Z M172.28,408.16 C173.28,408.16 174.156667,407.953333 174.91,407.54 C175.663333,407.126667 176.243333,406.533333 176.65,405.76 C177.056667,404.986667 177.26,404.086667 177.26,403.06 C177.26,402.033333 177.056667,401.136667 176.65,400.37 C176.243333,399.603333 175.663333,399.013333 174.91,398.6 C174.156667,398.186667 173.28,397.98 172.28,397.98 C171.28,397.98 170.403333,398.186667 169.65,398.6 C168.896667,399.013333 168.313333,399.603333 167.9,400.37 C167.486667,401.136667 167.28,402.033333 167.28,403.06 C167.28,404.086667 167.486667,404.986667 167.9,405.76 C168.313333,406.533333 168.896667,407.126667 169.65,407.54 C170.403333,407.953333 171.28,408.16 172.28,408.16 Z M172.26,406.22 C171.46,406.22 170.846667,405.953333 170.42,405.42 C169.993333,404.886667 169.78,404.1 169.78,403.06 C169.78,402.033333 169.996667,401.25 170.43,400.71 C170.863333,400.17 171.48,399.9 172.28,399.9 C173.08,399.9 173.693333,400.17 174.12,400.71 C174.546667,401.25 174.76,402.033333 174.76,403.06 C174.76,404.1 174.546667,404.886667 174.12,405.42 C173.693333,405.953333 173.073333,406.22 172.26,406.22 Z M191.36,408.18 C192.306667,408.18 193.2,408.033333 194.04,407.74 C194.88,407.446667 195.586667,407.033333 196.16,406.5 L196.16,406.5 L195.3,404.62 C194.66,405.126667 194.026667,405.496667 193.4,405.73 C192.773333,405.963333 192.106667,406.08 191.4,406.08 C190.04,406.08 188.99,405.64 188.25,404.76 C187.51,403.88 187.14,402.606667 187.14,400.94 C187.14,399.286667 187.51,398.02 188.25,397.14 C188.99,396.26 190.04,395.82 191.4,395.82 C192.106667,395.82 192.773333,395.936667 193.4,396.17 C194.026667,396.403333 194.66,396.773333 195.3,397.28 L195.3,397.28 L196.16,395.4 C195.586667,394.866667 194.88,394.453333 194.04,394.16 C193.2,393.866667 192.306667,393.72 191.36,393.72 C189.973333,393.72 188.763333,394.016667 187.73,394.61 C186.696667,395.203333 185.903333,396.043333 185.35,397.13 C184.796667,398.216667 184.52,399.486667 184.52,400.94 C184.52,402.393333 184.796667,403.666667 185.35,404.76 C185.903333,405.853333 186.696667,406.696667 187.73,407.29 C188.763333,407.883333 189.973333,408.18 191.36,408.18 Z M202.76,408.16 C203.76,408.16 204.636667,407.953333 205.39,407.54 C206.143333,407.126667 206.723333,406.533333 207.13,405.76 C207.536667,404.986667 207.74,404.086667 207.74,403.06 C207.74,402.033333 207.536667,401.136667 207.13,400.37 C206.723333,399.603333 206.143333,399.013333 205.39,398.6 C204.636667,398.186667 203.76,397.98 202.76,397.98 C201.76,397.98 200.883333,398.186667 200.13,398.6 C199.376667,399.013333 198.793333,399.603333 198.38,400.37 C197.966667,401.136667 197.76,402.033333 197.76,403.06 C197.76,404.086667 197.966667,404.986667 198.38,405.76 C198.793333,406.533333 199.376667,407.126667 200.13,407.54 C200.883333,407.953333 201.76,408.16 202.76,408.16 Z M202.74,406.22 C201.94,406.22 201.326667,405.953333 200.9,405.42 C200.473333,404.886667 200.26,404.1 200.26,403.06 C200.26,402.033333 200.476667,401.25 200.91,400.71 C201.343333,400.17 201.96,399.9 202.76,399.9 C203.56,399.9 204.173333,400.17 204.6,400.71 C205.026667,401.25 205.24,402.033333 205.24,403.06 C205.24,404.1 205.026667,404.886667 204.6,405.42 C204.173333,405.953333 203.553333,406.22 202.74,406.22 Z M213.34,408.16 C213.993333,408.16 214.58,408.016667 215.1,407.73 C215.62,407.443333 216.033333,407.033333 216.34,406.5 L216.34,406.5 L216.34,408 L218.78,408 L218.78,398.22 L216.28,398.22 L216.28,403.66 C216.28,404.42 216.07,405.03 215.65,405.49 C215.23,405.95 214.673333,406.18 213.98,406.18 C213.38,406.18 212.94,406.013333 212.66,405.68 C212.38,405.346667 212.24,404.833333 212.24,404.14 L212.24,404.14 L212.24,398.22 L209.74,398.22 L209.74,404.12 C209.74,406.813333 210.94,408.16 213.34,408.16 Z M223.88,408 L223.88,402.46 C223.88,401.7 224.096667,401.093333 224.53,400.64 C224.963333,400.186667 225.54,399.96 226.26,399.96 C226.873333,399.96 227.323333,400.133333 227.61,400.48 C227.896667,400.826667 228.04,401.38 228.04,402.14 L228.04,402.14 L228.04,408 L230.54,408 L230.54,402 C230.54,400.653333 230.253333,399.646667 229.68,398.98 C229.106667,398.313333 228.233333,397.98 227.06,397.98 C226.353333,397.98 225.72,398.126667 225.16,398.42 C224.6,398.713333 224.153333,399.133333 223.82,399.68 L223.82,399.68 L223.82,398.22 L221.38,398.22 L221.38,408 L223.88,408 Z M237.54,408.16 C238.26,408.16 238.953333,408.05 239.62,407.83 C240.286667,407.61 240.833333,407.306667 241.26,406.92 L241.26,406.92 L240.54,405.18 C240.126667,405.513333 239.69,405.766667 239.23,405.94 C238.77,406.113333 238.313333,406.2 237.86,406.2 C236.993333,406.2 236.32,405.93 235.84,405.39 C235.36,404.85 235.12,404.08 235.12,403.08 C235.12,402.066667 235.36,401.29 235.84,400.75 C236.32,400.21 236.993333,399.94 237.86,399.94 C238.313333,399.94 238.77,400.026667 239.23,400.2 C239.69,400.373333 240.126667,400.626667 240.54,400.96 L240.54,400.96 L241.26,399.2 C240.86,398.826667 240.33,398.53 239.67,398.31 C239.01,398.09 238.333333,397.98 237.64,397.98 C236.626667,397.98 235.733333,398.193333 234.96,398.62 C234.186667,399.046667 233.59,399.65 233.17,400.43 C232.75,401.21 232.54,402.106667 232.54,403.12 C232.54,404.133333 232.74,405.02 233.14,405.78 C233.54,406.54 234.116667,407.126667 234.87,407.54 C235.623333,407.953333 236.513333,408.16 237.54,408.16 Z M245.46,396.14 L245.46,393.68 L242.7,393.68 L242.7,396.14 L245.46,396.14 Z M245.34,408 L245.34,398.22 L242.84,398.22 L242.84,408 L245.34,408 Z M250.42,408 L250.42,393.9 L247.92,393.9 L247.92,408 L250.42,408 Z M260.92,408 L260.92,402.54 C260.92,401.726667 261.106667,401.093333 261.48,400.64 C261.853333,400.186667 262.366667,399.96 263.02,399.96 C263.593333,399.96 264.003333,400.13 264.25,400.47 C264.496667,400.81 264.62,401.353333 264.62,402.1 L264.62,402.1 L264.62,408 L267.12,408 L267.12,402.54 C267.12,401.726667 267.306667,401.093333 267.68,400.64 C268.053333,400.186667 268.573333,399.96 269.24,399.96 C269.8,399.96 270.206667,400.13 270.46,400.47 C270.713333,400.81 270.84,401.353333 270.84,402.1 L270.84,402.1 L270.84,408 L273.34,408 L273.34,402 C273.34,400.64 273.066667,399.63 272.52,398.97 C271.973333,398.31 271.146667,397.98 270.04,397.98 C269.333333,397.98 268.693333,398.143333 268.12,398.47 C267.546667,398.796667 267.106667,399.246667 266.8,399.82 C266.32,398.593333 265.34,397.98 263.86,397.98 C263.193333,397.98 262.6,398.116667 262.08,398.39 C261.56,398.663333 261.153333,399.066667 260.86,399.6 L260.86,399.6 L260.86,398.22 L258.42,398.22 L258.42,408 L260.92,408 Z M280.52,408.16 C281.213333,408.16 281.903333,408.046667 282.59,407.82 C283.276667,407.593333 283.846667,407.293333 284.3,406.92 L284.3,406.92 L283.58,405.2 C282.686667,405.893333 281.7,406.24 280.62,406.24 C279.753333,406.24 279.086667,406.02 278.62,405.58 C278.153333,405.14 277.88,404.466667 277.8,403.56 L277.8,403.56 L284.46,403.56 L284.46,402.86 C284.46,401.34 284.07,400.146667 283.29,399.28 C282.51,398.413333 281.446667,397.98 280.1,397.98 C279.18,397.98 278.356667,398.193333 277.63,398.62 C276.903333,399.046667 276.34,399.646667 275.94,400.42 C275.54,401.193333 275.34,402.08 275.34,403.08 C275.34,404.653333 275.803333,405.893333 276.73,406.8 C277.656667,407.706667 278.92,408.16 280.52,408.16 Z M282.32,402.22 L277.8,402.22 C277.893333,401.42 278.143333,400.806667 278.55,400.38 C278.956667,399.953333 279.493333,399.74 280.16,399.74 C280.826667,399.74 281.346667,399.95 281.72,400.37 C282.093333,400.79 282.293333,401.406667 282.32,402.22 L282.32,402.22 Z M289,408 L289,402.54 C289,401.726667 289.186667,401.093333 289.56,400.64 C289.933333,400.186667 290.446667,399.96 291.1,399.96 C291.673333,399.96 292.083333,400.13 292.33,400.47 C292.576667,400.81 292.7,401.353333 292.7,402.1 L292.7,402.1 L292.7,408 L295.2,408 L295.2,402.54 C295.2,401.726667 295.386667,401.093333 295.76,400.64 C296.133333,400.186667 296.653333,399.96 297.32,399.96 C297.88,399.96 298.286667,400.13 298.54,400.47 C298.793333,400.81 298.92,401.353333 298.92,402.1 L298.92,402.1 L298.92,408 L301.42,408 L301.42,402 C301.42,400.64 301.146667,399.63 300.6,398.97 C300.053333,398.31 299.226667,397.98 298.12,397.98 C297.413333,397.98 296.773333,398.143333 296.2,398.47 C295.626667,398.796667 295.186667,399.246667 294.88,399.82 C294.4,398.593333 293.42,397.98 291.94,397.98 C291.273333,397.98 290.68,398.116667 290.16,398.39 C289.64,398.663333 289.233333,399.066667 288.94,399.6 L288.94,399.6 L288.94,398.22 L286.5,398.22 L286.5,408 L289,408 Z M309.58,408.16 C310.42,408.16 311.17,407.946667 311.83,407.52 C312.49,407.093333 313.003333,406.49 313.37,405.71 C313.736667,404.93 313.92,404.033333 313.92,403.02 C313.92,402.006667 313.736667,401.12 313.37,400.36 C313.003333,399.6 312.493333,399.013333 311.84,398.6 C311.186667,398.186667 310.433333,397.98 309.58,397.98 C308.886667,397.98 308.266667,398.123333 307.72,398.41 C307.173333,398.696667 306.753333,399.106667 306.46,399.64 L306.46,399.64 L306.46,393.9 L303.96,393.9 L303.96,408 L306.42,408 L306.42,406.42 C306.713333,406.966667 307.136667,407.393333 307.69,407.7 C308.243333,408.006667 308.873333,408.16 309.58,408.16 Z M308.92,406.22 C308.12,406.22 307.503333,405.946667 307.07,405.4 C306.636667,404.853333 306.42,404.073333 306.42,403.06 C306.42,402.046667 306.636667,401.27 307.07,400.73 C307.503333,400.19 308.12,399.92 308.92,399.92 C309.72,399.92 310.336667,400.186667 310.77,400.72 C311.203333,401.253333 311.42,402.02 311.42,403.02 C311.42,404.033333 311.2,404.82 310.76,405.38 C310.32,405.94 309.706667,406.22 308.92,406.22 Z M320.62,408.16 C321.313333,408.16 322.003333,408.046667 322.69,407.82 C323.376667,407.593333 323.946667,407.293333 324.4,406.92 L324.4,406.92 L323.68,405.2 C322.786667,405.893333 321.8,406.24 320.72,406.24 C319.853333,406.24 319.186667,406.02 318.72,405.58 C318.253333,405.14 317.98,404.466667 317.9,403.56 L317.9,403.56 L324.56,403.56 L324.56,402.86 C324.56,401.34 324.17,400.146667 323.39,399.28 C322.61,398.413333 321.546667,397.98 320.2,397.98 C319.28,397.98 318.456667,398.193333 317.73,398.62 C317.003333,399.046667 316.44,399.646667 316.04,400.42 C315.64,401.193333 315.44,402.08 315.44,403.08 C315.44,404.653333 315.903333,405.893333 316.83,406.8 C317.756667,407.706667 319.02,408.16 320.62,408.16 Z M322.42,402.22 L317.9,402.22 C317.993333,401.42 318.243333,400.806667 318.65,400.38 C319.056667,399.953333 319.593333,399.74 320.26,399.74 C320.926667,399.74 321.446667,399.95 321.82,400.37 C322.193333,400.79 322.393333,401.406667 322.42,402.22 L322.42,402.22 Z M329.1,408 L329.1,402.72 C329.1,401.213333 329.926667,400.373333 331.58,400.2 L331.58,400.2 L333.04,400.06 L332.88,397.96 L332.12,398.02 C330.533333,398.126667 329.486667,398.766667 328.98,399.94 L328.98,399.94 L328.98,398.22 L326.6,398.22 L326.6,408 L329.1,408 Z M337.86,408.16 C339.113333,408.16 340.106667,407.893333 340.84,407.36 C341.573333,406.826667 341.94,406.106667 341.94,405.2 C341.94,404.453333 341.713333,403.85 341.26,403.39 C340.806667,402.93 340.093333,402.593333 339.12,402.38 L339.12,402.38 L337.46,402 C337.033333,401.906667 336.723333,401.773333 336.53,401.6 C336.336667,401.426667 336.24,401.206667 336.24,400.94 C336.24,400.58 336.393333,400.3 336.7,400.1 C337.006667,399.9 337.433333,399.8 337.98,399.8 C338.993333,399.8 340.006667,400.166667 341.02,400.9 L341.02,400.9 L341.72,399.2 C341.226667,398.813333 340.656667,398.513333 340.01,398.3 C339.363333,398.086667 338.693333,397.98 338,397.98 C337.2,397.98 336.496667,398.106667 335.89,398.36 C335.283333,398.613333 334.81,398.97 334.47,399.43 C334.13,399.89 333.96,400.42 333.96,401.02 C333.96,401.74 334.18,402.326667 334.62,402.78 C335.06,403.233333 335.733333,403.56 336.64,403.76 L336.64,403.76 L338.24,404.12 C338.773333,404.253333 339.143333,404.4 339.35,404.56 C339.556667,404.72 339.66,404.946667 339.66,405.24 C339.66,405.586667 339.51,405.853333 339.21,406.04 C338.91,406.226667 338.473333,406.32 337.9,406.32 C336.553333,406.32 335.36,405.94 334.32,405.18 L334.32,405.18 L333.62,406.92 C334.126667,407.32 334.743333,407.626667 335.47,407.84 C336.196667,408.053333 336.993333,408.16 337.86,408.16 Z M346.54,408 L346.54,405.24 L343.74,405.24 L343.74,408 L346.54,408 Z" id="TherighttovoteinelectionstodetermineNeoCouncilmembers." fill="#000033" fill-rule="nonzero"></path>
                <g id="Polygon-Copy-14">
                    <use fill="black" fill-opacity="1" filter="url(#filter-2)" xlink:href="#path-1"></use>
                    <use fill="#F0F5F6" fill-rule="evenodd" xlink:href="#path-1"></use>
                </g>
                <polygon id="Path-20" stroke="#000033" stroke-width="1.58949648" fill="#FFFFFF" stroke-linejoin="round" points="221.14 64.3898631 221.14 94.1423696 247.215152 109.202131 247.215152 77.9079531"></polygon>
                <polygon id="Path-20" stroke="#000033" stroke-width="1.58949648" fill="#FFFFFF" stroke-linejoin="round" transform="translate(260.134573, 86.795997) scale(-1, 1) translate(-260.134573, -86.795997) " points="247.096997 64.3898631 247.096997 94.1423696 273.172149 109.202131 273.172149 77.9079531"></polygon>
                <polygon id="Path-21" stroke="#000033" stroke-width="1.58949648" fill="#FFFFFF" stroke-linejoin="round" points="273.172149 64.3898631 247.096997 77.9079531 221.14 64.3898631 247.215152 50.2626836"></polygon>
                <polygon id="Path-20" fill="#000033" points="238.202005 59.4553661 253.658974 68.0709119 255.643166 66.9022371 240.210964 58.4264431"></polygon>
                <polygon id="Path-20-Copy-4" stroke="#000033" stroke-width="1.05966432" fill="#00E599" points="242.819927 35.56 242.819927 53.9397853 253.815441 59.825963 253.815441 41.2914056"></polygon>
                <g id="Polygon-Copy-14">
                    <use fill="black" fill-opacity="1" filter="url(#filter-4)" xlink:href="#path-3"></use>
                    <use fill="#F0F5F6" fill-rule="evenodd" xlink:href="#path-3"></use>
                </g>
                <polygon id="Path-20" stroke="#000033" stroke-width="1.58949648" fill="#FFFFFF" stroke-linejoin="round" points="113.24 64.3898631 113.24 94.1423696 139.315152 109.202131 139.315152 77.9079531"></polygon>
                <polygon id="Path-20" stroke="#000033" stroke-width="1.58949648" fill="#FFFFFF" stroke-linejoin="round" transform="translate(152.234573, 86.795997) scale(-1, 1) translate(-152.234573, -86.795997) " points="139.196997 64.3898631 139.196997 94.1423696 165.272149 109.202131 165.272149 77.9079531"></polygon>
                <polygon id="Path-21" stroke="#000033" stroke-width="1.58949648" fill="#FFFFFF" stroke-linejoin="round" points="165.272149 64.3898631 139.196997 77.9079531 113.24 64.3898631 139.315152 50.2626836"></polygon>
                <polygon id="Path-20" fill="#000033" points="130.302005 59.4553661 145.758974 68.0709119 147.743166 66.9022371 132.310964 58.4264431"></polygon>
                <polygon id="Path-20-Copy-4" stroke="#000033" stroke-width="1.05966432" fill="#00E599" points="134.919927 35.56 134.919927 53.9397853 145.915441 59.825963 145.915441 41.2914056"></polygon>
                <g id="Polygon-Copy-14">
                    <use fill="black" fill-opacity="1" filter="url(#filter-6)" xlink:href="#path-5"></use>
                    <use fill="#F0F5F6" fill-rule="evenodd" xlink:href="#path-5"></use>
                </g>
                <polygon id="Path-20" stroke="#000033" stroke-width="1.58949648" fill="#FFFFFF" stroke-linejoin="round" points="271.84 152.789863 271.84 182.54237 297.915152 197.602131 297.915152 166.307953"></polygon>
                <polygon id="Path-20" stroke="#000033" stroke-width="1.58949648" fill="#FFFFFF" stroke-linejoin="round" transform="translate(310.834573, 175.195997) scale(-1, 1) translate(-310.834573, -175.195997) " points="297.796997 152.789863 297.796997 182.54237 323.872149 197.602131 323.872149 166.307953"></polygon>
                <polygon id="Path-21" stroke="#000033" stroke-width="1.58949648" fill="#FFFFFF" stroke-linejoin="round" points="323.872149 152.789863 297.796997 166.307953 271.84 152.789863 297.915152 138.662684"></polygon>
                <polygon id="Path-20" fill="#000033" points="288.902005 147.855366 304.358974 156.470912 306.343166 155.302237 290.910964 146.826443"></polygon>
                <polygon id="Path-20-Copy-4" stroke="#000033" stroke-width="1.05966432" fill="#00E599" points="293.519927 123.96 293.519927 142.339785 304.515441 148.225963 304.515441 129.691406"></polygon>
                <g id="Polygon-Copy-14">
                    <use fill="black" fill-opacity="1" filter="url(#filter-8)" xlink:href="#path-7"></use>
                    <use fill="#F0F5F6" fill-rule="evenodd" xlink:href="#path-7"></use>
                </g>
                <polygon id="Path-20" stroke="#000033" stroke-width="1.58949648" fill="#FFFFFF" stroke-linejoin="round" points="166.54 151.489863 166.54 181.24237 192.615152 196.302131 192.615152 165.007953"></polygon>
                <polygon id="Path-20" stroke="#000033" stroke-width="1.58949648" fill="#FFFFFF" stroke-linejoin="round" transform="translate(205.534573, 173.895997) scale(-1, 1) translate(-205.534573, -173.895997) " points="192.496997 151.489863 192.496997 181.24237 218.572149 196.302131 218.572149 165.007953"></polygon>
                <polygon id="Path-21" stroke="#000033" stroke-width="1.58949648" fill="#FFFFFF" stroke-linejoin="round" points="218.572149 151.489863 192.496997 165.007953 166.54 151.489863 192.615152 137.362684"></polygon>
                <polygon id="Path-20" fill="#000033" points="183.602005 146.555366 199.058974 155.170912 201.043166 154.002237 185.610964 145.526443"></polygon>
                <polygon id="Path-20-Copy-4" stroke="#000033" stroke-width="1.05966432" fill="#00E599" points="188.219927 122.66 188.219927 141.039785 199.215441 146.925963 199.215441 128.391406"></polygon>
                <g id="Polygon-Copy-14">
                    <use fill="black" fill-opacity="1" filter="url(#filter-10)" xlink:href="#path-9"></use>
                    <use fill="#F0F5F6" fill-rule="evenodd" xlink:href="#path-9"></use>
                </g>
                <polygon id="Path-20" stroke="#000033" stroke-width="1.58949648" fill="#FFFFFF" stroke-linejoin="round" points="219.84 241.189863 219.84 270.94237 245.915152 286.002131 245.915152 254.707953"></polygon>
                <polygon id="Path-20" stroke="#000033" stroke-width="1.58949648" fill="#FFFFFF" stroke-linejoin="round" transform="translate(258.834573, 263.595997) scale(-1, 1) translate(-258.834573, -263.595997) " points="245.796997 241.189863 245.796997 270.94237 271.872149 286.002131 271.872149 254.707953"></polygon>
                <polygon id="Path-21" stroke="#000033" stroke-width="1.58949648" fill="#FFFFFF" stroke-linejoin="round" points="271.872149 241.189863 245.796997 254.707953 219.84 241.189863 245.915152 227.062684"></polygon>
                <polygon id="Path-20" fill="#000033" points="236.902005 236.255366 252.358974 244.870912 254.343166 243.702237 238.910964 235.226443"></polygon>
                <polygon id="Path-20-Copy-4" stroke="#000033" stroke-width="1.05966432" fill="#00E599" points="241.519927 212.36 241.519927 230.739785 252.515441 236.625963 252.515441 218.091406"></polygon>
                <g id="Polygon-Copy-14">
                    <use fill="black" fill-opacity="1" filter="url(#filter-12)" xlink:href="#path-11"></use>
                    <use fill="#F0F5F6" fill-rule="evenodd" xlink:href="#path-11"></use>
                </g>
                <polygon id="Path-20" stroke="#000033" stroke-width="1.58949648" fill="#FFFFFF" stroke-linejoin="round" points="111.94 241.189863 111.94 270.94237 138.015152 286.002131 138.015152 254.707953"></polygon>
                <polygon id="Path-20" stroke="#000033" stroke-width="1.58949648" fill="#FFFFFF" stroke-linejoin="round" transform="translate(150.934573, 263.595997) scale(-1, 1) translate(-150.934573, -263.595997) " points="137.896997 241.189863 137.896997 270.94237 163.972149 286.002131 163.972149 254.707953"></polygon>
                <polygon id="Path-21" stroke="#000033" stroke-width="1.58949648" fill="#FFFFFF" stroke-linejoin="round" points="163.972149 241.189863 137.896997 254.707953 111.94 241.189863 138.015152 227.062684"></polygon>
                <polygon id="Path-20" fill="#000033" points="129.002005 236.255366 144.458974 244.870912 146.443166 243.702237 131.010964 235.226443"></polygon>
                <polygon id="Path-20-Copy-4" stroke="#000033" stroke-width="1.05966432" fill="#00E599" points="133.619927 212.36 133.619927 230.739785 144.615441 236.625963 144.615441 218.091406"></polygon>
                <g id="Polygon-Copy-14">
                    <use fill="black" fill-opacity="1" filter="url(#filter-14)" xlink:href="#path-13"></use>
                    <use fill="#F0F5F6" fill-rule="evenodd" xlink:href="#path-13"></use>
                </g>
                <polygon id="Path-20" stroke="#000033" stroke-width="1.58949648" fill="#FFFFFF" stroke-linejoin="round" points="62.54 155.389863 62.54 185.14237 88.6151516 200.202131 88.6151516 168.907953"></polygon>
                <polygon id="Path-20" stroke="#000033" stroke-width="1.58949648" fill="#FFFFFF" stroke-linejoin="round" transform="translate(101.534573, 177.795997) scale(-1, 1) translate(-101.534573, -177.795997) " points="88.4969973 155.389863 88.4969973 185.14237 114.572149 200.202131 114.572149 168.907953"></polygon>
                <polygon id="Path-21" stroke="#000033" stroke-width="1.58949648" fill="#FFFFFF" stroke-linejoin="round" points="114.572149 155.389863 88.4969973 168.907953 62.54 155.389863 88.6151516 141.262684"></polygon>
                <polygon id="Path-20" fill="#000033" points="79.6020053 150.455366 95.0589735 159.070912 97.0431662 157.902237 81.6109637 149.426443"></polygon>
                <polygon id="Path-20-Copy-4" stroke="#000033" stroke-width="1.05966432" fill="#00E599" points="84.2199269 126.56 84.2199269 144.939785 95.2154414 150.825963 95.2154414 132.291406"></polygon>
                <path d="M81.65,188.7 L81.65,186.227956 C81.65,185.980663 81.5165689,185.702943 81.2497067,185.394796 C80.9828446,185.086648 80.8494135,184.932575 80.8494135,184.932575 L77.3039589,181.130067 C77.5835288,181.061341 77.8207397,180.921869 78.0155914,180.71165 C78.2104431,180.501431 78.3671717,180.256023 78.4857771,179.975426 C78.6043825,179.694829 78.6891007,179.401352 78.7399316,179.094995 C78.7907625,178.788639 78.8161779,178.507398 78.8161779,178.251274 L78.8161779,176.131622 C78.8161779,175.778347 78.7081623,175.362904 78.492131,174.885295 C78.2760997,174.407685 77.9965298,173.928834 77.6534213,173.448741 C77.3103128,172.968649 76.9206093,172.51473 76.4843109,172.086986 C76.0480124,171.659242 75.6053601,171.316159 75.1563539,171.057739 C74.7073477,170.799318 74.2625774,170.631654 73.822043,170.554747 C73.3815086,170.47784 72.9896872,170.48196 72.6465787,170.567108 C72.3034702,170.652256 72.0260182,170.81052 71.8142229,171.041899 C71.6024275,171.273277 71.4965298,171.565604 71.4965298,171.91888 L71.4965298,174.038531 C71.4965298,174.26816 71.5219453,174.5632 71.5727761,174.923651 C71.623607,175.284102 71.7104431,175.674107 71.8332845,176.093666 C71.9561258,176.513225 72.1149723,176.946883 72.309824,177.394639 C72.5046758,177.842396 72.7461225,178.268394 73.0341642,178.672634 L69.4632942,178.37942 C69.4632942,178.37942 69.3277452,178.383101 69.0566471,178.390463 C68.785549,178.397825 68.65,178.516321 68.65,178.74595 L68.65,181.217994 L81.65,188.7 Z" id="-copy" stroke="#000033" stroke-width="1.98679312" fill="#000033" fill-rule="nonzero"></path>
                <path d="M238.95,273.2 L238.95,270.727956 C238.95,270.480663 238.816569,270.202943 238.549707,269.894796 C238.282845,269.586648 238.149413,269.432575 238.149413,269.432575 L234.603959,265.630067 C234.883529,265.561341 235.12074,265.421869 235.315591,265.21165 C235.510443,265.001431 235.667172,264.756023 235.785777,264.475426 C235.904383,264.194829 235.989101,263.901352 236.039932,263.594995 C236.090762,263.288639 236.116178,263.007398 236.116178,262.751274 L236.116178,260.631622 C236.116178,260.278347 236.008162,259.862904 235.792131,259.385295 C235.5761,258.907685 235.29653,258.428834 234.953421,257.948741 C234.610313,257.468649 234.220609,257.01473 233.784311,256.586986 C233.348012,256.159242 232.90536,255.816159 232.456354,255.557739 C232.007348,255.299318 231.562577,255.131654 231.122043,255.054747 C230.681509,254.97784 230.289687,254.98196 229.946579,255.067108 C229.60347,255.152256 229.326018,255.31052 229.114223,255.541899 C228.902428,255.773277 228.79653,256.065604 228.79653,256.41888 L228.79653,258.538531 C228.79653,258.76816 228.821945,259.0632 228.872776,259.423651 C228.923607,259.784102 229.010443,260.174107 229.133284,260.593666 C229.256126,261.013225 229.414972,261.446883 229.609824,261.894639 C229.804676,262.342396 230.046123,262.768394 230.334164,263.172634 L226.763294,262.87942 C226.763294,262.87942 226.627745,262.883101 226.356647,262.890463 C226.085549,262.897825 225.95,263.016321 225.95,263.24595 L225.95,265.717994 L238.95,273.2 Z" id="" stroke="#000033" stroke-width="1.98679312" fill="#000033" fill-rule="nonzero"></path>
                <path d="M131.05,273.2 L131.05,270.727956 C131.05,270.480663 130.916569,270.202943 130.649707,269.894796 C130.382845,269.586648 130.249413,269.432575 130.249413,269.432575 L126.703959,265.630067 C126.983529,265.561341 127.22074,265.421869 127.415591,265.21165 C127.610443,265.001431 127.767172,264.756023 127.885777,264.475426 C128.004383,264.194829 128.089101,263.901352 128.139932,263.594995 C128.190762,263.288639 128.216178,263.007398 128.216178,262.751274 L128.216178,260.631622 C128.216178,260.278347 128.108162,259.862904 127.892131,259.385295 C127.6761,258.907685 127.39653,258.428834 127.053421,257.948741 C126.710313,257.468649 126.320609,257.01473 125.884311,256.586986 C125.448012,256.159242 125.00536,255.816159 124.556354,255.557739 C124.107348,255.299318 123.662577,255.131654 123.222043,255.054747 C122.781509,254.97784 122.389687,254.98196 122.046579,255.067108 C121.70347,255.152256 121.426018,255.31052 121.214223,255.541899 C121.002428,255.773277 120.89653,256.065604 120.89653,256.41888 L120.89653,258.538531 C120.89653,258.76816 120.921945,259.0632 120.972776,259.423651 C121.023607,259.784102 121.110443,260.174107 121.233284,260.593666 C121.356126,261.013225 121.514972,261.446883 121.709824,261.894639 C121.904676,262.342396 122.146123,262.768394 122.434164,263.172634 L118.863294,262.87942 C118.863294,262.87942 118.727745,262.883101 118.456647,262.890463 C118.185549,262.897825 118.05,263.016321 118.05,263.24595 L118.05,265.717994 L131.05,273.2 Z" id="-copy" stroke="#000033" stroke-width="1.98679312" fill="#000033" fill-rule="nonzero"></path>
                <path d="M240.25,97.7 L240.25,95.2279562 C240.25,94.9806635 240.116569,94.7029434 239.849707,94.3947959 C239.582845,94.0866484 239.449413,93.9325746 239.449413,93.9325746 L235.903959,90.130067 C236.183529,90.0613414 236.42074,89.9218691 236.615591,89.7116502 C236.810443,89.5014313 236.967172,89.2560231 237.085777,88.9754258 C237.204383,88.6948285 237.289101,88.4013517 237.339932,88.0949953 C237.390762,87.7886389 237.416178,87.5073985 237.416178,87.2512739 L237.416178,85.1316222 C237.416178,84.7783469 237.308162,84.3629044 237.092131,83.8852947 C236.8761,83.407685 236.59653,82.9288339 236.253421,82.4487413 C235.910313,81.9686488 235.520609,81.5147303 235.084311,81.0869859 C234.648012,80.6592415 234.20536,80.3161591 233.756354,80.0577385 C233.307348,79.799318 232.862577,79.6316542 232.422043,79.5547471 C231.981509,79.4778401 231.589687,79.4819605 231.246579,79.5671084 C230.90347,79.6522563 230.626018,79.8105197 230.414223,80.0418985 C230.202428,80.2732773 230.09653,80.5656043 230.09653,80.9188796 L230.09653,83.0385313 C230.09653,83.2681603 230.121945,83.5632001 230.172776,83.9236508 C230.223607,84.2841016 230.310443,84.6741066 230.433284,85.0936659 C230.556126,85.5132252 230.714972,85.946883 230.909824,86.3946393 C231.104676,86.8423956 231.346123,87.2683938 231.634164,87.6726338 L228.063294,87.3794195 C228.063294,87.3794195 227.927745,87.3831007 227.656647,87.390463 C227.385549,87.3978253 227.25,87.516321 227.25,87.7459499 L227.25,90.2179937 L240.25,97.7 Z" id="" stroke="#000033" stroke-width="1.98679312" fill="#000033" fill-rule="nonzero"></path>
                <path d="M132.35,97.7 L132.35,95.2279562 C132.35,94.9806635 132.216569,94.7029434 131.949707,94.3947959 C131.682845,94.0866484 131.549413,93.9325746 131.549413,93.9325746 L128.003959,90.130067 C128.283529,90.0613414 128.52074,89.9218691 128.715591,89.7116502 C128.910443,89.5014313 129.067172,89.2560231 129.185777,88.9754258 C129.304383,88.6948285 129.389101,88.4013517 129.439932,88.0949953 C129.490762,87.7886389 129.516178,87.5073985 129.516178,87.2512739 L129.516178,85.1316222 C129.516178,84.7783469 129.408162,84.3629044 129.192131,83.8852947 C128.9761,83.407685 128.69653,82.9288339 128.353421,82.4487413 C128.010313,81.9686488 127.620609,81.5147303 127.184311,81.0869859 C126.748012,80.6592415 126.30536,80.3161591 125.856354,80.0577385 C125.407348,79.799318 124.962577,79.6316542 124.522043,79.5547471 C124.081509,79.4778401 123.689687,79.4819605 123.346579,79.5671084 C123.00347,79.6522563 122.726018,79.8105197 122.514223,80.0418985 C122.302428,80.2732773 122.19653,80.5656043 122.19653,80.9188796 L122.19653,83.0385313 C122.19653,83.2681603 122.221945,83.5632001 122.272776,83.9236508 C122.323607,84.2841016 122.410443,84.6741066 122.533284,85.0936659 C122.656126,85.5132252 122.814972,85.946883 123.009824,86.3946393 C123.204676,86.8423956 123.446123,87.2683938 123.734164,87.6726338 L120.163294,87.3794195 C120.163294,87.3794195 120.027745,87.3831007 119.756647,87.390463 C119.485549,87.3978253 119.35,87.516321 119.35,87.7459499 L119.35,90.2179937 L132.35,97.7 Z" id="-copy" stroke="#000033" stroke-width="1.98679312" fill="#000033" fill-rule="nonzero"></path>
                <path d="M185.65,184.8 L185.65,182.327956 C185.65,182.080663 185.516569,181.802943 185.249707,181.494796 C184.982845,181.186648 184.849413,181.032575 184.849413,181.032575 L181.303959,177.230067 C181.583529,177.161341 181.82074,177.021869 182.015591,176.81165 C182.210443,176.601431 182.367172,176.356023 182.485777,176.075426 C182.604383,175.794829 182.689101,175.501352 182.739932,175.194995 C182.790762,174.888639 182.816178,174.607398 182.816178,174.351274 L182.816178,172.231622 C182.816178,171.878347 182.708162,171.462904 182.492131,170.985295 C182.2761,170.507685 181.99653,170.028834 181.653421,169.548741 C181.310313,169.068649 180.920609,168.61473 180.484311,168.186986 C180.048012,167.759242 179.60536,167.416159 179.156354,167.157739 C178.707348,166.899318 178.262577,166.731654 177.822043,166.654747 C177.381509,166.57784 176.989687,166.58196 176.646579,166.667108 C176.30347,166.752256 176.026018,166.91052 175.814223,167.141899 C175.602428,167.373277 175.49653,167.665604 175.49653,168.01888 L175.49653,170.138531 C175.49653,170.36816 175.521945,170.6632 175.572776,171.023651 C175.623607,171.384102 175.710443,171.774107 175.833284,172.193666 C175.956126,172.613225 176.114972,173.046883 176.309824,173.494639 C176.504676,173.942396 176.746123,174.368394 177.034164,174.772634 L173.463294,174.47942 C173.463294,174.47942 173.327745,174.483101 173.056647,174.490463 C172.785549,174.497825 172.65,174.616321 172.65,174.84595 L172.65,177.317994 L185.65,184.8 Z" id="" stroke="#000033" stroke-width="1.98679312" fill="#000033" fill-rule="nonzero"></path>
                <path d="M290.95,186.1 L290.95,183.627956 C290.95,183.380663 290.816569,183.102943 290.549707,182.794796 C290.282845,182.486648 290.149413,182.332575 290.149413,182.332575 L286.603959,178.530067 C286.883529,178.461341 287.12074,178.321869 287.315591,178.11165 C287.510443,177.901431 287.667172,177.656023 287.785777,177.375426 C287.904383,177.094829 287.989101,176.801352 288.039932,176.494995 C288.090762,176.188639 288.116178,175.907398 288.116178,175.651274 L288.116178,173.531622 C288.116178,173.178347 288.008162,172.762904 287.792131,172.285295 C287.5761,171.807685 287.29653,171.328834 286.953421,170.848741 C286.610313,170.368649 286.220609,169.91473 285.784311,169.486986 C285.348012,169.059242 284.90536,168.716159 284.456354,168.457739 C284.007348,168.199318 283.562577,168.031654 283.122043,167.954747 C282.681509,167.87784 282.289687,167.88196 281.946579,167.967108 C281.60347,168.052256 281.326018,168.21052 281.114223,168.441899 C280.902428,168.673277 280.79653,168.965604 280.79653,169.31888 L280.79653,171.438531 C280.79653,171.66816 280.821945,171.9632 280.872776,172.323651 C280.923607,172.684102 281.010443,173.074107 281.133284,173.493666 C281.256126,173.913225 281.414972,174.346883 281.609824,174.794639 C281.804676,175.242396 282.046123,175.668394 282.334164,176.072634 L278.763294,175.77942 C278.763294,175.77942 278.627745,175.783101 278.356647,175.790463 C278.085549,175.797825 277.95,175.916321 277.95,176.14595 L277.95,178.617994 L290.95,186.1 Z" id="" stroke="#000033" stroke-width="1.98679312" fill="#000033" fill-rule="nonzero"></path>
                <circle id="Oval" fill="#00E599" cx="21.5" cy="21.5" r="21.5"></circle>
                <text id="1" font-family="NunitoSans-ExtraBold, Nunito Sans" font-size="24" font-weight="600" letter-spacing="-0.195121951" fill="#000033">
                    <tspan x="14" y="30">1</tspan>
                </text>
            </g>
        </g>
    </g>
</svg>