<?xml version="1.0" encoding="UTF-8"?>
<svg width="29px" height="29px" viewBox="0 0 29 29" version="1.1" xmlns="http://www.w3.org/2000/svg" xmlns:xlink="http://www.w3.org/1999/xlink">
    <title>编组</title>
    <defs>
        <linearGradient x1="100%" y1="50%" x2="0%" y2="100%" id="linearGradient-1">
            <stop stop-color="#00E599" offset="0%"></stop>
            <stop stop-color="#00AF92" offset="100%"></stop>
        </linearGradient>
        <circle id="path-2" cx="14.448" cy="14.448" r="14.448"></circle>
    </defs>
    <g id="Page-1" stroke="none" stroke-width="1" fill="none" fill-rule="evenodd">
        <g id="0.1.2-Discover-NEO---Neo-People---Communities" transform="translate(-866.000000, -1163.000000)">
            <g id="Content" transform="translate(266.500000, 710.500000)">
                <g id="COZ" transform="translate(359.000000, 271.500000)">
                    <g id="编组" transform="translate(240.500000, 181.000000)">
                        <g id="Oval">
                            <use fill="url(#linearGradient-1)" xlink:href="#path-2"></use>
                            <use fill="#000033" xlink:href="#path-2"></use>
                        </g>
                        <path d="M14.456,20.904096 C15.630656,20.904096 16.717728,20.610432 17.717216,20.023104 C18.685792,19.466688 19.448288,18.704192 20.004704,17.735616 C20.592032,16.736128 20.885696,15.649056 20.885696,14.4744 C20.885696,13.299744 20.592032,12.212672 20.004704,11.213184 C19.448288,10.244608 18.685792,9.482112 17.717216,8.925696 C16.717728,8.338368 15.630656,8.044704 14.456,8.044704 C13.291648,8.044704 12.209728,8.338368 11.21024,8.925696 C10.241664,9.492416 9.474016,10.260064 8.907296,11.22864 C8.319968,12.228128 8.026304,13.310048 8.026304,14.4744 C8.026304,15.638752 8.319968,16.720672 8.907296,17.72016 C9.463712,18.688736 10.226208,19.456384 11.194784,20.023104 C12.194272,20.610432 13.281344,20.904096 14.456,20.904096 Z M18.258176,17.952 C18.16544,17.684096 18.005728,17.465136 17.77904,17.29512 C17.552352,17.125104 17.299904,17.040096 17.021696,17.040096 L17.021696,17.040096 L16.388,17.040096 L16.388,15.108096 C16.388,14.932928 16.326176,14.78352 16.202528,14.659872 C16.07888,14.536224 15.929472,14.4744 15.754304,14.4744 L15.754304,14.4744 L11.890304,14.4744 L11.890304,13.176096 L13.157696,13.176096 C13.343168,13.176096 13.500304,13.114272 13.629104,12.990624 C13.757904,12.866976 13.822304,12.717568 13.822304,12.5424 L13.822304,12.5424 L13.822304,11.244096 L15.089696,11.244096 C15.440032,11.244096 15.744,11.120448 16.0016,10.873152 C16.2592,10.625856 16.388,10.32704 16.388,9.976704 L16.388,9.976704 L16.388,9.698496 C17.016544,9.945792 17.575536,10.309008 18.064976,10.788144 C18.554416,11.26728 18.935664,11.826272 19.20872,12.46512 C19.481776,13.103968 19.618304,13.773728 19.618304,14.4744 C19.618304,15.133856 19.499808,15.7624 19.262816,16.360032 C19.025824,16.957664 18.690944,17.48832 18.258176,17.952 Z M13.822304,19.57488 C12.98768,19.47184 12.225184,19.180752 11.534816,18.701616 C10.844448,18.22248 10.303488,17.622272 9.911936,16.900992 C9.499776,16.138496 9.293696,15.329632 9.293696,14.4744 C9.293696,14.103456 9.345216,13.722208 9.448256,13.330656 L9.448256,13.330656 L12.524,16.4064 L12.524,17.040096 C12.524,17.390432 12.6528,17.6944 12.9104,17.952 C13.168,18.2096 13.471968,18.3384 13.822304,18.3384 L13.822304,18.3384 L13.822304,19.57488 Z" id="" fill="#FFFFFF" fill-rule="nonzero"></path>
                    </g>
                </g>
            </g>
        </g>
    </g>
</svg>