<?xml version="1.0" encoding="UTF-8"?>
<svg width="63px" height="72px" viewBox="0 0 63 72" version="1.1" xmlns="http://www.w3.org/2000/svg" xmlns:xlink="http://www.w3.org/1999/xlink">
    <!-- Generator: Sketch 63.1 (92452) - https://sketch.com -->
    <title>扁平化的团队结构</title>
    <desc>Created with Sketch.</desc>
    <defs>
        <polygon id="path-1" points="0.6072975 0.01125 5.0622975 0.01125 5.0622975 4.46594625 0.6072975 4.46594625"></polygon>
        <polygon id="path-3" points="0 70.9875 62.1675 70.9875 62.1675 0.01125 0 0.01125"></polygon>
    </defs>
    <g id="Career" stroke="none" stroke-width="1" fill="none" fill-rule="evenodd">
        <g id="DT_Deverloper-Cn" transform="translate(-685.000000, -1997.000000)">
            <g id="provide" transform="translate(0.000000, 1580.000000)">
                <g id="扁平化的团队结构" transform="translate(674.000000, 410.500000)">
                    <g id="challenge" opacity="0" fill="#D8D8D8">
                        <rect id="矩形" x="0" y="0" width="86" height="86"></rect>
                    </g>
                    <g id="编组" transform="translate(11.500000, 7.000000)">
                        <polygon id="Fill-1" fill="#D9DBDC" points="2.32875 54.3835125 60.1425 54.3835125 60.1425 50.23125 2.32875 50.23125"></polygon>
                        <polygon id="Fill-2" fill="#D9DBDC" points="2.2275 21.121875 60.04125 21.121875 60.04125 16.970625 2.2275 16.970625"></polygon>
                        <polygon id="Fill-3" fill="#D9DBDC" points="1.1929275 17.3840287 29.8649025 0.82864125 31.9405275 4.42402875 3.2685525 20.9794162"></polygon>
                        <polygon id="Fill-4" fill="#D9DBDC" points="44.9548988 18.0336488 41.4111488 20.0586488 29.4636488 3.45466125 33.1086488 1.32739875"></polygon>
                        <polygon id="Fill-5" fill="#D9DBDC" points="17.0097975 17.9328038 20.5535475 20.0590538 33.0072975 3.35280375 29.4635475 1.32780375"></polygon>
                        <polygon id="Fill-6" fill="#D9DBDC" points="44.9548988 53.2684462 41.4111488 51.2434462 29.4636488 67.8484462 33.1086488 69.8734462"></polygon>
                        <polygon id="Fill-7" fill="#D9DBDC" points="17.0097975 53.3703037 20.5535475 51.2430412 33.0072975 67.8490537 29.4635475 69.9742912"></polygon>
                        <polygon id="Fill-8" fill="#D9DBDC" points="30.1253175 4.18588875 32.2009425 0.59050125 60.8729175 17.1458887 58.7972925 20.7402637"></polygon>
                        <polygon id="Fill-9" fill="#D9DBDC" points="1.3468275 54.2315363 30.0188025 70.7859113 32.0944275 67.1915363 3.42144 50.6371613"></polygon>
                        <polygon id="Fill-10" fill="#D9DBDC" points="30.3537375 67.16673 32.4293625 70.761105 61.1013375 54.20673 59.0257125 50.612355"></polygon>
                        <g transform="translate(0.000000, 0.101250)">
                            <g transform="translate(28.350000, 0.000000)">
                                <mask id="mask-2" fill="white">
                                    <use xlink:href="#path-1"></use>
                                </mask>
                                <g id="Clip-12"></g>
                                <path d="M2.8347975,0.01094625 C4.064985,0.01094625 5.0622975,1.00825875 5.0622975,2.23844625 C5.0622975,3.46863375 4.064985,4.46594625 2.8347975,4.46594625 C1.60461,4.46594625 0.6072975,3.46863375 0.6072975,2.23844625 C0.6072975,1.00825875 1.60461,0.01094625 2.8347975,0.01094625" id="Fill-11" fill="#02E49B" mask="url(#mask-2)"></path>
                            </g>
                            <path d="M31.1847975,66.5323987 C32.414985,66.5323987 33.4122975,67.5297112 33.4122975,68.7598987 C33.4122975,69.9900862 32.414985,70.9873987 31.1847975,70.9873987 C29.95461,70.9873987 28.9572975,69.9900862 28.9572975,68.7598987 C28.9572975,67.5297112 29.95461,66.5323987 31.1847975,66.5323987" id="Fill-13" fill="#02E49B"></path>
                            <mask id="mask-4" fill="white">
                                <use xlink:href="#path-3"></use>
                            </mask>
                            <g id="Clip-16"></g>
                            <polygon id="Fill-15" fill="#D9DBDC" mask="url(#mask-4)" points="0.2025 52.05375 4.35375 52.05375 4.35375 18.945 0.2025 18.945"></polygon>
                            <polygon id="Fill-17" fill="#D9DBDC" mask="url(#mask-4)" points="16.70625 52.05375 20.8575 52.05375 20.8575 18.945 16.70625 18.945"></polygon>
                            <polygon id="Fill-18" fill="#D9DBDC" mask="url(#mask-4)" points="41.1075 52.05375 45.25875 52.05375 45.25875 18.945 41.1075 18.945"></polygon>
                            <polygon id="Fill-19" fill="#D9DBDC" mask="url(#mask-4)" points="58.01625 52.3575 62.1675 52.3575 62.1675 18.945 58.01625 18.945"></polygon>
                            <path d="M2.2277025,16.7171963 C3.45789,16.7171963 4.4552025,17.7145088 4.4552025,18.9446963 C4.4552025,20.1748838 3.45789,21.1721963 2.2277025,21.1721963 C0.997515,21.1721963 0.0002025,20.1748838 0.0002025,18.9446963 C0.0002025,17.7145088 0.997515,16.7171963 2.2277025,16.7171963" id="Fill-20" fill="#02E49B" mask="url(#mask-4)"></path>
                            <path d="M60.0410475,50.3323987 C61.15986,50.3323987 62.0660475,51.2395987 62.0660475,52.3573987 C62.0660475,53.4751987 61.15986,54.3823987 60.0410475,54.3823987 C58.9232475,54.3823987 58.0160475,53.4751987 58.0160475,52.3573987 C58.0160475,51.2395987 58.9232475,50.3323987 60.0410475,50.3323987" id="Fill-21" fill="#02E49B" mask="url(#mask-4)"></path>
                            <path d="M2.3285475,50.0288512 C3.558735,50.0288512 4.5560475,51.0261637 4.5560475,52.2563512 C4.5560475,53.4865387 3.558735,54.4838512 2.3285475,54.4838512 C1.09836,54.4838512 0.1010475,53.4865387 0.1010475,52.2563512 C0.1010475,51.0261637 1.09836,50.0288512 2.3285475,50.0288512" id="Fill-22" fill="#02E49B" mask="url(#mask-4)"></path>
                            <path d="M60.0410475,16.9198987 C61.15986,16.9198987 62.0660475,17.8270987 62.0660475,18.9448987 C62.0660475,20.0626987 61.15986,20.9698987 60.0410475,20.9698987 C58.9232475,20.9698987 58.0160475,20.0626987 58.0160475,18.9448987 C58.0160475,17.8270987 58.9232475,16.9198987 60.0410475,16.9198987" id="Fill-23" fill="#02E49B" mask="url(#mask-4)"></path>
                            <path d="M37.9049625,14.5953 L28.0432125,20.368575 C27.5693625,20.6328375 27.2777625,21.134025 27.2837444,21.6757125 L27.2837444,33.012675 C27.303075,33.5482875 27.5875875,34.0383375 28.0432125,34.3188 L37.9049625,39.9675375 C38.3666625,40.266225 38.961,40.266225 39.4227,39.9675375 L49.241925,34.3188 C49.69755,34.0383375 49.9820625,33.5482875 50.0004138,33.012675 L50.0004138,21.6331875 C50.007375,21.0915 49.715775,20.5903125 49.241925,20.3270625 L39.4227,14.5953 C38.94885,14.34015 38.3788125,14.34015 37.9049625,14.5953" id="Fill-24" fill="#02E49B" mask="url(#mask-4)"></path>
                            <path d="M23.930235,25.2315112 L15.311835,30.2767987 C14.898735,30.5066362 14.643585,30.9450487 14.6495539,31.4178862 L14.6495539,41.3262112 C14.66586,41.7919612 14.914935,42.2212612 15.311835,42.4662862 L23.930235,47.4012112 C24.33321,47.6644612 24.853635,47.6644612 25.25661,47.4012112 L33.8375475,42.4662862 C34.2344475,42.2212612 34.4835225,41.7919612 34.4998286,41.3262112 L34.4998286,31.3814362 C34.5057975,30.9075862 34.2506475,30.4701862 33.8375475,30.2393362 L25.25661,25.2315112 C24.841485,25.0087612 24.3443475,25.0087612 23.930235,25.2315112" id="Fill-25" fill="#2B393F" mask="url(#mask-4)"></path>
                            <path d="M34.8467063,44.4679987 L31.4933063,46.4312362 C31.3323188,46.5203362 31.2341063,46.6914487 31.2361005,46.8757237 L31.2361005,50.7303112 C31.2422063,50.9115487 31.3383938,51.0786112 31.4933063,51.1747987 L34.8467063,53.0955112 C35.0036438,53.1967612 35.2051313,53.1967612 35.3620688,53.0955112 L38.7012938,51.1747987 C38.8551938,51.0786112 38.9523938,50.9115487 38.959489,50.7303112 L38.959489,46.8615487 C38.9604938,46.6772737 38.8622813,46.5071737 38.7012938,46.4170612 L35.3620688,44.4679987 C35.2010813,44.3819362 35.0076938,44.3819362 34.8467063,44.4679987" id="Fill-26" fill="#2B393F" mask="url(#mask-4)"></path>
                        </g>
                    </g>
                </g>
            </g>
        </g>
    </g>
</svg>