<?xml version="1.0" encoding="UTF-8"?>
<svg width="82px" height="63px" viewBox="0 0 82 63" version="1.1" xmlns="http://www.w3.org/2000/svg" xmlns:xlink="http://www.w3.org/1999/xlink">
    <!-- Generator: Sketch 63.1 (92452) - https://sketch.com -->
    <title>多元的工作文化</title>
    <desc>Created with Sketch.</desc>
    <defs>
        <linearGradient x1="55.6365676%" y1="54.2011406%" x2="108.581043%" y2="83.1694709%" id="linearGradient-1">
            <stop stop-color="#02E49B" stop-opacity="0" offset="0%"></stop>
            <stop stop-color="#02E49B" offset="100%"></stop>
        </linearGradient>
        <linearGradient x1="44.6582985%" y1="54.1218038%" x2="-8.0334728%" y2="82.7447699%" id="linearGradient-2">
            <stop stop-color="#02E49B" stop-opacity="0" offset="0%"></stop>
            <stop stop-color="#02E49B" offset="100%"></stop>
        </linearGradient>
        <linearGradient x1="79.5365279%" y1="25.0200475%" x2="25.6873527%" y2="49.5139164%" id="linearGradient-3">
            <stop stop-color="#02E49B" offset="0%"></stop>
            <stop stop-color="#02E49B" stop-opacity="0" offset="100%"></stop>
        </linearGradient>
        <linearGradient x1="20.43222%" y1="25.000413%" x2="74.302554%" y2="49.5135344%" id="linearGradient-4">
            <stop stop-color="#02E49B" offset="0%"></stop>
            <stop stop-color="#02E49B" stop-opacity="0" offset="100%"></stop>
        </linearGradient>
    </defs>
    <g id="Career" stroke="none" stroke-width="1" fill="none" fill-rule="evenodd">
        <g id="DT_Deverloper-Cn" transform="translate(-977.000000, -2002.000000)">
            <g id="provide" transform="translate(0.000000, 1580.000000)">
                <g id="多元的工作文化" transform="translate(975.000000, 410.500000)">
                    <g id="challenge" opacity="0" fill="#D8D8D8">
                        <rect id="矩形" x="0" y="0" width="86" height="86"></rect>
                    </g>
                    <g id="资源-2career" transform="translate(2.000000, 12.000000)" fill-rule="nonzero">
                        <path d="M40.6955946,0.303914469 L15.8035524,14.4721176 C15.1053573,14.9135467 14.6716229,15.6725819 14.645783,16.498214 L14.645783,45.1530068 C14.6612035,45.9815454 15.0975634,46.7451751 15.8035524,47.1791032 L40.5219291,61.3762505 C41.2847024,61.8098494 42.2194159,61.8098494 42.9821891,61.3762505 L67.8742313,47.1935753 C68.5724264,46.7521462 69.0061608,45.9931109 69.0320007,45.1674789 L69.0320007,16.6574073 C69.0165802,15.8288686 68.5802203,15.065239 67.8742313,14.6313108 L43.1558545,0.448635644 C42.4423082,-0.0975930687 41.4682605,-0.154889997 40.6955946,0.303914469 L40.6955946,0.303914469 Z" id="路径" fill="#2B393F"></path>
                        <polygon id="路径" fill="url(#linearGradient-1)" opacity="0.38" points="80.7544159 46.1081665 44.4872894 9.34898794 29.1468448 32.8082905 76.1812268 54.2993851"></polygon>
                        <polygon id="路径" fill="url(#linearGradient-2)" opacity="0.38" points="0.188137528 46.0358059 36.7302343 9.73973511 52.070679 33.2135098 5.03629691 54.7046043"></polygon>
                        <polygon id="路径" fill="url(#linearGradient-3)" opacity="0.38" points="79.8860889 12.185523 80.7544159 5.49940467 43.9084047 7.5833896 53.9086379 27.7430493"></polygon>
                        <polygon id="路径" fill="url(#linearGradient-4)" opacity="0.38" points="1.04199246 12.185523 0.188137528 5.49940467 37.0196767 7.5833896 27.0339156 27.7430493"></polygon>
                        <path d="M76.5140855,54.5598832 L80.638639,52.1864559 C80.9932028,52.0067659 81.2168957,51.6432649 81.2175237,51.2457683 L81.2175237,46.4699695 C81.1996691,46.1741114 80.9756275,45.9319041 80.6820554,45.8910848 C80.5823395,45.8996539 80.4846301,45.9240813 80.392613,45.9634453 L76.2970037,48.3368726 C75.9375866,48.5112448 75.7118127,48.8781275 75.718119,49.2775603 L75.718119,54.0533591 C75.7220894,54.3444509 75.9366543,54.5896681 76.2246431,54.6322438 C76.3246229,54.6252971 76.422599,54.600803 76.5140855,54.5598832 Z" id="路径" fill="#02E49B"></path>
                        <path d="M4.64554973,54.5598832 L0.535468349,52.0996232 C0.221367419,51.9126238 0.0206974464,51.5817895 3.21345562e-16,51.216824 L3.21345562e-16,46.4699695 C0.0231656031,46.1764069 0.244598092,45.9370205 0.535468349,45.8910848 C0.63518417,45.8996539 0.732893598,45.9240813 0.8249107,45.9634453 L4.96393632,48.3368726 C5.28336121,48.5460361 5.4826369,48.896115 5.49940467,49.2775603 L5.49940467,54.0533591 C5.48155011,54.3492172 5.25750842,54.5914244 4.96393632,54.6322438 C4.85489213,54.6234801 4.74767014,54.5991115 4.64554973,54.5598832 L4.64554973,54.5598832 Z" id="路径" fill="#02E49B"></path>
                        <path d="M76.5140855,14.1247867 L80.638639,11.7513595 C80.9933022,11.5792337 81.2182181,11.2193682 81.2175237,10.8251439 L81.2175237,6.04934514 C81.2341602,5.75075935 81.0091514,5.49360644 80.7109996,5.47046043 L80.7109996,5.47046043 C80.6097749,5.46818238 80.5098011,5.49317582 80.4215572,5.54282102 L76.2970037,7.9162483 C75.9423406,8.08837404 75.7174246,8.44823957 75.7181174,8.84246382 L75.7181174,13.6182626 C75.7219085,13.7679705 75.7850391,13.9100353 75.893612,14.0131795 C76.0021849,14.1163238 76.1472984,14.1720909 76.2970037,14.1682031 C76.3721561,14.1889433 76.4526911,14.1728363 76.5140855,14.1247867 L76.5140855,14.1247867 Z" id="路径" fill="#02E49B"></path>
                        <path d="M4.64554973,14.1247867 L0.535468349,11.7513595 C0.204503618,11.5602772 0.000443666022,11.2073087 1.95806912e-16,10.8251439 L1.95806912e-16,6.04934514 C-0.0166364975,5.75075935 0.208372293,5.49360644 0.506524114,5.47046043 L0.506524114,5.47046043 C0.607236867,5.47237198 0.706202722,5.49711344 0.795966465,5.54282102 L4.96393632,7.9162483 C5.29490105,8.10733053 5.498961,8.4602991 5.49940467,8.84246382 L5.49940467,13.6182626 C5.50342562,13.77299 5.44372829,13.9225794 5.33428254,14.0320252 C5.22483679,14.1414709 5.07524739,14.2011683 4.92051997,14.1971473 C4.82302845,14.2084139 4.72486711,14.1825819 4.64554973,14.1247867 L4.64554973,14.1247867 Z" id="路径" fill="#02E49B"></path>
                        <path d="M31.636049,27.0339156 L31.636049,27.0339156 C31.82185,27.0477343 31.9695611,27.1954454 31.9833798,27.3812464 L31.9833798,27.3812464 C31.9765708,27.5726745 31.8270399,27.7284359 31.636049,27.7430493 L31.636049,27.7430493 C31.445058,27.7284359 31.2955272,27.5726745 31.2887181,27.3812464 L31.2887181,27.3812464 C31.2018854,27.207581 31.3755509,27.0339156 31.636049,27.0339156 Z" id="路径" fill="#D9DBDC"></path>
                        <path d="M31.636049,32.5188481 L31.636049,32.5188481 C31.82185,32.5326668 31.9695611,32.6803779 31.9833798,32.866179 L31.9833798,32.866179 C31.9695611,33.05198 31.82185,33.1996911 31.636049,33.2135098 L31.636049,33.2135098 C31.450248,33.1996911 31.3025368,33.05198 31.2887181,32.866179 L31.2887181,32.866179 C31.2018854,32.6925136 31.3755509,32.5188481 31.636049,32.5188481 Z" id="路径" fill="#D9DBDC"></path>
                        <path d="M41.6362822,15.4706937 L42.591442,15.4706937 C42.709054,15.4619446 42.824642,15.504869 42.9080361,15.5882631 C42.9914301,15.6716571 43.0343545,15.7872452 43.0256055,15.9048572 L43.0256055,16.8600169 C43.0343545,16.977629 42.9914301,17.093217 42.9080361,17.176611 C42.824642,17.2600051 42.709054,17.3029295 42.591442,17.2941805 L41.6362822,17.2941805 C41.5186702,17.3029295 41.4030821,17.2600051 41.3196881,17.176611 C41.2362941,17.093217 41.1933696,16.977629 41.2021187,16.8600169 L41.2021187,15.9193293 C41.2889514,15.6443591 41.4626168,15.4706937 41.6362822,15.4706937 Z" id="路径" fill="#02E49B"></path>
                        <path d="M46.5278579,34.6173052 L48.2355678,34.6173052 C48.4440544,34.6087506 48.6464204,34.688844 48.7925814,34.8377628 C48.9387425,34.9866816 49.0150397,35.1905092 49.00259,35.3987995 L49.00259,37.0920373 C49.0198304,37.301553 48.9451026,37.5082092 48.7978476,37.6582426 C48.6505926,37.808276 48.4453691,37.8868532 48.2355678,37.8735316 L46.5278579,37.8735316 C46.3180566,37.8868532 46.1128331,37.808276 45.9655781,37.6582426 C45.8183231,37.5082092 45.7435953,37.301553 45.7608357,37.0920373 L45.7608357,35.3987995 C45.9055569,34.9356918 46.2239435,34.6173052 46.5278579,34.6173052 Z" id="路径" fill="#02E49B"></path>
                        <path d="M56.2531209,20.1741319 L57.121448,20.1741319 C57.3287132,20.1741319 57.5274893,20.2564676 57.6740479,20.4030263 C57.8206066,20.5495849 57.9029423,20.748361 57.9029423,20.9556262 L57.9029423,21.8239533 C57.9029423,22.2555607 57.5530554,22.6054476 57.121448,22.6054476 L56.2531209,22.6054476 C55.8215135,22.6054476 55.4716266,22.2555607 55.4716266,21.8239533 L55.4716266,20.9556262 C55.4716266,20.5240188 55.8215135,20.1741319 56.2531209,20.1741319 L56.2531209,20.1741319 Z" id="路径" fill="#D9DBDC"></path>
                        <path d="M51.216824,14.8628575 L52.0996232,14.8628575 C52.5312306,14.8628575 52.8811175,15.2127517 52.8811175,15.6443591 L52.8811175,16.5126861 C52.9015303,16.7321749 52.8282974,16.9500767 52.6794683,17.1126863 C52.5306392,17.2752959 52.3200571,17.3674882 52.0996232,17.3665411 L51.2312961,17.3665411 C51.0215349,17.3704262 50.8190205,17.2898088 50.6693168,17.1428269 C50.5196131,16.9958451 50.4352937,16.7948439 50.4353297,16.5850467 L50.4353297,15.7167197 C50.4149169,15.4972309 50.4881498,15.2793291 50.6369789,15.1167195 C50.785808,14.9541099 50.9963901,14.8619176 51.216824,14.8628575 L51.216824,14.8628575 Z" id="路径" fill="#D9DBDC"></path>
                        <path d="M36.1802939,31.1150527 L36.7881228,31.1150527 C37.0918466,31.1150527 37.3380633,31.3612695 37.3380633,31.6649932 L37.3380633,32.2728221 C37.3380633,32.5765459 37.0918466,32.8227626 36.7881228,32.8227626 L36.1802939,32.8227626 C35.8765701,32.8227626 35.6303534,32.5765459 35.6303534,32.2728221 L35.6303534,31.6649932 C35.6303534,31.3612695 35.8765701,31.1150527 36.1802939,31.1150527 L36.1802939,31.1150527 Z" id="路径" fill="#D9DBDC"></path>
                        <path d="M36.1802939,10.1304823 L37.1354536,10.1304823 C37.2530657,10.1217332 37.3686537,10.1646577 37.4520477,10.2480517 C37.5354418,10.3314458 37.5783662,10.4470338 37.5696172,10.5646458 L37.5696172,11.5198056 C37.5783662,11.6374176 37.5354418,11.7530056 37.4520477,11.8363997 C37.3686537,11.9197937 37.2530657,11.9627181 37.1354536,11.9539691 L36.1802939,11.9539691 C36.0614997,11.9622629 35.9447748,11.9197011 35.8592013,11.836888 C35.7736277,11.7540749 35.7272627,11.6388078 35.7316582,11.5198056 L35.7316582,10.5067573 C35.8040188,10.2462592 35.9776842,10.1304823 36.1802939,10.1304823 Z" id="路径" fill="#02E49B"></path>
                        <path d="M46.7738839,15.7311918 L47.2080475,15.7311918 C47.3256595,15.7224427 47.4412475,15.7653672 47.5246416,15.8487612 C47.6080356,15.9321553 47.65096,16.0477433 47.642211,16.1653553 L47.642211,16.5995188 C47.65096,16.7171309 47.6080356,16.8327189 47.5246416,16.9161129 C47.4412475,16.999507 47.3256595,17.0424314 47.2080475,17.0336824 L46.7738839,17.0336824 C46.6562719,17.0424314 46.5406839,16.999507 46.4572898,16.9161129 C46.3738958,16.8327189 46.3309714,16.7171309 46.3397204,16.5995188 L46.3397204,16.1653553 C46.3309714,16.0477433 46.3738958,15.9321553 46.4572898,15.8487612 C46.5406839,15.7653672 46.6562719,15.7224427 46.7738839,15.7311918 L46.7738839,15.7311918 Z" id="路径" fill="#02E49B"></path>
                        <path d="M41.9691409,10.3330919 L42.4033044,10.3330919 C42.5209165,10.3243429 42.6365045,10.3672673 42.7198985,10.4506614 C42.8032926,10.5340554 42.846217,10.6496434 42.837468,10.7672555 L42.837468,11.201419 C42.846217,11.319031 42.8032926,11.434619 42.7198985,11.5180131 C42.6365045,11.6014071 42.5209165,11.6443315 42.4033044,11.6355825 L41.9691409,11.6355825 C41.8515289,11.6443315 41.7359409,11.6014071 41.6525468,11.5180131 C41.5691528,11.434619 41.5262283,11.319031 41.5349774,11.201419 L41.5349774,10.7672555 C41.5494495,10.5067573 41.7231149,10.3330919 41.9691409,10.3330919 Z" id="路径" fill="#02E49B"></path>
                        <path d="M31.3755509,15.7311918 L31.8386586,15.7311918 C31.9562706,15.7224427 32.0718587,15.7653672 32.1552527,15.8487612 C32.2386468,15.9321553 32.2815712,16.0477433 32.2728221,16.1653553 L32.2728221,16.5995188 C32.2815712,16.7171309 32.2386468,16.8327189 32.1552527,16.9161129 C32.0718587,16.999507 31.9562706,17.0424314 31.8386586,17.0336824 L31.4044951,17.0336824 C31.2868831,17.0424314 31.171295,16.999507 31.087901,16.9161129 C31.0045069,16.8327189 30.9615825,16.7171309 30.9703316,16.5995188 L30.9703316,16.1653553 C31.02822,15.9193293 31.2018854,15.7311918 31.3755509,15.7311918 Z" id="路径" fill="#02E49B"></path>
                        <path d="M56.513619,15.7311918 L56.9477826,15.7311918 C57.0653946,15.7224427 57.1809826,15.7653672 57.2643767,15.8487612 C57.3477707,15.9321553 57.3906951,16.0477433 57.3819461,16.1653553 L57.3819461,16.5995188 C57.3906951,16.7171309 57.3477707,16.8327189 57.2643767,16.9161129 C57.1809826,16.999507 57.0653946,17.0424314 56.9477826,17.0336824 L56.513619,17.0336824 C56.396007,17.0424314 56.280419,16.999507 56.1970249,16.9161129 C56.1136309,16.8327189 56.0707065,16.7171309 56.0794555,16.5995188 L56.0794555,16.1653553 C56.0707065,16.0477433 56.1136309,15.9321553 56.1970249,15.8487612 C56.280419,15.7653672 56.396007,15.7224427 56.513619,15.7311918 L56.513619,15.7311918 Z" id="路径" fill="#02E49B"></path>
                        <path d="M31.636049,21.0424589 L31.636049,21.0424589 C31.82185,21.0562776 31.9695611,21.2039887 31.9833798,21.3897897 L31.9833798,21.3897897 C31.9695611,21.5755908 31.82185,21.7233019 31.636049,21.7371206 L31.636049,21.7371206 C31.450248,21.7233019 31.3025368,21.5755908 31.2887181,21.3897897 L31.2887181,21.3897897 C31.2018854,21.2161243 31.3755509,21.0424589 31.636049,21.0424589 Z" id="路径" fill="#02E49B"></path>
                        <rect id="矩形" fill="#02E49B" x="25.7169529" y="37.6564499" width="1" height="1"></rect>
                        <rect id="矩形" fill="#02E49B" x="40.9850369" y="32.9095953" width="1" height="1"></rect>
                        <path d="M51.6509875,21.0424589 L51.6509875,21.0424589 C51.8367886,21.0562776 51.9844997,21.2039887 51.9983184,21.3897897 L51.9983184,21.3897897 C51.9844997,21.5755908 51.8367886,21.7233019 51.6509875,21.7371206 L51.6509875,21.7371206 C51.4651865,21.7233019 51.3174754,21.5755908 51.3036567,21.3897897 L51.3036567,21.3897897 C51.3174754,21.2039887 51.4651865,21.0562776 51.6509875,21.0424589 L51.6509875,21.0424589 Z" id="路径" fill="#02E49B"></path>
                        <path d="M47.2080475,31.1150527 L47.2080475,31.1150527 C47.3938485,31.1288714 47.5415596,31.2765825 47.5553783,31.4623836 L47.5553783,31.4623836 C47.5415596,31.6481846 47.3938485,31.7958957 47.2080475,31.8097144 L47.2080475,31.8097144 C47.0222464,31.7958957 46.8745353,31.6481846 46.8607166,31.4623836 L46.8607166,31.4623836 C46.8745353,31.2765825 47.0222464,31.1288714 47.2080475,31.1150527 L47.2080475,31.1150527 Z" id="路径" fill="#02E49B"></path>
                        <path d="M51.6509875,42.8808843 L51.6509875,42.8808843 C51.8367886,42.894703 51.9844997,43.0424141 51.9983184,43.2282151 L51.9983184,43.2282151 C51.9844997,43.4140161 51.8367886,43.5617273 51.6509875,43.575546 L51.6509875,43.575546 C51.4651865,43.5617273 51.3174754,43.4140161 51.3036567,43.2282151 L51.3036567,43.2282151 C51.3174754,43.0424141 51.4651865,42.894703 51.6509875,42.8808843 L51.6509875,42.8808843 Z" id="路径" fill="#D9DBDC"></path>
                        <path d="M42.1572784,21.0424589 L42.1572784,21.0424589 C42.3430795,21.0562776 42.4907906,21.2039887 42.5046093,21.3897897 L42.5046093,21.3897897 C42.4907906,21.5755908 42.3430795,21.7233019 42.1572784,21.7371206 L42.1572784,21.7371206 C41.9714774,21.7233019 41.8237663,21.5755908 41.8099476,21.3897897 L41.8099476,21.3897897 C41.7231149,21.2161243 41.9691409,21.0424589 42.1572784,21.0424589 Z" id="路径" fill="#D9DBDC"></path>
                        <path d="M42.1572784,27.2944137 L42.1572784,27.2944137 C42.3453899,27.315 42.491715,27.4674219 42.5046093,27.6562166 L42.5046093,27.6562166 C42.4907906,27.8420177 42.3430795,27.9897288 42.1572784,28.0035475 L42.1572784,28.0035475 C41.9714774,27.9897288 41.8237663,27.8420177 41.8099476,27.6562166 L41.8099476,27.6562166 C41.7231149,27.4970233 41.9691409,27.2944137 42.1572784,27.2944137 Z" id="路径" fill="#D9DBDC"></path>
                        <path d="M47.034382,21.0424589 L47.034382,21.0424589 C47.2201831,21.0562776 47.3678942,21.2039887 47.3817129,21.3897897 L47.3817129,21.3897897 C47.3678942,21.5755908 47.2201831,21.7233019 47.034382,21.7371206 L47.034382,21.7371206 C46.848581,21.7233019 46.7008699,21.5755908 46.6870512,21.3897897 L46.6870512,21.3897897 C46.6002185,21.2161243 46.7738839,21.0424589 47.034382,21.0424589 Z" id="路径" fill="#D9DBDC"></path>
                        <path d="M51.6509875,27.0339156 L51.6509875,27.0339156 C51.8367886,27.0477343 51.9844997,27.1954454 51.9983184,27.3812464 L51.9983184,27.3812464 C51.9915093,27.5726745 51.8419785,27.7284359 51.6509875,27.7430493 L51.6509875,27.7430493 C51.4599966,27.7284359 51.3104657,27.5726745 51.3036567,27.3812464 L51.3036567,27.3812464 C51.3174754,27.1954454 51.4651865,27.0477343 51.6509875,27.0339156 Z" id="路径" fill="#D9DBDC"></path>
                        <path d="M36.5131526,21.2161243 L36.8604834,21.2161243 C36.9473161,21.2161243 36.9473161,21.2161243 36.9473161,21.302957 L36.9473161,21.5634552 C36.9473161,21.6502879 36.9473161,21.6502879 36.8604834,21.6502879 L36.5999853,21.6502879 C36.5131526,21.6502879 36.5131526,21.6502879 36.5131526,21.5634552 L36.5131526,21.2161243 Z" id="路径" fill="#D9DBDC"></path>
                        <path d="M46.5712743,26.9904992 L46.9186051,26.9904992 C47.0054378,26.9904992 47.0054378,26.9904992 47.0054378,27.0773319 L47.0054378,27.3378301 C47.0054378,27.4246628 47.0054378,27.4246628 46.9186051,27.4246628 L46.658107,27.4246628 C46.5712743,27.4246628 46.5712743,27.4246628 46.5712743,27.3378301 L46.5712743,26.9904992 Z" id="路径" fill="#D9DBDC"></path>
                        <path d="M36.5131526,16.1653553 L36.8604834,16.1653553 C36.9473161,16.1653553 36.9473161,16.1653553 36.9473161,16.252188 L36.9473161,16.5126861 C36.9473161,16.5995188 36.9473161,16.5995188 36.8604834,16.5995188 L36.5999853,16.5995188 C36.5131526,16.5995188 36.5131526,16.5995188 36.5131526,16.5126861 L36.5131526,16.1653553 Z" id="路径" fill="#D9DBDC"></path>
                        <path d="M25.8037856,16.1653553 L26.0498116,16.1653553 C26.1366443,16.1653553 26.1366443,16.1653553 26.1366443,16.252188 L26.1366443,16.5126861 C26.1366443,16.5995188 26.1366443,16.5995188 26.0498116,16.5995188 L25.7893135,16.5995188 C25.7024808,16.5995188 25.7024808,16.5995188 25.7024808,16.5126861 L25.7893135,16.1653553 L25.8037856,16.1653553 Z" id="路径" fill="#D9DBDC"></path>
                        <path d="M25.8037856,21.2161243 L26.0498116,21.2161243 C26.1366443,21.2161243 26.1366443,21.2161243 26.1366443,21.302957 L26.1366443,21.5634552 C26.1366443,21.6502879 26.1366443,21.6502879 26.0498116,21.6502879 L25.7893135,21.6502879 C25.7024808,21.6502879 25.7024808,21.6502879 25.7024808,21.5634552 L25.7893135,21.2161243 L25.8037856,21.2161243 Z" id="路径" fill="#D9DBDC"></path>
                        <path d="M20.5793512,32.6925136 L20.8398493,32.6925136 C20.926682,32.6925136 20.926682,32.6925136 20.926682,32.7793463 L20.926682,33.0398444 C20.926682,33.1266771 20.926682,33.1266771 20.8398493,33.1266771 L20.5793512,33.1266771 C20.4925185,33.1266771 20.4925185,33.1266771 20.4925185,33.0398444 L20.5793512,32.6925136 Z" id="路径" fill="#D9DBDC"></path>
                        <path d="M25.7169529,26.7734175 L26.1511164,26.7734175 C26.2687284,26.7646684 26.3843165,26.8075929 26.4677105,26.8909869 C26.5511046,26.9743809 26.594029,27.089969 26.5852799,27.207581 L26.5852799,27.6562166 C26.594029,27.7738287 26.5511046,27.8894167 26.4677105,27.9728107 C26.3843165,28.0562048 26.2687284,28.0991292 26.1511164,28.0903802 L25.7169529,28.0903802 C25.5993409,28.0991292 25.4837528,28.0562048 25.4003588,27.9728107 C25.3169647,27.8894167 25.2740403,27.7738287 25.2827894,27.6562166 L25.2827894,27.207581 C25.2740403,27.089969 25.3169647,26.9743809 25.4003588,26.8909869 C25.4837528,26.8075929 25.5993409,26.7646684 25.7169529,26.7734175 Z" id="路径" fill="#02E49B"></path>
                        <path d="M41.9691409,42.6203862 L42.4033044,42.6203862 C42.5209165,42.6116372 42.6365045,42.6545616 42.7198985,42.7379556 C42.8032926,42.8213497 42.846217,42.9369377 42.837468,43.0545497 L42.837468,43.4887132 C42.846217,43.6063253 42.8032926,43.7219133 42.7198985,43.8053073 C42.6365045,43.8887014 42.5209165,43.9316258 42.4033044,43.9228768 L41.9691409,43.9228768 C41.8515289,43.9316258 41.7359409,43.8887014 41.6525468,43.8053073 C41.5691528,43.7219133 41.5262283,43.6063253 41.5349774,43.4887132 L41.5349774,43.0545497 C41.5494495,42.7940516 41.7231149,42.6203862 41.9691409,42.6203862 Z" id="路径" fill="#D9DBDC"></path>
                        <path d="M36.4263199,37.2222863 L36.8604834,37.2222863 C36.9780954,37.2135373 37.0936835,37.2564617 37.1770775,37.3398558 C37.2604715,37.4232498 37.303396,37.5388378 37.2946469,37.6564499 L37.2946469,38.0906134 C37.303396,38.2082254 37.2604715,38.3238135 37.1770775,38.4072075 C37.0936835,38.4906015 36.9780954,38.533526 36.8604834,38.5247769 L36.4263199,38.5247769 C36.3075257,38.5330707 36.1908008,38.4905089 36.1052272,38.4076958 C36.0196537,38.3248827 35.9732887,38.2096156 35.9776842,38.0906134 L35.9776842,37.6275056 C36.0645169,37.3959518 36.2526545,37.2222863 36.4263199,37.2222863 Z" id="路径" fill="#D9DBDC"></path>
                        <path d="M20.4925185,26.7734175 L20.926682,26.7734175 C21.044294,26.7646684 21.159882,26.8075929 21.2432761,26.8909869 C21.3266701,26.9743809 21.3695945,27.089969 21.3608455,27.207581 L21.3608455,27.6562166 C21.3695945,27.7738287 21.3266701,27.8894167 21.2432761,27.9728107 C21.159882,28.0562048 21.044294,28.0991292 20.926682,28.0903802 L20.4925185,28.0903802 C20.3749064,28.0991292 20.2593184,28.0562048 20.1759244,27.9728107 C20.0925303,27.8894167 20.0496059,27.7738287 20.0583549,27.6562166 L20.0583549,27.207581 C20.0725538,26.973933 20.2588704,26.7876164 20.4925185,26.7734175 Z" id="路径" fill="#02E49B"></path>
                        <path d="M25.4564548,31.8386586 L26.4116145,31.8386586 C26.5292266,31.8299096 26.6448146,31.872834 26.7282086,31.956228 C26.8116027,32.0396221 26.8545271,32.1552101 26.8457781,32.2728221 L26.8457781,33.2858704 C26.8545271,33.4034824 26.8116027,33.5190704 26.7282086,33.6024645 C26.6448146,33.6858585 26.5292266,33.7287829 26.4116145,33.7200339 L25.4564548,33.7200339 C25.3388428,33.7287829 25.2232547,33.6858585 25.1398607,33.6024645 C25.0564666,33.5190704 25.0135422,33.4034824 25.0222912,33.2858704 L25.0222912,32.3307106 C24.9938643,32.2039811 25.0279061,32.071305 25.1138366,31.9739172 C25.199767,31.8765293 25.327172,31.8262324 25.4564548,31.8386586 L25.4564548,31.8386586 Z" id="路径" fill="#D9DBDC"></path>
                        <path d="M31.636049,37.4827845 L31.636049,37.4827845 C31.82185,37.4966032 31.9695611,37.6443143 31.9833798,37.8301153 L31.9833798,37.8301153 C31.9695611,38.0159163 31.82185,38.1636274 31.636049,38.1774461 L31.636049,38.1774461 C31.450248,38.1636274 31.3025368,38.0159163 31.2887181,37.8301153 L31.2887181,37.8301153 C31.2018854,37.6275056 31.3755509,37.4827845 31.636049,37.4827845 Z" id="路径" fill="#D9DBDC"></path>
                        <path d="M31.636049,42.8808843 L31.636049,42.8808843 C31.82185,42.894703 31.9695611,43.0424141 31.9833798,43.2282151 L31.9833798,43.2282151 C31.9695611,43.4140161 31.82185,43.5617273 31.636049,43.575546 L31.636049,43.575546 C31.450248,43.5617273 31.3025368,43.4140161 31.2887181,43.2282151 L31.2887181,43.2282151 C31.2018854,43.0545497 31.3755509,42.8808843 31.636049,42.8808843 Z" id="路径" fill="#02E49B"></path>
                        <path d="M25.4564548,42.3598881 L26.4116145,42.3598881 C26.5292266,42.351139 26.6448146,42.3940635 26.7282086,42.4774575 C26.8116027,42.5608516 26.8545271,42.6764396 26.8457781,42.7940516 L26.8457781,43.7492114 C26.8545271,43.8668234 26.8116027,43.9824114 26.7282086,44.0658055 C26.6448146,44.1491995 26.5292266,44.1921239 26.4116145,44.1833749 L25.4564548,44.1833749 C25.3388428,44.1921239 25.2232547,44.1491995 25.1398607,44.0658055 C25.0564666,43.9824114 25.0135422,43.8668234 25.0222912,43.7492114 L25.0222912,42.7940516 C25.0135422,42.6764396 25.0564666,42.5608516 25.1398607,42.4774575 C25.2232547,42.3940635 25.3388428,42.351139 25.4564548,42.3598881 Z" id="路径" fill="#02E49B"></path>
                        <rect id="矩形" fill="#D9DBDC" x="56.513619" y="37.6564499" width="1" height="1"></rect>
                        <rect id="矩形" fill="#D9DBDC" x="51.7812366" y="32.5188481" width="1" height="1"></rect>
                        <rect id="矩形" fill="#D9DBDC" x="51.4773221" y="37.6564499" width="1" height="1"></rect>
                        <rect id="矩形" fill="#D9DBDC" x="41.8967803" y="37.6564499" width="1" height="1"></rect>
                        <path d="M56.513619,26.7734175 L56.9477826,26.7734175 C57.0653946,26.7646684 57.1809826,26.8075929 57.2643767,26.8909869 C57.3477707,26.9743809 57.3906951,27.089969 57.3819461,27.207581 L57.3819461,27.6562166 C57.3906951,27.7738287 57.3477707,27.8894167 57.2643767,27.9728107 C57.1809826,28.0562048 57.0653946,28.0991292 56.9477826,28.0903802 L56.513619,28.0903802 C56.396007,28.0991292 56.280419,28.0562048 56.1970249,27.9728107 C56.1136309,27.8894167 56.0707065,27.7738287 56.0794555,27.6562166 L56.0794555,27.207581 C56.0707065,27.089969 56.1136309,26.9743809 56.1970249,26.8909869 C56.280419,26.8075929 56.396007,26.7646684 56.513619,26.7734175 Z" id="路径" fill="#D9DBDC"></path>
                        <path d="M56.2531209,31.8386586 L57.2082807,31.8386586 C57.3258927,31.8299096 57.4414807,31.872834 57.5248748,31.956228 C57.6082688,32.0396221 57.6511932,32.1552101 57.6424442,32.2728221 L57.6424442,33.2858704 C57.6511932,33.4034824 57.6082688,33.5190704 57.5248748,33.6024645 C57.4414807,33.6858585 57.3258927,33.7287829 57.2082807,33.7200339 L56.2531209,33.7200339 C56.1355089,33.7287829 56.0199209,33.6858585 55.9365268,33.6024645 C55.8531328,33.5190704 55.8102084,33.4034824 55.8189574,33.2858704 L55.8189574,32.3307106 C55.7905305,32.2039811 55.8245722,32.071305 55.9105027,31.9739172 C55.9964332,31.8765293 56.1238381,31.8262324 56.2531209,31.8386586 L56.2531209,31.8386586 Z" id="路径" fill="#02E49B"></path>
                        <path d="M56.2531209,42.3598881 L57.2082807,42.3598881 C57.3258927,42.351139 57.4414807,42.3940635 57.5248748,42.4774575 C57.6082688,42.5608516 57.6511932,42.6764396 57.6424442,42.7940516 L57.6424442,43.7492114 C57.6511932,43.8668234 57.6082688,43.9824114 57.5248748,44.0658055 C57.4414807,44.1491995 57.3258927,44.1921239 57.2082807,44.1833749 L56.2531209,44.1833749 C56.1355089,44.1921239 56.0199209,44.1491995 55.9365268,44.0658055 C55.8531328,43.9824114 55.8102084,43.8668234 55.8189574,43.7492114 L55.8189574,42.7940516 C55.8102084,42.6764396 55.8531328,42.5608516 55.9365268,42.4774575 C56.0199209,42.3940635 56.1355089,42.351139 56.2531209,42.3598881 Z" id="路径" fill="#D9DBDC"></path>
                        <path d="M36.1802939,42.3598881 L37.1354536,42.3598881 C37.2530657,42.351139 37.3686537,42.3940635 37.4520477,42.4774575 C37.5354418,42.5608516 37.5783662,42.6764396 37.5696172,42.7940516 L37.5696172,43.7492114 C37.5783662,43.8668234 37.5354418,43.9824114 37.4520477,44.0658055 C37.3686537,44.1491995 37.2530657,44.1921239 37.1354536,44.1833749 L36.1802939,44.1833749 C36.0614997,44.1916687 35.9447748,44.1491069 35.8592013,44.0662938 C35.7736277,43.9834806 35.7272627,43.8682136 35.7316582,43.7492114 L35.7316582,42.7940516 C35.8040188,42.5335535 35.9776842,42.3598881 36.1802939,42.3598881 Z" id="路径" fill="#D9DBDC"></path>
                        <path d="M46.5133858,42.3598881 L47.4685456,42.3598881 C47.5861576,42.351139 47.7017456,42.3940635 47.7851397,42.4774575 C47.8685337,42.5608516 47.9114581,42.6764396 47.9027091,42.7940516 L47.9027091,43.7492114 C47.9114581,43.8668234 47.8685337,43.9824114 47.7851397,44.0658055 C47.7017456,44.1491995 47.5861576,44.1921239 47.4685456,44.1833749 L46.5133858,44.1833749 C46.3957738,44.1921239 46.2801858,44.1491995 46.1967917,44.0658055 C46.1133977,43.9824114 46.0704732,43.8668234 46.0792223,43.7492114 L46.0792223,42.7940516 C46.0934212,42.5604036 46.2797378,42.374087 46.5133858,42.3598881 L46.5133858,42.3598881 Z" id="路径" fill="#D9DBDC"></path>
                        <path d="M36.686818,48.0040139 L36.686818,48.0040139 C36.872619,48.0178326 37.0203301,48.1655437 37.0341488,48.3513447 L37.0341488,48.3513447 C37.0203301,48.5371458 36.872619,48.6848569 36.686818,48.6986756 L36.686818,48.6986756 C36.501017,48.6848569 36.3533059,48.5371458 36.3394872,48.3513447 L36.3394872,48.3513447 C36.3533059,48.1655437 36.501017,48.0178326 36.686818,48.0040139 Z" id="路径" fill="#D9DBDC"></path>
                        <path d="M42.1572784,48.0040139 L42.1572784,48.0040139 C42.3430795,48.0178326 42.4907906,48.1655437 42.5046093,48.3513447 L42.5046093,48.3513447 C42.4907906,48.5371458 42.3430795,48.6848569 42.1572784,48.6986756 L42.1572784,48.6986756 C41.9714774,48.6848569 41.8237663,48.5371458 41.8099476,48.3513447 L41.8099476,48.3513447 C41.7231149,48.1776793 41.9691409,48.0040139 42.1572784,48.0040139 Z" id="路径" fill="#02E49B"></path>
                        <path d="M31.4623836,48.3513447 L31.7228817,48.3513447 C31.8097144,48.3513447 31.8097144,48.3513447 31.8097144,48.4381774 L31.8097144,48.6986756 C31.8097144,48.7855083 31.8097144,48.7855083 31.7228817,48.7855083 L31.4623836,48.7855083 C31.3755509,48.7855083 31.3755509,48.7855083 31.3755509,48.6986756 L31.4623836,48.3513447 Z" id="路径" fill="#D9DBDC"></path>
                        <path d="M41.9691409,53.6626119 L42.229639,53.6626119 C42.3164717,53.6626119 42.3164717,53.6626119 42.3164717,53.7494446 L42.3164717,54.0099427 C42.3164717,54.0967754 42.3164717,54.0967754 42.229639,54.0967754 L41.9691409,54.0967754 C41.8823082,54.0967754 41.8823082,54.0967754 41.8823082,54.0099427 L41.9691409,53.6626119 Z" id="路径" fill="#D9DBDC"></path>
                        <path d="M46.7738839,47.7579879 L47.2080475,47.7579879 C47.3256595,47.7492389 47.4412475,47.7921633 47.5246416,47.8755574 C47.6080356,47.9589514 47.65096,48.0745394 47.642211,48.1921515 L47.642211,48.626315 C47.65096,48.743927 47.6080356,48.859515 47.5246416,48.9429091 C47.4412475,49.0263031 47.3256595,49.0692275 47.2080475,49.0604785 L46.7738839,49.0604785 C46.6562719,49.0692275 46.5406839,49.0263031 46.4572898,48.9429091 C46.3738958,48.859515 46.3309714,48.743927 46.3397204,48.626315 L46.3397204,48.1921515 C46.3309714,48.0745394 46.3738958,47.9589514 46.4572898,47.8755574 C46.5406839,47.7921633 46.6562719,47.7492389 46.7738839,47.7579879 Z" id="路径" fill="#D9DBDC"></path>
                        <path d="M51.4773221,47.7579879 L51.9114857,47.7579879 C52.0290977,47.7492389 52.1446857,47.7921633 52.2280798,47.8755574 C52.3114738,47.9589514 52.3543982,48.0745394 52.3456492,48.1921515 L52.3456492,48.626315 C52.3543982,48.743927 52.3114738,48.859515 52.2280798,48.9429091 C52.1446857,49.0263031 52.0290977,49.0692275 51.9114857,49.0604785 L51.4773221,49.0604785 C51.3597101,49.0692275 51.2441221,49.0263031 51.160728,48.9429091 C51.077334,48.859515 51.0344096,48.743927 51.0431586,48.626315 L51.0431586,48.1921515 C51.0344096,48.0745394 51.077334,47.9589514 51.160728,47.8755574 C51.2441221,47.7921633 51.3597101,47.7492389 51.4773221,47.7579879 Z" id="路径" fill="#D9DBDC"></path>
                        <path d="M61.7380535,27.207581 L61.9985516,27.207581 C62.0853843,27.207581 62.0853843,27.207581 62.0853843,27.2944137 L62.0853843,27.5693839 C62.0853843,27.6562166 62.0853843,27.6562166 61.9985516,27.6562166 L61.7380535,27.6562166 C61.6512208,27.6562166 61.6512208,27.6562166 61.6512208,27.5693839 L61.7380535,27.207581 Z" id="路径" fill="#D9DBDC"></path>
                        <path d="M46.8607166,10.7672555 L47.1212148,10.7672555 C47.2080475,10.7672555 47.2080475,10.7672555 47.2080475,10.8540882 L47.2080475,11.1145863 C47.2080475,11.201419 47.2080475,11.201419 47.1212148,11.201419 L46.8607166,11.201419 C46.7738839,11.201419 46.7738839,11.201419 46.7738839,11.1145863 L46.8607166,10.7672555 L46.8607166,10.7672555 Z" id="路径" fill="#D9DBDC"></path>
                        <path d="M61.9117189,32.3451827 L61.9117189,32.3451827 C62.0975199,32.3590014 62.245231,32.5067125 62.2590497,32.6925136 L62.2590497,32.6925136 C62.245231,32.8783146 62.0975199,33.0260257 61.9117189,33.0398444 L61.9117189,33.0398444 C61.7259179,33.0260257 61.5782068,32.8783146 61.5643881,32.6925136 L61.5643881,32.6925136 C61.4775554,32.5188481 61.6512208,32.3451827 61.9117189,32.3451827 Z" id="路径" fill="#02E49B"></path>
                        <path d="M35.8040188,25.731425 L35.8040188,25.731425 C35.9911738,25.7291988 36.151512,25.8648696 36.1802939,26.0498116 L36.1802939,26.0498116 C36.1664752,26.2356126 36.0187641,26.3833237 35.8329631,26.3971424 L35.8329631,26.3971424 C35.63595,26.3977261 35.4718421,26.2462418 35.456688,26.0498116 L35.456688,26.0498116 C35.3698553,25.9050904 35.5435207,25.731425 35.8040188,25.731425 Z" id="路径" fill="#02E49B"></path>
                        <path d="M61.9117189,37.3959518 L61.9117189,37.3959518 C62.0975199,37.4097705 62.245231,37.5574816 62.2590497,37.7432826 L62.2590497,37.7432826 C62.245231,37.9290836 62.0975199,38.0767947 61.9117189,38.0906134 L61.9117189,38.0906134 C61.7259179,38.0767947 61.5782068,37.9290836 61.5643881,37.7432826 L61.5643881,37.7432826 C61.4775554,37.6275056 61.6512208,37.3959518 61.9117189,37.3959518 Z" id="路径" fill="#D9DBDC"></path>
                    </g>
                </g>
            </g>
        </g>
    </g>
</svg>