<svg xmlns="http://www.w3.org/2000/svg" xmlns:xlink="http://www.w3.org/1999/xlink" viewBox="0 0 7149.52 3033.75"><defs><style>.cls-1{fill:#acabae;}.cls-2{fill:#ecedec;}.cls-3{fill:#6f8339;}.cls-4{fill:#c0cadd;}.cls-5{fill:#cad6e2;}.cls-6{fill:#b2d2d7;}.cls-7{fill:#d9c4a4;}.cls-8{fill:#b9c9e3;}.cls-9{fill:#b8c9e4;}.cls-10{fill:#080a30;}.cls-11{fill:#070a30;}.cls-12{fill:#e4d1b3;}.cls-13{fill:#161711;}.cls-14{fill:#55772d;}.cls-15{fill:#b1bdc4;}.cls-16{fill:#8296a1;}.cls-17{fill:#dfe9ee;}.cls-18{fill:#b1d2d7;}.cls-19{fill:url(#未命名的渐变_112);}.cls-20{fill:url(#未命名的渐变_2);}.cls-21{fill:url(#未命名的渐变_112-2);}.cls-22{fill:#63b481;}.cls-23{fill:none;stroke:#fff;stroke-miterlimit:10;stroke-width:4.83px;}</style><linearGradient id="未命名的渐变_112" x1="2039.07" y1="1525.76" x2="2322.63" y2="1366.06" gradientUnits="userSpaceOnUse"><stop offset="0" stop-color="#bae700"/><stop offset="0.23" stop-color="#58bb00"/><stop offset="0.42" stop-color="#58bb00"/><stop offset="0.61" stop-color="#29b400"/><stop offset="0.78" stop-color="#00aa1d"/><stop offset="0.99" stop-color="#00a22c"/></linearGradient><linearGradient id="未命名的渐变_2" x1="2023.53" y1="1498.18" x2="2307.09" y2="1338.47" xlink:href="#未命名的渐变_112"/><linearGradient id="未命名的渐变_112-2" x1="2005.88" y1="1466.83" x2="2289.44" y2="1307.12" xlink:href="#未命名的渐变_112"/></defs><title>资源 4</title><g id="图层_2" data-name="图层 2"><g id="dizajn"><path class="cls-1" d="M6980.65,852c0,51.54-108.07,93.33-241.43,93.33H241.4C108.08,945.37,0,903.58,0,852v-700c0-51.55,108.08-93.34,241.4-93.34H6739.22c133.36,0,241.43,41.79,241.43,93.34Z"/><polygon class="cls-1" points="2601.46 1307.97 2216.07 922.55 2601.46 537.14 2986.89 922.55 2601.46 1307.97"/><path class="cls-2" d="M6980.65,714.57c0,52.62-108.07,95.28-241.43,95.28H241.4C108.08,809.85,0,767.19,0,714.57V0H6980.65Z"/><polygon class="cls-2" points="2601.46 1182.25 2216.07 796.83 2601.46 411.42 2986.89 796.83 2601.46 1182.25"/><path class="cls-3" d="M2019.35,1944.46s528.87,1.11,733,4.21c141.26,2.14,154.13-199.26,98.41-229.55-169.14-92-696.84-139.34-696.84-139.34l-359,329.64S1815.09,1908.9,2019.35,1944.46Z"/><path class="cls-4" d="M2518,865.29s135.94-38,195.15,139.52c90.81,272.49,82.8,522.36,70.14,575.65-5.82,24.51-23.29,109.2-175.21,112.44-61.58,1.31-37-130.7-37-130.7s-39.5-112.12-81.58-301.84S2518,865.29,2518,865.29Z"/><path class="cls-5" d="M2625.59,880.58,2276.85,767.82,2012.91,750.1l-289.24,87.51s-94.62,65.22-6.75,274.87,54,538.16,54,538.16l746.11,23.88s14.12-303.65,63.57-607.36C2591.67,999.32,2593.05,919.53,2625.59,880.58Z"/><path class="cls-6" d="M2113.74,1659.87h38c39.77-293.23,37.88-595.78-5.89-887.92q-17.14,10.24-34.38,20.47C2121.1,1091.25,2104.7,1390,2113.74,1659.87Z"/><path class="cls-7" d="M2262,850c-5.15,40.36-38.1,75.32-72.72,77h-98.56c-34.66-1.65-67.62-36.61-72.73-77l-24.21-199.46c-5.39-39.84,18.29-119.93,70.73-143.59a188.48,188.48,0,0,1,150.92,0c52.46,23.63,76.2,103.75,70.78,143.59Q2274.07,750.26,2262,850Z"/><polygon class="cls-8" points="2136.05 931.91 2073.47 1034.55 1958.77 891.1 1976.83 815.69 2014.03 785.11 2014.53 841.92 2136.05 931.91"/><polygon class="cls-9" points="2143.65 931.91 2206.23 1034.55 2312.94 900.92 2295.43 819.04 2268.69 784.53 2257.84 851.57 2143.65 931.91"/><path class="cls-10" d="M2125.06,380.38a78.78,78.78,0,0,0-66,35.67H2032a61.11,61.11,0,0,0-61.15,61.11v151h43V566.77a43,43,0,0,1,43-43h11.61a78.87,78.87,0,0,0,78.89-78.85V380.38Z"/><path class="cls-7" d="M2048.85,684.37a37.41,37.41,0,0,1-37.43,37.43h-3.1a37.43,37.43,0,0,1-37.43-37.43V639a37.41,37.41,0,0,1,37.43-37.4h3.1a37.48,37.48,0,0,1,34.26,22.26"/><path class="cls-11" d="M2091.56,440.39v-60h129.53a78.85,78.85,0,0,1,78.85,78.9v59.94H2170.42A78.87,78.87,0,0,1,2091.56,440.39Z"/><path class="cls-12" d="M2288.86,741.76c-.15,31.33-24.11,84.45-63.83,101.26-54,22.27-117.87,22.19-171.82,0-39.79-16.78-63.62-69.86-63.83-101.23v-267c-.22-31.58,31.25-58.09,70.14-58.84h159.2c38.83.72,70.37,27.22,70.14,58.84Z"/><path class="cls-11" d="M2169.77,380.38a78.78,78.78,0,0,1,66,35.67h27.07a61.11,61.11,0,0,1,61.11,61.11v151h-43V566.77a43.05,43.05,0,0,0-43-43h-55a78.87,78.87,0,0,1-78.86-78.85V380.38Z"/><path class="cls-12" d="M2246.55,638.91A37.39,37.39,0,0,1,2284,601.55h3.11a37.4,37.4,0,0,1,37.42,37.36v45.46a37.48,37.48,0,0,1-37.42,37.43H2284a37.51,37.51,0,0,1-34.27-22.33"/><path class="cls-11" d="M2104.07,455.85a79.09,79.09,0,0,0,1.56-15.46v-60h-55.86a78.87,78.87,0,0,0-78.88,78.9v59.94h55.9a77.83,77.83,0,0,0,16.17-1.7A78.93,78.93,0,0,1,2104.07,455.85Z"/><path class="cls-13" d="M1411.66,2955.69c-8.14,9.85-2.2,35.81-2.2,35.81s142.36,15.85,188.16,5.1c11.91-2.83,32-13,51-23.93,3.21-1.82,8.83-12.75,11.91-14.58,5.75-3.42,8.74,2.27,13.64-.79,12.66-8,21.59-14.23,21.74-15,12.51-65.27-4.13-91.61-4.13-91.61s-121.24-40.29-144-12.2C1494.35,2904.57,1429.46,2934.07,1411.66,2955.69Z"/><path class="cls-13" d="M2742.18,2884.62l9.87,107.56,107.66,10.51s7.47-14.34,16.55-13.47c7.68.79,16.14,16.72,26.57,17.71,22.65,2.24,47.74,4.66,57.82,5.66,20.18,2,216,21.16,216,21.16s7.08-21.75,1.88-29.95c-2.69-4.24-20-12.86-31.7-17.4-54.09-21.07-208.49-85.45-231-141.28C2888.6,2777.18,2742.18,2884.62,2742.18,2884.62Z"/><path class="cls-12" d="M2579.36,1523.18l-364,148.7s258.24,36.84,419.68,3.92C2744.18,1653.53,2584.37,1518.47,2579.36,1523.18Z"/><path class="cls-3" d="M1753.07,1749.69s-35,332.4-30,508.11c3.75,132.56,4.17,386.61-27.41,603.14-1.92,13.23-171.28,3.26-171.28,3.26s-60.74-824.06-78.77-959.78S1480,1670.77,1753.07,1749.69Z"/><path class="cls-14" d="M2818,1829.8s-54.58,86.17-204.23,106.56C2559.73,1943.74,2701,2901,2701,2901l221.13-70.76-42.73-1058.68Z"/><path class="cls-14" d="M2208,1936.36s-289.09,41.22-482.06,61.49c-70.74,7.42-132-190.63-140.19-199.22-51.67-54.11-102.63-47.28-100.84-49.22,41.8-45.18,258.27-87.1,484.52-140.17s260.69-19.65,260.69-19.65Z"/><path class="cls-3" d="M1969.45,1609.24c-226.25,53.07-442.72,95-484.52,140.17-1.79,1.94,49.17-4.89,100.84,49.22,2.25,2.35,15.25,65.81,24.56,88.55-36.87-66.41,494.82-253.84,609.69-302.37C2198.57,1578,2136,1570.2,1969.45,1609.24Z"/><polygon class="cls-14" points="1721.01 1933.89 1698.93 2580.76 1676.77 2730.75 1674.31 2580.76 1679.21 2487.24 1627.57 2342.18 1600.52 2005.23 1639.87 2019.99 1634.95 1872.44 1721.01 1933.89"/><path class="cls-3" d="M2810.57,1749.41l54.09,14.8,19.7,777.19-113.15,277.9,54.08-189.36-22.09-391.06s-78.73,189.35-78.73,179.54,66.42-410.74,66.42-410.74-73.79,61.52-66.42,59S2768.75,1786.33,2810.57,1749.41Z"/><path class="cls-4" d="M1883.48,840.78s-116.22-91.06-229.84,77.93c-166.62,247.65-239,511-265.43,587.24-20.29,58.45-9.12,223.76,59,291.9,16.41,16.37,114.78,3.23,114.78,3.23l64.58-44.66-27-52-1.45-41s82.56-199.22,184-387.55S1883.48,840.78,1883.48,840.78Z"/><path class="cls-12" d="M1599.41,1597.88l377.32,19.67s-363.43,166.72-375.4,138C1533.2,1592.69,1599.41,1597.88,1599.41,1597.88Z"/><path class="cls-12" d="M1807,1586.26c22-10.59,20.09-10.79,20.09-10.79s20.13,24,49.3,28.43c14.5,2.25,61.29,2.83,61.29,2.83l69.5,1.73,32.23-1.87s18.17-2.38,23,.72c14,9,2,16.27,2,16.27l-124.53,17.66,119.65,14.81s15,4.45,15.75,12.59c.65,7.6-4.36,7.33-4.36,7.33l-139,14.85,60.94,14.55s14.58,4.69,15.68,12.59c1.24,8.65,1.79,11,1.79,11l-127.83-12.51S1785,1596.91,1807,1586.26Z"/><path class="cls-12" d="M1945,1663.26l83.64,15.26s19.06,1.35,27.54,7.48c9.75,7,4,15.59,4,15.59L1932,1690.82Z"/><path class="cls-15" d="M2469.5,1729.05c.12-.27.3-.52.4-.75l-.4-23.82H1726.21v23.82a1.06,1.06,0,0,0,0,.75l2.54,4.42c12.67,20.64,35.36,24.32,61.37,24.32h615.46c26,0,48.71-3.68,61.39-24.32Z"/><rect class="cls-16" x="1851.95" y="1710.03" width="492.18" height="16.79"/><path class="cls-17" d="M2469.05,1707.07l2-487.33a23.09,23.09,0,0,0-23.17-23.23H1752.12a23.32,23.32,0,0,0-23.34,23.23l-2,487.33Z"/><polygon class="cls-6" points="1550.48 1786.33 1524.58 1620.94 1567.52 1576.74 1662.81 1591.94 1643.35 1775.03 1550.48 1786.33"/><polygon class="cls-18" points="2707.2 1667.63 2717.1 1606.76 2596.59 1498.61 2531.41 1528.02 2616.66 1691.21 2707.2 1667.63"/><polygon class="cls-19" points="2155.09 1417.79 2155.09 1513.3 2104.85 1489.61 2104.85 1435.83 2155.09 1417.79"/><polygon class="cls-20" points="2032.91 1515.06 2081.95 1538.19 2081.95 1443.12 2032.91 1419.98 2032.91 1515.06"/><polygon class="cls-21" points="2153.08 1415.95 2153.89 1415.66 2154.33 1415.5 2105.97 1392.68 2105.52 1392.84 2104.25 1393.3 2103.64 1393.52 2034.85 1418.22 2083.21 1441.04 2103.64 1433.7 2104.85 1433.27 2153.08 1415.95"/><path class="cls-22" d="M7149.52,614c0,34.88-32.54,63.43-72.36,63.43H4691.66c-39.79,0-72.42-28.55-72.42-63.43V514.93l-99.43-99L4619.24,301V217.74c0-34.87,32.63-63.43,72.42-63.43h2385.5c39.82,0,72.36,28.56,72.36,63.43Z"/><line class="cls-23" x1="6936.1" y1="412.31" x2="6188.88" y2="412.31"/><line class="cls-23" x1="6099.19" y1="412.31" x2="5195.17" y2="412.31"/><line class="cls-23" x1="5095.48" y1="412.31" x2="4888.77" y2="412.31"/></g></g></svg>