<svg xmlns="http://www.w3.org/2000/svg" xmlns:xlink="http://www.w3.org/1999/xlink" viewBox="0 0 8191 2120.26"><defs><style>.cls-2{fill:#e4d1b3}.cls-3{fill:#6f8339}.cls-4{fill:#c0cadd}.cls-6{fill:#b2d2d7}.cls-7{fill:#d9c4a4}.cls-11{fill:#070a30}.cls-12{fill:#161711}.cls-13{fill:#55772d}.cls-22{fill:none;stroke:#fff;stroke-miterlimit:10;stroke-width:4.83px}</style><linearGradient id="未命名的渐变_3" x1="834.69" y1="-1014.96" x2="1118.25" y2="-1174.67" gradientTransform="matrix(.7 0 0 .7 981.79 1774.42)" gradientUnits="userSpaceOnUse"><stop offset="0" stop-color="#bae700"/><stop offset=".23" stop-color="#58bb00"/><stop offset=".42" stop-color="#58bb00"/><stop offset=".61" stop-color="#29b400"/><stop offset=".78" stop-color="#00aa1d"/><stop offset=".99" stop-color="#00a22c"/></linearGradient><linearGradient id="未命名的渐变_3-2" x1="819.15" y1="-1042.57" x2="1102.71" y2="-1202.28" xlink:href="#未命名的渐变_3"/><linearGradient id="未命名的渐变_3-3" x1="801.49" y1="-1073.92" x2="1085.05" y2="-1233.63" xlink:href="#未命名的渐变_3"/></defs><g id="图层_2" data-name="图层 2"><g id="图层_1-2" data-name="图层 1"><path d="M4.6 3.35A45.56 45.56 0 0 1 .18.14L0 0h4.6z" fill="#ecedec"/><path class="cls-2" d="M1266.79 1108.52c15.44-7.42 14.09-7.56 14.09-7.56s14.13 16.83 34.59 19.94c10.17 1.58 43 2 43 2l48.76 1.21 22.61-1.32s12.75-1.66 16.14.52c9.82 6.31 1.43 11.41 1.43 11.41l-87.31 12.36 83.89 10.41s10.53 3.13 11 8.83c.46 5.33-3.06 5.15-3.06 5.15l-97.52 10.43 42.76 10.2s10.23 3.29 11 8.83a112.1 112.1 0 0 0 1.26 7.72l-89.69-8.78s-68.42-83.87-52.95-91.35z"/><path class="cls-2" d="M1363.62 1162.56l58.68 10.74s13.38.94 19.33 5.24c6.84 4.91 2.8 10.94 2.8 10.94l-90-7.54z"/><path class="cls-3" d="M1553.89 1356s371.06.78 514.28 3c99.1 1.51 108.13-139.79 69-161-118.67-64.55-488.9-97.75-488.9-97.75l-251.88 231.27s14.2-.46 157.5 24.48z"/><path class="cls-4" d="M1903.75 598.87s95.38-26.73 136.93 97.88c63.7 191.18 58.09 366.5 49.2 403.88-4.08 17.18-16.33 76.58-122.92 78.89-43.21.91-26-91.71-26-91.71s-27.71-78.66-57.26-211.76 20.05-277.18 20.05-277.18z"/><path d="M1979.24 609.59l-244.68-79.12-185.18-12.4-202.93 61.4s-66.39 45.76-4.74 192.85 37.87 377.55 37.87 377.55l523.48 16.75s9.9-213 44.59-426.13c7.78-47.58 8.78-103.57 31.59-130.9z" fill="#cad6e2"/><path class="cls-6" d="M1620.12 1156.35h26.66a2217.84 2217.84 0 0 0-4.13-623q-12 7.2-24.12 14.37c6.75 209.65-4.76 419.28 1.59 608.63z"/><path class="cls-7" d="M1724.14 588.12c-3.58 28.32-26.73 52.84-51 54H1604c-24.34-1.16-47.45-25.68-51-54l-17-139.94c-3.79-27.95 12.83-84.14 49.62-100.75a132.22 132.22 0 0 1 105.92 0c36.81 16.59 53.46 72.8 49.67 100.75q-8.59 69.95-17.07 139.94z"/><path fill="#b9c9e3" d="M1635.78 645.61l-43.91 72.01-80.48-100.65 12.67-52.9 26.1-21.46.36 39.86 85.26 63.14z"/><path fill="#b8c9e4" d="M1641.11 645.61l43.9 72.01 74.87-93.75-12.28-57.46-18.77-24.21-7.61 47.03-80.11 56.38z"/><path d="M1628.06 258.65a55.27 55.27 0 0 0-46.31 25h-19a42.87 42.87 0 0 0-42.88 42.87v106h30.17v-43.1a30.16 30.16 0 0 1 30.16-30.17h8.15a55.33 55.33 0 0 0 55.42-55.25v-45.3z" fill="#080a30"/><path class="cls-7" d="M1574.59 471.93a26.26 26.26 0 0 1-26.22 26.27h-2.21a26.27 26.27 0 0 1-26.27-26.27v-31.87a26.26 26.26 0 0 1 26.27-26.24h2.14a26.29 26.29 0 0 1 24 15.63"/><path class="cls-11" d="M1604.56 300.75v-42.1h90.89a55.33 55.33 0 0 1 55.32 55.35v42.06h-90.89a55.33 55.33 0 0 1-55.32-55.31z"/><path class="cls-2" d="M1743 512.19c-.11 22-16.92 59.25-44.79 71-37.88 15.63-82.7 15.58-120.55 0-27.91-11.8-44.63-49-44.76-71V324.83c-.15-22.18 21.93-40.75 49.22-41.28h111.68c27.24.51 49.39 19.11 49.21 41.28z"/><path class="cls-11" d="M1659.41 258.65a55.25 55.25 0 0 1 46.31 25h19a42.89 42.89 0 0 1 42.86 42.9v105.97h-30.14v-43.1a30.17 30.17 0 0 0-30.17-30.17h-38.59a55.32 55.32 0 0 1-55.32-55.32v-45.28z"/><path class="cls-2" d="M1713.3 440.06a26.24 26.24 0 0 1 26.22-26.24h2.2A26.23 26.23 0 0 1 1768 440v32a26.28 26.28 0 0 1-26.25 26.26h-2.17a26.32 26.32 0 0 1-24-15.67"/><path class="cls-11" d="M1613.33 311.61a55.8 55.8 0 0 0 1.1-10.86v-42.1h-39.2A55.34 55.34 0 0 0 1519.9 314v42.05h39.22a54.73 54.73 0 0 0 11.34-1.19 55.38 55.38 0 0 1 42.87-43.25z"/><path class="cls-12" d="M1127.55 2065.49c-5.73 6.92-1.56 25.14-1.56 25.14s99.88 11.11 132 3.58c8.35-2 22.45-9.13 35.78-16.79 2.26-1.29 6.2-9 8.36-10.24 4-2.4 6.14 1.6 9.57-.55 8.88-5.61 15.15-10 15.25-10.52 8.78-45.81-2.87-64.29-2.87-64.29s-85-28.27-101-8.55c-37.52 46.35-83.08 67.06-95.53 82.22zM2061 2015.63l6.93 75.46 75.54 7.38s5.24-10.06 11.61-9.45c5.39.55 11.32 11.73 18.61 12.42 15.89 1.58 33.5 3.27 40.57 4 14.15 1.43 151.55 14.85 151.55 14.85s5-15.25 1.32-21c-1.89-3-14-9-22.24-12.2-37.94-14.79-146.28-60-162.07-99.12-19.05-47.7-121.82 27.66-121.82 27.66z"/><path class="cls-2" d="M1946.8 1060.46l-255.39 104.32s181.2 25.85 294.46 2.75c76.57-15.64-35.52-110.4-39.07-107.07z"/><path class="cls-3" d="M1367.07 1219.37s-24.55 233.21-21 356.48c2.62 93 2.92 271.25-19.23 423.17-1.36 9.3-120.18 2.29-120.18 2.29s-42.61-578.16-55.26-673.39 24.08-163.92 215.67-108.55z"/><path class="cls-13" d="M2114.26 1275.56S2076 1336 1971 1350.33c-37.93 5.18 61.19 676.81 61.19 676.81l155.15-49.64-30-742.78zM1686.27 1350.33s-202.83 28.92-338.22 43.14c-49.63 5.21-92.61-133.74-98.36-139.76-36.24-37.94-72-33.18-70.74-34.54 29.34-31.7 181.2-61.11 340-98.35s182.86-13.82 182.86-13.82z"/><path class="cls-3" d="M1518.87 1120.8c-158.74 37.22-310.62 66.65-340 98.34-1.26 1.43 34.5-3.43 70.75 34.54 1.58 1.64 10.73 46.17 17.23 62.11-25.87-46.59 347.16-178.09 427.76-212.14-14.98-4.76-58.81-10.22-175.74 17.15z"/><path class="cls-13" d="M1344.58 1348.59l-15.49 453.85-15.55 105.23-1.72-105.23 3.43-65.61-36.23-101.78-18.98-236.4 27.62 10.36-3.46-103.53 60.38 43.11z"/><path class="cls-3" d="M2109 1219.17l37.93 10.38 13.84 545.28-79.39 195 37.96-132.83-15.48-274.37s-55.24 132.84-55.24 126 46.6-288.18 46.6-288.18-51.77 43.17-46.6 41.44 31.06-196.82 60.38-222.72z"/><path class="cls-4" d="M1458.57 581.67s-81.54-63.89-161.26 54.67c-116.9 173.76-167.68 358.52-186.23 412-14.23 41-6.39 157 41.4 204.8 11.52 11.49 80.53 2.27 80.53 2.27l45.31-31.33-19-36.5-1-28.76s57.93-139.77 129.13-271.9 71.12-305.25 71.12-305.25z"/><path class="cls-2" d="M1259.27 1112.85l264.73 13.81s-255 117-263.38 96.82c-47.8-114.24-1.35-110.63-1.35-110.63z"/><path d="M1869.72 1204.89c.1-.2.21-.37.28-.54l-.28-16.71h-521.49v16.71a.83.83 0 0 0 0 .54l1.77 3.11c8.89 14.48 24.81 17.07 43.06 17.07h431.81c18.25 0 34.17-2.59 43.07-17.07z" fill="#b1bdc4"/><path fill="#8296a1" d="M1436.45 1191.53h345.32v11.78h-345.32z"/><path d="M1869.41 1189.46l1.43-341.91a16.21 16.21 0 0 0-16.1-16.3H1366.4a16.38 16.38 0 0 0-16.37 16.3l-1.43 341.91z" fill="#dfe9ee"/><path class="cls-6" d="M1224.94 1245.07l-18.17-116.04 30.13-31 66.84 10.65-13.65 128.46-65.15 7.93z"/><path fill="#b1d2d7" d="M2036.49 1161.79l6.95-42.71-84.55-75.88-45.73 20.64 59.81 114.49 63.52-16.54z"/><path fill="url(#未命名的渐变_3)" d="M1649.13 986.5v67.01l-35.25-16.62v-37.73l35.25-12.66z"/><path fill="url(#未命名的渐变_3-2)" d="M1563.41 1054.74l34.41 16.23v-66.7l-34.41-16.24v66.71z"/><path fill="url(#未命名的渐变_3-3)" d="M1647.72 985.21l.57-.21.31-.11-33.93-16-.31.11-.9.32-.42.15-48.27 17.34 33.94 16 14.33-5.15.84-.3 33.84-12.15z"/><path d="M8191 426.4c0 24.48-22.83 44.51-50.77 44.51H6466.56c-27.91 0-50.82-20-50.82-44.51v-69.51L6346 287.43l69.76-80.62v-58.43c0-24.46 22.91-44.5 50.82-44.5h1673.65c27.91 0 50.77 20 50.77 44.5z" fill="#63b481"/><path class="cls-22" d="M8041.26 284.9H7517M7454.08 284.9h-634.26M6749.87 284.9h-145.03"/></g></g></svg>