<svg xmlns="http://www.w3.org/2000/svg" xmlns:xlink="http://www.w3.org/1999/xlink" viewBox="0 0 8191 2120.26"><defs><style>.cls-1{fill:#ecedec;}.cls-2{fill:#e4d1b3;}.cls-3{fill:#6f8339;}.cls-4{fill:#c0cadd;}.cls-5{fill:#cad6e2;}.cls-6{fill:#b2d2d7;}.cls-7{fill:#d9c4a4;}.cls-8{fill:#b9c9e3;}.cls-9{fill:#b8c9e4;}.cls-10{fill:#080a30;}.cls-11{fill:#070a30;}.cls-12{fill:#161711;}.cls-13{fill:#55772d;}.cls-14{fill:#b1bdc4;}.cls-15{fill:#8296a1;}.cls-16{fill:#dfe9ee;}.cls-17{fill:#b1d2d7;}.cls-18{fill:url(#未命名的渐变_3);}.cls-19{fill:url(#未命名的渐变_3-2);}.cls-20{fill:url(#未命名的渐变_3-3);}.cls-21{fill:#63b481;}.cls-22{fill:none;stroke:#fff;stroke-miterlimit:10;stroke-width:4.83px;}</style><linearGradient id="未命名的渐变_3" x1="834.69" y1="-1014.96" x2="1118.25" y2="-1174.67" gradientTransform="translate(981.79 1774.42) scale(0.7)" gradientUnits="userSpaceOnUse"><stop offset="0" stop-color="#bae700"/><stop offset="0.23" stop-color="#58bb00"/><stop offset="0.42" stop-color="#58bb00"/><stop offset="0.61" stop-color="#29b400"/><stop offset="0.78" stop-color="#00aa1d"/><stop offset="0.99" stop-color="#00a22c"/></linearGradient><linearGradient id="未命名的渐变_3-2" x1="819.15" y1="-1042.57" x2="1102.71" y2="-1202.28" xlink:href="#未命名的渐变_3"/><linearGradient id="未命名的渐变_3-3" x1="801.49" y1="-1073.92" x2="1085.05" y2="-1233.63" xlink:href="#未命名的渐变_3"/></defs><title>资源 4</title><g id="图层_2" data-name="图层 2"><g id="图层_1-2" data-name="图层 1"><path class="cls-1" d="M4.6,3.35A45.56,45.56,0,0,1,.18.14L0,0H4.6Z"/><path class="cls-2" d="M1266.79,1108.52c15.44-7.42,14.09-7.56,14.09-7.56s14.13,16.83,34.59,19.94c10.17,1.58,43,2,43,2l48.76,1.21,22.61-1.32s12.75-1.66,16.14.52c9.82,6.31,1.43,11.41,1.43,11.41l-87.31,12.36,83.89,10.41s10.53,3.13,11,8.83c.46,5.33-3.06,5.15-3.06,5.15l-97.52,10.43,42.76,10.2s10.23,3.29,11,8.83c.87,6.07,1.26,7.72,1.26,7.72l-89.69-8.78S1251.32,1116,1266.79,1108.52Z"/><path class="cls-2" d="M1363.62,1162.56l58.68,10.74s13.38.94,19.33,5.24c6.84,4.91,2.8,10.94,2.8,10.94l-90-7.54Z"/><path class="cls-3" d="M1553.89,1356s371.06.78,514.28,3c99.1,1.51,108.13-139.79,69-161-118.67-64.55-488.9-97.75-488.9-97.75l-251.88,231.27S1410.59,1331.06,1553.89,1356Z"/><path class="cls-4" d="M1903.75,598.87s95.38-26.73,136.93,97.88c63.7,191.18,58.09,366.5,49.2,403.88-4.08,17.18-16.33,76.58-122.92,78.89-43.21.91-26-91.71-26-91.71s-27.71-78.66-57.26-211.76S1903.75,598.87,1903.75,598.87Z"/><path class="cls-5" d="M1979.24,609.59l-244.68-79.12-185.18-12.4-202.93,61.4s-66.39,45.76-4.74,192.85,37.87,377.55,37.87,377.55l523.48,16.75s9.9-213,44.59-426.13C1955.43,692.91,1956.43,636.92,1979.24,609.59Z"/><path class="cls-6" d="M1620.12,1156.35h26.66a2217.84,2217.84,0,0,0-4.13-623q-12,7.2-24.12,14.37C1625.28,757.37,1613.77,967,1620.12,1156.35Z"/><path class="cls-7" d="M1724.14,588.12c-3.58,28.32-26.73,52.84-51,54H1604c-24.34-1.16-47.45-25.68-51-54l-17-139.94c-3.79-27.95,12.83-84.14,49.62-100.75a132.22,132.22,0,0,1,105.92,0c36.81,16.59,53.46,72.8,49.67,100.75Q1732.62,518.13,1724.14,588.12Z"/><polygon class="cls-8" points="1635.78 645.61 1591.87 717.62 1511.39 616.97 1524.06 564.07 1550.16 542.61 1550.52 582.47 1635.78 645.61"/><polygon class="cls-9" points="1641.11 645.61 1685.01 717.62 1759.88 623.87 1747.6 566.41 1728.83 542.2 1721.22 589.23 1641.11 645.61"/><path class="cls-10" d="M1628.06,258.65a55.27,55.27,0,0,0-46.31,25h-19a42.87,42.87,0,0,0-42.88,42.87h0v106h30.17v-43.1a30.16,30.16,0,0,1,30.16-30.17h8.15A55.33,55.33,0,0,0,1643.77,304h0v-45.3Z"/><path class="cls-7" d="M1574.59,471.93a26.26,26.26,0,0,1-26.22,26.27h-2.21a26.27,26.27,0,0,1-26.27-26.27V440.06a26.26,26.26,0,0,1,26.27-26.24h2.14a26.29,26.29,0,0,1,24,15.63"/><path class="cls-11" d="M1604.56,300.75v-42.1h90.89A55.33,55.33,0,0,1,1750.77,314h0v42.06h-90.89A55.33,55.33,0,0,1,1604.56,300.75Z"/><path class="cls-2" d="M1743,512.19c-.11,22-16.92,59.25-44.79,71-37.88,15.63-82.7,15.58-120.55,0-27.91-11.8-44.63-49-44.76-71V324.83c-.15-22.18,21.93-40.75,49.22-41.28H1693.8c27.24.51,49.39,19.11,49.21,41.28Z"/><path class="cls-11" d="M1659.41,258.65a55.25,55.25,0,0,1,46.31,25h19a42.89,42.89,0,0,1,42.86,42.9V432.52h-30.14v-43.1a30.17,30.17,0,0,0-30.17-30.17h-38.59a55.32,55.32,0,0,1-55.32-55.32V258.65Z"/><path class="cls-2" d="M1713.3,440.06a26.24,26.24,0,0,1,26.22-26.24h2.2A26.23,26.23,0,0,1,1768,440V472a26.28,26.28,0,0,1-26.25,26.26h-2.17a26.32,26.32,0,0,1-24-15.67"/><path class="cls-11" d="M1613.33,311.61a55.8,55.8,0,0,0,1.1-10.86v-42.1h-39.2A55.34,55.34,0,0,0,1519.9,314v42.05h39.22a54.73,54.73,0,0,0,11.34-1.19A55.38,55.38,0,0,1,1613.33,311.61Z"/><path class="cls-12" d="M1127.55,2065.49c-5.73,6.92-1.56,25.14-1.56,25.14s99.88,11.11,132,3.58c8.35-2,22.45-9.13,35.78-16.79,2.26-1.29,6.2-9,8.36-10.24,4-2.4,6.14,1.6,9.57-.55,8.88-5.61,15.15-10,15.25-10.52,8.78-45.81-2.87-64.29-2.87-64.29s-85-28.27-101-8.55C1185.56,2029.62,1140,2050.33,1127.55,2065.49Z"/><path class="cls-12" d="M2061,2015.63l6.93,75.46,75.54,7.38s5.24-10.06,11.61-9.45c5.39.55,11.32,11.73,18.61,12.42,15.89,1.58,33.5,3.27,40.57,4,14.15,1.43,151.55,14.85,151.55,14.85s5-15.25,1.32-21c-1.89-3-14-9-22.24-12.2-37.94-14.79-146.28-60-162.07-99.12C2163.77,1940.27,2061,2015.63,2061,2015.63Z"/><path class="cls-2" d="M1946.8,1060.46l-255.39,104.32s181.2,25.85,294.46,2.75C2062.44,1151.89,1950.35,1057.13,1946.8,1060.46Z"/><path class="cls-3" d="M1367.07,1219.37s-24.55,233.21-21,356.48c2.62,93,2.92,271.25-19.23,423.17-1.36,9.3-120.18,2.29-120.18,2.29s-42.61-578.16-55.26-673.39S1175.48,1164,1367.07,1219.37Z"/><path class="cls-13" d="M2114.26,1275.56S2076,1336,1971,1350.33c-37.93,5.18,61.19,676.81,61.19,676.81l155.15-49.64-30-742.78Z"/><path class="cls-13" d="M1686.27,1350.33s-202.83,28.92-338.22,43.14c-49.63,5.21-92.61-133.74-98.36-139.76-36.24-37.94-72-33.18-70.74-34.54,29.34-31.7,181.2-61.11,340-98.35S1701.81,1107,1701.81,1107Z"/><path class="cls-3" d="M1518.87,1120.8c-158.74,37.22-310.62,66.65-340,98.34-1.26,1.43,34.5-3.43,70.75,34.54,1.58,1.64,10.73,46.17,17.23,62.11-25.87-46.59,347.16-178.09,427.76-212.14C1679.63,1098.89,1635.8,1093.43,1518.87,1120.8Z"/><polygon class="cls-13" points="1344.58 1348.59 1329.09 1802.44 1313.54 1907.67 1311.82 1802.44 1315.25 1736.83 1279.02 1635.05 1260.04 1398.65 1287.66 1409.01 1284.2 1305.48 1344.58 1348.59"/><path class="cls-3" d="M2109,1219.17l37.93,10.38,13.84,545.28-79.39,195L2119.34,1837l-15.48-274.37s-55.24,132.84-55.24,126,46.6-288.18,46.6-288.18-51.77,43.17-46.6,41.44S2079.68,1245.07,2109,1219.17Z"/><path class="cls-4" d="M1458.57,581.67s-81.54-63.89-161.26,54.67c-116.9,173.76-167.68,358.52-186.23,412-14.23,41-6.39,157,41.4,204.8,11.52,11.49,80.53,2.27,80.53,2.27l45.31-31.33-19-36.5-1-28.76s57.93-139.77,129.13-271.9S1458.57,581.67,1458.57,581.67Z"/><path class="cls-2" d="M1259.27,1112.85,1524,1126.66s-255,117-263.38,96.82C1212.82,1109.24,1259.27,1112.85,1259.27,1112.85Z"/><path class="cls-14" d="M1869.72,1204.89c.1-.2.21-.37.28-.54l-.28-16.71H1348.23v16.71a.83.83,0,0,0,0,.54L1350,1208c8.89,14.48,24.81,17.07,43.06,17.07h431.81c18.25,0,34.17-2.59,43.07-17.07Z"/><rect class="cls-15" x="1436.45" y="1191.53" width="345.32" height="11.78"/><path class="cls-16" d="M1869.41,1189.46l1.43-341.91a16.21,16.21,0,0,0-16.1-16.3H1366.4a16.38,16.38,0,0,0-16.37,16.3l-1.43,341.91Z"/><polygon class="cls-6" points="1224.94 1245.07 1206.77 1129.03 1236.9 1098.03 1303.74 1108.68 1290.09 1237.14 1224.94 1245.07"/><polygon class="cls-17" points="2036.49 1161.79 2043.44 1119.08 1958.89 1043.2 1913.16 1063.84 1972.97 1178.33 2036.49 1161.79"/><polygon class="cls-18" points="1649.13 986.5 1649.13 1053.51 1613.88 1036.89 1613.88 999.16 1649.13 986.5"/><polygon class="cls-19" points="1563.41 1054.74 1597.82 1070.97 1597.82 1004.27 1563.41 988.03 1563.41 1054.74"/><polygon class="cls-20" points="1647.72 985.21 1648.29 985 1648.6 984.89 1614.67 968.89 1614.36 969 1613.46 969.32 1613.04 969.47 1564.77 986.81 1598.71 1002.81 1613.04 997.66 1613.88 997.36 1647.72 985.21"/><path class="cls-21" d="M8191,426.4c0,24.48-22.83,44.51-50.77,44.51H6466.56c-27.91,0-50.82-20-50.82-44.51V356.89L6346,287.43l69.76-80.62V148.38c0-24.46,22.91-44.5,50.82-44.5H8140.23c27.91,0,50.77,20,50.77,44.5Z"/><line class="cls-22" x1="8041.26" y1="284.9" x2="7517" y2="284.9"/><line class="cls-22" x1="7454.08" y1="284.9" x2="6819.82" y2="284.9"/><line class="cls-22" x1="6749.87" y1="284.9" x2="6604.84" y2="284.9"/></g></g></svg>