<svg xmlns="http://www.w3.org/2000/svg" xmlns:xlink="http://www.w3.org/1999/xlink" version="1.1" x="0px" y="0px" viewBox="0 0 4397.9 2704.2" xml:space="preserve">
<style type="text/css">
	.st0{opacity:0.48;fill:#D7E1E3;}
	.st1{fill:#E8F2F7;}
	.st2{fill:#FFFFFF;}
	.st3{fill:#D1DBEA;}
	.st4{fill:#2B9061;}
	.st5{fill:#30AA63;}
	.st6{fill:#2FA32A;}
	.st96{fill:#A7BCD2;}
	.st97{enable-background:new;}
	.st98{fill:#D7E1F1;}
	.st99{fill:#CCDAEA;}
	.st102{fill:#B8C8E8;}
	.st103{fill:#B1C0DE;}
	.st104{fill:#C3D5EF;}
	.st105{fill:#108613;}
	.st106{fill:#07A312;}
	.st107{fill:#12920B;}
	.st108{opacity:0.6;}
	.st109{fill:#B7CEE6;}
	.st110{fill:#C4D8EB;}
	.st111{fill:#9ADF82;}
	.st112{fill:#72C05C;}
	.st113{fill:#73D057;}
	.st114{opacity:0.4;}
	.st116{fill:#3EB500;}
	.st117{fill:#13AC4A;}
	.st118{fill:#0C791D;}
	.st119{fill:#22C024;}
	.st120{fill:#1F8B2E;}
	.st121{fill:#0FA70E;}
	.st122{fill:#3BA941;}
	.st123{fill:#7CB637;}
	.st124{fill:#59AC40;}
	.st130{fill:#BACEE0;}
	.st131{fill:#AEBDDC;}
	.st133{fill:#E2ECF1;}
	.st134{fill:#E7D4B6;}
	.st135{fill:#E0C39A;}
	.st136{fill:#1A1A1A;}
	.st137{fill:#005044;}
	.st138{fill:#B4C0C7;}
	.st139{fill:#D6E3EB;}
	.st140{fill:#8599A4;}
	.st141{fill:#D7DFE2;}
	.st142{fill:#DFB006;}
	.st143{fill:#005505;}
	.st144{fill:#E3E6EA;}
	.st145{fill:#276401;}
	.st146{fill:#009045;}
	.st147{fill:#E0AE00;}
	.aniFri {
		animation: aniFri infinite linear;
	}
	.aniSec{
		animation: aniSec infinite linear;
	}
	.aniThi{
		animation: aniThi infinite linear;
	}
	.slowAni{animation-duration: 10s;}
	.normalAni{animation-duration: 7s;}
	.fastAni{animation-duration: 4s;}
	@keyframes aniFri {
		from {
			-webkit-transform: translate(0, 0);
			transform: translate(0, 0);
		}
		30% {
			-webkit-transform: translate(-2%, 1%);
			transform: translate(-2%, 1%);
		}
		70% {
			-webkit-transform: translate(2%, -1%);
			transform: translate(2%, -1%);
		}
		to {
			-webkit-transform: translate(0, 0);
			transform: translate(0, 0);
		}
	}
	@keyframes aniSec {
	  from {
		-webkit-transform: rotate3d(0, 0, 0);
		transform: rotate3d(0, 0, 0);
	  }
	  50% {
		-webkit-transform: rotate3d(0, 0, 1, -2deg);
		transform: rotate3d(0, 0, 1, -2deg);
	  }
	  to {
		-webkit-transform: rotate3d(0, 0, 0);
		transform: rotate3d(0, 0, 0);
	  }
	}
	@-webkit-keyframes aniThi{
	  from {
		-webkit-transform: translate(0,0) rotate3d(0, 0, 0, 0);
		transform: translate(0,0) rotate3d(0, 0, 0, 0);
	  }
	  50% {
		-webkit-transform: translate(-1%, 1%) rotate3d(0, 0, 1, -1deg);
		transform: translate(-1%, 1%) rotate3d(0, 0, 1, -1deg);
	  }
	  to {
		-webkit-transform: translate(0,0) rotate3d(0, 0, 0, 0);
		transform: translate(0,0) rotate3d(0, 0, 0, 0);
	  }
	}
</style>
<g>
	<path class="st0" d="M2217.1,2340.6c0,0-96.1,31.8-61.6,80.9c34.5,49.1,88.1,81.9,136,94.2c48,12.3,99.3,13.1,99.3,13.1   s-10.5,62.6,23.7,85.5s161.9,40.2,190,34.4c28.1-5.7,123.8-41.6,123.8-41.6l28.8-32.2l113.3,32.2c0,0,28.9,7.9,43.1,19.7   c14.2,11.8,52.7,0,64.4,3s86.8,19.5,102.4,20.1c15.7,0.6,57.1-5.3,80.7-23c23.6-17.7,0-51.9,0-51.9l-95.1-74.6   c0,0,92.5-53,105.6-66.7c13.1-13.7-13.5-69.8-13.5-69.8L2217.1,2340.6z"/>
	<g>
		<g class="st108 aniFri slowAni">
			<polygon class="st109" points="2155.5,275.7 2008.6,395 1861.8,260.9 2008.7,141.6  "/>
			<polygon class="st99" points="1861.8,260.9 1880.7,162.4 2027.6,43.1 2008.7,141.6  "/>
			<polygon class="st1" points="2008.7,141.6 2027.6,43.1 2174.4,177.3 2155.5,275.7  "/>
		</g>
		<g class="aniSec fastAni">
			<polygon class="st102" points="3896.6,260.9 3921.5,324.6 3863.7,417.9 3838.8,354.1  "/>
			<polygon class="st103" points="3957.3,452.7 3863.7,417.9 3921.5,324.6 4015.1,359.4  "/>
			<polygon class="st98" points="4015.1,359.4 3921.5,324.6 3896.6,260.9 3990.2,295.7  "/>
		</g>
		<g class="aniFri normalAni">
			<polygon class="st102" points="482.3,747.2 507.2,811 449.4,904.3 424.5,840.5  "/>
			<polygon class="st103" points="543,939.1 449.4,904.3 507.2,811 600.8,845.8  "/>
			<polygon class="st98" points="600.8,845.8 507.2,811 482.3,747.2 575.9,782.1  "/>
		</g>
		<g>
			<polygon class="st1" points="2391.4,1731.8 2341.7,1446.4 2459,1361.7 2508.6,1647"/>
			<polygon class="st3" points="2092.1,1460.9 2341.7,1446.4 2391.4,1731.8 2141.8,1746.3"/>
		</g>
		<g class="aniSec slowAni">
			<polygon class="st4" points="2504.3,1877.4 2355.5,1821.2 2284.5,1576.4 2433.3,1632.6"/>
			<polygon class="st5" points="2078.8,1683.7 2284.5,1576.4 2355.5,1821.2 2149.8,1928.5"/>
			<polygon class="st6" points="2149.8,1928.5 2355.5,1821.2 2504.3,1877.4 2298.5,1984.7"/>
		</g>
		<g>
			<polygon class="st98" points="2670.2,746.2 2441,1050.6 2347.4,896.4 2576.6,592  "/>
			<polygon class="st2" points="2947.1,917.5 2670.2,746.2 2576.6,592 2853.4,763.2  "/>
			<polygon class="st99" points="2717.9,1221.9 2441,1050.6 2670.2,746.2 2947.1,917.5  "/>
		</g>
		<g class="aniThi slowAni">
			<polygon class="st105" points="3926.9,1550.7 3694.3,1661.8 3506.6,1585.4 3739.2,1474.3"/>
			<polygon class="st106" points="3546.1,1835.5 3506.6,1585.4 3694.3,1661.8 3733.8,1911.9"/>
			<polygon class="st107" points="3733.8,1911.9 3694.3,1661.8 3926.9,1550.7 3966.4,1800.8"/>
		</g>
		<g class="aniThi normalAni">
			<polygon class="st96" points="3283.7,1767.5 3340.2,1468.5 3461.8,1545.9 3405.2,1844.8  "/>
			<polygon class="st1" points="3024.9,1742.6 3283.7,1767.5 3405.2,1844.8 3146.5,1820  "/>
			<polygon class="st99" points="3081.4,1443.7 3340.2,1468.5 3283.7,1767.5 3024.9,1742.6  "/>
		</g>
		<g>
			<polygon class="st110" points="2372.6,1376.6 2200.4,1796.5 1737.2,1682.8 1909.3,1262.8  "/>
			<polygon class="st102" points="1737.2,1682.8 1663.7,1453.8 1835.9,1033.8 1909.3,1262.8  "/>
			<polygon class="st1" points="1909.3,1262.8 1835.9,1033.8 2299.2,1147.5 2372.6,1376.6  "/>
		</g>
		<g class="aniSec normalAni">
			<polygon class="st111" points="2216.4,727.2 2387.5,653 2489.7,837.8 2318.5,912.1"/>
			<polygon class="st112" points="2489.7,837.8 2416.9,910.7 2245.8,984.9 2318.5,912.1"/>
			<polygon class="st113" points="2318.5,912.1 2245.8,984.9 2143.7,800 2216.4,727.2"/>
		</g>
		<g>
			<polygon class="st116" points="2849.6,1071.2 3134.6,1141.1 3106.3,1448.1 2821.3,1378.2"/>
			<polygon class="st117" points="3106.3,1448.1 2966.9,1516.9 2681.9,1447.1 2821.3,1378.2"/>
			<polygon class="st118" points="2821.3,1378.2 2681.9,1447.1 2710.3,1140 2849.6,1071.2"/>
		</g>
		<g>
			<polygon class="st119" points="1611.2,494.4 1919.1,510.3 1918.3,868.1 1610.4,852.2   "/>
			<polygon class="st120" points="1918.3,868.1 1747.3,891.2 1439.4,875.3 1610.4,852.2   "/>
			<polygon class="st121" points="1610.4,852.2 1439.4,875.3 1440.2,517.5 1611.2,494.4   "/>
		</g>
		<g class="aniThi fastAni">
			<polygon class="st122" points="1473.6,994.7 1474.4,1260.4 1228.4,1296.3 1227.5,1030.5"/>
			<polygon class="st123" points="1228.4,1296.3 1111.2,1233.3 1110.4,967.6 1227.5,1030.5"/>
			<polygon class="st124" points="1227.5,1030.5 1110.4,967.6 1356.5,931.7 1473.6,994.7"/>
		</g>
		<g class="aniSec normalAni">
			<polygon class="st102" points="1649.1,1243.1 1646.3,1353.2 1502.1,1455.5 1505,1345.3  "/>
			<polygon class="st103" points="1619.3,1565.8 1502.1,1455.5 1646.3,1353.2 1763.4,1463.5  "/>
			<polygon class="st98" points="1763.4,1463.5 1646.3,1353.2 1649.1,1243.1 1766.3,1353.3  "/>
		</g>
		<g>
			<polygon class="st109" points="3453.7,1487.8 3731.7,1192.3 3925.1,1252.4 3647.1,1547.9  "/>
			<polygon class="st2" points="3699,985.1 3925.1,1252.4 3731.7,1192.3 3505.6,925  "/>
			<polygon class="st3" points="3505.6,925 3731.7,1192.3 3453.7,1487.8 3227.7,1220.4  "/>
		</g>
		<g class="aniThi normalAni">
			<polygon class="st109" points="2273.3,1065.6 2411.8,1435.9 2275.9,1579.1 2137.4,1208.8  "/>
			<polygon class="st98" points="2607,1496.7 2275.9,1579.1 2411.8,1435.9 2742.9,1353.5  "/>
			<polygon class="st2" points="2742.9,1353.5 2411.8,1435.9 2273.3,1065.6 2604.4,983.2  "/>
		</g>
		<!--人物-->
		<g>
			<path class="st130" d="M2946.3,1549.7c51.6,13,146.8,59.3,166.7,138.4c29.9,118.8-30,293.2,64.8,463.9      c30.2,54.4-523.4,127.5-523.4,127.5l-106.8-600.4c0,0,133.4-130.3,160.7-139.1C2764.9,1521.8,2843.1,1523.7,2946.3,1549.7z"/>
			<g>
				<path class="st131" d="M2546.8,1679.4c-19.2,48-67.8,333.4-13.6,400.7c6.3,7.8-28.1,19.9-21.9,55.4       c1.1,5.9,11.4,34.2,11.4,34.2l44.3,11.5l133.7-76.1L2675,2074l-12.1,0.3c0,0-11.4-10.6-8.3-23.8c3.2-13-30.7-34.4-81.8-255.9       C2557.8,1729.4,2551,1668.9,2546.8,1679.4z"/>
				<path class="st130" d="M2598.5,2066.6l39.5-8.7l16-2.6c0.1,10.9,8.8,18.9,8.8,18.9l-30.6,1l-35.9,7.7l-43.4,24.7L2598.5,2066.6       z"/>
			</g>
			<path class="st132" d="M2655.1,2103.5c0,0-30.6-0.4-56.6,15.7c-19.8,12.2-38,38.7-19.8,53.1c18.2,14.4,46.3,27.8,46.3,27.8      S2694.5,2202,2655.1,2103.5z"/>
			<path class="st133" d="M2578.7,2173.3l18.6-4c0,0,64.1-5.8,73.3-0.8c9.1,5,38.5,24.9,38.5,24.9l6,5.6c0,0-14.3,8.9-33.6-4.6      c-19.3-13.5-20.9-3.2-20.9-3.2l3.2,17.1l-0.3,21.8l3,9.2c0,0,2.7,5,0.6,6.8c-6.1,5.3-12.2,2.8-12.2,2.8l-19.5-34l-5.3,37      c0,0-2.6,5-8.7,6.3c-5.7,1.2-5.8-0.3-5.8-0.3l-4.4-9.4c-0.5,2-1.5,4.6-3.9,6.5c-4.8,3.8-11.6,3.3-11.6,3.3l1.8-39l-8,19.8      c0,0-2.8,4.9-8.8,6.3c-6.5,1.5-8.2,2-8.2,2L2578.7,2173.3z"/>
			<g>
				<g>
					<path class="st134" d="M2910.8,2020.6c0,0-46.6,117.9-158.4,149.5c-19.4,5.4-31.3,26.4-21.9,33.1        c11.9,8.6,28.4,10.5,56.4,10.4c58.5-0.1,138.1-18.3,193.1-71.6c81.5-78.8,107.2-114.7,98.9-154.4        C3070.8,1947.9,2910.8,2020.6,2910.8,2020.6z"/>
					<path class="st131" d="M3097.2,1648.4c23.7,38.9,37.4,101.4,37.2,190.9c-0.2,69.2-59.9,182.6-69.1,217.5        c-1.5,5.8-5.2,30.8-5.2,30.8l-66.2,64.9l-132.8-90l40.4-62l12.1,1.3c0,0,7.6-34.1,5.6-47.5c-2.1-13.3,36.8-191.9,56-306.4        C2986.2,1581.9,3073.7,1609.8,3097.2,1648.4z"/>
					<path class="st130" d="M2978.3,1999.5l-38.7-12l-15.7-3.9c-1,10.8-10.4,18.1-10.4,18.1l30.5,3.5l35.1,10.7l41.2,28.3        L2978.3,1999.5z"/>
				</g>
				<path class="st134" d="M2761,2169.8l-67.6-18.5c0,0-19.2,25.7-15.5,32.1c3.6,6.4-0.1,44.4-0.1,44.4l32.8,27.8l26.7-8.8       c0,0,1.8-11.6-7.3-12.8c-9.1-1.1,6.1-7.8,10.9-10.5C2745.6,2220.8,2784.9,2200.6,2761,2169.8z"/>
			</g>
			<g>
				<path class="st135" d="M2877.1,1579.8c0.6,1.8-0.3,3.7-2.1,4.3l-110,38.6c-1.8,0.6-3.7-0.3-4.3-2.1l-59.3-169.2       c-0.6-1.8,0.3-3.7,2.1-4.3l110-38.6c1.8-0.6,3.7,0.3,4.3,2.1L2877.1,1579.8z"/>
			</g>
			<path class="st134" d="M2697.1,1629.6c3.9,14.2,18.6,22.5,32.8,18.6l115.8-31.9c14.2-3.9,22.6-18.6,18.6-32.8l-47.3-171.5      c-3.9-14.2-18.6-22.5-32.8-18.6l-115.8,31.9c-14.2,3.9-22.6,18.6-18.6,32.8L2697.1,1629.6z"/>
			<path class="st136" d="M2659.4,1493.5c0,0-20.1-12.3-25.8-21.7c-2.9-4.7-3.2-25.7,7.6-36.7c10.8-11,25.3-0.1,25.3-0.1      s-17.4,17.1-17.3,21.7C2649.4,1461.3,2659.4,1493.5,2659.4,1493.5z"/>
			<path class="st136" d="M2850.2,1486c0,0-0.7-70.8-9.2-89.2c-8.5-18.4-14.4-31.2-38.6-26.9c-36.2,6.5-34.5,14.1-54.6,8.1      c-20.1-6-58.1-23.4-69.4-23c-18.9,0.6-45,14.2-36.9,47.7c5.9,24.8-7.8,35-7.2,35.8c2.2,2.6,9.4,3.7,22.2,6.2      c36.6,7.2,56.8,5.1,79.6-8.1c22.9-13.2,65-39.8,75.4-23.1c10.4,16.7,23.6,73.1,26.9,76.8C2841.8,1494,2846.8,1490.4,2850.2,1486      z"/>
			<path class="st134" d="M2827.9,1547.5c1.3,4.7,6.2,7.5,10.9,6.2l25-6.9c4.7-1.3,7.5-6.2,6.2-11l-12.6-45.7      c-1.3-4.7-6.2-7.6-10.9-6.2l-25,6.9c-4.7,1.3-7.5,6.2-6.2,10.9L2827.9,1547.5z"/>
			<path class="st134" d="M2678.7,1588.6c1.3,4.8,6.2,7.5,11,6.2l25-6.9c4.7-1.3,7.5-6.2,6.2-10.9l-12.6-45.8      c-1.3-4.7-6.2-7.5-10.9-6.2l-25,6.9c-4.7,1.3-7.5,6.2-6.2,10.9L2678.7,1588.6z"/>
			<path class="st136" d="M2843.2,1504c0,0,18.6,67.5,24.8,90.1c5.6,20.3,9.8,67.3-105.2,98.9c-68.1,18.8-79.4-32-83.9-48.4      c-3.4-12.5,0.4-53.9,5.6-63.1c0.2-0.3,7.7,27.9,7.7,27.9s6.7-31.1,39-40c52.2-14.4,72.5,12.9,95.3,6      C2844.2,1570.2,2849.5,1537.7,2843.2,1504z"/>
			<path class="st134" d="M2764.9,1607.9l-35.7,9.8c-4.7,1.3-9.6-1.5-10.9-6.2l-1.4-5l52.9-14.6l1.4,5      C2772.5,1601.7,2769.7,1606.5,2764.9,1607.9z"/>
			<path class="st137" d="M2200.1,2292.9c16.5,45.5,305.3,213.2,402.1,203.3l291.8,13.9c248.1-30.3,365.5-415.8,365.5-415.8      c-9.9-96.8-254.3,43.5-341.4,87c-138,68.9-225.2,72.3-225.2,72.3c-92.3,9.5-199.3-61.8-315.8-64.2      C2249.1,2186.7,2174.1,2221.1,2200.1,2292.9z"/>
			<path class="st138" d="M2834.8,2246.6c0.1-0.1,0.2-0.3,0.2-0.4v-12.1l-502.2-9.1l-0.2,12.1c0,0-0.1,0.2,0,0.4l1.3,2.3      c6.3,10.7,17.8,12.8,31.1,13l437,7.9c13.2,0.3,24.9-1.4,31.5-11.8L2834.8,2246.6z"/>
			<path class="st139" d="M2713.8,2246.4c0,0-0.1,0.2,0,0.3l1.2,1.9c1.9,2.7,4.4,4.8,7.2,6.3l76.4,1.4c12.8,0.2,23.9-1.1,30.3-9.5      l1.3-1.8c0.1-0.1,0.1-0.2,0.2-0.3l0-5.9l-116.4-2.1L2713.8,2246.4z"/>
			<g>
				<polygon class="st140" points="2646,2242 2395.1,2237.4 2395.3,2228.9 2646.2,2233.5  "/>
			</g>
			<path class="st141" d="M2711.3,2231.4l-60.6-247.9c-1.6-6.6-8.2-12-14.7-12.1l-352.3-6.4c-6.5-0.1-10.5,5.1-8.9,11.6l60.6,247.9 L2711.3,2231.4z"/>
			<path class="st134" d="M2938.6,2574.4c-34.8,6-61.3-34.4-61.3-34.4l-89.8-70.7l19-47.8l174.8,78.6 C2981.4,2500.1,2973.4,2568.4,2938.6,2574.4z"/>
			<path class="st142" d="M2877.2,2537.2c0,0-0.1,4.2,6.6,22.6c6.7,18.4,14.9,24.8,23.6,27.4c33.5,9.9,57.7,4.9,138.3,20.4 c80.6,15.6,104.8,3.8,128.4-33.3c23.6-37.2-0.9-66.3-40.2-69.3c-56.9-4.3-88.6,2.2-118.2-2.3c-31.1-4.7-33-11.7-51.2-22.8      c-17.1-10.5-32.7,51.9-16.6,66.4C2962.1,2559,2889.3,2560.9,2877.2,2537.2z"/>
			<path class="st143" d="M2894.5,2573.1c33.5,9.9,57.7,4.9,138.3,20.4c80.6,15.5,104.8,3.8,128.4-33.3  c10.9-17.2,11.4-32.5,5.1-44.5c17.7,12.2,23.8,33.5,7.8,58.6c-23.6,37.2-47.8,48.9-128.4,33.3c-80.6-15.5-104.8-10.5-138.3-20.4      c-6.7-2-13.1-6.3-18.7-16.6C2890.6,2571.7,2892.5,2572.5,2894.5,2573.1z"/>
			<path class="st134" d="M2877.3,2538.4c-0.1-0.8-0.1-1.1-0.1-1.1c0.2,0.4,0.5,0.8,0.8,1.3 C2877.8,2538.5,2877.5,2538.4,2877.3,2538.4z"/>
			<g>
				<path class="st144" d="M3051.5,2566.3c2.6,0.9,4.9-3.9,5.7-10.8c1.5-13.9,4.6-27.8,9.3-41.5c2.3-6.8,2.3-12.8-0.6-13.6       c-2.8-0.7-7.4,4.1-9.6,10.8c-4.5,13.6-7.4,27.4-8.8,41.1C3046.9,2559,3048.9,2565.3,3051.5,2566.3z"/>
				<path class="st144" d="M3026.5,2561.7c2.7,0.6,5.2-4.2,5.9-10.6c1.6-13,4.6-26.1,9.2-39.1c2.3-6.4,2.1-11.9-0.9-12.3       c-3-0.3-7.7,4.4-9.8,10.8c-4.4,12.9-7.3,25.8-8.7,38.7C3021.7,2555.5,3023.8,2561.1,3026.5,2561.7z"/>
				<path class="st144" d="M3000.3,2560.6c2.8,0.4,5.6-4.7,6.7-11.3c2.1-13.4,5.7-26.9,10.9-40.3c2.5-6.6,2.5-12.2-0.6-12.3       c-3.1-0.1-8.1,5-10.5,11.6c-5,13.3-8.4,26.7-10.4,39.9C2995.5,2554.6,2997.5,2560.2,3000.3,2560.6z"/>
			</g>
			<path class="st145" d="M2932.5,2459c0,0-617.1-253.7-652.3-254.1c-119.2-1.1-91.9,119.5-31.5,176.2 c71.2,66.9,613,189.5,613,189.5L2932.5,2459z"/>
			<polygon class="st134" points="2687.7,2503.1 2856.1,2343.4 2784.3,2272.3 2600.4,2465.6"/>
			<path class="st146" d="M2652.8,2377.5c0,0,428.7-393,457.6-404.7c97.9-39.7,158.5,68.4,155,105.7c-4.5,48.4-440,442-440,442      L2652.8,2377.5z"/>
			<path class="st147" d="M2398.8,2515.5c-10,9.2-11.8,36.5-11.8,36.5s143.1,54.2,193.3,55.1c13.1,0.3,36.6-5,59.1-11.2      c3.8-1,12.5-10.8,16.2-11.9c6.8-2,8.4,4.7,14.3,2.8c15.2-4.9,26.1-9,26.5-9.7c30.2-64.2,20-95.9,20-95.9s-65.7,18.8-54.5,4.1      c24.1-31.5-44.8-63.7-60.1-46.9C2540.5,2505.3,2427.8,2488.8,2398.8,2515.5z"/>
			<path class="st143" d="M2390.8,2528.9c44,17.5,136.4,53.6,154.8,54.9c75.3,5.4,127.9-21.4,163.1-37.1c-3.1,9.2-7,19.2-12.3,30.4      c-0.4,0.8-11.3,4.9-26.5,9.7c-5.9,1.9-7.5-4.8-14.3-2.8c-3.7,1.1-12.4,10.9-16.2,11.9c-22.5,6.2-46,11.5-59.1,11.2      c-50.2-1-193.3-55.1-193.3-55.1S2387.4,2539.6,2390.8,2528.9z"/>
			<g>
				<path class="st144" d="M2491.9,2487.3c-1.3,2.4,4.3,5.4,12.3,7.1c16.3,3.3,32.5,8.2,48.3,14.6c7.8,3.2,15,4,16.1,1.2       c1-2.7-4.4-7.9-12.1-11c-15.7-6.2-31.7-10.9-47.8-14.1C2500.8,2483.5,2493.2,2484.7,2491.9,2487.3z"/>
				<path class="st144" d="M2524,2475.9c-1.2,2.6,4.3,6.1,12.1,8.4c15.8,4.6,31.4,10.7,46.7,18.4c7.5,3.8,14.4,5,15.4,2.1       c1-2.9-4.2-8.6-11.6-12.3c-15.1-7.4-30.6-13.3-46.3-17.7C2532.5,2472.6,2525.2,2473.4,2524,2475.9z"/>
				<path class="st144" d="M2554.9,2465.9c-1.2,2.6,4.2,6.7,11.8,9.6c15.3,5.8,30.4,13.1,45,21.9c7.2,4.3,13.8,5.9,14.7,2.9       c1-3-4-9.2-11.1-13.4c-14.5-8.6-29.5-15.7-44.7-21.3C2563.1,2462.9,2556,2463.3,2554.9,2465.9z"/>
			</g>
		</g>
	</g>
</g>
</svg>