<svg xmlns="http://www.w3.org/2000/svg" viewBox="0 0 4397.9 2704.2"><style>@keyframes aF{30%{-webkit-transform:translate(-2%,1%);transform:translate(-2%,1%)}70%{-webkit-transform:translate(2%,-1%);transform:translate(2%,-1%)}}@keyframes aS{50%{-webkit-transform:rotate3d(0,0,1,-2deg);transform:rotate3d(0,0,1,-2deg)}}@-webkit-keyframes aT{50%{-webkit-transform:translate(-1%,1%) rotate3d(0,0,1,-1deg);transform:translate(-1%,1%) rotate3d(0,0,1,-1deg)}}.st1{fill:#e8f2f7}.st2{fill:#fff}.st3{fill:#d1dbea}.st98{fill:#d7e1f1}.st99{fill:#ccdaea}.st102{fill:#b8c8e8}.st103{fill:#b1c0de}.st109{fill:#b7cee6}.st130{fill:#bacee0}.st131{fill:#aebddc}.st134{fill:#e7d4b6}.st136{fill:#1a1a1a}.st143{fill:#005505}.st144{fill:#e3e6ea}.aF{animation:aF infinite linear}.aS{animation:aS infinite linear}.aT{animation:aT infinite linear}.sA{animation-duration:10s}.nA{animation-duration:7s}.fA{animation-duration:4s}</style><path d="M2217.1 2340.6s-96.1 31.8-61.6 80.9c34.5 49.1 88.1 81.9 136 94.2 48 12.3 99.3 13.1 99.3 13.1s-10.5 62.6 23.7 85.5 161.9 40.2 190 34.4c28.1-5.7 123.8-41.6 123.8-41.6l28.8-32.2 113.3 32.2s28.9 7.9 43.1 19.7c14.2 11.8 52.7 0 64.4 3s86.8 19.5 102.4 20.1c15.7.6 57.1-5.3 80.7-23s0-51.9 0-51.9l-95.1-74.6s92.5-53 105.6-66.7c13.1-13.7-13.5-69.8-13.5-69.8l-940.9-23.3z" opacity=".48" fill="#d7e1e3"/><g class="aF sA" opacity=".6"><path class="st109" d="M2155.5 275.7L2008.6 395l-146.8-134.1 146.9-119.3z"/><path class="st99" d="M1861.8 260.9l18.9-98.5 146.9-119.3-18.9 98.5z"/><path class="st1" d="M2008.7 141.6l18.9-98.5 146.8 134.2-18.9 98.4z"/></g><g class="aS fA"><path class="st102" d="M3896.6 260.9l24.9 63.7-57.8 93.3-24.9-63.8z"/><path class="st103" d="M3957.3 452.7l-93.6-34.8 57.8-93.3 93.6 34.8z"/><path class="st98" d="M4015.1 359.4l-93.6-34.8-24.9-63.7 93.6 34.8z"/></g><g class="aF nA"><path class="st102" d="M482.3 747.2l24.9 63.8-57.8 93.3-24.9-63.8z"/><path class="st103" d="M543 939.1l-93.6-34.8 57.8-93.3 93.6 34.8z"/><path class="st98" d="M600.8 845.8L507.2 811l-24.9-63.8 93.6 34.9z"/></g><path class="st1" d="M2391.4 1731.8l-49.7-285.4 117.3-84.7 49.6 285.3z"/><path class="st3" d="M2092.1 1460.9l249.6-14.5 49.7 285.4-249.6 14.5z"/><g class="aS sA"><path fill="#2b9061" d="M2504.3 1877.4l-148.8-56.2-71-244.8 148.8 56.2z"/><path fill="#30aa63" d="M2078.8 1683.7l205.7-107.3 71 244.8-205.7 107.3z"/><path fill="#2fa32a" d="M2149.8 1928.5l205.7-107.3 148.8 56.2-205.8 107.3z"/></g><path class="st98" d="M2670.2 746.2L2441 1050.6l-93.6-154.2L2576.6 592z"/><path class="st2" d="M2947.1 917.5l-276.9-171.3-93.6-154.2 276.8 171.2z"/><path class="st99" d="M2717.9 1221.9L2441 1050.6l229.2-304.4 276.9 171.3z"/><g class="aT sA"><path fill="#108613" d="M3926.9 1550.7l-232.6 111.1-187.7-76.4 232.6-111.1z"/><path fill="#07a312" d="M3546.1 1835.5l-39.5-250.1 187.7 76.4 39.5 250.1z"/><path fill="#12920b" d="M3733.8 1911.9l-39.5-250.1 232.6-111.1 39.5 250.1z"/></g><g class="aT nA"><path fill="#a7bcd2" d="M3283.7 1767.5l56.5-299 121.6 77.4-56.6 298.9z"/><path class="st1" d="M3024.9 1742.6l258.8 24.9 121.5 77.3-258.7-24.8z"/><path class="st99" d="M3081.4 1443.7l258.8 24.8-56.5 299-258.8-24.9z"/></g><path fill="#c4d8eb" d="M2372.6 1376.6l-172.2 419.9-463.2-113.7 172.1-420z"/><path class="st102" d="M1737.2 1682.8l-73.5-229 172.2-420 73.4 229z"/><path class="st1" d="M1909.3 1262.8l-73.4-229 463.3 113.7 73.4 229.1z"/><g class="aS nA"><path fill="#9adf82" d="M2216.4 727.2l171.1-74.2 102.2 184.8-171.2 74.3z"/><path fill="#72c05c" d="M2489.7 837.8l-72.8 72.9-171.1 74.2 72.7-72.8z"/><path fill="#73d057" d="M2318.5 912.1l-72.7 72.8L2143.7 800l72.7-72.8z"/></g><path fill="#3eb500" d="M2849.6 1071.2l285 69.9-28.3 307-285-69.9z"/><path fill="#13ac4a" d="M3106.3 1448.1l-139.4 68.8-285-69.8 139.4-68.9z"/><path fill="#0c791d" d="M2821.3 1378.2l-139.4 68.9 28.4-307.1 139.3-68.8z"/><g><path fill="#22c024" d="M1611.2 494.4l307.9 15.9-.8 357.8-307.9-15.9z"/><path fill="#1f8b2e" d="M1918.3 868.1l-171 23.1-307.9-15.9 171-23.1z"/><path fill="#0fa70e" d="M1610.4 852.2l-171 23.1.8-357.8 171-23.1z"/></g><g class="aT fA"><path fill="#3ba941" d="M1473.6 994.7l.8 265.7-246 35.9-.9-265.8z"/><path fill="#7cb637" d="M1228.4 1296.3l-117.2-63-.8-265.7 117.1 62.9z"/><path fill="#59ac40" d="M1227.5 1030.5l-117.1-62.9 246.1-35.9 117.1 63z"/></g><g class="aS nA"><path class="st102" d="M1649.1 1243.1l-2.8 110.1-144.2 102.3 2.9-110.2z"/><path class="st103" d="M1619.3 1565.8l-117.2-110.3 144.2-102.3 117.1 110.3z"/><path class="st98" d="M1763.4 1463.5l-117.1-110.3 2.8-110.1 117.2 110.2z"/></g><g><path class="st109" d="M3453.7 1487.8l278-295.5 193.4 60.1-278 295.5z"/><path class="st2" d="M3699 985.1l226.1 267.3-193.4-60.1L3505.6 925z"/><path class="st3" d="M3505.6 925l226.1 267.3-278 295.5-226-267.4z"/></g><g class="aT nA"><path class="st109" d="M2273.3 1065.6l138.5 370.3-135.9 143.2-138.5-370.3z"/><path class="st98" d="M2607 1496.7l-331.1 82.4 135.9-143.2 331.1-82.4z"/><path class="st2" d="M2742.9 1353.5l-331.1 82.4-138.5-370.3 331.1-82.4z"/></g><g><path class="st130" d="M2946.3 1549.7c51.6 13 146.8 59.3 166.7 138.4 29.9 118.8-30 293.2 64.8 463.9 30.2 54.4-523.4 127.5-523.4 127.5l-106.8-600.4s133.4-130.3 160.7-139.1c56.6-18.2 134.8-16.3 238 9.7z"/><path class="st131" d="M2546.8 1679.4c-19.2 48-67.8 333.4-13.6 400.7 6.3 7.8-28.1 19.9-21.9 55.4 1.1 5.9 11.4 34.2 11.4 34.2l44.3 11.5 133.7-76.1-25.7-31.1-12.1.3s-11.4-10.6-8.3-23.8c3.2-13-30.7-34.4-81.8-255.9-15-65.2-21.8-125.7-26-115.2z"/><path class="st130" d="M2598.5 2066.6l39.5-8.7 16-2.6c.1 10.9 8.8 18.9 8.8 18.9l-30.6 1-35.9 7.7-43.4 24.7 45.6-41z"/><path class="st132" d="M2655.1 2103.5s-30.6-.4-56.6 15.7c-19.8 12.2-38 38.7-19.8 53.1 18.2 14.4 46.3 27.8 46.3 27.8s69.5 1.9 30.1-96.6z"/><path d="M2578.7 2173.3l18.6-4s64.1-5.8 73.3-.8c9.1 5 38.5 24.9 38.5 24.9l6 5.6s-14.3 8.9-33.6-4.6-20.9-3.2-20.9-3.2l3.2 17.1-.3 21.8 3 9.2s2.7 5 .6 6.8c-6.1 5.3-12.2 2.8-12.2 2.8l-19.5-34-5.3 37s-2.6 5-8.7 6.3c-5.7 1.2-5.8-.3-5.8-.3l-4.4-9.4c-.5 2-1.5 4.6-3.9 6.5-4.8 3.8-11.6 3.3-11.6 3.3l1.8-39-8 19.8s-2.8 4.9-8.8 6.3c-6.5 1.5-8.2 2-8.2 2l6.2-74.1z" fill="#e2ecf1"/><path class="st134" d="M2910.8 2020.6s-46.6 117.9-158.4 149.5c-19.4 5.4-31.3 26.4-21.9 33.1 11.9 8.6 28.4 10.5 56.4 10.4 58.5-.1 138.1-18.3 193.1-71.6 81.5-78.8 107.2-114.7 98.9-154.4-8.1-39.7-168.1 33-168.1 33z"/><path class="st131" d="M3097.2 1648.4c23.7 38.9 37.4 101.4 37.2 190.9-.2 69.2-59.9 182.6-69.1 217.5-1.5 5.8-5.2 30.8-5.2 30.8l-66.2 64.9-132.8-90 40.4-62 12.1 1.3s7.6-34.1 5.6-47.5c-2.1-13.3 36.8-191.9 56-306.4 11-66 98.5-38.1 122 .5z"/><path class="st130" d="M2978.3 1999.5l-38.7-12-15.7-3.9c-1 10.8-10.4 18.1-10.4 18.1l30.5 3.5 35.1 10.7 41.2 28.3-42-44.7z"/><path class="st134" d="M2761 2169.8l-67.6-18.5s-19.2 25.7-15.5 32.1c3.6 6.4-.1 44.4-.1 44.4l32.8 27.8 26.7-8.8s1.8-11.6-7.3-12.8c-9.1-1.1 6.1-7.8 10.9-10.5 4.7-2.7 44-22.9 20.1-53.7z"/><path d="M2877.1 1579.8c.6 1.8-.3 3.7-2.1 4.3l-110 38.6c-1.8.6-3.7-.3-4.3-2.1l-59.3-169.2c-.6-1.8.3-3.7 2.1-4.3l110-38.6c1.8-.6 3.7.3 4.3 2.1l59.3 169.2z" fill="#e0c39a"/><path class="st134" d="M2697.1 1629.6a26.66 26.66 0 0 0 32.8 18.6l115.8-31.9a26.58 26.58 0 0 0 18.6-32.8L2817 1412a26.66 26.66 0 0 0-32.8-18.6l-115.8 31.9a26.58 26.58 0 0 0-18.6 32.8l47.3 171.5z"/><path class="st136" d="M2659.4 1493.5s-20.1-12.3-25.8-21.7c-2.9-4.7-3.2-25.7 7.6-36.7 10.8-11 25.3-.1 25.3-.1s-17.4 17.1-17.3 21.7c.2 4.6 10.2 36.8 10.2 36.8z"/><path class="st136" d="M2850.2 1486s-.7-70.8-9.2-89.2c-8.5-18.4-14.4-31.2-38.6-26.9-36.2 6.5-34.5 14.1-54.6 8.1s-58.1-23.4-69.4-23c-18.9.6-45 14.2-36.9 47.7 5.9 24.8-7.8 35-7.2 35.8 2.2 2.6 9.4 3.7 22.2 6.2 36.6 7.2 56.8 5.1 79.6-8.1 22.9-13.2 65-39.8 75.4-23.1 10.4 16.7 23.6 73.1 26.9 76.8 3.4 3.7 8.4.1 11.8-4.3z"/><path class="st134" d="M2827.9 1547.5a8.9 8.9 0 0 0 10.9 6.2l25-6.9c4.7-1.3 7.5-6.2 6.2-11l-12.6-45.7a8.82 8.82 0 0 0-10.9-6.2l-25 6.9a8.9 8.9 0 0 0-6.2 10.9l12.6 45.8zM2678.7 1588.6c1.3 4.8 6.2 7.5 11 6.2l25-6.9a8.9 8.9 0 0 0 6.2-10.9l-12.6-45.8a8.9 8.9 0 0 0-10.9-6.2l-25 6.9a8.9 8.9 0 0 0-6.2 10.9l12.5 45.8z"/><path class="st136" d="M2843.2 1504s18.6 67.5 24.8 90.1c5.6 20.3 9.8 67.3-105.2 98.9-68.1 18.8-79.4-32-83.9-48.4-3.4-12.5.4-53.9 5.6-63.1.2-.3 7.7 27.9 7.7 27.9s6.7-31.1 39-40c52.2-14.4 72.5 12.9 95.3 6 17.7-5.2 23-37.7 16.7-71.4z"/><path class="st134" d="M2764.9 1607.9l-35.7 9.8a8.9 8.9 0 0 1-10.9-6.2l-1.4-5 52.9-14.6 1.4 5c1.3 4.8-1.5 9.6-6.3 11z"/><path d="M2200.1 2292.9c16.5 45.5 305.3 213.2 402.1 203.3l291.8 13.9c248.1-30.3 365.5-415.8 365.5-415.8-9.9-96.8-254.3 43.5-341.4 87-138 68.9-225.2 72.3-225.2 72.3-92.3 9.5-199.3-61.8-315.8-64.2-128-2.7-203 31.7-177 103.5z" fill="#005044"/><path d="M2834.8 2246.6c.1-.1.2-.3.2-.4v-12.1l-502.2-9.1-.2 12.1s-.1.2 0 .4l1.3 2.3c6.3 10.7 17.8 12.8 31.1 13l437 7.9c13.2.3 24.9-1.4 31.5-11.8l1.3-2.3z" fill="#b4c0c7"/><path d="M2713.8 2246.4s-.1.2 0 .3l1.2 1.9c1.9 2.7 4.4 4.8 7.2 6.3l76.4 1.4c12.8.2 23.9-1.1 30.3-9.5l1.3-1.8c.1-.1.1-.2.2-.3v-5.9l-116.4-2.1-.2 9.7z" fill="#d6e3eb"/><path fill="#8599a4" d="M2646 2242l-250.9-4.6.2-8.5 250.9 4.6z"/><path d="M2711.3 2231.4l-60.6-247.9c-1.6-6.6-8.2-12-14.7-12.1l-352.3-6.4c-6.5-.1-10.5 5.1-8.9 11.6l60.6 247.9 375.9 6.9z" fill="#d7dfe2"/><path class="st134" d="M2938.6 2574.4c-34.8 6-61.3-34.4-61.3-34.4l-89.8-70.7 19-47.8 174.8 78.6c.1 0-7.9 68.3-42.7 74.3z"/><path d="M2877.2 2537.2s-.1 4.2 6.6 22.6c6.7 18.4 14.9 24.8 23.6 27.4 33.5 9.9 57.7 4.9 138.3 20.4 80.6 15.6 104.8 3.8 128.4-33.3 23.6-37.2-.9-66.3-40.2-69.3-56.9-4.3-88.6 2.2-118.2-2.3-31.1-4.7-33-11.7-51.2-22.8-17.1-10.5-32.7 51.9-16.6 66.4 14.2 12.7-58.6 14.6-70.7-9.1z" fill="#dfb006"/><path class="st143" d="M2894.5 2573.1c33.5 9.9 57.7 4.9 138.3 20.4 80.6 15.5 104.8 3.8 128.4-33.3 10.9-17.2 11.4-32.5 5.1-44.5 17.7 12.2 23.8 33.5 7.8 58.6-23.6 37.2-47.8 48.9-128.4 33.3-80.6-15.5-104.8-10.5-138.3-20.4-6.7-2-13.1-6.3-18.7-16.6 1.9 1.1 3.8 1.9 5.8 2.5z"/><path class="st134" d="M2877.3 2538.4c-.1-.8-.1-1.1-.1-1.1.2.4.5.8.8 1.3-.2-.1-.5-.2-.7-.2z"/><path class="st144" d="M3051.5 2566.3c2.6.9 4.9-3.9 5.7-10.8a191 191 0 0 1 9.3-41.5c2.3-6.8 2.3-12.8-.6-13.6-2.8-.7-7.4 4.1-9.6 10.8-4.5 13.6-7.4 27.4-8.8 41.1-.6 6.7 1.4 13 4 14zM3026.5 2561.7c2.7.6 5.2-4.2 5.9-10.6 1.6-13 4.6-26.1 9.2-39.1 2.3-6.4 2.1-11.9-.9-12.3-3-.3-7.7 4.4-9.8 10.8a179.7 179.7 0 0 0-8.7 38.7c-.5 6.3 1.6 11.9 4.3 12.5zM3000.3 2560.6c2.8.4 5.6-4.7 6.7-11.3 2.1-13.4 5.7-26.9 10.9-40.3 2.5-6.6 2.5-12.2-.6-12.3-3.1-.1-8.1 5-10.5 11.6-5 13.3-8.4 26.7-10.4 39.9-.9 6.4 1.1 12 3.9 12.4z"/><path d="M2932.5 2459s-617.1-253.7-652.3-254.1c-119.2-1.1-91.9 119.5-31.5 176.2 71.2 66.9 613 189.5 613 189.5l70.8-111.6z" fill="#276401"/><path class="st134" d="M2687.7 2503.1l168.4-159.7-71.8-71.1-183.9 193.3z"/><path d="M2652.8 2377.5s428.7-393 457.6-404.7c97.9-39.7 158.5 68.4 155 105.7-4.5 48.4-440 442-440 442l-172.6-143z" fill="#009045"/><path d="M2398.8 2515.5c-10 9.2-11.8 36.5-11.8 36.5s143.1 54.2 193.3 55.1c13.1.3 36.6-5 59.1-11.2 3.8-1 12.5-10.8 16.2-11.9 6.8-2 8.4 4.7 14.3 2.8 15.2-4.9 26.1-9 26.5-9.7 30.2-64.2 20-95.9 20-95.9s-65.7 18.8-54.5 4.1c24.1-31.5-44.8-63.7-60.1-46.9-61.3 66.9-174 50.4-203 77.1z" fill="#e0ae00"/><path class="st143" d="M2390.8 2528.9c44 17.5 136.4 53.6 154.8 54.9 75.3 5.4 127.9-21.4 163.1-37.1-3.1 9.2-7 19.2-12.3 30.4-.4.8-11.3 4.9-26.5 9.7-5.9 1.9-7.5-4.8-14.3-2.8-3.7 1.1-12.4 10.9-16.2 11.9-22.5 6.2-46 11.5-59.1 11.2-50.2-1-193.3-55.1-193.3-55.1s.4-12.4 3.8-23.1z"/><g><path class="st144" d="M2491.9 2487.3c-1.3 2.4 4.3 5.4 12.3 7.1 16.3 3.3 32.5 8.2 48.3 14.6 7.8 3.2 15 4 16.1 1.2 1-2.7-4.4-7.9-12.1-11-15.7-6.2-31.7-10.9-47.8-14.1-7.9-1.6-15.5-.4-16.8 2.2zM2524 2475.9c-1.2 2.6 4.3 6.1 12.1 8.4 15.8 4.6 31.4 10.7 46.7 18.4 7.5 3.8 14.4 5 15.4 2.1s-4.2-8.6-11.6-12.3c-15.1-7.4-30.6-13.3-46.3-17.7-7.8-2.2-15.1-1.4-16.3 1.1zM2554.9 2465.9c-1.2 2.6 4.2 6.7 11.8 9.6 15.3 5.8 30.4 13.1 45 21.9 7.2 4.3 13.8 5.9 14.7 2.9 1-3-4-9.2-11.1-13.4-14.5-8.6-29.5-15.7-44.7-21.3-7.5-2.7-14.6-2.3-15.7.3z"/></g></g></svg>