<svg xmlns="http://www.w3.org/2000/svg" viewBox="0 0 1490.88 918.7"><defs><style>@keyframes aF{30%{transform:translate(-2%,1%)}70%{transform:translate(2%,-1%)}}@keyframes aS{50%{transform:rotate3d(0,0,1,-2deg)}}.cls-4{isolation:isolate}.cls-5{fill:#d7e1f1}.aS{animation:aS infinite linear}.nA{animation-duration:7s}</style></defs><g id="图层_2" data-name="图层 2"><g class="aS nA"><path fill="#9adf82" d="M1219.35 444.64l170.03-73.77 101.5 183.72-170.07 73.81-101.46-183.76z"/><path fill="#72c05c" d="M1490.88 554.59l-72.28 72.4-170.05 73.77 72.26-72.36 170.07-73.81z"/><path fill="#73d057" d="M1320.81 628.4l-72.26 72.36-101.46-183.74 72.26-72.38 101.46 183.76z"/></g><g class="cls-4" style="animation-duration:10s;animation:aF infinite linear"><path class="cls-5" d="M598.85 446.1l496.18 308.65-222.9 163.95-496.08-308.57 222.8-164.03z"/><path fill="#fff" d="M822.81 0L598.85 446.1l-222.8 164.03 223.96-446.1L822.81 0z"/><path fill="#ccdaea" d="M1318.98 308.65l-223.95 446.1L598.85 446.1 822.81 0l496.17 308.65z"/><text transform="rotate(28.8 -488.94 1833.49)" font-size="473.44" fill="#5d9334" font-family="GalanoGrotesqueAlt-Bold,GalanoGrotesqueAlt-Bold">1</text></g><g class="cls-4 aS nA"><path fill="#b8c8e8" d="M0 407.63l101.33-27.31 132.55 103.62-101.34 27.37L0 407.63z"/><path fill="#b1c0de" d="M302.57 347.09l-68.69 136.85-132.55-103.62 68.7-136.88 132.54 103.65z"/><path class="cls-5" d="M170.03 243.44l-68.7 136.88L0 407.63l68.7-136.88 101.33-27.31z"/></g></g></svg>