<svg xmlns="http://www.w3.org/2000/svg" viewBox="0 0 1151.88 960.27"><defs><style>@keyframes aF{30%{transform:translate(-2%,1%)}70%{transform:translate(2%,-1%)}}@keyframes aS{50%{transform:rotate3d(0,0,1,-2deg)}}@keyframes aT{50%{transform:translate(-1%,1%) rotate3d(0,0,1,-1deg)}}.cls-1{isolation:isolate}.cls-3{fill:#b8c8e8}</style></defs><g id="图层_2" data-name="图层 2"><g class="cls-1" style="animation-duration:7s;animation:aS infinite linear"><path fill="#c4d8eb" d="M999.43 435.38L784.2 960.26l-579-142.1 215.23-524.98 579 142.2z"/><path class="cls-3" d="M205.2 818.16l-91.78-286.27 215.26-525 91.75 286.29L205.2 818.16z"/><path fill="#e8f2f7" d="M420.43 293.18L328.68 6.89l579 142.19 91.75 286.3-579-142.2z"/><text transform="rotate(14.14 -2834.38 2172.88)" font-size="455.07" fill="#5d9334" font-family="GalanoGrotesqueAlt-Bold,GalanoGrotesqueAlt-Bold">2</text></g><g style="animation-duration:4s;animation:aT infinite linear"><path fill="#2b9061" d="M321.03 227.14l-112.25-42.41L155.25 0l112.23 42.41 53.55 184.73z"/><path fill="#30aa63" d="M0 80.95L155.25 0l53.53 184.73-155.21 80.94L0 80.95z"/><path fill="#2fa32a" d="M53.57 265.67l155.21-80.94 112.25 42.41-155.25 80.93-112.21-42.4z"/></g><g class="cls-1"><path class="cls-3" d="M942.89 686.47l70.41 12.52 83.82-78.21-70.41-12.56-83.82 78.25z"/><path fill="#b1c0de" d="M1151.88 709.6l-54.76-88.82-83.82 78.21 54.77 88.84 83.81-78.23z"/><path fill="#d7e1f1" d="M1068.07 787.83l-54.77-88.84-70.41-12.52 54.77 88.83 70.41 12.53z"/></g></g></svg>