<svg xmlns="http://www.w3.org/2000/svg" viewBox="0 0 1279.33 1020.6"><defs><style>@keyframes aF{50%{transform:translate(-2%,1%)}}@keyframes aS{50%{transform:rotate3d(0,0,1,-2deg)}}@keyframes aT{50%{transform:translate(-1%,1%) rotate3d(0,0,1,-1deg)}}.cls-4{isolation:isolate}</style></defs><g id="图层_2" data-name="图层 2"><g style="animation-duration:10s;animation:aF infinite linear"><path fill="#9adf82" d="M1090.9 108.54l188.43 109.41-103.01 224.23-188.51-109.42 103.09-224.22z"/><path fill="#72c05c" d="M1176.32 442.18l-118.95-17.87-188.45-109.44 118.89 17.89 188.51 109.42z"/><path fill="#73d057" d="M987.81 332.76l-118.89-17.89 103.07-224.2 118.91 17.87-103.09 224.22z"/></g><g class="cls-4" style="animation-duration:4s;animation:aS infinite linear"><path fill="#b7cee6" d="M348.12 928.06L776.23 473l297.9 92.57-428.08 455.03-297.93-92.54z"/><path fill="#fff" d="M725.95 153.8l348.18 411.77L776.23 473 428.08 61.2l297.87 92.6z"/><path fill="#d1dbea" d="M428.08 61.2L776.23 473 348.12 928.06 0 516.22 428.08 61.2z"/><text transform="rotate(48.74 -447.86 457.21)" font-size="468.68" fill="#5d9334" font-family="GalanoGrotesqueAlt-Bold,GalanoGrotesqueAlt-Bold">3</text></g><g class="cls-4" style="animation-duration:7s;animation:aT infinite linear"><path fill="#b8c8e8" d="M96.45 102.63l56.86-15.15L188.63 0l-56.89 15.12-35.29 87.51z"/><path fill="#b1c0de" d="M260.35 47.2L188.63 0l-35.32 87.48 71.74 47.21 35.3-87.49z"/><path fill="#d7e1f1" d="M225.05 134.69l-71.74-47.21-56.86 15.15 71.74 47.2 56.86-15.14z"/></g></g></svg>