<svg xmlns="http://www.w3.org/2000/svg" viewBox="0 0 1490.88 918.7"><defs><style>.cls-1{fill:#9adf82;}.cls-2{fill:#72c05c;}.cls-3{fill:#73d057;}.cls-4{isolation:isolate;}.cls-5{fill:#d7e1f1;}.cls-6{fill:#fff;}.cls-7{fill:#ccdaea;}.cls-8{fill:#b8c8e8;}.cls-9{fill:#b1c0de;}.cls-10{font-size:473.44px;fill:#5d9334;font-family:GalanoGrotesqueAlt-Bold, GalanoGrotesqueAlt-Bold;}.aF{animation:aF infinite linear;}.aS{animation:aS infinite linear;}.sA{animation-duration: 10s;}.nA{animation-duration: 7s;}.fA{animation-duration: 4s;}@keyframes aF{from{transform: translate(0, 0);}30% {transform: translate(-2%, 1%);}70% {transform: translate(2%, -1%);}to {transform: translate(0, 0);}}@keyframes aS{from {transform: rotate3d(0, 0, 0);}50% {transform: rotate3d(0, 0, 1, -2deg);}to {transform: rotate3d(0, 0, 0);}}</style></defs><g id="图层_2" data-name="图层 2"><g class="aS nA"><polygon class="cls-1" points="1219.35 444.64 1389.38 370.87 1490.88 554.59 1320.81 628.4 1219.35 444.64"/><polygon class="cls-2" points="1490.88 554.59 1418.6 626.99 1248.55 700.76 1320.81 628.4 1490.88 554.59"/><polygon class="cls-3" points="1320.81 628.4 1248.55 700.76 1147.09 517.02 1219.35 444.64 1320.81 628.4"/></g><g class="cls-4 aF sA"><polygon class="cls-5" points="598.85 446.1 1095.03 754.75 872.13 918.7 376.05 610.13 598.85 446.1"/><polygon class="cls-6" points="822.81 0 598.85 446.1 376.05 610.13 600.01 164.03 822.81 0"/><polygon class="cls-7" points="1318.98 308.65 1095.03 754.75 598.85 446.1 822.81 0 1318.98 308.65"/><text class="cls-10" transform="translate(822.81 462.34) rotate(28.8)">1</text></g><g class="cls-4 aS nA"><polygon class="cls-8" points="0 407.63 101.33 380.32 233.88 483.94 132.54 511.31 0 407.63"/><polygon class="cls-9" points="302.57 347.09 233.88 483.94 101.33 380.32 170.03 243.44 302.57 347.09"/><polygon class="cls-5" points="170.03 243.44 101.33 380.32 0 407.63 68.7 270.75 170.03 243.44"/></g></g></svg>