<svg xmlns="http://www.w3.org/2000/svg" viewBox="0 0 1279.33 1020.6"><defs><style>.cls-1{fill:#9adf82;}.cls-2{fill:#72c05c;}.cls-3{fill:#73d057;}.cls-4{isolation:isolate;}.cls-5{fill:#b7cee6;}.cls-6{fill:#fff;}.cls-7{fill:#d1dbea;}.cls-8{fill:#b8c8e8;}.cls-9{fill:#b1c0de;}.cls-10{fill:#d7e1f1;}.cls-11{font-size:468.68px;fill:#5d9334;font-family:GalanoGrotesqueAlt-Bold, GalanoGrotesqueAlt-Bold;}</style></defs><title>资源 9</title><g id="图层_2" data-name="图层 2"><g id="dizajn"><polygon class="cls-1" points="1090.9 108.54 1279.33 217.95 1176.32 442.18 987.81 332.76 1090.9 108.54"/><polygon class="cls-2" points="1176.32 442.18 1057.37 424.31 868.92 314.87 987.81 332.76 1176.32 442.18"/><polygon class="cls-3" points="987.81 332.76 868.92 314.87 971.99 90.67 1090.9 108.54 987.81 332.76"/><g class="cls-4"><polygon class="cls-5" points="348.12 928.06 776.23 473 1074.13 565.57 646.05 1020.6 348.12 928.06"/><polygon class="cls-6" points="725.95 153.8 1074.13 565.57 776.23 473 428.08 61.2 725.95 153.8"/><polygon class="cls-7" points="428.08 61.2 776.23 473 348.12 928.06 0 516.22 428.08 61.2"/></g><g class="cls-4"><polygon class="cls-8" points="96.45 102.63 153.31 87.48 188.63 0 131.74 15.12 96.45 102.63"/><polygon class="cls-9" points="260.35 47.2 188.63 0 153.31 87.48 225.05 134.69 260.35 47.2"/><polygon class="cls-10" points="225.05 134.69 153.31 87.48 96.45 102.63 168.19 149.83 225.05 134.69"/></g><text class="cls-11" transform="translate(191.19 492.36) rotate(48.74)">3</text></g></g></svg>