<svg xmlns="http://www.w3.org/2000/svg" viewBox="0 0 1151.88 960.27"><defs><style>.cls-1{isolation:isolate;}.cls-2{fill:#c4d8eb;}.cls-3{fill:#b8c8e8;}.cls-4{fill:#e8f2f7;}.cls-5{fill:#2b9061;}.cls-6{fill:#30aa63;}.cls-7{fill:#2fa32a;}.cls-8{fill:#b1c0de;}.cls-9{fill:#d7e1f1;}.cls-10{font-size:455.07px;fill:#5d9334;font-family:GalanoGrotesqueAlt-Bold, GalanoGrotesqueAlt-Bold;}</style></defs><title>资源 7</title><g id="图层_2" data-name="图层 2"><g id="dizajn"><g class="cls-1"><polygon class="cls-2" points="999.43 435.38 784.2 960.26 205.2 818.16 420.43 293.18 999.43 435.38"/><polygon class="cls-3" points="205.2 818.16 113.42 531.89 328.68 6.89 420.43 293.18 205.2 818.16"/><polygon class="cls-4" points="420.43 293.18 328.68 6.89 907.68 149.08 999.43 435.38 420.43 293.18"/></g><polygon class="cls-5" points="321.03 227.14 208.78 184.73 155.25 0 267.48 42.41 321.03 227.14"/><polygon class="cls-6" points="0 80.95 155.25 0 208.78 184.73 53.57 265.67 0 80.95"/><polygon class="cls-7" points="53.57 265.67 208.78 184.73 321.03 227.14 165.78 308.07 53.57 265.67"/><g class="cls-1"><polygon class="cls-3" points="942.89 686.47 1013.3 698.99 1097.12 620.78 1026.71 608.22 942.89 686.47"/><polygon class="cls-8" points="1151.88 709.6 1097.12 620.78 1013.3 698.99 1068.07 787.83 1151.88 709.6"/><polygon class="cls-9" points="1068.07 787.83 1013.3 698.99 942.89 686.47 997.66 775.3 1068.07 787.83"/></g><text class="cls-10" transform="translate(444.94 758.25) rotate(14.14)">2</text></g></g></svg>