<svg viewBox="0 0 48 48" xmlns="http://www.w3.org/2000/svg"><path d="m23.61 9.73-11.46 6.62a1 1 0 0 0 -.5.87v13.24a1 1 0 0 0 .5.86l11.46 6.62a1 1 0 0 0 1 0l11.47-6.62a1 1 0 0 0 .5-.86v-13.24a1 1 0 0 0 -.5-.87l-11.47-6.62a1 1 0 0 0 -1 0z" fill="#2b393f"/><g fill="#02e49b"><path d="m23.61 3.35-7.39 4.27a.5.5 0 0 0 0 .85l1.46.92a1 1 0 0 0 1 0l4.91-2.83a1 1 0 0 1 1 0l4.91 2.83a1 1 0 0 0 1 0l1.5-.92a.5.5 0 0 0 0-.85l-7.39-4.27a1 1 0 0 0 -1 0z"/><path d="m23.61 44.64-7.39-4.27a.5.5 0 0 1 0-.85l1.46-.92a1 1 0 0 1 1 0l4.91 2.84a1 1 0 0 0 1 0l4.91-2.84a1 1 0 0 1 1 0l1.46.92a.5.5 0 0 1 0 .85l-7.39 4.27a1 1 0 0 1 -.96 0z"/></g></svg>