<svg id="Layer_1" data-name="Layer 1" xmlns="http://www.w3.org/2000/svg" viewBox="0 0 48 48"><defs><style>.cls-1{fill:#d9dbdc;}.cls-2{fill:#2b393f;}.cls-3{fill:#02e49b;}</style></defs><title>Artboard 86</title><path class="cls-1" d="M31.31,41.88,12.74,31.22a2.94,2.94,0,0,1-1.48-2.56V7.07a1.46,1.46,0,0,1,2.2-1.27L32,16.46A2.94,2.94,0,0,1,33.52,19V40.6A1.48,1.48,0,0,1,31.31,41.88Z"/><path class="cls-2" d="M27.52,36.29l-11.4-6.55a.66.66,0,0,1-.34-.57v-.3a4.39,4.39,0,0,1,6.57-3.81h0A12.27,12.27,0,0,1,28.52,35.7h0A.67.67,0,0,1,27.52,36.29Z"/><ellipse class="cls-2" cx="22" cy="19.05" rx="3.75" ry="4.31" transform="translate(-6.02 11.19) rotate(-25.22)"/><path class="cls-3" d="M37.18,18.13l-2.26-1.32V14.2a1,1,0,0,0-.5-.87l-1.53-.9a.5.5,0,0,0-.75.43V15.2l-2-1.17a.5.5,0,0,0-.75.43v1.78a1,1,0,0,0,.5.86l2.26,1.32V21a1,1,0,0,0,.49.87l1.54.9a.5.5,0,0,0,.75-.43V20l2,1.17a.5.5,0,0,0,.75-.43V19A1,1,0,0,0,37.18,18.13Z"/></svg>