<svg viewBox="0 0 48 48" xmlns="http://www.w3.org/2000/svg"><path d="m31.31 41.88-18.57-10.66a2.94 2.94 0 0 1 -1.48-2.56v-21.59a1.46 1.46 0 0 1 2.2-1.27l18.54 10.66a2.94 2.94 0 0 1 1.52 2.54v21.6a1.48 1.48 0 0 1 -2.21 1.28z" fill="#d9dbdc"/><path d="m27.52 36.29-11.4-6.55a.66.66 0 0 1 -.34-.57v-.3a4.39 4.39 0 0 1 6.57-3.81 12.27 12.27 0 0 1 6.17 10.64.67.67 0 0 1 -1 .59z" fill="#2b393f"/><ellipse cx="22" cy="19.05" fill="#2b393f" rx="3.75" ry="4.31" transform="matrix(.90467837 -.42609511 .42609511 .90467837 -6.02 11.19)"/><path d="m37.18 18.13-2.26-1.32v-2.61a1 1 0 0 0 -.5-.87l-1.53-.9a.5.5 0 0 0 -.75.43v2.34l-2-1.17a.5.5 0 0 0 -.75.43v1.78a1 1 0 0 0 .5.86l2.26 1.32v2.58a1 1 0 0 0 .49.87l1.54.9a.5.5 0 0 0 .75-.43v-2.34l2 1.17a.5.5 0 0 0 .75-.43v-1.74a1 1 0 0 0 -.5-.87z" fill="#02e49b"/></svg>