<svg id="Layer_1" data-name="Layer 1" xmlns="http://www.w3.org/2000/svg" viewBox="0 0 48 48"><defs><style>.cls-1{fill:#d9dbdc;}.cls-2{fill:#2b393f;}.cls-3{fill:#02e49b;}</style></defs><title>Artboard 85</title><ellipse class="cls-1" cx="24" cy="24" rx="15.44" ry="14.23" transform="translate(-4.1 43.04) rotate(-79.12)"/><ellipse class="cls-2" cx="24" cy="24" rx="12.54" ry="11.55" transform="translate(-4.1 43.04) rotate(-79.12)"/><path class="cls-3" d="M25.48,22.92V17.83A1,1,0,0,0,25,17l-1.5-.88a.5.5,0,0,0-.75.44v7.54a1,1,0,0,0,.5.86L29,28.28a.5.5,0,0,0,.75-.43v-1.3a1,1,0,0,0-.49-.86L26,23.78A1,1,0,0,1,25.48,22.92Z"/></svg>