<svg viewBox="0 0 48 48" xmlns="http://www.w3.org/2000/svg"><g fill="#d9dbdc"><path d="m24.87 23.43-1.13 2.57-18.27-11.05 1.25-2.49z"/><path d="m22.75 23.43 1.14 2.57 11.46-6.94-1.25-2.5z"/><path d="m24.31 25.49 1.13-2.57 16.73 10.11-1.25 2.5z"/><path d="m24.34 25.02-1.14-2.57-16.18 9.77 1.25 2.5z"/></g><ellipse cx="34.1" cy="18.49" fill="#2b393f" rx="2.42" ry="2.67"/><ellipse cx="7.89" cy="32.85" fill="#2b393f" rx="2.42" ry="2.67"/><ellipse cx="24.11" cy="23.84" fill="#2b393f" rx="2.42" ry="2.67"/><path d="m17.2 8.69-1.02-2.62-10.8 6.06 1.14 2.55z" fill="#d9dbdc"/><ellipse cx="16.55" cy="7.14" fill="#02e49b" rx="2.42" ry="2.67"/><path d="m43.33 35.14-1.14-2.56-10.51 6.53 1.26 2.5z" fill="#d9dbdc"/><ellipse cx="32.12" cy="40.39" fill="#02e49b" rx="2.42" ry="2.67"/><ellipse cx="42.48" cy="33.91" fill="#2b393f" rx="2.42" ry="2.67"/><ellipse cx="5.47" cy="13.89" fill="#2b393f" rx="2.42" ry="2.67"/></svg>