<svg id="Layer_1" data-name="Layer 1" xmlns="http://www.w3.org/2000/svg" viewBox="0 0 48 48"><defs><style>.cls-1{fill:#d9dbdc;}.cls-2{fill:#2b393f;}.cls-3{fill:#02e49b;}</style></defs><title>Artboard 87</title><polygon class="cls-1" points="24.87 23.43 23.74 26 5.47 14.95 6.72 12.46 24.87 23.43"/><polygon class="cls-1" points="22.75 23.43 23.89 26 35.35 19.06 34.1 16.56 22.75 23.43"/><polygon class="cls-1" points="24.31 25.49 25.44 22.92 42.17 33.03 40.92 35.53 24.31 25.49"/><polygon class="cls-1" points="24.34 25.02 23.2 22.45 7.02 32.22 8.27 34.72 24.34 25.02"/><ellipse class="cls-2" cx="34.1" cy="18.49" rx="2.42" ry="2.67"/><ellipse class="cls-2" cx="7.89" cy="32.85" rx="2.42" ry="2.67"/><ellipse class="cls-2" cx="24.11" cy="23.84" rx="2.42" ry="2.67"/><polygon class="cls-1" points="17.2 8.69 16.18 6.07 5.38 12.13 6.52 14.68 17.2 8.69"/><ellipse class="cls-3" cx="16.55" cy="7.14" rx="2.42" ry="2.67"/><polygon class="cls-1" points="43.33 35.14 42.19 32.58 31.68 39.11 32.94 41.61 43.33 35.14"/><ellipse class="cls-3" cx="32.12" cy="40.39" rx="2.42" ry="2.67"/><ellipse class="cls-2" cx="42.48" cy="33.91" rx="2.42" ry="2.67"/><ellipse class="cls-2" cx="5.47" cy="13.89" rx="2.42" ry="2.67"/></svg>