<svg viewBox="0 0 48 48" xmlns="http://www.w3.org/2000/svg"><ellipse cx="24" cy="24" fill="#d9dbdc" rx="15.44" ry="14.23" transform="matrix(.18875266 -.98202466 .98202466 .18875266 -4.1 43.04)"/><ellipse cx="24" cy="24" fill="#2b393f" rx="12.54" ry="11.55" transform="matrix(.18875266 -.98202466 .98202466 .18875266 -4.1 43.04)"/><path d="m25.48 22.92v-5.09a1 1 0 0 0 -.48-.83l-1.5-.88a.5.5 0 0 0 -.75.44v7.54a1 1 0 0 0 .5.86l5.75 3.32a.5.5 0 0 0 .75-.43v-1.3a1 1 0 0 0 -.49-.86l-3.26-1.91a1 1 0 0 1 -.52-.86z" fill="#02e49b"/></svg>