<svg id="Layer_1" data-name="Layer 1" xmlns="http://www.w3.org/2000/svg" xmlns:xlink="http://www.w3.org/1999/xlink" viewBox="0 0 375 423"><defs><style>.cls-1{fill:#f9fafa;}.cls-2{fill:#d9dbdc;}.cls-3{fill:url(#linear-gradient);}.cls-4{fill:url(#linear-gradient-2);}.cls-5{fill:url(#linear-gradient-3);}</style><linearGradient id="linear-gradient" x1="26.56" y1="174.95" x2="47.21" y2="174.95" gradientUnits="userSpaceOnUse"><stop offset="0" stop-color="#02e49b"/><stop offset="1" stop-color="#00bd9b"/></linearGradient><linearGradient id="linear-gradient-2" x1="306.56" y1="165.95" x2="327.21" y2="165.95" xlink:href="#linear-gradient"/><linearGradient id="linear-gradient-3" x1="106.96" y1="134.47" x2="139.39" y2="134.47" xlink:href="#linear-gradient"/></defs><title>website module bg</title><rect class="cls-1" x="-13.5" y="-47.5" width="405" height="568"/><path class="cls-2" d="M27.2,181.2l17.6,10.1a2.6,2.6,0,0,0,2.7,0l15.9-9.1a1.3,1.3,0,0,0,.5-1.8,1,1,0,0,0-.5-.4l-18-10.1a2.4,2.4,0,0,0-2.6,0l-15.6,8.9a1.4,1.4,0,0,0-.6,1.8Z"/><path class="cls-3" d="M27.9,181.7l17.4,10a1.1,1.1,0,0,0,1.7-.5.7.7,0,0,0,.2-.6V170.5a2.5,2.5,0,0,0-1.3-2.2L28.5,158.2a1.3,1.3,0,0,0-1.8.5,1.3,1.3,0,0,0-.1.6v20.1A2.8,2.8,0,0,0,27.9,181.7Z"/><path class="cls-2" d="M307.2,172.2l17.6,10.1a2.6,2.6,0,0,0,2.7,0l15.9-9.1a1.3,1.3,0,0,0,.5-1.8,1,1,0,0,0-.5-.4l-18-10.1a2.4,2.4,0,0,0-2.6,0l-15.6,8.9a1.4,1.4,0,0,0-.6,1.8Z"/><path class="cls-4" d="M307.9,172.7l17.4,10a1.1,1.1,0,0,0,1.7-.5.7.7,0,0,0,.2-.6V161.5a2.5,2.5,0,0,0-1.3-2.2l-17.3-10.1a1.3,1.3,0,0,0-1.8.5,1.3,1.3,0,0,0-.1.6v20.1A2.8,2.8,0,0,0,307.9,172.7Z"/><path class="cls-2" d="M108,144.2l27.6,16a4,4,0,0,0,4.2,0l25-14.3a2,2,0,0,0,.8-2.8,2,2,0,0,0-.8-.8l-28.2-15.8a4.3,4.3,0,0,0-4.1,0L108,140.6a2,2,0,0,0-.9,2.7A2,2,0,0,0,108,144.2Z"/><path class="cls-5" d="M109,145l27.3,15.8a2.1,2.1,0,0,0,2.8-.8,1.7,1.7,0,0,0,.3-1V127.5a3.9,3.9,0,0,0-2.1-3.5L110,108.1a2.1,2.1,0,0,0-2.8.8,3.6,3.6,0,0,0-.2,1v31.6A3.9,3.9,0,0,0,109,145Z"/></svg>