<svg id="Layer_1" data-name="Layer 1" xmlns="http://www.w3.org/2000/svg" xmlns:xlink="http://www.w3.org/1999/xlink" viewBox="0 0 1440 423"><defs><style>.cls-1{fill:#f9fafa;}.cls-2{fill:#d9dbdc;}.cls-3{fill:url(#linear-gradient);}.cls-4{fill:url(#linear-gradient-2);}.cls-5{fill:url(#linear-gradient-3);}.cls-6{fill:url(#linear-gradient-4);}</style><linearGradient id="linear-gradient" x1="1124.9" y1="345.89" x2="1184.17" y2="345.89" gradientUnits="userSpaceOnUse"><stop offset="0" stop-color="#02e49b"/><stop offset="1" stop-color="#00bd9b"/></linearGradient><linearGradient id="linear-gradient-2" x1="225.88" y1="73.66" x2="278.79" y2="73.66" xlink:href="#linear-gradient"/><linearGradient id="linear-gradient-3" x1="1148.57" y1="118.15" x2="1255.73" y2="118.15" xlink:href="#linear-gradient"/><linearGradient id="linear-gradient-4" x1="77.91" y1="265.95" x2="194.7" y2="265.95" xlink:href="#linear-gradient"/></defs><title>website module bg</title><rect class="cls-1" x="-30" y="-58.5" width="1483" height="568"/><path class="cls-2" d="M1126.8,363.7l50.4,29.3a7.8,7.8,0,0,0,7.8,0l45.7-26.2a3.7,3.7,0,0,0,1.4-5.1,3.2,3.2,0,0,0-1.4-1.4L1179,331.4a7.7,7.7,0,0,0-7.5,0L1126.8,357a3.9,3.9,0,0,0-1.7,5.1A3.7,3.7,0,0,0,1126.8,363.7Z"/><path class="cls-3" d="M1128.6,365.2l50,28.8a3.8,3.8,0,0,0,5.1-1.4,3.8,3.8,0,0,0,.5-1.9l-.2-57.6a7.5,7.5,0,0,0-3.8-6.4l-49.7-28.9a3.7,3.7,0,0,0-5.1,1.3,4.5,4.5,0,0,0-.5,1.9v57.7A7.6,7.6,0,0,0,1128.6,365.2Z"/><path class="cls-2" d="M227.6,89.6l45,26.1a7.1,7.1,0,0,0,6.9,0l40.8-23.4a3.3,3.3,0,0,0,1.3-4.5,3.3,3.3,0,0,0-1.3-1.3L274.2,60.7a6.7,6.7,0,0,0-6.7,0L227.6,83.6a3.3,3.3,0,0,0-1.5,4.5A3.1,3.1,0,0,0,227.6,89.6Z"/><path class="cls-4" d="M229.2,90.9l44.6,25.7a3.3,3.3,0,0,0,4.5-1.2,3.4,3.4,0,0,0,.5-1.7l-.2-51.4a6.8,6.8,0,0,0-3.3-5.8L230.9,30.7a3.4,3.4,0,0,0-4.6,1.2,3.5,3.5,0,0,0-.4,1.7V85.1A6.8,6.8,0,0,0,229.2,90.9Z"/><path class="cls-2" d="M1152,150.4l91.2,52.8a13.5,13.5,0,0,0,14,0l82.6-47.3a6.8,6.8,0,0,0,2.6-9.2,7.2,7.2,0,0,0-2.6-2.6l-93.4-52.2a14.1,14.1,0,0,0-13.5,0L1152,138.3a6.8,6.8,0,0,0-3,9.1A6.2,6.2,0,0,0,1152,150.4Z"/><path class="cls-5" d="M1155.3,153l90.3,52.1a6.7,6.7,0,0,0,9.2-2.4,7.3,7.3,0,0,0,.9-3.5l-.3-104.1a13.5,13.5,0,0,0-6.8-11.7l-89.9-52.2a6.8,6.8,0,0,0-10.1,5.9V141.3A13.6,13.6,0,0,0,1155.3,153Z"/><path class="cls-2" d="M83.9,302.4l96.7,56.3a14.7,14.7,0,0,0,14.9,0l87.3-50.3a7.4,7.4,0,0,0,2.8-10.2,6.9,6.9,0,0,0-2.8-2.8l-98.9-55.2a14.8,14.8,0,0,0-14.7,0L83.9,289.5a7.4,7.4,0,0,0-2.7,10.2A7.8,7.8,0,0,0,83.9,302.4Z"/><path class="cls-6" d="M85.3,303.8l98.2,56.7a7.5,7.5,0,0,0,10.2-2.7,8.2,8.2,0,0,0,1-3.7l-.5-113.4a14.7,14.7,0,0,0-7.4-12.6L89.1,171.4a7.5,7.5,0,0,0-10.2,2.7,7.8,7.8,0,0,0-1,3.6V291.1A14.5,14.5,0,0,0,85.3,303.8Z"/></svg>