<svg width="512" height="376" xmlns="http://www.w3.org/2000/svg" xmlns:xlink="http://www.w3.org/1999/xlink"><use xlink:href="#path0_fill" transform="translate(0 .003) scale(1.52836)" fill="url(#paint0_linear)"/><g transform="translate(223.424 208.93) scale(1.52836)" fill="#7093EF"><use xlink:href="#path1_fill"/><use xlink:href="#path2_fill"/><use xlink:href="#path3_fill"/><use xlink:href="#path4_fill"/><use xlink:href="#path5_fill"/><use xlink:href="#path6_fill"/></g><g transform="translate(219.55 303.979) scale(1.52836)" fill="#7093EF"><use xlink:href="#path7_fill"/><use xlink:href="#path8_fill"/><use xlink:href="#path9_fill"/><use xlink:href="#path10_fill"/><use xlink:href="#path11_fill"/><use xlink:href="#path12_fill"/></g><defs><path id="path0_fill" fill-rule="evenodd" d="M143.732 17.3c.466.143.824.537.86 1.039l.004.063c.221 3.307 7.948 119.021-71.785 146.179-.107.036-.25.072-.358.072-.108 0-.25-.036-.358-.072C-8.39 137.167.207 19.521.315 18.339c.035-.502.393-.896.859-1.004L72.166.027c.18-.036.359-.036.538 0l71.028 17.272zm-71.28 132.66c.073 0 .18 0 .287-.036 66.157-22.505 59.065-119.223 58.958-120.19a.952.952 0 00-.717-.825L72.632 14.683a.871.871 0 00-.43 0L13.853 28.91c-.393.072-.68.43-.716.824-.071.968-7.128 97.686 58.993 120.191a.987.987 0 00.323.036zM110.02 46.136c.254.064.442.28.461.54.052.627 4.593 62.686-37.838 77.139a.578.578 0 01-.394 0c-42.43-14.453-37.888-76.512-37.838-77.14a.608.608 0 01.46-.539l37.431-9.12a.534.534 0 01.288 0l37.43 9.12z"/><path id="path6_fill" d="M184.95 46.504c-.362-1.03-.593-2.554-.694-4.572-1.268 1.655-2.887 2.937-4.859 3.845a14.841 14.841 0 01-6.218 1.332c-3.139 0-5.684-.878-7.636-2.634-1.932-1.756-2.897-3.976-2.897-6.66 0-3.19 1.317-5.712 3.953-7.57 2.656-1.856 6.349-2.785 11.077-2.785h6.55v-3.724c0-2.341-.725-4.178-2.173-5.51-1.429-1.352-3.522-2.028-6.278-2.028-2.515 0-4.598.645-6.248 1.937-1.65 1.292-2.475 2.846-2.475 4.663l-3.622-.03c0-2.604 1.208-4.855 3.622-6.752 2.415-1.917 5.383-2.876 8.904-2.876 3.642 0 6.509.918 8.602 2.755 2.113 1.816 3.199 4.36 3.26 7.63v15.5c0 3.17.332 5.541.996 7.115v.364h-3.864zM173.602 43.9c2.414 0 4.567-.585 6.459-1.756 1.911-1.17 3.3-2.735 4.165-4.693v-7.205h-6.459c-3.602.04-6.419.706-8.451 1.998-2.032 1.271-3.049 3.027-3.049 5.268 0 1.837.674 3.36 2.023 4.571 1.368 1.212 3.139 1.817 5.312 1.817z"/><path id="path1_fill" d="M32.899 41.266c-1.288 1.837-3.31 3.27-6.067 4.3-2.736 1.028-5.805 1.543-9.206 1.543-3.44 0-6.499-.827-9.175-2.482-2.676-1.656-4.749-3.997-6.218-7.024C.765 34.575.02 31.103 0 27.188v-5.571c0-6.116 1.54-10.94 4.618-14.472 3.078-3.552 7.213-5.328 12.405-5.328 4.527 0 8.17 1.16 10.926 3.481 2.756 2.301 4.396 5.48 4.92 9.537h-3.713c-.543-3.23-1.861-5.672-3.954-7.327-2.072-1.675-4.789-2.512-8.149-2.512-4.105 0-7.354 1.463-9.749 4.39-2.394 2.926-3.592 7.054-3.592 12.382v5.208c0 3.35.564 6.317 1.69 8.9 1.148 2.564 2.777 4.552 4.89 5.965 2.133 1.413 4.578 2.12 7.335 2.12 3.199 0 5.945-.505 8.24-1.514 1.488-.666 2.595-1.443 3.32-2.332V28.732H17.384v-3.149h15.514v15.683z"/><path id="path2_fill" d="M63.594 42.356c-2.173 3.169-5.644 4.753-10.413 4.753-3.48 0-6.127-1.009-7.938-3.027-1.81-2.039-2.736-5.046-2.776-9.023V13.745h3.591v20.86c0 6.237 2.515 9.356 7.546 9.356 5.231 0 8.541-2.17 9.93-6.51V13.745h3.622v32.759h-3.502l-.06-4.148z"/><path id="path3_fill" d="M97.187 46.504c-.362-1.03-.594-2.554-.694-4.572-1.268 1.655-2.888 2.937-4.86 3.845a14.837 14.837 0 01-6.217 1.332c-3.14 0-5.684-.878-7.636-2.634-1.932-1.756-2.898-3.976-2.898-6.66 0-3.19 1.318-5.712 3.954-7.57 2.656-1.856 6.349-2.785 11.077-2.785h6.55v-3.724c0-2.341-.725-4.178-2.173-5.51-1.43-1.352-3.522-2.028-6.278-2.028-2.516 0-4.598.645-6.248 1.937-1.65 1.292-2.475 2.846-2.475 4.663l-3.622-.03c0-2.604 1.207-4.855 3.622-6.752 2.415-1.917 5.382-2.876 8.904-2.876 3.642 0 6.509.918 8.602 2.755 2.112 1.816 3.199 4.36 3.259 7.63v15.5c0 3.17.332 5.541.996 7.115v.364h-3.863zM85.838 43.9c2.415 0 4.568-.585 6.46-1.756 1.911-1.17 3.3-2.735 4.165-4.693v-7.205h-6.46c-3.601.04-6.418.706-8.45 1.998-2.033 1.271-3.049 3.027-3.049 5.268 0 1.837.674 3.36 2.022 4.571 1.369 1.212 3.14 1.817 5.312 1.817z"/><path id="path4_fill" d="M124.804 16.833a13.456 13.456 0 00-2.445-.212c-2.254 0-4.165.636-5.735 1.908-1.549 1.251-2.656 3.078-3.32 5.48v22.495h-3.591V13.745h3.531l.06 5.208c1.912-3.876 4.98-5.813 9.206-5.813 1.006 0 1.801.13 2.384.393l-.09 3.3z"/><path id="path5_fill" d="M128.54 29.822c0-5.087 1.126-9.133 3.38-12.14 2.274-3.028 5.352-4.542 9.236-4.542 4.406 0 7.767 1.746 10.081 5.237V0h3.591v46.504h-3.38l-.151-4.36c-2.314 3.31-5.715 4.965-10.202 4.965-3.762 0-6.801-1.514-9.115-4.541-2.294-3.048-3.44-7.155-3.44-12.322v-.424zm3.652.636c0 4.178.835 7.478 2.505 9.9 1.67 2.402 4.024 3.603 7.062 3.603 4.447 0 7.606-1.968 9.478-5.904v-15.38c-1.872-4.26-5.011-6.389-9.417-6.389-3.039 0-5.403 1.201-7.093 3.603-1.69 2.382-2.535 5.904-2.535 10.567z"/><path id="path12_fill" d="M155.772 5.359v8.386h6.761v2.967h-6.761v21.83c0 1.816.322 3.168.966 4.056.664.888 1.761 1.332 3.29 1.332.604 0 1.58-.1 2.928-.303l.151 2.967c-.946.344-2.234.515-3.864.515-2.475 0-4.276-.716-5.402-2.15-1.127-1.453-1.691-3.582-1.691-6.388V16.712h-6.006v-2.967h6.006V5.36h3.622z"/><path id="path7_fill" d="M11.832 34.605l1.358 6.843 1.66-6.54 9.537-32.486h3.35l9.417 32.486 1.63 6.6 1.449-6.903 7.938-32.183h3.803L40.716 46.504h-3.562l-9.96-34.484-1.116-4.36-1.087 4.36-10.202 34.484h-3.561L0 2.422h3.803l8.029 32.183z"/><path id="path8_fill" d="M77.932 46.504c-.362-1.03-.593-2.554-.694-4.572-1.268 1.655-2.887 2.937-4.86 3.845a14.838 14.838 0 01-6.217 1.332c-3.139 0-5.684-.878-7.636-2.634-1.932-1.756-2.898-3.976-2.898-6.66 0-3.19 1.319-5.712 3.954-7.57 2.656-1.856 6.349-2.785 11.077-2.785h6.55v-3.724c0-2.341-.724-4.178-2.173-5.51-1.429-1.352-3.522-2.028-6.278-2.028-2.515 0-4.598.645-6.248 1.937-1.65 1.292-2.475 2.846-2.475 4.663l-3.622-.03c0-2.604 1.208-4.855 3.622-6.752 2.415-1.917 5.383-2.876 8.904-2.876 3.642 0 6.51.918 8.602 2.755 2.113 1.816 3.2 4.36 3.26 7.63v15.5c0 3.17.332 5.541.996 7.115v.364h-3.864zM66.584 43.9c2.414 0 4.567-.585 6.459-1.756 1.911-1.17 3.3-2.735 4.165-4.693v-7.205h-6.46c-3.6.04-6.418.706-8.45 1.998-2.032 1.271-3.049 3.027-3.049 5.268 0 1.837.674 3.36 2.023 4.571 1.368 1.212 3.139 1.817 5.312 1.817z"/><path id="path9_fill" d="M94.502 46.504H90.88V0h3.622v46.504z"/><path id="path10_fill" d="M108.386 46.504h-3.622V0h3.622v46.504z"/><path id="path11_fill" d="M130.872 47.11c-2.777 0-5.292-.687-7.546-2.06-2.233-1.372-3.974-3.28-5.221-5.722-1.248-2.462-1.871-5.217-1.871-8.265v-1.302c0-3.148.603-5.984 1.81-8.507 1.228-2.523 2.928-4.501 5.101-5.934 2.173-1.454 4.528-2.18 7.063-2.18 3.964 0 7.103 1.362 9.417 4.087 2.334 2.705 3.501 6.408 3.501 11.111v2.029h-23.301v.696c0 3.714 1.057 6.812 3.169 9.295 2.133 2.462 4.809 3.693 8.029 3.693 1.932 0 3.632-.353 5.101-1.06 1.489-.706 2.837-1.836 4.044-3.39l2.264 1.726c-2.656 3.855-6.51 5.782-11.56 5.782zm-.664-30.882c-2.716 0-5.01.999-6.882 2.997-1.851 1.998-2.978 4.683-3.38 8.053h19.588v-.393c-.1-3.149-.996-5.712-2.686-7.69-1.69-1.978-3.904-2.967-6.64-2.967z"/><linearGradient id="paint0_linear" x1="0" y1="0" x2="1" y2="0" gradientUnits="userSpaceOnUse" gradientTransform="matrix(-154.27 117.229 -191.577 -111.581 240.583 73.052)"><stop offset="0" stop-color="#B06AB3"/><stop offset="1" stop-color="#6699F8"/></linearGradient></defs></svg>