<svg fill="none" height="285" viewBox="0 0 300 285" width="300" xmlns="http://www.w3.org/2000/svg"><g clip-rule="evenodd" fill-rule="evenodd"><g fill="#152f5a"><path d="m128.3 1.3c.2-.599997-.3-1.3-1-1.3h-69.2c-.4 0-.8001.200012-.9001.700012l-30.0999 92.799988c-.1.4 0 .8.4 1.1l56 40.7c.5.4 1.3.2 1.5-.5zm-57.8 30.1c1.9-5.9 8.2999-9.2 14.1999-7.2 6 1.9 9.2001 8.3 7.3001 14.3-1.9 5.9-8.3 9.2-14.2 7.2-5.9-1.9-9.2-8.3-7.3-14.3z"/><path d="m23.4 108.9c-.6-.4-1.3-.1-1.5.5l-21.399974 65.8c-.1.4-.000012.8.299988 1.1l78.999986 57.4c.4.3.8.2 1.2 0l56-40.7c.5-.4.6-1.2 0-1.6zm10.9 64.2c-5.1-3.7-6.2-10.7-2.5-15.8s10.8-6.2 15.8-2.5 6.2 10.7 2.5 15.8-10.8 6.2-15.8 2.5z"/><path d="m93.3 241.9c-.5.4-.5 1.2 0 1.6l56 40.7c.4.3.8.3 1.1 0l79-57.4c.4-.3.5-.7.3-1.1l-21.4-65.8c-.2-.6-1-.9-1.5-.5zm64.5 9.5c-5 3.7-12.1 2.5-15.8-2.5-3.7-5.1-2.6-12.1 2.5-15.8s12.1-2.5 15.8 2.5c3.7 5.1 2.6 12.1-2.5 15.8z"/><path d="m241.5 216.5c.2.6 1 .9 1.5.5l56-40.7c.3-.3.5-.7.4-1.1l-30.3-92.9c-.1-.4-.5-.7-.9-.7h-69.2c-.7 0-1.2.6-1 1.3zm29-58.4c1.9 5.9-1.3 12.3-7.3 14.2s-12.3-1.3-14.3-7.2c-1.9-5.9 1.3-12.3 7.3-14.2 5.9-2 12.3 1.3 14.3 7.2z"/></g><path d="m263.1 67.8c.7 0 1.1-.7.9-1.3l-21.4-65.799988c-.1-.4-.5-.700012-.9-.700012h-97.7c-.4 0-.8.300012-.9.700012l-21.4 65.799988c-.2.6.2 1.3.9 1.3zm-46.6-45.7c6.2 0 11.3 5.1 11.3 11.3 0 6.3-5.1 11.3-11.3 11.3s-11.3-5.1-11.3-11.3 5.1-11.2 11.3-11.3z" fill="#f89f36"/><path d="m149.3 155.8c.4.3.8.3 1.2 0l11.8-8.8c.3-.2.5-.6.4-1l-4.9-21c-.1-.4 0-.7.3-1 1.3-1.3 2.4-2.9 3-4.8 2-6.2-1.4-12.8-7.5-14.8s-12.7 1.3-14.7 7.5c-1.4 4.4-.1 9 3 12.1.3.3.4.6.3 1l-4.9 21c-.1.4.1.8.4 1z" fill="#f89f36"/></g></svg>