<svg width="143" height="143" viewBox="0 0 143 143" fill="none" xmlns="http://www.w3.org/2000/svg">
<path fill-rule="evenodd" clip-rule="evenodd" d="M131.739 143H11.2617C5.0419 143 0 137.958 0 131.738V11.2611C0 5.0419 5.0419 0 11.2617 0H131.739C137.959 0 143 5.0419 143 11.2611V131.738C143 137.958 137.959 143 131.739 143Z" fill="#1F2B2D"/>
<path fill-rule="evenodd" clip-rule="evenodd" d="M66.1499 95.5198L42.5298 71.9185L54.2686 60.19L66.1499 72.0615L78.0318 60.19L89.77 71.9185L66.1499 95.5198ZM125.273 36.4458L113.534 24.7173L101.653 36.5888L89.77 24.7173L77.8887 36.5888L66.1499 24.8603L18.9091 72.0615L66.1499 119.263L113.391 72.0615L101.509 60.19L125.273 36.4458Z" fill="#00E599"/>
</svg>
