<svg width="24" height="24" viewBox="0 0 24 24" fill="none" xmlns="http://www.w3.org/2000/svg">
<path d="M9.99723 1.74385L6.16992 3.32761L6.43113 3.95885L10.2584 2.37509L9.99723 1.74385Z" fill="black"/>
<path d="M10.2013 1.25399L5.68457 3.12305L6.23109 4.44376L10.7479 2.5747L10.2013 1.25399Z" fill="black"/>
<path d="M10.2587 1.12472L5.55469 3.07031L6.17829 4.57806L10.8823 2.63247L10.2587 1.12472Z" fill="black"/>
<path d="M5.96882 5.06403L5.06348 2.86864L10.4524 0.63678L11.3644 2.83216L5.96882 5.06403ZM6.03515 3.27323L6.36678 4.09236L10.3795 2.43421L10.0479 1.61177L6.03515 3.27323Z" fill="black"/>
<path d="M10.2604 1.10704L5.53223 3.0636L6.1675 4.59881L10.8957 2.64226L10.2604 1.10704Z" fill="black"/>
<path d="M5.96939 5.08397L5.05078 2.86205L10.463 0.620239L11.3816 2.84215L5.96939 5.08397ZM6.02245 3.26332L6.37066 4.10898L10.4132 2.45083L10.0584 1.59191L6.02245 3.26332Z" fill="black"/>
<path d="M5.90993 5.21645L4.91504 2.8055L10.5163 0.4841L11.5111 2.89173L5.90993 5.21645ZM6.15202 3.31621L6.42395 3.97947L10.2808 2.38102L10.0089 1.71776L6.15202 3.31621Z" fill="black"/>
<path d="M5.71114 5.7007L4.42773 2.60329L10.7187 0L12.0021 3.09742L5.71114 5.7007ZM5.39941 3.00788L6.11241 4.72903L11.0305 2.69283L10.3175 0.971673L5.39941 3.00788ZM6.22185 4.46373L5.66471 3.11731L10.2047 1.23698L10.7652 2.58339L6.22185 4.46373Z" fill="black"/>
<path d="M3.28394 6.15611L1.70996 9.9668L2.33846 10.2264L3.91244 6.41571L3.28394 6.15611Z" fill="black"/>
<path d="M3.12845 5.66988L1.25781 10.186L2.57833 10.733L4.44897 6.21686L3.12845 5.66988Z" fill="black"/>
<path d="M3.02814 5.53963L1.09375 10.2229L2.59484 10.8429L4.52923 6.15965L3.02814 5.53963Z" fill="black"/>
<path d="M2.8321 11.3517L0.636719 10.443L2.8719 5.05405L5.06728 5.96934L2.8321 11.3517ZM1.60839 10.0252L2.43083 10.3568L4.08898 6.34077L3.26985 6.00914L1.60839 10.0252Z" fill="black"/>
<path d="M3.0645 5.52275L1.10547 10.2499L2.64035 10.886L4.59938 6.15884L3.0645 5.52275Z" fill="black"/>
<path d="M2.83872 11.3717L0.620117 10.4497L2.86193 5.03424L5.08385 5.96943L2.83872 11.3717ZM1.59179 10.0452L2.43744 10.3934L4.11217 6.35744L3.26652 6.00591L1.59179 10.0452Z" fill="black"/>
<path d="M2.89493 11.5042L0.487305 10.5093L2.80871 4.90482L5.21634 5.8997L2.89493 11.5042ZM1.72428 9.99201L2.38754 10.2639L3.97936 6.41373L3.3161 6.13848L1.72428 9.99201Z" fill="black"/>
<path d="M3.09742 11.9884L0 10.705L2.6066 4.40402L5.70402 5.68743L3.09742 11.9884ZM0.971673 10.3037L2.69283 11.0167L4.73235 6.10196L3.01119 5.38896L0.971673 10.3037ZM2.58339 10.7514L1.23698 10.1943L3.11731 5.65426L4.46704 6.2114L2.58339 10.7514Z" fill="black"/>
<path d="M20.6664 6.18417L20.0352 6.4455L21.6196 10.2725L22.2508 10.0112L20.6664 6.18417Z" fill="black"/>
<path d="M20.8695 5.69854L19.5488 6.24506L21.4179 10.7618L22.7386 10.2153L20.8695 5.69854Z" fill="black"/>
<path d="M20.9255 5.56337L19.418 6.1875L21.3652 10.8909L22.8727 10.2667L20.9255 5.56337Z" fill="black"/>
<path d="M21.1616 11.3783L18.9297 5.98931L21.1251 5.07733L23.3569 10.4696L21.1616 11.3783ZM19.9014 6.40385L21.5595 10.4199L22.3786 10.0882L20.7205 6.07553L19.9014 6.40385Z" fill="black"/>
<path d="M20.9335 5.54609L19.3984 6.18164L21.3558 10.9095L22.8909 10.274L20.9335 5.54609Z" fill="black"/>
<path d="M21.1541 11.3982L18.9023 5.96939L21.1243 5.05078L23.3661 10.4663L21.1541 11.3982ZM19.8972 6.38393L21.5554 10.4232L22.401 10.075L20.7429 6.0324L19.8972 6.38393Z" fill="black"/>
<path d="M21.0987 11.5308L18.7773 5.92625L21.185 4.93137L23.5064 10.5359L21.0987 11.5308ZM20.0176 6.43696L21.6128 10.2805L22.276 10.0086L20.6842 6.15508L20.0176 6.43696Z" fill="black"/>
<path d="M20.8927 12.0149L18.2861 5.71395L21.3836 4.43054L23.9868 10.7315L20.8927 12.0149ZM19.2644 6.12517L21.3006 11.0432L23.0218 10.3302L20.9856 5.41548L19.2644 6.12517ZM21.4101 10.768L19.5297 6.23792L20.8927 5.67747L22.7731 10.2208L21.4101 10.768Z" fill="black"/>
<path d="M14.0154 1.7435L13.7539 2.3746L17.5804 3.96036L17.8419 3.32926L14.0154 1.7435Z" fill="black"/>
<path d="M13.8167 1.25529L13.2695 2.57571L17.7853 4.44714L18.3325 3.12672L13.8167 1.25529Z" fill="black"/>
<path d="M13.7633 1.122L13.1387 2.6293L17.8413 4.57818L18.466 3.07087L13.7633 1.122Z" fill="black"/>
<path d="M18.0403 5.06734L12.6514 2.83216L13.56 0.63678L18.949 2.87196L18.0403 5.06734ZM13.623 2.43089L17.6391 4.08904L17.9707 3.26991L13.958 1.61177L13.623 2.43089Z" fill="black"/>
<path d="M13.7533 1.10355L13.1172 2.63843L17.8444 4.59746L18.4805 3.06258L13.7533 1.10355Z" fill="black"/>
<path d="M18.0473 5.08397L12.6318 2.83884L13.5538 0.620239L18.9693 2.86205L18.0473 5.08397ZM13.5969 2.43757L17.6461 4.11229L17.9976 3.26664L13.955 1.60849L13.5969 2.43757Z" fill="black"/>
<path d="M18.1036 5.21658L12.499 2.89518L13.4939 0.487549L19.0984 2.80895L18.1036 5.21658ZM13.736 2.38115L17.5763 3.9796L17.8515 3.31635L14.0113 1.72453L13.736 2.38115Z" fill="black"/>
<path d="M18.3029 5.70402L12.002 3.09742L13.2986 0L19.5996 2.6066L18.3029 5.70402ZM12.9968 2.69283L17.9083 4.73235L18.6213 3.01119L13.6999 0.971673L12.9968 2.69283ZM17.8021 4.46704L13.2655 2.58339L13.8226 1.23698L18.3659 3.12063L17.8021 4.46704Z" fill="black"/>
<path d="M17.5627 20.0403L13.7354 21.624L13.9966 22.2553L17.8239 20.6715L17.5627 20.0403Z" fill="black"/>
<path d="M17.7658 19.5487L13.249 21.4177L13.7955 22.7384L18.3123 20.8694L17.7658 19.5487Z" fill="black"/>
<path d="M17.8212 19.4218L13.1172 21.3674L13.7408 22.8752L18.4448 20.9296L17.8212 19.4218Z" fill="black"/>
<path d="M13.5399 23.3601L12.6279 21.1647L18.0202 18.9361L18.9289 21.1315L13.5399 23.3601ZM13.5963 21.556L13.9279 22.3751L17.9439 20.717L17.6123 19.8979L13.5963 21.556Z" fill="black"/>
<path d="M17.8268 19.4036L13.0986 21.3602L13.7339 22.8954L18.4621 20.9388L17.8268 19.4036Z" fill="black"/>
<path d="M13.5301 23.3799L12.6016 21.1579L18.027 18.9029L18.9489 21.1248L13.5301 23.3799ZM13.5964 21.5559L13.9281 22.4082L17.9673 20.75L17.6257 19.8977L13.5964 21.5559Z" fill="black"/>
<path d="M18.084 18.7834L19.0789 21.1911L13.4744 23.5125L12.4795 21.1015L18.084 18.7834ZM17.8419 20.6804L17.57 20.0171L13.7165 21.6156L13.9884 22.2788L17.8419 20.6804Z" fill="black"/>
<path d="M13.2656 23.9967L11.9922 20.8927L18.2931 18.2861L19.5666 21.3934L13.2656 23.9967ZM12.9572 21.3039L13.6702 23.0251L18.5949 20.9922L17.8819 19.271L12.9572 21.3039ZM13.7797 22.7597L13.2325 21.4133L17.7725 19.533L18.3296 20.8927L13.7797 22.7597Z" fill="black"/>
<path d="M21.619 13.7504L20.0332 17.5769L20.6643 17.8384L22.2501 14.012L21.619 13.7504Z" fill="black"/>
<path d="M21.4193 13.2655L19.5479 17.7813L20.8683 18.3285L22.7397 13.8127L21.4193 13.2655Z" fill="black"/>
<path d="M21.362 13.131L19.4131 17.8337L20.9204 18.4584L22.8693 13.7557L21.362 13.131Z" fill="black"/>
<path d="M21.1251 18.946L18.9297 18.0373L21.1616 12.6483L23.3569 13.557L21.1251 18.946ZM19.9014 17.6194L20.7205 17.9511L22.3786 13.935L21.5595 13.6034L19.9014 17.6194Z" fill="black"/>
<path d="M21.3545 13.1136L19.3955 17.8408L20.9304 18.4768L22.8894 13.7497L21.3545 13.1136Z" fill="black"/>
<path d="M21.1309 18.9659L18.9023 18.044L21.1475 12.6285L23.3694 13.5504L21.1309 18.9659ZM19.8972 17.6427L20.7429 17.9744L22.401 13.9351L21.5554 13.5969L19.8972 17.6427Z" fill="black"/>
<path d="M21.0984 12.4958L23.5093 13.4907L21.1879 19.0919L18.7803 18.097L21.0984 12.4958ZM22.269 14.0047L21.6058 13.7328L20.0139 17.5764L20.6772 17.8483L22.269 14.0047Z" fill="black"/>
<path d="M21.3865 19.5828L18.2891 18.2994L20.899 11.9984L23.9931 13.2818L21.3865 19.5828ZM19.2641 17.9081L20.9852 18.6211L23.0214 13.6964L21.3003 12.9834L19.2641 17.9081ZM20.8924 18.3458L19.5459 17.7887L21.4263 13.2454L22.7727 13.8058L20.8924 18.3458Z" fill="black"/>
<path d="M2.37436 13.7255L1.74316 13.9868L3.32759 17.8139L3.95879 17.5526L2.37436 13.7255Z" fill="black"/>
<path d="M2.5755 13.2424L1.25488 13.7892L3.12473 18.3056L4.44535 17.7589L2.5755 13.2424Z" fill="black"/>
<path d="M2.63155 13.1061L1.12402 13.7302L3.07126 18.4336L4.57878 17.8095L2.63155 13.1061Z" fill="black"/>
<path d="M2.86858 18.9194L0.636719 13.5305L2.8321 12.6218L5.06397 18.0108L2.86858 18.9194ZM1.60839 13.9284L3.26654 17.9444L4.08898 17.6128L2.43083 13.5968L1.60839 13.9284Z" fill="black"/>
<path d="M2.64155 13.0874L1.10645 13.723L3.06383 18.4509L4.59893 17.8153L2.64155 13.0874Z" fill="black"/>
<path d="M2.86193 18.9394L0.620117 13.5206L2.83872 12.602L5.08385 18.0175L2.86193 18.9394ZM1.59179 13.9285L3.24994 17.9677L4.09559 17.6195L2.43744 13.5769L1.59179 13.9285Z" fill="black"/>
<path d="M2.89493 12.4693L5.21634 18.0738L2.80871 19.0687L0.487305 13.4642L2.89493 12.4693ZM3.97936 17.5764L2.38091 13.7062L1.71765 13.9782L3.3161 17.835L3.97936 17.5764Z" fill="black"/>
<path d="M2.60329 19.5661L0 13.2651L3.09742 11.9817L5.7007 18.2827L2.60329 19.5661ZM0.971673 13.6697L3.00788 18.5712L4.72903 17.8582L2.69283 12.9567L0.971673 13.6697ZM3.11731 18.3125L1.23698 13.7791L2.58339 13.222L4.46373 17.762L3.11731 18.3125Z" fill="black"/>
<path d="M6.40998 20.0377L6.14844 20.6688L9.97491 22.2545L10.2365 21.6234L6.40998 20.0377Z" fill="black"/>
<path d="M6.21029 19.5493L5.66309 20.8697L10.1789 22.7411L10.7261 21.4207L6.21029 19.5493Z" fill="black"/>
<path d="M6.15493 19.4148L5.53027 20.9221L10.2329 22.871L10.8576 21.3637L6.15493 19.4148Z" fill="black"/>
<path d="M10.4329 23.3599L5.04395 21.1281L5.96919 18.9327L11.3416 21.1645L10.4329 23.3599ZM6.01562 20.7235L10.0316 22.3816L10.3633 21.5625L6.35056 19.9044L6.01562 20.7235Z" fill="black"/>
<path d="M6.1478 19.3974L5.51172 20.9323L10.2389 22.8913L10.875 21.3564L6.1478 19.3974Z" fill="black"/>
<path d="M10.4399 23.3799L5.02441 21.1347L5.94634 18.9029L11.3618 21.1579L10.4399 23.3799ZM5.9994 20.7268L10.0386 22.385L10.3902 21.5559L6.34761 19.8977L5.9994 20.7268Z" fill="black"/>
<path d="M5.88942 18.7802L11.494 21.1016L10.4991 23.5092L4.89453 21.1878L5.88942 18.7802ZM10.257 21.6156L6.40344 20.0171L6.12819 20.6804L9.98172 22.2755L10.257 21.6156Z" fill="black"/>
<path d="M10.6984 23.9999L4.39746 21.39L5.68087 18.2959L11.9818 20.9025L10.6984 23.9999ZM5.39235 20.9887L10.2806 23.0249L10.9936 21.3038L6.09209 19.2676L5.39235 20.9887ZM10.1977 22.7596L5.63775 20.8926L6.20152 19.5329L10.7415 21.4132L10.1977 22.7596Z" fill="black"/>
</svg>
