<svg width="29" height="28" viewBox="0 0 29 28" fill="none" xmlns="http://www.w3.org/2000/svg">
<circle cx="14.5" cy="14" r="14" fill="#00E599"/>
<path d="M8.13147 19V17.516H10.3575V11.174L8.63547 12.21L7.93547 10.894L10.8755 9.13H12.1495V17.516H14.2355V19H8.13147ZM19.2 19.14C18.0333 19.14 17.142 18.7013 16.526 17.824C15.91 16.9373 15.602 15.6773 15.602 14.044C15.602 12.392 15.91 11.1367 16.526 10.278C17.142 9.41933 18.0333 8.99 19.2 8.99C20.376 8.99 21.2673 9.41933 21.874 10.278C22.49 11.1367 22.798 12.3873 22.798 14.03C22.798 15.6727 22.49 16.9373 21.874 17.824C21.258 18.7013 20.3667 19.14 19.2 19.14ZM19.2 17.67C19.8347 17.67 20.3013 17.3807 20.6 16.802C20.908 16.214 21.062 15.29 21.062 14.03C21.062 12.7793 20.908 11.874 20.6 11.314C20.3013 10.7447 19.8347 10.46 19.2 10.46C18.5747 10.46 18.108 10.7447 17.8 11.314C17.492 11.874 17.338 12.7793 17.338 14.03C17.338 15.29 17.492 16.214 17.8 16.802C18.108 17.3807 18.5747 17.67 19.2 17.67Z" fill="#000033"/>
</svg>
