<svg width="29" height="28" viewBox="0 0 29 28" fill="none" xmlns="http://www.w3.org/2000/svg">
<circle cx="14.5" cy="14" r="14" fill="#00E599"/>
<path d="M8.13147 19V17.516H10.3575V11.174L8.63547 12.21L7.93547 10.894L10.8755 9.13H12.1495V17.516H14.2355V19H8.13147ZM16.12 19V17.67L19.312 14.268C19.7413 13.8013 20.0493 13.3907 20.236 13.036C20.4227 12.672 20.516 12.3033 20.516 11.93C20.516 10.978 19.942 10.502 18.794 10.502C17.898 10.502 17.072 10.838 16.316 11.51L15.714 10.166C16.106 9.81133 16.596 9.52667 17.184 9.312C17.772 9.09733 18.3833 8.99 19.018 8.99C20.0727 8.99 20.88 9.228 21.44 9.704C22.0093 10.18 22.294 10.8613 22.294 11.748C22.294 12.3453 22.1493 12.9193 21.86 13.47C21.58 14.0207 21.1367 14.6133 20.53 15.248L18.36 17.516H22.672V19H16.12Z" fill="#000033"/>
</svg>
