<svg width="29" height="28" viewBox="0 0 29 28" fill="none" xmlns="http://www.w3.org/2000/svg">
<circle cx="14.5" cy="14" r="14" fill="#00E599"/>
<path d="M8.13147 19V17.516H10.3575V11.174L8.63547 12.21L7.93547 10.894L10.8755 9.13H12.1495V17.516H14.2355V19H8.13147ZM19.004 19.14C18.332 19.14 17.688 19.042 17.072 18.846C16.4653 18.6407 15.9613 18.3653 15.56 18.02L16.148 16.648C16.988 17.3013 17.9213 17.628 18.948 17.628C20.208 17.628 20.838 17.1333 20.838 16.144C20.838 15.6773 20.6793 15.332 20.362 15.108C20.054 14.8747 19.6013 14.758 19.004 14.758H17.422V13.274H18.836C19.3587 13.274 19.774 13.148 20.082 12.896C20.39 12.6347 20.544 12.2753 20.544 11.818C20.544 11.3887 20.3993 11.062 20.11 10.838C19.83 10.614 19.4193 10.502 18.878 10.502C17.9073 10.502 17.0533 10.838 16.316 11.51L15.728 10.166C16.12 9.79267 16.61 9.50333 17.198 9.298C17.786 9.09267 18.3973 8.99 19.032 8.99C20.0587 8.99 20.8567 9.22333 21.426 9.69C21.9953 10.1473 22.28 10.7867 22.28 11.608C22.28 12.14 22.1447 12.6067 21.874 13.008C21.6033 13.4093 21.2347 13.6987 20.768 13.876C21.3373 14.0347 21.7807 14.3287 22.098 14.758C22.4153 15.178 22.574 15.6913 22.574 16.298C22.574 17.1753 22.2567 17.8707 21.622 18.384C20.9873 18.888 20.1147 19.14 19.004 19.14Z" fill="#000033"/>
</svg>
