<svg width="28" height="29" viewBox="0 0 28 29" fill="none" xmlns="http://www.w3.org/2000/svg">
<circle cx="14" cy="14.5" r="14" fill="#00E599"/>
<path d="M10.9227 20V18.67L14.1147 15.268C14.5441 14.8013 14.8521 14.3907 15.0387 14.036C15.2254 13.672 15.3187 13.3033 15.3187 12.93C15.3187 11.978 14.7447 11.502 13.5967 11.502C12.7007 11.502 11.8747 11.838 11.1187 12.51L10.5167 11.166C10.9087 10.8113 11.3987 10.5267 11.9867 10.312C12.5747 10.0973 13.1861 9.99 13.8207 9.99C14.8754 9.99 15.6827 10.228 16.2427 10.704C16.8121 11.18 17.0967 11.8613 17.0967 12.748C17.0967 13.3453 16.9521 13.9193 16.6627 14.47C16.3827 15.0207 15.9394 15.6133 15.3327 16.248L13.1627 18.516H17.4747V20H10.9227Z" fill="#000033"/>
</svg>
