<svg width="29" height="29" viewBox="0 0 29 29" fill="none" xmlns="http://www.w3.org/2000/svg">
<circle cx="14.5" cy="14.5" r="14" fill="#00E599"/>
<path d="M14.8067 20.14C14.1347 20.14 13.4907 20.042 12.8747 19.846C12.2681 19.6407 11.7641 19.3653 11.3627 19.02L11.9507 17.648C12.7907 18.3013 13.7241 18.628 14.7507 18.628C16.0107 18.628 16.6407 18.1333 16.6407 17.144C16.6407 16.6773 16.4821 16.332 16.1647 16.108C15.8567 15.8747 15.4041 15.758 14.8067 15.758H13.2247V14.274H14.6387C15.1614 14.274 15.5767 14.148 15.8847 13.896C16.1927 13.6347 16.3467 13.2753 16.3467 12.818C16.3467 12.3887 16.2021 12.062 15.9127 11.838C15.6327 11.614 15.2221 11.502 14.6807 11.502C13.7101 11.502 12.8561 11.838 12.1187 12.51L11.5307 11.166C11.9227 10.7927 12.4127 10.5033 13.0007 10.298C13.5887 10.0927 14.2001 9.99 14.8347 9.99C15.8614 9.99 16.6594 10.2233 17.2287 10.69C17.7981 11.1473 18.0827 11.7867 18.0827 12.608C18.0827 13.14 17.9474 13.6067 17.6767 14.008C17.4061 14.4093 17.0374 14.6987 16.5707 14.876C17.1401 15.0347 17.5834 15.3287 17.9007 15.758C18.2181 16.178 18.3767 16.6913 18.3767 17.298C18.3767 18.1753 18.0594 18.8707 17.4247 19.384C16.7901 19.888 15.9174 20.14 14.8067 20.14Z" fill="#000033"/>
</svg>
