<svg width="29" height="28" viewBox="0 0 29 28" fill="none" xmlns="http://www.w3.org/2000/svg">
<circle cx="14.5" cy="14" r="14" fill="#00E599"/>
<path d="M15.0867 19.14C14.4427 19.14 13.8174 19.042 13.2107 18.846C12.6041 18.6407 12.1094 18.3653 11.7267 18.02L12.3147 16.648C13.1641 17.3013 14.0787 17.628 15.0587 17.628C15.6467 17.628 16.1041 17.4787 16.4307 17.18C16.7667 16.872 16.9347 16.4613 16.9347 15.948C16.9347 15.4253 16.7761 15.0053 16.4587 14.688C16.1414 14.3613 15.7074 14.198 15.1567 14.198C14.3727 14.198 13.7241 14.5107 13.2107 15.136H12.0067V9.13H18.0687V10.614H13.7567V13.288C14.2514 12.9147 14.8581 12.728 15.5767 12.728C16.2021 12.728 16.7434 12.8633 17.2007 13.134C17.6674 13.3953 18.0267 13.764 18.2787 14.24C18.5401 14.7067 18.6707 15.2527 18.6707 15.878C18.6707 16.522 18.5261 17.0913 18.2367 17.586C17.9474 18.0713 17.5321 18.454 16.9907 18.734C16.4587 19.0047 15.8241 19.14 15.0867 19.14Z" fill="#000033"/>
</svg>
