<svg width="29" height="28" viewBox="0 0 29 28" fill="none" xmlns="http://www.w3.org/2000/svg">
<circle cx="14.5" cy="14" r="14" fill="#00E599"/>
<path d="M14.3667 19.14C13.1441 19.14 12.1967 18.7107 11.5247 17.852C10.8621 16.9933 10.5307 15.7893 10.5307 14.24C10.5307 12.5693 10.9041 11.2767 11.6507 10.362C12.4067 9.44733 13.4474 8.99 14.7727 8.99C15.2954 8.99 15.8134 9.088 16.3267 9.284C16.8401 9.47067 17.2787 9.74133 17.6427 10.096L17.0547 11.44C16.7094 11.1227 16.3407 10.8893 15.9487 10.74C15.5567 10.5813 15.1554 10.502 14.7447 10.502C13.9327 10.502 13.3121 10.7867 12.8827 11.356C12.4534 11.9253 12.2387 12.7747 12.2387 13.904V14.31C12.4347 13.7967 12.7521 13.3953 13.1907 13.106C13.6294 12.8167 14.1334 12.672 14.7027 12.672C15.2721 12.672 15.7761 12.8073 16.2147 13.078C16.6534 13.3487 16.9987 13.722 17.2507 14.198C17.5027 14.674 17.6287 15.22 17.6287 15.836C17.6287 16.4707 17.4887 17.04 17.2087 17.544C16.9381 18.0387 16.5554 18.4307 16.0607 18.72C15.5754 19 15.0107 19.14 14.3667 19.14ZM14.2687 17.712C14.7727 17.712 15.1787 17.5487 15.4867 17.222C15.8041 16.886 15.9627 16.4473 15.9627 15.906C15.9627 15.3647 15.8041 14.926 15.4867 14.59C15.1787 14.254 14.7727 14.086 14.2687 14.086C13.7647 14.086 13.3541 14.254 13.0367 14.59C12.7287 14.926 12.5747 15.3647 12.5747 15.906C12.5747 16.4473 12.7287 16.886 13.0367 17.222C13.3541 17.5487 13.7647 17.712 14.2687 17.712Z" fill="#000033"/>
</svg>
