<svg width="29" height="28" viewBox="0 0 29 28" fill="none" xmlns="http://www.w3.org/2000/svg">
<circle cx="14.5" cy="14" r="14" fill="#00E599"/>
<path d="M15.0027 19.14C13.8547 19.14 12.9541 18.8927 12.3007 18.398C11.6567 17.9033 11.3347 17.2173 11.3347 16.34C11.3347 15.7427 11.4887 15.234 11.7967 14.814C12.1141 14.394 12.5247 14.1 13.0287 13.932C12.5807 13.736 12.2261 13.4373 11.9647 13.036C11.7127 12.6347 11.5867 12.1727 11.5867 11.65C11.5867 10.8193 11.8947 10.1707 12.5107 9.704C13.1267 9.228 13.9574 8.99 15.0027 8.99C16.0574 8.99 16.8927 9.228 17.5087 9.704C18.1247 10.1707 18.4327 10.8193 18.4327 11.65C18.4327 12.1727 18.3021 12.6393 18.0407 13.05C17.7887 13.4513 17.4434 13.7453 17.0047 13.932C17.5087 14.1 17.9101 14.3987 18.2087 14.828C18.5167 15.248 18.6707 15.752 18.6707 16.34C18.6707 17.2173 18.3441 17.9033 17.6907 18.398C17.0467 18.8927 16.1507 19.14 15.0027 19.14ZM15.0027 13.302C15.5534 13.302 15.9827 13.1713 16.2907 12.91C16.6081 12.6487 16.7667 12.2893 16.7667 11.832C16.7667 11.384 16.6081 11.034 16.2907 10.782C15.9827 10.5207 15.5534 10.39 15.0027 10.39C14.4521 10.39 14.0227 10.5207 13.7147 10.782C13.4067 11.034 13.2527 11.384 13.2527 11.832C13.2527 12.2893 13.4067 12.6487 13.7147 12.91C14.0227 13.1713 14.4521 13.302 15.0027 13.302ZM15.0027 17.74C16.3374 17.74 17.0047 17.2313 17.0047 16.214C17.0047 15.206 16.3374 14.702 15.0027 14.702C14.3494 14.702 13.8501 14.828 13.5047 15.08C13.1687 15.332 13.0007 15.71 13.0007 16.214C13.0007 16.718 13.1687 17.1007 13.5047 17.362C13.8501 17.614 14.3494 17.74 15.0027 17.74Z" fill="#000033"/>
</svg>
