<svg width="29" height="28" viewBox="0 0 29 28" fill="none" xmlns="http://www.w3.org/2000/svg">
<circle cx="14.5" cy="14" r="14" fill="#00E599"/>
<path d="M14.2467 19.14C13.7241 19.14 13.2061 19.042 12.6927 18.846C12.1794 18.6407 11.7361 18.3653 11.3627 18.02L11.9647 16.676C12.3007 16.9933 12.6647 17.2313 13.0567 17.39C13.4581 17.5487 13.8594 17.628 14.2607 17.628C15.0821 17.628 15.7074 17.3433 16.1367 16.774C16.5661 16.2047 16.7807 15.3553 16.7807 14.226V13.806C16.5941 14.3193 16.2814 14.7253 15.8427 15.024C15.4041 15.3133 14.8907 15.458 14.3027 15.458C13.7427 15.458 13.2434 15.3227 12.8047 15.052C12.3661 14.7813 12.0161 14.408 11.7547 13.932C11.5027 13.4467 11.3767 12.9007 11.3767 12.294C11.3767 11.65 11.5167 11.0807 11.7967 10.586C12.0767 10.0913 12.4594 9.704 12.9447 9.424C13.4394 9.13467 14.0041 8.99 14.6387 8.99C15.8707 8.99 16.8181 9.41933 17.4807 10.278C18.1434 11.1273 18.4747 12.3313 18.4747 13.89C18.4747 15.5513 18.1014 16.844 17.3547 17.768C16.6081 18.6827 15.5721 19.14 14.2467 19.14ZM14.7507 14.03C15.2547 14.03 15.6607 13.8667 15.9687 13.54C16.2861 13.204 16.4447 12.7653 16.4447 12.224C16.4447 11.6827 16.2861 11.244 15.9687 10.908C15.6607 10.572 15.2547 10.404 14.7507 10.404C14.2467 10.404 13.8361 10.572 13.5187 10.908C13.2107 11.244 13.0567 11.6827 13.0567 12.224C13.0567 12.7653 13.2107 13.204 13.5187 13.54C13.8361 13.8667 14.2467 14.03 14.7507 14.03Z" fill="#000033"/>
</svg>
