<svg width="364" height="448" viewBox="0 0 364 448" fill="none" xmlns="http://www.w3.org/2000/svg">
<g filter="url(#filter0_dd)">
<path fill-rule="evenodd" clip-rule="evenodd" d="M274.5 96L319.533 122V174L274.5 200L229.467 174V122L274.5 96Z" fill="#F0F5F6"/>
</g>
<path d="M25 221.5L273.5 222" stroke="#00E599" stroke-width="2" stroke-dasharray="7 7"/>
<path d="M60.5 221.5L60 93" stroke="#00E599" stroke-width="2" stroke-dasharray="7 7"/>
<path d="M215.5 349.5L215 221" stroke="#00E599" stroke-width="2" stroke-dasharray="7 7"/>
<path d="M163 222V192.5" stroke="#00E599" stroke-width="2" stroke-dasharray="7 7"/>
<path d="M112 252V222.5" stroke="#00E599" stroke-width="2" stroke-dasharray="7 7"/>
<path d="M273.5 222H363.5" stroke="#00E599" stroke-width="2" stroke-linecap="round" stroke-linejoin="bevel" stroke-dasharray="0 2"/>
<g filter="url(#filter1_dd)">
<path fill-rule="evenodd" clip-rule="evenodd" d="M60 10L94.641 30V70L60 90L25.359 70V30L60 10Z" fill="#F0F5F6"/>
</g>
<circle cx="59.5" cy="38.5" r="6" fill="#00E599"/>
<path fill-rule="evenodd" clip-rule="evenodd" d="M59.5348 32.9293C56.4474 32.9293 53.9361 35.4406 53.9361 38.528C53.9361 41.6154 56.4474 44.1267 59.5348 44.1267C62.6221 44.1267 65.1335 41.6154 65.1335 38.528C65.1335 35.4406 62.6221 32.9293 59.5348 32.9293ZM59.5348 46.5589C55.1068 46.5589 51.5039 42.956 51.5039 38.528C51.5039 34.1 55.1068 30.5 59.5348 30.5C63.9628 30.5 67.5642 34.1 67.5642 38.528C67.5642 42.956 63.9628 46.5589 59.5348 46.5589Z" fill="#000033"/>
<path fill-rule="evenodd" clip-rule="evenodd" d="M52.3862 48.3081L47.3909 50.242C46.5182 50.5789 45.9307 51.4372 45.9307 52.3732V63.7953C45.9307 65.4282 47.257 66.7545 48.8885 66.7545H70.1818C71.8118 66.7545 73.1381 65.4282 73.1381 63.7953V52.3732C73.1381 51.4372 72.552 50.5789 71.6779 50.242L66.684 48.3081L60.587 58.8834C60.1536 59.6365 58.9152 59.6365 58.4818 58.8834L52.3862 48.3081ZM70.1818 69.1852H48.8885C45.9178 69.1852 43.5 66.766 43.5 63.7953V52.3732C43.5 50.4393 44.711 48.6709 46.5139 47.9754L52.4798 45.6657C53.04 45.4525 53.6736 45.6729 53.9717 46.1913L59.5344 55.8421L65.0986 46.1913C65.3966 45.6714 66.0288 45.4497 66.589 45.6657L72.5549 47.9754C74.3578 48.6709 75.5702 50.4393 75.5702 52.3732V63.7953C75.5702 66.766 73.1525 69.1852 70.1818 69.1852Z" fill="#000033"/>
<g filter="url(#filter2_dd)">
<path fill-rule="evenodd" clip-rule="evenodd" d="M163 112L197.641 132V172L163 192L128.359 172V132L163 112Z" fill="#F0F5F6"/>
</g>
<circle cx="162.5" cy="140.5" r="6" fill="#00E599"/>
<path fill-rule="evenodd" clip-rule="evenodd" d="M162.535 134.929C159.447 134.929 156.936 137.441 156.936 140.528C156.936 143.615 159.447 146.127 162.535 146.127C165.622 146.127 168.134 143.615 168.134 140.528C168.134 137.441 165.622 134.929 162.535 134.929ZM162.535 148.559C158.107 148.559 154.504 144.956 154.504 140.528C154.504 136.1 158.107 132.5 162.535 132.5C166.963 132.5 170.564 136.1 170.564 140.528C170.564 144.956 166.963 148.559 162.535 148.559Z" fill="#000033"/>
<path fill-rule="evenodd" clip-rule="evenodd" d="M155.386 150.308L150.391 152.242C149.518 152.579 148.931 153.437 148.931 154.373V165.795C148.931 167.428 150.257 168.754 151.888 168.754H173.182C174.812 168.754 176.138 167.428 176.138 165.795V154.373C176.138 153.437 175.552 152.579 174.678 152.242L169.684 150.308L163.587 160.883C163.154 161.637 161.915 161.637 161.482 160.883L155.386 150.308ZM173.182 171.185H151.888C148.918 171.185 146.5 168.766 146.5 165.795V154.373C146.5 152.439 147.711 150.671 149.514 149.975L155.48 147.666C156.04 147.453 156.674 147.673 156.972 148.191L162.534 157.842L168.099 148.191C168.397 147.671 169.029 147.45 169.589 147.666L175.555 149.975C177.358 150.671 178.57 152.439 178.57 154.373V165.795C178.57 168.766 176.152 171.185 173.182 171.185Z" fill="#000033"/>
<g filter="url(#filter3_dd)">
<path fill-rule="evenodd" clip-rule="evenodd" d="M215 349L249.641 369V409L215 429L180.359 409V369L215 349Z" fill="#F0F5F6"/>
</g>
<circle cx="214.5" cy="377.5" r="6" fill="#00E599"/>
<path fill-rule="evenodd" clip-rule="evenodd" d="M214.535 371.929C211.447 371.929 208.936 374.441 208.936 377.528C208.936 380.615 211.447 383.127 214.535 383.127C217.622 383.127 220.134 380.615 220.134 377.528C220.134 374.441 217.622 371.929 214.535 371.929ZM214.535 385.559C210.107 385.559 206.504 381.956 206.504 377.528C206.504 373.1 210.107 369.5 214.535 369.5C218.963 369.5 222.564 373.1 222.564 377.528C222.564 381.956 218.963 385.559 214.535 385.559Z" fill="#000033"/>
<path fill-rule="evenodd" clip-rule="evenodd" d="M207.386 387.308L202.391 389.242C201.518 389.579 200.931 390.437 200.931 391.373V402.795C200.931 404.428 202.257 405.754 203.888 405.754H225.182C226.812 405.754 228.138 404.428 228.138 402.795V391.373C228.138 390.437 227.552 389.579 226.678 389.242L221.684 387.308L215.587 397.883C215.154 398.637 213.915 398.637 213.482 397.883L207.386 387.308ZM225.182 408.185H203.888C200.918 408.185 198.5 405.766 198.5 402.795V391.373C198.5 389.439 199.711 387.671 201.514 386.975L207.48 384.666C208.04 384.453 208.674 384.673 208.972 385.191L214.534 394.842L220.099 385.191C220.397 384.671 221.029 384.45 221.589 384.666L227.555 386.975C229.358 387.671 230.57 389.439 230.57 391.373V402.795C230.57 405.766 228.152 408.185 225.182 408.185Z" fill="#000033"/>
<g filter="url(#filter4_dd)">
<path fill-rule="evenodd" clip-rule="evenodd" d="M110.5 261L145.141 281V321L110.5 341L75.859 321V281L110.5 261Z" fill="#F0F5F6"/>
</g>
<circle cx="110" cy="289.5" r="6" fill="#00E599"/>
<path fill-rule="evenodd" clip-rule="evenodd" d="M110.035 283.929C106.947 283.929 104.436 286.441 104.436 289.528C104.436 292.615 106.947 295.127 110.035 295.127C113.122 295.127 115.634 292.615 115.634 289.528C115.634 286.441 113.122 283.929 110.035 283.929ZM110.035 297.559C105.607 297.559 102.004 293.956 102.004 289.528C102.004 285.1 105.607 281.5 110.035 281.5C114.463 281.5 118.064 285.1 118.064 289.528C118.064 293.956 114.463 297.559 110.035 297.559Z" fill="#000033"/>
<path fill-rule="evenodd" clip-rule="evenodd" d="M102.886 299.308L97.8909 301.242C97.0182 301.579 96.4307 302.437 96.4307 303.373V314.795C96.4307 316.428 97.757 317.754 99.3885 317.754H120.682C122.312 317.754 123.638 316.428 123.638 314.795V303.373C123.638 302.437 123.052 301.579 122.178 301.242L117.184 299.308L111.087 309.883C110.654 310.637 109.415 310.637 108.982 309.883L102.886 299.308ZM120.682 320.185H99.3885C96.4178 320.185 94 317.766 94 314.795V303.373C94 301.439 95.211 299.671 97.0139 298.975L102.98 296.666C103.54 296.453 104.174 296.673 104.472 297.191L110.034 306.842L115.599 297.191C115.897 296.671 116.529 296.45 117.089 296.666L123.055 298.975C124.858 299.671 126.07 301.439 126.07 303.373V314.795C126.07 317.766 123.652 320.185 120.682 320.185Z" fill="#000033"/>
<circle cx="271.5" cy="222.5" r="9.5" fill="#00E599"/>
<circle cx="215" cy="221.5" r="5.5" fill="white" stroke="#00E599" stroke-width="2"/>
<circle cx="163" cy="221.5" r="5.5" fill="white" stroke="#00E599" stroke-width="2"/>
<circle cx="112" cy="221.5" r="5.5" fill="white" stroke="#00E599" stroke-width="2"/>
<circle cx="60.5" cy="221.5" r="5.5" fill="white" stroke="#00E599" stroke-width="2"/>
<rect x="248.5" y="123" width="51" height="51" stroke="#000033" stroke-width="2"/>
<path d="M273.986 160.801H266.922L261.245 150.489L259.921 147.651H259.858L259.984 151.782V160.801H254.37V139.987H261.403L267.08 150.3L268.436 153.138H268.467L268.341 149.007V139.987H273.986V160.801ZM285.438 139.672C287.898 139.672 289.801 140.197 291.147 141.249C292.492 142.3 293.165 143.772 293.165 145.664C293.165 146.778 292.923 147.682 292.44 148.376C291.956 149.07 291.399 149.564 290.768 149.858C290.158 150.152 289.654 150.3 289.254 150.3V150.426C289.759 150.426 290.337 150.552 290.989 150.804C291.662 151.035 292.261 151.509 292.787 152.223C293.312 152.917 293.575 153.874 293.575 155.093C293.575 156.292 293.207 157.353 292.471 158.278C291.756 159.183 290.758 159.887 289.475 160.391C288.214 160.875 286.795 161.117 285.218 161.117C282.821 161.117 280.929 160.707 279.541 159.887C278.175 159.067 277.218 157.732 276.671 155.882L282.474 153.453C282.495 154.484 282.737 155.219 283.199 155.661C283.662 156.081 284.282 156.292 285.06 156.292C285.775 156.292 286.343 156.123 286.763 155.787C287.184 155.451 287.394 154.957 287.394 154.305C287.394 153.653 287.194 153.169 286.795 152.854C286.395 152.539 285.764 152.381 284.902 152.381H283.609V148.565H284.587C285.407 148.565 286.006 148.407 286.385 148.092C286.763 147.756 286.963 147.241 286.984 146.547C286.984 145.895 286.805 145.39 286.448 145.033C286.09 144.676 285.607 144.497 284.997 144.497C283.483 144.497 282.695 145.401 282.632 147.209L277.05 145.411C277.575 141.585 280.372 139.672 285.438 139.672Z" fill="url(#paint0_linear)"/>
<path d="M273.986 160.801H266.922L261.245 150.489L259.921 147.651H259.858L259.984 151.782V160.801H254.37V139.987H261.403L267.08 150.3L268.436 153.138H268.467L268.341 149.007V139.987H273.986V160.801ZM285.438 139.672C287.898 139.672 289.801 140.197 291.147 141.249C292.492 142.3 293.165 143.772 293.165 145.664C293.165 146.778 292.923 147.682 292.44 148.376C291.956 149.07 291.399 149.564 290.768 149.858C290.158 150.152 289.654 150.3 289.254 150.3V150.426C289.759 150.426 290.337 150.552 290.989 150.804C291.662 151.035 292.261 151.509 292.787 152.223C293.312 152.917 293.575 153.874 293.575 155.093C293.575 156.292 293.207 157.353 292.471 158.278C291.756 159.183 290.758 159.887 289.475 160.391C288.214 160.875 286.795 161.117 285.218 161.117C282.821 161.117 280.929 160.707 279.541 159.887C278.175 159.067 277.218 157.732 276.671 155.882L282.474 153.453C282.495 154.484 282.737 155.219 283.199 155.661C283.662 156.081 284.282 156.292 285.06 156.292C285.775 156.292 286.343 156.123 286.763 155.787C287.184 155.451 287.394 154.957 287.394 154.305C287.394 153.653 287.194 153.169 286.795 152.854C286.395 152.539 285.764 152.381 284.902 152.381H283.609V148.565H284.587C285.407 148.565 286.006 148.407 286.385 148.092C286.763 147.756 286.963 147.241 286.984 146.547C286.984 145.895 286.805 145.39 286.448 145.033C286.09 144.676 285.607 144.497 284.997 144.497C283.483 144.497 282.695 145.401 282.632 147.209L277.05 145.411C277.575 141.585 280.372 139.672 285.438 139.672Z" fill="#000033"/>
<defs>
<filter id="filter0_dd" x="195.467" y="96" width="126.067" height="141" filterUnits="userSpaceOnUse" color-interpolation-filters="sRGB">
<feFlood flood-opacity="0" result="BackgroundImageFix"/>
<feColorMatrix in="SourceAlpha" type="matrix" values="0 0 0 0 0 0 0 0 0 0 0 0 0 0 0 0 0 0 127 0"/>
<feOffset dx="-17" dy="20"/>
<feGaussianBlur stdDeviation="8.5"/>
<feColorMatrix type="matrix" values="0 0 0 0 0.316369 0 0 0 0 0.366988 0 0 0 0 0.353496 0 0 0 0.25741 0"/>
<feBlend mode="normal" in2="BackgroundImageFix" result="effect1_dropShadow"/>
<feColorMatrix in="SourceAlpha" type="matrix" values="0 0 0 0 0 0 0 0 0 0 0 0 0 0 0 0 0 0 127 0"/>
<feOffset dx="-5" dy="10"/>
<feGaussianBlur stdDeviation="3.5"/>
<feColorMatrix type="matrix" values="0 0 0 0 0 0 0 0 0 0 0 0 0 0 0 0 0 0 0.144615 0"/>
<feBlend mode="normal" in2="effect1_dropShadow" result="effect2_dropShadow"/>
<feBlend mode="normal" in="SourceGraphic" in2="effect2_dropShadow" result="shape"/>
</filter>
<filter id="filter1_dd" x="0.359375" y="0" width="102.282" height="109" filterUnits="userSpaceOnUse" color-interpolation-filters="sRGB">
<feFlood flood-opacity="0" result="BackgroundImageFix"/>
<feColorMatrix in="SourceAlpha" type="matrix" values="0 0 0 0 0 0 0 0 0 0 0 0 0 0 0 0 0 0 127 0"/>
<feOffset dx="-13" dy="7"/>
<feGaussianBlur stdDeviation="6"/>
<feColorMatrix type="matrix" values="0 0 0 0 0.316369 0 0 0 0 0.366988 0 0 0 0 0.353496 0 0 0 0.25741 0"/>
<feBlend mode="normal" in2="BackgroundImageFix" result="effect1_dropShadow"/>
<feColorMatrix in="SourceAlpha" type="matrix" values="0 0 0 0 0 0 0 0 0 0 0 0 0 0 0 0 0 0 127 0"/>
<feOffset dx="-4" dy="2"/>
<feGaussianBlur stdDeviation="6"/>
<feColorMatrix type="matrix" values="0 0 0 0 0 0 0 0 0 0 0 0 0 0 0 0 0 0 0.144615 0"/>
<feBlend mode="normal" in2="effect1_dropShadow" result="effect2_dropShadow"/>
<feBlend mode="normal" in="SourceGraphic" in2="effect2_dropShadow" result="shape"/>
</filter>
<filter id="filter2_dd" x="103.359" y="102" width="102.282" height="109" filterUnits="userSpaceOnUse" color-interpolation-filters="sRGB">
<feFlood flood-opacity="0" result="BackgroundImageFix"/>
<feColorMatrix in="SourceAlpha" type="matrix" values="0 0 0 0 0 0 0 0 0 0 0 0 0 0 0 0 0 0 127 0"/>
<feOffset dx="-13" dy="7"/>
<feGaussianBlur stdDeviation="6"/>
<feColorMatrix type="matrix" values="0 0 0 0 0.316369 0 0 0 0 0.366988 0 0 0 0 0.353496 0 0 0 0.25741 0"/>
<feBlend mode="normal" in2="BackgroundImageFix" result="effect1_dropShadow"/>
<feColorMatrix in="SourceAlpha" type="matrix" values="0 0 0 0 0 0 0 0 0 0 0 0 0 0 0 0 0 0 127 0"/>
<feOffset dx="-4" dy="2"/>
<feGaussianBlur stdDeviation="6"/>
<feColorMatrix type="matrix" values="0 0 0 0 0 0 0 0 0 0 0 0 0 0 0 0 0 0 0.144615 0"/>
<feBlend mode="normal" in2="effect1_dropShadow" result="effect2_dropShadow"/>
<feBlend mode="normal" in="SourceGraphic" in2="effect2_dropShadow" result="shape"/>
</filter>
<filter id="filter3_dd" x="155.359" y="339" width="102.282" height="109" filterUnits="userSpaceOnUse" color-interpolation-filters="sRGB">
<feFlood flood-opacity="0" result="BackgroundImageFix"/>
<feColorMatrix in="SourceAlpha" type="matrix" values="0 0 0 0 0 0 0 0 0 0 0 0 0 0 0 0 0 0 127 0"/>
<feOffset dx="-13" dy="7"/>
<feGaussianBlur stdDeviation="6"/>
<feColorMatrix type="matrix" values="0 0 0 0 0.316369 0 0 0 0 0.366988 0 0 0 0 0.353496 0 0 0 0.25741 0"/>
<feBlend mode="normal" in2="BackgroundImageFix" result="effect1_dropShadow"/>
<feColorMatrix in="SourceAlpha" type="matrix" values="0 0 0 0 0 0 0 0 0 0 0 0 0 0 0 0 0 0 127 0"/>
<feOffset dx="-4" dy="2"/>
<feGaussianBlur stdDeviation="6"/>
<feColorMatrix type="matrix" values="0 0 0 0 0 0 0 0 0 0 0 0 0 0 0 0 0 0 0.144615 0"/>
<feBlend mode="normal" in2="effect1_dropShadow" result="effect2_dropShadow"/>
<feBlend mode="normal" in="SourceGraphic" in2="effect2_dropShadow" result="shape"/>
</filter>
<filter id="filter4_dd" x="50.8594" y="251" width="102.282" height="109" filterUnits="userSpaceOnUse" color-interpolation-filters="sRGB">
<feFlood flood-opacity="0" result="BackgroundImageFix"/>
<feColorMatrix in="SourceAlpha" type="matrix" values="0 0 0 0 0 0 0 0 0 0 0 0 0 0 0 0 0 0 127 0"/>
<feOffset dx="-13" dy="7"/>
<feGaussianBlur stdDeviation="6"/>
<feColorMatrix type="matrix" values="0 0 0 0 0.316369 0 0 0 0 0.366988 0 0 0 0 0.353496 0 0 0 0.25741 0"/>
<feBlend mode="normal" in2="BackgroundImageFix" result="effect1_dropShadow"/>
<feColorMatrix in="SourceAlpha" type="matrix" values="0 0 0 0 0 0 0 0 0 0 0 0 0 0 0 0 0 0 127 0"/>
<feOffset dx="-4" dy="2"/>
<feGaussianBlur stdDeviation="6"/>
<feColorMatrix type="matrix" values="0 0 0 0 0 0 0 0 0 0 0 0 0 0 0 0 0 0 0.144615 0"/>
<feBlend mode="normal" in2="effect1_dropShadow" result="effect2_dropShadow"/>
<feBlend mode="normal" in="SourceGraphic" in2="effect2_dropShadow" result="shape"/>
</filter>
<linearGradient id="paint0_linear" x1="300.186" y1="159.345" x2="301.996" y2="134.265" gradientUnits="userSpaceOnUse">
<stop stop-color="#000332"/>
<stop offset="0.243781" stop-color="#50B0AE"/>
<stop offset="0.78496" stop-color="#25D29C"/>
<stop offset="1" stop-color="#66E494"/>
</linearGradient>
</defs>
</svg>
