<svg width="50" height="50" viewBox="0 0 50 50" fill="none" xmlns="http://www.w3.org/2000/svg">
<path d="M45.8494 50H4.17128C3.62399 50.0014 3.08181 49.8948 2.57579 49.6863C2.06977 49.4779 1.60985 49.1717 1.22238 48.7853C0.834907 48.3989 0.527492 47.9398 0.31774 47.4345C0.107988 46.9291 2.11255e-05 46.3874 2.28132e-05 45.8402V4.17355C-0.00179037 3.62612 0.104497 3.08372 0.312791 2.57744C0.521085 2.07117 0.827289 1.61097 1.21385 1.22324C1.6004 0.835505 2.05971 0.527866 2.56544 0.317957C3.07117 0.108048 3.61336 -3.00108e-06 4.16094 0H45.8391C46.3855 0 46.9265 0.107596 47.4314 0.316644C47.9362 0.525693 48.3949 0.8321 48.7813 1.21837C49.1677 1.60464 49.4741 2.06321 49.6833 2.5679C49.8924 3.07259 50 3.61351 50 4.15978V45.8264C50.0018 46.373 49.8959 46.9146 49.6882 47.4202C49.4806 47.9258 49.1753 48.3855 48.7898 48.7731C48.4043 49.1607 47.9463 49.4686 47.4417 49.6791C46.9372 49.8896 46.3961 49.9986 45.8494 50Z" fill="#000023"/>
<path d="M37.6824 22.4193L27.6934 12.4331C27.1364 11.8834 26.3853 11.5752 25.6026 11.5752C24.82 11.5752 24.0688 11.8834 23.5118 12.4331L9.3895 26.5516L16.2612 33.4352L20.4635 37.6363L25.6302 32.471L30.7969 37.6363L41.8709 26.5654L37.6824 22.4193ZM23.7254 25.9731L20.4118 29.272L17.6941 26.555L25.6164 18.6349L33.5387 26.555L30.7831 29.3098L27.4179 25.9455C27.1745 25.7033 26.8856 25.5117 26.5677 25.3818C26.2498 25.2519 25.9093 25.1864 25.5659 25.189C25.2225 25.1915 24.883 25.2621 24.5671 25.3967C24.2512 25.5313 23.9651 25.7272 23.7254 25.9731Z" fill="white"/>
</svg>
