<svg width="119" height="119" viewBox="0 0 119 119" fill="none" xmlns="http://www.w3.org/2000/svg">
<ellipse cx="59.6588" cy="59.8333" rx="58.4586" ry="58.4767" fill="#00E599" stroke="#00E599" stroke-width="1.31862"/>
<path fill-rule="evenodd" clip-rule="evenodd" d="M54.6196 79.7485C54.6196 81.9821 52.8171 83.799 50.6023 83.799H36.6961C34.4809 83.799 32.6784 81.9821 32.6784 79.7485V65.7274C32.6784 63.4943 34.4809 61.6769 36.6961 61.6769H50.6023C52.8171 61.6769 54.6196 63.4943 54.6196 65.7274V79.7485ZM50.6023 58.976H36.6961C33.0037 58.976 30 62.0045 30 65.7274V79.7485C30 83.471 33.0037 86.5 36.6961 86.5H50.6023C54.2943 86.5 57.2985 83.471 57.2985 79.7485V65.7274C57.2985 62.0045 54.2943 58.976 50.6023 58.976Z" fill="#000033"/>
<path fill-rule="evenodd" clip-rule="evenodd" d="M85.3212 79.7485C85.3212 81.9821 83.5187 83.799 81.3034 83.799H67.3981C65.1824 83.799 63.3799 81.9821 63.3799 79.7485V65.7274C63.3799 63.4943 65.1824 61.6769 67.3981 61.6769H81.3034C83.5187 61.6769 85.3212 63.4943 85.3212 65.7274V79.7485ZM81.3034 58.976H67.3981C63.7057 58.976 60.7015 62.0045 60.7015 65.7274V79.7485C60.7015 83.471 63.7057 86.5 67.3981 86.5H81.3034C84.9958 86.5 88 83.471 88 79.7485V65.7274C88 62.0045 84.9958 58.976 81.3034 58.976Z" fill="#000033"/>
<path fill-rule="evenodd" clip-rule="evenodd" d="M68.7155 50.2726C68.7155 52.5062 66.913 54.3236 64.6977 54.3236H50.792C48.5767 54.3236 46.7742 52.5062 46.7742 50.2726V36.2524C46.7742 34.0189 48.5767 32.201 50.792 32.201H64.6977C66.913 32.201 68.7155 34.0189 68.7155 36.2524V50.2726ZM64.6977 29.5H50.792C47.0996 29.5 44.0959 32.529 44.0959 36.2524V50.2726C44.0959 53.995 47.0996 57.0245 50.792 57.0245H64.6977C68.3902 57.0245 71.3943 53.995 71.3943 50.2726V36.2524C71.3943 32.529 68.3902 29.5 64.6977 29.5Z" fill="#000033"/>
<path fill-rule="evenodd" clip-rule="evenodd" d="M57.8617 35.2678C54.287 35.2678 51.8452 43.6868 50.7081 48.7056C50.5433 49.4326 50.9945 50.1567 51.7155 50.3229C51.8158 50.3459 51.916 50.3569 52.0148 50.3569C52.6256 50.3569 53.1775 49.933 53.3195 49.3071C53.5793 48.1592 53.879 47.0223 54.1987 45.9333H58.3148C59.0543 45.9333 59.6537 45.3285 59.6537 44.5823C59.6537 43.8372 59.0543 43.2323 58.3148 43.2323H55.0693C56.0876 40.358 57.1639 38.2422 57.8598 37.9779C58.9797 38.4242 61.0164 43.7601 62.1649 49.2837C62.3164 50.013 63.0265 50.4833 63.7504 50.3277C64.4742 50.1749 64.9383 49.4594 64.7863 48.7291C63.7423 43.7021 61.4539 35.2678 57.8617 35.2678Z" fill="#000033"/>
<path fill-rule="evenodd" clip-rule="evenodd" d="M45.4073 77.5716H40.1589V67.8845H44.2688C45.224 67.8845 46.0011 68.6679 46.0011 69.6315C46.0011 70.594 45.224 71.3775 44.2688 71.3775H43.079C42.3395 71.3775 41.7396 71.9824 41.7396 72.728C41.7396 73.4732 42.3395 74.078 43.079 74.078H45.4073C46.363 74.078 47.1396 74.862 47.1396 75.825C47.1396 76.7881 46.363 77.5716 45.4073 77.5716ZM47.8957 72.1557C48.3892 71.4379 48.6799 70.5687 48.6799 69.6315C48.6799 67.179 46.7012 65.184 44.2688 65.184H38.8195C38.08 65.184 37.4801 65.7888 37.4801 66.534V78.922C37.4801 79.6677 38.08 80.2725 38.8195 80.2725H45.4073C47.8397 80.2725 49.8184 78.2775 49.8184 75.825C49.8184 74.3031 49.0556 72.9584 47.8957 72.1557Z" fill="#000033"/>
<path fill-rule="evenodd" clip-rule="evenodd" d="M80.8059 74.5625C80.1576 74.2033 79.3435 74.4399 78.9868 75.0936C78.5702 75.8569 77.9537 76.4963 77.2042 76.9426C74.8987 78.3146 71.9163 77.5407 70.5555 75.2167C69.8963 74.0908 69.7115 72.7733 70.0345 71.5071C70.358 70.2409 71.1507 69.1773 72.2673 68.5131C74.5733 67.1401 77.5552 67.9154 78.916 70.2395C79.2917 70.8812 80.1134 71.0948 80.7503 70.716C81.3873 70.3362 81.5986 69.5082 81.2224 68.8655C79.1112 65.2609 74.4826 64.0574 70.9061 66.1871C67.3286 68.3167 66.1374 72.9831 68.2491 76.5901C69.6531 78.987 72.1685 80.3212 74.7486 80.3212C76.0491 80.3212 77.3666 79.9817 78.5659 79.2686C79.7287 78.5761 80.6857 77.5829 81.3336 76.3957C81.6903 75.743 81.4542 74.9216 80.8059 74.5625Z" fill="#000033"/>
</svg>
