<svg width="119" height="119" viewBox="0 0 119 119" fill="none" xmlns="http://www.w3.org/2000/svg">
<ellipse cx="59.6588" cy="59.3333" rx="58.4586" ry="58.4767" fill="#00E599" stroke="#00E599" stroke-width="1.31862"/>
<path fill-rule="evenodd" clip-rule="evenodd" d="M60.0778 29.3561C57.2613 29.3561 54.9703 31.6478 54.9703 34.4652C54.9703 37.2826 57.2613 39.5744 60.0778 39.5744C62.8944 39.5744 65.1854 37.2826 65.1854 34.4652C65.1854 31.6478 62.8944 29.3561 60.0778 29.3561ZM60.0778 41.7939C56.0383 41.7939 52.7515 38.506 52.7515 34.4652C52.7515 30.4244 56.0383 27.1392 60.0778 27.1392C64.1174 27.1392 67.4029 30.4244 67.4029 34.4652C67.4029 38.506 64.1174 41.7939 60.0778 41.7939Z" fill="#000033"/>
<path fill-rule="evenodd" clip-rule="evenodd" d="M53.5563 43.3901L48.9992 45.1549C48.2031 45.4624 47.6671 46.2456 47.6671 47.0998V57.5231C47.6671 59.0133 48.877 60.2235 50.3654 60.2235H69.7907C71.2778 60.2235 72.4877 59.0133 72.4877 57.5231V47.0998C72.4877 46.2456 71.953 45.4624 71.1556 45.1549L66.5998 43.3901L61.0377 53.0407C60.6423 53.728 59.5125 53.728 59.1171 53.0407L53.5563 43.3901ZM69.7907 62.4417H50.3654C47.6553 62.4417 45.4496 60.234 45.4496 57.5231V47.0998C45.4496 45.335 46.5544 43.7213 48.1992 43.0866L53.6417 40.9788C54.1527 40.7843 54.7308 40.9854 55.0027 41.4584L60.0774 50.2654L65.1535 41.4584C65.4254 40.984 66.0021 40.7817 66.5131 40.9788L71.9557 43.0866C73.6004 43.7213 74.7065 45.335 74.7065 47.0998V57.5231C74.7065 60.234 72.5009 62.4417 69.7907 62.4417Z" fill="#000033"/>
<path fill-rule="evenodd" clip-rule="evenodd" d="M66.4185 88.8325H36.1449C35.5327 88.8325 35.0361 88.3357 35.0361 87.7234C35.0361 87.1097 35.5327 86.6156 36.1449 86.6156H66.4185C67.9529 86.6156 69.4255 86.1425 70.6735 85.2477L83.2467 76.2462C83.8589 75.8086 84.4619 75.3158 85.0412 74.7823C85.2829 74.5589 85.5286 74.3395 85.7742 74.1213C86.4678 73.5037 87.1221 72.9216 87.708 72.2251C88.6643 71.0832 89.2962 69.6219 89.4381 68.2132C89.484 67.773 89.2896 67.3643 88.931 67.1501C87.9878 66.5877 86.8225 66.5995 85.8911 67.1777L71.4801 76.1148C70.7103 76.5931 69.7316 76.5642 68.992 76.0412C68.2511 75.5169 67.8964 74.6062 68.0908 73.7192C68.1329 73.4616 68.5152 70.7967 66.1505 70.3394L53.2608 68.6258C51.1562 68.3486 49.5181 68.2973 47.8615 68.8873L36.518 72.94C35.9426 73.145 35.3054 72.8467 35.1005 72.2698C34.8943 71.6929 35.1951 71.0582 35.7718 70.8519L47.1167 66.7993C49.1844 66.0594 51.1851 66.1159 53.5511 66.4274L66.5079 68.1514C70.2177 68.8676 70.5816 72.388 70.265 74.1515L70.2939 74.2396L84.722 65.2933C86.3601 64.2749 88.4081 64.2552 90.0673 65.246C91.1734 65.907 91.779 67.1291 91.645 68.4366C91.4585 70.2776 90.6414 72.1778 89.4052 73.6509C88.7169 74.4709 87.9707 75.1358 87.2482 75.7771C87.013 75.9886 86.7766 76.1989 86.544 76.4118C85.899 77.0084 85.2238 77.559 84.5367 78.0504L71.9649 87.0532C70.3372 88.2162 68.4193 88.8325 66.4185 88.8325Z" fill="#000033"/>
<path fill-rule="evenodd" clip-rule="evenodd" d="M70.3378 76.454C70.3089 76.454 70.2786 76.4527 70.2497 76.4501L62.4281 75.8324C61.8173 75.7851 61.3614 75.2516 61.4087 74.6406C61.4573 74.0295 62.0012 73.567 62.6015 73.6221L70.4231 74.2385C71.034 74.2884 71.4899 74.8219 71.4412 75.433C71.3953 76.0125 70.9105 76.454 70.3378 76.454Z" fill="#000033"/>
<path fill-rule="evenodd" clip-rule="evenodd" d="M28.5823 92.0073C27.9701 92.0073 27.4736 91.5106 27.4736 90.8969V68.1607C27.4736 67.5483 27.9701 67.0516 28.5823 67.0516C29.1945 67.0516 29.6911 67.5483 29.6911 68.1607V90.8969C29.6911 91.5106 29.1945 92.0073 28.5823 92.0073Z" fill="#000033"/>
<path fill-rule="evenodd" clip-rule="evenodd" d="M70.3378 76.454C70.3089 76.454 70.2786 76.4527 70.2497 76.4501L62.4281 75.8324C61.8173 75.7851 61.3614 75.2516 61.4087 74.6406C61.4573 74.0295 62.0012 73.567 62.6015 73.6221L70.4231 74.2385C71.034 74.2884 71.4899 74.8219 71.4412 75.433C71.3953 76.0125 70.9105 76.454 70.3378 76.454Z" fill="#000033"/>
<path fill-rule="evenodd" clip-rule="evenodd" d="M36.145 92.0073C35.5329 92.0073 35.0363 91.5106 35.0363 90.8969V68.1607C35.0363 67.5483 35.5329 67.0516 36.145 67.0516C36.7572 67.0516 37.2538 67.5483 37.2538 68.1607V90.8969C37.2538 91.5106 36.7572 92.0073 36.145 92.0073Z" fill="#000033"/>
</svg>
