<svg width="118" height="118" viewBox="0 0 118 118" fill="none" xmlns="http://www.w3.org/2000/svg">
<ellipse cx="59.0044" cy="59.3333" rx="58.4586" ry="58.4767" fill="#00E599"/>
<path fill-rule="evenodd" clip-rule="evenodd" d="M56.654 62.7784C56.1156 62.7784 55.679 62.342 55.679 61.8034C55.679 58.8798 52.8658 57.5657 48.2326 55.7491C46.032 54.8861 43.7567 53.9939 41.7859 52.7033C36.5172 49.2527 33.8277 43.8812 34.0086 37.1692C34.1427 32.1827 35.7976 28.2564 35.8679 28.0918C35.9947 27.7953 36.2598 27.5807 36.5761 27.5184C36.8925 27.4561 37.2192 27.5541 37.4489 27.7803C39.8453 30.1414 41.9054 31.0232 44.757 32.2438C46.8826 33.1536 49.2919 34.185 52.4688 36.0768C56.9356 38.7369 59.8441 43.9899 60.8796 51.268C61.6469 56.662 61.1367 61.2235 61.1146 61.415C61.0578 61.907 60.6411 62.2782 60.146 62.2782H60.1448C59.649 62.2775 59.2326 61.9049 59.1772 61.4124C58.7416 57.5479 57.6146 54.0944 55.8276 51.1485C54.4035 48.8007 52.5566 46.7632 50.3382 45.0926C46.561 42.2479 43.0174 41.457 42.9821 41.4494C42.4558 41.3354 42.1215 40.8165 42.2355 40.2901C42.3495 39.764 42.8688 39.4294 43.3948 39.5436C43.5563 39.5785 47.3958 40.4354 51.5114 43.5349C54.1106 45.4923 57.1564 48.6348 59.1587 53.446C58.6516 47.9414 56.8843 40.9759 51.4711 37.7522C48.4054 35.9267 46.0594 34.9225 43.9896 34.0365C41.4695 32.9578 39.4046 32.074 37.1868 30.1853C36.7079 31.6831 36.0286 34.3019 35.9563 37.2798C35.8092 43.3378 38.1301 47.978 42.8543 51.0719C44.6563 52.2521 46.8363 53.1069 48.9444 53.9336C53.2141 55.6077 57.629 57.339 57.629 61.8034C57.629 62.342 57.1925 62.7784 56.654 62.7784Z" fill="#000033"/>
<path fill-rule="evenodd" clip-rule="evenodd" d="M63.508 62.7784C62.9695 62.7784 62.533 62.342 62.533 61.8034C62.533 58.2961 65.7119 56.8075 68.7861 55.3681C70.0435 54.7794 71.3436 54.1704 72.4938 53.4172C75.8049 51.2488 77.4338 47.9938 77.3352 43.7428C77.2915 41.8624 76.9052 40.1821 76.5814 39.0854C75.0765 40.2916 73.65 40.9023 71.934 41.6368C70.4522 42.271 68.7727 42.9899 66.5819 44.2946C64.9281 45.2795 64.1356 46.3569 63.6833 47.0817C63.3981 47.5384 62.7969 47.6779 62.34 47.3925C61.8831 47.1075 61.744 46.506 62.0291 46.0492C62.9185 44.6239 64.0482 43.534 65.5842 42.6193C67.8862 41.2483 69.629 40.5024 71.1668 39.8441C73.1913 38.9775 74.654 38.3514 76.342 36.6884C76.5715 36.4621 76.898 36.3642 77.2148 36.4264C77.5311 36.4886 77.7961 36.7034 77.9228 36.9998C77.9744 37.1203 79.1849 39.9926 79.2829 43.6329C79.4158 48.563 77.4375 52.5106 73.562 55.0486C72.2961 55.8777 70.932 56.5164 69.6129 57.1341C66.4323 58.6233 64.483 59.6457 64.483 61.8034C64.483 62.342 64.0464 62.7784 63.508 62.7784Z" fill="#000033"/>
<path fill-rule="evenodd" clip-rule="evenodd" d="M60.146 87.0298C59.6075 87.0298 59.171 86.5934 59.171 86.0548V61.3033C59.171 60.7647 59.6075 60.3283 60.146 60.3283C60.6845 60.3283 61.121 60.7647 61.121 61.3033V86.0548C61.121 86.5934 60.6845 87.0298 60.146 87.0298Z" fill="#000033"/>
<path fill-rule="evenodd" clip-rule="evenodd" d="M60.146 87.0298C59.3213 87.0298 58.6502 87.7007 58.6502 88.5256C58.6502 89.3504 59.3213 90.0213 60.146 90.0213C60.9707 90.0213 61.6418 89.3504 61.6418 88.5256C61.6418 87.7007 60.9707 87.0298 60.146 87.0298ZM60.146 91.9713C58.2461 91.9713 56.7002 90.4255 56.7002 88.5256C56.7002 86.6256 58.2461 85.0798 60.146 85.0798C62.046 85.0798 63.5918 86.6256 63.5918 88.5256C63.5918 90.4255 62.046 91.9713 60.146 91.9713Z" fill="#000033"/>
<path fill-rule="evenodd" clip-rule="evenodd" d="M69.4901 80.623C68.6654 80.623 67.9943 81.2939 67.9943 82.1188C67.9943 82.9436 68.6654 83.6145 69.4901 83.6145C70.3148 83.6145 70.9859 82.9436 70.9859 82.1188C70.9859 81.2939 70.3148 80.623 69.4901 80.623ZM69.4901 85.5645C67.5902 85.5645 66.0443 84.0187 66.0443 82.1188C66.0443 80.2188 67.5902 78.673 69.4901 78.673C71.3901 78.673 72.9359 80.2188 72.9359 82.1188C72.9359 84.0187 71.3901 85.5645 69.4901 85.5645Z" fill="#000033"/>
<path fill-rule="evenodd" clip-rule="evenodd" d="M50.8119 76.8264C49.9872 76.8264 49.3161 77.4973 49.3161 78.3222C49.3161 79.147 49.9872 79.818 50.8119 79.818C51.6366 79.818 52.3077 79.147 52.3077 78.3222C52.3077 77.4973 51.6366 76.8264 50.8119 76.8264ZM50.8119 81.768C48.9119 81.768 47.3661 80.2221 47.3661 78.3222C47.3661 76.4222 48.9119 74.8764 50.8119 74.8764C52.7118 74.8764 54.2577 76.4222 54.2577 78.3222C54.2577 80.2221 52.7118 81.768 50.8119 81.768Z" fill="#000033"/>
<path fill-rule="evenodd" clip-rule="evenodd" d="M67.5677 81.1938C67.3182 81.1938 67.0686 81.0987 66.8783 80.9084L62.8185 76.8486C62.6358 76.6657 62.5329 76.4178 62.5329 76.1591V61.8034C62.5329 61.2648 62.9695 60.8284 63.5079 60.8284C64.0465 60.8284 64.4829 61.2648 64.4829 61.8034V75.7553L68.2571 79.5293C68.6379 79.9102 68.6379 80.5275 68.2571 80.9084C68.0668 81.0987 67.8172 81.1938 67.5677 81.1938Z" fill="#000033"/>
<path fill-rule="evenodd" clip-rule="evenodd" d="M52.5943 77.2938C52.3449 77.2938 52.0953 77.1987 51.9049 77.0084C51.5242 76.6275 51.5242 76.0102 51.9049 75.6293L55.6791 71.8553V61.8034C55.6791 61.2648 56.1155 60.8284 56.6541 60.8284C57.1926 60.8284 57.6291 61.2648 57.6291 61.8034V72.2591C57.6291 72.5178 57.5263 72.7657 57.3435 72.9486L53.2837 77.0084C53.0934 77.1987 52.8438 77.2938 52.5943 77.2938Z" fill="#000033"/>
</svg>
