<svg width="332" height="334" viewBox="0 0 332 334" fill="none" xmlns="http://www.w3.org/2000/svg">
<g opacity="0.317703">
<path d="M1.27409 136.28L330.726 136.28" stroke="#979797" stroke-width="0.6" stroke-linecap="square"/>
<path d="M1.27409 255.28L330.726 255.28" stroke="#979797" stroke-width="0.6" stroke-linecap="square"/>
<path d="M1.27409 78.4227L330.726 78.4227" stroke="#979797" stroke-width="0.6" stroke-linecap="square"/>
<path d="M1.27409 18.3644L330.726 18.3644" stroke="#979797" stroke-width="0.6" stroke-linecap="square"/>
<path d="M1.27409 196.338L330.726 196.338" stroke="#979797" stroke-width="0.6" stroke-linecap="square"/>
<path d="M1.27409 315.338H330.726" stroke="#979797" stroke-width="0.6" stroke-linecap="square"/>
<path d="M255 0.596191L255 333.596" stroke="#979797" stroke-width="0.6" stroke-linecap="square"/>
<path d="M197 0.596191L197 333.596" stroke="#979797" stroke-width="0.6" stroke-linecap="square"/>
<path d="M314 0.596191V333.596" stroke="#979797" stroke-width="0.6" stroke-linecap="square"/>
<path d="M138 0.596191L138 333.596" stroke="#979797" stroke-width="0.6" stroke-linecap="square"/>
<path d="M79 0.596191L79 333.596" stroke="#979797" stroke-width="0.6" stroke-linecap="square"/>
<path d="M20 0.596191L20 333.596" stroke="#979797" stroke-width="0.6" stroke-linecap="square"/>
</g>
<path d="M168.5 158.482V178.167C168.5 195.288 182.379 209.167 199.5 209.167H235.482C252.603 209.167 266.482 223.046 266.482 240.167V242.482" stroke="#00E599" stroke-width="2"/>
<path d="M167.982 158.482V178.167C167.982 195.288 154.103 209.167 136.982 209.167H101C83.8791 209.167 69.9999 223.046 69.9999 240.167V242.482" stroke="#00E599" stroke-width="2"/>
<path d="M168.5 179.482V159.797C168.5 142.676 182.379 128.797 199.5 128.797H235.482C252.603 128.797 266.482 114.918 266.482 97.7972V95.4821" stroke="#00E599" stroke-width="2"/>
<path d="M167.982 179.482V159.797C167.982 142.676 154.103 128.797 136.982 128.797H101C83.8791 128.797 69.9999 114.918 69.9999 97.7972V95.4821" stroke="#00E599" stroke-width="2"/>
<g filter="url(#filter0_dd)">
<path fill-rule="evenodd" clip-rule="evenodd" d="M169.5 94L220.595 123.5V182.5L169.5 212L118.405 182.5V123.5L169.5 94Z" fill="#F0F5F6"/>
</g>
<path d="M143.598 133.88V170.818L167.829 179.42V142.16L193.964 132.638L170.243 124.219L143.598 133.88Z" fill="#00E599"/>
<path d="M169.385 143.909V163.677L193.158 172.168V135.099L169.385 143.909Z" fill="#00AF92"/>
<rect x="232.2" y="244" width="75.6" height="58.8" rx="2.8" fill="white" stroke="#00E599" stroke-width="2.1"/>
<circle cx="235.7" cy="248.2" r="0.7" stroke="#00E599" stroke-width="1.4"/>
<circle cx="239.2" cy="248.2" r="0.7" stroke="#00E599" stroke-width="1.4"/>
<circle cx="242.7" cy="248.2" r="0.7" stroke="#00E599" stroke-width="1.4"/>
<path d="M307.1 252.4H232.9" stroke="#00E599" stroke-width="1.4" stroke-linecap="square"/>
<rect x="27.7" y="244" width="75.6" height="58.8" rx="2.8" fill="white" stroke="#00E599" stroke-width="2.1"/>
<circle cx="31.2" cy="248.2" r="0.7" stroke="#00E599" stroke-width="1.4"/>
<circle cx="34.7" cy="248.2" r="0.7" stroke="#00E599" stroke-width="1.4"/>
<circle cx="38.2" cy="248.2" r="0.7" stroke="#00E599" stroke-width="1.4"/>
<path d="M102.6 252.4H28.4" stroke="#00E599" stroke-width="1.4" stroke-linecap="square"/>
<rect x="232.2" y="35.5" width="75.6" height="58.8" rx="2.8" fill="white" stroke="#00E599" stroke-width="2.1"/>
<circle cx="235.7" cy="39.7" r="0.7" stroke="#00E599" stroke-width="1.4"/>
<circle cx="239.2" cy="39.7" r="0.7" stroke="#00E599" stroke-width="1.4"/>
<circle cx="242.7" cy="39.7" r="0.7" stroke="#00E599" stroke-width="1.4"/>
<path d="M307.1 43.9H232.9" stroke="#00E599" stroke-width="1.4" stroke-linecap="square"/>
<rect x="27.7" y="35.5" width="75.6" height="58.8" rx="2.8" fill="white" stroke="#00E599" stroke-width="2.1"/>
<circle cx="31.2" cy="39.7" r="0.7" stroke="#00E599" stroke-width="1.4"/>
<circle cx="34.7" cy="39.7" r="0.7" stroke="#00E599" stroke-width="1.4"/>
<circle cx="38.2" cy="39.7" r="0.7" stroke="#00E599" stroke-width="1.4"/>
<path d="M102.6 43.9H28.4" stroke="#00E599" stroke-width="1.4" stroke-linecap="square"/>
<defs>
<filter id="filter0_dd" x="84.4045" y="94" width="138.191" height="155" filterUnits="userSpaceOnUse" color-interpolation-filters="sRGB">
<feFlood flood-opacity="0" result="BackgroundImageFix"/>
<feColorMatrix in="SourceAlpha" type="matrix" values="0 0 0 0 0 0 0 0 0 0 0 0 0 0 0 0 0 0 127 0" result="hardAlpha"/>
<feOffset dx="-17" dy="20"/>
<feGaussianBlur stdDeviation="8.5"/>
<feColorMatrix type="matrix" values="0 0 0 0 0.316369 0 0 0 0 0.366988 0 0 0 0 0.353496 0 0 0 0.25741 0"/>
<feBlend mode="normal" in2="BackgroundImageFix" result="effect1_dropShadow"/>
<feColorMatrix in="SourceAlpha" type="matrix" values="0 0 0 0 0 0 0 0 0 0 0 0 0 0 0 0 0 0 127 0" result="hardAlpha"/>
<feOffset dx="-5" dy="10"/>
<feGaussianBlur stdDeviation="3.5"/>
<feColorMatrix type="matrix" values="0 0 0 0 0 0 0 0 0 0 0 0 0 0 0 0 0 0 0.144615 0"/>
<feBlend mode="normal" in2="effect1_dropShadow" result="effect2_dropShadow"/>
<feBlend mode="normal" in="SourceGraphic" in2="effect2_dropShadow" result="shape"/>
</filter>
</defs>
</svg>
