<svg width="62" height="61" viewBox="0 0 62 61" fill="none" xmlns="http://www.w3.org/2000/svg">
<circle cx="31" cy="30.5" r="30.5" fill="#00E599"/>
<path fill-rule="evenodd" clip-rule="evenodd" d="M44.2497 22.6859H12.631C12.2821 22.6859 12 22.404 12 22.0553C12 21.7065 12.2821 21.4246 12.631 21.4246H44.2497C44.5978 21.4246 44.8807 21.7065 44.8807 22.0553C44.8807 22.404 44.5978 22.6859 44.2497 22.6859Z" fill="#000033"/>
<path fill-rule="evenodd" clip-rule="evenodd" d="M16.6882 19.99C16.6882 19.5736 16.3497 19.2344 15.9323 19.2344C15.5139 19.2344 15.1763 19.5736 15.1763 19.99C15.1763 20.4073 15.5139 20.7465 15.9323 20.7465C16.3497 20.7465 16.6882 20.4073 16.6882 19.99Z" fill="#000033"/>
<path fill-rule="evenodd" clip-rule="evenodd" d="M19.5745 19.99C19.5745 19.5736 19.236 19.2344 18.8185 19.2344C18.401 19.2344 18.0625 19.5736 18.0625 19.99C18.0625 20.4073 18.401 20.7465 18.8185 20.7465C19.236 20.7465 19.5745 20.4073 19.5745 19.99Z" fill="#000033"/>
<path fill-rule="evenodd" clip-rule="evenodd" d="M22.4611 19.99C22.4611 19.5736 22.1226 19.2344 21.7051 19.2344C21.2867 19.2344 20.9482 19.5736 20.9482 19.99C20.9482 20.4073 21.2867 20.7465 21.7051 20.7465C22.1226 20.7465 22.4611 20.4073 22.4611 19.99Z" fill="#000033"/>
<path fill-rule="evenodd" clip-rule="evenodd" d="M29.2294 20.6212H26.9918C26.6429 20.6212 26.3608 20.3393 26.3608 19.9897C26.3608 19.6418 26.6429 19.3599 26.9918 19.3599H29.2294C29.5775 19.3599 29.8604 19.6418 29.8604 19.9897C29.8604 20.3393 29.5775 20.6212 29.2294 20.6212Z" fill="#000033"/>
<path fill-rule="evenodd" clip-rule="evenodd" d="M37.2115 45.643H14.6933C13.2082 45.643 12 44.4346 12 42.9502V19.6928C12 18.2085 13.2082 17 14.6933 17H47.3067C48.7917 17 49.9999 18.2085 49.9999 19.6928V42.9502C49.9999 43.7752 49.6302 44.5421 48.9844 45.0574C48.7119 45.2743 48.3143 45.2283 48.0974 44.9568C47.8804 44.6853 47.9246 44.288 48.198 44.0711C48.5409 43.7969 48.7379 43.3892 48.7379 42.9502V19.6928C48.7379 18.9033 48.0956 18.2622 47.3067 18.2622H14.6933C13.9034 18.2622 13.262 18.9033 13.262 19.6928V42.9502C13.262 43.7405 13.9034 44.3816 14.6933 44.3816H37.2115C37.5595 44.3816 37.8425 44.6636 37.8425 45.0123C37.8425 45.3611 37.5595 45.643 37.2115 45.643Z" fill="#000033"/>
<path fill-rule="evenodd" clip-rule="evenodd" d="M36.8998 20.6212H32.5158C32.1669 20.6212 31.8848 20.3393 31.8848 19.9897C31.8848 19.6418 32.1669 19.3599 32.5158 19.3599H36.8998C37.2479 19.3599 37.5308 19.6418 37.5308 19.9897C37.5308 20.3393 37.2479 20.6212 36.8998 20.6212Z" fill="#000033"/>
<path fill-rule="evenodd" clip-rule="evenodd" d="M21.7231 36.9813H16.2038C15.8548 36.9813 15.5728 36.6993 15.5728 36.3506V25.4649C15.5728 25.1162 15.8548 24.8342 16.2038 24.8342H24.4276C24.7765 24.8342 25.0586 25.1162 25.0586 25.4649C25.0586 25.8128 24.7765 26.0956 24.4276 26.0956H16.8348V35.7199H21.7231C22.0711 35.7199 22.3541 36.0019 22.3541 36.3506C22.3541 36.6993 22.0711 36.9813 21.7231 36.9813Z" fill="#000033"/>
<path fill-rule="evenodd" clip-rule="evenodd" d="M45.7312 36.9813H41.5928C41.2439 36.9813 40.9618 36.6993 40.9618 36.3506C40.9618 36.0019 41.2439 35.7199 41.5928 35.7199H45.1002V26.0956H38.1305C37.7825 26.0956 37.4995 25.8128 37.4995 25.4649C37.4995 25.1162 37.7825 24.8342 38.1305 24.8342H45.7312C46.0801 24.8342 46.3622 25.1162 46.3622 25.4649V36.3506C46.3622 36.6993 46.0801 36.9813 45.7312 36.9813Z" fill="#000033"/>
<path fill-rule="evenodd" clip-rule="evenodd" d="M32.9739 42.8065H16.2033C15.8552 42.8065 15.5723 42.5246 15.5723 42.1759C15.5723 41.8271 15.8552 41.5452 16.2033 41.5452H32.9739C33.3228 41.5452 33.6049 41.8271 33.6049 42.1759C33.6049 42.5246 33.3228 42.8065 32.9739 42.8065Z" fill="#000033"/>
<path fill-rule="evenodd" clip-rule="evenodd" d="M31.0752 25.9636C29.269 25.9636 27.5713 26.6663 26.2945 27.9425C25.0178 29.2186 24.3147 30.9155 24.3147 32.7208C24.3147 34.5252 25.0178 36.2221 26.2945 37.4982C27.5713 38.7752 29.269 39.4771 31.0752 39.4771C32.8815 39.4771 34.5792 38.7752 35.8559 37.4982C37.1327 36.2221 37.8357 34.5252 37.8357 32.7208C37.8357 30.9155 37.1327 29.2186 35.8559 27.9425C34.5792 26.6663 32.8815 25.9636 31.0752 25.9636ZM31.0752 40.735C29.0208 40.735 26.9663 39.9533 25.4023 38.39C23.8868 36.8762 23.0527 34.8618 23.0527 32.7208C23.0527 30.578 23.8868 28.5645 25.4023 27.0506C28.5304 23.9232 33.6201 23.9232 36.7482 27.0506C38.2636 28.5645 39.0977 30.578 39.0977 32.7208C39.0977 34.8618 38.2636 36.8762 36.7482 38.39C35.1841 39.9533 33.1297 40.735 31.0752 40.735Z" fill="#000033"/>
<path fill-rule="evenodd" clip-rule="evenodd" d="M31.0751 28.2687C29.9338 28.2687 28.7933 28.7025 27.9245 29.5709C26.1877 31.3077 26.1877 34.1332 27.9245 35.8691C29.6612 37.605 32.4882 37.6059 34.2258 35.8691C35.9626 34.1332 35.9626 31.3077 34.2258 29.5709C33.357 28.7025 32.2156 28.2687 31.0751 28.2687ZM31.0751 38.4326C29.6109 38.4326 28.1466 37.8748 27.0322 36.7609C24.8024 34.5331 24.8024 30.9077 27.0322 28.6791C29.2611 26.4504 32.8883 26.4504 35.1181 28.6791C37.3478 30.9077 37.3478 34.5331 35.1181 36.7609C34.0036 37.8748 32.5394 38.4326 31.0751 38.4326Z" fill="#000033"/>
<path fill-rule="evenodd" clip-rule="evenodd" d="M37.5835 40.9454L43.023 46.383C43.483 46.8419 44.2841 46.8419 44.7441 46.383C44.9741 46.1531 45.1 45.8469 45.1 45.5224C45.1 45.1971 44.9741 44.8926 44.7441 44.6627L39.3038 39.2251L37.5835 40.9454ZM43.8831 48.0001C43.2217 48.0001 42.5985 47.7424 42.1307 47.2739L36.2451 41.3921C35.9977 41.1449 35.9977 40.7467 36.2451 40.4995L38.8576 37.8873C39.0946 37.6505 39.5138 37.6505 39.7508 37.8873L45.6364 43.7709C46.1042 44.2385 46.362 44.8605 46.362 45.5224C46.362 46.1843 46.1042 46.8064 45.6364 47.2739C45.1685 47.7424 44.5453 48.0001 43.8831 48.0001Z" fill="#000033"/>
<path fill-rule="evenodd" clip-rule="evenodd" d="M35.2828 39.5491L36.1716 40.4366C36.2089 40.4739 36.2697 40.4739 36.3078 40.4366L38.7954 37.9494C38.8327 37.9121 38.8327 37.8514 38.7954 37.8141L37.9066 36.9257C37.5803 37.4558 37.1923 37.9459 36.7479 38.3901C36.3035 38.8343 35.8122 39.2221 35.2828 39.5491ZM36.2393 41.7266C35.8765 41.7266 35.5354 41.5852 35.2793 41.3293L33.7934 39.8441C33.6484 39.6992 33.5833 39.4927 33.6181 39.2906C33.6528 39.0885 33.7838 38.9167 33.9696 38.8282C34.67 38.4959 35.3045 38.0492 35.8556 37.4983C36.4068 36.9465 36.8547 36.3133 37.1853 35.6132C37.273 35.4275 37.4457 35.2974 37.648 35.2618C37.8502 35.2245 38.0568 35.2922 38.2017 35.4371L39.6885 36.9223C39.9446 37.1782 40.086 37.5191 40.086 37.8817C40.086 38.2444 39.9446 38.5853 39.6885 38.8421L37.1992 41.3293C36.9441 41.5852 36.6021 41.7266 36.2393 41.7266Z" fill="#000033"/>
<path fill-rule="evenodd" clip-rule="evenodd" d="M31.0752 33.8187C31.3356 33.8187 31.596 33.8994 31.8182 34.0607L32.2678 34.3869L32.0994 33.8569C31.9302 33.3337 32.1142 32.7664 32.5586 32.4437L33.0082 32.1175C33.0064 32.1131 32.4518 32.1131 32.4518 32.1131C31.9024 32.1131 31.419 31.7627 31.2488 31.2395L31.077 30.7121L30.9008 31.2395C30.7315 31.7627 30.2481 32.1131 29.6987 32.1131H29.144L29.591 32.4437C30.0354 32.7664 30.2203 33.3337 30.0511 33.8569L29.8792 34.3843L30.3323 34.0607C30.5536 33.8994 30.8149 33.8187 31.0752 33.8187ZM32.2687 35.6535C32.01 35.6535 31.7514 35.572 31.5257 35.408L31.0761 35.0809L30.6248 35.4071C30.1726 35.7359 29.5893 35.7359 29.138 35.4071C28.6866 35.0801 28.507 34.5249 28.6788 33.9948L28.8507 33.4673L28.4002 33.1386C27.9489 32.8106 27.7683 32.2554 27.9411 31.7254C28.1138 31.1953 28.586 30.8518 29.144 30.8518H29.6987L29.8731 30.3226C30.045 29.7916 30.5172 29.449 31.0752 29.449C31.6333 29.449 32.1055 29.7916 32.2782 30.3234L32.4492 30.85L33.0064 30.8518C33.5645 30.8518 34.0367 31.1953 34.2094 31.7254C34.3822 32.2554 34.2016 32.8106 33.7503 33.1386L33.3007 33.4647L33.4717 33.9939C33.6435 34.5249 33.4639 35.0792 33.0125 35.4071C32.7869 35.572 32.5273 35.6535 32.2687 35.6535Z" fill="#000033"/>
</svg>
