<svg width="61" height="61" viewBox="0 0 61 61" fill="none" xmlns="http://www.w3.org/2000/svg">
<circle cx="30.5" cy="30.5" r="30.5" fill="#00E599"/>
<path fill-rule="evenodd" clip-rule="evenodd" d="M30.104 32.597H30.8787L30.4983 31.1039L30.104 32.597ZM31.537 33.6064C31.5333 33.6064 31.5283 33.6051 31.5233 33.6064H29.452C29.2968 33.6064 29.1491 33.5318 29.0553 33.408C28.9614 33.283 28.9301 33.1225 28.9689 32.9697L30.0264 28.9854C30.084 28.7656 30.2868 28.6292 30.5108 28.6128C30.7386 28.6128 30.9363 28.7694 30.9926 28.9918L31.9776 32.8636C32.0151 32.9356 32.0364 33.0152 32.0364 33.0998C32.0364 33.379 31.8124 33.6064 31.537 33.6064Z" fill="#000033"/>
<path fill-rule="evenodd" clip-rule="evenodd" d="M25.7544 26.2366V28.9968C25.7544 29.5627 26.3226 29.9973 26.8732 29.8192L29.5165 28.9551L26.5078 26.2366H25.7544ZM26.6079 30.8702C25.5854 30.8702 24.7544 30.0289 24.7544 28.9968V25.7313C24.7544 25.4522 24.9784 25.2273 25.2538 25.2273H26.6993C26.8207 25.2273 26.9396 25.2728 27.0322 25.3561L30.8318 28.7896C30.9645 28.9109 31.0233 29.0941 30.987 29.2709C30.9495 29.449 30.8206 29.5905 30.6503 29.6461L27.1799 30.778C26.9934 30.8398 26.8006 30.8702 26.6079 30.8702Z" fill="#000033"/>
<path fill-rule="evenodd" clip-rule="evenodd" d="M31.4866 28.9553L34.1286 29.8194C34.2162 29.8459 34.3051 29.8611 34.3939 29.8611C34.6142 29.8611 34.8332 29.7701 34.9921 29.6122C35.1573 29.4505 35.2475 29.2307 35.2475 28.9958V26.2369H34.4953L31.4866 28.9553ZM34.3939 30.8704C34.1999 30.8704 34.0097 30.8388 33.822 30.7769L30.3502 29.6463C30.18 29.5908 30.0524 29.4493 30.0148 29.2712C29.9785 29.093 30.0386 28.9111 30.1713 28.7899L33.9709 25.3551C34.0623 25.273 34.1799 25.2275 34.3038 25.2275H35.7468C36.0234 25.2275 36.2487 25.4524 36.2487 25.7303V28.9958C36.2487 29.5061 36.0497 29.9798 35.6905 30.3348C35.3401 30.6797 34.8795 30.8704 34.3939 30.8704Z" fill="#000033"/>
<path fill-rule="evenodd" clip-rule="evenodd" d="M24.8302 15.0032C24.6287 15.7068 24.5273 16.4357 24.5273 17.1772C24.5273 20.9796 27.2068 24.0732 30.5009 24.0732C33.7911 24.0732 36.4694 20.9796 36.4694 17.1772C36.4694 16.3031 36.333 15.463 36.0639 14.6773L33.9814 13.3256L33.2042 14.1114C33.099 14.2162 32.9539 14.2693 32.8087 14.2566C32.6623 14.244 32.5271 14.1695 32.4432 14.0482L31.4483 12.6359L24.8302 15.0032ZM30.5009 25.0826C26.6562 25.0826 23.5273 21.5354 23.5273 17.1772C23.5273 16.2462 23.67 15.3329 23.9516 14.4575C23.9992 14.3072 24.1131 14.1884 24.2595 14.1366L31.4695 11.5571C31.6798 11.4826 31.9138 11.5558 32.044 11.7415L32.9163 12.977L33.5609 12.3251C33.7248 12.1559 33.9851 12.1293 34.1854 12.2569L36.746 13.9219C36.8374 13.98 36.9074 14.0684 36.945 14.1695C37.2929 15.1118 37.4681 16.125 37.4681 17.1772C37.4681 21.5354 34.3443 25.0826 30.5009 25.0826Z" fill="#000033"/>
<path fill-rule="evenodd" clip-rule="evenodd" d="M26.5437 15.7654C25.4512 15.7654 24.5288 16.4122 24.5288 17.1765C24.5288 17.9432 25.4512 18.5875 26.5437 18.5875C27.6363 18.5875 28.5587 17.9432 28.5587 17.1765C28.5587 16.4122 27.6363 15.7654 26.5437 15.7654ZM26.5437 19.5968C24.8817 19.5968 23.5288 18.5117 23.5288 17.1765C23.5288 15.8425 24.8817 14.7561 26.5437 14.7561C28.2058 14.7561 29.5574 15.8425 29.5574 17.1765C29.5574 18.5117 28.2058 19.5968 26.5437 19.5968Z" fill="#000033"/>
<path fill-rule="evenodd" clip-rule="evenodd" d="M34.4575 15.7654C33.3662 15.7654 32.4426 16.4122 32.4426 17.1765C32.4426 17.9432 33.3662 18.5875 34.4575 18.5875C35.5501 18.5875 36.4725 17.9432 36.4725 17.1765C36.4725 16.4122 35.5501 15.7654 34.4575 15.7654ZM34.4575 19.5968C32.7942 19.5968 31.4438 18.5117 31.4438 17.1765C31.4438 15.8425 32.7942 14.7561 34.4575 14.7561C36.1196 14.7561 37.4725 15.8425 37.4725 17.1765C37.4725 18.5117 36.1196 19.5968 34.4575 19.5968Z" fill="#000033"/>
<path fill-rule="evenodd" clip-rule="evenodd" d="M31.9607 17.8652C31.6841 17.8652 31.4601 17.6378 31.4601 17.3599C31.4601 16.7927 31.0295 16.3304 30.5014 16.3304C29.972 16.3304 29.5402 16.7927 29.5402 17.3599C29.5402 17.6378 29.3187 17.8652 29.0421 17.8652C28.7655 17.8652 28.5415 17.6378 28.5415 17.3599C28.5415 16.2369 29.4213 15.321 30.5014 15.321C31.5815 15.321 32.4588 16.2369 32.4588 17.3599C32.4588 17.6378 32.2373 17.8652 31.9607 17.8652Z" fill="#000033"/>
<path fill-rule="evenodd" clip-rule="evenodd" d="M30.5013 8.50933C27.2674 8.50933 24.5916 10.9777 24.2324 14.1471L31.4687 11.5575C31.679 11.483 31.9143 11.5562 32.0432 11.7419L32.9168 12.9761L33.5601 12.3256C33.7253 12.1563 33.9856 12.1285 34.1846 12.2573L36.7327 13.9122C36.2709 10.8564 33.6539 8.50933 30.5013 8.50933ZM23.6917 15.3826C23.5916 15.3826 23.489 15.351 23.4039 15.2916C23.2712 15.1969 23.1924 15.0428 23.1924 14.8798C23.1924 10.8109 26.4701 7.5 30.5013 7.5C34.4887 7.5 37.7377 10.744 37.804 14.7535C37.8127 14.7952 37.819 14.8356 37.819 14.8798C37.819 15.159 37.5912 15.4079 37.3109 15.3826C37.217 15.3927 37.1207 15.3573 37.0368 15.3043L33.9818 13.326L33.2046 14.1118C33.0995 14.2166 32.9543 14.2697 32.8091 14.257C32.6627 14.2444 32.5275 14.1686 32.4437 14.0486L31.4487 12.6363L23.8594 15.3535C23.8044 15.3737 23.7481 15.3826 23.6917 15.3826Z" fill="#000033"/>
<path fill-rule="evenodd" clip-rule="evenodd" d="M24.7203 26.2205C22.6766 26.2205 20.7655 27.0315 19.3362 28.5031C18.141 29.7335 17.4064 31.2924 17.2162 32.9725C17.6742 32.7274 18.1886 32.5973 18.7167 32.5973H42.2868C42.8137 32.5973 43.3243 32.7261 43.7811 32.9674C43.5934 31.2949 42.8625 29.7424 41.6723 28.512C40.238 27.034 38.3207 26.2205 36.2707 26.2205H34.2995C34.0242 26.2205 33.7989 25.9931 33.7989 25.7152V24.1412C31.7815 25.3779 29.2108 25.3754 27.1971 24.1412V25.7152C27.1971 25.9931 26.9731 26.2205 26.6965 26.2205H24.7203ZM16.6667 34.5427C16.6104 34.5427 16.5516 34.5313 16.4953 34.5098C16.3013 34.4404 16.1724 34.2559 16.1674 34.0475C16.1198 31.6979 16.9921 29.4784 18.6229 27.797C20.2411 26.1308 22.4062 25.2112 24.7203 25.2112H26.1971V23.1647C26.1971 22.9702 26.3098 22.7921 26.4825 22.7087C26.6589 22.624 26.8654 22.6518 27.0144 22.7744C28.0319 23.6233 29.2383 24.073 30.5011 24.073C31.7602 24.073 32.9629 23.6233 33.9816 22.7744C34.1306 22.6518 34.3383 22.624 34.5123 22.7087C34.6863 22.7921 34.8001 22.9702 34.8001 23.1647V25.2112H36.2707C38.5923 25.2112 40.7649 26.1333 42.3857 27.8084C44.0139 29.4859 44.88 31.7004 44.8286 34.0412C44.8236 34.2483 44.6935 34.4328 44.5007 34.5048C44.3068 34.5755 44.0928 34.5199 43.9551 34.3646C43.5308 33.882 42.9226 33.6066 42.2868 33.6066H18.7167C18.071 33.6066 17.4752 33.8782 17.0409 34.3734C16.9446 34.482 16.8082 34.5427 16.6667 34.5427Z" fill="#000033"/>
<path fill-rule="evenodd" clip-rule="evenodd" d="M14.6041 45.8042C14.5641 45.8042 14.534 45.8219 14.5153 45.8535C14.5002 45.8788 14.4877 45.9179 14.5153 45.9659L15.4977 47.7307V45.8042H14.6041ZM15.9958 50.1637C15.8193 50.1637 15.6504 50.0677 15.5615 49.9047L13.6404 46.4548C13.4477 46.0948 13.454 45.6804 13.6555 45.3381C13.8557 44.997 14.2099 44.7949 14.6041 44.7949H15.9958C16.2724 44.7949 16.4964 45.021 16.4964 45.3002V49.6584C16.4964 49.887 16.3437 50.0891 16.1235 50.1472C16.0822 50.1586 16.0384 50.1637 15.9958 50.1637Z" fill="#000033"/>
<path fill-rule="evenodd" clip-rule="evenodd" d="M45.5073 45.8042V47.7218L46.4822 45.9596C46.5048 45.923 46.5048 45.8876 46.4847 45.8535C46.4722 45.8308 46.4459 45.8042 46.3996 45.8042H45.5073ZM45.0079 50.1561C44.9654 50.1561 44.9228 50.151 44.8803 50.1397C44.6613 50.0816 44.5073 49.882 44.5073 49.6508V45.3002C44.5073 45.021 44.7313 44.7949 45.0079 44.7949H46.3996C46.7939 44.7949 47.1493 44.9996 47.3483 45.3457C47.5473 45.6893 47.551 46.1036 47.3558 46.4548L45.4435 49.8971C45.3534 50.0601 45.1844 50.1561 45.0079 50.1561Z" fill="#000033"/>
<path fill-rule="evenodd" clip-rule="evenodd" d="M19.3841 33.605C17.7909 33.605 16.4943 34.9137 16.4943 36.5206V49.6279C16.4943 50.1041 16.8785 50.4907 17.3504 50.4907H43.6513C44.1243 50.4907 44.5073 50.1041 44.5073 49.6279V36.5206C44.5073 34.9137 43.2107 33.605 41.6188 33.605H19.3841ZM43.6513 51.5H17.3504C16.3279 51.5 15.4956 50.66 15.4956 49.6279V36.5206C15.4956 34.3567 17.2402 32.5957 19.3841 32.5957H41.6188C43.7626 32.5957 45.506 34.3567 45.506 36.5206V49.6279C45.506 50.66 44.6738 51.5 43.6513 51.5Z" fill="#000033"/>
<path fill-rule="evenodd" clip-rule="evenodd" d="M30.5011 40.6724C29.749 40.6724 29.137 41.2889 29.137 42.0481C29.137 42.806 29.749 43.425 30.5011 43.425C31.2521 43.425 31.864 42.806 31.864 42.0481C31.864 41.2889 31.2521 40.6724 30.5011 40.6724ZM30.5011 44.4343C29.197 44.4343 28.1357 43.3644 28.1357 42.0481C28.1357 40.733 29.197 39.6631 30.5011 39.6631C31.804 39.6631 32.864 40.733 32.864 42.0481C32.864 43.3644 31.804 44.4343 30.5011 44.4343Z" fill="#000033"/>
</svg>
