<svg width="61" height="61" viewBox="0 0 61 61" fill="none" xmlns="http://www.w3.org/2000/svg">
<circle cx="30.5" cy="30.5" r="30.5" fill="#00E599"/>
<path fill-rule="evenodd" clip-rule="evenodd" d="M30.1668 28.7752H16.8223C16.5524 28.7752 16.3335 28.5567 16.3335 28.2873C16.3335 28.0174 16.5524 27.8 16.8223 27.8H30.1668C30.8432 27.8 31.4923 27.5919 32.0424 27.1982L37.5846 23.2384C37.8545 23.0459 38.1203 22.8291 38.3756 22.5944C38.4822 22.4961 38.5905 22.3996 38.6988 22.3036C39.0045 22.0319 39.2929 21.7758 39.5511 21.4695C39.9727 20.9671 40.2512 20.3243 40.3138 19.7046C40.334 19.5109 40.2483 19.3311 40.0903 19.2369C39.6745 18.9895 39.1609 18.9947 38.7503 19.249L32.398 23.1806C32.0586 23.391 31.6272 23.3783 31.3012 23.1482C30.9746 22.9175 30.8183 22.5169 30.904 22.1267C30.9225 22.0134 31.091 20.8411 30.0487 20.6399L24.3669 19.8861C23.4392 19.7641 22.7171 19.7416 21.9869 20.0011L16.9867 21.7839C16.7331 21.8741 16.4522 21.7429 16.3619 21.4891C16.271 21.2353 16.4036 20.9561 16.6578 20.8654L21.6586 19.0826C22.5701 18.7571 23.452 18.782 24.4949 18.919L30.2062 19.6774C31.8415 19.9925 32.0019 21.5411 31.8623 22.3169L31.8751 22.3557L38.2349 18.4201C38.957 17.9721 39.8598 17.9634 40.5911 18.3993C41.0787 18.69 41.3457 19.2277 41.2866 19.8028C41.2044 20.6127 40.8442 21.4486 40.2993 22.0967C39.9959 22.4574 39.667 22.7499 39.3485 23.032C39.2448 23.1251 39.1406 23.2176 39.0381 23.3112C38.7538 23.5737 38.4561 23.8159 38.1533 24.0321L32.6116 27.9925C31.8942 28.5041 31.0487 28.7752 30.1668 28.7752Z" fill="#000033"/>
<path fill-rule="evenodd" clip-rule="evenodd" d="M31.8944 23.3298C31.8817 23.3298 31.8684 23.3292 31.8556 23.328L28.4079 23.0563C28.1386 23.0355 27.9377 22.8008 27.9585 22.532C27.9799 22.2632 28.2197 22.0597 28.4843 22.084L31.9321 22.3551C32.2013 22.3771 32.4023 22.6118 32.3808 22.8806C32.3606 23.1355 32.1469 23.3298 31.8944 23.3298Z" fill="#000033"/>
<path fill-rule="evenodd" clip-rule="evenodd" d="M13.4887 30.1719C13.2189 30.1719 13 29.9534 13 29.6834V19.6815C13 19.4121 13.2189 19.1936 13.4887 19.1936C13.7586 19.1936 13.9775 19.4121 13.9775 19.6815V29.6834C13.9775 29.9534 13.7586 30.1719 13.4887 30.1719Z" fill="#000033"/>
<path fill-rule="evenodd" clip-rule="evenodd" d="M30.5622 14.8331C29.9658 14.8331 29.4809 15.318 29.4809 15.9136C29.4809 16.5058 29.9658 16.9873 30.5622 16.9873C31.1586 16.9873 31.6423 16.5058 31.6423 15.9136C31.6423 15.318 31.1586 14.8331 30.5622 14.8331ZM30.5622 17.8989C29.4602 17.8989 28.564 17.0078 28.564 15.9136C28.564 14.8149 29.4602 13.9215 30.5622 13.9215C31.6642 13.9215 32.5604 14.8149 32.5604 15.9136C32.5604 17.0078 31.6642 17.8989 30.5622 17.8989ZM26.2538 19.2737L30.1589 19.8136C30.4106 19.8136 31.2399 20.2288 31.2399 20.4809C31.2399 21.3332 32.1647 22.0904 31.6453 22.751L35.5497 20.1375L34.9689 19.3239C34.7035 18.9736 34.6678 18.5138 34.8781 18.1293C35.0022 17.884 35.1091 17.625 35.1999 17.3569C35.3148 16.9633 35.6721 16.6564 36.1088 16.5891L37.4095 16.3871C37.5222 16.37 37.6072 16.2685 37.6072 16.1544V15.6649C37.6072 15.5531 37.5233 15.4561 37.413 15.439L36.1065 15.2313C35.6756 15.1652 35.3171 14.8594 35.1953 14.4555C35.1068 14.1885 34.9976 13.9318 34.8666 13.6842C34.6701 13.3031 34.7058 12.849 34.9609 12.4976L35.7434 11.4343C35.8077 11.343 35.7985 11.2141 35.7158 11.133L35.3699 10.7885C35.301 10.72 35.2068 10.6607 35.062 10.7657L33.9979 11.5369C33.6498 11.7857 33.1637 11.8222 32.7983 11.6294C32.5524 11.5039 32.2893 11.3943 32.0181 11.311C31.6113 11.1798 31.3148 10.8353 31.2367 10.4097C31.185 10.0423 31.1034 9.538 31.0391 9.14323C31.0172 8.99605 30.9115 8.91162 30.7978 8.91162H30.306C30.1922 8.91162 30.0968 8.99491 30.0784 9.11014L29.8682 10.4085C29.8027 10.8307 29.5074 11.1775 29.0983 11.3099C28.8168 11.4023 28.5525 11.5118 28.3135 11.6328C27.9572 11.8245 27.4482 11.7902 27.1081 11.529L26.0532 10.7702C25.9567 10.7018 25.8234 10.7132 25.7418 10.7953L25.3937 11.1399C25.3155 11.2198 25.3052 11.3475 25.373 11.4377L26.1498 12.5113C26.4094 12.8536 26.4497 13.3111 26.252 13.6945C26.1164 13.9421 26.0096 14.1976 25.9268 14.4612C25.7958 14.8742 25.4465 15.1709 25.0145 15.237L23.7068 15.4458C23.5896 15.4629 23.5103 15.5565 23.5103 15.6717V16.1601C23.5103 16.2742 23.5965 16.3768 23.7045 16.394L25.0156 16.5959C25.458 16.6746 25.805 16.9713 25.9337 17.3706C26.0142 17.6296 26.121 17.8875 26.252 18.1396C26.3692 18.3655 26.093 18.9699 26.047 19.2118L26.2538 19.2737ZM32.0918 22.4697C31.9711 22.4012 31.8872 22.9544 31.8654 22.8164L31.8528 22.7365C31.839 22.6395 31.8217 22.5368 31.8034 22.4353C31.7631 22.2265 31.267 22.3968 31.4635 22.3123C31.7749 22.1777 30.9821 21.6013 31.2349 21.3502C31.6727 20.9167 30.2689 21.0398 30.3642 20.4442L25.5936 19.7723C25.4212 19.7723 25.2638 19.6753 25.1845 19.5236C25.1064 19.3707 25.1213 19.1881 25.2224 19.049C25.2224 19.049 25.4071 18.6169 25.4033 18.5304C25.3886 18.1981 25.1983 17.9286 25.057 17.6433C25.0211 17.571 24.9616 17.511 24.8628 17.4938L23.5632 17.2942C23.0093 17.2075 22.5911 16.7203 22.5911 16.1601V15.6717C22.5911 15.1047 23.0013 14.6312 23.5643 14.5456L24.8743 14.3368C24.9593 14.3243 25.0271 14.2684 25.0512 14.1885C25.1501 13.8725 25.2811 13.5621 25.4385 13.2712C25.4718 13.2062 25.4638 13.1183 25.4109 13.0498L24.6318 11.9751C24.2997 11.5278 24.3434 10.906 24.7421 10.4998L25.0926 10.1507C25.4844 9.76048 26.1371 9.708 26.5898 10.032L27.6596 10.7999C27.7401 10.8615 27.8182 10.8638 27.8849 10.8273C28.1756 10.6789 28.4835 10.5523 28.811 10.4439C28.8926 10.4177 28.9478 10.3504 28.9604 10.2671L29.1718 8.96867C29.2569 8.40846 29.7349 8 30.306 8H30.7978C31.3608 8 31.8526 8.41416 31.9388 8.9641C32.01 9.3988 32.0916 9.90881 32.1433 10.2648C32.1571 10.3412 32.2169 10.4177 32.2962 10.4428C32.6145 10.5409 32.9293 10.671 33.2258 10.8238C33.2959 10.8604 33.3924 10.8478 33.4602 10.7987L34.5254 10.0263C34.9827 9.7023 35.6296 9.75706 36.0192 10.1438L36.365 10.4896C36.7649 10.8866 36.8178 11.5084 36.4857 11.9671L35.7032 13.0316C35.6538 13.1023 35.6446 13.1913 35.6825 13.2643C35.8353 13.5541 35.9629 13.8554 36.0709 14.1839C36.095 14.2638 36.1651 14.3186 36.249 14.3311L37.5566 14.5399C38.1174 14.6278 38.5264 15.1013 38.5264 15.6649V16.1544C38.5264 16.7134 38.1082 17.2006 37.5543 17.2873L36.2513 17.4881C36.1639 17.5018 36.095 17.5566 36.0755 17.6273C35.9652 17.9559 35.8422 18.2514 35.6917 18.5504C35.6469 18.6336 35.6549 18.7147 35.7066 18.7831L36.4834 19.8499C36.5064 19.8784 36.5558 19.9435 36.5914 20.0336C36.6431 20.1614 36.6328 20.304 36.5661 20.4238C36.4983 20.5436 36.38 20.6269 36.2444 20.6508C36.1697 20.6634 36.0973 20.6919 36.0226 20.7182L32.4882 22.4982C32.4342 22.5199 32.3756 22.5301 32.3193 22.5301C32.2412 22.5301 32.1607 22.5096 32.0918 22.4697Z" fill="#000033"/>
<path fill-rule="evenodd" clip-rule="evenodd" d="M27.8332 49.6034H41.1777C41.4476 49.6034 41.6665 49.3848 41.6665 49.1155C41.6665 48.8455 41.4476 48.6281 41.1777 48.6281H27.8332C27.1568 48.6281 26.5077 48.42 25.9576 48.0264L20.4154 44.0665C20.1455 43.874 19.8797 43.6572 19.6244 43.4225C19.5178 43.3242 19.4095 43.2277 19.3012 43.1317C18.9955 42.8601 18.7071 42.604 18.4489 42.2976C18.0273 41.7952 17.7488 41.1524 17.6862 40.5327C17.666 40.339 17.7517 40.1593 17.9097 40.065C18.3255 39.8176 18.8391 39.8228 19.2497 40.0772L25.602 44.0087C25.9414 44.2191 26.3728 44.2064 26.6988 43.9763C27.0254 43.7457 27.1817 43.3451 27.096 42.9549C27.0775 42.8416 26.909 41.6692 27.9513 41.468L33.6331 40.7142C34.5608 40.5922 35.2829 40.5697 36.0131 40.8293L41.0133 42.6121C41.2669 42.7022 41.5478 42.571 41.6381 42.3172C41.729 42.0635 41.5964 41.7842 41.3422 41.6935L36.3414 39.9107C35.4299 39.5852 34.548 39.6101 33.5051 39.7471L27.7938 40.5055C26.1585 40.8206 25.9981 42.3693 26.1377 43.145L26.1249 43.1838L19.7651 39.2482C19.043 38.8002 18.1402 38.7915 17.4089 39.2274C16.9213 39.5182 16.6543 40.0558 16.7134 40.631C16.7956 41.4409 17.1558 42.2768 17.7007 42.9248C18.0041 43.2855 18.333 43.578 18.6515 43.8601C18.7552 43.9532 18.8594 44.0457 18.9619 44.1393C19.2462 44.4018 19.5439 44.644 19.8467 44.8602L25.3884 48.8206C26.1058 49.3322 26.9513 49.6034 27.8332 49.6034Z" fill="#000033"/>
<path fill-rule="evenodd" clip-rule="evenodd" d="M26.1056 44.1579C26.1183 44.1579 26.1316 44.1573 26.1444 44.1562L29.5921 43.8845C29.8614 43.8636 30.0623 43.6289 30.0415 43.3601C30.0201 43.0913 29.7803 42.8878 29.5157 42.9121L26.0679 43.1832C25.7987 43.2052 25.5977 43.4399 25.6192 43.7087C25.6394 43.9637 25.8531 44.1579 26.1056 44.1579Z" fill="#000033"/>
<path fill-rule="evenodd" clip-rule="evenodd" d="M44.5113 50.9998C44.7811 50.9998 45 50.7813 45 50.5113V40.5094C45 40.24 44.7811 40.0215 44.5113 40.0215C44.2414 40.0215 44.0225 40.24 44.0225 40.5094V50.5113C44.0225 50.7813 44.2414 50.9998 44.5113 50.9998Z" fill="#000033"/>
<path fill-rule="evenodd" clip-rule="evenodd" d="M25.207 43.0329C25.2306 43.0187 25.9064 43.5212 26.2294 43.4084C26.5042 43.3125 26.4333 42.5987 26.4539 42.5893C26.1626 42.5427 25.0992 42.1017 24.7933 41.8041C23.658 41.0077 22.9858 39.7264 22.9858 38.3425C22.9858 35.999 24.9036 34.0924 27.2592 34.0924C29.6183 34.0924 31.5384 35.999 31.5384 38.3425C31.5384 39.051 31.3614 39.7413 31.0282 40.3528H31.5545C31.5602 40.3391 31.566 40.3266 31.5717 40.3129C31.6797 40.0722 31.7705 39.8177 31.844 39.5553C31.9716 39.0647 32.4278 38.719 32.9495 38.719H33.4792C33.609 38.719 33.7147 38.6152 33.7147 38.4851V38.1987C33.7147 38.0652 33.6136 37.9648 33.4792 37.9648H32.9495C32.4289 37.9648 31.9727 37.6168 31.8417 37.1171C31.7659 36.8433 31.6717 36.5923 31.5706 36.3766C31.3568 35.8986 31.4844 35.3475 31.8751 35.0246L32.2738 34.6926C32.3749 34.6082 32.3876 34.4667 32.3014 34.3674L32.1152 34.1415C32.0509 34.0628 31.936 33.9886 31.7923 34.1118L31.3994 34.4359C31.0133 34.7576 30.4238 34.7861 30.0055 34.4998C29.7918 34.3503 29.5528 34.2111 29.292 34.0856C28.8358 33.8745 28.5726 33.3691 28.6611 32.8625L28.7484 32.3799C28.7691 32.2567 28.6783 32.1312 28.5496 32.106L28.275 32.0627C28.1325 32.0581 28.0222 32.1243 27.9992 32.2498L27.8154 33.2561C27.7763 33.4718 27.5856 33.6304 27.3638 33.6304C27.3489 33.6304 27.2868 33.6269 27.2696 33.6258C26.864 33.6121 26.4698 33.6771 26.0676 33.7844C25.5448 33.9156 25.0266 33.6885 24.7726 33.255L24.5451 32.8591C24.4854 32.7552 24.3371 32.7108 24.2222 32.7769L23.9763 32.9184C23.8614 32.9834 23.8235 33.1283 23.889 33.2424L24.1062 33.6201C24.3693 34.0662 24.2946 34.6321 23.9212 34.9915C23.7224 35.19 23.5362 35.4102 23.3765 35.6407C23.0892 36.0515 22.5273 36.2283 22.0459 36.0572L21.6334 35.9054C21.5208 35.8655 21.3806 35.9351 21.338 36.0503L21.2404 36.3184C21.1956 36.4394 21.2588 36.5751 21.3794 36.6196L21.7781 36.7611C22.2745 36.9437 22.5756 37.4172 22.5319 37.9443C22.5204 38.0766 22.5147 38.2056 22.5147 38.3425C22.5147 38.4794 22.5193 38.6163 22.5365 38.7555C22.5825 39.2963 22.2722 39.7835 21.7827 39.9558L21.384 40.0984C21.2645 40.1418 21.2025 40.2764 21.2473 40.3996L21.3461 40.6643C21.3886 40.783 21.5242 40.8526 21.6403 40.8104C21.6403 40.8104 24.321 42.3164 24.2739 42.6633L25.207 43.0329ZM23.3007 42.3586C23.0502 42.1076 22.8284 41.852 22.6445 41.5919C22.5859 41.5075 22.4779 41.4767 22.3826 41.5098L20.3855 40.7111C20.1671 40.1167 20.4751 39.4572 21.0715 39.2415L21.4736 39.0978C21.5702 39.0636 21.6334 38.9586 21.623 38.8491C21.6046 38.6916 21.5966 38.5182 21.5966 38.3425C21.5966 38.1782 21.6035 38.0219 21.6173 37.8656C21.6276 37.7537 21.5679 37.6556 21.4644 37.6168L21.0669 37.4754C20.4682 37.2586 20.1614 36.6014 20.3786 36.0058L20.4762 35.7388C20.6888 35.1615 21.376 34.8386 21.9517 35.052L22.3584 35.2014C22.44 35.2288 22.5664 35.2026 22.6227 35.1216C22.8135 34.8466 23.0341 34.5842 23.2777 34.3435C23.3512 34.2716 23.3627 34.1643 23.311 34.0753L23.0915 33.6931C22.7755 33.1409 22.9674 32.4392 23.519 32.1277L23.7649 31.9862C24.3073 31.6793 25.03 31.879 25.3403 32.4038L25.5666 32.8009C25.6172 32.8842 25.7287 32.9298 25.8344 32.9024C26.2159 32.802 26.6008 32.7404 26.98 32.7199L27.0949 32.0912C27.2018 31.482 27.7913 31.0541 28.4267 31.1636L28.7071 31.2081C29.3425 31.3291 29.7596 31.9246 29.6516 32.5373L29.5654 33.0188C29.5482 33.1215 29.5976 33.2219 29.6884 33.263C29.9986 33.4147 30.2813 33.5767 30.5307 33.7513C30.5984 33.7981 30.6892 33.8392 30.811 33.7365L31.1994 33.417C31.6476 33.0325 32.422 33.0895 32.8196 33.5573L33.0069 33.7832C33.4114 34.2602 33.3493 34.9824 32.8644 35.3908L32.4623 35.7229C32.3864 35.7879 32.36 35.9008 32.4048 35.9978C32.5243 36.2466 32.6346 36.5478 32.7277 36.8786C32.7553 36.9825 32.8472 37.0532 32.9495 37.0532H33.4792C34.1146 37.0532 34.634 37.5678 34.634 38.1987V38.4851C34.634 39.1172 34.1146 39.6306 33.4792 39.6306H32.9495C32.8449 39.6306 32.7553 39.6968 32.73 39.7903C32.6438 40.103 32.5369 40.0671 32.4094 40.3478C32.3887 40.3923 32.3887 40.4254 32.3899 40.4459C32.3979 40.5691 32.3531 40.6923 32.2658 40.7848C32.1784 40.876 32.0578 40.9274 31.9325 40.9274H30.1549C29.9768 40.9274 29.8125 40.8235 29.7378 40.6615C29.6631 40.4984 29.6918 40.6438 29.809 40.5091C30.3319 39.9124 30.6214 39.1434 30.6214 38.3425C30.6214 36.5021 29.1127 35.0041 27.2592 35.0041C25.4081 35.0041 23.9028 36.5021 23.9028 38.3425C23.9028 39.4766 24.4796 40.5228 25.4437 41.1424C25.5437 41.2063 26.4234 41.776 26.9126 41.7288C27.0375 41.7167 26.6031 43.0033 26.6973 43.0751C26.864 43.2006 26.9249 43.4208 26.8444 43.6114C26.7651 43.8019 26.5663 43.9183 26.3607 43.8886C26.1894 43.867 23.3754 42.4294 23.3007 42.3586Z" fill="#000033"/>
</svg>
