<svg width="688" height="437" viewBox="0 0 688 437" fill="none" xmlns="http://www.w3.org/2000/svg">
<g opacity="0.197322">
<path d="M675.5 270.589V435.639" stroke="#979797" stroke-linecap="square"/>
<path d="M378.5 1.3613V435.639" stroke="#979797" stroke-linecap="square"/>
<path d="M476.5 1.3613V435.639" stroke="#979797" stroke-linecap="square"/>
<path d="M576.5 1.3613V435.639" stroke="#979797" stroke-linecap="square"/>
<path d="M278.5 1.3613V435.639" stroke="#979797" stroke-linecap="square"/>
<path d="M179.5 1.3613V435.639" stroke="#979797" stroke-linecap="square"/>
<path d="M79.5 1.3613V435.639" stroke="#979797" stroke-linecap="square"/>
<path d="M686.409 411.5H30" stroke="#979797" stroke-linecap="square"/>
<path d="M686.41 314.5H24.5" stroke="#979797" stroke-linecap="square"/>
<path d="M686.41 216.5H1.5" stroke="#979797" stroke-linecap="square"/>
<path d="M686.409 118.5H16" stroke="#979797" stroke-linecap="square"/>
<path d="M620 20.5H43" stroke="#979797" stroke-linecap="square"/>
</g>
<path d="M641.2 215L541 114.8L523.3 132.5L593.2 202.7H440.8V227.3H593.2L523.3 296.9L541 315.2L641.2 215Z" fill="white" stroke="#00E599" stroke-width="0.5"/>
<path d="M291.2 215L191 114.8L173.3 132.5L243.2 202.7H90.7998V227.3H243.2L173.3 296.9L191 315.2L291.2 215Z" fill="white" stroke="#00E599" stroke-width="0.5"/>
<path d="M58.3096 293.582C181.292 220.742 287.5 287.17 353.115 283.391C468.815 276.727 491.676 230.845 572.67 219.267C613.214 213.472 649.872 112.626 649.872 112.626" stroke="#00E599" stroke-width="6" stroke-linecap="round" stroke-linejoin="round"/>
<circle cx="158" cy="260.5" r="8.5" fill="white" stroke="#00E599"/>
<circle cx="63" cy="291.5" r="8.5" fill="white" stroke="#00E599"/>
<circle cx="287.5" cy="271.5" r="8.5" fill="white" stroke="#00E599"/>
<circle cx="483" cy="251.5" r="8.5" fill="white" stroke="#00E599"/>
<circle cx="548.5" cy="224" r="8.5" fill="white" stroke="#00E599"/>
<circle cx="379.5" cy="281" r="8.5" fill="white" stroke="#00E599"/>
<g filter="url(#filter0_d)">
<path fill-rule="evenodd" clip-rule="evenodd" d="M404.47 178.5H352.21V234.78H343.5L379.01 262.92L414.52 234.78H404.47V178.5Z" fill="#F3F5F5"/>
</g>
<mask id="mask0" mask-type="alpha" maskUnits="userSpaceOnUse" x="362" y="192" width="19" height="16">
<path fill-rule="evenodd" clip-rule="evenodd" d="M362 192.583H380.628V207.767H362V192.583Z" fill="white"/>
</mask>
<g mask="url(#mask0)">
<path fill-rule="evenodd" clip-rule="evenodd" d="M366.136 194.126L363.593 198.531C363.317 199.01 363.317 199.603 363.593 200.082L366.782 205.606C367.058 206.084 367.573 206.381 368.125 206.381H374.503C375.056 206.381 375.57 206.084 375.846 205.606L379.035 200.082C379.311 199.603 379.311 199.01 379.035 198.531L376.492 194.126V198.565C376.492 200.184 375.174 201.502 373.555 201.502H369.073C367.454 201.502 366.136 200.184 366.136 198.565V194.126ZM374.503 207.767H368.125C367.079 207.767 366.105 207.204 365.582 206.299L362.392 200.775C361.869 199.869 361.869 198.744 362.392 197.838L365.041 193.249C365.347 192.721 365.946 192.472 366.537 192.63C367.126 192.788 367.523 193.304 367.523 193.914V198.565C367.523 199.42 368.218 200.116 369.073 200.116H373.555C374.41 200.116 375.105 199.42 375.105 198.565V193.914C375.105 193.304 375.501 192.788 376.091 192.63C376.681 192.472 377.281 192.721 377.587 193.249L380.236 197.838C380.759 198.744 380.759 199.869 380.235 200.775L377.047 206.299C376.523 207.204 375.549 207.767 374.503 207.767Z" fill="black"/>
</g>
<path fill-rule="evenodd" clip-rule="evenodd" d="M367.97 226.494C367.916 226.494 367.874 226.539 367.874 226.595V229.723C367.874 229.78 367.916 229.824 367.97 229.824H374.438C374.491 229.824 374.534 229.78 374.534 229.723V226.595C374.534 226.539 374.491 226.494 374.438 226.494H367.97Z" fill="#00E599"/>
<path fill-rule="evenodd" clip-rule="evenodd" d="M381.807 226.516C381.753 226.516 381.711 226.56 381.711 226.617V229.745C381.711 229.801 381.753 229.846 381.807 229.846H388.275C388.328 229.846 388.371 229.801 388.371 229.745V226.617C388.371 226.56 388.328 226.516 388.275 226.516H381.807Z" fill="#00E599"/>
<path fill-rule="evenodd" clip-rule="evenodd" d="M368.905 225.24H373.724V207.767H368.905V225.24ZM374.417 226.642C374.393 226.642 374.368 226.641 374.344 226.638C374.326 226.635 374.302 226.631 374.277 226.627H368.35C368.325 226.631 368.301 226.635 368.284 226.638C368.09 226.661 367.894 226.595 367.748 226.464C367.601 226.332 367.518 226.145 367.518 225.948V207.074C367.518 206.691 367.828 206.381 368.211 206.381H374.417C374.8 206.381 375.11 206.691 375.11 207.074V225.948C375.11 226.145 375.027 226.332 374.881 226.464C374.753 226.578 374.588 226.642 374.417 226.642Z" fill="black"/>
<path fill-rule="evenodd" clip-rule="evenodd" d="M368.905 230.975V231.719C368.905 233.048 369.985 234.129 371.314 234.129C372.643 234.129 373.724 233.048 373.724 231.719V230.975H368.905ZM371.314 235.515C369.221 235.515 367.518 233.812 367.518 231.719V230.267C367.518 230.073 367.599 229.888 367.742 229.756C367.885 229.626 368.074 229.56 368.27 229.577C368.291 229.579 368.322 229.583 368.351 229.588H374.279C374.308 229.583 374.337 229.579 374.358 229.577C374.557 229.561 374.744 229.626 374.886 229.756C375.029 229.888 375.11 230.073 375.11 230.267V231.719C375.11 233.812 373.407 235.515 371.314 235.515Z" fill="black"/>
<path fill-rule="evenodd" clip-rule="evenodd" d="M368.284 226.627C368.234 226.627 368.194 226.667 368.194 226.717V229.499C368.194 229.549 368.234 229.588 368.284 229.588H374.343C374.393 229.588 374.433 229.549 374.433 229.499V226.717C374.433 226.667 374.393 226.627 374.343 226.627H368.284ZM374.343 230.975H368.284C367.47 230.975 366.808 230.313 366.808 229.499V226.717C366.808 225.903 367.47 225.241 368.284 225.241H374.343C375.158 225.241 375.82 225.903 375.82 226.717V229.499C375.82 230.313 375.158 230.975 374.343 230.975Z" fill="black"/>
<path fill-rule="evenodd" clip-rule="evenodd" d="M382.446 225.24H387.266V216.719H382.446V225.24ZM387.959 226.642C387.935 226.642 387.91 226.641 387.886 226.638C387.868 226.635 387.844 226.631 387.819 226.627H381.892C381.867 226.631 381.843 226.635 381.826 226.638C381.632 226.661 381.436 226.595 381.29 226.464C381.143 226.332 381.06 226.145 381.06 225.948V216.026C381.06 215.644 381.371 215.333 381.753 215.333H387.959C388.342 215.333 388.653 215.644 388.653 216.026V225.948C388.653 226.145 388.569 226.332 388.423 226.464C388.295 226.578 388.129 226.642 387.959 226.642Z" fill="black"/>
<path fill-rule="evenodd" clip-rule="evenodd" d="M382.447 230.975V231.719C382.447 233.048 383.528 234.129 384.857 234.129C386.186 234.129 387.267 233.048 387.267 231.719V230.975H382.447ZM384.857 235.515C382.764 235.515 381.061 233.812 381.061 231.719V230.267C381.061 230.073 381.142 229.888 381.285 229.756C381.428 229.626 381.617 229.56 381.813 229.577C381.834 229.579 381.864 229.583 381.894 229.588H387.822C387.851 229.583 387.88 229.579 387.901 229.577C388.1 229.561 388.287 229.626 388.429 229.756C388.572 229.888 388.653 230.073 388.653 230.267V231.719C388.653 233.812 386.95 235.515 384.857 235.515Z" fill="black"/>
<path fill-rule="evenodd" clip-rule="evenodd" d="M381.827 226.627C381.777 226.627 381.737 226.667 381.737 226.717V229.499C381.737 229.549 381.777 229.588 381.827 229.588H387.886C387.936 229.588 387.976 229.549 387.976 229.499V226.717C387.976 226.667 387.936 226.627 387.886 226.627H381.827ZM387.886 230.975H381.827C381.013 230.975 380.351 230.313 380.351 229.499V226.717C380.351 225.903 381.013 225.241 381.827 225.241H387.886C388.701 225.241 389.363 225.903 389.363 226.717V229.499C389.363 230.313 388.701 230.975 387.886 230.975Z" fill="black"/>
<path fill-rule="evenodd" clip-rule="evenodd" d="M382.825 215.333H386.889L385.84 212.996H383.873L382.825 215.333ZM387.96 216.72H381.753C381.519 216.72 381.299 216.601 381.172 216.403C381.044 216.206 381.025 215.957 381.121 215.742L382.792 212.019C382.904 211.77 383.152 211.61 383.424 211.61H386.289C386.562 211.61 386.81 211.77 386.922 212.019L388.592 215.742C388.689 215.957 388.669 216.206 388.542 216.403C388.414 216.601 388.195 216.72 387.96 216.72Z" fill="black"/>
<path fill-rule="evenodd" clip-rule="evenodd" d="M384.117 211.61H385.595V199.341H384.117V211.61ZM386.289 212.996H383.424C383.041 212.996 382.73 212.686 382.73 212.303V198.648C382.73 198.265 383.041 197.955 383.424 197.955H386.289C386.672 197.955 386.982 198.265 386.982 198.648V212.303C386.982 212.686 386.672 212.996 386.289 212.996Z" fill="black"/>
<path fill-rule="evenodd" clip-rule="evenodd" d="M383.139 197.955H386.575L385.759 194.974H383.953L383.139 197.955ZM387.482 199.341H382.23C382.014 199.341 381.811 199.241 381.679 199.069C381.548 198.897 381.505 198.673 381.562 198.465L382.755 194.098C382.837 193.796 383.111 193.588 383.424 193.588H386.288C386.601 193.588 386.875 193.796 386.957 194.098L388.151 198.465C388.208 198.673 388.164 198.897 388.033 199.069C387.902 199.241 387.698 199.341 387.482 199.341Z" fill="black"/>
<g filter="url(#filter1_d)">
<path fill-rule="evenodd" clip-rule="evenodd" d="M183.97 162.5H131.71V218.78H123L158.51 246.92L194.02 218.78H183.97V162.5Z" fill="#F3F5F5"/>
</g>
<path fill-rule="evenodd" clip-rule="evenodd" d="M156.624 203.028C156.191 203.028 155.84 202.677 155.84 202.244C155.84 199.894 153.578 198.837 149.853 197.377C148.084 196.683 146.255 195.966 144.67 194.928C140.434 192.154 138.272 187.835 138.417 182.439C138.525 178.429 139.855 175.273 139.912 175.14C140.014 174.902 140.227 174.729 140.481 174.679C140.736 174.629 140.998 174.708 141.183 174.89C143.11 176.788 144.766 177.497 147.059 178.478C148.768 179.21 150.705 180.039 153.259 181.56C156.85 183.699 159.189 187.922 160.021 193.774C160.638 198.111 160.228 201.778 160.21 201.932C160.165 202.328 159.83 202.626 159.432 202.626H159.431C159.032 202.626 158.697 202.326 158.653 201.93C158.302 198.823 157.396 196.046 155.96 193.678C154.815 191.79 153.33 190.152 151.546 188.809C148.509 186.522 145.66 185.886 145.632 185.88C145.209 185.788 144.94 185.371 145.031 184.948C145.123 184.525 145.541 184.256 145.964 184.348C146.093 184.376 149.18 185.065 152.489 187.557C154.579 189.13 157.028 191.657 158.638 195.525C158.23 191.099 156.809 185.499 152.457 182.907C149.992 181.44 148.106 180.632 146.442 179.92C144.416 179.053 142.755 178.342 140.972 176.824C140.587 178.028 140.041 180.133 139.983 182.528C139.865 187.398 141.731 191.129 145.529 193.616C146.978 194.565 148.731 195.252 150.425 195.917C153.858 197.263 157.408 198.655 157.408 202.244C157.408 202.677 157.057 203.028 156.624 203.028Z" fill="#000033"/>
<path fill-rule="evenodd" clip-rule="evenodd" d="M162.134 203.028C161.701 203.028 161.35 202.677 161.35 202.244C161.35 199.425 163.906 198.228 166.378 197.071C167.389 196.597 168.434 196.108 169.359 195.502C172.021 193.759 173.331 191.141 173.251 187.724C173.216 186.212 172.906 184.861 172.645 183.979C171.435 184.949 170.288 185.44 168.909 186.03C167.717 186.54 166.367 187.118 164.606 188.167C163.276 188.959 162.639 189.825 162.275 190.408C162.046 190.775 161.562 190.888 161.195 190.658C160.828 190.429 160.716 189.945 160.945 189.578C161.66 188.432 162.569 187.556 163.803 186.82C165.654 185.718 167.056 185.118 168.292 184.589C169.92 183.892 171.096 183.389 172.453 182.052C172.637 181.87 172.9 181.791 173.154 181.841C173.409 181.891 173.622 182.064 173.724 182.302C173.765 182.399 174.738 184.709 174.817 187.635C174.924 191.599 173.334 194.773 170.218 196.814C169.2 197.48 168.103 197.994 167.043 198.49C164.485 199.688 162.918 200.51 162.918 202.244C162.918 202.677 162.567 203.028 162.134 203.028Z" fill="#000033"/>
<path fill-rule="evenodd" clip-rule="evenodd" d="M159.431 222.526C158.998 222.526 158.647 222.176 158.647 221.743V201.842C158.647 201.409 158.998 201.058 159.431 201.058C159.864 201.058 160.215 201.409 160.215 201.842V221.743C160.215 222.176 159.864 222.526 159.431 222.526Z" fill="#000033"/>
<circle cx="166.55" cy="218.78" r="2.01" fill="#00E599"/>
<circle cx="159.18" cy="224.14" r="2.01" fill="#00E599"/>
<circle cx="151.81" cy="215.43" r="2.01" fill="#00E599"/>
<path fill-rule="evenodd" clip-rule="evenodd" d="M159.432 222.526C158.768 222.526 158.229 223.066 158.229 223.729C158.229 224.392 158.768 224.932 159.432 224.932C160.095 224.932 160.634 224.392 160.634 223.729C160.634 223.066 160.095 222.526 159.432 222.526ZM159.432 226.499C157.904 226.499 156.661 225.257 156.661 223.729C156.661 222.201 157.904 220.959 159.432 220.959C160.959 220.959 162.202 222.201 162.202 223.729C162.202 225.257 160.959 226.499 159.432 226.499Z" fill="#000033"/>
<path fill-rule="evenodd" clip-rule="evenodd" d="M166.944 217.375C166.281 217.375 165.742 217.915 165.742 218.578C165.742 219.241 166.281 219.781 166.944 219.781C167.607 219.781 168.147 219.241 168.147 218.578C168.147 217.915 167.607 217.375 166.944 217.375ZM166.944 221.348C165.417 221.348 164.174 220.106 164.174 218.578C164.174 217.05 165.417 215.808 166.944 215.808C168.472 215.808 169.715 217.05 169.715 218.578C169.715 220.106 168.472 221.348 166.944 221.348Z" fill="#000033"/>
<path fill-rule="evenodd" clip-rule="evenodd" d="M151.927 214.323C151.264 214.323 150.724 214.862 150.724 215.526C150.724 216.189 151.264 216.728 151.927 216.728C152.59 216.728 153.129 216.189 153.129 215.526C153.129 214.862 152.59 214.323 151.927 214.323ZM151.927 218.296C150.399 218.296 149.156 217.053 149.156 215.526C149.156 213.998 150.399 212.755 151.927 212.755C153.454 212.755 154.697 213.998 154.697 215.526C154.697 217.053 153.454 218.296 151.927 218.296Z" fill="#000033"/>
<path fill-rule="evenodd" clip-rule="evenodd" d="M165.399 217.834C165.198 217.834 164.997 217.758 164.844 217.605L161.58 214.341C161.433 214.194 161.351 213.994 161.351 213.786V202.244C161.351 201.811 161.702 201.461 162.134 201.461C162.568 201.461 162.918 201.811 162.918 202.244V213.462L165.953 216.496C166.259 216.802 166.259 217.299 165.953 217.605C165.8 217.758 165.599 217.834 165.399 217.834Z" fill="#000033"/>
<path fill-rule="evenodd" clip-rule="evenodd" d="M153.36 214.699C153.159 214.699 152.959 214.622 152.806 214.469C152.5 214.163 152.5 213.667 152.806 213.36L155.84 210.326V202.244C155.84 201.811 156.191 201.461 156.624 201.461C157.057 201.461 157.408 201.811 157.408 202.244V210.651C157.408 210.859 157.325 211.058 157.178 211.205L153.914 214.469C153.761 214.622 153.561 214.699 153.36 214.699Z" fill="#000033"/>
<g filter="url(#filter2_d)">
<path fill-rule="evenodd" clip-rule="evenodd" d="M571.47 126H519.21V182.28H510.5L546.01 210.42L581.52 182.28H571.47V126Z" fill="#F3F5F5"/>
</g>
<path fill-rule="evenodd" clip-rule="evenodd" d="M544.794 163.848C544.361 163.848 544.01 163.498 544.01 163.064C544.01 160.714 541.748 159.657 538.023 158.197C536.254 157.503 534.424 156.786 532.84 155.748C528.604 152.974 526.442 148.655 526.587 143.259C526.695 139.249 528.025 136.093 528.082 135.96C528.184 135.722 528.397 135.549 528.651 135.499C528.906 135.449 529.168 135.528 529.353 135.71C531.28 137.608 532.936 138.317 535.229 139.299C536.938 140.03 538.875 140.859 541.429 142.38C545.02 144.519 547.359 148.742 548.191 154.594C548.808 158.931 548.398 162.598 548.38 162.752C548.335 163.148 548 163.446 547.601 163.446H547.6C547.202 163.446 546.867 163.146 546.823 162.75C546.472 159.643 545.566 156.866 544.129 154.498C542.984 152.61 541.5 150.972 539.716 149.629C536.679 147.342 533.83 146.706 533.802 146.7C533.379 146.608 533.11 146.191 533.201 145.768C533.293 145.345 533.711 145.076 534.134 145.168C534.263 145.196 537.35 145.885 540.659 148.377C542.749 149.95 545.198 152.477 546.808 156.345C546.4 151.919 544.979 146.319 540.627 143.727C538.162 142.26 536.276 141.452 534.612 140.74C532.586 139.873 530.925 139.162 529.142 137.644C528.757 138.848 528.211 140.953 528.153 143.348C528.035 148.218 529.901 151.949 533.699 154.436C535.148 155.385 536.9 156.073 538.595 156.737C542.028 158.083 545.578 159.475 545.578 163.064C545.578 163.498 545.227 163.848 544.794 163.848Z" fill="#000033"/>
<path fill-rule="evenodd" clip-rule="evenodd" d="M550.304 163.848C549.871 163.848 549.52 163.497 549.52 163.064C549.52 160.245 552.076 159.048 554.548 157.891C555.559 157.417 556.604 156.928 557.529 156.322C560.191 154.579 561.501 151.962 561.421 148.544C561.386 147.032 561.076 145.681 560.815 144.799C559.605 145.769 558.458 146.26 557.079 146.85C555.887 147.36 554.537 147.938 552.776 148.987C551.446 149.779 550.809 150.645 550.445 151.228C550.216 151.595 549.732 151.708 549.365 151.478C548.998 151.249 548.886 150.765 549.115 150.398C549.83 149.252 550.739 148.376 551.973 147.64C553.824 146.538 555.225 145.938 556.462 145.409C558.09 144.712 559.266 144.209 560.623 142.872C560.807 142.69 561.07 142.611 561.324 142.661C561.579 142.711 561.792 142.884 561.894 143.122C561.935 143.219 562.908 145.529 562.987 148.455C563.094 152.419 561.503 155.593 558.388 157.634C557.37 158.3 556.273 158.814 555.212 159.31C552.655 160.508 551.088 161.33 551.088 163.064C551.088 163.497 550.737 163.848 550.304 163.848Z" fill="#000033"/>
<path fill-rule="evenodd" clip-rule="evenodd" d="M547.601 183.346C547.168 183.346 546.817 182.996 546.817 182.563V162.662C546.817 162.229 547.168 161.878 547.601 161.878C548.034 161.878 548.385 162.229 548.385 162.662V182.563C548.385 182.996 548.034 183.346 547.601 183.346Z" fill="#000033"/>
<circle cx="554.72" cy="179.6" r="2.01" fill="#00E599"/>
<circle cx="547.35" cy="184.96" r="2.01" fill="#00E599"/>
<circle cx="539.98" cy="176.25" r="2.01" fill="#00E599"/>
<path fill-rule="evenodd" clip-rule="evenodd" d="M547.601 183.346C546.938 183.346 546.399 183.886 546.399 184.549C546.399 185.212 546.938 185.752 547.601 185.752C548.265 185.752 548.804 185.212 548.804 184.549C548.804 183.886 548.265 183.346 547.601 183.346ZM547.601 187.319C546.074 187.319 544.831 186.077 544.831 184.549C544.831 183.022 546.074 181.779 547.601 181.779C549.129 181.779 550.372 183.022 550.372 184.549C550.372 186.077 549.129 187.319 547.601 187.319Z" fill="#000033"/>
<path fill-rule="evenodd" clip-rule="evenodd" d="M555.114 178.195C554.451 178.195 553.912 178.735 553.912 179.398C553.912 180.061 554.451 180.601 555.114 180.601C555.777 180.601 556.317 180.061 556.317 179.398C556.317 178.735 555.777 178.195 555.114 178.195ZM555.114 182.168C553.587 182.168 552.344 180.926 552.344 179.398C552.344 177.87 553.587 176.628 555.114 176.628C556.642 176.628 557.885 177.87 557.885 179.398C557.885 180.926 556.642 182.168 555.114 182.168Z" fill="#000033"/>
<path fill-rule="evenodd" clip-rule="evenodd" d="M540.097 175.143C539.434 175.143 538.894 175.682 538.894 176.346C538.894 177.009 539.434 177.548 540.097 177.548C540.76 177.548 541.299 177.009 541.299 176.346C541.299 175.682 540.76 175.143 540.097 175.143ZM540.097 179.116C538.569 179.116 537.326 177.873 537.326 176.346C537.326 174.818 538.569 173.575 540.097 173.575C541.624 173.575 542.867 174.818 542.867 176.346C542.867 177.873 541.624 179.116 540.097 179.116Z" fill="#000033"/>
<path fill-rule="evenodd" clip-rule="evenodd" d="M553.568 178.654C553.368 178.654 553.167 178.578 553.014 178.425L549.75 175.161C549.603 175.014 549.521 174.814 549.521 174.606V163.064C549.521 162.631 549.871 162.281 550.304 162.281C550.737 162.281 551.088 162.631 551.088 163.064V174.282L554.123 177.316C554.429 177.622 554.429 178.119 554.123 178.425C553.97 178.578 553.769 178.654 553.568 178.654Z" fill="#000033"/>
<path fill-rule="evenodd" clip-rule="evenodd" d="M541.53 175.519C541.329 175.519 541.129 175.442 540.976 175.289C540.67 174.983 540.67 174.487 540.976 174.18L544.01 171.146V163.064C544.01 162.631 544.361 162.281 544.794 162.281C545.227 162.281 545.578 162.631 545.578 163.064V171.471C545.578 171.679 545.495 171.878 545.348 172.025L542.084 175.289C541.931 175.442 541.731 175.519 541.53 175.519Z" fill="#000033"/>
<g filter="url(#filter3_d)">
<path fill-rule="evenodd" clip-rule="evenodd" d="M311.14 371.59H258.88V315.31H250.17L285.68 287.17L321.19 315.31H311.14V371.59Z" fill="#F3F5F5"/>
</g>
<path fill-rule="evenodd" clip-rule="evenodd" d="M301.745 342.28L299.835 343.296C299.229 343.618 298.476 343.388 298.154 342.782L287.969 323.628C287.647 323.022 287.878 322.268 288.484 321.946L290.394 320.931C291 320.608 291.753 320.839 292.075 321.445L302.26 340.599C302.582 341.205 302.351 341.958 301.745 342.28Z" stroke="#000033" stroke-width="1.395" stroke-linecap="round" stroke-linejoin="round"/>
<path d="M296.294 329.38L297.769 328.595C298.769 328.064 300.009 328.443 300.541 329.443L300.799 329.929C301.331 330.929 300.952 332.169 299.952 332.701L298.477 333.485" stroke="#000033" stroke-width="1.395" stroke-linecap="round" stroke-linejoin="round"/>
<path d="M298.151 342.795C296.629 342.469 289.464 341.341 280.04 346.352L275.277 337.394C284.446 332.519 287.305 326.683 288.07 324.596" stroke="#000033" stroke-width="1.395" stroke-linecap="round" stroke-linejoin="round"/>
<path fill-rule="evenodd" clip-rule="evenodd" d="M275.277 337.395L273.224 338.486C270.73 339.813 269.783 342.909 271.109 345.404C272.436 347.899 275.532 348.845 278.027 347.519L280.08 346.427" fill="#00E599"/>
<path d="M275.277 337.395L273.224 338.486C270.73 339.813 269.783 342.909 271.109 345.404C272.436 347.899 275.532 348.845 278.027 347.519L280.08 346.427" stroke="#000033" stroke-width="1.395" stroke-linecap="round" stroke-linejoin="round"/>
<path d="M279.354 346.813L286.615 354.994C287.199 355.652 288.158 355.825 288.935 355.411C290.023 354.833 290.284 353.389 289.467 352.466L285.971 348.517C284.806 347.203 285.069 344.497 286.751 343.602" stroke="#000033" stroke-width="1.395" stroke-linecap="round" stroke-linejoin="round"/>
<g filter="url(#filter4_d)">
<path fill-rule="evenodd" clip-rule="evenodd" d="M508.14 349.09H455.88V292.81H447.17L482.68 264.67L518.19 292.81H508.14V349.09Z" fill="#F3F5F5"/>
</g>
<circle cx="482.01" cy="302.86" r="3.35" fill="#00E599"/>
<path fill-rule="evenodd" clip-rule="evenodd" d="M481.865 299.527C480.141 299.527 478.739 300.929 478.739 302.653C478.739 304.377 480.141 305.779 481.865 305.779C483.589 305.779 484.991 304.377 484.991 302.653C484.991 300.929 483.589 299.527 481.865 299.527ZM481.865 307.137C479.392 307.137 477.381 305.125 477.381 302.653C477.381 300.181 479.392 298.171 481.865 298.171C484.337 298.171 486.348 300.181 486.348 302.653C486.348 305.125 484.337 307.137 481.865 307.137Z" fill="#000033"/>
<path fill-rule="evenodd" clip-rule="evenodd" d="M477.873 308.113L475.084 309.193C474.596 309.381 474.268 309.86 474.268 310.383V316.76C474.268 317.672 475.009 318.413 475.92 318.413H487.808C488.719 318.413 489.459 317.672 489.459 316.76V310.383C489.459 309.86 489.132 309.381 488.644 309.193L485.856 308.113L482.451 314.018C482.209 314.438 481.518 314.438 481.276 314.018L477.873 308.113ZM487.808 319.77H475.92C474.261 319.77 472.911 318.419 472.911 316.76V310.383C472.911 309.303 473.587 308.316 474.594 307.928L477.925 306.638C478.238 306.519 478.591 306.642 478.758 306.931L481.864 312.32L484.97 306.931C485.137 306.641 485.49 306.517 485.802 306.638L489.133 307.928C490.14 308.316 490.817 309.303 490.817 310.383V316.76C490.817 318.419 489.467 319.77 487.808 319.77Z" fill="#000033"/>
<path fill-rule="evenodd" clip-rule="evenodd" d="M488.144 328.343C488.126 328.343 488.107 328.342 488.09 328.341L483.303 327.963C482.929 327.934 482.65 327.607 482.679 327.233C482.709 326.86 483.041 326.577 483.409 326.61L488.196 326.987C488.57 327.018 488.849 327.344 488.819 327.718C488.791 328.073 488.494 328.343 488.144 328.343Z" fill="#000033"/>
<path fill-rule="evenodd" clip-rule="evenodd" d="M485.745 335.917H467.217C466.842 335.917 466.538 335.613 466.538 335.238C466.538 334.863 466.842 334.56 467.217 334.56H485.745C486.684 334.56 487.586 334.271 488.349 333.723L496.044 328.216C496.419 327.948 496.788 327.647 497.143 327.32C497.291 327.184 497.441 327.049 497.591 326.916C498.016 326.538 498.416 326.182 498.775 325.756C499.36 325.057 499.747 324.163 499.834 323.301C499.862 323.032 499.743 322.782 499.523 322.651C498.946 322.306 498.233 322.314 497.663 322.667L488.843 328.135C488.372 328.428 487.773 328.41 487.32 328.09C486.867 327.77 486.65 327.212 486.769 326.67C486.794 326.512 487.028 324.882 485.581 324.602L477.692 323.553C476.404 323.384 475.402 323.352 474.388 323.713L467.445 326.193C467.093 326.318 466.703 326.136 466.578 325.783C466.452 325.43 466.636 325.042 466.989 324.915L473.932 322.436C475.198 321.983 476.422 322.018 477.87 322.208L485.8 323.263C488.07 323.701 488.293 325.855 488.099 326.934L488.117 326.988L496.947 321.515C497.95 320.891 499.203 320.879 500.219 321.486C500.896 321.89 501.266 322.638 501.184 323.438C501.07 324.564 500.57 325.727 499.814 326.628C499.392 327.13 498.936 327.536 498.493 327.929C498.35 328.058 498.205 328.187 498.063 328.317C497.668 328.682 497.254 329.019 496.834 329.32L489.14 334.828C488.144 335.54 486.97 335.917 485.745 335.917Z" fill="#000033"/>
<path fill-rule="evenodd" clip-rule="evenodd" d="M488.144 328.343C488.126 328.343 488.107 328.342 488.09 328.341L483.303 327.963C482.929 327.934 482.65 327.607 482.679 327.233C482.709 326.86 483.041 326.577 483.409 326.61L488.196 326.987C488.57 327.018 488.849 327.344 488.819 327.718C488.791 328.073 488.494 328.343 488.144 328.343Z" fill="#000033"/>
<path fill-rule="evenodd" clip-rule="evenodd" d="M467.217 337.859C466.842 337.859 466.538 337.555 466.538 337.18V323.269C466.538 322.894 466.842 322.59 467.217 322.59C467.591 322.59 467.895 322.894 467.895 323.269V337.18C467.895 337.555 467.591 337.859 467.217 337.859Z" fill="#000033"/>
<path fill-rule="evenodd" clip-rule="evenodd" d="M462.589 337.859C462.214 337.859 461.91 337.555 461.91 337.18V323.269C461.91 322.894 462.214 322.59 462.589 322.59C462.963 322.59 463.267 322.894 463.267 323.269V337.18C463.267 337.555 462.963 337.859 462.589 337.859Z" fill="#000033"/>
<g filter="url(#filter5_dd)">
<path fill-rule="evenodd" clip-rule="evenodd" d="M652 67.5L675.816 81.25V108.75L652 122.5L628.184 108.75V81.25L652 67.5Z" fill="#F0F5F6"/>
<path d="M628.934 81.683L652 68.366L675.066 81.683V108.317L652 121.634L628.934 108.317V81.683Z" stroke="#00E599" stroke-width="1.5"/>
</g>
<circle cx="652.599" cy="90.844" r="2" transform="rotate(-44 652.599 90.844)" fill="#00E599"/>
<path fill-rule="evenodd" clip-rule="evenodd" d="M659.42 106.566C659.488 106.501 659.542 106.427 659.582 106.345C659.622 106.263 659.643 106.178 659.644 106.089L659.729 102.162C659.742 102.063 659.73 101.961 659.693 101.855C659.656 101.75 659.6 101.657 659.524 101.579L656.838 98.7969C656.886 98.5768 656.962 98.3018 657.068 97.9722C657.173 97.6425 657.278 97.3073 657.384 96.9666C657.654 96.032 657.987 94.9936 658.383 93.8513C658.778 92.709 658.999 91.7901 659.044 91.0948C659.128 90.1017 659.101 89.2863 658.962 88.6485C658.824 88.0107 658.607 87.3466 658.309 86.6563C657.948 85.8323 657.487 85.0286 656.926 84.2453C656.365 83.462 655.822 82.7647 655.297 82.1533C654.771 81.5418 654.311 81.0421 653.914 80.6539C653.597 80.3434 653.396 80.1463 653.312 80.0626L653.27 80.0211C653.129 79.8971 652.964 79.8334 652.776 79.8302C652.589 79.8269 652.422 79.8847 652.276 80.0037L651.746 80.4835C651.392 80.8033 650.953 81.2542 650.429 81.8362C649.905 82.4183 649.351 83.1158 648.768 83.9289C648.185 84.7419 647.664 85.6307 647.205 86.5951C646.861 87.2963 646.619 88.0242 646.479 88.7787C646.339 89.5331 646.3 90.3474 646.362 91.2215C646.393 91.9513 646.553 92.7967 646.84 93.7576C647.127 94.7184 647.412 95.6378 647.695 96.5157C647.81 96.8603 647.915 97.1936 648.009 97.5157C648.103 97.8378 648.186 98.1266 648.259 98.382L645.258 101.28C645.179 101.356 645.12 101.441 645.079 101.534C645.039 101.627 645.018 101.729 645.016 101.839L645.128 105.902C645.125 106.035 645.159 106.154 645.229 106.26C645.299 106.367 645.394 106.459 645.514 106.539C645.635 106.596 645.759 106.623 645.886 106.62C646.013 106.617 646.138 106.577 646.261 106.502L650.197 104.134C650.429 104.171 650.74 104.202 651.132 104.225C651.524 104.249 652.024 104.282 652.631 104.326L655.147 104.502L658.491 106.649C658.6 106.718 658.724 106.756 658.862 106.764C659 106.771 659.125 106.743 659.236 106.679C659.27 106.668 659.303 106.652 659.336 106.631C659.37 106.609 659.398 106.588 659.42 106.566ZM658.259 104.723L655.817 103.138C655.763 103.104 655.705 103.078 655.644 103.061C655.584 103.043 655.521 103.034 655.454 103.033C654.428 102.959 653.302 102.879 652.077 102.791C650.852 102.704 650.179 102.653 650.058 102.64C649.969 102.639 649.884 102.645 649.8 102.66C649.717 102.676 649.642 102.705 649.575 102.748L646.576 104.568L646.553 102.115L649.621 99.1517C649.711 99.0648 649.771 98.9581 649.801 98.8316C649.831 98.705 649.836 98.5753 649.816 98.4423C649.744 98.1427 649.648 97.7902 649.528 97.3847C649.408 96.9793 649.275 96.5433 649.128 96.0766C648.877 95.2766 648.61 94.41 648.328 93.4769C648.046 92.5437 647.883 91.7619 647.839 91.1312C647.796 90.3901 647.83 89.7056 647.941 89.0777C648.051 88.4497 648.255 87.84 648.553 87.2485C648.863 86.5798 649.214 85.9533 649.605 85.369C649.996 84.7846 650.387 84.25 650.777 83.765C651.166 83.2801 651.533 82.8555 651.876 82.4914C652.22 82.1272 652.509 81.8311 652.745 81.6032C652.984 81.8504 653.291 82.1735 653.665 82.5723C654.039 82.9711 654.426 83.4227 654.826 83.9269C655.227 84.4311 655.612 84.9655 655.984 85.53C656.355 86.0946 656.668 86.6664 656.923 87.2454C657.189 87.8578 657.375 88.4219 657.482 88.9376C657.589 89.4533 657.613 90.1305 657.555 90.9693C657.5 91.5872 657.28 92.4563 656.896 93.5767C656.511 94.6971 656.196 95.6806 655.949 96.5272C655.75 97.1536 655.592 97.6646 655.475 98.0604C655.357 98.4562 655.292 98.7478 655.277 98.9354C655.264 99.0568 655.276 99.1702 655.313 99.2759C655.35 99.3815 655.406 99.4736 655.482 99.5523L658.201 102.368L658.259 104.723ZM655.58 90.1227C655.566 90.9512 655.261 91.6531 654.665 92.2283C654.069 92.8036 653.357 93.084 652.529 93.0695C651.7 93.0551 650.998 92.75 650.423 92.1543C649.848 91.5586 649.567 90.8465 649.582 90.018C649.596 89.1894 649.901 88.4875 650.497 87.9123C651.093 87.337 651.805 87.0566 652.633 87.0711C653.462 87.0855 654.164 87.3906 654.739 87.9863C655.314 88.582 655.595 89.2941 655.58 90.1227ZM653.623 91.1493C653.32 91.4424 652.961 91.5825 652.547 91.5698C652.132 91.557 651.784 91.4045 651.502 91.1123C651.22 90.8201 651.08 90.4668 651.081 90.0524C651.083 89.6381 651.236 89.2844 651.539 88.9913C651.831 88.7091 652.187 88.5716 652.607 88.579C653.027 88.5863 653.378 88.7361 653.66 89.0283C653.942 89.3205 654.08 89.6766 654.072 90.0963C654.065 90.5161 653.915 90.8671 653.623 91.1493ZM652.68 112.88L652.174 113.401L651.62 112.861C650.317 111.512 649.581 110.469 649.412 109.731C649.242 108.994 649.309 108.207 649.61 107.373C649.691 107.164 649.767 106.956 649.837 106.747C649.907 106.538 649.961 106.296 649.999 106.02L651.47 106.228C651.42 106.559 651.351 106.859 651.264 107.128C651.176 107.397 651.097 107.642 651.027 107.862C650.842 108.367 650.778 108.83 650.837 109.251C650.896 109.672 651.354 110.348 652.211 111.28C653.122 110.335 653.602 109.628 653.648 109.159C653.695 108.69 653.629 108.194 653.451 107.672C653.388 107.472 653.322 107.258 653.255 107.03C653.187 106.803 653.133 106.545 653.094 106.257L654.587 106.217C654.648 106.483 654.705 106.688 654.758 106.833C654.811 106.977 654.869 107.139 654.932 107.317C655.194 108.128 655.244 108.91 655.082 109.665C654.919 110.419 654.119 111.49 652.68 112.88Z" fill="#000033"/>
<g filter="url(#filter6_d)">
<path d="M105.889 290.032C87.0361 290.826 72 306.355 72 325.4H87C87 314.428 95.665 305.476 106.521 305.018L105.889 290.032ZM72.0345 326.974C72.5546 338.816 78.8894 349.133 88.2178 355.156L96.3544 342.555C90.9488 339.065 87.3187 333.115 87.0201 326.316L72.0345 326.974ZM89.5368 355.968C94.7866 359.041 100.899 360.8 107.4 360.8V345.8C103.634 345.8 100.128 344.787 97.1146 343.023L89.5368 355.968ZM107.4 360.8C117.584 360.8 126.774 356.49 133.222 349.615L122.282 339.353C118.551 343.331 113.27 345.8 107.4 345.8V360.8ZM134.29 348.425C139.591 342.239 142.8 334.185 142.8 325.4H127.8C127.8 330.471 125.959 335.094 122.9 338.664L134.29 348.425ZM142.8 325.4C142.8 316.418 139.445 308.201 133.931 301.963L122.692 311.897C125.876 315.499 127.8 320.216 127.8 325.4H142.8ZM132.284 300.222C125.898 293.91 117.098 290 107.4 290V305C112.992 305 118.047 307.24 121.74 310.89L132.284 300.222Z" fill="#F3F5F5"/>
</g>
<path d="M127.012 305.556C121.973 300.575 115.046 297.5 107.4 297.5" stroke="#B9CDCD" stroke-width="15"/>
<path d="M128.595 343.545C132.775 338.666 135.3 332.328 135.3 325.4C135.3 318.317 132.661 311.85 128.312 306.93" stroke="#00E599" stroke-width="15"/>
<defs>
<filter id="filter0_d" x="311.5" y="166.5" width="103.02" height="114.42" filterUnits="userSpaceOnUse" color-interpolation-filters="sRGB">
<feFlood flood-opacity="0" result="BackgroundImageFix"/>
<feColorMatrix in="SourceAlpha" type="matrix" values="0 0 0 0 0 0 0 0 0 0 0 0 0 0 0 0 0 0 127 0"/>
<feOffset dx="-17" dy="3"/>
<feGaussianBlur stdDeviation="7.5"/>
<feColorMatrix type="matrix" values="0 0 0 0 0 0 0 0 0 0 0 0 0 0 0 0 0 0 0.34935 0"/>
<feBlend mode="normal" in2="BackgroundImageFix" result="effect1_dropShadow"/>
<feBlend mode="normal" in="SourceGraphic" in2="effect1_dropShadow" result="shape"/>
</filter>
<filter id="filter1_d" x="91" y="150.5" width="103.02" height="114.42" filterUnits="userSpaceOnUse" color-interpolation-filters="sRGB">
<feFlood flood-opacity="0" result="BackgroundImageFix"/>
<feColorMatrix in="SourceAlpha" type="matrix" values="0 0 0 0 0 0 0 0 0 0 0 0 0 0 0 0 0 0 127 0"/>
<feOffset dx="-17" dy="3"/>
<feGaussianBlur stdDeviation="7.5"/>
<feColorMatrix type="matrix" values="0 0 0 0 0 0 0 0 0 0 0 0 0 0 0 0 0 0 0.34935 0"/>
<feBlend mode="normal" in2="BackgroundImageFix" result="effect1_dropShadow"/>
<feBlend mode="normal" in="SourceGraphic" in2="effect1_dropShadow" result="shape"/>
</filter>
<filter id="filter2_d" x="478.5" y="114" width="103.02" height="114.42" filterUnits="userSpaceOnUse" color-interpolation-filters="sRGB">
<feFlood flood-opacity="0" result="BackgroundImageFix"/>
<feColorMatrix in="SourceAlpha" type="matrix" values="0 0 0 0 0 0 0 0 0 0 0 0 0 0 0 0 0 0 127 0"/>
<feOffset dx="-17" dy="3"/>
<feGaussianBlur stdDeviation="7.5"/>
<feColorMatrix type="matrix" values="0 0 0 0 0 0 0 0 0 0 0 0 0 0 0 0 0 0 0.34935 0"/>
<feBlend mode="normal" in2="BackgroundImageFix" result="effect1_dropShadow"/>
<feBlend mode="normal" in="SourceGraphic" in2="effect1_dropShadow" result="shape"/>
</filter>
<filter id="filter3_d" x="218.17" y="275.17" width="103.02" height="114.42" filterUnits="userSpaceOnUse" color-interpolation-filters="sRGB">
<feFlood flood-opacity="0" result="BackgroundImageFix"/>
<feColorMatrix in="SourceAlpha" type="matrix" values="0 0 0 0 0 0 0 0 0 0 0 0 0 0 0 0 0 0 127 0"/>
<feOffset dx="-17" dy="3"/>
<feGaussianBlur stdDeviation="7.5"/>
<feColorMatrix type="matrix" values="0 0 0 0 0 0 0 0 0 0 0 0 0 0 0 0 0 0 0.34935 0"/>
<feBlend mode="normal" in2="BackgroundImageFix" result="effect1_dropShadow"/>
<feBlend mode="normal" in="SourceGraphic" in2="effect1_dropShadow" result="shape"/>
</filter>
<filter id="filter4_d" x="415.17" y="252.67" width="103.02" height="114.42" filterUnits="userSpaceOnUse" color-interpolation-filters="sRGB">
<feFlood flood-opacity="0" result="BackgroundImageFix"/>
<feColorMatrix in="SourceAlpha" type="matrix" values="0 0 0 0 0 0 0 0 0 0 0 0 0 0 0 0 0 0 127 0"/>
<feOffset dx="-17" dy="3"/>
<feGaussianBlur stdDeviation="7.5"/>
<feColorMatrix type="matrix" values="0 0 0 0 0 0 0 0 0 0 0 0 0 0 0 0 0 0 0.34935 0"/>
<feBlend mode="normal" in2="BackgroundImageFix" result="effect1_dropShadow"/>
<feBlend mode="normal" in="SourceGraphic" in2="effect1_dropShadow" result="shape"/>
</filter>
<filter id="filter5_dd" x="583.185" y="57.5" width="92.6314" height="84" filterUnits="userSpaceOnUse" color-interpolation-filters="sRGB">
<feFlood flood-opacity="0" result="BackgroundImageFix"/>
<feColorMatrix in="SourceAlpha" type="matrix" values="0 0 0 0 0 0 0 0 0 0 0 0 0 0 0 0 0 0 127 0"/>
<feOffset dx="-33" dy="7"/>
<feGaussianBlur stdDeviation="6"/>
<feColorMatrix type="matrix" values="0 0 0 0 0.316369 0 0 0 0 0.366988 0 0 0 0 0.353496 0 0 0 0.25741 0"/>
<feBlend mode="normal" in2="BackgroundImageFix" result="effect1_dropShadow"/>
<feColorMatrix in="SourceAlpha" type="matrix" values="0 0 0 0 0 0 0 0 0 0 0 0 0 0 0 0 0 0 127 0"/>
<feOffset dx="-16" dy="2"/>
<feGaussianBlur stdDeviation="6"/>
<feColorMatrix type="matrix" values="0 0 0 0 0 0 0 0 0 0 0 0 0 0 0 0 0 0 0.144615 0"/>
<feBlend mode="normal" in2="effect1_dropShadow" result="effect2_dropShadow"/>
<feBlend mode="normal" in="SourceGraphic" in2="effect2_dropShadow" result="shape"/>
</filter>
<filter id="filter6_d" x="55" y="282" width="88.8" height="88.8" filterUnits="userSpaceOnUse" color-interpolation-filters="sRGB">
<feFlood flood-opacity="0" result="BackgroundImageFix"/>
<feColorMatrix in="SourceAlpha" type="matrix" values="0 0 0 0 0 0 0 0 0 0 0 0 0 0 0 0 0 0 127 0"/>
<feOffset dx="-8" dy="1"/>
<feGaussianBlur stdDeviation="4.5"/>
<feColorMatrix type="matrix" values="0 0 0 0 0 0 0 0 0 0 0 0 0 0 0 0 0 0 0.352208 0"/>
<feBlend mode="normal" in2="BackgroundImageFix" result="effect1_dropShadow"/>
<feBlend mode="normal" in="SourceGraphic" in2="effect1_dropShadow" result="shape"/>
</filter>
</defs>
</svg>
