<?xml version="1.0" encoding="utf-8"?>
<!-- Generator: Adobe Illustrator 18.0.0, SVG Export Plug-In . SVG Version: 6.00 Build 0)  -->
<!DOCTYPE svg PUBLIC "-//W3C//DTD SVG 1.1//EN" "http://www.w3.org/Graphics/SVG/1.1/DTD/svg11.dtd">
<svg version="1.1" id="Слой_1" xmlns="http://www.w3.org/2000/svg" xmlns:xlink="http://www.w3.org/1999/xlink" x="0px" y="0px"
	 viewBox="0 0 165.8 127.6" enable-background="new 0 0 165.8 127.6" xml:space="preserve">
<g>
	<path fill="#FFFFFF" d="M97.1,125.6h-6.2l-15.5-17.8v17.8h-8.1V93.2h6.2L89,111.4V93.2h8.1L97.1,125.6L97.1,125.6z"/>
	<path fill="#FFFFFF" d="M110.8,106.1h14.4v6.9h-14.4v5.6h16.5v7h-24.5V93.2h24.5v7h-16.5V106.1z"/>
	<path fill="#FFFFFF" d="M164.5,109.4c0,9.4-7.4,16.9-17.2,16.9c-9.8,0-17.2-7.4-17.2-16.9c0-9.4,7.4-16.9,17.2-16.9
		C157.1,92.5,164.5,99.9,164.5,109.4z M156.3,109.4c0-5.1-3.8-9.4-9-9.4s-9,4.3-9,9.4c0,5.1,3.8,9.4,9,9.4S156.3,114.5,156.3,109.4z
		"/>
</g>
<polygon fill="none" points="32.9,42.2 0,71.2 0,80.8 40,45.6 "/>
<polygon fill="none" points="35,40.3 42.2,43.7 83.3,7.5 76.1,4.2 "/>
<polygon fill="none" points="20.1,125.3 45.7,137.7 45.7,102.8 "/>
<polygon fill="none" points="67.6,83.5 67.6,91.5 114.5,113.5 114.5,42.2 "/>
<polygon fill="#FFFFFF" points="0,26.7 0,71.2 32.9,42.2 "/>
<polygon fill="#FFFFFF" points="68.6,0.6 2.3,24.8 35,40.3 76.1,4.2 "/>
<polygon fill="#95D600" points="47.3,46.1 113.8,21.9 83.3,7.5 42.2,43.7 "/>
<polygon fill="#95D600" points="45.7,48.3 40,45.6 0,80.8 0,115.6 20.1,125.3 45.7,102.8 "/>
<polygon fill="#95D600" points="114.5,24.2 67.6,41.1 67.6,83.5 114.5,42.2 "/>
<g>
	<path fill="#FFFFFF" d="M114.1,74.8h-1.5c-0.3-1.8-1.6-2.9-4.1-2.9c-2.2,0-3.7,1.1-3.7,2.8c0,1.3,1.1,2.1,3,2.5l2.2,0.4
		c2.6,0.5,4.1,1.7,4.1,3.8c0,2.7-2.2,4.4-5.4,4.4c-3.5,0-5.7-1.8-6.1-5h1.5c0.4,2.3,1.9,3.6,4.6,3.6c2.3,0,3.8-1.1,3.8-2.9
		c0-1.2-0.9-2.1-2.7-2.5l-2.5-0.5c-2.7-0.5-4-1.8-4-3.8c0-2.5,2.1-4.2,5.2-4.2C111.3,70.5,113.7,71.9,114.1,74.8z"/>
	<path fill="#FFFFFF" d="M122.5,70.8c3.3,0,5.6,1.9,5.6,4.8c0,3-2.3,5-5.8,5h-3.4v4.8h-1.5V70.8H122.5z M122.4,79.2
		c2.5,0,4.1-1.4,4.1-3.6c0-2.1-1.7-3.4-4.1-3.4h-3.5v7L122.4,79.2L122.4,79.2z"/>
	<path fill="#FFFFFF" d="M143.2,80.3h1.6c-0.7,3.2-3.4,5.4-6.9,5.4c-4.2,0-7.6-3.3-7.6-7.6c0-4.3,3.4-7.6,7.6-7.6
		c3.6,0,6.2,2.2,6.9,5.4h-1.6c-0.6-2.4-2.6-4-5.4-4c-3.4,0-6,2.6-6,6.1c0,3.5,2.6,6.1,6,6.1C140.6,84.2,142.6,82.7,143.2,80.3z"/>
	<path fill="#FFFFFF" d="M160.5,80.3h1.6c-0.7,3.2-3.4,5.4-6.9,5.4c-4.2,0-7.6-3.3-7.6-7.6c0-4.3,3.4-7.6,7.6-7.6
		c3.6,0,6.2,2.2,6.9,5.4h-1.6c-0.6-2.4-2.6-4-5.4-4c-3.4,0-6,2.6-6,6.1c0,3.5,2.6,6.1,6,6.1C157.9,84.2,159.9,82.7,160.5,80.3z"/>
</g>
</svg>
