<svg width="1061" height="1357" viewBox="0 0 1061 1357" fill="none" xmlns="http://www.w3.org/2000/svg">
<g opacity="0.197322">
<path d="M637 270.089V435.139" stroke="#979797" stroke-linecap="square"/>
<path d="M340 1.62625V1355.37" stroke="#979797" stroke-linecap="square"/>
<path d="M438 1.62625V1355.37" stroke="#979797" stroke-linecap="square"/>
<path d="M538 1.62625V1355.37" stroke="#979797" stroke-linecap="square"/>
<path d="M240 1.62625V1355.37" stroke="#979797" stroke-linecap="square"/>
<path d="M141 1.62625V1355.37" stroke="#979797" stroke-linecap="square"/>
<path d="M41 1.62625V1355.37" stroke="#979797" stroke-linecap="square"/>
<path d="M837.5 1.62625V1355.37" stroke="#979797" stroke-linecap="square"/>
<path d="M935.5 1.62625V1355.37" stroke="#979797" stroke-linecap="square"/>
<path d="M1035.5 1.13123V759.869" stroke="#979797" stroke-linecap="square"/>
<path d="M737.5 1.62625V1355.37" stroke="#979797" stroke-linecap="square"/>
<path d="M638.5 1.62625V1355.37" stroke="#979797" stroke-linecap="square"/>
<path d="M1059.59 314H15.5" stroke="#979797" stroke-linecap="square"/>
<path d="M1059.59 216H1.27259" stroke="#979797" stroke-linecap="square"/>
<path d="M1059.59 118H23.6779" stroke="#979797" stroke-linecap="square"/>
<path d="M1046.5 20H23.5" stroke="#979797" stroke-linecap="square"/>
<path d="M1059.59 705H15.5" stroke="#979797" stroke-linecap="square"/>
<path d="M1059.59 607H1.27259" stroke="#979797" stroke-linecap="square"/>
<path d="M1059.59 509H23.6779" stroke="#979797" stroke-linecap="square"/>
<path d="M1053.5 411H15.5" stroke="#979797" stroke-linecap="square"/>
</g>
<g opacity="0.197322">
<path d="M637 954.589V1119.64" stroke="#979797" stroke-linecap="square"/>
<path d="M1035.5 685.556V1354.44" stroke="#979797" stroke-linecap="square"/>
<path d="M1059.59 998.5H15.5" stroke="#979797" stroke-linecap="square"/>
<path d="M1059.59 900.5H1.27259" stroke="#979797" stroke-linecap="square"/>
<path d="M1059.59 802.5H23.6779" stroke="#979797" stroke-linecap="square"/>
<path d="M1046.5 704.5H23.5" stroke="#979797" stroke-linecap="square"/>
<path d="M1059.59 1291.5H1.27259" stroke="#979797" stroke-linecap="square"/>
<path d="M1059.59 1193.5H23.6779" stroke="#979797" stroke-linecap="square"/>
<path d="M1053.5 1095.5H15.5" stroke="#979797" stroke-linecap="square"/>
</g>
</svg>
