<svg width="348" height="341" viewBox="0 0 348 341" fill="none" xmlns="http://www.w3.org/2000/svg">
<g filter="url(#filter0_dd)">
<path fill-rule="evenodd" clip-rule="evenodd" d="M183 0L253.581 40.75V122.25L183 163L112.419 122.25V40.75L183 0Z" fill="#F0F5F6"/>
</g>
<path d="M145.984 107.122H141.21V109.082H145.018V110.944H141.21V114.5H138.802V105.26H145.984V107.122ZM151.336 105.12C152.269 105.12 153.072 105.311 153.744 105.694C154.425 106.067 154.948 106.609 155.312 107.318C155.676 108.027 155.858 108.881 155.858 109.88C155.858 110.879 155.676 111.733 155.312 112.442C154.948 113.151 154.425 113.697 153.744 114.08C153.072 114.453 152.269 114.64 151.336 114.64C150.403 114.64 149.595 114.453 148.914 114.08C148.233 113.697 147.71 113.151 147.346 112.442C146.982 111.733 146.8 110.879 146.8 109.88C146.8 108.881 146.982 108.027 147.346 107.318C147.71 106.609 148.233 106.067 148.914 105.694C149.595 105.311 150.403 105.12 151.336 105.12ZM151.336 107.01C150.888 107.01 150.51 107.117 150.202 107.332C149.894 107.547 149.661 107.869 149.502 108.298C149.343 108.718 149.264 109.245 149.264 109.88C149.264 110.505 149.343 111.033 149.502 111.462C149.661 111.891 149.894 112.213 150.202 112.428C150.51 112.643 150.888 112.75 151.336 112.75C151.784 112.75 152.157 112.643 152.456 112.428C152.764 112.213 152.997 111.891 153.156 111.462C153.315 111.033 153.394 110.505 153.394 109.88C153.394 109.245 153.315 108.718 153.156 108.298C152.997 107.869 152.764 107.547 152.456 107.332C152.157 107.117 151.784 107.01 151.336 107.01ZM165.478 105.26V110.734C165.478 112.041 165.128 113.021 164.428 113.674C163.738 114.318 162.711 114.64 161.348 114.64C159.995 114.64 158.968 114.318 158.268 113.674C157.568 113.021 157.218 112.041 157.218 110.734V105.26H159.64V110.776C159.64 111.439 159.78 111.933 160.06 112.26C160.35 112.587 160.779 112.75 161.348 112.75C161.927 112.75 162.356 112.587 162.636 112.26C162.926 111.933 163.07 111.439 163.07 110.776V105.26H165.478ZM175.556 105.26V114.5H172.882L170.012 109.502L169.312 108.13H169.298L169.354 109.838V114.5H167.226V105.26H169.9L172.77 110.258L173.47 111.63H173.484L173.428 109.922V105.26H175.556ZM181.409 105.26C182.856 105.26 183.962 105.661 184.727 106.464C185.502 107.267 185.889 108.405 185.889 109.88C185.889 111.355 185.502 112.493 184.727 113.296C183.962 114.099 182.856 114.5 181.409 114.5H177.489V105.26H181.409ZM181.171 112.68C181.955 112.68 182.524 112.447 182.879 111.98C183.243 111.504 183.425 110.804 183.425 109.88C183.425 108.956 183.243 108.261 182.879 107.794C182.524 107.318 181.955 107.08 181.171 107.08H179.897V112.68H181.171ZM186.116 114.5L189.364 105.26H192.248L195.482 114.5H193.004L191.198 108.564L190.792 107.108H190.764L190.386 108.55L188.538 114.5H186.116ZM188.23 112.414V110.776H193.368V112.414H188.23ZM203.051 105.26V107.122H200.041V114.5H197.633V107.122H194.609V105.26H203.051ZM206.722 105.26V114.5H204.314V105.26H206.722ZM212.801 105.12C213.734 105.12 214.537 105.311 215.209 105.694C215.89 106.067 216.413 106.609 216.777 107.318C217.141 108.027 217.323 108.881 217.323 109.88C217.323 110.879 217.141 111.733 216.777 112.442C216.413 113.151 215.89 113.697 215.209 114.08C214.537 114.453 213.734 114.64 212.801 114.64C211.867 114.64 211.06 114.453 210.379 114.08C209.697 113.697 209.175 113.151 208.811 112.442C208.447 111.733 208.265 110.879 208.265 109.88C208.265 108.881 208.447 108.027 208.811 107.318C209.175 106.609 209.697 106.067 210.379 105.694C211.06 105.311 211.867 105.12 212.801 105.12ZM212.801 107.01C212.353 107.01 211.975 107.117 211.667 107.332C211.359 107.547 211.125 107.869 210.967 108.298C210.808 108.718 210.729 109.245 210.729 109.88C210.729 110.505 210.808 111.033 210.967 111.462C211.125 111.891 211.359 112.213 211.667 112.428C211.975 112.643 212.353 112.75 212.801 112.75C213.249 112.75 213.622 112.643 213.921 112.428C214.229 112.213 214.462 111.891 214.621 111.462C214.779 111.033 214.859 110.505 214.859 109.88C214.859 109.245 214.779 108.718 214.621 108.298C214.462 107.869 214.229 107.547 213.921 107.332C213.622 107.117 213.249 107.01 212.801 107.01ZM227.195 105.26V114.5H224.521L221.651 109.502L220.951 108.13H220.937L220.993 109.838V114.5H218.865V105.26H221.539L224.409 110.258L225.109 111.63H225.123L225.067 109.922V105.26H227.195Z" fill="#000033"/>
<path d="M157.5 42.6602V79.5988L181.731 88.201V50.9403L207.866 41.4181L184.145 33L157.5 42.6602Z" fill="#00E599"/>
<path d="M183.287 52.6898V72.4571L207.06 80.9483V43.879L183.287 52.6898Z" fill="#00AF92"/>
<path d="M183 162.5V182.185C183 199.306 196.879 213.185 214 213.185H273.982C291.103 213.185 304.982 227.064 304.982 244.185V246.5" stroke="#00E599" stroke-width="2" stroke-dasharray="7 7"/>
<path d="M182.482 162.5V182.185C182.482 199.306 168.603 213.185 151.482 213.185H91.4999C74.3791 213.185 60.4999 227.064 60.4999 244.185V246.5" stroke="#00E599" stroke-width="2" stroke-dasharray="7 7"/>
<path d="M160.482 213.185V213.185C150.275 213.185 142 221.46 142 231.667V246.5" stroke="#00E599" stroke-width="2" stroke-dasharray="7 7"/>
<path d="M205 213.185V213.185C215.207 213.185 223.482 221.46 223.482 231.667V246.5" stroke="#00E599" stroke-width="2" stroke-dasharray="7 7"/>
<g filter="url(#filter1_dd)">
<path fill-rule="evenodd" clip-rule="evenodd" d="M305 241.5L339.641 261.5V301.5L305 321.5L270.359 301.5V261.5L305 241.5Z" fill="#F0F5F6"/>
</g>
<path fill-rule="evenodd" clip-rule="evenodd" d="M294.113 262.176C290.993 263.977 288.762 266.885 287.831 270.364C286.899 273.844 287.379 277.478 289.18 280.599C290.982 283.719 293.89 285.951 297.369 286.884C300.848 287.819 304.481 287.339 307.601 285.538C310.721 283.737 312.952 280.831 313.883 277.35C314.814 273.87 314.335 270.236 312.534 267.116C310.732 263.995 307.824 261.763 304.345 260.83C300.866 259.897 297.232 260.375 294.113 262.176ZM308.856 287.713C305.308 289.761 300.979 290.459 296.718 289.316C292.589 288.21 289.138 285.559 287.001 281.858C284.862 278.153 284.293 273.84 285.399 269.712C287.681 261.186 296.471 256.111 304.996 258.398C309.124 259.504 312.575 262.153 314.714 265.858C316.851 269.559 317.421 273.873 316.314 278.002C315.173 282.264 312.405 285.664 308.856 287.713Z" fill="#000033"/>
<path d="M287.831 270.364L287.31 270.225L287.831 270.364ZM297.369 286.884L297.508 286.364L297.508 286.364L297.369 286.884ZM313.883 277.35L313.362 277.21L313.362 277.211L313.883 277.35ZM296.718 289.316L296.857 288.795L296.857 288.795L296.718 289.316ZM285.399 269.712L285.92 269.852L285.92 269.851L285.399 269.712ZM304.996 258.398L304.856 258.919L304.856 258.919L304.996 258.398ZM316.314 278.002L315.794 277.862L315.793 277.862L316.314 278.002ZM293.843 261.709C290.6 263.582 288.278 266.607 287.31 270.225L288.351 270.504C289.246 267.162 291.386 264.372 294.382 262.643L293.843 261.709ZM287.31 270.225C286.341 273.842 286.84 277.624 288.714 280.869L289.647 280.33C287.917 277.332 287.457 273.845 288.351 270.504L287.31 270.225ZM288.714 280.869C290.586 284.112 293.612 286.435 297.229 287.405L297.508 286.364C294.167 285.468 291.377 283.326 289.647 280.33L288.714 280.869ZM297.229 287.405C300.847 288.377 304.627 287.877 307.87 286.005L307.331 285.071C304.335 286.801 300.85 287.261 297.508 286.364L297.229 287.405ZM307.87 286.005C311.114 284.132 313.436 281.108 314.404 277.489L313.362 277.211C312.469 280.553 310.327 283.342 307.331 285.071L307.87 286.005ZM314.404 277.489C315.372 273.872 314.873 270.09 313.001 266.847L312.067 267.386C313.797 270.382 314.257 273.869 313.362 277.21L314.404 277.489ZM313.001 266.847C311.127 263.602 308.102 261.279 304.485 260.309L304.205 261.35C307.546 262.246 310.337 264.388 312.067 267.386L313.001 266.847ZM304.485 260.309C300.867 259.339 297.087 259.836 293.843 261.709L294.382 262.643C297.378 260.913 300.864 260.454 304.205 261.35L304.485 260.309ZM308.587 287.246C305.157 289.226 300.975 289.9 296.857 288.795L296.578 289.837C300.984 291.018 305.459 290.297 309.126 288.18L308.587 287.246ZM296.857 288.795C292.867 287.726 289.533 285.166 287.468 281.588L286.534 282.127C288.742 285.952 292.311 288.694 296.578 289.837L296.857 288.795ZM287.468 281.588C285.4 278.007 284.851 273.842 285.92 269.852L284.879 269.573C283.735 273.839 284.324 278.299 286.534 282.127L287.468 281.588ZM285.92 269.851C288.124 261.613 296.619 256.708 304.856 258.919L305.136 257.877C296.323 255.513 287.237 260.759 284.879 269.573L285.92 269.851ZM304.856 258.919C308.847 259.988 312.179 262.546 314.247 266.127L315.18 265.588C312.97 261.76 309.402 259.02 305.135 257.877L304.856 258.919ZM314.247 266.127C316.312 269.705 316.863 273.872 315.794 277.862L316.835 278.141C317.978 273.875 317.389 269.413 315.18 265.588L314.247 266.127ZM315.793 277.862C314.691 281.981 312.017 285.266 308.587 287.246L309.126 288.18C312.793 286.063 315.655 282.548 316.835 278.141L315.793 277.862Z" fill="#F0F5F6"/>
<path fill-rule="evenodd" clip-rule="evenodd" d="M296.181 265.758C294.105 266.957 292.487 268.943 291.819 271.435C290.486 276.418 293.453 281.558 298.435 282.893C303.416 284.227 308.557 281.261 309.893 276.277C311.227 271.296 308.26 266.156 303.277 264.82C300.786 264.152 298.255 264.561 296.181 265.758ZM306.856 284.249C304.194 285.786 300.945 286.308 297.749 285.452C291.354 283.74 287.547 277.145 289.26 270.749C290.972 264.355 297.568 260.547 303.963 262.261C310.359 263.974 314.166 270.569 312.452 276.963C311.595 280.16 309.519 282.712 306.856 284.249Z" fill="#000033"/>
<path d="M291.819 271.435L291.299 271.295L291.299 271.296L291.819 271.435ZM298.435 282.893L298.295 283.413L298.435 282.893ZM309.893 276.277L310.413 276.417L309.893 276.277ZM303.277 264.82L303.417 264.299L303.417 264.299L303.277 264.82ZM297.749 285.452L297.888 284.931L297.888 284.931L297.749 285.452ZM289.26 270.749L289.781 270.889L289.781 270.889L289.26 270.749ZM312.452 276.963L311.931 276.824L311.931 276.824L312.452 276.963ZM295.911 265.292C293.718 266.558 292.005 268.659 291.299 271.295L292.34 271.574C292.969 269.227 294.493 267.355 296.45 266.225L295.911 265.292ZM291.299 271.296C289.888 276.566 293.026 282.002 298.295 283.413L298.574 282.372C293.88 281.114 291.083 276.27 292.34 271.574L291.299 271.296ZM298.295 283.413C303.564 284.825 309.001 281.688 310.413 276.417L309.372 276.138C308.114 280.834 303.268 283.63 298.574 282.372L298.295 283.413ZM310.413 276.417C311.825 271.148 308.687 265.712 303.417 264.299L303.138 265.34C307.833 266.599 310.63 271.444 309.372 276.138L310.413 276.417ZM303.417 264.299C300.781 263.593 298.103 264.026 295.911 265.292L296.45 266.225C298.406 265.096 300.79 264.711 303.138 265.34L303.417 264.299ZM306.587 283.782C304.043 285.251 300.941 285.749 297.888 284.931L297.609 285.973C300.95 286.868 304.345 286.321 307.126 284.716L306.587 283.782ZM297.888 284.931C291.782 283.296 288.144 276.997 289.781 270.889L288.74 270.61C286.949 277.293 290.927 284.184 297.609 285.973L297.888 284.931ZM289.781 270.889C291.416 264.782 297.716 261.145 303.824 262.781L304.103 261.74C297.42 259.949 290.529 263.928 288.74 270.61L289.781 270.889ZM303.824 262.781C309.932 264.418 313.569 270.718 311.931 276.824L312.972 277.103C314.764 270.421 310.786 263.531 304.103 261.74L303.824 262.781ZM311.931 276.824C311.113 279.876 309.131 282.313 306.587 283.782L307.126 284.716C309.907 283.11 312.077 280.443 312.972 277.103L311.931 276.824Z" fill="#F0F5F6"/>
<path fill-rule="evenodd" clip-rule="evenodd" d="M307.626 291.31L314.542 303.287C315.351 304.69 317.145 305.17 318.548 304.36C319.95 303.551 320.431 301.757 319.621 300.354L312.706 288.378" fill="#00E599"/>
<path d="M307.626 291.31L314.542 303.287C315.351 304.69 317.145 305.17 318.548 304.36V304.36C319.95 303.551 320.431 301.757 319.621 300.354L312.706 288.378" stroke="#000033" stroke-width="1.5"/>
<path d="M312.236 283.526L313.437 285.646C313.989 286.602 313.661 287.826 312.705 288.378L307.508 291.378C306.552 291.93 305.329 291.602 304.776 290.646L303.519 288.347" stroke="#000033" stroke-width="1.5"/>
<g filter="url(#filter2_dd)">
<path fill-rule="evenodd" clip-rule="evenodd" d="M223.5 241.5L258.141 261.5V301.5L223.5 321.5L188.859 301.5V261.5L223.5 241.5Z" fill="#F0F5F6"/>
</g>
<g filter="url(#filter3_dd)">
<path fill-rule="evenodd" clip-rule="evenodd" d="M142 241.5L176.641 261.5V301.5L142 321.5L107.359 301.5V261.5L142 241.5Z" fill="#F0F5F6"/>
</g>
<g filter="url(#filter4_dd)">
<path fill-rule="evenodd" clip-rule="evenodd" d="M60.5 241.5L95.141 261.5V301.5L60.5 321.5L25.859 301.5V261.5L60.5 241.5Z" fill="#F0F5F6"/>
</g>
<path fill-rule="evenodd" clip-rule="evenodd" d="M210.613 262.176C207.493 263.977 205.262 266.885 204.331 270.364C203.399 273.844 203.879 277.478 205.68 280.599C207.482 283.719 210.39 285.951 213.869 286.884C217.348 287.819 220.981 287.339 224.101 285.538C227.221 283.737 229.452 280.831 230.383 277.35C231.314 273.87 230.835 270.236 229.034 267.116C227.232 263.995 224.324 261.763 220.845 260.83C217.366 259.897 213.732 260.375 210.613 262.176ZM225.356 287.713C221.808 289.761 217.479 290.459 213.218 289.316C209.089 288.21 205.638 285.559 203.501 281.858C201.362 278.153 200.793 273.84 201.899 269.712C204.181 261.186 212.971 256.111 221.496 258.398C225.624 259.504 229.075 262.153 231.214 265.858C233.351 269.559 233.921 273.873 232.814 278.002C231.673 282.264 228.905 285.664 225.356 287.713Z" fill="#000033"/>
<path d="M204.331 270.364L203.81 270.225L204.331 270.364ZM213.869 286.884L214.008 286.364L214.008 286.364L213.869 286.884ZM230.383 277.35L229.862 277.21L229.862 277.211L230.383 277.35ZM213.218 289.316L213.357 288.795L213.357 288.795L213.218 289.316ZM201.899 269.712L202.42 269.852L202.42 269.851L201.899 269.712ZM221.496 258.398L221.356 258.919L221.356 258.919L221.496 258.398ZM232.814 278.002L232.294 277.862L232.293 277.862L232.814 278.002ZM210.343 261.709C207.1 263.582 204.778 266.607 203.81 270.225L204.851 270.504C205.746 267.162 207.886 264.372 210.882 262.643L210.343 261.709ZM203.81 270.225C202.841 273.842 203.34 277.624 205.214 280.869L206.147 280.33C204.417 277.332 203.957 273.845 204.851 270.504L203.81 270.225ZM205.214 280.869C207.086 284.112 210.112 286.435 213.729 287.405L214.008 286.364C210.667 285.468 207.877 283.326 206.147 280.33L205.214 280.869ZM213.729 287.405C217.347 288.377 221.127 287.877 224.37 286.005L223.831 285.071C220.835 286.801 217.35 287.261 214.008 286.364L213.729 287.405ZM224.37 286.005C227.614 284.132 229.936 281.108 230.904 277.489L229.862 277.211C228.969 280.553 226.827 283.342 223.831 285.071L224.37 286.005ZM230.904 277.489C231.872 273.872 231.373 270.09 229.501 266.847L228.567 267.386C230.297 270.382 230.757 273.869 229.862 277.21L230.904 277.489ZM229.501 266.847C227.627 263.602 224.602 261.279 220.985 260.309L220.705 261.35C224.046 262.246 226.837 264.388 228.567 267.386L229.501 266.847ZM220.985 260.309C217.367 259.339 213.587 259.836 210.343 261.709L210.882 262.643C213.878 260.913 217.364 260.454 220.705 261.35L220.985 260.309ZM225.087 287.246C221.657 289.226 217.475 289.9 213.357 288.795L213.078 289.837C217.484 291.018 221.959 290.297 225.626 288.18L225.087 287.246ZM213.357 288.795C209.367 287.726 206.033 285.166 203.968 281.588L203.034 282.127C205.242 285.952 208.811 288.694 213.078 289.837L213.357 288.795ZM203.968 281.588C201.9 278.007 201.351 273.842 202.42 269.852L201.379 269.573C200.235 273.839 200.824 278.299 203.034 282.127L203.968 281.588ZM202.42 269.851C204.624 261.613 213.119 256.708 221.356 258.919L221.636 257.877C212.823 255.513 203.737 260.759 201.379 269.573L202.42 269.851ZM221.356 258.919C225.347 259.988 228.679 262.546 230.747 266.127L231.68 265.588C229.47 261.76 225.902 259.02 221.635 257.877L221.356 258.919ZM230.747 266.127C232.812 269.705 233.363 273.872 232.294 277.862L233.335 278.141C234.478 273.875 233.889 269.413 231.68 265.588L230.747 266.127ZM232.293 277.862C231.191 281.981 228.517 285.266 225.087 287.246L225.626 288.18C229.293 286.063 232.155 282.548 233.335 278.141L232.293 277.862Z" fill="#F0F5F6"/>
<path fill-rule="evenodd" clip-rule="evenodd" d="M212.681 265.758C210.605 266.957 208.987 268.943 208.319 271.435C206.986 276.418 209.953 281.558 214.935 282.893C219.916 284.227 225.057 281.261 226.393 276.277C227.727 271.296 224.76 266.156 219.777 264.82C217.286 264.152 214.755 264.561 212.681 265.758ZM223.356 284.249C220.694 285.786 217.445 286.308 214.249 285.452C207.854 283.74 204.047 277.145 205.76 270.749C207.472 264.355 214.068 260.547 220.463 262.261C226.859 263.974 230.666 270.569 228.952 276.963C228.095 280.16 226.019 282.712 223.356 284.249Z" fill="#000033"/>
<path d="M208.319 271.435L207.799 271.295L207.799 271.296L208.319 271.435ZM214.935 282.893L214.795 283.413L214.935 282.893ZM226.393 276.277L226.913 276.417L226.393 276.277ZM219.777 264.82L219.917 264.299L219.917 264.299L219.777 264.82ZM214.249 285.452L214.388 284.931L214.388 284.931L214.249 285.452ZM205.76 270.749L206.281 270.889L206.281 270.889L205.76 270.749ZM228.952 276.963L228.431 276.824L228.431 276.824L228.952 276.963ZM212.411 265.292C210.218 266.558 208.505 268.659 207.799 271.295L208.84 271.574C209.469 269.227 210.993 267.355 212.95 266.225L212.411 265.292ZM207.799 271.296C206.388 276.566 209.526 282.002 214.795 283.413L215.074 282.372C210.38 281.114 207.583 276.27 208.84 271.574L207.799 271.296ZM214.795 283.413C220.064 284.825 225.501 281.688 226.913 276.417L225.872 276.138C224.614 280.834 219.768 283.63 215.074 282.372L214.795 283.413ZM226.913 276.417C228.325 271.148 225.187 265.712 219.917 264.299L219.638 265.34C224.333 266.599 227.13 271.444 225.872 276.138L226.913 276.417ZM219.917 264.299C217.281 263.593 214.603 264.026 212.411 265.292L212.95 266.225C214.906 265.096 217.29 264.711 219.638 265.34L219.917 264.299ZM223.087 283.782C220.543 285.251 217.441 285.749 214.388 284.931L214.109 285.973C217.45 286.868 220.845 286.321 223.626 284.716L223.087 283.782ZM214.388 284.931C208.282 283.296 204.644 276.997 206.281 270.889L205.24 270.61C203.449 277.293 207.427 284.184 214.109 285.973L214.388 284.931ZM206.281 270.889C207.916 264.782 214.216 261.145 220.324 262.781L220.603 261.74C213.92 259.949 207.029 263.928 205.24 270.61L206.281 270.889ZM220.324 262.781C226.432 264.418 230.069 270.718 228.431 276.824L229.472 277.103C231.264 270.421 227.286 263.531 220.603 261.74L220.324 262.781ZM228.431 276.824C227.613 279.876 225.631 282.313 223.087 283.782L223.626 284.716C226.407 283.11 228.577 280.443 229.472 277.103L228.431 276.824Z" fill="#F0F5F6"/>
<path fill-rule="evenodd" clip-rule="evenodd" d="M224.126 291.31L231.042 303.287C231.851 304.69 233.645 305.17 235.048 304.36C236.45 303.551 236.931 301.757 236.121 300.354L229.206 288.378" fill="#00E599"/>
<path d="M224.126 291.31L231.042 303.287C231.851 304.69 233.645 305.17 235.048 304.36V304.36C236.45 303.551 236.931 301.757 236.121 300.354L229.206 288.378" stroke="#000033" stroke-width="1.5"/>
<path d="M228.736 283.526L229.937 285.646C230.489 286.602 230.161 287.826 229.205 288.378L224.008 291.378C223.052 291.93 221.829 291.602 221.276 290.646L220.019 288.347" stroke="#000033" stroke-width="1.5"/>
<path fill-rule="evenodd" clip-rule="evenodd" d="M130.113 262.176C126.993 263.977 124.762 266.885 123.831 270.364C122.899 273.844 123.379 277.478 125.18 280.599C126.982 283.719 129.89 285.951 133.369 286.884C136.848 287.819 140.481 287.339 143.601 285.538C146.721 283.737 148.952 280.831 149.883 277.35C150.814 273.87 150.335 270.236 148.534 267.116C146.732 263.995 143.824 261.763 140.345 260.83C136.866 259.897 133.232 260.375 130.113 262.176ZM144.856 287.713C141.308 289.761 136.979 290.459 132.718 289.316C128.589 288.21 125.138 285.559 123.001 281.858C120.862 278.153 120.293 273.84 121.399 269.712C123.681 261.186 132.471 256.111 140.996 258.398C145.124 259.504 148.575 262.153 150.714 265.858C152.851 269.559 153.421 273.873 152.314 278.002C151.173 282.264 148.405 285.664 144.856 287.713Z" fill="#000033"/>
<path d="M123.831 270.364L123.31 270.225L123.831 270.364ZM133.369 286.884L133.508 286.364L133.508 286.364L133.369 286.884ZM149.883 277.35L149.362 277.21L149.362 277.211L149.883 277.35ZM132.718 289.316L132.857 288.795L132.857 288.795L132.718 289.316ZM121.399 269.712L121.92 269.852L121.92 269.851L121.399 269.712ZM140.996 258.398L140.856 258.919L140.856 258.919L140.996 258.398ZM152.314 278.002L151.794 277.862L151.793 277.862L152.314 278.002ZM129.843 261.709C126.6 263.582 124.278 266.607 123.31 270.225L124.351 270.504C125.246 267.162 127.386 264.372 130.382 262.643L129.843 261.709ZM123.31 270.225C122.341 273.842 122.84 277.624 124.714 280.869L125.647 280.33C123.917 277.332 123.457 273.845 124.351 270.504L123.31 270.225ZM124.714 280.869C126.586 284.112 129.612 286.435 133.229 287.405L133.508 286.364C130.167 285.468 127.377 283.326 125.647 280.33L124.714 280.869ZM133.229 287.405C136.847 288.377 140.627 287.877 143.87 286.005L143.331 285.071C140.335 286.801 136.85 287.261 133.508 286.364L133.229 287.405ZM143.87 286.005C147.114 284.132 149.436 281.108 150.404 277.489L149.362 277.211C148.469 280.553 146.327 283.342 143.331 285.071L143.87 286.005ZM150.404 277.489C151.372 273.872 150.873 270.09 149.001 266.847L148.067 267.386C149.797 270.382 150.257 273.869 149.362 277.21L150.404 277.489ZM149.001 266.847C147.127 263.602 144.102 261.279 140.485 260.309L140.205 261.35C143.546 262.246 146.337 264.388 148.067 267.386L149.001 266.847ZM140.485 260.309C136.867 259.339 133.087 259.836 129.843 261.709L130.382 262.643C133.378 260.913 136.864 260.454 140.205 261.35L140.485 260.309ZM144.587 287.246C141.157 289.226 136.975 289.9 132.857 288.795L132.578 289.837C136.984 291.018 141.459 290.297 145.126 288.18L144.587 287.246ZM132.857 288.795C128.867 287.726 125.533 285.166 123.468 281.588L122.534 282.127C124.742 285.952 128.311 288.694 132.578 289.837L132.857 288.795ZM123.468 281.588C121.4 278.007 120.851 273.842 121.92 269.852L120.879 269.573C119.735 273.839 120.324 278.299 122.534 282.127L123.468 281.588ZM121.92 269.851C124.124 261.613 132.619 256.708 140.856 258.919L141.136 257.877C132.323 255.513 123.237 260.759 120.879 269.573L121.92 269.851ZM140.856 258.919C144.847 259.988 148.179 262.546 150.247 266.127L151.18 265.588C148.97 261.76 145.402 259.02 141.135 257.877L140.856 258.919ZM150.247 266.127C152.312 269.705 152.863 273.872 151.794 277.862L152.835 278.141C153.978 273.875 153.389 269.413 151.18 265.588L150.247 266.127ZM151.793 277.862C150.691 281.981 148.017 285.266 144.587 287.246L145.126 288.18C148.793 286.063 151.655 282.548 152.835 278.141L151.793 277.862Z" fill="#F0F5F6"/>
<path fill-rule="evenodd" clip-rule="evenodd" d="M132.181 265.758C130.105 266.957 128.487 268.943 127.819 271.435C126.486 276.418 129.453 281.558 134.435 282.893C139.416 284.227 144.557 281.261 145.893 276.277C147.227 271.296 144.26 266.156 139.277 264.82C136.786 264.152 134.255 264.561 132.181 265.758ZM142.856 284.249C140.194 285.786 136.945 286.308 133.749 285.452C127.354 283.74 123.547 277.145 125.26 270.749C126.972 264.355 133.568 260.547 139.963 262.261C146.359 263.974 150.166 270.569 148.452 276.963C147.595 280.16 145.519 282.712 142.856 284.249Z" fill="#000033"/>
<path d="M127.819 271.435L127.299 271.295L127.299 271.296L127.819 271.435ZM134.435 282.893L134.295 283.413L134.435 282.893ZM145.893 276.277L146.413 276.417L145.893 276.277ZM139.277 264.82L139.417 264.299L139.417 264.299L139.277 264.82ZM133.749 285.452L133.888 284.931L133.888 284.931L133.749 285.452ZM125.26 270.749L125.781 270.889L125.781 270.889L125.26 270.749ZM148.452 276.963L147.931 276.824L147.931 276.824L148.452 276.963ZM131.911 265.292C129.718 266.558 128.005 268.659 127.299 271.295L128.34 271.574C128.969 269.227 130.493 267.355 132.45 266.225L131.911 265.292ZM127.299 271.296C125.888 276.566 129.026 282.002 134.295 283.413L134.574 282.372C129.88 281.114 127.083 276.27 128.34 271.574L127.299 271.296ZM134.295 283.413C139.564 284.825 145.001 281.688 146.413 276.417L145.372 276.138C144.114 280.834 139.268 283.63 134.574 282.372L134.295 283.413ZM146.413 276.417C147.825 271.148 144.687 265.712 139.417 264.299L139.138 265.34C143.833 266.599 146.63 271.444 145.372 276.138L146.413 276.417ZM139.417 264.299C136.781 263.593 134.103 264.026 131.911 265.292L132.45 266.225C134.406 265.096 136.79 264.711 139.138 265.34L139.417 264.299ZM142.587 283.782C140.043 285.251 136.941 285.749 133.888 284.931L133.609 285.973C136.95 286.868 140.345 286.321 143.126 284.716L142.587 283.782ZM133.888 284.931C127.782 283.296 124.144 276.997 125.781 270.889L124.74 270.61C122.949 277.293 126.927 284.184 133.609 285.973L133.888 284.931ZM125.781 270.889C127.416 264.782 133.716 261.145 139.824 262.781L140.103 261.74C133.42 259.949 126.529 263.928 124.74 270.61L125.781 270.889ZM139.824 262.781C145.932 264.418 149.569 270.718 147.931 276.824L148.972 277.103C150.764 270.421 146.786 263.531 140.103 261.74L139.824 262.781ZM147.931 276.824C147.113 279.876 145.131 282.313 142.587 283.782L143.126 284.716C145.907 283.11 148.077 280.443 148.972 277.103L147.931 276.824Z" fill="#F0F5F6"/>
<path fill-rule="evenodd" clip-rule="evenodd" d="M143.626 291.31L150.542 303.287C151.351 304.69 153.145 305.17 154.548 304.36C155.95 303.551 156.431 301.757 155.621 300.354L148.706 288.378" fill="#00E599"/>
<path d="M143.626 291.31L150.542 303.287C151.351 304.69 153.145 305.17 154.548 304.36V304.36C155.95 303.551 156.431 301.757 155.621 300.354L148.706 288.378" stroke="#000033" stroke-width="1.5"/>
<path d="M148.236 283.526L149.437 285.646C149.989 286.602 149.661 287.826 148.705 288.378L143.508 291.378C142.552 291.93 141.329 291.602 140.776 290.646L139.519 288.347" stroke="#000033" stroke-width="1.5"/>
<path fill-rule="evenodd" clip-rule="evenodd" d="M48.6126 262.176C45.4929 263.977 43.262 266.885 42.3306 270.364C41.3991 273.844 41.8785 277.478 43.6805 280.599C45.4816 283.719 48.3896 285.951 51.8685 286.884C55.3484 287.819 58.9812 287.339 62.1008 285.538C65.2205 283.737 67.4523 280.831 68.3829 277.35C69.3144 273.87 68.8349 270.236 67.0338 267.116C65.2319 263.995 62.3239 261.763 58.8449 260.83C55.366 259.897 51.7323 260.375 48.6126 262.176ZM63.3564 287.713C59.808 289.761 55.4794 290.459 51.2176 289.316C47.0891 288.21 43.6378 285.559 41.5008 281.858C39.362 278.153 38.7929 273.84 39.8993 269.712C42.1806 261.186 50.9714 256.111 59.4959 258.398C63.6244 259.504 67.0748 262.153 69.2136 265.858C71.3506 269.559 71.9206 273.873 70.8141 278.002C69.6731 282.264 66.9048 285.664 63.3564 287.713Z" fill="#000033"/>
<path d="M42.3306 270.364L41.8099 270.225L42.3306 270.364ZM51.8685 286.884L52.0083 286.364L52.0082 286.364L51.8685 286.884ZM68.3829 277.35L67.8622 277.21L67.8622 277.211L68.3829 277.35ZM51.2176 289.316L51.3572 288.795L51.3571 288.795L51.2176 289.316ZM39.8993 269.712L40.4199 269.852L40.42 269.851L39.8993 269.712ZM59.4959 258.398L59.3562 258.919L59.3564 258.919L59.4959 258.398ZM70.8141 278.002L70.2935 277.862L70.2935 277.862L70.8141 278.002ZM48.3431 261.709C45.0996 263.582 42.7784 266.607 41.8099 270.225L42.8512 270.504C43.7457 267.162 45.8863 264.372 48.8821 262.643L48.3431 261.709ZM41.8099 270.225C40.8415 273.842 41.3403 277.624 43.2137 280.869L44.1473 280.33C42.4167 277.332 41.9568 273.845 42.8512 270.504L41.8099 270.225ZM43.2137 280.869C45.0862 284.112 48.1119 286.435 51.7289 287.405L52.0082 286.364C48.6673 285.468 45.8769 283.326 44.1473 280.33L43.2137 280.869ZM51.7287 287.405C55.347 288.377 59.127 287.877 62.3703 286.005L61.8313 285.071C58.8353 286.801 55.3498 287.261 52.0083 286.364L51.7287 287.405ZM62.3703 286.005C65.6137 284.132 67.936 281.108 68.9036 277.489L67.8622 277.211C66.9686 280.553 64.8273 283.342 61.8313 285.071L62.3703 286.005ZM68.9036 277.489C69.872 273.872 69.3731 270.09 67.5006 266.847L66.5671 267.386C68.2967 270.382 68.7567 273.869 67.8622 277.21L68.9036 277.489ZM67.5006 266.847C65.6273 263.602 62.6016 261.279 58.9845 260.309L58.7053 261.35C62.0461 262.246 64.8365 264.388 66.5671 267.386L67.5006 266.847ZM58.9845 260.309C55.3675 259.339 51.5866 259.836 48.3431 261.709L48.8821 262.643C51.878 260.913 55.3645 260.454 58.7053 261.35L58.9845 260.309ZM63.0869 287.246C59.6569 289.226 55.4749 289.9 51.3572 288.795L51.078 289.837C55.4838 291.018 59.9591 290.297 63.6259 288.18L63.0869 287.246ZM51.3571 288.795C47.3669 287.726 44.0332 285.166 41.9675 281.588L41.034 282.127C43.2424 285.952 46.8114 288.694 51.0781 289.837L51.3571 288.795ZM41.9675 281.588C39.9001 278.007 39.3505 273.842 40.4199 269.852L39.3787 269.573C38.2352 273.839 38.8238 278.299 41.034 282.127L41.9675 281.588ZM40.42 269.851C42.6243 261.613 51.1194 256.708 59.3562 258.919L59.6356 257.877C50.8235 255.513 41.7369 260.759 39.3786 269.573L40.42 269.851ZM59.3564 258.919C63.3466 259.988 66.6794 262.546 68.7468 266.127L69.6804 265.588C67.4702 261.76 63.9021 259.02 59.6353 257.877L59.3564 258.919ZM68.7468 266.127C70.8125 269.705 71.3629 273.872 70.2935 277.862L71.3348 278.141C72.4783 273.875 71.8888 269.413 69.6804 265.588L68.7468 266.127ZM70.2935 277.862C69.191 281.981 66.5169 285.266 63.0869 287.246L63.6259 288.18C67.2927 286.063 70.1552 282.548 71.3348 278.141L70.2935 277.862Z" fill="#F0F5F6"/>
<path fill-rule="evenodd" clip-rule="evenodd" d="M50.6808 265.758C48.6054 266.957 46.9872 268.943 46.3195 271.435C44.9856 276.418 47.9533 281.558 52.9346 282.893C57.916 284.227 63.0572 281.261 64.3926 276.277C65.7274 271.296 62.7597 266.156 57.7775 264.82C55.2856 264.152 52.7546 264.561 50.6808 265.758ZM61.3562 284.249C58.6937 285.786 55.4453 286.308 52.2489 285.452C45.8545 283.74 42.0467 277.145 43.7604 270.749C45.4724 264.355 52.0679 260.547 58.4632 262.261C64.8585 263.974 68.6663 270.569 66.9518 276.963C66.0953 280.16 64.0187 282.712 61.3562 284.249Z" fill="#000033"/>
<path d="M46.3195 271.435L45.7988 271.295L45.7988 271.296L46.3195 271.435ZM52.9346 282.893L52.7951 283.413L52.9346 282.893ZM64.3926 276.277L64.9133 276.417L64.3926 276.277ZM57.7775 264.82L57.9171 264.299L57.917 264.299L57.7775 264.82ZM52.2489 285.452L52.3884 284.931L52.3883 284.931L52.2489 285.452ZM43.7604 270.749L44.281 270.889L44.281 270.889L43.7604 270.749ZM66.9518 276.963L66.4312 276.824L66.4311 276.824L66.9518 276.963ZM50.4113 265.292C48.2176 266.558 46.5052 268.659 45.7988 271.295L46.8401 271.574C47.4692 269.227 48.9932 267.355 50.9503 266.225L50.4113 265.292ZM45.7988 271.296C44.388 276.566 47.5262 282.002 52.7951 283.413L53.0741 282.372C48.3804 281.114 45.5832 276.27 46.8401 271.574L45.7988 271.296ZM52.7951 283.413C58.0639 284.825 63.5008 281.688 64.9133 276.417L63.872 276.138C62.6136 280.834 57.768 283.63 53.0741 282.372L52.7951 283.413ZM64.9133 276.417C66.3251 271.148 63.1867 265.712 57.9171 264.299L57.6379 265.34C62.3327 266.599 65.1297 271.444 63.872 276.138L64.9133 276.417ZM57.917 264.299C55.2809 263.593 52.6033 264.026 50.4113 265.292L50.9503 266.225C52.9059 265.096 55.2903 264.711 57.638 265.34L57.917 264.299ZM61.0867 283.782C58.5426 285.251 55.4409 285.749 52.3884 284.931L52.1094 285.973C55.4497 286.868 58.8447 286.321 61.6257 284.716L61.0867 283.782ZM52.3883 284.931C46.2816 283.296 42.6443 276.997 44.281 270.889L43.2397 270.61C41.449 277.293 45.4274 284.184 52.1095 285.973L52.3883 284.931ZM44.281 270.889C45.9161 264.782 52.2159 261.145 58.3237 262.781L58.6027 261.74C51.9199 259.949 45.0288 263.928 43.2397 270.61L44.281 270.889ZM58.3237 262.781C64.4315 264.418 68.0686 270.718 66.4312 276.824L67.4724 277.103C69.2641 270.421 65.2855 263.531 58.6027 261.74L58.3237 262.781ZM66.4311 276.824C65.6132 279.876 63.6307 282.313 61.0867 283.782L61.6257 284.716C64.4066 283.11 66.5773 280.443 67.4724 277.103L66.4311 276.824Z" fill="#F0F5F6"/>
<path fill-rule="evenodd" clip-rule="evenodd" d="M62.1265 291.31L69.0416 303.287C69.8515 304.69 71.6451 305.17 73.0477 304.36C74.4504 303.551 74.931 301.757 74.1211 300.354L67.2064 288.378" fill="#00E599"/>
<path d="M62.1265 291.31L69.0416 303.287C69.8515 304.69 71.6451 305.17 73.0477 304.36V304.36C74.4504 303.551 74.931 301.757 74.1211 300.354L67.2064 288.378" stroke="#000033" stroke-width="1.5"/>
<path d="M66.7359 283.526L67.9367 285.646C68.489 286.602 68.1612 287.826 67.2046 288.378L62.0085 291.378C61.0519 291.93 59.8287 291.602 59.2764 290.646L58.0191 288.347" stroke="#000033" stroke-width="1.5"/>
<defs>
<filter id="filter0_dd" x="78.4189" y="0" width="177.162" height="200" filterUnits="userSpaceOnUse" color-interpolation-filters="sRGB">
<feFlood flood-opacity="0" result="BackgroundImageFix"/>
<feColorMatrix in="SourceAlpha" type="matrix" values="0 0 0 0 0 0 0 0 0 0 0 0 0 0 0 0 0 0 127 0" result="hardAlpha"/>
<feOffset dx="-17" dy="20"/>
<feGaussianBlur stdDeviation="8.5"/>
<feColorMatrix type="matrix" values="0 0 0 0 0.316369 0 0 0 0 0.366988 0 0 0 0 0.353496 0 0 0 0.25741 0"/>
<feBlend mode="normal" in2="BackgroundImageFix" result="effect1_dropShadow"/>
<feColorMatrix in="SourceAlpha" type="matrix" values="0 0 0 0 0 0 0 0 0 0 0 0 0 0 0 0 0 0 127 0" result="hardAlpha"/>
<feOffset dx="-5" dy="10"/>
<feGaussianBlur stdDeviation="3.5"/>
<feColorMatrix type="matrix" values="0 0 0 0 0 0 0 0 0 0 0 0 0 0 0 0 0 0 0.144615 0"/>
<feBlend mode="normal" in2="effect1_dropShadow" result="effect2_dropShadow"/>
<feBlend mode="normal" in="SourceGraphic" in2="effect2_dropShadow" result="shape"/>
</filter>
<filter id="filter1_dd" x="245.359" y="231.5" width="102.282" height="109" filterUnits="userSpaceOnUse" color-interpolation-filters="sRGB">
<feFlood flood-opacity="0" result="BackgroundImageFix"/>
<feColorMatrix in="SourceAlpha" type="matrix" values="0 0 0 0 0 0 0 0 0 0 0 0 0 0 0 0 0 0 127 0" result="hardAlpha"/>
<feOffset dx="-13" dy="7"/>
<feGaussianBlur stdDeviation="6"/>
<feColorMatrix type="matrix" values="0 0 0 0 0.316369 0 0 0 0 0.366988 0 0 0 0 0.353496 0 0 0 0.25741 0"/>
<feBlend mode="normal" in2="BackgroundImageFix" result="effect1_dropShadow"/>
<feColorMatrix in="SourceAlpha" type="matrix" values="0 0 0 0 0 0 0 0 0 0 0 0 0 0 0 0 0 0 127 0" result="hardAlpha"/>
<feOffset dx="-4" dy="2"/>
<feGaussianBlur stdDeviation="6"/>
<feColorMatrix type="matrix" values="0 0 0 0 0 0 0 0 0 0 0 0 0 0 0 0 0 0 0.144615 0"/>
<feBlend mode="normal" in2="effect1_dropShadow" result="effect2_dropShadow"/>
<feBlend mode="normal" in="SourceGraphic" in2="effect2_dropShadow" result="shape"/>
</filter>
<filter id="filter2_dd" x="163.859" y="231.5" width="102.282" height="109" filterUnits="userSpaceOnUse" color-interpolation-filters="sRGB">
<feFlood flood-opacity="0" result="BackgroundImageFix"/>
<feColorMatrix in="SourceAlpha" type="matrix" values="0 0 0 0 0 0 0 0 0 0 0 0 0 0 0 0 0 0 127 0" result="hardAlpha"/>
<feOffset dx="-13" dy="7"/>
<feGaussianBlur stdDeviation="6"/>
<feColorMatrix type="matrix" values="0 0 0 0 0.316369 0 0 0 0 0.366988 0 0 0 0 0.353496 0 0 0 0.25741 0"/>
<feBlend mode="normal" in2="BackgroundImageFix" result="effect1_dropShadow"/>
<feColorMatrix in="SourceAlpha" type="matrix" values="0 0 0 0 0 0 0 0 0 0 0 0 0 0 0 0 0 0 127 0" result="hardAlpha"/>
<feOffset dx="-4" dy="2"/>
<feGaussianBlur stdDeviation="6"/>
<feColorMatrix type="matrix" values="0 0 0 0 0 0 0 0 0 0 0 0 0 0 0 0 0 0 0.144615 0"/>
<feBlend mode="normal" in2="effect1_dropShadow" result="effect2_dropShadow"/>
<feBlend mode="normal" in="SourceGraphic" in2="effect2_dropShadow" result="shape"/>
</filter>
<filter id="filter3_dd" x="82.3589" y="231.5" width="102.282" height="109" filterUnits="userSpaceOnUse" color-interpolation-filters="sRGB">
<feFlood flood-opacity="0" result="BackgroundImageFix"/>
<feColorMatrix in="SourceAlpha" type="matrix" values="0 0 0 0 0 0 0 0 0 0 0 0 0 0 0 0 0 0 127 0" result="hardAlpha"/>
<feOffset dx="-13" dy="7"/>
<feGaussianBlur stdDeviation="6"/>
<feColorMatrix type="matrix" values="0 0 0 0 0.316369 0 0 0 0 0.366988 0 0 0 0 0.353496 0 0 0 0.25741 0"/>
<feBlend mode="normal" in2="BackgroundImageFix" result="effect1_dropShadow"/>
<feColorMatrix in="SourceAlpha" type="matrix" values="0 0 0 0 0 0 0 0 0 0 0 0 0 0 0 0 0 0 127 0" result="hardAlpha"/>
<feOffset dx="-4" dy="2"/>
<feGaussianBlur stdDeviation="6"/>
<feColorMatrix type="matrix" values="0 0 0 0 0 0 0 0 0 0 0 0 0 0 0 0 0 0 0.144615 0"/>
<feBlend mode="normal" in2="effect1_dropShadow" result="effect2_dropShadow"/>
<feBlend mode="normal" in="SourceGraphic" in2="effect2_dropShadow" result="shape"/>
</filter>
<filter id="filter4_dd" x="0.858887" y="231.5" width="102.282" height="109" filterUnits="userSpaceOnUse" color-interpolation-filters="sRGB">
<feFlood flood-opacity="0" result="BackgroundImageFix"/>
<feColorMatrix in="SourceAlpha" type="matrix" values="0 0 0 0 0 0 0 0 0 0 0 0 0 0 0 0 0 0 127 0" result="hardAlpha"/>
<feOffset dx="-13" dy="7"/>
<feGaussianBlur stdDeviation="6"/>
<feColorMatrix type="matrix" values="0 0 0 0 0.316369 0 0 0 0 0.366988 0 0 0 0 0.353496 0 0 0 0.25741 0"/>
<feBlend mode="normal" in2="BackgroundImageFix" result="effect1_dropShadow"/>
<feColorMatrix in="SourceAlpha" type="matrix" values="0 0 0 0 0 0 0 0 0 0 0 0 0 0 0 0 0 0 127 0" result="hardAlpha"/>
<feOffset dx="-4" dy="2"/>
<feGaussianBlur stdDeviation="6"/>
<feColorMatrix type="matrix" values="0 0 0 0 0 0 0 0 0 0 0 0 0 0 0 0 0 0 0.144615 0"/>
<feBlend mode="normal" in2="effect1_dropShadow" result="effect2_dropShadow"/>
<feBlend mode="normal" in="SourceGraphic" in2="effect2_dropShadow" result="shape"/>
</filter>
</defs>
</svg>
