<svg id="DESIGN" xmlns="http://www.w3.org/2000/svg" xmlns:xlink="http://www.w3.org/1999/xlink" viewBox="0 0 442 630"><defs><style>.cls-1{fill:none;}.cls-2{clip-path:url(#clip-path);}.cls-3{opacity:0.8;}.cls-4{opacity:0.6;}.cls-5{fill:#9ecd5e;}.cls-6{fill:#4eab47;}.cls-7{fill:#70b744;}.cls-8{fill:#5b9e43;}.cls-9{opacity:0.5;}.cls-10{fill:#67a843;}.cls-11{fill:#13803f;}</style><clipPath id="clip-path"><rect class="cls-1" y="-370" width="1169.45" height="1000.42"/></clipPath></defs><title>left</title><g class="cls-2"><g class="cls-3"><g class="cls-4"><polygon class="cls-5" points="190.34 373.99 190.34 171.81 128.46 208.51 128.46 349.89 190.34 373.99"/></g><path class="cls-6" d="M130.45,421l-69-35.27,0-213.12,68.93,34.7Zm-65-37.73,61,31.21V209.74l-61-30.7Z"/><polygon class="cls-7" points="-70.12 42.35 -4.94 83.5 66.48 42.7 -0.75 4.96 -70.12 42.35"/><g class="cls-4"><path class="cls-8" d="M-3.8,274.13V84.8L65.5,44.4l-.77,193.71Zm4-187V267.53l60.6-31.85L61.5,51.35Z"/></g><polygon class="cls-7" points="1.1 347.07 0.25 187.05 -64.39 159.35 -64.39 308.68 1.1 347.07"/><polygon class="cls-6" points="65.05 311.76 65.05 147.29 1.1 143.94 1.1 270.83 65.05 311.76"/><polygon class="cls-5" points="0.25 187.05 63.5 147.29 -1.82 121.96 -64.39 159.35 0.25 187.05"/></g><g class="cls-9"><polygon class="cls-6" points="58.4 966.03 63.59 563.06 -102.63 479.36 -100.07 882.34 58.4 966.03"/><path class="cls-10" d="M60.55,565.06a1.9,1.9,0,0,1-.9-.22l-163.18-83.7a2,2,0,0,1-1.09-1.74,2,2,0,0,1,1-1.78L62.62,383.47a2,2,0,0,1,1.9,0l155.83,82.71a2,2,0,0,1,.09,3.49L61.57,564.78A2.09,2.09,0,0,1,60.55,565.06Zm-159-85.79,158.91,81.5L215.36,468,63.62,387.49Z"/></g><path class="cls-11" d="M219.42,858a1.93,1.93,0,0,1-.67-.12L59.88,800.32a2,2,0,0,1-1.32-1.89V563.06a2,2,0,0,1,1-1.72L218.41,466.2a2,2,0,0,1,2,0,2,2,0,0,1,1,1.74V856a2,2,0,0,1-.85,1.64A2,2,0,0,1,219.42,858ZM62.54,797l154.9,56.1V471.44L62.54,564.2Z"/><g class="cls-9"><polygon class="cls-6" points="327.15 658.08 330.62 389.31 219.75 333.49 221.46 602.27 327.15 658.08"/><path class="cls-10" d="M328.59,390.65a1.27,1.27,0,0,1-.6-.15L219.15,334.68a1.34,1.34,0,0,1-.05-2.35L330,269.54a1.29,1.29,0,0,1,1.26,0l103.94,55.16a1.38,1.38,0,0,1,.71,1.15,1.35,1.35,0,0,1-.65,1.18l-106,63.45A1.3,1.3,0,0,1,328.59,390.65Zm-106-57.22,106,54.36,103.3-61.86-101.2-53.71Z"/></g><path class="cls-11" d="M437.53,586a1.19,1.19,0,0,1-.45-.08l-106-38.37a1.34,1.34,0,0,1-.88-1.26v-157a1.35,1.35,0,0,1,.65-1.15l106-63.45a1.32,1.32,0,0,1,2,1.14V584.68a1.33,1.33,0,0,1-.57,1.09A1.29,1.29,0,0,1,437.53,586ZM332.89,545.37l103.32,37.41V328.21L332.89,390.07Z"/></g></svg>