<?xml version="1.0" encoding="UTF-8"?>
<svg width="138px" height="138px" viewBox="0 0 138 138" version="1.1" xmlns="http://www.w3.org/2000/svg" xmlns:xlink="http://www.w3.org/1999/xlink">
    <!-- Generator: Sketch 53.2 (72643) - https://sketchapp.com -->
    <title>Accordion New</title>
    <desc>Created with Sketch.</desc>
    <defs>
        <linearGradient x1="83.4103016%" y1="15.4321493%" x2="26.0828937%" y2="94.0886198%" id="linearGradient-1">
            <stop stop-color="#BEEB00" offset="0%"></stop>
            <stop stop-color="#00A62C" offset="99%"></stop>
        </linearGradient>
        <linearGradient x1="77.5650361%" y1="37.6075503%" x2="39.234911%" y2="63.0025397%" id="linearGradient-2">
            <stop stop-color="#BEEB00" offset="0%"></stop>
            <stop stop-color="#00A62C" offset="99%"></stop>
        </linearGradient>
        <linearGradient x1="49.9695361%" y1="99.9137009%" x2="49.9695361%" y2="-0.0467709673%" id="linearGradient-3">
            <stop stop-color="#BEEB00" offset="0%"></stop>
            <stop stop-color="#00A62C" offset="100%"></stop>
        </linearGradient>
        <linearGradient x1="16.511196%" y1="15.3991027%" x2="73.8009116%" y2="94.0446994%" id="linearGradient-4">
            <stop stop-color="#BEEB00" offset="0%"></stop>
            <stop stop-color="#00A62C" offset="99%"></stop>
        </linearGradient>
        <linearGradient x1="22.5878971%" y1="37.6346696%" x2="60.8755881%" y2="62.9739972%" id="linearGradient-5">
            <stop stop-color="#BEEB00" offset="0%"></stop>
            <stop stop-color="#00A62C" offset="99%"></stop>
        </linearGradient>
        <linearGradient x1="49.9329946%" y1="99.9225938%" x2="49.9329946%" y2="0.0333544524%" id="linearGradient-6">
            <stop stop-color="#B8E901" offset="0%"></stop>
            <stop stop-color="#00A62C" offset="100%"></stop>
        </linearGradient>
        <linearGradient x1="80.1782861%" y1="22.3479213%" x2="28.7979933%" y2="85.2799309%" id="linearGradient-7">
            <stop stop-color="#BEEB00" offset="0%"></stop>
            <stop stop-color="#29B800" offset="61%"></stop>
            <stop stop-color="#00AE1D" offset="78%"></stop>
            <stop stop-color="#00A62C" offset="99%"></stop>
        </linearGradient>
        <linearGradient x1="19.7931621%" y1="22.3479213%" x2="71.173527%" y2="85.2799309%" id="linearGradient-8">
            <stop stop-color="#BEEB00" offset="0%"></stop>
            <stop stop-color="#29B800" offset="61%"></stop>
            <stop stop-color="#00AE1D" offset="78%"></stop>
            <stop stop-color="#00A62C" offset="99%"></stop>
        </linearGradient>
    </defs>
    <g id="Accordion-New" stroke="none" stroke-width="1" fill="none" fill-rule="evenodd">
        <rect id="Rectangle" stroke="#FFFFFF" fill="#FFFFFF" x="0.5" y="0.5" width="137" height="137"></rect>
        <g id="neoresearch-logo" transform="translate(16.000000, 37.000000)">
            <g id="Group" transform="translate(53.000000, 13.000000)" fill-rule="nonzero">
                <path d="M50.3294118,0.348837209 C50.1176471,0.209302326 49.9058824,0.104651163 49.6941176,0 C52.5529412,5.40697674 50.1882353,15.5232558 39.2823529,23.1627907 C33.0352941,27.5232558 24.3529412,29.1976744 16.9411765,29.6162791 C25.0588235,29.1976744 34.4823529,27.6627907 41.2588235,23.7209302 C55.4823529,15.4883721 56.4352941,4.04651163 50.3294118,0.348837209 Z" id="Path" fill="url(#linearGradient-1)"></path>
                <path d="M2.64705882,28.4651163 C6.10588235,28.255814 9.21176471,27 12.0705882,25.1162791 C8.75294118,27.0697674 5.11764706,28.3953488 0.988235294,28.5697674 C-2.15294118,28.7093023 3.56470588,29.7906977 12.1058824,29.755814 C4.69411765,29.7209302 -0.141176471,28.6395349 2.64705882,28.4651163 Z" id="Path" fill="url(#linearGradient-2)"></path>
            </g>
            <path d="M75.4589114,47.4660522 C67.4352795,40.3117947 49.9034669,40.6461058 53.4734529,41.3481591 C66.5516195,43.8554923 67.5413186,68.6948069 78.2866231,63.2121049 C82.0333411,61.2731005 82.5988835,53.8513941 75.4589114,47.4660522 Z M72.3837749,54.7874652 C65.9507308,58.4983184 64.4661822,43.2203012 56.3011646,42.0836435 C54.0743416,41.7827635 64.8903389,41.013848 70.0862592,45.1593056 C74.7166371,48.8701588 74.6105979,53.4836519 72.3837749,54.7874652 Z" id="Shape" fill="url(#linearGradient-3)" fill-rule="nonzero"></path>
            <circle id="Oval" fill="#00A62C" fill-rule="nonzero" cx="53.5" cy="41.5" r="3.5"></circle>
            <g id="Group" transform="translate(0.000000, 13.000000)" fill-rule="nonzero">
                <path d="M14.7882353,23.1627907 C3.88235294,15.5232558 1.51764706,5.40697674 4.37647059,-2.84217094e-14 C4.16470588,0.104651163 3.95294118,0.244186047 3.74117647,0.348837209 C-2.36470588,4.04651163 -1.37647059,15.4883721 12.8470588,23.755814 C19.6235294,27.6976744 29.0470588,29.1976744 37.1647059,29.6511628 C29.6823529,29.1627907 21,27.5232558 14.7882353,23.1627907 Z" id="Path" fill="url(#linearGradient-4)"></path>
                <path d="M53.0470588,28.5697674 C48.9529412,28.3604651 45.2823529,27.0697674 41.9647059,25.1162791 C44.7882353,27 47.8941176,28.255814 51.3882353,28.4651163 C54.1764706,28.6395349 49.3411765,29.7209302 41.9294118,29.755814 C50.4705882,29.7906977 56.2235294,28.744186 53.0470588,28.5697674 Z" id="Path" fill="url(#linearGradient-5)"></path>
            </g>
            <polygon id="Rectangle" fill="#00A62C" fill-rule="nonzero" transform="translate(54.682062, 36.780279) rotate(14.992312) translate(-54.682062, -36.780279) " points="54.3215324 32.3465683 55.0555895 32.3454979 55.0425906 41.2139902 54.3085336 41.2150607"></polygon>
            <polygon id="Rectangle" fill="#00A62C" fill-rule="nonzero" transform="translate(57.162645, 31.916411) rotate(-120.008555) translate(-57.162645, -31.916411) " points="56.8014885 30.1890836 57.5325471 30.1872285 57.5238014 33.6437393 56.7927428 33.6455944"></polygon>
            <polygon id="Rectangle" fill="#00A62C" fill-rule="nonzero" transform="translate(50.992348, 35.545837) rotate(152.645737) translate(-50.992348, -35.545837) " points="50.6186016 32.603764 51.3520254 32.6055123 51.3660951 38.4879098 50.6326713 38.4861615"></polygon>
            <circle id="Oval" fill="#00A62C" fill-rule="nonzero" cx="53.5" cy="41.5" r="3.5"></circle>
            <path d="M31.5358248,47.4798374 C24.4026354,53.8606013 24.9676405,61.2769865 28.7107993,63.2146007 C38.704327,68.2924861 40.258091,47.2793945 50.8872494,42.2349162 C50.8519366,42.2349162 50.8519366,42.2349162 50.8166238,42.2349162 C42.6593627,43.2371305 40.8937217,58.5041938 34.5374144,54.6623726 C32.3127068,53.326087 32.3127068,48.7159016 37.0093117,45.0745232 C41.7059166,41.4331449 50.781311,41.8006234 51.0991263,42.1012877 C51.8760084,41.7672163 52.6528904,41.4999592 53.5357108,41.3329234 C57.0669927,40.6647806 39.5518346,40.2973021 31.5358248,47.4798374 Z" id="Path" fill="url(#linearGradient-6)" fill-rule="nonzero"></path>
            <path d="M53.7798399,41.7076782 C48.0348682,42.0531846 75.4446127,46.5447688 89.7032172,36.4559798 C102.40445,27.4728114 103.269656,15.0345784 97.836159,11.0267033 C82.2624406,-0.444111605 74.8908805,40.4638549 53.7798399,41.7076782 Z" id="Path" fill="url(#linearGradient-7)" fill-rule="nonzero"></path>
            <path d="M53.2201601,41.7076782 C58.9651318,42.0531846 31.5553873,46.5447688 17.2967828,36.4559798 C4.59555023,27.4728114 3.73034365,15.0345784 9.16384098,11.0267033 C24.7375594,-0.444111605 32.1091195,40.4638549 53.2201601,41.7076782 Z" id="Path" fill="url(#linearGradient-8)" fill-rule="nonzero"></path>
            <path d="M55.3083416,41.4219678 C53.0215799,41.2395174 64.0198148,39.706934 69.6459746,43.9032933 C74.6550717,47.6617716 74.8728586,52.6609127 72.6586924,54.2299861 C66.3065766,58.7182661 63.7657302,42.1517694 55.3083416,41.4219678 Z" id="Path" fill="#00A62C" fill-rule="nonzero"></path>
            <path d="M51.6916584,41.4219678 C53.9784201,41.2395174 42.9801852,39.706934 37.3540254,43.9032933 C32.3449283,47.6617716 32.1271414,52.6609127 34.3413076,54.2299861 C40.7297212,58.7182661 43.2705676,42.1517694 51.6916584,41.4219678 Z" id="Path" fill="#00A62C" fill-rule="nonzero"></path>
            <circle id="Oval" stroke="#00A62C" stroke-width="3" cx="60.5" cy="30.5" r="2.5"></circle>
            <circle id="Oval" fill="#C1272D" fill-rule="nonzero" cx="40" cy="16" r="2"></circle>
            <ellipse id="Oval" fill="#29ABE2" fill-rule="nonzero" cx="56" cy="15.5" rx="5" ry="4.5"></ellipse>
            <circle id="Oval" fill="#00A62C" fill-rule="nonzero" cx="44.5" cy="3.5" r="3.5"></circle>
            <ellipse id="Oval" fill="#00A62C" fill-rule="nonzero" cx="48" cy="28.5" rx="5" ry="4.5"></ellipse>
            <circle id="Oval" fill="#000000" fill-rule="nonzero" cx="68" cy="8" r="2"></circle>
        </g>
    </g>
</svg>