<?xml version="1.0" encoding="utf-8"?>
<!-- Generator: Adobe Illustrator 23.0.1, SVG Export Plug-In . SVG Version: 6.00 Build 0)  -->
<svg version="1.1" id="Layer_1" xmlns="http://www.w3.org/2000/svg" xmlns:xlink="http://www.w3.org/1999/xlink" x="0px" y="0px"
	 viewBox="0 0 330.2 329.8" style="enable-background:new 0 0 330.2 329.8;" xml:space="preserve">
<style type="text/css">
	.st0{fill:#05C7FF;}
</style>
<path class="st0" d="M165.1,277.9c7.6,0,13.8-6.2,13.8-13.8c0-7.6-6.2-13.8-13.8-13.8c-23.6,0-45-9.6-60.5-25.1
	s-25.1-36.9-25.1-60.5c0-7.6-6.2-13.8-13.8-13.8c-7.6,0-13.8,6.2-13.8,13.8c0,31.2,12.7,59.5,33.1,80
	C105.6,265.2,133.8,277.9,165.1,277.9"/>
<path class="st0" d="M165.1,51.6c-7.6,0-13.8,6.2-13.8,13.8c0,7.6,6.2,13.8,13.8,13.8c23.6,0,45,9.6,60.5,25.1
	c15.5,15.5,25.1,36.9,25.1,60.5c0,7.6,6.2,13.8,13.8,13.8c7.6,0,13.8-6.2,13.8-13.8c0-31.2-12.7-59.5-33.1-80
	C224.6,64.3,196.3,51.6,165.1,51.6"/>
<path class="st0" d="M104.8,164.8C104.8,164.8,105.1,164.8,104.8,164.8"/>
<path class="st0" d="M165.1,104.5L165.1,104.5L165.1,104.5c16.7,0,31.7,6.8,42.6,17.7c10.9,10.9,17.6,26,17.6,42.6
	c0,7.6-6.2,13.8-13.8,13.8c-7.6,0-13.8-6.2-13.8-13.8c0-9-3.7-17.2-9.6-23.1c-5.9-5.9-14.1-9.6-23.1-9.6c-9,0-17.2,3.7-23.1,9.6
	c-12.7,12.7-12.7,33.6,0,46.3c5.9,5.9,14.1,9.6,23.1,9.6c7.6,0,13.8,6.2,13.8,13.8c0,7.6-6.2,13.8-13.8,13.8
	c-16.6,0-31.7-6.7-42.6-17.7c-10.9-10.9-17.7-26-17.7-42.6c0-16.6,6.7-31.7,17.7-42.6C133.4,111.2,148.4,104.5,165.1,104.5
	L165.1,104.5L165.1,104.5L165.1,104.5z"/>
<path class="st0" d="M221.3,221L221.3,221c5.4-5.4,5.4-14.1,0-19.5l-0.2-0.2c-5.4-5.4-14.1-5.3-19.5,0c-5.3,5.3-5.3,14.1,0,19.5
	l0.2,0.2C207.2,226.4,216,226.4,221.3,221"/>
<path class="st0" d="M165.1-0.3c-7.6,0-13.8,6.2-13.8,13.8c0,7.6,6.2,13.8,13.8,13.8c38,0,72.4,15.4,97.2,40.3
	c24.9,24.9,40.3,59.3,40.3,97.2c0,7.6,6.2,13.8,13.8,13.8c7.6,0,13.8-6.2,13.8-13.8c0-45.6-18.5-86.9-48.4-116.7
	C251.9,18.2,210.7-0.3,165.1-0.3"/>
<path class="st0" d="M165.1,329.8c7.6,0,13.8-6.2,13.8-13.8s-6.2-13.8-13.8-13.8c-38,0-72.4-15.4-97.2-40.3
	c-24.9-24.9-40.3-59.3-40.3-97.2c0-7.6-6.2-13.8-13.8-13.8C6.2,151,0,157.1,0,164.8c0,45.6,18.5,86.9,48.4,116.7
	C78.2,311.4,119.5,329.8,165.1,329.8"/>
</svg>
