<svg xmlns="http://www.w3.org/2000/svg" viewBox="0 0 117.22 117.22"><defs><style>.cls-1{fill:#383838;}</style></defs><title>Asset 1</title><g id="Layer_2" data-name="Layer 2"><g id="Logotype"><path class="cls-1" d="M112.71,117.22H4.52A4.51,4.51,0,0,1,0,112.71V4.52A4.52,4.52,0,0,1,4.52,0H112.71a4.51,4.51,0,0,1,4.51,4.52V112.71A4.51,4.51,0,0,1,112.71,117.22ZM40.91,84c0,2.63-.23,3.54-2.28,3.54h-.69c-2.17,0-2.4-.91-2.4-3.54V68H24V85.46c0,10.62,2.51,13.7,12.22,13.7H41c9.71,0,12.22-3.08,12.22-13.7V75.29c0-10.4-2.74-14.28-9.82-21.93-5.72-6.06-7.2-8.23-7.2-13.94V33c0-2.4.34-3.31,2.4-3.31h.68c2.06,0,2.4.91,2.4,3.54v12.8H53.25V31.77c0-10.63-2.51-13.71-12.22-13.71h-4.8C26.52,18.06,24,21.14,24,31.77V39c0,10.4,2.62,14.28,9.71,22,5.71,5.94,7.19,8.23,7.19,13.82ZM60.36,98.59H81c9.71,0,12.23-3.08,12.23-13.7V32.34c0-10.63-2.52-13.71-12.23-13.71H60.36V52.79H55.75V64.44h4.61ZM72.7,86.94V64.44h5.35V52.79H72.7V30.28h5.78c2.17,0,2.4.91,2.4,3.54V83.4c0,2.63-.23,3.54-2.4,3.54Z"/></g></g></svg>